<?xml version="1.0" encoding="utf-8" standalone="no"?>
<!DOCTYPE svg PUBLIC "-//W3C//DTD SVG 1.1//EN"
  "http://www.w3.org/Graphics/SVG/1.1/DTD/svg11.dtd">
<!-- Created with matplotlib (http://matplotlib.org/) -->
<svg height="345pt" version="1.1" viewBox="0 0 460 345" width="460pt" xmlns="http://www.w3.org/2000/svg" xmlns:xlink="http://www.w3.org/1999/xlink">
 <defs>
  <style type="text/css">
*{stroke-linecap:butt;stroke-linejoin:round;}
  </style>
 </defs>
 <g id="figure_1">
  <g id="patch_1">
   <path d="M 0 345.6 
L 460.8 345.6 
L 460.8 0 
L 0 0 
z
" style="fill:#ffffff;"/>
  </g>
  <g id="axes_1">
   <g id="patch_2">
    <path d="M 57.6 307.584 
L 414.72 307.584 
L 414.72 41.472 
L 57.6 41.472 
z
" style="fill:#ffffff;"/>
   </g>
   <g id="matplotlib.axis_1">
    <g id="xtick_1">
     <g id="line2d_1">
      <path clip-path="url(#p135160d8fc)" d="M 73.832727 307.584 
L 73.832727 41.472 
" style="fill:none;stroke:#b0b0b0;stroke-linecap:square;stroke-width:0.8;"/>
     </g>
     <g id="line2d_2">
      <defs>
       <path d="M 0 0 
L 0 3.5 
" id="m21aff0d7ac" style="stroke:#000000;stroke-width:0.8;"/>
      </defs>
      <g>
       <use style="stroke:#000000;stroke-width:0.8;" x="73.832727" xlink:href="#m21aff0d7ac" y="307.584"/>
      </g>
     </g>
     <g id="text_1">
      <!-- 0 -->
      <defs>
       <path d="M 31.78125 66.40625 
Q 24.171875 66.40625 20.328125 58.90625 
Q 16.5 51.421875 16.5 36.375 
Q 16.5 21.390625 20.328125 13.890625 
Q 24.171875 6.390625 31.78125 6.390625 
Q 39.453125 6.390625 43.28125 13.890625 
Q 47.125 21.390625 47.125 36.375 
Q 47.125 51.421875 43.28125 58.90625 
Q 39.453125 66.40625 31.78125 66.40625 
M 31.78125 74.21875 
Q 44.046875 74.21875 50.515625 64.515625 
Q 56.984375 54.828125 56.984375 36.375 
Q 56.984375 17.96875 50.515625 8.265625 
Q 44.046875 -1.421875 31.78125 -1.421875 
Q 19.53125 -1.421875 13.0625 8.265625 
Q 6.59375 17.96875 6.59375 36.375 
Q 6.59375 54.828125 13.0625 64.515625 
Q 19.53125 74.21875 31.78125 74.21875 
" id="DejaVuSans-30"/>
      </defs>
      <g transform="translate(70.651477 322.182437)scale(0.1 -0.1)">
       <use xlink:href="#DejaVuSans-30"/>
      </g>
     </g>
    </g>
    <g id="xtick_2">
     <g id="line2d_3">
      <path clip-path="url(#p135160d8fc)" d="M 127.959861 307.584 
L 127.959861 41.472 
" style="fill:none;stroke:#b0b0b0;stroke-linecap:square;stroke-width:0.8;"/>
     </g>
     <g id="line2d_4">
      <g>
       <use style="stroke:#000000;stroke-width:0.8;" x="127.959861" xlink:href="#m21aff0d7ac" y="307.584"/>
      </g>
     </g>
     <g id="text_2">
      <!-- 5 -->
      <defs>
       <path d="M 10.796875 72.90625 
L 49.515625 72.90625 
L 49.515625 64.59375 
L 19.828125 64.59375 
L 19.828125 46.734375 
Q 21.96875 47.46875 24.109375 47.828125 
Q 26.265625 48.1875 28.421875 48.1875 
Q 40.625 48.1875 47.75 41.5 
Q 54.890625 34.8125 54.890625 23.390625 
Q 54.890625 11.625 47.5625 5.09375 
Q 40.234375 -1.421875 26.90625 -1.421875 
Q 22.3125 -1.421875 17.546875 -0.640625 
Q 12.796875 0.140625 7.71875 1.703125 
L 7.71875 11.625 
Q 12.109375 9.234375 16.796875 8.0625 
Q 21.484375 6.890625 26.703125 6.890625 
Q 35.15625 6.890625 40.078125 11.328125 
Q 45.015625 15.765625 45.015625 23.390625 
Q 45.015625 31 40.078125 35.4375 
Q 35.15625 39.890625 26.703125 39.890625 
Q 22.75 39.890625 18.8125 39.015625 
Q 14.890625 38.140625 10.796875 36.28125 
z
" id="DejaVuSans-35"/>
      </defs>
      <g transform="translate(124.778611 322.182437)scale(0.1 -0.1)">
       <use xlink:href="#DejaVuSans-35"/>
      </g>
     </g>
    </g>
    <g id="xtick_3">
     <g id="line2d_5">
      <path clip-path="url(#p135160d8fc)" d="M 182.086994 307.584 
L 182.086994 41.472 
" style="fill:none;stroke:#b0b0b0;stroke-linecap:square;stroke-width:0.8;"/>
     </g>
     <g id="line2d_6">
      <g>
       <use style="stroke:#000000;stroke-width:0.8;" x="182.086994" xlink:href="#m21aff0d7ac" y="307.584"/>
      </g>
     </g>
     <g id="text_3">
      <!-- 10 -->
      <defs>
       <path d="M 12.40625 8.296875 
L 28.515625 8.296875 
L 28.515625 63.921875 
L 10.984375 60.40625 
L 10.984375 69.390625 
L 28.421875 72.90625 
L 38.28125 72.90625 
L 38.28125 8.296875 
L 54.390625 8.296875 
L 54.390625 0 
L 12.40625 0 
z
" id="DejaVuSans-31"/>
      </defs>
      <g transform="translate(175.724494 322.182437)scale(0.1 -0.1)">
       <use xlink:href="#DejaVuSans-31"/>
       <use x="63.623047" xlink:href="#DejaVuSans-30"/>
      </g>
     </g>
    </g>
    <g id="xtick_4">
     <g id="line2d_7">
      <path clip-path="url(#p135160d8fc)" d="M 236.214127 307.584 
L 236.214127 41.472 
" style="fill:none;stroke:#b0b0b0;stroke-linecap:square;stroke-width:0.8;"/>
     </g>
     <g id="line2d_8">
      <g>
       <use style="stroke:#000000;stroke-width:0.8;" x="236.214127" xlink:href="#m21aff0d7ac" y="307.584"/>
      </g>
     </g>
     <g id="text_4">
      <!-- 15 -->
      <g transform="translate(229.851627 322.182437)scale(0.1 -0.1)">
       <use xlink:href="#DejaVuSans-31"/>
       <use x="63.623047" xlink:href="#DejaVuSans-35"/>
      </g>
     </g>
    </g>
    <g id="xtick_5">
     <g id="line2d_9">
      <path clip-path="url(#p135160d8fc)" d="M 290.34126 307.584 
L 290.34126 41.472 
" style="fill:none;stroke:#b0b0b0;stroke-linecap:square;stroke-width:0.8;"/>
     </g>
     <g id="line2d_10">
      <g>
       <use style="stroke:#000000;stroke-width:0.8;" x="290.34126" xlink:href="#m21aff0d7ac" y="307.584"/>
      </g>
     </g>
     <g id="text_5">
      <!-- 20 -->
      <defs>
       <path d="M 19.1875 8.296875 
L 53.609375 8.296875 
L 53.609375 0 
L 7.328125 0 
L 7.328125 8.296875 
Q 12.9375 14.109375 22.625 23.890625 
Q 32.328125 33.6875 34.8125 36.53125 
Q 39.546875 41.84375 41.421875 45.53125 
Q 43.3125 49.21875 43.3125 52.78125 
Q 43.3125 58.59375 39.234375 62.25 
Q 35.15625 65.921875 28.609375 65.921875 
Q 23.96875 65.921875 18.8125 64.3125 
Q 13.671875 62.703125 7.8125 59.421875 
L 7.8125 69.390625 
Q 13.765625 71.78125 18.9375 73 
Q 24.125 74.21875 28.421875 74.21875 
Q 39.75 74.21875 46.484375 68.546875 
Q 53.21875 62.890625 53.21875 53.421875 
Q 53.21875 48.921875 51.53125 44.890625 
Q 49.859375 40.875 45.40625 35.40625 
Q 44.1875 33.984375 37.640625 27.21875 
Q 31.109375 20.453125 19.1875 8.296875 
" id="DejaVuSans-32"/>
      </defs>
      <g transform="translate(283.97876 322.182437)scale(0.1 -0.1)">
       <use xlink:href="#DejaVuSans-32"/>
       <use x="63.623047" xlink:href="#DejaVuSans-30"/>
      </g>
     </g>
    </g>
    <g id="xtick_6">
     <g id="line2d_11">
      <path clip-path="url(#p135160d8fc)" d="M 344.468394 307.584 
L 344.468394 41.472 
" style="fill:none;stroke:#b0b0b0;stroke-linecap:square;stroke-width:0.8;"/>
     </g>
     <g id="line2d_12">
      <g>
       <use style="stroke:#000000;stroke-width:0.8;" x="344.468394" xlink:href="#m21aff0d7ac" y="307.584"/>
      </g>
     </g>
     <g id="text_6">
      <!-- 25 -->
      <g transform="translate(338.105894 322.182437)scale(0.1 -0.1)">
       <use xlink:href="#DejaVuSans-32"/>
       <use x="63.623047" xlink:href="#DejaVuSans-35"/>
      </g>
     </g>
    </g>
    <g id="xtick_7">
     <g id="line2d_13">
      <path clip-path="url(#p135160d8fc)" d="M 398.595527 307.584 
L 398.595527 41.472 
" style="fill:none;stroke:#b0b0b0;stroke-linecap:square;stroke-width:0.8;"/>
     </g>
     <g id="line2d_14">
      <g>
       <use style="stroke:#000000;stroke-width:0.8;" x="398.595527" xlink:href="#m21aff0d7ac" y="307.584"/>
      </g>
     </g>
     <g id="text_7">
      <!-- 30 -->
      <defs>
       <path d="M 40.578125 39.3125 
Q 47.65625 37.796875 51.625 33 
Q 55.609375 28.21875 55.609375 21.1875 
Q 55.609375 10.40625 48.1875 4.484375 
Q 40.765625 -1.421875 27.09375 -1.421875 
Q 22.515625 -1.421875 17.65625 -0.515625 
Q 12.796875 0.390625 7.625 2.203125 
L 7.625 11.71875 
Q 11.71875 9.328125 16.59375 8.109375 
Q 21.484375 6.890625 26.8125 6.890625 
Q 36.078125 6.890625 40.9375 10.546875 
Q 45.796875 14.203125 45.796875 21.1875 
Q 45.796875 27.640625 41.28125 31.265625 
Q 36.765625 34.90625 28.71875 34.90625 
L 20.21875 34.90625 
L 20.21875 43.015625 
L 29.109375 43.015625 
Q 36.375 43.015625 40.234375 45.921875 
Q 44.09375 48.828125 44.09375 54.296875 
Q 44.09375 59.90625 40.109375 62.90625 
Q 36.140625 65.921875 28.71875 65.921875 
Q 24.65625 65.921875 20.015625 65.03125 
Q 15.375 64.15625 9.8125 62.3125 
L 9.8125 71.09375 
Q 15.4375 72.65625 20.34375 73.4375 
Q 25.25 74.21875 29.59375 74.21875 
Q 40.828125 74.21875 47.359375 69.109375 
Q 53.90625 64.015625 53.90625 55.328125 
Q 53.90625 49.265625 50.4375 45.09375 
Q 46.96875 40.921875 40.578125 39.3125 
" id="DejaVuSans-33"/>
      </defs>
      <g transform="translate(392.233027 322.182437)scale(0.1 -0.1)">
       <use xlink:href="#DejaVuSans-33"/>
       <use x="63.623047" xlink:href="#DejaVuSans-30"/>
      </g>
     </g>
    </g>
    <g id="text_8">
     <!-- t -->
     <defs>
      <path d="M 18.3125 70.21875 
L 18.3125 54.6875 
L 36.8125 54.6875 
L 36.8125 47.703125 
L 18.3125 47.703125 
L 18.3125 18.015625 
Q 18.3125 11.328125 20.140625 9.421875 
Q 21.96875 7.515625 27.59375 7.515625 
L 36.8125 7.515625 
L 36.8125 0 
L 27.59375 0 
Q 17.1875 0 13.234375 3.875 
Q 9.28125 7.765625 9.28125 18.015625 
L 9.28125 47.703125 
L 2.6875 47.703125 
L 2.6875 54.6875 
L 9.28125 54.6875 
L 9.28125 70.21875 
z
" id="DejaVuSans-74"/>
     </defs>
     <g transform="translate(234.199844 335.860562)scale(0.1 -0.1)">
      <use xlink:href="#DejaVuSans-74"/>
     </g>
    </g>
   </g>
   <g id="matplotlib.axis_2">
    <g id="ytick_1">
     <g id="line2d_15">
      <path clip-path="url(#p135160d8fc)" d="M 57.6 291.698599 
L 414.72 291.698599 
" style="fill:none;stroke:#b0b0b0;stroke-linecap:square;stroke-width:0.8;"/>
     </g>
     <g id="line2d_16">
      <defs>
       <path d="M 0 0 
L -3.5 0 
" id="m7aed3ab6bb" style="stroke:#000000;stroke-width:0.8;"/>
      </defs>
      <g>
       <use style="stroke:#000000;stroke-width:0.8;" x="57.6" xlink:href="#m7aed3ab6bb" y="291.698599"/>
      </g>
     </g>
     <g id="text_9">
      <!-- −1.0 -->
      <defs>
       <path d="M 10.59375 35.5 
L 73.1875 35.5 
L 73.1875 27.203125 
L 10.59375 27.203125 
z
" id="DejaVuSans-2212"/>
       <path d="M 10.6875 12.40625 
L 21 12.40625 
L 21 0 
L 10.6875 0 
z
" id="DejaVuSans-2e"/>
      </defs>
      <g transform="translate(26.317187 295.497817)scale(0.1 -0.1)">
       <use xlink:href="#DejaVuSans-2212"/>
       <use x="83.789062" xlink:href="#DejaVuSans-31"/>
       <use x="147.412109" xlink:href="#DejaVuSans-2e"/>
       <use x="179.199219" xlink:href="#DejaVuSans-30"/>
      </g>
     </g>
    </g>
    <g id="ytick_2">
     <g id="line2d_17">
      <path clip-path="url(#p135160d8fc)" d="M 57.6 254.778313 
L 414.72 254.778313 
" style="fill:none;stroke:#b0b0b0;stroke-linecap:square;stroke-width:0.8;"/>
     </g>
     <g id="line2d_18">
      <g>
       <use style="stroke:#000000;stroke-width:0.8;" x="57.6" xlink:href="#m7aed3ab6bb" y="254.778313"/>
      </g>
     </g>
     <g id="text_10">
      <!-- −0.5 -->
      <g transform="translate(26.317187 258.577532)scale(0.1 -0.1)">
       <use xlink:href="#DejaVuSans-2212"/>
       <use x="83.789062" xlink:href="#DejaVuSans-30"/>
       <use x="147.412109" xlink:href="#DejaVuSans-2e"/>
       <use x="179.199219" xlink:href="#DejaVuSans-35"/>
      </g>
     </g>
    </g>
    <g id="ytick_3">
     <g id="line2d_19">
      <path clip-path="url(#p135160d8fc)" d="M 57.6 217.858027 
L 414.72 217.858027 
" style="fill:none;stroke:#b0b0b0;stroke-linecap:square;stroke-width:0.8;"/>
     </g>
     <g id="line2d_20">
      <g>
       <use style="stroke:#000000;stroke-width:0.8;" x="57.6" xlink:href="#m7aed3ab6bb" y="217.858027"/>
      </g>
     </g>
     <g id="text_11">
      <!-- 0.0 -->
      <g transform="translate(34.696875 221.657246)scale(0.1 -0.1)">
       <use xlink:href="#DejaVuSans-30"/>
       <use x="63.623047" xlink:href="#DejaVuSans-2e"/>
       <use x="95.410156" xlink:href="#DejaVuSans-30"/>
      </g>
     </g>
    </g>
    <g id="ytick_4">
     <g id="line2d_21">
      <path clip-path="url(#p135160d8fc)" d="M 57.6 180.937742 
L 414.72 180.937742 
" style="fill:none;stroke:#b0b0b0;stroke-linecap:square;stroke-width:0.8;"/>
     </g>
     <g id="line2d_22">
      <g>
       <use style="stroke:#000000;stroke-width:0.8;" x="57.6" xlink:href="#m7aed3ab6bb" y="180.937742"/>
      </g>
     </g>
     <g id="text_12">
      <!-- 0.5 -->
      <g transform="translate(34.696875 184.736961)scale(0.1 -0.1)">
       <use xlink:href="#DejaVuSans-30"/>
       <use x="63.623047" xlink:href="#DejaVuSans-2e"/>
       <use x="95.410156" xlink:href="#DejaVuSans-35"/>
      </g>
     </g>
    </g>
    <g id="ytick_5">
     <g id="line2d_23">
      <path clip-path="url(#p135160d8fc)" d="M 57.6 144.017456 
L 414.72 144.017456 
" style="fill:none;stroke:#b0b0b0;stroke-linecap:square;stroke-width:0.8;"/>
     </g>
     <g id="line2d_24">
      <g>
       <use style="stroke:#000000;stroke-width:0.8;" x="57.6" xlink:href="#m7aed3ab6bb" y="144.017456"/>
      </g>
     </g>
     <g id="text_13">
      <!-- 1.0 -->
      <g transform="translate(34.696875 147.816675)scale(0.1 -0.1)">
       <use xlink:href="#DejaVuSans-31"/>
       <use x="63.623047" xlink:href="#DejaVuSans-2e"/>
       <use x="95.410156" xlink:href="#DejaVuSans-30"/>
      </g>
     </g>
    </g>
    <g id="ytick_6">
     <g id="line2d_25">
      <path clip-path="url(#p135160d8fc)" d="M 57.6 107.097171 
L 414.72 107.097171 
" style="fill:none;stroke:#b0b0b0;stroke-linecap:square;stroke-width:0.8;"/>
     </g>
     <g id="line2d_26">
      <g>
       <use style="stroke:#000000;stroke-width:0.8;" x="57.6" xlink:href="#m7aed3ab6bb" y="107.097171"/>
      </g>
     </g>
     <g id="text_14">
      <!-- 1.5 -->
      <g transform="translate(34.696875 110.89639)scale(0.1 -0.1)">
       <use xlink:href="#DejaVuSans-31"/>
       <use x="63.623047" xlink:href="#DejaVuSans-2e"/>
       <use x="95.410156" xlink:href="#DejaVuSans-35"/>
      </g>
     </g>
    </g>
    <g id="ytick_7">
     <g id="line2d_27">
      <path clip-path="url(#p135160d8fc)" d="M 57.6 70.176885 
L 414.72 70.176885 
" style="fill:none;stroke:#b0b0b0;stroke-linecap:square;stroke-width:0.8;"/>
     </g>
     <g id="line2d_28">
      <g>
       <use style="stroke:#000000;stroke-width:0.8;" x="57.6" xlink:href="#m7aed3ab6bb" y="70.176885"/>
      </g>
     </g>
     <g id="text_15">
      <!-- 2.0 -->
      <g transform="translate(34.696875 73.976104)scale(0.1 -0.1)">
       <use xlink:href="#DejaVuSans-32"/>
       <use x="63.623047" xlink:href="#DejaVuSans-2e"/>
       <use x="95.410156" xlink:href="#DejaVuSans-30"/>
      </g>
     </g>
    </g>
    <g id="text_16">
     <!-- y -->
     <defs>
      <path d="M 32.171875 -5.078125 
Q 28.375 -14.84375 24.75 -17.8125 
Q 21.140625 -20.796875 15.09375 -20.796875 
L 7.90625 -20.796875 
L 7.90625 -13.28125 
L 13.1875 -13.28125 
Q 16.890625 -13.28125 18.9375 -11.515625 
Q 21 -9.765625 23.484375 -3.21875 
L 25.09375 0.875 
L 2.984375 54.6875 
L 12.5 54.6875 
L 29.59375 11.921875 
L 46.6875 54.6875 
L 56.203125 54.6875 
z
" id="DejaVuSans-79"/>
     </defs>
     <g transform="translate(20.2375 177.487375)rotate(-90)scale(0.1 -0.1)">
      <use xlink:href="#DejaVuSans-79"/>
     </g>
    </g>
   </g>
   <g id="line2d_29">
    <path clip-path="url(#p135160d8fc)" d="M 73.832727 217.858027 
L 74.049236 217.747727 
L 74.265744 217.142785 
L 74.590507 214.959748 
L 75.023524 209.695828 
L 75.564796 199.969494 
L 76.43083 179.357483 
L 78.162898 130.51372 
L 79.570203 93.600391 
L 80.544492 73.578816 
L 81.302272 62.385577 
L 81.843543 57.073533 
L 82.27656 54.53704 
L 82.601323 53.661968 
L 82.817831 53.573207 
L 83.03434 53.881295 
L 83.359103 55.085912 
L 83.79212 58.064345 
L 84.333391 63.937168 
L 84.982917 73.975662 
L 85.740697 89.429779 
L 86.714985 114.242461 
L 88.12229 156.678877 
L 90.936901 242.765303 
L 92.019444 268.286936 
L 92.777224 281.672808 
L 93.42675 289.719171 
L 93.968021 293.818977 
L 94.292784 295.100626 
L 94.509292 295.457219 
L 94.725801 295.413972 
L 94.942309 294.971028 
L 95.267072 293.560748 
L 95.700089 290.306138 
L 96.24136 284.09341 
L 96.890886 273.668594 
L 97.648666 257.813106 
L 98.622954 232.593408 
L 100.03026 189.843564 
L 102.628362 109.99383 
L 103.710905 83.667031 
L 104.576939 67.901543 
L 105.226465 59.734587 
L 105.767736 55.528781 
L 106.092499 54.182108 
L 106.309007 53.781872 
L 106.525516 53.781409 
L 106.742024 54.180721 
L 107.066787 55.526016 
L 107.499804 58.695595 
L 108.041076 64.80621 
L 108.690601 75.117383 
L 109.448381 90.856784 
L 110.422669 115.960419 
L 111.829975 158.62232 
L 114.536332 241.505406 
L 115.618874 267.319264 
L 116.376654 280.958911 
L 117.02618 289.24625 
L 117.567451 293.557955 
L 118.000468 295.241469 
L 118.216977 295.485604 
L 118.433485 295.329808 
L 118.649994 294.774595 
L 118.974756 293.197249 
L 119.407774 289.724311 
L 119.949045 283.249828 
L 120.59857 272.534357 
L 121.464605 253.788833 
L 122.547147 224.624516 
L 124.279215 170.543444 
L 126.227792 111.283785 
L 127.310335 84.675731 
L 128.176369 68.624205 
L 128.825895 60.216811 
L 129.367166 55.799378 
L 129.800183 54.029128 
L 130.016692 53.741299 
L 130.2332 53.853379 
L 130.449709 54.364996 
L 130.774471 55.877489 
L 131.207489 59.265718 
L 131.74876 65.638712 
L 132.398285 76.241598 
L 133.156065 92.278557 
L 134.130354 117.678933 
L 135.645913 164.02254 
L 138.135762 240.23386 
L 139.218304 266.336383 
L 140.084338 281.875006 
L 140.733864 289.851828 
L 141.275135 293.890615 
L 141.599898 295.134872 
L 141.816407 295.466382 
L 142.032915 295.398023 
L 142.249424 294.930023 
L 142.574187 293.482442 
L 143.007204 290.179057 
L 143.548475 283.907803 
L 144.198001 273.417923 
L 144.95578 257.49607 
L 145.930069 232.210193 
L 147.445629 185.954169 
L 149.935477 109.625501 
L 151.018019 83.380191 
L 151.884053 67.697256 
L 152.533579 59.599544 
L 153.07485 55.454599 
L 153.399613 54.145259 
L 153.616122 53.770081 
L 153.83263 53.794716 
L 154.049139 54.219081 
L 154.373902 55.601693 
L 154.806919 58.820104 
L 155.34819 64.989369 
L 155.997716 75.365829 
L 156.755495 91.171945 
L 157.729784 116.342325 
L 159.137089 159.054914 
L 161.843446 241.868386 
L 162.925989 267.598644 
L 163.683769 281.165619 
L 164.333294 289.383899 
L 164.874565 293.63484 
L 165.199328 295.00921 
L 165.415837 295.428042 
L 165.632345 295.447132 
L 165.848854 295.066418 
L 166.173617 293.74883 
L 166.606634 290.615521 
L 167.147905 284.548488 
L 167.797431 274.285859 
L 168.555211 258.596104 
L 169.529499 233.542219 
L 170.936804 190.918298 
L 173.643161 107.984243 
L 174.725704 82.108554 
L 175.483484 68.415085 
L 176.133009 60.076561 
L 176.674281 55.719793 
L 177.107298 53.99932 
L 177.323806 53.73657 
L 177.540315 53.873743 
L 177.756823 54.410386 
L 178.081586 55.960111 
L 178.514603 59.396979 
L 179.055874 65.828258 
L 179.7054 76.495817 
L 180.571434 95.186441 
L 181.653977 124.300528 
L 183.386045 178.352569 
L 185.334622 237.659828 
L 186.417165 264.327249 
L 187.283199 280.439376 
L 187.932724 288.897814 
L 188.473996 293.360236 
L 188.907013 295.167416 
L 189.123521 295.473855 
L 189.34003 295.3804 
L 189.556538 294.887363 
L 189.881301 293.402515 
L 190.314318 290.050415 
L 190.855589 283.720733 
L 191.505115 273.165938 
L 192.262895 257.177938 
L 193.237183 231.826217 
L 194.752743 185.519698 
L 197.242591 109.258018 
L 198.325134 83.094539 
L 199.191168 67.494362 
L 199.840694 59.466 
L 200.381965 55.381969 
L 200.706728 54.10998 
L 200.923236 53.759865 
L 201.139745 53.809597 
L 201.356253 54.25901 
L 201.681016 55.678921 
L 202.114033 58.946122 
L 202.655304 65.173957 
L 203.30483 75.615569 
L 204.06261 91.488193 
L 205.036898 116.724989 
L 206.552458 162.943146 
L 209.042306 239.320888 
L 210.124849 265.626713 
L 210.990883 281.370938 
L 211.640409 289.520053 
L 212.18168 293.710174 
L 212.506443 295.047224 
L 212.722951 295.441001 
L 212.93946 295.434994 
L 213.155968 295.029222 
L 213.480731 293.674305 
L 213.913748 290.492133 
L 214.45502 284.366391 
L 215.104545 274.038374 
L 215.862325 258.281753 
L 216.836613 233.16088 
L 218.243919 190.485859 
L 220.950276 107.620616 
L 222.032818 81.828278 
L 222.790598 68.207349 
L 223.440124 59.937803 
L 223.981395 55.641758 
L 224.306158 54.2397 
L 224.522666 53.802277 
L 224.739175 53.764559 
L 224.955683 54.126672 
L 225.280446 55.416543 
L 225.713463 58.513561 
L 226.254735 64.536967 
L 226.90426 74.750981 
L 227.66204 90.390974 
L 228.636328 115.394931 
L 230.043634 157.980566 
L 232.749991 240.964994 
L 233.832533 266.902329 
L 234.590313 280.649521 
L 235.239839 289.039171 
L 235.78111 293.44097 
L 236.214127 295.198389 
L 236.430636 295.479753 
L 236.647144 295.361204 
L 236.863653 294.843135 
L 237.188416 293.321041 
L 237.621433 289.920269 
L 238.162704 283.532241 
L 238.81223 272.912669 
L 239.570009 256.85873 
L 240.544298 231.441496 
L 242.059858 185.085085 
L 244.441451 111.836377 
L 245.523994 85.10978 
L 246.390028 68.937168 
L 247.039554 60.427746 
L 247.580825 55.920367 
L 248.013842 54.07627 
L 248.230351 53.751223 
L 248.446859 53.826052 
L 248.663368 54.300507 
L 248.988131 55.757698 
L 249.421148 59.073646 
L 249.962419 65.359971 
L 250.611945 75.866599 
L 251.369724 91.805524 
L 252.344013 117.108408 
L 253.859573 163.377507 
L 256.349421 239.689001 
L 257.431963 265.913247 
L 258.297998 281.574866 
L 258.947523 289.654709 
L 259.488794 293.783957 
L 259.813557 295.083668 
L 260.030066 295.452386 
L 260.246574 295.421281 
L 260.463083 294.990457 
L 260.787846 293.598228 
L 261.220863 290.367235 
L 261.762134 284.182863 
L 262.41166 273.789593 
L 263.16944 257.966312 
L 264.143728 232.778778 
L 265.551033 190.053212 
L 268.149136 110.172552 
L 269.231678 83.806402 
L 270.097713 68.000999 
L 270.747238 59.800539 
L 271.28851 55.565273 
L 271.613272 54.200522 
L 271.829781 53.788149 
L 272.046289 53.775529 
L 272.262798 54.162703 
L 272.587561 55.489916 
L 273.020578 58.635827 
L 273.561849 64.718002 
L 274.211375 74.997502 
L 274.969155 90.704514 
L 275.943443 115.7757 
L 277.350748 158.412848 
L 280.057105 241.329266 
L 281.139648 267.1835 
L 281.897428 280.858284 
L 282.546953 289.179036 
L 283.088225 293.520155 
L 283.521242 295.227792 
L 283.73775 295.484076 
L 283.954259 295.340434 
L 284.170767 294.797341 
L 284.49553 293.23802 
L 284.928547 289.788621 
L 285.469818 283.342329 
L 286.119344 272.658119 
L 286.985378 253.948411 
L 288.067921 224.816852 
L 289.799989 170.754684 
L 291.748566 111.463911 
L 292.831109 84.817089 
L 293.697143 68.725999 
L 294.346668 60.285284 
L 294.88794 55.838485 
L 295.320957 54.044131 
L 295.537465 53.744157 
L 295.753974 53.84408 
L 295.970482 54.343572 
L 296.295245 55.838023 
L 296.728262 59.202676 
L 297.269533 65.547408 
L 297.919059 76.118915 
L 298.676839 92.123934 
L 299.651127 117.492576 
L 301.166687 163.812015 
L 303.656535 240.056265 
L 304.739078 266.198592 
L 305.605112 281.777401 
L 306.254638 289.787867 
L 306.795909 293.856186 
L 307.120672 295.118543 
L 307.33718 295.462196 
L 307.553689 295.405994 
L 307.770197 294.950124 
L 308.09496 293.520601 
L 308.527977 290.240829 
L 309.069249 283.997907 
L 309.718774 273.53952 
L 310.476554 257.649784 
L 311.450842 232.395919 
L 312.966402 186.164572 
L 315.45625 109.803813 
L 316.538793 83.518987 
L 317.404827 67.796038 
L 318.054353 59.664772 
L 318.595624 55.490339 
L 318.920387 54.162913 
L 319.136895 53.775596 
L 319.353404 53.788073 
L 319.569912 54.200304 
L 319.894675 55.564842 
L 320.327692 58.759604 
L 320.868964 64.900469 
L 321.518489 75.245321 
L 322.276269 91.019147 
L 323.250557 116.157236 
L 324.657863 158.845341 
L 327.36422 241.692669 
L 328.446762 267.463465 
L 329.204542 281.065664 
L 329.854068 289.317409 
L 330.395339 293.597791 
L 330.720102 294.990232 
L 330.93661 295.421198 
L 331.153119 295.452446 
L 331.369627 295.083871 
L 331.69439 293.784372 
L 332.127407 290.674746 
L 332.668679 284.636181 
L 333.318204 274.405272 
L 334.075984 258.747982 
L 335.050273 233.726662 
L 336.457578 191.127694 
L 339.163935 108.160696 
L 340.246477 82.244752 
L 341.004257 68.51621 
L 341.653783 60.144311 
L 342.195054 55.75815 
L 342.628071 54.013563 
L 342.84458 53.738664 
L 343.061088 53.863683 
L 343.277597 54.388204 
L 343.60236 55.919896 
L 344.035377 59.333209 
L 344.576648 65.736266 
L 345.226174 76.372515 
L 345.983953 92.443419 
L 346.958242 117.877488 
L 348.473802 164.246664 
L 350.855395 237.479407 
L 351.937938 264.185471 
L 352.803972 280.337086 
L 353.453498 288.828806 
L 353.994769 293.320573 
L 354.427786 295.151848 
L 354.644295 295.470432 
L 354.860803 295.389133 
L 355.077312 294.908223 
L 355.402075 293.441425 
L 355.835092 290.112916 
L 356.376363 283.811526 
L 357.025889 273.288159 
L 357.783668 257.332174 
L 358.757957 232.012307 
L 360.273517 185.730172 
L 362.763365 109.435919 
L 363.845907 83.232759 
L 364.711942 67.592469 
L 365.361467 59.530501 
L 365.902738 55.416956 
L 366.227501 54.126873 
L 366.44401 53.764617 
L 366.660518 53.802192 
L 366.877027 54.239473 
L 367.20179 55.641318 
L 367.634807 58.884891 
L 368.176078 65.084365 
L 368.825604 75.494435 
L 369.583384 91.334869 
L 370.557672 116.539534 
L 371.964977 159.27804 
L 374.56308 239.142273 
L 375.645622 265.48749 
L 376.511657 281.271656 
L 377.161182 289.454287 
L 377.702454 293.673876 
L 378.027216 295.029006 
L 378.243725 295.43492 
L 378.460233 295.44107 
L 378.676742 295.047436 
L 379.001505 293.710598 
L 379.434522 290.55209 
L 379.975793 284.454777 
L 380.625319 274.158416 
L 381.383099 258.43416 
L 382.357387 233.345694 
L 383.764692 190.695357 
L 386.471049 107.796647 
L 387.553592 81.963892 
L 388.311372 68.307803 
L 388.960897 60.004831 
L 389.502169 55.679365 
L 389.935186 53.984566 
L 390.151694 53.734747 
L 390.368203 53.884858 
L 390.584711 54.434402 
L 390.909474 56.003316 
L 391.342491 59.465244 
L 391.883762 65.926542 
L 392.533288 76.627394 
L 393.399322 95.356171 
L 394.481865 124.505175 
L 396.213933 178.577425 
L 398.16251 237.851661 
L 398.487273 246.494733 
L 398.487273 246.494733 
" style="fill:none;stroke:#1f77b4;stroke-linecap:square;stroke-width:1.5;"/>
   </g>
   <g id="patch_3">
    <path d="M 57.6 307.584 
L 57.6 41.472 
" style="fill:none;stroke:#000000;stroke-linecap:square;stroke-linejoin:miter;stroke-width:0.8;"/>
   </g>
   <g id="patch_4">
    <path d="M 414.72 307.584 
L 414.72 41.472 
" style="fill:none;stroke:#000000;stroke-linecap:square;stroke-linejoin:miter;stroke-width:0.8;"/>
   </g>
   <g id="patch_5">
    <path d="M 57.6 307.584 
L 414.72 307.584 
" style="fill:none;stroke:#000000;stroke-linecap:square;stroke-linejoin:miter;stroke-width:0.8;"/>
   </g>
   <g id="patch_6">
    <path d="M 57.6 41.472 
L 414.72 41.472 
" style="fill:none;stroke:#000000;stroke-linecap:square;stroke-linejoin:miter;stroke-width:0.8;"/>
   </g>
   <g id="text_17">
    <!-- Step response for K=14.1369123504 -->
    <defs>
     <path d="M 53.515625 70.515625 
L 53.515625 60.890625 
Q 47.90625 63.578125 42.921875 64.890625 
Q 37.9375 66.21875 33.296875 66.21875 
Q 25.25 66.21875 20.875 63.09375 
Q 16.5 59.96875 16.5 54.203125 
Q 16.5 49.359375 19.40625 46.890625 
Q 22.3125 44.4375 30.421875 42.921875 
L 36.375 41.703125 
Q 47.40625 39.59375 52.65625 34.296875 
Q 57.90625 29 57.90625 20.125 
Q 57.90625 9.515625 50.796875 4.046875 
Q 43.703125 -1.421875 29.984375 -1.421875 
Q 24.8125 -1.421875 18.96875 -0.25 
Q 13.140625 0.921875 6.890625 3.21875 
L 6.890625 13.375 
Q 12.890625 10.015625 18.65625 8.296875 
Q 24.421875 6.59375 29.984375 6.59375 
Q 38.421875 6.59375 43.015625 9.90625 
Q 47.609375 13.234375 47.609375 19.390625 
Q 47.609375 24.75 44.3125 27.78125 
Q 41.015625 30.8125 33.5 32.328125 
L 27.484375 33.5 
Q 16.453125 35.6875 11.515625 40.375 
Q 6.59375 45.0625 6.59375 53.421875 
Q 6.59375 63.09375 13.40625 68.65625 
Q 20.21875 74.21875 32.171875 74.21875 
Q 37.3125 74.21875 42.625 73.28125 
Q 47.953125 72.359375 53.515625 70.515625 
" id="DejaVuSans-53"/>
     <path d="M 56.203125 29.59375 
L 56.203125 25.203125 
L 14.890625 25.203125 
Q 15.484375 15.921875 20.484375 11.0625 
Q 25.484375 6.203125 34.421875 6.203125 
Q 39.59375 6.203125 44.453125 7.46875 
Q 49.3125 8.734375 54.109375 11.28125 
L 54.109375 2.78125 
Q 49.265625 0.734375 44.1875 -0.34375 
Q 39.109375 -1.421875 33.890625 -1.421875 
Q 20.796875 -1.421875 13.15625 6.1875 
Q 5.515625 13.8125 5.515625 26.8125 
Q 5.515625 40.234375 12.765625 48.109375 
Q 20.015625 56 32.328125 56 
Q 43.359375 56 49.78125 48.890625 
Q 56.203125 41.796875 56.203125 29.59375 
M 47.21875 32.234375 
Q 47.125 39.59375 43.09375 43.984375 
Q 39.0625 48.390625 32.421875 48.390625 
Q 24.90625 48.390625 20.390625 44.140625 
Q 15.875 39.890625 15.1875 32.171875 
z
" id="DejaVuSans-65"/>
     <path d="M 18.109375 8.203125 
L 18.109375 -20.796875 
L 9.078125 -20.796875 
L 9.078125 54.6875 
L 18.109375 54.6875 
L 18.109375 46.390625 
Q 20.953125 51.265625 25.265625 53.625 
Q 29.59375 56 35.59375 56 
Q 45.5625 56 51.78125 48.09375 
Q 58.015625 40.1875 58.015625 27.296875 
Q 58.015625 14.40625 51.78125 6.484375 
Q 45.5625 -1.421875 35.59375 -1.421875 
Q 29.59375 -1.421875 25.265625 0.953125 
Q 20.953125 3.328125 18.109375 8.203125 
M 48.6875 27.296875 
Q 48.6875 37.203125 44.609375 42.84375 
Q 40.53125 48.484375 33.40625 48.484375 
Q 26.265625 48.484375 22.1875 42.84375 
Q 18.109375 37.203125 18.109375 27.296875 
Q 18.109375 17.390625 22.1875 11.75 
Q 26.265625 6.109375 33.40625 6.109375 
Q 40.53125 6.109375 44.609375 11.75 
Q 48.6875 17.390625 48.6875 27.296875 
" id="DejaVuSans-70"/>
     <path id="DejaVuSans-20"/>
     <path d="M 41.109375 46.296875 
Q 39.59375 47.171875 37.8125 47.578125 
Q 36.03125 48 33.890625 48 
Q 26.265625 48 22.1875 43.046875 
Q 18.109375 38.09375 18.109375 28.8125 
L 18.109375 0 
L 9.078125 0 
L 9.078125 54.6875 
L 18.109375 54.6875 
L 18.109375 46.1875 
Q 20.953125 51.171875 25.484375 53.578125 
Q 30.03125 56 36.53125 56 
Q 37.453125 56 38.578125 55.875 
Q 39.703125 55.765625 41.0625 55.515625 
z
" id="DejaVuSans-72"/>
     <path d="M 44.28125 53.078125 
L 44.28125 44.578125 
Q 40.484375 46.53125 36.375 47.5 
Q 32.28125 48.484375 27.875 48.484375 
Q 21.1875 48.484375 17.84375 46.4375 
Q 14.5 44.390625 14.5 40.28125 
Q 14.5 37.15625 16.890625 35.375 
Q 19.28125 33.59375 26.515625 31.984375 
L 29.59375 31.296875 
Q 39.15625 29.25 43.1875 25.515625 
Q 47.21875 21.78125 47.21875 15.09375 
Q 47.21875 7.46875 41.1875 3.015625 
Q 35.15625 -1.421875 24.609375 -1.421875 
Q 20.21875 -1.421875 15.453125 -0.5625 
Q 10.6875 0.296875 5.421875 2 
L 5.421875 11.28125 
Q 10.40625 8.6875 15.234375 7.390625 
Q 20.0625 6.109375 24.8125 6.109375 
Q 31.15625 6.109375 34.5625 8.28125 
Q 37.984375 10.453125 37.984375 14.40625 
Q 37.984375 18.0625 35.515625 20.015625 
Q 33.0625 21.96875 24.703125 23.78125 
L 21.578125 24.515625 
Q 13.234375 26.265625 9.515625 29.90625 
Q 5.8125 33.546875 5.8125 39.890625 
Q 5.8125 47.609375 11.28125 51.796875 
Q 16.75 56 26.8125 56 
Q 31.78125 56 36.171875 55.265625 
Q 40.578125 54.546875 44.28125 53.078125 
" id="DejaVuSans-73"/>
     <path d="M 30.609375 48.390625 
Q 23.390625 48.390625 19.1875 42.75 
Q 14.984375 37.109375 14.984375 27.296875 
Q 14.984375 17.484375 19.15625 11.84375 
Q 23.34375 6.203125 30.609375 6.203125 
Q 37.796875 6.203125 41.984375 11.859375 
Q 46.1875 17.53125 46.1875 27.296875 
Q 46.1875 37.015625 41.984375 42.703125 
Q 37.796875 48.390625 30.609375 48.390625 
M 30.609375 56 
Q 42.328125 56 49.015625 48.375 
Q 55.71875 40.765625 55.71875 27.296875 
Q 55.71875 13.875 49.015625 6.21875 
Q 42.328125 -1.421875 30.609375 -1.421875 
Q 18.84375 -1.421875 12.171875 6.21875 
Q 5.515625 13.875 5.515625 27.296875 
Q 5.515625 40.765625 12.171875 48.375 
Q 18.84375 56 30.609375 56 
" id="DejaVuSans-6f"/>
     <path d="M 54.890625 33.015625 
L 54.890625 0 
L 45.90625 0 
L 45.90625 32.71875 
Q 45.90625 40.484375 42.875 44.328125 
Q 39.84375 48.1875 33.796875 48.1875 
Q 26.515625 48.1875 22.3125 43.546875 
Q 18.109375 38.921875 18.109375 30.90625 
L 18.109375 0 
L 9.078125 0 
L 9.078125 54.6875 
L 18.109375 54.6875 
L 18.109375 46.1875 
Q 21.34375 51.125 25.703125 53.5625 
Q 30.078125 56 35.796875 56 
Q 45.21875 56 50.046875 50.171875 
Q 54.890625 44.34375 54.890625 33.015625 
" id="DejaVuSans-6e"/>
     <path d="M 37.109375 75.984375 
L 37.109375 68.5 
L 28.515625 68.5 
Q 23.6875 68.5 21.796875 66.546875 
Q 19.921875 64.59375 19.921875 59.515625 
L 19.921875 54.6875 
L 34.71875 54.6875 
L 34.71875 47.703125 
L 19.921875 47.703125 
L 19.921875 0 
L 10.890625 0 
L 10.890625 47.703125 
L 2.296875 47.703125 
L 2.296875 54.6875 
L 10.890625 54.6875 
L 10.890625 58.5 
Q 10.890625 67.625 15.140625 71.796875 
Q 19.390625 75.984375 28.609375 75.984375 
z
" id="DejaVuSans-66"/>
     <path d="M 9.8125 72.90625 
L 19.671875 72.90625 
L 19.671875 42.09375 
L 52.390625 72.90625 
L 65.09375 72.90625 
L 28.90625 38.921875 
L 67.671875 0 
L 54.6875 0 
L 19.671875 35.109375 
L 19.671875 0 
L 9.8125 0 
z
" id="DejaVuSans-4b"/>
     <path d="M 10.59375 45.40625 
L 73.1875 45.40625 
L 73.1875 37.203125 
L 10.59375 37.203125 
z
M 10.59375 25.484375 
L 73.1875 25.484375 
L 73.1875 17.1875 
L 10.59375 17.1875 
z
" id="DejaVuSans-3d"/>
     <path d="M 37.796875 64.3125 
L 12.890625 25.390625 
L 37.796875 25.390625 
z
M 35.203125 72.90625 
L 47.609375 72.90625 
L 47.609375 25.390625 
L 58.015625 25.390625 
L 58.015625 17.1875 
L 47.609375 17.1875 
L 47.609375 0 
L 37.796875 0 
L 37.796875 17.1875 
L 4.890625 17.1875 
L 4.890625 26.703125 
z
" id="DejaVuSans-34"/>
     <path d="M 33.015625 40.375 
Q 26.375 40.375 22.484375 35.828125 
Q 18.609375 31.296875 18.609375 23.390625 
Q 18.609375 15.53125 22.484375 10.953125 
Q 26.375 6.390625 33.015625 6.390625 
Q 39.65625 6.390625 43.53125 10.953125 
Q 47.40625 15.53125 47.40625 23.390625 
Q 47.40625 31.296875 43.53125 35.828125 
Q 39.65625 40.375 33.015625 40.375 
M 52.59375 71.296875 
L 52.59375 62.3125 
Q 48.875 64.0625 45.09375 64.984375 
Q 41.3125 65.921875 37.59375 65.921875 
Q 27.828125 65.921875 22.671875 59.328125 
Q 17.53125 52.734375 16.796875 39.40625 
Q 19.671875 43.65625 24.015625 45.921875 
Q 28.375 48.1875 33.59375 48.1875 
Q 44.578125 48.1875 50.953125 41.515625 
Q 57.328125 34.859375 57.328125 23.390625 
Q 57.328125 12.15625 50.6875 5.359375 
Q 44.046875 -1.421875 33.015625 -1.421875 
Q 20.359375 -1.421875 13.671875 8.265625 
Q 6.984375 17.96875 6.984375 36.375 
Q 6.984375 53.65625 15.1875 63.9375 
Q 23.390625 74.21875 37.203125 74.21875 
Q 40.921875 74.21875 44.703125 73.484375 
Q 48.484375 72.75 52.59375 71.296875 
" id="DejaVuSans-36"/>
     <path d="M 10.984375 1.515625 
L 10.984375 10.5 
Q 14.703125 8.734375 18.5 7.8125 
Q 22.3125 6.890625 25.984375 6.890625 
Q 35.75 6.890625 40.890625 13.453125 
Q 46.046875 20.015625 46.78125 33.40625 
Q 43.953125 29.203125 39.59375 26.953125 
Q 35.25 24.703125 29.984375 24.703125 
Q 19.046875 24.703125 12.671875 31.3125 
Q 6.296875 37.9375 6.296875 49.421875 
Q 6.296875 60.640625 12.9375 67.421875 
Q 19.578125 74.21875 30.609375 74.21875 
Q 43.265625 74.21875 49.921875 64.515625 
Q 56.59375 54.828125 56.59375 36.375 
Q 56.59375 19.140625 48.40625 8.859375 
Q 40.234375 -1.421875 26.421875 -1.421875 
Q 22.703125 -1.421875 18.890625 -0.6875 
Q 15.09375 0.046875 10.984375 1.515625 
M 30.609375 32.421875 
Q 37.25 32.421875 41.125 36.953125 
Q 45.015625 41.5 45.015625 49.421875 
Q 45.015625 57.28125 41.125 61.84375 
Q 37.25 66.40625 30.609375 66.40625 
Q 23.96875 66.40625 20.09375 61.84375 
Q 16.21875 57.28125 16.21875 49.421875 
Q 16.21875 41.5 20.09375 36.953125 
Q 23.96875 32.421875 30.609375 32.421875 
" id="DejaVuSans-39"/>
    </defs>
    <g transform="translate(124.465312 35.472)scale(0.12 -0.12)">
     <use xlink:href="#DejaVuSans-53"/>
     <use x="63.476562" xlink:href="#DejaVuSans-74"/>
     <use x="102.685547" xlink:href="#DejaVuSans-65"/>
     <use x="164.208984" xlink:href="#DejaVuSans-70"/>
     <use x="227.685547" xlink:href="#DejaVuSans-20"/>
     <use x="259.472656" xlink:href="#DejaVuSans-72"/>
     <use x="300.554688" xlink:href="#DejaVuSans-65"/>
     <use x="362.078125" xlink:href="#DejaVuSans-73"/>
     <use x="414.177734" xlink:href="#DejaVuSans-70"/>
     <use x="477.654297" xlink:href="#DejaVuSans-6f"/>
     <use x="538.835938" xlink:href="#DejaVuSans-6e"/>
     <use x="602.214844" xlink:href="#DejaVuSans-73"/>
     <use x="654.314453" xlink:href="#DejaVuSans-65"/>
     <use x="715.837891" xlink:href="#DejaVuSans-20"/>
     <use x="747.625" xlink:href="#DejaVuSans-66"/>
     <use x="782.830078" xlink:href="#DejaVuSans-6f"/>
     <use x="844.011719" xlink:href="#DejaVuSans-72"/>
     <use x="885.125" xlink:href="#DejaVuSans-20"/>
     <use x="916.912109" xlink:href="#DejaVuSans-4b"/>
     <use x="982.488281" xlink:href="#DejaVuSans-3d"/>
     <use x="1066.277344" xlink:href="#DejaVuSans-31"/>
     <use x="1129.900391" xlink:href="#DejaVuSans-34"/>
     <use x="1193.523438" xlink:href="#DejaVuSans-2e"/>
     <use x="1225.310547" xlink:href="#DejaVuSans-31"/>
     <use x="1288.933594" xlink:href="#DejaVuSans-33"/>
     <use x="1352.556641" xlink:href="#DejaVuSans-36"/>
     <use x="1416.179688" xlink:href="#DejaVuSans-39"/>
     <use x="1479.802734" xlink:href="#DejaVuSans-31"/>
     <use x="1543.425781" xlink:href="#DejaVuSans-32"/>
     <use x="1607.048828" xlink:href="#DejaVuSans-33"/>
     <use x="1670.671875" xlink:href="#DejaVuSans-35"/>
     <use x="1734.294922" xlink:href="#DejaVuSans-30"/>
     <use x="1797.917969" xlink:href="#DejaVuSans-34"/>
    </g>
   </g>
  </g>
 </g>
 <defs>
  <clipPath id="p135160d8fc">
   <rect height="266.112" width="357.12" x="57.6" y="41.472"/>
  </clipPath>
 </defs>
</svg>
