<?xml version="1.0" encoding="utf-8" standalone="no"?>
<!DOCTYPE svg PUBLIC "-//W3C//DTD SVG 1.1//EN"
  "http://www.w3.org/Graphics/SVG/1.1/DTD/svg11.dtd">
<!-- Created with matplotlib (http://matplotlib.org/) -->
<svg height="345pt" version="1.1" viewBox="0 0 460 345" width="460pt" xmlns="http://www.w3.org/2000/svg" xmlns:xlink="http://www.w3.org/1999/xlink">
 <defs>
  <style type="text/css">
*{stroke-linecap:butt;stroke-linejoin:round;}
  </style>
 </defs>
 <g id="figure_1">
  <g id="patch_1">
   <path d="M 0 345.6 
L 460.8 345.6 
L 460.8 0 
L 0 0 
z
" style="fill:#ffffff;"/>
  </g>
  <g id="axes_1">
   <g id="patch_2">
    <path d="M 57.6 307.584 
L 414.72 307.584 
L 414.72 41.472 
L 57.6 41.472 
z
" style="fill:#ffffff;"/>
   </g>
   <g id="matplotlib.axis_1">
    <g id="xtick_1">
     <g id="line2d_1">
      <path clip-path="url(#p7409606330)" d="M 73.832727 307.584 
L 73.832727 41.472 
" style="fill:none;stroke:#b0b0b0;stroke-linecap:square;stroke-width:0.8;"/>
     </g>
     <g id="line2d_2">
      <defs>
       <path d="M 0 0 
L 0 3.5 
" id="m0fffe80e0a" style="stroke:#000000;stroke-width:0.8;"/>
      </defs>
      <g>
       <use style="stroke:#000000;stroke-width:0.8;" x="73.832727" xlink:href="#m0fffe80e0a" y="307.584"/>
      </g>
     </g>
     <g id="text_1">
      <!-- 0 -->
      <defs>
       <path d="M 31.78125 66.40625 
Q 24.171875 66.40625 20.328125 58.90625 
Q 16.5 51.421875 16.5 36.375 
Q 16.5 21.390625 20.328125 13.890625 
Q 24.171875 6.390625 31.78125 6.390625 
Q 39.453125 6.390625 43.28125 13.890625 
Q 47.125 21.390625 47.125 36.375 
Q 47.125 51.421875 43.28125 58.90625 
Q 39.453125 66.40625 31.78125 66.40625 
M 31.78125 74.21875 
Q 44.046875 74.21875 50.515625 64.515625 
Q 56.984375 54.828125 56.984375 36.375 
Q 56.984375 17.96875 50.515625 8.265625 
Q 44.046875 -1.421875 31.78125 -1.421875 
Q 19.53125 -1.421875 13.0625 8.265625 
Q 6.59375 17.96875 6.59375 36.375 
Q 6.59375 54.828125 13.0625 64.515625 
Q 19.53125 74.21875 31.78125 74.21875 
" id="DejaVuSans-30"/>
      </defs>
      <g transform="translate(70.651477 322.182437)scale(0.1 -0.1)">
       <use xlink:href="#DejaVuSans-30"/>
      </g>
     </g>
    </g>
    <g id="xtick_2">
     <g id="line2d_3">
      <path clip-path="url(#p7409606330)" d="M 127.959861 307.584 
L 127.959861 41.472 
" style="fill:none;stroke:#b0b0b0;stroke-linecap:square;stroke-width:0.8;"/>
     </g>
     <g id="line2d_4">
      <g>
       <use style="stroke:#000000;stroke-width:0.8;" x="127.959861" xlink:href="#m0fffe80e0a" y="307.584"/>
      </g>
     </g>
     <g id="text_2">
      <!-- 5 -->
      <defs>
       <path d="M 10.796875 72.90625 
L 49.515625 72.90625 
L 49.515625 64.59375 
L 19.828125 64.59375 
L 19.828125 46.734375 
Q 21.96875 47.46875 24.109375 47.828125 
Q 26.265625 48.1875 28.421875 48.1875 
Q 40.625 48.1875 47.75 41.5 
Q 54.890625 34.8125 54.890625 23.390625 
Q 54.890625 11.625 47.5625 5.09375 
Q 40.234375 -1.421875 26.90625 -1.421875 
Q 22.3125 -1.421875 17.546875 -0.640625 
Q 12.796875 0.140625 7.71875 1.703125 
L 7.71875 11.625 
Q 12.109375 9.234375 16.796875 8.0625 
Q 21.484375 6.890625 26.703125 6.890625 
Q 35.15625 6.890625 40.078125 11.328125 
Q 45.015625 15.765625 45.015625 23.390625 
Q 45.015625 31 40.078125 35.4375 
Q 35.15625 39.890625 26.703125 39.890625 
Q 22.75 39.890625 18.8125 39.015625 
Q 14.890625 38.140625 10.796875 36.28125 
z
" id="DejaVuSans-35"/>
      </defs>
      <g transform="translate(124.778611 322.182437)scale(0.1 -0.1)">
       <use xlink:href="#DejaVuSans-35"/>
      </g>
     </g>
    </g>
    <g id="xtick_3">
     <g id="line2d_5">
      <path clip-path="url(#p7409606330)" d="M 182.086994 307.584 
L 182.086994 41.472 
" style="fill:none;stroke:#b0b0b0;stroke-linecap:square;stroke-width:0.8;"/>
     </g>
     <g id="line2d_6">
      <g>
       <use style="stroke:#000000;stroke-width:0.8;" x="182.086994" xlink:href="#m0fffe80e0a" y="307.584"/>
      </g>
     </g>
     <g id="text_3">
      <!-- 10 -->
      <defs>
       <path d="M 12.40625 8.296875 
L 28.515625 8.296875 
L 28.515625 63.921875 
L 10.984375 60.40625 
L 10.984375 69.390625 
L 28.421875 72.90625 
L 38.28125 72.90625 
L 38.28125 8.296875 
L 54.390625 8.296875 
L 54.390625 0 
L 12.40625 0 
z
" id="DejaVuSans-31"/>
      </defs>
      <g transform="translate(175.724494 322.182437)scale(0.1 -0.1)">
       <use xlink:href="#DejaVuSans-31"/>
       <use x="63.623047" xlink:href="#DejaVuSans-30"/>
      </g>
     </g>
    </g>
    <g id="xtick_4">
     <g id="line2d_7">
      <path clip-path="url(#p7409606330)" d="M 236.214127 307.584 
L 236.214127 41.472 
" style="fill:none;stroke:#b0b0b0;stroke-linecap:square;stroke-width:0.8;"/>
     </g>
     <g id="line2d_8">
      <g>
       <use style="stroke:#000000;stroke-width:0.8;" x="236.214127" xlink:href="#m0fffe80e0a" y="307.584"/>
      </g>
     </g>
     <g id="text_4">
      <!-- 15 -->
      <g transform="translate(229.851627 322.182437)scale(0.1 -0.1)">
       <use xlink:href="#DejaVuSans-31"/>
       <use x="63.623047" xlink:href="#DejaVuSans-35"/>
      </g>
     </g>
    </g>
    <g id="xtick_5">
     <g id="line2d_9">
      <path clip-path="url(#p7409606330)" d="M 290.34126 307.584 
L 290.34126 41.472 
" style="fill:none;stroke:#b0b0b0;stroke-linecap:square;stroke-width:0.8;"/>
     </g>
     <g id="line2d_10">
      <g>
       <use style="stroke:#000000;stroke-width:0.8;" x="290.34126" xlink:href="#m0fffe80e0a" y="307.584"/>
      </g>
     </g>
     <g id="text_5">
      <!-- 20 -->
      <defs>
       <path d="M 19.1875 8.296875 
L 53.609375 8.296875 
L 53.609375 0 
L 7.328125 0 
L 7.328125 8.296875 
Q 12.9375 14.109375 22.625 23.890625 
Q 32.328125 33.6875 34.8125 36.53125 
Q 39.546875 41.84375 41.421875 45.53125 
Q 43.3125 49.21875 43.3125 52.78125 
Q 43.3125 58.59375 39.234375 62.25 
Q 35.15625 65.921875 28.609375 65.921875 
Q 23.96875 65.921875 18.8125 64.3125 
Q 13.671875 62.703125 7.8125 59.421875 
L 7.8125 69.390625 
Q 13.765625 71.78125 18.9375 73 
Q 24.125 74.21875 28.421875 74.21875 
Q 39.75 74.21875 46.484375 68.546875 
Q 53.21875 62.890625 53.21875 53.421875 
Q 53.21875 48.921875 51.53125 44.890625 
Q 49.859375 40.875 45.40625 35.40625 
Q 44.1875 33.984375 37.640625 27.21875 
Q 31.109375 20.453125 19.1875 8.296875 
" id="DejaVuSans-32"/>
      </defs>
      <g transform="translate(283.97876 322.182437)scale(0.1 -0.1)">
       <use xlink:href="#DejaVuSans-32"/>
       <use x="63.623047" xlink:href="#DejaVuSans-30"/>
      </g>
     </g>
    </g>
    <g id="xtick_6">
     <g id="line2d_11">
      <path clip-path="url(#p7409606330)" d="M 344.468394 307.584 
L 344.468394 41.472 
" style="fill:none;stroke:#b0b0b0;stroke-linecap:square;stroke-width:0.8;"/>
     </g>
     <g id="line2d_12">
      <g>
       <use style="stroke:#000000;stroke-width:0.8;" x="344.468394" xlink:href="#m0fffe80e0a" y="307.584"/>
      </g>
     </g>
     <g id="text_6">
      <!-- 25 -->
      <g transform="translate(338.105894 322.182437)scale(0.1 -0.1)">
       <use xlink:href="#DejaVuSans-32"/>
       <use x="63.623047" xlink:href="#DejaVuSans-35"/>
      </g>
     </g>
    </g>
    <g id="xtick_7">
     <g id="line2d_13">
      <path clip-path="url(#p7409606330)" d="M 398.595527 307.584 
L 398.595527 41.472 
" style="fill:none;stroke:#b0b0b0;stroke-linecap:square;stroke-width:0.8;"/>
     </g>
     <g id="line2d_14">
      <g>
       <use style="stroke:#000000;stroke-width:0.8;" x="398.595527" xlink:href="#m0fffe80e0a" y="307.584"/>
      </g>
     </g>
     <g id="text_7">
      <!-- 30 -->
      <defs>
       <path d="M 40.578125 39.3125 
Q 47.65625 37.796875 51.625 33 
Q 55.609375 28.21875 55.609375 21.1875 
Q 55.609375 10.40625 48.1875 4.484375 
Q 40.765625 -1.421875 27.09375 -1.421875 
Q 22.515625 -1.421875 17.65625 -0.515625 
Q 12.796875 0.390625 7.625 2.203125 
L 7.625 11.71875 
Q 11.71875 9.328125 16.59375 8.109375 
Q 21.484375 6.890625 26.8125 6.890625 
Q 36.078125 6.890625 40.9375 10.546875 
Q 45.796875 14.203125 45.796875 21.1875 
Q 45.796875 27.640625 41.28125 31.265625 
Q 36.765625 34.90625 28.71875 34.90625 
L 20.21875 34.90625 
L 20.21875 43.015625 
L 29.109375 43.015625 
Q 36.375 43.015625 40.234375 45.921875 
Q 44.09375 48.828125 44.09375 54.296875 
Q 44.09375 59.90625 40.109375 62.90625 
Q 36.140625 65.921875 28.71875 65.921875 
Q 24.65625 65.921875 20.015625 65.03125 
Q 15.375 64.15625 9.8125 62.3125 
L 9.8125 71.09375 
Q 15.4375 72.65625 20.34375 73.4375 
Q 25.25 74.21875 29.59375 74.21875 
Q 40.828125 74.21875 47.359375 69.109375 
Q 53.90625 64.015625 53.90625 55.328125 
Q 53.90625 49.265625 50.4375 45.09375 
Q 46.96875 40.921875 40.578125 39.3125 
" id="DejaVuSans-33"/>
      </defs>
      <g transform="translate(392.233027 322.182437)scale(0.1 -0.1)">
       <use xlink:href="#DejaVuSans-33"/>
       <use x="63.623047" xlink:href="#DejaVuSans-30"/>
      </g>
     </g>
    </g>
    <g id="text_8">
     <!-- t -->
     <defs>
      <path d="M 18.3125 70.21875 
L 18.3125 54.6875 
L 36.8125 54.6875 
L 36.8125 47.703125 
L 18.3125 47.703125 
L 18.3125 18.015625 
Q 18.3125 11.328125 20.140625 9.421875 
Q 21.96875 7.515625 27.59375 7.515625 
L 36.8125 7.515625 
L 36.8125 0 
L 27.59375 0 
Q 17.1875 0 13.234375 3.875 
Q 9.28125 7.765625 9.28125 18.015625 
L 9.28125 47.703125 
L 2.6875 47.703125 
L 2.6875 54.6875 
L 9.28125 54.6875 
L 9.28125 70.21875 
z
" id="DejaVuSans-74"/>
     </defs>
     <g transform="translate(234.199844 335.860562)scale(0.1 -0.1)">
      <use xlink:href="#DejaVuSans-74"/>
     </g>
    </g>
   </g>
   <g id="matplotlib.axis_2">
    <g id="ytick_1">
     <g id="line2d_15">
      <path clip-path="url(#p7409606330)" d="M 57.6 281.855402 
L 414.72 281.855402 
" style="fill:none;stroke:#b0b0b0;stroke-linecap:square;stroke-width:0.8;"/>
     </g>
     <g id="line2d_16">
      <defs>
       <path d="M 0 0 
L -3.5 0 
" id="mf08204f45d" style="stroke:#000000;stroke-width:0.8;"/>
      </defs>
      <g>
       <use style="stroke:#000000;stroke-width:0.8;" x="57.6" xlink:href="#mf08204f45d" y="281.855402"/>
      </g>
     </g>
     <g id="text_9">
      <!-- 0.0 -->
      <defs>
       <path d="M 10.6875 12.40625 
L 21 12.40625 
L 21 0 
L 10.6875 0 
z
" id="DejaVuSans-2e"/>
      </defs>
      <g transform="translate(34.696875 285.654621)scale(0.1 -0.1)">
       <use xlink:href="#DejaVuSans-30"/>
       <use x="63.623047" xlink:href="#DejaVuSans-2e"/>
       <use x="95.410156" xlink:href="#DejaVuSans-30"/>
      </g>
     </g>
    </g>
    <g id="ytick_2">
     <g id="line2d_17">
      <path clip-path="url(#p7409606330)" d="M 57.6 228.167247 
L 414.72 228.167247 
" style="fill:none;stroke:#b0b0b0;stroke-linecap:square;stroke-width:0.8;"/>
     </g>
     <g id="line2d_18">
      <g>
       <use style="stroke:#000000;stroke-width:0.8;" x="57.6" xlink:href="#mf08204f45d" y="228.167247"/>
      </g>
     </g>
     <g id="text_10">
      <!-- 0.5 -->
      <g transform="translate(34.696875 231.966466)scale(0.1 -0.1)">
       <use xlink:href="#DejaVuSans-30"/>
       <use x="63.623047" xlink:href="#DejaVuSans-2e"/>
       <use x="95.410156" xlink:href="#DejaVuSans-35"/>
      </g>
     </g>
    </g>
    <g id="ytick_3">
     <g id="line2d_19">
      <path clip-path="url(#p7409606330)" d="M 57.6 174.479091 
L 414.72 174.479091 
" style="fill:none;stroke:#b0b0b0;stroke-linecap:square;stroke-width:0.8;"/>
     </g>
     <g id="line2d_20">
      <g>
       <use style="stroke:#000000;stroke-width:0.8;" x="57.6" xlink:href="#mf08204f45d" y="174.479091"/>
      </g>
     </g>
     <g id="text_11">
      <!-- 1.0 -->
      <g transform="translate(34.696875 178.27831)scale(0.1 -0.1)">
       <use xlink:href="#DejaVuSans-31"/>
       <use x="63.623047" xlink:href="#DejaVuSans-2e"/>
       <use x="95.410156" xlink:href="#DejaVuSans-30"/>
      </g>
     </g>
    </g>
    <g id="ytick_4">
     <g id="line2d_21">
      <path clip-path="url(#p7409606330)" d="M 57.6 120.790936 
L 414.72 120.790936 
" style="fill:none;stroke:#b0b0b0;stroke-linecap:square;stroke-width:0.8;"/>
     </g>
     <g id="line2d_22">
      <g>
       <use style="stroke:#000000;stroke-width:0.8;" x="57.6" xlink:href="#mf08204f45d" y="120.790936"/>
      </g>
     </g>
     <g id="text_12">
      <!-- 1.5 -->
      <g transform="translate(34.696875 124.590155)scale(0.1 -0.1)">
       <use xlink:href="#DejaVuSans-31"/>
       <use x="63.623047" xlink:href="#DejaVuSans-2e"/>
       <use x="95.410156" xlink:href="#DejaVuSans-35"/>
      </g>
     </g>
    </g>
    <g id="ytick_5">
     <g id="line2d_23">
      <path clip-path="url(#p7409606330)" d="M 57.6 67.102781 
L 414.72 67.102781 
" style="fill:none;stroke:#b0b0b0;stroke-linecap:square;stroke-width:0.8;"/>
     </g>
     <g id="line2d_24">
      <g>
       <use style="stroke:#000000;stroke-width:0.8;" x="57.6" xlink:href="#mf08204f45d" y="67.102781"/>
      </g>
     </g>
     <g id="text_13">
      <!-- 2.0 -->
      <g transform="translate(34.696875 70.901999)scale(0.1 -0.1)">
       <use xlink:href="#DejaVuSans-32"/>
       <use x="63.623047" xlink:href="#DejaVuSans-2e"/>
       <use x="95.410156" xlink:href="#DejaVuSans-30"/>
      </g>
     </g>
    </g>
    <g id="text_14">
     <!-- y -->
     <defs>
      <path d="M 32.171875 -5.078125 
Q 28.375 -14.84375 24.75 -17.8125 
Q 21.140625 -20.796875 15.09375 -20.796875 
L 7.90625 -20.796875 
L 7.90625 -13.28125 
L 13.1875 -13.28125 
Q 16.890625 -13.28125 18.9375 -11.515625 
Q 21 -9.765625 23.484375 -3.21875 
L 25.09375 0.875 
L 2.984375 54.6875 
L 12.5 54.6875 
L 29.59375 11.921875 
L 46.6875 54.6875 
L 56.203125 54.6875 
z
" id="DejaVuSans-79"/>
     </defs>
     <g transform="translate(28.617188 177.487375)rotate(-90)scale(0.1 -0.1)">
      <use xlink:href="#DejaVuSans-79"/>
     </g>
    </g>
   </g>
   <g id="line2d_25">
    <path clip-path="url(#p7409606330)" d="M 73.832727 281.855402 
L 73.940982 281.647571 
L 74.049236 280.371769 
L 74.265744 272.282554 
L 74.590507 243.9416 
L 75.131778 165.16702 
L 75.781304 75.183879 
L 76.106067 55.053896 
L 76.214321 53.568 
L 76.322575 54.814924 
L 76.539084 65.338931 
L 76.863847 98.910502 
L 78.271152 281.034769 
L 78.379406 283.407646 
L 78.487661 283.046806 
L 78.704169 274.238167 
L 79.028932 242.90835 
L 79.678458 144.171878 
L 80.219729 75.552434 
L 80.544492 59.683855 
L 80.652746 59.733133 
L 80.869255 67.946822 
L 81.194017 98.647182 
L 81.843543 197.990194 
L 82.384814 269.28006 
L 82.709577 287.352186 
L 82.817831 288.067365 
L 82.926086 286.048601 
L 83.142594 274.077187 
L 83.467357 238.919696 
L 84.766408 67.90636 
L 84.982917 62.956246 
L 85.091171 64.568359 
L 85.30768 75.781672 
L 85.632442 110.125666 
L 86.931494 284.608865 
L 87.148002 290.919964 
L 87.256256 289.993713 
L 87.472765 280.095305 
L 87.797528 247.39402 
L 89.204833 67.578615 
L 89.313087 65.305836 
L 89.421342 65.763864 
L 89.63785 74.766613 
L 89.962613 106.416758 
L 90.612139 206.040395 
L 91.15341 275.690048 
L 91.478173 292.250474 
L 91.586427 292.433298 
L 91.694681 289.886959 
L 91.91119 276.920035 
L 92.235953 240.572949 
L 93.42675 76.730859 
L 93.643258 67.290151 
L 93.751512 66.60225 
L 93.859767 68.647471 
L 94.076275 80.677682 
L 94.401038 115.966681 
L 95.700089 288.457566 
L 95.916598 293.760375 
L 96.024852 292.323895 
L 96.24136 281.450074 
L 96.566123 247.557288 
L 97.865174 73.736763 
L 98.081683 67.397506 
L 98.189937 68.306869 
L 98.406446 78.176367 
L 98.731209 110.87575 
L 100.138514 291.804643 
L 100.246768 294.219486 
L 100.355023 293.903626 
L 100.571531 285.177187 
L 100.896294 253.892066 
L 101.54582 154.681439 
L 102.087091 85.015927 
L 102.411854 68.343256 
L 102.520108 68.116835 
L 102.628362 70.619964 
L 102.844871 83.509893 
L 103.169634 119.793148 
L 104.468685 290.44008 
L 104.685193 294.772881 
L 104.793448 292.84795 
L 105.009956 281.047428 
L 105.334719 246.047368 
L 106.63377 73.61896 
L 106.850279 68.198834 
L 106.958533 69.57518 
L 107.175041 80.336215 
L 107.499804 114.107421 
L 108.90711 293.090603 
L 109.015364 295.023129 
L 109.123618 294.221668 
L 109.340127 284.560076 
L 109.66489 252.123654 
L 110.422669 135.679831 
L 110.855686 83.964881 
L 111.180449 68.627383 
L 111.288704 68.872731 
L 111.505212 77.463433 
L 111.829975 108.587737 
L 112.4795 207.771493 
L 113.020772 277.754363 
L 113.345535 294.712292 
L 113.453789 295.038744 
L 113.562043 292.634655 
L 113.778552 279.9316 
L 114.103314 243.872576 
L 115.402366 73.045762 
L 115.618874 68.56139 
L 115.727128 70.409908 
L 115.943637 82.066741 
L 116.2684 116.902638 
L 117.567451 289.7242 
L 117.78396 295.331948 
L 117.892214 294.050363 
L 118.108722 283.470334 
L 118.433485 249.920477 
L 119.840791 70.68356 
L 119.949045 68.670897 
L 120.057299 69.39168 
L 120.273808 78.898651 
L 120.59857 111.149247 
L 121.35635 227.558374 
L 121.789367 279.522334 
L 122.11413 295.122487 
L 122.222384 294.969114 
L 122.438893 286.556514 
L 122.763656 255.655157 
L 123.413181 156.617036 
L 123.954453 86.4093 
L 124.279215 69.218451 
L 124.38747 68.808876 
L 124.495724 71.130563 
L 124.712233 83.679239 
L 125.036995 119.560912 
L 126.336047 290.738256 
L 126.552555 295.400866 
L 126.660809 293.641957 
L 126.877318 282.154934 
L 127.202081 247.521668 
L 128.501132 74.448855 
L 128.71764 68.674712 
L 128.825895 69.871864 
L 129.042403 80.290974 
L 129.367166 113.648289 
L 130.774471 293.251354 
L 130.882726 295.35236 
L 130.99098 294.720428 
L 131.207489 285.384336 
L 131.532251 253.343687 
L 132.290031 137.023397 
L 132.723048 84.839141 
L 133.047811 68.996453 
L 133.156065 69.064271 
L 133.372574 77.311186 
L 133.697337 108.007217 
L 134.346862 206.932118 
L 134.888134 277.390186 
L 135.212896 294.829082 
L 135.321151 295.326831 
L 135.429405 293.092601 
L 135.645913 280.708432 
L 135.970676 245.019287 
L 137.269727 73.547939 
L 137.486236 68.715222 
L 137.59449 70.388415 
L 137.810999 81.713084 
L 138.135762 116.154137 
L 139.434813 289.515197 
L 139.651321 295.461908 
L 139.759576 294.352321 
L 139.976084 284.100475 
L 140.300847 250.945388 
L 141.708152 71.015531 
L 141.816407 68.828705 
L 141.924661 69.374211 
L 142.141169 78.543995 
L 142.465932 110.380901 
L 143.115458 209.940635 
L 143.656729 279.036367 
L 143.981492 295.127113 
L 144.089746 295.146775 
L 144.306255 287.069525 
L 144.631018 256.585073 
L 145.280543 157.786238 
L 145.821815 87.087696 
L 146.146577 69.405835 
L 146.254832 68.82144 
L 146.363086 70.969654 
L 146.579594 83.191954 
L 146.904357 118.691981 
L 148.203408 290.468818 
L 148.419917 295.473925 
L 148.528171 293.887666 
L 148.74468 282.727945 
L 149.069443 248.483319 
L 150.368494 74.850589 
L 150.585002 68.733346 
L 150.693257 69.756269 
L 150.909765 79.842425 
L 151.234528 112.79713 
L 152.641833 293.059855 
L 152.750088 295.333187 
L 152.858342 294.874851 
L 153.07485 285.873036 
L 153.399613 254.242743 
L 154.049139 154.79428 
L 154.59041 85.447536 
L 154.915173 69.110893 
L 155.023427 69.004328 
L 155.239936 76.912847 
L 155.564699 107.186623 
L 156.214224 205.860102 
L 156.755495 276.799827 
L 157.080258 294.725616 
L 157.188513 295.397097 
L 157.296767 293.335399 
L 157.513275 281.276147 
L 157.838038 245.967387 
L 159.137089 73.893948 
L 159.353598 68.717294 
L 159.461852 70.216931 
L 159.678361 81.212126 
L 160.003123 115.260499 
L 161.302175 289.164353 
L 161.518683 295.452546 
L 161.626937 294.516588 
L 161.843446 284.596916 
L 162.168209 251.844192 
L 163.575514 71.256137 
L 163.683769 68.896576 
L 163.792023 69.26795 
L 164.008531 78.102007 
L 164.333294 109.525541 
L 164.98282 208.861491 
L 165.524091 278.45848 
L 165.848854 295.041149 
L 165.957108 295.234787 
L 166.065362 292.699192 
L 166.281871 279.74934 
L 166.606634 243.402524 
L 167.905685 73.015379 
L 168.122193 68.783165 
L 168.230448 70.758431 
L 168.446956 82.654603 
L 168.771719 117.771618 
L 170.07077 290.138859 
L 170.287279 295.487151 
L 170.395533 294.074277 
L 170.612042 283.244084 
L 170.936804 249.393099 
L 172.235856 75.223475 
L 172.452364 68.764656 
L 172.560618 69.613708 
L 172.777127 79.366818 
L 173.10189 111.916998 
L 174.509195 292.82691 
L 174.617449 295.27271 
L 174.725704 294.988372 
L 174.942212 286.322419 
L 175.266975 255.106599 
L 175.916501 155.885943 
L 176.457772 86.040687 
L 176.782535 69.212555 
L 176.890789 68.9319 
L 176.999043 71.381346 
L 177.215552 84.169748 
L 177.540315 120.329557 
L 178.839366 291.033295 
L 179.055874 295.437759 
L 179.164129 293.549013 
L 179.380637 281.816289 
L 179.7054 246.891993 
L 181.004451 74.235579 
L 181.22096 68.715844 
L 181.329214 70.041954 
L 181.545723 80.706941 
L 181.870485 114.359803 
L 183.277791 293.449012 
L 183.386045 295.420612 
L 183.494299 294.658511 
L 183.710808 285.072251 
L 184.035571 252.725481 
L 184.793351 136.288626 
L 185.226368 84.441451 
L 185.55113 68.966452 
L 185.659385 69.163766 
L 185.875893 77.661443 
L 186.200656 108.668843 
L 186.850182 207.771886 
L 187.391453 277.863788 
L 187.716216 294.937019 
L 187.82447 295.3047 
L 187.932724 292.941477 
L 188.149233 280.314867 
L 188.473996 244.342993 
L 189.773047 73.326991 
L 189.989555 68.750411 
L 190.09781 70.552602 
L 190.314318 82.121615 
L 190.639081 116.852373 
L 191.938132 289.793869 
L 192.154641 295.48493 
L 192.262895 294.245628 
L 192.479403 283.746125 
L 192.804166 250.292236 
L 194.211472 70.86166 
L 194.319726 68.803597 
L 194.42798 69.478736 
L 194.644489 78.897927 
L 194.969252 111.040518 
L 195.727031 227.401765 
L 196.160049 279.476191 
L 196.484811 295.198465 
L 196.593066 295.088186 
L 196.809574 286.759004 
L 197.134337 255.960798 
L 197.783862 156.977819 
L 198.325134 86.64101 
L 198.649897 69.323111 
L 198.758151 68.868418 
L 198.866405 71.145364 
L 199.082914 83.609882 
L 199.407676 119.392957 
L 200.706728 290.717092 
L 200.923236 295.465686 
L 201.03149 293.750097 
L 201.247999 282.345085 
L 201.572762 247.808722 
L 202.871813 74.586407 
L 203.088322 68.724164 
L 203.196576 69.876631 
L 203.413084 80.210399 
L 203.737847 113.464506 
L 205.145153 293.232098 
L 205.253407 295.376576 
L 205.361661 294.788419 
L 205.57817 285.536531 
L 205.902932 253.59891 
L 206.660712 137.316127 
L 207.093729 85.01573 
L 207.418492 69.04657 
L 207.526746 69.069813 
L 207.743255 77.230299 
L 208.068018 107.818564 
L 208.717543 206.679071 
L 209.258815 277.259077 
L 209.583578 294.821226 
L 209.691832 295.362921 
L 209.800086 293.172309 
L 210.016595 280.87019 
L 210.341357 245.276792 
L 211.640409 73.648722 
L 211.856917 68.728234 
L 211.965171 70.357179 
L 212.18168 81.597914 
L 212.506443 115.939041 
L 213.805494 289.437955 
L 214.022002 295.471238 
L 214.130257 294.405636 
L 214.346765 284.237856 
L 214.671528 251.184346 
L 216.078834 71.08414 
L 216.187088 68.853299 
L 216.295342 69.354461 
L 216.511851 78.438821 
L 216.836613 110.170694 
L 217.486139 209.673943 
L 218.02741 278.897269 
L 218.352173 295.112927 
L 218.460427 295.17672 
L 218.676936 287.18513 
L 219.001699 256.807556 
L 219.651224 158.071939 
L 220.192496 87.250461 
L 220.517258 69.444494 
L 220.625513 68.81581 
L 220.733767 70.920035 
L 220.950276 83.059455 
L 221.275038 118.462307 
L 222.57409 290.390125 
L 222.790598 295.482388 
L 222.898852 293.940126 
L 223.115361 282.863944 
L 223.440124 248.718893 
L 224.739175 74.94762 
L 224.955683 68.743444 
L 225.063938 69.722156 
L 225.280446 79.723699 
L 225.605209 112.575806 
L 227.012514 293.004232 
L 227.120769 295.321381 
L 227.229023 294.907226 
L 227.445532 285.990616 
L 227.770294 254.465267 
L 228.41982 155.073611 
L 228.961091 85.59942 
L 229.285854 69.13766 
L 229.394108 68.986832 
L 229.502363 71.564786 
L 229.718871 84.59395 
L 230.043634 121.032449 
L 231.234431 285.197305 
L 231.450939 294.694363 
L 231.559194 295.410019 
L 231.667448 293.392233 
L 231.883956 281.415809 
L 232.208719 246.204367 
L 233.50777 73.981002 
L 233.724279 68.717089 
L 233.832533 70.17263 
L 234.049042 81.083989 
L 234.373805 115.032131 
L 235.672856 289.071519 
L 235.889364 295.446436 
L 235.997619 294.554638 
L 236.214127 284.719576 
L 236.53889 252.069675 
L 237.946195 71.317437 
L 238.05445 68.914037 
L 238.162704 69.241175 
L 238.379212 77.989817 
L 238.703975 109.307872 
L 239.353501 208.585508 
L 239.894772 278.308868 
L 240.219535 295.016327 
L 240.327789 295.254186 
L 240.436044 292.762363 
L 240.652552 279.894517 
L 240.977315 243.642622 
L 242.276366 73.094026 
L 242.492875 68.774253 
L 242.601129 70.705552 
L 242.817637 82.518688 
L 243.1424 117.537859 
L 244.441451 290.052565 
L 244.65796 295.488 
L 244.766214 294.119215 
L 244.982723 283.372946 
L 245.307486 249.622543 
L 246.714791 70.702847 
L 246.823045 68.773788 
L 246.9313 69.578651 
L 247.147808 79.246991 
L 247.472571 111.693889 
L 248.230351 228.166898 
L 248.663368 279.901858 
L 248.988131 295.255117 
L 249.096385 295.015004 
L 249.312893 286.434544 
L 249.637656 255.324548 
L 250.287182 156.163356 
L 250.828453 86.192531 
L 251.153216 69.239781 
L 251.26147 68.914896 
L 251.369724 71.320528 
L 251.586233 84.026741 
L 251.910996 120.091146 
L 253.210047 290.954094 
L 253.426556 295.446043 
L 253.53481 293.601279 
L 253.751318 281.951719 
L 254.076081 247.125674 
L 255.375132 74.323842 
L 255.591641 68.717018 
L 255.699895 69.999013 
L 255.916404 80.57993 
L 256.241166 114.13177 
L 257.648472 293.395009 
L 257.756726 295.410557 
L 257.86498 294.692649 
L 258.081489 285.191266 
L 258.406252 252.948164 
L 259.164032 136.549376 
L 259.597049 84.586548 
L 259.921812 68.985831 
L 260.030066 69.138912 
L 260.246574 77.550982 
L 260.571337 108.452159 
L 261.220863 207.494484 
L 261.762134 277.711065 
L 262.086897 294.908692 
L 262.195151 295.320595 
L 262.303405 293.001213 
L 262.519914 280.456942 
L 262.844677 244.580909 
L 264.143728 73.407783 
L 264.360236 68.743767 
L 264.468491 70.50195 
L 264.684999 81.98765 
L 265.009762 116.619718 
L 266.308813 289.704457 
L 266.525322 295.482533 
L 266.633576 294.287359 
L 266.850085 283.872053 
L 267.174847 250.519595 
L 268.582153 70.917191 
L 268.690407 68.815203 
L 268.798661 69.446138 
L 269.01517 78.780331 
L 269.339933 110.81885 
L 270.097713 227.140575 
L 270.53073 279.330002 
L 270.855492 295.177796 
L 270.963747 295.11175 
L 271.180255 286.868277 
L 271.505018 256.176673 
L 272.154544 157.255634 
L 272.695815 86.795012 
L 273.020578 69.352927 
L 273.128832 68.854017 
L 273.237086 71.087093 
L 273.453595 83.469114 
L 273.778358 119.155901 
L 275.077409 290.635024 
L 275.293917 295.470992 
L 275.402172 293.799432 
L 275.61868 282.477874 
L 275.943443 248.040628 
L 277.242494 74.677211 
L 277.459003 68.728024 
L 277.567257 69.836347 
L 277.783765 80.085789 
L 278.108528 113.23805 
L 279.515834 293.175231 
L 279.624088 295.363607 
L 279.732342 294.81966 
L 279.948851 285.652885 
L 280.273614 253.819732 
L 280.923139 154.262495 
L 281.464411 85.163161 
L 281.789173 69.068677 
L 281.897428 69.047686 
L 282.113936 77.122361 
L 282.438699 107.603642 
L 283.088225 206.400978 
L 283.629496 277.103921 
L 283.954259 294.790037 
L 284.062513 295.375942 
L 284.170767 293.229228 
L 284.387276 281.009758 
L 284.712039 245.51309 
L 286.01109 73.732158 
L 286.227598 68.724356 
L 286.335853 70.309252 
L 286.552361 81.466392 
L 286.877124 115.707974 
L 288.176175 289.345836 
L 288.392684 295.465988 
L 288.500938 294.444542 
L 288.717446 284.361216 
L 289.042209 251.409962 
L 290.449515 71.142398 
L 290.557769 68.867687 
L 290.666023 69.324632 
L 290.882532 78.323766 
L 291.207295 109.950776 
L 291.85682 209.397615 
L 292.398091 278.748647 
L 292.722854 295.089428 
L 292.831109 295.197454 
L 293.047617 287.291775 
L 293.37238 257.021562 
L 294.021905 158.35034 
L 294.563177 87.406804 
L 294.88794 69.477089 
L 294.996194 68.804203 
L 295.104448 70.864504 
L 295.320957 82.921123 
L 295.645719 118.226805 
L 296.944771 290.305351 
L 297.161279 295.484865 
L 297.269533 293.986671 
L 297.486042 282.994222 
L 297.810805 248.94914 
L 299.109856 75.041075 
L 299.326365 68.750106 
L 299.434619 69.68465 
L 299.651127 79.601615 
L 299.97589 112.351057 
L 301.383196 292.944601 
L 301.49145 295.305592 
L 301.599704 294.935659 
L 301.816213 286.104386 
L 302.140975 254.684292 
L 302.790501 155.35028 
L 303.331772 85.749244 
L 303.656535 69.162565 
L 303.764789 68.967505 
L 303.873044 71.501694 
L 304.089552 84.448913 
L 304.414315 120.792687 
L 305.713366 291.185162 
L 305.929875 295.420223 
L 306.038129 293.446385 
L 306.254638 281.55291 
L 306.5794 246.439077 
L 307.878452 74.067121 
L 308.09496 68.716021 
L 308.203214 70.127476 
L 308.419723 80.954966 
L 308.744486 114.802717 
L 310.043537 288.976737 
L 310.260045 295.438368 
L 310.3683 294.59075 
L 310.584808 284.840389 
L 310.909571 252.293558 
L 312.316877 71.378446 
L 312.425131 68.931233 
L 312.533385 69.214144 
L 312.749894 77.877339 
L 313.074656 109.08975 
L 313.724182 208.30851 
L 314.265453 278.157849 
L 314.590216 294.990021 
L 314.69847 295.272109 
L 314.806725 292.824082 
L 315.023233 280.038342 
L 315.347996 243.881623 
L 316.647047 73.172747 
L 316.863556 68.765457 
L 316.97181 70.652783 
L 317.188319 82.382823 
L 317.513081 117.30395 
L 318.812133 289.965106 
L 319.028641 295.487661 
L 319.136895 294.16298 
L 319.353404 283.500713 
L 319.678167 249.85112 
L 321.085472 70.756283 
L 321.193726 68.783263 
L 321.301981 69.543936 
L 321.518489 79.127455 
L 321.843252 111.470879 
L 322.601032 227.906522 
L 323.034049 279.757447 
L 323.358812 295.236516 
L 323.467066 295.040634 
L 323.683575 286.545727 
L 324.008337 255.541762 
L 324.657863 156.440678 
L 325.199134 86.344742 
L 325.523897 69.267488 
L 325.632151 68.898378 
L 325.740406 71.260184 
L 325.956914 83.884133 
L 326.281677 119.852914 
L 327.580728 290.874022 
L 327.797237 295.453432 
L 327.905491 293.652665 
L 328.121999 282.086347 
L 328.446762 247.358778 
L 329.745813 74.412639 
L 329.962322 68.718765 
L 330.070576 69.956639 
L 330.287085 80.453422 
L 330.611848 113.904035 
L 332.019153 293.340191 
L 332.127407 295.399675 
L 332.235662 294.725967 
L 332.45217 285.309524 
L 332.776933 253.170297 
L 333.534713 136.810319 
L 333.96773 84.73217 
L 334.292493 69.005836 
L 334.400747 69.114685 
L 334.617255 77.441096 
L 334.942018 108.235858 
L 335.591544 207.216845 
L 336.132815 277.557667 
L 336.457578 294.879585 
L 336.565832 295.335708 
L 336.674087 293.060181 
L 336.890595 280.59833 
L 337.215358 244.818367 
L 338.514409 73.489204 
L 338.730918 68.737785 
L 338.839172 70.45195 
L 339.05568 81.854264 
L 339.380443 116.387426 
L 340.679494 289.614323 
L 340.896003 295.479379 
L 341.004257 294.32834 
L 341.220766 283.997298 
L 341.545529 250.746482 
L 342.952834 70.97339 
L 343.061088 68.827491 
L 343.169343 69.414219 
L 343.385851 78.663356 
L 343.710614 110.597601 
L 344.468394 226.879072 
L 344.901411 279.183172 
L 345.226174 295.156387 
L 345.334428 295.134575 
L 345.550936 286.976863 
L 345.875699 256.392056 
L 346.525225 157.533583 
L 347.066496 86.949594 
L 347.391259 69.383435 
L 347.499513 68.84031 
L 347.607767 71.029502 
L 347.824276 83.328949 
L 348.149039 118.919223 
L 349.44809 290.552255 
L 349.664599 295.475567 
L 349.772853 293.848046 
L 349.989361 282.610014 
L 350.314124 248.272103 
L 351.613175 74.768679 
L 351.829684 68.732585 
L 351.937938 69.79676 
L 352.154447 79.961809 
L 352.479209 113.012016 
L 353.886515 293.117653 
L 353.994769 295.349913 
L 354.103023 294.850181 
L 354.319532 285.768576 
L 354.644295 254.040092 
L 355.29382 154.538657 
L 355.835092 85.311195 
L 356.159854 69.091488 
L 356.268109 69.026264 
L 356.484617 77.015077 
L 356.80938 107.389182 
L 357.458906 206.122726 
L 358.000177 276.948159 
L 358.32494 294.758131 
L 358.433194 295.388243 
L 358.541448 293.285439 
L 358.757957 281.148696 
L 359.08272 245.748983 
L 360.381771 73.816273 
L 360.598279 68.721188 
L 360.706534 70.262025 
L 360.923042 81.3355 
L 361.247805 115.477322 
L 362.546856 289.253036 
L 362.763365 295.460019 
L 362.871619 294.482735 
L 363.088128 284.483927 
L 363.41289 251.635137 
L 364.820196 71.201353 
L 364.92845 68.882786 
L 365.036704 69.295511 
L 365.253213 78.209362 
L 365.577976 109.73131 
L 366.227501 209.121112 
L 366.768773 278.599412 
L 367.093535 295.065213 
L 367.20179 295.217472 
L 367.310044 292.640934 
L 367.526552 279.614419 
L 367.851315 243.178979 
L 369.042112 79.010198 
L 369.258621 69.510394 
L 369.366875 68.793308 
L 369.475129 70.809673 
L 369.691638 82.783416 
L 370.016401 117.991704 
L 371.315452 290.219892 
L 371.53196 295.486625 
L 371.640215 294.03251 
L 371.856723 283.123862 
L 372.181486 249.178964 
L 373.480537 75.135205 
L 373.697046 68.757482 
L 373.8053 69.647852 
L 374.021808 79.480175 
L 374.346571 112.126746 
L 375.753877 292.884269 
L 375.862131 295.289087 
L 375.970385 294.963379 
L 376.186894 286.2175 
L 376.511657 254.902859 
L 377.161182 155.627116 
L 377.702454 85.899676 
L 378.027216 69.188182 
L 378.135471 68.948892 
L 378.243725 71.439299 
L 378.460233 84.304491 
L 378.784996 120.553311 
L 380.084047 291.107107 
L 380.300556 295.429711 
L 380.40881 293.499835 
L 380.625319 281.689384 
L 380.950082 246.673381 
L 382.249133 74.153922 
L 382.465641 68.715669 
L 382.573896 70.083027 
L 382.790404 80.826581 
L 383.115167 114.573727 
L 384.522472 293.499105 
L 384.630727 295.429585 
L 384.738981 294.626152 
L 384.955489 284.960553 
L 385.280252 252.516999 
L 386.038032 136.045188 
L 386.471049 84.306472 
L 386.795812 68.949143 
L 386.904066 69.187825 
L 387.120575 77.765519 
L 387.445338 108.872089 
L 388.094863 208.031347 
L 388.636134 278.006224 
L 388.960897 294.963003 
L 389.069152 295.289318 
L 389.177406 292.885103 
L 389.393914 280.181549 
L 389.718677 244.120234 
L 391.017728 73.252154 
L 391.234237 68.757376 
L 391.342491 70.600716 
L 391.559 82.247586 
L 391.883762 117.070449 
L 393.182814 289.876966 
L 393.399322 295.486606 
L 393.507576 294.206038 
L 393.724085 283.627841 
L 394.048848 250.079271 
L 395.456153 70.810422 
L 395.564408 68.793453 
L 395.672662 69.509931 
L 395.88917 79.008568 
L 396.213933 111.248314 
L 396.971713 227.645858 
L 397.40473 279.612421 
L 397.729493 295.217202 
L 397.837747 295.065551 
L 398.054256 286.656251 
L 398.379018 255.758513 
L 398.487273 241.521404 
L 398.487273 241.521404 
" style="fill:none;stroke:#1f77b4;stroke-linecap:square;stroke-width:1.5;"/>
   </g>
   <g id="patch_3">
    <path d="M 57.6 307.584 
L 57.6 41.472 
" style="fill:none;stroke:#000000;stroke-linecap:square;stroke-linejoin:miter;stroke-width:0.8;"/>
   </g>
   <g id="patch_4">
    <path d="M 414.72 307.584 
L 414.72 41.472 
" style="fill:none;stroke:#000000;stroke-linecap:square;stroke-linejoin:miter;stroke-width:0.8;"/>
   </g>
   <g id="patch_5">
    <path d="M 57.6 307.584 
L 414.72 307.584 
" style="fill:none;stroke:#000000;stroke-linecap:square;stroke-linejoin:miter;stroke-width:0.8;"/>
   </g>
   <g id="patch_6">
    <path d="M 57.6 41.472 
L 414.72 41.472 
" style="fill:none;stroke:#000000;stroke-linecap:square;stroke-linejoin:miter;stroke-width:0.8;"/>
   </g>
   <g id="text_15">
    <!-- Step response for K=130.86308765 -->
    <defs>
     <path d="M 53.515625 70.515625 
L 53.515625 60.890625 
Q 47.90625 63.578125 42.921875 64.890625 
Q 37.9375 66.21875 33.296875 66.21875 
Q 25.25 66.21875 20.875 63.09375 
Q 16.5 59.96875 16.5 54.203125 
Q 16.5 49.359375 19.40625 46.890625 
Q 22.3125 44.4375 30.421875 42.921875 
L 36.375 41.703125 
Q 47.40625 39.59375 52.65625 34.296875 
Q 57.90625 29 57.90625 20.125 
Q 57.90625 9.515625 50.796875 4.046875 
Q 43.703125 -1.421875 29.984375 -1.421875 
Q 24.8125 -1.421875 18.96875 -0.25 
Q 13.140625 0.921875 6.890625 3.21875 
L 6.890625 13.375 
Q 12.890625 10.015625 18.65625 8.296875 
Q 24.421875 6.59375 29.984375 6.59375 
Q 38.421875 6.59375 43.015625 9.90625 
Q 47.609375 13.234375 47.609375 19.390625 
Q 47.609375 24.75 44.3125 27.78125 
Q 41.015625 30.8125 33.5 32.328125 
L 27.484375 33.5 
Q 16.453125 35.6875 11.515625 40.375 
Q 6.59375 45.0625 6.59375 53.421875 
Q 6.59375 63.09375 13.40625 68.65625 
Q 20.21875 74.21875 32.171875 74.21875 
Q 37.3125 74.21875 42.625 73.28125 
Q 47.953125 72.359375 53.515625 70.515625 
" id="DejaVuSans-53"/>
     <path d="M 56.203125 29.59375 
L 56.203125 25.203125 
L 14.890625 25.203125 
Q 15.484375 15.921875 20.484375 11.0625 
Q 25.484375 6.203125 34.421875 6.203125 
Q 39.59375 6.203125 44.453125 7.46875 
Q 49.3125 8.734375 54.109375 11.28125 
L 54.109375 2.78125 
Q 49.265625 0.734375 44.1875 -0.34375 
Q 39.109375 -1.421875 33.890625 -1.421875 
Q 20.796875 -1.421875 13.15625 6.1875 
Q 5.515625 13.8125 5.515625 26.8125 
Q 5.515625 40.234375 12.765625 48.109375 
Q 20.015625 56 32.328125 56 
Q 43.359375 56 49.78125 48.890625 
Q 56.203125 41.796875 56.203125 29.59375 
M 47.21875 32.234375 
Q 47.125 39.59375 43.09375 43.984375 
Q 39.0625 48.390625 32.421875 48.390625 
Q 24.90625 48.390625 20.390625 44.140625 
Q 15.875 39.890625 15.1875 32.171875 
z
" id="DejaVuSans-65"/>
     <path d="M 18.109375 8.203125 
L 18.109375 -20.796875 
L 9.078125 -20.796875 
L 9.078125 54.6875 
L 18.109375 54.6875 
L 18.109375 46.390625 
Q 20.953125 51.265625 25.265625 53.625 
Q 29.59375 56 35.59375 56 
Q 45.5625 56 51.78125 48.09375 
Q 58.015625 40.1875 58.015625 27.296875 
Q 58.015625 14.40625 51.78125 6.484375 
Q 45.5625 -1.421875 35.59375 -1.421875 
Q 29.59375 -1.421875 25.265625 0.953125 
Q 20.953125 3.328125 18.109375 8.203125 
M 48.6875 27.296875 
Q 48.6875 37.203125 44.609375 42.84375 
Q 40.53125 48.484375 33.40625 48.484375 
Q 26.265625 48.484375 22.1875 42.84375 
Q 18.109375 37.203125 18.109375 27.296875 
Q 18.109375 17.390625 22.1875 11.75 
Q 26.265625 6.109375 33.40625 6.109375 
Q 40.53125 6.109375 44.609375 11.75 
Q 48.6875 17.390625 48.6875 27.296875 
" id="DejaVuSans-70"/>
     <path id="DejaVuSans-20"/>
     <path d="M 41.109375 46.296875 
Q 39.59375 47.171875 37.8125 47.578125 
Q 36.03125 48 33.890625 48 
Q 26.265625 48 22.1875 43.046875 
Q 18.109375 38.09375 18.109375 28.8125 
L 18.109375 0 
L 9.078125 0 
L 9.078125 54.6875 
L 18.109375 54.6875 
L 18.109375 46.1875 
Q 20.953125 51.171875 25.484375 53.578125 
Q 30.03125 56 36.53125 56 
Q 37.453125 56 38.578125 55.875 
Q 39.703125 55.765625 41.0625 55.515625 
z
" id="DejaVuSans-72"/>
     <path d="M 44.28125 53.078125 
L 44.28125 44.578125 
Q 40.484375 46.53125 36.375 47.5 
Q 32.28125 48.484375 27.875 48.484375 
Q 21.1875 48.484375 17.84375 46.4375 
Q 14.5 44.390625 14.5 40.28125 
Q 14.5 37.15625 16.890625 35.375 
Q 19.28125 33.59375 26.515625 31.984375 
L 29.59375 31.296875 
Q 39.15625 29.25 43.1875 25.515625 
Q 47.21875 21.78125 47.21875 15.09375 
Q 47.21875 7.46875 41.1875 3.015625 
Q 35.15625 -1.421875 24.609375 -1.421875 
Q 20.21875 -1.421875 15.453125 -0.5625 
Q 10.6875 0.296875 5.421875 2 
L 5.421875 11.28125 
Q 10.40625 8.6875 15.234375 7.390625 
Q 20.0625 6.109375 24.8125 6.109375 
Q 31.15625 6.109375 34.5625 8.28125 
Q 37.984375 10.453125 37.984375 14.40625 
Q 37.984375 18.0625 35.515625 20.015625 
Q 33.0625 21.96875 24.703125 23.78125 
L 21.578125 24.515625 
Q 13.234375 26.265625 9.515625 29.90625 
Q 5.8125 33.546875 5.8125 39.890625 
Q 5.8125 47.609375 11.28125 51.796875 
Q 16.75 56 26.8125 56 
Q 31.78125 56 36.171875 55.265625 
Q 40.578125 54.546875 44.28125 53.078125 
" id="DejaVuSans-73"/>
     <path d="M 30.609375 48.390625 
Q 23.390625 48.390625 19.1875 42.75 
Q 14.984375 37.109375 14.984375 27.296875 
Q 14.984375 17.484375 19.15625 11.84375 
Q 23.34375 6.203125 30.609375 6.203125 
Q 37.796875 6.203125 41.984375 11.859375 
Q 46.1875 17.53125 46.1875 27.296875 
Q 46.1875 37.015625 41.984375 42.703125 
Q 37.796875 48.390625 30.609375 48.390625 
M 30.609375 56 
Q 42.328125 56 49.015625 48.375 
Q 55.71875 40.765625 55.71875 27.296875 
Q 55.71875 13.875 49.015625 6.21875 
Q 42.328125 -1.421875 30.609375 -1.421875 
Q 18.84375 -1.421875 12.171875 6.21875 
Q 5.515625 13.875 5.515625 27.296875 
Q 5.515625 40.765625 12.171875 48.375 
Q 18.84375 56 30.609375 56 
" id="DejaVuSans-6f"/>
     <path d="M 54.890625 33.015625 
L 54.890625 0 
L 45.90625 0 
L 45.90625 32.71875 
Q 45.90625 40.484375 42.875 44.328125 
Q 39.84375 48.1875 33.796875 48.1875 
Q 26.515625 48.1875 22.3125 43.546875 
Q 18.109375 38.921875 18.109375 30.90625 
L 18.109375 0 
L 9.078125 0 
L 9.078125 54.6875 
L 18.109375 54.6875 
L 18.109375 46.1875 
Q 21.34375 51.125 25.703125 53.5625 
Q 30.078125 56 35.796875 56 
Q 45.21875 56 50.046875 50.171875 
Q 54.890625 44.34375 54.890625 33.015625 
" id="DejaVuSans-6e"/>
     <path d="M 37.109375 75.984375 
L 37.109375 68.5 
L 28.515625 68.5 
Q 23.6875 68.5 21.796875 66.546875 
Q 19.921875 64.59375 19.921875 59.515625 
L 19.921875 54.6875 
L 34.71875 54.6875 
L 34.71875 47.703125 
L 19.921875 47.703125 
L 19.921875 0 
L 10.890625 0 
L 10.890625 47.703125 
L 2.296875 47.703125 
L 2.296875 54.6875 
L 10.890625 54.6875 
L 10.890625 58.5 
Q 10.890625 67.625 15.140625 71.796875 
Q 19.390625 75.984375 28.609375 75.984375 
z
" id="DejaVuSans-66"/>
     <path d="M 9.8125 72.90625 
L 19.671875 72.90625 
L 19.671875 42.09375 
L 52.390625 72.90625 
L 65.09375 72.90625 
L 28.90625 38.921875 
L 67.671875 0 
L 54.6875 0 
L 19.671875 35.109375 
L 19.671875 0 
L 9.8125 0 
z
" id="DejaVuSans-4b"/>
     <path d="M 10.59375 45.40625 
L 73.1875 45.40625 
L 73.1875 37.203125 
L 10.59375 37.203125 
z
M 10.59375 25.484375 
L 73.1875 25.484375 
L 73.1875 17.1875 
L 10.59375 17.1875 
z
" id="DejaVuSans-3d"/>
     <path d="M 31.78125 34.625 
Q 24.75 34.625 20.71875 30.859375 
Q 16.703125 27.09375 16.703125 20.515625 
Q 16.703125 13.921875 20.71875 10.15625 
Q 24.75 6.390625 31.78125 6.390625 
Q 38.8125 6.390625 42.859375 10.171875 
Q 46.921875 13.96875 46.921875 20.515625 
Q 46.921875 27.09375 42.890625 30.859375 
Q 38.875 34.625 31.78125 34.625 
M 21.921875 38.8125 
Q 15.578125 40.375 12.03125 44.71875 
Q 8.5 49.078125 8.5 55.328125 
Q 8.5 64.0625 14.71875 69.140625 
Q 20.953125 74.21875 31.78125 74.21875 
Q 42.671875 74.21875 48.875 69.140625 
Q 55.078125 64.0625 55.078125 55.328125 
Q 55.078125 49.078125 51.53125 44.71875 
Q 48 40.375 41.703125 38.8125 
Q 48.828125 37.15625 52.796875 32.3125 
Q 56.78125 27.484375 56.78125 20.515625 
Q 56.78125 9.90625 50.3125 4.234375 
Q 43.84375 -1.421875 31.78125 -1.421875 
Q 19.734375 -1.421875 13.25 4.234375 
Q 6.78125 9.90625 6.78125 20.515625 
Q 6.78125 27.484375 10.78125 32.3125 
Q 14.796875 37.15625 21.921875 38.8125 
M 18.3125 54.390625 
Q 18.3125 48.734375 21.84375 45.5625 
Q 25.390625 42.390625 31.78125 42.390625 
Q 38.140625 42.390625 41.71875 45.5625 
Q 45.3125 48.734375 45.3125 54.390625 
Q 45.3125 60.0625 41.71875 63.234375 
Q 38.140625 66.40625 31.78125 66.40625 
Q 25.390625 66.40625 21.84375 63.234375 
Q 18.3125 60.0625 18.3125 54.390625 
" id="DejaVuSans-38"/>
     <path d="M 33.015625 40.375 
Q 26.375 40.375 22.484375 35.828125 
Q 18.609375 31.296875 18.609375 23.390625 
Q 18.609375 15.53125 22.484375 10.953125 
Q 26.375 6.390625 33.015625 6.390625 
Q 39.65625 6.390625 43.53125 10.953125 
Q 47.40625 15.53125 47.40625 23.390625 
Q 47.40625 31.296875 43.53125 35.828125 
Q 39.65625 40.375 33.015625 40.375 
M 52.59375 71.296875 
L 52.59375 62.3125 
Q 48.875 64.0625 45.09375 64.984375 
Q 41.3125 65.921875 37.59375 65.921875 
Q 27.828125 65.921875 22.671875 59.328125 
Q 17.53125 52.734375 16.796875 39.40625 
Q 19.671875 43.65625 24.015625 45.921875 
Q 28.375 48.1875 33.59375 48.1875 
Q 44.578125 48.1875 50.953125 41.515625 
Q 57.328125 34.859375 57.328125 23.390625 
Q 57.328125 12.15625 50.6875 5.359375 
Q 44.046875 -1.421875 33.015625 -1.421875 
Q 20.359375 -1.421875 13.671875 8.265625 
Q 6.984375 17.96875 6.984375 36.375 
Q 6.984375 53.65625 15.1875 63.9375 
Q 23.390625 74.21875 37.203125 74.21875 
Q 40.921875 74.21875 44.703125 73.484375 
Q 48.484375 72.75 52.59375 71.296875 
" id="DejaVuSans-36"/>
     <path d="M 8.203125 72.90625 
L 55.078125 72.90625 
L 55.078125 68.703125 
L 28.609375 0 
L 18.3125 0 
L 43.21875 64.59375 
L 8.203125 64.59375 
z
" id="DejaVuSans-37"/>
    </defs>
    <g transform="translate(128.282813 35.472)scale(0.12 -0.12)">
     <use xlink:href="#DejaVuSans-53"/>
     <use x="63.476562" xlink:href="#DejaVuSans-74"/>
     <use x="102.685547" xlink:href="#DejaVuSans-65"/>
     <use x="164.208984" xlink:href="#DejaVuSans-70"/>
     <use x="227.685547" xlink:href="#DejaVuSans-20"/>
     <use x="259.472656" xlink:href="#DejaVuSans-72"/>
     <use x="300.554688" xlink:href="#DejaVuSans-65"/>
     <use x="362.078125" xlink:href="#DejaVuSans-73"/>
     <use x="414.177734" xlink:href="#DejaVuSans-70"/>
     <use x="477.654297" xlink:href="#DejaVuSans-6f"/>
     <use x="538.835938" xlink:href="#DejaVuSans-6e"/>
     <use x="602.214844" xlink:href="#DejaVuSans-73"/>
     <use x="654.314453" xlink:href="#DejaVuSans-65"/>
     <use x="715.837891" xlink:href="#DejaVuSans-20"/>
     <use x="747.625" xlink:href="#DejaVuSans-66"/>
     <use x="782.830078" xlink:href="#DejaVuSans-6f"/>
     <use x="844.011719" xlink:href="#DejaVuSans-72"/>
     <use x="885.125" xlink:href="#DejaVuSans-20"/>
     <use x="916.912109" xlink:href="#DejaVuSans-4b"/>
     <use x="982.488281" xlink:href="#DejaVuSans-3d"/>
     <use x="1066.277344" xlink:href="#DejaVuSans-31"/>
     <use x="1129.900391" xlink:href="#DejaVuSans-33"/>
     <use x="1193.523438" xlink:href="#DejaVuSans-30"/>
     <use x="1257.146484" xlink:href="#DejaVuSans-2e"/>
     <use x="1288.933594" xlink:href="#DejaVuSans-38"/>
     <use x="1352.556641" xlink:href="#DejaVuSans-36"/>
     <use x="1416.179688" xlink:href="#DejaVuSans-33"/>
     <use x="1479.802734" xlink:href="#DejaVuSans-30"/>
     <use x="1543.425781" xlink:href="#DejaVuSans-38"/>
     <use x="1607.048828" xlink:href="#DejaVuSans-37"/>
     <use x="1670.671875" xlink:href="#DejaVuSans-36"/>
     <use x="1734.294922" xlink:href="#DejaVuSans-35"/>
    </g>
   </g>
  </g>
 </g>
 <defs>
  <clipPath id="p7409606330">
   <rect height="266.112" width="357.12" x="57.6" y="41.472"/>
  </clipPath>
 </defs>
</svg>
