<?xml version="1.0" encoding="utf-8" standalone="no"?>
<!DOCTYPE svg PUBLIC "-//W3C//DTD SVG 1.1//EN"
  "http://www.w3.org/Graphics/SVG/1.1/DTD/svg11.dtd">
<!-- Created with matplotlib (http://matplotlib.org/) -->
<svg height="314pt" version="1.1" viewBox="0 0 426 314" width="426pt" xmlns="http://www.w3.org/2000/svg" xmlns:xlink="http://www.w3.org/1999/xlink">
 <defs>
  <style type="text/css">
*{stroke-linecap:butt;stroke-linejoin:round;}
  </style>
 </defs>
 <g id="figure_1">
  <g id="patch_1">
   <path d="M 0 314.36825 
L 426.343437 314.36825 
L 426.343437 0 
L 0 0 
z
" style="fill:#ffffff;"/>
  </g>
  <g id="axes_1">
   <g id="patch_2">
    <path d="M 58.523438 131.66 
L 415.643438 131.66 
L 415.643438 10.7 
L 58.523438 10.7 
z
" style="fill:#ffffff;"/>
   </g>
   <g id="matplotlib.axis_1">
    <g id="xtick_1">
     <g id="line2d_1">
      <path clip-path="url(#p937990e66b)" d="M 74.756165 131.66 
L 74.756165 10.7 
" style="fill:none;stroke:#b0b0b0;stroke-linecap:square;stroke-width:0.8;"/>
     </g>
     <g id="line2d_2">
      <defs>
       <path d="M 0 0 
L 0 3.5 
" id="mbc2433e169" style="stroke:#000000;stroke-width:0.8;"/>
      </defs>
      <g>
       <use style="stroke:#000000;stroke-width:0.8;" x="74.756165" xlink:href="#mbc2433e169" y="131.66"/>
      </g>
     </g>
     <g id="text_1">
      <!-- ${10^{-1}}$ -->
      <defs>
       <path d="M 12.40625 8.296875 
L 28.515625 8.296875 
L 28.515625 63.921875 
L 10.984375 60.40625 
L 10.984375 69.390625 
L 28.421875 72.90625 
L 38.28125 72.90625 
L 38.28125 8.296875 
L 54.390625 8.296875 
L 54.390625 0 
L 12.40625 0 
z
" id="DejaVuSans-31"/>
       <path d="M 31.78125 66.40625 
Q 24.171875 66.40625 20.328125 58.90625 
Q 16.5 51.421875 16.5 36.375 
Q 16.5 21.390625 20.328125 13.890625 
Q 24.171875 6.390625 31.78125 6.390625 
Q 39.453125 6.390625 43.28125 13.890625 
Q 47.125 21.390625 47.125 36.375 
Q 47.125 51.421875 43.28125 58.90625 
Q 39.453125 66.40625 31.78125 66.40625 
M 31.78125 74.21875 
Q 44.046875 74.21875 50.515625 64.515625 
Q 56.984375 54.828125 56.984375 36.375 
Q 56.984375 17.96875 50.515625 8.265625 
Q 44.046875 -1.421875 31.78125 -1.421875 
Q 19.53125 -1.421875 13.0625 8.265625 
Q 6.59375 17.96875 6.59375 36.375 
Q 6.59375 54.828125 13.0625 64.515625 
Q 19.53125 74.21875 31.78125 74.21875 
" id="DejaVuSans-30"/>
       <path d="M 10.59375 35.5 
L 73.1875 35.5 
L 73.1875 27.203125 
L 10.59375 27.203125 
z
" id="DejaVuSans-2212"/>
      </defs>
      <g transform="translate(63.006165 146.258437)scale(0.1 -0.1)">
       <use transform="translate(0 0.684375)" xlink:href="#DejaVuSans-31"/>
       <use transform="translate(63.623047 0.684375)" xlink:href="#DejaVuSans-30"/>
       <use transform="translate(128.203125 38.965625)scale(0.7)" xlink:href="#DejaVuSans-2212"/>
       <use transform="translate(186.855469 38.965625)scale(0.7)" xlink:href="#DejaVuSans-31"/>
      </g>
     </g>
    </g>
    <g id="xtick_2">
     <g id="line2d_3">
      <path clip-path="url(#p937990e66b)" d="M 237.083438 131.66 
L 237.083438 10.7 
" style="fill:none;stroke:#b0b0b0;stroke-linecap:square;stroke-width:0.8;"/>
     </g>
     <g id="line2d_4">
      <g>
       <use style="stroke:#000000;stroke-width:0.8;" x="237.083438" xlink:href="#mbc2433e169" y="131.66"/>
      </g>
     </g>
     <g id="text_2">
      <!-- ${10^{0}}$ -->
      <g transform="translate(228.283437 146.258437)scale(0.1 -0.1)">
       <use transform="translate(0 0.765625)" xlink:href="#DejaVuSans-31"/>
       <use transform="translate(63.623047 0.765625)" xlink:href="#DejaVuSans-30"/>
       <use transform="translate(128.203125 39.046875)scale(0.7)" xlink:href="#DejaVuSans-30"/>
      </g>
     </g>
    </g>
    <g id="xtick_3">
     <g id="line2d_5">
      <path clip-path="url(#p937990e66b)" d="M 399.41071 131.66 
L 399.41071 10.7 
" style="fill:none;stroke:#b0b0b0;stroke-linecap:square;stroke-width:0.8;"/>
     </g>
     <g id="line2d_6">
      <g>
       <use style="stroke:#000000;stroke-width:0.8;" x="399.41071" xlink:href="#mbc2433e169" y="131.66"/>
      </g>
     </g>
     <g id="text_3">
      <!-- ${10^{1}}$ -->
      <g transform="translate(390.61071 146.258437)scale(0.1 -0.1)">
       <use transform="translate(0 0.684375)" xlink:href="#DejaVuSans-31"/>
       <use transform="translate(63.623047 0.684375)" xlink:href="#DejaVuSans-30"/>
       <use transform="translate(128.203125 38.965625)scale(0.7)" xlink:href="#DejaVuSans-31"/>
      </g>
     </g>
    </g>
    <g id="xtick_4">
     <g id="line2d_7">
      <path clip-path="url(#p937990e66b)" d="M 59.025027 131.66 
L 59.025027 10.7 
" style="fill:none;stroke:#b0b0b0;stroke-linecap:square;stroke-width:0.8;"/>
     </g>
     <g id="line2d_8">
      <defs>
       <path d="M 0 0 
L 0 2 
" id="m5d4cecaa2a" style="stroke:#000000;stroke-width:0.6;"/>
      </defs>
      <g>
       <use style="stroke:#000000;stroke-width:0.6;" x="59.025027" xlink:href="#m5d4cecaa2a" y="131.66"/>
      </g>
     </g>
    </g>
    <g id="xtick_5">
     <g id="line2d_9">
      <path clip-path="url(#p937990e66b)" d="M 67.328476 131.66 
L 67.328476 10.7 
" style="fill:none;stroke:#b0b0b0;stroke-linecap:square;stroke-width:0.8;"/>
     </g>
     <g id="line2d_10">
      <g>
       <use style="stroke:#000000;stroke-width:0.6;" x="67.328476" xlink:href="#m5d4cecaa2a" y="131.66"/>
      </g>
     </g>
    </g>
    <g id="xtick_6">
     <g id="line2d_11">
      <path clip-path="url(#p937990e66b)" d="M 123.621543 131.66 
L 123.621543 10.7 
" style="fill:none;stroke:#b0b0b0;stroke-linecap:square;stroke-width:0.8;"/>
     </g>
     <g id="line2d_12">
      <g>
       <use style="stroke:#000000;stroke-width:0.6;" x="123.621543" xlink:href="#m5d4cecaa2a" y="131.66"/>
      </g>
     </g>
    </g>
    <g id="xtick_7">
     <g id="line2d_13">
      <path clip-path="url(#p937990e66b)" d="M 152.205957 131.66 
L 152.205957 10.7 
" style="fill:none;stroke:#b0b0b0;stroke-linecap:square;stroke-width:0.8;"/>
     </g>
     <g id="line2d_14">
      <g>
       <use style="stroke:#000000;stroke-width:0.6;" x="152.205957" xlink:href="#m5d4cecaa2a" y="131.66"/>
      </g>
     </g>
    </g>
    <g id="xtick_8">
     <g id="line2d_15">
      <path clip-path="url(#p937990e66b)" d="M 172.486921 131.66 
L 172.486921 10.7 
" style="fill:none;stroke:#b0b0b0;stroke-linecap:square;stroke-width:0.8;"/>
     </g>
     <g id="line2d_16">
      <g>
       <use style="stroke:#000000;stroke-width:0.6;" x="172.486921" xlink:href="#m5d4cecaa2a" y="131.66"/>
      </g>
     </g>
    </g>
    <g id="xtick_9">
     <g id="line2d_17">
      <path clip-path="url(#p937990e66b)" d="M 188.218059 131.66 
L 188.218059 10.7 
" style="fill:none;stroke:#b0b0b0;stroke-linecap:square;stroke-width:0.8;"/>
     </g>
     <g id="line2d_18">
      <g>
       <use style="stroke:#000000;stroke-width:0.6;" x="188.218059" xlink:href="#m5d4cecaa2a" y="131.66"/>
      </g>
     </g>
    </g>
    <g id="xtick_10">
     <g id="line2d_19">
      <path clip-path="url(#p937990e66b)" d="M 201.071335 131.66 
L 201.071335 10.7 
" style="fill:none;stroke:#b0b0b0;stroke-linecap:square;stroke-width:0.8;"/>
     </g>
     <g id="line2d_20">
      <g>
       <use style="stroke:#000000;stroke-width:0.6;" x="201.071335" xlink:href="#m5d4cecaa2a" y="131.66"/>
      </g>
     </g>
    </g>
    <g id="xtick_11">
     <g id="line2d_21">
      <path clip-path="url(#p937990e66b)" d="M 211.938625 131.66 
L 211.938625 10.7 
" style="fill:none;stroke:#b0b0b0;stroke-linecap:square;stroke-width:0.8;"/>
     </g>
     <g id="line2d_22">
      <g>
       <use style="stroke:#000000;stroke-width:0.6;" x="211.938625" xlink:href="#m5d4cecaa2a" y="131.66"/>
      </g>
     </g>
    </g>
    <g id="xtick_12">
     <g id="line2d_23">
      <path clip-path="url(#p937990e66b)" d="M 221.352299 131.66 
L 221.352299 10.7 
" style="fill:none;stroke:#b0b0b0;stroke-linecap:square;stroke-width:0.8;"/>
     </g>
     <g id="line2d_24">
      <g>
       <use style="stroke:#000000;stroke-width:0.6;" x="221.352299" xlink:href="#m5d4cecaa2a" y="131.66"/>
      </g>
     </g>
    </g>
    <g id="xtick_13">
     <g id="line2d_25">
      <path clip-path="url(#p937990e66b)" d="M 229.655749 131.66 
L 229.655749 10.7 
" style="fill:none;stroke:#b0b0b0;stroke-linecap:square;stroke-width:0.8;"/>
     </g>
     <g id="line2d_26">
      <g>
       <use style="stroke:#000000;stroke-width:0.6;" x="229.655749" xlink:href="#m5d4cecaa2a" y="131.66"/>
      </g>
     </g>
    </g>
    <g id="xtick_14">
     <g id="line2d_27">
      <path clip-path="url(#p937990e66b)" d="M 285.948816 131.66 
L 285.948816 10.7 
" style="fill:none;stroke:#b0b0b0;stroke-linecap:square;stroke-width:0.8;"/>
     </g>
     <g id="line2d_28">
      <g>
       <use style="stroke:#000000;stroke-width:0.6;" x="285.948816" xlink:href="#m5d4cecaa2a" y="131.66"/>
      </g>
     </g>
    </g>
    <g id="xtick_15">
     <g id="line2d_29">
      <path clip-path="url(#p937990e66b)" d="M 314.53323 131.66 
L 314.53323 10.7 
" style="fill:none;stroke:#b0b0b0;stroke-linecap:square;stroke-width:0.8;"/>
     </g>
     <g id="line2d_30">
      <g>
       <use style="stroke:#000000;stroke-width:0.6;" x="314.53323" xlink:href="#m5d4cecaa2a" y="131.66"/>
      </g>
     </g>
    </g>
    <g id="xtick_16">
     <g id="line2d_31">
      <path clip-path="url(#p937990e66b)" d="M 334.814194 131.66 
L 334.814194 10.7 
" style="fill:none;stroke:#b0b0b0;stroke-linecap:square;stroke-width:0.8;"/>
     </g>
     <g id="line2d_32">
      <g>
       <use style="stroke:#000000;stroke-width:0.6;" x="334.814194" xlink:href="#m5d4cecaa2a" y="131.66"/>
      </g>
     </g>
    </g>
    <g id="xtick_17">
     <g id="line2d_33">
      <path clip-path="url(#p937990e66b)" d="M 350.545332 131.66 
L 350.545332 10.7 
" style="fill:none;stroke:#b0b0b0;stroke-linecap:square;stroke-width:0.8;"/>
     </g>
     <g id="line2d_34">
      <g>
       <use style="stroke:#000000;stroke-width:0.6;" x="350.545332" xlink:href="#m5d4cecaa2a" y="131.66"/>
      </g>
     </g>
    </g>
    <g id="xtick_18">
     <g id="line2d_35">
      <path clip-path="url(#p937990e66b)" d="M 363.398608 131.66 
L 363.398608 10.7 
" style="fill:none;stroke:#b0b0b0;stroke-linecap:square;stroke-width:0.8;"/>
     </g>
     <g id="line2d_36">
      <g>
       <use style="stroke:#000000;stroke-width:0.6;" x="363.398608" xlink:href="#m5d4cecaa2a" y="131.66"/>
      </g>
     </g>
    </g>
    <g id="xtick_19">
     <g id="line2d_37">
      <path clip-path="url(#p937990e66b)" d="M 374.265898 131.66 
L 374.265898 10.7 
" style="fill:none;stroke:#b0b0b0;stroke-linecap:square;stroke-width:0.8;"/>
     </g>
     <g id="line2d_38">
      <g>
       <use style="stroke:#000000;stroke-width:0.6;" x="374.265898" xlink:href="#m5d4cecaa2a" y="131.66"/>
      </g>
     </g>
    </g>
    <g id="xtick_20">
     <g id="line2d_39">
      <path clip-path="url(#p937990e66b)" d="M 383.679572 131.66 
L 383.679572 10.7 
" style="fill:none;stroke:#b0b0b0;stroke-linecap:square;stroke-width:0.8;"/>
     </g>
     <g id="line2d_40">
      <g>
       <use style="stroke:#000000;stroke-width:0.6;" x="383.679572" xlink:href="#m5d4cecaa2a" y="131.66"/>
      </g>
     </g>
    </g>
    <g id="xtick_21">
     <g id="line2d_41">
      <path clip-path="url(#p937990e66b)" d="M 391.983022 131.66 
L 391.983022 10.7 
" style="fill:none;stroke:#b0b0b0;stroke-linecap:square;stroke-width:0.8;"/>
     </g>
     <g id="line2d_42">
      <g>
       <use style="stroke:#000000;stroke-width:0.6;" x="391.983022" xlink:href="#m5d4cecaa2a" y="131.66"/>
      </g>
     </g>
    </g>
   </g>
   <g id="matplotlib.axis_2">
    <g id="ytick_1">
     <g id="line2d_43">
      <path clip-path="url(#p937990e66b)" d="M 58.523438 126.161818 
L 415.643438 126.161818 
" style="fill:none;stroke:#b0b0b0;stroke-linecap:square;stroke-width:0.8;"/>
     </g>
     <g id="line2d_44">
      <defs>
       <path d="M 0 0 
L -3.5 0 
" id="m35c985cdc7" style="stroke:#000000;stroke-width:0.8;"/>
      </defs>
      <g>
       <use style="stroke:#000000;stroke-width:0.8;" x="58.523438" xlink:href="#m35c985cdc7" y="126.161818"/>
      </g>
     </g>
     <g id="text_4">
      <!-- 0 -->
      <g transform="translate(45.160938 129.961037)scale(0.1 -0.1)">
       <use xlink:href="#DejaVuSans-30"/>
      </g>
     </g>
    </g>
    <g id="ytick_2">
     <g id="line2d_45">
      <path clip-path="url(#p937990e66b)" d="M 58.523438 89.507273 
L 415.643438 89.507273 
" style="fill:none;stroke:#b0b0b0;stroke-linecap:square;stroke-width:0.8;"/>
     </g>
     <g id="line2d_46">
      <g>
       <use style="stroke:#000000;stroke-width:0.8;" x="58.523438" xlink:href="#m35c985cdc7" y="89.507273"/>
      </g>
     </g>
     <g id="text_5">
      <!-- 20 -->
      <defs>
       <path d="M 19.1875 8.296875 
L 53.609375 8.296875 
L 53.609375 0 
L 7.328125 0 
L 7.328125 8.296875 
Q 12.9375 14.109375 22.625 23.890625 
Q 32.328125 33.6875 34.8125 36.53125 
Q 39.546875 41.84375 41.421875 45.53125 
Q 43.3125 49.21875 43.3125 52.78125 
Q 43.3125 58.59375 39.234375 62.25 
Q 35.15625 65.921875 28.609375 65.921875 
Q 23.96875 65.921875 18.8125 64.3125 
Q 13.671875 62.703125 7.8125 59.421875 
L 7.8125 69.390625 
Q 13.765625 71.78125 18.9375 73 
Q 24.125 74.21875 28.421875 74.21875 
Q 39.75 74.21875 46.484375 68.546875 
Q 53.21875 62.890625 53.21875 53.421875 
Q 53.21875 48.921875 51.53125 44.890625 
Q 49.859375 40.875 45.40625 35.40625 
Q 44.1875 33.984375 37.640625 27.21875 
Q 31.109375 20.453125 19.1875 8.296875 
" id="DejaVuSans-32"/>
      </defs>
      <g transform="translate(38.798438 93.306491)scale(0.1 -0.1)">
       <use xlink:href="#DejaVuSans-32"/>
       <use x="63.623047" xlink:href="#DejaVuSans-30"/>
      </g>
     </g>
    </g>
    <g id="ytick_3">
     <g id="line2d_47">
      <path clip-path="url(#p937990e66b)" d="M 58.523438 52.852727 
L 415.643438 52.852727 
" style="fill:none;stroke:#b0b0b0;stroke-linecap:square;stroke-width:0.8;"/>
     </g>
     <g id="line2d_48">
      <g>
       <use style="stroke:#000000;stroke-width:0.8;" x="58.523438" xlink:href="#m35c985cdc7" y="52.852727"/>
      </g>
     </g>
     <g id="text_6">
      <!-- 40 -->
      <defs>
       <path d="M 37.796875 64.3125 
L 12.890625 25.390625 
L 37.796875 25.390625 
z
M 35.203125 72.90625 
L 47.609375 72.90625 
L 47.609375 25.390625 
L 58.015625 25.390625 
L 58.015625 17.1875 
L 47.609375 17.1875 
L 47.609375 0 
L 37.796875 0 
L 37.796875 17.1875 
L 4.890625 17.1875 
L 4.890625 26.703125 
z
" id="DejaVuSans-34"/>
      </defs>
      <g transform="translate(38.798438 56.651946)scale(0.1 -0.1)">
       <use xlink:href="#DejaVuSans-34"/>
       <use x="63.623047" xlink:href="#DejaVuSans-30"/>
      </g>
     </g>
    </g>
    <g id="ytick_4">
     <g id="line2d_49">
      <path clip-path="url(#p937990e66b)" d="M 58.523438 16.198182 
L 415.643438 16.198182 
" style="fill:none;stroke:#b0b0b0;stroke-linecap:square;stroke-width:0.8;"/>
     </g>
     <g id="line2d_50">
      <g>
       <use style="stroke:#000000;stroke-width:0.8;" x="58.523438" xlink:href="#m35c985cdc7" y="16.198182"/>
      </g>
     </g>
     <g id="text_7">
      <!-- 60 -->
      <defs>
       <path d="M 33.015625 40.375 
Q 26.375 40.375 22.484375 35.828125 
Q 18.609375 31.296875 18.609375 23.390625 
Q 18.609375 15.53125 22.484375 10.953125 
Q 26.375 6.390625 33.015625 6.390625 
Q 39.65625 6.390625 43.53125 10.953125 
Q 47.40625 15.53125 47.40625 23.390625 
Q 47.40625 31.296875 43.53125 35.828125 
Q 39.65625 40.375 33.015625 40.375 
M 52.59375 71.296875 
L 52.59375 62.3125 
Q 48.875 64.0625 45.09375 64.984375 
Q 41.3125 65.921875 37.59375 65.921875 
Q 27.828125 65.921875 22.671875 59.328125 
Q 17.53125 52.734375 16.796875 39.40625 
Q 19.671875 43.65625 24.015625 45.921875 
Q 28.375 48.1875 33.59375 48.1875 
Q 44.578125 48.1875 50.953125 41.515625 
Q 57.328125 34.859375 57.328125 23.390625 
Q 57.328125 12.15625 50.6875 5.359375 
Q 44.046875 -1.421875 33.015625 -1.421875 
Q 20.359375 -1.421875 13.671875 8.265625 
Q 6.984375 17.96875 6.984375 36.375 
Q 6.984375 53.65625 15.1875 63.9375 
Q 23.390625 74.21875 37.203125 74.21875 
Q 40.921875 74.21875 44.703125 73.484375 
Q 48.484375 72.75 52.59375 71.296875 
" id="DejaVuSans-36"/>
      </defs>
      <g transform="translate(38.798438 19.997401)scale(0.1 -0.1)">
       <use xlink:href="#DejaVuSans-36"/>
       <use x="63.623047" xlink:href="#DejaVuSans-30"/>
      </g>
     </g>
    </g>
    <g id="text_8">
     <!-- Magnitude (dB) -->
     <defs>
      <path d="M 9.8125 72.90625 
L 24.515625 72.90625 
L 43.109375 23.296875 
L 61.8125 72.90625 
L 76.515625 72.90625 
L 76.515625 0 
L 66.890625 0 
L 66.890625 64.015625 
L 48.09375 14.015625 
L 38.1875 14.015625 
L 19.390625 64.015625 
L 19.390625 0 
L 9.8125 0 
z
" id="DejaVuSans-4d"/>
      <path d="M 34.28125 27.484375 
Q 23.390625 27.484375 19.1875 25 
Q 14.984375 22.515625 14.984375 16.5 
Q 14.984375 11.71875 18.140625 8.90625 
Q 21.296875 6.109375 26.703125 6.109375 
Q 34.1875 6.109375 38.703125 11.40625 
Q 43.21875 16.703125 43.21875 25.484375 
L 43.21875 27.484375 
z
M 52.203125 31.203125 
L 52.203125 0 
L 43.21875 0 
L 43.21875 8.296875 
Q 40.140625 3.328125 35.546875 0.953125 
Q 30.953125 -1.421875 24.3125 -1.421875 
Q 15.921875 -1.421875 10.953125 3.296875 
Q 6 8.015625 6 15.921875 
Q 6 25.140625 12.171875 29.828125 
Q 18.359375 34.515625 30.609375 34.515625 
L 43.21875 34.515625 
L 43.21875 35.40625 
Q 43.21875 41.609375 39.140625 45 
Q 35.0625 48.390625 27.6875 48.390625 
Q 23 48.390625 18.546875 47.265625 
Q 14.109375 46.140625 10.015625 43.890625 
L 10.015625 52.203125 
Q 14.9375 54.109375 19.578125 55.046875 
Q 24.21875 56 28.609375 56 
Q 40.484375 56 46.34375 49.84375 
Q 52.203125 43.703125 52.203125 31.203125 
" id="DejaVuSans-61"/>
      <path d="M 45.40625 27.984375 
Q 45.40625 37.75 41.375 43.109375 
Q 37.359375 48.484375 30.078125 48.484375 
Q 22.859375 48.484375 18.828125 43.109375 
Q 14.796875 37.75 14.796875 27.984375 
Q 14.796875 18.265625 18.828125 12.890625 
Q 22.859375 7.515625 30.078125 7.515625 
Q 37.359375 7.515625 41.375 12.890625 
Q 45.40625 18.265625 45.40625 27.984375 
M 54.390625 6.78125 
Q 54.390625 -7.171875 48.1875 -13.984375 
Q 42 -20.796875 29.203125 -20.796875 
Q 24.46875 -20.796875 20.265625 -20.09375 
Q 16.0625 -19.390625 12.109375 -17.921875 
L 12.109375 -9.1875 
Q 16.0625 -11.328125 19.921875 -12.34375 
Q 23.78125 -13.375 27.78125 -13.375 
Q 36.625 -13.375 41.015625 -8.765625 
Q 45.40625 -4.15625 45.40625 5.171875 
L 45.40625 9.625 
Q 42.625 4.78125 38.28125 2.390625 
Q 33.9375 0 27.875 0 
Q 17.828125 0 11.671875 7.65625 
Q 5.515625 15.328125 5.515625 27.984375 
Q 5.515625 40.671875 11.671875 48.328125 
Q 17.828125 56 27.875 56 
Q 33.9375 56 38.28125 53.609375 
Q 42.625 51.21875 45.40625 46.390625 
L 45.40625 54.6875 
L 54.390625 54.6875 
z
" id="DejaVuSans-67"/>
      <path d="M 54.890625 33.015625 
L 54.890625 0 
L 45.90625 0 
L 45.90625 32.71875 
Q 45.90625 40.484375 42.875 44.328125 
Q 39.84375 48.1875 33.796875 48.1875 
Q 26.515625 48.1875 22.3125 43.546875 
Q 18.109375 38.921875 18.109375 30.90625 
L 18.109375 0 
L 9.078125 0 
L 9.078125 54.6875 
L 18.109375 54.6875 
L 18.109375 46.1875 
Q 21.34375 51.125 25.703125 53.5625 
Q 30.078125 56 35.796875 56 
Q 45.21875 56 50.046875 50.171875 
Q 54.890625 44.34375 54.890625 33.015625 
" id="DejaVuSans-6e"/>
      <path d="M 9.421875 54.6875 
L 18.40625 54.6875 
L 18.40625 0 
L 9.421875 0 
z
M 9.421875 75.984375 
L 18.40625 75.984375 
L 18.40625 64.59375 
L 9.421875 64.59375 
z
" id="DejaVuSans-69"/>
      <path d="M 18.3125 70.21875 
L 18.3125 54.6875 
L 36.8125 54.6875 
L 36.8125 47.703125 
L 18.3125 47.703125 
L 18.3125 18.015625 
Q 18.3125 11.328125 20.140625 9.421875 
Q 21.96875 7.515625 27.59375 7.515625 
L 36.8125 7.515625 
L 36.8125 0 
L 27.59375 0 
Q 17.1875 0 13.234375 3.875 
Q 9.28125 7.765625 9.28125 18.015625 
L 9.28125 47.703125 
L 2.6875 47.703125 
L 2.6875 54.6875 
L 9.28125 54.6875 
L 9.28125 70.21875 
z
" id="DejaVuSans-74"/>
      <path d="M 8.5 21.578125 
L 8.5 54.6875 
L 17.484375 54.6875 
L 17.484375 21.921875 
Q 17.484375 14.15625 20.5 10.265625 
Q 23.53125 6.390625 29.59375 6.390625 
Q 36.859375 6.390625 41.078125 11.03125 
Q 45.3125 15.671875 45.3125 23.6875 
L 45.3125 54.6875 
L 54.296875 54.6875 
L 54.296875 0 
L 45.3125 0 
L 45.3125 8.40625 
Q 42.046875 3.421875 37.71875 1 
Q 33.40625 -1.421875 27.6875 -1.421875 
Q 18.265625 -1.421875 13.375 4.4375 
Q 8.5 10.296875 8.5 21.578125 
M 31.109375 56 
z
" id="DejaVuSans-75"/>
      <path d="M 45.40625 46.390625 
L 45.40625 75.984375 
L 54.390625 75.984375 
L 54.390625 0 
L 45.40625 0 
L 45.40625 8.203125 
Q 42.578125 3.328125 38.25 0.953125 
Q 33.9375 -1.421875 27.875 -1.421875 
Q 17.96875 -1.421875 11.734375 6.484375 
Q 5.515625 14.40625 5.515625 27.296875 
Q 5.515625 40.1875 11.734375 48.09375 
Q 17.96875 56 27.875 56 
Q 33.9375 56 38.25 53.625 
Q 42.578125 51.265625 45.40625 46.390625 
M 14.796875 27.296875 
Q 14.796875 17.390625 18.875 11.75 
Q 22.953125 6.109375 30.078125 6.109375 
Q 37.203125 6.109375 41.296875 11.75 
Q 45.40625 17.390625 45.40625 27.296875 
Q 45.40625 37.203125 41.296875 42.84375 
Q 37.203125 48.484375 30.078125 48.484375 
Q 22.953125 48.484375 18.875 42.84375 
Q 14.796875 37.203125 14.796875 27.296875 
" id="DejaVuSans-64"/>
      <path d="M 56.203125 29.59375 
L 56.203125 25.203125 
L 14.890625 25.203125 
Q 15.484375 15.921875 20.484375 11.0625 
Q 25.484375 6.203125 34.421875 6.203125 
Q 39.59375 6.203125 44.453125 7.46875 
Q 49.3125 8.734375 54.109375 11.28125 
L 54.109375 2.78125 
Q 49.265625 0.734375 44.1875 -0.34375 
Q 39.109375 -1.421875 33.890625 -1.421875 
Q 20.796875 -1.421875 13.15625 6.1875 
Q 5.515625 13.8125 5.515625 26.8125 
Q 5.515625 40.234375 12.765625 48.109375 
Q 20.015625 56 32.328125 56 
Q 43.359375 56 49.78125 48.890625 
Q 56.203125 41.796875 56.203125 29.59375 
M 47.21875 32.234375 
Q 47.125 39.59375 43.09375 43.984375 
Q 39.0625 48.390625 32.421875 48.390625 
Q 24.90625 48.390625 20.390625 44.140625 
Q 15.875 39.890625 15.1875 32.171875 
z
" id="DejaVuSans-65"/>
      <path id="DejaVuSans-20"/>
      <path d="M 31 75.875 
Q 24.46875 64.65625 21.28125 53.65625 
Q 18.109375 42.671875 18.109375 31.390625 
Q 18.109375 20.125 21.3125 9.0625 
Q 24.515625 -2 31 -13.1875 
L 23.1875 -13.1875 
Q 15.875 -1.703125 12.234375 9.375 
Q 8.59375 20.453125 8.59375 31.390625 
Q 8.59375 42.28125 12.203125 53.3125 
Q 15.828125 64.359375 23.1875 75.875 
z
" id="DejaVuSans-28"/>
      <path d="M 19.671875 34.8125 
L 19.671875 8.109375 
L 35.5 8.109375 
Q 43.453125 8.109375 47.28125 11.40625 
Q 51.125 14.703125 51.125 21.484375 
Q 51.125 28.328125 47.28125 31.5625 
Q 43.453125 34.8125 35.5 34.8125 
z
M 19.671875 64.796875 
L 19.671875 42.828125 
L 34.28125 42.828125 
Q 41.5 42.828125 45.03125 45.53125 
Q 48.578125 48.25 48.578125 53.8125 
Q 48.578125 59.328125 45.03125 62.0625 
Q 41.5 64.796875 34.28125 64.796875 
z
M 9.8125 72.90625 
L 35.015625 72.90625 
Q 46.296875 72.90625 52.390625 68.21875 
Q 58.5 63.53125 58.5 54.890625 
Q 58.5 48.1875 55.375 44.234375 
Q 52.25 40.28125 46.1875 39.3125 
Q 53.46875 37.75 57.5 32.78125 
Q 61.53125 27.828125 61.53125 20.40625 
Q 61.53125 10.640625 54.890625 5.3125 
Q 48.25 0 35.984375 0 
L 9.8125 0 
z
" id="DejaVuSans-42"/>
      <path d="M 8.015625 75.875 
L 15.828125 75.875 
Q 23.140625 64.359375 26.78125 53.3125 
Q 30.421875 42.28125 30.421875 31.390625 
Q 30.421875 20.453125 26.78125 9.375 
Q 23.140625 -1.703125 15.828125 -13.1875 
L 8.015625 -13.1875 
Q 14.5 -2 17.703125 9.0625 
Q 20.90625 20.125 20.90625 31.390625 
Q 20.90625 42.671875 17.703125 53.65625 
Q 14.5 64.65625 8.015625 75.875 
" id="DejaVuSans-29"/>
     </defs>
     <g transform="translate(32.71875 109.765156)rotate(-90)scale(0.1 -0.1)">
      <use xlink:href="#DejaVuSans-4d"/>
      <use x="86.279297" xlink:href="#DejaVuSans-61"/>
      <use x="147.558594" xlink:href="#DejaVuSans-67"/>
      <use x="211.035156" xlink:href="#DejaVuSans-6e"/>
      <use x="274.414062" xlink:href="#DejaVuSans-69"/>
      <use x="302.197266" xlink:href="#DejaVuSans-74"/>
      <use x="341.40625" xlink:href="#DejaVuSans-75"/>
      <use x="404.785156" xlink:href="#DejaVuSans-64"/>
      <use x="468.261719" xlink:href="#DejaVuSans-65"/>
      <use x="529.785156" xlink:href="#DejaVuSans-20"/>
      <use x="561.572266" xlink:href="#DejaVuSans-28"/>
      <use x="600.585938" xlink:href="#DejaVuSans-64"/>
      <use x="664.0625" xlink:href="#DejaVuSans-42"/>
      <use x="732.666016" xlink:href="#DejaVuSans-29"/>
     </g>
    </g>
   </g>
   <g id="line2d_51">
    <path clip-path="url(#p937990e66b)" d="M 74.756165 126.161818 
L 81.381768 126.161818 
L 88.007371 126.161818 
L 94.632974 126.161818 
L 101.258577 126.161818 
L 107.88418 126.161818 
L 114.509783 126.161818 
L 121.135386 126.161818 
L 127.760989 126.161818 
L 134.386591 126.161818 
L 141.012194 126.161818 
L 147.637797 126.161818 
L 154.2634 126.161818 
L 160.889003 126.161818 
L 167.514606 126.161818 
L 174.140209 126.161818 
L 180.765812 126.161818 
L 187.391415 126.161818 
L 194.017018 126.161818 
L 200.642621 126.161818 
L 207.268224 126.161818 
L 213.893827 126.161818 
L 220.51943 126.161818 
L 227.145033 126.161818 
L 233.770636 126.161818 
L 240.396239 126.161818 
L 247.021842 126.161818 
L 253.647445 126.161818 
L 260.273048 126.161818 
L 266.898651 126.161818 
L 273.524254 126.161818 
L 280.149857 126.161818 
L 286.77546 126.161818 
L 293.401063 126.161818 
L 300.026666 126.161818 
L 306.652269 126.161818 
L 313.277872 126.161818 
L 319.903475 126.161818 
L 326.529078 126.161818 
L 333.154681 126.161818 
L 339.780284 126.161818 
L 346.405886 126.161818 
L 353.031489 126.161818 
L 359.657092 126.161818 
L 366.282695 126.161818 
L 372.908298 126.161818 
L 379.533901 126.161818 
L 386.159504 126.161818 
L 392.785107 126.161818 
L 399.41071 126.161818 
" style="fill:none;stroke:#1f77b4;stroke-linecap:square;stroke-width:1.5;"/>
   </g>
   <g id="line2d_52">
    <path clip-path="url(#p937990e66b)" d="M 74.756165 89.507273 
L 81.381768 89.507273 
L 88.007371 89.507273 
L 94.632974 89.507273 
L 101.258577 89.507273 
L 107.88418 89.507273 
L 114.509783 89.507273 
L 121.135386 89.507273 
L 127.760989 89.507273 
L 134.386591 89.507273 
L 141.012194 89.507273 
L 147.637797 89.507273 
L 154.2634 89.507273 
L 160.889003 89.507273 
L 167.514606 89.507273 
L 174.140209 89.507273 
L 180.765812 89.507273 
L 187.391415 89.507273 
L 194.017018 89.507273 
L 200.642621 89.507273 
L 207.268224 89.507273 
L 213.893827 89.507273 
L 220.51943 89.507273 
L 227.145033 89.507273 
L 233.770636 89.507273 
L 240.396239 89.507273 
L 247.021842 89.507273 
L 253.647445 89.507273 
L 260.273048 89.507273 
L 266.898651 89.507273 
L 273.524254 89.507273 
L 280.149857 89.507273 
L 286.77546 89.507273 
L 293.401063 89.507273 
L 300.026666 89.507273 
L 306.652269 89.507273 
L 313.277872 89.507273 
L 319.903475 89.507273 
L 326.529078 89.507273 
L 333.154681 89.507273 
L 339.780284 89.507273 
L 346.405886 89.507273 
L 353.031489 89.507273 
L 359.657092 89.507273 
L 366.282695 89.507273 
L 372.908298 89.507273 
L 379.533901 89.507273 
L 386.159504 89.507273 
L 392.785107 89.507273 
L 399.41071 89.507273 
" style="fill:none;stroke:#ff7f0e;stroke-linecap:square;stroke-width:1.5;"/>
   </g>
   <g id="line2d_53">
    <path clip-path="url(#p937990e66b)" d="M 74.756165 52.852727 
L 81.381768 52.852727 
L 88.007371 52.852727 
L 94.632974 52.852727 
L 101.258577 52.852727 
L 107.88418 52.852727 
L 114.509783 52.852727 
L 121.135386 52.852727 
L 127.760989 52.852727 
L 134.386591 52.852727 
L 141.012194 52.852727 
L 147.637797 52.852727 
L 154.2634 52.852727 
L 160.889003 52.852727 
L 167.514606 52.852727 
L 174.140209 52.852727 
L 180.765812 52.852727 
L 187.391415 52.852727 
L 194.017018 52.852727 
L 200.642621 52.852727 
L 207.268224 52.852727 
L 213.893827 52.852727 
L 220.51943 52.852727 
L 227.145033 52.852727 
L 233.770636 52.852727 
L 240.396239 52.852727 
L 247.021842 52.852727 
L 253.647445 52.852727 
L 260.273048 52.852727 
L 266.898651 52.852727 
L 273.524254 52.852727 
L 280.149857 52.852727 
L 286.77546 52.852727 
L 293.401063 52.852727 
L 300.026666 52.852727 
L 306.652269 52.852727 
L 313.277872 52.852727 
L 319.903475 52.852727 
L 326.529078 52.852727 
L 333.154681 52.852727 
L 339.780284 52.852727 
L 346.405886 52.852727 
L 353.031489 52.852727 
L 359.657092 52.852727 
L 366.282695 52.852727 
L 372.908298 52.852727 
L 379.533901 52.852727 
L 386.159504 52.852727 
L 392.785107 52.852727 
L 399.41071 52.852727 
" style="fill:none;stroke:#2ca02c;stroke-linecap:square;stroke-width:1.5;"/>
   </g>
   <g id="line2d_54">
    <path clip-path="url(#p937990e66b)" d="M 74.756165 16.198182 
L 81.381768 16.198182 
L 88.007371 16.198182 
L 94.632974 16.198182 
L 101.258577 16.198182 
L 107.88418 16.198182 
L 114.509783 16.198182 
L 121.135386 16.198182 
L 127.760989 16.198182 
L 134.386591 16.198182 
L 141.012194 16.198182 
L 147.637797 16.198182 
L 154.2634 16.198182 
L 160.889003 16.198182 
L 167.514606 16.198182 
L 174.140209 16.198182 
L 180.765812 16.198182 
L 187.391415 16.198182 
L 194.017018 16.198182 
L 200.642621 16.198182 
L 207.268224 16.198182 
L 213.893827 16.198182 
L 220.51943 16.198182 
L 227.145033 16.198182 
L 233.770636 16.198182 
L 240.396239 16.198182 
L 247.021842 16.198182 
L 253.647445 16.198182 
L 260.273048 16.198182 
L 266.898651 16.198182 
L 273.524254 16.198182 
L 280.149857 16.198182 
L 286.77546 16.198182 
L 293.401063 16.198182 
L 300.026666 16.198182 
L 306.652269 16.198182 
L 313.277872 16.198182 
L 319.903475 16.198182 
L 326.529078 16.198182 
L 333.154681 16.198182 
L 339.780284 16.198182 
L 346.405886 16.198182 
L 353.031489 16.198182 
L 359.657092 16.198182 
L 366.282695 16.198182 
L 372.908298 16.198182 
L 379.533901 16.198182 
L 386.159504 16.198182 
L 392.785107 16.198182 
L 399.41071 16.198182 
" style="fill:none;stroke:#d62728;stroke-linecap:square;stroke-width:1.5;"/>
   </g>
   <g id="patch_3">
    <path d="M 58.523438 131.66 
L 58.523438 10.7 
" style="fill:none;stroke:#000000;stroke-linecap:square;stroke-linejoin:miter;stroke-width:0.8;"/>
   </g>
   <g id="patch_4">
    <path d="M 415.643438 131.66 
L 415.643438 10.7 
" style="fill:none;stroke:#000000;stroke-linecap:square;stroke-linejoin:miter;stroke-width:0.8;"/>
   </g>
   <g id="patch_5">
    <path d="M 58.523438 131.66 
L 415.643438 131.66 
" style="fill:none;stroke:#000000;stroke-linecap:square;stroke-linejoin:miter;stroke-width:0.8;"/>
   </g>
   <g id="patch_6">
    <path d="M 58.523438 10.7 
L 415.643438 10.7 
" style="fill:none;stroke:#000000;stroke-linecap:square;stroke-linejoin:miter;stroke-width:0.8;"/>
   </g>
  </g>
  <g id="axes_2">
   <g id="patch_7">
    <path d="M 58.523438 276.812 
L 415.643438 276.812 
L 415.643438 155.852 
L 58.523438 155.852 
z
" style="fill:#ffffff;"/>
   </g>
   <g id="matplotlib.axis_3">
    <g id="xtick_22">
     <g id="line2d_55">
      <path clip-path="url(#p77b32e81e2)" d="M 74.756165 276.812 
L 74.756165 155.852 
" style="fill:none;stroke:#b0b0b0;stroke-linecap:square;stroke-width:0.8;"/>
     </g>
     <g id="line2d_56">
      <g>
       <use style="stroke:#000000;stroke-width:0.8;" x="74.756165" xlink:href="#mbc2433e169" y="276.812"/>
      </g>
     </g>
     <g id="text_9">
      <!-- ${10^{-1}}$ -->
      <g transform="translate(63.006165 291.410438)scale(0.1 -0.1)">
       <use transform="translate(0 0.684375)" xlink:href="#DejaVuSans-31"/>
       <use transform="translate(63.623047 0.684375)" xlink:href="#DejaVuSans-30"/>
       <use transform="translate(128.203125 38.965625)scale(0.7)" xlink:href="#DejaVuSans-2212"/>
       <use transform="translate(186.855469 38.965625)scale(0.7)" xlink:href="#DejaVuSans-31"/>
      </g>
     </g>
    </g>
    <g id="xtick_23">
     <g id="line2d_57">
      <path clip-path="url(#p77b32e81e2)" d="M 237.083438 276.812 
L 237.083438 155.852 
" style="fill:none;stroke:#b0b0b0;stroke-linecap:square;stroke-width:0.8;"/>
     </g>
     <g id="line2d_58">
      <g>
       <use style="stroke:#000000;stroke-width:0.8;" x="237.083438" xlink:href="#mbc2433e169" y="276.812"/>
      </g>
     </g>
     <g id="text_10">
      <!-- ${10^{0}}$ -->
      <g transform="translate(228.283437 291.410438)scale(0.1 -0.1)">
       <use transform="translate(0 0.765625)" xlink:href="#DejaVuSans-31"/>
       <use transform="translate(63.623047 0.765625)" xlink:href="#DejaVuSans-30"/>
       <use transform="translate(128.203125 39.046875)scale(0.7)" xlink:href="#DejaVuSans-30"/>
      </g>
     </g>
    </g>
    <g id="xtick_24">
     <g id="line2d_59">
      <path clip-path="url(#p77b32e81e2)" d="M 399.41071 276.812 
L 399.41071 155.852 
" style="fill:none;stroke:#b0b0b0;stroke-linecap:square;stroke-width:0.8;"/>
     </g>
     <g id="line2d_60">
      <g>
       <use style="stroke:#000000;stroke-width:0.8;" x="399.41071" xlink:href="#mbc2433e169" y="276.812"/>
      </g>
     </g>
     <g id="text_11">
      <!-- ${10^{1}}$ -->
      <g transform="translate(390.61071 291.410438)scale(0.1 -0.1)">
       <use transform="translate(0 0.684375)" xlink:href="#DejaVuSans-31"/>
       <use transform="translate(63.623047 0.684375)" xlink:href="#DejaVuSans-30"/>
       <use transform="translate(128.203125 38.965625)scale(0.7)" xlink:href="#DejaVuSans-31"/>
      </g>
     </g>
    </g>
    <g id="xtick_25">
     <g id="line2d_61">
      <path clip-path="url(#p77b32e81e2)" d="M 59.025027 276.812 
L 59.025027 155.852 
" style="fill:none;stroke:#b0b0b0;stroke-linecap:square;stroke-width:0.8;"/>
     </g>
     <g id="line2d_62">
      <g>
       <use style="stroke:#000000;stroke-width:0.6;" x="59.025027" xlink:href="#m5d4cecaa2a" y="276.812"/>
      </g>
     </g>
    </g>
    <g id="xtick_26">
     <g id="line2d_63">
      <path clip-path="url(#p77b32e81e2)" d="M 67.328476 276.812 
L 67.328476 155.852 
" style="fill:none;stroke:#b0b0b0;stroke-linecap:square;stroke-width:0.8;"/>
     </g>
     <g id="line2d_64">
      <g>
       <use style="stroke:#000000;stroke-width:0.6;" x="67.328476" xlink:href="#m5d4cecaa2a" y="276.812"/>
      </g>
     </g>
    </g>
    <g id="xtick_27">
     <g id="line2d_65">
      <path clip-path="url(#p77b32e81e2)" d="M 123.621543 276.812 
L 123.621543 155.852 
" style="fill:none;stroke:#b0b0b0;stroke-linecap:square;stroke-width:0.8;"/>
     </g>
     <g id="line2d_66">
      <g>
       <use style="stroke:#000000;stroke-width:0.6;" x="123.621543" xlink:href="#m5d4cecaa2a" y="276.812"/>
      </g>
     </g>
    </g>
    <g id="xtick_28">
     <g id="line2d_67">
      <path clip-path="url(#p77b32e81e2)" d="M 152.205957 276.812 
L 152.205957 155.852 
" style="fill:none;stroke:#b0b0b0;stroke-linecap:square;stroke-width:0.8;"/>
     </g>
     <g id="line2d_68">
      <g>
       <use style="stroke:#000000;stroke-width:0.6;" x="152.205957" xlink:href="#m5d4cecaa2a" y="276.812"/>
      </g>
     </g>
    </g>
    <g id="xtick_29">
     <g id="line2d_69">
      <path clip-path="url(#p77b32e81e2)" d="M 172.486921 276.812 
L 172.486921 155.852 
" style="fill:none;stroke:#b0b0b0;stroke-linecap:square;stroke-width:0.8;"/>
     </g>
     <g id="line2d_70">
      <g>
       <use style="stroke:#000000;stroke-width:0.6;" x="172.486921" xlink:href="#m5d4cecaa2a" y="276.812"/>
      </g>
     </g>
    </g>
    <g id="xtick_30">
     <g id="line2d_71">
      <path clip-path="url(#p77b32e81e2)" d="M 188.218059 276.812 
L 188.218059 155.852 
" style="fill:none;stroke:#b0b0b0;stroke-linecap:square;stroke-width:0.8;"/>
     </g>
     <g id="line2d_72">
      <g>
       <use style="stroke:#000000;stroke-width:0.6;" x="188.218059" xlink:href="#m5d4cecaa2a" y="276.812"/>
      </g>
     </g>
    </g>
    <g id="xtick_31">
     <g id="line2d_73">
      <path clip-path="url(#p77b32e81e2)" d="M 201.071335 276.812 
L 201.071335 155.852 
" style="fill:none;stroke:#b0b0b0;stroke-linecap:square;stroke-width:0.8;"/>
     </g>
     <g id="line2d_74">
      <g>
       <use style="stroke:#000000;stroke-width:0.6;" x="201.071335" xlink:href="#m5d4cecaa2a" y="276.812"/>
      </g>
     </g>
    </g>
    <g id="xtick_32">
     <g id="line2d_75">
      <path clip-path="url(#p77b32e81e2)" d="M 211.938625 276.812 
L 211.938625 155.852 
" style="fill:none;stroke:#b0b0b0;stroke-linecap:square;stroke-width:0.8;"/>
     </g>
     <g id="line2d_76">
      <g>
       <use style="stroke:#000000;stroke-width:0.6;" x="211.938625" xlink:href="#m5d4cecaa2a" y="276.812"/>
      </g>
     </g>
    </g>
    <g id="xtick_33">
     <g id="line2d_77">
      <path clip-path="url(#p77b32e81e2)" d="M 221.352299 276.812 
L 221.352299 155.852 
" style="fill:none;stroke:#b0b0b0;stroke-linecap:square;stroke-width:0.8;"/>
     </g>
     <g id="line2d_78">
      <g>
       <use style="stroke:#000000;stroke-width:0.6;" x="221.352299" xlink:href="#m5d4cecaa2a" y="276.812"/>
      </g>
     </g>
    </g>
    <g id="xtick_34">
     <g id="line2d_79">
      <path clip-path="url(#p77b32e81e2)" d="M 229.655749 276.812 
L 229.655749 155.852 
" style="fill:none;stroke:#b0b0b0;stroke-linecap:square;stroke-width:0.8;"/>
     </g>
     <g id="line2d_80">
      <g>
       <use style="stroke:#000000;stroke-width:0.6;" x="229.655749" xlink:href="#m5d4cecaa2a" y="276.812"/>
      </g>
     </g>
    </g>
    <g id="xtick_35">
     <g id="line2d_81">
      <path clip-path="url(#p77b32e81e2)" d="M 285.948816 276.812 
L 285.948816 155.852 
" style="fill:none;stroke:#b0b0b0;stroke-linecap:square;stroke-width:0.8;"/>
     </g>
     <g id="line2d_82">
      <g>
       <use style="stroke:#000000;stroke-width:0.6;" x="285.948816" xlink:href="#m5d4cecaa2a" y="276.812"/>
      </g>
     </g>
    </g>
    <g id="xtick_36">
     <g id="line2d_83">
      <path clip-path="url(#p77b32e81e2)" d="M 314.53323 276.812 
L 314.53323 155.852 
" style="fill:none;stroke:#b0b0b0;stroke-linecap:square;stroke-width:0.8;"/>
     </g>
     <g id="line2d_84">
      <g>
       <use style="stroke:#000000;stroke-width:0.6;" x="314.53323" xlink:href="#m5d4cecaa2a" y="276.812"/>
      </g>
     </g>
    </g>
    <g id="xtick_37">
     <g id="line2d_85">
      <path clip-path="url(#p77b32e81e2)" d="M 334.814194 276.812 
L 334.814194 155.852 
" style="fill:none;stroke:#b0b0b0;stroke-linecap:square;stroke-width:0.8;"/>
     </g>
     <g id="line2d_86">
      <g>
       <use style="stroke:#000000;stroke-width:0.6;" x="334.814194" xlink:href="#m5d4cecaa2a" y="276.812"/>
      </g>
     </g>
    </g>
    <g id="xtick_38">
     <g id="line2d_87">
      <path clip-path="url(#p77b32e81e2)" d="M 350.545332 276.812 
L 350.545332 155.852 
" style="fill:none;stroke:#b0b0b0;stroke-linecap:square;stroke-width:0.8;"/>
     </g>
     <g id="line2d_88">
      <g>
       <use style="stroke:#000000;stroke-width:0.6;" x="350.545332" xlink:href="#m5d4cecaa2a" y="276.812"/>
      </g>
     </g>
    </g>
    <g id="xtick_39">
     <g id="line2d_89">
      <path clip-path="url(#p77b32e81e2)" d="M 363.398608 276.812 
L 363.398608 155.852 
" style="fill:none;stroke:#b0b0b0;stroke-linecap:square;stroke-width:0.8;"/>
     </g>
     <g id="line2d_90">
      <g>
       <use style="stroke:#000000;stroke-width:0.6;" x="363.398608" xlink:href="#m5d4cecaa2a" y="276.812"/>
      </g>
     </g>
    </g>
    <g id="xtick_40">
     <g id="line2d_91">
      <path clip-path="url(#p77b32e81e2)" d="M 374.265898 276.812 
L 374.265898 155.852 
" style="fill:none;stroke:#b0b0b0;stroke-linecap:square;stroke-width:0.8;"/>
     </g>
     <g id="line2d_92">
      <g>
       <use style="stroke:#000000;stroke-width:0.6;" x="374.265898" xlink:href="#m5d4cecaa2a" y="276.812"/>
      </g>
     </g>
    </g>
    <g id="xtick_41">
     <g id="line2d_93">
      <path clip-path="url(#p77b32e81e2)" d="M 383.679572 276.812 
L 383.679572 155.852 
" style="fill:none;stroke:#b0b0b0;stroke-linecap:square;stroke-width:0.8;"/>
     </g>
     <g id="line2d_94">
      <g>
       <use style="stroke:#000000;stroke-width:0.6;" x="383.679572" xlink:href="#m5d4cecaa2a" y="276.812"/>
      </g>
     </g>
    </g>
    <g id="xtick_42">
     <g id="line2d_95">
      <path clip-path="url(#p77b32e81e2)" d="M 391.983022 276.812 
L 391.983022 155.852 
" style="fill:none;stroke:#b0b0b0;stroke-linecap:square;stroke-width:0.8;"/>
     </g>
     <g id="line2d_96">
      <g>
       <use style="stroke:#000000;stroke-width:0.6;" x="391.983022" xlink:href="#m5d4cecaa2a" y="276.812"/>
      </g>
     </g>
    </g>
    <g id="text_12">
     <!-- Frequency (rad/sec) -->
     <defs>
      <path d="M 9.8125 72.90625 
L 51.703125 72.90625 
L 51.703125 64.59375 
L 19.671875 64.59375 
L 19.671875 43.109375 
L 48.578125 43.109375 
L 48.578125 34.8125 
L 19.671875 34.8125 
L 19.671875 0 
L 9.8125 0 
z
" id="DejaVuSans-46"/>
      <path d="M 41.109375 46.296875 
Q 39.59375 47.171875 37.8125 47.578125 
Q 36.03125 48 33.890625 48 
Q 26.265625 48 22.1875 43.046875 
Q 18.109375 38.09375 18.109375 28.8125 
L 18.109375 0 
L 9.078125 0 
L 9.078125 54.6875 
L 18.109375 54.6875 
L 18.109375 46.1875 
Q 20.953125 51.171875 25.484375 53.578125 
Q 30.03125 56 36.53125 56 
Q 37.453125 56 38.578125 55.875 
Q 39.703125 55.765625 41.0625 55.515625 
z
" id="DejaVuSans-72"/>
      <path d="M 14.796875 27.296875 
Q 14.796875 17.390625 18.875 11.75 
Q 22.953125 6.109375 30.078125 6.109375 
Q 37.203125 6.109375 41.296875 11.75 
Q 45.40625 17.390625 45.40625 27.296875 
Q 45.40625 37.203125 41.296875 42.84375 
Q 37.203125 48.484375 30.078125 48.484375 
Q 22.953125 48.484375 18.875 42.84375 
Q 14.796875 37.203125 14.796875 27.296875 
M 45.40625 8.203125 
Q 42.578125 3.328125 38.25 0.953125 
Q 33.9375 -1.421875 27.875 -1.421875 
Q 17.96875 -1.421875 11.734375 6.484375 
Q 5.515625 14.40625 5.515625 27.296875 
Q 5.515625 40.1875 11.734375 48.09375 
Q 17.96875 56 27.875 56 
Q 33.9375 56 38.25 53.625 
Q 42.578125 51.265625 45.40625 46.390625 
L 45.40625 54.6875 
L 54.390625 54.6875 
L 54.390625 -20.796875 
L 45.40625 -20.796875 
z
" id="DejaVuSans-71"/>
      <path d="M 48.78125 52.59375 
L 48.78125 44.1875 
Q 44.96875 46.296875 41.140625 47.34375 
Q 37.3125 48.390625 33.40625 48.390625 
Q 24.65625 48.390625 19.8125 42.84375 
Q 14.984375 37.3125 14.984375 27.296875 
Q 14.984375 17.28125 19.8125 11.734375 
Q 24.65625 6.203125 33.40625 6.203125 
Q 37.3125 6.203125 41.140625 7.25 
Q 44.96875 8.296875 48.78125 10.40625 
L 48.78125 2.09375 
Q 45.015625 0.34375 40.984375 -0.53125 
Q 36.96875 -1.421875 32.421875 -1.421875 
Q 20.0625 -1.421875 12.78125 6.34375 
Q 5.515625 14.109375 5.515625 27.296875 
Q 5.515625 40.671875 12.859375 48.328125 
Q 20.21875 56 33.015625 56 
Q 37.15625 56 41.109375 55.140625 
Q 45.0625 54.296875 48.78125 52.59375 
" id="DejaVuSans-63"/>
      <path d="M 32.171875 -5.078125 
Q 28.375 -14.84375 24.75 -17.8125 
Q 21.140625 -20.796875 15.09375 -20.796875 
L 7.90625 -20.796875 
L 7.90625 -13.28125 
L 13.1875 -13.28125 
Q 16.890625 -13.28125 18.9375 -11.515625 
Q 21 -9.765625 23.484375 -3.21875 
L 25.09375 0.875 
L 2.984375 54.6875 
L 12.5 54.6875 
L 29.59375 11.921875 
L 46.6875 54.6875 
L 56.203125 54.6875 
z
" id="DejaVuSans-79"/>
      <path d="M 25.390625 72.90625 
L 33.6875 72.90625 
L 8.296875 -9.28125 
L 0 -9.28125 
z
" id="DejaVuSans-2f"/>
      <path d="M 44.28125 53.078125 
L 44.28125 44.578125 
Q 40.484375 46.53125 36.375 47.5 
Q 32.28125 48.484375 27.875 48.484375 
Q 21.1875 48.484375 17.84375 46.4375 
Q 14.5 44.390625 14.5 40.28125 
Q 14.5 37.15625 16.890625 35.375 
Q 19.28125 33.59375 26.515625 31.984375 
L 29.59375 31.296875 
Q 39.15625 29.25 43.1875 25.515625 
Q 47.21875 21.78125 47.21875 15.09375 
Q 47.21875 7.46875 41.1875 3.015625 
Q 35.15625 -1.421875 24.609375 -1.421875 
Q 20.21875 -1.421875 15.453125 -0.5625 
Q 10.6875 0.296875 5.421875 2 
L 5.421875 11.28125 
Q 10.40625 8.6875 15.234375 7.390625 
Q 20.0625 6.109375 24.8125 6.109375 
Q 31.15625 6.109375 34.5625 8.28125 
Q 37.984375 10.453125 37.984375 14.40625 
Q 37.984375 18.0625 35.515625 20.015625 
Q 33.0625 21.96875 24.703125 23.78125 
L 21.578125 24.515625 
Q 13.234375 26.265625 9.515625 29.90625 
Q 5.8125 33.546875 5.8125 39.890625 
Q 5.8125 47.609375 11.28125 51.796875 
Q 16.75 56 26.8125 56 
Q 31.78125 56 36.171875 55.265625 
Q 40.578125 54.546875 44.28125 53.078125 
" id="DejaVuSans-73"/>
     </defs>
     <g transform="translate(186.886562 305.088562)scale(0.1 -0.1)">
      <use xlink:href="#DejaVuSans-46"/>
      <use x="57.410156" xlink:href="#DejaVuSans-72"/>
      <use x="98.492188" xlink:href="#DejaVuSans-65"/>
      <use x="160.015625" xlink:href="#DejaVuSans-71"/>
      <use x="223.492188" xlink:href="#DejaVuSans-75"/>
      <use x="286.871094" xlink:href="#DejaVuSans-65"/>
      <use x="348.394531" xlink:href="#DejaVuSans-6e"/>
      <use x="411.773438" xlink:href="#DejaVuSans-63"/>
      <use x="466.753906" xlink:href="#DejaVuSans-79"/>
      <use x="525.933594" xlink:href="#DejaVuSans-20"/>
      <use x="557.720703" xlink:href="#DejaVuSans-28"/>
      <use x="596.734375" xlink:href="#DejaVuSans-72"/>
      <use x="637.847656" xlink:href="#DejaVuSans-61"/>
      <use x="699.126953" xlink:href="#DejaVuSans-64"/>
      <use x="762.603516" xlink:href="#DejaVuSans-2f"/>
      <use x="796.294922" xlink:href="#DejaVuSans-73"/>
      <use x="848.394531" xlink:href="#DejaVuSans-65"/>
      <use x="909.917969" xlink:href="#DejaVuSans-63"/>
      <use x="964.898438" xlink:href="#DejaVuSans-29"/>
     </g>
    </g>
   </g>
   <g id="matplotlib.axis_4">
    <g id="ytick_5">
     <g id="line2d_97">
      <path clip-path="url(#p77b32e81e2)" d="M 58.523438 260.317455 
L 415.643438 260.317455 
" style="fill:none;stroke:#b0b0b0;stroke-linecap:square;stroke-width:0.8;"/>
     </g>
     <g id="line2d_98">
      <g>
       <use style="stroke:#000000;stroke-width:0.8;" x="58.523438" xlink:href="#m35c985cdc7" y="260.317455"/>
      </g>
     </g>
     <g id="text_13">
      <!-- −0.04 -->
      <defs>
       <path d="M 10.6875 12.40625 
L 21 12.40625 
L 21 0 
L 10.6875 0 
z
" id="DejaVuSans-2e"/>
      </defs>
      <g transform="translate(20.878125 264.116673)scale(0.1 -0.1)">
       <use xlink:href="#DejaVuSans-2212"/>
       <use x="83.789062" xlink:href="#DejaVuSans-30"/>
       <use x="147.412109" xlink:href="#DejaVuSans-2e"/>
       <use x="179.199219" xlink:href="#DejaVuSans-30"/>
       <use x="242.822266" xlink:href="#DejaVuSans-34"/>
      </g>
     </g>
    </g>
    <g id="ytick_6">
     <g id="line2d_99">
      <path clip-path="url(#p77b32e81e2)" d="M 58.523438 238.324727 
L 415.643438 238.324727 
" style="fill:none;stroke:#b0b0b0;stroke-linecap:square;stroke-width:0.8;"/>
     </g>
     <g id="line2d_100">
      <g>
       <use style="stroke:#000000;stroke-width:0.8;" x="58.523438" xlink:href="#m35c985cdc7" y="238.324727"/>
      </g>
     </g>
     <g id="text_14">
      <!-- −0.02 -->
      <g transform="translate(20.878125 242.123946)scale(0.1 -0.1)">
       <use xlink:href="#DejaVuSans-2212"/>
       <use x="83.789062" xlink:href="#DejaVuSans-30"/>
       <use x="147.412109" xlink:href="#DejaVuSans-2e"/>
       <use x="179.199219" xlink:href="#DejaVuSans-30"/>
       <use x="242.822266" xlink:href="#DejaVuSans-32"/>
      </g>
     </g>
    </g>
    <g id="ytick_7">
     <g id="line2d_101">
      <path clip-path="url(#p77b32e81e2)" d="M 58.523438 216.332 
L 415.643438 216.332 
" style="fill:none;stroke:#b0b0b0;stroke-linecap:square;stroke-width:0.8;"/>
     </g>
     <g id="line2d_102">
      <g>
       <use style="stroke:#000000;stroke-width:0.8;" x="58.523438" xlink:href="#m35c985cdc7" y="216.332"/>
      </g>
     </g>
     <g id="text_15">
      <!-- 0.00 -->
      <g transform="translate(29.257813 220.131219)scale(0.1 -0.1)">
       <use xlink:href="#DejaVuSans-30"/>
       <use x="63.623047" xlink:href="#DejaVuSans-2e"/>
       <use x="95.410156" xlink:href="#DejaVuSans-30"/>
       <use x="159.033203" xlink:href="#DejaVuSans-30"/>
      </g>
     </g>
    </g>
    <g id="ytick_8">
     <g id="line2d_103">
      <path clip-path="url(#p77b32e81e2)" d="M 58.523438 194.339273 
L 415.643438 194.339273 
" style="fill:none;stroke:#b0b0b0;stroke-linecap:square;stroke-width:0.8;"/>
     </g>
     <g id="line2d_104">
      <g>
       <use style="stroke:#000000;stroke-width:0.8;" x="58.523438" xlink:href="#m35c985cdc7" y="194.339273"/>
      </g>
     </g>
     <g id="text_16">
      <!-- 0.02 -->
      <g transform="translate(29.257813 198.138491)scale(0.1 -0.1)">
       <use xlink:href="#DejaVuSans-30"/>
       <use x="63.623047" xlink:href="#DejaVuSans-2e"/>
       <use x="95.410156" xlink:href="#DejaVuSans-30"/>
       <use x="159.033203" xlink:href="#DejaVuSans-32"/>
      </g>
     </g>
    </g>
    <g id="ytick_9">
     <g id="line2d_105">
      <path clip-path="url(#p77b32e81e2)" d="M 58.523438 172.346545 
L 415.643438 172.346545 
" style="fill:none;stroke:#b0b0b0;stroke-linecap:square;stroke-width:0.8;"/>
     </g>
     <g id="line2d_106">
      <g>
       <use style="stroke:#000000;stroke-width:0.8;" x="58.523438" xlink:href="#m35c985cdc7" y="172.346545"/>
      </g>
     </g>
     <g id="text_17">
      <!-- 0.04 -->
      <g transform="translate(29.257813 176.145764)scale(0.1 -0.1)">
       <use xlink:href="#DejaVuSans-30"/>
       <use x="63.623047" xlink:href="#DejaVuSans-2e"/>
       <use x="95.410156" xlink:href="#DejaVuSans-30"/>
       <use x="159.033203" xlink:href="#DejaVuSans-34"/>
      </g>
     </g>
    </g>
    <g id="text_18">
     <!-- Phase (deg) -->
     <defs>
      <path d="M 19.671875 64.796875 
L 19.671875 37.40625 
L 32.078125 37.40625 
Q 38.96875 37.40625 42.71875 40.96875 
Q 46.484375 44.53125 46.484375 51.125 
Q 46.484375 57.671875 42.71875 61.234375 
Q 38.96875 64.796875 32.078125 64.796875 
z
M 9.8125 72.90625 
L 32.078125 72.90625 
Q 44.34375 72.90625 50.609375 67.359375 
Q 56.890625 61.8125 56.890625 51.125 
Q 56.890625 40.328125 50.609375 34.8125 
Q 44.34375 29.296875 32.078125 29.296875 
L 19.671875 29.296875 
L 19.671875 0 
L 9.8125 0 
z
" id="DejaVuSans-50"/>
      <path d="M 54.890625 33.015625 
L 54.890625 0 
L 45.90625 0 
L 45.90625 32.71875 
Q 45.90625 40.484375 42.875 44.328125 
Q 39.84375 48.1875 33.796875 48.1875 
Q 26.515625 48.1875 22.3125 43.546875 
Q 18.109375 38.921875 18.109375 30.90625 
L 18.109375 0 
L 9.078125 0 
L 9.078125 75.984375 
L 18.109375 75.984375 
L 18.109375 46.1875 
Q 21.34375 51.125 25.703125 53.5625 
Q 30.078125 56 35.796875 56 
Q 45.21875 56 50.046875 50.171875 
Q 54.890625 44.34375 54.890625 33.015625 
" id="DejaVuSans-68"/>
     </defs>
     <g transform="translate(14.798438 246.176531)rotate(-90)scale(0.1 -0.1)">
      <use xlink:href="#DejaVuSans-50"/>
      <use x="60.302734" xlink:href="#DejaVuSans-68"/>
      <use x="123.681641" xlink:href="#DejaVuSans-61"/>
      <use x="184.960938" xlink:href="#DejaVuSans-73"/>
      <use x="237.060547" xlink:href="#DejaVuSans-65"/>
      <use x="298.583984" xlink:href="#DejaVuSans-20"/>
      <use x="330.371094" xlink:href="#DejaVuSans-28"/>
      <use x="369.384766" xlink:href="#DejaVuSans-64"/>
      <use x="432.861328" xlink:href="#DejaVuSans-65"/>
      <use x="494.384766" xlink:href="#DejaVuSans-67"/>
      <use x="557.861328" xlink:href="#DejaVuSans-29"/>
     </g>
    </g>
   </g>
   <g id="line2d_107">
    <path clip-path="url(#p77b32e81e2)" d="M 74.756165 216.332 
L 81.381768 216.332 
L 88.007371 216.332 
L 94.632974 216.332 
L 101.258577 216.332 
L 107.88418 216.332 
L 114.509783 216.332 
L 121.135386 216.332 
L 127.760989 216.332 
L 134.386591 216.332 
L 141.012194 216.332 
L 147.637797 216.332 
L 154.2634 216.332 
L 160.889003 216.332 
L 167.514606 216.332 
L 174.140209 216.332 
L 180.765812 216.332 
L 187.391415 216.332 
L 194.017018 216.332 
L 200.642621 216.332 
L 207.268224 216.332 
L 213.893827 216.332 
L 220.51943 216.332 
L 227.145033 216.332 
L 233.770636 216.332 
L 240.396239 216.332 
L 247.021842 216.332 
L 253.647445 216.332 
L 260.273048 216.332 
L 266.898651 216.332 
L 273.524254 216.332 
L 280.149857 216.332 
L 286.77546 216.332 
L 293.401063 216.332 
L 300.026666 216.332 
L 306.652269 216.332 
L 313.277872 216.332 
L 319.903475 216.332 
L 326.529078 216.332 
L 333.154681 216.332 
L 339.780284 216.332 
L 346.405886 216.332 
L 353.031489 216.332 
L 359.657092 216.332 
L 366.282695 216.332 
L 372.908298 216.332 
L 379.533901 216.332 
L 386.159504 216.332 
L 392.785107 216.332 
L 399.41071 216.332 
" style="fill:none;stroke:#1f77b4;stroke-linecap:square;stroke-width:1.5;"/>
   </g>
   <g id="line2d_108">
    <path clip-path="url(#p77b32e81e2)" d="M 74.756165 216.332 
L 81.381768 216.332 
L 88.007371 216.332 
L 94.632974 216.332 
L 101.258577 216.332 
L 107.88418 216.332 
L 114.509783 216.332 
L 121.135386 216.332 
L 127.760989 216.332 
L 134.386591 216.332 
L 141.012194 216.332 
L 147.637797 216.332 
L 154.2634 216.332 
L 160.889003 216.332 
L 167.514606 216.332 
L 174.140209 216.332 
L 180.765812 216.332 
L 187.391415 216.332 
L 194.017018 216.332 
L 200.642621 216.332 
L 207.268224 216.332 
L 213.893827 216.332 
L 220.51943 216.332 
L 227.145033 216.332 
L 233.770636 216.332 
L 240.396239 216.332 
L 247.021842 216.332 
L 253.647445 216.332 
L 260.273048 216.332 
L 266.898651 216.332 
L 273.524254 216.332 
L 280.149857 216.332 
L 286.77546 216.332 
L 293.401063 216.332 
L 300.026666 216.332 
L 306.652269 216.332 
L 313.277872 216.332 
L 319.903475 216.332 
L 326.529078 216.332 
L 333.154681 216.332 
L 339.780284 216.332 
L 346.405886 216.332 
L 353.031489 216.332 
L 359.657092 216.332 
L 366.282695 216.332 
L 372.908298 216.332 
L 379.533901 216.332 
L 386.159504 216.332 
L 392.785107 216.332 
L 399.41071 216.332 
" style="fill:none;stroke:#ff7f0e;stroke-linecap:square;stroke-width:1.5;"/>
   </g>
   <g id="line2d_109">
    <path clip-path="url(#p77b32e81e2)" d="M 74.756165 216.332 
L 81.381768 216.332 
L 88.007371 216.332 
L 94.632974 216.332 
L 101.258577 216.332 
L 107.88418 216.332 
L 114.509783 216.332 
L 121.135386 216.332 
L 127.760989 216.332 
L 134.386591 216.332 
L 141.012194 216.332 
L 147.637797 216.332 
L 154.2634 216.332 
L 160.889003 216.332 
L 167.514606 216.332 
L 174.140209 216.332 
L 180.765812 216.332 
L 187.391415 216.332 
L 194.017018 216.332 
L 200.642621 216.332 
L 207.268224 216.332 
L 213.893827 216.332 
L 220.51943 216.332 
L 227.145033 216.332 
L 233.770636 216.332 
L 240.396239 216.332 
L 247.021842 216.332 
L 253.647445 216.332 
L 260.273048 216.332 
L 266.898651 216.332 
L 273.524254 216.332 
L 280.149857 216.332 
L 286.77546 216.332 
L 293.401063 216.332 
L 300.026666 216.332 
L 306.652269 216.332 
L 313.277872 216.332 
L 319.903475 216.332 
L 326.529078 216.332 
L 333.154681 216.332 
L 339.780284 216.332 
L 346.405886 216.332 
L 353.031489 216.332 
L 359.657092 216.332 
L 366.282695 216.332 
L 372.908298 216.332 
L 379.533901 216.332 
L 386.159504 216.332 
L 392.785107 216.332 
L 399.41071 216.332 
" style="fill:none;stroke:#2ca02c;stroke-linecap:square;stroke-width:1.5;"/>
   </g>
   <g id="line2d_110">
    <path clip-path="url(#p77b32e81e2)" d="M 74.756165 216.332 
L 81.381768 216.332 
L 88.007371 216.332 
L 94.632974 216.332 
L 101.258577 216.332 
L 107.88418 216.332 
L 114.509783 216.332 
L 121.135386 216.332 
L 127.760989 216.332 
L 134.386591 216.332 
L 141.012194 216.332 
L 147.637797 216.332 
L 154.2634 216.332 
L 160.889003 216.332 
L 167.514606 216.332 
L 174.140209 216.332 
L 180.765812 216.332 
L 187.391415 216.332 
L 194.017018 216.332 
L 200.642621 216.332 
L 207.268224 216.332 
L 213.893827 216.332 
L 220.51943 216.332 
L 227.145033 216.332 
L 233.770636 216.332 
L 240.396239 216.332 
L 247.021842 216.332 
L 253.647445 216.332 
L 260.273048 216.332 
L 266.898651 216.332 
L 273.524254 216.332 
L 280.149857 216.332 
L 286.77546 216.332 
L 293.401063 216.332 
L 300.026666 216.332 
L 306.652269 216.332 
L 313.277872 216.332 
L 319.903475 216.332 
L 326.529078 216.332 
L 333.154681 216.332 
L 339.780284 216.332 
L 346.405886 216.332 
L 353.031489 216.332 
L 359.657092 216.332 
L 366.282695 216.332 
L 372.908298 216.332 
L 379.533901 216.332 
L 386.159504 216.332 
L 392.785107 216.332 
L 399.41071 216.332 
" style="fill:none;stroke:#d62728;stroke-linecap:square;stroke-width:1.5;"/>
   </g>
   <g id="patch_8">
    <path d="M 58.523438 276.812 
L 58.523438 155.852 
" style="fill:none;stroke:#000000;stroke-linecap:square;stroke-linejoin:miter;stroke-width:0.8;"/>
   </g>
   <g id="patch_9">
    <path d="M 415.643438 276.812 
L 415.643438 155.852 
" style="fill:none;stroke:#000000;stroke-linecap:square;stroke-linejoin:miter;stroke-width:0.8;"/>
   </g>
   <g id="patch_10">
    <path d="M 58.523438 276.812 
L 415.643438 276.812 
" style="fill:none;stroke:#000000;stroke-linecap:square;stroke-linejoin:miter;stroke-width:0.8;"/>
   </g>
   <g id="patch_11">
    <path d="M 58.523438 155.852 
L 415.643438 155.852 
" style="fill:none;stroke:#000000;stroke-linecap:square;stroke-linejoin:miter;stroke-width:0.8;"/>
   </g>
   <g id="legend_1">
    <g id="patch_12">
     <path d="M 358.933125 273.812 
L 411.443438 273.812 
Q 412.643438 273.812 412.643438 272.612 
L 412.643438 237.9845 
Q 412.643438 236.7845 411.443438 236.7845 
L 358.933125 236.7845 
Q 357.733125 236.7845 357.733125 237.9845 
L 357.733125 272.612 
Q 357.733125 273.812 358.933125 273.812 
z
" style="fill:#ffffff;opacity:0.8;stroke:#cccccc;stroke-linejoin:miter;"/>
    </g>
    <g id="line2d_111">
     <path d="M 360.133125 241.643563 
L 372.133125 241.643563 
" style="fill:none;stroke:#1f77b4;stroke-linecap:square;stroke-width:1.5;"/>
    </g>
    <g id="line2d_112"/>
    <g id="text_19">
     <!-- k = 1.0 -->
     <defs>
      <path d="M 9.078125 75.984375 
L 18.109375 75.984375 
L 18.109375 31.109375 
L 44.921875 54.6875 
L 56.390625 54.6875 
L 27.390625 29.109375 
L 57.625 0 
L 45.90625 0 
L 18.109375 26.703125 
L 18.109375 0 
L 9.078125 0 
z
" id="DejaVuSans-6b"/>
      <path d="M 10.59375 45.40625 
L 73.1875 45.40625 
L 73.1875 37.203125 
L 10.59375 37.203125 
z
M 10.59375 25.484375 
L 73.1875 25.484375 
L 73.1875 17.1875 
L 10.59375 17.1875 
z
" id="DejaVuSans-3d"/>
     </defs>
     <g transform="translate(376.933125 243.743562)scale(0.06 -0.06)">
      <use xlink:href="#DejaVuSans-6b"/>
      <use x="57.910156" xlink:href="#DejaVuSans-20"/>
      <use x="89.697266" xlink:href="#DejaVuSans-3d"/>
      <use x="173.486328" xlink:href="#DejaVuSans-20"/>
      <use x="205.273438" xlink:href="#DejaVuSans-31"/>
      <use x="268.896484" xlink:href="#DejaVuSans-2e"/>
      <use x="300.683594" xlink:href="#DejaVuSans-30"/>
     </g>
    </g>
    <g id="line2d_113">
     <path d="M 360.133125 250.450437 
L 372.133125 250.450437 
" style="fill:none;stroke:#ff7f0e;stroke-linecap:square;stroke-width:1.5;"/>
    </g>
    <g id="line2d_114"/>
    <g id="text_20">
     <!-- k = 10.0 -->
     <g transform="translate(376.933125 252.550437)scale(0.06 -0.06)">
      <use xlink:href="#DejaVuSans-6b"/>
      <use x="57.910156" xlink:href="#DejaVuSans-20"/>
      <use x="89.697266" xlink:href="#DejaVuSans-3d"/>
      <use x="173.486328" xlink:href="#DejaVuSans-20"/>
      <use x="205.273438" xlink:href="#DejaVuSans-31"/>
      <use x="268.896484" xlink:href="#DejaVuSans-30"/>
      <use x="332.519531" xlink:href="#DejaVuSans-2e"/>
      <use x="364.306641" xlink:href="#DejaVuSans-30"/>
     </g>
    </g>
    <g id="line2d_115">
     <path d="M 360.133125 259.257312 
L 372.133125 259.257312 
" style="fill:none;stroke:#2ca02c;stroke-linecap:square;stroke-width:1.5;"/>
    </g>
    <g id="line2d_116"/>
    <g id="text_21">
     <!-- k = 100.0 -->
     <g transform="translate(376.933125 261.357312)scale(0.06 -0.06)">
      <use xlink:href="#DejaVuSans-6b"/>
      <use x="57.910156" xlink:href="#DejaVuSans-20"/>
      <use x="89.697266" xlink:href="#DejaVuSans-3d"/>
      <use x="173.486328" xlink:href="#DejaVuSans-20"/>
      <use x="205.273438" xlink:href="#DejaVuSans-31"/>
      <use x="268.896484" xlink:href="#DejaVuSans-30"/>
      <use x="332.519531" xlink:href="#DejaVuSans-30"/>
      <use x="396.142578" xlink:href="#DejaVuSans-2e"/>
      <use x="427.929688" xlink:href="#DejaVuSans-30"/>
     </g>
    </g>
    <g id="line2d_117">
     <path d="M 360.133125 268.064187 
L 372.133125 268.064187 
" style="fill:none;stroke:#d62728;stroke-linecap:square;stroke-width:1.5;"/>
    </g>
    <g id="line2d_118"/>
    <g id="text_22">
     <!-- k = 1000.0 -->
     <g transform="translate(376.933125 270.164187)scale(0.06 -0.06)">
      <use xlink:href="#DejaVuSans-6b"/>
      <use x="57.910156" xlink:href="#DejaVuSans-20"/>
      <use x="89.697266" xlink:href="#DejaVuSans-3d"/>
      <use x="173.486328" xlink:href="#DejaVuSans-20"/>
      <use x="205.273438" xlink:href="#DejaVuSans-31"/>
      <use x="268.896484" xlink:href="#DejaVuSans-30"/>
      <use x="332.519531" xlink:href="#DejaVuSans-30"/>
      <use x="396.142578" xlink:href="#DejaVuSans-30"/>
      <use x="459.765625" xlink:href="#DejaVuSans-2e"/>
      <use x="491.552734" xlink:href="#DejaVuSans-30"/>
     </g>
    </g>
   </g>
  </g>
 </g>
 <defs>
  <clipPath id="p937990e66b">
   <rect height="120.96" width="357.12" x="58.523438" y="10.7"/>
  </clipPath>
  <clipPath id="p77b32e81e2">
   <rect height="120.96" width="357.12" x="58.523438" y="155.852"/>
  </clipPath>
 </defs>
</svg>
