<?xml version="1.0" encoding="utf-8" standalone="no"?>
<!DOCTYPE svg PUBLIC "-//W3C//DTD SVG 1.1//EN"
  "http://www.w3.org/Graphics/SVG/1.1/DTD/svg11.dtd">
<!-- Created with matplotlib (http://matplotlib.org/) -->
<svg height="314pt" version="1.1" viewBox="0 0 416 314" width="416pt" xmlns="http://www.w3.org/2000/svg" xmlns:xlink="http://www.w3.org/1999/xlink">
 <defs>
  <style type="text/css">
*{stroke-linecap:butt;stroke-linejoin:round;}
  </style>
 </defs>
 <g id="figure_1">
  <g id="patch_1">
   <path d="M 0 314.36825 
L 416.802812 314.36825 
L 416.802812 0 
L 0 0 
z
" style="fill:#ffffff;"/>
  </g>
  <g id="axes_1">
   <g id="patch_2">
    <path d="M 48.982813 131.66 
L 406.102813 131.66 
L 406.102813 10.7 
L 48.982813 10.7 
z
" style="fill:#ffffff;"/>
   </g>
   <g id="matplotlib.axis_1">
    <g id="xtick_1">
     <g id="line2d_1">
      <path clip-path="url(#pb0e1c2b728)" d="M 65.21554 131.66 
L 65.21554 10.7 
" style="fill:none;stroke:#b0b0b0;stroke-linecap:square;stroke-width:0.8;"/>
     </g>
     <g id="line2d_2">
      <defs>
       <path d="M 0 0 
L 0 3.5 
" id="mdccbe23529" style="stroke:#000000;stroke-width:0.8;"/>
      </defs>
      <g>
       <use style="stroke:#000000;stroke-width:0.8;" x="65.21554" xlink:href="#mdccbe23529" y="131.66"/>
      </g>
     </g>
     <g id="text_1">
      <!-- ${10^{-1}}$ -->
      <defs>
       <path d="M 12.40625 8.296875 
L 28.515625 8.296875 
L 28.515625 63.921875 
L 10.984375 60.40625 
L 10.984375 69.390625 
L 28.421875 72.90625 
L 38.28125 72.90625 
L 38.28125 8.296875 
L 54.390625 8.296875 
L 54.390625 0 
L 12.40625 0 
z
" id="DejaVuSans-31"/>
       <path d="M 31.78125 66.40625 
Q 24.171875 66.40625 20.328125 58.90625 
Q 16.5 51.421875 16.5 36.375 
Q 16.5 21.390625 20.328125 13.890625 
Q 24.171875 6.390625 31.78125 6.390625 
Q 39.453125 6.390625 43.28125 13.890625 
Q 47.125 21.390625 47.125 36.375 
Q 47.125 51.421875 43.28125 58.90625 
Q 39.453125 66.40625 31.78125 66.40625 
M 31.78125 74.21875 
Q 44.046875 74.21875 50.515625 64.515625 
Q 56.984375 54.828125 56.984375 36.375 
Q 56.984375 17.96875 50.515625 8.265625 
Q 44.046875 -1.421875 31.78125 -1.421875 
Q 19.53125 -1.421875 13.0625 8.265625 
Q 6.59375 17.96875 6.59375 36.375 
Q 6.59375 54.828125 13.0625 64.515625 
Q 19.53125 74.21875 31.78125 74.21875 
" id="DejaVuSans-30"/>
       <path d="M 10.59375 35.5 
L 73.1875 35.5 
L 73.1875 27.203125 
L 10.59375 27.203125 
z
" id="DejaVuSans-2212"/>
      </defs>
      <g transform="translate(53.46554 146.258437)scale(0.1 -0.1)">
       <use transform="translate(0 0.684375)" xlink:href="#DejaVuSans-31"/>
       <use transform="translate(63.623047 0.684375)" xlink:href="#DejaVuSans-30"/>
       <use transform="translate(128.203125 38.965625)scale(0.7)" xlink:href="#DejaVuSans-2212"/>
       <use transform="translate(186.855469 38.965625)scale(0.7)" xlink:href="#DejaVuSans-31"/>
      </g>
     </g>
    </g>
    <g id="xtick_2">
     <g id="line2d_3">
      <path clip-path="url(#pb0e1c2b728)" d="M 119.324631 131.66 
L 119.324631 10.7 
" style="fill:none;stroke:#b0b0b0;stroke-linecap:square;stroke-width:0.8;"/>
     </g>
     <g id="line2d_4">
      <g>
       <use style="stroke:#000000;stroke-width:0.8;" x="119.324631" xlink:href="#mdccbe23529" y="131.66"/>
      </g>
     </g>
     <g id="text_2">
      <!-- ${10^{0}}$ -->
      <g transform="translate(110.524631 146.258437)scale(0.1 -0.1)">
       <use transform="translate(0 0.765625)" xlink:href="#DejaVuSans-31"/>
       <use transform="translate(63.623047 0.765625)" xlink:href="#DejaVuSans-30"/>
       <use transform="translate(128.203125 39.046875)scale(0.7)" xlink:href="#DejaVuSans-30"/>
      </g>
     </g>
    </g>
    <g id="xtick_3">
     <g id="line2d_5">
      <path clip-path="url(#pb0e1c2b728)" d="M 173.433722 131.66 
L 173.433722 10.7 
" style="fill:none;stroke:#b0b0b0;stroke-linecap:square;stroke-width:0.8;"/>
     </g>
     <g id="line2d_6">
      <g>
       <use style="stroke:#000000;stroke-width:0.8;" x="173.433722" xlink:href="#mdccbe23529" y="131.66"/>
      </g>
     </g>
     <g id="text_3">
      <!-- ${10^{1}}$ -->
      <g transform="translate(164.633722 146.258437)scale(0.1 -0.1)">
       <use transform="translate(0 0.684375)" xlink:href="#DejaVuSans-31"/>
       <use transform="translate(63.623047 0.684375)" xlink:href="#DejaVuSans-30"/>
       <use transform="translate(128.203125 38.965625)scale(0.7)" xlink:href="#DejaVuSans-31"/>
      </g>
     </g>
    </g>
    <g id="xtick_4">
     <g id="line2d_7">
      <path clip-path="url(#pb0e1c2b728)" d="M 227.542813 131.66 
L 227.542813 10.7 
" style="fill:none;stroke:#b0b0b0;stroke-linecap:square;stroke-width:0.8;"/>
     </g>
     <g id="line2d_8">
      <g>
       <use style="stroke:#000000;stroke-width:0.8;" x="227.542813" xlink:href="#mdccbe23529" y="131.66"/>
      </g>
     </g>
     <g id="text_4">
      <!-- ${10^{2}}$ -->
      <defs>
       <path d="M 19.1875 8.296875 
L 53.609375 8.296875 
L 53.609375 0 
L 7.328125 0 
L 7.328125 8.296875 
Q 12.9375 14.109375 22.625 23.890625 
Q 32.328125 33.6875 34.8125 36.53125 
Q 39.546875 41.84375 41.421875 45.53125 
Q 43.3125 49.21875 43.3125 52.78125 
Q 43.3125 58.59375 39.234375 62.25 
Q 35.15625 65.921875 28.609375 65.921875 
Q 23.96875 65.921875 18.8125 64.3125 
Q 13.671875 62.703125 7.8125 59.421875 
L 7.8125 69.390625 
Q 13.765625 71.78125 18.9375 73 
Q 24.125 74.21875 28.421875 74.21875 
Q 39.75 74.21875 46.484375 68.546875 
Q 53.21875 62.890625 53.21875 53.421875 
Q 53.21875 48.921875 51.53125 44.890625 
Q 49.859375 40.875 45.40625 35.40625 
Q 44.1875 33.984375 37.640625 27.21875 
Q 31.109375 20.453125 19.1875 8.296875 
" id="DejaVuSans-32"/>
      </defs>
      <g transform="translate(218.742813 146.258437)scale(0.1 -0.1)">
       <use transform="translate(0 0.765625)" xlink:href="#DejaVuSans-31"/>
       <use transform="translate(63.623047 0.765625)" xlink:href="#DejaVuSans-30"/>
       <use transform="translate(128.203125 39.046875)scale(0.7)" xlink:href="#DejaVuSans-32"/>
      </g>
     </g>
    </g>
    <g id="xtick_5">
     <g id="line2d_9">
      <path clip-path="url(#pb0e1c2b728)" d="M 281.651903 131.66 
L 281.651903 10.7 
" style="fill:none;stroke:#b0b0b0;stroke-linecap:square;stroke-width:0.8;"/>
     </g>
     <g id="line2d_10">
      <g>
       <use style="stroke:#000000;stroke-width:0.8;" x="281.651903" xlink:href="#mdccbe23529" y="131.66"/>
      </g>
     </g>
     <g id="text_5">
      <!-- ${10^{3}}$ -->
      <defs>
       <path d="M 40.578125 39.3125 
Q 47.65625 37.796875 51.625 33 
Q 55.609375 28.21875 55.609375 21.1875 
Q 55.609375 10.40625 48.1875 4.484375 
Q 40.765625 -1.421875 27.09375 -1.421875 
Q 22.515625 -1.421875 17.65625 -0.515625 
Q 12.796875 0.390625 7.625 2.203125 
L 7.625 11.71875 
Q 11.71875 9.328125 16.59375 8.109375 
Q 21.484375 6.890625 26.8125 6.890625 
Q 36.078125 6.890625 40.9375 10.546875 
Q 45.796875 14.203125 45.796875 21.1875 
Q 45.796875 27.640625 41.28125 31.265625 
Q 36.765625 34.90625 28.71875 34.90625 
L 20.21875 34.90625 
L 20.21875 43.015625 
L 29.109375 43.015625 
Q 36.375 43.015625 40.234375 45.921875 
Q 44.09375 48.828125 44.09375 54.296875 
Q 44.09375 59.90625 40.109375 62.90625 
Q 36.140625 65.921875 28.71875 65.921875 
Q 24.65625 65.921875 20.015625 65.03125 
Q 15.375 64.15625 9.8125 62.3125 
L 9.8125 71.09375 
Q 15.4375 72.65625 20.34375 73.4375 
Q 25.25 74.21875 29.59375 74.21875 
Q 40.828125 74.21875 47.359375 69.109375 
Q 53.90625 64.015625 53.90625 55.328125 
Q 53.90625 49.265625 50.4375 45.09375 
Q 46.96875 40.921875 40.578125 39.3125 
" id="DejaVuSans-33"/>
      </defs>
      <g transform="translate(272.851903 146.258437)scale(0.1 -0.1)">
       <use transform="translate(0 0.765625)" xlink:href="#DejaVuSans-31"/>
       <use transform="translate(63.623047 0.765625)" xlink:href="#DejaVuSans-30"/>
       <use transform="translate(128.203125 39.046875)scale(0.7)" xlink:href="#DejaVuSans-33"/>
      </g>
     </g>
    </g>
    <g id="xtick_6">
     <g id="line2d_11">
      <path clip-path="url(#pb0e1c2b728)" d="M 335.760994 131.66 
L 335.760994 10.7 
" style="fill:none;stroke:#b0b0b0;stroke-linecap:square;stroke-width:0.8;"/>
     </g>
     <g id="line2d_12">
      <g>
       <use style="stroke:#000000;stroke-width:0.8;" x="335.760994" xlink:href="#mdccbe23529" y="131.66"/>
      </g>
     </g>
     <g id="text_6">
      <!-- ${10^{4}}$ -->
      <defs>
       <path d="M 37.796875 64.3125 
L 12.890625 25.390625 
L 37.796875 25.390625 
z
M 35.203125 72.90625 
L 47.609375 72.90625 
L 47.609375 25.390625 
L 58.015625 25.390625 
L 58.015625 17.1875 
L 47.609375 17.1875 
L 47.609375 0 
L 37.796875 0 
L 37.796875 17.1875 
L 4.890625 17.1875 
L 4.890625 26.703125 
z
" id="DejaVuSans-34"/>
      </defs>
      <g transform="translate(326.960994 146.258437)scale(0.1 -0.1)">
       <use transform="translate(0 0.684375)" xlink:href="#DejaVuSans-31"/>
       <use transform="translate(63.623047 0.684375)" xlink:href="#DejaVuSans-30"/>
       <use transform="translate(128.203125 38.965625)scale(0.7)" xlink:href="#DejaVuSans-34"/>
      </g>
     </g>
    </g>
    <g id="xtick_7">
     <g id="line2d_13">
      <path clip-path="url(#pb0e1c2b728)" d="M 389.870085 131.66 
L 389.870085 10.7 
" style="fill:none;stroke:#b0b0b0;stroke-linecap:square;stroke-width:0.8;"/>
     </g>
     <g id="line2d_14">
      <g>
       <use style="stroke:#000000;stroke-width:0.8;" x="389.870085" xlink:href="#mdccbe23529" y="131.66"/>
      </g>
     </g>
     <g id="text_7">
      <!-- ${10^{5}}$ -->
      <defs>
       <path d="M 10.796875 72.90625 
L 49.515625 72.90625 
L 49.515625 64.59375 
L 19.828125 64.59375 
L 19.828125 46.734375 
Q 21.96875 47.46875 24.109375 47.828125 
Q 26.265625 48.1875 28.421875 48.1875 
Q 40.625 48.1875 47.75 41.5 
Q 54.890625 34.8125 54.890625 23.390625 
Q 54.890625 11.625 47.5625 5.09375 
Q 40.234375 -1.421875 26.90625 -1.421875 
Q 22.3125 -1.421875 17.546875 -0.640625 
Q 12.796875 0.140625 7.71875 1.703125 
L 7.71875 11.625 
Q 12.109375 9.234375 16.796875 8.0625 
Q 21.484375 6.890625 26.703125 6.890625 
Q 35.15625 6.890625 40.078125 11.328125 
Q 45.015625 15.765625 45.015625 23.390625 
Q 45.015625 31 40.078125 35.4375 
Q 35.15625 39.890625 26.703125 39.890625 
Q 22.75 39.890625 18.8125 39.015625 
Q 14.890625 38.140625 10.796875 36.28125 
z
" id="DejaVuSans-35"/>
      </defs>
      <g transform="translate(381.070085 146.258437)scale(0.1 -0.1)">
       <use transform="translate(0 0.684375)" xlink:href="#DejaVuSans-31"/>
       <use transform="translate(63.623047 0.684375)" xlink:href="#DejaVuSans-30"/>
       <use transform="translate(128.203125 38.965625)scale(0.7)" xlink:href="#DejaVuSans-35"/>
      </g>
     </g>
    </g>
    <g id="xtick_8">
     <g id="line2d_15">
      <path clip-path="url(#pb0e1c2b728)" d="M 53.211506 131.66 
L 53.211506 10.7 
" style="fill:none;stroke:#b0b0b0;stroke-linecap:square;stroke-width:0.8;"/>
     </g>
     <g id="line2d_16">
      <defs>
       <path d="M 0 0 
L 0 2 
" id="m212a75a25d" style="stroke:#000000;stroke-width:0.6;"/>
      </defs>
      <g>
       <use style="stroke:#000000;stroke-width:0.6;" x="53.211506" xlink:href="#m212a75a25d" y="131.66"/>
      </g>
     </g>
    </g>
    <g id="xtick_9">
     <g id="line2d_17">
      <path clip-path="url(#pb0e1c2b728)" d="M 59.971827 131.66 
L 59.971827 10.7 
" style="fill:none;stroke:#b0b0b0;stroke-linecap:square;stroke-width:0.8;"/>
     </g>
     <g id="line2d_18">
      <g>
       <use style="stroke:#000000;stroke-width:0.6;" x="59.971827" xlink:href="#m212a75a25d" y="131.66"/>
      </g>
     </g>
    </g>
    <g id="xtick_10">
     <g id="line2d_19">
      <path clip-path="url(#pb0e1c2b728)" d="M 81.503999 131.66 
L 81.503999 10.7 
" style="fill:none;stroke:#b0b0b0;stroke-linecap:square;stroke-width:0.8;"/>
     </g>
     <g id="line2d_20">
      <g>
       <use style="stroke:#000000;stroke-width:0.6;" x="81.503999" xlink:href="#m212a75a25d" y="131.66"/>
      </g>
     </g>
    </g>
    <g id="xtick_11">
     <g id="line2d_21">
      <path clip-path="url(#pb0e1c2b728)" d="M 97.792459 131.66 
L 97.792459 10.7 
" style="fill:none;stroke:#b0b0b0;stroke-linecap:square;stroke-width:0.8;"/>
     </g>
     <g id="line2d_22">
      <g>
       <use style="stroke:#000000;stroke-width:0.6;" x="97.792459" xlink:href="#m212a75a25d" y="131.66"/>
      </g>
     </g>
    </g>
    <g id="xtick_12">
     <g id="line2d_23">
      <path clip-path="url(#pb0e1c2b728)" d="M 107.320597 131.66 
L 107.320597 10.7 
" style="fill:none;stroke:#b0b0b0;stroke-linecap:square;stroke-width:0.8;"/>
     </g>
     <g id="line2d_24">
      <g>
       <use style="stroke:#000000;stroke-width:0.6;" x="107.320597" xlink:href="#m212a75a25d" y="131.66"/>
      </g>
     </g>
    </g>
    <g id="xtick_13">
     <g id="line2d_25">
      <path clip-path="url(#pb0e1c2b728)" d="M 114.080918 131.66 
L 114.080918 10.7 
" style="fill:none;stroke:#b0b0b0;stroke-linecap:square;stroke-width:0.8;"/>
     </g>
     <g id="line2d_26">
      <g>
       <use style="stroke:#000000;stroke-width:0.6;" x="114.080918" xlink:href="#m212a75a25d" y="131.66"/>
      </g>
     </g>
    </g>
    <g id="xtick_14">
     <g id="line2d_27">
      <path clip-path="url(#pb0e1c2b728)" d="M 135.61309 131.66 
L 135.61309 10.7 
" style="fill:none;stroke:#b0b0b0;stroke-linecap:square;stroke-width:0.8;"/>
     </g>
     <g id="line2d_28">
      <g>
       <use style="stroke:#000000;stroke-width:0.6;" x="135.61309" xlink:href="#m212a75a25d" y="131.66"/>
      </g>
     </g>
    </g>
    <g id="xtick_15">
     <g id="line2d_29">
      <path clip-path="url(#pb0e1c2b728)" d="M 151.901549 131.66 
L 151.901549 10.7 
" style="fill:none;stroke:#b0b0b0;stroke-linecap:square;stroke-width:0.8;"/>
     </g>
     <g id="line2d_30">
      <g>
       <use style="stroke:#000000;stroke-width:0.6;" x="151.901549" xlink:href="#m212a75a25d" y="131.66"/>
      </g>
     </g>
    </g>
    <g id="xtick_16">
     <g id="line2d_31">
      <path clip-path="url(#pb0e1c2b728)" d="M 161.429687 131.66 
L 161.429687 10.7 
" style="fill:none;stroke:#b0b0b0;stroke-linecap:square;stroke-width:0.8;"/>
     </g>
     <g id="line2d_32">
      <g>
       <use style="stroke:#000000;stroke-width:0.6;" x="161.429687" xlink:href="#m212a75a25d" y="131.66"/>
      </g>
     </g>
    </g>
    <g id="xtick_17">
     <g id="line2d_33">
      <path clip-path="url(#pb0e1c2b728)" d="M 168.190009 131.66 
L 168.190009 10.7 
" style="fill:none;stroke:#b0b0b0;stroke-linecap:square;stroke-width:0.8;"/>
     </g>
     <g id="line2d_34">
      <g>
       <use style="stroke:#000000;stroke-width:0.6;" x="168.190009" xlink:href="#m212a75a25d" y="131.66"/>
      </g>
     </g>
    </g>
    <g id="xtick_18">
     <g id="line2d_35">
      <path clip-path="url(#pb0e1c2b728)" d="M 189.722181 131.66 
L 189.722181 10.7 
" style="fill:none;stroke:#b0b0b0;stroke-linecap:square;stroke-width:0.8;"/>
     </g>
     <g id="line2d_36">
      <g>
       <use style="stroke:#000000;stroke-width:0.6;" x="189.722181" xlink:href="#m212a75a25d" y="131.66"/>
      </g>
     </g>
    </g>
    <g id="xtick_19">
     <g id="line2d_37">
      <path clip-path="url(#pb0e1c2b728)" d="M 206.01064 131.66 
L 206.01064 10.7 
" style="fill:none;stroke:#b0b0b0;stroke-linecap:square;stroke-width:0.8;"/>
     </g>
     <g id="line2d_38">
      <g>
       <use style="stroke:#000000;stroke-width:0.6;" x="206.01064" xlink:href="#m212a75a25d" y="131.66"/>
      </g>
     </g>
    </g>
    <g id="xtick_20">
     <g id="line2d_39">
      <path clip-path="url(#pb0e1c2b728)" d="M 215.538778 131.66 
L 215.538778 10.7 
" style="fill:none;stroke:#b0b0b0;stroke-linecap:square;stroke-width:0.8;"/>
     </g>
     <g id="line2d_40">
      <g>
       <use style="stroke:#000000;stroke-width:0.6;" x="215.538778" xlink:href="#m212a75a25d" y="131.66"/>
      </g>
     </g>
    </g>
    <g id="xtick_21">
     <g id="line2d_41">
      <path clip-path="url(#pb0e1c2b728)" d="M 222.2991 131.66 
L 222.2991 10.7 
" style="fill:none;stroke:#b0b0b0;stroke-linecap:square;stroke-width:0.8;"/>
     </g>
     <g id="line2d_42">
      <g>
       <use style="stroke:#000000;stroke-width:0.6;" x="222.2991" xlink:href="#m212a75a25d" y="131.66"/>
      </g>
     </g>
    </g>
    <g id="xtick_22">
     <g id="line2d_43">
      <path clip-path="url(#pb0e1c2b728)" d="M 243.831272 131.66 
L 243.831272 10.7 
" style="fill:none;stroke:#b0b0b0;stroke-linecap:square;stroke-width:0.8;"/>
     </g>
     <g id="line2d_44">
      <g>
       <use style="stroke:#000000;stroke-width:0.6;" x="243.831272" xlink:href="#m212a75a25d" y="131.66"/>
      </g>
     </g>
    </g>
    <g id="xtick_23">
     <g id="line2d_45">
      <path clip-path="url(#pb0e1c2b728)" d="M 260.119731 131.66 
L 260.119731 10.7 
" style="fill:none;stroke:#b0b0b0;stroke-linecap:square;stroke-width:0.8;"/>
     </g>
     <g id="line2d_46">
      <g>
       <use style="stroke:#000000;stroke-width:0.6;" x="260.119731" xlink:href="#m212a75a25d" y="131.66"/>
      </g>
     </g>
    </g>
    <g id="xtick_24">
     <g id="line2d_47">
      <path clip-path="url(#pb0e1c2b728)" d="M 269.647869 131.66 
L 269.647869 10.7 
" style="fill:none;stroke:#b0b0b0;stroke-linecap:square;stroke-width:0.8;"/>
     </g>
     <g id="line2d_48">
      <g>
       <use style="stroke:#000000;stroke-width:0.6;" x="269.647869" xlink:href="#m212a75a25d" y="131.66"/>
      </g>
     </g>
    </g>
    <g id="xtick_25">
     <g id="line2d_49">
      <path clip-path="url(#pb0e1c2b728)" d="M 276.408191 131.66 
L 276.408191 10.7 
" style="fill:none;stroke:#b0b0b0;stroke-linecap:square;stroke-width:0.8;"/>
     </g>
     <g id="line2d_50">
      <g>
       <use style="stroke:#000000;stroke-width:0.6;" x="276.408191" xlink:href="#m212a75a25d" y="131.66"/>
      </g>
     </g>
    </g>
    <g id="xtick_26">
     <g id="line2d_51">
      <path clip-path="url(#pb0e1c2b728)" d="M 297.940363 131.66 
L 297.940363 10.7 
" style="fill:none;stroke:#b0b0b0;stroke-linecap:square;stroke-width:0.8;"/>
     </g>
     <g id="line2d_52">
      <g>
       <use style="stroke:#000000;stroke-width:0.6;" x="297.940363" xlink:href="#m212a75a25d" y="131.66"/>
      </g>
     </g>
    </g>
    <g id="xtick_27">
     <g id="line2d_53">
      <path clip-path="url(#pb0e1c2b728)" d="M 314.228822 131.66 
L 314.228822 10.7 
" style="fill:none;stroke:#b0b0b0;stroke-linecap:square;stroke-width:0.8;"/>
     </g>
     <g id="line2d_54">
      <g>
       <use style="stroke:#000000;stroke-width:0.6;" x="314.228822" xlink:href="#m212a75a25d" y="131.66"/>
      </g>
     </g>
    </g>
    <g id="xtick_28">
     <g id="line2d_55">
      <path clip-path="url(#pb0e1c2b728)" d="M 323.75696 131.66 
L 323.75696 10.7 
" style="fill:none;stroke:#b0b0b0;stroke-linecap:square;stroke-width:0.8;"/>
     </g>
     <g id="line2d_56">
      <g>
       <use style="stroke:#000000;stroke-width:0.6;" x="323.75696" xlink:href="#m212a75a25d" y="131.66"/>
      </g>
     </g>
    </g>
    <g id="xtick_29">
     <g id="line2d_57">
      <path clip-path="url(#pb0e1c2b728)" d="M 330.517282 131.66 
L 330.517282 10.7 
" style="fill:none;stroke:#b0b0b0;stroke-linecap:square;stroke-width:0.8;"/>
     </g>
     <g id="line2d_58">
      <g>
       <use style="stroke:#000000;stroke-width:0.6;" x="330.517282" xlink:href="#m212a75a25d" y="131.66"/>
      </g>
     </g>
    </g>
    <g id="xtick_30">
     <g id="line2d_59">
      <path clip-path="url(#pb0e1c2b728)" d="M 352.049454 131.66 
L 352.049454 10.7 
" style="fill:none;stroke:#b0b0b0;stroke-linecap:square;stroke-width:0.8;"/>
     </g>
     <g id="line2d_60">
      <g>
       <use style="stroke:#000000;stroke-width:0.6;" x="352.049454" xlink:href="#m212a75a25d" y="131.66"/>
      </g>
     </g>
    </g>
    <g id="xtick_31">
     <g id="line2d_61">
      <path clip-path="url(#pb0e1c2b728)" d="M 368.337913 131.66 
L 368.337913 10.7 
" style="fill:none;stroke:#b0b0b0;stroke-linecap:square;stroke-width:0.8;"/>
     </g>
     <g id="line2d_62">
      <g>
       <use style="stroke:#000000;stroke-width:0.6;" x="368.337913" xlink:href="#m212a75a25d" y="131.66"/>
      </g>
     </g>
    </g>
    <g id="xtick_32">
     <g id="line2d_63">
      <path clip-path="url(#pb0e1c2b728)" d="M 377.866051 131.66 
L 377.866051 10.7 
" style="fill:none;stroke:#b0b0b0;stroke-linecap:square;stroke-width:0.8;"/>
     </g>
     <g id="line2d_64">
      <g>
       <use style="stroke:#000000;stroke-width:0.6;" x="377.866051" xlink:href="#m212a75a25d" y="131.66"/>
      </g>
     </g>
    </g>
    <g id="xtick_33">
     <g id="line2d_65">
      <path clip-path="url(#pb0e1c2b728)" d="M 384.626373 131.66 
L 384.626373 10.7 
" style="fill:none;stroke:#b0b0b0;stroke-linecap:square;stroke-width:0.8;"/>
     </g>
     <g id="line2d_66">
      <g>
       <use style="stroke:#000000;stroke-width:0.6;" x="384.626373" xlink:href="#m212a75a25d" y="131.66"/>
      </g>
     </g>
    </g>
    <g id="xtick_34">
     <g id="line2d_67">
      <path clip-path="url(#pb0e1c2b728)" d="M 406.158545 131.66 
L 406.158545 10.7 
" style="fill:none;stroke:#b0b0b0;stroke-linecap:square;stroke-width:0.8;"/>
     </g>
     <g id="line2d_68">
      <g>
       <use style="stroke:#000000;stroke-width:0.6;" x="406.158545" xlink:href="#m212a75a25d" y="131.66"/>
      </g>
     </g>
    </g>
   </g>
   <g id="matplotlib.axis_2">
    <g id="ytick_1">
     <g id="line2d_69">
      <path clip-path="url(#pb0e1c2b728)" d="M 48.982813 126.161818 
L 406.102813 126.161818 
" style="fill:none;stroke:#b0b0b0;stroke-linecap:square;stroke-width:0.8;"/>
     </g>
     <g id="line2d_70">
      <defs>
       <path d="M 0 0 
L -3.5 0 
" id="m247b592c55" style="stroke:#000000;stroke-width:0.8;"/>
      </defs>
      <g>
       <use style="stroke:#000000;stroke-width:0.8;" x="48.982813" xlink:href="#m247b592c55" y="126.161818"/>
      </g>
     </g>
     <g id="text_8">
      <!-- −20 -->
      <g transform="translate(20.878125 129.961037)scale(0.1 -0.1)">
       <use xlink:href="#DejaVuSans-2212"/>
       <use x="83.789062" xlink:href="#DejaVuSans-32"/>
       <use x="147.412109" xlink:href="#DejaVuSans-30"/>
      </g>
     </g>
    </g>
    <g id="ytick_2">
     <g id="line2d_71">
      <path clip-path="url(#pb0e1c2b728)" d="M 48.982813 104.169091 
L 406.102813 104.169091 
" style="fill:none;stroke:#b0b0b0;stroke-linecap:square;stroke-width:0.8;"/>
     </g>
     <g id="line2d_72">
      <g>
       <use style="stroke:#000000;stroke-width:0.8;" x="48.982813" xlink:href="#m247b592c55" y="104.169091"/>
      </g>
     </g>
     <g id="text_9">
      <!-- 0 -->
      <g transform="translate(35.620313 107.96831)scale(0.1 -0.1)">
       <use xlink:href="#DejaVuSans-30"/>
      </g>
     </g>
    </g>
    <g id="ytick_3">
     <g id="line2d_73">
      <path clip-path="url(#pb0e1c2b728)" d="M 48.982813 82.176364 
L 406.102813 82.176364 
" style="fill:none;stroke:#b0b0b0;stroke-linecap:square;stroke-width:0.8;"/>
     </g>
     <g id="line2d_74">
      <g>
       <use style="stroke:#000000;stroke-width:0.8;" x="48.982813" xlink:href="#m247b592c55" y="82.176364"/>
      </g>
     </g>
     <g id="text_10">
      <!-- 20 -->
      <g transform="translate(29.257813 85.975582)scale(0.1 -0.1)">
       <use xlink:href="#DejaVuSans-32"/>
       <use x="63.623047" xlink:href="#DejaVuSans-30"/>
      </g>
     </g>
    </g>
    <g id="ytick_4">
     <g id="line2d_75">
      <path clip-path="url(#pb0e1c2b728)" d="M 48.982813 60.183636 
L 406.102813 60.183636 
" style="fill:none;stroke:#b0b0b0;stroke-linecap:square;stroke-width:0.8;"/>
     </g>
     <g id="line2d_76">
      <g>
       <use style="stroke:#000000;stroke-width:0.8;" x="48.982813" xlink:href="#m247b592c55" y="60.183636"/>
      </g>
     </g>
     <g id="text_11">
      <!-- 40 -->
      <g transform="translate(29.257813 63.982855)scale(0.1 -0.1)">
       <use xlink:href="#DejaVuSans-34"/>
       <use x="63.623047" xlink:href="#DejaVuSans-30"/>
      </g>
     </g>
    </g>
    <g id="ytick_5">
     <g id="line2d_77">
      <path clip-path="url(#pb0e1c2b728)" d="M 48.982813 38.190909 
L 406.102813 38.190909 
" style="fill:none;stroke:#b0b0b0;stroke-linecap:square;stroke-width:0.8;"/>
     </g>
     <g id="line2d_78">
      <g>
       <use style="stroke:#000000;stroke-width:0.8;" x="48.982813" xlink:href="#m247b592c55" y="38.190909"/>
      </g>
     </g>
     <g id="text_12">
      <!-- 60 -->
      <defs>
       <path d="M 33.015625 40.375 
Q 26.375 40.375 22.484375 35.828125 
Q 18.609375 31.296875 18.609375 23.390625 
Q 18.609375 15.53125 22.484375 10.953125 
Q 26.375 6.390625 33.015625 6.390625 
Q 39.65625 6.390625 43.53125 10.953125 
Q 47.40625 15.53125 47.40625 23.390625 
Q 47.40625 31.296875 43.53125 35.828125 
Q 39.65625 40.375 33.015625 40.375 
M 52.59375 71.296875 
L 52.59375 62.3125 
Q 48.875 64.0625 45.09375 64.984375 
Q 41.3125 65.921875 37.59375 65.921875 
Q 27.828125 65.921875 22.671875 59.328125 
Q 17.53125 52.734375 16.796875 39.40625 
Q 19.671875 43.65625 24.015625 45.921875 
Q 28.375 48.1875 33.59375 48.1875 
Q 44.578125 48.1875 50.953125 41.515625 
Q 57.328125 34.859375 57.328125 23.390625 
Q 57.328125 12.15625 50.6875 5.359375 
Q 44.046875 -1.421875 33.015625 -1.421875 
Q 20.359375 -1.421875 13.671875 8.265625 
Q 6.984375 17.96875 6.984375 36.375 
Q 6.984375 53.65625 15.1875 63.9375 
Q 23.390625 74.21875 37.203125 74.21875 
Q 40.921875 74.21875 44.703125 73.484375 
Q 48.484375 72.75 52.59375 71.296875 
" id="DejaVuSans-36"/>
      </defs>
      <g transform="translate(29.257813 41.990128)scale(0.1 -0.1)">
       <use xlink:href="#DejaVuSans-36"/>
       <use x="63.623047" xlink:href="#DejaVuSans-30"/>
      </g>
     </g>
    </g>
    <g id="ytick_6">
     <g id="line2d_79">
      <path clip-path="url(#pb0e1c2b728)" d="M 48.982813 16.198182 
L 406.102813 16.198182 
" style="fill:none;stroke:#b0b0b0;stroke-linecap:square;stroke-width:0.8;"/>
     </g>
     <g id="line2d_80">
      <g>
       <use style="stroke:#000000;stroke-width:0.8;" x="48.982813" xlink:href="#m247b592c55" y="16.198182"/>
      </g>
     </g>
     <g id="text_13">
      <!-- 80 -->
      <defs>
       <path d="M 31.78125 34.625 
Q 24.75 34.625 20.71875 30.859375 
Q 16.703125 27.09375 16.703125 20.515625 
Q 16.703125 13.921875 20.71875 10.15625 
Q 24.75 6.390625 31.78125 6.390625 
Q 38.8125 6.390625 42.859375 10.171875 
Q 46.921875 13.96875 46.921875 20.515625 
Q 46.921875 27.09375 42.890625 30.859375 
Q 38.875 34.625 31.78125 34.625 
M 21.921875 38.8125 
Q 15.578125 40.375 12.03125 44.71875 
Q 8.5 49.078125 8.5 55.328125 
Q 8.5 64.0625 14.71875 69.140625 
Q 20.953125 74.21875 31.78125 74.21875 
Q 42.671875 74.21875 48.875 69.140625 
Q 55.078125 64.0625 55.078125 55.328125 
Q 55.078125 49.078125 51.53125 44.71875 
Q 48 40.375 41.703125 38.8125 
Q 48.828125 37.15625 52.796875 32.3125 
Q 56.78125 27.484375 56.78125 20.515625 
Q 56.78125 9.90625 50.3125 4.234375 
Q 43.84375 -1.421875 31.78125 -1.421875 
Q 19.734375 -1.421875 13.25 4.234375 
Q 6.78125 9.90625 6.78125 20.515625 
Q 6.78125 27.484375 10.78125 32.3125 
Q 14.796875 37.15625 21.921875 38.8125 
M 18.3125 54.390625 
Q 18.3125 48.734375 21.84375 45.5625 
Q 25.390625 42.390625 31.78125 42.390625 
Q 38.140625 42.390625 41.71875 45.5625 
Q 45.3125 48.734375 45.3125 54.390625 
Q 45.3125 60.0625 41.71875 63.234375 
Q 38.140625 66.40625 31.78125 66.40625 
Q 25.390625 66.40625 21.84375 63.234375 
Q 18.3125 60.0625 18.3125 54.390625 
" id="DejaVuSans-38"/>
      </defs>
      <g transform="translate(29.257813 19.997401)scale(0.1 -0.1)">
       <use xlink:href="#DejaVuSans-38"/>
       <use x="63.623047" xlink:href="#DejaVuSans-30"/>
      </g>
     </g>
    </g>
    <g id="text_14">
     <!-- Magnitude (dB) -->
     <defs>
      <path d="M 9.8125 72.90625 
L 24.515625 72.90625 
L 43.109375 23.296875 
L 61.8125 72.90625 
L 76.515625 72.90625 
L 76.515625 0 
L 66.890625 0 
L 66.890625 64.015625 
L 48.09375 14.015625 
L 38.1875 14.015625 
L 19.390625 64.015625 
L 19.390625 0 
L 9.8125 0 
z
" id="DejaVuSans-4d"/>
      <path d="M 34.28125 27.484375 
Q 23.390625 27.484375 19.1875 25 
Q 14.984375 22.515625 14.984375 16.5 
Q 14.984375 11.71875 18.140625 8.90625 
Q 21.296875 6.109375 26.703125 6.109375 
Q 34.1875 6.109375 38.703125 11.40625 
Q 43.21875 16.703125 43.21875 25.484375 
L 43.21875 27.484375 
z
M 52.203125 31.203125 
L 52.203125 0 
L 43.21875 0 
L 43.21875 8.296875 
Q 40.140625 3.328125 35.546875 0.953125 
Q 30.953125 -1.421875 24.3125 -1.421875 
Q 15.921875 -1.421875 10.953125 3.296875 
Q 6 8.015625 6 15.921875 
Q 6 25.140625 12.171875 29.828125 
Q 18.359375 34.515625 30.609375 34.515625 
L 43.21875 34.515625 
L 43.21875 35.40625 
Q 43.21875 41.609375 39.140625 45 
Q 35.0625 48.390625 27.6875 48.390625 
Q 23 48.390625 18.546875 47.265625 
Q 14.109375 46.140625 10.015625 43.890625 
L 10.015625 52.203125 
Q 14.9375 54.109375 19.578125 55.046875 
Q 24.21875 56 28.609375 56 
Q 40.484375 56 46.34375 49.84375 
Q 52.203125 43.703125 52.203125 31.203125 
" id="DejaVuSans-61"/>
      <path d="M 45.40625 27.984375 
Q 45.40625 37.75 41.375 43.109375 
Q 37.359375 48.484375 30.078125 48.484375 
Q 22.859375 48.484375 18.828125 43.109375 
Q 14.796875 37.75 14.796875 27.984375 
Q 14.796875 18.265625 18.828125 12.890625 
Q 22.859375 7.515625 30.078125 7.515625 
Q 37.359375 7.515625 41.375 12.890625 
Q 45.40625 18.265625 45.40625 27.984375 
M 54.390625 6.78125 
Q 54.390625 -7.171875 48.1875 -13.984375 
Q 42 -20.796875 29.203125 -20.796875 
Q 24.46875 -20.796875 20.265625 -20.09375 
Q 16.0625 -19.390625 12.109375 -17.921875 
L 12.109375 -9.1875 
Q 16.0625 -11.328125 19.921875 -12.34375 
Q 23.78125 -13.375 27.78125 -13.375 
Q 36.625 -13.375 41.015625 -8.765625 
Q 45.40625 -4.15625 45.40625 5.171875 
L 45.40625 9.625 
Q 42.625 4.78125 38.28125 2.390625 
Q 33.9375 0 27.875 0 
Q 17.828125 0 11.671875 7.65625 
Q 5.515625 15.328125 5.515625 27.984375 
Q 5.515625 40.671875 11.671875 48.328125 
Q 17.828125 56 27.875 56 
Q 33.9375 56 38.28125 53.609375 
Q 42.625 51.21875 45.40625 46.390625 
L 45.40625 54.6875 
L 54.390625 54.6875 
z
" id="DejaVuSans-67"/>
      <path d="M 54.890625 33.015625 
L 54.890625 0 
L 45.90625 0 
L 45.90625 32.71875 
Q 45.90625 40.484375 42.875 44.328125 
Q 39.84375 48.1875 33.796875 48.1875 
Q 26.515625 48.1875 22.3125 43.546875 
Q 18.109375 38.921875 18.109375 30.90625 
L 18.109375 0 
L 9.078125 0 
L 9.078125 54.6875 
L 18.109375 54.6875 
L 18.109375 46.1875 
Q 21.34375 51.125 25.703125 53.5625 
Q 30.078125 56 35.796875 56 
Q 45.21875 56 50.046875 50.171875 
Q 54.890625 44.34375 54.890625 33.015625 
" id="DejaVuSans-6e"/>
      <path d="M 9.421875 54.6875 
L 18.40625 54.6875 
L 18.40625 0 
L 9.421875 0 
z
M 9.421875 75.984375 
L 18.40625 75.984375 
L 18.40625 64.59375 
L 9.421875 64.59375 
z
" id="DejaVuSans-69"/>
      <path d="M 18.3125 70.21875 
L 18.3125 54.6875 
L 36.8125 54.6875 
L 36.8125 47.703125 
L 18.3125 47.703125 
L 18.3125 18.015625 
Q 18.3125 11.328125 20.140625 9.421875 
Q 21.96875 7.515625 27.59375 7.515625 
L 36.8125 7.515625 
L 36.8125 0 
L 27.59375 0 
Q 17.1875 0 13.234375 3.875 
Q 9.28125 7.765625 9.28125 18.015625 
L 9.28125 47.703125 
L 2.6875 47.703125 
L 2.6875 54.6875 
L 9.28125 54.6875 
L 9.28125 70.21875 
z
" id="DejaVuSans-74"/>
      <path d="M 8.5 21.578125 
L 8.5 54.6875 
L 17.484375 54.6875 
L 17.484375 21.921875 
Q 17.484375 14.15625 20.5 10.265625 
Q 23.53125 6.390625 29.59375 6.390625 
Q 36.859375 6.390625 41.078125 11.03125 
Q 45.3125 15.671875 45.3125 23.6875 
L 45.3125 54.6875 
L 54.296875 54.6875 
L 54.296875 0 
L 45.3125 0 
L 45.3125 8.40625 
Q 42.046875 3.421875 37.71875 1 
Q 33.40625 -1.421875 27.6875 -1.421875 
Q 18.265625 -1.421875 13.375 4.4375 
Q 8.5 10.296875 8.5 21.578125 
M 31.109375 56 
z
" id="DejaVuSans-75"/>
      <path d="M 45.40625 46.390625 
L 45.40625 75.984375 
L 54.390625 75.984375 
L 54.390625 0 
L 45.40625 0 
L 45.40625 8.203125 
Q 42.578125 3.328125 38.25 0.953125 
Q 33.9375 -1.421875 27.875 -1.421875 
Q 17.96875 -1.421875 11.734375 6.484375 
Q 5.515625 14.40625 5.515625 27.296875 
Q 5.515625 40.1875 11.734375 48.09375 
Q 17.96875 56 27.875 56 
Q 33.9375 56 38.25 53.625 
Q 42.578125 51.265625 45.40625 46.390625 
M 14.796875 27.296875 
Q 14.796875 17.390625 18.875 11.75 
Q 22.953125 6.109375 30.078125 6.109375 
Q 37.203125 6.109375 41.296875 11.75 
Q 45.40625 17.390625 45.40625 27.296875 
Q 45.40625 37.203125 41.296875 42.84375 
Q 37.203125 48.484375 30.078125 48.484375 
Q 22.953125 48.484375 18.875 42.84375 
Q 14.796875 37.203125 14.796875 27.296875 
" id="DejaVuSans-64"/>
      <path d="M 56.203125 29.59375 
L 56.203125 25.203125 
L 14.890625 25.203125 
Q 15.484375 15.921875 20.484375 11.0625 
Q 25.484375 6.203125 34.421875 6.203125 
Q 39.59375 6.203125 44.453125 7.46875 
Q 49.3125 8.734375 54.109375 11.28125 
L 54.109375 2.78125 
Q 49.265625 0.734375 44.1875 -0.34375 
Q 39.109375 -1.421875 33.890625 -1.421875 
Q 20.796875 -1.421875 13.15625 6.1875 
Q 5.515625 13.8125 5.515625 26.8125 
Q 5.515625 40.234375 12.765625 48.109375 
Q 20.015625 56 32.328125 56 
Q 43.359375 56 49.78125 48.890625 
Q 56.203125 41.796875 56.203125 29.59375 
M 47.21875 32.234375 
Q 47.125 39.59375 43.09375 43.984375 
Q 39.0625 48.390625 32.421875 48.390625 
Q 24.90625 48.390625 20.390625 44.140625 
Q 15.875 39.890625 15.1875 32.171875 
z
" id="DejaVuSans-65"/>
      <path id="DejaVuSans-20"/>
      <path d="M 31 75.875 
Q 24.46875 64.65625 21.28125 53.65625 
Q 18.109375 42.671875 18.109375 31.390625 
Q 18.109375 20.125 21.3125 9.0625 
Q 24.515625 -2 31 -13.1875 
L 23.1875 -13.1875 
Q 15.875 -1.703125 12.234375 9.375 
Q 8.59375 20.453125 8.59375 31.390625 
Q 8.59375 42.28125 12.203125 53.3125 
Q 15.828125 64.359375 23.1875 75.875 
z
" id="DejaVuSans-28"/>
      <path d="M 19.671875 34.8125 
L 19.671875 8.109375 
L 35.5 8.109375 
Q 43.453125 8.109375 47.28125 11.40625 
Q 51.125 14.703125 51.125 21.484375 
Q 51.125 28.328125 47.28125 31.5625 
Q 43.453125 34.8125 35.5 34.8125 
z
M 19.671875 64.796875 
L 19.671875 42.828125 
L 34.28125 42.828125 
Q 41.5 42.828125 45.03125 45.53125 
Q 48.578125 48.25 48.578125 53.8125 
Q 48.578125 59.328125 45.03125 62.0625 
Q 41.5 64.796875 34.28125 64.796875 
z
M 9.8125 72.90625 
L 35.015625 72.90625 
Q 46.296875 72.90625 52.390625 68.21875 
Q 58.5 63.53125 58.5 54.890625 
Q 58.5 48.1875 55.375 44.234375 
Q 52.25 40.28125 46.1875 39.3125 
Q 53.46875 37.75 57.5 32.78125 
Q 61.53125 27.828125 61.53125 20.40625 
Q 61.53125 10.640625 54.890625 5.3125 
Q 48.25 0 35.984375 0 
L 9.8125 0 
z
" id="DejaVuSans-42"/>
      <path d="M 8.015625 75.875 
L 15.828125 75.875 
Q 23.140625 64.359375 26.78125 53.3125 
Q 30.421875 42.28125 30.421875 31.390625 
Q 30.421875 20.453125 26.78125 9.375 
Q 23.140625 -1.703125 15.828125 -13.1875 
L 8.015625 -13.1875 
Q 14.5 -2 17.703125 9.0625 
Q 20.90625 20.125 20.90625 31.390625 
Q 20.90625 42.671875 17.703125 53.65625 
Q 14.5 64.65625 8.015625 75.875 
" id="DejaVuSans-29"/>
     </defs>
     <g transform="translate(14.798438 109.765156)rotate(-90)scale(0.1 -0.1)">
      <use xlink:href="#DejaVuSans-4d"/>
      <use x="86.279297" xlink:href="#DejaVuSans-61"/>
      <use x="147.558594" xlink:href="#DejaVuSans-67"/>
      <use x="211.035156" xlink:href="#DejaVuSans-6e"/>
      <use x="274.414062" xlink:href="#DejaVuSans-69"/>
      <use x="302.197266" xlink:href="#DejaVuSans-74"/>
      <use x="341.40625" xlink:href="#DejaVuSans-75"/>
      <use x="404.785156" xlink:href="#DejaVuSans-64"/>
      <use x="468.261719" xlink:href="#DejaVuSans-65"/>
      <use x="529.785156" xlink:href="#DejaVuSans-20"/>
      <use x="561.572266" xlink:href="#DejaVuSans-28"/>
      <use x="600.585938" xlink:href="#DejaVuSans-64"/>
      <use x="664.0625" xlink:href="#DejaVuSans-42"/>
      <use x="732.666016" xlink:href="#DejaVuSans-29"/>
     </g>
    </g>
   </g>
   <g id="line2d_81">
    <path clip-path="url(#pb0e1c2b728)" d="M 65.21554 126.114299 
L 84.064352 125.93 
L 94.463697 125.618356 
L 101.938226 125.182139 
L 108.112837 124.606003 
L 113.637489 123.868845 
L 118.837161 122.949622 
L 124.036834 121.798563 
L 129.236506 120.424443 
L 135.086138 118.646259 
L 141.910708 116.329716 
L 150.685155 113.095216 
L 163.034377 108.281579 
L 185.782944 99.133064 
L 283.276801 59.52319 
L 389.870085 16.198182 
L 389.870085 16.198182 
" style="fill:none;stroke:#1f77b4;stroke-linecap:square;stroke-width:1.5;"/>
   </g>
   <g id="line2d_82">
    <path clip-path="url(#pb0e1c2b728)" d="M 65.21554 126.161341 
L 129.561486 126.049028 
L 143.210626 125.810388 
L 151.985073 125.448318 
L 158.809643 124.952979 
L 164.659274 124.309322 
L 169.858947 123.523024 
L 175.058619 122.509954 
L 180.258292 121.26603 
L 185.782944 119.710754 
L 191.957555 117.735528 
L 199.432084 115.098913 
L 209.181469 111.409475 
L 224.455507 105.362224 
L 258.903337 91.419246 
L 389.870085 38.190909 
L 389.870085 38.190909 
" style="fill:none;stroke:#ff7f0e;stroke-linecap:square;stroke-width:1.5;"/>
   </g>
   <g id="line2d_83">
    <path clip-path="url(#pb0e1c2b728)" d="M 65.21554 126.161813 
L 183.183107 126.05356 
L 197.157227 125.815044 
L 205.931674 125.457429 
L 212.756244 124.967669 
L 218.605876 124.330457 
L 223.805548 123.550949 
L 229.00522 122.545142 
L 234.204893 121.308276 
L 239.729545 119.759603 
L 245.904156 117.790195 
L 253.378685 115.158403 
L 263.12807 111.472492 
L 278.077129 105.55776 
L 311.55002 92.013206 
L 389.870085 60.183632 
L 389.870085 60.183632 
" style="fill:none;stroke:#2ca02c;stroke-linecap:square;stroke-width:1.5;"/>
   </g>
   <g id="line2d_84">
    <path clip-path="url(#pb0e1c2b728)" d="M 65.21554 126.161818 
L 237.454688 126.052069 
L 251.428808 125.810388 
L 260.203255 125.448318 
L 267.027825 124.952979 
L 272.877456 124.309322 
L 278.077129 123.523024 
L 283.276801 122.509954 
L 288.476473 121.26603 
L 294.001125 119.710754 
L 300.175736 117.735528 
L 307.650265 115.098913 
L 317.399651 111.409475 
L 332.673689 105.362224 
L 367.121518 91.419246 
L 389.870085 82.175886 
L 389.870085 82.175886 
" style="fill:none;stroke:#d62728;stroke-linecap:square;stroke-width:1.5;"/>
   </g>
   <g id="patch_3">
    <path d="M 48.982813 131.66 
L 48.982813 10.7 
" style="fill:none;stroke:#000000;stroke-linecap:square;stroke-linejoin:miter;stroke-width:0.8;"/>
   </g>
   <g id="patch_4">
    <path d="M 406.102813 131.66 
L 406.102813 10.7 
" style="fill:none;stroke:#000000;stroke-linecap:square;stroke-linejoin:miter;stroke-width:0.8;"/>
   </g>
   <g id="patch_5">
    <path d="M 48.982813 131.66 
L 406.102813 131.66 
" style="fill:none;stroke:#000000;stroke-linecap:square;stroke-linejoin:miter;stroke-width:0.8;"/>
   </g>
   <g id="patch_6">
    <path d="M 48.982813 10.7 
L 406.102813 10.7 
" style="fill:none;stroke:#000000;stroke-linecap:square;stroke-linejoin:miter;stroke-width:0.8;"/>
   </g>
  </g>
  <g id="axes_2">
   <g id="patch_7">
    <path d="M 48.982813 276.812 
L 406.102813 276.812 
L 406.102813 155.852 
L 48.982813 155.852 
z
" style="fill:#ffffff;"/>
   </g>
   <g id="matplotlib.axis_3">
    <g id="xtick_35">
     <g id="line2d_85">
      <path clip-path="url(#p74cf4d9c64)" d="M 65.21554 276.812 
L 65.21554 155.852 
" style="fill:none;stroke:#b0b0b0;stroke-linecap:square;stroke-width:0.8;"/>
     </g>
     <g id="line2d_86">
      <g>
       <use style="stroke:#000000;stroke-width:0.8;" x="65.21554" xlink:href="#mdccbe23529" y="276.812"/>
      </g>
     </g>
     <g id="text_15">
      <!-- ${10^{-1}}$ -->
      <g transform="translate(53.46554 291.410438)scale(0.1 -0.1)">
       <use transform="translate(0 0.684375)" xlink:href="#DejaVuSans-31"/>
       <use transform="translate(63.623047 0.684375)" xlink:href="#DejaVuSans-30"/>
       <use transform="translate(128.203125 38.965625)scale(0.7)" xlink:href="#DejaVuSans-2212"/>
       <use transform="translate(186.855469 38.965625)scale(0.7)" xlink:href="#DejaVuSans-31"/>
      </g>
     </g>
    </g>
    <g id="xtick_36">
     <g id="line2d_87">
      <path clip-path="url(#p74cf4d9c64)" d="M 119.324631 276.812 
L 119.324631 155.852 
" style="fill:none;stroke:#b0b0b0;stroke-linecap:square;stroke-width:0.8;"/>
     </g>
     <g id="line2d_88">
      <g>
       <use style="stroke:#000000;stroke-width:0.8;" x="119.324631" xlink:href="#mdccbe23529" y="276.812"/>
      </g>
     </g>
     <g id="text_16">
      <!-- ${10^{0}}$ -->
      <g transform="translate(110.524631 291.410438)scale(0.1 -0.1)">
       <use transform="translate(0 0.765625)" xlink:href="#DejaVuSans-31"/>
       <use transform="translate(63.623047 0.765625)" xlink:href="#DejaVuSans-30"/>
       <use transform="translate(128.203125 39.046875)scale(0.7)" xlink:href="#DejaVuSans-30"/>
      </g>
     </g>
    </g>
    <g id="xtick_37">
     <g id="line2d_89">
      <path clip-path="url(#p74cf4d9c64)" d="M 173.433722 276.812 
L 173.433722 155.852 
" style="fill:none;stroke:#b0b0b0;stroke-linecap:square;stroke-width:0.8;"/>
     </g>
     <g id="line2d_90">
      <g>
       <use style="stroke:#000000;stroke-width:0.8;" x="173.433722" xlink:href="#mdccbe23529" y="276.812"/>
      </g>
     </g>
     <g id="text_17">
      <!-- ${10^{1}}$ -->
      <g transform="translate(164.633722 291.410438)scale(0.1 -0.1)">
       <use transform="translate(0 0.684375)" xlink:href="#DejaVuSans-31"/>
       <use transform="translate(63.623047 0.684375)" xlink:href="#DejaVuSans-30"/>
       <use transform="translate(128.203125 38.965625)scale(0.7)" xlink:href="#DejaVuSans-31"/>
      </g>
     </g>
    </g>
    <g id="xtick_38">
     <g id="line2d_91">
      <path clip-path="url(#p74cf4d9c64)" d="M 227.542813 276.812 
L 227.542813 155.852 
" style="fill:none;stroke:#b0b0b0;stroke-linecap:square;stroke-width:0.8;"/>
     </g>
     <g id="line2d_92">
      <g>
       <use style="stroke:#000000;stroke-width:0.8;" x="227.542813" xlink:href="#mdccbe23529" y="276.812"/>
      </g>
     </g>
     <g id="text_18">
      <!-- ${10^{2}}$ -->
      <g transform="translate(218.742813 291.410438)scale(0.1 -0.1)">
       <use transform="translate(0 0.765625)" xlink:href="#DejaVuSans-31"/>
       <use transform="translate(63.623047 0.765625)" xlink:href="#DejaVuSans-30"/>
       <use transform="translate(128.203125 39.046875)scale(0.7)" xlink:href="#DejaVuSans-32"/>
      </g>
     </g>
    </g>
    <g id="xtick_39">
     <g id="line2d_93">
      <path clip-path="url(#p74cf4d9c64)" d="M 281.651903 276.812 
L 281.651903 155.852 
" style="fill:none;stroke:#b0b0b0;stroke-linecap:square;stroke-width:0.8;"/>
     </g>
     <g id="line2d_94">
      <g>
       <use style="stroke:#000000;stroke-width:0.8;" x="281.651903" xlink:href="#mdccbe23529" y="276.812"/>
      </g>
     </g>
     <g id="text_19">
      <!-- ${10^{3}}$ -->
      <g transform="translate(272.851903 291.410438)scale(0.1 -0.1)">
       <use transform="translate(0 0.765625)" xlink:href="#DejaVuSans-31"/>
       <use transform="translate(63.623047 0.765625)" xlink:href="#DejaVuSans-30"/>
       <use transform="translate(128.203125 39.046875)scale(0.7)" xlink:href="#DejaVuSans-33"/>
      </g>
     </g>
    </g>
    <g id="xtick_40">
     <g id="line2d_95">
      <path clip-path="url(#p74cf4d9c64)" d="M 335.760994 276.812 
L 335.760994 155.852 
" style="fill:none;stroke:#b0b0b0;stroke-linecap:square;stroke-width:0.8;"/>
     </g>
     <g id="line2d_96">
      <g>
       <use style="stroke:#000000;stroke-width:0.8;" x="335.760994" xlink:href="#mdccbe23529" y="276.812"/>
      </g>
     </g>
     <g id="text_20">
      <!-- ${10^{4}}$ -->
      <g transform="translate(326.960994 291.410438)scale(0.1 -0.1)">
       <use transform="translate(0 0.684375)" xlink:href="#DejaVuSans-31"/>
       <use transform="translate(63.623047 0.684375)" xlink:href="#DejaVuSans-30"/>
       <use transform="translate(128.203125 38.965625)scale(0.7)" xlink:href="#DejaVuSans-34"/>
      </g>
     </g>
    </g>
    <g id="xtick_41">
     <g id="line2d_97">
      <path clip-path="url(#p74cf4d9c64)" d="M 389.870085 276.812 
L 389.870085 155.852 
" style="fill:none;stroke:#b0b0b0;stroke-linecap:square;stroke-width:0.8;"/>
     </g>
     <g id="line2d_98">
      <g>
       <use style="stroke:#000000;stroke-width:0.8;" x="389.870085" xlink:href="#mdccbe23529" y="276.812"/>
      </g>
     </g>
     <g id="text_21">
      <!-- ${10^{5}}$ -->
      <g transform="translate(381.070085 291.410438)scale(0.1 -0.1)">
       <use transform="translate(0 0.684375)" xlink:href="#DejaVuSans-31"/>
       <use transform="translate(63.623047 0.684375)" xlink:href="#DejaVuSans-30"/>
       <use transform="translate(128.203125 38.965625)scale(0.7)" xlink:href="#DejaVuSans-35"/>
      </g>
     </g>
    </g>
    <g id="xtick_42">
     <g id="line2d_99">
      <path clip-path="url(#p74cf4d9c64)" d="M 53.211506 276.812 
L 53.211506 155.852 
" style="fill:none;stroke:#b0b0b0;stroke-linecap:square;stroke-width:0.8;"/>
     </g>
     <g id="line2d_100">
      <g>
       <use style="stroke:#000000;stroke-width:0.6;" x="53.211506" xlink:href="#m212a75a25d" y="276.812"/>
      </g>
     </g>
    </g>
    <g id="xtick_43">
     <g id="line2d_101">
      <path clip-path="url(#p74cf4d9c64)" d="M 59.971827 276.812 
L 59.971827 155.852 
" style="fill:none;stroke:#b0b0b0;stroke-linecap:square;stroke-width:0.8;"/>
     </g>
     <g id="line2d_102">
      <g>
       <use style="stroke:#000000;stroke-width:0.6;" x="59.971827" xlink:href="#m212a75a25d" y="276.812"/>
      </g>
     </g>
    </g>
    <g id="xtick_44">
     <g id="line2d_103">
      <path clip-path="url(#p74cf4d9c64)" d="M 81.503999 276.812 
L 81.503999 155.852 
" style="fill:none;stroke:#b0b0b0;stroke-linecap:square;stroke-width:0.8;"/>
     </g>
     <g id="line2d_104">
      <g>
       <use style="stroke:#000000;stroke-width:0.6;" x="81.503999" xlink:href="#m212a75a25d" y="276.812"/>
      </g>
     </g>
    </g>
    <g id="xtick_45">
     <g id="line2d_105">
      <path clip-path="url(#p74cf4d9c64)" d="M 97.792459 276.812 
L 97.792459 155.852 
" style="fill:none;stroke:#b0b0b0;stroke-linecap:square;stroke-width:0.8;"/>
     </g>
     <g id="line2d_106">
      <g>
       <use style="stroke:#000000;stroke-width:0.6;" x="97.792459" xlink:href="#m212a75a25d" y="276.812"/>
      </g>
     </g>
    </g>
    <g id="xtick_46">
     <g id="line2d_107">
      <path clip-path="url(#p74cf4d9c64)" d="M 107.320597 276.812 
L 107.320597 155.852 
" style="fill:none;stroke:#b0b0b0;stroke-linecap:square;stroke-width:0.8;"/>
     </g>
     <g id="line2d_108">
      <g>
       <use style="stroke:#000000;stroke-width:0.6;" x="107.320597" xlink:href="#m212a75a25d" y="276.812"/>
      </g>
     </g>
    </g>
    <g id="xtick_47">
     <g id="line2d_109">
      <path clip-path="url(#p74cf4d9c64)" d="M 114.080918 276.812 
L 114.080918 155.852 
" style="fill:none;stroke:#b0b0b0;stroke-linecap:square;stroke-width:0.8;"/>
     </g>
     <g id="line2d_110">
      <g>
       <use style="stroke:#000000;stroke-width:0.6;" x="114.080918" xlink:href="#m212a75a25d" y="276.812"/>
      </g>
     </g>
    </g>
    <g id="xtick_48">
     <g id="line2d_111">
      <path clip-path="url(#p74cf4d9c64)" d="M 135.61309 276.812 
L 135.61309 155.852 
" style="fill:none;stroke:#b0b0b0;stroke-linecap:square;stroke-width:0.8;"/>
     </g>
     <g id="line2d_112">
      <g>
       <use style="stroke:#000000;stroke-width:0.6;" x="135.61309" xlink:href="#m212a75a25d" y="276.812"/>
      </g>
     </g>
    </g>
    <g id="xtick_49">
     <g id="line2d_113">
      <path clip-path="url(#p74cf4d9c64)" d="M 151.901549 276.812 
L 151.901549 155.852 
" style="fill:none;stroke:#b0b0b0;stroke-linecap:square;stroke-width:0.8;"/>
     </g>
     <g id="line2d_114">
      <g>
       <use style="stroke:#000000;stroke-width:0.6;" x="151.901549" xlink:href="#m212a75a25d" y="276.812"/>
      </g>
     </g>
    </g>
    <g id="xtick_50">
     <g id="line2d_115">
      <path clip-path="url(#p74cf4d9c64)" d="M 161.429687 276.812 
L 161.429687 155.852 
" style="fill:none;stroke:#b0b0b0;stroke-linecap:square;stroke-width:0.8;"/>
     </g>
     <g id="line2d_116">
      <g>
       <use style="stroke:#000000;stroke-width:0.6;" x="161.429687" xlink:href="#m212a75a25d" y="276.812"/>
      </g>
     </g>
    </g>
    <g id="xtick_51">
     <g id="line2d_117">
      <path clip-path="url(#p74cf4d9c64)" d="M 168.190009 276.812 
L 168.190009 155.852 
" style="fill:none;stroke:#b0b0b0;stroke-linecap:square;stroke-width:0.8;"/>
     </g>
     <g id="line2d_118">
      <g>
       <use style="stroke:#000000;stroke-width:0.6;" x="168.190009" xlink:href="#m212a75a25d" y="276.812"/>
      </g>
     </g>
    </g>
    <g id="xtick_52">
     <g id="line2d_119">
      <path clip-path="url(#p74cf4d9c64)" d="M 189.722181 276.812 
L 189.722181 155.852 
" style="fill:none;stroke:#b0b0b0;stroke-linecap:square;stroke-width:0.8;"/>
     </g>
     <g id="line2d_120">
      <g>
       <use style="stroke:#000000;stroke-width:0.6;" x="189.722181" xlink:href="#m212a75a25d" y="276.812"/>
      </g>
     </g>
    </g>
    <g id="xtick_53">
     <g id="line2d_121">
      <path clip-path="url(#p74cf4d9c64)" d="M 206.01064 276.812 
L 206.01064 155.852 
" style="fill:none;stroke:#b0b0b0;stroke-linecap:square;stroke-width:0.8;"/>
     </g>
     <g id="line2d_122">
      <g>
       <use style="stroke:#000000;stroke-width:0.6;" x="206.01064" xlink:href="#m212a75a25d" y="276.812"/>
      </g>
     </g>
    </g>
    <g id="xtick_54">
     <g id="line2d_123">
      <path clip-path="url(#p74cf4d9c64)" d="M 215.538778 276.812 
L 215.538778 155.852 
" style="fill:none;stroke:#b0b0b0;stroke-linecap:square;stroke-width:0.8;"/>
     </g>
     <g id="line2d_124">
      <g>
       <use style="stroke:#000000;stroke-width:0.6;" x="215.538778" xlink:href="#m212a75a25d" y="276.812"/>
      </g>
     </g>
    </g>
    <g id="xtick_55">
     <g id="line2d_125">
      <path clip-path="url(#p74cf4d9c64)" d="M 222.2991 276.812 
L 222.2991 155.852 
" style="fill:none;stroke:#b0b0b0;stroke-linecap:square;stroke-width:0.8;"/>
     </g>
     <g id="line2d_126">
      <g>
       <use style="stroke:#000000;stroke-width:0.6;" x="222.2991" xlink:href="#m212a75a25d" y="276.812"/>
      </g>
     </g>
    </g>
    <g id="xtick_56">
     <g id="line2d_127">
      <path clip-path="url(#p74cf4d9c64)" d="M 243.831272 276.812 
L 243.831272 155.852 
" style="fill:none;stroke:#b0b0b0;stroke-linecap:square;stroke-width:0.8;"/>
     </g>
     <g id="line2d_128">
      <g>
       <use style="stroke:#000000;stroke-width:0.6;" x="243.831272" xlink:href="#m212a75a25d" y="276.812"/>
      </g>
     </g>
    </g>
    <g id="xtick_57">
     <g id="line2d_129">
      <path clip-path="url(#p74cf4d9c64)" d="M 260.119731 276.812 
L 260.119731 155.852 
" style="fill:none;stroke:#b0b0b0;stroke-linecap:square;stroke-width:0.8;"/>
     </g>
     <g id="line2d_130">
      <g>
       <use style="stroke:#000000;stroke-width:0.6;" x="260.119731" xlink:href="#m212a75a25d" y="276.812"/>
      </g>
     </g>
    </g>
    <g id="xtick_58">
     <g id="line2d_131">
      <path clip-path="url(#p74cf4d9c64)" d="M 269.647869 276.812 
L 269.647869 155.852 
" style="fill:none;stroke:#b0b0b0;stroke-linecap:square;stroke-width:0.8;"/>
     </g>
     <g id="line2d_132">
      <g>
       <use style="stroke:#000000;stroke-width:0.6;" x="269.647869" xlink:href="#m212a75a25d" y="276.812"/>
      </g>
     </g>
    </g>
    <g id="xtick_59">
     <g id="line2d_133">
      <path clip-path="url(#p74cf4d9c64)" d="M 276.408191 276.812 
L 276.408191 155.852 
" style="fill:none;stroke:#b0b0b0;stroke-linecap:square;stroke-width:0.8;"/>
     </g>
     <g id="line2d_134">
      <g>
       <use style="stroke:#000000;stroke-width:0.6;" x="276.408191" xlink:href="#m212a75a25d" y="276.812"/>
      </g>
     </g>
    </g>
    <g id="xtick_60">
     <g id="line2d_135">
      <path clip-path="url(#p74cf4d9c64)" d="M 297.940363 276.812 
L 297.940363 155.852 
" style="fill:none;stroke:#b0b0b0;stroke-linecap:square;stroke-width:0.8;"/>
     </g>
     <g id="line2d_136">
      <g>
       <use style="stroke:#000000;stroke-width:0.6;" x="297.940363" xlink:href="#m212a75a25d" y="276.812"/>
      </g>
     </g>
    </g>
    <g id="xtick_61">
     <g id="line2d_137">
      <path clip-path="url(#p74cf4d9c64)" d="M 314.228822 276.812 
L 314.228822 155.852 
" style="fill:none;stroke:#b0b0b0;stroke-linecap:square;stroke-width:0.8;"/>
     </g>
     <g id="line2d_138">
      <g>
       <use style="stroke:#000000;stroke-width:0.6;" x="314.228822" xlink:href="#m212a75a25d" y="276.812"/>
      </g>
     </g>
    </g>
    <g id="xtick_62">
     <g id="line2d_139">
      <path clip-path="url(#p74cf4d9c64)" d="M 323.75696 276.812 
L 323.75696 155.852 
" style="fill:none;stroke:#b0b0b0;stroke-linecap:square;stroke-width:0.8;"/>
     </g>
     <g id="line2d_140">
      <g>
       <use style="stroke:#000000;stroke-width:0.6;" x="323.75696" xlink:href="#m212a75a25d" y="276.812"/>
      </g>
     </g>
    </g>
    <g id="xtick_63">
     <g id="line2d_141">
      <path clip-path="url(#p74cf4d9c64)" d="M 330.517282 276.812 
L 330.517282 155.852 
" style="fill:none;stroke:#b0b0b0;stroke-linecap:square;stroke-width:0.8;"/>
     </g>
     <g id="line2d_142">
      <g>
       <use style="stroke:#000000;stroke-width:0.6;" x="330.517282" xlink:href="#m212a75a25d" y="276.812"/>
      </g>
     </g>
    </g>
    <g id="xtick_64">
     <g id="line2d_143">
      <path clip-path="url(#p74cf4d9c64)" d="M 352.049454 276.812 
L 352.049454 155.852 
" style="fill:none;stroke:#b0b0b0;stroke-linecap:square;stroke-width:0.8;"/>
     </g>
     <g id="line2d_144">
      <g>
       <use style="stroke:#000000;stroke-width:0.6;" x="352.049454" xlink:href="#m212a75a25d" y="276.812"/>
      </g>
     </g>
    </g>
    <g id="xtick_65">
     <g id="line2d_145">
      <path clip-path="url(#p74cf4d9c64)" d="M 368.337913 276.812 
L 368.337913 155.852 
" style="fill:none;stroke:#b0b0b0;stroke-linecap:square;stroke-width:0.8;"/>
     </g>
     <g id="line2d_146">
      <g>
       <use style="stroke:#000000;stroke-width:0.6;" x="368.337913" xlink:href="#m212a75a25d" y="276.812"/>
      </g>
     </g>
    </g>
    <g id="xtick_66">
     <g id="line2d_147">
      <path clip-path="url(#p74cf4d9c64)" d="M 377.866051 276.812 
L 377.866051 155.852 
" style="fill:none;stroke:#b0b0b0;stroke-linecap:square;stroke-width:0.8;"/>
     </g>
     <g id="line2d_148">
      <g>
       <use style="stroke:#000000;stroke-width:0.6;" x="377.866051" xlink:href="#m212a75a25d" y="276.812"/>
      </g>
     </g>
    </g>
    <g id="xtick_67">
     <g id="line2d_149">
      <path clip-path="url(#p74cf4d9c64)" d="M 384.626373 276.812 
L 384.626373 155.852 
" style="fill:none;stroke:#b0b0b0;stroke-linecap:square;stroke-width:0.8;"/>
     </g>
     <g id="line2d_150">
      <g>
       <use style="stroke:#000000;stroke-width:0.6;" x="384.626373" xlink:href="#m212a75a25d" y="276.812"/>
      </g>
     </g>
    </g>
    <g id="xtick_68">
     <g id="line2d_151">
      <path clip-path="url(#p74cf4d9c64)" d="M 406.158545 276.812 
L 406.158545 155.852 
" style="fill:none;stroke:#b0b0b0;stroke-linecap:square;stroke-width:0.8;"/>
     </g>
     <g id="line2d_152">
      <g>
       <use style="stroke:#000000;stroke-width:0.6;" x="406.158545" xlink:href="#m212a75a25d" y="276.812"/>
      </g>
     </g>
    </g>
    <g id="text_22">
     <!-- Frequency (rad/sec) -->
     <defs>
      <path d="M 9.8125 72.90625 
L 51.703125 72.90625 
L 51.703125 64.59375 
L 19.671875 64.59375 
L 19.671875 43.109375 
L 48.578125 43.109375 
L 48.578125 34.8125 
L 19.671875 34.8125 
L 19.671875 0 
L 9.8125 0 
z
" id="DejaVuSans-46"/>
      <path d="M 41.109375 46.296875 
Q 39.59375 47.171875 37.8125 47.578125 
Q 36.03125 48 33.890625 48 
Q 26.265625 48 22.1875 43.046875 
Q 18.109375 38.09375 18.109375 28.8125 
L 18.109375 0 
L 9.078125 0 
L 9.078125 54.6875 
L 18.109375 54.6875 
L 18.109375 46.1875 
Q 20.953125 51.171875 25.484375 53.578125 
Q 30.03125 56 36.53125 56 
Q 37.453125 56 38.578125 55.875 
Q 39.703125 55.765625 41.0625 55.515625 
z
" id="DejaVuSans-72"/>
      <path d="M 14.796875 27.296875 
Q 14.796875 17.390625 18.875 11.75 
Q 22.953125 6.109375 30.078125 6.109375 
Q 37.203125 6.109375 41.296875 11.75 
Q 45.40625 17.390625 45.40625 27.296875 
Q 45.40625 37.203125 41.296875 42.84375 
Q 37.203125 48.484375 30.078125 48.484375 
Q 22.953125 48.484375 18.875 42.84375 
Q 14.796875 37.203125 14.796875 27.296875 
M 45.40625 8.203125 
Q 42.578125 3.328125 38.25 0.953125 
Q 33.9375 -1.421875 27.875 -1.421875 
Q 17.96875 -1.421875 11.734375 6.484375 
Q 5.515625 14.40625 5.515625 27.296875 
Q 5.515625 40.1875 11.734375 48.09375 
Q 17.96875 56 27.875 56 
Q 33.9375 56 38.25 53.625 
Q 42.578125 51.265625 45.40625 46.390625 
L 45.40625 54.6875 
L 54.390625 54.6875 
L 54.390625 -20.796875 
L 45.40625 -20.796875 
z
" id="DejaVuSans-71"/>
      <path d="M 48.78125 52.59375 
L 48.78125 44.1875 
Q 44.96875 46.296875 41.140625 47.34375 
Q 37.3125 48.390625 33.40625 48.390625 
Q 24.65625 48.390625 19.8125 42.84375 
Q 14.984375 37.3125 14.984375 27.296875 
Q 14.984375 17.28125 19.8125 11.734375 
Q 24.65625 6.203125 33.40625 6.203125 
Q 37.3125 6.203125 41.140625 7.25 
Q 44.96875 8.296875 48.78125 10.40625 
L 48.78125 2.09375 
Q 45.015625 0.34375 40.984375 -0.53125 
Q 36.96875 -1.421875 32.421875 -1.421875 
Q 20.0625 -1.421875 12.78125 6.34375 
Q 5.515625 14.109375 5.515625 27.296875 
Q 5.515625 40.671875 12.859375 48.328125 
Q 20.21875 56 33.015625 56 
Q 37.15625 56 41.109375 55.140625 
Q 45.0625 54.296875 48.78125 52.59375 
" id="DejaVuSans-63"/>
      <path d="M 32.171875 -5.078125 
Q 28.375 -14.84375 24.75 -17.8125 
Q 21.140625 -20.796875 15.09375 -20.796875 
L 7.90625 -20.796875 
L 7.90625 -13.28125 
L 13.1875 -13.28125 
Q 16.890625 -13.28125 18.9375 -11.515625 
Q 21 -9.765625 23.484375 -3.21875 
L 25.09375 0.875 
L 2.984375 54.6875 
L 12.5 54.6875 
L 29.59375 11.921875 
L 46.6875 54.6875 
L 56.203125 54.6875 
z
" id="DejaVuSans-79"/>
      <path d="M 25.390625 72.90625 
L 33.6875 72.90625 
L 8.296875 -9.28125 
L 0 -9.28125 
z
" id="DejaVuSans-2f"/>
      <path d="M 44.28125 53.078125 
L 44.28125 44.578125 
Q 40.484375 46.53125 36.375 47.5 
Q 32.28125 48.484375 27.875 48.484375 
Q 21.1875 48.484375 17.84375 46.4375 
Q 14.5 44.390625 14.5 40.28125 
Q 14.5 37.15625 16.890625 35.375 
Q 19.28125 33.59375 26.515625 31.984375 
L 29.59375 31.296875 
Q 39.15625 29.25 43.1875 25.515625 
Q 47.21875 21.78125 47.21875 15.09375 
Q 47.21875 7.46875 41.1875 3.015625 
Q 35.15625 -1.421875 24.609375 -1.421875 
Q 20.21875 -1.421875 15.453125 -0.5625 
Q 10.6875 0.296875 5.421875 2 
L 5.421875 11.28125 
Q 10.40625 8.6875 15.234375 7.390625 
Q 20.0625 6.109375 24.8125 6.109375 
Q 31.15625 6.109375 34.5625 8.28125 
Q 37.984375 10.453125 37.984375 14.40625 
Q 37.984375 18.0625 35.515625 20.015625 
Q 33.0625 21.96875 24.703125 23.78125 
L 21.578125 24.515625 
Q 13.234375 26.265625 9.515625 29.90625 
Q 5.8125 33.546875 5.8125 39.890625 
Q 5.8125 47.609375 11.28125 51.796875 
Q 16.75 56 26.8125 56 
Q 31.78125 56 36.171875 55.265625 
Q 40.578125 54.546875 44.28125 53.078125 
" id="DejaVuSans-73"/>
     </defs>
     <g transform="translate(177.345938 305.088562)scale(0.1 -0.1)">
      <use xlink:href="#DejaVuSans-46"/>
      <use x="57.410156" xlink:href="#DejaVuSans-72"/>
      <use x="98.492188" xlink:href="#DejaVuSans-65"/>
      <use x="160.015625" xlink:href="#DejaVuSans-71"/>
      <use x="223.492188" xlink:href="#DejaVuSans-75"/>
      <use x="286.871094" xlink:href="#DejaVuSans-65"/>
      <use x="348.394531" xlink:href="#DejaVuSans-6e"/>
      <use x="411.773438" xlink:href="#DejaVuSans-63"/>
      <use x="466.753906" xlink:href="#DejaVuSans-79"/>
      <use x="525.933594" xlink:href="#DejaVuSans-20"/>
      <use x="557.720703" xlink:href="#DejaVuSans-28"/>
      <use x="596.734375" xlink:href="#DejaVuSans-72"/>
      <use x="637.847656" xlink:href="#DejaVuSans-61"/>
      <use x="699.126953" xlink:href="#DejaVuSans-64"/>
      <use x="762.603516" xlink:href="#DejaVuSans-2f"/>
      <use x="796.294922" xlink:href="#DejaVuSans-73"/>
      <use x="848.394531" xlink:href="#DejaVuSans-65"/>
      <use x="909.917969" xlink:href="#DejaVuSans-63"/>
      <use x="964.898438" xlink:href="#DejaVuSans-29"/>
     </g>
    </g>
   </g>
   <g id="matplotlib.axis_4">
    <g id="ytick_7">
     <g id="line2d_153">
      <path clip-path="url(#p74cf4d9c64)" d="M 48.982813 271.320819 
L 406.102813 271.320819 
" style="fill:none;stroke:#b0b0b0;stroke-linecap:square;stroke-width:0.8;"/>
     </g>
     <g id="line2d_154">
      <g>
       <use style="stroke:#000000;stroke-width:0.8;" x="48.982813" xlink:href="#m247b592c55" y="271.320819"/>
      </g>
     </g>
     <g id="text_23">
      <!-- 0 -->
      <g transform="translate(35.620313 275.120038)scale(0.1 -0.1)">
       <use xlink:href="#DejaVuSans-30"/>
      </g>
     </g>
    </g>
    <g id="ytick_8">
     <g id="line2d_155">
      <path clip-path="url(#p74cf4d9c64)" d="M 48.982813 246.882744 
L 406.102813 246.882744 
" style="fill:none;stroke:#b0b0b0;stroke-linecap:square;stroke-width:0.8;"/>
     </g>
     <g id="line2d_156">
      <g>
       <use style="stroke:#000000;stroke-width:0.8;" x="48.982813" xlink:href="#m247b592c55" y="246.882744"/>
      </g>
     </g>
     <g id="text_24">
      <!-- 20 -->
      <g transform="translate(29.257813 250.681963)scale(0.1 -0.1)">
       <use xlink:href="#DejaVuSans-32"/>
       <use x="63.623047" xlink:href="#DejaVuSans-30"/>
      </g>
     </g>
    </g>
    <g id="ytick_9">
     <g id="line2d_157">
      <path clip-path="url(#p74cf4d9c64)" d="M 48.982813 222.444669 
L 406.102813 222.444669 
" style="fill:none;stroke:#b0b0b0;stroke-linecap:square;stroke-width:0.8;"/>
     </g>
     <g id="line2d_158">
      <g>
       <use style="stroke:#000000;stroke-width:0.8;" x="48.982813" xlink:href="#m247b592c55" y="222.444669"/>
      </g>
     </g>
     <g id="text_25">
      <!-- 40 -->
      <g transform="translate(29.257813 226.243888)scale(0.1 -0.1)">
       <use xlink:href="#DejaVuSans-34"/>
       <use x="63.623047" xlink:href="#DejaVuSans-30"/>
      </g>
     </g>
    </g>
    <g id="ytick_10">
     <g id="line2d_159">
      <path clip-path="url(#p74cf4d9c64)" d="M 48.982813 198.006594 
L 406.102813 198.006594 
" style="fill:none;stroke:#b0b0b0;stroke-linecap:square;stroke-width:0.8;"/>
     </g>
     <g id="line2d_160">
      <g>
       <use style="stroke:#000000;stroke-width:0.8;" x="48.982813" xlink:href="#m247b592c55" y="198.006594"/>
      </g>
     </g>
     <g id="text_26">
      <!-- 60 -->
      <g transform="translate(29.257813 201.805813)scale(0.1 -0.1)">
       <use xlink:href="#DejaVuSans-36"/>
       <use x="63.623047" xlink:href="#DejaVuSans-30"/>
      </g>
     </g>
    </g>
    <g id="ytick_11">
     <g id="line2d_161">
      <path clip-path="url(#p74cf4d9c64)" d="M 48.982813 173.568519 
L 406.102813 173.568519 
" style="fill:none;stroke:#b0b0b0;stroke-linecap:square;stroke-width:0.8;"/>
     </g>
     <g id="line2d_162">
      <g>
       <use style="stroke:#000000;stroke-width:0.8;" x="48.982813" xlink:href="#m247b592c55" y="173.568519"/>
      </g>
     </g>
     <g id="text_27">
      <!-- 80 -->
      <g transform="translate(29.257813 177.367738)scale(0.1 -0.1)">
       <use xlink:href="#DejaVuSans-38"/>
       <use x="63.623047" xlink:href="#DejaVuSans-30"/>
      </g>
     </g>
    </g>
    <g id="text_28">
     <!-- Phase (deg) -->
     <defs>
      <path d="M 19.671875 64.796875 
L 19.671875 37.40625 
L 32.078125 37.40625 
Q 38.96875 37.40625 42.71875 40.96875 
Q 46.484375 44.53125 46.484375 51.125 
Q 46.484375 57.671875 42.71875 61.234375 
Q 38.96875 64.796875 32.078125 64.796875 
z
M 9.8125 72.90625 
L 32.078125 72.90625 
Q 44.34375 72.90625 50.609375 67.359375 
Q 56.890625 61.8125 56.890625 51.125 
Q 56.890625 40.328125 50.609375 34.8125 
Q 44.34375 29.296875 32.078125 29.296875 
L 19.671875 29.296875 
L 19.671875 0 
L 9.8125 0 
z
" id="DejaVuSans-50"/>
      <path d="M 54.890625 33.015625 
L 54.890625 0 
L 45.90625 0 
L 45.90625 32.71875 
Q 45.90625 40.484375 42.875 44.328125 
Q 39.84375 48.1875 33.796875 48.1875 
Q 26.515625 48.1875 22.3125 43.546875 
Q 18.109375 38.921875 18.109375 30.90625 
L 18.109375 0 
L 9.078125 0 
L 9.078125 75.984375 
L 18.109375 75.984375 
L 18.109375 46.1875 
Q 21.34375 51.125 25.703125 53.5625 
Q 30.078125 56 35.796875 56 
Q 45.21875 56 50.046875 50.171875 
Q 54.890625 44.34375 54.890625 33.015625 
" id="DejaVuSans-68"/>
     </defs>
     <g transform="translate(23.178125 246.176531)rotate(-90)scale(0.1 -0.1)">
      <use xlink:href="#DejaVuSans-50"/>
      <use x="60.302734" xlink:href="#DejaVuSans-68"/>
      <use x="123.681641" xlink:href="#DejaVuSans-61"/>
      <use x="184.960938" xlink:href="#DejaVuSans-73"/>
      <use x="237.060547" xlink:href="#DejaVuSans-65"/>
      <use x="298.583984" xlink:href="#DejaVuSans-20"/>
      <use x="330.371094" xlink:href="#DejaVuSans-28"/>
      <use x="369.384766" xlink:href="#DejaVuSans-64"/>
      <use x="432.861328" xlink:href="#DejaVuSans-65"/>
      <use x="494.384766" xlink:href="#DejaVuSans-67"/>
      <use x="557.861328" xlink:href="#DejaVuSans-29"/>
     </g>
    </g>
   </g>
   <g id="line2d_163">
    <path clip-path="url(#p74cf4d9c64)" d="M 65.21554 264.343024 
L 69.440274 262.98062 
L 73.340028 261.493297 
L 76.914803 259.905113 
L 80.489577 258.07091 
L 83.739373 256.162865 
L 86.989168 253.999852 
L 90.238963 251.557217 
L 93.488758 248.812308 
L 96.738554 245.746738 
L 99.988349 242.349329 
L 103.238144 238.619574 
L 106.812919 234.149944 
L 110.712673 228.885806 
L 115.587366 221.878929 
L 128.911527 202.434746 
L 132.811281 197.265121 
L 136.386056 192.897412 
L 139.635851 189.266631 
L 142.885646 185.969384 
L 146.135441 183.001577 
L 149.385237 180.349525 
L 152.635032 177.993285 
L 155.884827 175.909393 
L 159.134622 174.072944 
L 162.709397 172.30896 
L 166.284172 170.782538 
L 170.183926 169.35375 
L 174.40866 168.045467 
L 178.958374 166.872231 
L 183.833066 165.840772 
L 189.357718 164.901641 
L 195.532329 164.081796 
L 202.681879 163.365521 
L 211.131346 162.756839 
L 221.205712 162.266234 
L 233.879913 161.884088 
L 250.778849 161.609934 
L 276.452231 161.43683 
L 327.474016 161.359443 
L 389.870085 161.350182 
L 389.870085 161.350182 
" style="fill:none;stroke:#1f77b4;stroke-linecap:square;stroke-width:1.5;"/>
   </g>
   <g id="line2d_164">
    <path clip-path="url(#p74cf4d9c64)" d="M 65.21554 270.620743 
L 77.239782 270.153091 
L 86.664188 269.577141 
L 94.463697 268.89127 
L 101.288267 268.073577 
L 107.137898 267.157669 
L 112.337571 266.130027 
L 117.212264 264.939426 
L 121.436998 263.691693 
L 125.336752 262.328469 
L 129.236506 260.728016 
L 132.811281 259.020739 
L 136.386056 257.051535 
L 139.635851 255.006361 
L 142.885646 252.692524 
L 146.135441 250.08623 
L 149.385237 247.166847 
L 152.635032 243.919551 
L 155.884827 240.338582 
L 159.134622 236.430861 
L 162.709397 231.783008 
L 166.934131 225.895926 
L 172.783763 217.303218 
L 180.908251 205.384084 
L 185.132984 199.58601 
L 188.707759 195.033842 
L 191.957555 191.222521 
L 195.20735 187.741575 
L 198.457145 184.593739 
L 201.70694 181.770161 
L 204.956736 179.253959 
L 208.206531 177.023306 
L 211.456326 175.053872 
L 215.031101 173.159319 
L 218.605876 171.517955 
L 222.50563 169.980158 
L 226.730364 168.571033 
L 231.280077 167.30666 
L 236.15477 166.194622 
L 241.354442 165.235082 
L 247.204074 164.380056 
L 254.028644 163.61683 
L 261.828152 162.976707 
L 271.252559 162.439206 
L 282.626842 162.021109 
L 297.5759 161.705 
L 319.024549 161.492196 
L 356.072215 161.378979 
L 389.870085 161.356483 
L 389.870085 161.356483 
" style="fill:none;stroke:#ff7f0e;stroke-linecap:square;stroke-width:1.5;"/>
   </g>
   <g id="line2d_165">
    <path clip-path="url(#p74cf4d9c64)" d="M 65.21554 271.250809 
L 97.388513 271.045554 
L 115.587366 270.723674 
L 128.586547 270.282576 
L 138.660912 269.726989 
L 146.785401 269.069084 
L 153.93495 268.269244 
L 160.109561 267.353946 
L 165.634213 266.30581 
L 170.508906 265.155143 
L 175.058619 263.847122 
L 179.283353 262.389762 
L 183.183107 260.799912 
L 186.757882 259.103781 
L 190.332657 257.147189 
L 193.582452 255.114795 
L 196.832247 252.814973 
L 200.082043 250.223827 
L 203.331838 247.320512 
L 206.581633 244.089838 
L 209.831428 240.525509 
L 213.081224 236.633724 
L 216.655998 232.001542 
L 220.880732 226.128783 
L 226.730364 217.545148 
L 235.179831 205.154031 
L 239.404565 199.371488 
L 242.97934 194.835636 
L 246.229135 191.040549 
L 249.47893 187.576304 
L 252.728726 184.444972 
L 255.978521 181.637217 
L 259.228316 179.13584 
L 262.478111 176.918838 
L 265.727907 174.961808 
L 269.302681 173.079459 
L 272.877456 171.448858 
L 276.777211 169.92128 
L 281.001944 168.521619 
L 285.551658 167.265806 
L 290.426351 166.16134 
L 295.626023 165.208361 
L 301.475654 164.359198 
L 308.300224 163.601217 
L 316.099733 162.965498 
L 325.524139 162.431698 
L 337.223402 162.007321 
L 352.49744 161.692919 
L 374.271068 161.485453 
L 389.870085 161.419492 
L 389.870085 161.419492 
" style="fill:none;stroke:#2ca02c;stroke-linecap:square;stroke-width:1.5;"/>
   </g>
   <g id="line2d_166">
    <path clip-path="url(#p74cf4d9c64)" d="M 65.21554 271.313818 
L 135.411117 271.181998 
L 159.784582 270.929165 
L 175.383599 270.56018 
L 187.082862 270.069507 
L 196.182288 269.478013 
L 203.981797 268.753207 
L 210.481387 267.936231 
L 216.331019 266.981757 
L 221.530691 265.910998 
L 226.080405 264.761493 
L 230.305138 263.479497 
L 234.204893 262.079162 
L 238.104647 260.435645 
L 241.679422 258.683133 
L 244.929217 256.858398 
L 248.179012 254.787475 
L 251.428808 252.445428 
L 254.678603 249.80868 
L 257.928398 246.857051 
L 261.178193 243.576467 
L 264.427989 239.96227 
L 267.677784 236.022849 
L 271.252559 231.344007 
L 275.477292 225.428918 
L 281.651903 216.33515 
L 289.126432 205.384084 
L 293.351166 199.58601 
L 296.925941 195.033842 
L 300.175736 191.222521 
L 303.425532 187.741575 
L 306.675327 184.593739 
L 309.925122 181.770161 
L 313.174917 179.253959 
L 316.424713 177.023306 
L 319.674508 175.053872 
L 323.249283 173.159319 
L 326.824057 171.517955 
L 330.723812 169.980158 
L 334.948546 168.571033 
L 339.498259 167.30666 
L 344.372952 166.194622 
L 349.572624 165.235082 
L 355.422256 164.380056 
L 362.246826 163.61683 
L 370.046334 162.976707 
L 379.47074 162.439206 
L 389.870085 162.049558 
L 389.870085 162.049558 
" style="fill:none;stroke:#d62728;stroke-linecap:square;stroke-width:1.5;"/>
   </g>
   <g id="patch_8">
    <path d="M 48.982813 276.812 
L 48.982813 155.852 
" style="fill:none;stroke:#000000;stroke-linecap:square;stroke-linejoin:miter;stroke-width:0.8;"/>
   </g>
   <g id="patch_9">
    <path d="M 406.102813 276.812 
L 406.102813 155.852 
" style="fill:none;stroke:#000000;stroke-linecap:square;stroke-linejoin:miter;stroke-width:0.8;"/>
   </g>
   <g id="patch_10">
    <path d="M 48.982813 276.812 
L 406.102813 276.812 
" style="fill:none;stroke:#000000;stroke-linecap:square;stroke-linejoin:miter;stroke-width:0.8;"/>
   </g>
   <g id="patch_11">
    <path d="M 48.982813 155.852 
L 406.102813 155.852 
" style="fill:none;stroke:#000000;stroke-linecap:square;stroke-linejoin:miter;stroke-width:0.8;"/>
   </g>
   <g id="legend_1">
    <g id="patch_12">
     <path d="M 326.263438 273.812 
L 401.902813 273.812 
Q 403.102813 273.812 403.102813 272.612 
L 403.102813 237.317 
Q 403.102813 236.117 401.902813 236.117 
L 326.263438 236.117 
Q 325.063438 236.117 325.063438 237.317 
L 325.063438 272.612 
Q 325.063438 273.812 326.263438 273.812 
z
" style="fill:#ffffff;opacity:0.8;stroke:#cccccc;stroke-linejoin:miter;"/>
    </g>
    <g id="line2d_167">
     <path d="M 327.463437 240.976062 
L 339.463437 240.976062 
" style="fill:none;stroke:#1f77b4;stroke-linecap:square;stroke-width:1.5;"/>
    </g>
    <g id="line2d_168"/>
    <g id="text_29">
     <!-- k = 1, T_d = 1.0 -->
     <defs>
      <path d="M 9.078125 75.984375 
L 18.109375 75.984375 
L 18.109375 31.109375 
L 44.921875 54.6875 
L 56.390625 54.6875 
L 27.390625 29.109375 
L 57.625 0 
L 45.90625 0 
L 18.109375 26.703125 
L 18.109375 0 
L 9.078125 0 
z
" id="DejaVuSans-6b"/>
      <path d="M 10.59375 45.40625 
L 73.1875 45.40625 
L 73.1875 37.203125 
L 10.59375 37.203125 
z
M 10.59375 25.484375 
L 73.1875 25.484375 
L 73.1875 17.1875 
L 10.59375 17.1875 
z
" id="DejaVuSans-3d"/>
      <path d="M 11.71875 12.40625 
L 22.015625 12.40625 
L 22.015625 4 
L 14.015625 -11.625 
L 7.71875 -11.625 
L 11.71875 4 
z
" id="DejaVuSans-2c"/>
      <path d="M -0.296875 72.90625 
L 61.375 72.90625 
L 61.375 64.59375 
L 35.5 64.59375 
L 35.5 0 
L 25.59375 0 
L 25.59375 64.59375 
L -0.296875 64.59375 
z
" id="DejaVuSans-54"/>
      <path d="M 50.984375 -16.609375 
L 50.984375 -23.578125 
L -0.984375 -23.578125 
L -0.984375 -16.609375 
z
" id="DejaVuSans-5f"/>
      <path d="M 10.6875 12.40625 
L 21 12.40625 
L 21 0 
L 10.6875 0 
z
" id="DejaVuSans-2e"/>
     </defs>
     <g transform="translate(344.263438 243.076062)scale(0.06 -0.06)">
      <use xlink:href="#DejaVuSans-6b"/>
      <use x="57.910156" xlink:href="#DejaVuSans-20"/>
      <use x="89.697266" xlink:href="#DejaVuSans-3d"/>
      <use x="173.486328" xlink:href="#DejaVuSans-20"/>
      <use x="205.273438" xlink:href="#DejaVuSans-31"/>
      <use x="268.896484" xlink:href="#DejaVuSans-2c"/>
      <use x="300.683594" xlink:href="#DejaVuSans-20"/>
      <use x="332.470703" xlink:href="#DejaVuSans-54"/>
      <use x="393.554688" xlink:href="#DejaVuSans-5f"/>
      <use x="443.554688" xlink:href="#DejaVuSans-64"/>
      <use x="507.03125" xlink:href="#DejaVuSans-20"/>
      <use x="538.818359" xlink:href="#DejaVuSans-3d"/>
      <use x="622.607422" xlink:href="#DejaVuSans-20"/>
      <use x="654.394531" xlink:href="#DejaVuSans-31"/>
      <use x="718.017578" xlink:href="#DejaVuSans-2e"/>
      <use x="749.804688" xlink:href="#DejaVuSans-30"/>
     </g>
    </g>
    <g id="line2d_169">
     <path d="M 327.463437 249.949812 
L 339.463437 249.949812 
" style="fill:none;stroke:#ff7f0e;stroke-linecap:square;stroke-width:1.5;"/>
    </g>
    <g id="line2d_170"/>
    <g id="text_30">
     <!-- k = 1, T_d = 0.1 -->
     <g transform="translate(344.263438 252.049812)scale(0.06 -0.06)">
      <use xlink:href="#DejaVuSans-6b"/>
      <use x="57.910156" xlink:href="#DejaVuSans-20"/>
      <use x="89.697266" xlink:href="#DejaVuSans-3d"/>
      <use x="173.486328" xlink:href="#DejaVuSans-20"/>
      <use x="205.273438" xlink:href="#DejaVuSans-31"/>
      <use x="268.896484" xlink:href="#DejaVuSans-2c"/>
      <use x="300.683594" xlink:href="#DejaVuSans-20"/>
      <use x="332.470703" xlink:href="#DejaVuSans-54"/>
      <use x="393.554688" xlink:href="#DejaVuSans-5f"/>
      <use x="443.554688" xlink:href="#DejaVuSans-64"/>
      <use x="507.03125" xlink:href="#DejaVuSans-20"/>
      <use x="538.818359" xlink:href="#DejaVuSans-3d"/>
      <use x="622.607422" xlink:href="#DejaVuSans-20"/>
      <use x="654.394531" xlink:href="#DejaVuSans-30"/>
      <use x="718.017578" xlink:href="#DejaVuSans-2e"/>
      <use x="749.804688" xlink:href="#DejaVuSans-31"/>
     </g>
    </g>
    <g id="line2d_171">
     <path d="M 327.463437 258.923562 
L 339.463437 258.923562 
" style="fill:none;stroke:#2ca02c;stroke-linecap:square;stroke-width:1.5;"/>
    </g>
    <g id="line2d_172"/>
    <g id="text_31">
     <!-- k = 1, T_d = 0.01 -->
     <g transform="translate(344.263438 261.023562)scale(0.06 -0.06)">
      <use xlink:href="#DejaVuSans-6b"/>
      <use x="57.910156" xlink:href="#DejaVuSans-20"/>
      <use x="89.697266" xlink:href="#DejaVuSans-3d"/>
      <use x="173.486328" xlink:href="#DejaVuSans-20"/>
      <use x="205.273438" xlink:href="#DejaVuSans-31"/>
      <use x="268.896484" xlink:href="#DejaVuSans-2c"/>
      <use x="300.683594" xlink:href="#DejaVuSans-20"/>
      <use x="332.470703" xlink:href="#DejaVuSans-54"/>
      <use x="393.554688" xlink:href="#DejaVuSans-5f"/>
      <use x="443.554688" xlink:href="#DejaVuSans-64"/>
      <use x="507.03125" xlink:href="#DejaVuSans-20"/>
      <use x="538.818359" xlink:href="#DejaVuSans-3d"/>
      <use x="622.607422" xlink:href="#DejaVuSans-20"/>
      <use x="654.394531" xlink:href="#DejaVuSans-30"/>
      <use x="718.017578" xlink:href="#DejaVuSans-2e"/>
      <use x="749.804688" xlink:href="#DejaVuSans-30"/>
      <use x="813.427734" xlink:href="#DejaVuSans-31"/>
     </g>
    </g>
    <g id="line2d_173">
     <path d="M 327.463437 267.897312 
L 339.463437 267.897312 
" style="fill:none;stroke:#d62728;stroke-linecap:square;stroke-width:1.5;"/>
    </g>
    <g id="line2d_174"/>
    <g id="text_32">
     <!-- k = 1, T_d = 0.001 -->
     <g transform="translate(344.263438 269.997312)scale(0.06 -0.06)">
      <use xlink:href="#DejaVuSans-6b"/>
      <use x="57.910156" xlink:href="#DejaVuSans-20"/>
      <use x="89.697266" xlink:href="#DejaVuSans-3d"/>
      <use x="173.486328" xlink:href="#DejaVuSans-20"/>
      <use x="205.273438" xlink:href="#DejaVuSans-31"/>
      <use x="268.896484" xlink:href="#DejaVuSans-2c"/>
      <use x="300.683594" xlink:href="#DejaVuSans-20"/>
      <use x="332.470703" xlink:href="#DejaVuSans-54"/>
      <use x="393.554688" xlink:href="#DejaVuSans-5f"/>
      <use x="443.554688" xlink:href="#DejaVuSans-64"/>
      <use x="507.03125" xlink:href="#DejaVuSans-20"/>
      <use x="538.818359" xlink:href="#DejaVuSans-3d"/>
      <use x="622.607422" xlink:href="#DejaVuSans-20"/>
      <use x="654.394531" xlink:href="#DejaVuSans-30"/>
      <use x="718.017578" xlink:href="#DejaVuSans-2e"/>
      <use x="749.804688" xlink:href="#DejaVuSans-30"/>
      <use x="813.427734" xlink:href="#DejaVuSans-30"/>
      <use x="877.050781" xlink:href="#DejaVuSans-31"/>
     </g>
    </g>
   </g>
  </g>
 </g>
 <defs>
  <clipPath id="pb0e1c2b728">
   <rect height="120.96" width="357.12" x="48.982813" y="10.7"/>
  </clipPath>
  <clipPath id="p74cf4d9c64">
   <rect height="120.96" width="357.12" x="48.982813" y="155.852"/>
  </clipPath>
 </defs>
</svg>
