<?xml version="1.0" encoding="utf-8" standalone="no"?>
<!DOCTYPE svg PUBLIC "-//W3C//DTD SVG 1.1//EN"
  "http://www.w3.org/Graphics/SVG/1.1/DTD/svg11.dtd">
<!-- Created with matplotlib (http://matplotlib.org/) -->
<svg height="312pt" version="1.1" viewBox="0 0 406 312" width="406pt" xmlns="http://www.w3.org/2000/svg" xmlns:xlink="http://www.w3.org/1999/xlink">
 <defs>
  <style type="text/css">
*{stroke-linecap:butt;stroke-linejoin:round;}
  </style>
 </defs>
 <g id="figure_1">
  <g id="patch_1">
   <path d="M 0 312.30825 
L 406.302813 312.30825 
L 406.302813 0 
L 0 0 
z
" style="fill:#ffffff;"/>
  </g>
  <g id="axes_1">
   <g id="patch_2">
    <path d="M 38.482813 288.430125 
L 395.602813 288.430125 
L 395.602813 22.318125 
L 38.482813 22.318125 
z
" style="fill:#ffffff;"/>
   </g>
   <g id="matplotlib.axis_1">
    <g id="xtick_1">
     <g id="line2d_1">
      <path clip-path="url(#p125df2fc3f)" d="M 54.71554 288.430125 
L 54.71554 22.318125 
" style="fill:none;stroke:#b0b0b0;stroke-linecap:square;stroke-width:0.8;"/>
     </g>
     <g id="line2d_2">
      <defs>
       <path d="M 0 0 
L 0 3.5 
" id="m715a076a17" style="stroke:#000000;stroke-width:0.8;"/>
      </defs>
      <g>
       <use style="stroke:#000000;stroke-width:0.8;" x="54.71554" xlink:href="#m715a076a17" y="288.430125"/>
      </g>
     </g>
     <g id="text_1">
      <!-- 0 -->
      <defs>
       <path d="M 31.78125 66.40625 
Q 24.171875 66.40625 20.328125 58.90625 
Q 16.5 51.421875 16.5 36.375 
Q 16.5 21.390625 20.328125 13.890625 
Q 24.171875 6.390625 31.78125 6.390625 
Q 39.453125 6.390625 43.28125 13.890625 
Q 47.125 21.390625 47.125 36.375 
Q 47.125 51.421875 43.28125 58.90625 
Q 39.453125 66.40625 31.78125 66.40625 
M 31.78125 74.21875 
Q 44.046875 74.21875 50.515625 64.515625 
Q 56.984375 54.828125 56.984375 36.375 
Q 56.984375 17.96875 50.515625 8.265625 
Q 44.046875 -1.421875 31.78125 -1.421875 
Q 19.53125 -1.421875 13.0625 8.265625 
Q 6.59375 17.96875 6.59375 36.375 
Q 6.59375 54.828125 13.0625 64.515625 
Q 19.53125 74.21875 31.78125 74.21875 
" id="DejaVuSans-30"/>
      </defs>
      <g transform="translate(51.53429 303.028562)scale(0.1 -0.1)">
       <use xlink:href="#DejaVuSans-30"/>
      </g>
     </g>
    </g>
    <g id="xtick_2">
     <g id="line2d_3">
      <path clip-path="url(#p125df2fc3f)" d="M 119.776571 288.430125 
L 119.776571 22.318125 
" style="fill:none;stroke:#b0b0b0;stroke-linecap:square;stroke-width:0.8;"/>
     </g>
     <g id="line2d_4">
      <g>
       <use style="stroke:#000000;stroke-width:0.8;" x="119.776571" xlink:href="#m715a076a17" y="288.430125"/>
      </g>
     </g>
     <g id="text_2">
      <!-- 1 -->
      <defs>
       <path d="M 12.40625 8.296875 
L 28.515625 8.296875 
L 28.515625 63.921875 
L 10.984375 60.40625 
L 10.984375 69.390625 
L 28.421875 72.90625 
L 38.28125 72.90625 
L 38.28125 8.296875 
L 54.390625 8.296875 
L 54.390625 0 
L 12.40625 0 
z
" id="DejaVuSans-31"/>
      </defs>
      <g transform="translate(116.595321 303.028562)scale(0.1 -0.1)">
       <use xlink:href="#DejaVuSans-31"/>
      </g>
     </g>
    </g>
    <g id="xtick_3">
     <g id="line2d_5">
      <path clip-path="url(#p125df2fc3f)" d="M 184.837602 288.430125 
L 184.837602 22.318125 
" style="fill:none;stroke:#b0b0b0;stroke-linecap:square;stroke-width:0.8;"/>
     </g>
     <g id="line2d_6">
      <g>
       <use style="stroke:#000000;stroke-width:0.8;" x="184.837602" xlink:href="#m715a076a17" y="288.430125"/>
      </g>
     </g>
     <g id="text_3">
      <!-- 2 -->
      <defs>
       <path d="M 19.1875 8.296875 
L 53.609375 8.296875 
L 53.609375 0 
L 7.328125 0 
L 7.328125 8.296875 
Q 12.9375 14.109375 22.625 23.890625 
Q 32.328125 33.6875 34.8125 36.53125 
Q 39.546875 41.84375 41.421875 45.53125 
Q 43.3125 49.21875 43.3125 52.78125 
Q 43.3125 58.59375 39.234375 62.25 
Q 35.15625 65.921875 28.609375 65.921875 
Q 23.96875 65.921875 18.8125 64.3125 
Q 13.671875 62.703125 7.8125 59.421875 
L 7.8125 69.390625 
Q 13.765625 71.78125 18.9375 73 
Q 24.125 74.21875 28.421875 74.21875 
Q 39.75 74.21875 46.484375 68.546875 
Q 53.21875 62.890625 53.21875 53.421875 
Q 53.21875 48.921875 51.53125 44.890625 
Q 49.859375 40.875 45.40625 35.40625 
Q 44.1875 33.984375 37.640625 27.21875 
Q 31.109375 20.453125 19.1875 8.296875 
" id="DejaVuSans-32"/>
      </defs>
      <g transform="translate(181.656352 303.028562)scale(0.1 -0.1)">
       <use xlink:href="#DejaVuSans-32"/>
      </g>
     </g>
    </g>
    <g id="xtick_4">
     <g id="line2d_7">
      <path clip-path="url(#p125df2fc3f)" d="M 249.898633 288.430125 
L 249.898633 22.318125 
" style="fill:none;stroke:#b0b0b0;stroke-linecap:square;stroke-width:0.8;"/>
     </g>
     <g id="line2d_8">
      <g>
       <use style="stroke:#000000;stroke-width:0.8;" x="249.898633" xlink:href="#m715a076a17" y="288.430125"/>
      </g>
     </g>
     <g id="text_4">
      <!-- 3 -->
      <defs>
       <path d="M 40.578125 39.3125 
Q 47.65625 37.796875 51.625 33 
Q 55.609375 28.21875 55.609375 21.1875 
Q 55.609375 10.40625 48.1875 4.484375 
Q 40.765625 -1.421875 27.09375 -1.421875 
Q 22.515625 -1.421875 17.65625 -0.515625 
Q 12.796875 0.390625 7.625 2.203125 
L 7.625 11.71875 
Q 11.71875 9.328125 16.59375 8.109375 
Q 21.484375 6.890625 26.8125 6.890625 
Q 36.078125 6.890625 40.9375 10.546875 
Q 45.796875 14.203125 45.796875 21.1875 
Q 45.796875 27.640625 41.28125 31.265625 
Q 36.765625 34.90625 28.71875 34.90625 
L 20.21875 34.90625 
L 20.21875 43.015625 
L 29.109375 43.015625 
Q 36.375 43.015625 40.234375 45.921875 
Q 44.09375 48.828125 44.09375 54.296875 
Q 44.09375 59.90625 40.109375 62.90625 
Q 36.140625 65.921875 28.71875 65.921875 
Q 24.65625 65.921875 20.015625 65.03125 
Q 15.375 64.15625 9.8125 62.3125 
L 9.8125 71.09375 
Q 15.4375 72.65625 20.34375 73.4375 
Q 25.25 74.21875 29.59375 74.21875 
Q 40.828125 74.21875 47.359375 69.109375 
Q 53.90625 64.015625 53.90625 55.328125 
Q 53.90625 49.265625 50.4375 45.09375 
Q 46.96875 40.921875 40.578125 39.3125 
" id="DejaVuSans-33"/>
      </defs>
      <g transform="translate(246.717383 303.028562)scale(0.1 -0.1)">
       <use xlink:href="#DejaVuSans-33"/>
      </g>
     </g>
    </g>
    <g id="xtick_5">
     <g id="line2d_9">
      <path clip-path="url(#p125df2fc3f)" d="M 314.959664 288.430125 
L 314.959664 22.318125 
" style="fill:none;stroke:#b0b0b0;stroke-linecap:square;stroke-width:0.8;"/>
     </g>
     <g id="line2d_10">
      <g>
       <use style="stroke:#000000;stroke-width:0.8;" x="314.959664" xlink:href="#m715a076a17" y="288.430125"/>
      </g>
     </g>
     <g id="text_5">
      <!-- 4 -->
      <defs>
       <path d="M 37.796875 64.3125 
L 12.890625 25.390625 
L 37.796875 25.390625 
z
M 35.203125 72.90625 
L 47.609375 72.90625 
L 47.609375 25.390625 
L 58.015625 25.390625 
L 58.015625 17.1875 
L 47.609375 17.1875 
L 47.609375 0 
L 37.796875 0 
L 37.796875 17.1875 
L 4.890625 17.1875 
L 4.890625 26.703125 
z
" id="DejaVuSans-34"/>
      </defs>
      <g transform="translate(311.778414 303.028562)scale(0.1 -0.1)">
       <use xlink:href="#DejaVuSans-34"/>
      </g>
     </g>
    </g>
    <g id="xtick_6">
     <g id="line2d_11">
      <path clip-path="url(#p125df2fc3f)" d="M 380.020696 288.430125 
L 380.020696 22.318125 
" style="fill:none;stroke:#b0b0b0;stroke-linecap:square;stroke-width:0.8;"/>
     </g>
     <g id="line2d_12">
      <g>
       <use style="stroke:#000000;stroke-width:0.8;" x="380.020696" xlink:href="#m715a076a17" y="288.430125"/>
      </g>
     </g>
     <g id="text_6">
      <!-- 5 -->
      <defs>
       <path d="M 10.796875 72.90625 
L 49.515625 72.90625 
L 49.515625 64.59375 
L 19.828125 64.59375 
L 19.828125 46.734375 
Q 21.96875 47.46875 24.109375 47.828125 
Q 26.265625 48.1875 28.421875 48.1875 
Q 40.625 48.1875 47.75 41.5 
Q 54.890625 34.8125 54.890625 23.390625 
Q 54.890625 11.625 47.5625 5.09375 
Q 40.234375 -1.421875 26.90625 -1.421875 
Q 22.3125 -1.421875 17.546875 -0.640625 
Q 12.796875 0.140625 7.71875 1.703125 
L 7.71875 11.625 
Q 12.109375 9.234375 16.796875 8.0625 
Q 21.484375 6.890625 26.703125 6.890625 
Q 35.15625 6.890625 40.078125 11.328125 
Q 45.015625 15.765625 45.015625 23.390625 
Q 45.015625 31 40.078125 35.4375 
Q 35.15625 39.890625 26.703125 39.890625 
Q 22.75 39.890625 18.8125 39.015625 
Q 14.890625 38.140625 10.796875 36.28125 
z
" id="DejaVuSans-35"/>
      </defs>
      <g transform="translate(376.839446 303.028562)scale(0.1 -0.1)">
       <use xlink:href="#DejaVuSans-35"/>
      </g>
     </g>
    </g>
   </g>
   <g id="matplotlib.axis_2">
    <g id="ytick_1">
     <g id="line2d_13">
      <path clip-path="url(#p125df2fc3f)" d="M 38.482813 276.536147 
L 395.602813 276.536147 
" style="fill:none;stroke:#b0b0b0;stroke-linecap:square;stroke-width:0.8;"/>
     </g>
     <g id="line2d_14">
      <defs>
       <path d="M 0 0 
L -3.5 0 
" id="m4a4f389393" style="stroke:#000000;stroke-width:0.8;"/>
      </defs>
      <g>
       <use style="stroke:#000000;stroke-width:0.8;" x="38.482813" xlink:href="#m4a4f389393" y="276.536147"/>
      </g>
     </g>
     <g id="text_7">
      <!-- −0.2 -->
      <defs>
       <path d="M 10.59375 35.5 
L 73.1875 35.5 
L 73.1875 27.203125 
L 10.59375 27.203125 
z
" id="DejaVuSans-2212"/>
       <path d="M 10.6875 12.40625 
L 21 12.40625 
L 21 0 
L 10.6875 0 
z
" id="DejaVuSans-2e"/>
      </defs>
      <g transform="translate(7.2 280.335366)scale(0.1 -0.1)">
       <use xlink:href="#DejaVuSans-2212"/>
       <use x="83.789062" xlink:href="#DejaVuSans-30"/>
       <use x="147.412109" xlink:href="#DejaVuSans-2e"/>
       <use x="179.199219" xlink:href="#DejaVuSans-32"/>
      </g>
     </g>
    </g>
    <g id="ytick_2">
     <g id="line2d_15">
      <path clip-path="url(#p125df2fc3f)" d="M 38.482813 236.182477 
L 395.602813 236.182477 
" style="fill:none;stroke:#b0b0b0;stroke-linecap:square;stroke-width:0.8;"/>
     </g>
     <g id="line2d_16">
      <g>
       <use style="stroke:#000000;stroke-width:0.8;" x="38.482813" xlink:href="#m4a4f389393" y="236.182477"/>
      </g>
     </g>
     <g id="text_8">
      <!-- 0.0 -->
      <g transform="translate(15.579688 239.981695)scale(0.1 -0.1)">
       <use xlink:href="#DejaVuSans-30"/>
       <use x="63.623047" xlink:href="#DejaVuSans-2e"/>
       <use x="95.410156" xlink:href="#DejaVuSans-30"/>
      </g>
     </g>
    </g>
    <g id="ytick_3">
     <g id="line2d_17">
      <path clip-path="url(#p125df2fc3f)" d="M 38.482813 195.828806 
L 395.602813 195.828806 
" style="fill:none;stroke:#b0b0b0;stroke-linecap:square;stroke-width:0.8;"/>
     </g>
     <g id="line2d_18">
      <g>
       <use style="stroke:#000000;stroke-width:0.8;" x="38.482813" xlink:href="#m4a4f389393" y="195.828806"/>
      </g>
     </g>
     <g id="text_9">
      <!-- 0.2 -->
      <g transform="translate(15.579688 199.628025)scale(0.1 -0.1)">
       <use xlink:href="#DejaVuSans-30"/>
       <use x="63.623047" xlink:href="#DejaVuSans-2e"/>
       <use x="95.410156" xlink:href="#DejaVuSans-32"/>
      </g>
     </g>
    </g>
    <g id="ytick_4">
     <g id="line2d_19">
      <path clip-path="url(#p125df2fc3f)" d="M 38.482813 155.475136 
L 395.602813 155.475136 
" style="fill:none;stroke:#b0b0b0;stroke-linecap:square;stroke-width:0.8;"/>
     </g>
     <g id="line2d_20">
      <g>
       <use style="stroke:#000000;stroke-width:0.8;" x="38.482813" xlink:href="#m4a4f389393" y="155.475136"/>
      </g>
     </g>
     <g id="text_10">
      <!-- 0.4 -->
      <g transform="translate(15.579688 159.274355)scale(0.1 -0.1)">
       <use xlink:href="#DejaVuSans-30"/>
       <use x="63.623047" xlink:href="#DejaVuSans-2e"/>
       <use x="95.410156" xlink:href="#DejaVuSans-34"/>
      </g>
     </g>
    </g>
    <g id="ytick_5">
     <g id="line2d_21">
      <path clip-path="url(#p125df2fc3f)" d="M 38.482813 115.121466 
L 395.602813 115.121466 
" style="fill:none;stroke:#b0b0b0;stroke-linecap:square;stroke-width:0.8;"/>
     </g>
     <g id="line2d_22">
      <g>
       <use style="stroke:#000000;stroke-width:0.8;" x="38.482813" xlink:href="#m4a4f389393" y="115.121466"/>
      </g>
     </g>
     <g id="text_11">
      <!-- 0.6 -->
      <defs>
       <path d="M 33.015625 40.375 
Q 26.375 40.375 22.484375 35.828125 
Q 18.609375 31.296875 18.609375 23.390625 
Q 18.609375 15.53125 22.484375 10.953125 
Q 26.375 6.390625 33.015625 6.390625 
Q 39.65625 6.390625 43.53125 10.953125 
Q 47.40625 15.53125 47.40625 23.390625 
Q 47.40625 31.296875 43.53125 35.828125 
Q 39.65625 40.375 33.015625 40.375 
M 52.59375 71.296875 
L 52.59375 62.3125 
Q 48.875 64.0625 45.09375 64.984375 
Q 41.3125 65.921875 37.59375 65.921875 
Q 27.828125 65.921875 22.671875 59.328125 
Q 17.53125 52.734375 16.796875 39.40625 
Q 19.671875 43.65625 24.015625 45.921875 
Q 28.375 48.1875 33.59375 48.1875 
Q 44.578125 48.1875 50.953125 41.515625 
Q 57.328125 34.859375 57.328125 23.390625 
Q 57.328125 12.15625 50.6875 5.359375 
Q 44.046875 -1.421875 33.015625 -1.421875 
Q 20.359375 -1.421875 13.671875 8.265625 
Q 6.984375 17.96875 6.984375 36.375 
Q 6.984375 53.65625 15.1875 63.9375 
Q 23.390625 74.21875 37.203125 74.21875 
Q 40.921875 74.21875 44.703125 73.484375 
Q 48.484375 72.75 52.59375 71.296875 
" id="DejaVuSans-36"/>
      </defs>
      <g transform="translate(15.579688 118.920684)scale(0.1 -0.1)">
       <use xlink:href="#DejaVuSans-30"/>
       <use x="63.623047" xlink:href="#DejaVuSans-2e"/>
       <use x="95.410156" xlink:href="#DejaVuSans-36"/>
      </g>
     </g>
    </g>
    <g id="ytick_6">
     <g id="line2d_23">
      <path clip-path="url(#p125df2fc3f)" d="M 38.482813 74.767795 
L 395.602813 74.767795 
" style="fill:none;stroke:#b0b0b0;stroke-linecap:square;stroke-width:0.8;"/>
     </g>
     <g id="line2d_24">
      <g>
       <use style="stroke:#000000;stroke-width:0.8;" x="38.482813" xlink:href="#m4a4f389393" y="74.767795"/>
      </g>
     </g>
     <g id="text_12">
      <!-- 0.8 -->
      <defs>
       <path d="M 31.78125 34.625 
Q 24.75 34.625 20.71875 30.859375 
Q 16.703125 27.09375 16.703125 20.515625 
Q 16.703125 13.921875 20.71875 10.15625 
Q 24.75 6.390625 31.78125 6.390625 
Q 38.8125 6.390625 42.859375 10.171875 
Q 46.921875 13.96875 46.921875 20.515625 
Q 46.921875 27.09375 42.890625 30.859375 
Q 38.875 34.625 31.78125 34.625 
M 21.921875 38.8125 
Q 15.578125 40.375 12.03125 44.71875 
Q 8.5 49.078125 8.5 55.328125 
Q 8.5 64.0625 14.71875 69.140625 
Q 20.953125 74.21875 31.78125 74.21875 
Q 42.671875 74.21875 48.875 69.140625 
Q 55.078125 64.0625 55.078125 55.328125 
Q 55.078125 49.078125 51.53125 44.71875 
Q 48 40.375 41.703125 38.8125 
Q 48.828125 37.15625 52.796875 32.3125 
Q 56.78125 27.484375 56.78125 20.515625 
Q 56.78125 9.90625 50.3125 4.234375 
Q 43.84375 -1.421875 31.78125 -1.421875 
Q 19.734375 -1.421875 13.25 4.234375 
Q 6.78125 9.90625 6.78125 20.515625 
Q 6.78125 27.484375 10.78125 32.3125 
Q 14.796875 37.15625 21.921875 38.8125 
M 18.3125 54.390625 
Q 18.3125 48.734375 21.84375 45.5625 
Q 25.390625 42.390625 31.78125 42.390625 
Q 38.140625 42.390625 41.71875 45.5625 
Q 45.3125 48.734375 45.3125 54.390625 
Q 45.3125 60.0625 41.71875 63.234375 
Q 38.140625 66.40625 31.78125 66.40625 
Q 25.390625 66.40625 21.84375 63.234375 
Q 18.3125 60.0625 18.3125 54.390625 
" id="DejaVuSans-38"/>
      </defs>
      <g transform="translate(15.579688 78.567014)scale(0.1 -0.1)">
       <use xlink:href="#DejaVuSans-30"/>
       <use x="63.623047" xlink:href="#DejaVuSans-2e"/>
       <use x="95.410156" xlink:href="#DejaVuSans-38"/>
      </g>
     </g>
    </g>
    <g id="ytick_7">
     <g id="line2d_25">
      <path clip-path="url(#p125df2fc3f)" d="M 38.482813 34.414125 
L 395.602813 34.414125 
" style="fill:none;stroke:#b0b0b0;stroke-linecap:square;stroke-width:0.8;"/>
     </g>
     <g id="line2d_26">
      <g>
       <use style="stroke:#000000;stroke-width:0.8;" x="38.482813" xlink:href="#m4a4f389393" y="34.414125"/>
      </g>
     </g>
     <g id="text_13">
      <!-- 1.0 -->
      <g transform="translate(15.579688 38.213344)scale(0.1 -0.1)">
       <use xlink:href="#DejaVuSans-31"/>
       <use x="63.623047" xlink:href="#DejaVuSans-2e"/>
       <use x="95.410156" xlink:href="#DejaVuSans-30"/>
      </g>
     </g>
    </g>
   </g>
   <g id="line2d_27">
    <path clip-path="url(#p125df2fc3f)" d="M 54.71554 34.414125 
L 61.221643 34.513079 
L 62.522864 34.701539 
L 63.824084 35.099934 
L 65.125305 35.83153 
L 66.426525 37.039603 
L 67.727746 38.87558 
L 69.028967 41.485926 
L 70.330187 44.999696 
L 71.631408 49.518173 
L 72.932628 55.107468 
L 74.233849 61.794377 
L 75.53507 69.565394 
L 77.486901 83.13109 
L 79.438732 98.694314 
L 82.041173 121.763753 
L 91.149717 205.460589 
L 93.101548 220.639615 
L 95.053379 233.995858 
L 96.3546 241.772437 
L 97.65582 248.591201 
L 98.957041 254.422949 
L 100.258262 259.254356 
L 101.559482 263.08723 
L 102.860703 265.937631 
L 103.511313 267.00308 
L 104.161923 267.834888 
L 104.812534 268.438616 
L 105.463144 268.820514 
L 106.113754 268.987483 
L 106.764365 268.947035 
L 107.414975 268.707252 
L 108.065585 268.276743 
L 108.716196 267.664607 
L 110.017416 265.934013 
L 111.318637 263.596317 
L 112.619857 260.737336 
L 114.571688 255.667506 
L 117.17413 247.930758 
L 123.029622 229.914064 
L 124.981453 224.682969 
L 126.933284 220.209836 
L 128.234505 217.73165 
L 129.535726 215.701994 
L 130.836946 214.149747 
L 132.138167 213.094757 
L 132.788777 212.757478 
L 133.439387 212.547897 
L 134.089998 212.466003 
L 134.740608 212.511253 
L 135.391218 212.682586 
L 136.041829 212.97844 
L 137.343049 213.935031 
L 138.64427 215.359091 
L 139.945491 217.221802 
L 141.246711 219.488171 
L 142.547932 222.117795 
L 144.499763 226.643893 
L 147.102204 233.501453 
L 151.005866 244.67997 
L 154.909528 255.639883 
L 157.511969 262.167689 
L 159.4638 266.41899 
L 161.415631 269.995791 
L 162.716851 271.964087 
L 164.018072 273.578178 
L 165.319293 274.826061 
L 166.620513 275.701221 
L 167.921734 276.20254 
L 169.222955 276.334125 
L 170.524175 276.105067 
L 171.825396 275.529139 
L 173.126616 274.624428 
L 174.427837 273.412924 
L 175.729058 271.920063 
L 177.680889 269.21602 
L 179.63272 266.04894 
L 182.235161 261.303348 
L 187.440043 251.066407 
L 190.693095 244.927082 
L 193.295536 240.524097 
L 195.247367 237.635376 
L 197.199198 235.162895 
L 199.151029 233.144135 
L 200.45225 232.061176 
L 201.75347 231.191263 
L 203.054691 230.533151 
L 204.355911 230.082558 
L 205.657132 229.832357 
L 206.958353 229.772797 
L 208.259573 229.891754 
L 209.560794 230.175012 
L 211.512625 230.872526 
L 213.464456 231.843387 
L 216.066897 233.450297 
L 219.970559 236.204544 
L 223.874221 238.908649 
L 226.476662 240.457443 
L 228.428493 241.408532 
L 230.380324 242.141516 
L 232.332155 242.633082 
L 234.283986 242.869941 
L 236.235817 242.848694 
L 238.187648 242.575379 
L 240.139479 242.064728 
L 242.091309 241.339176 
L 244.693751 240.088292 
L 247.296192 238.589695 
L 251.850464 235.651841 
L 256.404736 232.750128 
L 259.657788 230.955956 
L 262.260229 229.790545 
L 264.86267 228.916618 
L 266.814501 228.469748 
L 268.766332 228.207212 
L 270.718163 228.127569 
L 272.669994 228.223798 
L 275.272435 228.604167 
L 277.874877 229.234805 
L 281.127928 230.296642 
L 285.6822 232.087522 
L 292.188303 234.680492 
L 295.441355 235.769358 
L 298.694407 236.622783 
L 301.947458 237.201715 
L 304.549899 237.459128 
L 307.802951 237.534973 
L 311.056003 237.370503 
L 314.959664 236.930271 
L 321.465768 235.900244 
L 327.32126 235.030498 
L 331.224922 234.63997 
L 335.128584 234.464004 
L 339.032246 234.517997 
L 342.935908 234.784517 
L 348.14079 235.39086 
L 363.755438 237.437622 
L 368.30971 237.723468 
L 372.863982 237.792084 
L 378.068865 237.62806 
L 379.370085 237.554054 
L 379.370085 237.554054 
" style="fill:none;stroke:#1f77b4;stroke-linecap:square;stroke-width:1.5;"/>
   </g>
   <g id="line2d_28">
    <path clip-path="url(#p125df2fc3f)" d="M 54.71554 34.414125 
L 61.221643 34.482095 
L 63.173474 34.727096 
L 64.474694 35.10809 
L 65.775915 35.772407 
L 67.077136 36.827601 
L 68.378356 38.384368 
L 69.679577 40.547614 
L 70.980798 43.408339 
L 72.282018 47.037129 
L 73.583239 51.479726 
L 74.884459 56.75476 
L 76.18568 62.853516 
L 78.137511 73.464094 
L 80.089342 85.634746 
L 82.691783 103.766343 
L 86.595445 133.29855 
L 91.149717 167.782884 
L 93.752158 186.02671 
L 96.3546 202.492363 
L 98.306431 213.438272 
L 100.258262 223.061069 
L 102.210093 231.302363 
L 103.511313 236.019301 
L 104.812534 240.118657 
L 106.113754 243.611761 
L 107.414975 246.516104 
L 108.716196 248.854696 
L 110.017416 250.655423 
L 111.318637 251.95039 
L 112.619857 252.775271 
L 113.921078 253.168658 
L 115.222299 253.171419 
L 116.523519 252.826071 
L 117.82474 252.176163 
L 119.125961 251.265686 
L 121.077792 249.507221 
L 123.029622 247.405876 
L 126.282674 243.511897 
L 130.186336 238.879551 
L 132.788777 236.182477 
L 134.740608 234.490803 
L 136.692439 233.140501 
L 137.99366 232.447096 
L 139.29488 231.926371 
L 140.596101 231.581037 
L 141.897322 231.410872 
L 143.198542 231.412926 
L 144.499763 231.58173 
L 145.800983 231.909542 
L 147.752814 232.677538 
L 149.704645 233.740787 
L 151.656476 235.052303 
L 154.258917 237.097218 
L 158.162579 240.534841 
L 163.367462 245.140819 
L 165.969903 247.198074 
L 168.572344 248.970146 
L 170.524175 250.071817 
L 172.476006 250.9563 
L 174.427837 251.611178 
L 176.379668 252.030912 
L 178.331499 252.216474 
L 180.28333 252.174834 
L 182.235161 251.91831 
L 184.186992 251.463828 
L 186.789433 250.586179 
L 189.391874 249.450659 
L 192.644926 247.764197 
L 197.849808 244.744875 
L 203.705301 241.394453 
L 207.608963 239.443338 
L 210.862015 238.08057 
L 214.115066 236.990981 
L 217.368118 236.182477 
L 220.621169 235.64304 
L 223.874221 235.344566 
L 227.777883 235.247982 
L 232.332155 235.392684 
L 240.790089 235.968426 
L 247.946802 236.353985 
L 253.802295 236.433697 
L 259.657788 236.285914 
L 267.465112 235.844962 
L 281.127928 235.048008 
L 288.284642 234.883479 
L 295.441355 234.94406 
L 304.549899 235.259413 
L 325.369429 236.068085 
L 336.429805 236.217374 
L 354.646893 236.18439 
L 378.719475 236.219405 
L 379.370085 236.222634 
L 379.370085 236.222634 
" style="fill:none;stroke:#ff7f0e;stroke-linecap:square;stroke-width:1.5;"/>
   </g>
   <g id="line2d_29">
    <path clip-path="url(#p125df2fc3f)" d="M 54.71554 34.414125 
L 61.221643 34.489897 
L 63.173474 34.762744 
L 64.474694 35.186697 
L 65.775915 35.925363 
L 67.077136 37.097701 
L 68.378356 38.82578 
L 69.679577 41.224802 
L 70.980798 44.394064 
L 72.282018 48.409743 
L 73.583239 53.320013 
L 74.884459 59.142589 
L 76.18568 65.864549 
L 78.137511 77.535177 
L 80.089342 90.883935 
L 82.691783 110.691406 
L 86.595445 142.714643 
L 90.499107 174.522048 
L 93.101548 194.142483 
L 95.053379 207.534228 
L 97.00521 219.553238 
L 98.957041 230.048785 
L 100.258262 236.150704 
L 101.559482 241.517915 
L 102.860703 246.145679 
L 104.161923 250.038539 
L 105.463144 253.209651 
L 106.764365 255.680079 
L 108.065585 257.478047 
L 109.366806 258.638179 
L 110.017416 258.991431 
L 110.668027 259.200707 
L 111.318637 259.271779 
L 111.969247 259.210671 
L 112.619857 259.023631 
L 113.921078 258.297711 
L 115.222299 257.147507 
L 116.523519 255.628468 
L 117.82474 253.797203 
L 119.776571 250.589502 
L 122.379012 245.746977 
L 128.234505 234.508958 
L 130.186336 231.193346 
L 132.138167 228.291871 
L 134.089998 225.889927 
L 135.391218 224.597518 
L 136.692439 223.567316 
L 137.99366 222.80707 
L 139.29488 222.320084 
L 140.596101 222.105408 
L 141.897322 222.158095 
L 143.198542 222.469478 
L 144.499763 223.027498 
L 145.800983 223.817044 
L 147.102204 224.82033 
L 149.054035 226.681565 
L 151.005866 228.902732 
L 153.608307 232.281987 
L 157.511969 237.832824 
L 162.066241 244.244163 
L 164.668682 247.533818 
L 166.620513 249.712431 
L 168.572344 251.592092 
L 170.524175 253.138389 
L 172.476006 254.328255 
L 173.777227 254.917185 
L 175.078447 255.341403 
L 176.379668 255.602147 
L 177.680889 255.702595 
L 178.982109 255.647731 
L 180.93394 255.289181 
L 182.885771 254.62506 
L 184.837602 253.690185 
L 186.789433 252.524203 
L 189.391874 250.68474 
L 192.644926 248.078229 
L 201.10286 241.083267 
L 204.355911 238.77824 
L 206.958353 237.217969 
L 209.560794 235.948012 
L 212.163235 234.984955 
L 214.765676 234.328912 
L 217.368118 233.965236 
L 219.970559 233.866795 
L 222.573 233.996632 
L 225.826052 234.412639 
L 229.729714 235.15951 
L 240.790089 237.437319 
L 244.693751 237.931977 
L 247.946802 238.142248 
L 251.199854 238.162145 
L 255.103516 237.952343 
L 259.657788 237.446427 
L 266.163891 236.441264 
L 274.621825 235.142978 
L 279.826708 234.585308 
L 284.38098 234.321473 
L 288.935252 234.274122 
L 294.140134 234.451608 
L 300.646238 234.911414 
L 316.260885 236.124918 
L 322.766988 236.376261 
L 329.923702 236.428793 
L 339.682856 236.250005 
L 355.948114 235.937908 
L 367.008489 235.98519 
L 379.370085 236.196981 
L 379.370085 236.196981 
" style="fill:none;stroke:#2ca02c;stroke-linecap:square;stroke-width:1.5;"/>
   </g>
   <g id="line2d_30">
    <path clip-path="url(#p125df2fc3f)" d="M 54.71554 34.414125 
L 62.522864 34.495149 
L 64.474694 34.697475 
L 66.426525 35.160009 
L 67.727746 35.685102 
L 69.028967 36.4345 
L 70.330187 37.447339 
L 71.631408 38.755418 
L 72.932628 40.381026 
L 74.233849 42.335678 
L 75.53507 44.619742 
L 77.486901 48.638148 
L 79.438732 53.297961 
L 82.041173 60.313348 
L 85.294224 69.914918 
L 92.450938 91.375496 
L 95.053379 98.525934 
L 97.65582 105.097212 
L 100.258262 111.036318 
L 102.860703 116.341313 
L 105.463144 121.048738 
L 108.065585 125.221478 
L 110.668027 128.938094 
L 113.270468 132.284022 
L 116.523519 136.074851 
L 120.427181 140.251044 
L 130.186336 150.165985 
L 136.692439 157.01004 
L 144.499763 165.601645 
L 155.560138 177.785434 
L 160.765021 183.193036 
L 165.319293 187.638504 
L 169.873565 191.777184 
L 174.427837 195.594966 
L 178.982109 199.096332 
L 183.536381 202.298873 
L 188.090654 205.227769 
L 192.644926 207.911038 
L 197.849808 210.711755 
L 203.054691 213.26303 
L 208.910184 215.870687 
L 214.765676 218.229549 
L 220.621169 220.361335 
L 227.127272 222.483017 
L 233.633375 224.362197 
L 240.139479 226.016319 
L 247.296192 227.597968 
L 254.452905 228.955857 
L 262.260229 230.213514 
L 270.718163 231.350256 
L 279.826708 232.354421 
L 290.236473 233.272685 
L 301.947458 234.070504 
L 314.959664 234.727927 
L 329.923702 235.259015 
L 348.14079 235.675703 
L 371.562761 235.974741 
L 379.370085 236.035772 
L 379.370085 236.035772 
" style="fill:none;stroke:#d62728;stroke-linecap:square;stroke-width:1.5;"/>
   </g>
   <g id="patch_3">
    <path d="M 38.482813 288.430125 
L 38.482813 22.318125 
" style="fill:none;stroke:#000000;stroke-linecap:square;stroke-linejoin:miter;stroke-width:0.8;"/>
   </g>
   <g id="patch_4">
    <path d="M 395.602813 288.430125 
L 395.602813 22.318125 
" style="fill:none;stroke:#000000;stroke-linecap:square;stroke-linejoin:miter;stroke-width:0.8;"/>
   </g>
   <g id="patch_5">
    <path d="M 38.482813 288.430125 
L 395.602813 288.430125 
" style="fill:none;stroke:#000000;stroke-linecap:square;stroke-linejoin:miter;stroke-width:0.8;"/>
   </g>
   <g id="patch_6">
    <path d="M 38.482813 22.318125 
L 395.602813 22.318125 
" style="fill:none;stroke:#000000;stroke-linecap:square;stroke-linejoin:miter;stroke-width:0.8;"/>
   </g>
   <g id="text_14">
    <!-- Porównanie wskaźników -->
    <defs>
     <path d="M 19.671875 64.796875 
L 19.671875 37.40625 
L 32.078125 37.40625 
Q 38.96875 37.40625 42.71875 40.96875 
Q 46.484375 44.53125 46.484375 51.125 
Q 46.484375 57.671875 42.71875 61.234375 
Q 38.96875 64.796875 32.078125 64.796875 
z
M 9.8125 72.90625 
L 32.078125 72.90625 
Q 44.34375 72.90625 50.609375 67.359375 
Q 56.890625 61.8125 56.890625 51.125 
Q 56.890625 40.328125 50.609375 34.8125 
Q 44.34375 29.296875 32.078125 29.296875 
L 19.671875 29.296875 
L 19.671875 0 
L 9.8125 0 
z
" id="DejaVuSans-50"/>
     <path d="M 30.609375 48.390625 
Q 23.390625 48.390625 19.1875 42.75 
Q 14.984375 37.109375 14.984375 27.296875 
Q 14.984375 17.484375 19.15625 11.84375 
Q 23.34375 6.203125 30.609375 6.203125 
Q 37.796875 6.203125 41.984375 11.859375 
Q 46.1875 17.53125 46.1875 27.296875 
Q 46.1875 37.015625 41.984375 42.703125 
Q 37.796875 48.390625 30.609375 48.390625 
M 30.609375 56 
Q 42.328125 56 49.015625 48.375 
Q 55.71875 40.765625 55.71875 27.296875 
Q 55.71875 13.875 49.015625 6.21875 
Q 42.328125 -1.421875 30.609375 -1.421875 
Q 18.84375 -1.421875 12.171875 6.21875 
Q 5.515625 13.875 5.515625 27.296875 
Q 5.515625 40.765625 12.171875 48.375 
Q 18.84375 56 30.609375 56 
" id="DejaVuSans-6f"/>
     <path d="M 41.109375 46.296875 
Q 39.59375 47.171875 37.8125 47.578125 
Q 36.03125 48 33.890625 48 
Q 26.265625 48 22.1875 43.046875 
Q 18.109375 38.09375 18.109375 28.8125 
L 18.109375 0 
L 9.078125 0 
L 9.078125 54.6875 
L 18.109375 54.6875 
L 18.109375 46.1875 
Q 20.953125 51.171875 25.484375 53.578125 
Q 30.03125 56 36.53125 56 
Q 37.453125 56 38.578125 55.875 
Q 39.703125 55.765625 41.0625 55.515625 
z
" id="DejaVuSans-72"/>
     <path d="M 30.609375 48.390625 
Q 23.390625 48.390625 19.1875 42.75 
Q 14.984375 37.109375 14.984375 27.296875 
Q 14.984375 17.484375 19.15625 11.84375 
Q 23.34375 6.203125 30.609375 6.203125 
Q 37.796875 6.203125 41.984375 11.859375 
Q 46.1875 17.53125 46.1875 27.296875 
Q 46.1875 37.015625 41.984375 42.703125 
Q 37.796875 48.390625 30.609375 48.390625 
M 30.609375 56 
Q 42.328125 56 49.015625 48.375 
Q 55.71875 40.765625 55.71875 27.296875 
Q 55.71875 13.875 49.015625 6.21875 
Q 42.328125 -1.421875 30.609375 -1.421875 
Q 18.84375 -1.421875 12.171875 6.21875 
Q 5.515625 13.875 5.515625 27.296875 
Q 5.515625 40.765625 12.171875 48.375 
Q 18.84375 56 30.609375 56 
M 37.40625 79.984375 
L 47.125 79.984375 
L 31.21875 61.625 
L 23.734375 61.625 
z
" id="DejaVuSans-f3"/>
     <path d="M 4.203125 54.6875 
L 13.1875 54.6875 
L 24.421875 12.015625 
L 35.59375 54.6875 
L 46.1875 54.6875 
L 57.421875 12.015625 
L 68.609375 54.6875 
L 77.59375 54.6875 
L 63.28125 0 
L 52.6875 0 
L 40.921875 44.828125 
L 29.109375 0 
L 18.5 0 
z
" id="DejaVuSans-77"/>
     <path d="M 54.890625 33.015625 
L 54.890625 0 
L 45.90625 0 
L 45.90625 32.71875 
Q 45.90625 40.484375 42.875 44.328125 
Q 39.84375 48.1875 33.796875 48.1875 
Q 26.515625 48.1875 22.3125 43.546875 
Q 18.109375 38.921875 18.109375 30.90625 
L 18.109375 0 
L 9.078125 0 
L 9.078125 54.6875 
L 18.109375 54.6875 
L 18.109375 46.1875 
Q 21.34375 51.125 25.703125 53.5625 
Q 30.078125 56 35.796875 56 
Q 45.21875 56 50.046875 50.171875 
Q 54.890625 44.34375 54.890625 33.015625 
" id="DejaVuSans-6e"/>
     <path d="M 34.28125 27.484375 
Q 23.390625 27.484375 19.1875 25 
Q 14.984375 22.515625 14.984375 16.5 
Q 14.984375 11.71875 18.140625 8.90625 
Q 21.296875 6.109375 26.703125 6.109375 
Q 34.1875 6.109375 38.703125 11.40625 
Q 43.21875 16.703125 43.21875 25.484375 
L 43.21875 27.484375 
z
M 52.203125 31.203125 
L 52.203125 0 
L 43.21875 0 
L 43.21875 8.296875 
Q 40.140625 3.328125 35.546875 0.953125 
Q 30.953125 -1.421875 24.3125 -1.421875 
Q 15.921875 -1.421875 10.953125 3.296875 
Q 6 8.015625 6 15.921875 
Q 6 25.140625 12.171875 29.828125 
Q 18.359375 34.515625 30.609375 34.515625 
L 43.21875 34.515625 
L 43.21875 35.40625 
Q 43.21875 41.609375 39.140625 45 
Q 35.0625 48.390625 27.6875 48.390625 
Q 23 48.390625 18.546875 47.265625 
Q 14.109375 46.140625 10.015625 43.890625 
L 10.015625 52.203125 
Q 14.9375 54.109375 19.578125 55.046875 
Q 24.21875 56 28.609375 56 
Q 40.484375 56 46.34375 49.84375 
Q 52.203125 43.703125 52.203125 31.203125 
" id="DejaVuSans-61"/>
     <path d="M 9.421875 54.6875 
L 18.40625 54.6875 
L 18.40625 0 
L 9.421875 0 
z
M 9.421875 75.984375 
L 18.40625 75.984375 
L 18.40625 64.59375 
L 9.421875 64.59375 
z
" id="DejaVuSans-69"/>
     <path d="M 56.203125 29.59375 
L 56.203125 25.203125 
L 14.890625 25.203125 
Q 15.484375 15.921875 20.484375 11.0625 
Q 25.484375 6.203125 34.421875 6.203125 
Q 39.59375 6.203125 44.453125 7.46875 
Q 49.3125 8.734375 54.109375 11.28125 
L 54.109375 2.78125 
Q 49.265625 0.734375 44.1875 -0.34375 
Q 39.109375 -1.421875 33.890625 -1.421875 
Q 20.796875 -1.421875 13.15625 6.1875 
Q 5.515625 13.8125 5.515625 26.8125 
Q 5.515625 40.234375 12.765625 48.109375 
Q 20.015625 56 32.328125 56 
Q 43.359375 56 49.78125 48.890625 
Q 56.203125 41.796875 56.203125 29.59375 
M 47.21875 32.234375 
Q 47.125 39.59375 43.09375 43.984375 
Q 39.0625 48.390625 32.421875 48.390625 
Q 24.90625 48.390625 20.390625 44.140625 
Q 15.875 39.890625 15.1875 32.171875 
z
" id="DejaVuSans-65"/>
     <path id="DejaVuSans-20"/>
     <path d="M 44.28125 53.078125 
L 44.28125 44.578125 
Q 40.484375 46.53125 36.375 47.5 
Q 32.28125 48.484375 27.875 48.484375 
Q 21.1875 48.484375 17.84375 46.4375 
Q 14.5 44.390625 14.5 40.28125 
Q 14.5 37.15625 16.890625 35.375 
Q 19.28125 33.59375 26.515625 31.984375 
L 29.59375 31.296875 
Q 39.15625 29.25 43.1875 25.515625 
Q 47.21875 21.78125 47.21875 15.09375 
Q 47.21875 7.46875 41.1875 3.015625 
Q 35.15625 -1.421875 24.609375 -1.421875 
Q 20.21875 -1.421875 15.453125 -0.5625 
Q 10.6875 0.296875 5.421875 2 
L 5.421875 11.28125 
Q 10.40625 8.6875 15.234375 7.390625 
Q 20.0625 6.109375 24.8125 6.109375 
Q 31.15625 6.109375 34.5625 8.28125 
Q 37.984375 10.453125 37.984375 14.40625 
Q 37.984375 18.0625 35.515625 20.015625 
Q 33.0625 21.96875 24.703125 23.78125 
L 21.578125 24.515625 
Q 13.234375 26.265625 9.515625 29.90625 
Q 5.8125 33.546875 5.8125 39.890625 
Q 5.8125 47.609375 11.28125 51.796875 
Q 16.75 56 26.8125 56 
Q 31.78125 56 36.171875 55.265625 
Q 40.578125 54.546875 44.28125 53.078125 
" id="DejaVuSans-73"/>
     <path d="M 9.078125 75.984375 
L 18.109375 75.984375 
L 18.109375 31.109375 
L 44.921875 54.6875 
L 56.390625 54.6875 
L 27.390625 29.109375 
L 57.625 0 
L 45.90625 0 
L 18.109375 26.703125 
L 18.109375 0 
L 9.078125 0 
z
" id="DejaVuSans-6b"/>
     <path d="M 35.03125 79.984375 
L 44.75 79.984375 
L 28.84375 61.625 
L 21.359375 61.625 
z
M 5.515625 54.6875 
L 48.1875 54.6875 
L 48.1875 46.484375 
L 14.40625 7.171875 
L 48.1875 7.171875 
L 48.1875 0 
L 4.296875 0 
L 4.296875 8.203125 
L 38.09375 47.515625 
L 5.515625 47.515625 
z
" id="DejaVuSans-17a"/>
    </defs>
    <g transform="translate(144.315313 16.318125)scale(0.12 -0.12)">
     <use xlink:href="#DejaVuSans-50"/>
     <use x="60.255859" xlink:href="#DejaVuSans-6f"/>
     <use x="121.4375" xlink:href="#DejaVuSans-72"/>
     <use x="162.519531" xlink:href="#DejaVuSans-f3"/>
     <use x="223.701172" xlink:href="#DejaVuSans-77"/>
     <use x="305.488281" xlink:href="#DejaVuSans-6e"/>
     <use x="368.867188" xlink:href="#DejaVuSans-61"/>
     <use x="430.146484" xlink:href="#DejaVuSans-6e"/>
     <use x="493.525391" xlink:href="#DejaVuSans-69"/>
     <use x="521.308594" xlink:href="#DejaVuSans-65"/>
     <use x="582.832031" xlink:href="#DejaVuSans-20"/>
     <use x="614.619141" xlink:href="#DejaVuSans-77"/>
     <use x="696.40625" xlink:href="#DejaVuSans-73"/>
     <use x="748.505859" xlink:href="#DejaVuSans-6b"/>
     <use x="806.400391" xlink:href="#DejaVuSans-61"/>
     <use x="867.679688" xlink:href="#DejaVuSans-17a"/>
     <use x="920.169922" xlink:href="#DejaVuSans-6e"/>
     <use x="983.548828" xlink:href="#DejaVuSans-69"/>
     <use x="1011.332031" xlink:href="#DejaVuSans-6b"/>
     <use x="1069.195312" xlink:href="#DejaVuSans-f3"/>
     <use x="1130.376953" xlink:href="#DejaVuSans-77"/>
    </g>
   </g>
   <g id="legend_1">
    <g id="patch_7">
     <path d="M 322.462813 285.430125 
L 391.402813 285.430125 
Q 392.602813 285.430125 392.602813 284.230125 
L 392.602813 231.310125 
Q 392.602813 230.110125 391.402813 230.110125 
L 322.462813 230.110125 
Q 321.262813 230.110125 321.262813 231.310125 
L 321.262813 284.230125 
Q 321.262813 285.430125 322.462813 285.430125 
z
" style="fill:#ffffff;opacity:0.8;stroke:#cccccc;stroke-linejoin:miter;"/>
    </g>
    <g id="line2d_31">
     <path d="M 323.662813 237.610125 
L 335.662813 237.610125 
" style="fill:none;stroke:#1f77b4;stroke-linecap:square;stroke-width:1.5;"/>
    </g>
    <g id="line2d_32"/>
    <g id="text_15">
     <!-- $\int_0^\infty e^2(t) \mathrm{d}t$ -->
     <defs>
      <path d="M 33.34375 86.328125 
Q 33.9375 97.859375 39.5 102.4375 
Q 45.0625 107.03125 50.28125 107.03125 
Q 55.515625 107.03125 59.890625 102.734375 
Q 64.265625 98.4375 65.625 88.71875 
L 55.375 87.703125 
Q 54.203125 96.6875 50.296875 96.6875 
Q 45.40625 96.6875 44.828125 84.578125 
L 40.328125 -9.328125 
Q 39.796875 -20.84375 34.171875 -25.4375 
Q 28.5625 -30.03125 23.390625 -30.03125 
Q 18.171875 -30.03125 13.796875 -25.734375 
Q 9.421875 -21.4375 8.0625 -11.71875 
L 18.3125 -10.6875 
Q 19.484375 -19.671875 23.390625 -19.671875 
Q 28.265625 -19.671875 28.859375 -7.625 
z
" id="DejaVuSansDisplay-222b"/>
      <path d="M 45.5625 17.046875 
Q 44.046875 18.796875 41.65625 22.90625 
Q 38.375 17.046875 35.5 14.453125 
Q 31.890625 11.328125 26.265625 11.328125 
Q 19.671875 11.328125 15.328125 16.265625 
Q 10.75 21.4375 10.75 29.984375 
Q 10.75 38.1875 15.328125 43.75 
Q 19.4375 48.6875 26.375 48.6875 
Q 29.9375 48.6875 32.5625 47.21875 
Q 35.640625 45.609375 37.75 42.828125 
Q 39.703125 40.328125 41.65625 36.96875 
Q 44.921875 42.828125 47.796875 45.40625 
Q 51.421875 48.53125 57.03125 48.53125 
Q 63.625 48.53125 67.96875 43.609375 
Q 72.5625 38.421875 72.5625 29.890625 
Q 72.5625 21.6875 67.96875 16.109375 
Q 63.875 11.1875 56.9375 11.1875 
Q 53.375 11.1875 50.734375 12.640625 
Q 48.09375 13.96875 45.5625 17.046875 
M 25.734375 17.71875 
Q 33.796875 17.71875 38.625 29.4375 
Q 32.421875 42.234375 25.734375 42.234375 
Q 20.84375 42.234375 18.359375 38.71875 
Q 15.671875 34.96875 15.671875 29.984375 
Q 15.671875 24.515625 18.359375 21.140625 
Q 21.09375 17.71875 25.734375 17.71875 
M 57.5625 42.140625 
Q 50.296875 42.140625 44.671875 30.421875 
Q 50.828125 17.625 57.5625 17.625 
Q 62.453125 17.625 64.9375 21.140625 
Q 67.625 24.90625 67.625 29.890625 
Q 67.625 35.359375 64.9375 38.71875 
Q 62.203125 42.140625 57.5625 42.140625 
" id="DejaVuSans-221e"/>
      <path d="M 48.09375 32.234375 
Q 48.25 33.015625 48.3125 33.84375 
Q 48.390625 34.671875 48.390625 35.5 
Q 48.390625 41.453125 44.890625 44.921875 
Q 41.40625 48.390625 35.40625 48.390625 
Q 28.71875 48.390625 23.578125 44.15625 
Q 18.453125 39.9375 15.828125 32.171875 
z
M 55.90625 25.203125 
L 14.109375 25.203125 
Q 13.8125 23.34375 13.71875 22.265625 
Q 13.625 21.1875 13.625 20.40625 
Q 13.625 13.625 17.796875 9.90625 
Q 21.96875 6.203125 29.59375 6.203125 
Q 35.453125 6.203125 40.671875 7.515625 
Q 45.90625 8.84375 50.390625 11.375 
L 48.6875 2.484375 
Q 43.84375 0.53125 38.6875 -0.4375 
Q 33.546875 -1.421875 28.21875 -1.421875 
Q 16.84375 -1.421875 10.71875 4.015625 
Q 4.59375 9.46875 4.59375 19.484375 
Q 4.59375 28.03125 7.640625 35.375 
Q 10.6875 42.71875 16.609375 48.484375 
Q 20.40625 52.09375 25.65625 54.046875 
Q 30.90625 56 36.8125 56 
Q 46.09375 56 51.578125 50.4375 
Q 57.078125 44.875 57.078125 35.5 
Q 57.078125 33.25 56.78125 30.6875 
Q 56.5 28.125 55.90625 25.203125 
" id="DejaVuSans-Oblique-65"/>
      <path d="M 31 75.875 
Q 24.46875 64.65625 21.28125 53.65625 
Q 18.109375 42.671875 18.109375 31.390625 
Q 18.109375 20.125 21.3125 9.0625 
Q 24.515625 -2 31 -13.1875 
L 23.1875 -13.1875 
Q 15.875 -1.703125 12.234375 9.375 
Q 8.59375 20.453125 8.59375 31.390625 
Q 8.59375 42.28125 12.203125 53.3125 
Q 15.828125 64.359375 23.1875 75.875 
z
" id="DejaVuSans-28"/>
      <path d="M 42.28125 54.6875 
L 40.921875 47.703125 
L 23 47.703125 
L 17.1875 18.015625 
Q 16.890625 16.359375 16.75 15.234375 
Q 16.609375 14.109375 16.609375 13.484375 
Q 16.609375 10.359375 18.484375 8.9375 
Q 20.359375 7.515625 24.515625 7.515625 
L 33.59375 7.515625 
L 32.078125 0 
L 23.484375 0 
Q 15.484375 0 11.546875 3.125 
Q 7.625 6.25 7.625 12.59375 
Q 7.625 13.71875 7.765625 15.0625 
Q 7.90625 16.40625 8.203125 18.015625 
L 14.015625 47.703125 
L 6.390625 47.703125 
L 7.8125 54.6875 
L 15.28125 54.6875 
L 18.3125 70.21875 
L 27.296875 70.21875 
L 24.3125 54.6875 
z
" id="DejaVuSans-Oblique-74"/>
      <path d="M 8.015625 75.875 
L 15.828125 75.875 
Q 23.140625 64.359375 26.78125 53.3125 
Q 30.421875 42.28125 30.421875 31.390625 
Q 30.421875 20.453125 26.78125 9.375 
Q 23.140625 -1.703125 15.828125 -13.1875 
L 8.015625 -13.1875 
Q 14.5 -2 17.703125 9.0625 
Q 20.90625 20.125 20.90625 31.390625 
Q 20.90625 42.671875 17.703125 53.65625 
Q 14.5 64.65625 8.015625 75.875 
" id="DejaVuSans-29"/>
      <path d="M 45.40625 46.390625 
L 45.40625 75.984375 
L 54.390625 75.984375 
L 54.390625 0 
L 45.40625 0 
L 45.40625 8.203125 
Q 42.578125 3.328125 38.25 0.953125 
Q 33.9375 -1.421875 27.875 -1.421875 
Q 17.96875 -1.421875 11.734375 6.484375 
Q 5.515625 14.40625 5.515625 27.296875 
Q 5.515625 40.1875 11.734375 48.09375 
Q 17.96875 56 27.875 56 
Q 33.9375 56 38.25 53.625 
Q 42.578125 51.265625 45.40625 46.390625 
M 14.796875 27.296875 
Q 14.796875 17.390625 18.875 11.75 
Q 22.953125 6.109375 30.078125 6.109375 
Q 37.203125 6.109375 41.296875 11.75 
Q 45.40625 17.390625 45.40625 27.296875 
Q 45.40625 37.203125 41.296875 42.84375 
Q 37.203125 48.484375 30.078125 48.484375 
Q 22.953125 48.484375 18.875 42.84375 
Q 14.796875 37.203125 14.796875 27.296875 
" id="DejaVuSans-64"/>
     </defs>
     <g transform="translate(340.462813 239.710125)scale(0.06 -0.06)">
      <use transform="translate(0 0.7625)" xlink:href="#DejaVuSansDisplay-222b"/>
      <use transform="translate(86.744141 85.91875)scale(0.7)" xlink:href="#DejaVuSans-221e"/>
      <use transform="translate(71.759766 -51.14375)scale(0.7)" xlink:href="#DejaVuSans-30"/>
      <use transform="translate(145.054688 0.7625)" xlink:href="#DejaVuSans-Oblique-65"/>
      <use transform="translate(211.228021 39.04375)scale(0.7)" xlink:href="#DejaVuSans-32"/>
      <use transform="translate(258.498529 0.7625)" xlink:href="#DejaVuSans-28"/>
      <use transform="translate(297.512201 0.7625)" xlink:href="#DejaVuSans-Oblique-74"/>
      <use transform="translate(336.721185 0.7625)" xlink:href="#DejaVuSans-29"/>
      <use transform="translate(375.734857 0.7625)" xlink:href="#DejaVuSans-64"/>
      <use transform="translate(439.211419 0.7625)" xlink:href="#DejaVuSans-Oblique-74"/>
     </g>
    </g>
    <g id="line2d_33">
     <path d="M 323.662813 250.990125 
L 335.662813 250.990125 
" style="fill:none;stroke:#ff7f0e;stroke-linecap:square;stroke-width:1.5;"/>
    </g>
    <g id="line2d_34"/>
    <g id="text_16">
     <!-- $\int_0^\infty |e(t)| \mathrm{d}t$ -->
     <defs>
      <path d="M 21 76.421875 
L 21 -23.578125 
L 12.703125 -23.578125 
L 12.703125 76.421875 
z
" id="DejaVuSans-7c"/>
     </defs>
     <g transform="translate(340.462813 253.090125)scale(0.06 -0.06)">
      <use transform="translate(0 0.7625)" xlink:href="#DejaVuSansDisplay-222b"/>
      <use transform="translate(86.744141 85.91875)scale(0.7)" xlink:href="#DejaVuSans-221e"/>
      <use transform="translate(71.759766 -51.14375)scale(0.7)" xlink:href="#DejaVuSans-30"/>
      <use transform="translate(145.054688 0.7625)" xlink:href="#DejaVuSans-7c"/>
      <use transform="translate(178.746094 0.7625)" xlink:href="#DejaVuSans-Oblique-65"/>
      <use transform="translate(240.269531 0.7625)" xlink:href="#DejaVuSans-28"/>
      <use transform="translate(279.283203 0.7625)" xlink:href="#DejaVuSans-Oblique-74"/>
      <use transform="translate(318.492188 0.7625)" xlink:href="#DejaVuSans-29"/>
      <use transform="translate(357.505859 0.7625)" xlink:href="#DejaVuSans-7c"/>
      <use transform="translate(391.197266 0.7625)" xlink:href="#DejaVuSans-64"/>
      <use transform="translate(454.673828 0.7625)" xlink:href="#DejaVuSans-Oblique-74"/>
     </g>
    </g>
    <g id="line2d_35">
     <path d="M 323.662813 264.370125 
L 335.662813 264.370125 
" style="fill:none;stroke:#2ca02c;stroke-linecap:square;stroke-width:1.5;"/>
    </g>
    <g id="line2d_36"/>
    <g id="text_17">
     <!-- $\int_0^\infty te^2(t) \mathrm{d}t$ -->
     <g transform="translate(340.462813 266.470125)scale(0.06 -0.06)">
      <use transform="translate(0 0.7625)" xlink:href="#DejaVuSansDisplay-222b"/>
      <use transform="translate(86.744141 85.91875)scale(0.7)" xlink:href="#DejaVuSans-221e"/>
      <use transform="translate(71.759766 -51.14375)scale(0.7)" xlink:href="#DejaVuSans-30"/>
      <use transform="translate(145.054688 0.7625)" xlink:href="#DejaVuSans-Oblique-74"/>
      <use transform="translate(184.263672 0.7625)" xlink:href="#DejaVuSans-Oblique-65"/>
      <use transform="translate(250.437005 39.04375)scale(0.7)" xlink:href="#DejaVuSans-32"/>
      <use transform="translate(297.707513 0.7625)" xlink:href="#DejaVuSans-28"/>
      <use transform="translate(336.721185 0.7625)" xlink:href="#DejaVuSans-Oblique-74"/>
      <use transform="translate(375.930169 0.7625)" xlink:href="#DejaVuSans-29"/>
      <use transform="translate(414.943841 0.7625)" xlink:href="#DejaVuSans-64"/>
      <use transform="translate(478.420404 0.7625)" xlink:href="#DejaVuSans-Oblique-74"/>
     </g>
    </g>
    <g id="line2d_37">
     <path d="M 323.662813 277.750125 
L 335.662813 277.750125 
" style="fill:none;stroke:#d62728;stroke-linecap:square;stroke-width:1.5;"/>
    </g>
    <g id="line2d_38"/>
    <g id="text_18">
     <!-- $\int_0^\infty e^2(t) + \dot{e}^2(t) \mathrm{d}t$ -->
     <defs>
      <path d="M 46 62.703125 
L 46 35.5 
L 73.1875 35.5 
L 73.1875 27.203125 
L 46 27.203125 
L 46 0 
L 37.796875 0 
L 37.796875 27.203125 
L 10.59375 27.203125 
L 10.59375 35.5 
L 37.796875 35.5 
L 37.796875 62.703125 
z
" id="DejaVuSans-2b"/>
      <path d="M -29.59375 75.984375 
L -20.609375 75.984375 
L -20.609375 64.59375 
L -29.59375 64.59375 
z
M -25 56 
z
" id="DejaVuSans-307"/>
     </defs>
     <g transform="translate(340.462813 279.850125)scale(0.06 -0.06)">
      <use transform="translate(0 0.7625)" xlink:href="#DejaVuSansDisplay-222b"/>
      <use transform="translate(86.744141 85.91875)scale(0.7)" xlink:href="#DejaVuSans-221e"/>
      <use transform="translate(71.759766 -51.14375)scale(0.7)" xlink:href="#DejaVuSans-30"/>
      <use transform="translate(145.054688 0.7625)" xlink:href="#DejaVuSans-Oblique-65"/>
      <use transform="translate(211.228021 39.04375)scale(0.7)" xlink:href="#DejaVuSans-32"/>
      <use transform="translate(258.498529 0.7625)" xlink:href="#DejaVuSans-28"/>
      <use transform="translate(297.512201 0.7625)" xlink:href="#DejaVuSans-Oblique-74"/>
      <use transform="translate(336.721185 0.7625)" xlink:href="#DejaVuSans-29"/>
      <use transform="translate(395.217279 0.7625)" xlink:href="#DejaVuSans-2b"/>
      <use transform="translate(562.463372 13.2625)" xlink:href="#DejaVuSans-307"/>
      <use transform="translate(498.488763 0.7625)" xlink:href="#DejaVuSans-Oblique-65"/>
      <use transform="translate(560.969232 39.04375)scale(0.7)" xlink:href="#DejaVuSans-32"/>
      <use transform="translate(608.23974 0.7625)" xlink:href="#DejaVuSans-28"/>
      <use transform="translate(647.253411 0.7625)" xlink:href="#DejaVuSans-Oblique-74"/>
      <use transform="translate(686.462396 0.7625)" xlink:href="#DejaVuSans-29"/>
      <use transform="translate(725.476068 0.7625)" xlink:href="#DejaVuSans-64"/>
      <use transform="translate(788.95263 0.7625)" xlink:href="#DejaVuSans-Oblique-74"/>
     </g>
    </g>
   </g>
  </g>
 </g>
 <defs>
  <clipPath id="p125df2fc3f">
   <rect height="266.112" width="357.12" x="38.482813" y="22.318125"/>
  </clipPath>
 </defs>
</svg>
