<?xml version="1.0" encoding="utf-8" standalone="no"?>
<!DOCTYPE svg PUBLIC "-//W3C//DTD SVG 1.1//EN"
  "http://www.w3.org/Graphics/SVG/1.1/DTD/svg11.dtd">
<!-- Created with matplotlib (http://matplotlib.org/) -->
<svg height="314pt" version="1.1" viewBox="0 0 410 314" width="410pt" xmlns="http://www.w3.org/2000/svg" xmlns:xlink="http://www.w3.org/1999/xlink">
 <defs>
  <style type="text/css">
*{stroke-linecap:butt;stroke-linejoin:round;}
  </style>
 </defs>
 <g id="figure_1">
  <g id="patch_1">
   <path d="M 0 314.36825 
L 410.440313 314.36825 
L 410.440313 0 
L 0 0 
z
" style="fill:#ffffff;"/>
  </g>
  <g id="axes_1">
   <g id="patch_2">
    <path d="M 42.620313 276.812 
L 399.740313 276.812 
L 399.740313 10.7 
L 42.620313 10.7 
z
" style="fill:#ffffff;"/>
   </g>
   <g id="patch_3">
    <path clip-path="url(#p0f5504960f)" d="M 243.45606 53.510837 
L 237.60106 49.464514 
L 240.927397 48.53329 
L 240.959566 48.52143 
L 240.960828 48.523931 
L 244.287165 47.592707 
z
" style="fill:#ff7f0e;stroke:#ff7f0e;stroke-linejoin:miter;"/>
   </g>
   <g id="patch_4">
    <path clip-path="url(#p0f5504960f)" d="M 274.291468 125.54804 
L 269.15607 120.991269 
L 272.611844 120.37504 
L 272.646268 120.36789 
L 272.646575 120.368847 
L 276.102348 119.752618 
z
" style="fill:#ff7f0e;stroke:#ff7f0e;stroke-linejoin:miter;"/>
   </g>
   <g id="patch_5">
    <path clip-path="url(#p0f5504960f)" d="M 284.578405 62.184116 
L 278.953759 57.960247 
L 282.329085 57.132672 
L 282.361863 57.121762 
L 282.363008 57.124355 
L 285.738334 56.29678 
z
" style="fill:#ff7f0e;stroke:#ff7f0e;stroke-linejoin:miter;"/>
   </g>
   <g id="patch_6">
    <path clip-path="url(#p0f5504960f)" d="M 307.896916 128.645711 
L 303.149941 123.860779 
L 306.650281 123.40515 
L 306.685195 123.399438 
L 306.68546 123.400571 
L 310.185801 122.944942 
z
" style="fill:#ff7f0e;stroke:#ff7f0e;stroke-linejoin:miter;"/>
   </g>
   <g id="patch_7">
    <path clip-path="url(#p0f5504960f)" d="M 327.205158 66.263382 
L 321.791192 61.889321 
L 325.204812 61.154117 
L 325.23803 61.143919 
L 325.23912 61.146728 
L 328.652739 60.411523 
z
" style="fill:#ff7f0e;stroke:#ff7f0e;stroke-linejoin:miter;"/>
   </g>
   <g id="patch_8">
    <path clip-path="url(#p0f5504960f)" d="M 346.939439 141.214096 
L 342.910198 136.076667 
L 346.455982 135.904046 
L 346.49152 135.901195 
L 346.491618 135.902311 
L 350.037403 135.729691 
z
" style="fill:#ff7f0e;stroke:#ff7f0e;stroke-linejoin:miter;"/>
   </g>
   <g id="patch_9">
    <path clip-path="url(#p0f5504960f)" d="M 382.391191 80.285148 
L 377.286792 75.709078 
L 380.746704 75.105883 
L 380.780575 75.096948 
L 380.781477 75.099821 
L 384.241389 74.496625 
z
" style="fill:#ff7f0e;stroke:#ff7f0e;stroke-linejoin:miter;"/>
   </g>
   <g id="patch_10">
    <path clip-path="url(#p0f5504960f)" d="M 367.016123 184.287089 
L 372.07249 179.681504 
L 373.526174 182.097604 
L 373.541299 182.121714 
L 373.540784 182.121886 
L 374.994467 184.537986 
z
" style="fill:#ff7f0e;stroke:#ff7f0e;stroke-linejoin:miter;"/>
   </g>
   <g id="patch_11">
    <path clip-path="url(#p0f5504960f)" d="M 401.603303 35.879626 
L 396.294023 31.434884 
L 399.724563 30.744793 
L 399.757551 30.733747 
L 399.75904 30.737857 
L 403.189579 30.047765 
z
" style="fill:#ff7f0e;stroke:#ff7f0e;stroke-linejoin:miter;"/>
   </g>
   <g id="patch_12">
    <path clip-path="url(#p0f5504960f)" d="M 401.312828 78.409033 
L 396.257563 73.802776 
L 399.72382 73.22016 
L 399.757731 73.211246 
L 399.758657 73.214305 
L 403.224914 72.631689 
z
" style="fill:#ff7f0e;stroke:#ff7f0e;stroke-linejoin:miter;"/>
   </g>
   <g id="patch_13">
    <path clip-path="url(#p0f5504960f)" d="M 400.874638 112.07016 
L 396.214879 107.23786 
L 399.723164 106.817524 
L 399.757942 106.811071 
L 399.758423 106.813299 
L 403.266707 106.392963 
z
" style="fill:#ff7f0e;stroke:#ff7f0e;stroke-linejoin:miter;"/>
   </g>
   <g id="patch_14">
    <path clip-path="url(#p0f5504960f)" d="M 400.049476 141.86066 
L 396.172545 136.658562 
L 399.72256 136.543982 
L 399.758152 136.541338 
L 399.758239 136.54283 
L 403.308254 136.42825 
z
" style="fill:#ff7f0e;stroke:#ff7f0e;stroke-linejoin:miter;"/>
   </g>
   <g id="patch_15">
    <path clip-path="url(#p0f5504960f)" d="M 346.311214 184.929481 
L 353.923925 183.132734 
L 353.36866 185.748021 
L 353.363643 185.774371 
L 353.36308 185.774305 
L 352.807815 188.389591 
z
" style="fill:#ff7f0e;stroke:#ff7f0e;stroke-linejoin:miter;"/>
   </g>
   <g id="patch_16">
    <path clip-path="url(#p0f5504960f)" d="M 292.79637 169.939833 
L 300.77436 169.682754 
L 299.324048 172.099979 
L 299.309852 172.124399 
L 299.309472 172.124272 
L 297.859161 174.541497 
z
" style="fill:#ff7f0e;stroke:#ff7f0e;stroke-linejoin:miter;"/>
   </g>
   <g id="patch_17">
    <path clip-path="url(#p0f5504960f)" d="M 334.102921 184.11359 
L 342.058001 183.595152 
L 340.751844 186.057593 
L 340.739283 186.082508 
L 340.738717 186.082341 
L 339.43256 188.544781 
z
" style="fill:#ff7f0e;stroke:#ff7f0e;stroke-linejoin:miter;"/>
   </g>
   <g id="patch_18">
    <path clip-path="url(#p0f5504960f)" d="M 293.056626 170.273768 
L 301.040165 170.143752 
L 299.520884 172.537337 
L 299.506001 172.561529 
L 299.505615 172.561393 
L 297.986334 174.954978 
z
" style="fill:#ff7f0e;stroke:#ff7f0e;stroke-linejoin:miter;"/>
   </g>
   <g id="patch_19">
    <path clip-path="url(#p0f5504960f)" d="M 352.399496 201.51151 
L 360.173635 202.871324 
L 357.900288 204.90633 
L 357.878258 204.927289 
L 357.877441 204.926782 
L 355.604093 206.961789 
z
" style="fill:#ff7f0e;stroke:#ff7f0e;stroke-linejoin:miter;"/>
   </g>
   <g id="patch_20">
    <path clip-path="url(#p0f5504960f)" d="M 281.522269 166.704186 
L 289.499866 166.96795 
L 287.771444 169.28141 
L 287.754415 169.304803 
L 287.754073 169.304661 
L 286.025652 171.618121 
z
" style="fill:#ff7f0e;stroke:#ff7f0e;stroke-linejoin:miter;"/>
   </g>
   <g id="patch_21">
    <path clip-path="url(#p0f5504960f)" d="M 346.603593 228.491312 
L 353.643825 231.29954 
L 350.742909 232.828654 
L 350.714941 232.845272 
L 350.713754 232.844022 
L 347.812839 234.373136 
z
" style="fill:#ff7f0e;stroke:#ff7f0e;stroke-linejoin:miter;"/>
   </g>
   <g id="patch_22">
    <path clip-path="url(#p0f5504960f)" d="M 298.011482 183.292017 
L 305.461253 185.434698 
L 302.834316 187.217714 
L 302.808495 187.236108 
L 302.807915 187.235634 
L 300.180978 189.01865 
z
" style="fill:#ff7f0e;stroke:#ff7f0e;stroke-linejoin:miter;"/>
   </g>
   <g id="patch_23">
    <path clip-path="url(#p0f5504960f)" d="M 291.914773 225.408944 
L 298.443013 228.835829 
L 295.313551 230.089987 
L 295.283247 230.104182 
L 295.282099 230.102591 
L 292.152637 231.356749 
z
" style="fill:#ff7f0e;stroke:#ff7f0e;stroke-linejoin:miter;"/>
   </g>
   <g id="patch_24">
    <path clip-path="url(#p0f5504960f)" d="M 272.478192 198.854658 
L 279.051466 202.233405 
L 275.938753 203.510498 
L 275.908265 203.524409 
L 275.90747 203.523333 
L 272.794757 204.800426 
z
" style="fill:#ff7f0e;stroke:#ff7f0e;stroke-linejoin:miter;"/>
   </g>
   <g id="patch_25">
    <path clip-path="url(#p0f5504960f)" d="M 246.15457 219.127144 
L 252.324532 222.904672 
L 249.079085 223.982796 
L 249.047532 223.995411 
L 249.046467 223.993631 
L 245.80102 225.071755 
z
" style="fill:#ff7f0e;stroke:#ff7f0e;stroke-linejoin:miter;"/>
   </g>
   <g id="patch_26">
    <path clip-path="url(#p0f5504960f)" d="M 222.439236 177.889141 
L 228.461218 181.797018 
L 225.175598 182.805315 
L 225.143094 182.816386 
L 225.142576 182.815449 
L 221.856956 183.823746 
z
" style="fill:#ff7f0e;stroke:#ff7f0e;stroke-linejoin:miter;"/>
   </g>
   <g id="patch_27">
    <path clip-path="url(#p0f5504960f)" d="M 205.688752 211.804353 
L 211.559097 215.838312 
L 208.23631 216.776547 
L 208.203882 216.787878 
L 208.202915 216.785976 
L 204.880128 217.724211 
z
" style="fill:#ff7f0e;stroke:#ff7f0e;stroke-linejoin:miter;"/>
   </g>
   <g id="patch_28">
    <path clip-path="url(#p0f5504960f)" d="M 185.860911 168.135694 
L 191.320929 172.477852 
L 187.915184 173.233063 
L 187.881345 173.241628 
L 187.880956 173.240654 
L 184.475211 173.995864 
z
" style="fill:#ff7f0e;stroke:#ff7f0e;stroke-linejoin:miter;"/>
   </g>
   <g id="patch_29">
    <path clip-path="url(#p0f5504960f)" d="M 167.211819 204.489185 
L 172.803042 208.737622 
L 169.421245 209.550396 
L 169.388127 209.560573 
L 169.387257 209.558564 
L 166.00546 210.371338 
z
" style="fill:#ff7f0e;stroke:#ff7f0e;stroke-linejoin:miter;"/>
   </g>
   <g id="patch_30">
    <path clip-path="url(#p0f5504960f)" d="M 149.207913 140.003508 
L 152.93984 145.264161 
L 149.387406 145.324084 
L 149.35172 145.325253 
L 149.351703 145.324686 
L 145.799269 145.384609 
z
" style="fill:#ff7f0e;stroke:#ff7f0e;stroke-linejoin:miter;"/>
   </g>
   <g id="patch_31">
    <path clip-path="url(#p0f5504960f)" d="M 127.815931 198.834482 
L 133.144219 203.266575 
L 129.716653 203.964822 
L 129.682999 203.974002 
L 129.682206 203.971839 
L 126.25464 204.670086 
z
" style="fill:#ff7f0e;stroke:#ff7f0e;stroke-linejoin:miter;"/>
   </g>
   <g id="patch_32">
    <path clip-path="url(#p0f5504960f)" d="M 132.04365 118.266471 
L 127.799669 123.306978 
L 125.952023 121.045261 
L 125.933148 121.022669 
L 125.933454 121.022531 
L 124.085809 118.760814 
z
" style="fill:#ff7f0e;stroke:#ff7f0e;stroke-linejoin:miter;"/>
   </g>
   <g id="patch_33">
    <path clip-path="url(#p0f5504960f)" d="M 81.396858 189.947611 
L 86.416425 194.575494 
L 82.945721 195.143219 
L 82.911513 195.151214 
L 82.910839 195.148925 
L 79.440135 195.71665 
z
" style="fill:#ff7f0e;stroke:#ff7f0e;stroke-linejoin:miter;"/>
   </g>
   <g id="patch_34">
    <path clip-path="url(#p0f5504960f)" d="M 113.527651 109.295192 
L 106.260757 111.762068 
L 106.389279 109.115986 
L 106.390106 109.08938 
L 106.390571 109.089393 
L 106.519093 106.443311 
z
" style="fill:#ff7f0e;stroke:#ff7f0e;stroke-linejoin:miter;"/>
   </g>
   <g id="patch_35">
    <path clip-path="url(#p0f5504960f)" d="M 46.656118 262.710133 
L 52.025848 267.114367 
L 48.604915 267.830448 
L 48.57217 267.841985 
L 48.570534 267.837645 
L 45.149601 268.553726 
z
" style="fill:#ff7f0e;stroke:#ff7f0e;stroke-linejoin:miter;"/>
   </g>
   <g id="patch_36">
    <path clip-path="url(#p0f5504960f)" d="M 45.044319 258.365092 
L 50.393168 262.783412 
L 46.968867 263.490497 
L 46.936031 263.501849 
L 46.934452 263.497604 
L 43.510151 264.204689 
z
" style="fill:#ff7f0e;stroke:#ff7f0e;stroke-linejoin:miter;"/>
   </g>
   <g id="patch_37">
    <path clip-path="url(#p0f5504960f)" d="M 40.890786 228.802595 
L 46.084191 233.322715 
L 42.636451 233.963441 
L 42.602987 233.973426 
L 42.6018 233.96988 
L 39.15406 234.610607 
z
" style="fill:#ff7f0e;stroke:#ff7f0e;stroke-linejoin:miter;"/>
   </g>
   <g id="patch_38">
    <path clip-path="url(#p0f5504960f)" d="M 41.23983 191.545747 
L 46.123547 196.253648 
L 42.637138 196.76516 
L 42.602793 196.772926 
L 42.602099 196.770301 
L 39.11569 197.281813 
z
" style="fill:#ff7f0e;stroke:#ff7f0e;stroke-linejoin:miter;"/>
   </g>
   <g id="patch_39">
    <path clip-path="url(#p0f5504960f)" d="M 41.820486 160.278783 
L 46.168786 165.269675 
L 42.637776 165.566081 
L 42.602569 165.570913 
L 42.602289 165.56906 
L 39.071279 165.865466 
z
" style="fill:#ff7f0e;stroke:#ff7f0e;stroke-linejoin:miter;"/>
   </g>
   <g id="patch_40">
    <path clip-path="url(#p0f5504960f)" d="M 89.398849 101.99946 
L 82.128717 104.461034 
L 82.260716 101.815047 
L 82.26148 101.788439 
L 82.262043 101.788454 
L 82.394042 99.142467 
z
" style="fill:#ff7f0e;stroke:#ff7f0e;stroke-linejoin:miter;"/>
   </g>
   <g id="patch_41">
    <path clip-path="url(#p0f5504960f)" d="M 138.959665 114.059922 
L 130.993755 114.475892 
L 132.356796 112.030631 
L 132.37007 112.005924 
L 132.370495 112.006055 
L 133.733537 109.560794 
z
" style="fill:#ff7f0e;stroke:#ff7f0e;stroke-linejoin:miter;"/>
   </g>
   <g id="patch_42">
    <path clip-path="url(#p0f5504960f)" d="M 87.917885 100.149913 
L 80.331746 102.008016 
L 80.848951 99.3884 
L 80.853554 99.362007 
L 80.854149 99.362073 
L 81.371355 96.742457 
z
" style="fill:#ff7f0e;stroke:#ff7f0e;stroke-linejoin:miter;"/>
   </g>
   <g id="patch_43">
    <path clip-path="url(#p0f5504960f)" d="M 151.991496 118.345747 
L 144.010379 118.541649 
L 145.493988 116.135671 
L 145.508528 116.111363 
L 145.508898 116.11149 
L 146.992507 113.705512 
z
" style="fill:#ff7f0e;stroke:#ff7f0e;stroke-linejoin:miter;"/>
   </g>
   <g id="patch_44">
    <path clip-path="url(#p0f5504960f)" d="M 103.911185 99.285379 
L 95.929893 99.093468 
L 97.620672 96.764613 
L 97.637036 96.740954 
L 97.637665 96.741208 
L 99.328444 94.412353 
z
" style="fill:#ff7f0e;stroke:#ff7f0e;stroke-linejoin:miter;"/>
   </g>
   <g id="patch_45">
    <path clip-path="url(#p0f5504960f)" d="M 168.68377 124.167512 
L 160.698379 124.145517 
L 162.29922 121.781633 
L 162.315014 121.757765 
L 162.315308 121.757875 
L 163.916149 119.393992 
z
" style="fill:#ff7f0e;stroke:#ff7f0e;stroke-linejoin:miter;"/>
   </g>
   <g id="patch_46">
    <path clip-path="url(#p0f5504960f)" d="M 97.038857 79.547265 
L 89.57436 77.433233 
L 92.188926 75.640149 
L 92.214294 75.621391 
L 92.215203 75.622128 
L 94.829769 73.829043 
z
" style="fill:#ff7f0e;stroke:#ff7f0e;stroke-linejoin:miter;"/>
   </g>
   <g id="patch_47">
    <path clip-path="url(#p0f5504960f)" d="M 162.17198 120.379555 
L 154.242501 119.676291 
L 156.196089 117.464561 
L 156.215371 117.442161 
L 156.215723 117.442333 
L 158.169312 115.230604 
z
" style="fill:#ff7f0e;stroke:#ff7f0e;stroke-linejoin:miter;"/>
   </g>
   <g id="patch_48">
    <path clip-path="url(#p0f5504960f)" d="M 121.851186 56.811639 
L 115.105586 53.627067 
L 118.14888 52.260226 
L 118.178248 52.244983 
L 118.179466 52.246489 
L 121.22276 50.879648 
z
" style="fill:#ff7f0e;stroke:#ff7f0e;stroke-linejoin:miter;"/>
   </g>
   <g id="patch_49">
    <path clip-path="url(#p0f5504960f)" d="M 148.889908 88.882051 
L 142.006171 85.866079 
L 144.986903 84.424718 
L 145.01607 84.409325 
L 145.01686 84.410232 
L 147.997592 82.968872 
z
" style="fill:#ff7f0e;stroke:#ff7f0e;stroke-linejoin:miter;"/>
   </g>
   <g id="patch_50">
    <path clip-path="url(#p0f5504960f)" d="M 162.097399 46.49697 
L 155.752576 42.883854 
L 158.945007 41.721153 
L 158.975736 41.707401 
L 158.977091 41.709468 
L 162.169522 40.546768 
z
" style="fill:#ff7f0e;stroke:#ff7f0e;stroke-linejoin:miter;"/>
   </g>
   <g id="patch_51">
    <path clip-path="url(#p0f5504960f)" d="M 188.025276 86.238459 
L 181.699806 82.606549 
L 184.898423 81.453328 
L 184.929742 81.440464 
L 184.93057 81.441738 
L 188.129187 80.288517 
z
" style="fill:#ff7f0e;stroke:#ff7f0e;stroke-linejoin:miter;"/>
   </g>
   <g id="patch_52">
    <path clip-path="url(#p0f5504960f)" d="M 206.026804 52.483212 
L 199.955483 48.617956 
L 203.228157 47.586545 
L 203.259773 47.573932 
L 203.261049 47.576179 
L 206.533723 46.544768 
z
" style="fill:#ff7f0e;stroke:#ff7f0e;stroke-linejoin:miter;"/>
   </g>
   <g id="patch_53">
    <path clip-path="url(#p0f5504960f)" d="M 233.225779 103.1766 
L 227.371658 99.129571 
L 230.698197 98.198748 
L 230.731026 98.188196 
L 230.73163 98.189393 
L 234.058169 97.258571 
z
" style="fill:#ff7f0e;stroke:#ff7f0e;stroke-linejoin:miter;"/>
   </g>
   <g id="patch_54">
    <path clip-path="url(#p0f5504960f)" d="M 254.52271 76.314942 
L 248.774641 72.184365 
L 252.124699 71.301621 
L 252.157409 71.290729 
L 252.158368 71.292749 
L 255.508427 70.410005 
z
" style="fill:#ff7f0e;stroke:#ff7f0e;stroke-linejoin:miter;"/>
   </g>
   <g id="patch_55">
    <path clip-path="url(#p0f5504960f)" d="M 276.782688 135.776654 
L 272.022491 130.999021 
L 275.521564 130.538018 
L 275.556558 130.532658 
L 275.55673 130.533385 
L 279.055803 130.072382 
z
" style="fill:#ff7f0e;stroke:#ff7f0e;stroke-linejoin:miter;"/>
   </g>
   <g id="matplotlib.axis_1">
    <g id="xtick_1">
     <g id="line2d_1">
      <defs>
       <path d="M 0 0 
L 0 3.5 
" id="mf9d255f451" style="stroke:#000000;stroke-width:0.8;"/>
      </defs>
      <g>
       <use style="stroke:#000000;stroke-width:0.8;" x="78.332313" xlink:href="#mf9d255f451" y="276.812"/>
      </g>
     </g>
     <g id="text_1">
      <!-- −4 -->
      <defs>
       <path d="M 10.59375 35.5 
L 73.1875 35.5 
L 73.1875 27.203125 
L 10.59375 27.203125 
z
" id="DejaVuSans-2212"/>
       <path d="M 37.796875 64.3125 
L 12.890625 25.390625 
L 37.796875 25.390625 
z
M 35.203125 72.90625 
L 47.609375 72.90625 
L 47.609375 25.390625 
L 58.015625 25.390625 
L 58.015625 17.1875 
L 47.609375 17.1875 
L 47.609375 0 
L 37.796875 0 
L 37.796875 17.1875 
L 4.890625 17.1875 
L 4.890625 26.703125 
z
" id="DejaVuSans-34"/>
      </defs>
      <g transform="translate(70.961219 291.410438)scale(0.1 -0.1)">
       <use xlink:href="#DejaVuSans-2212"/>
       <use x="83.789062" xlink:href="#DejaVuSans-34"/>
      </g>
     </g>
    </g>
    <g id="xtick_2">
     <g id="line2d_2">
      <g>
       <use style="stroke:#000000;stroke-width:0.8;" x="149.756313" xlink:href="#mf9d255f451" y="276.812"/>
      </g>
     </g>
     <g id="text_2">
      <!-- −2 -->
      <defs>
       <path d="M 19.1875 8.296875 
L 53.609375 8.296875 
L 53.609375 0 
L 7.328125 0 
L 7.328125 8.296875 
Q 12.9375 14.109375 22.625 23.890625 
Q 32.328125 33.6875 34.8125 36.53125 
Q 39.546875 41.84375 41.421875 45.53125 
Q 43.3125 49.21875 43.3125 52.78125 
Q 43.3125 58.59375 39.234375 62.25 
Q 35.15625 65.921875 28.609375 65.921875 
Q 23.96875 65.921875 18.8125 64.3125 
Q 13.671875 62.703125 7.8125 59.421875 
L 7.8125 69.390625 
Q 13.765625 71.78125 18.9375 73 
Q 24.125 74.21875 28.421875 74.21875 
Q 39.75 74.21875 46.484375 68.546875 
Q 53.21875 62.890625 53.21875 53.421875 
Q 53.21875 48.921875 51.53125 44.890625 
Q 49.859375 40.875 45.40625 35.40625 
Q 44.1875 33.984375 37.640625 27.21875 
Q 31.109375 20.453125 19.1875 8.296875 
" id="DejaVuSans-32"/>
      </defs>
      <g transform="translate(142.385219 291.410438)scale(0.1 -0.1)">
       <use xlink:href="#DejaVuSans-2212"/>
       <use x="83.789062" xlink:href="#DejaVuSans-32"/>
      </g>
     </g>
    </g>
    <g id="xtick_3">
     <g id="line2d_3">
      <g>
       <use style="stroke:#000000;stroke-width:0.8;" x="221.180313" xlink:href="#mf9d255f451" y="276.812"/>
      </g>
     </g>
     <g id="text_3">
      <!-- 0 -->
      <defs>
       <path d="M 31.78125 66.40625 
Q 24.171875 66.40625 20.328125 58.90625 
Q 16.5 51.421875 16.5 36.375 
Q 16.5 21.390625 20.328125 13.890625 
Q 24.171875 6.390625 31.78125 6.390625 
Q 39.453125 6.390625 43.28125 13.890625 
Q 47.125 21.390625 47.125 36.375 
Q 47.125 51.421875 43.28125 58.90625 
Q 39.453125 66.40625 31.78125 66.40625 
M 31.78125 74.21875 
Q 44.046875 74.21875 50.515625 64.515625 
Q 56.984375 54.828125 56.984375 36.375 
Q 56.984375 17.96875 50.515625 8.265625 
Q 44.046875 -1.421875 31.78125 -1.421875 
Q 19.53125 -1.421875 13.0625 8.265625 
Q 6.59375 17.96875 6.59375 36.375 
Q 6.59375 54.828125 13.0625 64.515625 
Q 19.53125 74.21875 31.78125 74.21875 
" id="DejaVuSans-30"/>
      </defs>
      <g transform="translate(217.999063 291.410438)scale(0.1 -0.1)">
       <use xlink:href="#DejaVuSans-30"/>
      </g>
     </g>
    </g>
    <g id="xtick_4">
     <g id="line2d_4">
      <g>
       <use style="stroke:#000000;stroke-width:0.8;" x="292.604312" xlink:href="#mf9d255f451" y="276.812"/>
      </g>
     </g>
     <g id="text_4">
      <!-- 2 -->
      <g transform="translate(289.423063 291.410438)scale(0.1 -0.1)">
       <use xlink:href="#DejaVuSans-32"/>
      </g>
     </g>
    </g>
    <g id="xtick_5">
     <g id="line2d_5">
      <g>
       <use style="stroke:#000000;stroke-width:0.8;" x="364.028313" xlink:href="#mf9d255f451" y="276.812"/>
      </g>
     </g>
     <g id="text_5">
      <!-- 4 -->
      <g transform="translate(360.847063 291.410438)scale(0.1 -0.1)">
       <use xlink:href="#DejaVuSans-34"/>
      </g>
     </g>
    </g>
    <g id="text_6">
     <!-- x1 -->
     <defs>
      <path d="M 54.890625 54.6875 
L 35.109375 28.078125 
L 55.90625 0 
L 45.3125 0 
L 29.390625 21.484375 
L 13.484375 0 
L 2.875 0 
L 24.125 28.609375 
L 4.6875 54.6875 
L 15.28125 54.6875 
L 29.78125 35.203125 
L 44.28125 54.6875 
z
" id="DejaVuSans-78"/>
      <path d="M 12.40625 8.296875 
L 28.515625 8.296875 
L 28.515625 63.921875 
L 10.984375 60.40625 
L 10.984375 69.390625 
L 28.421875 72.90625 
L 38.28125 72.90625 
L 38.28125 8.296875 
L 54.390625 8.296875 
L 54.390625 0 
L 12.40625 0 
z
" id="DejaVuSans-31"/>
     </defs>
     <g transform="translate(215.039688 305.088562)scale(0.1 -0.1)">
      <use xlink:href="#DejaVuSans-78"/>
      <use x="59.179688" xlink:href="#DejaVuSans-31"/>
     </g>
    </g>
   </g>
   <g id="matplotlib.axis_2">
    <g id="ytick_1">
     <g id="line2d_6">
      <defs>
       <path d="M 0 0 
L -3.5 0 
" id="m2db01317f4" style="stroke:#000000;stroke-width:0.8;"/>
      </defs>
      <g>
       <use style="stroke:#000000;stroke-width:0.8;" x="42.620313" xlink:href="#m2db01317f4" y="250.2008"/>
      </g>
     </g>
     <g id="text_7">
      <!-- −4 -->
      <g transform="translate(20.878125 254.000019)scale(0.1 -0.1)">
       <use xlink:href="#DejaVuSans-2212"/>
       <use x="83.789062" xlink:href="#DejaVuSans-34"/>
      </g>
     </g>
    </g>
    <g id="ytick_2">
     <g id="line2d_7">
      <g>
       <use style="stroke:#000000;stroke-width:0.8;" x="42.620313" xlink:href="#m2db01317f4" y="196.9784"/>
      </g>
     </g>
     <g id="text_8">
      <!-- −2 -->
      <g transform="translate(20.878125 200.777619)scale(0.1 -0.1)">
       <use xlink:href="#DejaVuSans-2212"/>
       <use x="83.789062" xlink:href="#DejaVuSans-32"/>
      </g>
     </g>
    </g>
    <g id="ytick_3">
     <g id="line2d_8">
      <g>
       <use style="stroke:#000000;stroke-width:0.8;" x="42.620313" xlink:href="#m2db01317f4" y="143.756"/>
      </g>
     </g>
     <g id="text_9">
      <!-- 0 -->
      <g transform="translate(29.257813 147.555219)scale(0.1 -0.1)">
       <use xlink:href="#DejaVuSans-30"/>
      </g>
     </g>
    </g>
    <g id="ytick_4">
     <g id="line2d_9">
      <g>
       <use style="stroke:#000000;stroke-width:0.8;" x="42.620313" xlink:href="#m2db01317f4" y="90.5336"/>
      </g>
     </g>
     <g id="text_10">
      <!-- 2 -->
      <g transform="translate(29.257813 94.332819)scale(0.1 -0.1)">
       <use xlink:href="#DejaVuSans-32"/>
      </g>
     </g>
    </g>
    <g id="ytick_5">
     <g id="line2d_10">
      <g>
       <use style="stroke:#000000;stroke-width:0.8;" x="42.620313" xlink:href="#m2db01317f4" y="37.3112"/>
      </g>
     </g>
     <g id="text_11">
      <!-- 4 -->
      <g transform="translate(29.257813 41.110419)scale(0.1 -0.1)">
       <use xlink:href="#DejaVuSans-34"/>
      </g>
     </g>
    </g>
    <g id="text_12">
     <!-- x2 -->
     <g transform="translate(14.798438 149.896625)rotate(-90)scale(0.1 -0.1)">
      <use xlink:href="#DejaVuSans-78"/>
      <use x="59.179688" xlink:href="#DejaVuSans-32"/>
     </g>
    </g>
   </g>
   <g id="line2d_11">
    <path clip-path="url(#p0f5504960f)" d="M 221.180313 10.7 
L 231.12312 29.45039 
L 239.647785 45.97107 
L 246.923326 60.517366 
L 253.09939 73.315636 
L 258.308508 84.566628 
L 262.66798 94.448295 
L 266.281552 103.118298 
L 269.241009 110.716385 
L 271.627627 117.36655 
L 273.51322 123.178606 
L 274.961246 128.249824 
L 276.027831 132.666474 
L 276.762573 136.505018 
L 277.209219 139.833123 
L 277.406392 142.710745 
L 277.388198 145.191038 
L 277.184691 147.321051 
L 276.822364 149.142455 
L 276.22989 150.92637 
L 275.485172 152.391666 
L 274.615991 153.5829 
L 273.646239 154.538725 
L 272.440993 155.385643 
L 271.157037 156.011618 
L 269.645386 156.496863 
L 267.911915 156.814683 
L 265.794583 156.954515 
L 263.495422 156.88177 
L 260.707304 156.565944 
L 257.348006 155.946313 
L 253.415469 154.986761 
L 248.479431 153.540063 
L 242.166646 151.443653 
L 232.809563 148.07666 
L 221.180312 143.756 
L 221.180312 143.756 
" style="fill:none;stroke:#ff7f0e;stroke-linecap:square;stroke-width:0.5;"/>
   </g>
   <g id="line2d_12">
    <path clip-path="url(#p0f5504960f)" d="M 260.484341 10.7 
L 268.826375 27.863722 
L 276.07607 43.28269 
L 282.344901 57.12592 
L 287.733374 69.54601 
L 292.332431 80.68124 
L 296.223918 90.656259 
L 299.481814 99.583931 
L 302.172943 107.566392 
L 304.357581 114.695953 
L 306.090063 121.056011 
L 307.419439 126.722031 
L 308.38998 131.762293 
L 309.041584 136.238502 
L 309.410187 140.206409 
L 309.528173 143.716409 
L 309.424717 146.814069 
L 309.126081 149.54056 
L 308.655897 151.933082 
L 308.035422 154.02525 
L 307.283778 155.847446 
L 306.41815 157.427124 
L 305.45397 158.789071 
L 304.186254 160.167362 
L 302.817714 161.29882 
L 301.366966 162.214045 
L 299.592157 163.04444 
L 297.749949 163.654852 
L 295.586401 164.124676 
L 293.106599 164.412097 
L 290.326816 164.489796 
L 287.274167 164.345536 
L 283.71413 163.943109 
L 279.716048 163.260013 
L 275.123954 162.246021 
L 269.638081 160.795106 
L 263.171602 158.843906 
L 255.072401 156.15239 
L 244.223736 152.292956 
L 224.416066 144.961559 
L 221.180312 143.756 
L 221.180313 143.756 
" style="fill:none;stroke:#ff7f0e;stroke-linecap:square;stroke-width:0.5;"/>
   </g>
   <g id="line2d_13">
    <path clip-path="url(#p0f5504960f)" d="M 303.790965 10.7 
L 310.522462 25.804655 
L 316.477155 39.651186 
L 321.719855 52.338157 
L 326.310525 63.956887 
L 330.304394 74.591598 
L 333.752148 84.319703 
L 336.700418 93.212529 
L 339.192247 101.336027 
L 341.267288 108.751055 
L 342.962047 115.513747 
L 344.31014 121.675897 
L 345.342498 127.285266 
L 346.087578 132.38589 
L 346.571579 137.018409 
L 346.818618 141.220333 
L 346.850883 145.02626 
L 346.688757 148.468072 
L 346.350986 151.575177 
L 345.854799 154.374701 
L 345.216027 156.89165 
L 344.44921 159.149081 
L 343.567699 161.168252 
L 342.583746 162.968756 
L 341.22679 164.939273 
L 339.747216 166.628468 
L 338.162913 168.065432 
L 336.489912 169.276435 
L 334.742578 170.285195 
L 332.565626 171.258707 
L 330.319655 172.004702 
L 328.021784 172.552375 
L 325.29512 172.974915 
L 322.143142 173.215855 
L 318.581547 173.232556 
L 314.638877 172.998619 
L 310.355929 172.504461 
L 305.784068 171.756252 
L 300.620735 170.692483 
L 294.639585 169.23113 
L 287.729802 167.306351 
L 279.649672 164.815199 
L 270.004153 161.600725 
L 257.486014 157.178546 
L 238.628887 150.251485 
L 221.180312 143.756 
L 221.180313 143.756 
" style="fill:none;stroke:#ff7f0e;stroke-linecap:square;stroke-width:0.5;"/>
   </g>
   <g id="line2d_14">
    <path clip-path="url(#p0f5504960f)" d="M 356.918096 10.7 
L 363.608511 27.31123 
L 369.44519 42.518639 
L 374.500481 56.432637 
L 378.841302 69.155512 
L 382.529091 80.78133 
L 385.62031 91.396687 
L 388.167014 101.081564 
L 390.217162 109.909796 
L 391.814881 117.949452 
L 393.000778 125.263312 
L 393.812239 131.909316 
L 394.28366 137.940896 
L 394.446674 143.407329 
L 394.330395 148.354094 
L 393.961579 152.823114 
L 393.364819 156.853045 
L 392.562715 160.47954 
L 391.576034 163.735477 
L 390.42384 166.651156 
L 389.12363 169.254506 
L 387.691469 171.571289 
L 386.142098 173.625252 
L 384.489033 175.438283 
L 382.744657 177.030549 
L 380.920308 178.420624 
L 379.026363 179.625614 
L 376.575493 180.895537 
L 374.047498 181.928983 
L 371.45739 182.751323 
L 368.286007 183.491511 
L 365.06474 183.995794 
L 361.8113 184.295342 
L 357.995334 184.422595 
L 353.632684 184.321254 
L 349.292952 184.003105 
L 344.464133 183.436997 
L 339.192635 182.606248 
L 333.030591 181.402598 
L 326.105046 179.805635 
L 318.574324 177.833231 
L 310.193643 175.409375 
L 300.490589 172.37032 
L 289.035836 168.54453 
L 274.735462 163.52078 
L 255.238067 156.414647 
L 221.180312 143.756 
L 221.180313 143.756 
" style="fill:none;stroke:#ff7f0e;stroke-linecap:square;stroke-width:0.5;"/>
   </g>
   <g id="line2d_15">
    <path clip-path="url(#p0f5504960f)" d="M 399.740313 30.737215 
L 401.229238 34.847095 
" style="fill:none;stroke:#ff7f0e;stroke-linecap:square;stroke-width:0.5;"/>
   </g>
   <g id="line2d_16">
    <path clip-path="url(#p0f5504960f)" d="M 399.740313 73.214173 
L 400.666322 76.273278 
" style="fill:none;stroke:#ff7f0e;stroke-linecap:square;stroke-width:0.5;"/>
   </g>
   <g id="line2d_17">
    <path clip-path="url(#p0f5504960f)" d="M 399.740313 106.813183 
L 400.221044 109.04111 
" style="fill:none;stroke:#ff7f0e;stroke-linecap:square;stroke-width:0.5;"/>
   </g>
   <g id="line2d_18">
    <path clip-path="url(#p0f5504960f)" d="M 399.740313 136.541913 
L 399.827068 138.034424 
" style="fill:none;stroke:#ff7f0e;stroke-linecap:square;stroke-width:0.5;"/>
   </g>
   <g id="line2d_19">
    <path clip-path="url(#p0f5504960f)" d="M 399.740313 165.569424 
L 398.488226 168.540846 
L 397.085308 171.1917 
L 395.548021 173.548402 
L 393.891575 175.635487 
L 392.129822 177.475422 
L 390.275465 179.088925 
L 388.340165 180.495124 
L 386.334566 181.711599 
L 383.743449 182.989921 
L 381.07484 184.025848 
L 378.344128 184.84545 
L 375.565044 185.472248 
L 372.183375 185.999551 
L 368.768019 186.312118 
L 364.762301 186.443807 
L 360.754564 186.36263 
L 356.195138 186.053201 
L 351.118962 185.480873 
L 345.574585 184.627464 
L 339.622935 183.491347 
L 332.821695 181.963367 
L 325.321467 180.047036 
L 316.843753 177.647199 
L 307.273329 174.704736 
L 295.960556 170.986165 
L 282.311252 166.254057 
L 264.588114 159.858921 
L 235.434207 149.06591 
L 221.180312 143.756 
L 221.180313 143.756 
" style="fill:none;stroke:#ff7f0e;stroke-linecap:square;stroke-width:0.5;"/>
   </g>
   <g id="line2d_20">
    <path clip-path="url(#p0f5504960f)" d="M 399.740313 196.770356 
L 394.762605 196.681347 
L 389.803923 196.368633 
L 384.184755 195.785032 
L 377.952118 194.896472 
L 371.167947 193.686493 
L 363.907965 192.156921 
L 355.635286 190.168366 
L 346.536063 187.732854 
L 336.825801 184.901438 
L 325.721473 181.430198 
L 312.851739 177.167564 
L 297.604295 171.875423 
L 278.219141 164.898615 
L 249.265347 154.213565 
L 221.180312 143.756 
L 221.180313 143.756 
" style="fill:none;stroke:#ff7f0e;stroke-linecap:square;stroke-width:0.5;"/>
   </g>
   <g id="line2d_21">
    <path clip-path="url(#p0f5504960f)" d="M 399.740313 233.970206 
L 390.436362 227.00137 
L 380.808685 220.089481 
L 371.963789 214.016964 
L 362.940811 208.102672 
L 353.869609 202.446169 
L 345.576974 197.529227 
L 336.645468 192.501453 
L 327.934627 187.857691 
L 318.964392 183.330513 
L 309.468595 178.799256 
L 299.787857 174.427465 
L 289.14933 169.870416 
L 277.133862 164.972937 
L 262.486325 159.257204 
L 241.445015 151.312753 
L 221.180312 143.756 
L 221.180313 143.756 
" style="fill:none;stroke:#ff7f0e;stroke-linecap:square;stroke-width:0.5;"/>
   </g>
   <g id="line2d_22">
    <path clip-path="url(#p0f5504960f)" d="M 390.321329 276.812 
L 376.881381 261.448923 
L 364.975206 248.188682 
L 354.393519 236.726545 
L 344.957587 226.803033 
L 335.522175 217.204008 
L 327.159154 209.006815 
L 318.936254 201.272677 
L 311.668097 194.740939 
L 304.601193 188.697319 
L 298.3517 183.631712 
L 292.313767 179.00874 
L 286.537576 174.853399 
L 280.686871 170.925003 
L 275.231114 167.523659 
L 269.600428 164.278421 
L 263.997597 161.307435 
L 258.174343 158.470826 
L 251.789869 155.613984 
L 244.375106 152.551933 
L 234.498322 148.7351 
L 221.180312 143.756 
L 221.180313 143.756 
" style="fill:none;stroke:#ff7f0e;stroke-linecap:square;stroke-width:0.5;"/>
   </g>
   <g id="line2d_23">
    <path clip-path="url(#p0f5504960f)" d="M 328.6163 276.812 
L 305.295816 244.012093 
L 286.68441 218.205115 
L 272.090238 198.343416 
L 260.817043 183.374676 
L 252.211084 172.311974 
L 245.692489 164.280581 
L 240.572893 158.318058 
L 236.619974 154.048398 
L 233.488389 150.987367 
L 230.967344 148.82566 
L 228.816311 147.266613 
L 226.819395 146.092271 
L 224.658585 145.090057 
L 221.180312 143.756 
L 221.180313 143.756 
" style="fill:none;stroke:#ff7f0e;stroke-linecap:square;stroke-width:0.5;"/>
   </g>
   <g id="line2d_24">
    <path clip-path="url(#p0f5504960f)" d="M 281.344181 276.812 
L 263.873694 248.453199 
L 249.063841 223.989993 
L 237.745868 204.870099 
L 229.155448 189.946313 
L 222.234306 177.472691 
L 217.21843 167.974395 
L 213.651407 160.762671 
L 211.182625 155.306983 
L 209.542907 151.19866 
L 208.468592 147.921887 
L 207.921411 145.544001 
L 207.754729 143.83881 
L 207.858933 142.635814 
L 208.152305 141.80657 
L 208.57414 141.254396 
L 209.156507 140.87021 
L 209.924581 140.652441 
L 210.935875 140.613672 
L 212.33404 140.801795 
L 214.330472 141.317642 
L 217.522646 142.40202 
L 221.180313 143.756 
L 221.180312 143.756 
" style="fill:none;stroke:#ff7f0e;stroke-linecap:square;stroke-width:0.5;"/>
   </g>
   <g id="line2d_25">
    <path clip-path="url(#p0f5504960f)" d="M 240.599883 276.812 
L 229.097681 256.089033 
L 219.406551 238.188311 
L 211.279221 222.737086 
L 204.501154 209.411538 
L 198.886198 197.93029 
L 194.272846 188.048831 
L 190.521062 179.554778 
L 187.509378 172.26355 
L 184.839274 165.19883 
L 182.863941 159.290522 
L 181.468762 154.363068 
L 180.556683 150.267266 
L 180.045457 146.876167 
L 179.865382 144.081682 
L 179.957475 141.791864 
L 180.271865 139.928509 
L 180.766431 138.425107 
L 181.405647 137.225132 
L 182.159589 136.28054 
L 183.113721 135.472544 
L 184.151553 134.887412 
L 185.373341 134.449402 
L 186.898603 134.156835 
L 188.71482 134.058492 
L 190.788237 134.174189 
L 193.315 134.541417 
L 196.415718 135.223297 
L 200.378533 136.336832 
L 205.639724 138.065629 
L 213.801748 141.011859 
L 221.180313 143.756 
L 221.180312 143.756 
" style="fill:none;stroke:#ff7f0e;stroke-linecap:square;stroke-width:0.5;"/>
   </g>
   <g id="line2d_26">
    <path clip-path="url(#p0f5504960f)" d="M 201.760742 276.812 
L 193.39492 260.344497 
L 184.73028 242.761852 
L 177.394307 227.297352 
L 171.226507 213.707736 
L 166.08479 201.777283 
L 161.843399 191.314734 
L 158.39109 182.150571 
L 155.629471 174.134542 
L 153.471654 167.133646 
L 151.840704 161.029815 
L 150.668647 155.718444 
L 149.895506 151.106935 
L 149.468292 147.113207 
L 149.340245 143.66455 
L 149.470125 140.696571 
L 149.82157 138.152232 
L 150.362542 135.981027 
L 151.064835 134.138237 
L 151.90363 132.584276 
L 152.857113 131.284107 
L 153.906122 130.206727 
L 155.228386 129.19494 
L 156.634715 128.411014 
L 158.319604 127.751916 
L 160.063512 127.305077 
L 162.070184 127.011634 
L 164.327252 126.895671 
L 167.038246 126.98354 
L 170.161394 127.316875 
L 173.84354 127.948158 
L 178.163796 128.930575 
L 183.283285 130.336599 
L 189.615924 132.323238 
L 197.783986 135.135681 
L 210.419461 139.750992 
L 221.180313 143.756 
L 221.180312 143.756 
" style="fill:none;stroke:#ff7f0e;stroke-linecap:square;stroke-width:0.5;"/>
   </g>
   <g id="line2d_27">
    <path clip-path="url(#p0f5504960f)" d="M 161.016444 276.812 
L 152.699215 258.91768 
L 145.52063 242.85608 
L 139.363195 228.448737 
L 134.121502 215.535295 
L 129.700223 203.970493 
L 126.013428 193.62316 
L 122.983458 184.374522 
L 120.540239 176.117193 
L 118.620565 168.754086 
L 117.167434 162.197439 
L 116.129437 156.367889 
L 115.460235 151.193701 
L 115.118068 146.610027 
L 115.065319 142.558261 
L 115.268092 138.985402 
L 115.695886 135.843574 
L 116.321255 133.089508 
L 117.119501 130.684093 
L 118.06844 128.592023 
L 119.148159 126.781428 
L 120.340755 125.223489 
L 121.630167 123.892186 
L 123.001962 122.763976 
L 124.738784 121.648476 
L 126.555985 120.762234 
L 128.436307 120.076296 
L 130.689814 119.495234 
L 133.319057 119.076994 
L 135.981049 118.877605 
L 138.988522 118.867229 
L 142.31732 119.068033 
L 146.258325 119.534626 
L 150.740009 120.30253 
L 155.663883 121.372727 
L 161.473308 122.868962 
L 168.15366 124.823391 
L 176.195111 127.412909 
L 186.510244 130.983273 
L 201.216959 136.333775 
L 221.180313 143.756 
L 221.180312 143.756 
" style="fill:none;stroke:#ff7f0e;stroke-linecap:square;stroke-width:0.5;"/>
   </g>
   <g id="line2d_28">
    <path clip-path="url(#p0f5504960f)" d="M 113.744325 276.812 
L 107.032029 261.003357 
L 101.132483 246.520914 
L 95.977382 233.260616 
L 91.503428 221.125888 
L 87.652534 210.027974 
L 84.371403 199.885305 
L 81.610788 190.622382 
L 79.325326 182.169543 
L 77.473321 174.462627 
L 76.016355 167.442399 
L 74.919035 161.054176 
L 74.148806 155.247536 
L 73.675714 149.975975 
L 73.472209 145.196608 
L 73.512946 140.869873 
L 73.774614 136.959274 
L 74.235791 133.431165 
L 74.876788 130.254516 
L 75.679517 127.400718 
L 76.62737 124.8434 
L 77.705092 122.558238 
L 78.898682 120.522809 
L 80.195296 118.716447 
L 81.583157 117.120106 
L 83.051471 115.71623 
L 84.985007 114.207511 
L 87.011347 112.945497 
L 89.114824 111.904163 
L 91.281434 111.060027 
L 93.947184 110.277681 
L 96.66683 109.716194 
L 99.885851 109.30192 
L 103.133102 109.108968 
L 106.854425 109.115217 
L 111.025865 109.359034 
L 115.610536 109.862778 
L 120.559415 110.632342 
L 126.243321 111.750538 
L 132.540205 113.224191 
L 139.686882 115.132989 
L 147.783781 117.530421 
L 157.384794 120.614425 
L 168.999425 124.590752 
L 184.111863 130.01455 
L 209.066025 139.243241 
L 221.180313 143.756 
L 221.180313 143.756 
" style="fill:none;stroke:#ff7f0e;stroke-linecap:square;stroke-width:0.5;"/>
   </g>
   <g id="line2d_29">
    <path clip-path="url(#p0f5504960f)" d="M 52.039296 276.812 
L 50.284362 272.275758 
L 48.589361 267.838387 
L 46.953238 263.498295 
L 45.374699 259.253506 
L 43.852564 255.102218 
L 42.385603 251.042548 
" style="fill:none;stroke:#ff7f0e;stroke-linecap:square;stroke-width:0.5;"/>
   </g>
   <g id="line2d_30">
    <path clip-path="url(#p0f5504960f)" d="M 42.620313 233.970206 
L 41.433601 230.424458 
" style="fill:none;stroke:#ff7f0e;stroke-linecap:square;stroke-width:0.5;"/>
   </g>
   <g id="line2d_31">
    <path clip-path="url(#p0f5504960f)" d="M 42.620313 196.770356 
L 41.926578 194.144831 
" style="fill:none;stroke:#ff7f0e;stroke-linecap:square;stroke-width:0.5;"/>
   </g>
   <g id="line2d_32">
    <path clip-path="url(#p0f5504960f)" d="M 42.620313 165.569424 
L 42.34008 163.71576 
" style="fill:none;stroke:#ff7f0e;stroke-linecap:square;stroke-width:0.5;"/>
   </g>
   <g id="line2d_33">
    <path clip-path="url(#p0f5504960f)" d="M 42.620313 136.541913 
L 43.126895 132.170363 
L 43.856376 128.232515 
L 44.786392 124.693032 
L 45.896459 121.519413 
L 47.167721 118.681627 
L 48.582914 116.152052 
L 50.126197 113.905224 
L 51.783027 111.91765 
L 53.540071 110.167679 
L 55.385124 108.635372 
L 57.307006 107.302354 
L 59.295478 106.151689 
L 61.860524 104.946141 
L 64.498486 103.973413 
L 67.194599 103.208431 
L 70.488285 102.533039 
L 73.82683 102.089537 
L 77.755393 101.824268 
L 81.69771 101.789995 
L 86.194648 101.986535 
L 91.213731 102.452466 
L 96.708332 103.209115 
L 102.618661 104.260085 
L 109.38526 105.710206 
L 116.859991 107.560316 
L 124.866593 109.773267 
L 134.052788 112.543637 
L 144.730313 116.000468 
L 157.725204 120.45445 
L 174.271426 126.379222 
L 199.204831 135.57318 
L 221.180313 143.756 
L 221.180312 143.756 
" style="fill:none;stroke:#ff7f0e;stroke-linecap:square;stroke-width:0.5;"/>
   </g>
   <g id="line2d_34">
    <path clip-path="url(#p0f5504960f)" d="M 42.620313 106.813183 
L 44.645107 105.292948 
L 46.745977 103.975918 
L 48.912547 102.844886 
L 51.698625 101.668347 
L 54.555478 100.728847 
L 57.468109 100.00079 
L 61.018184 99.373893 
L 64.609018 98.982632 
L 68.222922 98.795477 
L 72.448043 98.798222 
L 77.263463 99.046193 
L 82.040362 99.508429 
L 87.342698 100.233112 
L 93.118178 101.235237 
L 99.855194 102.637315 
L 107.412069 104.455257 
L 115.614971 106.666081 
L 124.729787 109.353417 
L 135.268664 112.695645 
L 147.695587 116.877309 
L 162.906444 122.239744 
L 183.754444 129.844824 
L 221.180313 143.756 
L 221.180313 143.756 
" style="fill:none;stroke:#ff7f0e;stroke-linecap:square;stroke-width:0.5;"/>
   </g>
   <g id="line2d_35">
    <path clip-path="url(#p0f5504960f)" d="M 42.620313 73.214173 
L 57.056231 79.692095 
L 72.518183 86.374174 
L 89.131497 93.298729 
L 107.298688 100.621337 
L 128.174818 108.787403 
L 154.108756 118.680171 
L 193.803724 133.553598 
L 221.180313 143.756 
L 221.180312 143.756 
" style="fill:none;stroke:#ff7f0e;stroke-linecap:square;stroke-width:0.5;"/>
   </g>
   <g id="line2d_36">
    <path clip-path="url(#p0f5504960f)" d="M 42.620313 30.737215 
L 52.765249 40.590869 
L 63.297414 50.490789 
L 72.835766 59.136886 
L 81.505185 66.706361 
L 90.352539 74.122543 
L 98.365617 80.549244 
L 106.423857 86.7146 
L 113.714012 92.020279 
L 120.971469 97.03395 
L 128.109936 101.69636 
L 135.063721 105.977613 
L 142.238272 110.126233 
L 149.451102 114.029132 
L 156.906891 117.796701 
L 164.65761 121.451559 
L 172.878199 125.076168 
L 182.258999 128.959611 
L 193.735982 133.456533 
L 211.741439 140.238207 
L 221.180313 143.756 
L 221.180313 143.756 
" style="fill:none;stroke:#ff7f0e;stroke-linecap:square;stroke-width:0.5;"/>
   </g>
   <g id="line2d_37">
    <path clip-path="url(#p0f5504960f)" d="M 85.442529 10.7 
L 101.840422 31.76142 
L 115.665688 49.15348 
L 127.365852 63.535103 
L 138.216857 76.517495 
L 147.335791 87.089206 
L 155.682521 96.419606 
L 162.679826 103.919975 
L 169.040749 110.420036 
L 174.763543 115.94924 
L 179.875541 120.578573 
L 184.423601 124.405853 
L 188.68132 127.701878 
L 192.601869 130.463409 
L 196.467943 132.912044 
L 200.250304 135.041527 
L 204.166593 136.988449 
L 208.551459 138.913661 
L 214.408455 141.22122 
L 221.180313 143.756 
L 221.180313 143.756 
" style="fill:none;stroke:#ff7f0e;stroke-linecap:square;stroke-width:0.5;"/>
   </g>
   <g id="line2d_38">
    <path clip-path="url(#p0f5504960f)" d="M 138.56966 10.7 
L 174.588354 65.591141 
L 196.301076 99.052285 
L 209.332199 119.502151 
L 216.850004 131.681416 
L 220.681487 138.270326 
L 222.444196 141.698279 
L 223.044711 143.291503 
L 223.089834 143.946618 
L 222.915826 144.168593 
L 222.581912 144.20185 
L 221.851113 144.002555 
L 221.180312 143.756 
L 221.180313 143.756 
" style="fill:none;stroke:#ff7f0e;stroke-linecap:square;stroke-width:0.5;"/>
   </g>
   <g id="line2d_39">
    <path clip-path="url(#p0f5504960f)" d="M 181.876284 10.7 
L 194.92726 33.070577 
L 206.981022 54.183386 
L 216.709144 71.691686 
L 224.509624 86.19472 
L 230.71431 98.192874 
L 235.599779 108.103911 
L 239.396363 116.276427 
L 242.295969 123.001516 
L 244.458294 128.522048 
L 246.016177 133.040651 
L 247.080153 136.726507 
L 247.74202 139.720676 
L 248.077997 142.140817 
L 248.151313 144.085049 
L 248.014359 145.635166 
L 247.710489 146.859336 
L 247.220458 147.905996 
L 246.608612 148.68445 
L 245.833301 149.29326 
L 244.903939 149.72537 
L 243.753487 149.997533 
L 242.315198 150.086764 
L 240.544552 149.956466 
L 238.285318 149.549625 
L 235.376177 148.784771 
L 231.340466 147.475979 
L 224.335524 144.930974 
L 221.180312 143.756 
L 221.180313 143.756 
" style="fill:none;stroke:#ff7f0e;stroke-linecap:square;stroke-width:0.5;"/>
   </g>
   <g id="line2d_40">
    <path clip-path="url(#p0f5504960f)" d="M 221.180312 10.7 
L 231.12312 29.45039 
L 239.647785 45.97107 
L 246.923326 60.517366 
L 253.09939 73.315636 
L 258.308508 84.566628 
L 262.66798 94.448295 
L 266.281552 103.118298 
L 269.241009 110.716385 
L 271.627627 117.36655 
L 273.51322 123.178606 
L 274.961246 128.249824 
L 276.027831 132.666474 
L 276.762573 136.505018 
L 277.209219 139.833123 
L 277.406392 142.710745 
L 277.388198 145.191038 
L 277.184691 147.321051 
L 276.822364 149.142455 
L 276.22989 150.92637 
L 275.485172 152.391666 
L 274.615991 153.5829 
L 273.646239 154.538725 
L 272.440993 155.385643 
L 271.157037 156.011618 
L 269.645386 156.496863 
L 267.911915 156.814683 
L 265.794583 156.954516 
L 263.495423 156.881771 
L 260.707301 156.56594 
L 257.347999 155.946302 
L 253.415465 154.986756 
L 248.479424 153.540052 
L 242.166633 151.443632 
L 232.809564 148.076661 
L 221.180312 143.756 
L 221.180313 143.756 
" style="fill:none;stroke:#ff7f0e;stroke-linecap:square;stroke-width:0.5;"/>
   </g>
   <g id="line2d_41">
    <path clip-path="url(#p0f5504960f)" d="M 221.180313 143.756 
" style="fill:none;stroke:#ff7f0e;stroke-linecap:square;stroke-width:1.5;"/>
   </g>
   <g id="line2d_42">
    <defs>
     <path d="M 0 3 
C 0.795609 3 1.55874 2.683901 2.12132 2.12132 
C 2.683901 1.55874 3 0.795609 3 0 
C 3 -0.795609 2.683901 -1.55874 2.12132 -2.12132 
C 1.55874 -2.683901 0.795609 -3 0 -3 
C -0.795609 -3 -1.55874 -2.683901 -2.12132 -2.12132 
C -2.683901 -1.55874 -3 -0.795609 -3 0 
C -3 0.795609 -2.683901 1.55874 -2.12132 2.12132 
C -1.55874 2.683901 -0.795609 3 0 3 
z
" id="m39feddc3c1" style="stroke:#ff0000;"/>
    </defs>
    <g clip-path="url(#p0f5504960f)">
     <use style="fill:#ff0000;stroke:#ff0000;" x="221.180313" xlink:href="#m39feddc3c1" y="143.756"/>
    </g>
   </g>
   <g id="patch_56">
    <path d="M 42.620313 276.812 
L 42.620313 10.7 
" style="fill:none;stroke:#000000;stroke-linecap:square;stroke-linejoin:miter;stroke-width:0.8;"/>
   </g>
   <g id="patch_57">
    <path d="M 399.740313 276.812 
L 399.740313 10.7 
" style="fill:none;stroke:#000000;stroke-linecap:square;stroke-linejoin:miter;stroke-width:0.8;"/>
   </g>
   <g id="patch_58">
    <path d="M 42.620313 276.812 
L 399.740313 276.812 
" style="fill:none;stroke:#000000;stroke-linecap:square;stroke-linejoin:miter;stroke-width:0.8;"/>
   </g>
   <g id="patch_59">
    <path d="M 42.620313 10.7 
L 399.740313 10.7 
" style="fill:none;stroke:#000000;stroke-linecap:square;stroke-linejoin:miter;stroke-width:0.8;"/>
   </g>
   <g id="legend_1">
    <g id="patch_60">
     <path d="M 249.800312 273.812 
L 395.540313 273.812 
Q 396.740313 273.812 396.740313 272.612 
L 396.740313 255.35825 
Q 396.740313 254.15825 395.540313 254.15825 
L 249.800312 254.15825 
Q 248.600313 254.15825 248.600313 255.35825 
L 248.600313 272.612 
Q 248.600313 273.812 249.800312 273.812 
z
" style="fill:#ffffff;opacity:0.8;stroke:#cccccc;stroke-linejoin:miter;"/>
    </g>
    <g id="line2d_43">
     <path d="M 251.000313 259.017312 
L 263.000313 259.017312 
" style="fill:none;stroke:#ff7f0e;stroke-linecap:square;stroke-width:1.5;"/>
    </g>
    <g id="line2d_44"/>
    <g id="text_13">
     <!-- system zlinearyzowany -->
     <defs>
      <path d="M 44.28125 53.078125 
L 44.28125 44.578125 
Q 40.484375 46.53125 36.375 47.5 
Q 32.28125 48.484375 27.875 48.484375 
Q 21.1875 48.484375 17.84375 46.4375 
Q 14.5 44.390625 14.5 40.28125 
Q 14.5 37.15625 16.890625 35.375 
Q 19.28125 33.59375 26.515625 31.984375 
L 29.59375 31.296875 
Q 39.15625 29.25 43.1875 25.515625 
Q 47.21875 21.78125 47.21875 15.09375 
Q 47.21875 7.46875 41.1875 3.015625 
Q 35.15625 -1.421875 24.609375 -1.421875 
Q 20.21875 -1.421875 15.453125 -0.5625 
Q 10.6875 0.296875 5.421875 2 
L 5.421875 11.28125 
Q 10.40625 8.6875 15.234375 7.390625 
Q 20.0625 6.109375 24.8125 6.109375 
Q 31.15625 6.109375 34.5625 8.28125 
Q 37.984375 10.453125 37.984375 14.40625 
Q 37.984375 18.0625 35.515625 20.015625 
Q 33.0625 21.96875 24.703125 23.78125 
L 21.578125 24.515625 
Q 13.234375 26.265625 9.515625 29.90625 
Q 5.8125 33.546875 5.8125 39.890625 
Q 5.8125 47.609375 11.28125 51.796875 
Q 16.75 56 26.8125 56 
Q 31.78125 56 36.171875 55.265625 
Q 40.578125 54.546875 44.28125 53.078125 
" id="DejaVuSans-73"/>
      <path d="M 32.171875 -5.078125 
Q 28.375 -14.84375 24.75 -17.8125 
Q 21.140625 -20.796875 15.09375 -20.796875 
L 7.90625 -20.796875 
L 7.90625 -13.28125 
L 13.1875 -13.28125 
Q 16.890625 -13.28125 18.9375 -11.515625 
Q 21 -9.765625 23.484375 -3.21875 
L 25.09375 0.875 
L 2.984375 54.6875 
L 12.5 54.6875 
L 29.59375 11.921875 
L 46.6875 54.6875 
L 56.203125 54.6875 
z
" id="DejaVuSans-79"/>
      <path d="M 18.3125 70.21875 
L 18.3125 54.6875 
L 36.8125 54.6875 
L 36.8125 47.703125 
L 18.3125 47.703125 
L 18.3125 18.015625 
Q 18.3125 11.328125 20.140625 9.421875 
Q 21.96875 7.515625 27.59375 7.515625 
L 36.8125 7.515625 
L 36.8125 0 
L 27.59375 0 
Q 17.1875 0 13.234375 3.875 
Q 9.28125 7.765625 9.28125 18.015625 
L 9.28125 47.703125 
L 2.6875 47.703125 
L 2.6875 54.6875 
L 9.28125 54.6875 
L 9.28125 70.21875 
z
" id="DejaVuSans-74"/>
      <path d="M 56.203125 29.59375 
L 56.203125 25.203125 
L 14.890625 25.203125 
Q 15.484375 15.921875 20.484375 11.0625 
Q 25.484375 6.203125 34.421875 6.203125 
Q 39.59375 6.203125 44.453125 7.46875 
Q 49.3125 8.734375 54.109375 11.28125 
L 54.109375 2.78125 
Q 49.265625 0.734375 44.1875 -0.34375 
Q 39.109375 -1.421875 33.890625 -1.421875 
Q 20.796875 -1.421875 13.15625 6.1875 
Q 5.515625 13.8125 5.515625 26.8125 
Q 5.515625 40.234375 12.765625 48.109375 
Q 20.015625 56 32.328125 56 
Q 43.359375 56 49.78125 48.890625 
Q 56.203125 41.796875 56.203125 29.59375 
M 47.21875 32.234375 
Q 47.125 39.59375 43.09375 43.984375 
Q 39.0625 48.390625 32.421875 48.390625 
Q 24.90625 48.390625 20.390625 44.140625 
Q 15.875 39.890625 15.1875 32.171875 
z
" id="DejaVuSans-65"/>
      <path d="M 52 44.1875 
Q 55.375 50.25 60.0625 53.125 
Q 64.75 56 71.09375 56 
Q 79.640625 56 84.28125 50.015625 
Q 88.921875 44.046875 88.921875 33.015625 
L 88.921875 0 
L 79.890625 0 
L 79.890625 32.71875 
Q 79.890625 40.578125 77.09375 44.375 
Q 74.3125 48.1875 68.609375 48.1875 
Q 61.625 48.1875 57.5625 43.546875 
Q 53.515625 38.921875 53.515625 30.90625 
L 53.515625 0 
L 44.484375 0 
L 44.484375 32.71875 
Q 44.484375 40.625 41.703125 44.40625 
Q 38.921875 48.1875 33.109375 48.1875 
Q 26.21875 48.1875 22.15625 43.53125 
Q 18.109375 38.875 18.109375 30.90625 
L 18.109375 0 
L 9.078125 0 
L 9.078125 54.6875 
L 18.109375 54.6875 
L 18.109375 46.1875 
Q 21.1875 51.21875 25.484375 53.609375 
Q 29.78125 56 35.6875 56 
Q 41.65625 56 45.828125 52.96875 
Q 50 49.953125 52 44.1875 
" id="DejaVuSans-6d"/>
      <path id="DejaVuSans-20"/>
      <path d="M 5.515625 54.6875 
L 48.1875 54.6875 
L 48.1875 46.484375 
L 14.40625 7.171875 
L 48.1875 7.171875 
L 48.1875 0 
L 4.296875 0 
L 4.296875 8.203125 
L 38.09375 47.515625 
L 5.515625 47.515625 
z
" id="DejaVuSans-7a"/>
      <path d="M 9.421875 75.984375 
L 18.40625 75.984375 
L 18.40625 0 
L 9.421875 0 
z
" id="DejaVuSans-6c"/>
      <path d="M 9.421875 54.6875 
L 18.40625 54.6875 
L 18.40625 0 
L 9.421875 0 
z
M 9.421875 75.984375 
L 18.40625 75.984375 
L 18.40625 64.59375 
L 9.421875 64.59375 
z
" id="DejaVuSans-69"/>
      <path d="M 54.890625 33.015625 
L 54.890625 0 
L 45.90625 0 
L 45.90625 32.71875 
Q 45.90625 40.484375 42.875 44.328125 
Q 39.84375 48.1875 33.796875 48.1875 
Q 26.515625 48.1875 22.3125 43.546875 
Q 18.109375 38.921875 18.109375 30.90625 
L 18.109375 0 
L 9.078125 0 
L 9.078125 54.6875 
L 18.109375 54.6875 
L 18.109375 46.1875 
Q 21.34375 51.125 25.703125 53.5625 
Q 30.078125 56 35.796875 56 
Q 45.21875 56 50.046875 50.171875 
Q 54.890625 44.34375 54.890625 33.015625 
" id="DejaVuSans-6e"/>
      <path d="M 34.28125 27.484375 
Q 23.390625 27.484375 19.1875 25 
Q 14.984375 22.515625 14.984375 16.5 
Q 14.984375 11.71875 18.140625 8.90625 
Q 21.296875 6.109375 26.703125 6.109375 
Q 34.1875 6.109375 38.703125 11.40625 
Q 43.21875 16.703125 43.21875 25.484375 
L 43.21875 27.484375 
z
M 52.203125 31.203125 
L 52.203125 0 
L 43.21875 0 
L 43.21875 8.296875 
Q 40.140625 3.328125 35.546875 0.953125 
Q 30.953125 -1.421875 24.3125 -1.421875 
Q 15.921875 -1.421875 10.953125 3.296875 
Q 6 8.015625 6 15.921875 
Q 6 25.140625 12.171875 29.828125 
Q 18.359375 34.515625 30.609375 34.515625 
L 43.21875 34.515625 
L 43.21875 35.40625 
Q 43.21875 41.609375 39.140625 45 
Q 35.0625 48.390625 27.6875 48.390625 
Q 23 48.390625 18.546875 47.265625 
Q 14.109375 46.140625 10.015625 43.890625 
L 10.015625 52.203125 
Q 14.9375 54.109375 19.578125 55.046875 
Q 24.21875 56 28.609375 56 
Q 40.484375 56 46.34375 49.84375 
Q 52.203125 43.703125 52.203125 31.203125 
" id="DejaVuSans-61"/>
      <path d="M 41.109375 46.296875 
Q 39.59375 47.171875 37.8125 47.578125 
Q 36.03125 48 33.890625 48 
Q 26.265625 48 22.1875 43.046875 
Q 18.109375 38.09375 18.109375 28.8125 
L 18.109375 0 
L 9.078125 0 
L 9.078125 54.6875 
L 18.109375 54.6875 
L 18.109375 46.1875 
Q 20.953125 51.171875 25.484375 53.578125 
Q 30.03125 56 36.53125 56 
Q 37.453125 56 38.578125 55.875 
Q 39.703125 55.765625 41.0625 55.515625 
z
" id="DejaVuSans-72"/>
      <path d="M 30.609375 48.390625 
Q 23.390625 48.390625 19.1875 42.75 
Q 14.984375 37.109375 14.984375 27.296875 
Q 14.984375 17.484375 19.15625 11.84375 
Q 23.34375 6.203125 30.609375 6.203125 
Q 37.796875 6.203125 41.984375 11.859375 
Q 46.1875 17.53125 46.1875 27.296875 
Q 46.1875 37.015625 41.984375 42.703125 
Q 37.796875 48.390625 30.609375 48.390625 
M 30.609375 56 
Q 42.328125 56 49.015625 48.375 
Q 55.71875 40.765625 55.71875 27.296875 
Q 55.71875 13.875 49.015625 6.21875 
Q 42.328125 -1.421875 30.609375 -1.421875 
Q 18.84375 -1.421875 12.171875 6.21875 
Q 5.515625 13.875 5.515625 27.296875 
Q 5.515625 40.765625 12.171875 48.375 
Q 18.84375 56 30.609375 56 
" id="DejaVuSans-6f"/>
      <path d="M 4.203125 54.6875 
L 13.1875 54.6875 
L 24.421875 12.015625 
L 35.59375 54.6875 
L 46.1875 54.6875 
L 57.421875 12.015625 
L 68.609375 54.6875 
L 77.59375 54.6875 
L 63.28125 0 
L 52.6875 0 
L 40.921875 44.828125 
L 29.109375 0 
L 18.5 0 
z
" id="DejaVuSans-77"/>
     </defs>
     <g transform="translate(267.800313 261.117312)scale(0.06 -0.06)">
      <use xlink:href="#DejaVuSans-73"/>
      <use x="52.099609" xlink:href="#DejaVuSans-79"/>
      <use x="111.279297" xlink:href="#DejaVuSans-73"/>
      <use x="163.378906" xlink:href="#DejaVuSans-74"/>
      <use x="202.587891" xlink:href="#DejaVuSans-65"/>
      <use x="264.111328" xlink:href="#DejaVuSans-6d"/>
      <use x="361.523438" xlink:href="#DejaVuSans-20"/>
      <use x="393.310547" xlink:href="#DejaVuSans-7a"/>
      <use x="445.800781" xlink:href="#DejaVuSans-6c"/>
      <use x="473.583984" xlink:href="#DejaVuSans-69"/>
      <use x="501.367188" xlink:href="#DejaVuSans-6e"/>
      <use x="564.746094" xlink:href="#DejaVuSans-65"/>
      <use x="626.269531" xlink:href="#DejaVuSans-61"/>
      <use x="687.548828" xlink:href="#DejaVuSans-72"/>
      <use x="728.662109" xlink:href="#DejaVuSans-79"/>
      <use x="787.841797" xlink:href="#DejaVuSans-7a"/>
      <use x="840.332031" xlink:href="#DejaVuSans-6f"/>
      <use x="901.513672" xlink:href="#DejaVuSans-77"/>
      <use x="983.300781" xlink:href="#DejaVuSans-61"/>
      <use x="1044.580078" xlink:href="#DejaVuSans-6e"/>
      <use x="1107.958984" xlink:href="#DejaVuSans-79"/>
     </g>
    </g>
    <g id="line2d_45"/>
    <g id="line2d_46">
     <g>
      <use style="fill:#ff0000;stroke:#ff0000;" x="257.000313" xlink:href="#m39feddc3c1" y="268.064187"/>
     </g>
    </g>
    <g id="text_14">
     <!-- Punkt równowagi asymptotycznie stabilny -->
     <defs>
      <path d="M 19.671875 64.796875 
L 19.671875 37.40625 
L 32.078125 37.40625 
Q 38.96875 37.40625 42.71875 40.96875 
Q 46.484375 44.53125 46.484375 51.125 
Q 46.484375 57.671875 42.71875 61.234375 
Q 38.96875 64.796875 32.078125 64.796875 
z
M 9.8125 72.90625 
L 32.078125 72.90625 
Q 44.34375 72.90625 50.609375 67.359375 
Q 56.890625 61.8125 56.890625 51.125 
Q 56.890625 40.328125 50.609375 34.8125 
Q 44.34375 29.296875 32.078125 29.296875 
L 19.671875 29.296875 
L 19.671875 0 
L 9.8125 0 
z
" id="DejaVuSans-50"/>
      <path d="M 8.5 21.578125 
L 8.5 54.6875 
L 17.484375 54.6875 
L 17.484375 21.921875 
Q 17.484375 14.15625 20.5 10.265625 
Q 23.53125 6.390625 29.59375 6.390625 
Q 36.859375 6.390625 41.078125 11.03125 
Q 45.3125 15.671875 45.3125 23.6875 
L 45.3125 54.6875 
L 54.296875 54.6875 
L 54.296875 0 
L 45.3125 0 
L 45.3125 8.40625 
Q 42.046875 3.421875 37.71875 1 
Q 33.40625 -1.421875 27.6875 -1.421875 
Q 18.265625 -1.421875 13.375 4.4375 
Q 8.5 10.296875 8.5 21.578125 
M 31.109375 56 
z
" id="DejaVuSans-75"/>
      <path d="M 9.078125 75.984375 
L 18.109375 75.984375 
L 18.109375 31.109375 
L 44.921875 54.6875 
L 56.390625 54.6875 
L 27.390625 29.109375 
L 57.625 0 
L 45.90625 0 
L 18.109375 26.703125 
L 18.109375 0 
L 9.078125 0 
z
" id="DejaVuSans-6b"/>
      <path d="M 30.609375 48.390625 
Q 23.390625 48.390625 19.1875 42.75 
Q 14.984375 37.109375 14.984375 27.296875 
Q 14.984375 17.484375 19.15625 11.84375 
Q 23.34375 6.203125 30.609375 6.203125 
Q 37.796875 6.203125 41.984375 11.859375 
Q 46.1875 17.53125 46.1875 27.296875 
Q 46.1875 37.015625 41.984375 42.703125 
Q 37.796875 48.390625 30.609375 48.390625 
M 30.609375 56 
Q 42.328125 56 49.015625 48.375 
Q 55.71875 40.765625 55.71875 27.296875 
Q 55.71875 13.875 49.015625 6.21875 
Q 42.328125 -1.421875 30.609375 -1.421875 
Q 18.84375 -1.421875 12.171875 6.21875 
Q 5.515625 13.875 5.515625 27.296875 
Q 5.515625 40.765625 12.171875 48.375 
Q 18.84375 56 30.609375 56 
M 37.40625 79.984375 
L 47.125 79.984375 
L 31.21875 61.625 
L 23.734375 61.625 
z
" id="DejaVuSans-f3"/>
      <path d="M 45.40625 27.984375 
Q 45.40625 37.75 41.375 43.109375 
Q 37.359375 48.484375 30.078125 48.484375 
Q 22.859375 48.484375 18.828125 43.109375 
Q 14.796875 37.75 14.796875 27.984375 
Q 14.796875 18.265625 18.828125 12.890625 
Q 22.859375 7.515625 30.078125 7.515625 
Q 37.359375 7.515625 41.375 12.890625 
Q 45.40625 18.265625 45.40625 27.984375 
M 54.390625 6.78125 
Q 54.390625 -7.171875 48.1875 -13.984375 
Q 42 -20.796875 29.203125 -20.796875 
Q 24.46875 -20.796875 20.265625 -20.09375 
Q 16.0625 -19.390625 12.109375 -17.921875 
L 12.109375 -9.1875 
Q 16.0625 -11.328125 19.921875 -12.34375 
Q 23.78125 -13.375 27.78125 -13.375 
Q 36.625 -13.375 41.015625 -8.765625 
Q 45.40625 -4.15625 45.40625 5.171875 
L 45.40625 9.625 
Q 42.625 4.78125 38.28125 2.390625 
Q 33.9375 0 27.875 0 
Q 17.828125 0 11.671875 7.65625 
Q 5.515625 15.328125 5.515625 27.984375 
Q 5.515625 40.671875 11.671875 48.328125 
Q 17.828125 56 27.875 56 
Q 33.9375 56 38.28125 53.609375 
Q 42.625 51.21875 45.40625 46.390625 
L 45.40625 54.6875 
L 54.390625 54.6875 
z
" id="DejaVuSans-67"/>
      <path d="M 18.109375 8.203125 
L 18.109375 -20.796875 
L 9.078125 -20.796875 
L 9.078125 54.6875 
L 18.109375 54.6875 
L 18.109375 46.390625 
Q 20.953125 51.265625 25.265625 53.625 
Q 29.59375 56 35.59375 56 
Q 45.5625 56 51.78125 48.09375 
Q 58.015625 40.1875 58.015625 27.296875 
Q 58.015625 14.40625 51.78125 6.484375 
Q 45.5625 -1.421875 35.59375 -1.421875 
Q 29.59375 -1.421875 25.265625 0.953125 
Q 20.953125 3.328125 18.109375 8.203125 
M 48.6875 27.296875 
Q 48.6875 37.203125 44.609375 42.84375 
Q 40.53125 48.484375 33.40625 48.484375 
Q 26.265625 48.484375 22.1875 42.84375 
Q 18.109375 37.203125 18.109375 27.296875 
Q 18.109375 17.390625 22.1875 11.75 
Q 26.265625 6.109375 33.40625 6.109375 
Q 40.53125 6.109375 44.609375 11.75 
Q 48.6875 17.390625 48.6875 27.296875 
" id="DejaVuSans-70"/>
      <path d="M 48.78125 52.59375 
L 48.78125 44.1875 
Q 44.96875 46.296875 41.140625 47.34375 
Q 37.3125 48.390625 33.40625 48.390625 
Q 24.65625 48.390625 19.8125 42.84375 
Q 14.984375 37.3125 14.984375 27.296875 
Q 14.984375 17.28125 19.8125 11.734375 
Q 24.65625 6.203125 33.40625 6.203125 
Q 37.3125 6.203125 41.140625 7.25 
Q 44.96875 8.296875 48.78125 10.40625 
L 48.78125 2.09375 
Q 45.015625 0.34375 40.984375 -0.53125 
Q 36.96875 -1.421875 32.421875 -1.421875 
Q 20.0625 -1.421875 12.78125 6.34375 
Q 5.515625 14.109375 5.515625 27.296875 
Q 5.515625 40.671875 12.859375 48.328125 
Q 20.21875 56 33.015625 56 
Q 37.15625 56 41.109375 55.140625 
Q 45.0625 54.296875 48.78125 52.59375 
" id="DejaVuSans-63"/>
      <path d="M 48.6875 27.296875 
Q 48.6875 37.203125 44.609375 42.84375 
Q 40.53125 48.484375 33.40625 48.484375 
Q 26.265625 48.484375 22.1875 42.84375 
Q 18.109375 37.203125 18.109375 27.296875 
Q 18.109375 17.390625 22.1875 11.75 
Q 26.265625 6.109375 33.40625 6.109375 
Q 40.53125 6.109375 44.609375 11.75 
Q 48.6875 17.390625 48.6875 27.296875 
M 18.109375 46.390625 
Q 20.953125 51.265625 25.265625 53.625 
Q 29.59375 56 35.59375 56 
Q 45.5625 56 51.78125 48.09375 
Q 58.015625 40.1875 58.015625 27.296875 
Q 58.015625 14.40625 51.78125 6.484375 
Q 45.5625 -1.421875 35.59375 -1.421875 
Q 29.59375 -1.421875 25.265625 0.953125 
Q 20.953125 3.328125 18.109375 8.203125 
L 18.109375 0 
L 9.078125 0 
L 9.078125 75.984375 
L 18.109375 75.984375 
z
" id="DejaVuSans-62"/>
     </defs>
     <g transform="translate(267.800313 270.164187)scale(0.06 -0.06)">
      <use xlink:href="#DejaVuSans-50"/>
      <use x="60.287109" xlink:href="#DejaVuSans-75"/>
      <use x="123.666016" xlink:href="#DejaVuSans-6e"/>
      <use x="187.044922" xlink:href="#DejaVuSans-6b"/>
      <use x="244.955078" xlink:href="#DejaVuSans-74"/>
      <use x="284.164062" xlink:href="#DejaVuSans-20"/>
      <use x="315.951172" xlink:href="#DejaVuSans-72"/>
      <use x="357.033203" xlink:href="#DejaVuSans-f3"/>
      <use x="418.214844" xlink:href="#DejaVuSans-77"/>
      <use x="500.001953" xlink:href="#DejaVuSans-6e"/>
      <use x="563.380859" xlink:href="#DejaVuSans-6f"/>
      <use x="624.5625" xlink:href="#DejaVuSans-77"/>
      <use x="706.349609" xlink:href="#DejaVuSans-61"/>
      <use x="767.628906" xlink:href="#DejaVuSans-67"/>
      <use x="831.105469" xlink:href="#DejaVuSans-69"/>
      <use x="858.888672" xlink:href="#DejaVuSans-20"/>
      <use x="890.675781" xlink:href="#DejaVuSans-61"/>
      <use x="951.955078" xlink:href="#DejaVuSans-73"/>
      <use x="1004.054688" xlink:href="#DejaVuSans-79"/>
      <use x="1063.234375" xlink:href="#DejaVuSans-6d"/>
      <use x="1160.646484" xlink:href="#DejaVuSans-70"/>
      <use x="1224.123047" xlink:href="#DejaVuSans-74"/>
      <use x="1263.332031" xlink:href="#DejaVuSans-6f"/>
      <use x="1324.513672" xlink:href="#DejaVuSans-74"/>
      <use x="1363.722656" xlink:href="#DejaVuSans-79"/>
      <use x="1422.902344" xlink:href="#DejaVuSans-63"/>
      <use x="1477.882812" xlink:href="#DejaVuSans-7a"/>
      <use x="1530.373047" xlink:href="#DejaVuSans-6e"/>
      <use x="1593.751953" xlink:href="#DejaVuSans-69"/>
      <use x="1621.535156" xlink:href="#DejaVuSans-65"/>
      <use x="1683.058594" xlink:href="#DejaVuSans-20"/>
      <use x="1714.845703" xlink:href="#DejaVuSans-73"/>
      <use x="1766.945312" xlink:href="#DejaVuSans-74"/>
      <use x="1806.154297" xlink:href="#DejaVuSans-61"/>
      <use x="1867.433594" xlink:href="#DejaVuSans-62"/>
      <use x="1930.910156" xlink:href="#DejaVuSans-69"/>
      <use x="1958.693359" xlink:href="#DejaVuSans-6c"/>
      <use x="1986.476562" xlink:href="#DejaVuSans-6e"/>
      <use x="2049.855469" xlink:href="#DejaVuSans-79"/>
     </g>
    </g>
   </g>
  </g>
 </g>
 <defs>
  <clipPath id="p0f5504960f">
   <rect height="266.112" width="357.12" x="42.620313" y="10.7"/>
  </clipPath>
 </defs>
</svg>
