<?xml version="1.0" encoding="utf-8" standalone="no"?>
<!DOCTYPE svg PUBLIC "-//W3C//DTD SVG 1.1//EN"
  "http://www.w3.org/Graphics/SVG/1.1/DTD/svg11.dtd">
<!-- Created with matplotlib (http://matplotlib.org/) -->
<svg height="314pt" version="1.1" viewBox="0 0 424 314" width="424pt" xmlns="http://www.w3.org/2000/svg" xmlns:xlink="http://www.w3.org/1999/xlink">
 <defs>
  <style type="text/css">
*{stroke-linecap:butt;stroke-linejoin:round;}
  </style>
 </defs>
 <g id="figure_1">
  <g id="patch_1">
   <path d="M 0 314.667469 
L 424.4325 314.667469 
L 424.4325 0 
L 0 0 
z
" style="fill:#ffffff;"/>
  </g>
  <g id="axes_1">
   <g id="patch_2">
    <path d="M 52.160938 277.111219 
L 409.280938 277.111219 
L 409.280938 10.999219 
L 52.160938 10.999219 
z
" style="fill:#ffffff;"/>
   </g>
   <g id="patch_3">
    <path clip-path="url(#p08f5263a28)" d="M 317.964228 105.991915 
L 311.9877 102.045482 
L 315.260016 101.065779 
L 315.342289 101.039919 
L 315.342859 101.040976 
L 318.615175 100.061273 
z
" style="fill:#ff7f0e;stroke:#ff7f0e;stroke-linejoin:miter;"/>
   </g>
   <g id="patch_4">
    <path clip-path="url(#p08f5263a28)" d="M 276.250322 183.67405 
L 283.450491 181.100825 
L 283.39249 183.728326 
L 283.391554 183.794851 
L 283.391021 183.794845 
L 283.33302 186.422345 
z
" style="fill:#ff7f0e;stroke:#ff7f0e;stroke-linejoin:miter;"/>
   </g>
   <g id="patch_5">
    <path clip-path="url(#p08f5263a28)" d="M 345.115708 110.494037 
L 339.579045 106.206107 
L 342.94551 105.423319 
L 343.030226 105.402283 
L 343.030737 105.403501 
L 346.397202 104.620713 
z
" style="fill:#ff7f0e;stroke:#ff7f0e;stroke-linejoin:miter;"/>
   </g>
   <g id="patch_6">
    <path clip-path="url(#p08f5263a28)" d="M 301.905639 193.550106 
L 308.228222 189.915408 
L 308.906217 192.494241 
L 308.924032 192.559433 
L 308.923381 192.559528 
L 309.601376 195.138362 
z
" style="fill:#ff7f0e;stroke:#ff7f0e;stroke-linejoin:miter;"/>
   </g>
   <g id="patch_7">
    <path clip-path="url(#p08f5263a28)" d="M 382.300666 142.881146 
L 378.379241 137.697598 
L 381.901452 137.567122 
L 381.990543 137.562633 
L 381.990622 137.563819 
L 385.512832 137.433343 
z
" style="fill:#ff7f0e;stroke:#ff7f0e;stroke-linejoin:miter;"/>
   </g>
   <g id="patch_8">
    <path clip-path="url(#p08f5263a28)" d="M 320.860015 205.693456 
L 327.222163 202.097297 
L 327.871914 204.680165 
L 327.889178 204.74544 
L 327.888364 204.745554 
L 328.538115 207.328422 
z
" style="fill:#ff7f0e;stroke:#ff7f0e;stroke-linejoin:miter;"/>
   </g>
   <g id="patch_9">
    <path clip-path="url(#p08f5263a28)" d="M 390.089617 45.369665 
L 383.832821 41.672294 
L 387.028465 40.560908 
L 387.107993 40.530577 
L 387.109368 40.532771 
L 390.305012 39.421385 
z
" style="fill:#ff7f0e;stroke:#ff7f0e;stroke-linejoin:miter;"/>
   </g>
   <g id="patch_10">
    <path clip-path="url(#p08f5263a28)" d="M 396.464878 56.290824 
L 390.366686 52.449129 
L 393.60751 51.412929 
L 393.688327 51.384562 
L 393.689556 51.386697 
L 396.93038 50.350497 
z
" style="fill:#ff7f0e;stroke:#ff7f0e;stroke-linejoin:miter;"/>
   </g>
   <g id="patch_11">
    <path clip-path="url(#p08f5263a28)" d="M 412.243035 35.882364 
L 406.032486 32.141949 
L 409.241813 31.052676 
L 409.321562 31.022645 
L 409.323062 31.025099 
L 412.532389 29.935826 
z
" style="fill:#ff7f0e;stroke:#ff7f0e;stroke-linejoin:miter;"/>
   </g>
   <g id="patch_12">
    <path clip-path="url(#p08f5263a28)" d="M 411.596558 78.550424 
L 405.903406 74.377829 
L 409.23964 73.526201 
L 409.323168 73.502612 
L 409.324101 73.504641 
L 412.660335 72.653013 
z
" style="fill:#ff7f0e;stroke:#ff7f0e;stroke-linejoin:miter;"/>
   </g>
   <g id="patch_13">
    <path clip-path="url(#p08f5263a28)" d="M 410.770154 112.319438 
L 405.788659 107.668768 
L 409.237762 107.121029 
L 409.324597 107.105469 
L 409.325081 107.107162 
L 412.774184 106.559423 
z
" style="fill:#ff7f0e;stroke:#ff7f0e;stroke-linejoin:miter;"/>
   </g>
   <g id="patch_14">
    <path clip-path="url(#p08f5263a28)" d="M 409.613916 142.158984 
L 405.713706 136.966557 
L 409.236433 136.844078 
L 409.325529 136.839582 
L 409.325616 136.840978 
L 412.848344 136.718499 
z
" style="fill:#ff7f0e;stroke:#ff7f0e;stroke-linejoin:miter;"/>
   </g>
   <g id="patch_15">
    <path clip-path="url(#p08f5263a28)" d="M 269.644475 205.863921 
L 277.628455 205.749896 
L 276.112062 208.12241 
L 276.07453 208.182778 
L 276.073672 208.182474 
L 274.55728 210.554988 
z
" style="fill:#ff7f0e;stroke:#ff7f0e;stroke-linejoin:miter;"/>
   </g>
   <g id="patch_16">
    <path clip-path="url(#p08f5263a28)" d="M 260.651572 202.033831 
L 268.62858 202.307319 
L 266.908149 204.601247 
L 266.865404 204.659659 
L 266.864593 204.659321 
L 265.144162 206.953249 
z
" style="fill:#ff7f0e;stroke:#ff7f0e;stroke-linejoin:miter;"/>
   </g>
   <g id="patch_17">
    <path clip-path="url(#p08f5263a28)" d="M 267.92671 209.101942 
L 275.910801 209.211568 
L 274.275831 211.539943 
L 274.235344 211.599242 
L 274.23444 211.59889 
L 272.599471 213.927265 
z
" style="fill:#ff7f0e;stroke:#ff7f0e;stroke-linejoin:miter;"/>
   </g>
   <g id="patch_18">
    <path clip-path="url(#p08f5263a28)" d="M 206.360077 164.135365 
L 213.133755 167.28667 
L 210.125489 168.658043 
L 210.049658 168.69316 
L 210.04933 168.692761 
L 207.041065 170.064134 
z
" style="fill:#ff7f0e;stroke:#ff7f0e;stroke-linejoin:miter;"/>
   </g>
   <g id="patch_19">
    <path clip-path="url(#p08f5263a28)" d="M 295.679442 230.711209 
L 303.638441 230.227326 
L 302.323039 232.665535 
L 302.290925 232.727617 
L 302.289738 232.727262 
L 300.974335 235.16547 
z
" style="fill:#ff7f0e;stroke:#ff7f0e;stroke-linejoin:miter;"/>
   </g>
   <g id="patch_20">
    <path clip-path="url(#p08f5263a28)" d="M 216.701739 185.956967 
L 224.073343 188.244845 
L 221.404678 189.962737 
L 221.337729 190.006757 
L 221.337117 190.006228 
L 218.668452 191.72412 
z
" style="fill:#ff7f0e;stroke:#ff7f0e;stroke-linejoin:miter;"/>
   </g>
   <g id="patch_21">
    <path clip-path="url(#p08f5263a28)" d="M 235.174317 220.165749 
L 242.856107 221.791064 
L 240.477395 223.731113 
L 240.418239 223.780953 
L 240.417174 223.780228 
L 238.038463 225.720276 
z
" style="fill:#ff7f0e;stroke:#ff7f0e;stroke-linejoin:miter;"/>
   </g>
   <g id="patch_22">
    <path clip-path="url(#p08f5263a28)" d="M 179.765118 157.736223 
L 185.428257 161.931435 
L 182.085961 162.769761 
L 182.001594 162.791533 
L 182.001346 162.790985 
L 178.659051 163.629311 
z
" style="fill:#ff7f0e;stroke:#ff7f0e;stroke-linejoin:miter;"/>
   </g>
   <g id="patch_23">
    <path clip-path="url(#p08f5263a28)" d="M 236.677641 228.597495 
L 244.364332 230.209892 
L 241.9915 232.153934 
L 241.932606 232.203949 
L 241.931429 232.203151 
L 239.558597 234.147193 
z
" style="fill:#ff7f0e;stroke:#ff7f0e;stroke-linejoin:miter;"/>
   </g>
   <g id="patch_24">
    <path clip-path="url(#p08f5263a28)" d="M 176.791381 164.343801 
L 182.731475 168.320661 
L 179.450226 169.283631 
L 179.367491 169.308643 
L 179.367156 169.30801 
L 176.085908 170.27098 
z
" style="fill:#ff7f0e;stroke:#ff7f0e;stroke-linejoin:miter;"/>
   </g>
   <g id="patch_25">
    <path clip-path="url(#p08f5263a28)" d="M 176.42329 186.802271 
L 183.00157 190.175604 
L 179.914201 191.445613 
L 179.83667 191.478616 
L 179.83604 191.477765 
L 176.748671 192.747774 
z
" style="fill:#ff7f0e;stroke:#ff7f0e;stroke-linejoin:miter;"/>
   </g>
   <g id="patch_26">
    <path clip-path="url(#p08f5263a28)" d="M 175.678164 117.716705 
L 173.022846 123.328548 
L 170.572509 121.438646 
L 170.51017 121.391021 
L 170.510475 121.390801 
L 168.060137 119.500899 
z
" style="fill:#ff7f0e;stroke:#ff7f0e;stroke-linejoin:miter;"/>
   </g>
   <g id="patch_27">
    <path clip-path="url(#p08f5263a28)" d="M 150.99775 175.277113 
L 156.884792 179.297539 
L 153.590927 180.23629 
L 153.508018 180.260989 
L 153.507538 180.260055 
L 150.213674 181.198805 
z
" style="fill:#ff7f0e;stroke:#ff7f0e;stroke-linejoin:miter;"/>
   </g>
   <g id="patch_28">
    <path clip-path="url(#p08f5263a28)" d="M 143.086559 147.342541 
L 147.43418 152.333761 
L 143.929746 152.627669 
L 143.841137 152.635839 
L 143.841027 152.635109 
L 140.336593 152.929016 
z
" style="fill:#ff7f0e;stroke:#ff7f0e;stroke-linejoin:miter;"/>
   </g>
   <g id="patch_29">
    <path clip-path="url(#p08f5263a28)" d="M 123.593139 159.236378 
L 128.504857 163.928076 
L 125.047786 164.447175 
L 124.960533 164.461304 
L 124.960266 164.460316 
L 121.503195 164.979415 
z
" style="fill:#ff7f0e;stroke:#ff7f0e;stroke-linejoin:miter;"/>
   </g>
   <g id="patch_30">
    <path clip-path="url(#p08f5263a28)" d="M 127.284298 121.004865 
L 128.631405 126.87003 
L 125.256306 126.108166 
L 125.170615 126.089481 
L 125.17086 126.088878 
L 121.795761 125.327013 
z
" style="fill:#ff7f0e;stroke:#ff7f0e;stroke-linejoin:miter;"/>
   </g>
   <g id="patch_31">
    <path clip-path="url(#p08f5263a28)" d="M 95.27419 144.609213 
L 99.200111 149.790871 
L 95.678014 149.923044 
L 95.588919 149.92745 
L 95.588847 149.92639 
L 92.066751 150.058563 
z
" style="fill:#ff7f0e;stroke:#ff7f0e;stroke-linejoin:miter;"/>
   </g>
   <g id="patch_32">
    <path clip-path="url(#p08f5263a28)" d="M 167.93661 89.359147 
L 160.600928 91.71026 
L 160.803432 89.08674 
L 160.80782 89.02029 
L 160.808558 89.020322 
L 161.011062 86.396802 
z
" style="fill:#ff7f0e;stroke:#ff7f0e;stroke-linejoin:miter;"/>
   </g>
   <g id="patch_33">
    <path clip-path="url(#p08f5263a28)" d="M 68.790992 108.357626 
L 69.862166 114.254293 
L 66.524865 113.404989 
L 66.439959 113.384399 
L 66.440377 113.383488 
L 63.103076 112.534184 
z
" style="fill:#ff7f0e;stroke:#ff7f0e;stroke-linejoin:miter;"/>
   </g>
   <g id="patch_34">
    <path clip-path="url(#p08f5263a28)" d="M 197.930503 87.500664 
L 189.94526 87.458241 
L 191.544833 85.116254 
L 191.584539 85.056663 
L 191.585329 85.056963 
L 193.184902 82.714975 
z
" style="fill:#ff7f0e;stroke:#ff7f0e;stroke-linejoin:miter;"/>
   </g>
   <g id="patch_35">
    <path clip-path="url(#p08f5263a28)" d="M 54.908922 267.182086 
L 61.277315 270.772103 
L 58.116538 271.937539 
L 58.038218 271.969603 
L 58.036518 271.967044 
L 54.875741 273.13248 
z
" style="fill:#ff7f0e;stroke:#ff7f0e;stroke-linejoin:miter;"/>
   </g>
   <g id="patch_36">
    <path clip-path="url(#p08f5263a28)" d="M 53.248431 264.608953 
L 59.5876 268.227574 
L 56.417432 269.37876 
L 56.338839 269.41045 
L 56.337174 269.407904 
L 53.167006 270.559089 
z
" style="fill:#ff7f0e;stroke:#ff7f0e;stroke-linejoin:miter;"/>
   </g>
   <g id="patch_37">
    <path clip-path="url(#p08f5263a28)" d="M 49.50588 229.325994 
L 55.47527 233.278422 
L 52.201186 234.25484 
L 52.119493 234.281785 
L 52.118298 234.279559 
L 48.844214 235.255977 
z
" style="fill:#ff7f0e;stroke:#ff7f0e;stroke-linejoin:miter;"/>
   </g>
   <g id="patch_38">
    <path clip-path="url(#p08f5263a28)" d="M 50.228838 191.943764 
L 55.598391 196.348118 
L 52.203216 197.058726 
L 52.117961 197.07857 
L 52.117262 197.076716 
L 48.722086 197.787323 
z
" style="fill:#ff7f0e;stroke:#ff7f0e;stroke-linejoin:miter;"/>
   </g>
   <g id="patch_39">
    <path clip-path="url(#p08f5263a28)" d="M 51.195209 160.593707 
L 55.69908 165.507394 
L 52.204886 165.862604 
L 52.116707 165.873139 
L 52.116425 165.871597 
L 48.622231 166.226807 
z
" style="fill:#ff7f0e;stroke:#ff7f0e;stroke-linejoin:miter;"/>
   </g>
   <g id="patch_40">
    <path clip-path="url(#p08f5263a28)" d="M 146.642824 71.7812 
L 139.271257 74.069142 
L 139.514334 71.447536 
L 139.519513 71.381116 
L 139.520488 71.381166 
L 139.763565 68.75956 
z
" style="fill:#ff7f0e;stroke:#ff7f0e;stroke-linejoin:miter;"/>
   </g>
   <g id="patch_41">
    <path clip-path="url(#p08f5263a28)" d="M 228.532157 102.539008 
L 220.810425 101.022425 
L 223.139387 99.049146 
L 223.197747 98.998795 
L 223.198348 98.999189 
L 225.52731 97.02591 
z
" style="fill:#ff7f0e;stroke:#ff7f0e;stroke-linejoin:miter;"/>
   </g>
   <g id="patch_42">
    <path clip-path="url(#p08f5263a28)" d="M 183.969583 77.871928 
L 176.000877 78.257023 
L 177.370562 75.835468 
L 177.404324 75.773876 
L 177.405238 75.774163 
L 178.774923 73.352608 
z
" style="fill:#ff7f0e;stroke:#ff7f0e;stroke-linejoin:miter;"/>
   </g>
   <g id="patch_43">
    <path clip-path="url(#p08f5263a28)" d="M 240.125374 110.007429 
L 232.672576 107.870601 
L 235.277208 106.098978 
L 235.342641 106.053713 
L 235.343148 106.054127 
L 237.947779 104.282503 
z
" style="fill:#ff7f0e;stroke:#ff7f0e;stroke-linejoin:miter;"/>
   </g>
   <g id="patch_44">
    <path clip-path="url(#p08f5263a28)" d="M 160.458433 63.262068 
L 152.583226 64.247391 
L 153.616273 61.734811 
L 153.641323 61.67095 
L 153.642426 61.671202 
L 154.675474 59.158622 
z
" style="fill:#ff7f0e;stroke:#ff7f0e;stroke-linejoin:miter;"/>
   </g>
   <g id="patch_45">
    <path clip-path="url(#p08f5263a28)" d="M 257.92783 123.452167 
L 251.238264 120.202627 
L 254.28199 118.875413 
L 254.358712 118.841386 
L 254.359047 118.841813 
L 257.402774 117.514599 
z
" style="fill:#ff7f0e;stroke:#ff7f0e;stroke-linejoin:miter;"/>
   </g>
   <g id="patch_46">
    <path clip-path="url(#p08f5263a28)" d="M 184.504841 54.237884 
L 176.535343 53.861999 
L 178.308571 51.590505 
L 178.352225 51.532462 
L 178.353462 51.532998 
L 180.12669 49.261504 
z
" style="fill:#ff7f0e;stroke:#ff7f0e;stroke-linejoin:miter;"/>
   </g>
   <g id="patch_47">
    <path clip-path="url(#p08f5263a28)" d="M 240.419519 89.025503 
L 232.928602 86.964015 
L 235.500826 85.166292 
L 235.565159 85.120155 
L 235.565945 85.12078 
L 238.138168 83.323057 
z
" style="fill:#ff7f0e;stroke:#ff7f0e;stroke-linejoin:miter;"/>
   </g>
   <g id="patch_48">
    <path clip-path="url(#p08f5263a28)" d="M 211.481927 55.741073 
L 203.676261 54.485542 
L 205.88342 52.436 
L 205.938073 52.38338 
L 205.939298 52.384113 
L 208.146457 50.334571 
z
" style="fill:#ff7f0e;stroke:#ff7f0e;stroke-linejoin:miter;"/>
   </g>
   <g id="patch_49">
    <path clip-path="url(#p08f5263a28)" d="M 283.52441 130.547087 
L 277.914675 126.312222 
L 281.267443 125.497446 
L 281.352077 125.476258 
L 281.352323 125.476819 
L 284.705091 124.662042 
z
" style="fill:#ff7f0e;stroke:#ff7f0e;stroke-linejoin:miter;"/>
   </g>
   <g id="patch_50">
    <path clip-path="url(#p08f5263a28)" d="M 254.979451 76.861427 
L 247.679625 74.449143 
L 250.40006 72.776948 
L 250.467981 72.733754 
L 250.468932 72.734614 
L 253.189367 71.062418 
z
" style="fill:#ff7f0e;stroke:#ff7f0e;stroke-linejoin:miter;"/>
   </g>
   <g id="patch_51">
    <path clip-path="url(#p08f5263a28)" d="M 293.002021 131.225901 
L 287.629897 126.823288 
L 291.024657 126.11158 
L 291.110364 126.092935 
L 291.110601 126.093562 
L 294.505361 125.381854 
z
" style="fill:#ff7f0e;stroke:#ff7f0e;stroke-linejoin:miter;"/>
   </g>
   <g id="patch_52">
    <path clip-path="url(#p08f5263a28)" d="M 293.614437 100.430662 
L 287.160315 96.926688 
L 290.292413 95.719025 
L 290.371064 95.687526 
L 290.371707 95.688451 
L 293.503806 94.480788 
z
" style="fill:#ff7f0e;stroke:#ff7f0e;stroke-linejoin:miter;"/>
   </g>
   <g id="patch_53">
    <path clip-path="url(#p08f5263a28)" d="M 301.257581 166.794153 
L 301.224903 160.843757 
L 304.385582 162.009342 
L 304.465842 162.038483 
L 304.465599 162.03885 
L 307.626278 163.204435 
z
" style="fill:#ff7f0e;stroke:#ff7f0e;stroke-linejoin:miter;"/>
   </g>
   <g id="patch_54">
    <path clip-path="url(#p08f5263a28)" d="M 326.301859 127.976023 
L 321.227447 123.381472 
L 324.665154 122.7953 
L 324.751905 122.77955 
L 324.752184 122.78046 
L 328.189891 122.194288 
z
" style="fill:#ff7f0e;stroke:#ff7f0e;stroke-linejoin:miter;"/>
   </g>
   <g id="patch_55">
    <path clip-path="url(#p08f5263a28)" d="M 325.562549 160.637462 
L 323.419792 154.905242 
L 326.881559 155.406659 
L 326.969355 155.418753 
L 326.969199 155.419353 
L 330.430966 155.92077 
z
" style="fill:#ff7f0e;stroke:#ff7f0e;stroke-linejoin:miter;"/>
   </g>
   <g id="matplotlib.axis_1">
    <g id="xtick_1">
     <g id="line2d_1">
      <defs>
       <path d="M 0 0 
L 0 3.5 
" id="mce02060685" style="stroke:#000000;stroke-width:0.8;"/>
      </defs>
      <g>
       <use style="stroke:#000000;stroke-width:0.8;" x="52.160938" xlink:href="#mce02060685" y="277.111219"/>
      </g>
     </g>
     <g id="text_1">
      <!-- −2.0 -->
      <defs>
       <path d="M 10.59375 35.5 
L 73.1875 35.5 
L 73.1875 27.203125 
L 10.59375 27.203125 
z
" id="DejaVuSans-2212"/>
       <path d="M 19.1875 8.296875 
L 53.609375 8.296875 
L 53.609375 0 
L 7.328125 0 
L 7.328125 8.296875 
Q 12.9375 14.109375 22.625 23.890625 
Q 32.328125 33.6875 34.8125 36.53125 
Q 39.546875 41.84375 41.421875 45.53125 
Q 43.3125 49.21875 43.3125 52.78125 
Q 43.3125 58.59375 39.234375 62.25 
Q 35.15625 65.921875 28.609375 65.921875 
Q 23.96875 65.921875 18.8125 64.3125 
Q 13.671875 62.703125 7.8125 59.421875 
L 7.8125 69.390625 
Q 13.765625 71.78125 18.9375 73 
Q 24.125 74.21875 28.421875 74.21875 
Q 39.75 74.21875 46.484375 68.546875 
Q 53.21875 62.890625 53.21875 53.421875 
Q 53.21875 48.921875 51.53125 44.890625 
Q 49.859375 40.875 45.40625 35.40625 
Q 44.1875 33.984375 37.640625 27.21875 
Q 31.109375 20.453125 19.1875 8.296875 
" id="DejaVuSans-32"/>
       <path d="M 10.6875 12.40625 
L 21 12.40625 
L 21 0 
L 10.6875 0 
z
" id="DejaVuSans-2e"/>
       <path d="M 31.78125 66.40625 
Q 24.171875 66.40625 20.328125 58.90625 
Q 16.5 51.421875 16.5 36.375 
Q 16.5 21.390625 20.328125 13.890625 
Q 24.171875 6.390625 31.78125 6.390625 
Q 39.453125 6.390625 43.28125 13.890625 
Q 47.125 21.390625 47.125 36.375 
Q 47.125 51.421875 43.28125 58.90625 
Q 39.453125 66.40625 31.78125 66.40625 
M 31.78125 74.21875 
Q 44.046875 74.21875 50.515625 64.515625 
Q 56.984375 54.828125 56.984375 36.375 
Q 56.984375 17.96875 50.515625 8.265625 
Q 44.046875 -1.421875 31.78125 -1.421875 
Q 19.53125 -1.421875 13.0625 8.265625 
Q 6.59375 17.96875 6.59375 36.375 
Q 6.59375 54.828125 13.0625 64.515625 
Q 19.53125 74.21875 31.78125 74.21875 
" id="DejaVuSans-30"/>
      </defs>
      <g transform="translate(40.019531 291.709656)scale(0.1 -0.1)">
       <use xlink:href="#DejaVuSans-2212"/>
       <use x="83.789062" xlink:href="#DejaVuSans-32"/>
       <use x="147.412109" xlink:href="#DejaVuSans-2e"/>
       <use x="179.199219" xlink:href="#DejaVuSans-30"/>
      </g>
     </g>
    </g>
    <g id="xtick_2">
     <g id="line2d_2">
      <g>
       <use style="stroke:#000000;stroke-width:0.8;" x="96.800938" xlink:href="#mce02060685" y="277.111219"/>
      </g>
     </g>
     <g id="text_2">
      <!-- −1.5 -->
      <defs>
       <path d="M 12.40625 8.296875 
L 28.515625 8.296875 
L 28.515625 63.921875 
L 10.984375 60.40625 
L 10.984375 69.390625 
L 28.421875 72.90625 
L 38.28125 72.90625 
L 38.28125 8.296875 
L 54.390625 8.296875 
L 54.390625 0 
L 12.40625 0 
z
" id="DejaVuSans-31"/>
       <path d="M 10.796875 72.90625 
L 49.515625 72.90625 
L 49.515625 64.59375 
L 19.828125 64.59375 
L 19.828125 46.734375 
Q 21.96875 47.46875 24.109375 47.828125 
Q 26.265625 48.1875 28.421875 48.1875 
Q 40.625 48.1875 47.75 41.5 
Q 54.890625 34.8125 54.890625 23.390625 
Q 54.890625 11.625 47.5625 5.09375 
Q 40.234375 -1.421875 26.90625 -1.421875 
Q 22.3125 -1.421875 17.546875 -0.640625 
Q 12.796875 0.140625 7.71875 1.703125 
L 7.71875 11.625 
Q 12.109375 9.234375 16.796875 8.0625 
Q 21.484375 6.890625 26.703125 6.890625 
Q 35.15625 6.890625 40.078125 11.328125 
Q 45.015625 15.765625 45.015625 23.390625 
Q 45.015625 31 40.078125 35.4375 
Q 35.15625 39.890625 26.703125 39.890625 
Q 22.75 39.890625 18.8125 39.015625 
Q 14.890625 38.140625 10.796875 36.28125 
z
" id="DejaVuSans-35"/>
      </defs>
      <g transform="translate(84.659531 291.709656)scale(0.1 -0.1)">
       <use xlink:href="#DejaVuSans-2212"/>
       <use x="83.789062" xlink:href="#DejaVuSans-31"/>
       <use x="147.412109" xlink:href="#DejaVuSans-2e"/>
       <use x="179.199219" xlink:href="#DejaVuSans-35"/>
      </g>
     </g>
    </g>
    <g id="xtick_3">
     <g id="line2d_3">
      <g>
       <use style="stroke:#000000;stroke-width:0.8;" x="141.440938" xlink:href="#mce02060685" y="277.111219"/>
      </g>
     </g>
     <g id="text_3">
      <!-- −1.0 -->
      <g transform="translate(129.299531 291.709656)scale(0.1 -0.1)">
       <use xlink:href="#DejaVuSans-2212"/>
       <use x="83.789062" xlink:href="#DejaVuSans-31"/>
       <use x="147.412109" xlink:href="#DejaVuSans-2e"/>
       <use x="179.199219" xlink:href="#DejaVuSans-30"/>
      </g>
     </g>
    </g>
    <g id="xtick_4">
     <g id="line2d_4">
      <g>
       <use style="stroke:#000000;stroke-width:0.8;" x="186.080938" xlink:href="#mce02060685" y="277.111219"/>
      </g>
     </g>
     <g id="text_4">
      <!-- −0.5 -->
      <g transform="translate(173.939531 291.709656)scale(0.1 -0.1)">
       <use xlink:href="#DejaVuSans-2212"/>
       <use x="83.789062" xlink:href="#DejaVuSans-30"/>
       <use x="147.412109" xlink:href="#DejaVuSans-2e"/>
       <use x="179.199219" xlink:href="#DejaVuSans-35"/>
      </g>
     </g>
    </g>
    <g id="xtick_5">
     <g id="line2d_5">
      <g>
       <use style="stroke:#000000;stroke-width:0.8;" x="230.720938" xlink:href="#mce02060685" y="277.111219"/>
      </g>
     </g>
     <g id="text_5">
      <!-- 0.0 -->
      <g transform="translate(222.769375 291.709656)scale(0.1 -0.1)">
       <use xlink:href="#DejaVuSans-30"/>
       <use x="63.623047" xlink:href="#DejaVuSans-2e"/>
       <use x="95.410156" xlink:href="#DejaVuSans-30"/>
      </g>
     </g>
    </g>
    <g id="xtick_6">
     <g id="line2d_6">
      <g>
       <use style="stroke:#000000;stroke-width:0.8;" x="275.360938" xlink:href="#mce02060685" y="277.111219"/>
      </g>
     </g>
     <g id="text_6">
      <!-- 0.5 -->
      <g transform="translate(267.409375 291.709656)scale(0.1 -0.1)">
       <use xlink:href="#DejaVuSans-30"/>
       <use x="63.623047" xlink:href="#DejaVuSans-2e"/>
       <use x="95.410156" xlink:href="#DejaVuSans-35"/>
      </g>
     </g>
    </g>
    <g id="xtick_7">
     <g id="line2d_7">
      <g>
       <use style="stroke:#000000;stroke-width:0.8;" x="320.000938" xlink:href="#mce02060685" y="277.111219"/>
      </g>
     </g>
     <g id="text_7">
      <!-- 1.0 -->
      <g transform="translate(312.049375 291.709656)scale(0.1 -0.1)">
       <use xlink:href="#DejaVuSans-31"/>
       <use x="63.623047" xlink:href="#DejaVuSans-2e"/>
       <use x="95.410156" xlink:href="#DejaVuSans-30"/>
      </g>
     </g>
    </g>
    <g id="xtick_8">
     <g id="line2d_8">
      <g>
       <use style="stroke:#000000;stroke-width:0.8;" x="364.640938" xlink:href="#mce02060685" y="277.111219"/>
      </g>
     </g>
     <g id="text_8">
      <!-- 1.5 -->
      <g transform="translate(356.689375 291.709656)scale(0.1 -0.1)">
       <use xlink:href="#DejaVuSans-31"/>
       <use x="63.623047" xlink:href="#DejaVuSans-2e"/>
       <use x="95.410156" xlink:href="#DejaVuSans-35"/>
      </g>
     </g>
    </g>
    <g id="xtick_9">
     <g id="line2d_9">
      <g>
       <use style="stroke:#000000;stroke-width:0.8;" x="409.280938" xlink:href="#mce02060685" y="277.111219"/>
      </g>
     </g>
     <g id="text_9">
      <!-- 2.0 -->
      <g transform="translate(401.329375 291.709656)scale(0.1 -0.1)">
       <use xlink:href="#DejaVuSans-32"/>
       <use x="63.623047" xlink:href="#DejaVuSans-2e"/>
       <use x="95.410156" xlink:href="#DejaVuSans-30"/>
      </g>
     </g>
    </g>
    <g id="text_10">
     <!-- x1 -->
     <defs>
      <path d="M 54.890625 54.6875 
L 35.109375 28.078125 
L 55.90625 0 
L 45.3125 0 
L 29.390625 21.484375 
L 13.484375 0 
L 2.875 0 
L 24.125 28.609375 
L 4.6875 54.6875 
L 15.28125 54.6875 
L 29.78125 35.203125 
L 44.28125 54.6875 
z
" id="DejaVuSans-78"/>
     </defs>
     <g transform="translate(224.580313 305.387781)scale(0.1 -0.1)">
      <use xlink:href="#DejaVuSans-78"/>
      <use x="59.179688" xlink:href="#DejaVuSans-31"/>
     </g>
    </g>
   </g>
   <g id="matplotlib.axis_2">
    <g id="ytick_1">
     <g id="line2d_10">
      <defs>
       <path d="M 0 0 
L -3.5 0 
" id="m7ad2467583" style="stroke:#000000;stroke-width:0.8;"/>
      </defs>
      <g>
       <use style="stroke:#000000;stroke-width:0.8;" x="52.160938" xlink:href="#m7ad2467583" y="277.111219"/>
      </g>
     </g>
     <g id="text_11">
      <!-- −2.0 -->
      <g transform="translate(20.878125 280.910437)scale(0.1 -0.1)">
       <use xlink:href="#DejaVuSans-2212"/>
       <use x="83.789062" xlink:href="#DejaVuSans-32"/>
       <use x="147.412109" xlink:href="#DejaVuSans-2e"/>
       <use x="179.199219" xlink:href="#DejaVuSans-30"/>
      </g>
     </g>
    </g>
    <g id="ytick_2">
     <g id="line2d_11">
      <g>
       <use style="stroke:#000000;stroke-width:0.8;" x="52.160938" xlink:href="#m7ad2467583" y="243.847219"/>
      </g>
     </g>
     <g id="text_12">
      <!-- −1.5 -->
      <g transform="translate(20.878125 247.646437)scale(0.1 -0.1)">
       <use xlink:href="#DejaVuSans-2212"/>
       <use x="83.789062" xlink:href="#DejaVuSans-31"/>
       <use x="147.412109" xlink:href="#DejaVuSans-2e"/>
       <use x="179.199219" xlink:href="#DejaVuSans-35"/>
      </g>
     </g>
    </g>
    <g id="ytick_3">
     <g id="line2d_12">
      <g>
       <use style="stroke:#000000;stroke-width:0.8;" x="52.160938" xlink:href="#m7ad2467583" y="210.583219"/>
      </g>
     </g>
     <g id="text_13">
      <!-- −1.0 -->
      <g transform="translate(20.878125 214.382437)scale(0.1 -0.1)">
       <use xlink:href="#DejaVuSans-2212"/>
       <use x="83.789062" xlink:href="#DejaVuSans-31"/>
       <use x="147.412109" xlink:href="#DejaVuSans-2e"/>
       <use x="179.199219" xlink:href="#DejaVuSans-30"/>
      </g>
     </g>
    </g>
    <g id="ytick_4">
     <g id="line2d_13">
      <g>
       <use style="stroke:#000000;stroke-width:0.8;" x="52.160938" xlink:href="#m7ad2467583" y="177.319219"/>
      </g>
     </g>
     <g id="text_14">
      <!-- −0.5 -->
      <g transform="translate(20.878125 181.118437)scale(0.1 -0.1)">
       <use xlink:href="#DejaVuSans-2212"/>
       <use x="83.789062" xlink:href="#DejaVuSans-30"/>
       <use x="147.412109" xlink:href="#DejaVuSans-2e"/>
       <use x="179.199219" xlink:href="#DejaVuSans-35"/>
      </g>
     </g>
    </g>
    <g id="ytick_5">
     <g id="line2d_14">
      <g>
       <use style="stroke:#000000;stroke-width:0.8;" x="52.160938" xlink:href="#m7ad2467583" y="144.055219"/>
      </g>
     </g>
     <g id="text_15">
      <!-- 0.0 -->
      <g transform="translate(29.257812 147.854437)scale(0.1 -0.1)">
       <use xlink:href="#DejaVuSans-30"/>
       <use x="63.623047" xlink:href="#DejaVuSans-2e"/>
       <use x="95.410156" xlink:href="#DejaVuSans-30"/>
      </g>
     </g>
    </g>
    <g id="ytick_6">
     <g id="line2d_15">
      <g>
       <use style="stroke:#000000;stroke-width:0.8;" x="52.160938" xlink:href="#m7ad2467583" y="110.791219"/>
      </g>
     </g>
     <g id="text_16">
      <!-- 0.5 -->
      <g transform="translate(29.257812 114.590437)scale(0.1 -0.1)">
       <use xlink:href="#DejaVuSans-30"/>
       <use x="63.623047" xlink:href="#DejaVuSans-2e"/>
       <use x="95.410156" xlink:href="#DejaVuSans-35"/>
      </g>
     </g>
    </g>
    <g id="ytick_7">
     <g id="line2d_16">
      <g>
       <use style="stroke:#000000;stroke-width:0.8;" x="52.160938" xlink:href="#m7ad2467583" y="77.527219"/>
      </g>
     </g>
     <g id="text_17">
      <!-- 1.0 -->
      <g transform="translate(29.257812 81.326437)scale(0.1 -0.1)">
       <use xlink:href="#DejaVuSans-31"/>
       <use x="63.623047" xlink:href="#DejaVuSans-2e"/>
       <use x="95.410156" xlink:href="#DejaVuSans-30"/>
      </g>
     </g>
    </g>
    <g id="ytick_8">
     <g id="line2d_17">
      <g>
       <use style="stroke:#000000;stroke-width:0.8;" x="52.160938" xlink:href="#m7ad2467583" y="44.263219"/>
      </g>
     </g>
     <g id="text_18">
      <!-- 1.5 -->
      <g transform="translate(29.257812 48.062437)scale(0.1 -0.1)">
       <use xlink:href="#DejaVuSans-31"/>
       <use x="63.623047" xlink:href="#DejaVuSans-2e"/>
       <use x="95.410156" xlink:href="#DejaVuSans-35"/>
      </g>
     </g>
    </g>
    <g id="ytick_9">
     <g id="line2d_18">
      <g>
       <use style="stroke:#000000;stroke-width:0.8;" x="52.160938" xlink:href="#m7ad2467583" y="10.999219"/>
      </g>
     </g>
     <g id="text_19">
      <!-- 2.0 -->
      <g transform="translate(29.257812 14.798437)scale(0.1 -0.1)">
       <use xlink:href="#DejaVuSans-32"/>
       <use x="63.623047" xlink:href="#DejaVuSans-2e"/>
       <use x="95.410156" xlink:href="#DejaVuSans-30"/>
      </g>
     </g>
    </g>
    <g id="text_20">
     <!-- x2 -->
     <g transform="translate(14.798438 150.195844)rotate(-90)scale(0.1 -0.1)">
      <use xlink:href="#DejaVuSans-78"/>
      <use x="59.179688" xlink:href="#DejaVuSans-32"/>
     </g>
    </g>
   </g>
   <g id="line2d_19">
    <path clip-path="url(#p08f5263a28)" d="M 230.720938 10.999219 
L 239.425798 17.649045 
L 247.684935 24.282669 
L 255.499946 30.884837 
L 262.873386 37.441158 
L 269.808836 43.937684 
L 276.310763 50.361479 
L 282.384419 56.700393 
L 288.03588 62.943105 
L 293.271975 69.079104 
L 298.100204 75.098642 
L 302.528681 80.992722 
L 306.566101 86.75309 
L 310.221697 92.372221 
L 313.505184 97.843305 
L 316.426694 103.16022 
L 318.996737 108.317513 
L 321.2262 113.310401 
L 323.126238 118.134718 
L 324.708389 122.78697 
L 325.984276 127.264198 
L 326.965718 131.564021 
L 327.664647 135.684592 
L 328.093121 139.624603 
L 328.263291 143.383254 
L 328.187354 146.960234 
L 327.877503 150.355682 
L 327.345899 153.570175 
L 326.604651 156.6047 
L 325.665785 159.460631 
L 324.541228 162.139717 
L 323.242777 164.644051 
L 321.782081 166.97605 
L 320.170617 169.138435 
L 318.419672 171.134205 
L 316.54031 172.966622 
L 314.543397 174.639187 
L 312.006823 176.44051 
L 309.334038 178.023812 
L 306.542319 179.396262 
L 303.648313 180.565339 
L 300.668112 181.53881 
L 297.617113 182.324655 
L 293.987846 183.015271 
L 290.304642 183.474892 
L 286.588587 183.71697 
L 282.859476 183.755061 
L 278.605355 183.566275 
L 274.383951 183.14912 
L 270.218681 182.523709 
L 265.626287 181.595909 
L 261.158952 180.457365 
L 256.840486 179.135025 
L 252.241769 177.481854 
L 247.87605 175.668175 
L 243.762665 173.726505 
L 239.547285 171.479348 
L 235.669966 169.152353 
L 232.139875 166.780468 
L 228.96125 164.395512 
L 225.894137 161.81244 
L 223.239273 159.280796 
L 220.986021 156.829075 
L 219.119504 154.481464 
L 217.621287 152.25801 
L 216.47003 150.174808 
L 215.642102 148.244234 
L 215.112162 146.475192 
L 214.853697 144.873394 
L 214.83951 143.441636 
L 215.042172 142.180097 
L 215.434415 141.086625 
L 215.989486 140.157038 
L 216.744502 139.328003 
L 217.628659 138.674841 
L 218.69119 138.155356 
L 219.918486 137.79319 
L 221.373206 137.600445 
L 222.934806 137.615059 
L 224.636392 137.850215 
L 226.404078 138.316734 
L 228.145947 139.001737 
L 229.760712 139.867422 
L 231.149504 140.853281 
L 232.22923 141.882065 
L 232.929203 142.840601 
L 233.261579 143.643203 
L 233.297097 144.265643 
L 233.111974 144.704921 
L 232.755377 144.985862 
L 232.227423 145.10851 
L 231.549792 145.02827 
L 230.857159 144.725266 
L 230.386638 144.295099 
L 230.313046 143.979754 
L 230.478187 143.883371 
L 230.748513 143.984447 
L 230.78265 144.074607 
L 230.720937 144.055219 
" style="fill:none;stroke:#ff7f0e;stroke-linecap:square;stroke-width:0.5;"/>
   </g>
   <g id="line2d_20">
    <path clip-path="url(#p08f5263a28)" d="M 270.024966 10.999219 
L 276.993468 17.468006 
L 283.616321 23.88155 
L 289.896509 30.232222 
L 295.837609 36.512492 
L 301.443644 42.715173 
L 306.718972 48.833585 
L 311.668262 54.861411 
L 316.296524 60.792735 
L 320.609096 66.622047 
L 324.611603 72.344217 
L 328.30993 77.954478 
L 331.710201 83.448417 
L 334.81877 88.821981 
L 337.642191 94.071457 
L 340.187228 99.193483 
L 342.460809 104.185021 
L 344.470004 109.043359 
L 346.222028 113.766098 
L 347.724191 118.351137 
L 348.983988 122.796712 
L 350.008928 127.101311 
L 350.806641 131.263727 
L 351.384773 135.283001 
L 351.751017 139.158437 
L 351.913099 142.889596 
L 351.878758 146.476275 
L 351.655757 149.91852 
L 351.251852 153.216598 
L 350.674769 156.370992 
L 349.932201 159.382386 
L 349.031801 162.251665 
L 347.981166 164.9799 
L 346.787832 167.568343 
L 345.459272 170.018417 
L 343.619638 172.888845 
L 341.594481 175.548987 
L 339.397775 178.002603 
L 337.043261 180.253798 
L 334.54437 182.306951 
L 331.914237 184.166718 
L 329.165673 185.837995 
L 326.311147 187.325896 
L 323.362789 188.635738 
L 320.332357 189.773009 
L 316.603518 190.917897 
L 312.791837 191.832416 
L 308.91545 192.52679 
L 304.991669 193.011412 
L 301.03696 193.296807 
L 296.404826 193.392114 
L 291.775135 193.24759 
L 287.169624 192.880135 
L 282.608442 192.306555 
L 277.473708 191.419987 
L 272.446343 190.310411 
L 267.548997 189.001796 
L 262.80178 187.517487 
L 257.662482 185.665782 
L 252.756963 183.651345 
L 248.103076 181.503777 
L 243.715188 179.251161 
L 239.165093 176.657198 
L 234.967706 174.000093 
L 231.129371 171.311119 
L 227.652415 168.618873 
L 224.535511 165.949269 
L 221.517167 163.066502 
L 218.918584 160.26641 
L 216.725779 157.572429 
L 214.921584 155.004339 
L 213.486174 152.578422 
L 212.397565 150.307639 
L 211.632095 148.201827 
L 211.164862 146.267903 
L 210.970149 144.510097 
L 211.021799 142.930187 
L 211.293558 141.527727 
L 211.759387 140.300288 
L 212.393739 139.243687 
L 213.171798 138.352223 
L 214.156461 137.559803 
L 215.349992 136.901448 
L 216.743707 136.408353 
L 218.317158 136.105908 
L 220.038061 136.011801 
L 221.863087 136.134357 
L 223.841194 136.495388 
L 225.79642 137.074675 
L 227.741968 137.879842 
L 229.572285 138.879438 
L 231.125677 139.973376 
L 232.392735 141.133484 
L 233.278407 142.241902 
L 233.774043 143.202818 
L 233.941224 143.986971 
L 233.848804 144.584259 
L 233.566462 144.999739 
L 233.11131 145.267462 
L 232.493595 145.366607 
L 231.724291 145.256896 
L 230.939826 144.918432 
L 230.371622 144.443561 
L 230.195869 144.045801 
L 230.3136 143.864527 
L 230.583729 143.867487 
L 230.806254 144.060514 
L 230.758992 144.089502 
L 230.720937 144.055219 
" style="fill:none;stroke:#ff7f0e;stroke-linecap:square;stroke-width:0.5;"/>
   </g>
   <g id="line2d_21">
    <path clip-path="url(#p08f5263a28)" d="M 313.33159 10.999219 
L 320.265833 18.733015 
L 326.78796 26.360119 
L 332.903634 33.872848 
L 338.619274 41.263812 
L 343.941597 48.526168 
L 348.877687 55.653591 
L 353.434934 62.64018 
L 357.621026 69.480474 
L 361.443953 76.169479 
L 364.911972 82.702652 
L 368.033567 89.075869 
L 370.817429 95.28541 
L 373.272435 101.327955 
L 375.407624 107.200571 
L 377.232183 112.900711 
L 378.755424 118.426193 
L 379.986793 123.775209 
L 380.935784 128.946281 
L 381.612009 133.938291 
L 382.02509 138.750424 
L 382.184718 143.382203 
L 382.100567 147.833428 
L 381.78231 152.1042 
L 381.239609 156.194907 
L 380.482146 160.106173 
L 379.51955 163.838885 
L 378.361361 167.394204 
L 377.017048 170.773519 
L 375.496011 173.978439 
L 373.807571 177.01077 
L 371.960948 179.872518 
L 369.965241 182.565881 
L 367.829431 185.093237 
L 365.562356 187.457137 
L 363.172712 189.660283 
L 360.669054 191.705526 
L 358.059775 193.595852 
L 354.662181 195.745654 
L 351.128114 197.664592 
L 347.472853 199.359237 
L 343.71122 200.8364 
L 339.857577 202.103084 
L 335.925804 203.166468 
L 331.929299 204.033874 
L 327.880954 204.712746 
L 322.971937 205.289151 
L 318.026559 205.618096 
L 313.064212 205.712843 
L 308.103218 205.586698 
L 303.16083 205.252965 
L 298.253226 204.724899 
L 292.59176 203.880758 
L 287.020364 202.810682 
L 281.559304 201.535008 
L 276.226955 200.073671 
L 271.039839 198.446134 
L 265.308345 196.406846 
L 259.804886 194.20252 
L 254.545762 191.859395 
L 249.544517 189.402547 
L 244.239859 186.5323 
L 239.287117 183.580279 
L 234.69434 180.576373 
L 230.466099 177.548301 
L 226.603749 174.521583 
L 223.105697 171.519531 
L 219.640952 168.238459 
L 216.611274 165.03968 
L 214.004066 161.945778 
L 211.803914 158.97619 
L 209.993003 156.147323 
L 208.551511 153.472682 
L 207.457988 150.963022 
L 206.689718 148.626506 
L 206.223055 146.468873 
L 206.033733 144.493616 
L 206.097161 142.70216 
L 206.388684 141.094049 
L 206.883823 139.667126 
L 207.558494 138.417715 
L 208.389197 137.340805 
L 209.353186 136.430218 
L 210.541469 135.612095 
L 211.959139 134.926618 
L 213.470781 134.442376 
L 215.178419 134.12607 
L 217.058732 134.003655 
L 219.076643 134.093189 
L 221.186012 134.40312 
L 223.453475 134.967429 
L 225.674051 135.752747 
L 227.774516 136.725548 
L 229.767477 137.895686 
L 231.474239 139.155906 
L 232.843745 140.439754 
L 233.845027 141.681062 
L 234.452963 142.778401 
L 234.721116 143.703252 
L 234.709894 144.442889 
L 234.481711 144.997592 
L 234.079285 145.389561 
L 233.507169 145.628825 
L 232.767242 145.690213 
L 231.901018 145.535397 
L 231.028258 145.154139 
L 230.365131 144.634178 
L 230.076996 144.156226 
L 230.126118 143.87813 
L 230.355929 143.78807 
L 230.700982 143.895095 
L 230.821073 144.080008 
L 230.799161 144.095881 
L 230.704152 144.059101 
L 230.720938 144.055219 
" style="fill:none;stroke:#ff7f0e;stroke-linecap:square;stroke-width:0.5;"/>
   </g>
   <g id="line2d_22">
    <path clip-path="url(#p08f5263a28)" d="M 366.458721 10.999219 
L 368.228447 13.336101 
L 369.96708 15.66277 
L 371.674576 17.979057 
L 373.351064 20.28484 
L 374.996691 22.579987 
L 376.611576 24.864398 
L 378.195877 27.13794 
L 379.749718 29.400514 
L 381.273263 31.651987 
L 382.766663 33.892248 
L 384.230073 36.121183 
L 385.663648 38.338687 
L 387.067542 40.544645 
L 388.441912 42.738953 
L 389.786915 44.921514 
L 391.102706 47.092216 
L 392.389449 49.25097 
L 393.647304 51.397678 
L 394.876427 53.532238 
L 396.076992 55.654574 
L 397.249156 57.764586 
L 398.393085 59.862183 
L 399.508954 61.947298 
L 400.596926 64.019836 
L 401.657168 66.079713 
L 402.689847 68.126843 
L 403.695145 70.161171 
L 404.673228 72.182608 
L 405.624269 74.19108 
L 406.548439 76.186511 
L 407.445919 78.168841 
L 408.316884 80.138003 
L 409.161511 82.093929 
L 409.979977 84.036555 
" style="fill:none;stroke:#ff7f0e;stroke-linecap:square;stroke-width:0.5;"/>
   </g>
   <g id="line2d_23">
    <path clip-path="url(#p08f5263a28)" d="M 409.280938 31.036434 
L 410.780948 33.490419 
" style="fill:none;stroke:#ff7f0e;stroke-linecap:square;stroke-width:0.5;"/>
   </g>
   <g id="line2d_24">
    <path clip-path="url(#p08f5263a28)" d="M 409.280938 73.513392 
L 410.213815 75.542624 
" style="fill:none;stroke:#ff7f0e;stroke-linecap:square;stroke-width:0.5;"/>
   </g>
   <g id="line2d_25">
    <path clip-path="url(#p08f5263a28)" d="M 409.280938 107.112402 
L 409.765209 108.805656 
" style="fill:none;stroke:#ff7f0e;stroke-linecap:square;stroke-width:0.5;"/>
   </g>
   <g id="line2d_26">
    <path clip-path="url(#p08f5263a28)" d="M 409.280938 136.841132 
L 409.36835 138.237161 
" style="fill:none;stroke:#ff7f0e;stroke-linecap:square;stroke-width:0.5;"/>
   </g>
   <g id="line2d_27">
    <path clip-path="url(#p08f5263a28)" d="M 409.280938 165.868643 
L 407.992608 170.212116 
L 406.477044 174.344349 
L 404.745061 178.267035 
L 402.80794 181.982238 
L 400.676896 185.492293 
L 398.362875 188.79975 
L 395.876686 191.90735 
L 393.228991 194.818041 
L 390.430275 197.534983 
L 387.490844 200.061519 
L 384.420819 202.401159 
L 381.230137 204.557562 
L 377.92853 206.534529 
L 374.525527 208.335996 
L 371.030441 209.966019 
L 367.452364 211.428763 
L 362.87655 213.028474 
L 358.201709 214.382012 
L 353.444066 215.498083 
L 348.619265 216.385552 
L 343.742339 217.053399 
L 338.827727 217.510713 
L 333.889244 217.766645 
L 328.940082 217.830382 
L 323.004687 217.666162 
L 317.092573 217.254367 
L 311.223048 216.610862 
L 305.414127 215.751383 
L 299.682578 214.691513 
L 294.043921 213.446629 
L 287.601881 211.780583 
L 281.326294 209.906805 
L 275.235585 207.848194 
L 269.346066 205.626985 
L 263.672 203.264684 
L 258.225655 200.781993 
L 252.293324 197.82269 
L 246.684477 194.760382 
L 241.408723 191.621807 
L 236.472883 188.432127 
L 231.881169 185.214879 
L 227.635345 181.99195 
L 223.271548 178.384521 
L 219.341005 174.82184 
L 215.836852 171.327633 
L 212.749513 167.923053 
L 210.067012 164.626742 
L 207.775267 161.4549 
L 205.858389 158.421367 
L 204.298951 155.537717 
L 203.078263 152.813373 
L 202.176617 150.25571 
L 201.573534 147.870183 
L 201.247986 145.660443 
L 201.178608 143.628465 
L 201.343891 141.77468 
L 201.722355 140.098101 
L 202.29272 138.596455 
L 203.034051 137.266312 
L 203.925891 136.103203 
L 205.069225 135.000202 
L 206.347662 134.088261 
L 207.736192 133.357869 
L 209.362512 132.751779 
L 211.221342 132.309633 
L 213.134258 132.076675 
L 215.230536 132.036585 
L 217.475491 132.210827 
L 219.82282 132.611406 
L 222.215908 133.239306 
L 224.59012 134.083496 
L 226.876016 135.12064 
L 229.106785 136.380333 
L 231.076505 137.754668 
L 232.65904 139.118383 
L 233.913401 140.479111 
L 234.812812 141.779267 
L 235.334906 142.919367 
L 235.532645 143.878658 
L 235.471137 144.61958 
L 235.200857 145.211747 
L 234.754132 145.642164 
L 234.147472 145.914265 
L 233.371661 146.016197 
L 232.441819 145.908494 
L 231.46258 145.568041 
L 230.619064 145.047776 
L 230.084462 144.477098 
L 229.936005 144.035453 
L 230.057328 143.80064 
L 230.341189 143.737544 
L 230.719989 143.879856 
L 230.839395 144.086807 
L 230.827297 144.097949 
L 230.703948 144.066318 
L 230.720938 144.055219 
" style="fill:none;stroke:#ff7f0e;stroke-linecap:square;stroke-width:0.5;"/>
   </g>
   <g id="line2d_28">
    <path clip-path="url(#p08f5263a28)" d="M 409.280938 197.069575 
L 406.351225 200.165338 
L 403.261128 203.051842 
L 400.021407 205.732584 
L 396.643125 208.211471 
L 393.137092 210.492558 
L 389.513833 212.580019 
L 385.783628 214.478166 
L 381.956516 216.191444 
L 378.042253 217.724433 
L 374.050424 219.081783 
L 369.990318 220.268254 
L 364.832999 221.518395 
L 359.600292 222.518681 
L 354.308604 223.278874 
L 348.973693 223.80884 
L 343.610664 224.118519 
L 338.233961 224.217901 
L 332.857365 224.117001 
L 327.49398 223.825832 
L 321.092817 223.239325 
L 314.74876 222.41037 
L 308.480649 221.35596 
L 302.305948 220.092953 
L 296.24079 218.637893 
L 290.299974 217.007077 
L 283.544129 214.903536 
L 276.995138 212.607077 
L 270.669995 210.141586 
L 264.58349 207.530148 
L 258.748286 204.794988 
L 253.174998 201.957412 
L 247.137251 198.61512 
L 241.462787 195.194398 
L 236.15856 191.7223 
L 231.228711 188.22412 
L 226.674766 184.723368 
L 222.495817 181.241761 
L 218.688724 177.799232 
L 215.248302 174.413942 
L 212.167509 171.102298 
L 209.437633 167.878998 
L 206.773227 164.374531 
L 204.52352 161.014397 
L 202.670234 157.812185 
L 201.193595 154.779092 
L 200.072618 151.924039 
L 199.285369 149.253805 
L 198.847474 147.039311 
L 198.639184 144.97673 
L 198.644127 143.067061 
L 198.845879 141.31029 
L 199.228068 139.70546 
L 199.85352 138.079351 
L 200.664082 136.639459 
L 201.637549 135.3809 
L 202.752363 134.297811 
L 204.131559 133.29198 
L 205.632326 132.484205 
L 207.392793 131.811059 
L 209.236909 131.348186 
L 211.309096 131.063524 
L 213.585414 130.989459 
L 216.028723 131.150212 
L 218.421115 131.525608 
L 220.885945 132.126384 
L 223.361981 132.948206 
L 225.78135 133.974527 
L 228.073064 135.176622 
L 230.167241 136.514508 
L 231.999748 137.938802 
L 233.516883 139.393476 
L 234.635843 140.757363 
L 235.414998 142.048823 
L 235.837169 143.172064 
L 235.954586 144.111702 
L 235.832995 144.833214 
L 235.513811 145.409576 
L 235.026574 145.82803 
L 234.355037 146.098273 
L 233.507769 146.185259 
L 232.529824 146.054477 
L 231.520984 145.696215 
L 230.63564 145.153854 
L 230.060012 144.560311 
L 229.868386 144.083162 
L 229.965525 143.806586 
L 230.230423 143.708321 
L 230.622683 143.803799 
L 230.860063 144.055154 
L 230.796168 144.111851 
L 230.749188 144.10192 
L 230.698965 144.05137 
L 230.720938 144.055219 
" style="fill:none;stroke:#ff7f0e;stroke-linecap:square;stroke-width:0.5;"/>
   </g>
   <g id="line2d_29">
    <path clip-path="url(#p08f5263a28)" d="M 409.280938 234.269425 
L 404.394314 235.877583 
L 399.427154 237.278911 
L 394.389987 238.479001 
L 389.293496 239.483875 
L 384.148122 240.299689 
L 378.963899 240.932589 
L 372.443668 241.475904 
L 365.895906 241.755204 
L 359.337819 241.782685 
L 352.785939 241.570552 
L 346.256009 241.131008 
L 339.762918 240.476214 
L 333.320746 239.618268 
L 326.942678 238.56918 
L 320.64109 237.34083 
L 313.196453 235.646704 
L 305.897252 233.731302 
L 298.760523 231.614199 
L 291.801742 229.314536 
L 285.034854 226.85098 
L 278.472322 224.241679 
L 272.125166 221.504238 
L 265.005134 218.171283 
L 258.204295 214.71305 
L 251.73324 211.154368 
L 245.600289 207.518861 
L 239.81154 203.82894 
L 234.371119 200.10573 
L 229.281238 196.369083 
L 224.542286 192.637581 
L 220.152947 188.928533 
L 215.560897 184.737621 
L 211.415093 180.618831 
L 207.706716 176.591937 
L 204.424933 172.674629 
L 201.557119 168.882565 
L 199.089075 165.229432 
L 197.005231 161.727001 
L 195.288859 158.385213 
L 193.922255 155.212262 
L 192.886934 152.214665 
L 192.163793 149.397372 
L 191.733272 146.76384 
L 191.575525 144.316132 
L 191.670549 142.055007 
L 191.998323 139.980022 
L 192.538938 138.08962 
L 193.272709 136.38123 
L 194.180272 134.85136 
L 195.242687 133.495691 
L 196.441521 132.309163 
L 197.931059 131.169364 
L 199.546216 130.227413 
L 201.263682 129.473574 
L 203.26513 128.843988 
L 205.337175 128.418948 
L 207.666492 128.169234 
L 210.230783 128.133142 
L 212.782815 128.316926 
L 215.495279 128.732433 
L 218.315152 129.393484 
L 221.178175 130.301961 
L 224.011131 131.44655 
L 226.583615 132.71955 
L 229.006808 134.158059 
L 231.209048 135.721078 
L 233.124527 137.358051 
L 234.629763 138.931285 
L 235.746405 140.400242 
L 236.535792 141.800904 
L 236.971979 143.029127 
L 237.103133 144.024158 
L 237.002388 144.848025 
L 236.713174 145.503341 
L 236.251369 146.019563 
L 235.610921 146.397985 
L 234.782576 146.615664 
L 233.809923 146.636984 
L 232.703837 146.434516 
L 231.59332 146.006076 
L 230.618909 145.3964 
L 229.959423 144.734031 
L 229.693398 144.183908 
L 229.738528 143.827902 
L 229.972174 143.656155 
L 230.362029 143.657944 
L 230.783575 143.87603 
L 230.873613 144.102143 
L 230.867601 144.107704 
L 230.714351 144.087685 
L 230.695768 144.047876 
L 230.720937 144.055219 
" style="fill:none;stroke:#ff7f0e;stroke-linecap:square;stroke-width:0.5;"/>
   </g>
   <g id="line2d_30">
    <path clip-path="url(#p08f5263a28)" d="M 399.861954 277.111219 
L 392.729015 276.730956 
L 385.62186 276.157888 
L 378.550275 275.399987 
L 369.775637 274.2056 
L 361.089785 272.752109 
L 352.509628 271.055714 
L 344.051093 269.13244 
L 335.728904 266.998052 
L 327.556635 264.668037 
L 319.546845 262.157601 
L 311.711124 259.481661 
L 304.060094 256.654817 
L 296.603411 253.691312 
L 289.349777 250.605041 
L 280.924349 246.758458 
L 272.814237 242.777133 
L 265.02939 238.682831 
L 257.578057 234.49643 
L 250.466844 230.237914 
L 243.700795 225.926355 
L 237.283401 221.579908 
L 231.216792 217.215782 
L 225.501745 212.850247 
L 220.13775 208.498635 
L 215.123099 204.175337 
L 210.454962 199.893804 
L 206.129475 195.666562 
L 201.509629 190.818828 
L 197.340296 186.077618 
L 193.610731 181.458156 
L 190.308845 176.974062 
L 187.421354 172.637398 
L 184.933906 168.458713 
L 182.831223 164.447092 
L 181.097238 160.610221 
L 179.715223 156.954436 
L 178.667918 153.484786 
L 177.937644 150.205102 
L 177.506432 147.118046 
L 177.356106 144.225199 
L 177.468391 141.527121 
L 177.824995 139.023409 
L 178.407714 136.712768 
L 179.198503 134.593072 
L 180.179556 132.661442 
L 181.333367 130.914299 
L 182.642801 129.347437 
L 184.091143 127.95608 
L 185.66215 126.734945 
L 187.587644 125.540424 
L 189.630255 124.551559 
L 191.768424 123.758619 
L 194.262615 123.088051 
L 196.824355 122.637503 
L 199.428002 122.391527 
L 202.341255 122.339045 
L 205.247119 122.498042 
L 208.402983 122.891379 
L 211.761196 123.54907 
L 214.99663 124.410315 
L 218.328508 125.532838 
L 221.450329 126.811641 
L 224.550226 128.318589 
L 227.546791 130.032471 
L 230.192154 131.800062 
L 232.619893 133.694842 
L 234.643849 135.554039 
L 236.275944 137.339027 
L 237.602503 139.11953 
L 238.539223 140.752538 
L 239.122216 142.217814 
L 239.391323 143.502731 
L 239.395413 144.541971 
L 239.194125 145.416063 
L 238.794483 146.168123 
L 238.243266 146.74659 
L 237.494837 147.202291 
L 236.561802 147.495105 
L 235.478966 147.596918 
L 234.256068 147.488409 
L 232.936502 147.145314 
L 231.650475 146.579966 
L 230.546201 145.855224 
L 229.768923 145.093209 
L 229.372416 144.418775 
L 229.314048 143.926248 
L 229.484278 143.62494 
L 229.823627 143.485454 
L 230.313317 143.536206 
L 230.797881 143.803123 
L 230.946874 144.089368 
L 230.81066 144.145694 
L 230.683564 144.051674 
L 230.720938 144.055219 
" style="fill:none;stroke:#ff7f0e;stroke-linecap:square;stroke-width:0.5;"/>
   </g>
   <g id="line2d_31">
    <path clip-path="url(#p08f5263a28)" d="M 338.156925 277.111219 
L 329.320222 274.363934 
L 320.673904 271.432974 
L 312.229904 268.334366 
L 303.998986 265.083883 
L 295.990862 261.696866 
L 288.214139 258.188207 
L 280.676492 254.572389 
L 273.384693 250.863479 
L 264.96718 246.309019 
L 256.920293 241.662632 
L 249.250508 236.945883 
L 241.962642 232.17934 
L 235.059917 227.382555 
L 228.544022 222.574044 
L 222.415181 217.771289 
L 216.672271 212.990729 
L 211.31288 208.247771 
L 206.333394 203.556792 
L 201.729076 198.931153 
L 197.494164 194.383205 
L 193.621939 189.92431 
L 190.104822 185.564862 
L 186.934419 181.314299 
L 184.101594 177.181123 
L 181.596583 173.172936 
L 179.409026 169.296453 
L 177.528082 165.557545 
L 175.942475 161.961263 
L 174.640551 158.511866 
L 173.610343 155.212849 
L 172.839624 152.066977 
L 172.315973 149.07632 
L 172.026827 146.242284 
L 171.959542 143.56565 
L 172.101434 141.0466 
L 172.439826 138.684758 
L 172.962093 136.479218 
L 173.6557 134.428583 
L 174.508246 132.530994 
L 175.507498 130.784167 
L 176.842669 128.933155 
L 178.342445 127.278818 
L 179.988603 125.815684 
L 181.76346 124.537749 
L 183.649918 123.438537 
L 185.921428 122.392293 
L 188.293697 121.559659 
L 190.744395 120.929329 
L 193.568959 120.447473 
L 196.438008 120.189836 
L 199.646416 120.145494 
L 202.84497 120.332712 
L 206.004194 120.727675 
L 209.402625 121.374016 
L 212.983638 122.297396 
L 216.40011 123.41125 
L 219.883623 124.790427 
L 223.113984 126.306347 
L 226.286637 128.045239 
L 229.125779 129.849301 
L 231.788377 131.807545 
L 234.057837 133.748443 
L 235.94159 135.633933 
L 237.542173 137.54856 
L 238.745076 139.333699 
L 239.580701 140.966352 
L 240.083625 142.430526 
L 240.291169 143.716566 
L 240.242107 144.820452 
L 239.975537 145.743057 
L 239.529912 146.489406 
L 238.901589 147.098769 
L 238.107803 147.55252 
L 237.124795 147.848634 
L 235.983922 147.955229 
L 234.687421 147.848243 
L 233.319442 147.511545 
L 231.951834 146.944163 
L 230.763467 146.217258 
L 229.847164 145.403342 
L 229.318991 144.651589 
L 229.159116 144.071588 
L 229.265402 143.684444 
L 229.549449 143.471967 
L 229.992498 143.425895 
L 230.540508 143.594713 
L 230.933336 143.928237 
L 230.931126 144.141036 
L 230.742297 144.125849 
L 230.681559 144.046455 
L 230.720938 144.055219 
" style="fill:none;stroke:#ff7f0e;stroke-linecap:square;stroke-width:0.5;"/>
   </g>
   <g id="line2d_32">
    <path clip-path="url(#p08f5263a28)" d="M 290.884806 277.111219 
L 282.106157 272.646828 
L 273.630267 268.086694 
L 265.46305 263.446403 
L 257.609428 258.741326 
L 250.073282 253.986118 
L 242.857504 249.194814 
L 235.964074 244.380862 
L 229.394075 239.557104 
L 223.147739 234.735773 
L 217.224504 229.9285 
L 210.541221 224.193829 
L 204.317638 218.513192 
L 198.548719 212.903281 
L 193.228129 207.379573 
L 188.348351 201.956342 
L 183.900768 196.646687 
L 179.875751 191.46254 
L 176.262744 186.414701 
L 173.050369 181.512863 
L 170.226495 176.765638 
L 167.77837 172.180608 
L 165.692672 167.764344 
L 163.955584 163.522447 
L 162.552878 159.459579 
L 161.469976 155.579504 
L 160.692036 151.885132 
L 160.204014 148.378552 
L 159.990731 145.061077 
L 160.036936 141.933283 
L 160.327356 138.995049 
L 160.846752 136.2456 
L 161.579973 133.683546 
L 162.511982 131.306918 
L 163.627964 129.113222 
L 164.91326 127.099457 
L 166.353593 125.262192 
L 167.934861 123.597558 
L 169.643401 122.101328 
L 171.465802 120.768918 
L 173.718549 119.414961 
L 176.088657 118.269103 
L 178.556971 117.322692 
L 181.105162 116.566721 
L 184.092844 115.924007 
L 187.137454 115.503639 
L 190.215918 115.291107 
L 193.692909 115.282167 
L 197.157276 115.496727 
L 200.960552 115.971846 
L 204.684865 116.668777 
L 208.302321 117.559783 
L 212.129299 118.731924 
L 215.770453 120.071834 
L 219.504584 121.686389 
L 222.96848 123.421541 
L 226.397214 125.394361 
L 229.476397 127.421998 
L 232.199911 129.465685 
L 234.735587 131.645287 
L 236.86669 133.766746 
L 238.607161 135.798921 
L 239.976252 137.71637 
L 240.997482 139.499067 
L 241.697646 141.132064 
L 242.105907 142.605101 
L 242.252942 143.912177 
L 242.170195 145.051106 
L 241.889194 146.02306 
L 241.403361 146.883816 
L 240.762428 147.565688 
L 239.947169 148.107941 
L 238.975228 148.4918 
L 237.811588 148.71163 
L 236.491208 148.734075 
L 235.011342 148.529968 
L 233.465244 148.08282 
L 231.974059 147.413425 
L 230.669397 146.581415 
L 229.691315 145.702613 
L 229.084893 144.873791 
L 228.8511 144.208689 
L 228.901149 143.731915 
L 229.149898 143.433616 
L 229.557164 143.296861 
L 230.12011 143.349608 
L 230.702392 143.623454 
L 231.016094 143.987654 
L 230.956609 144.167424 
L 230.741073 144.136942 
L 230.673819 144.044184 
L 230.720938 144.055219 
" style="fill:none;stroke:#ff7f0e;stroke-linecap:square;stroke-width:0.5;"/>
   </g>
   <g id="line2d_33">
    <path clip-path="url(#p08f5263a28)" d="M 250.140508 277.111219 
L 241.411843 271.166694 
L 233.082758 265.202107 
L 225.154128 259.23305 
L 217.62576 253.274305 
L 210.496489 247.339895 
L 203.764228 241.4431 
L 197.426022 235.596462 
L 191.478105 229.811788 
L 185.915945 224.100159 
L 180.734291 218.47194 
L 175.927247 212.93679 
L 171.488248 207.503664 
L 167.410163 202.180831 
L 163.685292 196.97588 
L 160.3055 191.895752 
L 157.262194 186.946745 
L 154.546406 182.134534 
L 152.148788 177.464181 
L 150.059671 172.940153 
L 148.269104 168.566345 
L 146.766893 164.346097 
L 145.542622 160.282203 
L 144.585731 156.376954 
L 143.885497 152.632118 
L 143.43111 149.049007 
L 143.211693 145.628464 
L 143.216323 142.370905 
L 143.434067 139.276327 
L 143.854001 136.344324 
L 144.46524 133.574118 
L 145.256961 130.96457 
L 146.218433 128.514206 
L 147.339029 126.221237 
L 148.608259 124.083576 
L 150.015778 122.09886 
L 151.551413 120.26447 
L 153.549232 118.25759 
L 155.700273 116.457695 
L 157.988101 114.859018 
L 160.396757 113.455424 
L 162.910791 112.240457 
L 165.515284 111.207374 
L 168.649058 110.222666 
L 171.864599 109.464574 
L 175.14117 108.921365 
L 178.459144 108.58108 
L 182.278139 108.425124 
L 186.101313 108.50019 
L 189.904843 108.788056 
L 194.133175 109.3437 
L 198.280804 110.12022 
L 202.322569 111.092594 
L 206.662385 112.373085 
L 210.81797 113.832964 
L 214.767342 115.44128 
L 218.852195 117.34681 
L 222.647404 119.359572 
L 226.441831 121.637484 
L 229.865182 123.961644 
L 232.913021 126.295322 
L 235.586503 128.605813 
L 238.067501 131.049497 
L 240.129793 133.401104 
L 241.791786 135.634644 
L 243.075975 137.729163 
L 244.008095 139.668462 
L 244.616312 141.440774 
L 244.930487 143.038408 
L 244.981494 144.457374 
L 244.800605 145.696998 
L 244.418954 146.759525 
L 243.867053 147.649728 
L 243.116095 148.42367 
L 242.236908 149.016735 
L 241.189849 149.466017 
L 239.917404 149.764135 
L 238.522101 149.864614 
L 236.972654 149.756828 
L 235.333553 149.424613 
L 233.624029 148.847781 
L 232.02426 148.074138 
L 230.635953 147.164883 
L 229.544956 146.198523 
L 228.808089 145.261148 
L 228.454163 144.4764 
L 228.408073 143.873512 
L 228.587532 143.456783 
L 228.935406 143.202373 
L 229.452131 143.108094 
L 230.109328 143.222318 
L 230.743173 143.554651 
L 231.080612 143.955364 
L 231.043251 144.176883 
L 230.829417 144.19385 
L 230.660314 144.046709 
L 230.68 144.030658 
L 230.730914 144.054077 
L 230.720937 144.055219 
" style="fill:none;stroke:#ff7f0e;stroke-linecap:square;stroke-width:0.5;"/>
   </g>
   <g id="line2d_34">
    <path clip-path="url(#p08f5263a28)" d="M 211.301367 277.111219 
L 204.317151 271.223225 
L 197.648124 265.366742 
L 189.752265 258.102246 
L 182.341371 250.91396 
L 175.409851 243.815718 
L 168.951256 236.820464 
L 162.958261 229.940223 
L 157.422764 223.186151 
L 152.335944 216.568557 
L 147.688312 210.096916 
L 143.46978 203.779889 
L 139.669708 197.625336 
L 136.276953 191.64034 
L 133.279952 185.831238 
L 130.66669 180.203606 
L 128.424818 174.762312 
L 126.541649 169.511516 
L 125.004293 164.454733 
L 123.799632 159.59483 
L 122.914402 154.934062 
L 122.335185 150.474081 
L 122.048473 146.215971 
L 122.040691 142.160262 
L 122.298249 138.30697 
L 122.807577 134.655618 
L 123.555158 131.205259 
L 124.527547 127.954504 
L 125.711413 124.901543 
L 127.093561 122.044176 
L 128.660947 119.379829 
L 130.400718 116.905583 
L 132.300221 114.6182 
L 134.347032 112.514142 
L 136.528979 110.589597 
L 138.834142 108.840503 
L 141.250905 107.262568 
L 143.767918 105.851287 
L 146.905184 104.371124 
L 150.15252 103.115773 
L 153.492186 102.076533 
L 156.907127 101.244443 
L 160.381043 100.610354 
L 164.487739 100.108393 
L 168.630116 99.84826 
L 172.786163 99.814833 
L 176.93529 99.992943 
L 181.644175 100.436102 
L 186.292721 101.113332 
L 190.856985 102.002471 
L 195.315397 103.081767 
L 200.180675 104.496828 
L 204.863615 106.096316 
L 209.343661 107.851973 
L 214.062698 109.953035 
L 218.491053 112.178409 
L 222.614283 114.495106 
L 226.422219 116.872407 
L 230.23949 119.523647 
L 233.664645 122.179523 
L 236.699323 124.809153 
L 239.349461 127.38517 
L 241.624779 129.883671 
L 243.694814 132.496872 
L 245.354935 134.971228 
L 246.628993 137.288904 
L 247.543378 139.436205 
L 248.126367 141.403294 
L 248.394893 143.042724 
L 248.433142 144.522972 
L 248.26466 145.843675 
L 247.912913 147.006335 
L 247.347321 148.09819 
L 246.620346 149.011783 
L 245.683232 149.809402 
L 244.623575 150.418726 
L 243.381676 150.879639 
L 241.97546 151.168873 
L 240.336768 151.269923 
L 238.603998 151.151962 
L 236.741944 150.799329 
L 234.83396 150.205839 
L 232.980611 149.390719 
L 231.289905 148.399293 
L 229.908276 147.338793 
L 228.845336 146.248622 
L 228.185946 145.273878 
L 227.871108 144.431067 
L 227.854203 143.796357 
L 228.049374 143.340193 
L 228.416235 143.03638 
L 228.952271 142.887864 
L 229.638473 142.932541 
L 230.389927 143.204771 
L 230.976097 143.639445 
L 231.191459 144.037543 
L 231.091656 144.223806 
L 230.838056 144.221541 
L 230.646059 144.043419 
L 230.649793 144.03639 
L 230.721048 144.038221 
L 230.720938 144.055219 
" style="fill:none;stroke:#ff7f0e;stroke-linecap:square;stroke-width:0.5;"/>
   </g>
   <g id="line2d_35">
    <path clip-path="url(#p08f5263a28)" d="M 170.557069 277.111219 
L 163.605078 270.03308 
L 157.030799 263.034877 
L 150.829887 256.124412 
L 144.997382 249.309135 
L 139.528001 242.596024 
L 134.416106 235.991628 
L 129.655698 229.502041 
L 125.240456 223.132931 
L 121.16376 216.889551 
L 117.418726 210.776759 
L 113.99822 204.799018 
L 110.894871 198.960403 
L 108.101115 193.264619 
L 105.609201 187.714999 
L 103.411197 182.314516 
L 101.499025 177.06579 
L 99.86448 171.971105 
L 98.499251 167.032418 
L 97.394913 162.251351 
L 96.542946 157.629211 
L 95.934793 153.167015 
L 95.561844 148.865487 
L 95.415472 144.725078 
L 95.487025 140.745965 
L 95.767853 136.928067 
L 96.249308 133.271051 
L 96.922769 129.774342 
L 97.779646 126.437135 
L 98.811403 123.258411 
L 100.009563 120.236938 
L 101.365721 117.371289 
L 102.871548 114.659846 
L 104.518825 112.100817 
L 106.299412 109.692236 
L 108.205279 107.431976 
L 110.228557 105.317779 
L 112.910899 102.876736 
L 115.749637 100.655133 
L 118.730254 98.647696 
L 121.83853 96.848863 
L 125.060696 95.252857 
L 128.383313 93.853668 
L 131.793395 92.645113 
L 135.278354 91.620838 
L 139.542065 90.62581 
L 143.875968 89.875359 
L 148.260838 89.357863 
L 152.678388 89.061562 
L 157.11129 88.974613 
L 161.543164 89.085126 
L 166.691872 89.447779 
L 171.795381 90.044229 
L 176.832617 90.855858 
L 181.78422 91.864271 
L 187.3158 93.23454 
L 192.688923 94.811873 
L 197.882738 96.570651 
L 202.879106 98.486114 
L 208.244767 100.798677 
L 213.322602 103.247049 
L 218.098075 105.800584 
L 222.560243 108.430467 
L 226.701534 111.10977 
L 230.921327 114.114405 
L 234.737653 117.117806 
L 238.152615 120.091526 
L 241.171937 123.01011 
L 243.804561 125.851058 
L 246.062255 128.594746 
L 247.959232 131.224341 
L 249.511781 133.725697 
L 250.737917 136.087234 
L 251.657043 138.299803 
L 252.289636 140.356543 
L 252.656948 142.252727 
L 252.780731 143.985604 
L 252.682983 145.554239 
L 252.385715 146.959345 
L 251.910745 148.203125 
L 251.208597 149.389194 
L 250.345089 150.390663 
L 249.346906 151.215298 
L 248.134241 151.923801 
L 246.709847 152.481027 
L 245.088077 152.856567 
L 243.29547 153.026789 
L 241.370535 152.976746 
L 239.362628 152.70175 
L 237.220677 152.175934 
L 235.137017 151.434202 
L 233.098134 150.467836 
L 231.287426 149.365964 
L 229.766257 148.192098 
L 228.57833 147.012256 
L 227.746144 145.890092 
L 227.280569 144.916236 
L 227.125229 144.114376 
L 227.218292 143.492598 
L 227.497377 143.046478 
L 227.955906 142.738949 
L 228.577537 142.59739 
L 229.354282 142.653853 
L 230.191658 142.937427 
L 230.905347 143.406307 
L 231.272007 143.887792 
L 231.270191 144.190211 
L 231.069621 144.292948 
L 230.746719 144.203532 
L 230.631167 144.033552 
L 230.663175 144.016531 
L 230.73649 144.054444 
L 230.720938 144.055219 
" style="fill:none;stroke:#ff7f0e;stroke-linecap:square;stroke-width:0.5;"/>
   </g>
   <g id="line2d_36">
    <path clip-path="url(#p08f5263a28)" d="M 123.28495 277.111219 
L 116.370258 268.652281 
L 109.90583 260.329593 
L 103.88443 252.150777 
L 98.298033 244.123113 
L 93.138339 236.253285 
L 88.396711 228.547442 
L 84.064201 221.011243 
L 80.13158 213.649881 
L 76.589333 206.468051 
L 73.4277 199.469962 
L 70.636707 192.659373 
L 68.206195 186.039607 
L 66.125841 179.613563 
L 64.385177 173.383725 
L 62.973617 167.35217 
L 61.880483 161.520592 
L 61.094986 155.890283 
L 60.606299 150.462183 
L 60.403533 145.236865 
L 60.475805 140.214578 
L 60.81222 135.395238 
L 61.401899 130.778449 
L 62.233989 126.36351 
L 63.297676 122.149429 
L 64.582217 118.134942 
L 66.076929 114.318514 
L 67.77123 110.698366 
L 69.654636 107.272478 
L 71.716773 104.038601 
L 73.947402 100.994282 
L 76.336418 98.136856 
L 78.873861 95.46348 
L 81.54994 92.97113 
L 84.355017 90.656616 
L 87.279636 88.516594 
L 90.314528 86.547581 
L 93.450603 84.745957 
L 96.678984 83.107985 
L 100.831048 81.284783 
L 105.09729 79.703536 
L 109.461735 78.356295 
L 113.908957 77.234935 
L 118.424073 76.331172 
L 122.992766 75.636598 
L 127.601284 75.142704 
L 132.236449 74.840907 
L 137.816123 74.720162 
L 143.395383 74.848639 
L 148.954769 75.211378 
L 154.476017 75.793469 
L 159.94206 76.580103 
L 165.337024 77.556624 
L 171.521754 78.9166 
L 177.568398 80.49277 
L 183.457691 82.263063 
L 189.172411 84.20598 
L 194.697326 86.30066 
L 200.762119 88.854572 
L 206.544799 91.551471 
L 212.031507 94.363783 
L 217.211269 97.265348 
L 222.075842 100.231466 
L 226.619555 103.23894 
L 231.343732 106.644865 
L 235.656486 110.047243 
L 239.55984 113.420036 
L 243.058814 116.739678 
L 246.161127 119.985046 
L 248.876905 123.137415 
L 251.218397 126.180388 
L 253.199693 129.099827 
L 254.836456 131.883764 
L 256.145669 134.522309 
L 257.145388 137.007552 
L 257.854512 139.333448 
L 258.292564 141.49571 
L 258.479484 143.491681 
L 258.435439 145.320225 
L 258.180649 146.981597 
L 257.735224 148.477325 
L 257.11902 149.810085 
L 256.351506 150.983588 
L 255.344297 152.106348 
L 254.198809 153.045711 
L 252.807732 153.877383 
L 251.308737 154.509992 
L 249.583707 154.988959 
L 247.647551 155.280091 
L 245.527883 155.355978 
L 243.265102 155.198115 
L 240.911519 154.798743 
L 238.529441 154.162212 
L 236.188252 153.305668 
L 233.960569 152.2589 
L 231.917717 151.063241 
L 230.124827 149.76949 
L 228.63599 148.43492 
L 227.489897 147.119551 
L 226.731305 145.93027 
L 226.316287 144.897126 
L 226.193777 144.036646 
L 226.309438 143.35384 
L 226.608893 142.844326 
L 227.082438 142.47334 
L 227.723503 142.257354 
L 228.53479 142.224275 
L 229.475223 142.416176 
L 230.386388 142.826007 
L 231.091216 143.372379 
L 231.42924 143.885348 
L 231.419509 144.213596 
L 231.212609 144.347781 
L 230.864681 144.300436 
L 230.602019 144.069644 
L 230.640932 144.007493 
L 230.705315 144.018851 
L 230.739696 144.059081 
L 230.720937 144.055219 
" style="fill:none;stroke:#ff7f0e;stroke-linecap:square;stroke-width:0.5;"/>
   </g>
   <g id="line2d_37">
    <path clip-path="url(#p08f5263a28)" d="M 61.579921 277.111219 
L 59.811893 274.526694 
L 58.078228 271.95485 
L 56.378968 269.395878 
L 54.713956 266.849897 
L 53.083008 264.317039 
L 51.485977 261.797405 
" style="fill:none;stroke:#ff7f0e;stroke-linecap:square;stroke-width:0.5;"/>
   </g>
   <g id="line2d_38">
    <path clip-path="url(#p08f5263a28)" d="M 52.160938 234.269425 
L 50.965409 232.04348 
" style="fill:none;stroke:#ff7f0e;stroke-linecap:square;stroke-width:0.5;"/>
   </g>
   <g id="line2d_39">
    <path clip-path="url(#p08f5263a28)" d="M 52.160938 197.069575 
L 51.462121 195.215631 
" style="fill:none;stroke:#ff7f0e;stroke-linecap:square;stroke-width:0.5;"/>
   </g>
   <g id="line2d_40">
    <path clip-path="url(#p08f5263a28)" d="M 52.160938 165.868643 
L 51.878632 164.326652 
" style="fill:none;stroke:#ff7f0e;stroke-linecap:square;stroke-width:0.5;"/>
   </g>
   <g id="line2d_41">
    <path clip-path="url(#p08f5263a28)" d="M 52.160938 136.841132 
L 52.681222 131.913822 
L 53.460122 127.198715 
L 54.486599 122.694919 
L 55.749386 118.401229 
L 57.237064 114.316126 
L 58.938475 110.437824 
L 60.842565 106.764314 
L 62.938396 103.29334 
L 65.215161 100.022398 
L 67.662201 96.948767 
L 70.269002 94.069527 
L 73.025216 91.381573 
L 75.920659 88.88162 
L 78.945335 86.566222 
L 82.089428 84.431768 
L 85.343321 82.474508 
L 88.697609 80.690567 
L 92.143098 79.075954 
L 95.670813 77.626567 
L 100.18276 76.04075 
L 104.792927 74.698131 
L 109.485251 73.590064 
L 114.244303 72.707846 
L 119.0552 72.042561 
L 123.903697 71.585277 
L 128.776141 71.326955 
L 133.659485 71.25853 
L 139.516436 71.414301 
L 145.350895 71.814742 
L 151.143792 72.444214 
L 156.877308 73.287176 
L 162.534872 74.328247 
L 168.101134 75.552242 
L 174.460913 77.19152 
L 180.656881 79.036273 
L 186.670788 81.063872 
L 192.486523 83.252389 
L 198.089958 85.580584 
L 204.218412 88.386201 
L 210.038602 91.318327 
L 215.538452 94.349212 
L 220.708784 97.452629 
L 225.543156 100.60393 
L 230.037682 103.780066 
L 234.190858 106.959599 
L 238.456126 110.516033 
L 242.294409 114.025993 
L 245.712746 117.466311 
L 248.720822 120.816349 
L 251.330663 124.057946 
L 253.556343 127.175341 
L 255.413695 130.155094 
L 256.920043 132.985984 
L 258.093936 135.65891 
L 258.954902 138.166778 
L 259.523208 140.504379 
L 259.819647 142.668274 
L 259.865321 144.656662 
L 259.681458 146.469258 
L 259.289239 148.107159 
L 258.709632 149.572724 
L 257.963253 150.869439 
L 257.070234 152.0018 
L 255.929738 153.073788 
L 254.658082 153.958012 
L 253.137058 154.725107 
L 251.517884 155.290164 
L 249.673304 155.693311 
L 247.621523 155.901246 
L 245.393554 155.887923 
L 243.033149 155.63667 
L 240.59573 155.141973 
L 238.146295 154.410754 
L 235.756294 153.462929 
L 233.499615 152.331092 
L 231.447924 151.059239 
L 229.665679 149.700499 
L 228.205276 148.313968 
L 227.102761 146.96082 
L 226.397005 145.748993 
L 226.039695 144.706463 
L 225.97605 143.847495 
L 226.148728 143.174789 
L 226.501043 142.681725 
L 227.025443 142.333399 
L 227.713801 142.145883 
L 228.566847 142.14698 
L 229.53835 142.376723 
L 230.462758 142.821493 
L 231.16056 143.393124 
L 231.474407 143.909227 
L 231.448686 144.230828 
L 231.231 144.363514 
L 230.870154 144.311969 
L 230.597142 144.075332 
L 230.633923 144.005734 
L 230.696744 144.013416 
L 230.740864 144.05878 
L 230.720937 144.055219 
" style="fill:none;stroke:#ff7f0e;stroke-linecap:square;stroke-width:0.5;"/>
   </g>
   <g id="line2d_42">
    <path clip-path="url(#p08f5263a28)" d="M 52.160938 107.112402 
L 54.245262 103.373976 
L 56.524523 99.845847 
L 58.98772 96.525411 
L 61.623684 93.409691 
L 64.421616 90.495483 
L 67.370565 87.779585 
L 70.459972 85.258484 
L 73.679528 82.928463 
L 77.019123 80.785665 
L 80.46882 78.8261 
L 84.01889 77.045659 
L 87.659823 75.440114 
L 91.382355 74.005132 
L 96.136496 72.444488 
L 100.986885 71.13455 
L 105.917003 70.066283 
L 110.910947 69.230506 
L 115.953432 68.617912 
L 121.0298 68.219111 
L 126.126019 68.02465 
L 131.228695 68.025036 
L 137.342516 68.26932 
L 143.426466 68.764125 
L 149.461033 69.493113 
L 155.428007 70.440137 
L 161.310488 71.589129 
L 167.092845 72.924336 
L 173.693294 74.696719 
L 180.117283 76.677351 
L 186.346353 78.842791 
L 192.364219 81.170323 
L 198.156691 83.637986 
L 203.711601 86.22463 
L 209.756156 89.300507 
L 215.464862 92.476495 
L 220.828448 95.725372 
L 225.840478 99.021562 
L 230.49717 102.341169 
L 234.797216 105.661991 
L 238.741602 108.963516 
L 242.757839 112.631305 
L 246.335225 116.22666 
L 249.483843 119.727986 
L 252.216227 123.116277 
L 254.547046 126.375032 
L 256.492819 129.490173 
L 258.071623 132.449945 
L 259.302821 135.244809 
L 260.206801 137.867324 
L 260.804731 140.312023 
L 261.118321 142.575287 
L 261.169616 144.655212 
L 260.980795 146.551476 
L 260.573985 148.265208 
L 259.971099 149.798851 
L 259.193679 151.156034 
L 258.262766 152.34144 
L 257.198776 153.360676 
L 255.884409 154.306095 
L 254.455858 155.064078 
L 252.781708 155.694078 
L 251.029425 156.125227 
L 249.061802 156.387339 
L 246.901744 156.449903 
L 244.584622 156.290169 
L 242.15795 155.895146 
L 239.680067 155.263245 
L 237.217792 154.405346 
L 234.843118 153.345128 
L 232.629071 152.118502 
L 230.645002 150.77209 
L 228.951681 149.360735 
L 227.596614 147.944163 
L 226.644337 146.639057 
L 226.056513 145.479878 
L 225.786607 144.487968 
L 225.783515 143.673216 
L 225.994681 143.035891 
L 226.388719 142.551129 
L 226.954703 142.216811 
L 227.68329 142.048836 
L 228.573761 142.075149 
L 229.552576 142.325958 
L 230.500277 142.797643 
L 231.197347 143.382808 
L 231.509843 143.909118 
L 231.481543 144.238187 
L 231.262984 144.375613 
L 230.899264 144.332541 
L 230.598293 144.0964 
L 230.619837 144.006753 
L 230.681276 144.0064 
L 230.74207 144.058059 
L 230.720937 144.055219 
" style="fill:none;stroke:#ff7f0e;stroke-linecap:square;stroke-width:0.5;"/>
   </g>
   <g id="line2d_43">
    <path clip-path="url(#p08f5263a28)" d="M 52.160938 73.513392 
L 56.012668 71.118536 
L 59.987118 68.931779 
L 64.073714 66.948666 
L 68.261564 65.164291 
L 72.540006 63.573596 
L 76.898737 62.171482 
L 81.327786 60.95275 
L 85.817448 59.912129 
L 91.500539 58.853648 
L 97.245926 58.05452 
L 103.036449 57.504063 
L 108.855784 57.191485 
L 114.688396 57.105933 
L 120.519446 57.236535 
L 126.334795 57.572428 
L 132.121024 58.102786 
L 139.008245 58.980748 
L 145.814739 60.104767 
L 152.521426 61.456576 
L 159.110695 63.018179 
L 165.566369 64.771904 
L 171.873681 66.700439 
L 178.019237 68.786869 
L 184.968614 71.398635 
L 191.664596 74.177528 
L 198.09264 77.099103 
L 204.240452 80.139894 
L 210.097897 83.277457 
L 215.656896 86.490406 
L 220.911329 89.758447 
L 226.538084 93.53625 
L 231.757956 97.33416 
L 236.570129 101.127285 
L 240.976365 104.892676 
L 244.980788 108.609317 
L 248.589665 112.258106 
L 251.811225 115.821831 
L 254.655458 119.285125 
L 257.133893 122.634421 
L 259.25941 125.857893 
L 261.04607 128.945399 
L 262.508942 131.888412 
L 263.663929 134.679948 
L 264.527607 137.31449 
L 265.117064 139.787918 
L 265.449758 142.097414 
L 265.543379 144.241389 
L 265.41573 146.219384 
L 265.084612 148.031999 
L 264.567705 149.680807 
L 263.882471 151.168266 
L 263.046064 152.497637 
L 261.945264 153.809199 
L 260.697502 154.932371 
L 259.325085 155.874674 
L 257.679915 156.71963 
L 255.93497 157.363762 
L 253.93137 157.85587 
L 251.870794 158.138746 
L 249.592529 158.230523 
L 247.12749 158.102199 
L 244.519521 157.733775 
L 241.824703 157.116259 
L 239.109592 156.253218 
L 236.448395 155.161661 
L 233.919144 153.872071 
L 231.71196 152.504618 
L 229.744867 151.035453 
L 228.076355 149.517284 
L 226.805851 148.076951 
L 225.871338 146.689725 
L 225.306033 145.460852 
L 225.062405 144.40904 
L 225.089179 143.542434 
L 225.334076 142.860299 
L 225.746074 142.354728 
L 226.332359 141.987604 
L 227.09602 141.779211 
L 228.022735 141.762888 
L 229.058896 141.968522 
L 230.095443 142.397517 
L 230.972085 142.995335 
L 231.501225 143.607681 
L 231.646072 144.076931 
L 231.523567 144.339631 
L 231.23529 144.431954 
L 230.822046 144.325014 
L 230.570365 144.062839 
L 230.629875 143.994138 
L 230.676372 143.999637 
L 230.745095 144.058472 
L 230.720937 144.055219 
" style="fill:none;stroke:#ff7f0e;stroke-linecap:square;stroke-width:0.5;"/>
   </g>
   <g id="line2d_44">
    <path clip-path="url(#p08f5263a28)" d="M 52.160938 31.036434 
L 58.247291 30.340284 
L 64.365267 29.849476 
L 70.504454 29.557147 
L 76.654266 29.455889 
L 82.804582 29.538321 
L 90.478448 29.888497 
L 98.119975 30.499936 
L 105.712165 31.358416 
L 113.238892 32.449798 
L 120.684923 33.760054 
L 128.036012 35.27531 
L 135.27888 36.98187 
L 142.401174 38.866246 
L 149.391436 40.915173 
L 157.59061 43.572777 
L 165.567754 46.426604 
L 173.307927 49.45526 
L 180.797877 52.637991 
L 188.026019 55.954702 
L 194.982341 59.38601 
L 201.658397 62.913242 
L 208.0472 66.518486 
L 214.143157 70.184608 
L 220.879406 74.516925 
L 227.206799 78.8853 
L 233.123046 83.266635 
L 238.627951 87.63933 
L 243.723288 91.983281 
L 248.412644 96.279879 
L 252.70128 100.511999 
L 256.596 104.663979 
L 260.105011 108.721599 
L 263.23779 112.672046 
L 266.004955 116.503877 
L 268.418133 120.206985 
L 270.48984 123.772555 
L 272.233362 127.193018 
L 273.662637 130.462002 
L 274.79215 133.574286 
L 275.636823 136.52574 
L 276.211917 139.313277 
L 276.532937 141.934792 
L 276.615543 144.389108 
L 276.47546 146.675918 
L 276.128406 148.79573 
L 275.590016 150.749804 
L 274.875773 152.540102 
L 274.000943 154.169227 
L 272.98052 155.640369 
L 271.65485 157.133022 
L 270.179466 158.430521 
L 268.574948 159.539893 
L 266.861088 160.468783 
L 264.825847 161.308235 
L 262.701773 161.941882 
L 260.266748 162.420152 
L 257.782515 162.678289 
L 255.026731 162.730065 
L 252.279784 162.562683 
L 249.328964 162.159205 
L 246.225153 161.497672 
L 243.254352 160.640752 
L 240.238965 159.542236 
L 237.253111 158.211795 
L 234.546936 156.771444 
L 231.988146 155.164926 
L 229.651256 153.431903 
L 227.708063 151.721208 
L 226.068391 149.980612 
L 224.836403 148.351521 
L 223.981372 146.863742 
L 223.466489 145.537992 
L 223.250944 144.386785 
L 223.291804 143.41541 
L 223.545622 142.622969 
L 223.969813 142.00342 
L 224.557572 141.525741 
L 225.322246 141.189678 
L 226.278004 141.021036 
L 227.377255 141.057074 
L 228.576795 141.319193 
L 229.78544 141.812105 
L 230.837848 142.480669 
L 231.567977 143.198493 
L 231.90443 143.816163 
L 231.909924 144.243574 
L 231.707616 144.478115 
L 231.343829 144.550788 
L 230.86255 144.41525 
L 230.535887 144.116668 
L 230.568895 143.98207 
L 230.597963 143.974994 
L 230.753255 144.053192 
L 230.720937 144.055219 
" style="fill:none;stroke:#ff7f0e;stroke-linecap:square;stroke-width:0.5;"/>
   </g>
   <g id="line2d_45">
    <path clip-path="url(#p08f5263a28)" d="M 94.983154 10.999219 
L 103.854635 12.718415 
L 112.60266 14.673596 
L 121.21229 16.849126 
L 129.669063 19.228735 
L 137.959768 21.796619 
L 146.07226 24.537327 
L 153.995452 27.435751 
L 161.719273 30.47714 
L 169.234626 33.647107 
L 176.53336 36.931652 
L 184.995785 41.005231 
L 193.125117 45.201543 
L 200.912356 49.498781 
L 208.350222 53.876059 
L 215.433082 58.313424 
L 222.156866 62.791878 
L 228.519005 67.293384 
L 234.518343 71.800877 
L 240.155044 76.298263 
L 245.430533 80.770422 
L 250.347418 85.203202 
L 254.909411 89.583411 
L 259.121243 93.89881 
L 262.988595 98.138099 
L 266.518021 102.290899 
L 269.716869 106.347745 
L 273.041859 110.948052 
L 275.941859 115.393967 
L 278.431881 119.674895 
L 280.527863 123.781736 
L 282.246533 127.706832 
L 283.60527 131.443904 
L 284.496985 134.493657 
L 285.148931 137.399207 
L 285.572789 140.158802 
L 285.780363 142.771303 
L 285.783523 145.23615 
L 285.59416 147.553329 
L 285.224149 149.723347 
L 284.685303 151.747193 
L 283.85888 153.925551 
L 282.83696 155.909948 
L 281.637596 157.70411 
L 280.278455 159.312409 
L 278.776769 160.739805 
L 277.149279 161.991774 
L 275.41219 163.074254 
L 273.312758 164.111983 
L 271.11291 164.94663 
L 268.833888 165.58868 
L 266.20033 166.094306 
L 263.518795 166.38581 
L 260.513245 166.478249 
L 257.510437 166.348687 
L 254.244189 165.976436 
L 251.04891 165.392037 
L 247.678269 164.54636 
L 244.45895 163.518591 
L 241.172747 162.239681 
L 237.897398 160.71604 
L 234.918904 159.087225 
L 232.074647 157.274663 
L 229.598338 155.438889 
L 227.362796 153.501808 
L 225.537067 151.628136 
L 224.103655 149.852728 
L 223.038392 148.202964 
L 222.311992 146.699215 
L 221.8915 145.355388 
L 221.741612 144.17956 
L 221.825856 143.17465 
L 222.107626 142.339109 
L 222.583353 141.630921 
L 223.240324 141.071537 
L 224.05552 140.676403 
L 225.044805 140.447115 
L 226.21851 140.41139 
L 227.510983 140.599803 
L 228.865725 141.027719 
L 230.141694 141.667613 
L 231.167062 142.421929 
L 231.851457 143.183445 
L 232.158221 143.833445 
L 232.148159 144.280769 
L 231.932397 144.546825 
L 231.556969 144.650635 
L 231.041822 144.55612 
L 230.584564 144.258093 
L 230.50007 143.996369 
L 230.658808 143.969975 
L 230.758915 144.061097 
L 230.720938 144.055219 
" style="fill:none;stroke:#ff7f0e;stroke-linecap:square;stroke-width:0.5;"/>
   </g>
   <g id="line2d_46">
    <path clip-path="url(#p08f5263a28)" d="M 148.110285 10.999219 
L 156.916514 14.648297 
L 165.473377 18.434918 
L 173.772049 22.343165 
L 181.804856 26.357552 
L 189.565146 30.463102 
L 197.047287 34.64536 
L 204.246628 38.890401 
L 211.159385 43.1848 
L 219.072363 48.385106 
L 226.565206 53.616749 
L 233.636206 58.859627 
L 240.285241 64.09478 
L 246.513654 69.304367 
L 252.324178 74.471675 
L 257.720857 79.581122 
L 262.708932 84.618227 
L 267.294769 89.569604 
L 271.485798 94.422957 
L 275.290387 99.167047 
L 278.717744 103.791665 
L 281.777852 108.287611 
L 284.481403 112.646671 
L 286.839716 116.861587 
L 288.864651 120.926025 
L 290.568567 124.834561 
L 291.964205 128.582617 
L 293.064652 132.166459 
L 293.88325 135.583127 
L 294.433554 138.830422 
L 294.729255 141.906859 
L 294.784148 144.811642 
L 294.612065 147.544621 
L 294.226825 150.106255 
L 293.64219 152.497575 
L 292.871815 154.720147 
L 291.929206 156.776033 
L 290.827688 158.667759 
L 289.580359 160.398277 
L 288.20007 161.970929 
L 286.438428 163.611122 
L 284.532313 165.047919 
L 282.500509 166.288275 
L 280.361127 167.339603 
L 278.131557 168.209709 
L 275.49436 168.992659 
L 272.78468 169.562114 
L 270.024749 169.930987 
L 266.885639 170.122595 
L 263.736759 170.095925 
L 260.257137 169.833388 
L 256.827806 169.350727 
L 253.146729 168.596021 
L 249.592394 167.63902 
L 245.891655 166.401899 
L 242.403781 165.001801 
L 238.892229 163.344437 
L 235.679437 161.583856 
L 232.570016 159.618719 
L 229.833048 157.62612 
L 227.469854 155.646033 
L 225.34606 153.577509 
L 223.630184 151.59853 
L 222.30119 149.737893 
L 221.332903 148.017917 
L 220.695274 146.454879 
L 220.355542 145.059515 
L 220.279297 143.837569 
L 220.431431 142.790368 
L 220.776951 141.915411 
L 221.320208 141.165448 
L 222.005067 140.594586 
L 222.898708 140.150176 
L 223.932349 139.88531 
L 225.18082 139.804748 
L 226.533096 139.943214 
L 227.961996 140.311396 
L 229.356542 140.894055 
L 230.62588 141.662453 
L 231.60221 142.508025 
L 232.197548 143.304369 
L 232.416993 143.936917 
L 232.354643 144.379903 
L 232.101387 144.643903 
L 231.687059 144.74797 
L 231.136355 144.653635 
L 230.620441 144.350393 
L 230.444709 144.034977 
L 230.571372 143.942203 
L 230.766204 144.055405 
L 230.766199 144.055739 
L 230.744768 144.073634 
L 230.71368 144.054282 
L 230.71368 144.054282 
L 230.718698 144.052483 
L 230.720938 144.055219 
" style="fill:none;stroke:#ff7f0e;stroke-linecap:square;stroke-width:0.5;"/>
   </g>
   <g id="line2d_47">
    <path clip-path="url(#p08f5263a28)" d="M 191.416909 10.999219 
L 200.169953 16.221395 
L 208.570696 21.500567 
L 216.615779 26.821165 
L 224.302893 32.168092 
L 231.630718 37.527006 
L 238.598941 42.884281 
L 245.208113 48.226934 
L 251.459622 53.542648 
L 257.355674 58.819779 
L 262.899235 64.047348 
L 268.093985 69.215027 
L 272.944269 74.313139 
L 277.45506 79.332644 
L 281.631917 84.265139 
L 285.480925 89.102836 
L 289.008696 93.838566 
L 292.222286 98.465752 
L 295.129202 102.978412 
L 297.737335 107.371136 
L 300.054892 111.63906 
L 302.090408 115.777874 
L 303.852664 119.78378 
L 305.35068 123.653491 
L 306.593687 127.384214 
L 307.591087 130.97363 
L 308.352429 134.419881 
L 308.88737 137.721546 
L 309.205654 140.87763 
L 309.31707 143.887537 
L 309.231437 146.75106 
L 308.95857 149.468355 
L 308.508269 152.039929 
L 307.890279 154.466618 
L 307.11429 156.749572 
L 306.189896 158.890237 
L 304.898088 161.273652 
L 303.422403 163.458125 
L 301.778705 165.447608 
L 299.982518 167.246507 
L 298.048998 168.859639 
L 295.992896 170.292185 
L 293.828531 171.549659 
L 291.18508 172.803196 
L 288.434317 173.835994 
L 285.59651 174.658092 
L 282.690969 175.279845 
L 279.310868 175.758709 
L 275.891941 176.005863 
L 272.458188 176.037601 
L 268.60513 175.836196 
L 264.79044 175.406112 
L 261.040345 174.770358 
L 256.977787 173.850248 
L 253.052174 172.734397 
L 248.92105 171.315741 
L 245.011916 169.732819 
L 241.346396 168.020859 
L 237.644845 166.04486 
L 234.268021 163.994276 
L 230.986598 161.73057 
L 228.100989 159.463103 
L 225.608611 157.228216 
L 223.500968 155.057307 
L 221.645831 152.821308 
L 220.198762 150.717356 
L 219.132875 148.766617 
L 218.417835 146.984695 
L 218.020862 145.382074 
L 217.907653 143.964594 
L 218.02602 142.81568 
L 218.361236 141.756862 
L 218.878346 140.878338 
L 219.544145 140.172596 
L 220.386658 139.597137 
L 221.392702 139.173762 
L 222.608074 138.90902 
L 224.003082 138.843184 
L 225.523935 139.000471 
L 227.095219 139.384258 
L 228.680818 139.999567 
L 230.153083 140.811238 
L 231.351043 141.719093 
L 232.20507 142.632113 
L 232.677275 143.440893 
L 232.80988 144.073683 
L 232.689605 144.517713 
L 232.393628 144.788493 
L 231.927517 144.904217 
L 231.319835 144.819171 
L 230.71256 144.513512 
L 230.394472 144.134762 
L 230.445426 143.937175 
L 230.661562 143.945073 
L 230.774535 144.065094 
L 230.720938 144.055219 
" style="fill:none;stroke:#ff7f0e;stroke-linecap:square;stroke-width:0.5;"/>
   </g>
   <g id="line2d_48">
    <path clip-path="url(#p08f5263a28)" d="M 230.720937 10.999219 
L 239.425798 17.649045 
L 247.684935 24.282669 
L 255.499946 30.884837 
L 262.873386 37.441158 
L 269.808836 43.937684 
L 276.310763 50.361479 
L 282.384419 56.700393 
L 288.03588 62.943105 
L 293.271975 69.079104 
L 298.100204 75.098642 
L 302.528681 80.992722 
L 306.566101 86.75309 
L 310.221697 92.372221 
L 313.505184 97.843305 
L 316.426694 103.16022 
L 318.996737 108.317513 
L 321.2262 113.310401 
L 323.126238 118.134718 
L 324.708389 122.78697 
L 325.984276 127.264198 
L 326.965718 131.564021 
L 327.664647 135.684592 
L 328.093121 139.624603 
L 328.263291 143.383254 
L 328.187354 146.960234 
L 327.877503 150.355682 
L 327.345899 153.570175 
L 326.604651 156.6047 
L 325.665785 159.460631 
L 324.541228 162.139717 
L 323.242777 164.644051 
L 321.782081 166.97605 
L 320.170617 169.138435 
L 318.419672 171.134205 
L 316.54031 172.966622 
L 314.543397 174.639187 
L 312.006823 176.44051 
L 309.334038 178.023812 
L 306.542319 179.396262 
L 303.648313 180.565339 
L 300.668112 181.53881 
L 297.617113 182.324655 
L 293.987846 183.015271 
L 290.304642 183.474892 
L 286.588587 183.71697 
L 282.859476 183.755061 
L 278.605355 183.566275 
L 274.383951 183.14912 
L 270.218681 182.523709 
L 265.626287 181.595909 
L 261.158952 180.457365 
L 256.840486 179.135025 
L 252.241769 177.481854 
L 247.87605 175.668175 
L 243.762665 173.726505 
L 239.547285 171.479348 
L 235.669966 169.152353 
L 232.139875 166.780468 
L 228.96125 164.395512 
L 225.894137 161.81244 
L 223.239273 159.280796 
L 220.986021 156.829075 
L 219.119504 154.481464 
L 217.621287 152.25801 
L 216.47003 150.174808 
L 215.642102 148.244234 
L 215.112162 146.475192 
L 214.853697 144.873394 
L 214.83951 143.441636 
L 215.042172 142.180097 
L 215.434415 141.086625 
L 215.989486 140.157038 
L 216.744502 139.328003 
L 217.628659 138.674841 
L 218.69119 138.155356 
L 219.918486 137.79319 
L 221.373206 137.600445 
L 222.934806 137.615059 
L 224.636392 137.850215 
L 226.404078 138.316734 
L 228.145947 139.001737 
L 229.760712 139.867422 
L 231.149504 140.853281 
L 232.22923 141.882065 
L 232.929203 142.840601 
L 233.261579 143.643203 
L 233.297097 144.265643 
L 233.111974 144.704921 
L 232.755377 144.985862 
L 232.227423 145.10851 
L 231.549792 145.02827 
L 230.857159 144.725266 
L 230.386638 144.295099 
L 230.313046 143.979754 
L 230.478187 143.883371 
L 230.748513 143.984447 
L 230.78265 144.074607 
L 230.720938 144.055219 
" style="fill:none;stroke:#ff7f0e;stroke-linecap:square;stroke-width:0.5;"/>
   </g>
   <g id="line2d_49">
    <path clip-path="url(#p08f5263a28)" d="M 230.720938 144.055219 
" style="fill:none;stroke:#ff7f0e;stroke-linecap:square;stroke-width:1.5;"/>
   </g>
   <g id="patch_56">
    <path d="M 52.160938 277.111219 
L 52.160938 10.999219 
" style="fill:none;stroke:#000000;stroke-linecap:square;stroke-linejoin:miter;stroke-width:0.8;"/>
   </g>
   <g id="patch_57">
    <path d="M 409.280938 277.111219 
L 409.280938 10.999219 
" style="fill:none;stroke:#000000;stroke-linecap:square;stroke-linejoin:miter;stroke-width:0.8;"/>
   </g>
   <g id="patch_58">
    <path d="M 52.160938 277.111219 
L 409.280938 277.111219 
" style="fill:none;stroke:#000000;stroke-linecap:square;stroke-linejoin:miter;stroke-width:0.8;"/>
   </g>
   <g id="patch_59">
    <path d="M 52.160938 10.999219 
L 409.280938 10.999219 
" style="fill:none;stroke:#000000;stroke-linecap:square;stroke-linejoin:miter;stroke-width:0.8;"/>
   </g>
   <g id="legend_1">
    <g id="patch_60">
     <path d="M 315.853438 274.111219 
L 405.080938 274.111219 
Q 406.280938 274.111219 406.280938 272.911219 
L 406.280938 264.704344 
Q 406.280938 263.504344 405.080938 263.504344 
L 315.853438 263.504344 
Q 314.653438 263.504344 314.653438 264.704344 
L 314.653438 272.911219 
Q 314.653438 274.111219 315.853438 274.111219 
z
" style="fill:#ffffff;opacity:0.8;stroke:#cccccc;stroke-linejoin:miter;"/>
    </g>
    <g id="line2d_50">
     <path d="M 317.053438 268.363406 
L 329.053438 268.363406 
" style="fill:none;stroke:#ff7f0e;stroke-linecap:square;stroke-width:1.5;"/>
    </g>
    <g id="line2d_51"/>
    <g id="text_21">
     <!-- system zlinearyzowany -->
     <defs>
      <path d="M 44.28125 53.078125 
L 44.28125 44.578125 
Q 40.484375 46.53125 36.375 47.5 
Q 32.28125 48.484375 27.875 48.484375 
Q 21.1875 48.484375 17.84375 46.4375 
Q 14.5 44.390625 14.5 40.28125 
Q 14.5 37.15625 16.890625 35.375 
Q 19.28125 33.59375 26.515625 31.984375 
L 29.59375 31.296875 
Q 39.15625 29.25 43.1875 25.515625 
Q 47.21875 21.78125 47.21875 15.09375 
Q 47.21875 7.46875 41.1875 3.015625 
Q 35.15625 -1.421875 24.609375 -1.421875 
Q 20.21875 -1.421875 15.453125 -0.5625 
Q 10.6875 0.296875 5.421875 2 
L 5.421875 11.28125 
Q 10.40625 8.6875 15.234375 7.390625 
Q 20.0625 6.109375 24.8125 6.109375 
Q 31.15625 6.109375 34.5625 8.28125 
Q 37.984375 10.453125 37.984375 14.40625 
Q 37.984375 18.0625 35.515625 20.015625 
Q 33.0625 21.96875 24.703125 23.78125 
L 21.578125 24.515625 
Q 13.234375 26.265625 9.515625 29.90625 
Q 5.8125 33.546875 5.8125 39.890625 
Q 5.8125 47.609375 11.28125 51.796875 
Q 16.75 56 26.8125 56 
Q 31.78125 56 36.171875 55.265625 
Q 40.578125 54.546875 44.28125 53.078125 
" id="DejaVuSans-73"/>
      <path d="M 32.171875 -5.078125 
Q 28.375 -14.84375 24.75 -17.8125 
Q 21.140625 -20.796875 15.09375 -20.796875 
L 7.90625 -20.796875 
L 7.90625 -13.28125 
L 13.1875 -13.28125 
Q 16.890625 -13.28125 18.9375 -11.515625 
Q 21 -9.765625 23.484375 -3.21875 
L 25.09375 0.875 
L 2.984375 54.6875 
L 12.5 54.6875 
L 29.59375 11.921875 
L 46.6875 54.6875 
L 56.203125 54.6875 
z
" id="DejaVuSans-79"/>
      <path d="M 18.3125 70.21875 
L 18.3125 54.6875 
L 36.8125 54.6875 
L 36.8125 47.703125 
L 18.3125 47.703125 
L 18.3125 18.015625 
Q 18.3125 11.328125 20.140625 9.421875 
Q 21.96875 7.515625 27.59375 7.515625 
L 36.8125 7.515625 
L 36.8125 0 
L 27.59375 0 
Q 17.1875 0 13.234375 3.875 
Q 9.28125 7.765625 9.28125 18.015625 
L 9.28125 47.703125 
L 2.6875 47.703125 
L 2.6875 54.6875 
L 9.28125 54.6875 
L 9.28125 70.21875 
z
" id="DejaVuSans-74"/>
      <path d="M 56.203125 29.59375 
L 56.203125 25.203125 
L 14.890625 25.203125 
Q 15.484375 15.921875 20.484375 11.0625 
Q 25.484375 6.203125 34.421875 6.203125 
Q 39.59375 6.203125 44.453125 7.46875 
Q 49.3125 8.734375 54.109375 11.28125 
L 54.109375 2.78125 
Q 49.265625 0.734375 44.1875 -0.34375 
Q 39.109375 -1.421875 33.890625 -1.421875 
Q 20.796875 -1.421875 13.15625 6.1875 
Q 5.515625 13.8125 5.515625 26.8125 
Q 5.515625 40.234375 12.765625 48.109375 
Q 20.015625 56 32.328125 56 
Q 43.359375 56 49.78125 48.890625 
Q 56.203125 41.796875 56.203125 29.59375 
M 47.21875 32.234375 
Q 47.125 39.59375 43.09375 43.984375 
Q 39.0625 48.390625 32.421875 48.390625 
Q 24.90625 48.390625 20.390625 44.140625 
Q 15.875 39.890625 15.1875 32.171875 
z
" id="DejaVuSans-65"/>
      <path d="M 52 44.1875 
Q 55.375 50.25 60.0625 53.125 
Q 64.75 56 71.09375 56 
Q 79.640625 56 84.28125 50.015625 
Q 88.921875 44.046875 88.921875 33.015625 
L 88.921875 0 
L 79.890625 0 
L 79.890625 32.71875 
Q 79.890625 40.578125 77.09375 44.375 
Q 74.3125 48.1875 68.609375 48.1875 
Q 61.625 48.1875 57.5625 43.546875 
Q 53.515625 38.921875 53.515625 30.90625 
L 53.515625 0 
L 44.484375 0 
L 44.484375 32.71875 
Q 44.484375 40.625 41.703125 44.40625 
Q 38.921875 48.1875 33.109375 48.1875 
Q 26.21875 48.1875 22.15625 43.53125 
Q 18.109375 38.875 18.109375 30.90625 
L 18.109375 0 
L 9.078125 0 
L 9.078125 54.6875 
L 18.109375 54.6875 
L 18.109375 46.1875 
Q 21.1875 51.21875 25.484375 53.609375 
Q 29.78125 56 35.6875 56 
Q 41.65625 56 45.828125 52.96875 
Q 50 49.953125 52 44.1875 
" id="DejaVuSans-6d"/>
      <path id="DejaVuSans-20"/>
      <path d="M 5.515625 54.6875 
L 48.1875 54.6875 
L 48.1875 46.484375 
L 14.40625 7.171875 
L 48.1875 7.171875 
L 48.1875 0 
L 4.296875 0 
L 4.296875 8.203125 
L 38.09375 47.515625 
L 5.515625 47.515625 
z
" id="DejaVuSans-7a"/>
      <path d="M 9.421875 75.984375 
L 18.40625 75.984375 
L 18.40625 0 
L 9.421875 0 
z
" id="DejaVuSans-6c"/>
      <path d="M 9.421875 54.6875 
L 18.40625 54.6875 
L 18.40625 0 
L 9.421875 0 
z
M 9.421875 75.984375 
L 18.40625 75.984375 
L 18.40625 64.59375 
L 9.421875 64.59375 
z
" id="DejaVuSans-69"/>
      <path d="M 54.890625 33.015625 
L 54.890625 0 
L 45.90625 0 
L 45.90625 32.71875 
Q 45.90625 40.484375 42.875 44.328125 
Q 39.84375 48.1875 33.796875 48.1875 
Q 26.515625 48.1875 22.3125 43.546875 
Q 18.109375 38.921875 18.109375 30.90625 
L 18.109375 0 
L 9.078125 0 
L 9.078125 54.6875 
L 18.109375 54.6875 
L 18.109375 46.1875 
Q 21.34375 51.125 25.703125 53.5625 
Q 30.078125 56 35.796875 56 
Q 45.21875 56 50.046875 50.171875 
Q 54.890625 44.34375 54.890625 33.015625 
" id="DejaVuSans-6e"/>
      <path d="M 34.28125 27.484375 
Q 23.390625 27.484375 19.1875 25 
Q 14.984375 22.515625 14.984375 16.5 
Q 14.984375 11.71875 18.140625 8.90625 
Q 21.296875 6.109375 26.703125 6.109375 
Q 34.1875 6.109375 38.703125 11.40625 
Q 43.21875 16.703125 43.21875 25.484375 
L 43.21875 27.484375 
z
M 52.203125 31.203125 
L 52.203125 0 
L 43.21875 0 
L 43.21875 8.296875 
Q 40.140625 3.328125 35.546875 0.953125 
Q 30.953125 -1.421875 24.3125 -1.421875 
Q 15.921875 -1.421875 10.953125 3.296875 
Q 6 8.015625 6 15.921875 
Q 6 25.140625 12.171875 29.828125 
Q 18.359375 34.515625 30.609375 34.515625 
L 43.21875 34.515625 
L 43.21875 35.40625 
Q 43.21875 41.609375 39.140625 45 
Q 35.0625 48.390625 27.6875 48.390625 
Q 23 48.390625 18.546875 47.265625 
Q 14.109375 46.140625 10.015625 43.890625 
L 10.015625 52.203125 
Q 14.9375 54.109375 19.578125 55.046875 
Q 24.21875 56 28.609375 56 
Q 40.484375 56 46.34375 49.84375 
Q 52.203125 43.703125 52.203125 31.203125 
" id="DejaVuSans-61"/>
      <path d="M 41.109375 46.296875 
Q 39.59375 47.171875 37.8125 47.578125 
Q 36.03125 48 33.890625 48 
Q 26.265625 48 22.1875 43.046875 
Q 18.109375 38.09375 18.109375 28.8125 
L 18.109375 0 
L 9.078125 0 
L 9.078125 54.6875 
L 18.109375 54.6875 
L 18.109375 46.1875 
Q 20.953125 51.171875 25.484375 53.578125 
Q 30.03125 56 36.53125 56 
Q 37.453125 56 38.578125 55.875 
Q 39.703125 55.765625 41.0625 55.515625 
z
" id="DejaVuSans-72"/>
      <path d="M 30.609375 48.390625 
Q 23.390625 48.390625 19.1875 42.75 
Q 14.984375 37.109375 14.984375 27.296875 
Q 14.984375 17.484375 19.15625 11.84375 
Q 23.34375 6.203125 30.609375 6.203125 
Q 37.796875 6.203125 41.984375 11.859375 
Q 46.1875 17.53125 46.1875 27.296875 
Q 46.1875 37.015625 41.984375 42.703125 
Q 37.796875 48.390625 30.609375 48.390625 
M 30.609375 56 
Q 42.328125 56 49.015625 48.375 
Q 55.71875 40.765625 55.71875 27.296875 
Q 55.71875 13.875 49.015625 6.21875 
Q 42.328125 -1.421875 30.609375 -1.421875 
Q 18.84375 -1.421875 12.171875 6.21875 
Q 5.515625 13.875 5.515625 27.296875 
Q 5.515625 40.765625 12.171875 48.375 
Q 18.84375 56 30.609375 56 
" id="DejaVuSans-6f"/>
      <path d="M 4.203125 54.6875 
L 13.1875 54.6875 
L 24.421875 12.015625 
L 35.59375 54.6875 
L 46.1875 54.6875 
L 57.421875 12.015625 
L 68.609375 54.6875 
L 77.59375 54.6875 
L 63.28125 0 
L 52.6875 0 
L 40.921875 44.828125 
L 29.109375 0 
L 18.5 0 
z
" id="DejaVuSans-77"/>
     </defs>
     <g transform="translate(333.853438 270.463406)scale(0.06 -0.06)">
      <use xlink:href="#DejaVuSans-73"/>
      <use x="52.099609" xlink:href="#DejaVuSans-79"/>
      <use x="111.279297" xlink:href="#DejaVuSans-73"/>
      <use x="163.378906" xlink:href="#DejaVuSans-74"/>
      <use x="202.587891" xlink:href="#DejaVuSans-65"/>
      <use x="264.111328" xlink:href="#DejaVuSans-6d"/>
      <use x="361.523438" xlink:href="#DejaVuSans-20"/>
      <use x="393.310547" xlink:href="#DejaVuSans-7a"/>
      <use x="445.800781" xlink:href="#DejaVuSans-6c"/>
      <use x="473.583984" xlink:href="#DejaVuSans-69"/>
      <use x="501.367188" xlink:href="#DejaVuSans-6e"/>
      <use x="564.746094" xlink:href="#DejaVuSans-65"/>
      <use x="626.269531" xlink:href="#DejaVuSans-61"/>
      <use x="687.548828" xlink:href="#DejaVuSans-72"/>
      <use x="728.662109" xlink:href="#DejaVuSans-79"/>
      <use x="787.841797" xlink:href="#DejaVuSans-7a"/>
      <use x="840.332031" xlink:href="#DejaVuSans-6f"/>
      <use x="901.513672" xlink:href="#DejaVuSans-77"/>
      <use x="983.300781" xlink:href="#DejaVuSans-61"/>
      <use x="1044.580078" xlink:href="#DejaVuSans-6e"/>
      <use x="1107.958984" xlink:href="#DejaVuSans-79"/>
     </g>
    </g>
   </g>
  </g>
 </g>
 <defs>
  <clipPath id="p08f5263a28">
   <rect height="266.112" width="357.12" x="52.160938" y="10.999219"/>
  </clipPath>
 </defs>
</svg>
