<?xml version="1.0" encoding="utf-8" standalone="no"?>
<!DOCTYPE svg PUBLIC "-//W3C//DTD SVG 1.1//EN"
  "http://www.w3.org/Graphics/SVG/1.1/DTD/svg11.dtd">
<!-- Created with matplotlib (http://matplotlib.org/) -->
<svg height="314pt" version="1.1" viewBox="0 0 419 314" width="419pt" xmlns="http://www.w3.org/2000/svg" xmlns:xlink="http://www.w3.org/1999/xlink">
 <defs>
  <style type="text/css">
*{stroke-linecap:butt;stroke-linejoin:round;}
  </style>
 </defs>
 <g id="figure_1">
  <g id="patch_1">
   <path d="M 0 314.36825 
L 419.980937 314.36825 
L 419.980937 0 
L 0 0 
z
" style="fill:#ffffff;"/>
  </g>
  <g id="axes_1">
   <g id="patch_2">
    <path d="M 52.160938 276.812 
L 409.280938 276.812 
L 409.280938 10.7 
L 52.160938 10.7 
z
" style="fill:#ffffff;"/>
   </g>
   <g id="patch_3">
    <path clip-path="url(#pe10eb2ef1a)" d="M 269.324742 87.868109 
L 263.657089 83.676284 
L 266.871592 82.867871 
L 267.209155 82.780996 
L 267.209961 82.782775 
L 270.424465 81.974361 
z
" style="fill:#1f77b4;stroke:#1f77b4;stroke-linejoin:miter;"/>
   </g>
   <g id="patch_4">
    <path clip-path="url(#pe10eb2ef1a)" d="M 285.588949 132.920764 
L 280.718949 128.20498 
L 284.049095 127.721983 
L 284.399426 127.670337 
L 284.399636 127.671142 
L 287.729782 127.188145 
z
" style="fill:#1f77b4;stroke:#1f77b4;stroke-linejoin:miter;"/>
   </g>
   <g id="patch_5">
    <path clip-path="url(#pe10eb2ef1a)" d="M 316.775649 67.45874 
L 311.312211 63.118971 
L 314.563358 62.396493 
L 314.90451 62.317758 
L 314.905584 62.320443 
L 318.156732 61.597964 
z
" style="fill:#1f77b4;stroke:#1f77b4;stroke-linejoin:miter;"/>
   </g>
   <g id="patch_6">
    <path clip-path="url(#pe10eb2ef1a)" d="M 332.433756 163.332184 
L 331.01802 157.476001 
L 334.27341 158.187794 
L 334.61628 158.262218 
L 334.616082 158.26272 
L 337.871472 158.974513 
z
" style="fill:#1f77b4;stroke:#1f77b4;stroke-linejoin:miter;"/>
   </g>
   <g id="patch_7">
    <path clip-path="url(#pe10eb2ef1a)" d="M 400.477004 113.862104 
L 395.989038 108.940342 
L 399.351637 108.604659 
L 399.705139 108.566793 
L 399.705594 108.569324 
L 403.068193 108.23364 
z
" style="fill:#1f77b4;stroke:#1f77b4;stroke-linejoin:miter;"/>
   </g>
   <g id="patch_8">
    <path clip-path="url(#pe10eb2ef1a)" d="M 396.088296 178.135617 
L 394.905698 172.250786 
L 398.1314 173.034038 
L 398.471348 173.115572 
L 398.470948 173.116486 
L 401.696651 173.899738 
z
" style="fill:#1f77b4;stroke:#1f77b4;stroke-linejoin:miter;"/>
   </g>
   <g id="patch_9">
    <path clip-path="url(#pe10eb2ef1a)" d="M 410.779201 62.034145 
L 405.790212 57.387938 
L 409.107484 56.858029 
L 409.455531 56.798287 
L 409.456671 56.802249 
L 412.773943 56.272339 
z
" style="fill:#1f77b4;stroke:#1f77b4;stroke-linejoin:miter;"/>
   </g>
   <g id="patch_10">
    <path clip-path="url(#pe10eb2ef1a)" d="M 410.149836 115.347036 
L 405.73667 110.38786 
L 409.104137 110.080466 
L 409.458173 110.045466 
L 409.458607 110.048108 
L 412.826074 109.740714 
z
" style="fill:#1f77b4;stroke:#1f77b4;stroke-linejoin:miter;"/>
   </g>
   <g id="patch_11">
    <path clip-path="url(#pe10eb2ef1a)" d="M 351.997182 193.089314 
L 359.799134 191.821029 
L 358.963533 194.271214 
L 358.876254 194.529257 
L 358.875575 194.529128 
L 358.039974 196.979313 
z
" style="fill:#1f77b4;stroke:#1f77b4;stroke-linejoin:miter;"/>
   </g>
   <g id="patch_12">
    <path clip-path="url(#pe10eb2ef1a)" d="M 303.869786 174.376043 
L 311.832484 174.82486 
L 310.090695 176.994313 
L 309.907795 177.222875 
L 309.907348 177.222676 
L 308.165558 179.392129 
z
" style="fill:#1f77b4;stroke:#1f77b4;stroke-linejoin:miter;"/>
   </g>
   <g id="patch_13">
    <path clip-path="url(#pe10eb2ef1a)" d="M 329.029357 187.26731 
L 336.989717 187.738605 
L 335.236908 189.903124 
L 335.053021 190.131247 
L 335.052402 190.130969 
L 333.299594 192.295488 
z
" style="fill:#1f77b4;stroke:#1f77b4;stroke-linejoin:miter;"/>
   </g>
   <g id="patch_14">
    <path clip-path="url(#pe10eb2ef1a)" d="M 299.876254 173.181985 
L 307.808652 173.866727 
L 305.952307 175.982774 
L 305.757335 176.205726 
L 305.756903 176.205516 
L 303.900558 178.321563 
z
" style="fill:#1f77b4;stroke:#1f77b4;stroke-linejoin:miter;"/>
   </g>
   <g id="patch_15">
    <path clip-path="url(#pe10eb2ef1a)" d="M 348.82068 217.559635 
L 356.250104 219.74119 
L 353.726015 221.43042 
L 353.461359 221.609094 
L 353.460321 221.608233 
L 350.936232 223.297463 
z
" style="fill:#1f77b4;stroke:#1f77b4;stroke-linejoin:miter;"/>
   </g>
   <g id="patch_16">
    <path clip-path="url(#pe10eb2ef1a)" d="M 302.054643 180.49557 
L 309.634902 182.366953 
L 307.240328 184.157826 
L 306.988809 184.34674 
L 306.988268 184.346339 
L 304.593695 186.137212 
z
" style="fill:#1f77b4;stroke:#1f77b4;stroke-linejoin:miter;"/>
   </g>
   <g id="patch_17">
    <path clip-path="url(#pe10eb2ef1a)" d="M 304.893081 244.854998 
L 311.363397 248.34235 
L 308.355638 249.511896 
L 308.040439 249.637015 
L 308.039032 249.635006 
L 305.031274 250.804552 
z
" style="fill:#1f77b4;stroke:#1f77b4;stroke-linejoin:miter;"/>
   </g>
   <g id="patch_18">
    <path clip-path="url(#pe10eb2ef1a)" d="M 266.596264 190.026686 
L 273.06616 193.51447 
L 270.05826 194.683815 
L 269.742317 194.807872 
L 269.741639 194.806904 
L 266.73374 195.976249 
z
" style="fill:#1f77b4;stroke:#1f77b4;stroke-linejoin:miter;"/>
   </g>
   <g id="patch_19">
    <path clip-path="url(#pe10eb2ef1a)" d="M 239.126446 238.924102 
L 245.153872 242.827317 
L 242.01819 243.792439 
L 241.689445 243.896425 
L 241.688118 243.894031 
L 238.552437 244.859154 
z
" style="fill:#1f77b4;stroke:#1f77b4;stroke-linejoin:miter;"/>
   </g>
   <g id="patch_20">
    <path clip-path="url(#pe10eb2ef1a)" d="M 203.427322 167.531326 
L 208.981937 171.806344 
L 205.746486 172.566942 
L 205.406293 172.647906 
L 205.405912 172.647005 
L 202.170461 173.407604 
z
" style="fill:#1f77b4;stroke:#1f77b4;stroke-linejoin:miter;"/>
   </g>
   <g id="patch_21">
    <path clip-path="url(#pe10eb2ef1a)" d="M 174.451219 221.068643 
L 180.08725 225.284076 
L 176.866716 226.07905 
L 176.528801 226.165181 
L 176.527712 226.162731 
L 173.307178 226.957705 
z
" style="fill:#1f77b4;stroke:#1f77b4;stroke-linejoin:miter;"/>
   </g>
   <g id="patch_22">
    <path clip-path="url(#pe10eb2ef1a)" d="M 150.798308 147.13479 
L 155.050257 152.171567 
L 151.673849 152.418566 
L 151.318548 152.445407 
L 151.318437 152.444566 
L 147.942029 152.691566 
z
" style="fill:#1f77b4;stroke:#1f77b4;stroke-linejoin:miter;"/>
   </g>
   <g id="patch_23">
    <path clip-path="url(#pe10eb2ef1a)" d="M 105.571972 201.452023 
L 110.677346 206.02749 
L 107.374035 206.603795 
L 107.027144 206.667088 
L 107.026318 206.664459 
L 103.723007 207.240765 
z
" style="fill:#1f77b4;stroke:#1f77b4;stroke-linejoin:miter;"/>
   </g>
   <g id="patch_24">
    <path clip-path="url(#pe10eb2ef1a)" d="M 98.608274 121.29669 
L 100.477701 127.081781 
L 97.172364 126.511964 
L 96.824197 126.452746 
L 96.824434 126.451983 
L 93.519097 125.882165 
z
" style="fill:#1f77b4;stroke:#1f77b4;stroke-linejoin:miter;"/>
   </g>
   <g id="patch_25">
    <path clip-path="url(#pe10eb2ef1a)" d="M 50.441086 261.071896 
L 55.625648 265.59765 
L 52.332643 266.205824 
L 51.987621 266.274686 
L 51.98601 266.269842 
L 48.693005 266.878016 
z
" style="fill:#1f77b4;stroke:#1f77b4;stroke-linejoin:miter;"/>
   </g>
   <g id="patch_26">
    <path clip-path="url(#pe10eb2ef1a)" d="M 50.933422 196.873371 
L 55.678306 201.659454 
L 52.336083 202.093666 
L 51.985031 202.142626 
L 51.98427 202.139372 
L 48.642046 202.573584 
z
" style="fill:#1f77b4;stroke:#1f77b4;stroke-linejoin:miter;"/>
   </g>
   <g id="patch_27">
    <path clip-path="url(#pe10eb2ef1a)" d="M 51.818494 149.46313 
L 55.7279 154.651716 
L 52.339158 154.772877 
L 51.982583 154.787711 
L 51.982449 154.785631 
L 48.593707 154.906792 
z
" style="fill:#1f77b4;stroke:#1f77b4;stroke-linejoin:miter;"/>
   </g>
   <g id="patch_28">
    <path clip-path="url(#pe10eb2ef1a)" d="M 95.783555 90.16521 
L 88.368641 92.374007 
L 88.651084 89.854719 
L 88.68009 89.589486 
L 88.680815 89.589531 
L 88.963258 87.070243 
z
" style="fill:#1f77b4;stroke:#1f77b4;stroke-linejoin:miter;"/>
   </g>
   <g id="patch_29">
    <path clip-path="url(#pe10eb2ef1a)" d="M 178.161491 122.433546 
L 170.206029 121.918368 
L 171.980286 119.763573 
L 172.166727 119.536605 
L 172.167049 119.536752 
L 173.941306 117.381958 
z
" style="fill:#1f77b4;stroke:#1f77b4;stroke-linejoin:miter;"/>
   </g>
   <g id="patch_30">
    <path clip-path="url(#pe10eb2ef1a)" d="M 98.240236 76.850619 
L 90.338317 75.992221 
L 92.277427 73.917799 
L 92.480609 73.698953 
L 92.481544 73.699439 
L 94.420654 71.625017 
z
" style="fill:#1f77b4;stroke:#1f77b4;stroke-linejoin:miter;"/>
   </g>
   <g id="patch_31">
    <path clip-path="url(#pe10eb2ef1a)" d="M 158.469704 111.235073 
L 150.620541 110.140427 
L 152.670104 108.12583 
L 152.88537 107.913498 
L 152.885848 107.913768 
L 154.935411 105.899171 
z
" style="fill:#1f77b4;stroke:#1f77b4;stroke-linejoin:miter;"/>
   </g>
   <g id="patch_32">
    <path clip-path="url(#pe10eb2ef1a)" d="M 132.59869 58.053879 
L 125.730085 55.018812 
L 128.582873 53.650552 
L 128.881965 53.505134 
L 128.883166 53.506524 
L 131.735954 52.138264 
z
" style="fill:#1f77b4;stroke:#1f77b4;stroke-linejoin:miter;"/>
   </g>
   <g id="patch_33">
    <path clip-path="url(#pe10eb2ef1a)" d="M 166.232703 95.949621 
L 159.258033 93.051975 
L 162.060894 91.627572 
L 162.355237 91.476875 
L 162.355932 91.477634 
L 165.158794 90.053231 
z
" style="fill:#1f77b4;stroke:#1f77b4;stroke-linejoin:miter;"/>
   </g>
   <g id="patch_34">
    <path clip-path="url(#pe10eb2ef1a)" d="M 193.959145 50.365378 
L 187.748189 46.625337 
L 190.835529 45.577243 
L 191.159209 45.464784 
L 191.160513 45.466917 
L 194.247853 44.418823 
z
" style="fill:#1f77b4;stroke:#1f77b4;stroke-linejoin:miter;"/>
   </g>
   <g id="patch_35">
    <path clip-path="url(#pe10eb2ef1a)" d="M 228.523594 109.318472 
L 222.488056 105.422224 
L 225.621726 104.453481 
L 225.951064 104.35057 
L 225.951586 104.351508 
L 229.085256 103.382764 
z
" style="fill:#1f77b4;stroke:#1f77b4;stroke-linejoin:miter;"/>
   </g>
   <g id="patch_36">
    <path clip-path="url(#pe10eb2ef1a)" d="M 254.24495 56.018665 
L 248.400304 51.964038 
L 251.578471 51.07944 
L 251.911787 50.983874 
L 251.913015 50.986324 
L 255.091182 50.101725 
z
" style="fill:#1f77b4;stroke:#1f77b4;stroke-linejoin:miter;"/>
   </g>
   <g id="patch_37">
    <path clip-path="url(#pe10eb2ef1a)" d="M 286.738328 139.581593 
L 282.21387 134.678418 
L 285.573924 134.32887 
L 285.927492 134.291423 
L 285.927614 134.292076 
L 289.287668 133.942528 
z
" style="fill:#1f77b4;stroke:#1f77b4;stroke-linejoin:miter;"/>
   </g>
   <g id="patch_38">
    <path clip-path="url(#pe10eb2ef1a)" d="M 269.332931 87.834428 
L 263.66098 83.645831 
L 266.874654 82.835587 
L 267.212129 82.748523 
L 267.212936 82.750298 
L 270.426609 81.940055 
z
" style="fill:#ff7f0e;stroke:#ff7f0e;stroke-linejoin:miter;"/>
   </g>
   <g id="patch_39">
    <path clip-path="url(#pe10eb2ef1a)" d="M 286.455299 136.509226 
L 281.732239 131.711171 
L 285.076421 131.285414 
L 285.428277 131.239887 
L 285.42844 131.240597 
L 288.772622 130.81484 
z
" style="fill:#ff7f0e;stroke:#ff7f0e;stroke-linejoin:miter;"/>
   </g>
   <g id="patch_40">
    <path clip-path="url(#pe10eb2ef1a)" d="M 327.394067 95.209448 
L 322.140818 90.727892 
L 325.424335 90.091871 
L 325.769261 90.022894 
L 325.769968 90.024921 
L 329.053485 89.3889 
z
" style="fill:#ff7f0e;stroke:#ff7f0e;stroke-linejoin:miter;"/>
   </g>
   <g id="patch_41">
    <path clip-path="url(#pe10eb2ef1a)" d="M 336.790882 130.815703 
L 332.239403 125.926435 
L 335.597499 125.566593 
L 335.950747 125.527491 
L 335.950983 125.528715 
L 339.309079 125.168873 
z
" style="fill:#ff7f0e;stroke:#ff7f0e;stroke-linejoin:miter;"/>
   </g>
   <g id="patch_42">
    <path clip-path="url(#pe10eb2ef1a)" d="M 399.056353 94.466668 
L 394.114393 89.792637 
L 397.436919 89.281331 
L 397.785944 89.224933 
L 397.786658 89.227509 
L 401.109184 88.716203 
z
" style="fill:#ff7f0e;stroke:#ff7f0e;stroke-linejoin:miter;"/>
   </g>
   <g id="patch_43">
    <path clip-path="url(#pe10eb2ef1a)" d="M 402.72555 168.062281 
L 400.939989 162.262498 
L 404.236884 162.858855 
L 404.584188 162.920825 
L 404.583925 162.92163 
L 407.88082 163.517987 
z
" style="fill:#ff7f0e;stroke:#ff7f0e;stroke-linejoin:miter;"/>
   </g>
   <g id="patch_44">
    <path clip-path="url(#pe10eb2ef1a)" d="M 410.987472 61.997941 
L 405.814174 57.465037 
L 409.108685 56.861411 
L 409.454333 56.794407 
L 409.455476 56.797871 
L 412.749988 56.194245 
z
" style="fill:#ff7f0e;stroke:#ff7f0e;stroke-linejoin:miter;"/>
   </g>
   <g id="patch_45">
    <path clip-path="url(#pe10eb2ef1a)" d="M 410.35377 115.325699 
L 405.750658 110.463346 
L 409.104839 110.08377 
L 409.457473 110.041667 
L 409.457911 110.043815 
L 412.812092 109.664239 
z
" style="fill:#ff7f0e;stroke:#ff7f0e;stroke-linejoin:miter;"/>
   </g>
   <g id="patch_46">
    <path clip-path="url(#pe10eb2ef1a)" d="M 363.146516 185.645897 
L 370.399704 183.156721 
L 370.29097 185.683486 
L 370.280089 185.949475 
L 370.279524 185.949461 
L 370.17079 188.476227 
z
" style="fill:#ff7f0e;stroke:#ff7f0e;stroke-linejoin:miter;"/>
   </g>
   <g id="patch_47">
    <path clip-path="url(#pe10eb2ef1a)" d="M 306.022087 171.168158 
L 313.99642 170.854331 
L 312.641335 173.17198 
L 312.49909 173.416072 
L 312.498695 173.415943 
L 311.14361 175.733593 
z
" style="fill:#ff7f0e;stroke:#ff7f0e;stroke-linejoin:miter;"/>
   </g>
   <g id="patch_48">
    <path clip-path="url(#pe10eb2ef1a)" d="M 357.665673 189.215066 
L 365.625316 188.737097 
L 364.356727 191.081774 
L 364.223827 191.328773 
L 364.223191 191.328582 
L 362.954603 193.673259 
z
" style="fill:#ff7f0e;stroke:#ff7f0e;stroke-linejoin:miter;"/>
   </g>
   <g id="patch_49">
    <path clip-path="url(#pe10eb2ef1a)" d="M 290.541178 165.962432 
L 298.526328 165.911189 
L 297.035281 168.18201 
L 296.878657 168.421164 
L 296.878329 168.421044 
L 295.387282 170.691866 
z
" style="fill:#ff7f0e;stroke:#ff7f0e;stroke-linejoin:miter;"/>
   </g>
   <g id="patch_50">
    <path clip-path="url(#pe10eb2ef1a)" d="M 364.319943 221.759864 
L 371.577155 224.242518 
L 368.932238 225.825775 
L 368.654922 225.99345 
L 368.653826 225.992434 
L 366.00891 227.575691 
z
" style="fill:#ff7f0e;stroke:#ff7f0e;stroke-linejoin:miter;"/>
   </g>
   <g id="patch_51">
    <path clip-path="url(#pe10eb2ef1a)" d="M 290.678032 168.310839 
L 298.552489 169.299484 
L 296.552176 171.341383 
L 296.341987 171.556521 
L 296.341617 171.55632 
L 294.341304 173.598219 
z
" style="fill:#ff7f0e;stroke:#ff7f0e;stroke-linejoin:miter;"/>
   </g>
   <g id="patch_52">
    <path clip-path="url(#pe10eb2ef1a)" d="M 303.595547 242.217337 
L 310.032564 245.738739 
L 307.013768 246.892387 
L 306.697371 247.015816 
L 306.696 247.013823 
L 303.677204 248.167471 
z
" style="fill:#ff7f0e;stroke:#ff7f0e;stroke-linejoin:miter;"/>
   </g>
   <g id="patch_53">
    <path clip-path="url(#pe10eb2ef1a)" d="M 264.377071 185.772968 
L 270.853883 189.253618 
L 267.848308 190.426277 
L 267.532553 190.550599 
L 267.531932 190.549715 
L 264.526357 191.722374 
z
" style="fill:#ff7f0e;stroke:#ff7f0e;stroke-linejoin:miter;"/>
   </g>
   <g id="patch_54">
    <path clip-path="url(#pe10eb2ef1a)" d="M 234.04034 229.623008 
L 240.042027 233.548183 
L 236.900037 234.501846 
L 236.570505 234.604433 
L 236.569302 234.602231 
L 233.427312 235.555893 
z
" style="fill:#ff7f0e;stroke:#ff7f0e;stroke-linejoin:miter;"/>
   </g>
   <g id="patch_55">
    <path clip-path="url(#pe10eb2ef1a)" d="M 201.737947 163.215715 
L 207.209672 167.549684 
L 203.959908 168.27561 
L 203.618152 168.352829 
L 203.617828 168.352024 
L 200.368064 169.07795 
z
" style="fill:#ff7f0e;stroke:#ff7f0e;stroke-linejoin:miter;"/>
   </g>
   <g id="patch_56">
    <path clip-path="url(#pe10eb2ef1a)" d="M 179.063878 231.493247 
L 184.764164 235.660431 
L 181.556026 236.482766 
L 181.219554 236.571986 
L 181.218327 236.569328 
L 178.01019 237.391663 
z
" style="fill:#ff7f0e;stroke:#ff7f0e;stroke-linejoin:miter;"/>
   </g>
   <g id="patch_57">
    <path clip-path="url(#pe10eb2ef1a)" d="M 150.288526 147.28078 
L 154.583284 152.297348 
L 151.209048 152.56031 
L 150.853978 152.588794 
L 150.853865 152.58799 
L 147.479628 152.850951 
z
" style="fill:#ff7f0e;stroke:#ff7f0e;stroke-linejoin:miter;"/>
   </g>
   <g id="patch_58">
    <path clip-path="url(#pe10eb2ef1a)" d="M 96.456578 172.925858 
L 101.255268 177.682061 
L 97.918059 178.137186 
L 97.567223 178.186924 
L 97.566774 178.185094 
L 94.229565 178.640219 
z
" style="fill:#ff7f0e;stroke:#ff7f0e;stroke-linejoin:miter;"/>
   </g>
   <g id="patch_59">
    <path clip-path="url(#pe10eb2ef1a)" d="M 123.014566 110.856057 
L 116.527832 114.326432 
L 115.99057 111.830269 
L 115.933586 111.567567 
L 115.934017 111.567515 
L 115.396755 109.071352 
z
" style="fill:#ff7f0e;stroke:#ff7f0e;stroke-linejoin:miter;"/>
   </g>
   <g id="patch_60">
    <path clip-path="url(#pe10eb2ef1a)" d="M 50.253156 261.109132 
L 55.600994 265.528132 
L 52.331407 266.202823 
L 51.988854 266.278187 
L 51.98724 266.273843 
L 48.717652 266.948533 
z
" style="fill:#ff7f0e;stroke:#ff7f0e;stroke-linejoin:miter;"/>
   </g>
   <g id="patch_61">
    <path clip-path="url(#pe10eb2ef1a)" d="M 50.715081 196.904848 
L 55.657514 201.578602 
L 52.33504 202.090094 
L 51.98607 202.146694 
L 51.985306 202.143936 
L 48.662832 202.655428 
z
" style="fill:#ff7f0e;stroke:#ff7f0e;stroke-linejoin:miter;"/>
   </g>
   <g id="patch_62">
    <path clip-path="url(#pe10eb2ef1a)" d="M 51.70135 149.468531 
L 55.724604 154.608565 
L 52.33899 154.771189 
L 51.982747 154.789894 
L 51.98261 154.788307 
L 48.596997 154.95093 
z
" style="fill:#ff7f0e;stroke:#ff7f0e;stroke-linejoin:miter;"/>
   </g>
   <g id="patch_63">
    <path clip-path="url(#pe10eb2ef1a)" d="M 119.219388 105.107119 
L 111.340407 106.075543 
L 112.343559 103.66052 
L 112.448615 103.406182 
L 112.449154 103.406307 
L 113.452306 100.991284 
z
" style="fill:#ff7f0e;stroke:#ff7f0e;stroke-linejoin:miter;"/>
   </g>
   <g id="patch_64">
    <path clip-path="url(#pe10eb2ef1a)" d="M 169.006795 121.001747 
L 161.023821 121.149802 
L 162.465084 118.861202 
L 162.616461 118.62018 
L 162.616796 118.620297 
L 164.058059 116.331698 
z
" style="fill:#ff7f0e;stroke:#ff7f0e;stroke-linejoin:miter;"/>
   </g>
   <g id="patch_65">
    <path clip-path="url(#pe10eb2ef1a)" d="M 102.505746 89.168669 
L 94.671578 88.015915 
L 96.747925 86.016605 
L 96.965715 85.805706 
L 96.966488 85.806151 
L 99.042835 83.806842 
z
" style="fill:#ff7f0e;stroke:#ff7f0e;stroke-linejoin:miter;"/>
   </g>
   <g id="patch_66">
    <path clip-path="url(#pe10eb2ef1a)" d="M 156.18711 115.107959 
L 148.216489 114.745533 
L 149.915729 112.557423 
L 150.094177 112.326914 
L 150.094596 112.327095 
L 151.793836 110.138985 
z
" style="fill:#ff7f0e;stroke:#ff7f0e;stroke-linejoin:miter;"/>
   </g>
   <g id="patch_67">
    <path clip-path="url(#pe10eb2ef1a)" d="M 141.789241 72.528805 
L 134.958022 69.447242 
L 137.827417 68.098402 
L 138.12845 67.955228 
L 138.129459 67.956419 
L 140.998854 66.607579 
z
" style="fill:#ff7f0e;stroke:#ff7f0e;stroke-linejoin:miter;"/>
   </g>
   <g id="patch_68">
    <path clip-path="url(#pe10eb2ef1a)" d="M 159.424392 92.527677 
L 152.478196 89.592298 
L 155.29489 88.183126 
L 155.590642 88.03397 
L 155.591384 88.034792 
L 158.408077 86.625621 
z
" style="fill:#ff7f0e;stroke:#ff7f0e;stroke-linejoin:miter;"/>
   </g>
   <g id="patch_69">
    <path clip-path="url(#pe10eb2ef1a)" d="M 205.708789 70.011121 
L 199.533909 66.238057 
L 202.631236 65.206452 
L 202.956227 65.096123 
L 202.95727 65.097862 
L 206.054596 64.066257 
z
" style="fill:#ff7f0e;stroke:#ff7f0e;stroke-linejoin:miter;"/>
   </g>
   <g id="patch_70">
    <path clip-path="url(#pe10eb2ef1a)" d="M 225.688397 104.386775 
L 219.623082 100.516288 
L 222.749273 99.534218 
L 223.077759 99.429804 
L 223.078346 99.430842 
L 226.204537 98.448773 
z
" style="fill:#ff7f0e;stroke:#ff7f0e;stroke-linejoin:miter;"/>
   </g>
   <g id="patch_71">
    <path clip-path="url(#pe10eb2ef1a)" d="M 263.091416 74.246924 
L 257.331601 70.125443 
L 260.527743 69.277568 
L 260.863193 69.186253 
L 260.864179 69.188318 
L 264.060321 68.340443 
z
" style="fill:#ff7f0e;stroke:#ff7f0e;stroke-linejoin:miter;"/>
   </g>
   <g id="patch_72">
    <path clip-path="url(#pe10eb2ef1a)" d="M 287.184284 142.38398 
L 282.847322 137.387614 
L 286.219275 137.108863 
L 286.574132 137.078947 
L 286.574218 137.079521 
L 289.946171 136.800771 
z
" style="fill:#ff7f0e;stroke:#ff7f0e;stroke-linejoin:miter;"/>
   </g>
   <g id="matplotlib.axis_1">
    <g id="xtick_1">
     <g id="line2d_1">
      <defs>
       <path d="M 0 0 
L 0 3.5 
" id="meb1ce754c3" style="stroke:#000000;stroke-width:0.8;"/>
      </defs>
      <g>
       <use style="stroke:#000000;stroke-width:0.8;" x="87.872938" xlink:href="#meb1ce754c3" y="276.812"/>
      </g>
     </g>
     <g id="text_1">
      <!-- −0.4 -->
      <defs>
       <path d="M 10.59375 35.5 
L 73.1875 35.5 
L 73.1875 27.203125 
L 10.59375 27.203125 
z
" id="DejaVuSans-2212"/>
       <path d="M 31.78125 66.40625 
Q 24.171875 66.40625 20.328125 58.90625 
Q 16.5 51.421875 16.5 36.375 
Q 16.5 21.390625 20.328125 13.890625 
Q 24.171875 6.390625 31.78125 6.390625 
Q 39.453125 6.390625 43.28125 13.890625 
Q 47.125 21.390625 47.125 36.375 
Q 47.125 51.421875 43.28125 58.90625 
Q 39.453125 66.40625 31.78125 66.40625 
M 31.78125 74.21875 
Q 44.046875 74.21875 50.515625 64.515625 
Q 56.984375 54.828125 56.984375 36.375 
Q 56.984375 17.96875 50.515625 8.265625 
Q 44.046875 -1.421875 31.78125 -1.421875 
Q 19.53125 -1.421875 13.0625 8.265625 
Q 6.59375 17.96875 6.59375 36.375 
Q 6.59375 54.828125 13.0625 64.515625 
Q 19.53125 74.21875 31.78125 74.21875 
" id="DejaVuSans-30"/>
       <path d="M 10.6875 12.40625 
L 21 12.40625 
L 21 0 
L 10.6875 0 
z
" id="DejaVuSans-2e"/>
       <path d="M 37.796875 64.3125 
L 12.890625 25.390625 
L 37.796875 25.390625 
z
M 35.203125 72.90625 
L 47.609375 72.90625 
L 47.609375 25.390625 
L 58.015625 25.390625 
L 58.015625 17.1875 
L 47.609375 17.1875 
L 47.609375 0 
L 37.796875 0 
L 37.796875 17.1875 
L 4.890625 17.1875 
L 4.890625 26.703125 
z
" id="DejaVuSans-34"/>
      </defs>
      <g transform="translate(75.731531 291.410438)scale(0.1 -0.1)">
       <use xlink:href="#DejaVuSans-2212"/>
       <use x="83.789062" xlink:href="#DejaVuSans-30"/>
       <use x="147.412109" xlink:href="#DejaVuSans-2e"/>
       <use x="179.199219" xlink:href="#DejaVuSans-34"/>
      </g>
     </g>
    </g>
    <g id="xtick_2">
     <g id="line2d_2">
      <g>
       <use style="stroke:#000000;stroke-width:0.8;" x="159.296938" xlink:href="#meb1ce754c3" y="276.812"/>
      </g>
     </g>
     <g id="text_2">
      <!-- −0.2 -->
      <defs>
       <path d="M 19.1875 8.296875 
L 53.609375 8.296875 
L 53.609375 0 
L 7.328125 0 
L 7.328125 8.296875 
Q 12.9375 14.109375 22.625 23.890625 
Q 32.328125 33.6875 34.8125 36.53125 
Q 39.546875 41.84375 41.421875 45.53125 
Q 43.3125 49.21875 43.3125 52.78125 
Q 43.3125 58.59375 39.234375 62.25 
Q 35.15625 65.921875 28.609375 65.921875 
Q 23.96875 65.921875 18.8125 64.3125 
Q 13.671875 62.703125 7.8125 59.421875 
L 7.8125 69.390625 
Q 13.765625 71.78125 18.9375 73 
Q 24.125 74.21875 28.421875 74.21875 
Q 39.75 74.21875 46.484375 68.546875 
Q 53.21875 62.890625 53.21875 53.421875 
Q 53.21875 48.921875 51.53125 44.890625 
Q 49.859375 40.875 45.40625 35.40625 
Q 44.1875 33.984375 37.640625 27.21875 
Q 31.109375 20.453125 19.1875 8.296875 
" id="DejaVuSans-32"/>
      </defs>
      <g transform="translate(147.155531 291.410438)scale(0.1 -0.1)">
       <use xlink:href="#DejaVuSans-2212"/>
       <use x="83.789062" xlink:href="#DejaVuSans-30"/>
       <use x="147.412109" xlink:href="#DejaVuSans-2e"/>
       <use x="179.199219" xlink:href="#DejaVuSans-32"/>
      </g>
     </g>
    </g>
    <g id="xtick_3">
     <g id="line2d_3">
      <g>
       <use style="stroke:#000000;stroke-width:0.8;" x="230.720938" xlink:href="#meb1ce754c3" y="276.812"/>
      </g>
     </g>
     <g id="text_3">
      <!-- 0.0 -->
      <g transform="translate(222.769375 291.410438)scale(0.1 -0.1)">
       <use xlink:href="#DejaVuSans-30"/>
       <use x="63.623047" xlink:href="#DejaVuSans-2e"/>
       <use x="95.410156" xlink:href="#DejaVuSans-30"/>
      </g>
     </g>
    </g>
    <g id="xtick_4">
     <g id="line2d_4">
      <g>
       <use style="stroke:#000000;stroke-width:0.8;" x="302.144938" xlink:href="#meb1ce754c3" y="276.812"/>
      </g>
     </g>
     <g id="text_4">
      <!-- 0.2 -->
      <g transform="translate(294.193375 291.410438)scale(0.1 -0.1)">
       <use xlink:href="#DejaVuSans-30"/>
       <use x="63.623047" xlink:href="#DejaVuSans-2e"/>
       <use x="95.410156" xlink:href="#DejaVuSans-32"/>
      </g>
     </g>
    </g>
    <g id="xtick_5">
     <g id="line2d_5">
      <g>
       <use style="stroke:#000000;stroke-width:0.8;" x="373.568938" xlink:href="#meb1ce754c3" y="276.812"/>
      </g>
     </g>
     <g id="text_5">
      <!-- 0.4 -->
      <g transform="translate(365.617375 291.410438)scale(0.1 -0.1)">
       <use xlink:href="#DejaVuSans-30"/>
       <use x="63.623047" xlink:href="#DejaVuSans-2e"/>
       <use x="95.410156" xlink:href="#DejaVuSans-34"/>
      </g>
     </g>
    </g>
    <g id="text_6">
     <!-- x1 -->
     <defs>
      <path d="M 54.890625 54.6875 
L 35.109375 28.078125 
L 55.90625 0 
L 45.3125 0 
L 29.390625 21.484375 
L 13.484375 0 
L 2.875 0 
L 24.125 28.609375 
L 4.6875 54.6875 
L 15.28125 54.6875 
L 29.78125 35.203125 
L 44.28125 54.6875 
z
" id="DejaVuSans-78"/>
      <path d="M 12.40625 8.296875 
L 28.515625 8.296875 
L 28.515625 63.921875 
L 10.984375 60.40625 
L 10.984375 69.390625 
L 28.421875 72.90625 
L 38.28125 72.90625 
L 38.28125 8.296875 
L 54.390625 8.296875 
L 54.390625 0 
L 12.40625 0 
z
" id="DejaVuSans-31"/>
     </defs>
     <g transform="translate(224.580313 305.088562)scale(0.1 -0.1)">
      <use xlink:href="#DejaVuSans-78"/>
      <use x="59.179688" xlink:href="#DejaVuSans-31"/>
     </g>
    </g>
   </g>
   <g id="matplotlib.axis_2">
    <g id="ytick_1">
     <g id="line2d_6">
      <defs>
       <path d="M 0 0 
L -3.5 0 
" id="m29f5855624" style="stroke:#000000;stroke-width:0.8;"/>
      </defs>
      <g>
       <use style="stroke:#000000;stroke-width:0.8;" x="52.160938" xlink:href="#m29f5855624" y="250.2008"/>
      </g>
     </g>
     <g id="text_7">
      <!-- −0.4 -->
      <g transform="translate(20.878125 254.000019)scale(0.1 -0.1)">
       <use xlink:href="#DejaVuSans-2212"/>
       <use x="83.789062" xlink:href="#DejaVuSans-30"/>
       <use x="147.412109" xlink:href="#DejaVuSans-2e"/>
       <use x="179.199219" xlink:href="#DejaVuSans-34"/>
      </g>
     </g>
    </g>
    <g id="ytick_2">
     <g id="line2d_7">
      <g>
       <use style="stroke:#000000;stroke-width:0.8;" x="52.160938" xlink:href="#m29f5855624" y="196.9784"/>
      </g>
     </g>
     <g id="text_8">
      <!-- −0.2 -->
      <g transform="translate(20.878125 200.777619)scale(0.1 -0.1)">
       <use xlink:href="#DejaVuSans-2212"/>
       <use x="83.789062" xlink:href="#DejaVuSans-30"/>
       <use x="147.412109" xlink:href="#DejaVuSans-2e"/>
       <use x="179.199219" xlink:href="#DejaVuSans-32"/>
      </g>
     </g>
    </g>
    <g id="ytick_3">
     <g id="line2d_8">
      <g>
       <use style="stroke:#000000;stroke-width:0.8;" x="52.160938" xlink:href="#m29f5855624" y="143.756"/>
      </g>
     </g>
     <g id="text_9">
      <!-- 0.0 -->
      <g transform="translate(29.257812 147.555219)scale(0.1 -0.1)">
       <use xlink:href="#DejaVuSans-30"/>
       <use x="63.623047" xlink:href="#DejaVuSans-2e"/>
       <use x="95.410156" xlink:href="#DejaVuSans-30"/>
      </g>
     </g>
    </g>
    <g id="ytick_4">
     <g id="line2d_9">
      <g>
       <use style="stroke:#000000;stroke-width:0.8;" x="52.160938" xlink:href="#m29f5855624" y="90.5336"/>
      </g>
     </g>
     <g id="text_10">
      <!-- 0.2 -->
      <g transform="translate(29.257812 94.332819)scale(0.1 -0.1)">
       <use xlink:href="#DejaVuSans-30"/>
       <use x="63.623047" xlink:href="#DejaVuSans-2e"/>
       <use x="95.410156" xlink:href="#DejaVuSans-32"/>
      </g>
     </g>
    </g>
    <g id="ytick_5">
     <g id="line2d_10">
      <g>
       <use style="stroke:#000000;stroke-width:0.8;" x="52.160938" xlink:href="#m29f5855624" y="37.3112"/>
      </g>
     </g>
     <g id="text_11">
      <!-- 0.4 -->
      <g transform="translate(29.257812 41.110419)scale(0.1 -0.1)">
       <use xlink:href="#DejaVuSans-30"/>
       <use x="63.623047" xlink:href="#DejaVuSans-2e"/>
       <use x="95.410156" xlink:href="#DejaVuSans-34"/>
      </g>
     </g>
    </g>
    <g id="text_12">
     <!-- x2 -->
     <g transform="translate(14.798438 149.896625)rotate(-90)scale(0.1 -0.1)">
      <use xlink:href="#DejaVuSans-78"/>
      <use x="59.179688" xlink:href="#DejaVuSans-32"/>
     </g>
    </g>
   </g>
   <g id="line2d_11">
    <path clip-path="url(#pe10eb2ef1a)" d="M 230.720938 10.7 
L 240.663735 29.450511 
L 249.188354 45.972772 
L 256.4636 60.524398 
L 262.638669 73.333654 
L 267.845715 84.602552 
L 272.201342 94.509007 
L 275.808794 103.21006 
L 278.759528 110.844403 
L 281.134293 117.534173 
L 283.004708 123.387496 
L 284.434267 128.500152 
L 285.479099 132.956812 
L 286.188936 136.832579 
L 286.607828 140.194135 
L 286.774742 143.100666 
L 286.724157 145.604772 
L 286.486559 147.753217 
L 286.088877 149.587579 
L 285.554881 151.144832 
L 284.787426 152.655058 
L 283.891897 153.878726 
L 282.893287 154.855929 
L 281.81307 155.621591 
L 280.502103 156.276416 
L 278.957302 156.77859 
L 277.185632 157.099883 
L 275.203915 157.226358 
L 272.857937 157.144016 
L 270.191606 156.826493 
L 266.934215 156.204416 
L 263.07785 155.232052 
L 258.313645 153.792583 
L 251.964606 151.625436 
L 241.536658 147.793557 
L 230.720937 143.756 
L 230.720938 143.756 
" style="fill:none;stroke:#1f77b4;stroke-linecap:square;stroke-width:0.5;"/>
   </g>
   <g id="line2d_12">
    <path clip-path="url(#pe10eb2ef1a)" d="M 292.020663 10.7 
L 298.76631 25.291345 
L 304.760507 38.703476 
L 310.064172 51.029897 
L 314.733397 62.355783 
L 318.819775 72.758613 
L 322.370909 82.309099 
L 325.430787 91.071945 
L 328.040086 99.106447 
L 330.236461 106.467105 
L 332.054653 113.20383 
L 333.526884 119.362727 
L 334.683047 124.986476 
L 335.550821 130.114545 
L 336.155806 134.78343 
L 336.521722 139.02701 
L 336.670546 142.876795 
L 336.622629 146.362102 
L 336.39679 149.510201 
L 336.01044 152.346509 
L 335.479673 154.89472 
L 334.819355 157.176919 
L 334.043204 159.2137 
L 332.929306 161.443684 
L 331.676661 163.354777 
L 330.305585 164.978721 
L 328.834358 166.344551 
L 327.279392 167.478806 
L 325.655402 168.405722 
L 323.63393 169.275316 
L 321.552014 169.912552 
L 319.427101 170.348193 
L 316.913726 170.63802 
L 314.020777 170.727644 
L 310.769783 170.578605 
L 307.195078 170.170935 
L 303.342597 169.503531 
L 298.934759 168.510174 
L 293.767985 167.103385 
L 287.752957 165.219028 
L 280.439425 162.677895 
L 270.608883 159.00269 
L 230.720937 143.756 
L 230.720937 143.756 
" style="fill:none;stroke:#1f77b4;stroke-linecap:square;stroke-width:0.5;"/>
   </g>
   <g id="line2d_13">
    <path clip-path="url(#pe10eb2ef1a)" d="M 369.699764 10.7 
L 374.784672 24.083455 
L 379.346911 36.67973 
L 383.416682 48.53027 
L 387.023673 59.67489 
L 390.195621 70.14996 
L 392.958775 79.989196 
L 395.338077 89.224072 
L 397.357248 97.884103 
L 399.038878 105.997105 
L 400.404456 113.589332 
L 401.474434 120.685672 
L 402.268301 127.309822 
L 402.804616 133.484399 
L 403.101056 139.231055 
L 403.174406 144.570514 
L 403.040659 149.522722 
L 402.715011 154.106869 
L 402.21191 158.341451 
L 401.545065 162.244302 
L 400.727477 165.83262 
L 399.771475 169.123007 
L 398.688729 172.131483 
L 397.49028 174.8735 
L 396.186555 177.363948 
L 394.787394 179.617176 
L 393.302059 181.646983 
L 391.739273 183.466645 
L 390.107239 185.08891 
L 388.413656 186.526011 
L 386.072211 188.174295 
L 383.649967 189.54056 
L 381.161388 190.64963 
L 378.619658 191.524797 
L 376.036735 192.18787 
L 373.42346 192.659207 
L 370.128977 193.007519 
L 366.819222 193.119893 
L 363.508966 193.027329 
L 359.553882 192.685059 
L 355.635143 192.131261 
L 351.129688 191.268322 
L 346.09184 190.059412 
L 340.592124 188.492728 
L 334.715095 186.582831 
L 328.011862 184.164125 
L 320.187325 181.089852 
L 310.706363 177.10742 
L 297.280309 171.19739 
L 272.276223 160.16687 
L 260.296815 155.156628 
L 248.638052 150.52483 
L 234.460294 145.150121 
L 230.720937 143.756 
L 230.720937 143.756 
" style="fill:none;stroke:#1f77b4;stroke-linecap:square;stroke-width:0.5;"/>
   </g>
   <g id="line2d_14">
    <path clip-path="url(#pe10eb2ef1a)" d="M 409.280938 56.826177 
L 410.420765 60.78822 
" style="fill:none;stroke:#1f77b4;stroke-linecap:square;stroke-width:0.5;"/>
   </g>
   <g id="line2d_15">
    <path clip-path="url(#pe10eb2ef1a)" d="M 409.280938 110.061645 
L 409.715301 112.703821 
" style="fill:none;stroke:#1f77b4;stroke-linecap:square;stroke-width:0.5;"/>
   </g>
   <g id="line2d_16">
    <path clip-path="url(#pe10eb2ef1a)" d="M 409.280938 154.781334 
L 408.745706 159.260798 
L 408.037243 163.388088 
L 407.169385 167.181247 
L 406.155261 170.65773 
L 405.007282 173.83439 
L 403.737177 176.727506 
L 402.35604 179.352811 
L 400.874343 181.725494 
L 399.301959 183.860201 
L 397.648197 185.771041 
L 395.921786 187.471585 
L 394.130945 188.974875 
L 392.28334 190.293417 
L 389.743936 191.784725 
L 387.132115 192.995804 
L 384.462237 193.952013 
L 381.747328 194.677119 
L 378.999194 195.19335 
L 376.228488 195.521434 
L 372.747857 195.696197 
L 369.263377 195.641601 
L 365.09694 195.317283 
L 360.966452 194.756143 
L 356.215943 193.858759 
L 351.559802 192.755325 
L 346.375556 191.305262 
L 340.739801 189.505903 
L 334.15785 187.162437 
L 326.83348 184.310892 
L 318.004667 180.619683 
L 306.503287 175.543378 
L 269.279048 158.914843 
L 257.919 154.199259 
L 246.327705 149.634123 
L 230.84614 143.802648 
L 230.720937 143.756 
L 230.720938 143.756 
" style="fill:none;stroke:#1f77b4;stroke-linecap:square;stroke-width:0.5;"/>
   </g>
   <g id="line2d_17">
    <path clip-path="url(#pe10eb2ef1a)" d="M 409.280938 202.119773 
L 406.910172 203.135865 
L 404.50225 203.970871 
L 401.245736 204.824594 
L 397.950663 205.408642 
L 394.630854 205.750684 
L 391.298698 205.876498 
L 387.965091 205.809812 
L 383.810702 205.489088 
L 379.68567 204.941145 
L 374.794038 204.033254 
L 369.984851 202.903029 
L 364.499371 201.365724 
L 358.418543 199.397275 
L 351.841362 197.005401 
L 344.880849 194.229357 
L 337.024572 190.855398 
L 327.387165 186.457649 
L 314.634355 180.366044 
L 283.691736 165.481211 
L 272.671588 160.484482 
L 262.432194 156.084269 
L 252.044493 151.865887 
L 239.986888 147.222304 
L 230.720937 143.756 
L 230.720938 143.756 
" style="fill:none;stroke:#1f77b4;stroke-linecap:square;stroke-width:0.5;"/>
   </g>
   <g id="line2d_18">
    <path clip-path="url(#pe10eb2ef1a)" d="M 409.280938 266.242677 
L 398.175896 257.752337 
L 386.439905 248.474377 
L 371.869157 236.636272 
L 347.537182 216.498231 
L 330.020039 202.128243 
L 318.504712 192.95534 
L 308.769939 185.488528 
L 300.483528 179.415626 
L 292.965896 174.187472 
L 286.1725 169.734339 
L 279.749724 165.791227 
L 273.520312 162.234683 
L 267.433122 159.022422 
L 261.358438 156.070155 
L 254.851471 153.162699 
L 247.538791 150.149581 
L 237.890446 146.43528 
L 230.720937 143.756 
L 230.720937 143.756 
" style="fill:none;stroke:#1f77b4;stroke-linecap:square;stroke-width:0.5;"/>
   </g>
   <g id="line2d_19">
    <path clip-path="url(#pe10eb2ef1a)" d="M 327.352777 276.812 
L 302.730752 241.762261 
L 251.401956 168.535779 
L 242.668323 156.527124 
L 237.752361 150.115911 
L 234.982339 146.834649 
L 233.349021 145.212108 
L 232.255714 144.418537 
L 231.182017 143.928703 
L 230.720937 143.756 
L 230.720937 143.756 
" style="fill:none;stroke:#1f77b4;stroke-linecap:square;stroke-width:0.5;"/>
   </g>
   <g id="line2d_20">
    <path clip-path="url(#pe10eb2ef1a)" d="M 260.517332 276.812 
L 247.494285 253.93653 
L 236.734388 234.561914 
L 227.889965 218.171744 
L 220.665158 204.320883 
L 214.808367 192.628345 
L 210.105768 182.769443 
L 206.375742 174.468133 
L 203.463995 167.489863 
L 201.23947 161.635372 
L 199.590878 156.735351 
L 198.423633 152.645712 
L 197.657505 149.24396 
L 197.224407 146.425817 
L 197.066565 144.102416 
L 197.135042 142.198089 
L 197.388401 140.648348 
L 197.791602 139.39825 
L 198.38766 138.292059 
L 199.10087 137.449814 
L 199.995674 136.766737 
L 201.067514 136.261857 
L 202.303021 135.940983 
L 203.788344 135.794569 
L 205.602263 135.850708 
L 207.792801 136.147741 
L 210.542847 136.753225 
L 214.115226 137.781257 
L 219.111219 139.471412 
L 228.749017 143.021223 
L 230.720938 143.756 
L 230.720937 143.756 
" style="fill:none;stroke:#1f77b4;stroke-linecap:square;stroke-width:0.5;"/>
   </g>
   <g id="line2d_21">
    <path clip-path="url(#pe10eb2ef1a)" d="M 200.924543 276.812 
L 192.571632 259.964511 
L 185.291631 244.809975 
L 178.976391 231.181464 
L 173.528656 218.929633 
L 168.860589 207.920467 
L 164.892828 198.033697 
L 161.553848 189.161689 
L 158.778875 181.207541 
L 156.509274 174.08398 
L 154.691992 167.712346 
L 153.279065 162.021736 
L 152.226962 156.947846 
L 151.496254 152.432407 
L 151.051284 148.422656 
L 150.859759 144.870657 
L 150.892442 141.732816 
L 151.122895 138.969499 
L 151.527215 136.544635 
L 152.083814 134.425388 
L 152.773204 132.581859 
L 153.577802 130.986813 
L 154.481791 129.615488 
L 155.677836 128.233617 
L 156.974675 127.106402 
L 158.353083 126.2025 
L 160.041989 125.393124 
L 161.79599 124.810734 
L 163.855151 124.379541 
L 166.212188 124.141363 
L 168.848305 124.122208 
L 171.733757 124.331589 
L 175.084064 124.807091 
L 178.825255 125.56387 
L 183.320955 126.709298 
L 188.560089 128.279377 
L 195.114068 130.483355 
L 204.388842 133.860108 
L 230.720938 143.756 
L 230.720938 143.756 
" style="fill:none;stroke:#1f77b4;stroke-linecap:square;stroke-width:0.5;"/>
   </g>
   <g id="line2d_22">
    <path clip-path="url(#pe10eb2ef1a)" d="M 134.089098 276.812 
L 127.37727 260.97468 
L 121.481545 246.399348 
L 116.336666 232.989335 
L 111.882331 220.657025 
L 108.062823 209.322938 
L 104.826526 198.914649 
L 102.125571 189.365951 
L 99.9155 180.616078 
L 98.154958 172.608956 
L 96.805473 165.2927 
L 95.831261 158.619171 
L 95.199042 152.543581 
L 94.87786 147.024144 
L 94.838918 142.021748 
L 95.05545 137.49975 
L 95.5026 133.42378 
L 96.157303 129.761558 
L 96.998162 126.482736 
L 98.005367 123.558795 
L 99.160609 120.962947 
L 100.446973 118.670019 
L 101.848832 116.656345 
L 103.351788 114.899709 
L 104.942603 113.379292 
L 106.609131 112.075602 
L 108.340236 110.970404 
L 110.579491 109.842183 
L 112.885809 108.966766 
L 115.24318 108.315963 
L 117.637404 107.864042 
L 120.541567 107.551425 
L 123.461968 107.455124 
L 126.868313 107.573186 
L 130.73448 107.957349 
L 135.019493 108.639286 
L 139.66819 109.628182 
L 144.61351 110.911121 
L 150.199143 112.589104 
L 156.658874 114.764695 
L 164.424572 117.62373 
L 174.460108 121.570035 
L 218.172817 139.049916 
L 230.720938 143.756 
L 230.720938 143.756 
" style="fill:none;stroke:#1f77b4;stroke-linecap:square;stroke-width:0.5;"/>
   </g>
   <g id="line2d_23">
    <path clip-path="url(#pe10eb2ef1a)" d="M 52.160938 266.242677 
L 50.549892 261.399022 
" style="fill:none;stroke:#1f77b4;stroke-linecap:square;stroke-width:0.5;"/>
   </g>
   <g id="line2d_24">
    <path clip-path="url(#pe10eb2ef1a)" d="M 52.160938 202.119773 
L 51.399628 198.865934 
" style="fill:none;stroke:#1f77b4;stroke-linecap:square;stroke-width:0.5;"/>
   </g>
   <g id="line2d_25">
    <path clip-path="url(#pe10eb2ef1a)" d="M 52.160938 154.781334 
L 52.026996 152.701202 
" style="fill:none;stroke:#1f77b4;stroke-linecap:square;stroke-width:0.5;"/>
   </g>
   <g id="line2d_26">
    <path clip-path="url(#pe10eb2ef1a)" d="M 52.160938 110.061645 
L 53.575099 107.240646 
L 55.097377 104.690202 
L 56.717212 102.394839 
L 58.424578 100.339482 
L 60.210102 98.509687 
L 62.065037 96.891613 
L 63.981056 95.471832 
L 65.950418 94.237513 
L 68.646849 92.859162 
L 71.409633 91.761242 
L 74.224407 90.917806 
L 77.078154 90.304545 
L 79.959109 89.89874 
L 83.58263 89.651147 
L 87.214062 89.656774 
L 90.837605 89.881129 
L 95.156415 90.395385 
L 99.424582 91.131866 
L 104.31871 92.216145 
L 109.775025 93.682503 
L 115.712529 95.53728 
L 122.035729 97.757861 
L 129.220879 100.528299 
L 137.571909 104.001646 
L 147.639301 108.439917 
L 164.079863 115.974501 
L 182.790937 124.488574 
L 194.568712 129.600798 
L 205.57989 134.136253 
L 217.260781 138.699578 
L 230.720938 143.756 
L 230.720938 143.756 
" style="fill:none;stroke:#1f77b4;stroke-linecap:square;stroke-width:0.5;"/>
   </g>
   <g id="line2d_27">
    <path clip-path="url(#pe10eb2ef1a)" d="M 52.160938 56.826177 
L 57.93347 58.659051 
L 63.576342 60.687148 
L 70.160494 63.314364 
L 76.526739 66.088812 
L 83.666136 69.436822 
L 91.4366 73.322176 
L 100.563888 78.147738 
L 111.47722 84.198002 
L 125.607771 92.314786 
L 155.130602 109.344994 
L 166.048999 115.346458 
L 175.418454 120.251437 
L 184.24758 124.621571 
L 192.721719 128.564093 
L 201.242264 132.279268 
L 210.388082 136.018252 
L 221.477121 140.297214 
L 230.720938 143.756 
L 230.720937 143.756 
" style="fill:none;stroke:#1f77b4;stroke-linecap:square;stroke-width:0.5;"/>
   </g>
   <g id="line2d_28">
    <path clip-path="url(#pe10eb2ef1a)" d="M 91.742111 10.7 
L 117.040308 40.007766 
L 142.981788 69.986301 
L 156.258498 84.983142 
L 166.232218 95.922537 
L 174.377626 104.537953 
L 181.082708 111.329619 
L 187.011847 117.035535 
L 192.220834 121.751716 
L 196.782276 125.599751 
L 200.976154 128.860557 
L 204.938901 131.661512 
L 208.717876 134.054851 
L 212.412133 136.125401 
L 216.235345 138.00599 
L 220.557589 139.873342 
L 226.643987 142.233723 
L 230.720938 143.756 
L 230.720938 143.756 
" style="fill:none;stroke:#1f77b4;stroke-linecap:square;stroke-width:0.5;"/>
   </g>
   <g id="line2d_29">
    <path clip-path="url(#pe10eb2ef1a)" d="M 169.421212 10.7 
L 185.48583 36.545556 
L 199.548867 59.581042 
L 211.436834 79.477794 
L 220.484472 95.027865 
L 227.799753 108.036121 
L 233.127328 117.949891 
L 236.941971 125.484793 
L 239.774537 131.568846 
L 241.620995 136.058003 
L 242.741969 139.349096 
L 243.333074 141.741382 
L 243.541003 143.460653 
L 243.475455 144.677107 
L 243.218276 145.519029 
L 242.830332 146.083057 
L 242.284072 146.47979 
L 241.555539 146.711183 
L 240.589505 146.765409 
L 239.247529 146.596357 
L 237.356998 146.115379 
L 234.282695 145.074489 
L 230.720937 143.756 
L 230.720937 143.756 
" style="fill:none;stroke:#1f77b4;stroke-linecap:square;stroke-width:0.5;"/>
   </g>
   <g id="line2d_30">
    <path clip-path="url(#pe10eb2ef1a)" d="M 230.720937 10.7 
L 240.663735 29.450511 
L 249.188354 45.972772 
L 256.4636 60.524398 
L 262.638669 73.333654 
L 267.845715 84.602552 
L 272.201342 94.509007 
L 275.808794 103.21006 
L 278.759528 110.844403 
L 281.134293 117.534173 
L 283.004708 123.387496 
L 284.434267 128.500152 
L 285.479099 132.956812 
L 286.188936 136.832579 
L 286.607828 140.194135 
L 286.774742 143.100666 
L 286.724157 145.604772 
L 286.486559 147.753217 
L 286.088877 149.587579 
L 285.554881 151.144832 
L 284.787426 152.655058 
L 283.891897 153.878726 
L 282.893287 154.855929 
L 281.81307 155.621591 
L 280.502103 156.276416 
L 278.957302 156.77859 
L 277.185632 157.099883 
L 275.203915 157.226358 
L 272.857937 157.144016 
L 270.191606 156.826493 
L 266.934215 156.204416 
L 263.07785 155.232052 
L 258.313645 153.792583 
L 251.964606 151.625436 
L 241.536658 147.793557 
L 230.720937 143.756 
L 230.720937 143.756 
" style="fill:none;stroke:#1f77b4;stroke-linecap:square;stroke-width:0.5;"/>
   </g>
   <g id="line2d_31">
    <path clip-path="url(#pe10eb2ef1a)" d="M 230.720938 143.756 
" style="fill:none;stroke:#1f77b4;stroke-linecap:square;stroke-width:1.5;"/>
   </g>
   <g id="line2d_32">
    <path clip-path="url(#pe10eb2ef1a)" d="M 230.720938 10.7 
L 240.663737 29.450378 
L 249.188412 45.971072 
L 256.463971 60.517397 
L 262.640005 73.315622 
L 267.849199 84.566727 
L 272.208676 94.448401 
L 275.822218 103.11836 
L 278.781704 110.71649 
L 281.168335 117.366674 
L 283.053929 123.17873 
L 284.501993 128.250006 
L 285.568603 132.666694 
L 286.303321 136.505202 
L 286.74995 139.833281 
L 286.947117 142.710894 
L 286.928911 145.191171 
L 286.725394 147.321168 
L 286.363056 149.142555 
L 285.770569 150.92645 
L 285.025845 152.391738 
L 284.156663 153.582971 
L 283.186911 154.538795 
L 281.981654 155.385696 
L 280.697691 156.011661 
L 279.186022 156.49688 
L 277.452532 156.814672 
L 275.335219 156.954532 
L 273.036057 156.881785 
L 270.247906 156.565911 
L 266.888648 155.946339 
L 262.956101 154.986773 
L 258.020037 153.540035 
L 251.707254 151.443627 
L 242.350189 148.076661 
L 230.720937 143.756 
L 230.720938 143.756 
" style="fill:none;stroke:#ff7f0e;stroke-linecap:square;stroke-width:0.5;"/>
   </g>
   <g id="line2d_33">
    <path clip-path="url(#pe10eb2ef1a)" d="M 292.020663 10.7 
L 300.336528 28.634082 
L 307.511243 44.730679 
L 313.662609 59.168734 
L 318.896303 72.10903 
L 323.307901 83.697222 
L 326.983552 94.064831 
L 330.001112 103.330947 
L 332.430834 111.603248 
L 334.336083 118.979075 
L 335.774005 125.54643 
L 336.796135 131.384883 
L 337.448929 136.566364 
L 337.774248 141.155891 
L 337.809798 145.212224 
L 337.589558 148.788504 
L 337.144101 151.932736 
L 336.500935 154.688294 
L 335.684798 157.094369 
L 334.717934 159.186375 
L 333.620334 160.996313 
L 332.409942 162.55308 
L 331.102853 163.882762 
L 329.713494 165.008911 
L 327.955778 166.121424 
L 326.117939 167.004227 
L 324.21728 167.68637 
L 321.940484 168.262667 
L 319.285173 168.675017 
L 316.597735 168.868153 
L 313.562464 168.871246 
L 310.203834 168.662163 
L 306.228501 168.185504 
L 301.708838 167.405929 
L 296.744212 166.322637 
L 290.887673 164.810621 
L 284.154236 162.837894 
L 276.049892 160.226053 
L 265.655163 156.62677 
L 250.836091 151.234739 
L 230.720937 143.756 
L 230.720937 143.756 
" style="fill:none;stroke:#ff7f0e;stroke-linecap:square;stroke-width:0.5;"/>
   </g>
   <g id="line2d_34">
    <path clip-path="url(#pe10eb2ef1a)" d="M 369.699764 10.7 
L 376.387674 27.403141 
L 382.217154 42.693571 
L 387.261009 56.68242 
L 391.586578 69.472639 
L 395.255692 81.158915 
L 398.325163 91.828403 
L 400.84737 101.561602 
L 402.870573 110.432826 
L 404.439172 118.510586 
L 405.594025 125.858071 
L 406.37275 132.533593 
L 406.809952 138.590933 
L 406.937458 144.079684 
L 406.784559 149.045621 
L 406.378173 153.530934 
L 405.74304 157.574533 
L 404.901898 161.212302 
L 403.875627 164.477312 
L 402.683403 167.400062 
L 401.342835 170.008676 
L 399.870086 172.329081 
L 398.279976 174.385171 
L 396.58609 176.198966 
L 394.800867 177.790735 
L 392.935732 179.179208 
L 391.00113 180.381617 
L 388.499688 181.647074 
L 385.921472 182.674824 
L 383.281553 183.490373 
L 380.051027 184.221157 
L 376.77142 184.714905 
L 373.460537 185.002997 
L 369.578769 185.11593 
L 365.142607 184.997221 
L 360.731266 184.660926 
L 355.824262 184.073798 
L 350.468905 183.219262 
L 344.210458 181.986878 
L 337.178274 180.35665 
L 329.533248 178.347139 
L 321.026962 175.881079 
L 311.180104 172.792218 
L 299.557271 168.906718 
L 285.04878 163.807416 
L 265.269451 156.597284 
L 230.720937 143.756 
L 230.720937 143.756 
" style="fill:none;stroke:#ff7f0e;stroke-linecap:square;stroke-width:0.5;"/>
   </g>
   <g id="line2d_35">
    <path clip-path="url(#pe10eb2ef1a)" d="M 409.280938 56.826177 
L 410.424124 60.290678 
" style="fill:none;stroke:#ff7f0e;stroke-linecap:square;stroke-width:0.5;"/>
   </g>
   <g id="line2d_36">
    <path clip-path="url(#pe10eb2ef1a)" d="M 409.280938 110.061645 
L 409.718619 112.209212 
" style="fill:none;stroke:#ff7f0e;stroke-linecap:square;stroke-width:0.5;"/>
   </g>
   <g id="line2d_37">
    <path clip-path="url(#pe10eb2ef1a)" d="M 409.280938 154.781334 
L 408.579726 158.787356 
L 407.674432 162.389212 
L 406.5859 165.619947 
L 405.333233 168.509974 
L 403.93395 171.087302 
L 402.404121 173.377747 
L 400.758502 175.405127 
L 399.01062 177.191396 
L 397.172872 178.756782 
L 395.256606 180.119924 
L 393.272207 181.297982 
L 390.710289 182.534252 
L 388.073489 183.534131 
L 385.376807 184.323055 
L 382.080475 185.023443 
L 378.737452 185.488358 
L 375.365402 185.749028 
L 371.414953 185.831586 
L 366.903678 185.680173 
L 362.420648 185.313169 
L 357.436833 184.693654 
L 352.000569 183.805517 
L 345.650744 182.535742 
L 338.519242 180.865508 
L 330.769483 178.814438 
L 322.1498 176.304 
L 312.174872 173.165677 
L 300.404138 169.223739 
L 285.714426 164.056015 
L 265.691526 156.754648 
L 230.720937 143.756 
L 230.720938 143.756 
" style="fill:none;stroke:#ff7f0e;stroke-linecap:square;stroke-width:0.5;"/>
   </g>
   <g id="line2d_38">
    <path clip-path="url(#pe10eb2ef1a)" d="M 409.280938 202.119773 
L 402.305764 200.865842 
L 394.745765 199.285157 
L 385.96854 197.206129 
L 376.850697 194.814471 
L 366.858176 191.969123 
L 355.626379 188.542814 
L 342.464765 184.28453 
L 327.208124 179.098822 
L 309.137483 172.710675 
L 285.53821 164.1178 
L 245.600693 149.299574 
L 230.720937 143.756 
L 230.720938 143.756 
" style="fill:none;stroke:#ff7f0e;stroke-linecap:square;stroke-width:0.5;"/>
   </g>
   <g id="line2d_39">
    <path clip-path="url(#pe10eb2ef1a)" d="M 409.280938 266.242677 
L 398.32077 254.848413 
L 387.020517 243.445323 
L 376.862467 233.531259 
L 367.698463 224.893782 
L 359.401458 217.351581 
L 350.968494 209.983959 
L 343.362922 203.620595 
L 335.747839 197.539292 
L 328.240126 191.848529 
L 321.506853 187.0177 
L 314.910153 182.546399 
L 308.509373 178.462082 
L 301.931515 174.5279 
L 295.344446 170.851534 
L 288.561489 167.329356 
L 281.535608 163.940442 
L 274.108244 160.608362 
L 265.657114 157.069177 
L 255.342271 153.004069 
L 239.228975 146.927007 
L 230.720937 143.756 
L 230.720938 143.756 
" style="fill:none;stroke:#ff7f0e;stroke-linecap:square;stroke-width:0.5;"/>
   </g>
   <g id="line2d_40">
    <path clip-path="url(#pe10eb2ef1a)" d="M 327.352777 276.812 
L 292.036264 225.466439 
L 269.627195 193.248414 
L 254.822269 172.330322 
L 245.778753 159.907115 
L 240.127899 152.495318 
L 236.754674 148.403572 
L 234.63246 146.150684 
L 233.233647 144.968916 
L 232.128316 144.317814 
L 230.720937 143.756 
L 230.720938 143.756 
" style="fill:none;stroke:#ff7f0e;stroke-linecap:square;stroke-width:0.5;"/>
   </g>
   <g id="line2d_41">
    <path clip-path="url(#pe10eb2ef1a)" d="M 260.517332 276.812 
L 247.49488 253.928341 
L 236.735873 234.55424 
L 227.892188 218.165538 
L 220.667986 204.316204 
L 214.811556 192.626177 
L 210.108949 182.771862 
L 206.378316 174.477691 
L 203.465043 167.508866 
L 201.237874 161.665566 
L 199.585366 156.777669 
L 198.412921 152.70031 
L 197.640307 149.31019 
L 197.199528 146.502393 
L 197.032989 144.187638 
L 197.09194 142.289967 
L 197.335172 140.744787 
L 197.727867 139.497158 
L 198.311927 138.391379 
L 199.013231 137.547287 
L 199.895221 136.859901 
L 200.953795 136.348075 
L 202.176159 136.017716 
L 203.648231 135.858704 
L 205.449354 135.898701 
L 207.629128 136.176389 
L 210.372756 136.759556 
L 213.867957 137.739719 
L 218.677949 139.335139 
L 226.946564 142.35037 
L 230.720938 143.756 
L 230.720938 143.756 
" style="fill:none;stroke:#ff7f0e;stroke-linecap:square;stroke-width:0.5;"/>
   </g>
   <g id="line2d_42">
    <path clip-path="url(#pe10eb2ef1a)" d="M 200.924543 276.812 
L 192.571134 259.981169 
L 185.289144 244.855279 
L 178.969536 231.269158 
L 173.514108 219.07385 
L 168.834104 208.134536 
L 164.84931 198.329197 
L 161.487505 189.547779 
L 158.683397 181.690624 
L 156.378036 174.667577 
L 154.518227 168.397115 
L 153.055978 162.80553 
L 151.948062 157.826269 
L 151.155426 153.399047 
L 150.642859 149.469361 
L 150.378669 145.988001 
L 150.334296 142.910473 
L 150.484009 140.196548 
L 150.804656 137.809883 
L 151.275398 135.717637 
L 151.877491 133.890123 
L 152.749779 132.00898 
L 153.761142 130.429121 
L 154.888839 129.113876 
L 156.112893 128.030773 
L 157.41578 127.151083 
L 159.015102 126.348158 
L 160.679867 125.752359 
L 162.63966 125.286068 
L 164.890603 124.988793 
L 167.418397 124.886504 
L 170.198628 124.991087 
L 173.445349 125.334298 
L 177.334703 125.984298 
L 181.745441 126.957783 
L 186.935969 128.339283 
L 193.149245 130.230357 
L 200.995208 132.861822 
L 211.972644 136.798948 
L 230.720938 143.756 
L 230.720938 143.756 
" style="fill:none;stroke:#ff7f0e;stroke-linecap:square;stroke-width:0.5;"/>
   </g>
   <g id="line2d_43">
    <path clip-path="url(#pe10eb2ef1a)" d="M 134.089098 276.812 
L 127.368447 261.309739 
L 121.444901 247.10405 
L 116.251676 234.093267 
L 111.726883 222.183039 
L 107.813735 211.286669 
L 104.460104 201.324444 
L 101.617825 192.222597 
L 99.242532 183.913061 
L 97.293444 176.333153 
L 95.732997 169.425018 
L 94.526553 163.135204 
L 93.642256 157.414436 
L 93.050801 152.21728 
L 92.725218 147.501816 
L 92.64071 143.229396 
L 92.774461 139.364357 
L 93.105493 135.873812 
L 93.614524 132.727428 
L 94.28384 129.897245 
L 95.097173 127.357486 
L 96.039581 125.084384 
L 97.097347 123.056023 
L 98.257883 121.252201 
L 99.509631 119.654282 
L 101.186545 117.92042 
L 102.970768 116.450998 
L 104.845515 115.218419 
L 106.795744 114.197747 
L 108.807988 113.366461 
L 111.287708 112.59045 
L 113.821167 112.026683 
L 116.823631 111.600472 
L 119.855858 111.387179 
L 123.334224 111.361712 
L 127.236918 111.561215 
L 131.529813 112.007551 
L 136.167188 112.70682 
L 141.496897 113.735635 
L 147.404976 115.101609 
L 154.113969 116.879458 
L 162.048504 119.221548 
L 171.320604 122.201708 
L 182.614166 126.076575 
L 197.556263 131.453994 
L 223.91399 141.21996 
L 230.720938 143.756 
L 230.720938 143.756 
" style="fill:none;stroke:#ff7f0e;stroke-linecap:square;stroke-width:0.5;"/>
   </g>
   <g id="line2d_44">
    <path clip-path="url(#pe10eb2ef1a)" d="M 52.160938 266.242677 
L 50.54654 261.898583 
" style="fill:none;stroke:#ff7f0e;stroke-linecap:square;stroke-width:0.5;"/>
   </g>
   <g id="line2d_45">
    <path clip-path="url(#pe10eb2ef1a)" d="M 52.160938 202.119773 
L 51.396313 199.36192 
" style="fill:none;stroke:#ff7f0e;stroke-linecap:square;stroke-width:0.5;"/>
   </g>
   <g id="line2d_46">
    <path clip-path="url(#pe10eb2ef1a)" d="M 52.160938 154.781334 
L 52.023671 153.194538 
" style="fill:none;stroke:#ff7f0e;stroke-linecap:square;stroke-width:0.5;"/>
   </g>
   <g id="line2d_47">
    <path clip-path="url(#pe10eb2ef1a)" d="M 52.160938 110.061645 
L 54.019836 108.229842 
L 55.970866 106.626456 
L 58.002333 105.232276 
L 60.103458 104.029467 
L 62.812809 102.770052 
L 65.598281 101.75487 
L 68.44443 100.957675 
L 71.337424 100.354707 
L 74.853618 99.857516 
L 78.400936 99.576275 
L 82.557353 99.482446 
L 86.712248 99.602628 
L 91.435334 99.95748 
L 96.689715 100.581384 
L 102.424801 101.492253 
L 108.577374 102.691127 
L 115.604171 104.291819 
L 123.349106 106.289405 
L 132.099435 108.782306 
L 141.973526 111.830877 
L 153.64114 115.676107 
L 167.714311 120.562194 
L 185.98348 127.158465 
L 215.808813 138.200906 
L 230.720938 143.756 
L 230.720937 143.756 
" style="fill:none;stroke:#ff7f0e;stroke-linecap:square;stroke-width:0.5;"/>
   </g>
   <g id="line2d_48">
    <path clip-path="url(#pe10eb2ef1a)" d="M 52.160938 56.826177 
L 61.145634 63.190439 
L 70.485077 69.53391 
L 80.021129 75.718999 
L 88.780095 81.137446 
L 97.62971 86.356851 
L 106.464623 91.315448 
L 115.836096 96.307824 
L 124.914001 100.893836 
L 134.686379 105.575038 
L 144.781095 110.159326 
L 155.657677 114.851225 
L 167.996165 119.920314 
L 182.530846 125.636691 
L 201.996537 133.032847 
L 230.720938 143.756 
L 230.720937 143.756 
" style="fill:none;stroke:#ff7f0e;stroke-linecap:square;stroke-width:0.5;"/>
   </g>
   <g id="line2d_49">
    <path clip-path="url(#pe10eb2ef1a)" d="M 91.742111 10.7 
L 106.636348 29.638073 
L 120.735161 47.1965 
L 132.68788 61.724975 
L 142.863352 73.764986 
L 152.363885 84.662376 
L 160.408186 93.564047 
L 167.833239 101.450305 
L 174.115219 107.818174 
L 179.882826 113.366389 
L 185.128698 118.116761 
L 189.870015 122.125831 
L 194.38443 125.655301 
L 198.59798 128.667524 
L 202.646959 131.286722 
L 206.579098 133.566539 
L 210.605034 135.643712 
L 215.038826 137.671927 
L 220.414855 139.869355 
L 229.737135 143.38945 
L 230.720938 143.756 
L 230.720938 143.756 
" style="fill:none;stroke:#ff7f0e;stroke-linecap:square;stroke-width:0.5;"/>
   </g>
   <g id="line2d_50">
    <path clip-path="url(#pe10eb2ef1a)" d="M 169.421212 10.7 
L 188.288787 41.24717 
L 202.79321 65.150418 
L 213.885464 83.835251 
L 222.913223 99.481492 
L 229.548515 111.424242 
L 234.359586 120.519048 
L 237.783288 127.425097 
L 240.30195 132.994352 
L 241.918653 137.096651 
L 242.87304 140.097435 
L 243.344951 142.27246 
L 243.469072 143.82967 
L 243.346059 144.9258 
L 243.050928 145.678918 
L 242.606683 146.205668 
L 242.041554 146.536989 
L 241.265725 146.72163 
L 240.224616 146.724265 
L 238.764152 146.484944 
L 236.640193 145.888412 
L 232.921334 144.574486 
L 230.720937 143.756 
L 230.720937 143.756 
" style="fill:none;stroke:#ff7f0e;stroke-linecap:square;stroke-width:0.5;"/>
   </g>
   <g id="line2d_51">
    <path clip-path="url(#pe10eb2ef1a)" d="M 230.720937 10.7 
L 240.663737 29.450378 
L 249.188412 45.971072 
L 256.463971 60.517397 
L 262.640005 73.315622 
L 267.849199 84.566727 
L 272.208676 94.448401 
L 275.822218 103.11836 
L 278.781704 110.71649 
L 281.168335 117.366674 
L 283.053929 123.17873 
L 284.501993 128.250006 
L 285.568603 132.666694 
L 286.303321 136.505202 
L 286.74995 139.833281 
L 286.947117 142.710894 
L 286.928911 145.191171 
L 286.725394 147.321168 
L 286.363056 149.142555 
L 285.770569 150.92645 
L 285.025845 152.391738 
L 284.156663 153.582971 
L 283.186911 154.538795 
L 281.981654 155.385696 
L 280.697691 156.011661 
L 279.186022 156.49688 
L 277.452532 156.814672 
L 275.335219 156.954532 
L 273.036057 156.881785 
L 270.247906 156.565911 
L 266.888648 155.946339 
L 262.956101 154.986773 
L 258.020037 153.540035 
L 251.707254 151.443627 
L 242.350189 148.076661 
L 230.720937 143.756 
L 230.720938 143.756 
" style="fill:none;stroke:#ff7f0e;stroke-linecap:square;stroke-width:0.5;"/>
   </g>
   <g id="line2d_52">
    <path clip-path="url(#pe10eb2ef1a)" d="M 230.720938 143.756 
" style="fill:none;stroke:#ff7f0e;stroke-linecap:square;stroke-width:1.5;"/>
   </g>
   <g id="line2d_53">
    <defs>
     <path d="M 0 3 
C 0.795609 3 1.55874 2.683901 2.12132 2.12132 
C 2.683901 1.55874 3 0.795609 3 0 
C 3 -0.795609 2.683901 -1.55874 2.12132 -2.12132 
C 1.55874 -2.683901 0.795609 -3 0 -3 
C -0.795609 -3 -1.55874 -2.683901 -2.12132 -2.12132 
C -2.683901 -1.55874 -3 -0.795609 -3 0 
C -3 0.795609 -2.683901 1.55874 -2.12132 2.12132 
C -1.55874 2.683901 -0.795609 3 0 3 
z
" id="m977ce273c9" style="stroke:#ff0000;"/>
    </defs>
    <g clip-path="url(#pe10eb2ef1a)">
     <use style="fill:#ff0000;stroke:#ff0000;" x="230.720938" xlink:href="#m977ce273c9" y="143.756"/>
    </g>
   </g>
   <g id="patch_73">
    <path d="M 52.160938 276.812 
L 52.160938 10.7 
" style="fill:none;stroke:#000000;stroke-linecap:square;stroke-linejoin:miter;stroke-width:0.8;"/>
   </g>
   <g id="patch_74">
    <path d="M 409.280938 276.812 
L 409.280938 10.7 
" style="fill:none;stroke:#000000;stroke-linecap:square;stroke-linejoin:miter;stroke-width:0.8;"/>
   </g>
   <g id="patch_75">
    <path d="M 52.160938 276.812 
L 409.280938 276.812 
" style="fill:none;stroke:#000000;stroke-linecap:square;stroke-linejoin:miter;stroke-width:0.8;"/>
   </g>
   <g id="patch_76">
    <path d="M 52.160938 10.7 
L 409.280938 10.7 
" style="fill:none;stroke:#000000;stroke-linecap:square;stroke-linejoin:miter;stroke-width:0.8;"/>
   </g>
   <g id="legend_1">
    <g id="patch_77">
     <path d="M 259.340938 273.812 
L 405.080938 273.812 
Q 406.280938 273.812 406.280938 272.612 
L 406.280938 246.551375 
Q 406.280938 245.351375 405.080938 245.351375 
L 259.340938 245.351375 
Q 258.140938 245.351375 258.140938 246.551375 
L 258.140938 272.612 
Q 258.140938 273.812 259.340938 273.812 
z
" style="fill:#ffffff;opacity:0.8;stroke:#cccccc;stroke-linejoin:miter;"/>
    </g>
    <g id="line2d_54">
     <path d="M 260.540938 250.210437 
L 272.540938 250.210437 
" style="fill:none;stroke:#1f77b4;stroke-linecap:square;stroke-width:1.5;"/>
    </g>
    <g id="line2d_55"/>
    <g id="text_13">
     <!-- system nieliniowy -->
     <defs>
      <path d="M 44.28125 53.078125 
L 44.28125 44.578125 
Q 40.484375 46.53125 36.375 47.5 
Q 32.28125 48.484375 27.875 48.484375 
Q 21.1875 48.484375 17.84375 46.4375 
Q 14.5 44.390625 14.5 40.28125 
Q 14.5 37.15625 16.890625 35.375 
Q 19.28125 33.59375 26.515625 31.984375 
L 29.59375 31.296875 
Q 39.15625 29.25 43.1875 25.515625 
Q 47.21875 21.78125 47.21875 15.09375 
Q 47.21875 7.46875 41.1875 3.015625 
Q 35.15625 -1.421875 24.609375 -1.421875 
Q 20.21875 -1.421875 15.453125 -0.5625 
Q 10.6875 0.296875 5.421875 2 
L 5.421875 11.28125 
Q 10.40625 8.6875 15.234375 7.390625 
Q 20.0625 6.109375 24.8125 6.109375 
Q 31.15625 6.109375 34.5625 8.28125 
Q 37.984375 10.453125 37.984375 14.40625 
Q 37.984375 18.0625 35.515625 20.015625 
Q 33.0625 21.96875 24.703125 23.78125 
L 21.578125 24.515625 
Q 13.234375 26.265625 9.515625 29.90625 
Q 5.8125 33.546875 5.8125 39.890625 
Q 5.8125 47.609375 11.28125 51.796875 
Q 16.75 56 26.8125 56 
Q 31.78125 56 36.171875 55.265625 
Q 40.578125 54.546875 44.28125 53.078125 
" id="DejaVuSans-73"/>
      <path d="M 32.171875 -5.078125 
Q 28.375 -14.84375 24.75 -17.8125 
Q 21.140625 -20.796875 15.09375 -20.796875 
L 7.90625 -20.796875 
L 7.90625 -13.28125 
L 13.1875 -13.28125 
Q 16.890625 -13.28125 18.9375 -11.515625 
Q 21 -9.765625 23.484375 -3.21875 
L 25.09375 0.875 
L 2.984375 54.6875 
L 12.5 54.6875 
L 29.59375 11.921875 
L 46.6875 54.6875 
L 56.203125 54.6875 
z
" id="DejaVuSans-79"/>
      <path d="M 18.3125 70.21875 
L 18.3125 54.6875 
L 36.8125 54.6875 
L 36.8125 47.703125 
L 18.3125 47.703125 
L 18.3125 18.015625 
Q 18.3125 11.328125 20.140625 9.421875 
Q 21.96875 7.515625 27.59375 7.515625 
L 36.8125 7.515625 
L 36.8125 0 
L 27.59375 0 
Q 17.1875 0 13.234375 3.875 
Q 9.28125 7.765625 9.28125 18.015625 
L 9.28125 47.703125 
L 2.6875 47.703125 
L 2.6875 54.6875 
L 9.28125 54.6875 
L 9.28125 70.21875 
z
" id="DejaVuSans-74"/>
      <path d="M 56.203125 29.59375 
L 56.203125 25.203125 
L 14.890625 25.203125 
Q 15.484375 15.921875 20.484375 11.0625 
Q 25.484375 6.203125 34.421875 6.203125 
Q 39.59375 6.203125 44.453125 7.46875 
Q 49.3125 8.734375 54.109375 11.28125 
L 54.109375 2.78125 
Q 49.265625 0.734375 44.1875 -0.34375 
Q 39.109375 -1.421875 33.890625 -1.421875 
Q 20.796875 -1.421875 13.15625 6.1875 
Q 5.515625 13.8125 5.515625 26.8125 
Q 5.515625 40.234375 12.765625 48.109375 
Q 20.015625 56 32.328125 56 
Q 43.359375 56 49.78125 48.890625 
Q 56.203125 41.796875 56.203125 29.59375 
M 47.21875 32.234375 
Q 47.125 39.59375 43.09375 43.984375 
Q 39.0625 48.390625 32.421875 48.390625 
Q 24.90625 48.390625 20.390625 44.140625 
Q 15.875 39.890625 15.1875 32.171875 
z
" id="DejaVuSans-65"/>
      <path d="M 52 44.1875 
Q 55.375 50.25 60.0625 53.125 
Q 64.75 56 71.09375 56 
Q 79.640625 56 84.28125 50.015625 
Q 88.921875 44.046875 88.921875 33.015625 
L 88.921875 0 
L 79.890625 0 
L 79.890625 32.71875 
Q 79.890625 40.578125 77.09375 44.375 
Q 74.3125 48.1875 68.609375 48.1875 
Q 61.625 48.1875 57.5625 43.546875 
Q 53.515625 38.921875 53.515625 30.90625 
L 53.515625 0 
L 44.484375 0 
L 44.484375 32.71875 
Q 44.484375 40.625 41.703125 44.40625 
Q 38.921875 48.1875 33.109375 48.1875 
Q 26.21875 48.1875 22.15625 43.53125 
Q 18.109375 38.875 18.109375 30.90625 
L 18.109375 0 
L 9.078125 0 
L 9.078125 54.6875 
L 18.109375 54.6875 
L 18.109375 46.1875 
Q 21.1875 51.21875 25.484375 53.609375 
Q 29.78125 56 35.6875 56 
Q 41.65625 56 45.828125 52.96875 
Q 50 49.953125 52 44.1875 
" id="DejaVuSans-6d"/>
      <path id="DejaVuSans-20"/>
      <path d="M 54.890625 33.015625 
L 54.890625 0 
L 45.90625 0 
L 45.90625 32.71875 
Q 45.90625 40.484375 42.875 44.328125 
Q 39.84375 48.1875 33.796875 48.1875 
Q 26.515625 48.1875 22.3125 43.546875 
Q 18.109375 38.921875 18.109375 30.90625 
L 18.109375 0 
L 9.078125 0 
L 9.078125 54.6875 
L 18.109375 54.6875 
L 18.109375 46.1875 
Q 21.34375 51.125 25.703125 53.5625 
Q 30.078125 56 35.796875 56 
Q 45.21875 56 50.046875 50.171875 
Q 54.890625 44.34375 54.890625 33.015625 
" id="DejaVuSans-6e"/>
      <path d="M 9.421875 54.6875 
L 18.40625 54.6875 
L 18.40625 0 
L 9.421875 0 
z
M 9.421875 75.984375 
L 18.40625 75.984375 
L 18.40625 64.59375 
L 9.421875 64.59375 
z
" id="DejaVuSans-69"/>
      <path d="M 9.421875 75.984375 
L 18.40625 75.984375 
L 18.40625 0 
L 9.421875 0 
z
" id="DejaVuSans-6c"/>
      <path d="M 30.609375 48.390625 
Q 23.390625 48.390625 19.1875 42.75 
Q 14.984375 37.109375 14.984375 27.296875 
Q 14.984375 17.484375 19.15625 11.84375 
Q 23.34375 6.203125 30.609375 6.203125 
Q 37.796875 6.203125 41.984375 11.859375 
Q 46.1875 17.53125 46.1875 27.296875 
Q 46.1875 37.015625 41.984375 42.703125 
Q 37.796875 48.390625 30.609375 48.390625 
M 30.609375 56 
Q 42.328125 56 49.015625 48.375 
Q 55.71875 40.765625 55.71875 27.296875 
Q 55.71875 13.875 49.015625 6.21875 
Q 42.328125 -1.421875 30.609375 -1.421875 
Q 18.84375 -1.421875 12.171875 6.21875 
Q 5.515625 13.875 5.515625 27.296875 
Q 5.515625 40.765625 12.171875 48.375 
Q 18.84375 56 30.609375 56 
" id="DejaVuSans-6f"/>
      <path d="M 4.203125 54.6875 
L 13.1875 54.6875 
L 24.421875 12.015625 
L 35.59375 54.6875 
L 46.1875 54.6875 
L 57.421875 12.015625 
L 68.609375 54.6875 
L 77.59375 54.6875 
L 63.28125 0 
L 52.6875 0 
L 40.921875 44.828125 
L 29.109375 0 
L 18.5 0 
z
" id="DejaVuSans-77"/>
     </defs>
     <g transform="translate(277.340938 252.310437)scale(0.06 -0.06)">
      <use xlink:href="#DejaVuSans-73"/>
      <use x="52.099609" xlink:href="#DejaVuSans-79"/>
      <use x="111.279297" xlink:href="#DejaVuSans-73"/>
      <use x="163.378906" xlink:href="#DejaVuSans-74"/>
      <use x="202.587891" xlink:href="#DejaVuSans-65"/>
      <use x="264.111328" xlink:href="#DejaVuSans-6d"/>
      <use x="361.523438" xlink:href="#DejaVuSans-20"/>
      <use x="393.310547" xlink:href="#DejaVuSans-6e"/>
      <use x="456.689453" xlink:href="#DejaVuSans-69"/>
      <use x="484.472656" xlink:href="#DejaVuSans-65"/>
      <use x="545.996094" xlink:href="#DejaVuSans-6c"/>
      <use x="573.779297" xlink:href="#DejaVuSans-69"/>
      <use x="601.5625" xlink:href="#DejaVuSans-6e"/>
      <use x="664.941406" xlink:href="#DejaVuSans-69"/>
      <use x="692.724609" xlink:href="#DejaVuSans-6f"/>
      <use x="753.90625" xlink:href="#DejaVuSans-77"/>
      <use x="835.693359" xlink:href="#DejaVuSans-79"/>
     </g>
    </g>
    <g id="line2d_56">
     <path d="M 260.540938 259.017312 
L 272.540938 259.017312 
" style="fill:none;stroke:#ff7f0e;stroke-linecap:square;stroke-width:1.5;"/>
    </g>
    <g id="line2d_57"/>
    <g id="text_14">
     <!-- system zlinearyzowany -->
     <defs>
      <path d="M 5.515625 54.6875 
L 48.1875 54.6875 
L 48.1875 46.484375 
L 14.40625 7.171875 
L 48.1875 7.171875 
L 48.1875 0 
L 4.296875 0 
L 4.296875 8.203125 
L 38.09375 47.515625 
L 5.515625 47.515625 
z
" id="DejaVuSans-7a"/>
      <path d="M 34.28125 27.484375 
Q 23.390625 27.484375 19.1875 25 
Q 14.984375 22.515625 14.984375 16.5 
Q 14.984375 11.71875 18.140625 8.90625 
Q 21.296875 6.109375 26.703125 6.109375 
Q 34.1875 6.109375 38.703125 11.40625 
Q 43.21875 16.703125 43.21875 25.484375 
L 43.21875 27.484375 
z
M 52.203125 31.203125 
L 52.203125 0 
L 43.21875 0 
L 43.21875 8.296875 
Q 40.140625 3.328125 35.546875 0.953125 
Q 30.953125 -1.421875 24.3125 -1.421875 
Q 15.921875 -1.421875 10.953125 3.296875 
Q 6 8.015625 6 15.921875 
Q 6 25.140625 12.171875 29.828125 
Q 18.359375 34.515625 30.609375 34.515625 
L 43.21875 34.515625 
L 43.21875 35.40625 
Q 43.21875 41.609375 39.140625 45 
Q 35.0625 48.390625 27.6875 48.390625 
Q 23 48.390625 18.546875 47.265625 
Q 14.109375 46.140625 10.015625 43.890625 
L 10.015625 52.203125 
Q 14.9375 54.109375 19.578125 55.046875 
Q 24.21875 56 28.609375 56 
Q 40.484375 56 46.34375 49.84375 
Q 52.203125 43.703125 52.203125 31.203125 
" id="DejaVuSans-61"/>
      <path d="M 41.109375 46.296875 
Q 39.59375 47.171875 37.8125 47.578125 
Q 36.03125 48 33.890625 48 
Q 26.265625 48 22.1875 43.046875 
Q 18.109375 38.09375 18.109375 28.8125 
L 18.109375 0 
L 9.078125 0 
L 9.078125 54.6875 
L 18.109375 54.6875 
L 18.109375 46.1875 
Q 20.953125 51.171875 25.484375 53.578125 
Q 30.03125 56 36.53125 56 
Q 37.453125 56 38.578125 55.875 
Q 39.703125 55.765625 41.0625 55.515625 
z
" id="DejaVuSans-72"/>
     </defs>
     <g transform="translate(277.340938 261.117312)scale(0.06 -0.06)">
      <use xlink:href="#DejaVuSans-73"/>
      <use x="52.099609" xlink:href="#DejaVuSans-79"/>
      <use x="111.279297" xlink:href="#DejaVuSans-73"/>
      <use x="163.378906" xlink:href="#DejaVuSans-74"/>
      <use x="202.587891" xlink:href="#DejaVuSans-65"/>
      <use x="264.111328" xlink:href="#DejaVuSans-6d"/>
      <use x="361.523438" xlink:href="#DejaVuSans-20"/>
      <use x="393.310547" xlink:href="#DejaVuSans-7a"/>
      <use x="445.800781" xlink:href="#DejaVuSans-6c"/>
      <use x="473.583984" xlink:href="#DejaVuSans-69"/>
      <use x="501.367188" xlink:href="#DejaVuSans-6e"/>
      <use x="564.746094" xlink:href="#DejaVuSans-65"/>
      <use x="626.269531" xlink:href="#DejaVuSans-61"/>
      <use x="687.548828" xlink:href="#DejaVuSans-72"/>
      <use x="728.662109" xlink:href="#DejaVuSans-79"/>
      <use x="787.841797" xlink:href="#DejaVuSans-7a"/>
      <use x="840.332031" xlink:href="#DejaVuSans-6f"/>
      <use x="901.513672" xlink:href="#DejaVuSans-77"/>
      <use x="983.300781" xlink:href="#DejaVuSans-61"/>
      <use x="1044.580078" xlink:href="#DejaVuSans-6e"/>
      <use x="1107.958984" xlink:href="#DejaVuSans-79"/>
     </g>
    </g>
    <g id="line2d_58"/>
    <g id="line2d_59">
     <g>
      <use style="fill:#ff0000;stroke:#ff0000;" x="266.540938" xlink:href="#m977ce273c9" y="268.064187"/>
     </g>
    </g>
    <g id="text_15">
     <!-- Punkt równowagi asymptotycznie stabilny -->
     <defs>
      <path d="M 19.671875 64.796875 
L 19.671875 37.40625 
L 32.078125 37.40625 
Q 38.96875 37.40625 42.71875 40.96875 
Q 46.484375 44.53125 46.484375 51.125 
Q 46.484375 57.671875 42.71875 61.234375 
Q 38.96875 64.796875 32.078125 64.796875 
z
M 9.8125 72.90625 
L 32.078125 72.90625 
Q 44.34375 72.90625 50.609375 67.359375 
Q 56.890625 61.8125 56.890625 51.125 
Q 56.890625 40.328125 50.609375 34.8125 
Q 44.34375 29.296875 32.078125 29.296875 
L 19.671875 29.296875 
L 19.671875 0 
L 9.8125 0 
z
" id="DejaVuSans-50"/>
      <path d="M 8.5 21.578125 
L 8.5 54.6875 
L 17.484375 54.6875 
L 17.484375 21.921875 
Q 17.484375 14.15625 20.5 10.265625 
Q 23.53125 6.390625 29.59375 6.390625 
Q 36.859375 6.390625 41.078125 11.03125 
Q 45.3125 15.671875 45.3125 23.6875 
L 45.3125 54.6875 
L 54.296875 54.6875 
L 54.296875 0 
L 45.3125 0 
L 45.3125 8.40625 
Q 42.046875 3.421875 37.71875 1 
Q 33.40625 -1.421875 27.6875 -1.421875 
Q 18.265625 -1.421875 13.375 4.4375 
Q 8.5 10.296875 8.5 21.578125 
M 31.109375 56 
z
" id="DejaVuSans-75"/>
      <path d="M 9.078125 75.984375 
L 18.109375 75.984375 
L 18.109375 31.109375 
L 44.921875 54.6875 
L 56.390625 54.6875 
L 27.390625 29.109375 
L 57.625 0 
L 45.90625 0 
L 18.109375 26.703125 
L 18.109375 0 
L 9.078125 0 
z
" id="DejaVuSans-6b"/>
      <path d="M 30.609375 48.390625 
Q 23.390625 48.390625 19.1875 42.75 
Q 14.984375 37.109375 14.984375 27.296875 
Q 14.984375 17.484375 19.15625 11.84375 
Q 23.34375 6.203125 30.609375 6.203125 
Q 37.796875 6.203125 41.984375 11.859375 
Q 46.1875 17.53125 46.1875 27.296875 
Q 46.1875 37.015625 41.984375 42.703125 
Q 37.796875 48.390625 30.609375 48.390625 
M 30.609375 56 
Q 42.328125 56 49.015625 48.375 
Q 55.71875 40.765625 55.71875 27.296875 
Q 55.71875 13.875 49.015625 6.21875 
Q 42.328125 -1.421875 30.609375 -1.421875 
Q 18.84375 -1.421875 12.171875 6.21875 
Q 5.515625 13.875 5.515625 27.296875 
Q 5.515625 40.765625 12.171875 48.375 
Q 18.84375 56 30.609375 56 
M 37.40625 79.984375 
L 47.125 79.984375 
L 31.21875 61.625 
L 23.734375 61.625 
z
" id="DejaVuSans-f3"/>
      <path d="M 45.40625 27.984375 
Q 45.40625 37.75 41.375 43.109375 
Q 37.359375 48.484375 30.078125 48.484375 
Q 22.859375 48.484375 18.828125 43.109375 
Q 14.796875 37.75 14.796875 27.984375 
Q 14.796875 18.265625 18.828125 12.890625 
Q 22.859375 7.515625 30.078125 7.515625 
Q 37.359375 7.515625 41.375 12.890625 
Q 45.40625 18.265625 45.40625 27.984375 
M 54.390625 6.78125 
Q 54.390625 -7.171875 48.1875 -13.984375 
Q 42 -20.796875 29.203125 -20.796875 
Q 24.46875 -20.796875 20.265625 -20.09375 
Q 16.0625 -19.390625 12.109375 -17.921875 
L 12.109375 -9.1875 
Q 16.0625 -11.328125 19.921875 -12.34375 
Q 23.78125 -13.375 27.78125 -13.375 
Q 36.625 -13.375 41.015625 -8.765625 
Q 45.40625 -4.15625 45.40625 5.171875 
L 45.40625 9.625 
Q 42.625 4.78125 38.28125 2.390625 
Q 33.9375 0 27.875 0 
Q 17.828125 0 11.671875 7.65625 
Q 5.515625 15.328125 5.515625 27.984375 
Q 5.515625 40.671875 11.671875 48.328125 
Q 17.828125 56 27.875 56 
Q 33.9375 56 38.28125 53.609375 
Q 42.625 51.21875 45.40625 46.390625 
L 45.40625 54.6875 
L 54.390625 54.6875 
z
" id="DejaVuSans-67"/>
      <path d="M 18.109375 8.203125 
L 18.109375 -20.796875 
L 9.078125 -20.796875 
L 9.078125 54.6875 
L 18.109375 54.6875 
L 18.109375 46.390625 
Q 20.953125 51.265625 25.265625 53.625 
Q 29.59375 56 35.59375 56 
Q 45.5625 56 51.78125 48.09375 
Q 58.015625 40.1875 58.015625 27.296875 
Q 58.015625 14.40625 51.78125 6.484375 
Q 45.5625 -1.421875 35.59375 -1.421875 
Q 29.59375 -1.421875 25.265625 0.953125 
Q 20.953125 3.328125 18.109375 8.203125 
M 48.6875 27.296875 
Q 48.6875 37.203125 44.609375 42.84375 
Q 40.53125 48.484375 33.40625 48.484375 
Q 26.265625 48.484375 22.1875 42.84375 
Q 18.109375 37.203125 18.109375 27.296875 
Q 18.109375 17.390625 22.1875 11.75 
Q 26.265625 6.109375 33.40625 6.109375 
Q 40.53125 6.109375 44.609375 11.75 
Q 48.6875 17.390625 48.6875 27.296875 
" id="DejaVuSans-70"/>
      <path d="M 48.78125 52.59375 
L 48.78125 44.1875 
Q 44.96875 46.296875 41.140625 47.34375 
Q 37.3125 48.390625 33.40625 48.390625 
Q 24.65625 48.390625 19.8125 42.84375 
Q 14.984375 37.3125 14.984375 27.296875 
Q 14.984375 17.28125 19.8125 11.734375 
Q 24.65625 6.203125 33.40625 6.203125 
Q 37.3125 6.203125 41.140625 7.25 
Q 44.96875 8.296875 48.78125 10.40625 
L 48.78125 2.09375 
Q 45.015625 0.34375 40.984375 -0.53125 
Q 36.96875 -1.421875 32.421875 -1.421875 
Q 20.0625 -1.421875 12.78125 6.34375 
Q 5.515625 14.109375 5.515625 27.296875 
Q 5.515625 40.671875 12.859375 48.328125 
Q 20.21875 56 33.015625 56 
Q 37.15625 56 41.109375 55.140625 
Q 45.0625 54.296875 48.78125 52.59375 
" id="DejaVuSans-63"/>
      <path d="M 48.6875 27.296875 
Q 48.6875 37.203125 44.609375 42.84375 
Q 40.53125 48.484375 33.40625 48.484375 
Q 26.265625 48.484375 22.1875 42.84375 
Q 18.109375 37.203125 18.109375 27.296875 
Q 18.109375 17.390625 22.1875 11.75 
Q 26.265625 6.109375 33.40625 6.109375 
Q 40.53125 6.109375 44.609375 11.75 
Q 48.6875 17.390625 48.6875 27.296875 
M 18.109375 46.390625 
Q 20.953125 51.265625 25.265625 53.625 
Q 29.59375 56 35.59375 56 
Q 45.5625 56 51.78125 48.09375 
Q 58.015625 40.1875 58.015625 27.296875 
Q 58.015625 14.40625 51.78125 6.484375 
Q 45.5625 -1.421875 35.59375 -1.421875 
Q 29.59375 -1.421875 25.265625 0.953125 
Q 20.953125 3.328125 18.109375 8.203125 
L 18.109375 0 
L 9.078125 0 
L 9.078125 75.984375 
L 18.109375 75.984375 
z
" id="DejaVuSans-62"/>
     </defs>
     <g transform="translate(277.340938 270.164187)scale(0.06 -0.06)">
      <use xlink:href="#DejaVuSans-50"/>
      <use x="60.287109" xlink:href="#DejaVuSans-75"/>
      <use x="123.666016" xlink:href="#DejaVuSans-6e"/>
      <use x="187.044922" xlink:href="#DejaVuSans-6b"/>
      <use x="244.955078" xlink:href="#DejaVuSans-74"/>
      <use x="284.164062" xlink:href="#DejaVuSans-20"/>
      <use x="315.951172" xlink:href="#DejaVuSans-72"/>
      <use x="357.033203" xlink:href="#DejaVuSans-f3"/>
      <use x="418.214844" xlink:href="#DejaVuSans-77"/>
      <use x="500.001953" xlink:href="#DejaVuSans-6e"/>
      <use x="563.380859" xlink:href="#DejaVuSans-6f"/>
      <use x="624.5625" xlink:href="#DejaVuSans-77"/>
      <use x="706.349609" xlink:href="#DejaVuSans-61"/>
      <use x="767.628906" xlink:href="#DejaVuSans-67"/>
      <use x="831.105469" xlink:href="#DejaVuSans-69"/>
      <use x="858.888672" xlink:href="#DejaVuSans-20"/>
      <use x="890.675781" xlink:href="#DejaVuSans-61"/>
      <use x="951.955078" xlink:href="#DejaVuSans-73"/>
      <use x="1004.054688" xlink:href="#DejaVuSans-79"/>
      <use x="1063.234375" xlink:href="#DejaVuSans-6d"/>
      <use x="1160.646484" xlink:href="#DejaVuSans-70"/>
      <use x="1224.123047" xlink:href="#DejaVuSans-74"/>
      <use x="1263.332031" xlink:href="#DejaVuSans-6f"/>
      <use x="1324.513672" xlink:href="#DejaVuSans-74"/>
      <use x="1363.722656" xlink:href="#DejaVuSans-79"/>
      <use x="1422.902344" xlink:href="#DejaVuSans-63"/>
      <use x="1477.882812" xlink:href="#DejaVuSans-7a"/>
      <use x="1530.373047" xlink:href="#DejaVuSans-6e"/>
      <use x="1593.751953" xlink:href="#DejaVuSans-69"/>
      <use x="1621.535156" xlink:href="#DejaVuSans-65"/>
      <use x="1683.058594" xlink:href="#DejaVuSans-20"/>
      <use x="1714.845703" xlink:href="#DejaVuSans-73"/>
      <use x="1766.945312" xlink:href="#DejaVuSans-74"/>
      <use x="1806.154297" xlink:href="#DejaVuSans-61"/>
      <use x="1867.433594" xlink:href="#DejaVuSans-62"/>
      <use x="1930.910156" xlink:href="#DejaVuSans-69"/>
      <use x="1958.693359" xlink:href="#DejaVuSans-6c"/>
      <use x="1986.476562" xlink:href="#DejaVuSans-6e"/>
      <use x="2049.855469" xlink:href="#DejaVuSans-79"/>
     </g>
    </g>
   </g>
  </g>
 </g>
 <defs>
  <clipPath id="pe10eb2ef1a">
   <rect height="266.112" width="357.12" x="52.160938" y="10.7"/>
  </clipPath>
 </defs>
</svg>
