<?xml version="1.0" encoding="utf-8" standalone="no"?>
<!DOCTYPE svg PUBLIC "-//W3C//DTD SVG 1.1//EN"
  "http://www.w3.org/Graphics/SVG/1.1/DTD/svg11.dtd">
<!-- Created with matplotlib (http://matplotlib.org/) -->
<svg height="314pt" version="1.1" viewBox="0 0 424 314" width="424pt" xmlns="http://www.w3.org/2000/svg" xmlns:xlink="http://www.w3.org/1999/xlink">
 <defs>
  <style type="text/css">
*{stroke-linecap:butt;stroke-linejoin:round;}
  </style>
 </defs>
 <g id="figure_1">
  <g id="patch_1">
   <path d="M 0 314.667469 
L 424.4325 314.667469 
L 424.4325 0 
L 0 0 
z
" style="fill:#ffffff;"/>
  </g>
  <g id="axes_1">
   <g id="patch_2">
    <path d="M 52.160938 277.111219 
L 409.280938 277.111219 
L 409.280938 10.999219 
L 52.160938 10.999219 
z
" style="fill:#ffffff;"/>
   </g>
   <g id="patch_3">
    <path clip-path="url(#p33aa4738e5)" d="M 284.924456 103.724418 
L 279.201502 99.574522 
L 282.531589 98.709639 
L 282.615295 98.686461 
L 282.615895 98.687744 
L 285.945983 97.822861 
z
" style="fill:#ff7f0e;stroke:#ff7f0e;stroke-linejoin:miter;"/>
   </g>
   <g id="patch_4">
    <path clip-path="url(#p33aa4738e5)" d="M 296.657462 143.343778 
L 292.426598 138.297152 
L 295.937342 138.048554 
L 296.026145 138.041659 
L 296.026222 138.04226 
L 299.536966 137.793662 
z
" style="fill:#ff7f0e;stroke:#ff7f0e;stroke-linejoin:miter;"/>
   </g>
   <g id="patch_5">
    <path clip-path="url(#p33aa4738e5)" d="M 316.286345 100.346145 
L 310.797729 96.024052 
L 314.172814 95.262154 
L 314.257615 95.24128 
L 314.258259 95.242865 
L 317.633344 94.480967 
z
" style="fill:#ff7f0e;stroke:#ff7f0e;stroke-linejoin:miter;"/>
   </g>
   <g id="patch_6">
    <path clip-path="url(#p33aa4738e5)" d="M 325.676076 131.878236 
L 321.002947 127.05311 
L 324.483624 126.630589 
L 324.571516 126.618855 
L 324.571743 126.619893 
L 328.05242 126.197372 
z
" style="fill:#ff7f0e;stroke:#ff7f0e;stroke-linejoin:miter;"/>
   </g>
   <g id="patch_7">
    <path clip-path="url(#p33aa4738e5)" d="M 359.975086 121.813283 
L 355.198447 117.044772 
L 358.669557 116.580603 
L 358.757075 116.567362 
L 358.757433 116.568852 
L 362.228544 116.104683 
z
" style="fill:#ff7f0e;stroke:#ff7f0e;stroke-linejoin:miter;"/>
   </g>
   <g id="patch_8">
    <path clip-path="url(#p33aa4738e5)" d="M 359.179268 163.771926 
L 357.23682 158.000209 
L 360.679964 158.568385 
L 360.767331 158.582099 
L 360.767132 158.58277 
L 364.210275 159.150946 
z
" style="fill:#ff7f0e;stroke:#ff7f0e;stroke-linejoin:miter;"/>
   </g>
   <g id="patch_9">
    <path clip-path="url(#p33aa4738e5)" d="M 408.136661 155.904747 
L 405.001808 150.431993 
L 408.521975 150.590153 
L 408.611189 150.592975 
L 408.611093 150.594157 
L 412.13126 150.752318 
z
" style="fill:#ff7f0e;stroke:#ff7f0e;stroke-linejoin:miter;"/>
   </g>
   <g id="patch_10">
    <path clip-path="url(#p33aa4738e5)" d="M 381.645982 190.48958 
L 385.566008 185.305444 
L 387.539843 187.483126 
L 387.590399 187.537963 
L 387.589814 187.538258 
L 389.563649 189.71594 
z
" style="fill:#ff7f0e;stroke:#ff7f0e;stroke-linejoin:miter;"/>
   </g>
   <g id="patch_11">
    <path clip-path="url(#p33aa4738e5)" d="M 411.411999 36.120159 
L 405.873661 31.83343 
L 409.23982 31.049912 
L 409.323547 31.026516 
L 409.32504 31.030076 
L 412.691199 30.246558 
z
" style="fill:#ff7f0e;stroke:#ff7f0e;stroke-linejoin:miter;"/>
   </g>
   <g id="patch_12">
    <path clip-path="url(#p33aa4738e5)" d="M 411.043732 78.67388 
L 405.821024 74.172547 
L 409.238605 73.524315 
L 409.324198 73.505187 
L 409.325126 73.507904 
L 412.742708 72.859672 
z
" style="fill:#ff7f0e;stroke:#ff7f0e;stroke-linejoin:miter;"/>
   </g>
   <g id="patch_13">
    <path clip-path="url(#p33aa4738e5)" d="M 410.513484 112.35691 
L 405.763754 107.573496 
L 409.237449 107.120191 
L 409.324908 107.106664 
L 409.32539 107.108715 
L 412.799085 106.655409 
z
" style="fill:#ff7f0e;stroke:#ff7f0e;stroke-linejoin:miter;"/>
   </g>
   <g id="patch_14">
    <path clip-path="url(#p33aa4738e5)" d="M 409.597658 142.1596 
L 405.713335 136.960564 
L 409.236428 136.844067 
L 409.325534 136.839657 
L 409.325621 136.841118 
L 412.848714 136.724621 
z
" style="fill:#ff7f0e;stroke:#ff7f0e;stroke-linejoin:miter;"/>
   </g>
   <g id="patch_15">
    <path clip-path="url(#p33aa4738e5)" d="M 354.806454 193.603061 
L 362.084104 191.153854 
L 361.94506 193.779666 
L 361.942207 193.846162 
L 361.94154 193.846143 
L 361.802495 196.471955 
z
" style="fill:#ff7f0e;stroke:#ff7f0e;stroke-linejoin:miter;"/>
   </g>
   <g id="patch_16">
    <path clip-path="url(#p33aa4738e5)" d="M 309.542005 182.613244 
L 317.517325 182.313678 
L 316.100995 184.720288 
L 316.065684 184.781393 
L 316.065139 184.781215 
L 314.648809 187.187824 
z
" style="fill:#ff7f0e;stroke:#ff7f0e;stroke-linejoin:miter;"/>
   </g>
   <g id="patch_17">
    <path clip-path="url(#p33aa4738e5)" d="M 319.85849 187.804106 
L 327.837224 187.560196 
L 326.390717 189.956819 
L 326.354712 190.017699 
L 326.354097 190.017493 
L 324.90759 192.414116 
z
" style="fill:#ff7f0e;stroke:#ff7f0e;stroke-linejoin:miter;"/>
   </g>
   <g id="patch_18">
    <path clip-path="url(#p33aa4738e5)" d="M 283.506653 172.73125 
L 291.466595 173.206446 
L 289.642611 175.455514 
L 289.596854 175.512641 
L 289.596434 175.512452 
L 287.77245 177.76152 
z
" style="fill:#ff7f0e;stroke:#ff7f0e;stroke-linejoin:miter;"/>
   </g>
   <g id="patch_19">
    <path clip-path="url(#p33aa4738e5)" d="M 334.171628 201.252778 
L 342.110762 201.892706 
L 340.203566 204.103115 
L 340.156086 204.15946 
L 340.155282 204.159075 
L 338.248086 206.369483 
z
" style="fill:#ff7f0e;stroke:#ff7f0e;stroke-linejoin:miter;"/>
   </g>
   <g id="patch_20">
    <path clip-path="url(#p33aa4738e5)" d="M 307.178527 187.713597 
L 315.088764 188.528343 
L 313.094607 190.69572 
L 313.044746 190.750909 
L 313.044122 190.75059 
L 311.049964 192.917967 
z
" style="fill:#ff7f0e;stroke:#ff7f0e;stroke-linejoin:miter;"/>
   </g>
   <g id="patch_21">
    <path clip-path="url(#p33aa4738e5)" d="M 332.067533 223.897124 
L 339.574188 225.926576 
L 337.015838 227.735258 
L 336.952187 227.781925 
L 336.95107 227.781047 
L 334.39272 229.58973 
z
" style="fill:#ff7f0e;stroke:#ff7f0e;stroke-linejoin:miter;"/>
   </g>
   <g id="patch_22">
    <path clip-path="url(#p33aa4738e5)" d="M 307.382934 204.500608 
L 314.888634 206.532018 
L 312.329435 208.340032 
L 312.265504 208.38648 
L 312.264645 208.385805 
L 309.705446 210.19382 
z
" style="fill:#ff7f0e;stroke:#ff7f0e;stroke-linejoin:miter;"/>
   </g>
   <g id="patch_23">
    <path clip-path="url(#p33aa4738e5)" d="M 288.166523 223.968425 
L 295.151995 226.851587 
L 292.244039 228.338257 
L 292.171543 228.377114 
L 292.17042 228.375894 
L 289.262464 229.862565 
z
" style="fill:#ff7f0e;stroke:#ff7f0e;stroke-linejoin:miter;"/>
   </g>
   <g id="patch_24">
    <path clip-path="url(#p33aa4738e5)" d="M 266.194696 199.564451 
L 273.114182 202.534651 
L 270.173121 203.984709 
L 270.099462 204.022319 
L 270.098663 204.02142 
L 267.157602 205.471478 
z
" style="fill:#ff7f0e;stroke:#ff7f0e;stroke-linejoin:miter;"/>
   </g>
   <g id="patch_25">
    <path clip-path="url(#p33aa4738e5)" d="M 234.283081 202.409694 
L 240.746534 205.904105 
L 237.617661 207.116403 
L 237.539288 207.148296 
L 237.538449 207.147094 
L 234.409577 208.359392 
z
" style="fill:#ff7f0e;stroke:#ff7f0e;stroke-linejoin:miter;"/>
   </g>
   <g id="patch_26">
    <path clip-path="url(#p33aa4738e5)" d="M 229.559733 195.433556 
L 235.969919 198.982031 
L 232.822909 200.167973 
L 232.743983 200.199096 
L 232.743237 200.197997 
L 229.596227 201.383939 
z
" style="fill:#ff7f0e;stroke:#ff7f0e;stroke-linejoin:miter;"/>
   </g>
   <g id="patch_27">
    <path clip-path="url(#p33aa4738e5)" d="M 204.946514 208.251519 
L 211.106845 212.037764 
L 207.883142 213.103205 
L 207.802445 213.131717 
L 207.801529 213.130178 
L 204.577825 214.195618 
z
" style="fill:#ff7f0e;stroke:#ff7f0e;stroke-linejoin:miter;"/>
   </g>
   <g id="patch_28">
    <path clip-path="url(#p33aa4738e5)" d="M 191.690654 183.821155 
L 197.57354 187.844957 
L 194.278706 188.781818 
L 194.195886 188.806693 
L 194.195293 188.805536 
L 190.90046 189.742396 
z
" style="fill:#ff7f0e;stroke:#ff7f0e;stroke-linejoin:miter;"/>
   </g>
   <g id="patch_29">
    <path clip-path="url(#p33aa4738e5)" d="M 167.35931 199.706007 
L 173.147484 203.805369 
L 169.831303 204.699429 
L 169.748152 204.723717 
L 169.747349 204.722063 
L 166.431168 205.616123 
z
" style="fill:#ff7f0e;stroke:#ff7f0e;stroke-linejoin:miter;"/>
   </g>
   <g id="patch_30">
    <path clip-path="url(#p33aa4738e5)" d="M 150.174211 142.01077 
L 154.061615 147.208527 
L 150.538591 147.326183 
L 150.44944 147.329819 
L 150.449401 147.329162 
L 146.926377 147.446818 
z
" style="fill:#ff7f0e;stroke:#ff7f0e;stroke-linejoin:miter;"/>
   </g>
   <g id="patch_31">
    <path clip-path="url(#p33aa4738e5)" d="M 119.349447 160.365805 
L 124.059262 165.171084 
L 120.58186 165.608322 
L 120.494106 165.620632 
L 120.493825 165.619392 
L 117.016422 166.05663 
z
" style="fill:#ff7f0e;stroke:#ff7f0e;stroke-linejoin:miter;"/>
   </g>
   <g id="patch_32">
    <path clip-path="url(#p33aa4738e5)" d="M 117.565914 143.911836 
L 121.491547 149.093614 
L 117.969443 149.225679 
L 117.880339 149.229957 
L 117.880276 149.229022 
L 114.358172 149.361086 
z
" style="fill:#ff7f0e;stroke:#ff7f0e;stroke-linejoin:miter;"/>
   </g>
   <g id="patch_33">
    <path clip-path="url(#p33aa4738e5)" d="M 78.42874 157.805858 
L 82.840653 162.765653 
L 79.340179 163.08469 
L 79.251805 163.094262 
L 79.251559 163.092767 
L 75.751085 163.411804 
z
" style="fill:#ff7f0e;stroke:#ff7f0e;stroke-linejoin:miter;"/>
   </g>
   <g id="patch_34">
    <path clip-path="url(#p33aa4738e5)" d="M 100.207228 104.181608 
L 96.64694 109.507906 
L 94.526698 107.408031 
L 94.472527 107.355147 
L 94.473021 107.35487 
L 92.352779 105.254995 
z
" style="fill:#ff7f0e;stroke:#ff7f0e;stroke-linejoin:miter;"/>
   </g>
   <g id="patch_35">
    <path clip-path="url(#p33aa4738e5)" d="M 55.883821 264.336736 
L 61.504281 268.563697 
L 58.153585 269.383191 
L 58.070414 269.4077 
L 58.068757 269.403938 
L 54.718061 270.223432 
z
" style="fill:#ff7f0e;stroke:#ff7f0e;stroke-linejoin:miter;"/>
   </g>
   <g id="patch_36">
    <path clip-path="url(#p33aa4738e5)" d="M 54.254892 260.568395 
L 59.852013 264.812517 
L 56.496829 265.621752 
L 56.413495 265.645939 
L 56.411888 265.642239 
L 53.056704 266.451475 
z
" style="fill:#ff7f0e;stroke:#ff7f0e;stroke-linejoin:miter;"/>
   </g>
   <g id="patch_37">
    <path clip-path="url(#p33aa4738e5)" d="M 50.200698 229.148193 
L 55.593987 233.536413 
L 52.202676 234.257193 
L 52.11801 234.278549 
L 52.11682 234.275441 
L 48.725508 234.996221 
z
" style="fill:#ff7f0e;stroke:#ff7f0e;stroke-linejoin:miter;"/>
   </g>
   <g id="patch_38">
    <path clip-path="url(#p33aa4738e5)" d="M 50.634327 191.867844 
L 55.64899 196.498679 
L 52.203851 197.060098 
L 52.117328 197.076681 
L 52.116633 197.074312 
L 48.671494 197.635731 
z
" style="fill:#ff7f0e;stroke:#ff7f0e;stroke-linejoin:miter;"/>
   </g>
   <g id="patch_39">
    <path clip-path="url(#p33aa4738e5)" d="M 51.312444 160.582316 
L 55.706584 165.550865 
L 52.204981 165.862942 
L 52.116613 165.872593 
L 52.116332 165.870843 
L 48.614729 166.18292 
z
" style="fill:#ff7f0e;stroke:#ff7f0e;stroke-linejoin:miter;"/>
   </g>
   <g id="patch_40">
    <path clip-path="url(#p33aa4738e5)" d="M 106.102775 95.041509 
L 98.952143 97.690326 
L 98.960291 95.062477 
L 98.959839 94.995948 
L 98.960497 94.995949 
L 98.968645 92.3681 
z
" style="fill:#ff7f0e;stroke:#ff7f0e;stroke-linejoin:miter;"/>
   </g>
   <g id="patch_41">
    <path clip-path="url(#p33aa4738e5)" d="M 144.507813 103.193221 
L 136.560183 103.771634 
L 137.823231 101.318102 
L 137.854634 101.255824 
L 137.855207 101.255987 
L 139.118255 98.802456 
z
" style="fill:#ff7f0e;stroke:#ff7f0e;stroke-linejoin:miter;"/>
   </g>
   <g id="patch_42">
    <path clip-path="url(#p33aa4738e5)" d="M 147.569294 103.515104 
L 139.595265 103.833186 
L 141.001525 101.4233 
L 141.036555 101.362105 
L 141.037126 101.36229 
L 142.443386 98.952403 
z
" style="fill:#ff7f0e;stroke:#ff7f0e;stroke-linejoin:miter;"/>
   </g>
   <g id="patch_43">
    <path clip-path="url(#p33aa4738e5)" d="M 182.969372 118.085304 
L 175.00885 117.615535 
L 176.830071 115.365224 
L 176.875793 115.308082 
L 176.876178 115.308255 
L 178.697399 113.057944 
z
" style="fill:#ff7f0e;stroke:#ff7f0e;stroke-linejoin:miter;"/>
   </g>
   <g id="patch_44">
    <path clip-path="url(#p33aa4738e5)" d="M 138.508888 96.799459 
L 130.524955 96.68364 
L 132.163175 94.356534 
L 132.203984 94.29736 
L 132.204649 94.29762 
L 133.84287 91.970514 
z
" style="fill:#ff7f0e;stroke:#ff7f0e;stroke-linejoin:miter;"/>
   </g>
   <g id="patch_45">
    <path clip-path="url(#p33aa4738e5)" d="M 163.315896 107.592562 
L 155.355669 107.120027 
L 157.178298 104.87035 
L 157.223916 104.81316 
L 157.224441 104.813396 
L 159.04707 102.563719 
z
" style="fill:#ff7f0e;stroke:#ff7f0e;stroke-linejoin:miter;"/>
   </g>
   <g id="patch_46">
    <path clip-path="url(#p33aa4738e5)" d="M 143.917562 88.016103 
L 136.156133 86.616554 
L 138.430897 84.608476 
L 138.487691 84.557139 
L 138.488486 84.557639 
L 140.76325 82.549561 
z
" style="fill:#ff7f0e;stroke:#ff7f0e;stroke-linejoin:miter;"/>
   </g>
   <g id="patch_47">
    <path clip-path="url(#p33aa4738e5)" d="M 172.6535 106.229265 
L 164.902888 104.796816 
L 167.192956 102.79842 
L 167.250381 102.747476 
L 167.250932 102.747827 
L 169.541 100.749431 
z
" style="fill:#ff7f0e;stroke:#ff7f0e;stroke-linejoin:miter;"/>
   </g>
   <g id="patch_48">
    <path clip-path="url(#p33aa4738e5)" d="M 153.455516 65.531005 
L 146.2236 63.007697 
L 148.989475 61.377418 
L 149.058394 61.335106 
L 149.059497 61.336145 
L 151.825372 59.705865 
z
" style="fill:#ff7f0e;stroke:#ff7f0e;stroke-linejoin:miter;"/>
   </g>
   <g id="patch_49">
    <path clip-path="url(#p33aa4738e5)" d="M 187.506662 98.037682 
L 180.314206 95.452508 
L 183.105082 93.846061 
L 183.175068 93.804746 
L 183.175737 93.805392 
L 185.966614 92.198945 
z
" style="fill:#ff7f0e;stroke:#ff7f0e;stroke-linejoin:miter;"/>
   </g>
   <g id="patch_50">
    <path clip-path="url(#p33aa4738e5)" d="M 201.846446 74.991254 
L 195.116556 71.78828 
L 198.143562 70.44 
L 198.219216 70.404645 
L 198.220196 70.405866 
L 201.247202 69.057587 
z
" style="fill:#ff7f0e;stroke:#ff7f0e;stroke-linejoin:miter;"/>
   </g>
   <g id="patch_51">
    <path clip-path="url(#p33aa4738e5)" d="M 223.57966 103.526056 
L 217.020037 100.132611 
L 220.114382 98.872065 
L 220.192119 98.839333 
L 220.19272 98.840152 
L 223.287066 97.579607 
z
" style="fill:#ff7f0e;stroke:#ff7f0e;stroke-linejoin:miter;"/>
   </g>
   <g id="patch_52">
    <path clip-path="url(#p33aa4738e5)" d="M 229.335267 63.724629 
L 222.912165 60.189146 
L 226.054839 58.996836 
L 226.13327 58.964997 
L 226.134401 58.966651 
L 229.277076 57.774342 
z
" style="fill:#ff7f0e;stroke:#ff7f0e;stroke-linejoin:miter;"/>
   </g>
   <g id="patch_53">
    <path clip-path="url(#p33aa4738e5)" d="M 266.562495 129.983717 
L 261.092996 125.648189 
L 264.471427 124.894571 
L 264.556704 124.874862 
L 264.556957 124.875492 
L 267.935388 124.121874 
z
" style="fill:#ff7f0e;stroke:#ff7f0e;stroke-linejoin:miter;"/>
   </g>
   <g id="patch_54">
    <path clip-path="url(#p33aa4738e5)" d="M 278.920592 91.123182 
L 273.023429 87.111001 
L 276.314922 86.167643 
L 276.397483 86.142275 
L 276.39825 86.143761 
L 279.689743 85.200403 
z
" style="fill:#ff7f0e;stroke:#ff7f0e;stroke-linejoin:miter;"/>
   </g>
   <g id="patch_55">
    <path clip-path="url(#p33aa4738e5)" d="M 293.898991 127.661255 
L 288.762166 123.105376 
L 292.191699 122.493196 
L 292.278239 122.476815 
L 292.278523 122.477697 
L 295.708056 121.865517 
z
" style="fill:#ff7f0e;stroke:#ff7f0e;stroke-linejoin:miter;"/>
   </g>
   <g id="matplotlib.axis_1">
    <g id="xtick_1">
     <g id="line2d_1">
      <defs>
       <path d="M 0 0 
L 0 3.5 
" id="m8d9d6412d5" style="stroke:#000000;stroke-width:0.8;"/>
      </defs>
      <g>
       <use style="stroke:#000000;stroke-width:0.8;" x="52.160938" xlink:href="#m8d9d6412d5" y="277.111219"/>
      </g>
     </g>
     <g id="text_1">
      <!-- −2.0 -->
      <defs>
       <path d="M 10.59375 35.5 
L 73.1875 35.5 
L 73.1875 27.203125 
L 10.59375 27.203125 
z
" id="DejaVuSans-2212"/>
       <path d="M 19.1875 8.296875 
L 53.609375 8.296875 
L 53.609375 0 
L 7.328125 0 
L 7.328125 8.296875 
Q 12.9375 14.109375 22.625 23.890625 
Q 32.328125 33.6875 34.8125 36.53125 
Q 39.546875 41.84375 41.421875 45.53125 
Q 43.3125 49.21875 43.3125 52.78125 
Q 43.3125 58.59375 39.234375 62.25 
Q 35.15625 65.921875 28.609375 65.921875 
Q 23.96875 65.921875 18.8125 64.3125 
Q 13.671875 62.703125 7.8125 59.421875 
L 7.8125 69.390625 
Q 13.765625 71.78125 18.9375 73 
Q 24.125 74.21875 28.421875 74.21875 
Q 39.75 74.21875 46.484375 68.546875 
Q 53.21875 62.890625 53.21875 53.421875 
Q 53.21875 48.921875 51.53125 44.890625 
Q 49.859375 40.875 45.40625 35.40625 
Q 44.1875 33.984375 37.640625 27.21875 
Q 31.109375 20.453125 19.1875 8.296875 
" id="DejaVuSans-32"/>
       <path d="M 10.6875 12.40625 
L 21 12.40625 
L 21 0 
L 10.6875 0 
z
" id="DejaVuSans-2e"/>
       <path d="M 31.78125 66.40625 
Q 24.171875 66.40625 20.328125 58.90625 
Q 16.5 51.421875 16.5 36.375 
Q 16.5 21.390625 20.328125 13.890625 
Q 24.171875 6.390625 31.78125 6.390625 
Q 39.453125 6.390625 43.28125 13.890625 
Q 47.125 21.390625 47.125 36.375 
Q 47.125 51.421875 43.28125 58.90625 
Q 39.453125 66.40625 31.78125 66.40625 
M 31.78125 74.21875 
Q 44.046875 74.21875 50.515625 64.515625 
Q 56.984375 54.828125 56.984375 36.375 
Q 56.984375 17.96875 50.515625 8.265625 
Q 44.046875 -1.421875 31.78125 -1.421875 
Q 19.53125 -1.421875 13.0625 8.265625 
Q 6.59375 17.96875 6.59375 36.375 
Q 6.59375 54.828125 13.0625 64.515625 
Q 19.53125 74.21875 31.78125 74.21875 
" id="DejaVuSans-30"/>
      </defs>
      <g transform="translate(40.019531 291.709656)scale(0.1 -0.1)">
       <use xlink:href="#DejaVuSans-2212"/>
       <use x="83.789062" xlink:href="#DejaVuSans-32"/>
       <use x="147.412109" xlink:href="#DejaVuSans-2e"/>
       <use x="179.199219" xlink:href="#DejaVuSans-30"/>
      </g>
     </g>
    </g>
    <g id="xtick_2">
     <g id="line2d_2">
      <g>
       <use style="stroke:#000000;stroke-width:0.8;" x="96.800938" xlink:href="#m8d9d6412d5" y="277.111219"/>
      </g>
     </g>
     <g id="text_2">
      <!-- −1.5 -->
      <defs>
       <path d="M 12.40625 8.296875 
L 28.515625 8.296875 
L 28.515625 63.921875 
L 10.984375 60.40625 
L 10.984375 69.390625 
L 28.421875 72.90625 
L 38.28125 72.90625 
L 38.28125 8.296875 
L 54.390625 8.296875 
L 54.390625 0 
L 12.40625 0 
z
" id="DejaVuSans-31"/>
       <path d="M 10.796875 72.90625 
L 49.515625 72.90625 
L 49.515625 64.59375 
L 19.828125 64.59375 
L 19.828125 46.734375 
Q 21.96875 47.46875 24.109375 47.828125 
Q 26.265625 48.1875 28.421875 48.1875 
Q 40.625 48.1875 47.75 41.5 
Q 54.890625 34.8125 54.890625 23.390625 
Q 54.890625 11.625 47.5625 5.09375 
Q 40.234375 -1.421875 26.90625 -1.421875 
Q 22.3125 -1.421875 17.546875 -0.640625 
Q 12.796875 0.140625 7.71875 1.703125 
L 7.71875 11.625 
Q 12.109375 9.234375 16.796875 8.0625 
Q 21.484375 6.890625 26.703125 6.890625 
Q 35.15625 6.890625 40.078125 11.328125 
Q 45.015625 15.765625 45.015625 23.390625 
Q 45.015625 31 40.078125 35.4375 
Q 35.15625 39.890625 26.703125 39.890625 
Q 22.75 39.890625 18.8125 39.015625 
Q 14.890625 38.140625 10.796875 36.28125 
z
" id="DejaVuSans-35"/>
      </defs>
      <g transform="translate(84.659531 291.709656)scale(0.1 -0.1)">
       <use xlink:href="#DejaVuSans-2212"/>
       <use x="83.789062" xlink:href="#DejaVuSans-31"/>
       <use x="147.412109" xlink:href="#DejaVuSans-2e"/>
       <use x="179.199219" xlink:href="#DejaVuSans-35"/>
      </g>
     </g>
    </g>
    <g id="xtick_3">
     <g id="line2d_3">
      <g>
       <use style="stroke:#000000;stroke-width:0.8;" x="141.440938" xlink:href="#m8d9d6412d5" y="277.111219"/>
      </g>
     </g>
     <g id="text_3">
      <!-- −1.0 -->
      <g transform="translate(129.299531 291.709656)scale(0.1 -0.1)">
       <use xlink:href="#DejaVuSans-2212"/>
       <use x="83.789062" xlink:href="#DejaVuSans-31"/>
       <use x="147.412109" xlink:href="#DejaVuSans-2e"/>
       <use x="179.199219" xlink:href="#DejaVuSans-30"/>
      </g>
     </g>
    </g>
    <g id="xtick_4">
     <g id="line2d_4">
      <g>
       <use style="stroke:#000000;stroke-width:0.8;" x="186.080938" xlink:href="#m8d9d6412d5" y="277.111219"/>
      </g>
     </g>
     <g id="text_4">
      <!-- −0.5 -->
      <g transform="translate(173.939531 291.709656)scale(0.1 -0.1)">
       <use xlink:href="#DejaVuSans-2212"/>
       <use x="83.789062" xlink:href="#DejaVuSans-30"/>
       <use x="147.412109" xlink:href="#DejaVuSans-2e"/>
       <use x="179.199219" xlink:href="#DejaVuSans-35"/>
      </g>
     </g>
    </g>
    <g id="xtick_5">
     <g id="line2d_5">
      <g>
       <use style="stroke:#000000;stroke-width:0.8;" x="230.720938" xlink:href="#m8d9d6412d5" y="277.111219"/>
      </g>
     </g>
     <g id="text_5">
      <!-- 0.0 -->
      <g transform="translate(222.769375 291.709656)scale(0.1 -0.1)">
       <use xlink:href="#DejaVuSans-30"/>
       <use x="63.623047" xlink:href="#DejaVuSans-2e"/>
       <use x="95.410156" xlink:href="#DejaVuSans-30"/>
      </g>
     </g>
    </g>
    <g id="xtick_6">
     <g id="line2d_6">
      <g>
       <use style="stroke:#000000;stroke-width:0.8;" x="275.360938" xlink:href="#m8d9d6412d5" y="277.111219"/>
      </g>
     </g>
     <g id="text_6">
      <!-- 0.5 -->
      <g transform="translate(267.409375 291.709656)scale(0.1 -0.1)">
       <use xlink:href="#DejaVuSans-30"/>
       <use x="63.623047" xlink:href="#DejaVuSans-2e"/>
       <use x="95.410156" xlink:href="#DejaVuSans-35"/>
      </g>
     </g>
    </g>
    <g id="xtick_7">
     <g id="line2d_7">
      <g>
       <use style="stroke:#000000;stroke-width:0.8;" x="320.000938" xlink:href="#m8d9d6412d5" y="277.111219"/>
      </g>
     </g>
     <g id="text_7">
      <!-- 1.0 -->
      <g transform="translate(312.049375 291.709656)scale(0.1 -0.1)">
       <use xlink:href="#DejaVuSans-31"/>
       <use x="63.623047" xlink:href="#DejaVuSans-2e"/>
       <use x="95.410156" xlink:href="#DejaVuSans-30"/>
      </g>
     </g>
    </g>
    <g id="xtick_8">
     <g id="line2d_8">
      <g>
       <use style="stroke:#000000;stroke-width:0.8;" x="364.640938" xlink:href="#m8d9d6412d5" y="277.111219"/>
      </g>
     </g>
     <g id="text_8">
      <!-- 1.5 -->
      <g transform="translate(356.689375 291.709656)scale(0.1 -0.1)">
       <use xlink:href="#DejaVuSans-31"/>
       <use x="63.623047" xlink:href="#DejaVuSans-2e"/>
       <use x="95.410156" xlink:href="#DejaVuSans-35"/>
      </g>
     </g>
    </g>
    <g id="xtick_9">
     <g id="line2d_9">
      <g>
       <use style="stroke:#000000;stroke-width:0.8;" x="409.280938" xlink:href="#m8d9d6412d5" y="277.111219"/>
      </g>
     </g>
     <g id="text_9">
      <!-- 2.0 -->
      <g transform="translate(401.329375 291.709656)scale(0.1 -0.1)">
       <use xlink:href="#DejaVuSans-32"/>
       <use x="63.623047" xlink:href="#DejaVuSans-2e"/>
       <use x="95.410156" xlink:href="#DejaVuSans-30"/>
      </g>
     </g>
    </g>
    <g id="text_10">
     <!-- x1 -->
     <defs>
      <path d="M 54.890625 54.6875 
L 35.109375 28.078125 
L 55.90625 0 
L 45.3125 0 
L 29.390625 21.484375 
L 13.484375 0 
L 2.875 0 
L 24.125 28.609375 
L 4.6875 54.6875 
L 15.28125 54.6875 
L 29.78125 35.203125 
L 44.28125 54.6875 
z
" id="DejaVuSans-78"/>
     </defs>
     <g transform="translate(224.580313 305.387781)scale(0.1 -0.1)">
      <use xlink:href="#DejaVuSans-78"/>
      <use x="59.179688" xlink:href="#DejaVuSans-31"/>
     </g>
    </g>
   </g>
   <g id="matplotlib.axis_2">
    <g id="ytick_1">
     <g id="line2d_10">
      <defs>
       <path d="M 0 0 
L -3.5 0 
" id="m5cae699810" style="stroke:#000000;stroke-width:0.8;"/>
      </defs>
      <g>
       <use style="stroke:#000000;stroke-width:0.8;" x="52.160938" xlink:href="#m5cae699810" y="277.111219"/>
      </g>
     </g>
     <g id="text_11">
      <!-- −2.0 -->
      <g transform="translate(20.878125 280.910437)scale(0.1 -0.1)">
       <use xlink:href="#DejaVuSans-2212"/>
       <use x="83.789062" xlink:href="#DejaVuSans-32"/>
       <use x="147.412109" xlink:href="#DejaVuSans-2e"/>
       <use x="179.199219" xlink:href="#DejaVuSans-30"/>
      </g>
     </g>
    </g>
    <g id="ytick_2">
     <g id="line2d_11">
      <g>
       <use style="stroke:#000000;stroke-width:0.8;" x="52.160938" xlink:href="#m5cae699810" y="243.847219"/>
      </g>
     </g>
     <g id="text_12">
      <!-- −1.5 -->
      <g transform="translate(20.878125 247.646437)scale(0.1 -0.1)">
       <use xlink:href="#DejaVuSans-2212"/>
       <use x="83.789062" xlink:href="#DejaVuSans-31"/>
       <use x="147.412109" xlink:href="#DejaVuSans-2e"/>
       <use x="179.199219" xlink:href="#DejaVuSans-35"/>
      </g>
     </g>
    </g>
    <g id="ytick_3">
     <g id="line2d_12">
      <g>
       <use style="stroke:#000000;stroke-width:0.8;" x="52.160938" xlink:href="#m5cae699810" y="210.583219"/>
      </g>
     </g>
     <g id="text_13">
      <!-- −1.0 -->
      <g transform="translate(20.878125 214.382437)scale(0.1 -0.1)">
       <use xlink:href="#DejaVuSans-2212"/>
       <use x="83.789062" xlink:href="#DejaVuSans-31"/>
       <use x="147.412109" xlink:href="#DejaVuSans-2e"/>
       <use x="179.199219" xlink:href="#DejaVuSans-30"/>
      </g>
     </g>
    </g>
    <g id="ytick_4">
     <g id="line2d_13">
      <g>
       <use style="stroke:#000000;stroke-width:0.8;" x="52.160938" xlink:href="#m5cae699810" y="177.319219"/>
      </g>
     </g>
     <g id="text_14">
      <!-- −0.5 -->
      <g transform="translate(20.878125 181.118437)scale(0.1 -0.1)">
       <use xlink:href="#DejaVuSans-2212"/>
       <use x="83.789062" xlink:href="#DejaVuSans-30"/>
       <use x="147.412109" xlink:href="#DejaVuSans-2e"/>
       <use x="179.199219" xlink:href="#DejaVuSans-35"/>
      </g>
     </g>
    </g>
    <g id="ytick_5">
     <g id="line2d_14">
      <g>
       <use style="stroke:#000000;stroke-width:0.8;" x="52.160938" xlink:href="#m5cae699810" y="144.055219"/>
      </g>
     </g>
     <g id="text_15">
      <!-- 0.0 -->
      <g transform="translate(29.257812 147.854437)scale(0.1 -0.1)">
       <use xlink:href="#DejaVuSans-30"/>
       <use x="63.623047" xlink:href="#DejaVuSans-2e"/>
       <use x="95.410156" xlink:href="#DejaVuSans-30"/>
      </g>
     </g>
    </g>
    <g id="ytick_6">
     <g id="line2d_15">
      <g>
       <use style="stroke:#000000;stroke-width:0.8;" x="52.160938" xlink:href="#m5cae699810" y="110.791219"/>
      </g>
     </g>
     <g id="text_16">
      <!-- 0.5 -->
      <g transform="translate(29.257812 114.590437)scale(0.1 -0.1)">
       <use xlink:href="#DejaVuSans-30"/>
       <use x="63.623047" xlink:href="#DejaVuSans-2e"/>
       <use x="95.410156" xlink:href="#DejaVuSans-35"/>
      </g>
     </g>
    </g>
    <g id="ytick_7">
     <g id="line2d_16">
      <g>
       <use style="stroke:#000000;stroke-width:0.8;" x="52.160938" xlink:href="#m5cae699810" y="77.527219"/>
      </g>
     </g>
     <g id="text_17">
      <!-- 1.0 -->
      <g transform="translate(29.257812 81.326437)scale(0.1 -0.1)">
       <use xlink:href="#DejaVuSans-31"/>
       <use x="63.623047" xlink:href="#DejaVuSans-2e"/>
       <use x="95.410156" xlink:href="#DejaVuSans-30"/>
      </g>
     </g>
    </g>
    <g id="ytick_8">
     <g id="line2d_17">
      <g>
       <use style="stroke:#000000;stroke-width:0.8;" x="52.160938" xlink:href="#m5cae699810" y="44.263219"/>
      </g>
     </g>
     <g id="text_18">
      <!-- 1.5 -->
      <g transform="translate(29.257812 48.062437)scale(0.1 -0.1)">
       <use xlink:href="#DejaVuSans-31"/>
       <use x="63.623047" xlink:href="#DejaVuSans-2e"/>
       <use x="95.410156" xlink:href="#DejaVuSans-35"/>
      </g>
     </g>
    </g>
    <g id="ytick_9">
     <g id="line2d_18">
      <g>
       <use style="stroke:#000000;stroke-width:0.8;" x="52.160938" xlink:href="#m5cae699810" y="10.999219"/>
      </g>
     </g>
     <g id="text_19">
      <!-- 2.0 -->
      <g transform="translate(29.257812 14.798437)scale(0.1 -0.1)">
       <use xlink:href="#DejaVuSans-32"/>
       <use x="63.623047" xlink:href="#DejaVuSans-2e"/>
       <use x="95.410156" xlink:href="#DejaVuSans-30"/>
      </g>
     </g>
    </g>
    <g id="text_20">
     <!-- x2 -->
     <g transform="translate(14.798438 150.195844)rotate(-90)scale(0.1 -0.1)">
      <use xlink:href="#DejaVuSans-78"/>
      <use x="59.179688" xlink:href="#DejaVuSans-32"/>
     </g>
    </g>
   </g>
   <g id="line2d_19">
    <path clip-path="url(#p33aa4738e5)" d="M 230.720938 10.999219 
L 240.810605 26.266223 
L 249.725097 40.206285 
L 257.567136 52.922243 
L 264.431357 64.509352 
L 270.405059 75.055973 
L 275.568679 84.643994 
L 279.996341 93.349325 
L 283.756206 101.242217 
L 286.911002 108.38774 
L 289.518477 114.846196 
L 291.63171 120.673404 
L 293.299416 125.920978 
L 294.566308 130.636654 
L 295.473397 134.864573 
L 296.058319 138.645575 
L 296.355527 142.017379 
L 296.396539 145.014816 
L 296.210179 147.670045 
L 295.822792 150.012761 
L 295.258426 152.07036 
L 294.53901 153.868106 
L 293.684514 155.429283 
L 292.713102 156.775342 
L 291.641289 157.926042 
L 290.283862 159.045796 
L 288.83155 159.950763 
L 287.079895 160.75259 
L 285.254089 161.33716 
L 283.138388 161.770676 
L 280.741968 162.016105 
L 278.085456 162.048314 
L 275.200576 161.855013 
L 271.895927 161.397165 
L 268.248779 160.651859 
L 264.360472 159.627039 
L 259.966986 158.228273 
L 255.321159 156.510958 
L 250.277222 154.403842 
L 245.028062 151.968606 
L 239.578041 149.191769 
L 234.358287 146.283346 
L 230.720937 144.055219 
L 230.720938 144.055219 
" style="fill:none;stroke:#ff7f0e;stroke-linecap:square;stroke-width:0.5;"/>
   </g>
   <g id="line2d_20">
    <path clip-path="url(#p33aa4738e5)" d="M 270.024966 10.999219 
L 278.47014 25.209859 
L 285.997876 38.350673 
L 292.677729 50.492358 
L 298.57457 61.701182 
L 303.748803 72.039177 
L 308.257013 81.564745 
L 312.151867 90.332552 
L 315.482376 98.393763 
L 318.294336 105.796458 
L 320.630454 112.585739 
L 322.530393 118.803778 
L 324.031138 124.490141 
L 325.167117 129.681906 
L 325.970347 134.413798 
L 326.470585 138.718326 
L 326.695457 142.625904 
L 326.670645 146.165025 
L 326.419973 149.362337 
L 325.965529 152.242761 
L 325.327784 154.829602 
L 324.525703 157.144647 
L 323.576834 159.208258 
L 322.497402 161.039451 
L 321.30239 162.65598 
L 320.005636 164.074426 
L 318.333141 165.536812 
L 316.552647 166.760981 
L 314.682406 167.76972 
L 312.738906 168.583967 
L 310.398644 169.313658 
L 307.999926 169.83256 
L 305.210684 170.199626 
L 302.040549 170.364552 
L 298.864343 170.307447 
L 295.357748 170.028387 
L 291.559453 169.509657 
L 287.188404 168.675989 
L 282.662647 167.584129 
L 277.759478 166.174341 
L 272.346698 164.378737 
L 266.660256 162.253359 
L 260.530177 159.716241 
L 254.23742 156.868638 
L 247.657615 153.642261 
L 241.107203 150.179035 
L 234.972112 146.685232 
L 230.720937 144.055219 
L 230.720937 144.055219 
" style="fill:none;stroke:#ff7f0e;stroke-linecap:square;stroke-width:0.5;"/>
   </g>
   <g id="line2d_21">
    <path clip-path="url(#p33aa4738e5)" d="M 313.33159 10.999219 
L 320.129733 23.695885 
L 326.267669 35.601378 
L 331.786675 46.758153 
L 336.725988 57.206761 
L 341.122541 66.98554 
L 345.011311 76.130963 
L 348.425437 84.677738 
L 351.39614 92.65873 
L 353.952914 100.105137 
L 356.123643 107.046604 
L 357.934673 113.511283 
L 359.410896 119.525911 
L 360.575783 125.115842 
L 361.451471 130.305127 
L 362.058806 135.11655 
L 362.417493 139.571773 
L 362.546128 143.691359 
L 362.462208 147.494786 
L 362.182194 151.000506 
L 361.721585 154.22601 
L 361.094978 157.187885 
L 360.316101 159.90185 
L 359.397861 162.382795 
L 358.352386 164.64482 
L 357.191062 166.701277 
L 355.924581 168.564809 
L 354.562973 170.247382 
L 352.741464 172.113317 
L 350.803057 173.734944 
L 348.763488 175.131656 
L 346.637237 176.321535 
L 344.437613 177.321436 
L 341.718334 178.292574 
L 338.930117 179.037785 
L 336.090213 179.580089 
L 332.732219 179.984382 
L 329.346667 180.171639 
L 325.468075 180.155039 
L 321.121771 179.885893 
L 316.821757 179.395655 
L 312.127568 178.640176 
L 307.096134 177.607185 
L 301.796117 176.299342 
L 295.894728 174.608534 
L 289.553963 172.546772 
L 282.959215 170.160978 
L 275.993052 167.398403 
L 268.694121 164.258186 
L 261.265952 160.820602 
L 253.526206 156.98947 
L 245.843664 152.93473 
L 238.539501 148.828958 
L 232.332995 145.094265 
L 230.720937 144.055219 
L 230.720937 144.055219 
" style="fill:none;stroke:#ff7f0e;stroke-linecap:square;stroke-width:0.5;"/>
   </g>
   <g id="line2d_22">
    <path clip-path="url(#p33aa4738e5)" d="M 366.458721 10.999219 
L 373.215592 25.217434 
L 379.23376 38.525111 
L 384.560673 50.971667 
L 389.241515 62.604406 
L 393.31877 73.46802 
L 396.832512 83.604875 
L 399.820741 93.05534 
L 402.319315 101.857701 
L 404.361987 110.048207 
L 405.980643 117.661281 
L 407.205389 124.729609 
L 408.064633 131.284209 
L 408.585155 137.354504 
L 408.792198 142.968395 
L 408.709542 148.15234 
L 408.35959 152.931425 
L 407.763428 157.329428 
L 406.940918 161.368902 
L 405.910725 165.071197 
L 404.690395 168.456541 
L 403.296422 171.544098 
L 401.74427 174.351987 
L 400.048496 176.897402 
L 398.222753 179.196611 
L 396.27985 181.26502 
L 394.231788 183.117198 
L 392.0898 184.76692 
L 389.864398 186.227215 
L 387.565414 187.510398 
L 384.60215 188.882986 
L 381.554839 190.01831 
L 378.438744 190.936262 
L 375.26778 191.655305 
L 371.408184 192.279844 
L 367.507936 192.67024 
L 363.584862 192.851646 
L 359.000148 192.82971 
L 354.428058 192.587694 
L 349.24285 192.079789 
L 344.123721 191.363112 
L 338.469056 190.350844 
L 332.343299 189.02113 
L 325.825247 187.368158 
L 319.006471 185.402972 
L 311.987944 183.152288 
L 304.386238 180.476991 
L 296.424801 177.43205 
L 288.341097 174.104893 
L 279.662376 170.285609 
L 270.913878 166.189285 
L 262.105091 161.822247 
L 253.245948 157.184619 
L 244.585803 152.400628 
L 236.700887 147.795037 
L 230.80972 144.115363 
L 230.720937 144.055219 
L 230.720937 144.055219 
" style="fill:none;stroke:#ff7f0e;stroke-linecap:square;stroke-width:0.5;"/>
   </g>
   <g id="line2d_23">
    <path clip-path="url(#p33aa4738e5)" d="M 409.280938 31.036434 
L 410.773524 34.597054 
" style="fill:none;stroke:#ff7f0e;stroke-linecap:square;stroke-width:0.5;"/>
   </g>
   <g id="line2d_24">
    <path clip-path="url(#p33aa4738e5)" d="M 409.280938 73.513392 
L 410.209219 76.230887 
" style="fill:none;stroke:#ff7f0e;stroke-linecap:square;stroke-width:0.5;"/>
   </g>
   <g id="line2d_25">
    <path clip-path="url(#p33aa4738e5)" d="M 409.280938 107.112402 
L 409.762862 109.163 
" style="fill:none;stroke:#ff7f0e;stroke-linecap:square;stroke-width:0.5;"/>
   </g>
   <g id="line2d_26">
    <path clip-path="url(#p33aa4738e5)" d="M 409.280938 136.841132 
L 409.367913 138.301648 
" style="fill:none;stroke:#ff7f0e;stroke-linecap:square;stroke-width:0.5;"/>
   </g>
   <g id="line2d_27">
    <path clip-path="url(#p33aa4738e5)" d="M 409.280938 165.868643 
L 408.016875 169.288605 
L 406.577365 172.406794 
L 404.978095 175.241589 
L 403.23387 177.81049 
L 401.35852 180.129993 
L 399.365002 182.215697 
L 397.265429 184.082333 
L 395.071224 185.743917 
L 392.793078 187.213702 
L 390.44094 188.504167 
L 387.410794 189.882959 
L 384.2963 191.02153 
L 381.112896 191.940035 
L 377.874717 192.657238 
L 373.934714 193.276655 
L 369.954573 193.65912 
L 365.952305 193.830103 
L 361.27635 193.793294 
L 356.614536 193.533943 
L 351.328922 193.003736 
L 346.111903 192.262593 
L 340.350352 191.22077 
L 334.110103 189.856351 
L 327.471711 188.163853 
L 320.528391 186.154631 
L 313.382907 183.855959 
L 305.645035 181.125964 
L 297.54247 178.021053 
L 289.316824 174.63033 
L 280.846274 170.903086 
L 271.890882 166.715235 
L 262.871824 162.248312 
L 253.799244 157.502411 
L 245.043638 152.669964 
L 237.058871 148.013302 
L 230.973779 144.224529 
L 230.720937 144.055219 
L 230.720938 144.055219 
" style="fill:none;stroke:#ff7f0e;stroke-linecap:square;stroke-width:0.5;"/>
   </g>
   <g id="line2d_28">
    <path clip-path="url(#p33aa4738e5)" d="M 409.280938 197.069575 
L 405.681379 198.291007 
L 402.008181 199.267212 
L 398.277034 200.019089 
L 394.502401 200.566291 
L 389.933862 200.978308 
L 385.342003 201.150709 
L 380.745022 201.109993 
L 375.396901 200.825383 
L 370.086277 200.318548 
L 364.087524 199.507152 
L 358.187295 198.487858 
L 351.692484 197.138288 
L 344.680671 195.440102 
L 337.244509 193.39201 
L 329.489481 191.010217 
L 321.530625 188.32753 
L 312.935048 185.181249 
L 304.46363 181.84602 
L 295.321211 178.002696 
L 285.926002 173.804037 
L 276.350588 169.276035 
L 266.592962 164.409609 
L 256.855618 159.298291 
L 247.465744 154.115725 
L 238.850372 149.110388 
L 231.907236 144.832467 
L 230.720937 144.055219 
L 230.720937 144.055219 
" style="fill:none;stroke:#ff7f0e;stroke-linecap:square;stroke-width:0.5;"/>
   </g>
   <g id="line2d_29">
    <path clip-path="url(#p33aa4738e5)" d="M 409.280938 234.269425 
L 396.34679 229.094022 
L 383.099496 223.562484 
L 368.752221 217.31834 
L 354.652693 210.933828 
L 340.180227 204.13148 
L 325.770429 197.112349 
L 311.210346 189.77205 
L 296.619094 182.164246 
L 282.408849 174.506313 
L 268.574377 166.80189 
L 255.287559 159.147419 
L 243.416695 152.057017 
L 233.779442 146.054169 
L 230.720937 144.055219 
L 230.720938 144.055219 
" style="fill:none;stroke:#ff7f0e;stroke-linecap:square;stroke-width:0.5;"/>
   </g>
   <g id="line2d_30">
    <path clip-path="url(#p33aa4738e5)" d="M 399.861954 277.111219 
L 272.141386 176.776398 
L 230.720937 144.055219 
L 230.720938 144.055219 
" style="fill:none;stroke:#ff7f0e;stroke-linecap:square;stroke-width:0.5;"/>
   </g>
   <g id="line2d_31">
    <path clip-path="url(#p33aa4738e5)" d="M 338.156925 277.111219 
L 316.94045 254.840632 
L 299.30096 236.023217 
L 283.666909 219.034673 
L 270.136691 204.003964 
L 259.348481 191.705779 
L 250.300154 181.071966 
L 242.922604 172.068356 
L 237.095018 164.609024 
L 232.659649 158.569207 
L 229.568417 154.004211 
L 227.402364 150.43103 
L 226.009586 147.717106 
L 225.2635 145.802548 
L 224.969091 144.481902 
L 224.982017 143.598868 
L 225.196413 143.035046 
L 225.553739 142.689813 
L 226.068215 142.504246 
L 226.808027 142.489692 
L 227.834457 142.707061 
L 229.208828 143.238904 
L 230.720938 144.055219 
L 230.720938 144.055219 
" style="fill:none;stroke:#ff7f0e;stroke-linecap:square;stroke-width:0.5;"/>
   </g>
   <g id="line2d_32">
    <path clip-path="url(#p33aa4738e5)" d="M 290.884806 277.111219 
L 277.515562 260.365951 
L 265.846647 245.409243 
L 255.695453 232.064893 
L 246.897492 220.173301 
L 238.433554 208.352393 
L 231.306749 198.00244 
L 225.349607 188.957806 
L 220.413572 181.070459 
L 216.366992 174.20818 
L 213.093349 168.252966 
L 210.48956 163.099504 
L 208.464562 158.653892 
L 206.796013 154.443076 
L 205.646605 150.901499 
L 204.932594 147.939879 
L 204.581544 145.479926 
L 204.530849 143.452988 
L 204.726516 141.798924 
L 205.122122 140.465127 
L 205.67784 139.40562 
L 206.359608 138.580273 
L 207.220639 137.901247 
L 208.255862 137.38835 
L 209.451325 137.05119 
L 210.88149 136.884819 
L 212.613553 136.921367 
L 214.590729 137.190174 
L 216.896966 137.728564 
L 219.590699 138.590281 
L 222.649342 139.80864 
L 225.996458 141.386766 
L 229.353322 143.215171 
L 230.720938 144.055219 
L 230.720938 144.055219 
" style="fill:none;stroke:#ff7f0e;stroke-linecap:square;stroke-width:0.5;"/>
   </g>
   <g id="line2d_33">
    <path clip-path="url(#p33aa4738e5)" d="M 250.140508 277.111219 
L 240.017165 262.661814 
L 231.007111 249.44417 
L 223.014929 237.363749 
L 215.952633 226.332933 
L 209.739 216.270422 
L 204.299125 207.100836 
L 198.838824 197.43869 
L 194.237592 188.794834 
L 190.404219 181.075735 
L 187.255919 174.195871 
L 184.717578 168.077041 
L 182.721114 162.647793 
L 181.204841 157.842836 
L 180.11296 153.602575 
L 179.395078 149.872673 
L 179.005573 146.603466 
L 178.903314 143.749697 
L 179.051256 141.270151 
L 179.416032 139.127265 
L 179.967646 137.286854 
L 180.679175 135.717818 
L 181.526479 134.391879 
L 182.487941 133.283334 
L 183.701858 132.252778 
L 185.014215 131.444354 
L 186.580625 130.765577 
L 188.21599 130.297067 
L 190.085501 129.985329 
L 192.174678 129.853567 
L 194.649072 129.927151 
L 197.46432 130.248813 
L 200.551093 130.833157 
L 203.98526 131.713733 
L 207.769249 132.915862 
L 211.939333 134.477655 
L 216.439267 136.404147 
L 221.207408 138.69181 
L 226.00562 141.243168 
L 230.188883 143.710866 
L 230.720938 144.055219 
L 230.720938 144.055219 
" style="fill:none;stroke:#ff7f0e;stroke-linecap:square;stroke-width:0.5;"/>
   </g>
   <g id="line2d_34">
    <path clip-path="url(#p33aa4738e5)" d="M 211.301367 277.111219 
L 202.83218 263.605328 
L 195.235419 251.100468 
L 188.446021 239.531017 
L 182.403199 228.835379 
L 177.050342 218.955898 
L 172.33454 209.838421 
L 168.206344 201.432084 
L 164.619647 193.689199 
L 161.531523 186.565113 
L 158.901883 180.017894 
L 156.693319 174.008192 
L 154.870999 168.499136 
L 153.402508 163.456192 
L 152.257671 158.847003 
L 151.408412 154.641254 
L 150.828622 150.810556 
L 150.494035 147.328329 
L 150.382116 144.169697 
L 150.471947 141.311383 
L 150.744097 138.731591 
L 151.18058 136.409962 
L 151.764722 134.327453 
L 152.481079 132.46626 
L 153.495192 130.501621 
L 154.65653 128.805107 
L 155.944495 127.352142 
L 157.340391 126.120104 
L 158.8273 125.088207 
L 160.656707 124.111872 
L 162.567375 123.354262 
L 164.825758 122.724122 
L 167.13973 122.313235 
L 169.782258 122.07586 
L 172.736314 122.047473 
L 175.972825 122.250872 
L 179.451198 122.695245 
L 183.397967 123.43567 
L 187.71561 124.487853 
L 192.282141 125.835074 
L 197.182085 127.512056 
L 202.587789 129.605867 
L 208.260679 132.04912 
L 214.211666 134.861258 
L 220.205248 137.942247 
L 225.963014 141.149996 
L 230.586143 143.965176 
L 230.720938 144.055219 
L 230.720937 144.055219 
" style="fill:none;stroke:#ff7f0e;stroke-linecap:square;stroke-width:0.5;"/>
   </g>
   <g id="line2d_35">
    <path clip-path="url(#p33aa4738e5)" d="M 170.557069 277.111219 
L 163.74149 265.057423 
L 157.552948 253.744364 
L 151.952894 243.132646 
L 146.904399 233.184373 
L 142.372915 223.863924 
L 137.385934 213.044796 
L 133.095469 203.091089 
L 129.445413 193.944095 
L 126.383583 185.548875 
L 123.861309 177.85388 
L 121.833236 170.810771 
L 120.257138 164.374245 
L 119.09375 158.501886 
L 118.306614 153.154018 
L 117.861795 148.293449 
L 117.727746 143.88534 
L 117.875205 139.897113 
L 118.277045 136.298308 
L 118.908105 133.06043 
L 119.745067 130.156828 
L 120.766342 127.562596 
L 121.951962 125.254465 
L 123.283471 123.210701 
L 124.743821 121.41101 
L 126.317276 119.836445 
L 127.98933 118.469327 
L 129.746622 117.293166 
L 131.95065 116.112262 
L 134.240412 115.159658 
L 136.59845 114.41277 
L 139.414909 113.773843 
L 142.280744 113.356791 
L 145.591479 113.117228 
L 148.915909 113.095963 
L 152.645404 113.293088 
L 156.746107 113.739727 
L 161.171141 114.452977 
L 165.86164 115.435125 
L 171.115576 116.775135 
L 176.449244 118.362738 
L 182.413644 120.377636 
L 188.749672 122.765564 
L 195.424577 125.530619 
L 202.253297 128.603494 
L 209.243848 131.991229 
L 216.317798 135.664916 
L 223.180903 139.478697 
L 229.086889 143.006427 
L 230.720938 144.055219 
L 230.720938 144.055219 
" style="fill:none;stroke:#ff7f0e;stroke-linecap:square;stroke-width:0.5;"/>
   </g>
   <g id="line2d_36">
    <path clip-path="url(#p33aa4738e5)" d="M 123.28495 277.111219 
L 116.506145 263.703615 
L 110.42416 251.142892 
L 104.9949 239.38341 
L 100.176344 228.381459 
L 95.929029 218.09579 
L 92.215589 208.487172 
L 89.000539 199.518181 
L 86.250464 191.153388 
L 83.933894 183.359252 
L 82.021116 176.103935 
L 80.484034 169.357171 
L 79.296114 163.090224 
L 78.432335 157.275834 
L 77.869104 151.888149 
L 77.584182 146.902647 
L 77.556609 142.296072 
L 77.766648 138.046376 
L 78.1957 134.132651 
L 78.826262 130.535078 
L 79.641874 127.234883 
L 80.627059 124.21428 
L 81.767265 121.456419 
L 83.048819 118.945337 
L 84.458879 116.665917 
L 85.985398 114.603854 
L 87.61707 112.745601 
L 89.343317 111.078362 
L 91.154216 109.590014 
L 93.522779 107.963737 
L 95.992285 106.578073 
L 98.547249 105.413415 
L 101.173457 104.451499 
L 103.857885 103.675319 
L 107.139337 102.966875 
L 110.468851 102.477902 
L 114.391833 102.154051 
L 118.334019 102.064036 
L 122.836624 102.208919 
L 127.311159 102.579694 
L 132.283892 103.222729 
L 137.702708 104.166034 
L 143.500908 105.421614 
L 149.598837 106.984849 
L 155.906605 108.835191 
L 162.770936 111.090756 
L 169.993079 113.710096 
L 177.358258 116.618837 
L 185.299353 120.003369 
L 193.337858 123.675763 
L 201.684531 127.7403 
L 209.996597 132.039737 
L 218.038294 136.448409 
L 225.418268 140.742674 
L 230.720938 144.055219 
L 230.720937 144.055219 
" style="fill:none;stroke:#ff7f0e;stroke-linecap:square;stroke-width:0.5;"/>
   </g>
   <g id="line2d_37">
    <path clip-path="url(#p33aa4738e5)" d="M 61.579921 277.111219 
L 59.820665 273.222357 
L 58.112828 269.397326 
L 56.455966 265.635695 
L 54.849153 261.9365 
L 53.29158 258.298893 
L 51.782464 254.722055 
" style="fill:none;stroke:#ff7f0e;stroke-linecap:square;stroke-width:0.5;"/>
   </g>
   <g id="line2d_38">
    <path clip-path="url(#p33aa4738e5)" d="M 52.160938 234.269425 
L 50.971308 231.161452 
" style="fill:none;stroke:#ff7f0e;stroke-linecap:square;stroke-width:0.5;"/>
   </g>
   <g id="line2d_39">
    <path clip-path="url(#p33aa4738e5)" d="M 52.160938 197.069575 
L 51.465505 194.699978 
" style="fill:none;stroke:#ff7f0e;stroke-linecap:square;stroke-width:0.5;"/>
   </g>
   <g id="line2d_40">
    <path clip-path="url(#p33aa4738e5)" d="M 52.160938 165.868643 
L 51.880001 164.11834 
" style="fill:none;stroke:#ff7f0e;stroke-linecap:square;stroke-width:0.5;"/>
   </g>
   <g id="line2d_41">
    <path clip-path="url(#p33aa4738e5)" d="M 52.160938 136.841132 
L 52.672092 132.287695 
L 53.417713 128.102453 
L 54.378603 124.263512 
L 55.536753 120.750167 
L 56.875184 117.542757 
L 58.377981 114.622692 
L 60.030208 111.972384 
L 61.817837 109.575166 
L 63.727705 107.415263 
L 65.747477 105.47775 
L 67.865603 103.748511 
L 70.071247 102.214176 
L 72.354295 100.862123 
L 75.302621 99.410292 
L 78.340082 98.202843 
L 81.450961 97.219382 
L 84.620856 96.440918 
L 88.48417 95.752567 
L 92.392986 95.305852 
L 96.328908 95.074972 
L 100.933292 95.047009 
L 105.529375 95.246712 
L 110.74647 95.714557 
L 115.901459 96.399062 
L 121.600052 97.383193 
L 127.777922 98.690211 
L 134.356033 100.326973 
L 141.242452 102.283293 
L 148.335245 104.532667 
L 156.022074 107.214548 
L 164.077463 110.274578 
L 172.261251 113.625029 
L 180.69459 117.315963 
L 189.616927 121.470938 
L 198.608983 125.910262 
L 207.480013 130.537102 
L 216.169985 135.318928 
L 224.16543 139.968855 
L 230.331701 143.79614 
L 230.720938 144.055219 
L 230.720937 144.055219 
" style="fill:none;stroke:#ff7f0e;stroke-linecap:square;stroke-width:0.5;"/>
   </g>
   <g id="line2d_42">
    <path clip-path="url(#p33aa4738e5)" d="M 52.160938 107.112402 
L 54.205265 104.867094 
L 56.363747 102.854561 
L 58.624509 101.0603 
L 60.976127 99.470179 
L 63.407915 98.070851 
L 65.909973 96.849805 
L 69.122329 95.556243 
L 72.413353 94.501129 
L 75.767734 93.664286 
L 79.171485 93.026954 
L 83.303218 92.500999 
L 87.467616 92.209284 
L 91.64687 92.126321 
L 96.520402 92.262373 
L 101.370577 92.61733 
L 106.860714 93.252494 
L 112.271278 94.094072 
L 118.237998 95.243532 
L 124.69134 96.721007 
L 131.547191 98.530259 
L 138.708878 100.658182 
L 146.070246 103.075646 
L 154.032588 105.930684 
L 162.360803 109.162968 
L 170.80632 112.679454 
L 179.494146 116.532655 
L 188.669778 120.850062 
L 197.901026 125.44376 
L 207.177326 130.313448 
L 216.119827 135.261633 
L 224.265426 140.020155 
L 230.447154 143.871973 
L 230.720938 144.055219 
L 230.720938 144.055219 
" style="fill:none;stroke:#ff7f0e;stroke-linecap:square;stroke-width:0.5;"/>
   </g>
   <g id="line2d_43">
    <path clip-path="url(#p33aa4738e5)" d="M 52.160938 73.513392 
L 58.756938 74.202063 
L 65.277466 75.120305 
L 71.702384 76.233765 
L 78.906395 77.706006 
L 86.809558 79.569138 
L 94.476854 81.602999 
L 102.697768 84.010744 
L 111.358174 86.781516 
L 120.332135 89.887234 
L 129.485896 93.284002 
L 139.313608 97.171548 
L 149.51772 101.456344 
L 159.792626 106.013538 
L 170.290336 110.911066 
L 180.927999 116.116474 
L 191.705873 121.637881 
L 202.39844 127.367103 
L 212.646907 133.110023 
L 221.98834 138.594479 
L 229.433888 143.209817 
L 230.720938 144.055219 
L 230.720937 144.055219 
" style="fill:none;stroke:#ff7f0e;stroke-linecap:square;stroke-width:0.5;"/>
   </g>
   <g id="line2d_44">
    <path clip-path="url(#p33aa4738e5)" d="M 52.160938 31.036434 
L 92.46504 55.876071 
L 130.131572 79.353083 
L 163.810766 100.604489 
L 192.872748 119.197533 
L 216.221383 134.386758 
L 230.720938 144.055219 
L 230.720938 144.055219 
" style="fill:none;stroke:#ff7f0e;stroke-linecap:square;stroke-width:0.5;"/>
   </g>
   <g id="line2d_45">
    <path clip-path="url(#p33aa4738e5)" d="M 94.983154 10.999219 
L 127.983747 41.634187 
L 155.435816 67.404831 
L 178.20115 89.073762 
L 196.03681 106.353169 
L 209.232469 119.433055 
L 218.831052 129.24826 
L 225.11111 135.967482 
L 228.858333 140.273432 
L 230.7213 142.715178 
L 231.340767 143.838067 
L 231.338394 144.191351 
L 231.1428 144.231103 
L 230.720937 144.055219 
L 230.720938 144.055219 
" style="fill:none;stroke:#ff7f0e;stroke-linecap:square;stroke-width:0.5;"/>
   </g>
   <g id="line2d_46">
    <path clip-path="url(#p33aa4738e5)" d="M 148.110285 10.999219 
L 164.654051 30.130985 
L 178.796648 46.825898 
L 190.845865 61.375053 
L 202.003883 75.206901 
L 211.270077 87.054331 
L 218.917428 97.18061 
L 225.182601 105.815714 
L 230.681129 113.770437 
L 235.006927 120.415089 
L 238.354918 125.944246 
L 240.890914 130.52521 
L 242.884732 134.584119 
L 244.24131 137.854497 
L 245.086387 140.468282 
L 245.524504 142.53695 
L 245.64233 144.154568 
L 245.511437 145.400358 
L 245.190713 146.340936 
L 244.728386 147.032201 
L 244.117032 147.55134 
L 243.323109 147.918753 
L 242.36234 148.113305 
L 241.157218 148.126994 
L 239.660677 147.916635 
L 237.810996 147.423553 
L 235.592856 146.591774 
L 233.089314 145.409521 
L 230.720937 144.055219 
L 230.720938 144.055219 
" style="fill:none;stroke:#ff7f0e;stroke-linecap:square;stroke-width:0.5;"/>
   </g>
   <g id="line2d_47">
    <path clip-path="url(#p33aa4738e5)" d="M 191.416909 10.999219 
L 203.163106 26.767415 
L 213.500548 41.011549 
L 222.566213 53.865791 
L 230.484831 65.452985 
L 237.370037 75.885677 
L 243.325362 85.267002 
L 249.113362 94.82197 
L 253.936871 103.255217 
L 257.909907 110.68268 
L 261.13479 117.209215 
L 263.703099 122.929473 
L 265.696721 127.928844 
L 267.18882 132.284345 
L 268.244716 136.065417 
L 268.92267 139.33465 
L 269.274577 142.148415 
L 269.346568 144.557428 
L 269.179592 146.607283 
L 268.809973 148.338969 
L 268.269858 149.789294 
L 267.587646 150.991284 
L 266.788372 151.974546 
L 265.776589 152.852184 
L 264.671796 153.520088 
L 263.363641 154.052105 
L 261.858035 154.422589 
L 260.170223 154.616246 
L 258.182213 154.622009 
L 255.932624 154.408929 
L 253.348129 153.942326 
L 250.409244 153.185263 
L 247.066529 152.089251 
L 243.344948 150.626804 
L 239.338498 148.807795 
L 235.18261 146.67367 
L 231.386804 144.480591 
L 230.720937 144.055219 
L 230.720937 144.055219 
" style="fill:none;stroke:#ff7f0e;stroke-linecap:square;stroke-width:0.5;"/>
   </g>
   <g id="line2d_48">
    <path clip-path="url(#p33aa4738e5)" d="M 230.720937 10.999219 
L 240.810605 26.266223 
L 249.725097 40.206285 
L 257.567136 52.922243 
L 264.431357 64.509352 
L 270.405059 75.055973 
L 275.568679 84.643994 
L 279.996341 93.349325 
L 283.756206 101.242217 
L 286.911002 108.38774 
L 289.518477 114.846196 
L 291.63171 120.673404 
L 293.299416 125.920978 
L 294.566308 130.636654 
L 295.473397 134.864573 
L 296.058319 138.645575 
L 296.355527 142.017379 
L 296.396539 145.014816 
L 296.210179 147.670045 
L 295.822792 150.012761 
L 295.258426 152.07036 
L 294.53901 153.868106 
L 293.684514 155.429283 
L 292.713102 156.775342 
L 291.641289 157.926042 
L 290.283862 159.045796 
L 288.83155 159.950763 
L 287.079895 160.75259 
L 285.254089 161.33716 
L 283.138388 161.770676 
L 280.741968 162.016105 
L 278.085456 162.048314 
L 275.200576 161.855013 
L 271.895927 161.397165 
L 268.248779 160.651859 
L 264.360472 159.627039 
L 259.966986 158.228273 
L 255.321159 156.510958 
L 250.277222 154.403842 
L 245.028062 151.968606 
L 239.578041 149.191769 
L 234.358287 146.283346 
L 230.720937 144.055219 
L 230.720938 144.055219 
" style="fill:none;stroke:#ff7f0e;stroke-linecap:square;stroke-width:0.5;"/>
   </g>
   <g id="line2d_49">
    <path clip-path="url(#p33aa4738e5)" d="M 230.720938 144.055219 
" style="fill:none;stroke:#ff7f0e;stroke-linecap:square;stroke-width:1.5;"/>
   </g>
   <g id="line2d_50">
    <defs>
     <path d="M 0 3 
C 0.795609 3 1.55874 2.683901 2.12132 2.12132 
C 2.683901 1.55874 3 0.795609 3 0 
C 3 -0.795609 2.683901 -1.55874 2.12132 -2.12132 
C 1.55874 -2.683901 0.795609 -3 0 -3 
C -0.795609 -3 -1.55874 -2.683901 -2.12132 -2.12132 
C -2.683901 -1.55874 -3 -0.795609 -3 0 
C -3 0.795609 -2.683901 1.55874 -2.12132 2.12132 
C -1.55874 2.683901 -0.795609 3 0 3 
z
" id="m2e11d71224" style="stroke:#ff0000;"/>
    </defs>
    <g clip-path="url(#p33aa4738e5)">
     <use style="fill:#ff0000;stroke:#ff0000;" x="230.720938" xlink:href="#m2e11d71224" y="144.055219"/>
    </g>
   </g>
   <g id="patch_56">
    <path d="M 52.160938 277.111219 
L 52.160938 10.999219 
" style="fill:none;stroke:#000000;stroke-linecap:square;stroke-linejoin:miter;stroke-width:0.8;"/>
   </g>
   <g id="patch_57">
    <path d="M 409.280938 277.111219 
L 409.280938 10.999219 
" style="fill:none;stroke:#000000;stroke-linecap:square;stroke-linejoin:miter;stroke-width:0.8;"/>
   </g>
   <g id="patch_58">
    <path d="M 52.160938 277.111219 
L 409.280938 277.111219 
" style="fill:none;stroke:#000000;stroke-linecap:square;stroke-linejoin:miter;stroke-width:0.8;"/>
   </g>
   <g id="patch_59">
    <path d="M 52.160938 10.999219 
L 409.280938 10.999219 
" style="fill:none;stroke:#000000;stroke-linecap:square;stroke-linejoin:miter;stroke-width:0.8;"/>
   </g>
   <g id="legend_1">
    <g id="patch_60">
     <path d="M 259.340938 274.111219 
L 405.080938 274.111219 
Q 406.280938 274.111219 406.280938 272.911219 
L 406.280938 255.657469 
Q 406.280938 254.457469 405.080938 254.457469 
L 259.340938 254.457469 
Q 258.140938 254.457469 258.140938 255.657469 
L 258.140938 272.911219 
Q 258.140938 274.111219 259.340938 274.111219 
z
" style="fill:#ffffff;opacity:0.8;stroke:#cccccc;stroke-linejoin:miter;"/>
    </g>
    <g id="line2d_51">
     <path d="M 260.540938 259.316531 
L 272.540938 259.316531 
" style="fill:none;stroke:#ff7f0e;stroke-linecap:square;stroke-width:1.5;"/>
    </g>
    <g id="line2d_52"/>
    <g id="text_21">
     <!-- system zlinearyzowany -->
     <defs>
      <path d="M 44.28125 53.078125 
L 44.28125 44.578125 
Q 40.484375 46.53125 36.375 47.5 
Q 32.28125 48.484375 27.875 48.484375 
Q 21.1875 48.484375 17.84375 46.4375 
Q 14.5 44.390625 14.5 40.28125 
Q 14.5 37.15625 16.890625 35.375 
Q 19.28125 33.59375 26.515625 31.984375 
L 29.59375 31.296875 
Q 39.15625 29.25 43.1875 25.515625 
Q 47.21875 21.78125 47.21875 15.09375 
Q 47.21875 7.46875 41.1875 3.015625 
Q 35.15625 -1.421875 24.609375 -1.421875 
Q 20.21875 -1.421875 15.453125 -0.5625 
Q 10.6875 0.296875 5.421875 2 
L 5.421875 11.28125 
Q 10.40625 8.6875 15.234375 7.390625 
Q 20.0625 6.109375 24.8125 6.109375 
Q 31.15625 6.109375 34.5625 8.28125 
Q 37.984375 10.453125 37.984375 14.40625 
Q 37.984375 18.0625 35.515625 20.015625 
Q 33.0625 21.96875 24.703125 23.78125 
L 21.578125 24.515625 
Q 13.234375 26.265625 9.515625 29.90625 
Q 5.8125 33.546875 5.8125 39.890625 
Q 5.8125 47.609375 11.28125 51.796875 
Q 16.75 56 26.8125 56 
Q 31.78125 56 36.171875 55.265625 
Q 40.578125 54.546875 44.28125 53.078125 
" id="DejaVuSans-73"/>
      <path d="M 32.171875 -5.078125 
Q 28.375 -14.84375 24.75 -17.8125 
Q 21.140625 -20.796875 15.09375 -20.796875 
L 7.90625 -20.796875 
L 7.90625 -13.28125 
L 13.1875 -13.28125 
Q 16.890625 -13.28125 18.9375 -11.515625 
Q 21 -9.765625 23.484375 -3.21875 
L 25.09375 0.875 
L 2.984375 54.6875 
L 12.5 54.6875 
L 29.59375 11.921875 
L 46.6875 54.6875 
L 56.203125 54.6875 
z
" id="DejaVuSans-79"/>
      <path d="M 18.3125 70.21875 
L 18.3125 54.6875 
L 36.8125 54.6875 
L 36.8125 47.703125 
L 18.3125 47.703125 
L 18.3125 18.015625 
Q 18.3125 11.328125 20.140625 9.421875 
Q 21.96875 7.515625 27.59375 7.515625 
L 36.8125 7.515625 
L 36.8125 0 
L 27.59375 0 
Q 17.1875 0 13.234375 3.875 
Q 9.28125 7.765625 9.28125 18.015625 
L 9.28125 47.703125 
L 2.6875 47.703125 
L 2.6875 54.6875 
L 9.28125 54.6875 
L 9.28125 70.21875 
z
" id="DejaVuSans-74"/>
      <path d="M 56.203125 29.59375 
L 56.203125 25.203125 
L 14.890625 25.203125 
Q 15.484375 15.921875 20.484375 11.0625 
Q 25.484375 6.203125 34.421875 6.203125 
Q 39.59375 6.203125 44.453125 7.46875 
Q 49.3125 8.734375 54.109375 11.28125 
L 54.109375 2.78125 
Q 49.265625 0.734375 44.1875 -0.34375 
Q 39.109375 -1.421875 33.890625 -1.421875 
Q 20.796875 -1.421875 13.15625 6.1875 
Q 5.515625 13.8125 5.515625 26.8125 
Q 5.515625 40.234375 12.765625 48.109375 
Q 20.015625 56 32.328125 56 
Q 43.359375 56 49.78125 48.890625 
Q 56.203125 41.796875 56.203125 29.59375 
M 47.21875 32.234375 
Q 47.125 39.59375 43.09375 43.984375 
Q 39.0625 48.390625 32.421875 48.390625 
Q 24.90625 48.390625 20.390625 44.140625 
Q 15.875 39.890625 15.1875 32.171875 
z
" id="DejaVuSans-65"/>
      <path d="M 52 44.1875 
Q 55.375 50.25 60.0625 53.125 
Q 64.75 56 71.09375 56 
Q 79.640625 56 84.28125 50.015625 
Q 88.921875 44.046875 88.921875 33.015625 
L 88.921875 0 
L 79.890625 0 
L 79.890625 32.71875 
Q 79.890625 40.578125 77.09375 44.375 
Q 74.3125 48.1875 68.609375 48.1875 
Q 61.625 48.1875 57.5625 43.546875 
Q 53.515625 38.921875 53.515625 30.90625 
L 53.515625 0 
L 44.484375 0 
L 44.484375 32.71875 
Q 44.484375 40.625 41.703125 44.40625 
Q 38.921875 48.1875 33.109375 48.1875 
Q 26.21875 48.1875 22.15625 43.53125 
Q 18.109375 38.875 18.109375 30.90625 
L 18.109375 0 
L 9.078125 0 
L 9.078125 54.6875 
L 18.109375 54.6875 
L 18.109375 46.1875 
Q 21.1875 51.21875 25.484375 53.609375 
Q 29.78125 56 35.6875 56 
Q 41.65625 56 45.828125 52.96875 
Q 50 49.953125 52 44.1875 
" id="DejaVuSans-6d"/>
      <path id="DejaVuSans-20"/>
      <path d="M 5.515625 54.6875 
L 48.1875 54.6875 
L 48.1875 46.484375 
L 14.40625 7.171875 
L 48.1875 7.171875 
L 48.1875 0 
L 4.296875 0 
L 4.296875 8.203125 
L 38.09375 47.515625 
L 5.515625 47.515625 
z
" id="DejaVuSans-7a"/>
      <path d="M 9.421875 75.984375 
L 18.40625 75.984375 
L 18.40625 0 
L 9.421875 0 
z
" id="DejaVuSans-6c"/>
      <path d="M 9.421875 54.6875 
L 18.40625 54.6875 
L 18.40625 0 
L 9.421875 0 
z
M 9.421875 75.984375 
L 18.40625 75.984375 
L 18.40625 64.59375 
L 9.421875 64.59375 
z
" id="DejaVuSans-69"/>
      <path d="M 54.890625 33.015625 
L 54.890625 0 
L 45.90625 0 
L 45.90625 32.71875 
Q 45.90625 40.484375 42.875 44.328125 
Q 39.84375 48.1875 33.796875 48.1875 
Q 26.515625 48.1875 22.3125 43.546875 
Q 18.109375 38.921875 18.109375 30.90625 
L 18.109375 0 
L 9.078125 0 
L 9.078125 54.6875 
L 18.109375 54.6875 
L 18.109375 46.1875 
Q 21.34375 51.125 25.703125 53.5625 
Q 30.078125 56 35.796875 56 
Q 45.21875 56 50.046875 50.171875 
Q 54.890625 44.34375 54.890625 33.015625 
" id="DejaVuSans-6e"/>
      <path d="M 34.28125 27.484375 
Q 23.390625 27.484375 19.1875 25 
Q 14.984375 22.515625 14.984375 16.5 
Q 14.984375 11.71875 18.140625 8.90625 
Q 21.296875 6.109375 26.703125 6.109375 
Q 34.1875 6.109375 38.703125 11.40625 
Q 43.21875 16.703125 43.21875 25.484375 
L 43.21875 27.484375 
z
M 52.203125 31.203125 
L 52.203125 0 
L 43.21875 0 
L 43.21875 8.296875 
Q 40.140625 3.328125 35.546875 0.953125 
Q 30.953125 -1.421875 24.3125 -1.421875 
Q 15.921875 -1.421875 10.953125 3.296875 
Q 6 8.015625 6 15.921875 
Q 6 25.140625 12.171875 29.828125 
Q 18.359375 34.515625 30.609375 34.515625 
L 43.21875 34.515625 
L 43.21875 35.40625 
Q 43.21875 41.609375 39.140625 45 
Q 35.0625 48.390625 27.6875 48.390625 
Q 23 48.390625 18.546875 47.265625 
Q 14.109375 46.140625 10.015625 43.890625 
L 10.015625 52.203125 
Q 14.9375 54.109375 19.578125 55.046875 
Q 24.21875 56 28.609375 56 
Q 40.484375 56 46.34375 49.84375 
Q 52.203125 43.703125 52.203125 31.203125 
" id="DejaVuSans-61"/>
      <path d="M 41.109375 46.296875 
Q 39.59375 47.171875 37.8125 47.578125 
Q 36.03125 48 33.890625 48 
Q 26.265625 48 22.1875 43.046875 
Q 18.109375 38.09375 18.109375 28.8125 
L 18.109375 0 
L 9.078125 0 
L 9.078125 54.6875 
L 18.109375 54.6875 
L 18.109375 46.1875 
Q 20.953125 51.171875 25.484375 53.578125 
Q 30.03125 56 36.53125 56 
Q 37.453125 56 38.578125 55.875 
Q 39.703125 55.765625 41.0625 55.515625 
z
" id="DejaVuSans-72"/>
      <path d="M 30.609375 48.390625 
Q 23.390625 48.390625 19.1875 42.75 
Q 14.984375 37.109375 14.984375 27.296875 
Q 14.984375 17.484375 19.15625 11.84375 
Q 23.34375 6.203125 30.609375 6.203125 
Q 37.796875 6.203125 41.984375 11.859375 
Q 46.1875 17.53125 46.1875 27.296875 
Q 46.1875 37.015625 41.984375 42.703125 
Q 37.796875 48.390625 30.609375 48.390625 
M 30.609375 56 
Q 42.328125 56 49.015625 48.375 
Q 55.71875 40.765625 55.71875 27.296875 
Q 55.71875 13.875 49.015625 6.21875 
Q 42.328125 -1.421875 30.609375 -1.421875 
Q 18.84375 -1.421875 12.171875 6.21875 
Q 5.515625 13.875 5.515625 27.296875 
Q 5.515625 40.765625 12.171875 48.375 
Q 18.84375 56 30.609375 56 
" id="DejaVuSans-6f"/>
      <path d="M 4.203125 54.6875 
L 13.1875 54.6875 
L 24.421875 12.015625 
L 35.59375 54.6875 
L 46.1875 54.6875 
L 57.421875 12.015625 
L 68.609375 54.6875 
L 77.59375 54.6875 
L 63.28125 0 
L 52.6875 0 
L 40.921875 44.828125 
L 29.109375 0 
L 18.5 0 
z
" id="DejaVuSans-77"/>
     </defs>
     <g transform="translate(277.340938 261.416531)scale(0.06 -0.06)">
      <use xlink:href="#DejaVuSans-73"/>
      <use x="52.099609" xlink:href="#DejaVuSans-79"/>
      <use x="111.279297" xlink:href="#DejaVuSans-73"/>
      <use x="163.378906" xlink:href="#DejaVuSans-74"/>
      <use x="202.587891" xlink:href="#DejaVuSans-65"/>
      <use x="264.111328" xlink:href="#DejaVuSans-6d"/>
      <use x="361.523438" xlink:href="#DejaVuSans-20"/>
      <use x="393.310547" xlink:href="#DejaVuSans-7a"/>
      <use x="445.800781" xlink:href="#DejaVuSans-6c"/>
      <use x="473.583984" xlink:href="#DejaVuSans-69"/>
      <use x="501.367188" xlink:href="#DejaVuSans-6e"/>
      <use x="564.746094" xlink:href="#DejaVuSans-65"/>
      <use x="626.269531" xlink:href="#DejaVuSans-61"/>
      <use x="687.548828" xlink:href="#DejaVuSans-72"/>
      <use x="728.662109" xlink:href="#DejaVuSans-79"/>
      <use x="787.841797" xlink:href="#DejaVuSans-7a"/>
      <use x="840.332031" xlink:href="#DejaVuSans-6f"/>
      <use x="901.513672" xlink:href="#DejaVuSans-77"/>
      <use x="983.300781" xlink:href="#DejaVuSans-61"/>
      <use x="1044.580078" xlink:href="#DejaVuSans-6e"/>
      <use x="1107.958984" xlink:href="#DejaVuSans-79"/>
     </g>
    </g>
    <g id="line2d_53"/>
    <g id="line2d_54">
     <g>
      <use style="fill:#ff0000;stroke:#ff0000;" x="266.540938" xlink:href="#m2e11d71224" y="268.363406"/>
     </g>
    </g>
    <g id="text_22">
     <!-- Punkt równowagi asymptotycznie stabilny -->
     <defs>
      <path d="M 19.671875 64.796875 
L 19.671875 37.40625 
L 32.078125 37.40625 
Q 38.96875 37.40625 42.71875 40.96875 
Q 46.484375 44.53125 46.484375 51.125 
Q 46.484375 57.671875 42.71875 61.234375 
Q 38.96875 64.796875 32.078125 64.796875 
z
M 9.8125 72.90625 
L 32.078125 72.90625 
Q 44.34375 72.90625 50.609375 67.359375 
Q 56.890625 61.8125 56.890625 51.125 
Q 56.890625 40.328125 50.609375 34.8125 
Q 44.34375 29.296875 32.078125 29.296875 
L 19.671875 29.296875 
L 19.671875 0 
L 9.8125 0 
z
" id="DejaVuSans-50"/>
      <path d="M 8.5 21.578125 
L 8.5 54.6875 
L 17.484375 54.6875 
L 17.484375 21.921875 
Q 17.484375 14.15625 20.5 10.265625 
Q 23.53125 6.390625 29.59375 6.390625 
Q 36.859375 6.390625 41.078125 11.03125 
Q 45.3125 15.671875 45.3125 23.6875 
L 45.3125 54.6875 
L 54.296875 54.6875 
L 54.296875 0 
L 45.3125 0 
L 45.3125 8.40625 
Q 42.046875 3.421875 37.71875 1 
Q 33.40625 -1.421875 27.6875 -1.421875 
Q 18.265625 -1.421875 13.375 4.4375 
Q 8.5 10.296875 8.5 21.578125 
M 31.109375 56 
z
" id="DejaVuSans-75"/>
      <path d="M 9.078125 75.984375 
L 18.109375 75.984375 
L 18.109375 31.109375 
L 44.921875 54.6875 
L 56.390625 54.6875 
L 27.390625 29.109375 
L 57.625 0 
L 45.90625 0 
L 18.109375 26.703125 
L 18.109375 0 
L 9.078125 0 
z
" id="DejaVuSans-6b"/>
      <path d="M 30.609375 48.390625 
Q 23.390625 48.390625 19.1875 42.75 
Q 14.984375 37.109375 14.984375 27.296875 
Q 14.984375 17.484375 19.15625 11.84375 
Q 23.34375 6.203125 30.609375 6.203125 
Q 37.796875 6.203125 41.984375 11.859375 
Q 46.1875 17.53125 46.1875 27.296875 
Q 46.1875 37.015625 41.984375 42.703125 
Q 37.796875 48.390625 30.609375 48.390625 
M 30.609375 56 
Q 42.328125 56 49.015625 48.375 
Q 55.71875 40.765625 55.71875 27.296875 
Q 55.71875 13.875 49.015625 6.21875 
Q 42.328125 -1.421875 30.609375 -1.421875 
Q 18.84375 -1.421875 12.171875 6.21875 
Q 5.515625 13.875 5.515625 27.296875 
Q 5.515625 40.765625 12.171875 48.375 
Q 18.84375 56 30.609375 56 
M 37.40625 79.984375 
L 47.125 79.984375 
L 31.21875 61.625 
L 23.734375 61.625 
z
" id="DejaVuSans-f3"/>
      <path d="M 45.40625 27.984375 
Q 45.40625 37.75 41.375 43.109375 
Q 37.359375 48.484375 30.078125 48.484375 
Q 22.859375 48.484375 18.828125 43.109375 
Q 14.796875 37.75 14.796875 27.984375 
Q 14.796875 18.265625 18.828125 12.890625 
Q 22.859375 7.515625 30.078125 7.515625 
Q 37.359375 7.515625 41.375 12.890625 
Q 45.40625 18.265625 45.40625 27.984375 
M 54.390625 6.78125 
Q 54.390625 -7.171875 48.1875 -13.984375 
Q 42 -20.796875 29.203125 -20.796875 
Q 24.46875 -20.796875 20.265625 -20.09375 
Q 16.0625 -19.390625 12.109375 -17.921875 
L 12.109375 -9.1875 
Q 16.0625 -11.328125 19.921875 -12.34375 
Q 23.78125 -13.375 27.78125 -13.375 
Q 36.625 -13.375 41.015625 -8.765625 
Q 45.40625 -4.15625 45.40625 5.171875 
L 45.40625 9.625 
Q 42.625 4.78125 38.28125 2.390625 
Q 33.9375 0 27.875 0 
Q 17.828125 0 11.671875 7.65625 
Q 5.515625 15.328125 5.515625 27.984375 
Q 5.515625 40.671875 11.671875 48.328125 
Q 17.828125 56 27.875 56 
Q 33.9375 56 38.28125 53.609375 
Q 42.625 51.21875 45.40625 46.390625 
L 45.40625 54.6875 
L 54.390625 54.6875 
z
" id="DejaVuSans-67"/>
      <path d="M 18.109375 8.203125 
L 18.109375 -20.796875 
L 9.078125 -20.796875 
L 9.078125 54.6875 
L 18.109375 54.6875 
L 18.109375 46.390625 
Q 20.953125 51.265625 25.265625 53.625 
Q 29.59375 56 35.59375 56 
Q 45.5625 56 51.78125 48.09375 
Q 58.015625 40.1875 58.015625 27.296875 
Q 58.015625 14.40625 51.78125 6.484375 
Q 45.5625 -1.421875 35.59375 -1.421875 
Q 29.59375 -1.421875 25.265625 0.953125 
Q 20.953125 3.328125 18.109375 8.203125 
M 48.6875 27.296875 
Q 48.6875 37.203125 44.609375 42.84375 
Q 40.53125 48.484375 33.40625 48.484375 
Q 26.265625 48.484375 22.1875 42.84375 
Q 18.109375 37.203125 18.109375 27.296875 
Q 18.109375 17.390625 22.1875 11.75 
Q 26.265625 6.109375 33.40625 6.109375 
Q 40.53125 6.109375 44.609375 11.75 
Q 48.6875 17.390625 48.6875 27.296875 
" id="DejaVuSans-70"/>
      <path d="M 48.78125 52.59375 
L 48.78125 44.1875 
Q 44.96875 46.296875 41.140625 47.34375 
Q 37.3125 48.390625 33.40625 48.390625 
Q 24.65625 48.390625 19.8125 42.84375 
Q 14.984375 37.3125 14.984375 27.296875 
Q 14.984375 17.28125 19.8125 11.734375 
Q 24.65625 6.203125 33.40625 6.203125 
Q 37.3125 6.203125 41.140625 7.25 
Q 44.96875 8.296875 48.78125 10.40625 
L 48.78125 2.09375 
Q 45.015625 0.34375 40.984375 -0.53125 
Q 36.96875 -1.421875 32.421875 -1.421875 
Q 20.0625 -1.421875 12.78125 6.34375 
Q 5.515625 14.109375 5.515625 27.296875 
Q 5.515625 40.671875 12.859375 48.328125 
Q 20.21875 56 33.015625 56 
Q 37.15625 56 41.109375 55.140625 
Q 45.0625 54.296875 48.78125 52.59375 
" id="DejaVuSans-63"/>
      <path d="M 48.6875 27.296875 
Q 48.6875 37.203125 44.609375 42.84375 
Q 40.53125 48.484375 33.40625 48.484375 
Q 26.265625 48.484375 22.1875 42.84375 
Q 18.109375 37.203125 18.109375 27.296875 
Q 18.109375 17.390625 22.1875 11.75 
Q 26.265625 6.109375 33.40625 6.109375 
Q 40.53125 6.109375 44.609375 11.75 
Q 48.6875 17.390625 48.6875 27.296875 
M 18.109375 46.390625 
Q 20.953125 51.265625 25.265625 53.625 
Q 29.59375 56 35.59375 56 
Q 45.5625 56 51.78125 48.09375 
Q 58.015625 40.1875 58.015625 27.296875 
Q 58.015625 14.40625 51.78125 6.484375 
Q 45.5625 -1.421875 35.59375 -1.421875 
Q 29.59375 -1.421875 25.265625 0.953125 
Q 20.953125 3.328125 18.109375 8.203125 
L 18.109375 0 
L 9.078125 0 
L 9.078125 75.984375 
L 18.109375 75.984375 
z
" id="DejaVuSans-62"/>
     </defs>
     <g transform="translate(277.340938 270.463406)scale(0.06 -0.06)">
      <use xlink:href="#DejaVuSans-50"/>
      <use x="60.287109" xlink:href="#DejaVuSans-75"/>
      <use x="123.666016" xlink:href="#DejaVuSans-6e"/>
      <use x="187.044922" xlink:href="#DejaVuSans-6b"/>
      <use x="244.955078" xlink:href="#DejaVuSans-74"/>
      <use x="284.164062" xlink:href="#DejaVuSans-20"/>
      <use x="315.951172" xlink:href="#DejaVuSans-72"/>
      <use x="357.033203" xlink:href="#DejaVuSans-f3"/>
      <use x="418.214844" xlink:href="#DejaVuSans-77"/>
      <use x="500.001953" xlink:href="#DejaVuSans-6e"/>
      <use x="563.380859" xlink:href="#DejaVuSans-6f"/>
      <use x="624.5625" xlink:href="#DejaVuSans-77"/>
      <use x="706.349609" xlink:href="#DejaVuSans-61"/>
      <use x="767.628906" xlink:href="#DejaVuSans-67"/>
      <use x="831.105469" xlink:href="#DejaVuSans-69"/>
      <use x="858.888672" xlink:href="#DejaVuSans-20"/>
      <use x="890.675781" xlink:href="#DejaVuSans-61"/>
      <use x="951.955078" xlink:href="#DejaVuSans-73"/>
      <use x="1004.054688" xlink:href="#DejaVuSans-79"/>
      <use x="1063.234375" xlink:href="#DejaVuSans-6d"/>
      <use x="1160.646484" xlink:href="#DejaVuSans-70"/>
      <use x="1224.123047" xlink:href="#DejaVuSans-74"/>
      <use x="1263.332031" xlink:href="#DejaVuSans-6f"/>
      <use x="1324.513672" xlink:href="#DejaVuSans-74"/>
      <use x="1363.722656" xlink:href="#DejaVuSans-79"/>
      <use x="1422.902344" xlink:href="#DejaVuSans-63"/>
      <use x="1477.882812" xlink:href="#DejaVuSans-7a"/>
      <use x="1530.373047" xlink:href="#DejaVuSans-6e"/>
      <use x="1593.751953" xlink:href="#DejaVuSans-69"/>
      <use x="1621.535156" xlink:href="#DejaVuSans-65"/>
      <use x="1683.058594" xlink:href="#DejaVuSans-20"/>
      <use x="1714.845703" xlink:href="#DejaVuSans-73"/>
      <use x="1766.945312" xlink:href="#DejaVuSans-74"/>
      <use x="1806.154297" xlink:href="#DejaVuSans-61"/>
      <use x="1867.433594" xlink:href="#DejaVuSans-62"/>
      <use x="1930.910156" xlink:href="#DejaVuSans-69"/>
      <use x="1958.693359" xlink:href="#DejaVuSans-6c"/>
      <use x="1986.476562" xlink:href="#DejaVuSans-6e"/>
      <use x="2049.855469" xlink:href="#DejaVuSans-79"/>
     </g>
    </g>
   </g>
  </g>
 </g>
 <defs>
  <clipPath id="p33aa4738e5">
   <rect height="266.112" width="357.12" x="52.160938" y="10.999219"/>
  </clipPath>
 </defs>
</svg>
