<?xml version="1.0" encoding="utf-8" standalone="no"?>
<!DOCTYPE svg PUBLIC "-//W3C//DTD SVG 1.1//EN"
  "http://www.w3.org/Graphics/SVG/1.1/DTD/svg11.dtd">
<!-- Created with matplotlib (http://matplotlib.org/) -->
<svg height="314pt" version="1.1" viewBox="0 0 410 314" width="410pt" xmlns="http://www.w3.org/2000/svg" xmlns:xlink="http://www.w3.org/1999/xlink">
 <defs>
  <style type="text/css">
*{stroke-linecap:butt;stroke-linejoin:round;}
  </style>
 </defs>
 <g id="figure_1">
  <g id="patch_1">
   <path d="M 0 314.36825 
L 410.440313 314.36825 
L 410.440313 0 
L 0 0 
z
" style="fill:#ffffff;"/>
  </g>
  <g id="axes_1">
   <g id="patch_2">
    <path d="M 42.620313 276.812 
L 399.740313 276.812 
L 399.740313 10.7 
L 42.620313 10.7 
z
" style="fill:#ffffff;"/>
   </g>
   <g id="patch_3">
    <path clip-path="url(#pc7dd681327)" d="M 304.324183 98.025306 
L 298.117068 94.281727 
L 301.351776 93.185829 
L 301.383614 93.173715 
L 301.384285 93.174815 
L 304.618994 92.078917 
z
" style="fill:#ff7f0e;stroke:#ff7f0e;stroke-linejoin:miter;"/>
   </g>
   <g id="patch_4">
    <path clip-path="url(#pc7dd681327)" d="M 316.894121 157.909359 
L 314.39529 152.257755 
L 317.91115 152.641335 
L 317.946609 152.644562 
L 317.946486 152.64519 
L 321.462346 153.02877 
z
" style="fill:#ff7f0e;stroke:#ff7f0e;stroke-linejoin:miter;"/>
   </g>
   <g id="patch_5">
    <path clip-path="url(#pc7dd681327)" d="M 325.82252 89.386249 
L 319.699563 85.56649 
L 322.958213 84.510711 
L 322.990177 84.498753 
L 322.990963 84.5001 
L 326.249613 83.444321 
z
" style="fill:#ff7f0e;stroke:#ff7f0e;stroke-linejoin:miter;"/>
   </g>
   <g id="patch_6">
    <path clip-path="url(#pc7dd681327)" d="M 318.185098 186.751562 
L 321.021253 181.189065 
L 323.427858 183.137133 
L 323.452576 183.156347 
L 323.452045 183.156711 
L 325.858649 185.104779 
z
" style="fill:#ff7f0e;stroke:#ff7f0e;stroke-linejoin:miter;"/>
   </g>
   <g id="patch_7">
    <path clip-path="url(#pc7dd681327)" d="M 370.509586 123.362491 
L 365.703048 118.61069 
L 369.197546 118.130803 
L 369.232332 118.124626 
L 369.232666 118.12598 
L 372.727164 117.646093 
z
" style="fill:#ff7f0e;stroke:#ff7f0e;stroke-linejoin:miter;"/>
   </g>
   <g id="patch_8">
    <path clip-path="url(#pc7dd681327)" d="M 326.910799 203.021486 
L 331.920266 198.387531 
L 333.398436 200.795367 
L 333.41406 200.819304 
L 333.413292 200.819566 
L 334.891462 203.227402 
z
" style="fill:#ff7f0e;stroke:#ff7f0e;stroke-linejoin:miter;"/>
   </g>
   <g id="patch_9">
    <path clip-path="url(#pc7dd681327)" d="M 377.790675 40.619075 
L 371.473538 36.979122 
L 374.674793 35.829973 
L 374.705533 35.816206 
L 374.706967 35.818424 
L 377.908222 34.669275 
z
" style="fill:#ff7f0e;stroke:#ff7f0e;stroke-linejoin:miter;"/>
   </g>
   <g id="patch_10">
    <path clip-path="url(#pc7dd681327)" d="M 385.708071 53.831502 
L 379.577245 50.018757 
L 382.833714 48.959248 
L 382.865185 48.946453 
L 382.866443 48.9486 
L 386.122912 47.889091 
z
" style="fill:#ff7f0e;stroke:#ff7f0e;stroke-linejoin:miter;"/>
   </g>
   <g id="patch_11">
    <path clip-path="url(#pc7dd681327)" d="M 402.702408 35.583146 
L 396.491861 31.84273 
L 399.725563 30.745184 
L 399.756562 30.7317 
L 399.758062 30.734154 
L 402.991764 29.636608 
z
" style="fill:#ff7f0e;stroke:#ff7f0e;stroke-linejoin:miter;"/>
   </g>
   <g id="patch_12">
    <path clip-path="url(#pc7dd681327)" d="M 402.055931 78.251205 
L 396.36278 74.07861 
L 399.724353 73.220515 
L 399.757205 73.209861 
L 399.758138 73.211891 
L 403.11971 72.353795 
z
" style="fill:#ff7f0e;stroke:#ff7f0e;stroke-linejoin:miter;"/>
   </g>
   <g id="patch_13">
    <path clip-path="url(#pc7dd681327)" d="M 401.229527 112.02022 
L 396.248034 107.369549 
L 399.723333 106.81765 
L 399.757776 106.81041 
L 399.758261 106.812103 
L 403.233559 106.260205 
z
" style="fill:#ff7f0e;stroke:#ff7f0e;stroke-linejoin:miter;"/>
   </g>
   <g id="patch_14">
    <path clip-path="url(#pc7dd681327)" d="M 400.07329 141.859766 
L 396.173081 136.667338 
L 399.722563 136.543929 
L 399.758149 136.541293 
L 399.758237 136.542689 
L 403.307719 136.419281 
z
" style="fill:#ff7f0e;stroke:#ff7f0e;stroke-linejoin:miter;"/>
   </g>
   <g id="patch_15">
    <path clip-path="url(#pc7dd681327)" d="M 298.518119 216.012803 
L 306.093827 214.131217 
L 305.59124 216.752412 
L 305.587168 216.77886 
L 305.586189 216.778755 
L 305.083602 219.399951 
z
" style="fill:#ff7f0e;stroke:#ff7f0e;stroke-linejoin:miter;"/>
   </g>
   <g id="patch_16">
    <path clip-path="url(#pc7dd681327)" d="M 216.205054 180.338737 
L 223.775937 182.231076 
L 221.258609 184.099829 
L 221.233849 184.119014 
L 221.23331 184.118611 
L 218.715982 185.987364 
z
" style="fill:#ff7f0e;stroke:#ff7f0e;stroke-linejoin:miter;"/>
   </g>
   <g id="patch_17">
    <path clip-path="url(#pc7dd681327)" d="M 328.011832 224.072004 
L 334.943535 221.117663 
L 335.142077 223.761341 
L 335.145146 223.787866 
L 335.144072 223.787911 
L 335.342613 226.431589 
z
" style="fill:#ff7f0e;stroke:#ff7f0e;stroke-linejoin:miter;"/>
   </g>
   <g id="patch_18">
    <path clip-path="url(#pc7dd681327)" d="M 200.426276 168.496556 
L 207.44 171.341377 
L 204.524815 172.855347 
L 204.495904 172.870978 
L 204.495516 172.870563 
L 201.580331 174.384533 
z
" style="fill:#ff7f0e;stroke:#ff7f0e;stroke-linejoin:miter;"/>
   </g>
   <g id="patch_19">
    <path clip-path="url(#pc7dd681327)" d="M 271.338008 225.009771 
L 279.323454 225.00942 
L 277.734538 227.377767 
L 277.719688 227.401987 
L 277.718569 227.40157 
L 276.129652 229.769917 
z
" style="fill:#ff7f0e;stroke:#ff7f0e;stroke-linejoin:miter;"/>
   </g>
   <g id="patch_20">
    <path clip-path="url(#pc7dd681327)" d="M 200.113441 178.633951 
L 207.264719 181.2818 
L 204.427366 182.875762 
L 204.399371 182.892297 
L 204.398849 182.891782 
L 201.561496 184.485744 
z
" style="fill:#ff7f0e;stroke:#ff7f0e;stroke-linejoin:miter;"/>
   </g>
   <g id="patch_21">
    <path clip-path="url(#pc7dd681327)" d="M 252.24345 236.65534 
L 260.128232 237.597185 
L 258.056109 239.748181 
L 258.036567 239.770486 
L 258.035284 239.769799 
L 255.963161 241.920794 
z
" style="fill:#ff7f0e;stroke:#ff7f0e;stroke-linejoin:miter;"/>
   </g>
   <g id="patch_22">
    <path clip-path="url(#pc7dd681327)" d="M 170.024305 156.87704 
L 175.647865 161.101712 
L 172.272327 161.928805 
L 172.238642 161.937662 
L 172.238402 161.937117 
L 168.862863 162.764211 
z
" style="fill:#ff7f0e;stroke:#ff7f0e;stroke-linejoin:miter;"/>
   </g>
   <g id="patch_23">
    <path clip-path="url(#pc7dd681327)" d="M 203.365147 209.475124 
L 210.75193 211.735651 
L 208.074584 213.476536 
L 208.048606 213.494827 
L 208.047676 213.494032 
L 205.370329 215.234916 
z
" style="fill:#ff7f0e;stroke:#ff7f0e;stroke-linejoin:miter;"/>
   </g>
   <g id="patch_24">
    <path clip-path="url(#pc7dd681327)" d="M 162.960645 151.355021 
L 168.03293 155.950877 
L 164.568841 156.54061 
L 164.534194 156.547085 
L 164.534026 156.546537 
L 161.069937 157.13627 
z
" style="fill:#ff7f0e;stroke:#ff7f0e;stroke-linejoin:miter;"/>
   </g>
   <g id="patch_25">
    <path clip-path="url(#pc7dd681327)" d="M 204.064413 226.631553 
L 211.496406 228.808245 
L 208.854841 230.579221 
L 208.829451 230.597979 
L 208.828292 230.597019 
L 206.186727 232.367995 
z
" style="fill:#ff7f0e;stroke:#ff7f0e;stroke-linejoin:miter;"/>
   </g>
   <g id="patch_26">
    <path clip-path="url(#pc7dd681327)" d="M 152.055988 132.031251 
L 154.552224 137.683492 
L 151.03654 137.299015 
L 151.001116 137.295607 
L 151.001206 137.295151 
L 147.485522 136.910674 
z
" style="fill:#ff7f0e;stroke:#ff7f0e;stroke-linejoin:miter;"/>
   </g>
   <g id="patch_27">
    <path clip-path="url(#pc7dd681327)" d="M 163.503039 209.235901 
L 170.336718 212.314435 
L 167.332533 213.728499 
L 167.303272 213.74381 
L 167.30234 213.742711 
L 164.298155 215.156776 
z
" style="fill:#ff7f0e;stroke:#ff7f0e;stroke-linejoin:miter;"/>
   </g>
   <g id="patch_28">
    <path clip-path="url(#pc7dd681327)" d="M 160.031472 109.156999 
L 155.543057 114.078533 
L 153.807599 111.768 
L 153.789726 111.744958 
L 153.790157 111.744778 
L 152.054699 109.434245 
z
" style="fill:#ff7f0e;stroke:#ff7f0e;stroke-linejoin:miter;"/>
   </g>
   <g id="patch_29">
    <path clip-path="url(#pc7dd681327)" d="M 125.944234 190.007265 
L 132.012906 193.87483 
L 128.739525 194.904996 
L 128.707305 194.916546 
L 128.706627 194.915349 
L 125.433247 195.945515 
z
" style="fill:#ff7f0e;stroke:#ff7f0e;stroke-linejoin:miter;"/>
   </g>
   <g id="patch_30">
    <path clip-path="url(#pc7dd681327)" d="M 135.620757 104.382599 
L 132.601127 109.89121 
L 130.259815 107.899452 
L 130.235801 107.87975 
L 130.236284 107.879435 
L 127.894973 105.887677 
z
" style="fill:#ff7f0e;stroke:#ff7f0e;stroke-linejoin:miter;"/>
   </g>
   <g id="patch_31">
    <path clip-path="url(#pc7dd681327)" d="M 85.741408 142.195279 
L 89.533192 147.43211 
L 85.98157 147.514526 
L 85.945919 147.516395 
L 85.945875 147.515355 
L 82.394253 147.597771 
z
" style="fill:#ff7f0e;stroke:#ff7f0e;stroke-linejoin:miter;"/>
   </g>
   <g id="patch_32">
    <path clip-path="url(#pc7dd681327)" d="M 103.264939 102.234375 
L 102.082972 108.119277 
L 99.174983 106.597641 
L 99.145255 106.582881 
L 99.145757 106.582348 
L 96.237769 105.060712 
z
" style="fill:#ff7f0e;stroke:#ff7f0e;stroke-linejoin:miter;"/>
   </g>
   <g id="patch_33">
    <path clip-path="url(#pc7dd681327)" d="M 51.833043 129.788974 
L 54.831932 135.303874 
L 51.289576 135.095802 
L 51.25385 135.094884 
L 51.253975 135.09371 
L 47.711619 134.885638 
z
" style="fill:#ff7f0e;stroke:#ff7f0e;stroke-linejoin:miter;"/>
   </g>
   <g id="patch_34">
    <path clip-path="url(#pc7dd681327)" d="M 157.374466 77.436898 
L 149.626946 78.878603 
L 150.398669 76.29399 
L 150.405521 76.267864 
L 150.406425 76.268014 
L 151.178149 73.6834 
z
" style="fill:#ff7f0e;stroke:#ff7f0e;stroke-linejoin:miter;"/>
   </g>
   <g id="patch_35">
    <path clip-path="url(#pc7dd681327)" d="M 47.063573 269.468945 
L 53.46076 273.030422 
L 50.285491 274.218929 
L 50.255312 274.233445 
L 50.253578 274.230874 
L 47.078309 275.41938 
z
" style="fill:#ff7f0e;stroke:#ff7f0e;stroke-linejoin:miter;"/>
   </g>
   <g id="patch_36">
    <path clip-path="url(#pc7dd681327)" d="M 43.707808 264.309728 
L 50.046976 267.928351 
L 46.85273 269.088278 
L 46.822292 269.102482 
L 46.820627 269.099936 
L 43.62638 270.259864 
z
" style="fill:#ff7f0e;stroke:#ff7f0e;stroke-linejoin:miter;"/>
   </g>
   <g id="patch_37">
    <path clip-path="url(#pc7dd681327)" d="M 39.965257 229.026774 
L 45.934645 232.979204 
L 42.635695 233.963037 
L 42.603735 233.97515 
L 42.602539 233.972924 
L 39.303589 234.956757 
z
" style="fill:#ff7f0e;stroke:#ff7f0e;stroke-linejoin:miter;"/>
   </g>
   <g id="patch_38">
    <path clip-path="url(#pc7dd681327)" d="M 40.688215 191.644545 
L 46.057766 196.0489 
L 42.636804 196.764904 
L 42.603122 196.773954 
L 42.602423 196.7721 
L 39.181461 197.488104 
z
" style="fill:#ff7f0e;stroke:#ff7f0e;stroke-linejoin:miter;"/>
   </g>
   <g id="patch_39">
    <path clip-path="url(#pc7dd681327)" d="M 41.654585 160.294488 
L 46.158455 165.208176 
L 42.637722 165.566083 
L 42.60262 165.571223 
L 42.602338 165.569681 
L 39.081606 165.927588 
z
" style="fill:#ff7f0e;stroke:#ff7f0e;stroke-linejoin:miter;"/>
   </g>
   <g id="patch_40">
    <path clip-path="url(#pc7dd681327)" d="M 122.455725 70.784391 
L 115.628504 73.870871 
L 115.338593 71.231884 
L 115.334706 71.205421 
L 115.33568 71.205361 
L 115.045769 68.566374 
z
" style="fill:#ff7f0e;stroke:#ff7f0e;stroke-linejoin:miter;"/>
   </g>
   <g id="patch_41">
    <path clip-path="url(#pc7dd681327)" d="M 233.113417 113.863704 
L 225.752699 111.55645 
L 228.449815 109.832594 
L 228.476469 109.814876 
L 228.476922 109.815269 
L 231.174038 108.091413 
z
" style="fill:#ff7f0e;stroke:#ff7f0e;stroke-linejoin:miter;"/>
   </g>
   <g id="patch_42">
    <path clip-path="url(#pc7dd681327)" d="M 110.432847 67.804003 
L 103.957613 71.286282 
L 103.386256 68.672921 
L 103.379505 68.646779 
L 103.380513 68.646656 
L 102.809156 66.033295 
z
" style="fill:#ff7f0e;stroke:#ff7f0e;stroke-linejoin:miter;"/>
   </g>
   <g id="patch_43">
    <path clip-path="url(#pc7dd681327)" d="M 235.973641 114.851346 
L 228.708615 112.381416 
L 231.473577 110.718313 
L 231.500924 110.701191 
L 231.501365 110.701598 
L 234.266326 109.038495 
z
" style="fill:#ff7f0e;stroke:#ff7f0e;stroke-linejoin:miter;"/>
   </g>
   <g id="patch_44">
    <path clip-path="url(#pc7dd681327)" d="M 123.898636 57.829614 
L 116.42204 59.919769 
L 116.793504 57.286463 
L 116.796078 57.259907 
L 116.797238 57.259997 
L 117.168702 54.626691 
z
" style="fill:#ff7f0e;stroke:#ff7f0e;stroke-linejoin:miter;"/>
   </g>
   <g id="patch_45">
    <path clip-path="url(#pc7dd681327)" d="M 210.157646 88.5726 
L 202.341776 87.352826 
L 204.548631 85.277576 
L 204.570029 85.256257 
L 204.570811 85.256719 
L 206.777665 83.181468 
z
" style="fill:#ff7f0e;stroke:#ff7f0e;stroke-linejoin:miter;"/>
   </g>
   <g id="patch_46">
    <path clip-path="url(#pc7dd681327)" d="M 167.509624 50.644885 
L 159.52748 50.473786 
L 161.207313 48.140537 
L 161.222916 48.116575 
L 161.224196 48.117087 
L 162.904029 45.783838 
z
" style="fill:#ff7f0e;stroke:#ff7f0e;stroke-linejoin:miter;"/>
   </g>
   <g id="patch_47">
    <path clip-path="url(#pc7dd681327)" d="M 231.6392 89.369256 
L 224.162245 87.279814 
L 226.766156 85.478141 
L 226.791548 85.459409 
L 226.792326 85.460034 
L 229.396237 83.658361 
z
" style="fill:#ff7f0e;stroke:#ff7f0e;stroke-linejoin:miter;"/>
   </g>
   <g id="patch_48">
    <path clip-path="url(#pc7dd681327)" d="M 180.01515 42.967176 
L 172.090549 42.234018 
L 174.059133 40.029684 
L 174.07753 40.006842 
L 174.078918 40.00753 
L 176.047502 37.803196 
z
" style="fill:#ff7f0e;stroke:#ff7f0e;stroke-linejoin:miter;"/>
   </g>
   <g id="patch_49">
    <path clip-path="url(#pc7dd681327)" d="M 270.357619 121.834386 
L 264.241229 118.008788 
L 267.50169 116.956119 
L 267.534103 116.944928 
L 267.534458 116.945539 
L 270.79492 115.89287 
z
" style="fill:#ff7f0e;stroke:#ff7f0e;stroke-linejoin:miter;"/>
   </g>
   <g id="patch_50">
    <path clip-path="url(#pc7dd681327)" d="M 208.359977 47.240459 
L 200.625963 45.759035 
L 202.956279 43.76013 
L 202.978363 43.739175 
L 202.979699 43.74004 
L 205.310015 41.741135 
z
" style="fill:#ff7f0e;stroke:#ff7f0e;stroke-linejoin:miter;"/>
   </g>
   <g id="patch_51">
    <path clip-path="url(#pc7dd681327)" d="M 285.555987 143.296242 
L 281.267179 138.276848 
L 284.801573 138.003758 
L 284.837021 138.000484 
L 284.837095 138.001013 
L 288.371489 137.727923 
z
" style="fill:#ff7f0e;stroke:#ff7f0e;stroke-linejoin:miter;"/>
   </g>
   <g id="patch_52">
    <path clip-path="url(#pc7dd681327)" d="M 248.890761 59.450989 
L 241.576468 57.063161 
L 244.307382 55.369108 
L 244.333649 55.351027 
L 244.334828 55.352083 
L 247.065741 53.65803 
z
" style="fill:#ff7f0e;stroke:#ff7f0e;stroke-linejoin:miter;"/>
   </g>
   <g id="patch_53">
    <path clip-path="url(#pc7dd681327)" d="M 299.514815 150.644009 
L 296.178733 145.237716 
L 299.730182 145.324172 
L 299.7659 145.324474 
L 299.765875 145.325041 
L 303.317324 145.411497 
z
" style="fill:#ff7f0e;stroke:#ff7f0e;stroke-linejoin:miter;"/>
   </g>
   <g id="patch_54">
    <path clip-path="url(#pc7dd681327)" d="M 289.376206 75.771875 
L 282.646738 72.568408 
L 285.696914 71.210112 
L 285.726604 71.195257 
L 285.727569 71.196461 
L 288.777745 69.838164 
z
" style="fill:#ff7f0e;stroke:#ff7f0e;stroke-linejoin:miter;"/>
   </g>
   <g id="patch_55">
    <path clip-path="url(#pc7dd681327)" d="M 311.926382 167.828059 
L 311.170293 161.904347 
L 314.484684 162.858929 
L 314.518254 162.868022 
L 314.517994 162.868523 
L 317.832385 163.823105 
z
" style="fill:#ff7f0e;stroke:#ff7f0e;stroke-linejoin:miter;"/>
   </g>
   <g id="matplotlib.axis_1">
    <g id="xtick_1">
     <g id="line2d_1">
      <defs>
       <path d="M 0 0 
L 0 3.5 
" id="m962bb5b5ad" style="stroke:#000000;stroke-width:0.8;"/>
      </defs>
      <g>
       <use style="stroke:#000000;stroke-width:0.8;" x="78.332313" xlink:href="#m962bb5b5ad" y="276.812"/>
      </g>
     </g>
     <g id="text_1">
      <!-- −4 -->
      <defs>
       <path d="M 10.59375 35.5 
L 73.1875 35.5 
L 73.1875 27.203125 
L 10.59375 27.203125 
z
" id="DejaVuSans-2212"/>
       <path d="M 37.796875 64.3125 
L 12.890625 25.390625 
L 37.796875 25.390625 
z
M 35.203125 72.90625 
L 47.609375 72.90625 
L 47.609375 25.390625 
L 58.015625 25.390625 
L 58.015625 17.1875 
L 47.609375 17.1875 
L 47.609375 0 
L 37.796875 0 
L 37.796875 17.1875 
L 4.890625 17.1875 
L 4.890625 26.703125 
z
" id="DejaVuSans-34"/>
      </defs>
      <g transform="translate(70.961219 291.410438)scale(0.1 -0.1)">
       <use xlink:href="#DejaVuSans-2212"/>
       <use x="83.789062" xlink:href="#DejaVuSans-34"/>
      </g>
     </g>
    </g>
    <g id="xtick_2">
     <g id="line2d_2">
      <g>
       <use style="stroke:#000000;stroke-width:0.8;" x="149.756313" xlink:href="#m962bb5b5ad" y="276.812"/>
      </g>
     </g>
     <g id="text_2">
      <!-- −2 -->
      <defs>
       <path d="M 19.1875 8.296875 
L 53.609375 8.296875 
L 53.609375 0 
L 7.328125 0 
L 7.328125 8.296875 
Q 12.9375 14.109375 22.625 23.890625 
Q 32.328125 33.6875 34.8125 36.53125 
Q 39.546875 41.84375 41.421875 45.53125 
Q 43.3125 49.21875 43.3125 52.78125 
Q 43.3125 58.59375 39.234375 62.25 
Q 35.15625 65.921875 28.609375 65.921875 
Q 23.96875 65.921875 18.8125 64.3125 
Q 13.671875 62.703125 7.8125 59.421875 
L 7.8125 69.390625 
Q 13.765625 71.78125 18.9375 73 
Q 24.125 74.21875 28.421875 74.21875 
Q 39.75 74.21875 46.484375 68.546875 
Q 53.21875 62.890625 53.21875 53.421875 
Q 53.21875 48.921875 51.53125 44.890625 
Q 49.859375 40.875 45.40625 35.40625 
Q 44.1875 33.984375 37.640625 27.21875 
Q 31.109375 20.453125 19.1875 8.296875 
" id="DejaVuSans-32"/>
      </defs>
      <g transform="translate(142.385219 291.410438)scale(0.1 -0.1)">
       <use xlink:href="#DejaVuSans-2212"/>
       <use x="83.789062" xlink:href="#DejaVuSans-32"/>
      </g>
     </g>
    </g>
    <g id="xtick_3">
     <g id="line2d_3">
      <g>
       <use style="stroke:#000000;stroke-width:0.8;" x="221.180313" xlink:href="#m962bb5b5ad" y="276.812"/>
      </g>
     </g>
     <g id="text_3">
      <!-- 0 -->
      <defs>
       <path d="M 31.78125 66.40625 
Q 24.171875 66.40625 20.328125 58.90625 
Q 16.5 51.421875 16.5 36.375 
Q 16.5 21.390625 20.328125 13.890625 
Q 24.171875 6.390625 31.78125 6.390625 
Q 39.453125 6.390625 43.28125 13.890625 
Q 47.125 21.390625 47.125 36.375 
Q 47.125 51.421875 43.28125 58.90625 
Q 39.453125 66.40625 31.78125 66.40625 
M 31.78125 74.21875 
Q 44.046875 74.21875 50.515625 64.515625 
Q 56.984375 54.828125 56.984375 36.375 
Q 56.984375 17.96875 50.515625 8.265625 
Q 44.046875 -1.421875 31.78125 -1.421875 
Q 19.53125 -1.421875 13.0625 8.265625 
Q 6.59375 17.96875 6.59375 36.375 
Q 6.59375 54.828125 13.0625 64.515625 
Q 19.53125 74.21875 31.78125 74.21875 
" id="DejaVuSans-30"/>
      </defs>
      <g transform="translate(217.999063 291.410438)scale(0.1 -0.1)">
       <use xlink:href="#DejaVuSans-30"/>
      </g>
     </g>
    </g>
    <g id="xtick_4">
     <g id="line2d_4">
      <g>
       <use style="stroke:#000000;stroke-width:0.8;" x="292.604312" xlink:href="#m962bb5b5ad" y="276.812"/>
      </g>
     </g>
     <g id="text_4">
      <!-- 2 -->
      <g transform="translate(289.423063 291.410438)scale(0.1 -0.1)">
       <use xlink:href="#DejaVuSans-32"/>
      </g>
     </g>
    </g>
    <g id="xtick_5">
     <g id="line2d_5">
      <g>
       <use style="stroke:#000000;stroke-width:0.8;" x="364.028313" xlink:href="#m962bb5b5ad" y="276.812"/>
      </g>
     </g>
     <g id="text_5">
      <!-- 4 -->
      <g transform="translate(360.847063 291.410438)scale(0.1 -0.1)">
       <use xlink:href="#DejaVuSans-34"/>
      </g>
     </g>
    </g>
    <g id="text_6">
     <!-- x1 -->
     <defs>
      <path d="M 54.890625 54.6875 
L 35.109375 28.078125 
L 55.90625 0 
L 45.3125 0 
L 29.390625 21.484375 
L 13.484375 0 
L 2.875 0 
L 24.125 28.609375 
L 4.6875 54.6875 
L 15.28125 54.6875 
L 29.78125 35.203125 
L 44.28125 54.6875 
z
" id="DejaVuSans-78"/>
      <path d="M 12.40625 8.296875 
L 28.515625 8.296875 
L 28.515625 63.921875 
L 10.984375 60.40625 
L 10.984375 69.390625 
L 28.421875 72.90625 
L 38.28125 72.90625 
L 38.28125 8.296875 
L 54.390625 8.296875 
L 54.390625 0 
L 12.40625 0 
z
" id="DejaVuSans-31"/>
     </defs>
     <g transform="translate(215.039688 305.088562)scale(0.1 -0.1)">
      <use xlink:href="#DejaVuSans-78"/>
      <use x="59.179688" xlink:href="#DejaVuSans-31"/>
     </g>
    </g>
   </g>
   <g id="matplotlib.axis_2">
    <g id="ytick_1">
     <g id="line2d_6">
      <defs>
       <path d="M 0 0 
L -3.5 0 
" id="m0a1fad5c55" style="stroke:#000000;stroke-width:0.8;"/>
      </defs>
      <g>
       <use style="stroke:#000000;stroke-width:0.8;" x="42.620313" xlink:href="#m0a1fad5c55" y="250.2008"/>
      </g>
     </g>
     <g id="text_7">
      <!-- −4 -->
      <g transform="translate(20.878125 254.000019)scale(0.1 -0.1)">
       <use xlink:href="#DejaVuSans-2212"/>
       <use x="83.789062" xlink:href="#DejaVuSans-34"/>
      </g>
     </g>
    </g>
    <g id="ytick_2">
     <g id="line2d_7">
      <g>
       <use style="stroke:#000000;stroke-width:0.8;" x="42.620313" xlink:href="#m0a1fad5c55" y="196.9784"/>
      </g>
     </g>
     <g id="text_8">
      <!-- −2 -->
      <g transform="translate(20.878125 200.777619)scale(0.1 -0.1)">
       <use xlink:href="#DejaVuSans-2212"/>
       <use x="83.789062" xlink:href="#DejaVuSans-32"/>
      </g>
     </g>
    </g>
    <g id="ytick_3">
     <g id="line2d_8">
      <g>
       <use style="stroke:#000000;stroke-width:0.8;" x="42.620313" xlink:href="#m0a1fad5c55" y="143.756"/>
      </g>
     </g>
     <g id="text_9">
      <!-- 0 -->
      <g transform="translate(29.257813 147.555219)scale(0.1 -0.1)">
       <use xlink:href="#DejaVuSans-30"/>
      </g>
     </g>
    </g>
    <g id="ytick_4">
     <g id="line2d_9">
      <g>
       <use style="stroke:#000000;stroke-width:0.8;" x="42.620313" xlink:href="#m0a1fad5c55" y="90.5336"/>
      </g>
     </g>
     <g id="text_10">
      <!-- 2 -->
      <g transform="translate(29.257813 94.332819)scale(0.1 -0.1)">
       <use xlink:href="#DejaVuSans-32"/>
      </g>
     </g>
    </g>
    <g id="ytick_5">
     <g id="line2d_10">
      <g>
       <use style="stroke:#000000;stroke-width:0.8;" x="42.620313" xlink:href="#m0a1fad5c55" y="37.3112"/>
      </g>
     </g>
     <g id="text_11">
      <!-- 4 -->
      <g transform="translate(29.257813 41.110419)scale(0.1 -0.1)">
       <use xlink:href="#DejaVuSans-34"/>
      </g>
     </g>
    </g>
    <g id="text_12">
     <!-- x2 -->
     <g transform="translate(14.798438 149.896625)rotate(-90)scale(0.1 -0.1)">
      <use xlink:href="#DejaVuSans-78"/>
      <use x="59.179688" xlink:href="#DejaVuSans-32"/>
     </g>
    </g>
   </g>
   <g id="line2d_11">
    <path clip-path="url(#pc7dd681327)" d="M 221.180313 10.7 
L 229.885173 17.34982 
L 238.144312 23.98344 
L 245.959331 30.585561 
L 253.332806 37.141759 
L 260.268261 43.638291 
L 266.770185 50.062087 
L 272.843873 56.401034 
L 278.495355 62.643773 
L 283.73146 68.779786 
L 288.559693 74.799335 
L 292.988178 80.693426 
L 297.025609 86.453807 
L 300.681213 92.072953 
L 303.9647 97.544051 
L 306.88622 102.860982 
L 309.456285 108.018295 
L 311.685766 113.011201 
L 313.585873 117.83556 
L 315.168046 122.487836 
L 316.443934 126.965079 
L 317.425358 131.264909 
L 318.124266 135.385486 
L 318.552732 139.325506 
L 318.722896 143.084167 
L 318.646948 146.661152 
L 318.33708 150.056604 
L 317.805459 153.271098 
L 317.064193 156.305622 
L 316.125314 159.161555 
L 315.000745 161.840643 
L 313.702285 164.344978 
L 312.24158 166.67698 
L 310.630108 168.839367 
L 308.879151 170.835139 
L 306.999782 172.667557 
L 305.002856 174.340123 
L 302.466255 176.141446 
L 299.793461 177.724749 
L 297.001701 179.097193 
L 294.107688 180.266271 
L 291.127451 181.239731 
L 288.076444 182.025574 
L 284.447149 182.716174 
L 280.763939 183.175791 
L 277.047867 183.417855 
L 273.318751 183.455939 
L 269.064619 183.267143 
L 264.843197 182.849973 
L 260.677922 182.224556 
L 256.085514 181.29674 
L 251.618166 180.15818 
L 247.299699 178.835831 
L 242.700979 177.182647 
L 238.335256 175.368953 
L 234.221869 173.427268 
L 230.00649 171.180099 
L 226.129176 168.853095 
L 222.599092 166.481205 
L 219.420476 164.096243 
L 216.353372 161.513162 
L 213.698517 158.981511 
L 211.445275 156.529782 
L 209.578768 154.182165 
L 208.080561 151.958711 
L 206.92931 149.875513 
L 206.101383 147.944943 
L 205.571445 146.175903 
L 205.312984 144.574104 
L 205.298802 143.142345 
L 205.501469 141.880805 
L 205.893716 140.787334 
L 206.44879 139.857745 
L 207.203813 139.028709 
L 208.087976 138.375546 
L 209.150513 137.856061 
L 210.377817 137.493896 
L 211.832547 137.301152 
L 213.394159 137.315769 
L 215.095757 137.55093 
L 216.863457 138.017455 
L 218.60534 138.702468 
L 220.220119 139.568164 
L 221.608922 140.554038 
L 222.688655 141.582839 
L 223.38863 142.541388 
L 223.721004 143.343998 
L 223.756515 143.966445 
L 223.571381 144.405725 
L 223.21477 144.686662 
L 222.686806 144.809308 
L 222.009172 144.729067 
L 221.31653 144.426058 
L 220.846002 143.995882 
L 220.772411 143.680531 
L 220.937558 143.584147 
L 221.20789 143.685227 
L 221.242026 143.775389 
L 221.180312 143.756 
" style="fill:none;stroke:#ff7f0e;stroke-linecap:square;stroke-width:0.5;"/>
   </g>
   <g id="line2d_12">
    <path clip-path="url(#pc7dd681327)" d="M 260.484341 10.7 
L 267.452843 17.168789 
L 274.075695 23.582335 
L 280.355884 29.93301 
L 286.296983 36.213282 
L 291.903018 42.415966 
L 297.178345 48.53438 
L 302.127634 54.562209 
L 306.755895 60.493536 
L 311.068466 66.322851 
L 315.070971 72.045024 
L 318.769297 77.655288 
L 322.169567 83.149231 
L 325.278134 88.522797 
L 328.101552 93.772277 
L 330.646587 98.894305 
L 332.920166 103.885846 
L 334.929359 108.744186 
L 336.68138 113.466928 
L 338.183541 118.051969 
L 339.443335 122.497547 
L 340.468272 126.802148 
L 341.265981 130.964566 
L 341.844111 134.983843 
L 342.210351 138.859281 
L 342.37243 142.590441 
L 342.338085 146.177122 
L 342.115081 149.619368 
L 341.711172 152.917447 
L 341.134086 156.071842 
L 340.391514 159.083237 
L 339.49111 161.952516 
L 338.440471 164.680752 
L 337.247134 167.269195 
L 335.91857 169.71927 
L 334.078931 172.589698 
L 332.05377 175.249839 
L 329.857058 177.703454 
L 327.50254 179.954649 
L 325.003644 182.0078 
L 322.373506 183.867566 
L 319.624938 185.538841 
L 316.770408 187.02674 
L 313.822045 188.33658 
L 310.79161 189.473849 
L 307.062767 190.618734 
L 303.251081 191.53325 
L 299.37469 192.22762 
L 295.450905 192.712239 
L 291.496193 192.997629 
L 286.864055 193.092931 
L 282.234361 192.948403 
L 277.628847 192.580942 
L 273.067663 192.007357 
L 267.932927 191.120782 
L 262.90556 190.011201 
L 258.008214 188.702579 
L 253.260997 187.218264 
L 248.1217 185.366552 
L 243.216183 183.352108 
L 238.562299 181.204534 
L 234.174414 178.951912 
L 229.624323 176.357942 
L 225.426942 173.700832 
L 221.588613 171.011853 
L 218.111663 168.319602 
L 214.994767 165.649993 
L 211.976432 162.767223 
L 209.377858 159.967127 
L 207.185063 157.273144 
L 205.380878 154.705052 
L 203.945478 152.279134 
L 202.856879 150.008352 
L 202.091418 147.90254 
L 201.624196 145.968617 
L 201.429493 144.210814 
L 201.481152 142.630905 
L 201.75292 141.228449 
L 202.218758 140.001013 
L 202.853118 138.944416 
L 203.631185 138.052956 
L 204.615855 137.26054 
L 205.809393 136.60219 
L 207.203115 136.109101 
L 208.776571 135.806663 
L 210.49748 135.712562 
L 212.32251 135.835125 
L 214.300619 136.196163 
L 216.255846 136.775456 
L 218.201392 137.58063 
L 220.031706 138.580232 
L 221.585094 139.674174 
L 222.852145 140.834286 
L 223.737809 141.942705 
L 224.233436 142.903621 
L 224.400609 143.687772 
L 224.308185 144.285058 
L 224.025838 144.700535 
L 223.570683 144.968255 
L 222.952965 145.067397 
L 222.183659 144.957683 
L 221.399191 144.619215 
L 220.830988 144.14434 
L 220.655237 143.746578 
L 220.772973 143.565304 
L 221.043105 143.568267 
L 221.265631 143.761297 
L 221.218367 143.790284 
L 221.180313 143.756 
" style="fill:none;stroke:#ff7f0e;stroke-linecap:square;stroke-width:0.5;"/>
   </g>
   <g id="line2d_13">
    <path clip-path="url(#pc7dd681327)" d="M 303.790965 10.7 
L 310.725208 18.4338 
L 317.247335 26.060908 
L 323.363008 33.573641 
L 329.078648 40.964609 
L 334.400969 48.226969 
L 339.337058 55.354396 
L 343.894304 62.34099 
L 348.080394 69.181288 
L 351.903319 75.870297 
L 355.371336 82.403475 
L 358.492929 88.776696 
L 361.276789 94.986241 
L 363.731792 101.028789 
L 365.866978 106.901409 
L 367.691533 112.601552 
L 369.214771 118.127038 
L 370.446137 123.476057 
L 371.395124 128.647132 
L 372.071345 133.639145 
L 372.484422 138.451281 
L 372.644046 143.083062 
L 372.559891 147.534289 
L 372.241629 151.805063 
L 371.698924 155.895772 
L 370.941456 159.80704 
L 369.978856 163.539753 
L 368.820662 167.095073 
L 367.476345 170.474389 
L 365.955302 173.679309 
L 364.266858 176.711641 
L 362.42023 179.573389 
L 360.424519 182.266752 
L 358.288703 184.794108 
L 356.021623 187.158007 
L 353.631975 189.361152 
L 351.128312 191.406394 
L 348.519029 193.296719 
L 345.121429 195.446519 
L 341.587356 197.365455 
L 337.93209 199.060098 
L 334.170452 200.537259 
L 330.316804 201.803939 
L 326.385026 202.86732 
L 322.388516 203.734722 
L 318.340167 204.413591 
L 313.431145 204.989991 
L 308.485762 205.318932 
L 303.523411 205.413673 
L 298.562413 205.287523 
L 293.620022 204.953785 
L 288.712415 204.425713 
L 283.050946 203.581565 
L 277.479548 202.511482 
L 272.018487 201.235801 
L 266.686137 199.774457 
L 261.499021 198.146914 
L 255.767528 196.107619 
L 250.26407 193.903285 
L 245.004948 191.560152 
L 240.003706 189.103297 
L 234.699052 186.233043 
L 229.746315 183.281014 
L 225.153544 180.277102 
L 220.92531 177.249024 
L 217.062967 174.2223 
L 213.564923 171.220243 
L 210.100188 167.939166 
L 207.07052 164.740384 
L 204.463322 161.646479 
L 202.263182 158.676889 
L 200.452282 155.84802 
L 199.010801 153.173378 
L 197.917289 150.663718 
L 197.149031 148.327203 
L 196.682379 146.169571 
L 196.493068 144.194317 
L 196.556507 142.402864 
L 196.84804 140.794756 
L 197.343189 139.367837 
L 198.017869 138.11843 
L 198.848581 137.041524 
L 199.812577 136.130942 
L 201.000869 135.312824 
L 202.418547 134.627352 
L 203.930196 134.143116 
L 205.63784 133.826818 
L 207.518159 133.704409 
L 209.536075 133.793951 
L 211.645447 134.103889 
L 213.912912 134.668207 
L 216.133488 135.453532 
L 218.233951 136.42634 
L 220.226908 137.596484 
L 221.933664 138.856708 
L 223.303163 140.14056 
L 224.304436 141.381869 
L 224.912363 142.479209 
L 225.180508 143.404058 
L 225.169278 144.143693 
L 224.941089 144.698393 
L 224.538656 145.090358 
L 223.966535 145.329618 
L 223.226604 145.391 
L 222.360377 145.23618 
L 221.487619 144.854917 
L 220.824495 144.334953 
L 220.536367 143.857001 
L 220.585493 143.578907 
L 220.815307 143.48885 
L 221.16036 143.595877 
L 221.280448 143.780791 
L 221.258536 143.796663 
L 221.163527 143.759882 
L 221.180312 143.756 
" style="fill:none;stroke:#ff7f0e;stroke-linecap:square;stroke-width:0.5;"/>
   </g>
   <g id="line2d_14">
    <path clip-path="url(#pc7dd681327)" d="M 356.918096 10.7 
L 358.687822 13.036883 
L 360.426455 15.363555 
L 362.133951 17.679843 
L 363.810439 19.985627 
L 365.456066 22.280776 
L 367.07095 24.565189 
L 368.655251 26.838733 
L 370.209092 29.101307 
L 371.732637 31.352782 
L 373.226037 33.593045 
L 374.689447 35.821981 
L 376.123021 38.039487 
L 377.526915 40.245447 
L 378.901285 42.439756 
L 380.246288 44.622319 
L 381.562078 46.793022 
L 382.848821 48.951777 
L 384.106675 51.098488 
L 385.335798 53.233049 
L 386.536363 55.355386 
L 387.708527 57.465399 
L 388.852455 59.562998 
L 389.968324 61.648115 
L 391.056295 63.720655 
L 392.116537 65.780533 
L 393.149215 67.827664 
L 394.154512 69.861993 
L 395.132595 71.883433 
L 396.083635 73.891906 
L 397.007805 75.887338 
L 397.905284 77.86967 
L 398.776249 79.838833 
L 399.620875 81.79476 
L 400.43934 83.737387 
" style="fill:none;stroke:#ff7f0e;stroke-linecap:square;stroke-width:0.5;"/>
   </g>
   <g id="line2d_15">
    <path clip-path="url(#pc7dd681327)" d="M 399.740313 30.737215 
L 401.240323 33.191202 
" style="fill:none;stroke:#ff7f0e;stroke-linecap:square;stroke-width:0.5;"/>
   </g>
   <g id="line2d_16">
    <path clip-path="url(#pc7dd681327)" d="M 399.740313 73.214173 
L 400.67319 75.243407 
" style="fill:none;stroke:#ff7f0e;stroke-linecap:square;stroke-width:0.5;"/>
   </g>
   <g id="line2d_17">
    <path clip-path="url(#pc7dd681327)" d="M 399.740313 106.813183 
L 400.224584 108.50644 
" style="fill:none;stroke:#ff7f0e;stroke-linecap:square;stroke-width:0.5;"/>
   </g>
   <g id="line2d_18">
    <path clip-path="url(#pc7dd681327)" d="M 399.740313 136.541913 
L 399.827725 137.937945 
" style="fill:none;stroke:#ff7f0e;stroke-linecap:square;stroke-width:0.5;"/>
   </g>
   <g id="line2d_19">
    <path clip-path="url(#pc7dd681327)" d="M 399.740313 165.569424 
L 398.451982 169.912905 
L 396.936418 174.045146 
L 395.204435 177.967838 
L 393.267312 181.683048 
L 391.136266 185.19311 
L 388.822243 188.500573 
L 386.336052 191.608178 
L 383.688354 194.518874 
L 380.889635 197.235821 
L 377.950201 199.762362 
L 374.880173 202.102005 
L 371.689487 204.258412 
L 368.387876 206.235382 
L 364.984869 208.036851 
L 361.489779 209.666876 
L 357.911698 211.129623 
L 353.335879 212.729336 
L 348.661032 214.082875 
L 343.903384 215.198947 
L 339.078577 216.086416 
L 334.201645 216.754263 
L 329.287028 217.211577 
L 324.348539 217.467508 
L 319.399372 217.531244 
L 313.463971 217.367021 
L 307.55185 216.955224 
L 301.682319 216.311715 
L 295.873393 215.452233 
L 290.141838 214.392358 
L 284.503176 213.14747 
L 278.061131 211.481419 
L 271.78554 209.607634 
L 265.694826 207.549017 
L 259.805303 205.327802 
L 254.131234 202.965494 
L 248.684887 200.482796 
L 242.752554 197.523485 
L 237.143707 194.461169 
L 231.867952 191.322587 
L 226.932113 188.132899 
L 222.3404 184.915644 
L 218.094578 181.692708 
L 213.730785 178.085272 
L 209.800246 174.522584 
L 206.296097 171.02837 
L 203.208764 167.623784 
L 200.526269 164.327467 
L 198.234532 161.155621 
L 196.317661 158.122084 
L 194.758231 155.238431 
L 193.537551 152.514084 
L 192.635914 149.956419 
L 192.03284 147.570891 
L 191.707301 145.36115 
L 191.637931 143.329172 
L 191.803223 141.475387 
L 192.181696 139.79881 
L 192.75207 138.297166 
L 193.493409 136.967024 
L 194.385258 135.803918 
L 195.528601 134.70092 
L 196.807046 133.788982 
L 198.195584 133.058595 
L 199.821911 132.45251 
L 201.680749 132.010369 
L 203.593672 131.777417 
L 205.689956 131.737333 
L 207.934916 131.911582 
L 210.28225 132.312168 
L 212.675341 132.940076 
L 215.049555 133.784273 
L 217.335451 134.821424 
L 219.566219 136.081124 
L 221.535935 137.455466 
L 223.118464 138.819185 
L 224.372819 140.179916 
L 225.272223 141.480074 
L 225.794309 142.620175 
L 225.992039 143.579465 
L 225.930524 144.320385 
L 225.660237 144.912549 
L 225.213506 145.342964 
L 224.60684 145.61506 
L 223.831025 145.716988 
L 222.901179 145.609279 
L 221.921939 145.268822 
L 221.078425 144.748552 
L 220.543828 144.177873 
L 220.395376 143.736228 
L 220.516703 143.501417 
L 220.800567 143.438323 
L 221.179367 143.580638 
L 221.29877 143.78759 
L 221.286672 143.798731 
L 221.163323 143.767099 
L 221.180312 143.756 
" style="fill:none;stroke:#ff7f0e;stroke-linecap:square;stroke-width:0.5;"/>
   </g>
   <g id="line2d_20">
    <path clip-path="url(#pc7dd681327)" d="M 399.740313 196.770356 
L 396.8106 199.866127 
L 393.720503 202.752638 
L 390.48078 205.433387 
L 387.102497 207.912281 
L 383.596462 210.193374 
L 379.973201 212.28084 
L 376.242993 214.178993 
L 372.415879 215.892276 
L 368.501613 217.425269 
L 364.509781 218.782622 
L 360.449673 219.969096 
L 355.292349 221.219241 
L 350.059637 222.21953 
L 344.767945 222.979726 
L 339.433029 223.509694 
L 334.069995 223.819374 
L 328.693287 223.918757 
L 323.316686 223.817857 
L 317.953296 223.526688 
L 311.552127 222.94018 
L 305.208064 222.111223 
L 298.939947 221.056812 
L 292.765241 219.793802 
L 286.700078 218.338739 
L 280.759257 216.707919 
L 274.003405 214.604374 
L 267.454409 212.30791 
L 261.129262 209.842413 
L 255.042753 207.230969 
L 249.207546 204.495803 
L 243.634255 201.658221 
L 237.596505 198.315922 
L 231.92204 194.895192 
L 226.617811 191.423087 
L 221.687963 187.9249 
L 217.134018 184.42414 
L 212.95507 180.942527 
L 209.147979 177.499991 
L 205.70756 174.114694 
L 202.62677 170.803045 
L 199.896898 167.579739 
L 197.232498 164.075266 
L 194.982796 160.715128 
L 193.129516 157.512911 
L 191.652885 154.479814 
L 190.531915 151.624759 
L 189.744673 148.954522 
L 189.306786 146.740026 
L 189.098503 144.677444 
L 189.103453 142.767775 
L 189.305212 141.011003 
L 189.687408 139.406173 
L 190.312868 137.780066 
L 191.123439 136.340174 
L 192.096913 135.081618 
L 193.211735 133.998531 
L 194.590939 132.992703 
L 196.091714 132.184932 
L 197.852188 131.51179 
L 199.696311 131.048921 
L 201.768506 130.764264 
L 204.04483 130.690206 
L 206.488146 130.850965 
L 208.880542 131.226367 
L 211.345376 131.82715 
L 213.821414 132.648979 
L 216.240784 133.675307 
L 218.532497 134.877409 
L 220.626672 136.215301 
L 222.459175 137.639601 
L 223.976305 139.094278 
L 225.095258 140.458168 
L 225.874406 141.74963 
L 226.296569 142.872872 
L 226.413979 143.812509 
L 226.29238 144.534018 
L 225.97319 145.110378 
L 225.485948 145.528829 
L 224.814404 145.799068 
L 223.967132 145.88605 
L 222.989184 145.755263 
L 221.980343 145.396996 
L 221.095001 144.854631 
L 220.519377 144.261086 
L 220.327756 143.783937 
L 220.4249 143.507362 
L 220.689801 143.4091 
L 221.082062 143.504581 
L 221.319439 143.755937 
L 221.255542 143.812632 
L 221.208563 143.802701 
L 221.15834 143.752151 
L 221.180313 143.756 
" style="fill:none;stroke:#ff7f0e;stroke-linecap:square;stroke-width:0.5;"/>
   </g>
   <g id="line2d_21">
    <path clip-path="url(#pc7dd681327)" d="M 399.740313 233.970206 
L 394.853689 235.578372 
L 389.886528 236.979708 
L 384.849361 238.179804 
L 379.752868 239.184684 
L 374.607492 240.000503 
L 369.423267 240.633409 
L 362.903033 241.17673 
L 356.355269 241.456035 
L 349.797178 241.48352 
L 343.245294 241.271391 
L 336.71536 240.83185 
L 330.222265 240.177058 
L 323.780089 239.319113 
L 317.402016 238.270027 
L 311.100424 237.041677 
L 303.655782 235.347552 
L 296.356575 233.432148 
L 289.219841 231.315044 
L 282.261055 229.015379 
L 275.494162 226.55182 
L 268.931625 223.942517 
L 262.584465 221.205072 
L 255.464428 217.872112 
L 248.663586 214.413874 
L 242.192526 210.855186 
L 236.059572 207.219674 
L 230.27082 203.529747 
L 224.830397 199.806531 
L 219.740515 196.069878 
L 215.001562 192.33837 
L 210.612223 188.629316 
L 206.020173 184.438396 
L 201.87437 180.3196 
L 198.165995 176.2927 
L 194.884214 172.375386 
L 192.016403 168.583315 
L 189.548362 164.930177 
L 187.464522 161.427741 
L 185.748155 158.085949 
L 184.381557 154.912993 
L 183.346241 151.915393 
L 182.623105 149.098097 
L 182.192591 146.464563 
L 182.03485 144.016852 
L 182.129881 141.755727 
L 182.457662 139.680741 
L 182.998283 137.790338 
L 183.732061 136.081948 
L 184.639631 134.552079 
L 185.702053 133.19641 
L 186.900894 132.009884 
L 188.390438 130.870087 
L 190.005602 129.928138 
L 191.723075 129.174302 
L 193.72453 128.54472 
L 195.796581 128.119683 
L 198.125904 127.869974 
L 200.690202 127.833887 
L 203.242239 128.017677 
L 205.954707 128.43319 
L 208.774585 129.094247 
L 211.63761 130.002732 
L 214.470568 131.147327 
L 217.043052 132.420334 
L 219.466244 133.858849 
L 221.668481 135.421874 
L 223.583956 137.058851 
L 225.089186 138.632089 
L 226.205822 140.101049 
L 226.995202 141.501713 
L 227.431381 142.729936 
L 227.562528 143.724966 
L 227.461776 144.548832 
L 227.172556 145.204147 
L 226.710745 145.720366 
L 226.070291 146.098784 
L 225.24194 146.316459 
L 224.269283 146.337774 
L 223.163195 146.135301 
L 222.052677 145.706856 
L 221.078268 145.097176 
L 220.418786 144.434805 
L 220.152767 143.884682 
L 220.197901 143.528677 
L 220.431551 143.356933 
L 220.821408 143.358724 
L 221.242953 143.576813 
L 221.332989 143.802926 
L 221.326976 143.808487 
L 221.173725 143.788465 
L 221.155143 143.748657 
L 221.180312 143.756 
" style="fill:none;stroke:#ff7f0e;stroke-linecap:square;stroke-width:0.5;"/>
   </g>
   <g id="line2d_22">
    <path clip-path="url(#pc7dd681327)" d="M 390.321329 276.812 
L 383.18839 276.431745 
L 376.081234 275.858684 
L 369.009649 275.100788 
L 360.235008 273.906408 
L 351.549155 272.452923 
L 342.968995 270.756533 
L 334.510458 268.833263 
L 326.188265 266.698879 
L 318.015994 264.368867 
L 310.0062 261.858432 
L 302.170476 259.182494 
L 294.519442 256.355651 
L 287.062755 253.392146 
L 279.809118 250.305875 
L 271.383686 246.45929 
L 263.273569 242.477964 
L 255.488719 238.38366 
L 248.037382 234.197256 
L 240.926166 229.938737 
L 234.160114 225.627174 
L 227.742716 221.280723 
L 221.676105 216.916592 
L 215.961056 212.551053 
L 210.59706 208.199437 
L 205.582407 203.876133 
L 200.914268 199.594595 
L 196.588781 195.367348 
L 191.968935 190.519609 
L 187.799602 185.778392 
L 184.070038 181.158924 
L 180.768154 176.674825 
L 177.880665 172.338156 
L 175.393219 168.159466 
L 173.290539 164.14784 
L 171.556557 160.310965 
L 170.174546 156.655176 
L 169.127245 153.185523 
L 168.396975 149.905835 
L 167.965767 146.818776 
L 167.815447 143.925927 
L 167.927737 141.227846 
L 168.284346 138.724133 
L 168.86707 136.41349 
L 169.657866 134.293794 
L 170.638923 132.362163 
L 171.79274 130.615021 
L 173.10218 129.048159 
L 174.550527 127.656803 
L 176.12154 126.435668 
L 178.04704 125.241149 
L 180.089657 124.252287 
L 182.227832 123.459349 
L 184.722028 122.788783 
L 187.283775 122.338239 
L 189.887427 122.092267 
L 192.800685 122.03979 
L 195.706553 122.198791 
L 198.862422 122.592133 
L 202.220639 123.249831 
L 205.456076 124.111081 
L 208.787956 125.23361 
L 211.909778 126.51242 
L 215.009675 128.019374 
L 218.006238 129.733262 
L 220.651598 131.500859 
L 223.079334 133.395644 
L 225.103284 135.254846 
L 226.735373 137.039837 
L 228.061925 138.820343 
L 228.998639 140.453352 
L 229.581623 141.918629 
L 229.850723 143.203546 
L 229.854806 144.242784 
L 229.653511 145.116874 
L 229.253863 145.868932 
L 228.70264 146.447396 
L 227.954205 146.903094 
L 227.021164 147.195904 
L 225.938323 147.297712 
L 224.715422 147.189198 
L 223.395854 146.846097 
L 222.109828 146.280744 
L 221.005556 145.555998 
L 220.228282 144.793981 
L 219.831781 144.119547 
L 219.773418 143.627021 
L 219.94365 143.325714 
L 220.282998 143.186228 
L 220.772691 143.236981 
L 221.257259 143.503902 
L 221.406253 143.790151 
L 221.270036 143.846476 
L 221.142939 143.752455 
L 221.180312 143.756 
" style="fill:none;stroke:#ff7f0e;stroke-linecap:square;stroke-width:0.5;"/>
   </g>
   <g id="line2d_23">
    <path clip-path="url(#pc7dd681327)" d="M 328.6163 276.812 
L 319.779596 274.064721 
L 311.133278 271.133766 
L 302.689277 268.035161 
L 294.458358 264.784682 
L 286.450233 261.397668 
L 278.673508 257.889011 
L 271.13586 254.273196 
L 263.844059 250.564287 
L 255.426544 246.009826 
L 247.379655 241.36344 
L 239.709867 236.64669 
L 232.422 231.880146 
L 225.519273 227.083358 
L 219.003376 222.274846 
L 212.874534 217.472089 
L 207.131622 212.691526 
L 201.772231 207.948564 
L 196.792743 203.257583 
L 192.188425 198.63194 
L 187.953512 194.083988 
L 184.081288 189.62509 
L 180.564171 185.265638 
L 177.393768 181.015071 
L 174.560944 176.881892 
L 172.055934 172.873701 
L 169.868378 168.997215 
L 167.987436 165.258304 
L 166.401832 161.662019 
L 165.099909 158.212618 
L 164.069704 154.913599 
L 163.298988 151.767724 
L 162.775339 148.777065 
L 162.486196 145.943028 
L 162.418914 143.266391 
L 162.56081 140.74734 
L 162.899205 138.385496 
L 163.421475 136.179955 
L 164.115086 134.12932 
L 164.967636 132.23173 
L 165.966892 130.484903 
L 167.302067 128.633891 
L 168.801847 126.979554 
L 170.44801 125.516421 
L 172.22287 124.238486 
L 174.109332 123.139275 
L 176.380847 122.093033 
L 178.75312 121.260401 
L 181.203822 120.630074 
L 184.028391 120.148221 
L 186.897444 119.890586 
L 190.105855 119.846248 
L 193.304412 120.033471 
L 196.46364 120.428438 
L 199.862073 121.074783 
L 203.443087 121.998169 
L 206.85956 123.112028 
L 210.343074 124.491211 
L 213.573434 126.007136 
L 216.746084 127.746033 
L 219.585224 129.5501 
L 222.247818 131.508348 
L 224.517273 133.44925 
L 226.40102 135.334743 
L 228.001597 137.249373 
L 229.204493 139.034513 
L 230.040111 140.667167 
L 230.543028 142.131341 
L 230.750564 143.41738 
L 230.701495 144.521265 
L 230.434918 145.443868 
L 229.989288 146.190214 
L 229.360958 146.799574 
L 228.567168 147.253322 
L 227.584154 147.549432 
L 226.443277 147.656022 
L 225.146773 147.549031 
L 223.778793 147.212328 
L 222.411185 146.644941 
L 221.22282 145.918032 
L 220.306522 145.104114 
L 219.778355 144.35236 
L 219.618485 143.77236 
L 219.724776 143.385218 
L 220.008826 143.172743 
L 220.451878 143.126674 
L 220.999889 143.295495 
L 221.392714 143.629021 
L 221.390501 143.841819 
L 221.20167 143.82663 
L 221.140934 143.747236 
L 221.180312 143.756 
" style="fill:none;stroke:#ff7f0e;stroke-linecap:square;stroke-width:0.5;"/>
   </g>
   <g id="line2d_24">
    <path clip-path="url(#pc7dd681327)" d="M 281.344181 276.812 
L 272.565532 272.347613 
L 264.089642 267.787481 
L 255.922424 263.147192 
L 248.068802 258.442116 
L 240.532655 253.686909 
L 233.316877 248.895605 
L 226.423446 244.081653 
L 219.853446 239.257895 
L 213.607109 234.436562 
L 207.683874 229.629288 
L 201.00059 223.894616 
L 194.777007 218.213976 
L 189.008087 212.604063 
L 183.687498 207.080352 
L 178.80772 201.657119 
L 174.360138 196.347461 
L 170.335121 191.163311 
L 166.722116 186.115469 
L 163.509741 181.213627 
L 160.685869 176.4664 
L 158.237745 171.881367 
L 156.152049 167.4651 
L 154.414964 163.2232 
L 153.01226 159.160329 
L 151.929361 155.280253 
L 151.151424 151.585878 
L 150.663405 148.079296 
L 150.450124 144.76182 
L 150.496333 141.634024 
L 150.786756 138.695789 
L 151.306155 135.946339 
L 152.03938 133.384284 
L 152.971392 131.007656 
L 154.087377 128.813959 
L 155.372677 126.800194 
L 156.813013 124.962929 
L 158.394284 123.298295 
L 160.102827 121.802066 
L 161.92523 120.469657 
L 164.177981 119.115701 
L 166.548093 117.969844 
L 169.016411 117.023435 
L 171.564605 116.267466 
L 174.552291 115.624755 
L 177.596905 115.204389 
L 180.675371 114.991861 
L 184.152365 114.982924 
L 187.616735 115.197488 
L 191.420013 115.672612 
L 195.144328 116.369547 
L 198.761785 117.260558 
L 202.588764 118.432704 
L 206.229917 119.77262 
L 209.964047 121.38718 
L 213.427941 123.122337 
L 216.856672 125.095162 
L 219.935851 127.122803 
L 222.659361 129.166494 
L 225.195031 131.3461 
L 227.326128 133.467562 
L 229.066592 135.499739 
L 230.435676 137.417189 
L 231.456898 139.199887 
L 232.157056 140.832884 
L 232.565309 142.30592 
L 232.712337 143.612995 
L 232.629583 144.751923 
L 232.348577 145.723874 
L 231.862735 146.584628 
L 231.221789 147.266496 
L 230.406514 147.808742 
L 229.434561 148.192593 
L 228.270914 148.412414 
L 226.950529 148.434848 
L 225.47066 148.230731 
L 223.924566 147.783575 
L 222.433389 147.114173 
L 221.128742 146.282161 
L 220.150675 145.403365 
L 219.544266 144.574549 
L 219.310487 143.909453 
L 219.360545 143.432688 
L 219.609299 143.134397 
L 220.016565 142.997649 
L 220.579506 143.050402 
L 221.161776 143.324248 
L 221.475465 143.688441 
L 221.415977 143.868204 
L 221.200445 143.837721 
L 221.133195 143.744965 
L 221.180312 143.756 
" style="fill:none;stroke:#ff7f0e;stroke-linecap:square;stroke-width:0.5;"/>
   </g>
   <g id="line2d_25">
    <path clip-path="url(#pc7dd681327)" d="M 240.599883 276.812 
L 231.871218 270.867476 
L 223.542133 264.90289 
L 215.613503 258.933832 
L 208.085135 252.975086 
L 200.955864 247.040676 
L 194.223603 241.14388 
L 187.885397 235.29724 
L 181.93748 229.512564 
L 176.375321 223.800933 
L 171.193667 218.172712 
L 166.386624 212.63756 
L 161.947626 207.204431 
L 157.869542 201.881596 
L 154.144672 196.676642 
L 150.764881 191.596512 
L 147.721577 186.647502 
L 145.005791 181.835288 
L 142.608174 177.164932 
L 140.51906 172.640902 
L 138.728495 168.267092 
L 137.226286 164.046841 
L 136.002018 159.982945 
L 135.04513 156.077694 
L 134.344898 152.332857 
L 133.890515 148.749743 
L 133.671101 145.329199 
L 133.675734 142.071639 
L 133.893481 138.977059 
L 134.313418 136.045056 
L 134.924661 133.274849 
L 135.716385 130.6653 
L 136.67786 128.214936 
L 137.79846 125.921967 
L 139.067693 123.784306 
L 140.475216 121.79959 
L 142.010854 119.9652 
L 144.008677 117.958322 
L 146.159723 116.158427 
L 148.447554 114.559751 
L 150.856214 113.156159 
L 153.370252 111.941194 
L 155.974748 110.908113 
L 159.108525 109.923407 
L 162.32407 109.165318 
L 165.600644 108.622112 
L 168.918621 108.281831 
L 172.73762 108.125878 
L 176.560797 108.200949 
L 180.364328 108.488819 
L 184.592662 109.044468 
L 188.740292 109.820993 
L 192.782058 110.793373 
L 197.121874 112.073868 
L 201.277458 113.533753 
L 205.226829 115.142074 
L 209.31168 117.047611 
L 213.106886 119.060378 
L 216.901309 121.338295 
L 220.324654 123.662459 
L 223.372488 125.996142 
L 226.045963 128.306637 
L 228.526953 130.750324 
L 230.589238 133.101933 
L 232.251222 135.335474 
L 233.535402 137.429994 
L 234.467513 139.369293 
L 235.075722 141.141605 
L 235.389889 142.739237 
L 235.440887 144.158201 
L 235.259991 145.397823 
L 234.878332 146.460347 
L 234.326424 147.350547 
L 233.575459 148.124485 
L 232.696267 148.717546 
L 231.649201 149.166824 
L 230.376752 149.464936 
L 228.981445 149.56541 
L 227.431994 149.457618 
L 225.792891 149.125397 
L 224.083367 148.54856 
L 222.483601 147.774912 
L 221.095297 146.865652 
L 220.004305 145.89929 
L 219.267446 144.961914 
L 218.913526 144.177166 
L 218.867443 143.57428 
L 219.046907 143.157553 
L 219.394785 142.903146 
L 219.911514 142.808871 
L 220.568712 142.923099 
L 221.202556 143.255435 
L 221.539991 143.656149 
L 221.502626 143.877666 
L 221.28879 143.894631 
L 221.119689 143.74749 
L 221.139375 143.731439 
L 221.190289 143.754859 
L 221.180312 143.756 
" style="fill:none;stroke:#ff7f0e;stroke-linecap:square;stroke-width:0.5;"/>
   </g>
   <g id="line2d_26">
    <path clip-path="url(#pc7dd681327)" d="M 201.760742 276.812 
L 194.776526 270.924005 
L 188.107499 265.067521 
L 180.211641 257.803023 
L 172.800747 250.614735 
L 165.869227 243.51649 
L 159.410633 236.521234 
L 153.417638 229.64099 
L 147.882143 222.886914 
L 142.795324 216.269317 
L 138.147693 209.797674 
L 133.929164 203.480643 
L 130.129093 197.326086 
L 126.73634 191.341088 
L 123.739342 185.531983 
L 121.126083 179.904348 
L 118.884213 174.46305 
L 117.001047 169.212251 
L 115.463694 164.155466 
L 114.259036 159.29556 
L 113.37381 154.634791 
L 112.794597 150.174807 
L 112.507889 145.916695 
L 112.50011 141.860984 
L 112.757672 138.007691 
L 113.267005 134.356338 
L 114.014589 130.905978 
L 114.986983 127.655222 
L 116.170853 124.602261 
L 117.553005 121.744893 
L 119.120396 119.080546 
L 120.86017 116.606301 
L 122.759678 114.318918 
L 124.806493 112.214861 
L 126.988445 110.290318 
L 129.293611 108.541224 
L 131.710378 106.963291 
L 134.227396 105.552011 
L 137.364666 104.071851 
L 140.612006 102.816503 
L 143.951676 101.777265 
L 147.366621 100.945178 
L 150.840541 100.311092 
L 154.947241 99.809135 
L 159.089621 99.549006 
L 163.245671 99.515584 
L 167.394801 99.693698 
L 172.103689 100.136862 
L 176.752236 100.814098 
L 181.316502 101.703243 
L 185.774914 102.782545 
L 190.640192 104.197612 
L 195.323132 105.797105 
L 199.803176 107.552769 
L 204.522211 109.653837 
L 208.950563 111.879217 
L 213.073789 114.19592 
L 216.88172 116.573227 
L 220.698985 119.224472 
L 224.124133 121.880353 
L 227.158804 124.509986 
L 229.808933 127.086006 
L 232.084243 129.58451 
L 234.154269 132.197713 
L 235.81438 134.672071 
L 237.088428 136.989747 
L 238.002803 139.137048 
L 238.585782 141.104136 
L 238.8543 142.743564 
L 238.892539 144.22381 
L 238.72405 145.544511 
L 238.372294 146.707168 
L 237.806695 147.799019 
L 237.079712 148.712609 
L 236.142591 149.510223 
L 235.082927 150.119542 
L 233.841022 150.580451 
L 232.434801 150.869679 
L 230.796103 150.970723 
L 229.06333 150.852755 
L 227.201274 150.500116 
L 225.29329 149.906619 
L 223.439942 149.091493 
L 221.749239 148.100061 
L 220.367616 147.039558 
L 219.304683 145.949385 
L 218.6453 144.97464 
L 218.33047 144.13183 
L 218.313571 143.497122 
L 218.508746 143.04096 
L 218.87561 142.737149 
L 219.411653 142.588638 
L 220.097859 142.633321 
L 220.849313 142.905556 
L 221.435479 143.340232 
L 221.650833 143.738329 
L 221.551027 143.924588 
L 221.297427 143.922321 
L 221.105435 143.7442 
L 221.10917 143.737171 
L 221.180424 143.739003 
L 221.180312 143.756 
" style="fill:none;stroke:#ff7f0e;stroke-linecap:square;stroke-width:0.5;"/>
   </g>
   <g id="line2d_27">
    <path clip-path="url(#pc7dd681327)" d="M 161.016444 276.812 
L 154.064453 269.733858 
L 147.490174 262.735653 
L 141.289263 255.825185 
L 135.456758 249.009904 
L 129.987378 242.29679 
L 124.875484 235.69239 
L 120.115077 229.202799 
L 115.699836 222.833686 
L 111.623142 216.590302 
L 107.878109 210.477507 
L 104.457606 204.499762 
L 101.354259 198.661144 
L 98.560505 192.965356 
L 96.068593 187.415734 
L 93.870592 182.015247 
L 91.958423 176.766518 
L 90.323881 171.67183 
L 88.958655 166.73314 
L 87.85432 161.95207 
L 87.002356 157.329928 
L 86.394207 152.86773 
L 86.021262 148.5662 
L 85.874893 144.425788 
L 85.94645 140.446674 
L 86.227282 136.628774 
L 86.708741 132.971756 
L 87.382206 129.475046 
L 88.239087 126.137839 
L 89.270848 122.959113 
L 90.469013 119.93764 
L 91.825175 117.071991 
L 93.331007 114.360547 
L 94.978287 111.801518 
L 96.758879 109.392937 
L 98.66475 107.132678 
L 100.688032 105.018482 
L 103.37038 102.577439 
L 106.209123 100.355838 
L 109.189745 98.348403 
L 112.298026 96.549571 
L 115.520196 94.953567 
L 118.842818 93.554381 
L 122.252905 92.345828 
L 125.737868 91.321556 
L 130.001584 90.326532 
L 134.335492 89.576085 
L 138.720365 89.058593 
L 143.13792 88.762297 
L 147.570826 88.675352 
L 152.002703 88.78587 
L 157.151414 89.148529 
L 162.254926 89.744985 
L 167.292163 90.55662 
L 172.243768 91.565039 
L 177.775349 92.935315 
L 183.148473 94.512655 
L 188.342288 96.27144 
L 193.338654 98.186909 
L 198.704313 100.49948 
L 203.782145 102.947859 
L 208.557613 105.501401 
L 213.019778 108.13129 
L 217.161062 110.810599 
L 221.380849 113.81524 
L 225.197168 116.818646 
L 228.612122 119.79237 
L 231.631435 122.710959 
L 234.264049 125.55191 
L 236.521733 128.2956 
L 238.418701 130.925197 
L 239.97124 133.426554 
L 241.197365 135.788091 
L 242.116481 138.00066 
L 242.749064 140.0574 
L 243.116366 141.953582 
L 243.240139 143.686457 
L 243.142381 145.255089 
L 242.845104 146.660193 
L 242.370126 147.903969 
L 241.667969 149.090035 
L 240.804453 150.091499 
L 239.806261 150.916129 
L 238.593589 151.624627 
L 237.169187 152.181847 
L 235.54741 152.55738 
L 233.754798 152.727596 
L 231.829859 152.677545 
L 229.821948 152.402542 
L 227.679995 151.876718 
L 225.596335 151.134978 
L 223.557454 150.168606 
L 221.746751 149.06673 
L 220.225588 147.892862 
L 219.037666 146.713014 
L 218.205488 145.590849 
L 217.739918 144.616994 
L 217.584582 143.815135 
L 217.677654 143.193358 
L 217.956748 142.747241 
L 218.415282 142.439713 
L 219.036919 142.298158 
L 219.813668 142.354626 
L 220.651047 142.638207 
L 221.364735 143.107092 
L 221.731392 143.58858 
L 221.72957 143.890998 
L 221.528996 143.993733 
L 221.206091 143.904313 
L 221.090542 143.734333 
L 221.12255 143.717311 
L 221.195865 143.755225 
L 221.180312 143.756 
" style="fill:none;stroke:#ff7f0e;stroke-linecap:square;stroke-width:0.5;"/>
   </g>
   <g id="line2d_28">
    <path clip-path="url(#pc7dd681327)" d="M 113.744325 276.812 
L 106.829633 268.353057 
L 100.365206 260.030364 
L 94.343806 251.851543 
L 88.75741 243.823874 
L 83.597718 235.954041 
L 78.856091 228.248193 
L 74.523583 220.711988 
L 70.590963 213.350622 
L 67.048719 206.168787 
L 63.887088 199.170693 
L 61.096098 192.360099 
L 58.66559 185.740329 
L 56.585239 179.314281 
L 54.844579 173.084439 
L 53.433022 167.05288 
L 52.339892 161.221298 
L 51.554399 155.590986 
L 51.065716 150.162882 
L 50.862955 144.937562 
L 50.935232 139.915272 
L 51.271651 135.095929 
L 51.861335 130.479138 
L 52.69343 126.064197 
L 53.757123 121.850114 
L 55.041668 117.835626 
L 56.536386 114.019196 
L 58.230692 110.399048 
L 60.114103 106.973159 
L 62.176246 103.739282 
L 64.40688 100.694962 
L 66.795902 97.837536 
L 69.33335 95.164161 
L 72.009434 92.671812 
L 74.814517 90.357298 
L 77.739141 88.217278 
L 80.774038 86.248266 
L 83.910119 84.446644 
L 87.138504 82.808674 
L 91.290574 80.985475 
L 95.556823 79.40423 
L 99.921273 78.056992 
L 104.368501 76.935636 
L 108.883622 76.031877 
L 113.45232 75.337307 
L 118.060843 74.843418 
L 122.696012 74.541625 
L 128.275691 74.420886 
L 133.854955 74.549368 
L 139.414345 74.912114 
L 144.935597 75.494211 
L 150.401643 76.280852 
L 155.796609 77.257379 
L 161.981341 78.617363 
L 168.027987 80.19354 
L 173.91728 81.963841 
L 179.632 83.906765 
L 185.156914 86.001453 
L 191.221706 88.555374 
L 197.004383 91.25228 
L 202.491087 94.064601 
L 207.670845 96.966173 
L 212.535413 99.932298 
L 217.079121 102.939779 
L 221.80329 106.345711 
L 226.116036 109.748095 
L 230.019381 113.120893 
L 233.518346 116.44054 
L 236.620648 119.685913 
L 239.336416 122.838284 
L 241.677898 125.88126 
L 243.659182 128.800702 
L 245.295934 131.58464 
L 246.605136 134.223185 
L 247.604843 136.708427 
L 248.313956 139.034323 
L 248.751997 141.196583 
L 248.938905 143.192553 
L 248.894849 145.021094 
L 248.640049 146.682464 
L 248.194614 148.178187 
L 247.5784 149.510944 
L 246.810878 150.684443 
L 245.803658 151.807198 
L 244.658162 152.746556 
L 243.267075 153.578222 
L 241.768072 154.210825 
L 240.043036 154.689784 
L 238.106872 154.980909 
L 235.987198 155.056788 
L 233.724412 154.898917 
L 231.370825 154.499536 
L 228.988746 153.862997 
L 226.647557 153.006445 
L 224.419876 151.95967 
L 222.377028 150.764004 
L 220.584144 149.470248 
L 219.095314 148.135674 
L 217.949231 146.820304 
L 217.190647 145.631022 
L 216.775638 144.597878 
L 216.653137 143.737401 
L 216.768806 143.054597 
L 217.068267 142.545087 
L 217.541819 142.174104 
L 218.18289 141.958123 
L 218.99418 141.92505 
L 219.934615 142.116956 
L 220.84578 142.526792 
L 221.550604 143.073167 
L 221.888621 143.586136 
L 221.878886 143.914383 
L 221.671982 144.048565 
L 221.324052 144.001217 
L 221.061393 143.770424 
L 221.100307 143.708273 
L 221.164691 143.719632 
L 221.199071 143.759862 
L 221.180312 143.756 
" style="fill:none;stroke:#ff7f0e;stroke-linecap:square;stroke-width:0.5;"/>
   </g>
   <g id="line2d_29">
    <path clip-path="url(#pc7dd681327)" d="M 52.039296 276.812 
L 50.271268 274.227473 
L 48.537603 271.655628 
L 46.838343 269.096653 
L 45.173331 266.550671 
L 43.542383 264.017811 
L 41.945352 261.498175 
" style="fill:none;stroke:#ff7f0e;stroke-linecap:square;stroke-width:0.5;"/>
   </g>
   <g id="line2d_30">
    <path clip-path="url(#pc7dd681327)" d="M 42.620313 233.970206 
L 41.424784 231.744259 
" style="fill:none;stroke:#ff7f0e;stroke-linecap:square;stroke-width:0.5;"/>
   </g>
   <g id="line2d_31">
    <path clip-path="url(#pc7dd681327)" d="M 42.620313 196.770356 
L 41.921496 194.91641 
" style="fill:none;stroke:#ff7f0e;stroke-linecap:square;stroke-width:0.5;"/>
   </g>
   <g id="line2d_32">
    <path clip-path="url(#pc7dd681327)" d="M 42.620313 165.569424 
L 42.338007 164.027431 
" style="fill:none;stroke:#ff7f0e;stroke-linecap:square;stroke-width:0.5;"/>
   </g>
   <g id="line2d_33">
    <path clip-path="url(#pc7dd681327)" d="M 42.620313 136.541913 
L 43.140597 131.614596 
L 43.919498 126.899481 
L 44.945975 122.395678 
L 46.208764 118.101981 
L 47.696444 114.016871 
L 49.397857 110.138563 
L 51.30195 106.465047 
L 53.397783 102.994068 
L 55.674551 99.723121 
L 58.121594 96.649486 
L 60.728399 93.770242 
L 63.484616 91.082284 
L 66.380063 88.582328 
L 69.404744 86.266927 
L 72.548841 84.13247 
L 75.802738 82.175208 
L 79.15703 80.391265 
L 82.602524 78.776651 
L 86.130244 77.327262 
L 90.642197 75.741444 
L 95.252369 74.398825 
L 99.944699 73.290758 
L 104.703757 72.408541 
L 109.514659 71.743256 
L 114.363162 71.285973 
L 119.235612 71.027653 
L 124.118962 70.95923 
L 129.975919 71.115004 
L 135.810384 71.515449 
L 141.603287 72.144925 
L 147.336808 72.987892 
L 152.994378 74.028967 
L 158.560644 75.252967 
L 164.920429 76.892251 
L 171.116401 78.73701 
L 177.130312 80.764617 
L 182.94605 82.953141 
L 188.549487 85.281343 
L 194.677943 88.086968 
L 200.498134 91.019102 
L 205.997984 94.049994 
L 211.168315 97.15342 
L 216.002686 100.304728 
L 220.49721 103.480871 
L 224.650383 106.660411 
L 228.915647 110.216853 
L 232.753924 113.72682 
L 236.172256 117.167144 
L 239.180325 120.517187 
L 241.79016 123.758789 
L 244.015831 126.876189 
L 245.873176 129.855945 
L 247.379515 132.686838 
L 248.553399 135.359767 
L 249.414355 137.867636 
L 249.982653 140.205238 
L 250.279082 142.369133 
L 250.324746 144.357521 
L 250.140874 146.170116 
L 249.748645 147.808016 
L 249.16903 149.273578 
L 248.422643 150.570291 
L 247.529614 151.702649 
L 246.38911 152.774633 
L 245.117446 153.658853 
L 243.596414 154.425944 
L 241.977231 154.990995 
L 240.132643 155.394137 
L 238.080855 155.602066 
L 235.85288 155.588736 
L 233.492469 155.337474 
L 231.055047 154.84277 
L 228.605609 154.111543 
L 226.215607 153.16371 
L 223.958929 152.031865 
L 221.90724 150.760006 
L 220.125 149.401261 
L 218.664604 148.014726 
L 217.562096 146.661576 
L 216.856348 145.449747 
L 216.499047 144.407217 
L 216.43541 143.548251 
L 216.608095 142.875548 
L 216.960417 142.382487 
L 217.484823 142.034164 
L 218.173186 141.846652 
L 219.026236 141.847754 
L 219.997741 142.077503 
L 220.922149 142.522278 
L 221.619947 143.093912 
L 221.933788 143.610015 
L 221.908063 143.931615 
L 221.690373 144.064298 
L 221.329525 144.01275 
L 221.056515 143.776112 
L 221.093298 143.706515 
L 221.15612 143.714198 
L 221.200239 143.759562 
L 221.180312 143.756 
" style="fill:none;stroke:#ff7f0e;stroke-linecap:square;stroke-width:0.5;"/>
   </g>
   <g id="line2d_34">
    <path clip-path="url(#pc7dd681327)" d="M 42.620313 106.813183 
L 44.704637 103.07475 
L 46.983899 99.546613 
L 49.447097 96.22617 
L 52.083062 93.110443 
L 54.880996 90.196229 
L 57.829947 87.480326 
L 60.919356 84.959219 
L 64.138915 82.629194 
L 67.478513 80.486391 
L 70.928212 78.526822 
L 74.478286 76.746377 
L 78.119223 75.140829 
L 81.841759 73.705844 
L 86.595904 72.145196 
L 91.446298 70.835257 
L 96.376421 69.766988 
L 101.37037 68.931209 
L 106.41286 68.318614 
L 111.489234 67.919813 
L 116.585458 67.725352 
L 121.68814 67.725739 
L 127.801967 67.970024 
L 133.885923 68.464831 
L 139.920495 69.193821 
L 145.887475 70.140849 
L 151.769962 71.289844 
L 157.552324 72.625055 
L 164.152779 74.397443 
L 170.576773 76.378081 
L 176.805847 78.543526 
L 182.823718 80.871065 
L 188.616193 83.338734 
L 194.171106 85.925385 
L 200.215663 89.001269 
L 205.924371 92.177264 
L 211.287958 95.426149 
L 216.299988 98.722346 
L 220.956679 102.041961 
L 225.256724 105.362789 
L 229.201107 108.664321 
L 233.217341 112.332118 
L 236.794723 115.927479 
L 239.943336 119.428811 
L 242.675714 122.817108 
L 245.006527 126.075868 
L 246.952293 129.191013 
L 248.53109 132.150789 
L 249.76228 134.945656 
L 250.666252 137.568173 
L 251.264174 140.012874 
L 251.577755 142.276139 
L 251.629042 144.356064 
L 251.440212 146.252328 
L 251.033394 147.96606 
L 250.430499 149.499701 
L 249.653071 150.856883 
L 248.72215 152.042286 
L 247.658153 153.06152 
L 246.343777 154.006935 
L 244.915219 154.764914 
L 243.241061 155.394909 
L 241.48877 155.826055 
L 239.521141 156.08816 
L 237.361076 156.150718 
L 235.043948 155.990977 
L 232.617272 155.595947 
L 230.139385 154.964039 
L 227.677108 154.106133 
L 225.302434 153.045908 
L 223.088388 151.819275 
L 221.104322 150.472857 
L 219.411006 149.061497 
L 218.055945 147.644921 
L 217.103675 146.339813 
L 216.515859 145.180633 
L 216.24596 144.188724 
L 216.242876 143.373972 
L 216.454049 142.73665 
L 216.848093 142.251891 
L 217.414083 141.917576 
L 218.142675 141.749606 
L 219.03315 141.775924 
L 220.011967 142.026738 
L 220.959668 142.498428 
L 221.656734 143.083595 
L 221.969224 143.609906 
L 221.940919 143.938974 
L 221.722357 144.076397 
L 221.358636 144.033322 
L 221.057666 143.797179 
L 221.079212 143.707534 
L 221.140651 143.707181 
L 221.201445 143.758841 
L 221.180312 143.756 
" style="fill:none;stroke:#ff7f0e;stroke-linecap:square;stroke-width:0.5;"/>
   </g>
   <g id="line2d_35">
    <path clip-path="url(#pc7dd681327)" d="M 42.620313 73.214173 
L 46.472044 70.819309 
L 50.446494 68.632545 
L 54.53309 66.649426 
L 58.720943 64.865044 
L 62.999385 63.274343 
L 67.358119 61.872223 
L 71.78717 60.653487 
L 76.276835 59.612862 
L 81.959929 58.554376 
L 87.70532 57.755243 
L 93.495847 57.204782 
L 99.315187 56.892201 
L 105.147802 56.806647 
L 110.978857 56.937247 
L 116.794211 57.273139 
L 122.580444 57.803497 
L 129.467671 58.681459 
L 136.274171 59.805478 
L 142.980863 61.157288 
L 149.570137 62.718893 
L 156.025817 64.472621 
L 162.333134 66.401158 
L 168.478695 68.487592 
L 175.428077 71.099363 
L 182.124064 73.878261 
L 188.552112 76.799841 
L 194.699928 79.840638 
L 200.557376 82.978206 
L 206.116378 86.191162 
L 211.370813 89.459209 
L 216.997569 93.23702 
L 222.217443 97.034936 
L 227.029616 100.828069 
L 231.435851 104.593466 
L 235.440273 108.310114 
L 239.049148 111.95891 
L 242.270705 115.52264 
L 245.114934 118.98594 
L 247.593365 122.335241 
L 249.718878 125.558719 
L 251.505533 128.646229 
L 252.9684 131.589246 
L 254.123381 134.380785 
L 254.987053 137.01533 
L 255.576503 139.48876 
L 255.909191 141.798258 
L 256.002805 143.942234 
L 255.875149 145.92023 
L 255.544024 147.732846 
L 255.02711 149.381653 
L 254.341869 150.869112 
L 253.505455 152.198482 
L 252.404648 153.510042 
L 251.156878 154.633212 
L 249.784455 155.575512 
L 248.139277 156.420466 
L 246.394324 157.064594 
L 244.390718 157.556698 
L 242.330135 157.839569 
L 240.051864 157.93134 
L 237.586818 157.803011 
L 234.978845 157.43458 
L 232.284022 156.817057 
L 229.568909 155.954009 
L 226.90771 154.862445 
L 224.378459 153.572848 
L 222.171277 152.205389 
L 220.204188 150.736219 
L 218.535681 149.218045 
L 217.265182 147.777709 
L 216.330677 146.390481 
L 215.765379 145.161607 
L 215.521759 144.109795 
L 215.54854 143.24319 
L 215.793443 142.561058 
L 216.205447 142.055489 
L 216.791738 141.688368 
L 217.555405 141.479979 
L 218.482123 141.463661 
L 219.518288 141.6693 
L 220.554835 142.0983 
L 221.431474 142.696122 
L 221.96061 143.30847 
L 222.105452 143.777719 
L 221.982942 144.040418 
L 221.694663 144.132737 
L 221.281417 144.025795 
L 221.029739 143.763619 
L 221.08925 143.694919 
L 221.135748 143.700419 
L 221.20447 143.759254 
L 221.180313 143.756 
" style="fill:none;stroke:#ff7f0e;stroke-linecap:square;stroke-width:0.5;"/>
   </g>
   <g id="line2d_36">
    <path clip-path="url(#pc7dd681327)" d="M 42.620313 30.737215 
L 48.706666 30.041058 
L 54.824643 29.550243 
L 60.963831 29.257907 
L 67.113644 29.156643 
L 73.263962 29.239069 
L 80.937831 29.589239 
L 88.57936 30.200672 
L 96.171554 31.059148 
L 103.698283 32.150526 
L 111.144318 33.46078 
L 118.495411 34.976033 
L 125.738283 36.682591 
L 132.860581 38.566966 
L 139.850848 40.615893 
L 148.050026 43.273497 
L 156.027175 46.127325 
L 163.767353 49.155982 
L 171.257307 52.338716 
L 178.485454 55.655429 
L 185.44178 59.086741 
L 192.11784 62.613977 
L 198.506646 66.219225 
L 204.602607 69.885351 
L 211.338859 74.217674 
L 217.666255 78.586054 
L 223.582504 82.967395 
L 229.087411 87.340096 
L 234.18275 91.684053 
L 238.872105 95.980657 
L 243.160741 100.212783 
L 247.055461 104.364769 
L 250.564471 108.422395 
L 253.697249 112.372847 
L 256.464411 116.204684 
L 258.877586 119.907798 
L 260.949291 123.473372 
L 262.692809 126.893839 
L 264.12208 130.162828 
L 265.251589 133.275115 
L 266.096257 136.226573 
L 266.671346 139.014112 
L 266.992361 141.635629 
L 267.074961 144.089947 
L 266.934873 146.37676 
L 266.587813 148.496573 
L 266.049418 150.450647 
L 265.335168 152.240945 
L 264.460332 153.87007 
L 263.439904 155.341212 
L 262.114227 156.833864 
L 260.638837 158.131362 
L 259.034313 159.240732 
L 257.320446 160.16962 
L 255.285199 161.00907 
L 253.161118 161.642714 
L 250.726087 162.120979 
L 248.241848 162.379112 
L 245.486058 162.430883 
L 242.739106 162.263496 
L 239.788281 161.860012 
L 236.684466 161.198473 
L 233.713662 160.341547 
L 230.698273 159.243024 
L 227.712418 157.912577 
L 225.006244 156.47222 
L 222.447456 154.865695 
L 220.110569 153.132667 
L 218.167381 151.421967 
L 216.527715 149.681367 
L 215.295733 148.052274 
L 214.44071 146.564493 
L 213.925833 145.238743 
L 213.710296 144.087536 
L 213.751163 143.116162 
L 214.004988 142.323723 
L 214.429185 141.704176 
L 215.01695 141.2265 
L 215.78163 140.890441 
L 216.737393 140.721804 
L 217.836648 140.757847 
L 219.03619 141.019971 
L 220.244836 141.512888 
L 221.297242 142.181456 
L 222.027366 142.899282 
L 222.363814 143.516952 
L 222.369302 143.944363 
L 222.16699 144.178902 
L 221.8032 144.251572 
L 221.32192 144.116031 
L 220.99526 143.817447 
L 221.028271 143.68285 
L 221.057339 143.675774 
L 221.212631 143.753974 
L 221.180313 143.756 
" style="fill:none;stroke:#ff7f0e;stroke-linecap:square;stroke-width:0.5;"/>
   </g>
   <g id="line2d_37">
    <path clip-path="url(#pc7dd681327)" d="M 85.442529 10.7 
L 94.31401 12.419189 
L 103.062036 14.374364 
L 111.671667 16.549888 
L 120.128441 18.929492 
L 128.419148 21.497373 
L 136.531642 24.238077 
L 144.454836 27.136499 
L 152.17866 30.177885 
L 159.694016 33.347851 
L 166.992752 36.632395 
L 175.45518 40.705974 
L 183.584515 44.902286 
L 191.371757 49.199526 
L 198.809626 53.576805 
L 205.892488 58.014172 
L 212.616275 62.492629 
L 218.978416 66.994138 
L 224.977756 71.501634 
L 230.61446 75.999024 
L 235.88995 80.471187 
L 240.806836 84.90397 
L 245.36883 89.284184 
L 249.580662 93.599587 
L 253.448015 97.838879 
L 256.977441 101.991684 
L 260.176288 106.048534 
L 263.501277 110.648846 
L 266.401275 115.094765 
L 268.891296 119.375698 
L 270.987275 123.482543 
L 272.705943 127.407643 
L 274.064677 131.144719 
L 274.95639 134.194475 
L 275.608332 137.100027 
L 276.032187 139.859625 
L 276.239757 142.472128 
L 276.242914 144.936976 
L 276.053547 147.254158 
L 275.683532 149.424177 
L 275.144682 151.448024 
L 274.318254 153.626383 
L 273.29633 155.61078 
L 272.096961 157.404942 
L 270.737815 159.013241 
L 269.236124 160.440636 
L 267.60863 161.692605 
L 265.871536 162.775084 
L 263.7721 163.81281 
L 261.572246 164.647456 
L 259.29322 165.289503 
L 256.659657 165.795126 
L 253.978117 166.086627 
L 250.972563 166.179062 
L 247.969751 166.049496 
L 244.7035 165.67724 
L 241.508217 165.092836 
L 238.137574 164.247154 
L 234.918254 163.219379 
L 231.632049 161.940463 
L 228.356701 160.416817 
L 225.378209 158.787996 
L 222.533954 156.975429 
L 220.057649 155.13965 
L 217.822111 153.202565 
L 215.996388 151.32889 
L 214.562982 149.553479 
L 213.497726 147.903714 
L 212.771333 146.399963 
L 212.350848 145.056136 
L 212.200967 143.88031 
L 212.285218 142.875401 
L 212.566994 142.039862 
L 213.042727 141.331676 
L 213.699704 140.772296 
L 214.514905 140.377165 
L 215.504195 140.147882 
L 216.677904 140.112161 
L 217.97038 140.300579 
L 219.325124 140.728501 
L 220.601091 141.368399 
L 221.626456 142.122718 
L 222.310846 142.884236 
L 222.617604 143.534236 
L 222.607537 143.981559 
L 222.391771 144.247612 
L 222.01634 144.35142 
L 221.501192 144.256901 
L 221.043935 143.958872 
L 220.959444 143.697149 
L 221.118184 143.670756 
L 221.21829 143.761879 
L 221.180313 143.756 
" style="fill:none;stroke:#ff7f0e;stroke-linecap:square;stroke-width:0.5;"/>
   </g>
   <g id="line2d_38">
    <path clip-path="url(#pc7dd681327)" d="M 138.56966 10.7 
L 147.375889 14.349074 
L 155.932752 18.135691 
L 164.231425 22.043936 
L 172.264233 26.058321 
L 180.024524 30.163869 
L 187.506666 34.346125 
L 194.706008 38.591165 
L 201.618766 42.885564 
L 209.531745 48.08587 
L 217.02459 53.317514 
L 224.095591 58.560394 
L 230.744627 63.795548 
L 236.973041 69.005137 
L 242.783566 74.172448 
L 248.180246 79.281898 
L 253.168321 84.319005 
L 257.754158 89.270385 
L 261.945187 94.123741 
L 265.749775 98.867835 
L 269.177132 103.492456 
L 272.237238 107.988405 
L 274.940789 112.347468 
L 277.2991 116.562388 
L 279.324033 120.626828 
L 281.027948 124.535367 
L 282.423583 128.283426 
L 283.524029 131.86727 
L 284.342624 135.283941 
L 284.892925 138.531238 
L 285.188623 141.607677 
L 285.243513 144.512462 
L 285.071427 147.245442 
L 284.686183 149.807078 
L 284.101546 152.198399 
L 283.331166 154.420972 
L 282.388554 156.476858 
L 281.287033 158.368584 
L 280.0397 160.099101 
L 278.659408 161.671754 
L 276.897762 163.311946 
L 274.991643 164.748742 
L 272.959835 165.989097 
L 270.820449 167.040424 
L 268.590875 167.910528 
L 265.953675 168.693476 
L 263.243991 169.262928 
L 260.484057 169.631798 
L 257.344943 169.823402 
L 254.19606 169.79673 
L 250.716435 169.534188 
L 247.287102 169.051523 
L 243.606023 168.296812 
L 240.051687 167.339806 
L 236.350948 166.102679 
L 232.863074 164.702577 
L 229.351523 163.045207 
L 226.138734 161.284622 
L 223.029317 159.31948 
L 220.292353 157.326876 
L 217.929164 155.346786 
L 215.805376 153.278258 
L 214.089507 151.299277 
L 212.76052 149.438638 
L 211.79224 147.718662 
L 211.154618 146.155624 
L 210.814893 144.760261 
L 210.738656 143.538315 
L 210.890796 142.491116 
L 211.236323 141.616162 
L 211.779586 140.866202 
L 212.46445 140.295343 
L 213.358097 139.850937 
L 214.391743 139.586075 
L 215.640217 139.505518 
L 216.992497 139.643989 
L 218.421398 140.012176 
L 219.815943 140.59484 
L 221.085278 141.363242 
L 222.061604 142.208817 
L 222.656936 143.005161 
L 222.876375 143.637709 
L 222.814021 144.080693 
L 222.56076 144.344691 
L 222.146429 144.448755 
L 221.595724 144.354417 
L 221.079811 144.051172 
L 220.904082 143.735756 
L 221.030748 143.642983 
L 221.225579 143.756187 
L 221.225575 143.756521 
L 221.204143 143.774415 
L 221.173055 143.755063 
L 221.173055 143.755063 
L 221.178073 143.753264 
L 221.180312 143.756 
" style="fill:none;stroke:#ff7f0e;stroke-linecap:square;stroke-width:0.5;"/>
   </g>
   <g id="line2d_39">
    <path clip-path="url(#pc7dd681327)" d="M 181.876284 10.7 
L 190.629328 15.922174 
L 199.030071 21.201345 
L 207.075155 26.521942 
L 214.762269 31.868869 
L 222.090094 37.227783 
L 229.058318 42.585058 
L 235.667489 47.927712 
L 241.918999 53.243427 
L 247.815051 58.52056 
L 253.358612 63.748131 
L 258.553361 68.915812 
L 263.403645 74.013925 
L 267.914436 79.033433 
L 272.091292 83.96593 
L 275.9403 88.80363 
L 279.46807 93.539362 
L 282.681658 98.166551 
L 285.588573 102.679213 
L 288.196705 107.071939 
L 290.51426 111.339866 
L 292.549774 115.478683 
L 294.312029 119.48459 
L 295.810043 123.354304 
L 297.053047 127.085029 
L 298.050445 130.674447 
L 298.811784 134.1207 
L 299.346723 137.422366 
L 299.665004 140.578452 
L 299.776417 143.588361 
L 299.690782 146.451885 
L 299.417912 149.169181 
L 298.967607 151.740756 
L 298.349615 154.167445 
L 297.573622 156.4504 
L 296.649226 158.591065 
L 295.357413 160.974481 
L 293.881725 163.158953 
L 292.238023 165.148435 
L 290.441833 166.947334 
L 288.508309 168.560465 
L 286.452203 169.99301 
L 284.287835 171.250483 
L 281.644379 172.504018 
L 278.893613 173.536814 
L 276.055803 174.35891 
L 273.150258 174.98066 
L 269.770154 175.459521 
L 266.351223 175.706671 
L 262.917468 175.738406 
L 259.064407 175.536996 
L 255.249715 175.106907 
L 251.499619 174.471149 
L 247.43706 173.551034 
L 243.511446 172.435178 
L 239.380323 171.016517 
L 235.471191 169.433589 
L 231.805673 167.721624 
L 228.104125 165.74562 
L 224.727305 163.695031 
L 221.445886 161.431321 
L 218.560284 159.163849 
L 216.067911 156.928959 
L 213.960276 154.758047 
L 212.105146 152.522047 
L 210.658086 150.418093 
L 209.592207 148.467353 
L 208.877175 146.685432 
L 208.480211 145.082812 
L 208.36701 143.665334 
L 208.485384 142.516421 
L 208.820607 141.457606 
L 209.337723 140.579085 
L 210.003529 139.873346 
L 210.846048 139.297891 
L 211.852097 138.874521 
L 213.067473 138.609784 
L 214.462486 138.543953 
L 215.983342 138.701246 
L 217.554627 139.085038 
L 219.140225 139.700353 
L 220.612488 140.512028 
L 221.810444 141.419887 
L 222.664464 142.332908 
L 223.136663 143.141688 
L 223.269262 143.774476 
L 223.148981 144.218505 
L 222.853 144.489281 
L 222.386885 144.605002 
L 221.779202 144.519953 
L 221.171928 144.214291 
L 220.853844 143.83554 
L 220.904802 143.637954 
L 221.120939 143.645854 
L 221.23391 143.765876 
L 221.180312 143.756 
" style="fill:none;stroke:#ff7f0e;stroke-linecap:square;stroke-width:0.5;"/>
   </g>
   <g id="line2d_40">
    <path clip-path="url(#pc7dd681327)" d="M 221.180312 10.7 
L 229.885174 17.349804 
L 238.144315 23.983417 
L 245.959337 30.585531 
L 253.332815 37.141728 
L 260.268272 43.638262 
L 266.770199 50.06206 
L 272.843888 56.40101 
L 278.495374 62.643752 
L 283.73148 68.779766 
L 288.559714 74.799316 
L 292.9882 80.69341 
L 297.025633 86.453792 
L 300.681237 92.07294 
L 303.964725 97.544039 
L 306.886246 102.860971 
L 309.456313 108.018287 
L 311.685794 113.011194 
L 313.585901 117.835555 
L 315.168073 122.487831 
L 316.443962 126.965076 
L 317.425385 131.264906 
L 318.124294 135.385485 
L 318.55276 139.325506 
L 318.722924 143.084167 
L 318.646976 146.661154 
L 318.337108 150.056606 
L 317.805487 153.271101 
L 317.06422 156.305626 
L 316.125341 159.16156 
L 315.000772 161.840648 
L 313.702311 164.344985 
L 312.241605 166.676987 
L 310.630133 168.839374 
L 308.879176 170.835147 
L 306.999806 172.667566 
L 305.002879 174.340133 
L 302.466276 176.141455 
L 299.793481 177.724759 
L 297.001721 179.097203 
L 294.107707 180.266281 
L 291.127471 181.239742 
L 288.076462 182.025584 
L 284.447166 182.716185 
L 280.763955 183.175802 
L 277.047882 183.417866 
L 273.318765 183.455951 
L 269.064632 183.267154 
L 264.843209 182.849985 
L 260.677933 182.224567 
L 256.085523 181.296751 
L 251.618174 180.15819 
L 247.299706 178.835841 
L 242.700985 177.182657 
L 238.33526 175.368962 
L 234.221872 173.427276 
L 230.006492 171.180107 
L 226.129177 168.853102 
L 222.599093 166.481211 
L 219.420475 164.096249 
L 216.35337 161.513167 
L 213.698514 158.981515 
L 211.445272 156.529785 
L 209.578765 154.182168 
L 208.080557 151.958713 
L 206.929304 149.875515 
L 206.101378 147.944944 
L 205.571439 146.175904 
L 205.312977 144.574104 
L 205.298796 143.142345 
L 205.501463 141.880804 
L 205.89371 140.787333 
L 206.448784 139.857743 
L 207.203806 139.028707 
L 208.08797 138.375544 
L 209.150508 137.856059 
L 210.377812 137.493893 
L 211.832542 137.301149 
L 213.394155 137.315766 
L 215.095754 137.550926 
L 216.863454 138.017452 
L 218.605338 138.702465 
L 220.220118 139.568161 
L 221.608922 140.554035 
L 222.688659 141.582836 
L 223.388632 142.541389 
L 223.721002 143.344 
L 223.756513 143.966446 
L 223.57138 144.405726 
L 223.214773 144.686666 
L 222.686808 144.809312 
L 222.009167 144.729065 
L 221.316526 144.426053 
L 220.846002 143.995879 
L 220.772414 143.680531 
L 220.93756 143.584148 
L 221.20789 143.685228 
L 221.242026 143.775389 
L 221.180313 143.756 
" style="fill:none;stroke:#ff7f0e;stroke-linecap:square;stroke-width:0.5;"/>
   </g>
   <g id="line2d_41">
    <path clip-path="url(#pc7dd681327)" d="M 221.180313 143.756 
" style="fill:none;stroke:#ff7f0e;stroke-linecap:square;stroke-width:1.5;"/>
   </g>
   <g id="line2d_42">
    <defs>
     <path d="M 0 3 
C 0.795609 3 1.55874 2.683901 2.12132 2.12132 
C 2.683901 1.55874 3 0.795609 3 0 
C 3 -0.795609 2.683901 -1.55874 2.12132 -2.12132 
C 1.55874 -2.683901 0.795609 -3 0 -3 
C -0.795609 -3 -1.55874 -2.683901 -2.12132 -2.12132 
C -2.683901 -1.55874 -3 -0.795609 -3 0 
C -3 0.795609 -2.683901 1.55874 -2.12132 2.12132 
C -1.55874 2.683901 -0.795609 3 0 3 
z
" id="mfaa57d4153" style="stroke:#ff0000;"/>
    </defs>
    <g clip-path="url(#pc7dd681327)">
     <use style="fill:#ff0000;stroke:#ff0000;" x="221.180313" xlink:href="#mfaa57d4153" y="143.756"/>
    </g>
   </g>
   <g id="patch_56">
    <path d="M 42.620313 276.812 
L 42.620313 10.7 
" style="fill:none;stroke:#000000;stroke-linecap:square;stroke-linejoin:miter;stroke-width:0.8;"/>
   </g>
   <g id="patch_57">
    <path d="M 399.740313 276.812 
L 399.740313 10.7 
" style="fill:none;stroke:#000000;stroke-linecap:square;stroke-linejoin:miter;stroke-width:0.8;"/>
   </g>
   <g id="patch_58">
    <path d="M 42.620313 276.812 
L 399.740313 276.812 
" style="fill:none;stroke:#000000;stroke-linecap:square;stroke-linejoin:miter;stroke-width:0.8;"/>
   </g>
   <g id="patch_59">
    <path d="M 42.620313 10.7 
L 399.740313 10.7 
" style="fill:none;stroke:#000000;stroke-linecap:square;stroke-linejoin:miter;stroke-width:0.8;"/>
   </g>
   <g id="legend_1">
    <g id="patch_60">
     <path d="M 249.800312 273.812 
L 395.540313 273.812 
Q 396.740313 273.812 396.740313 272.612 
L 396.740313 255.35825 
Q 396.740313 254.15825 395.540313 254.15825 
L 249.800312 254.15825 
Q 248.600313 254.15825 248.600313 255.35825 
L 248.600313 272.612 
Q 248.600313 273.812 249.800312 273.812 
z
" style="fill:#ffffff;opacity:0.8;stroke:#cccccc;stroke-linejoin:miter;"/>
    </g>
    <g id="line2d_43">
     <path d="M 251.000313 259.017312 
L 263.000313 259.017312 
" style="fill:none;stroke:#ff7f0e;stroke-linecap:square;stroke-width:1.5;"/>
    </g>
    <g id="line2d_44"/>
    <g id="text_13">
     <!-- system zlinearyzowany -->
     <defs>
      <path d="M 44.28125 53.078125 
L 44.28125 44.578125 
Q 40.484375 46.53125 36.375 47.5 
Q 32.28125 48.484375 27.875 48.484375 
Q 21.1875 48.484375 17.84375 46.4375 
Q 14.5 44.390625 14.5 40.28125 
Q 14.5 37.15625 16.890625 35.375 
Q 19.28125 33.59375 26.515625 31.984375 
L 29.59375 31.296875 
Q 39.15625 29.25 43.1875 25.515625 
Q 47.21875 21.78125 47.21875 15.09375 
Q 47.21875 7.46875 41.1875 3.015625 
Q 35.15625 -1.421875 24.609375 -1.421875 
Q 20.21875 -1.421875 15.453125 -0.5625 
Q 10.6875 0.296875 5.421875 2 
L 5.421875 11.28125 
Q 10.40625 8.6875 15.234375 7.390625 
Q 20.0625 6.109375 24.8125 6.109375 
Q 31.15625 6.109375 34.5625 8.28125 
Q 37.984375 10.453125 37.984375 14.40625 
Q 37.984375 18.0625 35.515625 20.015625 
Q 33.0625 21.96875 24.703125 23.78125 
L 21.578125 24.515625 
Q 13.234375 26.265625 9.515625 29.90625 
Q 5.8125 33.546875 5.8125 39.890625 
Q 5.8125 47.609375 11.28125 51.796875 
Q 16.75 56 26.8125 56 
Q 31.78125 56 36.171875 55.265625 
Q 40.578125 54.546875 44.28125 53.078125 
" id="DejaVuSans-73"/>
      <path d="M 32.171875 -5.078125 
Q 28.375 -14.84375 24.75 -17.8125 
Q 21.140625 -20.796875 15.09375 -20.796875 
L 7.90625 -20.796875 
L 7.90625 -13.28125 
L 13.1875 -13.28125 
Q 16.890625 -13.28125 18.9375 -11.515625 
Q 21 -9.765625 23.484375 -3.21875 
L 25.09375 0.875 
L 2.984375 54.6875 
L 12.5 54.6875 
L 29.59375 11.921875 
L 46.6875 54.6875 
L 56.203125 54.6875 
z
" id="DejaVuSans-79"/>
      <path d="M 18.3125 70.21875 
L 18.3125 54.6875 
L 36.8125 54.6875 
L 36.8125 47.703125 
L 18.3125 47.703125 
L 18.3125 18.015625 
Q 18.3125 11.328125 20.140625 9.421875 
Q 21.96875 7.515625 27.59375 7.515625 
L 36.8125 7.515625 
L 36.8125 0 
L 27.59375 0 
Q 17.1875 0 13.234375 3.875 
Q 9.28125 7.765625 9.28125 18.015625 
L 9.28125 47.703125 
L 2.6875 47.703125 
L 2.6875 54.6875 
L 9.28125 54.6875 
L 9.28125 70.21875 
z
" id="DejaVuSans-74"/>
      <path d="M 56.203125 29.59375 
L 56.203125 25.203125 
L 14.890625 25.203125 
Q 15.484375 15.921875 20.484375 11.0625 
Q 25.484375 6.203125 34.421875 6.203125 
Q 39.59375 6.203125 44.453125 7.46875 
Q 49.3125 8.734375 54.109375 11.28125 
L 54.109375 2.78125 
Q 49.265625 0.734375 44.1875 -0.34375 
Q 39.109375 -1.421875 33.890625 -1.421875 
Q 20.796875 -1.421875 13.15625 6.1875 
Q 5.515625 13.8125 5.515625 26.8125 
Q 5.515625 40.234375 12.765625 48.109375 
Q 20.015625 56 32.328125 56 
Q 43.359375 56 49.78125 48.890625 
Q 56.203125 41.796875 56.203125 29.59375 
M 47.21875 32.234375 
Q 47.125 39.59375 43.09375 43.984375 
Q 39.0625 48.390625 32.421875 48.390625 
Q 24.90625 48.390625 20.390625 44.140625 
Q 15.875 39.890625 15.1875 32.171875 
z
" id="DejaVuSans-65"/>
      <path d="M 52 44.1875 
Q 55.375 50.25 60.0625 53.125 
Q 64.75 56 71.09375 56 
Q 79.640625 56 84.28125 50.015625 
Q 88.921875 44.046875 88.921875 33.015625 
L 88.921875 0 
L 79.890625 0 
L 79.890625 32.71875 
Q 79.890625 40.578125 77.09375 44.375 
Q 74.3125 48.1875 68.609375 48.1875 
Q 61.625 48.1875 57.5625 43.546875 
Q 53.515625 38.921875 53.515625 30.90625 
L 53.515625 0 
L 44.484375 0 
L 44.484375 32.71875 
Q 44.484375 40.625 41.703125 44.40625 
Q 38.921875 48.1875 33.109375 48.1875 
Q 26.21875 48.1875 22.15625 43.53125 
Q 18.109375 38.875 18.109375 30.90625 
L 18.109375 0 
L 9.078125 0 
L 9.078125 54.6875 
L 18.109375 54.6875 
L 18.109375 46.1875 
Q 21.1875 51.21875 25.484375 53.609375 
Q 29.78125 56 35.6875 56 
Q 41.65625 56 45.828125 52.96875 
Q 50 49.953125 52 44.1875 
" id="DejaVuSans-6d"/>
      <path id="DejaVuSans-20"/>
      <path d="M 5.515625 54.6875 
L 48.1875 54.6875 
L 48.1875 46.484375 
L 14.40625 7.171875 
L 48.1875 7.171875 
L 48.1875 0 
L 4.296875 0 
L 4.296875 8.203125 
L 38.09375 47.515625 
L 5.515625 47.515625 
z
" id="DejaVuSans-7a"/>
      <path d="M 9.421875 75.984375 
L 18.40625 75.984375 
L 18.40625 0 
L 9.421875 0 
z
" id="DejaVuSans-6c"/>
      <path d="M 9.421875 54.6875 
L 18.40625 54.6875 
L 18.40625 0 
L 9.421875 0 
z
M 9.421875 75.984375 
L 18.40625 75.984375 
L 18.40625 64.59375 
L 9.421875 64.59375 
z
" id="DejaVuSans-69"/>
      <path d="M 54.890625 33.015625 
L 54.890625 0 
L 45.90625 0 
L 45.90625 32.71875 
Q 45.90625 40.484375 42.875 44.328125 
Q 39.84375 48.1875 33.796875 48.1875 
Q 26.515625 48.1875 22.3125 43.546875 
Q 18.109375 38.921875 18.109375 30.90625 
L 18.109375 0 
L 9.078125 0 
L 9.078125 54.6875 
L 18.109375 54.6875 
L 18.109375 46.1875 
Q 21.34375 51.125 25.703125 53.5625 
Q 30.078125 56 35.796875 56 
Q 45.21875 56 50.046875 50.171875 
Q 54.890625 44.34375 54.890625 33.015625 
" id="DejaVuSans-6e"/>
      <path d="M 34.28125 27.484375 
Q 23.390625 27.484375 19.1875 25 
Q 14.984375 22.515625 14.984375 16.5 
Q 14.984375 11.71875 18.140625 8.90625 
Q 21.296875 6.109375 26.703125 6.109375 
Q 34.1875 6.109375 38.703125 11.40625 
Q 43.21875 16.703125 43.21875 25.484375 
L 43.21875 27.484375 
z
M 52.203125 31.203125 
L 52.203125 0 
L 43.21875 0 
L 43.21875 8.296875 
Q 40.140625 3.328125 35.546875 0.953125 
Q 30.953125 -1.421875 24.3125 -1.421875 
Q 15.921875 -1.421875 10.953125 3.296875 
Q 6 8.015625 6 15.921875 
Q 6 25.140625 12.171875 29.828125 
Q 18.359375 34.515625 30.609375 34.515625 
L 43.21875 34.515625 
L 43.21875 35.40625 
Q 43.21875 41.609375 39.140625 45 
Q 35.0625 48.390625 27.6875 48.390625 
Q 23 48.390625 18.546875 47.265625 
Q 14.109375 46.140625 10.015625 43.890625 
L 10.015625 52.203125 
Q 14.9375 54.109375 19.578125 55.046875 
Q 24.21875 56 28.609375 56 
Q 40.484375 56 46.34375 49.84375 
Q 52.203125 43.703125 52.203125 31.203125 
" id="DejaVuSans-61"/>
      <path d="M 41.109375 46.296875 
Q 39.59375 47.171875 37.8125 47.578125 
Q 36.03125 48 33.890625 48 
Q 26.265625 48 22.1875 43.046875 
Q 18.109375 38.09375 18.109375 28.8125 
L 18.109375 0 
L 9.078125 0 
L 9.078125 54.6875 
L 18.109375 54.6875 
L 18.109375 46.1875 
Q 20.953125 51.171875 25.484375 53.578125 
Q 30.03125 56 36.53125 56 
Q 37.453125 56 38.578125 55.875 
Q 39.703125 55.765625 41.0625 55.515625 
z
" id="DejaVuSans-72"/>
      <path d="M 30.609375 48.390625 
Q 23.390625 48.390625 19.1875 42.75 
Q 14.984375 37.109375 14.984375 27.296875 
Q 14.984375 17.484375 19.15625 11.84375 
Q 23.34375 6.203125 30.609375 6.203125 
Q 37.796875 6.203125 41.984375 11.859375 
Q 46.1875 17.53125 46.1875 27.296875 
Q 46.1875 37.015625 41.984375 42.703125 
Q 37.796875 48.390625 30.609375 48.390625 
M 30.609375 56 
Q 42.328125 56 49.015625 48.375 
Q 55.71875 40.765625 55.71875 27.296875 
Q 55.71875 13.875 49.015625 6.21875 
Q 42.328125 -1.421875 30.609375 -1.421875 
Q 18.84375 -1.421875 12.171875 6.21875 
Q 5.515625 13.875 5.515625 27.296875 
Q 5.515625 40.765625 12.171875 48.375 
Q 18.84375 56 30.609375 56 
" id="DejaVuSans-6f"/>
      <path d="M 4.203125 54.6875 
L 13.1875 54.6875 
L 24.421875 12.015625 
L 35.59375 54.6875 
L 46.1875 54.6875 
L 57.421875 12.015625 
L 68.609375 54.6875 
L 77.59375 54.6875 
L 63.28125 0 
L 52.6875 0 
L 40.921875 44.828125 
L 29.109375 0 
L 18.5 0 
z
" id="DejaVuSans-77"/>
     </defs>
     <g transform="translate(267.800313 261.117312)scale(0.06 -0.06)">
      <use xlink:href="#DejaVuSans-73"/>
      <use x="52.099609" xlink:href="#DejaVuSans-79"/>
      <use x="111.279297" xlink:href="#DejaVuSans-73"/>
      <use x="163.378906" xlink:href="#DejaVuSans-74"/>
      <use x="202.587891" xlink:href="#DejaVuSans-65"/>
      <use x="264.111328" xlink:href="#DejaVuSans-6d"/>
      <use x="361.523438" xlink:href="#DejaVuSans-20"/>
      <use x="393.310547" xlink:href="#DejaVuSans-7a"/>
      <use x="445.800781" xlink:href="#DejaVuSans-6c"/>
      <use x="473.583984" xlink:href="#DejaVuSans-69"/>
      <use x="501.367188" xlink:href="#DejaVuSans-6e"/>
      <use x="564.746094" xlink:href="#DejaVuSans-65"/>
      <use x="626.269531" xlink:href="#DejaVuSans-61"/>
      <use x="687.548828" xlink:href="#DejaVuSans-72"/>
      <use x="728.662109" xlink:href="#DejaVuSans-79"/>
      <use x="787.841797" xlink:href="#DejaVuSans-7a"/>
      <use x="840.332031" xlink:href="#DejaVuSans-6f"/>
      <use x="901.513672" xlink:href="#DejaVuSans-77"/>
      <use x="983.300781" xlink:href="#DejaVuSans-61"/>
      <use x="1044.580078" xlink:href="#DejaVuSans-6e"/>
      <use x="1107.958984" xlink:href="#DejaVuSans-79"/>
     </g>
    </g>
    <g id="line2d_45"/>
    <g id="line2d_46">
     <g>
      <use style="fill:#ff0000;stroke:#ff0000;" x="257.000313" xlink:href="#mfaa57d4153" y="268.064187"/>
     </g>
    </g>
    <g id="text_14">
     <!-- Punkt równowagi asymptotycznie stabilny -->
     <defs>
      <path d="M 19.671875 64.796875 
L 19.671875 37.40625 
L 32.078125 37.40625 
Q 38.96875 37.40625 42.71875 40.96875 
Q 46.484375 44.53125 46.484375 51.125 
Q 46.484375 57.671875 42.71875 61.234375 
Q 38.96875 64.796875 32.078125 64.796875 
z
M 9.8125 72.90625 
L 32.078125 72.90625 
Q 44.34375 72.90625 50.609375 67.359375 
Q 56.890625 61.8125 56.890625 51.125 
Q 56.890625 40.328125 50.609375 34.8125 
Q 44.34375 29.296875 32.078125 29.296875 
L 19.671875 29.296875 
L 19.671875 0 
L 9.8125 0 
z
" id="DejaVuSans-50"/>
      <path d="M 8.5 21.578125 
L 8.5 54.6875 
L 17.484375 54.6875 
L 17.484375 21.921875 
Q 17.484375 14.15625 20.5 10.265625 
Q 23.53125 6.390625 29.59375 6.390625 
Q 36.859375 6.390625 41.078125 11.03125 
Q 45.3125 15.671875 45.3125 23.6875 
L 45.3125 54.6875 
L 54.296875 54.6875 
L 54.296875 0 
L 45.3125 0 
L 45.3125 8.40625 
Q 42.046875 3.421875 37.71875 1 
Q 33.40625 -1.421875 27.6875 -1.421875 
Q 18.265625 -1.421875 13.375 4.4375 
Q 8.5 10.296875 8.5 21.578125 
M 31.109375 56 
z
" id="DejaVuSans-75"/>
      <path d="M 9.078125 75.984375 
L 18.109375 75.984375 
L 18.109375 31.109375 
L 44.921875 54.6875 
L 56.390625 54.6875 
L 27.390625 29.109375 
L 57.625 0 
L 45.90625 0 
L 18.109375 26.703125 
L 18.109375 0 
L 9.078125 0 
z
" id="DejaVuSans-6b"/>
      <path d="M 30.609375 48.390625 
Q 23.390625 48.390625 19.1875 42.75 
Q 14.984375 37.109375 14.984375 27.296875 
Q 14.984375 17.484375 19.15625 11.84375 
Q 23.34375 6.203125 30.609375 6.203125 
Q 37.796875 6.203125 41.984375 11.859375 
Q 46.1875 17.53125 46.1875 27.296875 
Q 46.1875 37.015625 41.984375 42.703125 
Q 37.796875 48.390625 30.609375 48.390625 
M 30.609375 56 
Q 42.328125 56 49.015625 48.375 
Q 55.71875 40.765625 55.71875 27.296875 
Q 55.71875 13.875 49.015625 6.21875 
Q 42.328125 -1.421875 30.609375 -1.421875 
Q 18.84375 -1.421875 12.171875 6.21875 
Q 5.515625 13.875 5.515625 27.296875 
Q 5.515625 40.765625 12.171875 48.375 
Q 18.84375 56 30.609375 56 
M 37.40625 79.984375 
L 47.125 79.984375 
L 31.21875 61.625 
L 23.734375 61.625 
z
" id="DejaVuSans-f3"/>
      <path d="M 45.40625 27.984375 
Q 45.40625 37.75 41.375 43.109375 
Q 37.359375 48.484375 30.078125 48.484375 
Q 22.859375 48.484375 18.828125 43.109375 
Q 14.796875 37.75 14.796875 27.984375 
Q 14.796875 18.265625 18.828125 12.890625 
Q 22.859375 7.515625 30.078125 7.515625 
Q 37.359375 7.515625 41.375 12.890625 
Q 45.40625 18.265625 45.40625 27.984375 
M 54.390625 6.78125 
Q 54.390625 -7.171875 48.1875 -13.984375 
Q 42 -20.796875 29.203125 -20.796875 
Q 24.46875 -20.796875 20.265625 -20.09375 
Q 16.0625 -19.390625 12.109375 -17.921875 
L 12.109375 -9.1875 
Q 16.0625 -11.328125 19.921875 -12.34375 
Q 23.78125 -13.375 27.78125 -13.375 
Q 36.625 -13.375 41.015625 -8.765625 
Q 45.40625 -4.15625 45.40625 5.171875 
L 45.40625 9.625 
Q 42.625 4.78125 38.28125 2.390625 
Q 33.9375 0 27.875 0 
Q 17.828125 0 11.671875 7.65625 
Q 5.515625 15.328125 5.515625 27.984375 
Q 5.515625 40.671875 11.671875 48.328125 
Q 17.828125 56 27.875 56 
Q 33.9375 56 38.28125 53.609375 
Q 42.625 51.21875 45.40625 46.390625 
L 45.40625 54.6875 
L 54.390625 54.6875 
z
" id="DejaVuSans-67"/>
      <path d="M 18.109375 8.203125 
L 18.109375 -20.796875 
L 9.078125 -20.796875 
L 9.078125 54.6875 
L 18.109375 54.6875 
L 18.109375 46.390625 
Q 20.953125 51.265625 25.265625 53.625 
Q 29.59375 56 35.59375 56 
Q 45.5625 56 51.78125 48.09375 
Q 58.015625 40.1875 58.015625 27.296875 
Q 58.015625 14.40625 51.78125 6.484375 
Q 45.5625 -1.421875 35.59375 -1.421875 
Q 29.59375 -1.421875 25.265625 0.953125 
Q 20.953125 3.328125 18.109375 8.203125 
M 48.6875 27.296875 
Q 48.6875 37.203125 44.609375 42.84375 
Q 40.53125 48.484375 33.40625 48.484375 
Q 26.265625 48.484375 22.1875 42.84375 
Q 18.109375 37.203125 18.109375 27.296875 
Q 18.109375 17.390625 22.1875 11.75 
Q 26.265625 6.109375 33.40625 6.109375 
Q 40.53125 6.109375 44.609375 11.75 
Q 48.6875 17.390625 48.6875 27.296875 
" id="DejaVuSans-70"/>
      <path d="M 48.78125 52.59375 
L 48.78125 44.1875 
Q 44.96875 46.296875 41.140625 47.34375 
Q 37.3125 48.390625 33.40625 48.390625 
Q 24.65625 48.390625 19.8125 42.84375 
Q 14.984375 37.3125 14.984375 27.296875 
Q 14.984375 17.28125 19.8125 11.734375 
Q 24.65625 6.203125 33.40625 6.203125 
Q 37.3125 6.203125 41.140625 7.25 
Q 44.96875 8.296875 48.78125 10.40625 
L 48.78125 2.09375 
Q 45.015625 0.34375 40.984375 -0.53125 
Q 36.96875 -1.421875 32.421875 -1.421875 
Q 20.0625 -1.421875 12.78125 6.34375 
Q 5.515625 14.109375 5.515625 27.296875 
Q 5.515625 40.671875 12.859375 48.328125 
Q 20.21875 56 33.015625 56 
Q 37.15625 56 41.109375 55.140625 
Q 45.0625 54.296875 48.78125 52.59375 
" id="DejaVuSans-63"/>
      <path d="M 48.6875 27.296875 
Q 48.6875 37.203125 44.609375 42.84375 
Q 40.53125 48.484375 33.40625 48.484375 
Q 26.265625 48.484375 22.1875 42.84375 
Q 18.109375 37.203125 18.109375 27.296875 
Q 18.109375 17.390625 22.1875 11.75 
Q 26.265625 6.109375 33.40625 6.109375 
Q 40.53125 6.109375 44.609375 11.75 
Q 48.6875 17.390625 48.6875 27.296875 
M 18.109375 46.390625 
Q 20.953125 51.265625 25.265625 53.625 
Q 29.59375 56 35.59375 56 
Q 45.5625 56 51.78125 48.09375 
Q 58.015625 40.1875 58.015625 27.296875 
Q 58.015625 14.40625 51.78125 6.484375 
Q 45.5625 -1.421875 35.59375 -1.421875 
Q 29.59375 -1.421875 25.265625 0.953125 
Q 20.953125 3.328125 18.109375 8.203125 
L 18.109375 0 
L 9.078125 0 
L 9.078125 75.984375 
L 18.109375 75.984375 
z
" id="DejaVuSans-62"/>
     </defs>
     <g transform="translate(267.800313 270.164187)scale(0.06 -0.06)">
      <use xlink:href="#DejaVuSans-50"/>
      <use x="60.287109" xlink:href="#DejaVuSans-75"/>
      <use x="123.666016" xlink:href="#DejaVuSans-6e"/>
      <use x="187.044922" xlink:href="#DejaVuSans-6b"/>
      <use x="244.955078" xlink:href="#DejaVuSans-74"/>
      <use x="284.164062" xlink:href="#DejaVuSans-20"/>
      <use x="315.951172" xlink:href="#DejaVuSans-72"/>
      <use x="357.033203" xlink:href="#DejaVuSans-f3"/>
      <use x="418.214844" xlink:href="#DejaVuSans-77"/>
      <use x="500.001953" xlink:href="#DejaVuSans-6e"/>
      <use x="563.380859" xlink:href="#DejaVuSans-6f"/>
      <use x="624.5625" xlink:href="#DejaVuSans-77"/>
      <use x="706.349609" xlink:href="#DejaVuSans-61"/>
      <use x="767.628906" xlink:href="#DejaVuSans-67"/>
      <use x="831.105469" xlink:href="#DejaVuSans-69"/>
      <use x="858.888672" xlink:href="#DejaVuSans-20"/>
      <use x="890.675781" xlink:href="#DejaVuSans-61"/>
      <use x="951.955078" xlink:href="#DejaVuSans-73"/>
      <use x="1004.054688" xlink:href="#DejaVuSans-79"/>
      <use x="1063.234375" xlink:href="#DejaVuSans-6d"/>
      <use x="1160.646484" xlink:href="#DejaVuSans-70"/>
      <use x="1224.123047" xlink:href="#DejaVuSans-74"/>
      <use x="1263.332031" xlink:href="#DejaVuSans-6f"/>
      <use x="1324.513672" xlink:href="#DejaVuSans-74"/>
      <use x="1363.722656" xlink:href="#DejaVuSans-79"/>
      <use x="1422.902344" xlink:href="#DejaVuSans-63"/>
      <use x="1477.882812" xlink:href="#DejaVuSans-7a"/>
      <use x="1530.373047" xlink:href="#DejaVuSans-6e"/>
      <use x="1593.751953" xlink:href="#DejaVuSans-69"/>
      <use x="1621.535156" xlink:href="#DejaVuSans-65"/>
      <use x="1683.058594" xlink:href="#DejaVuSans-20"/>
      <use x="1714.845703" xlink:href="#DejaVuSans-73"/>
      <use x="1766.945312" xlink:href="#DejaVuSans-74"/>
      <use x="1806.154297" xlink:href="#DejaVuSans-61"/>
      <use x="1867.433594" xlink:href="#DejaVuSans-62"/>
      <use x="1930.910156" xlink:href="#DejaVuSans-69"/>
      <use x="1958.693359" xlink:href="#DejaVuSans-6c"/>
      <use x="1986.476562" xlink:href="#DejaVuSans-6e"/>
      <use x="2049.855469" xlink:href="#DejaVuSans-79"/>
     </g>
    </g>
   </g>
  </g>
 </g>
 <defs>
  <clipPath id="pc7dd681327">
   <rect height="266.112" width="357.12" x="42.620313" y="10.7"/>
  </clipPath>
 </defs>
</svg>
