<?xml version="1.0" encoding="utf-8" standalone="no"?>
<!DOCTYPE svg PUBLIC "-//W3C//DTD SVG 1.1//EN"
  "http://www.w3.org/Graphics/SVG/1.1/DTD/svg11.dtd">
<!-- Created with matplotlib (http://matplotlib.org/) -->
<svg height="314pt" version="1.1" viewBox="0 0 410 314" width="410pt" xmlns="http://www.w3.org/2000/svg" xmlns:xlink="http://www.w3.org/1999/xlink">
 <defs>
  <style type="text/css">
*{stroke-linecap:butt;stroke-linejoin:round;}
  </style>
 </defs>
 <g id="figure_1">
  <g id="patch_1">
   <path d="M 0 314.36825 
L 410.440313 314.36825 
L 410.440313 0 
L 0 0 
z
" style="fill:#ffffff;"/>
  </g>
  <g id="axes_1">
   <g id="patch_2">
    <path d="M 42.620313 276.812 
L 399.740313 276.812 
L 399.740313 10.7 
L 42.620313 10.7 
z
" style="fill:#ffffff;"/>
   </g>
   <g id="patch_3">
    <path clip-path="url(#p9fe615b8b7)" d="M 284.583293 114.997582 
L 280.254676 109.997199 
L 283.786838 109.708519 
L 283.821901 109.702648 
L 283.822338 109.705618 
L 287.3545 109.416938 
z
" style="fill:#1f77b4;stroke:#000000;stroke-linejoin:miter;"/>
   </g>
   <g id="patch_4">
    <path clip-path="url(#p9fe615b8b7)" d="M 243.531271 208.697165 
L 251.47135 208.063782 
L 250.229572 210.544648 
L 250.217987 210.56983 
L 250.217092 210.569581 
L 248.975314 213.050447 
z
" style="fill:#1f77b4;stroke:#000000;stroke-linejoin:miter;"/>
   </g>
   <g id="patch_5">
    <path clip-path="url(#p9fe615b8b7)" d="M 292.028598 131.436511 
L 288.162813 126.229809 
L 291.713069 126.11945 
L 291.748538 126.114565 
L 291.74875 126.118341 
L 295.299006 126.007983 
z
" style="fill:#1f77b4;stroke:#000000;stroke-linejoin:miter;"/>
   </g>
   <g id="patch_6">
    <path clip-path="url(#p9fe615b8b7)" d="M 228.442755 210.538696 
L 236.201624 211.946104 
L 233.905894 213.96711 
L 233.88376 213.988014 
L 233.882822 213.987422 
L 231.587092 216.008428 
z
" style="fill:#1f77b4;stroke:#000000;stroke-linejoin:miter;"/>
   </g>
   <g id="patch_7">
    <path clip-path="url(#p9fe615b8b7)" d="M 299.662901 157.260797 
L 296.251811 151.880557 
L 299.804272 151.939583 
L 299.840117 151.935445 
L 299.839975 151.940177 
L 303.392436 151.999203 
z
" style="fill:#1f77b4;stroke:#000000;stroke-linejoin:miter;"/>
   </g>
   <g id="patch_8">
    <path clip-path="url(#p9fe615b8b7)" d="M 209.253741 211.620422 
L 216.72119 213.728656 
L 214.109133 215.52377 
L 214.08384 215.542586 
L 214.082882 215.541812 
L 211.470825 217.336926 
z
" style="fill:#1f77b4;stroke:#000000;stroke-linejoin:miter;"/>
   </g>
   <g id="patch_9">
    <path clip-path="url(#p9fe615b8b7)" d="M 309.122316 198.217935 
L 306.168604 192.689515 
L 309.709192 192.913676 
L 309.745477 192.90978 
L 309.744775 192.915929 
L 313.285363 193.14009 
z
" style="fill:#1f77b4;stroke:#000000;stroke-linejoin:miter;"/>
   </g>
   <g id="patch_10">
    <path clip-path="url(#p9fe615b8b7)" d="M 180.055194 208.176298 
L 186.301801 211.883223 
L 183.078811 212.998127 
L 183.047339 213.010808 
L 183.046419 213.009332 
L 179.823429 214.124236 
z
" style="fill:#1f77b4;stroke:#000000;stroke-linejoin:miter;"/>
   </g>
   <g id="patch_11">
    <path clip-path="url(#p9fe615b8b7)" d="M 329.954396 87.56002 
L 326.075576 82.358703 
L 329.62555 82.243407 
L 329.660487 82.229583 
L 329.661228 82.242248 
L 333.211202 82.126952 
z
" style="fill:#1f77b4;stroke:#000000;stroke-linejoin:miter;"/>
   </g>
   <g id="patch_12">
    <path clip-path="url(#p9fe615b8b7)" d="M 331.049848 176.0633 
L 327.674874 170.670427 
L 331.226894 170.742678 
L 331.263037 170.731297 
L 331.262593 170.743404 
L 334.814614 170.815656 
z
" style="fill:#1f77b4;stroke:#000000;stroke-linejoin:miter;"/>
   </g>
   <g id="patch_13">
    <path clip-path="url(#p9fe615b8b7)" d="M 358.522149 87.383405 
L 354.806233 82.116464 
L 358.35884 82.06254 
L 358.393879 82.037666 
L 358.394544 82.061998 
L 361.947151 82.008075 
z
" style="fill:#1f77b4;stroke:#000000;stroke-linejoin:miter;"/>
   </g>
   <g id="patch_14">
    <path clip-path="url(#p9fe615b8b7)" d="M 359.322458 160.247141 
L 355.820579 154.899386 
L 359.373756 154.925022 
L 359.409777 154.901407 
L 359.409467 154.92528 
L 362.962644 154.950916 
z
" style="fill:#1f77b4;stroke:#000000;stroke-linejoin:miter;"/>
   </g>
   <g id="patch_15">
    <path clip-path="url(#p9fe615b8b7)" d="M 395.657241 64.395459 
L 391.997879 59.106577 
L 395.55095 59.073792 
L 395.585849 59.024708 
L 395.586659 59.073463 
L 399.139731 59.040678 
z
" style="fill:#1f77b4;stroke:#000000;stroke-linejoin:miter;"/>
   </g>
   <g id="patch_16">
    <path clip-path="url(#p9fe615b8b7)" d="M 396.478966 161.809454 
L 392.962546 156.466999 
L 396.515786 156.487268 
L 396.551991 156.439434 
L 396.551497 156.487472 
L 400.104737 156.507741 
z
" style="fill:#1f77b4;stroke:#000000;stroke-linejoin:miter;"/>
   </g>
   <g id="patch_17">
    <path clip-path="url(#p9fe615b8b7)" d="M 399.605986 178.82684 
L 396.112954 173.475872 
L 399.666086 173.504772 
L 399.702534 173.454696 
L 399.701796 173.505062 
L 403.254928 173.533962 
z
" style="fill:#1f77b4;stroke:#000000;stroke-linejoin:miter;"/>
   </g>
   <g id="patch_18">
    <path clip-path="url(#p9fe615b8b7)" d="M 398.792856 229.190859 
L 395.375124 223.812959 
L 398.927656 223.86955 
L 398.964765 223.821147 
L 398.96336 223.870119 
L 402.515892 223.92671 
z
" style="fill:#1f77b4;stroke:#000000;stroke-linejoin:miter;"/>
   </g>
   <g id="patch_19">
    <path clip-path="url(#p9fe615b8b7)" d="M 399.710209 144.862288 
L 396.168858 139.528985 
L 399.722171 139.540039 
L 399.758168 139.489209 
L 399.757883 139.54015 
L 403.311196 139.551204 
z
" style="fill:#1f77b4;stroke:#000000;stroke-linejoin:miter;"/>
   </g>
   <g id="patch_20">
    <path clip-path="url(#p9fe615b8b7)" d="M 399.351299 195.802244 
L 395.883117 190.442308 
L 399.436094 190.480362 
L 399.472765 190.430834 
L 399.471802 190.480745 
L 403.024779 190.518798 
z
" style="fill:#1f77b4;stroke:#000000;stroke-linejoin:miter;"/>
   </g>
   <g id="patch_21">
    <path clip-path="url(#p9fe615b8b7)" d="M 399.685886 161.964516 
L 396.168701 156.62234 
L 399.721944 156.642327 
L 399.758168 156.591853 
L 399.757655 156.642528 
L 403.310897 156.662515 
z
" style="fill:#1f77b4;stroke:#000000;stroke-linejoin:miter;"/>
   </g>
   <g id="patch_22">
    <path clip-path="url(#p9fe615b8b7)" d="M 399.098198 212.637803 
L 395.655149 207.268877 
L 399.207926 207.316174 
L 399.244818 207.267189 
L 399.243632 207.316649 
L 402.796409 207.363946 
z
" style="fill:#1f77b4;stroke:#000000;stroke-linejoin:miter;"/>
   </g>
   <g id="patch_23">
    <path clip-path="url(#p9fe615b8b7)" d="M 399.660685 179.497481 
L 396.168583 174.146177 
L 399.721711 174.175419 
L 399.758167 174.125311 
L 399.75742 174.175713 
L 403.310548 174.204955 
z
" style="fill:#1f77b4;stroke:#000000;stroke-linejoin:miter;"/>
   </g>
   <g id="patch_24">
    <path clip-path="url(#p9fe615b8b7)" d="M 398.838235 229.897454 
L 395.421474 224.519212 
L 398.973996 224.576159 
L 399.011114 224.527732 
L 399.0097 224.576731 
L 402.562222 224.633678 
z
" style="fill:#1f77b4;stroke:#000000;stroke-linejoin:miter;"/>
   </g>
   <g id="patch_25">
    <path clip-path="url(#p9fe615b8b7)" d="M 399.633665 198.093609 
L 396.168508 192.732587 
L 399.721464 192.771754 
L 399.758167 192.722035 
L 399.757172 192.772148 
L 403.310127 192.811315 
z
" style="fill:#1f77b4;stroke:#000000;stroke-linejoin:miter;"/>
   </g>
   <g id="patch_26">
    <path clip-path="url(#p9fe615b8b7)" d="M 398.561987 248.203922 
L 395.173697 242.815688 
L 398.72589 242.883067 
L 398.763248 242.835233 
L 398.761591 242.883744 
L 402.313784 242.951124 
z
" style="fill:#1f77b4;stroke:#000000;stroke-linejoin:miter;"/>
   </g>
   <g id="patch_27">
    <path clip-path="url(#p9fe615b8b7)" d="M 399.603599 218.542308 
L 396.168487 213.17056 
L 399.721192 213.220773 
L 399.758165 213.171482 
L 399.756898 213.221277 
L 403.309603 213.271489 
z
" style="fill:#1f77b4;stroke:#000000;stroke-linejoin:miter;"/>
   </g>
   <g id="patch_28">
    <path clip-path="url(#p9fe615b8b7)" d="M 398.257583 268.334052 
L 394.901319 262.934699 
L 398.453078 263.013789 
L 398.490698 262.966608 
L 398.488774 263.014584 
L 402.040532 263.093674 
z
" style="fill:#1f77b4;stroke:#000000;stroke-linejoin:miter;"/>
   </g>
   <g id="patch_29">
    <path clip-path="url(#p9fe615b8b7)" d="M 170.913676 193.173635 
L 176.280736 197.579676 
L 172.859369 198.294605 
L 172.825703 198.303702 
L 172.824983 198.301791 
L 169.403617 199.01672 
z
" style="fill:#1f77b4;stroke:#000000;stroke-linejoin:miter;"/>
   </g>
   <g id="patch_30">
    <path clip-path="url(#p9fe615b8b7)" d="M 177.963691 92.654688 
L 177.279787 98.58327 
L 174.249354 97.200654 
L 174.218267 97.187525 
L 174.218897 97.186759 
L 171.188464 95.804143 
z
" style="fill:#1f77b4;stroke:#000000;stroke-linejoin:miter;"/>
   </g>
   <g id="patch_31">
    <path clip-path="url(#p9fe615b8b7)" d="M 162.080158 180.627486 
L 166.726007 185.467217 
L 163.216522 185.881949 
L 163.181799 185.888693 
L 163.181251 185.886118 
L 159.671766 186.30085 
z
" style="fill:#1f77b4;stroke:#000000;stroke-linejoin:miter;"/>
   </g>
   <g id="patch_32">
    <path clip-path="url(#p9fe615b8b7)" d="M 191.644775 80.913036 
L 184.898767 84.097126 
L 184.54056 81.4628 
L 184.536123 81.436387 
L 184.53696 81.436324 
L 184.178753 78.801998 
z
" style="fill:#1f77b4;stroke:#000000;stroke-linejoin:miter;"/>
   </g>
   <g id="patch_33">
    <path clip-path="url(#p9fe615b8b7)" d="M 153.835756 163.096011 
L 157.884814 168.224782 
L 154.339711 168.405003 
L 154.30439 168.410181 
L 154.304082 168.406814 
L 150.758978 168.587035 
z
" style="fill:#1f77b4;stroke:#000000;stroke-linejoin:miter;"/>
   </g>
   <g id="patch_34">
    <path clip-path="url(#p9fe615b8b7)" d="M 206.388971 77.809607 
L 198.47048 77.040662 
L 200.456963 74.845262 
L 200.476006 74.822735 
L 200.476928 74.823198 
L 202.463411 72.627798 
z
" style="fill:#1f77b4;stroke:#000000;stroke-linejoin:miter;"/>
   </g>
   <g id="patch_35">
    <path clip-path="url(#p9fe615b8b7)" d="M 146.624348 144.112973 
L 150.255876 149.412498 
L 146.70266 149.43491 
L 146.666997 149.439354 
L 146.666949 149.435135 
L 143.113732 149.457548 
z
" style="fill:#1f77b4;stroke:#000000;stroke-linejoin:miter;"/>
   </g>
   <g id="patch_36">
    <path clip-path="url(#p9fe615b8b7)" d="M 222.389666 76.242897 
L 214.767881 74.467638 
L 217.232804 72.56049 
L 217.256626 72.54064 
L 217.257577 72.541323 
L 219.7225 70.634174 
z
" style="fill:#1f77b4;stroke:#000000;stroke-linejoin:miter;"/>
   </g>
   <g id="patch_37">
    <path clip-path="url(#p9fe615b8b7)" d="M 138.163341 114.148559 
L 141.3733 119.597085 
L 137.824392 119.464819 
L 137.788362 119.468888 
L 137.788725 119.46349 
L 134.239817 119.331225 
z
" style="fill:#1f77b4;stroke:#000000;stroke-linejoin:miter;"/>
   </g>
   <g id="patch_38">
    <path clip-path="url(#p9fe615b8b7)" d="M 246.579705 76.286065 
L 239.459458 73.592182 
L 242.315224 72.016583 
L 242.342969 71.999786 
L 242.343925 72.000748 
L 245.19969 70.425149 
z
" style="fill:#1f77b4;stroke:#000000;stroke-linejoin:miter;"/>
   </g>
   <g id="patch_39">
    <path clip-path="url(#p9fe615b8b7)" d="M 123.250686 193.890344 
L 127.199272 199.06243 
L 123.651027 199.204233 
L 123.616047 199.215118 
L 123.615366 199.205658 
L 120.067122 199.347462 
z
" style="fill:#1f77b4;stroke:#000000;stroke-linejoin:miter;"/>
   </g>
   <g id="patch_40">
    <path clip-path="url(#p9fe615b8b7)" d="M 121.956873 118.203843 
L 125.331625 123.596793 
L 121.779607 123.52446 
L 121.743576 123.532797 
L 121.743909 123.523733 
L 118.191891 123.4514 
z
" style="fill:#1f77b4;stroke:#000000;stroke-linejoin:miter;"/>
   </g>
   <g id="patch_41">
    <path clip-path="url(#p9fe615b8b7)" d="M 99.345265 204.495254 
L 103.149985 209.726873 
L 99.598573 209.814162 
L 99.56365 209.832439 
L 99.56288 209.81504 
L 96.011468 209.90233 
z
" style="fill:#1f77b4;stroke:#000000;stroke-linejoin:miter;"/>
   </g>
   <g id="patch_42">
    <path clip-path="url(#p9fe615b8b7)" d="M 98.19605 117.559003 
L 101.642772 122.926619 
L 98.089963 122.880672 
L 98.053863 122.897114 
L 98.054256 122.88021 
L 94.501447 122.834263 
z
" style="fill:#1f77b4;stroke:#000000;stroke-linejoin:miter;"/>
   </g>
   <g id="patch_43">
    <path clip-path="url(#p9fe615b8b7)" d="M 66.401476 203.784998 
L 70.072781 209.069283 
L 66.519788 209.106524 
L 66.484727 209.141198 
L 66.48408 209.106898 
L 62.931087 209.14414 
z
" style="fill:#1f77b4;stroke:#000000;stroke-linejoin:miter;"/>
   </g>
   <g id="patch_44">
    <path clip-path="url(#p9fe615b8b7)" d="M 65.71045 135.260909 
L 69.239165 140.598861 
L 65.685883 140.583134 
L 65.649902 140.616833 
L 65.650172 140.582976 
L 62.096891 140.56725 
z
" style="fill:#1f77b4;stroke:#000000;stroke-linejoin:miter;"/>
   </g>
   <g id="patch_45">
    <path clip-path="url(#p9fe615b8b7)" d="M 42.638326 151.218454 
L 46.191673 156.547325 
L 42.63834 156.540711 
L 42.602457 156.591719 
L 42.602628 156.540644 
L 39.049295 156.53403 
z
" style="fill:#1f77b4;stroke:#000000;stroke-linejoin:miter;"/>
   </g>
   <g id="patch_46">
    <path clip-path="url(#p9fe615b8b7)" d="M 42.882712 100.144916 
L 46.363302 105.500384 
L 42.810242 105.466899 
L 42.773682 105.516699 
L 42.774533 105.466563 
L 39.221473 105.433078 
z
" style="fill:#1f77b4;stroke:#000000;stroke-linejoin:miter;"/>
   </g>
   <g id="patch_47">
    <path clip-path="url(#p9fe615b8b7)" d="M 42.66252 134.116196 
L 46.19185 139.453921 
L 42.638567 139.438422 
L 42.602457 139.489075 
L 42.602856 139.438267 
L 39.049573 139.422767 
z
" style="fill:#1f77b4;stroke:#000000;stroke-linejoin:miter;"/>
   </g>
   <g id="patch_48">
    <path clip-path="url(#p9fe615b8b7)" d="M 43.135555 83.309259 
L 46.591255 88.673669 
L 43.038372 88.631023 
L 43.00159 88.68028 
L 43.002665 88.630594 
L 39.449781 88.587948 
z
" style="fill:#1f77b4;stroke:#000000;stroke-linejoin:miter;"/>
   </g>
   <g id="patch_49">
    <path clip-path="url(#p9fe615b8b7)" d="M 42.687176 116.871987 
L 46.191988 122.218675 
L 42.638797 122.194121 
L 42.602457 122.244414 
L 42.603086 122.193874 
L 39.049895 122.16932 
z
" style="fill:#1f77b4;stroke:#000000;stroke-linejoin:miter;"/>
   </g>
   <g id="patch_50">
    <path clip-path="url(#p9fe615b8b7)" d="M 43.391 66.333965 
L 46.821109 71.707487 
L 43.268451 71.655438 
L 43.231447 71.704147 
L 43.232746 71.654915 
L 39.680089 71.602865 
z
" style="fill:#1f77b4;stroke:#000000;stroke-linejoin:miter;"/>
   </g>
   <g id="patch_51">
    <path clip-path="url(#p9fe615b8b7)" d="M 42.713155 98.893619 
L 46.192085 104.249685 
L 42.639036 104.215589 
L 42.602458 104.265506 
L 42.603327 104.215246 
L 39.050277 104.18115 
z
" style="fill:#1f77b4;stroke:#000000;stroke-linejoin:miter;"/>
   </g>
   <g id="patch_52">
    <path clip-path="url(#p9fe615b8b7)" d="M 43.657814 48.635744 
L 47.060688 54.018872 
L 43.508319 53.956834 
L 43.471083 54.00497 
L 43.472617 53.956211 
L 39.920248 53.894173 
z
" style="fill:#1f77b4;stroke:#000000;stroke-linejoin:miter;"/>
   </g>
   <g id="patch_53">
    <path clip-path="url(#p9fe615b8b7)" d="M 42.741519 79.48461 
L 46.192135 84.850837 
L 42.639293 84.806321 
L 42.602459 84.855832 
L 42.603586 84.805874 
L 39.050745 84.761358 
z
" style="fill:#1f77b4;stroke:#000000;stroke-linejoin:miter;"/>
   </g>
   <g id="patch_54">
    <path clip-path="url(#p9fe615b8b7)" d="M 43.946427 29.529198 
L 47.319254 34.922817 
L 43.767262 34.84978 
L 43.729777 34.897297 
L 43.731563 34.849046 
L 40.179572 34.77601 
z
" style="fill:#1f77b4;stroke:#000000;stroke-linejoin:miter;"/>
   </g>
   <g id="patch_55">
    <path clip-path="url(#p9fe615b8b7)" d="M 42.773717 57.726016 
L 46.192121 63.103678 
L 42.639582 63.047334 
L 42.602461 63.096388 
L 42.603878 63.046767 
L 39.051338 62.990423 
z
" style="fill:#1f77b4;stroke:#000000;stroke-linejoin:miter;"/>
   </g>
   <g id="patch_56">
    <path clip-path="url(#p9fe615b8b7)" d="M 44.27071 8.1092 
L 47.609041 13.514722 
L 44.057556 13.429086 
L 44.019792 13.475909 
L 44.021863 13.428225 
L 40.470378 13.342589 
z
" style="fill:#1f77b4;stroke:#000000;stroke-linejoin:miter;"/>
   </g>
   <g id="patch_57">
    <path clip-path="url(#p9fe615b8b7)" d="M 267.514222 87.545363 
L 261.757149 83.421755 
L 265.105277 82.534954 
L 265.138116 82.524343 
L 265.138927 82.526041 
L 268.487055 81.63924 
z
" style="fill:#1f77b4;stroke:#000000;stroke-linejoin:miter;"/>
   </g>
   <g id="patch_58">
    <path clip-path="url(#p9fe615b8b7)" d="M 267.741055 189.019192 
L 267.166758 183.084155 
L 270.451021 184.094906 
L 270.484577 184.104075 
L 270.484029 184.105064 
L 273.768291 185.115815 
z
" style="fill:#1f77b4;stroke:#000000;stroke-linejoin:miter;"/>
   </g>
   <g id="patch_59">
    <path clip-path="url(#p9fe615b8b7)" d="M 275.752324 100.051909 
L 270.751343 95.412867 
L 274.224309 94.852874 
L 274.258571 94.845037 
L 274.259213 94.847246 
L 277.732179 94.287254 
z
" style="fill:#1f77b4;stroke:#000000;stroke-linejoin:miter;"/>
   </g>
   <g id="patch_60">
    <path clip-path="url(#p9fe615b8b7)" d="M 258.813768 201.974049 
L 262.051627 196.534698 
L 264.312519 198.577394 
L 264.33598 198.59747 
L 264.335241 198.597924 
L 266.596133 200.64062 
z
" style="fill:#1f77b4;stroke:#000000;stroke-linejoin:miter;"/>
   </g>
   <g id="patch_61">
    <path clip-path="url(#p9fe615b8b7)" d="M 284.583418 114.997245 
L 280.254795 109.996865 
L 283.786956 109.708182 
L 283.822018 109.702311 
L 283.822456 109.705281 
L 287.354617 109.416598 
z
" style="fill:#1f77b4;stroke:#000000;stroke-linejoin:miter;"/>
   </g>
   <g id="patch_62">
    <path clip-path="url(#p9fe615b8b7)" d="M 243.531255 208.697956 
L 251.471326 208.064515 
L 250.229581 210.54539 
L 250.217996 210.570572 
L 250.217101 210.570323 
L 248.975357 213.051198 
z
" style="fill:#1f77b4;stroke:#000000;stroke-linejoin:miter;"/>
   </g>
   <g id="matplotlib.axis_1">
    <g id="xtick_1">
     <g id="line2d_1">
      <defs>
       <path d="M 0 0 
L 0 3.5 
" id="m72b6e0d00a" style="stroke:#000000;stroke-width:0.8;"/>
      </defs>
      <g>
       <use style="stroke:#000000;stroke-width:0.8;" x="78.332313" xlink:href="#m72b6e0d00a" y="276.812"/>
      </g>
     </g>
     <g id="text_1">
      <!-- −4 -->
      <defs>
       <path d="M 10.59375 35.5 
L 73.1875 35.5 
L 73.1875 27.203125 
L 10.59375 27.203125 
z
" id="DejaVuSans-2212"/>
       <path d="M 37.796875 64.3125 
L 12.890625 25.390625 
L 37.796875 25.390625 
z
M 35.203125 72.90625 
L 47.609375 72.90625 
L 47.609375 25.390625 
L 58.015625 25.390625 
L 58.015625 17.1875 
L 47.609375 17.1875 
L 47.609375 0 
L 37.796875 0 
L 37.796875 17.1875 
L 4.890625 17.1875 
L 4.890625 26.703125 
z
" id="DejaVuSans-34"/>
      </defs>
      <g transform="translate(70.961219 291.410438)scale(0.1 -0.1)">
       <use xlink:href="#DejaVuSans-2212"/>
       <use x="83.789062" xlink:href="#DejaVuSans-34"/>
      </g>
     </g>
    </g>
    <g id="xtick_2">
     <g id="line2d_2">
      <g>
       <use style="stroke:#000000;stroke-width:0.8;" x="149.756313" xlink:href="#m72b6e0d00a" y="276.812"/>
      </g>
     </g>
     <g id="text_2">
      <!-- −2 -->
      <defs>
       <path d="M 19.1875 8.296875 
L 53.609375 8.296875 
L 53.609375 0 
L 7.328125 0 
L 7.328125 8.296875 
Q 12.9375 14.109375 22.625 23.890625 
Q 32.328125 33.6875 34.8125 36.53125 
Q 39.546875 41.84375 41.421875 45.53125 
Q 43.3125 49.21875 43.3125 52.78125 
Q 43.3125 58.59375 39.234375 62.25 
Q 35.15625 65.921875 28.609375 65.921875 
Q 23.96875 65.921875 18.8125 64.3125 
Q 13.671875 62.703125 7.8125 59.421875 
L 7.8125 69.390625 
Q 13.765625 71.78125 18.9375 73 
Q 24.125 74.21875 28.421875 74.21875 
Q 39.75 74.21875 46.484375 68.546875 
Q 53.21875 62.890625 53.21875 53.421875 
Q 53.21875 48.921875 51.53125 44.890625 
Q 49.859375 40.875 45.40625 35.40625 
Q 44.1875 33.984375 37.640625 27.21875 
Q 31.109375 20.453125 19.1875 8.296875 
" id="DejaVuSans-32"/>
      </defs>
      <g transform="translate(142.385219 291.410438)scale(0.1 -0.1)">
       <use xlink:href="#DejaVuSans-2212"/>
       <use x="83.789062" xlink:href="#DejaVuSans-32"/>
      </g>
     </g>
    </g>
    <g id="xtick_3">
     <g id="line2d_3">
      <g>
       <use style="stroke:#000000;stroke-width:0.8;" x="221.180313" xlink:href="#m72b6e0d00a" y="276.812"/>
      </g>
     </g>
     <g id="text_3">
      <!-- 0 -->
      <defs>
       <path d="M 31.78125 66.40625 
Q 24.171875 66.40625 20.328125 58.90625 
Q 16.5 51.421875 16.5 36.375 
Q 16.5 21.390625 20.328125 13.890625 
Q 24.171875 6.390625 31.78125 6.390625 
Q 39.453125 6.390625 43.28125 13.890625 
Q 47.125 21.390625 47.125 36.375 
Q 47.125 51.421875 43.28125 58.90625 
Q 39.453125 66.40625 31.78125 66.40625 
M 31.78125 74.21875 
Q 44.046875 74.21875 50.515625 64.515625 
Q 56.984375 54.828125 56.984375 36.375 
Q 56.984375 17.96875 50.515625 8.265625 
Q 44.046875 -1.421875 31.78125 -1.421875 
Q 19.53125 -1.421875 13.0625 8.265625 
Q 6.59375 17.96875 6.59375 36.375 
Q 6.59375 54.828125 13.0625 64.515625 
Q 19.53125 74.21875 31.78125 74.21875 
" id="DejaVuSans-30"/>
      </defs>
      <g transform="translate(217.999063 291.410438)scale(0.1 -0.1)">
       <use xlink:href="#DejaVuSans-30"/>
      </g>
     </g>
    </g>
    <g id="xtick_4">
     <g id="line2d_4">
      <g>
       <use style="stroke:#000000;stroke-width:0.8;" x="292.604312" xlink:href="#m72b6e0d00a" y="276.812"/>
      </g>
     </g>
     <g id="text_4">
      <!-- 2 -->
      <g transform="translate(289.423063 291.410438)scale(0.1 -0.1)">
       <use xlink:href="#DejaVuSans-32"/>
      </g>
     </g>
    </g>
    <g id="xtick_5">
     <g id="line2d_5">
      <g>
       <use style="stroke:#000000;stroke-width:0.8;" x="364.028313" xlink:href="#m72b6e0d00a" y="276.812"/>
      </g>
     </g>
     <g id="text_5">
      <!-- 4 -->
      <g transform="translate(360.847063 291.410438)scale(0.1 -0.1)">
       <use xlink:href="#DejaVuSans-34"/>
      </g>
     </g>
    </g>
    <g id="text_6">
     <!-- x1 -->
     <defs>
      <path d="M 54.890625 54.6875 
L 35.109375 28.078125 
L 55.90625 0 
L 45.3125 0 
L 29.390625 21.484375 
L 13.484375 0 
L 2.875 0 
L 24.125 28.609375 
L 4.6875 54.6875 
L 15.28125 54.6875 
L 29.78125 35.203125 
L 44.28125 54.6875 
z
" id="DejaVuSans-78"/>
      <path d="M 12.40625 8.296875 
L 28.515625 8.296875 
L 28.515625 63.921875 
L 10.984375 60.40625 
L 10.984375 69.390625 
L 28.421875 72.90625 
L 38.28125 72.90625 
L 38.28125 8.296875 
L 54.390625 8.296875 
L 54.390625 0 
L 12.40625 0 
z
" id="DejaVuSans-31"/>
     </defs>
     <g transform="translate(215.039688 305.088562)scale(0.1 -0.1)">
      <use xlink:href="#DejaVuSans-78"/>
      <use x="59.179688" xlink:href="#DejaVuSans-31"/>
     </g>
    </g>
   </g>
   <g id="matplotlib.axis_2">
    <g id="ytick_1">
     <g id="line2d_6">
      <defs>
       <path d="M 0 0 
L -3.5 0 
" id="mb356180679" style="stroke:#000000;stroke-width:0.8;"/>
      </defs>
      <g>
       <use style="stroke:#000000;stroke-width:0.8;" x="42.620313" xlink:href="#mb356180679" y="250.2008"/>
      </g>
     </g>
     <g id="text_7">
      <!-- −4 -->
      <g transform="translate(20.878125 254.000019)scale(0.1 -0.1)">
       <use xlink:href="#DejaVuSans-2212"/>
       <use x="83.789062" xlink:href="#DejaVuSans-34"/>
      </g>
     </g>
    </g>
    <g id="ytick_2">
     <g id="line2d_7">
      <g>
       <use style="stroke:#000000;stroke-width:0.8;" x="42.620313" xlink:href="#mb356180679" y="196.9784"/>
      </g>
     </g>
     <g id="text_8">
      <!-- −2 -->
      <g transform="translate(20.878125 200.777619)scale(0.1 -0.1)">
       <use xlink:href="#DejaVuSans-2212"/>
       <use x="83.789062" xlink:href="#DejaVuSans-32"/>
      </g>
     </g>
    </g>
    <g id="ytick_3">
     <g id="line2d_8">
      <g>
       <use style="stroke:#000000;stroke-width:0.8;" x="42.620313" xlink:href="#mb356180679" y="143.756"/>
      </g>
     </g>
     <g id="text_9">
      <!-- 0 -->
      <g transform="translate(29.257813 147.555219)scale(0.1 -0.1)">
       <use xlink:href="#DejaVuSans-30"/>
      </g>
     </g>
    </g>
    <g id="ytick_4">
     <g id="line2d_9">
      <g>
       <use style="stroke:#000000;stroke-width:0.8;" x="42.620313" xlink:href="#mb356180679" y="90.5336"/>
      </g>
     </g>
     <g id="text_10">
      <!-- 2 -->
      <g transform="translate(29.257813 94.332819)scale(0.1 -0.1)">
       <use xlink:href="#DejaVuSans-32"/>
      </g>
     </g>
    </g>
    <g id="ytick_5">
     <g id="line2d_10">
      <g>
       <use style="stroke:#000000;stroke-width:0.8;" x="42.620313" xlink:href="#mb356180679" y="37.3112"/>
      </g>
     </g>
     <g id="text_11">
      <!-- 4 -->
      <g transform="translate(29.257813 41.110419)scale(0.1 -0.1)">
       <use xlink:href="#DejaVuSans-34"/>
      </g>
     </g>
    </g>
    <g id="text_12">
     <!-- x2 -->
     <g transform="translate(14.798438 149.896625)rotate(-90)scale(0.1 -0.1)">
      <use xlink:href="#DejaVuSans-78"/>
      <use x="59.179688" xlink:href="#DejaVuSans-32"/>
     </g>
    </g>
   </g>
   <g id="line2d_11">
    <path clip-path="url(#p9fe615b8b7)" d="M 221.180313 10.7 
L 229.885043 17.357784 
L 236.526151 22.732389 
L 241.315996 26.848537 
L 245.937683 31.095687 
L 250.384747 35.53376 
L 254.648255 40.225596 
L 257.383044 43.525283 
L 260.027192 46.982807 
L 262.576247 50.614117 
L 265.02535 54.433297 
L 267.36929 58.452022 
L 269.602586 62.679067 
L 271.719567 67.119905 
L 273.714462 71.776365 
L 275.581505 76.646356 
L 277.315038 81.723651 
L 278.909627 86.997738 
L 280.360178 92.4538 
L 281.662053 98.072819 
L 282.811179 103.831797 
L 283.804151 109.704099 
L 284.63832 115.659892 
L 285.311876 121.6667 
L 285.823909 127.690036 
L 286.174453 133.694103 
L 286.364513 139.642542 
L 286.39607 145.499193 
L 286.272064 151.228833 
L 285.996357 156.797885 
L 285.573686 162.175057 
L 285.00959 167.331908 
L 284.310328 172.243302 
L 283.482784 176.887757 
L 282.534367 181.247687 
L 281.472907 185.309513 
L 280.306541 189.063665 
L 279.043612 192.504498 
L 277.692562 195.630098 
L 276.261838 198.442034 
L 274.759803 200.945035 
L 273.194652 203.146633 
L 271.574345 205.056784 
L 269.90655 206.68747 
L 268.198589 208.052305 
L 266.457399 209.166149 
L 264.689507 210.044753 
L 262.901008 210.704427 
L 261.097557 211.161737 
L 259.284362 211.433246 
L 257.46619 211.535284 
L 254.738965 211.405216 
L 252.023072 210.980575 
L 249.329402 210.308661 
L 246.667032 209.432422 
L 243.178541 208.01178 
L 239.772471 206.37323 
L 235.645623 204.113935 
L 230.901358 201.214661 
L 225.667781 197.70869 
L 220.765977 194.162068 
L 216.197557 190.613536 
L 211.962499 187.061719 
L 208.062117 183.482524 
L 204.98836 180.367833 
L 202.167889 177.18848 
L 199.606563 173.928945 
L 197.675 171.14548 
L 195.932267 168.301197 
L 194.382288 165.401627 
L 193.028442 162.457438 
L 191.873226 159.484206 
L 190.917943 156.501861 
L 190.035175 152.944243 
L 189.436531 149.452478 
L 189.114807 146.07382 
L 189.059011 142.854627 
L 189.254546 139.837452 
L 189.683646 137.058649 
L 190.325916 134.546557 
L 191.159041 132.320497 
L 191.98217 130.691463 
L 192.907661 129.269286 
L 193.921708 128.051161 
L 195.236479 126.849843 
L 196.637031 125.917403 
L 198.102503 125.233709 
L 199.613772 124.775891 
L 201.153621 124.519693 
L 202.966004 124.442969 
L 205.033016 124.602333 
L 207.322633 125.034955 
L 209.789068 125.755031 
L 212.374775 126.754518 
L 215.013543 128.007727 
L 217.824764 129.59424 
L 220.498179 131.362523 
L 222.955103 133.262668 
L 225.006594 135.132871 
L 226.662698 136.940612 
L 227.939803 138.658706 
L 228.85988 140.262108 
L 229.450079 141.727736 
L 229.742175 143.035877 
L 229.771658 144.171921 
L 229.576484 145.127658 
L 229.195633 145.901764 
L 228.630626 146.531135 
L 227.900248 146.994936 
L 227.033691 147.281828 
L 225.971111 147.392356 
L 224.762733 147.287678 
L 223.448726 146.944907 
L 222.157175 146.377728 
L 221.034983 145.647857 
L 220.230157 144.874434 
L 219.802666 144.18076 
L 219.717753 143.664337 
L 219.870059 143.338122 
L 220.187404 143.176387 
L 220.661453 143.19196 
L 221.176707 143.426424 
L 221.419412 143.743565 
L 221.325154 143.852988 
L 221.317323 143.853454 
L 221.141251 143.756734 
L 221.143189 143.747863 
L 221.176841 143.745051 
L 221.180313 143.756 
" style="fill:none;stroke:#1f77b4;stroke-linecap:square;stroke-width:0.5;"/>
   </g>
   <g id="line2d_12">
    <path clip-path="url(#p9fe615b8b7)" d="M 244.203075 10.7 
L 249.461158 15.641468 
L 252.85374 19.090438 
L 256.15164 22.695321 
L 259.350464 26.48366 
L 262.444883 30.482133 
L 265.428874 34.715666 
L 268.295829 39.206649 
L 271.038582 43.974149 
L 273.649493 49.033062 
L 276.120592 54.39332 
L 278.443721 60.059255 
L 280.61069 66.029095 
L 282.613437 72.294533 
L 284.444214 78.840461 
L 286.095771 85.644907 
L 287.56154 92.679197 
L 288.835809 99.908334 
L 289.913884 107.291594 
L 290.792229 114.783337 
L 291.468592 122.333989 
L 291.942088 129.89119 
L 292.213265 137.401041 
L 292.284119 144.80941 
L 292.158092 152.06323 
L 291.840018 159.111755 
L 291.336053 165.907699 
L 290.653559 172.408241 
L 289.800984 178.575832 
L 288.787701 184.378807 
L 287.623853 189.791777 
L 286.320175 194.795806 
L 284.887826 199.378377 
L 283.338215 203.533184 
L 281.682841 207.259757 
L 279.933144 210.562965 
L 278.100368 213.452429 
L 276.195444 215.941865 
L 274.228885 218.048398 
L 272.210706 219.791882 
L 270.150362 221.194231 
L 268.056698 222.278793 
L 265.937918 223.069776 
L 263.801575 223.591731 
L 261.654558 223.869111 
L 259.50311 223.925889 
L 257.352837 223.785251 
L 255.20874 223.469343 
L 252.013691 222.712255 
L 248.85502 221.67237 
L 245.742931 220.407062 
L 241.679578 218.454286 
L 237.727219 216.285976 
L 232.95689 213.385963 
L 227.495557 209.76191 
L 221.496527 205.466848 
L 215.901544 201.164321 
L 211.427698 197.468914 
L 207.252636 193.736766 
L 204.004839 190.569367 
L 200.972072 187.323464 
L 198.160373 183.976791 
L 195.577109 180.512346 
L 193.230551 176.920591 
L 191.529524 173.95487 
L 189.989809 170.911521 
L 188.615361 167.799109 
L 187.134793 163.831181 
L 185.922516 159.808538 
L 184.980869 155.772063 
L 184.309241 151.76833 
L 183.903778 147.847064 
L 183.757262 144.058396 
L 183.859169 140.450147 
L 184.195907 137.065366 
L 184.75123 133.940372 
L 185.506712 131.103322 
L 186.442333 128.573479 
L 187.537088 126.36109 
L 188.769572 124.467844 
L 190.118533 122.887758 
L 191.563341 121.608385 
L 193.08438 120.612171 
L 194.66335 119.87785 
L 196.283462 119.38178 
L 197.929562 119.099156 
L 199.920317 119.006656 
L 201.909 119.143839 
L 204.204135 119.542381 
L 206.76802 120.245154 
L 209.547929 121.268218 
L 212.478144 122.601559 
L 215.483252 124.215092 
L 218.481771 126.0677 
L 221.38923 128.116026 
L 224.120299 130.319839 
L 226.440151 132.4891 
L 228.357532 134.600712 
L 229.788709 136.491492 
L 230.897241 138.296388 
L 231.699785 139.996045 
L 232.216415 141.570927 
L 232.470496 143.003065 
L 232.488278 144.27783 
L 232.29816 145.385255 
L 231.929816 146.320766 
L 231.368202 147.137114 
L 230.671297 147.762682 
L 229.813865 148.235885 
L 228.815949 148.538691 
L 227.641241 148.664744 
L 226.264865 148.578013 
L 224.819936 148.264625 
L 223.283591 147.699982 
L 221.846809 146.93403 
L 220.637326 146.039832 
L 219.78001 145.137993 
L 219.311514 144.340294 
L 219.186676 143.720141 
L 219.309031 143.300766 
L 219.606488 143.042858 
L 220.066788 142.942735 
L 220.662991 143.043142 
L 221.237586 143.356295 
L 221.502988 143.720158 
L 221.418832 143.879768 
L 221.191203 143.836176 
L 221.1306 143.743669 
L 221.180313 143.756 
" style="fill:none;stroke:#1f77b4;stroke-linecap:square;stroke-width:0.5;"/>
   </g>
   <g id="line2d_13">
    <path clip-path="url(#p9fe615b8b7)" d="M 268.004259 10.7 
L 271.504456 16.045685 
L 274.85604 21.787276 
L 278.047871 27.95391 
L 281.068231 34.566655 
L 283.904986 41.638465 
L 286.545746 49.171278 
L 288.978232 57.156027 
L 291.190564 65.572154 
L 293.171562 74.387032 
L 294.911097 83.556151 
L 296.400391 93.023814 
L 297.632296 102.724267 
L 298.601539 112.583211 
L 299.30494 122.519739 
L 299.741555 132.448585 
L 299.91276 142.282575 
L 299.822265 151.935148 
L 299.47606 161.322807 
L 298.882329 170.367485 
L 298.051252 178.998541 
L 296.994773 187.154383 
L 295.726354 194.783713 
L 294.260692 201.846325 
L 292.613413 208.313399 
L 290.800762 214.167374 
L 288.839305 219.401454 
L 286.745658 224.018791 
L 284.536235 228.031447 
L 282.227017 231.459165 
L 279.833364 234.328058 
L 277.369867 236.669284 
L 274.850232 238.517764 
L 272.28719 239.910945 
L 269.692438 240.887699 
L 267.076627 241.487349 
L 264.449337 241.748787 
L 261.819134 241.709837 
L 259.193595 241.406739 
L 256.579348 240.873702 
L 253.982135 240.142588 
L 251.406871 239.242714 
L 247.594052 237.634174 
L 243.851089 235.784258 
L 238.98322 233.054002 
L 234.267523 230.131898 
L 228.598413 226.339258 
L 222.134818 221.714681 
L 216.044222 217.079802 
L 210.327155 212.430178 
L 205.850437 208.503982 
L 201.640178 204.479669 
L 198.46932 201.153658 
L 195.480198 197.704295 
L 192.68007 194.108656 
L 190.077292 190.349144 
L 187.680978 186.415135 
L 185.500597 182.304283 
L 183.545501 178.023414 
L 181.824421 173.588947 
L 180.344948 169.02675 
L 179.113045 164.371464 
L 178.132608 159.665259 
L 177.405105 154.956121 
L 176.929314 150.295768 
L 176.701193 145.737317 
L 176.713856 141.3329 
L 176.957705 137.131398 
L 177.420655 133.17646 
L 178.088445 129.504906 
L 178.945052 126.145617 
L 179.973129 123.118956 
L 181.154466 120.436686 
L 182.470446 118.102339 
L 183.902467 116.111959 
L 185.432319 114.455094 
L 187.042498 113.115965 
L 188.71647 112.074673 
L 190.43885 111.308405 
L 192.195528 110.792565 
L 193.973743 110.501769 
L 195.762096 110.410674 
L 197.996603 110.540215 
L 200.214516 110.898075 
L 202.834708 111.5711 
L 205.391981 112.451262 
L 208.276823 113.670522 
L 211.423981 115.237523 
L 214.754884 117.135 
L 218.180858 119.328341 
L 221.60626 121.777266 
L 224.669948 124.224357 
L 227.373797 126.650463 
L 229.721651 129.046303 
L 231.718538 131.404041 
L 233.370846 133.712436 
L 234.687013 135.954984 
L 235.678299 138.110084 
L 236.359432 140.152732 
L 236.748929 142.057027 
L 236.869031 143.798867 
L 236.745254 145.358354 
L 236.405624 146.721507 
L 235.879743 147.881191 
L 235.197748 148.837128 
L 234.389345 149.595263 
L 233.39665 150.209867 
L 232.321593 150.621703 
L 231.004233 150.876097 
L 229.562993 150.919557 
L 227.945269 150.738467 
L 226.21442 150.317468 
L 224.374281 149.631867 
L 222.622632 148.739806 
L 221.063967 147.701089 
L 219.791978 146.588808 
L 218.901315 145.519619 
L 218.401112 144.589532 
L 218.230109 143.831606 
L 218.31817 143.258837 
L 218.593509 142.867296 
L 219.033751 142.625157 
L 219.638115 142.550204 
L 220.381446 142.687377 
L 221.106117 143.042899 
L 221.574482 143.499352 
L 221.651295 143.832319 
L 221.489 143.950029 
L 221.199933 143.877321 
L 221.106472 143.737743 
L 221.180312 143.756 
" style="fill:none;stroke:#1f77b4;stroke-linecap:square;stroke-width:0.5;"/>
   </g>
   <g id="line2d_14">
    <path clip-path="url(#p9fe615b8b7)" d="M 293.471245 10.7 
L 295.221501 15.98386 
L 296.89951 21.473347 
L 298.502534 27.166376 
L 300.02784 33.058954 
L 301.472767 39.145278 
L 302.834758 45.418076 
L 304.111358 51.868422 
L 305.300262 58.485498 
L 306.399316 65.256892 
L 308.320159 79.205642 
L 309.860529 93.586741 
L 311.010718 108.25249 
L 311.765253 123.04096 
L 312.123125 137.781579 
L 312.087936 152.301442 
L 311.667893 166.43204 
L 310.875594 180.015218 
L 309.727685 192.908653 
L 308.244365 204.990328 
L 306.448796 216.161694 
L 305.441808 221.382082 
L 304.366454 226.349419 
L 303.226167 231.058564 
L 302.024438 235.50596 
L 300.764795 239.689571 
L 299.450782 243.6088 
L 298.085944 247.264438 
L 296.673804 250.658572 
L 295.217852 253.794487 
L 293.721526 256.676568 
L 292.188195 259.310201 
L 290.621155 261.70165 
L 289.023608 263.857961 
L 287.398659 265.786848 
L 285.749305 267.49659 
L 284.078433 268.995937 
L 282.388802 270.293988 
L 280.683058 271.400144 
L 278.963706 272.32396 
L 277.233125 273.075104 
L 275.493574 273.663298 
L 273.747159 274.098155 
L 271.995888 274.389307 
L 270.241613 274.546093 
L 268.486084 274.577808 
L 264.977607 274.301523 
L 261.48201 273.628854 
L 258.009074 272.623012 
L 254.566954 271.341475 
L 251.162346 269.835702 
L 247.800643 268.151059 
L 242.847587 265.373326 
L 238.010829 262.389479 
L 231.753637 258.229255 
L 224.25066 252.909323 
L 217.105803 247.565133 
L 210.319805 242.206871 
L 205.151137 237.865303 
L 200.218253 233.411129 
L 196.677954 229.95339 
L 193.279496 226.359395 
L 190.029009 222.597223 
L 186.933877 218.637147 
L 184.002604 214.453282 
L 181.24463 210.025142 
L 178.670092 205.339058 
L 176.289519 200.389413 
L 174.113483 195.179604 
L 172.15223 189.722666 
L 170.415281 184.04149 
L 168.91104 178.168612 
L 167.646419 172.145521 
L 166.626497 166.021507 
L 165.854237 159.852084 
L 165.330274 153.697082 
L 165.052782 147.618488 
L 165.017434 141.678191 
L 165.217452 135.935761 
L 165.643739 130.446387 
L 166.285097 125.259114 
L 167.1285 120.415446 
L 168.15942 115.948389 
L 169.362181 111.881947 
L 170.720325 108.231054 
L 172.216967 105.001905 
L 173.835141 102.192618 
L 175.558105 99.794134 
L 177.369606 97.791296 
L 179.254108 96.16401 
L 181.196959 94.888412 
L 183.184525 93.937995 
L 185.204278 93.284659 
L 187.244836 92.899626 
L 189.295978 92.754224 
L 191.348623 92.820531 
L 193.394788 93.071869 
L 196.10107 93.65177 
L 198.76981 94.462154 
L 202.036321 95.727284 
L 205.210583 97.200028 
L 208.881684 99.153662 
L 212.958185 101.588598 
L 217.331066 104.471594 
L 221.877648 107.755134 
L 226.027455 111.03824 
L 229.383666 113.95074 
L 232.427121 116.866528 
L 235.156827 119.797173 
L 237.286332 122.380304 
L 239.172287 124.98207 
L 240.81312 127.597689 
L 242.207993 130.216312 
L 243.35736 132.821322 
L 244.263479 135.391191 
L 244.930806 137.900854 
L 245.366257 140.323353 
L 245.579297 142.631635 
L 245.581871 144.800291 
L 245.388165 146.807068 
L 245.014272 148.63405 
L 244.477725 150.268407 
L 243.797012 151.702714 
L 242.99106 152.934887 
L 242.078755 153.967733 
L 240.929497 154.913211 
L 239.691528 155.62337 
L 238.389076 156.11804 
L 236.87398 156.444715 
L 235.160697 156.56103 
L 233.276468 156.440302 
L 231.260461 156.073483 
L 229.161693 155.468335 
L 226.890445 154.582471 
L 224.550168 153.42558 
L 222.372394 152.107402 
L 220.424512 150.682542 
L 218.764931 149.203712 
L 217.494157 147.792058 
L 216.552939 146.421494 
L 215.978019 145.19718 
L 215.724683 144.142371 
L 215.743032 143.270486 
L 215.980804 142.584949 
L 216.386096 142.08001 
L 216.964093 141.718362 
L 217.715603 141.520097 
L 218.623597 141.5163 
L 219.659467 141.740903 
L 220.675614 142.18727 
L 221.509809 142.788978 
L 221.985949 143.386849 
L 222.085256 143.822707 
L 221.937036 144.059002 
L 221.630063 144.124835 
L 221.219032 143.985364 
L 221.035775 143.732871 
L 221.145956 143.704535 
L 221.162059 143.711672 
L 221.2034 143.760848 
L 221.180312 143.756 
" style="fill:none;stroke:#1f77b4;stroke-linecap:square;stroke-width:0.5;"/>
   </g>
   <g id="line2d_15">
    <path clip-path="url(#p9fe615b8b7)" d="M 321.743431 10.7 
L 323.454306 21.877384 
L 325.012916 33.402507 
L 326.414746 45.241408 
L 327.655819 57.354888 
L 328.73272 69.700021 
L 329.642648 82.230162 
L 330.383459 94.895577 
L 330.953684 107.644169 
L 331.352566 120.422162 
L 331.580077 133.174629 
L 331.63693 145.846436 
L 331.524575 158.383015 
L 331.245187 170.730934 
L 330.801646 182.838697 
L 330.197506 194.657394 
L 329.436958 206.141277 
L 328.524781 217.248258 
L 327.466291 227.940375 
L 326.267286 238.184151 
L 324.933981 247.950812 
L 323.472947 257.216501 
L 321.891041 265.962292 
L 320.195338 274.174122 
L 318.393073 281.84273 
" style="fill:none;stroke:#1f77b4;stroke-linecap:square;stroke-width:0.5;"/>
   </g>
   <g id="line2d_16">
    <path clip-path="url(#p9fe615b8b7)" d="M 354.443104 10.7 
L 356.072478 34.050381 
L 357.38528 57.879272 
L 358.376027 82.037937 
L 359.041153 106.369757 
L 359.379444 130.712337 
L 359.391922 154.901278 
L 359.081725 178.773818 
L 358.454171 202.171961 
L 357.516641 224.945712 
L 356.278462 246.955813 
L 354.75075 268.076325 
L 352.946199 288.196813 
" style="fill:none;stroke:#1f77b4;stroke-linecap:square;stroke-width:0.5;"/>
   </g>
   <g id="line2d_17">
    <path clip-path="url(#p9fe615b8b7)" d="M 394.106029 10.7 
L 395.567995 59.024873 
L 396.378185 107.779509 
L 396.534135 156.439332 
L 396.04062 204.477265 
L 394.909495 251.381194 
L 393.159224 296.67028 
" style="fill:none;stroke:#1f77b4;stroke-linecap:square;stroke-width:0.5;"/>
   </g>
   <g id="line2d_18">
    <path clip-path="url(#p9fe615b8b7)" d="M 399.740313 37.647381 
L 400.812078 90.17741 
" style="fill:none;stroke:#1f77b4;stroke-linecap:square;stroke-width:0.5;"/>
   </g>
   <g id="line2d_19">
    <path clip-path="url(#p9fe615b8b7)" d="M 399.740313 63.096671 
L 400.472883 115.229097 
" style="fill:none;stroke:#1f77b4;stroke-linecap:square;stroke-width:0.5;"/>
   </g>
   <g id="line2d_20">
    <path clip-path="url(#p9fe615b8b7)" d="M 399.740313 84.856056 
L 400.182682 136.648892 
" style="fill:none;stroke:#1f77b4;stroke-linecap:square;stroke-width:0.5;"/>
   </g>
   <g id="line2d_21">
    <path clip-path="url(#p9fe615b8b7)" d="M 399.740313 104.265678 
L 399.92405 155.75569 
" style="fill:none;stroke:#1f77b4;stroke-linecap:square;stroke-width:0.5;"/>
   </g>
   <g id="line2d_22">
    <path clip-path="url(#p9fe615b8b7)" d="M 399.740313 122.244538 
L 399.684679 173.454551 
L 398.946913 223.820863 
L 397.541991 272.792495 
L 395.687695 315.36825 
" style="fill:none;stroke:#1f77b4;stroke-linecap:square;stroke-width:0.5;"/>
   </g>
   <g id="line2d_23">
    <path clip-path="url(#p9fe615b8b7)" d="M 399.740313 139.489153 
L 399.45491 190.430643 
L 398.49219 240.341469 
L 396.869603 288.682566 
" style="fill:none;stroke:#1f77b4;stroke-linecap:square;stroke-width:0.5;"/>
   </g>
   <g id="line2d_24">
    <path clip-path="url(#p9fe615b8b7)" d="M 399.740313 156.591752 
L 399.226965 207.266952 
L 398.041153 256.72696 
L 396.20272 304.44664 
" style="fill:none;stroke:#1f77b4;stroke-linecap:square;stroke-width:0.5;"/>
   </g>
   <g id="line2d_25">
    <path clip-path="url(#p9fe615b8b7)" d="M 399.740313 174.125164 
L 398.993262 224.527446 
L 397.578707 273.526459 
L 395.7483 315.36825 
" style="fill:none;stroke:#1f77b4;stroke-linecap:square;stroke-width:0.5;"/>
   </g>
   <g id="line2d_26">
    <path clip-path="url(#p9fe615b8b7)" d="M 399.740313 192.721838 
L 398.745398 242.834895 
L 397.088208 291.346148 
" style="fill:none;stroke:#1f77b4;stroke-linecap:square;stroke-width:0.5;"/>
   </g>
   <g id="line2d_27">
    <path clip-path="url(#p9fe615b8b7)" d="M 399.740313 213.17123 
L 398.47285 262.96621 
L 396.548848 310.942659 
" style="fill:none;stroke:#1f77b4;stroke-linecap:square;stroke-width:0.5;"/>
   </g>
   <g id="line2d_28">
    <path clip-path="url(#p9fe615b8b7)" d="M 399.740313 236.570106 
L 398.160985 286.001735 
" style="fill:none;stroke:#1f77b4;stroke-linecap:square;stroke-width:0.5;"/>
   </g>
   <g id="line2d_29">
    <path clip-path="url(#p9fe615b8b7)" d="M 399.740313 264.593939 
L 397.787479 313.590825 
" style="fill:none;stroke:#1f77b4;stroke-linecap:square;stroke-width:0.5;"/>
   </g>
   <g id="line2d_30">
    <path clip-path="url(#p9fe615b8b7)" d="M 373.190657 276.812 
L 371.203027 306.662079 
" style="fill:none;stroke:#1f77b4;stroke-linecap:square;stroke-width:0.5;"/>
   </g>
   <g id="line2d_31">
    <path clip-path="url(#p9fe615b8b7)" d="M 337.409992 276.812 
L 335.536899 289.712552 
" style="fill:none;stroke:#1f77b4;stroke-linecap:square;stroke-width:0.5;"/>
   </g>
   <g id="line2d_32">
    <path clip-path="url(#p9fe615b8b7)" d="M 307.170276 276.812 
L 305.352867 281.490941 
" style="fill:none;stroke:#1f77b4;stroke-linecap:square;stroke-width:0.5;"/>
   </g>
   <g id="line2d_33">
    <path clip-path="url(#p9fe615b8b7)" d="M 280.466317 276.812 
L 278.674859 277.6573 
" style="fill:none;stroke:#1f77b4;stroke-linecap:square;stroke-width:0.5;"/>
   </g>
   <g id="line2d_34">
    <path clip-path="url(#p9fe615b8b7)" d="M 255.954869 276.812 
L 252.403659 275.288942 
L 248.896069 273.5643 
L 243.72676 270.694858 
L 238.678011 267.593879 
L 232.146109 263.255815 
L 225.850313 258.815932 
L 218.317036 253.235298 
L 211.158453 247.64408 
L 205.702824 243.121788 
L 200.492623 238.487496 
L 196.75075 234.890259 
L 193.156489 231.148245 
L 189.716411 227.224657 
L 186.438537 223.084591 
L 183.332223 218.697241 
L 180.40795 214.037759 
L 177.677049 209.08884 
L 175.151372 203.842252 
L 172.842895 198.300109 
L 170.763293 192.475719 
L 168.923465 186.393915 
L 167.333085 180.090851 
L 166.000152 173.613264 
L 164.930594 167.017137 
L 164.12793 160.365834 
L 163.593014 153.727809 
L 163.323888 147.174022 
L 163.315731 140.775236 
L 163.56092 134.599343 
L 164.0492 128.708911 
L 164.767941 123.159093 
L 165.702467 117.996021 
L 166.836449 113.255728 
L 168.152318 108.963625 
L 169.631696 105.134537 
L 171.255815 101.773189 
L 173.005905 98.875087 
L 174.233495 97.194473 
L 175.503562 95.708865 
L 176.810959 94.41168 
L 178.150727 93.295378 
L 179.518121 92.351646 
L 181.611202 91.240004 
L 183.742156 90.464792 
L 185.898097 89.993271 
L 188.067458 89.792649 
L 190.239984 89.830886 
L 192.406679 90.077324 
L 195.273226 90.680306 
L 198.100246 91.540312 
L 200.875443 92.602761 
L 204.257196 94.144948 
L 208.169858 96.213146 
L 212.51531 98.806139 
L 217.176559 101.883535 
L 221.5048 104.999761 
L 225.97391 108.506353 
L 229.591212 111.619033 
L 232.874038 114.739902 
L 235.4708 117.490276 
L 237.807948 120.268239 
L 239.882672 123.077438 
L 241.69213 125.914664 
L 243.234137 128.769083 
L 244.507883 131.622388 
L 245.514594 134.449745 
L 246.258072 137.221405 
L 246.745068 139.904775 
L 246.985434 142.466709 
L 246.992078 144.875781 
L 246.780693 147.104305 
L 246.369352 149.129897 
L 245.777917 150.936501 
L 245.027445 152.514821 
L 244.139557 153.862223 
L 243.135828 154.982151 
L 242.037258 155.883246 
L 240.863835 156.578258 
L 239.454966 157.14048 
L 237.99791 157.480489 
L 236.328864 157.63182 
L 234.469096 157.558432 
L 232.452306 157.241461 
L 230.32325 156.679874 
L 227.972953 155.821449 
L 225.503718 154.666664 
L 223.165977 153.326253 
L 221.031427 151.855149 
L 219.164475 150.305671 
L 217.687077 148.806414 
L 216.53323 147.322729 
L 215.760766 145.969591 
L 215.330889 144.773704 
L 215.198721 143.753505 
L 215.315647 142.918339 
L 215.631775 142.268429 
L 216.124724 141.77659 
L 216.761487 141.452494 
L 217.567208 141.289533 
L 218.560392 141.325044 
L 219.646879 141.592895 
L 220.707763 142.083455 
L 221.563026 142.71673 
L 222.055032 143.335887 
L 222.174772 143.805635 
L 222.037409 144.06829 
L 221.735402 144.161902 
L 221.309751 144.057415 
L 221.022213 143.786638 
L 221.065568 143.692996 
L 221.111192 143.691336 
L 221.206682 143.75797 
L 221.180312 143.756 
" style="fill:none;stroke:#1f77b4;stroke-linecap:square;stroke-width:0.5;"/>
   </g>
   <g id="line2d_35">
    <path clip-path="url(#p9fe615b8b7)" d="M 232.644245 276.812 
L 225.634885 271.846565 
L 217.249387 265.60653 
L 210.842655 260.60362 
L 204.705761 255.541061 
L 200.283238 251.653277 
L 196.019668 247.636741 
L 191.921237 243.440683 
L 187.996219 239.013115 
L 185.480908 235.907877 
L 183.050778 232.663591 
L 180.709728 229.267821 
L 178.461965 225.709849 
L 176.311971 221.98105 
L 174.264417 218.075237 
L 172.324113 213.988952 
L 170.495922 209.721768 
L 168.784665 205.276417 
L 167.19505 200.659009 
L 165.731575 195.87908 
L 164.398435 190.949507 
L 163.199435 185.886609 
L 162.137901 180.709704 
L 161.216599 175.440951 
L 160.437669 170.10502 
L 159.539187 162.034162 
L 158.965853 153.969187 
L 158.715416 146.01032 
L 158.781586 138.257268 
L 159.154143 130.804974 
L 159.819207 123.739753 
L 160.759651 117.136061 
L 161.529896 113.020404 
L 162.407326 109.15102 
L 163.38518 105.538769 
L 164.456445 102.191333 
L 165.613945 99.113294 
L 166.850423 96.306274 
L 168.158613 93.76913 
L 169.531317 91.498194 
L 170.961464 89.487541 
L 172.44217 87.729277 
L 173.966785 86.213844 
L 175.528935 84.930321 
L 177.122555 83.866719 
L 178.741912 83.010257 
L 180.381626 82.347625 
L 182.036675 81.865218 
L 183.702406 81.549355 
L 186.211752 81.358197 
L 188.722616 81.466711 
L 191.223794 81.832604 
L 193.705725 82.416545 
L 196.971328 83.472763 
L 200.173236 84.778186 
L 204.06864 86.665103 
L 207.830499 88.744415 
L 212.154275 91.39083 
L 216.924155 94.579961 
L 222.00595 98.265339 
L 226.691886 101.951503 
L 230.467469 105.178942 
L 233.939072 108.426931 
L 237.10369 111.71861 
L 239.568054 114.590621 
L 241.798956 117.518429 
L 243.791764 120.50435 
L 245.541946 123.543507 
L 247.045665 126.623458 
L 248.300384 129.724483 
L 249.305417 132.820497 
L 250.06239 135.880486 
L 250.575562 138.870342 
L 250.851996 141.754913 
L 250.901553 144.500091 
L 250.73674 147.074741 
L 250.372395 149.452297 
L 249.825269 151.611933 
L 249.113527 153.53924 
L 248.256236 155.226417 
L 247.272831 156.671998 
L 246.182631 157.880245 
L 245.004407 158.860276 
L 243.756039 159.625066 
L 242.454233 160.190408 
L 240.888331 160.621436 
L 239.292414 160.834384 
L 237.456126 160.848468 
L 235.403072 160.622002 
L 233.170057 160.132768 
L 230.805826 159.379001 
L 228.172955 158.287087 
L 225.565779 156.959178 
L 223.059502 155.443454 
L 220.727531 153.787434 
L 218.639262 152.036707 
L 216.945481 150.334958 
L 215.631277 148.713968 
L 214.675052 147.200978 
L 214.049374 145.819849 
L 213.721823 144.590312 
L 213.65607 143.526618 
L 213.813269 142.636493 
L 214.153594 141.920801 
L 214.669918 141.346897 
L 215.341046 140.932024 
L 216.17755 140.676524 
L 217.186671 140.604276 
L 218.350143 140.750344 
L 219.566314 141.126702 
L 220.729962 141.715521 
L 221.675992 142.438216 
L 222.252717 143.143037 
L 222.449071 143.701146 
L 222.365284 144.056867 
L 222.102132 144.241597 
L 221.678554 144.254559 
L 221.192861 144.048091 
L 220.973002 143.751689 
L 221.07371 143.671718 
L 221.087206 143.672847 
L 221.213991 143.758183 
L 221.180312 143.756 
" style="fill:none;stroke:#1f77b4;stroke-linecap:square;stroke-width:0.5;"/>
   </g>
   <g id="line2d_36">
    <path clip-path="url(#p9fe615b8b7)" d="M 209.71638 276.812 
L 204.446323 272.492703 
L 199.351954 268.072954 
L 194.438641 263.487299 
L 189.714485 258.662579 
L 186.675528 255.275543 
L 183.729612 251.725898 
L 180.881386 247.99227 
L 178.136061 244.054865 
L 175.49935 239.896159 
L 172.977395 235.501589 
L 170.576682 230.860114 
L 168.303941 225.964729 
L 166.166032 220.812942 
L 164.169817 215.407193 
L 162.32202 209.755154 
L 160.629087 203.869889 
L 159.097045 197.769868 
L 157.731352 191.478823 
L 156.536757 185.025458 
L 155.517181 178.442985 
L 154.6756 171.768521 
L 154.013948 165.042328 
L 153.533047 158.306967 
L 153.232555 151.60635 
L 153.110944 144.984763 
L 153.165506 138.485871 
L 153.392377 132.151761 
L 153.786596 126.022054 
L 154.342182 120.133103 
L 155.052227 114.517326 
L 155.909014 109.20269 
L 156.904138 104.212343 
L 158.028641 99.564402 
L 159.273147 95.271904 
L 160.627997 91.342887 
L 162.083381 87.78061 
L 163.629464 84.583873 
L 165.256496 81.74742 
L 166.954918 79.262398 
L 168.715452 77.116865 
L 170.529173 75.296309 
L 172.38758 73.784162 
L 174.282635 72.562302 
L 176.206803 71.611522 
L 178.153073 70.911961 
L 180.114972 70.443495 
L 182.086569 70.186066 
L 184.062464 70.119979 
L 186.037779 70.226135 
L 188.990227 70.668531 
L 191.918865 71.399784 
L 194.813134 72.367661 
L 197.664463 73.525789 
L 201.38786 75.296921 
L 205.01084 77.255348 
L 209.386006 79.872774 
L 214.398616 83.148773 
L 219.909468 87.041044 
L 225.053873 90.944613 
L 229.831576 94.850513 
L 233.633968 98.220918 
L 237.163161 101.641687 
L 240.413866 105.14299 
L 242.904644 108.141338 
L 245.191433 111.224545 
L 247.268336 114.397577 
L 249.129342 117.658759 
L 250.76879 120.999261 
L 252.181857 124.40306 
L 253.365024 127.847407 
L 254.316501 131.303732 
L 255.036572 134.738972 
L 255.527847 138.117189 
L 255.795393 141.401379 
L 255.846745 144.555303 
L 255.691795 147.545229 
L 255.342569 150.341425 
L 254.812923 152.919328 
L 254.118161 155.260319 
L 253.274631 157.352084 
L 252.299292 159.188587 
L 251.209307 160.769701 
L 250.02167 162.10058 
L 248.752869 163.190855 
L 247.418622 164.053728 
L 246.033669 164.705026 
L 244.32388 165.232123 
L 242.581822 165.511925 
L 240.826105 165.576722 
L 238.781773 165.422137 
L 236.476385 164.99794 
L 233.952099 164.27708 
L 231.264483 163.257315 
L 228.479819 161.958013 
L 225.671658 160.413347 
L 222.718333 158.528132 
L 220.122549 156.615824 
L 217.739092 154.582519 
L 215.760589 152.597004 
L 214.174797 150.684802 
L 212.964542 148.869867 
L 212.107831 147.176148 
L 211.577914 145.626674 
L 211.343667 144.241538 
L 211.370388 143.035811 
L 211.620983 142.01808 
L 212.057337 141.189891 
L 212.641705 140.546116 
L 213.387521 140.050494 
L 214.328467 139.706222 
L 215.440988 139.552323 
L 216.67881 139.609274 
L 218.028223 139.890796 
L 219.436456 140.410853 
L 220.760214 141.137337 
L 221.823872 141.968918 
L 222.523296 142.781554 
L 222.845804 143.468993 
L 222.85638 143.970437 
L 222.654435 144.28303 
L 222.288494 144.437007 
L 221.766016 144.406865 
L 221.205937 144.15418 
L 220.90917 143.806179 
L 220.982366 143.648624 
L 221.194152 143.705409 
L 221.221376 143.768295 
L 221.180313 143.756 
" style="fill:none;stroke:#1f77b4;stroke-linecap:square;stroke-width:0.5;"/>
   </g>
   <g id="line2d_37">
    <path clip-path="url(#p9fe615b8b7)" d="M 186.405756 276.812 
L 182.888152 272.788554 
L 179.481542 268.529592 
L 176.192774 264.002549 
L 173.029469 259.17781 
L 169.999929 254.029198 
L 167.113141 248.53553 
L 164.378612 242.681664 
L 161.806139 236.459142 
L 159.405642 229.867129 
L 157.186956 222.9131 
L 155.159595 215.61325 
L 153.332521 207.992627 
L 151.713923 200.085047 
L 150.310968 191.932652 
L 149.129567 183.585192 
L 148.174205 175.098952 
L 147.447789 166.535427 
L 146.951529 157.959796 
L 146.684852 149.439241 
L 146.645369 141.041193 
L 146.8289 132.83155 
L 147.229543 124.873001 
L 147.839769 117.223509 
L 148.65057 109.935007 
L 149.651638 103.052336 
L 150.831566 96.612517 
L 152.178064 90.644304 
L 153.678182 85.168055 
L 155.318534 80.195875 
L 157.085518 75.732003 
L 158.965516 71.773416 
L 160.945079 68.310576 
L 163.011092 65.328265 
L 165.15092 62.806506 
L 167.352515 60.721521 
L 169.604505 59.046635 
L 171.896263 57.753138 
L 174.217953 56.811078 
L 176.560552 56.189968 
L 178.915855 55.859405 
L 181.276466 55.78959 
L 183.635776 55.951749 
L 185.987928 56.318472 
L 188.327784 56.863957 
L 191.8049 57.965339 
L 195.2319 59.342342 
L 198.598991 60.93184 
L 202.982668 63.290819 
L 207.23442 65.83258 
L 212.352216 69.154938 
L 218.195238 73.232719 
L 223.708718 77.332085 
L 228.892055 81.433561 
L 233.744322 85.562014 
L 237.532183 89.059221 
L 241.082604 92.645382 
L 244.388423 96.35535 
L 246.850745 99.432931 
L 249.14495 102.620697 
L 251.264912 105.925611 
L 253.204272 109.349282 
L 254.956747 112.887409 
L 256.516444 116.529534 
L 257.878198 120.259105 
L 259.037888 124.053841 
L 259.992728 127.886426 
L 260.741514 131.725467 
L 261.28481 135.536681 
L 261.625068 139.284249 
L 261.766672 142.932225 
L 261.715909 146.445936 
L 261.48086 149.793262 
L 261.071239 152.945779 
L 260.498165 155.879604 
L 259.773906 158.575971 
L 258.911592 161.02155 
L 257.924919 163.208494 
L 256.827862 165.134192 
L 255.634407 166.800854 
L 254.358303 168.214947 
L 253.012854 169.38651 
L 251.610743 170.328444 
L 250.163907 171.055791 
L 248.683425 171.585046 
L 246.800909 171.994469 
L 244.899429 172.155754 
L 242.994503 172.102528 
L 240.72264 171.800296 
L 238.483989 171.285541 
L 235.934393 170.475413 
L 233.124845 169.345319 
L 230.120153 167.896968 
L 226.996254 166.153979 
L 223.836877 164.153171 
L 220.730574 161.934881 
L 217.981656 159.719678 
L 215.587617 157.530254 
L 213.543098 155.381096 
L 211.840566 153.285263 
L 210.470254 151.257982 
L 209.41968 149.317618 
L 208.673198 147.484955 
L 208.211732 145.781426 
L 208.012848 144.22698 
L 208.051149 142.838063 
L 208.298985 141.626136 
L 208.727316 140.596864 
L 209.30667 139.750029 
L 210.071124 139.031922 
L 210.943657 138.508425 
L 211.966974 138.142464 
L 213.197472 137.944147 
L 214.604545 137.954895 
L 216.134031 138.194483 
L 217.779956 138.683676 
L 219.426794 139.411483 
L 220.894587 140.29791 
L 222.091023 141.266622 
L 222.948586 142.234112 
L 223.426119 143.09378 
L 223.561798 143.773688 
L 223.445712 144.248865 
L 223.152712 144.557179 
L 222.695968 144.71437 
L 222.076996 144.684736 
L 221.39968 144.42968 
L 220.904276 144.022465 
L 220.799396 143.699155 
L 220.950594 143.597884 
L 221.209314 143.69428 
L 221.236911 143.774165 
L 221.180312 143.756 
" style="fill:none;stroke:#1f77b4;stroke-linecap:square;stroke-width:0.5;"/>
   </g>
   <g id="line2d_38">
    <path clip-path="url(#p9fe615b8b7)" d="M 161.894308 276.812 
L 158.42239 269.325408 
L 155.159196 261.247689 
L 152.12086 252.569225 
L 149.323462 243.2956 
L 146.78272 233.449339 
L 144.513506 223.070378 
L 142.529395 212.215633 
L 140.842204 200.958411 
L 139.461587 189.386862 
L 138.394655 177.601696 
L 137.645678 165.713234 
L 137.215875 153.837976 
L 137.103297 142.094876 
L 137.30281 130.601333 
L 137.806196 119.469552 
L 138.602332 108.803105 
L 139.677467 98.693933 
L 141.015563 89.220038 
L 142.598694 80.44391 
L 144.407477 72.411719 
L 146.421508 65.153214 
L 148.6198 58.682251 
L 150.981197 52.997912 
L 152.216496 50.446775 
L 153.484749 48.086054 
L 154.783424 45.912212 
L 156.110041 43.921126 
L 157.462175 42.108154 
L 158.837472 40.468184 
L 160.233643 38.995718 
L 161.648482 37.684915 
L 163.07986 36.529657 
L 164.525732 35.523613 
L 165.984142 34.660287 
L 167.453216 33.933071 
L 168.931176 33.335307 
L 170.416327 32.860288 
L 173.401884 32.251902 
L 176.398128 32.055404 
L 179.394688 32.220125 
L 182.382521 32.698009 
L 185.353833 33.444174 
L 188.301985 34.417296 
L 191.221399 35.579825 
L 195.536756 37.606118 
L 199.765129 39.886151 
L 203.897955 42.341013 
L 209.250164 45.781794 
L 215.675979 50.213475 
L 222.991903 55.582485 
L 228.758095 60.061404 
L 234.223004 64.570484 
L 238.375522 68.239749 
L 242.328618 72.007703 
L 246.075822 75.918265 
L 248.745887 78.970812 
L 251.290678 82.144493 
L 253.705018 85.453585 
L 255.983215 88.909272 
L 258.119201 92.51897 
L 260.106699 96.285753 
L 261.939403 100.207905 
L 263.61118 104.278632 
L 265.116272 108.485927 
L 266.449506 112.812663 
L 267.606501 117.236868 
L 268.583849 121.732208 
L 269.379281 126.268647 
L 269.991796 130.813279 
L 270.421761 135.331283 
L 270.670965 139.786956 
L 270.742639 144.144783 
L 270.641425 148.370485 
L 270.373277 152.431979 
L 269.945391 156.300215 
L 269.366104 159.949889 
L 268.644664 163.359978 
L 267.791044 166.514037 
L 266.815794 169.400342 
L 265.729859 172.011853 
L 264.544369 174.346011 
L 263.27047 176.404409 
L 261.919167 178.192358 
L 260.501188 179.718386 
L 259.026862 180.993697 
L 257.506023 182.031618 
L 255.947936 182.847073 
L 254.361234 183.45607 
L 252.753888 183.875224 
L 250.591174 184.167859 
L 248.420118 184.192274 
L 246.254099 183.986271 
L 244.104525 183.585222 
L 241.455125 182.858627 
L 238.861426 181.933501 
L 235.838751 180.627596 
L 232.454146 178.916766 
L 228.791336 176.810052 
L 224.947497 174.341633 
L 221.029666 171.555731 
L 217.486109 168.768447 
L 214.31568 165.995952 
L 211.516179 163.240294 
L 209.311955 160.773939 
L 207.404733 158.323039 
L 205.792235 155.895359 
L 204.470881 153.50475 
L 203.43507 151.170682 
L 202.676575 148.916849 
L 202.184152 146.769171 
L 201.943407 144.753552 
L 201.936917 142.893688 
L 202.144638 141.209235 
L 202.544464 139.714512 
L 203.112914 138.41782 
L 203.825878 137.321375 
L 204.659321 136.421769 
L 205.698346 135.642949 
L 206.827168 135.080317 
L 208.139648 134.686671 
L 209.618859 134.492142 
L 211.236334 134.513384 
L 213.074096 134.777031 
L 214.952347 135.270859 
L 216.915987 136.009039 
L 218.868667 136.970636 
L 220.704448 138.114004 
L 222.317157 139.380982 
L 223.527669 140.601741 
L 224.386374 141.769948 
L 224.876616 142.792787 
L 225.051843 143.644808 
L 224.971631 144.31479 
L 224.697114 144.804321 
L 224.250057 145.14441 
L 223.627784 145.325211 
L 222.8435 145.310196 
L 221.969223 145.06649 
L 221.164211 144.61355 
L 220.65896 144.090947 
L 220.54758 143.70035 
L 220.692374 143.52173 
L 220.989165 143.520294 
L 221.27572 143.720809 
L 221.260763 143.793822 
L 221.180021 143.778901 
L 221.164652 143.751793 
L 221.180312 143.756 
" style="fill:none;stroke:#1f77b4;stroke-linecap:square;stroke-width:0.5;"/>
   </g>
   <g id="line2d_39">
    <path clip-path="url(#p9fe615b8b7)" d="M 135.190349 276.812 
L 133.456141 269.127092 
L 131.82687 261.168159 
L 130.306134 252.947821 
L 128.897326 244.481898 
L 127.603667 235.789316 
L 126.428052 226.891457 
L 125.373097 217.811963 
L 124.441074 208.576883 
L 123.633878 199.214406 
L 122.953013 189.754472 
L 122.399579 180.228425 
L 121.974246 170.668704 
L 121.677245 161.108517 
L 121.508358 151.581468 
L 121.466912 142.121197 
L 121.551788 132.760924 
L 121.761425 123.53316 
L 122.093833 114.469338 
L 122.546608 105.599465 
L 123.116956 96.95185 
L 123.801714 88.552831 
L 124.59738 80.426514 
L 125.500149 72.594589 
L 126.505938 65.076201 
L 127.610427 57.887855 
L 128.80909 51.043335 
L 130.097235 44.553681 
L 131.470041 38.427216 
L 132.922593 32.669598 
L 134.449916 27.283905 
L 136.047015 22.270787 
L 137.708897 17.628584 
L 139.43061 13.353487 
L 141.207262 9.43971 
" style="fill:none;stroke:#1f77b4;stroke-linecap:square;stroke-width:0.5;"/>
   </g>
   <g id="line2d_40">
    <path clip-path="url(#p9fe615b8b7)" d="M 104.950633 276.812 
L 103.273311 260.620998 
L 101.816035 244.009867 
L 100.584056 227.053072 
L 99.581497 209.832 
L 98.811332 192.433131 
L 98.275348 174.946945 
L 97.974093 157.466415 
L 97.906865 140.085455 
L 98.071716 122.897345 
L 98.465427 105.993165 
L 99.083599 89.460322 
L 99.920687 73.381153 
L 100.970083 57.83179 
L 102.224204 42.881072 
L 103.674602 28.589685 
L 105.312073 15.009571 
L 107.126778 2.183513 
" style="fill:none;stroke:#1f77b4;stroke-linecap:square;stroke-width:0.5;"/>
   </g>
   <g id="line2d_41">
    <path clip-path="url(#p9fe615b8b7)" d="M 69.169968 276.812 
L 67.609174 243.225425 
L 66.502582 209.141011 
L 65.855108 174.841322 
L 65.667758 140.616912 
L 65.937628 106.759857 
L 66.657778 73.555653 
L 67.817635 41.276093 
L 69.403061 10.172349 
" style="fill:none;stroke:#1f77b4;stroke-linecap:square;stroke-width:0.5;"/>
   </g>
   <g id="line2d_42">
    <path clip-path="url(#p9fe615b8b7)" d="M 42.620313 264.593939 
L 41.352236 211.833571 
" style="fill:none;stroke:#1f77b4;stroke-linecap:square;stroke-width:0.5;"/>
   </g>
   <g id="line2d_43">
    <path clip-path="url(#p9fe615b8b7)" d="M 42.620313 236.570106 
L 41.725739 184.247858 
" style="fill:none;stroke:#1f77b4;stroke-linecap:square;stroke-width:0.5;"/>
   </g>
   <g id="line2d_44">
    <path clip-path="url(#p9fe615b8b7)" d="M 42.620313 213.17123 
L 42.037609 161.21425 
" style="fill:none;stroke:#1f77b4;stroke-linecap:square;stroke-width:0.5;"/>
   </g>
   <g id="line2d_45">
    <path clip-path="url(#p9fe615b8b7)" d="M 42.620313 192.721838 
L 42.310328 141.084028 
" style="fill:none;stroke:#1f77b4;stroke-linecap:square;stroke-width:0.5;"/>
   </g>
   <g id="line2d_46">
    <path clip-path="url(#p9fe615b8b7)" d="M 42.620313 174.125164 
L 42.558064 122.7773 
" style="fill:none;stroke:#1f77b4;stroke-linecap:square;stroke-width:0.5;"/>
   </g>
   <g id="line2d_47">
    <path clip-path="url(#p9fe615b8b7)" d="M 42.620313 156.591752 
L 42.791536 105.516868 
L 43.642485 55.379972 
L 45.1569 6.72592 
" style="fill:none;stroke:#1f77b4;stroke-linecap:square;stroke-width:0.5;"/>
   </g>
   <g id="line2d_48">
    <path clip-path="url(#p9fe615b8b7)" d="M 42.620313 139.489153 
L 43.019444 88.680494 
L 44.093507 38.994963 
L 45.534341 -1 
" style="fill:none;stroke:#1f77b4;stroke-linecap:square;stroke-width:0.5;"/>
   </g>
   <g id="line2d_49">
    <path clip-path="url(#p9fe615b8b7)" d="M 42.620313 122.244538 
L 43.2493 71.704408 
L 44.548293 22.472639 
L 45.512817 -1 
" style="fill:none;stroke:#1f77b4;stroke-linecap:square;stroke-width:0.5;"/>
   </g>
   <g id="line2d_50">
    <path clip-path="url(#p9fe615b8b7)" d="M 42.620313 104.265678 
L 43.488935 54.005282 
L 45.022492 5.245646 
" style="fill:none;stroke:#1f77b4;stroke-linecap:square;stroke-width:0.5;"/>
   </g>
   <g id="line2d_51">
    <path clip-path="url(#p9fe615b8b7)" d="M 42.620313 84.856056 
L 43.747626 34.897665 
L 45.076962 -1 
" style="fill:none;stroke:#1f77b4;stroke-linecap:square;stroke-width:0.5;"/>
   </g>
   <g id="line2d_52">
    <path clip-path="url(#p9fe615b8b7)" d="M 42.620313 63.096671 
L 44.037639 13.476339 
L 44.666282 -1 
" style="fill:none;stroke:#1f77b4;stroke-linecap:square;stroke-width:0.5;"/>
   </g>
   <g id="line2d_53">
    <path clip-path="url(#p9fe615b8b7)" d="M 42.620313 37.647381 
L 43.999376 -1 
" style="fill:none;stroke:#1f77b4;stroke-linecap:square;stroke-width:0.5;"/>
   </g>
   <g id="line2d_54">
    <path clip-path="url(#p9fe615b8b7)" d="M 48.254596 10.7 
L 48.805616 -1 
" style="fill:none;stroke:#1f77b4;stroke-linecap:square;stroke-width:0.5;"/>
   </g>
   <g id="line2d_55">
    <path clip-path="url(#p9fe615b8b7)" d="M 87.917521 10.7 
L 89.048582 -1 
" style="fill:none;stroke:#1f77b4;stroke-linecap:square;stroke-width:0.5;"/>
   </g>
   <g id="line2d_56">
    <path clip-path="url(#p9fe615b8b7)" d="M 120.617194 10.7 
L 122.457403 2.655248 
" style="fill:none;stroke:#1f77b4;stroke-linecap:square;stroke-width:0.5;"/>
   </g>
   <g id="line2d_57">
    <path clip-path="url(#p9fe615b8b7)" d="M 148.88938 10.7 
L 150.691224 8.321155 
" style="fill:none;stroke:#1f77b4;stroke-linecap:square;stroke-width:0.5;"/>
   </g>
   <g id="line2d_58">
    <path clip-path="url(#p9fe615b8b7)" d="M 174.356366 10.7 
L 177.923301 11.082536 
L 181.474633 11.857344 
L 185.000658 12.960088 
L 188.493349 14.332407 
L 191.946174 15.922416 
L 195.353894 17.684504 
L 200.372293 20.566207 
L 205.270481 23.640635 
L 211.604306 27.904269 
L 219.195976 33.335104 
L 226.422407 38.782923 
L 233.282812 44.25248 
L 238.505193 48.698543 
L 243.485664 53.278749 
L 247.056844 56.848722 
L 250.481323 60.572407 
L 253.752235 64.483137 
L 256.861424 68.611473 
L 259.799586 72.98336 
L 262.556497 77.618477 
L 265.121292 82.528799 
L 267.482793 87.717349 
L 269.629902 93.177231 
L 271.552016 98.891094 
L 273.239427 104.831056 
L 274.683762 110.959084 
L 275.878374 117.227943 
L 276.818662 123.58253 
L 277.502404 129.961977 
L 277.92989 136.301534 
L 278.104055 142.535165 
L 278.030482 148.597997 
L 277.717299 154.428545 
L 277.175004 159.970915 
L 276.4162 165.176507 
L 275.455281 170.005339 
L 274.308066 174.426897 
L 272.991411 178.420435 
L 271.5228 181.9748 
L 269.919985 185.087879 
L 268.200632 187.765748 
L 266.38202 190.021595 
L 264.480773 191.874489 
L 262.51265 193.348098 
L 260.492386 194.469438 
L 258.433583 195.267705 
L 256.348636 195.773216 
L 254.248717 196.016486 
L 252.143776 196.02748 
L 250.042582 195.835011 
L 247.259865 195.308645 
L 244.512482 194.527779 
L 241.812663 193.544641 
L 238.519206 192.099328 
L 234.70413 190.141526 
L 230.461724 187.667657 
L 225.905176 184.714551 
L 221.66881 181.713584 
L 217.288591 178.332147 
L 213.737557 175.332375 
L 210.508597 172.330522 
L 207.602624 169.313076 
L 205.326645 166.65086 
L 203.301896 163.964731 
L 201.530527 161.25731 
L 200.014148 158.537929 
L 198.753193 155.82256 
L 197.746297 153.132968 
L 196.989835 150.495406 
L 196.477574 147.938843 
L 196.200505 145.492978 
L 196.146877 143.186266 
L 196.30239 141.044124 
L 196.650569 139.087508 
L 197.173208 137.331921 
L 197.850923 135.786922 
L 198.663715 134.456148 
L 199.591511 133.337729 
L 200.614641 132.42497 
L 201.876539 131.619902 
L 203.212095 131.049106 
L 204.597397 130.689064 
L 206.188918 130.504861 
L 207.967817 130.532883 
L 209.903181 130.79366 
L 211.95316 131.290839 
L 214.224341 132.074394 
L 216.62001 133.147663 
L 218.898028 134.408282 
L 221.094408 135.881241 
L 222.913546 137.358073 
L 224.426932 138.864971 
L 225.547116 140.281863 
L 226.302875 141.575639 
L 226.730851 142.720755 
L 226.873486 143.699657 
L 226.776791 144.503377 
L 226.488025 145.13148 
L 226.028761 145.609959 
L 225.40073 145.939555 
L 224.604779 146.100826 
L 223.661167 146.064393 
L 222.602435 145.79856 
L 221.581549 145.316386 
L 220.774553 144.702402 
L 220.323147 144.10241 
L 220.241306 143.669138 
L 220.400314 143.435802 
L 220.721435 143.372755 
L 221.142573 143.518923 
L 221.332019 143.776282 
L 221.225863 143.812872 
L 221.207178 143.805925 
L 221.156011 143.751509 
L 221.180312 143.756 
" style="fill:none;stroke:#1f77b4;stroke-linecap:square;stroke-width:0.5;"/>
   </g>
   <g id="line2d_59">
    <path clip-path="url(#p9fe615b8b7)" d="M 198.15755 10.7 
L 203.449283 13.962037 
L 210.294782 18.529282 
L 216.891744 23.201679 
L 224.783995 29.071057 
L 232.282098 34.955901 
L 237.994762 39.729216 
L 242.109354 43.396533 
L 246.074055 47.182433 
L 249.883239 51.129494 
L 253.529551 55.280722 
L 257.003933 59.677274 
L 260.295752 64.355746 
L 262.383004 67.64636 
L 264.379998 71.082355 
L 266.282764 74.668432 
L 268.087237 78.407054 
L 269.789316 82.298244 
L 271.384934 86.339418 
L 272.870129 90.525294 
L 274.241119 94.847851 
L 276.075835 101.563736 
L 277.635251 108.51507 
L 278.911045 115.642436 
L 279.897501 122.876214 
L 280.591868 130.139141 
L 280.994615 137.349314 
L 281.10954 144.423518 
L 280.943766 151.280564 
L 280.507587 157.844471 
L 279.814205 164.047256 
L 278.87936 169.831169 
L 277.720881 175.150258 
L 276.358195 179.971225 
L 274.811814 184.273563 
L 273.689241 186.849158 
L 272.500684 189.190826 
L 271.25239 191.301082 
L 269.950517 193.184301 
L 268.601079 194.846507 
L 267.209911 196.295145 
L 265.782633 197.538847 
L 264.324619 198.587205 
L 262.840974 199.450544 
L 261.33652 200.139718 
L 259.815781 200.665915 
L 257.513291 201.174462 
L 255.196554 201.380029 
L 252.877011 201.319852 
L 250.56464 201.029449 
L 248.268033 200.542064 
L 245.242867 199.638241 
L 242.272702 198.502733 
L 238.653706 196.84061 
L 235.153006 194.989559 
L 231.12255 192.612231 
L 226.668029 189.724436 
L 221.912825 186.367929 
L 217.518664 183.003731 
L 213.485436 179.643368 
L 209.8133 176.273527 
L 206.89806 173.299238 
L 204.263965 170.285887 
L 201.915158 167.224542 
L 200.132462 164.56152 
L 198.565484 161.867761 
L 197.216306 159.153937 
L 196.085936 156.435871 
L 195.173928 153.733844 
L 194.478055 151.071536 
L 193.933617 148.050163 
L 193.667172 145.15987 
L 193.6645 142.440715 
L 193.907814 139.928136 
L 194.376308 137.650796 
L 195.046849 135.629124 
L 195.8948 133.874747 
L 196.743637 132.586252 
L 197.853959 131.330345 
L 199.070125 130.330564 
L 200.368782 129.57109 
L 201.728251 129.032346 
L 203.331191 128.658831 
L 204.961812 128.510988 
L 206.801585 128.572543 
L 208.821549 128.871359 
L 210.980938 129.417126 
L 213.410462 130.274573 
L 215.842649 131.369567 
L 218.355943 132.748487 
L 220.692888 134.282848 
L 222.783214 135.919841 
L 224.481563 137.521308 
L 225.80115 139.050357 
L 226.806704 140.55262 
L 227.446953 141.911342 
L 227.761572 143.103573 
L 227.799612 144.065567 
L 227.625642 144.858548 
L 227.257106 145.513519 
L 226.714439 146.010569 
L 226.028418 146.338875 
L 225.164447 146.503982 
L 224.131859 146.468297 
L 222.983112 146.198449 
L 221.857581 145.705655 
L 220.917277 145.061399 
L 220.300226 144.384007 
L 220.074211 143.833628 
L 220.146938 143.489801 
L 220.40129 143.324126 
L 220.811704 143.335331 
L 221.24622 143.563638 
L 221.343669 143.805851 
L 221.342996 143.806563 
L 221.191175 143.803672 
L 221.152513 143.74939 
L 221.180312 143.756 
" style="fill:none;stroke:#1f77b4;stroke-linecap:square;stroke-width:0.5;"/>
   </g>
   <g id="line2d_60">
    <path clip-path="url(#p9fe615b8b7)" d="M 221.180312 10.7 
L 228.17984 16.024227 
L 234.892948 21.379983 
L 239.737817 25.46464 
L 244.416163 29.661702 
L 248.92228 34.029267 
L 253.2481 38.629516 
L 256.026682 41.85669 
L 258.716688 45.23318 
L 261.313876 48.775732 
L 263.813583 52.499407 
L 266.210772 56.417093 
L 268.500105 60.538968 
L 270.675994 64.872253 
L 272.73269 69.420761 
L 274.66439 74.184498 
L 276.465374 79.159251 
L 278.130098 84.336561 
L 279.653288 89.703744 
L 281.03006 95.243901 
L 282.256043 100.936019 
L 283.327482 106.755226 
L 284.241342 112.673207 
L 284.995386 118.658728 
L 285.588246 124.67823 
L 286.01948 130.696486 
L 286.289604 136.677325 
L 286.400113 142.58439 
L 286.353469 148.381896 
L 286.153079 154.035358 
L 285.803251 159.512265 
L 285.30913 164.782688 
L 284.676628 169.819784 
L 283.912328 174.60021 
L 283.023391 179.104407 
L 282.017448 183.316783 
L 280.902496 187.225766 
L 279.686789 190.823768 
L 278.378732 194.107035 
L 276.986781 197.075432 
L 275.519352 199.732147 
L 273.984734 202.083362 
L 272.391014 204.137872 
L 270.746014 205.906694 
L 269.057231 207.402673 
L 267.331806 208.640097 
L 265.576472 209.634317 
L 263.797543 210.40141 
L 262.000896 210.957866 
L 260.191949 211.320249 
L 258.375693 211.505048 
L 256.556674 211.52839 
L 253.831874 211.294674 
L 251.122246 210.782596 
L 248.43806 210.038056 
L 245.787824 209.102472 
L 242.31877 207.620648 
L 238.934944 205.938059 
L 234.838607 203.642638 
L 230.133358 200.719965 
L 224.94685 197.203678 
L 220.0926 193.655507 
L 215.571745 190.107226 
L 211.384334 186.553297 
L 207.532018 182.967588 
L 204.500103 179.843427 
L 201.722351 176.651568 
L 199.204839 173.377626 
L 197.310694 170.581761 
L 195.60619 167.725766 
L 194.095171 164.816201 
L 192.780867 161.86475 
L 191.665562 158.887909 
L 190.750285 155.906389 
L 189.9152 152.356424 
L 189.363307 148.880112 
L 189.086773 145.524767 
L 189.07399 142.336318 
L 189.309812 139.35646 
L 189.775971 136.62031 
L 190.45168 134.154735 
L 191.3144 131.977524 
L 192.159154 130.389876 
L 193.103495 129.00884 
L 194.133657 127.830887 
L 195.464286 126.675626 
L 196.877114 125.78614 
L 198.351545 125.141748 
L 199.868766 124.719258 
L 201.670518 124.474285 
L 203.484177 124.459473 
L 205.546181 124.677009 
L 207.823551 125.160722 
L 210.270148 125.922504 
L 212.828656 126.953317 
L 215.641192 128.33885 
L 218.388189 129.944189 
L 220.9903 131.719111 
L 223.370796 133.616625 
L 225.347178 135.477362 
L 226.930805 137.270305 
L 228.139137 138.968799 
L 228.995137 140.548104 
L 229.526876 141.985622 
L 229.76691 143.262464 
L 229.751296 144.365144 
L 229.518291 145.286735 
L 229.106906 146.027182 
L 228.5172 146.622577 
L 227.768769 147.053531 
L 226.843477 147.318496 
L 225.775962 147.390527 
L 224.527213 147.243145 
L 223.195612 146.852602 
L 221.91714 146.243581 
L 220.840414 145.488352 
L 220.104857 144.712968 
L 219.759075 144.05413 
L 219.734072 143.578658 
L 219.923409 143.291592 
L 220.274053 143.163018 
L 220.772042 143.222589 
L 221.263434 143.49785 
L 221.414935 143.789955 
L 221.278381 143.850691 
L 221.141532 143.752584 
L 221.180313 143.756 
" style="fill:none;stroke:#1f77b4;stroke-linecap:square;stroke-width:0.5;"/>
   </g>
   <g id="patch_63">
    <path d="M 42.620313 276.812 
L 42.620313 10.7 
" style="fill:none;stroke:#000000;stroke-linecap:square;stroke-linejoin:miter;stroke-width:0.8;"/>
   </g>
   <g id="patch_64">
    <path d="M 399.740313 276.812 
L 399.740313 10.7 
" style="fill:none;stroke:#000000;stroke-linecap:square;stroke-linejoin:miter;stroke-width:0.8;"/>
   </g>
   <g id="patch_65">
    <path d="M 42.620313 276.812 
L 399.740313 276.812 
" style="fill:none;stroke:#000000;stroke-linecap:square;stroke-linejoin:miter;stroke-width:0.8;"/>
   </g>
   <g id="patch_66">
    <path d="M 42.620313 10.7 
L 399.740313 10.7 
" style="fill:none;stroke:#000000;stroke-linecap:square;stroke-linejoin:miter;stroke-width:0.8;"/>
   </g>
  </g>
 </g>
 <defs>
  <clipPath id="p9fe615b8b7">
   <rect height="266.112" width="357.12" x="42.620313" y="10.7"/>
  </clipPath>
 </defs>
</svg>
