<?xml version="1.0" encoding="utf-8" standalone="no"?>
<!DOCTYPE svg PUBLIC "-//W3C//DTD SVG 1.1//EN"
  "http://www.w3.org/Graphics/SVG/1.1/DTD/svg11.dtd">
<!-- Created with matplotlib (http://matplotlib.org/) -->
<svg height="314pt" version="1.1" viewBox="0 0 410 314" width="410pt" xmlns="http://www.w3.org/2000/svg" xmlns:xlink="http://www.w3.org/1999/xlink">
 <defs>
  <style type="text/css">
*{stroke-linecap:butt;stroke-linejoin:round;}
  </style>
 </defs>
 <g id="figure_1">
  <g id="patch_1">
   <path d="M 0 314.36825 
L 410.440313 314.36825 
L 410.440313 0 
L 0 0 
z
" style="fill:#ffffff;"/>
  </g>
  <g id="axes_1">
   <g id="patch_2">
    <path d="M 42.620313 276.812 
L 399.740313 276.812 
L 399.740313 10.7 
L 42.620313 10.7 
z
" style="fill:#ffffff;"/>
   </g>
   <g id="patch_3">
    <path clip-path="url(#p025baea43f)" d="M 250.703266 58.33588 
L 244.683439 54.426159 
L 247.969615 53.418868 
L 248.001444 53.406575 
L 248.002642 53.408745 
L 251.288819 52.401454 
z
" style="fill:#1f77b4;stroke:#1f77b4;stroke-linejoin:miter;"/>
   </g>
   <g id="patch_4">
    <path clip-path="url(#p025baea43f)" d="M 270.480018 169.62745 
L 268.346341 163.89335 
L 271.833598 164.401642 
L 271.86893 164.405667 
L 271.868645 164.406751 
L 275.355902 164.915043 
z
" style="fill:#1f77b4;stroke:#1f77b4;stroke-linejoin:miter;"/>
   </g>
   <g id="patch_5">
    <path clip-path="url(#p025baea43f)" d="M 288.589822 99.737864 
L 284.21822 94.758288 
L 287.747823 94.452719 
L 287.782662 94.445579 
L 287.783296 94.449648 
L 291.312899 94.144079 
z
" style="fill:#1f77b4;stroke:#1f77b4;stroke-linejoin:miter;"/>
   </g>
   <g id="patch_6">
    <path clip-path="url(#p025baea43f)" d="M 263.167158 209.758353 
L 269.944012 206.610842 
L 270.276543 209.247036 
L 270.280765 209.273469 
L 270.279885 209.273531 
L 270.612416 211.909725 
z
" style="fill:#1f77b4;stroke:#1f77b4;stroke-linejoin:miter;"/>
   </g>
   <g id="patch_7">
    <path clip-path="url(#p025baea43f)" d="M 317.333239 148.24623 
L 313.790797 142.913329 
L 317.344113 142.92398 
L 317.37987 142.915643 
L 317.379824 142.924087 
L 320.93314 142.934737 
z
" style="fill:#1f77b4;stroke:#1f77b4;stroke-linejoin:miter;"/>
   </g>
   <g id="patch_8">
    <path clip-path="url(#p025baea43f)" d="M 304.76089 246.365659 
L 303.037035 240.555519 
L 306.483351 241.200486 
L 306.519322 241.203008 
L 306.517987 241.206968 
L 309.964303 241.851935 
z
" style="fill:#1f77b4;stroke:#1f77b4;stroke-linejoin:miter;"/>
   </g>
   <g id="patch_9">
    <path clip-path="url(#p025baea43f)" d="M 359.985859 67.749803 
L 356.22812 62.499363 
L 359.780236 62.429752 
L 359.815018 62.403059 
L 359.815936 62.429053 
L 363.368052 62.359442 
z
" style="fill:#1f77b4;stroke:#1f77b4;stroke-linejoin:miter;"/>
   </g>
   <g id="patch_10">
    <path clip-path="url(#p025baea43f)" d="M 361.293806 170.233931 
L 357.820593 164.875804 
L 361.373605 164.912006 
L 361.409762 164.887938 
L 361.409314 164.91237 
L 364.962325 164.948572 
z
" style="fill:#1f77b4;stroke:#1f77b4;stroke-linejoin:miter;"/>
   </g>
   <g id="patch_11">
    <path clip-path="url(#p025baea43f)" d="M 399.856612 36.112258 
L 396.170734 30.833609 
L 399.723616 30.790924 
L 399.758166 30.737 
L 399.759324 30.790495 
L 403.312206 30.74781 
z
" style="fill:#1f77b4;stroke:#1f77b4;stroke-linejoin:miter;"/>
   </g>
   <g id="patch_12">
    <path clip-path="url(#p025baea43f)" d="M 399.80124 78.588637 
L 396.169834 73.289066 
L 399.723051 73.2667 
L 399.758168 73.214061 
L 399.758762 73.266475 
L 403.311979 73.244108 
z
" style="fill:#1f77b4;stroke:#1f77b4;stroke-linejoin:miter;"/>
   </g>
   <g id="patch_13">
    <path clip-path="url(#p025baea43f)" d="M 399.755814 112.186971 
L 396.169269 106.870463 
L 399.722605 106.864772 
L 399.758168 106.813155 
L 399.758317 106.864715 
L 403.311653 106.859023 
z
" style="fill:#1f77b4;stroke:#1f77b4;stroke-linejoin:miter;"/>
   </g>
   <g id="patch_14">
    <path clip-path="url(#p025baea43f)" d="M 399.714353 141.914924 
L 396.16889 136.583138 
L 399.722211 136.59267 
L 399.758168 136.541961 
L 399.757923 136.592766 
L 403.311244 136.602299 
z
" style="fill:#1f77b4;stroke:#1f77b4;stroke-linejoin:miter;"/>
   </g>
   <g id="patch_15">
    <path clip-path="url(#p025baea43f)" d="M 399.394882 192.718015 
L 395.923076 187.359382 
L 399.476078 187.396102 
L 399.512704 187.347159 
L 399.511786 187.396471 
L 403.064789 187.433191 
z
" style="fill:#1f77b4;stroke:#1f77b4;stroke-linejoin:miter;"/>
   </g>
   <g id="patch_16">
    <path clip-path="url(#p025baea43f)" d="M 399.672672 170.941498 
L 396.168639 165.594526 
L 399.721827 165.619367 
L 399.758168 165.569549 
L 399.757537 165.619617 
L 403.310725 165.644459 
z
" style="fill:#1f77b4;stroke:#1f77b4;stroke-linejoin:miter;"/>
   </g>
   <g id="patch_17">
    <path clip-path="url(#p025baea43f)" d="M 398.966329 221.00721 
L 395.538116 215.633016 
L 399.090755 215.685761 
L 399.127751 215.638014 
L 399.12646 215.686291 
L 402.679099 215.739037 
z
" style="fill:#1f77b4;stroke:#1f77b4;stroke-linejoin:miter;"/>
   </g>
   <g id="patch_18">
    <path clip-path="url(#p025baea43f)" d="M 399.6265 202.141209 
L 396.168513 196.777617 
L 399.721415 196.819422 
L 399.758166 196.770566 
L 399.757122 196.819843 
L 403.310023 196.861648 
z
" style="fill:#1f77b4;stroke:#1f77b4;stroke-linejoin:miter;"/>
   </g>
   <g id="patch_19">
    <path clip-path="url(#p025baea43f)" d="M 398.503583 251.414562 
L 395.124488 246.023123 
L 398.676564 246.093867 
L 398.713955 246.047409 
L 398.712263 246.094578 
L 402.264338 246.165322 
z
" style="fill:#1f77b4;stroke:#1f77b4;stroke-linejoin:miter;"/>
   </g>
   <g id="patch_20">
    <path clip-path="url(#p025baea43f)" d="M 399.569516 239.339286 
L 396.168578 233.955478 
L 399.720924 234.018225 
L 399.758163 233.970522 
L 399.756626 234.018855 
L 403.308972 234.081603 
z
" style="fill:#1f77b4;stroke:#1f77b4;stroke-linejoin:miter;"/>
   </g>
   <g id="patch_21">
    <path clip-path="url(#p025baea43f)" d="M 390.045015 282.170179 
L 386.750707 276.749681 
L 390.30143 276.851353 
L 390.339172 276.812511 
L 390.337116 276.852375 
L 393.887839 276.954048 
z
" style="fill:#1f77b4;stroke:#1f77b4;stroke-linejoin:miter;"/>
   </g>
   <g id="patch_22">
    <path clip-path="url(#p025baea43f)" d="M 327.492346 282.076787 
L 325.087603 276.402563 
L 328.596821 276.818549 
L 328.633934 276.81409 
L 328.63209 276.82273 
L 332.141308 277.238716 
z
" style="fill:#1f77b4;stroke:#1f77b4;stroke-linejoin:miter;"/>
   </g>
   <g id="patch_23">
    <path clip-path="url(#p025baea43f)" d="M 224.238266 217.408513 
L 230.683013 220.922056 
L 227.523881 222.134207 
L 227.493173 222.147897 
L 227.492131 222.146389 
L 224.332999 223.35854 
z
" style="fill:#1f77b4;stroke:#1f77b4;stroke-linejoin:miter;"/>
   </g>
   <g id="patch_24">
    <path clip-path="url(#p025baea43f)" d="M 195.520665 167.978086 
L 201.161928 172.189631 
L 197.789877 173.024587 
L 197.756374 173.033846 
L 197.755987 173.032978 
L 194.383937 173.867934 
z
" style="fill:#1f77b4;stroke:#1f77b4;stroke-linejoin:miter;"/>
   </g>
   <g id="patch_25">
    <path clip-path="url(#p025baea43f)" d="M 211.58757 234.344703 
L 217.919881 237.969985 
L 214.723442 239.126554 
L 214.692584 239.140122 
L 214.691317 239.138178 
L 211.494878 240.294747 
z
" style="fill:#1f77b4;stroke:#1f77b4;stroke-linejoin:miter;"/>
   </g>
   <g id="patch_26">
    <path clip-path="url(#p025baea43f)" d="M 177.148861 146.097753 
L 181.134588 151.253996 
L 177.587414 151.409967 
L 177.551859 151.41273 
L 177.551764 151.411535 
L 174.004591 151.567506 
z
" style="fill:#1f77b4;stroke:#1f77b4;stroke-linejoin:miter;"/>
   </g>
   <g id="patch_27">
    <path clip-path="url(#p025baea43f)" d="M 169.851229 210.103793 
L 175.010907 214.64531 
L 171.55845 215.271775 
L 171.524692 215.28095 
L 171.523752 215.278072 
L 168.071295 215.904537 
z
" style="fill:#1f77b4;stroke:#1f77b4;stroke-linejoin:miter;"/>
   </g>
   <g id="patch_28">
    <path clip-path="url(#p025baea43f)" d="M 159.741559 136.710098 
L 163.226245 142.064086 
L 159.67316 142.03211 
L 159.637411 142.034228 
L 159.63745 142.031789 
L 156.084365 141.999813 
z
" style="fill:#1f77b4;stroke:#1f77b4;stroke-linejoin:miter;"/>
   </g>
   <g id="patch_29">
    <path clip-path="url(#p025baea43f)" d="M 141.263063 182.3206 
L 145.324338 187.444005 
L 141.779669 187.628917 
L 141.744594 187.636625 
L 141.744045 187.630775 
L 138.199376 187.815687 
z
" style="fill:#1f77b4;stroke:#1f77b4;stroke-linejoin:miter;"/>
   </g>
   <g id="patch_30">
    <path clip-path="url(#p025baea43f)" d="M 189.444683 67.416536 
L 182.075625 65.124111 
L 184.766481 63.394831 
L 184.792452 63.376525 
L 184.793525 63.377451 
L 187.484381 61.648172 
z
" style="fill:#1f77b4;stroke:#1f77b4;stroke-linejoin:miter;"/>
   </g>
   <g id="patch_31">
    <path clip-path="url(#p025baea43f)" d="M 107.029812 197.583882 
L 110.845451 202.811083 
L 107.294225 202.90249 
L 107.259228 202.91837 
L 107.258534 202.903409 
L 103.707308 202.994816 
z
" style="fill:#1f77b4;stroke:#1f77b4;stroke-linejoin:miter;"/>
   </g>
   <g id="patch_32">
    <path clip-path="url(#p025baea43f)" d="M 105.899827 124.333093 
L 109.362155 129.69513 
L 105.809221 129.654922 
L 105.77323 129.668377 
L 105.773513 129.654518 
L 102.220579 129.61431 
z
" style="fill:#1f77b4;stroke:#1f77b4;stroke-linejoin:miter;"/>
   </g>
   <g id="patch_33">
    <path clip-path="url(#p025baea43f)" d="M 50.467205 224.974934 
L 54.135504 230.260378 
L 50.58249 230.296498 
L 50.547632 230.343296 
L 50.546782 230.296861 
L 46.993768 230.33298 
z
" style="fill:#1f77b4;stroke:#1f77b4;stroke-linejoin:miter;"/>
   </g>
   <g id="patch_34">
    <path clip-path="url(#p025baea43f)" d="M 49.530949 132.608793 
L 53.057026 137.947712 
L 49.503753 137.931011 
L 49.467661 137.975805 
L 49.468042 137.930843 
L 45.914768 137.914142 
z
" style="fill:#1f77b4;stroke:#1f77b4;stroke-linejoin:miter;"/>
   </g>
   <g id="patch_35">
    <path clip-path="url(#p025baea43f)" d="M 42.53349 228.595438 
L 46.190399 233.885263 
L 42.637312 233.917133 
L 42.602458 233.970367 
L 42.601603 233.917453 
L 39.048516 233.949323 
z
" style="fill:#1f77b4;stroke:#1f77b4;stroke-linejoin:miter;"/>
   </g>
   <g id="patch_36">
    <path clip-path="url(#p025baea43f)" d="M 42.582895 191.396219 
L 46.191103 196.704581 
L 42.637806 196.718318 
L 42.602457 196.770425 
L 42.602095 196.718457 
L 39.048799 196.732194 
z
" style="fill:#1f77b4;stroke:#1f77b4;stroke-linejoin:miter;"/>
   </g>
   <g id="patch_37">
    <path clip-path="url(#p025baea43f)" d="M 42.62576 160.19601 
L 46.191563 165.520258 
L 42.63822 165.518258 
L 42.602457 165.569414 
L 42.602508 165.518238 
L 39.049165 165.516238 
z
" style="fill:#1f77b4;stroke:#1f77b4;stroke-linejoin:miter;"/>
   </g>
   <g id="patch_38">
    <path clip-path="url(#p025baea43f)" d="M 43.557648 59.191073 
L 46.974156 64.569405 
L 43.421636 64.512365 
L 43.384546 64.559759 
L 43.385933 64.511792 
L 39.833413 64.454752 
z
" style="fill:#1f77b4;stroke:#1f77b4;stroke-linejoin:miter;"/>
   </g>
   <g id="patch_39">
    <path clip-path="url(#p025baea43f)" d="M 42.666838 131.169345 
L 46.191875 136.508646 
L 42.638605 136.49156 
L 42.602457 136.541827 
L 42.602894 136.491389 
L 39.049624 136.474303 
z
" style="fill:#1f77b4;stroke:#1f77b4;stroke-linejoin:miter;"/>
   </g>
   <g id="patch_40">
    <path clip-path="url(#p025baea43f)" d="M 43.178522 80.732711 
L 46.628902 86.099022 
L 43.076062 86.05442 
L 43.039252 86.102769 
L 43.040355 86.053971 
L 39.487515 86.009369 
z
" style="fill:#1f77b4;stroke:#1f77b4;stroke-linejoin:miter;"/>
   </g>
   <g id="patch_41">
    <path clip-path="url(#p025baea43f)" d="M 42.71016 101.441672 
L 46.192066 106.796665 
L 42.638998 106.763665 
L 42.602458 106.813018 
L 42.603289 106.763333 
L 39.050221 106.730333 
z
" style="fill:#1f77b4;stroke:#1f77b4;stroke-linejoin:miter;"/>
   </g>
   <g id="patch_42">
    <path clip-path="url(#p025baea43f)" d="M 43.618404 51.760157 
L 47.023099 57.142647 
L 43.470709 57.081276 
L 43.433522 57.128398 
L 43.435007 57.080659 
L 39.882618 57.019289 
z
" style="fill:#1f77b4;stroke:#1f77b4;stroke-linejoin:miter;"/>
   </g>
   <g id="patch_43">
    <path clip-path="url(#p025baea43f)" d="M 42.760706 67.844111 
L 46.192112 73.217173 
L 42.639442 73.1656 
L 42.60246 73.213914 
L 42.603737 73.165082 
L 39.051067 73.113509 
z
" style="fill:#1f77b4;stroke:#1f77b4;stroke-linejoin:miter;"/>
   </g>
   <g id="patch_44">
    <path clip-path="url(#p025baea43f)" d="M 44.117991 19.015627 
L 47.468406 24.416996 
L 43.916734 24.335771 
L 43.879122 24.381501 
L 43.881039 24.334954 
L 40.329367 24.253729 
z
" style="fill:#1f77b4;stroke:#1f77b4;stroke-linejoin:miter;"/>
   </g>
   <g id="patch_45">
    <path clip-path="url(#p025baea43f)" d="M 42.827127 25.369411 
L 46.191882 30.765829 
L 42.640001 30.689841 
L 42.602464 30.736833 
L 42.604304 30.689077 
L 39.052423 30.613089 
z
" style="fill:#1f77b4;stroke:#1f77b4;stroke-linejoin:miter;"/>
   </g>
   <g id="patch_46">
    <path clip-path="url(#p025baea43f)" d="M 85.963727 5.372231 
L 89.006197 10.87386 
L 85.462257 10.681354 
L 85.424721 10.699033 
L 85.426639 10.679419 
L 81.882699 10.486913 
z
" style="fill:#1f77b4;stroke:#1f77b4;stroke-linejoin:miter;"/>
   </g>
   <g id="patch_47">
    <path clip-path="url(#p025baea43f)" d="M 141.752916 5.932212 
L 141.768816 11.882645 
L 138.58745 10.703225 
L 138.553673 10.694073 
L 138.555477 10.691371 
L 135.374112 9.51195 
z
" style="fill:#1f77b4;stroke:#1f77b4;stroke-linejoin:miter;"/>
   </g>
   <g id="patch_48">
    <path clip-path="url(#p025baea43f)" d="M 211.777457 48.671174 
L 205.28399 45.207798 
L 208.426022 43.971215 
L 208.456274 43.956915 
L 208.457601 43.958787 
L 211.599633 42.722204 
z
" style="fill:#1f77b4;stroke:#1f77b4;stroke-linejoin:miter;"/>
   </g>
   <g id="patch_49">
    <path clip-path="url(#p025baea43f)" d="M 249.917762 112.588719 
L 244.286862 108.36948 
L 247.66096 107.539129 
L 247.694392 107.529703 
L 247.694871 107.530783 
L 251.068968 106.700432 
z
" style="fill:#1f77b4;stroke:#1f77b4;stroke-linejoin:miter;"/>
   </g>
   <g id="patch_50">
    <path clip-path="url(#p025baea43f)" d="M 265.511712 92.662049 
L 260.253235 88.183898 
L 263.691508 87.515521 
L 263.725323 87.506688 
L 263.726064 87.508804 
L 267.164337 86.840427 
z
" style="fill:#1f77b4;stroke:#1f77b4;stroke-linejoin:miter;"/>
   </g>
   <g id="patch_51">
    <path clip-path="url(#p025baea43f)" d="M 272.962373 126.091444 
L 268.630507 121.092623 
L 272.162482 120.802669 
L 272.197684 120.797762 
L 272.197979 120.799755 
L 275.729953 120.509801 
z
" style="fill:#1f77b4;stroke:#1f77b4;stroke-linejoin:miter;"/>
   </g>
   <g id="matplotlib.axis_1">
    <g id="xtick_1">
     <g id="line2d_1">
      <defs>
       <path d="M 0 0 
L 0 3.5 
" id="m000eba6d27" style="stroke:#000000;stroke-width:0.8;"/>
      </defs>
      <g>
       <use style="stroke:#000000;stroke-width:0.8;" x="78.332313" xlink:href="#m000eba6d27" y="276.812"/>
      </g>
     </g>
     <g id="text_1">
      <!-- −4 -->
      <defs>
       <path d="M 10.59375 35.5 
L 73.1875 35.5 
L 73.1875 27.203125 
L 10.59375 27.203125 
z
" id="DejaVuSans-2212"/>
       <path d="M 37.796875 64.3125 
L 12.890625 25.390625 
L 37.796875 25.390625 
z
M 35.203125 72.90625 
L 47.609375 72.90625 
L 47.609375 25.390625 
L 58.015625 25.390625 
L 58.015625 17.1875 
L 47.609375 17.1875 
L 47.609375 0 
L 37.796875 0 
L 37.796875 17.1875 
L 4.890625 17.1875 
L 4.890625 26.703125 
z
" id="DejaVuSans-34"/>
      </defs>
      <g transform="translate(70.961219 291.410438)scale(0.1 -0.1)">
       <use xlink:href="#DejaVuSans-2212"/>
       <use x="83.789062" xlink:href="#DejaVuSans-34"/>
      </g>
     </g>
    </g>
    <g id="xtick_2">
     <g id="line2d_2">
      <g>
       <use style="stroke:#000000;stroke-width:0.8;" x="149.756313" xlink:href="#m000eba6d27" y="276.812"/>
      </g>
     </g>
     <g id="text_2">
      <!-- −2 -->
      <defs>
       <path d="M 19.1875 8.296875 
L 53.609375 8.296875 
L 53.609375 0 
L 7.328125 0 
L 7.328125 8.296875 
Q 12.9375 14.109375 22.625 23.890625 
Q 32.328125 33.6875 34.8125 36.53125 
Q 39.546875 41.84375 41.421875 45.53125 
Q 43.3125 49.21875 43.3125 52.78125 
Q 43.3125 58.59375 39.234375 62.25 
Q 35.15625 65.921875 28.609375 65.921875 
Q 23.96875 65.921875 18.8125 64.3125 
Q 13.671875 62.703125 7.8125 59.421875 
L 7.8125 69.390625 
Q 13.765625 71.78125 18.9375 73 
Q 24.125 74.21875 28.421875 74.21875 
Q 39.75 74.21875 46.484375 68.546875 
Q 53.21875 62.890625 53.21875 53.421875 
Q 53.21875 48.921875 51.53125 44.890625 
Q 49.859375 40.875 45.40625 35.40625 
Q 44.1875 33.984375 37.640625 27.21875 
Q 31.109375 20.453125 19.1875 8.296875 
" id="DejaVuSans-32"/>
      </defs>
      <g transform="translate(142.385219 291.410438)scale(0.1 -0.1)">
       <use xlink:href="#DejaVuSans-2212"/>
       <use x="83.789062" xlink:href="#DejaVuSans-32"/>
      </g>
     </g>
    </g>
    <g id="xtick_3">
     <g id="line2d_3">
      <g>
       <use style="stroke:#000000;stroke-width:0.8;" x="221.180313" xlink:href="#m000eba6d27" y="276.812"/>
      </g>
     </g>
     <g id="text_3">
      <!-- 0 -->
      <defs>
       <path d="M 31.78125 66.40625 
Q 24.171875 66.40625 20.328125 58.90625 
Q 16.5 51.421875 16.5 36.375 
Q 16.5 21.390625 20.328125 13.890625 
Q 24.171875 6.390625 31.78125 6.390625 
Q 39.453125 6.390625 43.28125 13.890625 
Q 47.125 21.390625 47.125 36.375 
Q 47.125 51.421875 43.28125 58.90625 
Q 39.453125 66.40625 31.78125 66.40625 
M 31.78125 74.21875 
Q 44.046875 74.21875 50.515625 64.515625 
Q 56.984375 54.828125 56.984375 36.375 
Q 56.984375 17.96875 50.515625 8.265625 
Q 44.046875 -1.421875 31.78125 -1.421875 
Q 19.53125 -1.421875 13.0625 8.265625 
Q 6.59375 17.96875 6.59375 36.375 
Q 6.59375 54.828125 13.0625 64.515625 
Q 19.53125 74.21875 31.78125 74.21875 
" id="DejaVuSans-30"/>
      </defs>
      <g transform="translate(217.999063 291.410438)scale(0.1 -0.1)">
       <use xlink:href="#DejaVuSans-30"/>
      </g>
     </g>
    </g>
    <g id="xtick_4">
     <g id="line2d_4">
      <g>
       <use style="stroke:#000000;stroke-width:0.8;" x="292.604312" xlink:href="#m000eba6d27" y="276.812"/>
      </g>
     </g>
     <g id="text_4">
      <!-- 2 -->
      <g transform="translate(289.423063 291.410438)scale(0.1 -0.1)">
       <use xlink:href="#DejaVuSans-32"/>
      </g>
     </g>
    </g>
    <g id="xtick_5">
     <g id="line2d_5">
      <g>
       <use style="stroke:#000000;stroke-width:0.8;" x="364.028313" xlink:href="#m000eba6d27" y="276.812"/>
      </g>
     </g>
     <g id="text_5">
      <!-- 4 -->
      <g transform="translate(360.847063 291.410438)scale(0.1 -0.1)">
       <use xlink:href="#DejaVuSans-34"/>
      </g>
     </g>
    </g>
    <g id="text_6">
     <!-- x1 -->
     <defs>
      <path d="M 54.890625 54.6875 
L 35.109375 28.078125 
L 55.90625 0 
L 45.3125 0 
L 29.390625 21.484375 
L 13.484375 0 
L 2.875 0 
L 24.125 28.609375 
L 4.6875 54.6875 
L 15.28125 54.6875 
L 29.78125 35.203125 
L 44.28125 54.6875 
z
" id="DejaVuSans-78"/>
      <path d="M 12.40625 8.296875 
L 28.515625 8.296875 
L 28.515625 63.921875 
L 10.984375 60.40625 
L 10.984375 69.390625 
L 28.421875 72.90625 
L 38.28125 72.90625 
L 38.28125 8.296875 
L 54.390625 8.296875 
L 54.390625 0 
L 12.40625 0 
z
" id="DejaVuSans-31"/>
     </defs>
     <g transform="translate(215.039688 305.088562)scale(0.1 -0.1)">
      <use xlink:href="#DejaVuSans-78"/>
      <use x="59.179688" xlink:href="#DejaVuSans-31"/>
     </g>
    </g>
   </g>
   <g id="matplotlib.axis_2">
    <g id="ytick_1">
     <g id="line2d_6">
      <defs>
       <path d="M 0 0 
L -3.5 0 
" id="m152a86d3b9" style="stroke:#000000;stroke-width:0.8;"/>
      </defs>
      <g>
       <use style="stroke:#000000;stroke-width:0.8;" x="42.620313" xlink:href="#m152a86d3b9" y="250.2008"/>
      </g>
     </g>
     <g id="text_7">
      <!-- −4 -->
      <g transform="translate(20.878125 254.000019)scale(0.1 -0.1)">
       <use xlink:href="#DejaVuSans-2212"/>
       <use x="83.789062" xlink:href="#DejaVuSans-34"/>
      </g>
     </g>
    </g>
    <g id="ytick_2">
     <g id="line2d_7">
      <g>
       <use style="stroke:#000000;stroke-width:0.8;" x="42.620313" xlink:href="#m152a86d3b9" y="196.9784"/>
      </g>
     </g>
     <g id="text_8">
      <!-- −2 -->
      <g transform="translate(20.878125 200.777619)scale(0.1 -0.1)">
       <use xlink:href="#DejaVuSans-2212"/>
       <use x="83.789062" xlink:href="#DejaVuSans-32"/>
      </g>
     </g>
    </g>
    <g id="ytick_3">
     <g id="line2d_8">
      <g>
       <use style="stroke:#000000;stroke-width:0.8;" x="42.620313" xlink:href="#m152a86d3b9" y="143.756"/>
      </g>
     </g>
     <g id="text_9">
      <!-- 0 -->
      <g transform="translate(29.257813 147.555219)scale(0.1 -0.1)">
       <use xlink:href="#DejaVuSans-30"/>
      </g>
     </g>
    </g>
    <g id="ytick_4">
     <g id="line2d_9">
      <g>
       <use style="stroke:#000000;stroke-width:0.8;" x="42.620313" xlink:href="#m152a86d3b9" y="90.5336"/>
      </g>
     </g>
     <g id="text_10">
      <!-- 2 -->
      <g transform="translate(29.257813 94.332819)scale(0.1 -0.1)">
       <use xlink:href="#DejaVuSans-32"/>
      </g>
     </g>
    </g>
    <g id="ytick_5">
     <g id="line2d_10">
      <g>
       <use style="stroke:#000000;stroke-width:0.8;" x="42.620313" xlink:href="#m152a86d3b9" y="37.3112"/>
      </g>
     </g>
     <g id="text_11">
      <!-- 4 -->
      <g transform="translate(29.257813 41.110419)scale(0.1 -0.1)">
       <use xlink:href="#DejaVuSans-34"/>
      </g>
     </g>
    </g>
    <g id="text_12">
     <!-- x2 -->
     <g transform="translate(14.798438 149.896625)rotate(-90)scale(0.1 -0.1)">
      <use xlink:href="#DejaVuSans-78"/>
      <use x="59.179688" xlink:href="#DejaVuSans-32"/>
     </g>
    </g>
   </g>
   <g id="line2d_11">
    <path clip-path="url(#p025baea43f)" d="M 221.180313 10.7 
L 229.672787 23.524414 
L 237.334414 35.495653 
L 242.89985 44.600313 
L 247.984931 53.411636 
L 251.491431 59.892431 
L 254.738482 66.306203 
L 257.728153 72.682428 
L 260.461519 79.04142 
L 262.939028 85.393708 
L 265.160903 91.739933 
L 267.127531 98.071264 
L 268.839837 104.370196 
L 270.29961 110.611644 
L 271.509775 116.764322 
L 272.474616 122.792372 
L 273.199923 128.657169 
L 273.693063 134.319153 
L 273.962991 139.73961 
L 274.020178 144.882308 
L 273.876464 149.71487 
L 273.544902 154.20993 
L 273.039537 158.345966 
L 272.37515 162.107755 
L 271.567006 165.486544 
L 270.630591 168.479918 
L 269.581374 171.091416 
L 268.434564 173.32996 
L 267.204919 175.209127 
L 265.906566 176.746362 
L 264.552872 177.962145 
L 263.156331 178.879177 
L 261.728487 179.521608 
L 260.279889 179.914332 
L 258.820082 180.082375 
L 257.357613 180.05039 
L 255.416464 179.73767 
L 253.499307 179.165005 
L 251.618761 178.381337 
L 249.334767 177.171538 
L 246.710885 175.478919 
L 243.831856 173.30302 
L 240.798757 170.704418 
L 237.400005 167.47751 
L 233.610003 163.548043 
L 229.619535 159.083333 
L 225.659431 154.323885 
L 222.424781 150.099081 
L 220.395141 147.103589 
L 219.344377 145.186282 
L 218.960799 144.071714 
L 218.964972 143.490266 
L 219.168481 143.220655 
L 219.526994 143.13661 
L 220.122334 143.250172 
L 221.032344 143.66604 
L 221.180313 143.756 
L 221.180313 143.756 
" style="fill:none;stroke:#1f77b4;stroke-linecap:square;stroke-width:0.5;"/>
   </g>
   <g id="line2d_12">
    <path clip-path="url(#p025baea43f)" d="M 260.484341 10.7 
L 262.246425 14.194912 
L 263.961561 17.709735 
L 267.249524 24.812666 
L 270.345308 32.032363 
L 273.24556 39.385908 
L 275.946543 46.88291 
L 278.444362 54.525267 
L 280.735175 62.307186 
L 282.815391 70.215063 
L 284.681912 78.227446 
L 286.332299 86.316187 
L 287.764925 94.447115 
L 288.979179 102.580498 
L 289.975589 110.672431 
L 290.755888 118.676214 
L 291.323087 126.543624 
L 291.681497 134.226208 
L 291.83672 141.676651 
L 291.795594 148.8501 
L 291.566119 155.705205 
L 291.157344 162.20509 
L 290.579239 168.318123 
L 289.842547 174.018469 
L 288.958625 179.286384 
L 287.939279 184.108333 
L 286.796589 188.476926 
L 285.542754 192.390671 
L 284.18994 195.853544 
L 282.75014 198.874443 
L 281.235048 201.46657 
L 279.655953 203.64679 
L 278.023649 205.434982 
L 276.348365 206.853389 
L 274.639707 207.925966 
L 272.906624 208.677781 
L 271.157381 209.134482 
L 269.399551 209.321826 
L 267.640021 209.265284 
L 265.885001 208.989694 
L 264.140049 208.519 
L 262.410091 207.876022 
L 259.852593 206.635301 
L 257.350747 205.121997 
L 254.914301 203.395634 
L 251.78012 200.851493 
L 248.787831 198.12454 
L 245.258016 194.584178 
L 241.338033 190.300959 
L 237.195858 185.434682 
L 232.520518 179.585365 
L 227.712415 173.217714 
L 222.840632 166.384044 
L 218.903195 160.470235 
L 216.030997 155.757632 
L 214.006574 152.01232 
L 212.654631 149.049261 
L 211.832674 146.72578 
L 211.42368 144.929481 
L 211.331059 143.568468 
L 211.475209 142.565071 
L 211.791035 141.852428 
L 212.258117 141.347843 
L 212.846926 141.035665 
L 213.601612 140.885599 
L 214.602347 140.924698 
L 215.872847 141.206404 
L 217.506527 141.805578 
L 219.565885 142.808819 
L 221.180313 143.756 
L 221.180312 143.756 
" style="fill:none;stroke:#1f77b4;stroke-linecap:square;stroke-width:0.5;"/>
   </g>
   <g id="line2d_13">
    <path clip-path="url(#p025baea43f)" d="M 303.790965 10.7 
L 305.520904 19.000733 
L 307.138489 27.458883 
L 308.641616 36.061175 
L 310.028431 44.791374 
L 311.297337 53.631154 
L 312.446986 62.56034 
L 313.476322 71.556875 
L 314.384605 80.597093 
L 315.171415 89.656055 
L 315.836674 98.707807 
L 316.380656 107.725694 
L 316.803998 116.682574 
L 317.107699 125.551133 
L 317.293128 134.304315 
L 317.362014 142.91559 
L 317.316435 151.359162 
L 317.158807 159.610261 
L 316.891874 167.645423 
L 316.518682 175.442725 
L 316.042561 182.981964 
L 315.4671 190.244822 
L 314.796118 197.214997 
L 314.033641 203.878308 
L 313.183869 210.222753 
L 312.251152 216.238586 
L 311.239951 221.91826 
L 310.154817 227.256416 
L 309.000357 232.249845 
L 307.781206 236.897371 
L 306.502004 241.199767 
L 305.167365 245.159647 
L 303.781859 248.781336 
L 302.349988 252.070709 
L 300.876165 255.035044 
L 299.364695 257.682874 
L 297.819762 260.023812 
L 296.245415 262.06841 
L 294.645561 263.828005 
L 293.023942 265.314557 
L 291.384143 266.540533 
L 289.729575 267.518745 
L 288.063467 268.262232 
L 286.388891 268.784173 
L 284.708713 269.097693 
L 283.025656 269.215948 
L 281.34224 269.151781 
L 279.660839 268.917973 
L 277.983638 268.526826 
L 276.312675 267.990472 
L 274.649817 267.320486 
L 271.355145 265.62413 
L 268.111629 263.521837 
L 264.929121 261.089802 
L 261.815538 258.396124 
L 258.77708 255.500906 
L 254.370152 250.89282 
L 250.153012 246.09429 
L 244.833885 239.593635 
L 239.862859 233.151037 
L 234.127664 225.368947 
L 226.945635 215.205609 
L 219.846895 204.755274 
L 213.805828 195.478678 
L 209.29482 188.191743 
L 205.437031 181.552372 
L 202.17666 175.45743 
L 199.821497 170.607907 
L 197.844105 166.069994 
L 196.220222 161.825003 
L 194.926654 157.864836 
L 193.940527 154.188937 
L 193.238816 150.801204 
L 192.798095 147.707195 
L 192.594507 144.911761 
L 192.603894 142.417267 
L 192.802052 140.222411 
L 193.165057 138.321647 
L 193.669595 136.705101 
L 194.2933 135.358903 
L 195.015082 134.265825 
L 195.815342 133.406052 
L 196.824348 132.669108 
L 197.890428 132.184843 
L 198.991525 131.917673 
L 200.268869 131.83426 
L 201.70287 131.966874 
L 203.416078 132.370963 
L 205.343536 133.075956 
L 207.526513 134.123209 
L 210.145494 135.645347 
L 213.261733 137.731351 
L 217.311656 140.731428 
L 221.180313 143.756 
L 221.180312 143.756 
" style="fill:none;stroke:#1f77b4;stroke-linecap:square;stroke-width:0.5;"/>
   </g>
   <g id="line2d_14">
    <path clip-path="url(#p025baea43f)" d="M 356.918096 10.7 
L 358.531078 36.448329 
L 359.797169 62.403408 
L 360.71458 88.397549 
L 361.283846 114.258497 
L 361.507864 139.812397 
L 361.391908 164.887756 
L 360.943585 189.319663 
L 360.172573 212.952877 
L 359.090562 235.645084 
L 357.711055 257.269372 
L 356.049138 277.716235 
" style="fill:none;stroke:#1f77b4;stroke-linecap:square;stroke-width:0.5;"/>
   </g>
   <g id="line2d_15">
    <path clip-path="url(#p025baea43f)" d="M 399.740313 30.737215 
L 400.897762 84.231492 
" style="fill:none;stroke:#1f77b4;stroke-linecap:square;stroke-width:0.5;"/>
   </g>
   <g id="line2d_16">
    <path clip-path="url(#p025baea43f)" d="M 399.740313 73.214173 
L 400.3345 125.62796 
" style="fill:none;stroke:#1f77b4;stroke-linecap:square;stroke-width:0.5;"/>
   </g>
   <g id="line2d_17">
    <path clip-path="url(#p025baea43f)" d="M 399.740313 106.813183 
L 399.889042 158.373123 
" style="fill:none;stroke:#1f77b4;stroke-linecap:square;stroke-width:0.5;"/>
   </g>
   <g id="line2d_18">
    <path clip-path="url(#p025baea43f)" d="M 399.740313 136.541913 
L 399.49485 187.346975 
L 398.577034 236.659005 
L 397.010344 283.966856 
" style="fill:none;stroke:#1f77b4;stroke-linecap:square;stroke-width:0.5;"/>
   </g>
   <g id="line2d_19">
    <path clip-path="url(#p025baea43f)" d="M 399.740313 165.569424 
L 399.109899 215.637749 
L 397.819049 263.915044 
L 395.895027 309.918092 
" style="fill:none;stroke:#1f77b4;stroke-linecap:square;stroke-width:0.5;"/>
   </g>
   <g id="line2d_20">
    <path clip-path="url(#p025baea43f)" d="M 399.740313 196.770356 
L 398.696105 246.047054 
L 397.00427 293.215373 
" style="fill:none;stroke:#1f77b4;stroke-linecap:square;stroke-width:0.5;"/>
   </g>
   <g id="line2d_21">
    <path clip-path="url(#p025baea43f)" d="M 399.740313 233.970206 
L 398.202762 282.303897 
" style="fill:none;stroke:#1f77b4;stroke-linecap:square;stroke-width:0.5;"/>
   </g>
   <g id="line2d_22">
    <path clip-path="url(#p025baea43f)" d="M 390.321329 276.812 
L 388.333034 315.36825 
" style="fill:none;stroke:#1f77b4;stroke-linecap:square;stroke-width:0.5;"/>
   </g>
   <g id="line2d_23">
    <path clip-path="url(#p025baea43f)" d="M 328.6163 276.812 
L 326.771947 285.451253 
" style="fill:none;stroke:#1f77b4;stroke-linecap:square;stroke-width:0.5;"/>
   </g>
   <g id="line2d_24">
    <path clip-path="url(#p025baea43f)" d="M 281.344181 276.812 
L 279.561059 276.421545 
L 277.7843 275.868147 
L 276.015929 275.164382 
L 274.257915 274.323391 
L 270.779902 272.278867 
L 267.362437 269.826413 
L 264.015299 267.048161 
L 260.746343 264.017491 
L 257.561406 260.797696 
L 252.950601 255.73102 
L 248.547297 250.511583 
L 243.004803 243.5099 
L 236.600471 234.946605 
L 229.654052 225.22114 
L 222.498084 214.81814 
L 215.451512 204.176509 
L 210.174068 195.831283 
L 205.644227 188.235543 
L 202.30773 182.219935 
L 199.439655 176.591029 
L 197.010875 171.302645 
L 194.99518 166.327496 
L 193.367892 161.654349 
L 192.104722 157.28429 
L 191.180937 153.226495 
L 190.570877 149.494046 
L 190.247801 146.100232 
L 190.183992 143.055541 
L 190.351078 140.365529 
L 190.720482 138.02958 
L 191.26394 136.040497 
L 191.954025 134.384804 
L 192.764623 133.043557 
L 193.671327 131.993469 
L 194.651735 131.208214 
L 195.685641 130.6597 
L 196.755141 130.319251 
L 198.027186 130.147387 
L 199.48767 130.196041 
L 201.109664 130.494119 
L 202.85463 131.043719 
L 204.835186 131.897677 
L 207.243715 133.197184 
L 209.972678 134.936815 
L 213.237096 137.291806 
L 217.451818 140.625237 
L 221.180408 143.756019 
L 221.180313 143.756 
" style="fill:none;stroke:#1f77b4;stroke-linecap:square;stroke-width:0.5;"/>
   </g>
   <g id="line2d_25">
    <path clip-path="url(#p025baea43f)" d="M 240.599883 276.812 
L 233.717739 267.17906 
L 225.823353 255.764327 
L 217.321645 243.108145 
L 209.795101 231.517405 
L 204.210772 222.533861 
L 199.212542 214.026726 
L 195.616945 207.483915 
L 192.367545 201.120788 
L 189.455723 194.901128 
L 186.874456 188.802689 
L 184.617522 182.817292 
L 182.678763 176.949826 
L 181.05146 171.216541 
L 179.727765 165.642892 
L 178.698274 160.260909 
L 177.951745 155.106393 
L 177.474989 150.216123 
L 177.25285 145.625221 
L 177.268399 141.364907 
L 177.503181 137.460743 
L 177.937546 133.931367 
L 178.551043 130.787792 
L 179.322839 128.033293 
L 180.232129 125.663766 
L 181.258512 123.66838 
L 182.382322 122.030557 
L 183.584918 120.729091 
L 184.848888 119.73932 
L 186.158214 119.034255 
L 187.498373 118.585654 
L 188.856371 118.364948 
L 190.220738 118.344021 
L 191.920063 118.557707 
L 193.597387 118.9919 
L 195.562666 119.741168 
L 197.768342 120.845309 
L 200.151193 122.302541 
L 202.899315 124.268633 
L 205.844551 126.657449 
L 209.188294 129.659156 
L 212.950383 133.339495 
L 216.901341 137.516212 
L 219.942747 141.030697 
L 221.387019 142.996452 
L 221.714025 143.74734 
L 221.606518 143.899965 
L 221.318061 143.830524 
L 221.180312 143.756 
L 221.180312 143.756 
" style="fill:none;stroke:#1f77b4;stroke-linecap:square;stroke-width:0.5;"/>
   </g>
   <g id="line2d_26">
    <path clip-path="url(#p025baea43f)" d="M 201.760742 276.812 
L 196.575829 268.306396 
L 191.729976 259.954823 
L 187.218624 251.67766 
L 183.040207 243.405228 
L 179.195663 235.081483 
L 176.819508 229.483895 
L 174.594217 223.839053 
L 172.521107 218.144001 
L 170.601518 212.39973 
L 168.836713 206.61116 
L 167.227773 200.786996 
L 165.775497 194.939496 
L 164.480311 189.084166 
L 163.342186 183.239355 
L 161.928112 174.537741 
L 160.861657 165.98412 
L 160.135216 157.660894 
L 159.737833 149.65116 
L 159.655265 142.034388 
L 159.870211 134.882706 
L 160.362664 128.257718 
L 161.110396 122.208183 
L 162.089497 116.768659 
L 163.275008 111.959107 
L 164.167385 109.106071 
L 165.132541 106.534148 
L 166.162991 104.239274 
L 167.251385 102.215207 
L 168.39056 100.453792 
L 169.573594 98.945232 
L 170.793845 97.678377 
L 172.044988 96.640989 
L 173.321038 95.82002 
L 174.616369 95.20185 
L 175.925724 94.772526 
L 177.244224 94.517964 
L 178.567368 94.424133 
L 180.55186 94.554613 
L 182.525201 94.970653 
L 184.476762 95.629667 
L 186.397568 96.49213 
L 188.898128 97.896591 
L 191.317023 99.522987 
L 194.21069 101.770418 
L 197.476329 104.648429 
L 200.988553 108.088947 
L 204.608995 111.953633 
L 208.567722 116.495407 
L 212.854308 121.743692 
L 217.203542 127.42273 
L 220.71129 132.347809 
L 223.326331 136.391541 
L 224.966946 139.317015 
L 225.906666 141.406097 
L 226.361589 142.926328 
L 226.446203 143.940723 
L 226.288719 144.586139 
L 225.982025 144.966518 
L 225.51626 145.180628 
L 224.849378 145.220436 
L 223.918474 145.037373 
L 222.641873 144.546953 
L 221.180312 143.756 
L 221.180313 143.756 
" style="fill:none;stroke:#1f77b4;stroke-linecap:square;stroke-width:0.5;"/>
   </g>
   <g id="line2d_27">
    <path clip-path="url(#p025baea43f)" d="M 161.016444 276.812 
L 157.581557 266.608636 
L 154.424882 256.071294 
L 151.555375 245.212376 
L 148.981333 234.060329 
L 146.710064 222.660152 
L 144.747447 211.072084 
L 143.09757 199.369314 
L 141.762407 187.635696 
L 140.741567 175.963051 
L 140.032128 164.447926 
L 139.628544 153.188218 
L 139.522665 142.279804 
L 139.703831 131.813281 
L 140.159053 121.871233 
L 140.87326 112.525866 
L 141.829599 103.837197 
L 143.009792 95.851827 
L 144.394491 88.602477 
L 145.963658 82.108028 
L 147.696926 76.37405 
L 149.573948 71.393822 
L 151.574708 67.149742 
L 153.679793 63.614871 
L 154.765611 62.102818 
L 155.870615 60.754572 
L 156.992643 59.564879 
L 158.129603 58.528222 
L 159.279479 57.638859 
L 160.440336 56.890881 
L 161.610315 56.278243 
L 162.787641 55.79482 
L 163.970623 55.434435 
L 166.347195 55.058045 
L 168.728147 55.099994 
L 171.102897 55.51242 
L 173.462122 56.249392 
L 175.797701 57.267451 
L 178.102642 58.525983 
L 180.371 59.98746 
L 183.694296 62.486015 
L 186.911091 65.262502 
L 190.011987 68.230475 
L 193.95587 72.36359 
L 197.67522 76.577209 
L 202.006759 81.810168 
L 206.748417 87.874738 
L 212.337505 95.399637 
L 218.252627 103.762027 
L 223.55802 111.654057 
L 227.789404 118.346447 
L 230.841338 123.555221 
L 233.242608 128.062277 
L 235.080439 131.966433 
L 236.430546 135.34149 
L 237.360053 138.242742 
L 237.929533 140.713629 
L 238.194209 142.791177 
L 238.204548 144.509713 
L 238.006464 145.90298 
L 237.641332 147.004958 
L 237.145951 147.849801 
L 236.488933 148.522397 
L 235.749904 148.967935 
L 234.812115 149.256728 
L 233.767305 149.34431 
L 232.5019 149.227583 
L 230.937708 148.849057 
L 229.025712 148.141689 
L 226.670678 147.017745 
L 223.689974 145.334315 
L 221.180312 143.756 
L 221.180312 143.756 
" style="fill:none;stroke:#1f77b4;stroke-linecap:square;stroke-width:0.5;"/>
   </g>
   <g id="line2d_28">
    <path clip-path="url(#p025baea43f)" d="M 113.744325 276.812 
L 112.055616 262.355973 
L 110.562279 247.681901 
L 109.267002 232.844049 
L 108.171601 217.901919 
L 107.277073 202.91791 
L 106.583548 187.956899 
L 106.090274 173.085195 
L 105.795604 158.369493 
L 105.697011 143.875818 
L 105.791084 129.668579 
L 106.073546 115.809482 
L 106.539331 102.35676 
L 107.182627 89.364403 
L 107.996918 76.881329 
L 108.975068 64.950982 
L 110.109399 53.610905 
L 111.391782 42.892386 
L 112.813703 32.820385 
L 114.366343 23.413488 
L 116.040677 14.683982 
L 117.827567 6.638144 
" style="fill:none;stroke:#1f77b4;stroke-linecap:square;stroke-width:0.5;"/>
   </g>
   <g id="line2d_29">
    <path clip-path="url(#p025baea43f)" d="M 52.039296 276.812 
L 50.565486 230.343115 
L 49.715336 183.907416 
L 49.485517 137.975889 
L 49.866117 93.013807 
L 50.841097 49.465895 
L 52.388679 7.742939 
" style="fill:none;stroke:#1f77b4;stroke-linecap:square;stroke-width:0.5;"/>
   </g>
   <g id="line2d_30">
    <path clip-path="url(#p025baea43f)" d="M 42.620313 233.970206 
L 41.765556 181.056475 
" style="fill:none;stroke:#1f77b4;stroke-linecap:square;stroke-width:0.5;"/>
   </g>
   <g id="line2d_31">
    <path clip-path="url(#p025baea43f)" d="M 42.620313 196.770356 
L 42.258481 144.802022 
" style="fill:none;stroke:#1f77b4;stroke-linecap:square;stroke-width:0.5;"/>
   </g>
   <g id="line2d_32">
    <path clip-path="url(#p025baea43f)" d="M 42.620313 165.569424 
L 42.672189 114.393721 
L 43.402398 64.560045 
L 44.789424 16.592971 
L 45.56659 -1 
" style="fill:none;stroke:#1f77b4;stroke-linecap:square;stroke-width:0.5;"/>
   </g>
   <g id="line2d_33">
    <path clip-path="url(#p025baea43f)" d="M 42.620313 136.541913 
L 43.057106 86.102993 
L 44.160356 37.305818 
L 45.592403 -1 
" style="fill:none;stroke:#1f77b4;stroke-linecap:square;stroke-width:0.5;"/>
   </g>
   <g id="line2d_34">
    <path clip-path="url(#p025baea43f)" d="M 42.620313 106.813183 
L 43.451373 57.128707 
L 44.936671 9.389695 
" style="fill:none;stroke:#1f77b4;stroke-linecap:square;stroke-width:0.5;"/>
   </g>
   <g id="line2d_35">
    <path clip-path="url(#p025baea43f)" d="M 42.620313 73.214173 
L 43.89697 24.381909 
L 44.942375 -1 
" style="fill:none;stroke:#1f77b4;stroke-linecap:square;stroke-width:0.5;"/>
   </g>
   <g id="line2d_36">
    <path clip-path="url(#p025baea43f)" d="M 42.620313 30.737215 
L 43.843109 -1 
" style="fill:none;stroke:#1f77b4;stroke-linecap:square;stroke-width:0.5;"/>
   </g>
   <g id="line2d_37">
    <path clip-path="url(#p025baea43f)" d="M 85.442529 10.7 
L 86.587101 -1 
" style="fill:none;stroke:#1f77b4;stroke-linecap:square;stroke-width:0.5;"/>
   </g>
   <g id="line2d_38">
    <path clip-path="url(#p025baea43f)" d="M 138.56966 10.7 
L 140.373766 7.997862 
" style="fill:none;stroke:#1f77b4;stroke-linecap:square;stroke-width:0.5;"/>
   </g>
   <g id="line2d_39">
    <path clip-path="url(#p025baea43f)" d="M 181.876284 10.7 
L 185.397327 14.459172 
L 190.485329 20.330051 
L 195.333917 26.327528 
L 201.422869 34.302637 
L 208.440485 43.963129 
L 216.032147 54.837175 
L 223.832553 66.400679 
L 230.601319 76.825638 
L 235.657439 84.992479 
L 240.079993 92.58282 
L 243.311917 98.547609 
L 246.153065 104.237425 
L 248.620679 109.685707 
L 250.730272 114.910862 
L 252.496565 119.917754 
L 253.934361 124.700114 
L 255.059186 129.24344 
L 255.887715 133.528052 
L 256.438036 137.532169 
L 256.72969 141.234682 
L 256.783546 144.617476 
L 256.621534 147.667182 
L 256.26629 150.376287 
L 255.740742 152.74369 
L 255.067679 154.774653 
L 254.26933 156.480279 
L 253.367009 157.876743 
L 252.380803 158.984277 
L 251.329338 159.826074 
L 250.229614 160.427206 
L 249.096906 160.813632 
L 247.713043 161.030453 
L 246.321192 161.018913 
L 244.709414 160.770974 
L 242.908756 160.249337 
L 240.963277 159.447413 
L 238.731391 158.277994 
L 236.154038 156.659362 
L 233.14431 154.48203 
L 229.660913 151.668045 
L 225.523975 148.026308 
L 221.685172 144.370347 
L 221.157776 143.750947 
L 221.180313 143.756 
" style="fill:none;stroke:#1f77b4;stroke-linecap:square;stroke-width:0.5;"/>
   </g>
   <g id="line2d_40">
    <path clip-path="url(#p025baea43f)" d="M 221.180312 10.7 
L 229.672787 23.524414 
L 237.334414 35.495653 
L 242.89985 44.600313 
L 247.984931 53.411636 
L 251.491431 59.892431 
L 254.738482 66.306203 
L 257.728153 72.682428 
L 260.461519 79.04142 
L 262.939028 85.393708 
L 265.160903 91.739933 
L 267.127531 98.071264 
L 268.839837 104.370196 
L 270.29961 110.611644 
L 271.509775 116.764322 
L 272.474616 122.792372 
L 273.199923 128.657169 
L 273.693063 134.319153 
L 273.962991 139.73961 
L 274.020178 144.882308 
L 273.876464 149.71487 
L 273.544902 154.20993 
L 273.039537 158.345966 
L 272.37515 162.107755 
L 271.567006 165.486544 
L 270.630591 168.479918 
L 269.581374 171.091416 
L 268.434564 173.32996 
L 267.204919 175.209127 
L 265.906566 176.746362 
L 264.552872 177.962145 
L 263.156331 178.879177 
L 261.728487 179.521608 
L 260.279889 179.914332 
L 258.820082 180.082375 
L 257.357613 180.05039 
L 255.416464 179.73767 
L 253.499307 179.165005 
L 251.618761 178.381337 
L 249.334767 177.171538 
L 246.710885 175.478919 
L 243.831856 173.30302 
L 240.798757 170.704418 
L 237.400005 167.47751 
L 233.610003 163.548043 
L 229.619535 159.083333 
L 225.659431 154.323885 
L 222.424781 150.099081 
L 220.395141 147.103589 
L 219.344377 145.186282 
L 218.960799 144.071714 
L 218.964972 143.490266 
L 219.168481 143.220655 
L 219.526994 143.13661 
L 220.122334 143.250172 
L 221.032344 143.66604 
L 221.180313 143.756 
L 221.180312 143.756 
" style="fill:none;stroke:#1f77b4;stroke-linecap:square;stroke-width:0.5;"/>
   </g>
   <g id="line2d_41">
    <path clip-path="url(#p025baea43f)" d="M 221.180313 143.756 
" style="fill:none;stroke:#1f77b4;stroke-linecap:square;stroke-width:1.5;"/>
   </g>
   <g id="line2d_42">
    <defs>
     <path d="M 0 3 
C 0.795609 3 1.55874 2.683901 2.12132 2.12132 
C 2.683901 1.55874 3 0.795609 3 0 
C 3 -0.795609 2.683901 -1.55874 2.12132 -2.12132 
C 1.55874 -2.683901 0.795609 -3 0 -3 
C -0.795609 -3 -1.55874 -2.683901 -2.12132 -2.12132 
C -2.683901 -1.55874 -3 -0.795609 -3 0 
C -3 0.795609 -2.683901 1.55874 -2.12132 2.12132 
C -1.55874 2.683901 -0.795609 3 0 3 
z
" id="m3910c1d59f" style="stroke:#ff0000;"/>
    </defs>
    <g clip-path="url(#p025baea43f)">
     <use style="fill:#ff0000;stroke:#ff0000;" x="221.180313" xlink:href="#m3910c1d59f" y="143.756"/>
    </g>
   </g>
   <g id="patch_52">
    <path d="M 42.620313 276.812 
L 42.620313 10.7 
" style="fill:none;stroke:#000000;stroke-linecap:square;stroke-linejoin:miter;stroke-width:0.8;"/>
   </g>
   <g id="patch_53">
    <path d="M 399.740313 276.812 
L 399.740313 10.7 
" style="fill:none;stroke:#000000;stroke-linecap:square;stroke-linejoin:miter;stroke-width:0.8;"/>
   </g>
   <g id="patch_54">
    <path d="M 42.620313 276.812 
L 399.740313 276.812 
" style="fill:none;stroke:#000000;stroke-linecap:square;stroke-linejoin:miter;stroke-width:0.8;"/>
   </g>
   <g id="patch_55">
    <path d="M 42.620313 10.7 
L 399.740313 10.7 
" style="fill:none;stroke:#000000;stroke-linecap:square;stroke-linejoin:miter;stroke-width:0.8;"/>
   </g>
   <g id="legend_1">
    <g id="patch_56">
     <path d="M 249.800312 273.812 
L 395.540313 273.812 
Q 396.740313 273.812 396.740313 272.612 
L 396.740313 255.35825 
Q 396.740313 254.15825 395.540313 254.15825 
L 249.800312 254.15825 
Q 248.600313 254.15825 248.600313 255.35825 
L 248.600313 272.612 
Q 248.600313 273.812 249.800312 273.812 
z
" style="fill:#ffffff;opacity:0.8;stroke:#cccccc;stroke-linejoin:miter;"/>
    </g>
    <g id="line2d_43">
     <path d="M 251.000313 259.017312 
L 263.000313 259.017312 
" style="fill:none;stroke:#1f77b4;stroke-linecap:square;stroke-width:1.5;"/>
    </g>
    <g id="line2d_44"/>
    <g id="text_13">
     <!-- system nieliniowy -->
     <defs>
      <path d="M 44.28125 53.078125 
L 44.28125 44.578125 
Q 40.484375 46.53125 36.375 47.5 
Q 32.28125 48.484375 27.875 48.484375 
Q 21.1875 48.484375 17.84375 46.4375 
Q 14.5 44.390625 14.5 40.28125 
Q 14.5 37.15625 16.890625 35.375 
Q 19.28125 33.59375 26.515625 31.984375 
L 29.59375 31.296875 
Q 39.15625 29.25 43.1875 25.515625 
Q 47.21875 21.78125 47.21875 15.09375 
Q 47.21875 7.46875 41.1875 3.015625 
Q 35.15625 -1.421875 24.609375 -1.421875 
Q 20.21875 -1.421875 15.453125 -0.5625 
Q 10.6875 0.296875 5.421875 2 
L 5.421875 11.28125 
Q 10.40625 8.6875 15.234375 7.390625 
Q 20.0625 6.109375 24.8125 6.109375 
Q 31.15625 6.109375 34.5625 8.28125 
Q 37.984375 10.453125 37.984375 14.40625 
Q 37.984375 18.0625 35.515625 20.015625 
Q 33.0625 21.96875 24.703125 23.78125 
L 21.578125 24.515625 
Q 13.234375 26.265625 9.515625 29.90625 
Q 5.8125 33.546875 5.8125 39.890625 
Q 5.8125 47.609375 11.28125 51.796875 
Q 16.75 56 26.8125 56 
Q 31.78125 56 36.171875 55.265625 
Q 40.578125 54.546875 44.28125 53.078125 
" id="DejaVuSans-73"/>
      <path d="M 32.171875 -5.078125 
Q 28.375 -14.84375 24.75 -17.8125 
Q 21.140625 -20.796875 15.09375 -20.796875 
L 7.90625 -20.796875 
L 7.90625 -13.28125 
L 13.1875 -13.28125 
Q 16.890625 -13.28125 18.9375 -11.515625 
Q 21 -9.765625 23.484375 -3.21875 
L 25.09375 0.875 
L 2.984375 54.6875 
L 12.5 54.6875 
L 29.59375 11.921875 
L 46.6875 54.6875 
L 56.203125 54.6875 
z
" id="DejaVuSans-79"/>
      <path d="M 18.3125 70.21875 
L 18.3125 54.6875 
L 36.8125 54.6875 
L 36.8125 47.703125 
L 18.3125 47.703125 
L 18.3125 18.015625 
Q 18.3125 11.328125 20.140625 9.421875 
Q 21.96875 7.515625 27.59375 7.515625 
L 36.8125 7.515625 
L 36.8125 0 
L 27.59375 0 
Q 17.1875 0 13.234375 3.875 
Q 9.28125 7.765625 9.28125 18.015625 
L 9.28125 47.703125 
L 2.6875 47.703125 
L 2.6875 54.6875 
L 9.28125 54.6875 
L 9.28125 70.21875 
z
" id="DejaVuSans-74"/>
      <path d="M 56.203125 29.59375 
L 56.203125 25.203125 
L 14.890625 25.203125 
Q 15.484375 15.921875 20.484375 11.0625 
Q 25.484375 6.203125 34.421875 6.203125 
Q 39.59375 6.203125 44.453125 7.46875 
Q 49.3125 8.734375 54.109375 11.28125 
L 54.109375 2.78125 
Q 49.265625 0.734375 44.1875 -0.34375 
Q 39.109375 -1.421875 33.890625 -1.421875 
Q 20.796875 -1.421875 13.15625 6.1875 
Q 5.515625 13.8125 5.515625 26.8125 
Q 5.515625 40.234375 12.765625 48.109375 
Q 20.015625 56 32.328125 56 
Q 43.359375 56 49.78125 48.890625 
Q 56.203125 41.796875 56.203125 29.59375 
M 47.21875 32.234375 
Q 47.125 39.59375 43.09375 43.984375 
Q 39.0625 48.390625 32.421875 48.390625 
Q 24.90625 48.390625 20.390625 44.140625 
Q 15.875 39.890625 15.1875 32.171875 
z
" id="DejaVuSans-65"/>
      <path d="M 52 44.1875 
Q 55.375 50.25 60.0625 53.125 
Q 64.75 56 71.09375 56 
Q 79.640625 56 84.28125 50.015625 
Q 88.921875 44.046875 88.921875 33.015625 
L 88.921875 0 
L 79.890625 0 
L 79.890625 32.71875 
Q 79.890625 40.578125 77.09375 44.375 
Q 74.3125 48.1875 68.609375 48.1875 
Q 61.625 48.1875 57.5625 43.546875 
Q 53.515625 38.921875 53.515625 30.90625 
L 53.515625 0 
L 44.484375 0 
L 44.484375 32.71875 
Q 44.484375 40.625 41.703125 44.40625 
Q 38.921875 48.1875 33.109375 48.1875 
Q 26.21875 48.1875 22.15625 43.53125 
Q 18.109375 38.875 18.109375 30.90625 
L 18.109375 0 
L 9.078125 0 
L 9.078125 54.6875 
L 18.109375 54.6875 
L 18.109375 46.1875 
Q 21.1875 51.21875 25.484375 53.609375 
Q 29.78125 56 35.6875 56 
Q 41.65625 56 45.828125 52.96875 
Q 50 49.953125 52 44.1875 
" id="DejaVuSans-6d"/>
      <path id="DejaVuSans-20"/>
      <path d="M 54.890625 33.015625 
L 54.890625 0 
L 45.90625 0 
L 45.90625 32.71875 
Q 45.90625 40.484375 42.875 44.328125 
Q 39.84375 48.1875 33.796875 48.1875 
Q 26.515625 48.1875 22.3125 43.546875 
Q 18.109375 38.921875 18.109375 30.90625 
L 18.109375 0 
L 9.078125 0 
L 9.078125 54.6875 
L 18.109375 54.6875 
L 18.109375 46.1875 
Q 21.34375 51.125 25.703125 53.5625 
Q 30.078125 56 35.796875 56 
Q 45.21875 56 50.046875 50.171875 
Q 54.890625 44.34375 54.890625 33.015625 
" id="DejaVuSans-6e"/>
      <path d="M 9.421875 54.6875 
L 18.40625 54.6875 
L 18.40625 0 
L 9.421875 0 
z
M 9.421875 75.984375 
L 18.40625 75.984375 
L 18.40625 64.59375 
L 9.421875 64.59375 
z
" id="DejaVuSans-69"/>
      <path d="M 9.421875 75.984375 
L 18.40625 75.984375 
L 18.40625 0 
L 9.421875 0 
z
" id="DejaVuSans-6c"/>
      <path d="M 30.609375 48.390625 
Q 23.390625 48.390625 19.1875 42.75 
Q 14.984375 37.109375 14.984375 27.296875 
Q 14.984375 17.484375 19.15625 11.84375 
Q 23.34375 6.203125 30.609375 6.203125 
Q 37.796875 6.203125 41.984375 11.859375 
Q 46.1875 17.53125 46.1875 27.296875 
Q 46.1875 37.015625 41.984375 42.703125 
Q 37.796875 48.390625 30.609375 48.390625 
M 30.609375 56 
Q 42.328125 56 49.015625 48.375 
Q 55.71875 40.765625 55.71875 27.296875 
Q 55.71875 13.875 49.015625 6.21875 
Q 42.328125 -1.421875 30.609375 -1.421875 
Q 18.84375 -1.421875 12.171875 6.21875 
Q 5.515625 13.875 5.515625 27.296875 
Q 5.515625 40.765625 12.171875 48.375 
Q 18.84375 56 30.609375 56 
" id="DejaVuSans-6f"/>
      <path d="M 4.203125 54.6875 
L 13.1875 54.6875 
L 24.421875 12.015625 
L 35.59375 54.6875 
L 46.1875 54.6875 
L 57.421875 12.015625 
L 68.609375 54.6875 
L 77.59375 54.6875 
L 63.28125 0 
L 52.6875 0 
L 40.921875 44.828125 
L 29.109375 0 
L 18.5 0 
z
" id="DejaVuSans-77"/>
     </defs>
     <g transform="translate(267.800313 261.117312)scale(0.06 -0.06)">
      <use xlink:href="#DejaVuSans-73"/>
      <use x="52.099609" xlink:href="#DejaVuSans-79"/>
      <use x="111.279297" xlink:href="#DejaVuSans-73"/>
      <use x="163.378906" xlink:href="#DejaVuSans-74"/>
      <use x="202.587891" xlink:href="#DejaVuSans-65"/>
      <use x="264.111328" xlink:href="#DejaVuSans-6d"/>
      <use x="361.523438" xlink:href="#DejaVuSans-20"/>
      <use x="393.310547" xlink:href="#DejaVuSans-6e"/>
      <use x="456.689453" xlink:href="#DejaVuSans-69"/>
      <use x="484.472656" xlink:href="#DejaVuSans-65"/>
      <use x="545.996094" xlink:href="#DejaVuSans-6c"/>
      <use x="573.779297" xlink:href="#DejaVuSans-69"/>
      <use x="601.5625" xlink:href="#DejaVuSans-6e"/>
      <use x="664.941406" xlink:href="#DejaVuSans-69"/>
      <use x="692.724609" xlink:href="#DejaVuSans-6f"/>
      <use x="753.90625" xlink:href="#DejaVuSans-77"/>
      <use x="835.693359" xlink:href="#DejaVuSans-79"/>
     </g>
    </g>
    <g id="line2d_45"/>
    <g id="line2d_46">
     <g>
      <use style="fill:#ff0000;stroke:#ff0000;" x="257.000313" xlink:href="#m3910c1d59f" y="268.064187"/>
     </g>
    </g>
    <g id="text_14">
     <!-- Punkt równowagi asymptotycznie stabilny -->
     <defs>
      <path d="M 19.671875 64.796875 
L 19.671875 37.40625 
L 32.078125 37.40625 
Q 38.96875 37.40625 42.71875 40.96875 
Q 46.484375 44.53125 46.484375 51.125 
Q 46.484375 57.671875 42.71875 61.234375 
Q 38.96875 64.796875 32.078125 64.796875 
z
M 9.8125 72.90625 
L 32.078125 72.90625 
Q 44.34375 72.90625 50.609375 67.359375 
Q 56.890625 61.8125 56.890625 51.125 
Q 56.890625 40.328125 50.609375 34.8125 
Q 44.34375 29.296875 32.078125 29.296875 
L 19.671875 29.296875 
L 19.671875 0 
L 9.8125 0 
z
" id="DejaVuSans-50"/>
      <path d="M 8.5 21.578125 
L 8.5 54.6875 
L 17.484375 54.6875 
L 17.484375 21.921875 
Q 17.484375 14.15625 20.5 10.265625 
Q 23.53125 6.390625 29.59375 6.390625 
Q 36.859375 6.390625 41.078125 11.03125 
Q 45.3125 15.671875 45.3125 23.6875 
L 45.3125 54.6875 
L 54.296875 54.6875 
L 54.296875 0 
L 45.3125 0 
L 45.3125 8.40625 
Q 42.046875 3.421875 37.71875 1 
Q 33.40625 -1.421875 27.6875 -1.421875 
Q 18.265625 -1.421875 13.375 4.4375 
Q 8.5 10.296875 8.5 21.578125 
M 31.109375 56 
z
" id="DejaVuSans-75"/>
      <path d="M 9.078125 75.984375 
L 18.109375 75.984375 
L 18.109375 31.109375 
L 44.921875 54.6875 
L 56.390625 54.6875 
L 27.390625 29.109375 
L 57.625 0 
L 45.90625 0 
L 18.109375 26.703125 
L 18.109375 0 
L 9.078125 0 
z
" id="DejaVuSans-6b"/>
      <path d="M 41.109375 46.296875 
Q 39.59375 47.171875 37.8125 47.578125 
Q 36.03125 48 33.890625 48 
Q 26.265625 48 22.1875 43.046875 
Q 18.109375 38.09375 18.109375 28.8125 
L 18.109375 0 
L 9.078125 0 
L 9.078125 54.6875 
L 18.109375 54.6875 
L 18.109375 46.1875 
Q 20.953125 51.171875 25.484375 53.578125 
Q 30.03125 56 36.53125 56 
Q 37.453125 56 38.578125 55.875 
Q 39.703125 55.765625 41.0625 55.515625 
z
" id="DejaVuSans-72"/>
      <path d="M 30.609375 48.390625 
Q 23.390625 48.390625 19.1875 42.75 
Q 14.984375 37.109375 14.984375 27.296875 
Q 14.984375 17.484375 19.15625 11.84375 
Q 23.34375 6.203125 30.609375 6.203125 
Q 37.796875 6.203125 41.984375 11.859375 
Q 46.1875 17.53125 46.1875 27.296875 
Q 46.1875 37.015625 41.984375 42.703125 
Q 37.796875 48.390625 30.609375 48.390625 
M 30.609375 56 
Q 42.328125 56 49.015625 48.375 
Q 55.71875 40.765625 55.71875 27.296875 
Q 55.71875 13.875 49.015625 6.21875 
Q 42.328125 -1.421875 30.609375 -1.421875 
Q 18.84375 -1.421875 12.171875 6.21875 
Q 5.515625 13.875 5.515625 27.296875 
Q 5.515625 40.765625 12.171875 48.375 
Q 18.84375 56 30.609375 56 
M 37.40625 79.984375 
L 47.125 79.984375 
L 31.21875 61.625 
L 23.734375 61.625 
z
" id="DejaVuSans-f3"/>
      <path d="M 34.28125 27.484375 
Q 23.390625 27.484375 19.1875 25 
Q 14.984375 22.515625 14.984375 16.5 
Q 14.984375 11.71875 18.140625 8.90625 
Q 21.296875 6.109375 26.703125 6.109375 
Q 34.1875 6.109375 38.703125 11.40625 
Q 43.21875 16.703125 43.21875 25.484375 
L 43.21875 27.484375 
z
M 52.203125 31.203125 
L 52.203125 0 
L 43.21875 0 
L 43.21875 8.296875 
Q 40.140625 3.328125 35.546875 0.953125 
Q 30.953125 -1.421875 24.3125 -1.421875 
Q 15.921875 -1.421875 10.953125 3.296875 
Q 6 8.015625 6 15.921875 
Q 6 25.140625 12.171875 29.828125 
Q 18.359375 34.515625 30.609375 34.515625 
L 43.21875 34.515625 
L 43.21875 35.40625 
Q 43.21875 41.609375 39.140625 45 
Q 35.0625 48.390625 27.6875 48.390625 
Q 23 48.390625 18.546875 47.265625 
Q 14.109375 46.140625 10.015625 43.890625 
L 10.015625 52.203125 
Q 14.9375 54.109375 19.578125 55.046875 
Q 24.21875 56 28.609375 56 
Q 40.484375 56 46.34375 49.84375 
Q 52.203125 43.703125 52.203125 31.203125 
" id="DejaVuSans-61"/>
      <path d="M 45.40625 27.984375 
Q 45.40625 37.75 41.375 43.109375 
Q 37.359375 48.484375 30.078125 48.484375 
Q 22.859375 48.484375 18.828125 43.109375 
Q 14.796875 37.75 14.796875 27.984375 
Q 14.796875 18.265625 18.828125 12.890625 
Q 22.859375 7.515625 30.078125 7.515625 
Q 37.359375 7.515625 41.375 12.890625 
Q 45.40625 18.265625 45.40625 27.984375 
M 54.390625 6.78125 
Q 54.390625 -7.171875 48.1875 -13.984375 
Q 42 -20.796875 29.203125 -20.796875 
Q 24.46875 -20.796875 20.265625 -20.09375 
Q 16.0625 -19.390625 12.109375 -17.921875 
L 12.109375 -9.1875 
Q 16.0625 -11.328125 19.921875 -12.34375 
Q 23.78125 -13.375 27.78125 -13.375 
Q 36.625 -13.375 41.015625 -8.765625 
Q 45.40625 -4.15625 45.40625 5.171875 
L 45.40625 9.625 
Q 42.625 4.78125 38.28125 2.390625 
Q 33.9375 0 27.875 0 
Q 17.828125 0 11.671875 7.65625 
Q 5.515625 15.328125 5.515625 27.984375 
Q 5.515625 40.671875 11.671875 48.328125 
Q 17.828125 56 27.875 56 
Q 33.9375 56 38.28125 53.609375 
Q 42.625 51.21875 45.40625 46.390625 
L 45.40625 54.6875 
L 54.390625 54.6875 
z
" id="DejaVuSans-67"/>
      <path d="M 18.109375 8.203125 
L 18.109375 -20.796875 
L 9.078125 -20.796875 
L 9.078125 54.6875 
L 18.109375 54.6875 
L 18.109375 46.390625 
Q 20.953125 51.265625 25.265625 53.625 
Q 29.59375 56 35.59375 56 
Q 45.5625 56 51.78125 48.09375 
Q 58.015625 40.1875 58.015625 27.296875 
Q 58.015625 14.40625 51.78125 6.484375 
Q 45.5625 -1.421875 35.59375 -1.421875 
Q 29.59375 -1.421875 25.265625 0.953125 
Q 20.953125 3.328125 18.109375 8.203125 
M 48.6875 27.296875 
Q 48.6875 37.203125 44.609375 42.84375 
Q 40.53125 48.484375 33.40625 48.484375 
Q 26.265625 48.484375 22.1875 42.84375 
Q 18.109375 37.203125 18.109375 27.296875 
Q 18.109375 17.390625 22.1875 11.75 
Q 26.265625 6.109375 33.40625 6.109375 
Q 40.53125 6.109375 44.609375 11.75 
Q 48.6875 17.390625 48.6875 27.296875 
" id="DejaVuSans-70"/>
      <path d="M 48.78125 52.59375 
L 48.78125 44.1875 
Q 44.96875 46.296875 41.140625 47.34375 
Q 37.3125 48.390625 33.40625 48.390625 
Q 24.65625 48.390625 19.8125 42.84375 
Q 14.984375 37.3125 14.984375 27.296875 
Q 14.984375 17.28125 19.8125 11.734375 
Q 24.65625 6.203125 33.40625 6.203125 
Q 37.3125 6.203125 41.140625 7.25 
Q 44.96875 8.296875 48.78125 10.40625 
L 48.78125 2.09375 
Q 45.015625 0.34375 40.984375 -0.53125 
Q 36.96875 -1.421875 32.421875 -1.421875 
Q 20.0625 -1.421875 12.78125 6.34375 
Q 5.515625 14.109375 5.515625 27.296875 
Q 5.515625 40.671875 12.859375 48.328125 
Q 20.21875 56 33.015625 56 
Q 37.15625 56 41.109375 55.140625 
Q 45.0625 54.296875 48.78125 52.59375 
" id="DejaVuSans-63"/>
      <path d="M 5.515625 54.6875 
L 48.1875 54.6875 
L 48.1875 46.484375 
L 14.40625 7.171875 
L 48.1875 7.171875 
L 48.1875 0 
L 4.296875 0 
L 4.296875 8.203125 
L 38.09375 47.515625 
L 5.515625 47.515625 
z
" id="DejaVuSans-7a"/>
      <path d="M 48.6875 27.296875 
Q 48.6875 37.203125 44.609375 42.84375 
Q 40.53125 48.484375 33.40625 48.484375 
Q 26.265625 48.484375 22.1875 42.84375 
Q 18.109375 37.203125 18.109375 27.296875 
Q 18.109375 17.390625 22.1875 11.75 
Q 26.265625 6.109375 33.40625 6.109375 
Q 40.53125 6.109375 44.609375 11.75 
Q 48.6875 17.390625 48.6875 27.296875 
M 18.109375 46.390625 
Q 20.953125 51.265625 25.265625 53.625 
Q 29.59375 56 35.59375 56 
Q 45.5625 56 51.78125 48.09375 
Q 58.015625 40.1875 58.015625 27.296875 
Q 58.015625 14.40625 51.78125 6.484375 
Q 45.5625 -1.421875 35.59375 -1.421875 
Q 29.59375 -1.421875 25.265625 0.953125 
Q 20.953125 3.328125 18.109375 8.203125 
L 18.109375 0 
L 9.078125 0 
L 9.078125 75.984375 
L 18.109375 75.984375 
z
" id="DejaVuSans-62"/>
     </defs>
     <g transform="translate(267.800313 270.164187)scale(0.06 -0.06)">
      <use xlink:href="#DejaVuSans-50"/>
      <use x="60.287109" xlink:href="#DejaVuSans-75"/>
      <use x="123.666016" xlink:href="#DejaVuSans-6e"/>
      <use x="187.044922" xlink:href="#DejaVuSans-6b"/>
      <use x="244.955078" xlink:href="#DejaVuSans-74"/>
      <use x="284.164062" xlink:href="#DejaVuSans-20"/>
      <use x="315.951172" xlink:href="#DejaVuSans-72"/>
      <use x="357.033203" xlink:href="#DejaVuSans-f3"/>
      <use x="418.214844" xlink:href="#DejaVuSans-77"/>
      <use x="500.001953" xlink:href="#DejaVuSans-6e"/>
      <use x="563.380859" xlink:href="#DejaVuSans-6f"/>
      <use x="624.5625" xlink:href="#DejaVuSans-77"/>
      <use x="706.349609" xlink:href="#DejaVuSans-61"/>
      <use x="767.628906" xlink:href="#DejaVuSans-67"/>
      <use x="831.105469" xlink:href="#DejaVuSans-69"/>
      <use x="858.888672" xlink:href="#DejaVuSans-20"/>
      <use x="890.675781" xlink:href="#DejaVuSans-61"/>
      <use x="951.955078" xlink:href="#DejaVuSans-73"/>
      <use x="1004.054688" xlink:href="#DejaVuSans-79"/>
      <use x="1063.234375" xlink:href="#DejaVuSans-6d"/>
      <use x="1160.646484" xlink:href="#DejaVuSans-70"/>
      <use x="1224.123047" xlink:href="#DejaVuSans-74"/>
      <use x="1263.332031" xlink:href="#DejaVuSans-6f"/>
      <use x="1324.513672" xlink:href="#DejaVuSans-74"/>
      <use x="1363.722656" xlink:href="#DejaVuSans-79"/>
      <use x="1422.902344" xlink:href="#DejaVuSans-63"/>
      <use x="1477.882812" xlink:href="#DejaVuSans-7a"/>
      <use x="1530.373047" xlink:href="#DejaVuSans-6e"/>
      <use x="1593.751953" xlink:href="#DejaVuSans-69"/>
      <use x="1621.535156" xlink:href="#DejaVuSans-65"/>
      <use x="1683.058594" xlink:href="#DejaVuSans-20"/>
      <use x="1714.845703" xlink:href="#DejaVuSans-73"/>
      <use x="1766.945312" xlink:href="#DejaVuSans-74"/>
      <use x="1806.154297" xlink:href="#DejaVuSans-61"/>
      <use x="1867.433594" xlink:href="#DejaVuSans-62"/>
      <use x="1930.910156" xlink:href="#DejaVuSans-69"/>
      <use x="1958.693359" xlink:href="#DejaVuSans-6c"/>
      <use x="1986.476562" xlink:href="#DejaVuSans-6e"/>
      <use x="2049.855469" xlink:href="#DejaVuSans-79"/>
     </g>
    </g>
   </g>
  </g>
 </g>
 <defs>
  <clipPath id="p025baea43f">
   <rect height="266.112" width="357.12" x="42.620313" y="10.7"/>
  </clipPath>
 </defs>
</svg>
