<?xml version="1.0" encoding="utf-8" standalone="no"?>
<!DOCTYPE svg PUBLIC "-//W3C//DTD SVG 1.1//EN"
  "http://www.w3.org/Graphics/SVG/1.1/DTD/svg11.dtd">
<!-- Created with matplotlib (http://matplotlib.org/) -->
<svg height="314pt" version="1.1" viewBox="0 0 410 314" width="410pt" xmlns="http://www.w3.org/2000/svg" xmlns:xlink="http://www.w3.org/1999/xlink">
 <defs>
  <style type="text/css">
*{stroke-linecap:butt;stroke-linejoin:round;}
  </style>
 </defs>
 <g id="figure_1">
  <g id="patch_1">
   <path d="M 0 314.36825 
L 410.440313 314.36825 
L 410.440313 0 
L 0 0 
z
" style="fill:#ffffff;"/>
  </g>
  <g id="axes_1">
   <g id="patch_2">
    <path d="M 42.620313 276.812 
L 399.740313 276.812 
L 399.740313 10.7 
L 42.620313 10.7 
z
" style="fill:#ffffff;"/>
   </g>
   <g id="patch_3">
    <path clip-path="url(#pe73489a77a)" d="M 309.461998 107.826306 
L 303.55576 103.821545 
L 306.870094 102.866854 
L 306.902863 102.856215 
L 306.903404 102.857259 
L 310.217739 101.902569 
z
" style="fill:#ff7f0e;stroke:#ff7f0e;stroke-linejoin:miter;"/>
   </g>
   <g id="patch_4">
    <path clip-path="url(#pe73489a77a)" d="M 296.537957 179.823929 
L 299.745633 174.374656 
L 302.01783 176.410375 
L 302.041106 176.430562 
L 302.040666 176.430835 
L 304.312863 178.466554 
z
" style="fill:#ff7f0e;stroke:#ff7f0e;stroke-linejoin:miter;"/>
   </g>
   <g id="patch_5">
    <path clip-path="url(#pe73489a77a)" d="M 320.088076 79.650046 
L 313.748516 76.031804 
L 316.942637 74.871684 
L 316.973824 74.858626 
L 316.974739 74.860025 
L 320.168859 73.699905 
z
" style="fill:#ff7f0e;stroke:#ff7f0e;stroke-linejoin:miter;"/>
   </g>
   <g id="patch_6">
    <path clip-path="url(#pe73489a77a)" d="M 325.633833 181.99646 
L 326.976281 176.130702 
L 329.842109 177.696123 
L 329.87137 177.711389 
L 329.870911 177.711856 
L 332.736739 179.277277 
z
" style="fill:#ff7f0e;stroke:#ff7f0e;stroke-linejoin:miter;"/>
   </g>
   <g id="patch_7">
    <path clip-path="url(#pe73489a77a)" d="M 362.166259 96.957695 
L 356.536014 92.73797 
L 359.910241 91.90791 
L 359.943467 91.89802 
L 359.944153 91.899567 
L 363.318379 91.069507 
z
" style="fill:#ff7f0e;stroke:#ff7f0e;stroke-linejoin:miter;"/>
   </g>
   <g id="patch_8">
    <path clip-path="url(#pe73489a77a)" d="M 310.489288 205.446591 
L 316.907742 201.906424 
L 317.521317 204.514465 
L 317.5283 204.54057 
L 317.527484 204.540677 
L 318.141059 207.148718 
z
" style="fill:#ff7f0e;stroke:#ff7f0e;stroke-linejoin:miter;"/>
   </g>
   <g id="patch_9">
    <path clip-path="url(#pe73489a77a)" d="M 376.36631 38.376052 
L 370.019628 34.764749 
L 373.21146 33.601136 
L 373.242075 33.587213 
L 373.243539 33.589442 
L 376.43537 32.425829 
z
" style="fill:#ff7f0e;stroke:#ff7f0e;stroke-linejoin:miter;"/>
   </g>
   <g id="patch_10">
    <path clip-path="url(#pe73489a77a)" d="M 388.111281 58.13954 
L 382.046204 54.268845 
L 385.320541 53.240368 
L 385.352249 53.22791 
L 385.353449 53.230032 
L 388.627786 52.201555 
z
" style="fill:#ff7f0e;stroke:#ff7f0e;stroke-linejoin:miter;"/>
   </g>
   <g id="patch_11">
    <path clip-path="url(#pe73489a77a)" d="M 402.702406 35.583146 
L 396.49186 31.842729 
L 399.725563 30.745184 
L 399.756562 30.7317 
L 399.758062 30.734154 
L 402.991765 29.636609 
z
" style="fill:#ff7f0e;stroke:#ff7f0e;stroke-linejoin:miter;"/>
   </g>
   <g id="patch_12">
    <path clip-path="url(#pe73489a77a)" d="M 402.055929 78.251206 
L 396.36278 74.078609 
L 399.724353 73.220515 
L 399.757205 73.209861 
L 399.758138 73.211891 
L 403.119711 72.353796 
z
" style="fill:#ff7f0e;stroke:#ff7f0e;stroke-linejoin:miter;"/>
   </g>
   <g id="patch_13">
    <path clip-path="url(#pe73489a77a)" d="M 401.229525 112.02022 
L 396.248034 107.369548 
L 399.723333 106.81765 
L 399.757776 106.81041 
L 399.758261 106.812103 
L 403.233559 106.260205 
z
" style="fill:#ff7f0e;stroke:#ff7f0e;stroke-linejoin:miter;"/>
   </g>
   <g id="patch_14">
    <path clip-path="url(#pe73489a77a)" d="M 400.07329 141.859766 
L 396.173081 136.667338 
L 399.722563 136.543929 
L 399.758149 136.541293 
L 399.758237 136.542689 
L 403.307719 136.419281 
z
" style="fill:#ff7f0e;stroke:#ff7f0e;stroke-linejoin:miter;"/>
   </g>
   <g id="patch_15">
    <path clip-path="url(#pe73489a77a)" d="M 308.306868 217.175646 
L 315.62392 214.792516 
L 315.440686 217.436808 
L 315.439833 217.463422 
L 315.438844 217.463384 
L 315.255611 220.107675 
z
" style="fill:#ff7f0e;stroke:#ff7f0e;stroke-linejoin:miter;"/>
   </g>
   <g id="patch_16">
    <path clip-path="url(#pe73489a77a)" d="M 221.643522 184.554747 
L 229.332026 186.162337 
L 226.943381 188.122638 
L 226.919967 188.142741 
L 226.919374 188.14234 
L 224.530728 190.102642 
z
" style="fill:#ff7f0e;stroke:#ff7f0e;stroke-linejoin:miter;"/>
   </g>
   <g id="patch_17">
    <path clip-path="url(#pe73489a77a)" d="M 284.923743 217.986668 
L 292.803653 217.022449 
L 291.750552 219.551307 
L 291.740984 219.576957 
L 291.739968 219.576722 
L 290.686868 222.10558 
z
" style="fill:#ff7f0e;stroke:#ff7f0e;stroke-linejoin:miter;"/>
   </g>
   <g id="patch_18">
    <path clip-path="url(#pe73489a77a)" d="M 223.232815 189.185894 
L 230.939873 190.743372 
L 228.5743 192.719148 
L 228.55118 192.73944 
L 228.550525 192.739005 
L 226.184953 194.714781 
z
" style="fill:#ff7f0e;stroke:#ff7f0e;stroke-linejoin:miter;"/>
   </g>
   <g id="patch_19">
    <path clip-path="url(#pe73489a77a)" d="M 258.523657 219.424975 
L 266.489784 219.838631 
L 264.683586 222.118861 
L 264.666482 222.142239 
L 264.665433 222.141778 
L 262.859234 224.422008 
z
" style="fill:#ff7f0e;stroke:#ff7f0e;stroke-linejoin:miter;"/>
   </g>
   <g id="patch_20">
    <path clip-path="url(#pe73489a77a)" d="M 186.271541 159.651816 
L 192.508835 163.367437 
L 189.283053 164.477849 
L 189.250909 164.489453 
L 189.250633 164.489009 
L 186.024852 165.599421 
z
" style="fill:#ff7f0e;stroke:#ff7f0e;stroke-linejoin:miter;"/>
   </g>
   <g id="patch_21">
    <path clip-path="url(#pe73489a77a)" d="M 250.981631 235.946028 
L 258.859663 236.91873 
L 256.772402 239.061584 
L 256.752699 239.083809 
L 256.751425 239.08312 
L 254.664164 241.225973 
z
" style="fill:#ff7f0e;stroke:#ff7f0e;stroke-linejoin:miter;"/>
   </g>
   <g id="patch_22">
    <path clip-path="url(#pe73489a77a)" d="M 171.343907 160.292769 
L 177.196281 164.341201 
L 173.86934 165.271226 
L 173.836189 165.28114 
L 173.835904 165.280573 
L 170.508963 166.210599 
z
" style="fill:#ff7f0e;stroke:#ff7f0e;stroke-linejoin:miter;"/>
   </g>
   <g id="patch_23">
    <path clip-path="url(#pe73489a77a)" d="M 224.841685 226.662482 
L 232.506272 228.332285 
L 230.089156 230.273113 
L 230.066019 230.293418 
L 230.064864 230.292619 
L 227.647748 232.233446 
z
" style="fill:#ff7f0e;stroke:#ff7f0e;stroke-linejoin:miter;"/>
   </g>
   <g id="patch_24">
    <path clip-path="url(#pe73489a77a)" d="M 174.997002 177.744129 
L 181.548583 181.146191 
L 178.427735 182.412211 
L 178.396883 182.425638 
L 178.396369 182.424935 
L 175.275521 183.690954 
z
" style="fill:#ff7f0e;stroke:#ff7f0e;stroke-linejoin:miter;"/>
   </g>
   <g id="patch_25">
    <path clip-path="url(#pe73489a77a)" d="M 178.018478 200.847049 
L 184.972485 203.77214 
L 182.02631 205.252426 
L 181.997519 205.268209 
L 181.9967 205.267303 
L 179.050525 206.74759 
z
" style="fill:#ff7f0e;stroke:#ff7f0e;stroke-linejoin:miter;"/>
   </g>
   <g id="patch_26">
    <path clip-path="url(#pe73489a77a)" d="M 164.270926 118.307792 
L 162.18709 124.052062 
L 159.533687 122.29094 
L 159.50673 122.273483 
L 159.50702 122.273241 
L 156.853617 120.512119 
z
" style="fill:#ff7f0e;stroke:#ff7f0e;stroke-linejoin:miter;"/>
   </g>
   <g id="patch_27">
    <path clip-path="url(#pe73489a77a)" d="M 152.268605 194.031987 
L 158.75306 197.504725 
L 155.607821 198.736772 
L 155.576941 198.750191 
L 155.57621 198.749155 
L 152.430971 199.981202 
z
" style="fill:#ff7f0e;stroke:#ff7f0e;stroke-linejoin:miter;"/>
   </g>
   <g id="patch_28">
    <path clip-path="url(#pe73489a77a)" d="M 157.648588 109.802768 
L 153.648119 114.952668 
L 151.693586 112.741402 
L 151.673525 112.719383 
L 151.673943 112.719178 
L 149.71941 110.507912 
z
" style="fill:#ff7f0e;stroke:#ff7f0e;stroke-linejoin:miter;"/>
   </g>
   <g id="patch_29">
    <path clip-path="url(#pe73489a77a)" d="M 137.513587 208.96861 
L 144.031992 212.405875 
L 140.898943 213.65505 
L 140.868385 213.668899 
L 140.867455 213.667604 
L 137.734406 214.916779 
z
" style="fill:#ff7f0e;stroke:#ff7f0e;stroke-linejoin:miter;"/>
   </g>
   <g id="patch_30">
    <path clip-path="url(#pe73489a77a)" d="M 116.500279 123.124076 
L 118.240931 128.931435 
L 114.792758 128.292003 
L 114.757892 128.286211 
L 114.758103 128.285577 
L 111.30993 127.646145 
z
" style="fill:#ff7f0e;stroke:#ff7f0e;stroke-linejoin:miter;"/>
   </g>
   <g id="patch_31">
    <path clip-path="url(#pe73489a77a)" d="M 86.313089 153.187509 
L 90.736055 158.141836 
L 87.209717 158.467662 
L 87.174466 158.472077 
L 87.174276 158.470937 
L 83.647938 158.796763 
z
" style="fill:#ff7f0e;stroke:#ff7f0e;stroke-linejoin:miter;"/>
   </g>
   <g id="patch_32">
    <path clip-path="url(#pe73489a77a)" d="M 100.981041 104.286767 
L 100.261829 110.213029 
L 97.239661 108.820403 
L 97.208815 108.806977 
L 97.209288 108.806407 
L 94.18712 107.413781 
z
" style="fill:#ff7f0e;stroke:#ff7f0e;stroke-linejoin:miter;"/>
   </g>
   <g id="patch_33">
    <path clip-path="url(#pe73489a77a)" d="M 57.432573 182.226401 
L 62.694465 186.702323 
L 59.256702 187.372156 
L 59.222726 187.380525 
L 59.222152 187.378888 
L 55.784389 188.048721 
z
" style="fill:#ff7f0e;stroke:#ff7f0e;stroke-linejoin:miter;"/>
   </g>
   <g id="patch_34">
    <path clip-path="url(#pe73489a77a)" d="M 120.497915 74.458941 
L 114.04267 77.961767 
L 113.456361 75.350245 
L 113.449549 75.324113 
L 113.450468 75.323999 
L 112.864159 72.712478 
z
" style="fill:#ff7f0e;stroke:#ff7f0e;stroke-linejoin:miter;"/>
   </g>
   <g id="patch_35">
    <path clip-path="url(#pe73489a77a)" d="M 45.368302 266.882858 
L 51.736691 270.472878 
L 48.551907 271.647164 
L 48.521599 271.661525 
L 48.519899 271.658966 
L 45.335115 272.833252 
z
" style="fill:#ff7f0e;stroke:#ff7f0e;stroke-linejoin:miter;"/>
   </g>
   <g id="patch_36">
    <path clip-path="url(#pe73489a77a)" d="M 43.70781 264.309722 
L 50.046977 267.928346 
L 46.85273 269.088273 
L 46.822292 269.102476 
L 46.820627 269.09993 
L 43.62638 270.259857 
z
" style="fill:#ff7f0e;stroke:#ff7f0e;stroke-linejoin:miter;"/>
   </g>
   <g id="patch_37">
    <path clip-path="url(#pe73489a77a)" d="M 39.965259 229.026774 
L 45.934645 232.979205 
L 42.635695 233.963037 
L 42.603735 233.97515 
L 42.602539 233.972924 
L 39.303588 234.956757 
z
" style="fill:#ff7f0e;stroke:#ff7f0e;stroke-linejoin:miter;"/>
   </g>
   <g id="patch_38">
    <path clip-path="url(#pe73489a77a)" d="M 40.688217 191.644545 
L 46.057767 196.048901 
L 42.636804 196.764904 
L 42.603122 196.773954 
L 42.602423 196.7721 
L 39.181461 197.488103 
z
" style="fill:#ff7f0e;stroke:#ff7f0e;stroke-linejoin:miter;"/>
   </g>
   <g id="patch_39">
    <path clip-path="url(#pe73489a77a)" d="M 41.654587 160.294488 
L 46.158455 165.208176 
L 42.637722 165.566083 
L 42.60262 165.571223 
L 42.602338 165.569681 
L 39.081606 165.927588 
z
" style="fill:#ff7f0e;stroke:#ff7f0e;stroke-linejoin:miter;"/>
   </g>
   <g id="patch_40">
    <path clip-path="url(#pe73489a77a)" d="M 80.637022 79.398123 
L 77.160714 84.755135 
L 74.991252 82.658106 
L 74.968625 82.637503 
L 74.969448 82.63703 
L 72.799987 80.540002 
z
" style="fill:#ff7f0e;stroke:#ff7f0e;stroke-linejoin:miter;"/>
   </g>
   <g id="patch_41">
    <path clip-path="url(#pe73489a77a)" d="M 204.237569 92.923666 
L 196.329143 92.099212 
L 198.343271 89.917843 
L 198.362793 89.895551 
L 198.363513 89.89592 
L 200.377641 87.714551 
z
" style="fill:#ff7f0e;stroke:#ff7f0e;stroke-linejoin:miter;"/>
   </g>
   <g id="patch_42">
    <path clip-path="url(#pe73489a77a)" d="M 148.910359 70.5747 
L 141.188535 72.091021 
L 141.915291 69.499179 
L 141.9216 69.472976 
L 141.922596 69.473131 
L 142.649352 66.881289 
z
" style="fill:#ff7f0e;stroke:#ff7f0e;stroke-linejoin:miter;"/>
   </g>
   <g id="patch_43">
    <path clip-path="url(#pe73489a77a)" d="M 228.097779 107.543728 
L 220.57548 105.546699 
L 223.139056 103.713188 
L 223.164285 103.694346 
L 223.16482 103.694761 
L 225.728395 101.86125 
z
" style="fill:#ff7f0e;stroke:#ff7f0e;stroke-linejoin:miter;"/>
   </g>
   <g id="patch_44">
    <path clip-path="url(#pe73489a77a)" d="M 134.20558 59.323801 
L 126.534836 60.977829 
L 127.177876 58.373733 
L 127.183194 58.347404 
L 127.184339 58.347561 
L 127.82738 55.743465 
z
" style="fill:#ff7f0e;stroke:#ff7f0e;stroke-linejoin:miter;"/>
   </g>
   <g id="patch_45">
    <path clip-path="url(#pe73489a77a)" d="M 234.483961 107.224789 
L 227.121877 104.919953 
L 229.817974 103.195212 
L 229.844529 103.177408 
L 229.84507 103.177878 
L 232.541166 101.453136 
z
" style="fill:#ff7f0e;stroke:#ff7f0e;stroke-linejoin:miter;"/>
   </g>
   <g id="patch_46">
    <path clip-path="url(#pe73489a77a)" d="M 191.3234 62.108117 
L 183.416002 61.278206 
L 185.43284 59.098228 
L 185.451978 59.075737 
L 185.45311 59.076319 
L 187.469948 56.896341 
z
" style="fill:#ff7f0e;stroke:#ff7f0e;stroke-linejoin:miter;"/>
   </g>
   <g id="patch_47">
    <path clip-path="url(#pe73489a77a)" d="M 247.344895 104.527109 
L 240.266916 101.772072 
L 243.146934 100.221178 
L 243.175299 100.204993 
L 243.175879 100.205591 
L 246.055897 98.654698 
z
" style="fill:#ff7f0e;stroke:#ff7f0e;stroke-linejoin:miter;"/>
   </g>
   <g id="patch_48">
    <path clip-path="url(#pe73489a77a)" d="M 197.034378 52.44515 
L 189.195708 51.309517 
L 191.362159 49.210761 
L 191.382669 49.188943 
L 191.383933 49.189668 
L 193.550384 47.090911 
z
" style="fill:#ff7f0e;stroke:#ff7f0e;stroke-linejoin:miter;"/>
   </g>
   <g id="patch_49">
    <path clip-path="url(#pe73489a77a)" d="M 253.027645 97.231392 
L 245.987795 94.422631 
L 248.88892 92.893737 
L 248.917399 92.877657 
L 248.918077 92.878371 
L 251.819201 91.349477 
z
" style="fill:#ff7f0e;stroke:#ff7f0e;stroke-linejoin:miter;"/>
   </g>
   <g id="patch_50">
    <path clip-path="url(#pe73489a77a)" d="M 217.301223 53.457754 
L 209.641966 51.774428 
L 212.065244 49.837872 
L 212.088344 49.817537 
L 212.089598 49.818409 
L 214.512876 47.881853 
z
" style="fill:#ff7f0e;stroke:#ff7f0e;stroke-linejoin:miter;"/>
   </g>
   <g id="patch_51">
    <path clip-path="url(#pe73489a77a)" d="M 283.095068 156.254552 
L 280.908391 150.531549 
L 284.400268 151.021915 
L 284.435462 151.026447 
L 284.435362 151.026843 
L 287.927238 151.517209 
z
" style="fill:#ff7f0e;stroke:#ff7f0e;stroke-linejoin:miter;"/>
   </g>
   <g id="patch_52">
    <path clip-path="url(#pe73489a77a)" d="M 284.678744 101.07139 
L 278.252645 97.538932 
L 281.418169 96.336076 
L 281.449353 96.323066 
L 281.449983 96.323987 
L 284.615506 95.121131 
z
" style="fill:#ff7f0e;stroke:#ff7f0e;stroke-linejoin:miter;"/>
   </g>
   <g id="patch_53">
    <path clip-path="url(#pe73489a77a)" d="M 284.692159 171.719136 
L 286.845842 165.98919 
L 289.477695 167.768176 
L 289.50447 167.785789 
L 289.504146 167.786056 
L 292.135999 169.565042 
z
" style="fill:#ff7f0e;stroke:#ff7f0e;stroke-linejoin:miter;"/>
   </g>
   <g id="patch_54">
    <path clip-path="url(#pe73489a77a)" d="M 301.649138 93.509253 
L 295.320275 89.880628 
L 298.517813 88.725747 
L 298.549218 88.713017 
L 298.549949 88.714141 
L 301.747487 87.55926 
z
" style="fill:#ff7f0e;stroke:#ff7f0e;stroke-linejoin:miter;"/>
   </g>
   <g id="patch_55">
    <path clip-path="url(#pe73489a77a)" d="M 311.577406 168.302775 
L 310.928007 162.372038 
L 314.224918 163.35966 
L 314.258319 163.369092 
L 314.258053 163.369586 
L 317.554964 164.357207 
z
" style="fill:#ff7f0e;stroke:#ff7f0e;stroke-linejoin:miter;"/>
   </g>
   <g id="matplotlib.axis_1">
    <g id="xtick_1">
     <g id="line2d_1">
      <defs>
       <path d="M 0 0 
L 0 3.5 
" id="md4c1cdcfbc" style="stroke:#000000;stroke-width:0.8;"/>
      </defs>
      <g>
       <use style="stroke:#000000;stroke-width:0.8;" x="78.332313" xlink:href="#md4c1cdcfbc" y="276.812"/>
      </g>
     </g>
     <g id="text_1">
      <!-- −4 -->
      <defs>
       <path d="M 10.59375 35.5 
L 73.1875 35.5 
L 73.1875 27.203125 
L 10.59375 27.203125 
z
" id="DejaVuSans-2212"/>
       <path d="M 37.796875 64.3125 
L 12.890625 25.390625 
L 37.796875 25.390625 
z
M 35.203125 72.90625 
L 47.609375 72.90625 
L 47.609375 25.390625 
L 58.015625 25.390625 
L 58.015625 17.1875 
L 47.609375 17.1875 
L 47.609375 0 
L 37.796875 0 
L 37.796875 17.1875 
L 4.890625 17.1875 
L 4.890625 26.703125 
z
" id="DejaVuSans-34"/>
      </defs>
      <g transform="translate(70.961219 291.410438)scale(0.1 -0.1)">
       <use xlink:href="#DejaVuSans-2212"/>
       <use x="83.789062" xlink:href="#DejaVuSans-34"/>
      </g>
     </g>
    </g>
    <g id="xtick_2">
     <g id="line2d_2">
      <g>
       <use style="stroke:#000000;stroke-width:0.8;" x="149.756313" xlink:href="#md4c1cdcfbc" y="276.812"/>
      </g>
     </g>
     <g id="text_2">
      <!-- −2 -->
      <defs>
       <path d="M 19.1875 8.296875 
L 53.609375 8.296875 
L 53.609375 0 
L 7.328125 0 
L 7.328125 8.296875 
Q 12.9375 14.109375 22.625 23.890625 
Q 32.328125 33.6875 34.8125 36.53125 
Q 39.546875 41.84375 41.421875 45.53125 
Q 43.3125 49.21875 43.3125 52.78125 
Q 43.3125 58.59375 39.234375 62.25 
Q 35.15625 65.921875 28.609375 65.921875 
Q 23.96875 65.921875 18.8125 64.3125 
Q 13.671875 62.703125 7.8125 59.421875 
L 7.8125 69.390625 
Q 13.765625 71.78125 18.9375 73 
Q 24.125 74.21875 28.421875 74.21875 
Q 39.75 74.21875 46.484375 68.546875 
Q 53.21875 62.890625 53.21875 53.421875 
Q 53.21875 48.921875 51.53125 44.890625 
Q 49.859375 40.875 45.40625 35.40625 
Q 44.1875 33.984375 37.640625 27.21875 
Q 31.109375 20.453125 19.1875 8.296875 
" id="DejaVuSans-32"/>
      </defs>
      <g transform="translate(142.385219 291.410438)scale(0.1 -0.1)">
       <use xlink:href="#DejaVuSans-2212"/>
       <use x="83.789062" xlink:href="#DejaVuSans-32"/>
      </g>
     </g>
    </g>
    <g id="xtick_3">
     <g id="line2d_3">
      <g>
       <use style="stroke:#000000;stroke-width:0.8;" x="221.180313" xlink:href="#md4c1cdcfbc" y="276.812"/>
      </g>
     </g>
     <g id="text_3">
      <!-- 0 -->
      <defs>
       <path d="M 31.78125 66.40625 
Q 24.171875 66.40625 20.328125 58.90625 
Q 16.5 51.421875 16.5 36.375 
Q 16.5 21.390625 20.328125 13.890625 
Q 24.171875 6.390625 31.78125 6.390625 
Q 39.453125 6.390625 43.28125 13.890625 
Q 47.125 21.390625 47.125 36.375 
Q 47.125 51.421875 43.28125 58.90625 
Q 39.453125 66.40625 31.78125 66.40625 
M 31.78125 74.21875 
Q 44.046875 74.21875 50.515625 64.515625 
Q 56.984375 54.828125 56.984375 36.375 
Q 56.984375 17.96875 50.515625 8.265625 
Q 44.046875 -1.421875 31.78125 -1.421875 
Q 19.53125 -1.421875 13.0625 8.265625 
Q 6.59375 17.96875 6.59375 36.375 
Q 6.59375 54.828125 13.0625 64.515625 
Q 19.53125 74.21875 31.78125 74.21875 
" id="DejaVuSans-30"/>
      </defs>
      <g transform="translate(217.999063 291.410438)scale(0.1 -0.1)">
       <use xlink:href="#DejaVuSans-30"/>
      </g>
     </g>
    </g>
    <g id="xtick_4">
     <g id="line2d_4">
      <g>
       <use style="stroke:#000000;stroke-width:0.8;" x="292.604312" xlink:href="#md4c1cdcfbc" y="276.812"/>
      </g>
     </g>
     <g id="text_4">
      <!-- 2 -->
      <g transform="translate(289.423063 291.410438)scale(0.1 -0.1)">
       <use xlink:href="#DejaVuSans-32"/>
      </g>
     </g>
    </g>
    <g id="xtick_5">
     <g id="line2d_5">
      <g>
       <use style="stroke:#000000;stroke-width:0.8;" x="364.028313" xlink:href="#md4c1cdcfbc" y="276.812"/>
      </g>
     </g>
     <g id="text_5">
      <!-- 4 -->
      <g transform="translate(360.847063 291.410438)scale(0.1 -0.1)">
       <use xlink:href="#DejaVuSans-34"/>
      </g>
     </g>
    </g>
    <g id="text_6">
     <!-- x1 -->
     <defs>
      <path d="M 54.890625 54.6875 
L 35.109375 28.078125 
L 55.90625 0 
L 45.3125 0 
L 29.390625 21.484375 
L 13.484375 0 
L 2.875 0 
L 24.125 28.609375 
L 4.6875 54.6875 
L 15.28125 54.6875 
L 29.78125 35.203125 
L 44.28125 54.6875 
z
" id="DejaVuSans-78"/>
      <path d="M 12.40625 8.296875 
L 28.515625 8.296875 
L 28.515625 63.921875 
L 10.984375 60.40625 
L 10.984375 69.390625 
L 28.421875 72.90625 
L 38.28125 72.90625 
L 38.28125 8.296875 
L 54.390625 8.296875 
L 54.390625 0 
L 12.40625 0 
z
" id="DejaVuSans-31"/>
     </defs>
     <g transform="translate(215.039688 305.088562)scale(0.1 -0.1)">
      <use xlink:href="#DejaVuSans-78"/>
      <use x="59.179688" xlink:href="#DejaVuSans-31"/>
     </g>
    </g>
   </g>
   <g id="matplotlib.axis_2">
    <g id="ytick_1">
     <g id="line2d_6">
      <defs>
       <path d="M 0 0 
L -3.5 0 
" id="m5007f934d5" style="stroke:#000000;stroke-width:0.8;"/>
      </defs>
      <g>
       <use style="stroke:#000000;stroke-width:0.8;" x="42.620313" xlink:href="#m5007f934d5" y="250.2008"/>
      </g>
     </g>
     <g id="text_7">
      <!-- −4 -->
      <g transform="translate(20.878125 254.000019)scale(0.1 -0.1)">
       <use xlink:href="#DejaVuSans-2212"/>
       <use x="83.789062" xlink:href="#DejaVuSans-34"/>
      </g>
     </g>
    </g>
    <g id="ytick_2">
     <g id="line2d_7">
      <g>
       <use style="stroke:#000000;stroke-width:0.8;" x="42.620313" xlink:href="#m5007f934d5" y="196.9784"/>
      </g>
     </g>
     <g id="text_8">
      <!-- −2 -->
      <g transform="translate(20.878125 200.777619)scale(0.1 -0.1)">
       <use xlink:href="#DejaVuSans-2212"/>
       <use x="83.789062" xlink:href="#DejaVuSans-32"/>
      </g>
     </g>
    </g>
    <g id="ytick_3">
     <g id="line2d_8">
      <g>
       <use style="stroke:#000000;stroke-width:0.8;" x="42.620313" xlink:href="#m5007f934d5" y="143.756"/>
      </g>
     </g>
     <g id="text_9">
      <!-- 0 -->
      <g transform="translate(29.257813 147.555219)scale(0.1 -0.1)">
       <use xlink:href="#DejaVuSans-30"/>
      </g>
     </g>
    </g>
    <g id="ytick_4">
     <g id="line2d_9">
      <g>
       <use style="stroke:#000000;stroke-width:0.8;" x="42.620313" xlink:href="#m5007f934d5" y="90.5336"/>
      </g>
     </g>
     <g id="text_10">
      <!-- 2 -->
      <g transform="translate(29.257813 94.332819)scale(0.1 -0.1)">
       <use xlink:href="#DejaVuSans-32"/>
      </g>
     </g>
    </g>
    <g id="ytick_5">
     <g id="line2d_10">
      <g>
       <use style="stroke:#000000;stroke-width:0.8;" x="42.620313" xlink:href="#m5007f934d5" y="37.3112"/>
      </g>
     </g>
     <g id="text_11">
      <!-- 4 -->
      <g transform="translate(29.257813 41.110419)scale(0.1 -0.1)">
       <use xlink:href="#DejaVuSans-34"/>
      </g>
     </g>
    </g>
    <g id="text_12">
     <!-- x2 -->
     <g transform="translate(14.798438 149.896625)rotate(-90)scale(0.1 -0.1)">
      <use xlink:href="#DejaVuSans-78"/>
      <use x="59.179688" xlink:href="#DejaVuSans-32"/>
     </g>
    </g>
   </g>
   <g id="line2d_11">
    <path clip-path="url(#pe73489a77a)" d="M 221.180313 10.7 
L 229.885173 17.34982 
L 238.144312 23.983441 
L 245.959331 30.585563 
L 253.332806 37.141763 
L 260.26826 43.638296 
L 266.770184 50.062094 
L 272.843871 56.401044 
L 278.495353 62.643785 
L 283.731457 68.7798 
L 288.559689 74.799352 
L 292.988173 80.693446 
L 297.025602 86.45383 
L 300.681204 92.072979 
L 303.96469 97.544079 
L 306.886208 102.861012 
L 309.456271 108.018329 
L 311.685749 113.011237 
L 313.585853 117.835599 
L 315.168024 122.487877 
L 316.443909 126.965123 
L 317.42533 131.264954 
L 318.124235 135.385534 
L 318.552698 139.325555 
L 318.722858 143.084217 
L 318.646907 146.661204 
L 318.337036 150.056657 
L 317.805411 153.271152 
L 317.064141 156.305677 
L 316.125258 159.16161 
L 315.000686 161.840698 
L 313.702222 164.345034 
L 312.241513 166.677036 
L 310.630038 168.839422 
L 308.879077 170.835194 
L 306.999704 172.667611 
L 305.002775 174.340177 
L 302.466169 176.141497 
L 299.793371 177.724799 
L 297.001607 179.097241 
L 294.107591 180.266317 
L 291.12735 181.239774 
L 288.07634 182.025615 
L 284.447041 182.716212 
L 280.763828 183.175825 
L 277.047752 183.417885 
L 273.318634 183.455966 
L 269.064499 183.267165 
L 264.843075 182.849991 
L 260.677799 182.224569 
L 256.085389 181.296747 
L 251.61804 180.158181 
L 247.299574 178.835827 
L 242.700855 177.182637 
L 238.335134 175.368937 
L 234.221749 173.427247 
L 230.006374 171.180072 
L 226.129064 168.853063 
L 222.598985 166.481168 
L 219.420374 164.096202 
L 216.353277 161.513117 
L 213.69843 158.981462 
L 211.445196 156.529731 
L 209.578698 154.182112 
L 208.0805 151.958657 
L 206.929257 149.875459 
L 206.101339 147.944889 
L 205.57141 146.17585 
L 205.312957 144.574052 
L 205.298783 143.142295 
L 205.501458 141.880758 
L 205.893713 140.787289 
L 206.448794 139.857703 
L 207.203823 139.028672 
L 208.087992 138.375513 
L 209.150536 137.856032 
L 210.377845 137.493871 
L 211.83258 137.301133 
L 213.394195 137.315756 
L 215.095796 137.550923 
L 216.863497 138.017455 
L 218.605379 138.702473 
L 220.220156 139.568174 
L 221.608955 140.554051 
L 222.688682 141.582855 
L 223.388649 142.541405 
L 223.721017 143.344015 
L 223.756521 143.966459 
L 223.571381 144.405737 
L 223.214766 144.686671 
L 222.686799 144.809313 
L 222.009162 144.729068 
L 221.316521 144.426056 
L 220.845996 143.995878 
L 220.77241 143.680528 
L 220.937559 143.584146 
L 221.207891 143.685228 
L 221.242026 143.77539 
L 221.180313 143.756 
" style="fill:none;stroke:#ff7f0e;stroke-linecap:square;stroke-width:0.5;"/>
   </g>
   <g id="line2d_12">
    <path clip-path="url(#pe73489a77a)" d="M 260.484341 10.7 
L 267.452843 17.168791 
L 274.075695 23.582339 
L 280.355883 29.933016 
L 286.296982 36.213291 
L 291.903016 42.415977 
L 297.178342 48.534394 
L 302.127631 54.562226 
L 306.755891 60.493556 
L 311.068461 66.322873 
L 315.070965 72.04505 
L 318.76929 77.655316 
L 322.169557 83.149262 
L 325.278123 88.522831 
L 328.101539 93.772314 
L 330.646572 98.894344 
L 332.920149 103.885889 
L 334.929339 108.744232 
L 336.681358 113.466976 
L 338.183516 118.05202 
L 339.443308 122.4976 
L 340.468242 126.802203 
L 341.265948 130.964623 
L 341.844074 134.983902 
L 342.210311 138.859342 
L 342.372387 142.590503 
L 342.338039 146.177186 
L 342.115031 149.619433 
L 341.711119 152.917514 
L 341.134029 156.071909 
L 340.391454 159.083305 
L 339.491045 161.952585 
L 338.440403 164.680822 
L 337.247062 167.269265 
L 335.918494 169.719339 
L 334.07885 172.589768 
L 332.053684 175.249909 
L 329.856968 177.703523 
L 327.502446 179.954716 
L 325.003545 182.007867 
L 322.373403 183.867631 
L 319.62483 185.538905 
L 316.770296 187.026802 
L 313.82193 188.33664 
L 310.79149 189.473907 
L 307.062642 190.618788 
L 303.250952 191.533301 
L 299.374557 192.227668 
L 295.450769 192.712283 
L 291.496053 192.997669 
L 286.863912 193.092967 
L 282.234214 192.948433 
L 277.628698 192.580967 
L 273.067512 192.007377 
L 267.932774 191.120796 
L 262.905406 190.011209 
L 258.008059 188.702581 
L 253.260843 187.21826 
L 248.121547 185.366541 
L 243.216031 183.352091 
L 238.562149 181.20451 
L 234.174268 178.951882 
L 229.624182 176.357906 
L 225.426805 173.70079 
L 221.588482 171.011806 
L 218.11154 168.31955 
L 214.994651 165.649938 
L 211.976324 162.767163 
L 209.377759 159.967065 
L 207.184973 157.273079 
L 205.380798 154.704986 
L 203.945408 152.279067 
L 202.856819 150.008284 
L 202.091368 147.902473 
L 201.624155 145.968552 
L 201.429462 144.21075 
L 201.48113 142.630844 
L 201.752907 141.22839 
L 202.218753 140.000958 
L 202.853122 138.944364 
L 203.631196 138.052908 
L 204.615873 137.260496 
L 205.809418 136.602152 
L 207.203147 136.109068 
L 208.776609 135.806636 
L 210.497522 135.712542 
L 212.322557 135.835111 
L 214.300669 136.196157 
L 216.255896 136.775457 
L 218.201441 137.580637 
L 220.031752 138.580244 
L 221.585135 139.674191 
L 222.852179 140.834305 
L 223.737835 141.942726 
L 224.233455 142.903641 
L 224.40062 143.687791 
L 224.308188 144.285074 
L 224.025836 144.700548 
L 223.570676 144.968265 
L 222.952954 145.067402 
L 222.183646 144.957684 
L 221.39918 144.619212 
L 220.830981 144.144335 
L 220.655235 143.746574 
L 220.772974 143.565302 
L 221.043108 143.568267 
L 221.265631 143.761297 
L 221.218366 143.790284 
L 221.180313 143.756 
" style="fill:none;stroke:#ff7f0e;stroke-linecap:square;stroke-width:0.5;"/>
   </g>
   <g id="line2d_13">
    <path clip-path="url(#pe73489a77a)" d="M 303.790965 10.7 
L 310.725208 18.433803 
L 317.247335 26.060915 
L 323.363007 33.573653 
L 329.078646 40.964625 
L 334.400967 48.226989 
L 339.337054 55.35442 
L 343.894298 62.341018 
L 348.080387 69.18132 
L 351.90331 75.870333 
L 355.371326 82.403515 
L 358.492916 88.77674 
L 361.276773 94.986289 
L 363.731774 101.028841 
L 365.866957 106.901465 
L 367.691509 112.601611 
L 369.214744 118.1271 
L 370.446106 123.476123 
L 371.39509 128.647201 
L 372.071307 133.639216 
L 372.48438 138.451355 
L 372.644 143.083138 
L 372.55984 147.534368 
L 372.241575 151.805144 
L 371.698866 155.895854 
L 370.941393 159.807123 
L 369.978788 163.539838 
L 368.82059 167.095159 
L 367.476268 170.474476 
L 365.955221 173.679397 
L 364.266772 176.711729 
L 362.420139 179.573477 
L 360.424423 182.26684 
L 358.288603 184.794196 
L 356.021518 187.158094 
L 353.631865 189.361239 
L 351.128198 191.406479 
L 348.51891 193.296803 
L 345.121304 195.446601 
L 341.587226 197.365535 
L 337.931955 199.060176 
L 334.170312 200.537334 
L 330.316658 201.804012 
L 326.384876 202.867389 
L 322.388361 203.734788 
L 318.340007 204.413653 
L 313.430981 204.990049 
L 308.485594 205.318985 
L 303.523238 205.413721 
L 298.562237 205.287565 
L 293.619843 204.953822 
L 288.712233 204.425745 
L 283.050762 203.58159 
L 277.479361 202.5115 
L 272.018298 201.235813 
L 266.685947 199.774462 
L 261.498832 198.146912 
L 255.767339 196.10761 
L 250.263883 193.903268 
L 245.004762 191.560129 
L 240.003523 189.103266 
L 234.698874 186.233005 
L 229.746142 183.28097 
L 225.153377 180.277051 
L 220.925149 177.248967 
L 217.062814 174.222237 
L 213.564777 171.220176 
L 210.100052 167.939094 
L 207.070393 164.740308 
L 204.463206 161.6464 
L 202.263076 158.676808 
L 200.452188 155.847937 
L 199.010717 153.173295 
L 197.917217 150.663635 
L 197.14897 148.32712 
L 196.682329 146.16949 
L 196.493029 144.194237 
L 196.556478 142.402787 
L 196.848021 140.794683 
L 197.34318 139.367767 
L 198.017869 138.118364 
L 198.84859 137.041462 
L 199.812594 136.130884 
L 201.000894 135.312771 
L 202.418579 134.627306 
L 203.930236 134.143076 
L 205.637887 133.826784 
L 207.518211 133.704383 
L 209.536131 133.793932 
L 211.645507 134.103877 
L 213.912974 134.668203 
L 216.13355 135.453535 
L 218.234011 136.426351 
L 220.226964 137.5965 
L 221.933714 138.85673 
L 223.303205 140.140585 
L 224.30447 141.381895 
L 224.912389 142.479234 
L 225.180525 143.404082 
L 225.169287 144.143715 
L 224.941091 144.698412 
L 224.538652 145.090373 
L 223.966526 145.329629 
L 223.226591 145.391006 
L 222.360362 145.236181 
L 221.487605 144.854914 
L 220.824485 144.334947 
L 220.536362 143.856995 
L 220.585493 143.578903 
L 220.815309 143.488848 
L 221.160363 143.595878 
L 221.280448 143.780792 
L 221.258535 143.796664 
L 221.163527 143.759881 
L 221.180312 143.756 
" style="fill:none;stroke:#ff7f0e;stroke-linecap:square;stroke-width:0.5;"/>
   </g>
   <g id="line2d_14">
    <path clip-path="url(#pe73489a77a)" d="M 356.918096 10.7 
L 358.687822 13.036885 
L 360.426455 15.363558 
L 362.133951 17.679848 
L 363.810438 19.985633 
L 365.456066 22.280784 
L 367.07095 24.565198 
L 368.655251 26.838743 
L 370.209091 29.101319 
L 371.732636 31.352796 
L 373.226036 33.59306 
L 374.689445 35.821997 
L 376.12302 38.039505 
L 377.526914 40.245466 
L 378.901283 42.439777 
L 380.246285 44.622342 
L 381.562076 46.793047 
L 382.848818 48.951803 
L 384.106672 51.098515 
L 385.335795 53.233078 
L 386.536359 55.355416 
L 387.708522 57.465431 
L 388.85245 59.563031 
L 389.968318 61.648149 
L 391.05629 63.720691 
L 392.11653 65.780571 
L 393.149208 67.827703 
L 394.154505 69.862034 
L 395.132587 71.883475 
L 396.083626 73.891949 
L 397.007796 75.887383 
L 397.905275 77.869716 
L 398.776238 79.838881 
L 399.620864 81.794809 
L 400.439328 83.737438 
" style="fill:none;stroke:#ff7f0e;stroke-linecap:square;stroke-width:0.5;"/>
   </g>
   <g id="line2d_15">
    <path clip-path="url(#pe73489a77a)" d="M 399.740313 30.737215 
L 401.240323 33.191204 
" style="fill:none;stroke:#ff7f0e;stroke-linecap:square;stroke-width:0.5;"/>
   </g>
   <g id="line2d_16">
    <path clip-path="url(#pe73489a77a)" d="M 399.740313 73.214173 
L 400.67319 75.243409 
" style="fill:none;stroke:#ff7f0e;stroke-linecap:square;stroke-width:0.5;"/>
   </g>
   <g id="line2d_17">
    <path clip-path="url(#pe73489a77a)" d="M 399.740313 106.813183 
L 400.224584 108.506441 
" style="fill:none;stroke:#ff7f0e;stroke-linecap:square;stroke-width:0.5;"/>
   </g>
   <g id="line2d_18">
    <path clip-path="url(#pe73489a77a)" d="M 399.740313 136.541913 
L 399.827725 137.937947 
" style="fill:none;stroke:#ff7f0e;stroke-linecap:square;stroke-width:0.5;"/>
   </g>
   <g id="line2d_19">
    <path clip-path="url(#pe73489a77a)" d="M 399.740313 165.569424 
L 398.451982 169.912913 
L 396.936417 174.045161 
L 395.204433 177.96786 
L 393.267309 181.683077 
L 391.136262 185.193145 
L 388.822236 188.500614 
L 386.336043 191.608224 
L 383.688342 194.518925 
L 380.889621 197.235877 
L 377.950183 199.762421 
L 374.880152 202.102068 
L 371.689463 204.258479 
L 368.387848 206.235452 
L 364.984837 208.036924 
L 361.489743 209.666952 
L 357.911657 211.1297 
L 353.335834 212.729415 
L 348.660982 214.082956 
L 343.903327 215.199028 
L 339.078515 216.086498 
L 334.201578 216.754345 
L 329.286955 217.211658 
L 324.348461 217.467588 
L 319.399288 217.531322 
L 313.463881 217.367098 
L 307.551755 216.955297 
L 301.682218 216.311786 
L 295.873286 215.452299 
L 290.141726 214.392421 
L 284.503059 213.147528 
L 278.061009 211.481471 
L 271.785413 209.607681 
L 265.694695 207.549058 
L 259.805169 205.327837 
L 254.131097 202.965522 
L 248.684747 200.482818 
L 242.752412 197.523499 
L 237.143564 194.461175 
L 231.867808 191.322586 
L 226.93197 188.13289 
L 222.340258 184.915628 
L 218.094438 181.692685 
L 213.730649 178.085242 
L 209.800114 174.522547 
L 206.29597 171.028327 
L 203.208643 167.623734 
L 200.526154 164.327413 
L 198.234423 161.155562 
L 196.31756 158.122021 
L 194.758138 155.238365 
L 193.537466 152.514015 
L 192.635837 149.956349 
L 192.032772 147.570819 
L 191.707241 145.361077 
L 191.637881 143.3291 
L 191.803182 141.475315 
L 192.181663 139.798738 
L 192.752045 138.297096 
L 193.493393 136.966956 
L 194.38525 135.803853 
L 195.528601 134.700858 
L 196.807054 133.788924 
L 198.1956 133.05854 
L 199.821935 132.45246 
L 201.68078 132.010325 
L 203.59371 131.777378 
L 205.690001 131.7373 
L 207.934966 131.911556 
L 210.282304 132.312149 
L 212.675399 132.940065 
L 215.049614 133.784269 
L 217.33551 134.821427 
L 219.566276 136.081134 
L 221.535989 137.455481 
L 223.118513 138.819205 
L 224.372861 140.17994 
L 225.272257 141.480099 
L 225.794335 142.620201 
L 225.992058 143.57949 
L 225.930535 144.320408 
L 225.660242 144.91257 
L 225.213504 145.342981 
L 224.606833 145.615074 
L 223.831013 145.716997 
L 222.901165 145.609283 
L 221.921923 145.268821 
L 221.078412 144.748547 
L 220.543819 144.177866 
L 220.395373 143.736222 
L 220.516703 143.501413 
L 220.800569 143.438322 
L 221.17937 143.580639 
L 221.29877 143.787591 
L 221.286672 143.798732 
L 221.163322 143.767099 
L 221.180312 143.756 
" style="fill:none;stroke:#ff7f0e;stroke-linecap:square;stroke-width:0.5;"/>
   </g>
   <g id="line2d_20">
    <path clip-path="url(#pe73489a77a)" d="M 399.740313 196.770356 
L 396.810599 199.866135 
L 393.720502 202.752653 
L 390.480778 205.433409 
L 387.102493 207.912309 
L 383.596457 210.193407 
L 379.973194 212.28088 
L 376.242984 214.179037 
L 372.415867 215.892325 
L 368.501599 217.425322 
L 364.509764 218.782679 
L 360.449652 219.969157 
L 355.292325 221.219305 
L 350.059608 222.219597 
L 344.767912 222.979796 
L 339.432991 223.509765 
L 334.069952 223.819447 
L 328.693239 223.91883 
L 323.316633 223.817931 
L 317.953238 223.526761 
L 311.552063 222.940253 
L 305.207995 222.111294 
L 298.939872 221.05688 
L 292.76516 219.793869 
L 286.699992 218.338802 
L 280.759166 216.707979 
L 274.003309 214.604429 
L 267.454308 212.30796 
L 261.129156 209.842458 
L 255.042644 207.231009 
L 249.207433 204.495836 
L 243.634139 201.658248 
L 237.596387 198.315942 
L 231.92192 194.895205 
L 226.61769 191.423093 
L 221.687842 187.924898 
L 217.133897 184.424132 
L 212.954951 180.942511 
L 209.147862 177.49997 
L 205.707446 174.114667 
L 202.626659 170.803012 
L 199.896791 167.5797 
L 197.232396 164.075222 
L 194.9827 160.715078 
L 193.129426 157.512858 
L 191.652801 154.479756 
L 190.531839 151.624698 
L 189.744604 148.954459 
L 189.306723 146.739962 
L 189.098448 144.677378 
L 189.103405 142.767709 
L 189.305171 141.010937 
L 189.687374 139.406107 
L 190.312843 137.78 
L 191.123421 136.34011 
L 192.096903 135.081556 
L 193.211732 133.998471 
L 194.590943 132.992645 
L 196.091726 132.184878 
L 197.852208 131.51174 
L 199.696338 131.048876 
L 201.76854 130.764224 
L 204.04487 130.690171 
L 206.488192 130.850937 
L 208.880593 131.226346 
L 211.34543 131.827136 
L 213.821471 132.648972 
L 216.240842 133.675306 
L 218.532554 134.877415 
L 220.626727 136.215313 
L 222.459226 137.639618 
L 223.97635 139.094299 
L 225.095297 140.458192 
L 225.874438 141.749656 
L 226.296594 142.872897 
L 226.413996 143.812533 
L 226.292391 144.534041 
L 225.973194 145.110399 
L 225.485946 145.528847 
L 224.814397 145.799082 
L 223.96712 145.886059 
L 222.989169 145.755267 
L 221.980327 145.396995 
L 221.094987 144.854626 
L 220.519367 144.261079 
L 220.327751 143.78393 
L 220.424899 143.507357 
L 220.689803 143.409097 
L 221.082065 143.504581 
L 221.31944 143.755938 
L 221.255542 143.812633 
L 221.208562 143.802701 
L 221.15834 143.752151 
L 221.180313 143.756 
" style="fill:none;stroke:#ff7f0e;stroke-linecap:square;stroke-width:0.5;"/>
   </g>
   <g id="line2d_21">
    <path clip-path="url(#pe73489a77a)" d="M 399.740313 233.970206 
L 394.853689 235.57838 
L 389.886527 236.979722 
L 384.849359 238.179826 
L 379.752865 239.184711 
L 374.607487 240.000536 
L 369.423261 240.633447 
L 362.903024 241.176774 
L 356.355256 241.456084 
L 349.797162 241.483573 
L 343.245274 241.271448 
L 336.715337 240.831909 
L 330.222237 240.177119 
L 323.780057 239.319177 
L 317.40198 238.270091 
L 311.100384 237.041742 
L 303.655736 235.347616 
L 296.356525 233.432212 
L 289.219785 231.315106 
L 282.260994 229.01544 
L 275.494097 226.551878 
L 268.931555 223.942571 
L 262.584391 221.205123 
L 255.464349 217.872159 
L 248.663502 214.413916 
L 242.19244 210.855223 
L 236.059482 207.219705 
L 230.270728 203.529772 
L 224.830303 199.80655 
L 219.740419 196.069891 
L 215.001465 192.338377 
L 210.612125 188.629317 
L 206.020076 184.43839 
L 201.874273 180.319588 
L 198.1659 176.292681 
L 194.884121 172.375361 
L 192.016314 168.583285 
L 189.548276 164.930141 
L 187.46444 161.4277 
L 185.748078 158.085904 
L 184.381484 154.912945 
L 183.346174 151.915341 
L 182.623044 149.098042 
L 182.192536 146.464505 
L 182.034802 144.016793 
L 182.129839 141.755666 
L 182.457626 139.680679 
L 182.998254 137.790276 
L 183.732039 136.081886 
L 184.639615 134.552017 
L 185.702044 133.19635 
L 186.900891 132.009825 
L 188.390443 130.870029 
L 190.005613 129.928083 
L 191.723092 129.17425 
L 193.724554 128.544671 
L 195.796611 128.119639 
L 198.125941 127.869934 
L 200.690245 127.833852 
L 203.242287 128.017647 
L 205.95476 128.433166 
L 208.774641 129.09423 
L 211.63767 130.002721 
L 214.470629 131.147324 
L 217.043113 132.420337 
L 219.466304 133.858858 
L 221.668538 135.421889 
L 223.584008 137.058871 
L 225.089233 138.632112 
L 226.205863 140.101075 
L 226.995235 141.50174 
L 227.431408 142.729963 
L 227.562548 143.724993 
L 227.461789 144.548857 
L 227.172563 145.20417 
L 226.710745 145.720387 
L 226.070286 146.098802 
L 225.24193 146.316472 
L 224.269269 146.337783 
L 223.163178 146.135305 
L 222.052659 145.706855 
L 221.078252 145.097171 
L 220.418774 144.434798 
L 220.15276 143.884674 
L 220.197899 143.528671 
L 220.431553 143.356929 
L 220.821412 143.358723 
L 221.242957 143.576815 
L 221.332989 143.802927 
L 221.326976 143.808488 
L 221.173724 143.788465 
L 221.155143 143.748657 
L 221.180313 143.756 
" style="fill:none;stroke:#ff7f0e;stroke-linecap:square;stroke-width:0.5;"/>
   </g>
   <g id="line2d_22">
    <path clip-path="url(#pe73489a77a)" d="M 390.321329 276.812 
L 383.18839 276.431752 
L 376.081234 275.858698 
L 369.009647 275.100808 
L 360.235005 273.906434 
L 351.54915 272.452955 
L 342.968988 270.75657 
L 334.510447 268.833305 
L 326.188252 266.698924 
L 318.015978 264.368915 
L 310.006181 261.858482 
L 302.170453 259.182545 
L 294.519415 256.355703 
L 287.062725 253.392198 
L 279.809085 250.305926 
L 271.383648 246.459341 
L 263.273528 242.478013 
L 255.488673 238.383707 
L 248.037333 234.1973 
L 240.926114 229.938778 
L 234.160058 225.627211 
L 227.742658 221.280756 
L 221.676045 216.916621 
L 215.960993 212.551077 
L 210.596995 208.199456 
L 205.582341 203.876148 
L 200.914201 199.594605 
L 196.588713 195.367353 
L 191.968867 190.519608 
L 187.799535 185.778386 
L 184.069971 181.158912 
L 180.768089 176.674808 
L 177.880602 172.338134 
L 175.393158 168.159438 
L 173.290481 164.147808 
L 171.556502 160.310928 
L 170.174495 156.655135 
L 169.127198 153.185478 
L 168.396932 149.905788 
L 167.965729 146.818726 
L 167.815413 143.925874 
L 167.927708 141.227792 
L 168.284323 138.724077 
L 168.867052 136.413433 
L 169.657853 134.293736 
L 170.638916 132.362105 
L 171.792739 130.614962 
L 173.102184 129.048101 
L 174.550537 127.656746 
L 176.121555 126.435612 
L 178.04706 125.241094 
L 180.089684 124.252234 
L 182.227864 123.459298 
L 184.722066 122.788736 
L 187.283818 122.338195 
L 189.887475 122.092227 
L 192.800739 122.039754 
L 195.706611 122.19876 
L 198.862484 122.592107 
L 202.220705 123.24981 
L 205.456145 124.111066 
L 208.788027 125.233602 
L 211.90985 126.512418 
L 215.009747 128.019378 
L 218.006308 129.733273 
L 220.651666 131.500875 
L 223.079397 133.395665 
L 225.103343 135.254871 
L 226.735427 137.039865 
L 228.061972 138.820373 
L 228.998678 140.453384 
L 229.581655 141.918661 
L 229.850748 143.203578 
L 229.854824 144.242816 
L 229.653522 145.116904 
L 229.253868 145.868959 
L 228.702639 146.447421 
L 227.954197 146.903115 
L 227.021151 147.195921 
L 225.938306 147.297724 
L 224.715401 147.189206 
L 223.395831 146.846099 
L 222.109805 146.280741 
L 221.005537 145.555992 
L 220.228267 144.793972 
L 219.831772 144.119537 
L 219.773414 143.627012 
L 219.94365 143.325708 
L 220.283002 143.186224 
L 220.772697 143.23698 
L 221.257264 143.503904 
L 221.406253 143.790153 
L 221.270034 143.846476 
L 221.142939 143.752454 
L 221.180313 143.756 
" style="fill:none;stroke:#ff7f0e;stroke-linecap:square;stroke-width:0.5;"/>
   </g>
   <g id="line2d_23">
    <path clip-path="url(#pe73489a77a)" d="M 328.6163 276.812 
L 319.779596 274.064727 
L 311.133277 271.133776 
L 302.689276 268.035176 
L 294.458356 264.7847 
L 286.450229 261.397689 
L 278.673503 257.889034 
L 271.135853 254.27322 
L 263.84405 250.564312 
L 255.426534 246.009852 
L 247.379642 241.363465 
L 239.709853 236.646715 
L 232.421983 231.88017 
L 225.519255 227.083381 
L 219.003356 222.274866 
L 212.874512 217.472106 
L 207.131599 212.691541 
L 201.772206 207.948576 
L 196.792718 203.257592 
L 192.188399 198.631945 
L 187.953486 194.08399 
L 184.081262 189.625088 
L 180.564145 185.265633 
L 177.393743 181.015063 
L 174.560919 176.88188 
L 172.055911 172.873686 
L 169.868356 168.997196 
L 167.987416 165.258282 
L 166.401813 161.661994 
L 165.099893 158.212591 
L 164.06969 154.913568 
L 163.298976 151.767691 
L 162.775331 148.77703 
L 162.486191 145.94299 
L 162.418911 143.266352 
L 162.56081 140.747299 
L 162.899209 138.385454 
L 163.421483 136.179912 
L 164.115097 134.129276 
L 164.967651 132.231686 
L 165.96691 130.484858 
L 167.302089 128.633846 
L 168.801874 126.97951 
L 170.44804 125.516377 
L 172.222905 124.238443 
L 174.109371 123.139234 
L 176.38089 122.092993 
L 178.753168 121.260363 
L 181.203873 120.630038 
L 184.028446 120.148187 
L 186.897503 119.890556 
L 190.105918 119.846222 
L 193.304478 120.033448 
L 196.463708 120.42842 
L 199.862144 121.07477 
L 203.44316 121.99816 
L 206.859634 123.112025 
L 210.343148 124.491213 
L 213.573507 126.007144 
L 216.746155 127.746046 
L 219.585292 129.550117 
L 222.247882 131.50837 
L 224.517333 133.449276 
L 226.401074 135.334772 
L 228.001645 137.249404 
L 229.204534 139.034545 
L 230.040144 140.6672 
L 230.543055 142.131374 
L 230.750584 143.417412 
L 230.701508 144.521295 
L 230.434925 145.443897 
L 229.989288 146.190241 
L 229.360953 146.799597 
L 228.567157 147.253342 
L 227.584139 147.549448 
L 226.443257 147.656034 
L 225.146751 147.549038 
L 223.778769 147.21233 
L 222.411162 146.644938 
L 221.222799 145.918025 
L 220.306505 145.104104 
L 219.778344 144.352349 
L 219.618479 143.77235 
L 219.724775 143.38521 
L 220.008826 143.172737 
L 220.45188 143.126669 
L 220.999893 143.295493 
L 221.392719 143.629022 
L 221.390502 143.841821 
L 221.201669 143.82663 
L 221.140934 143.747236 
L 221.180313 143.756 
" style="fill:none;stroke:#ff7f0e;stroke-linecap:square;stroke-width:0.5;"/>
   </g>
   <g id="line2d_24">
    <path clip-path="url(#pe73489a77a)" d="M 281.344181 276.812 
L 272.565532 272.347616 
L 264.089642 267.787487 
L 255.922423 263.147199 
L 248.0688 258.442124 
L 240.532653 253.686918 
L 233.316874 248.895614 
L 226.423443 244.081662 
L 219.853442 239.257904 
L 213.607105 234.43657 
L 207.683869 229.629295 
L 201.000585 223.894621 
L 194.777002 218.21398 
L 189.008082 212.604064 
L 183.687492 207.080351 
L 178.807714 201.657115 
L 174.360133 196.347453 
L 170.335117 191.163301 
L 166.722112 186.115456 
L 163.509739 181.213611 
L 160.685868 176.466381 
L 158.237746 171.881345 
L 156.152052 167.465076 
L 154.414969 163.223173 
L 153.012267 159.1603 
L 151.929371 155.280221 
L 151.151436 151.585844 
L 150.66342 148.07926 
L 150.450142 144.761782 
L 150.496354 141.633985 
L 150.78678 138.695748 
L 151.306183 135.946297 
L 152.039411 133.384241 
L 152.971427 131.007612 
L 154.087415 128.813915 
L 155.372718 126.800151 
L 156.813058 124.962886 
L 158.394332 123.298253 
L 160.102878 121.802024 
L 161.925285 120.469616 
L 164.17804 119.115661 
L 166.548156 117.969806 
L 169.016476 117.023399 
L 171.564674 116.267431 
L 174.552364 115.624723 
L 177.596981 115.20436 
L 180.67545 114.991835 
L 184.152447 114.982902 
L 187.616819 115.19747 
L 191.420099 115.672598 
L 195.144416 116.369538 
L 198.761874 117.260554 
L 202.588853 118.432704 
L 206.230006 119.772625 
L 209.964134 121.38719 
L 213.428026 123.122352 
L 216.856754 125.095182 
L 219.935929 127.122828 
L 222.659434 129.166523 
L 225.195099 131.346132 
L 227.32619 133.467597 
L 229.066647 135.499776 
L 230.435724 137.417227 
L 231.456939 139.199926 
L 232.157089 140.832923 
L 232.565335 142.305959 
L 232.712356 143.613033 
L 232.629595 144.751959 
L 232.348582 145.723907 
L 231.862734 146.584659 
L 231.221783 147.266523 
L 230.406502 147.808766 
L 229.434544 148.192613 
L 228.270893 148.412429 
L 226.950504 148.434859 
L 225.470632 148.230737 
L 223.924537 147.783575 
L 222.433362 147.114168 
L 221.128717 146.282152 
L 220.150655 145.403354 
L 219.544253 144.574537 
L 219.31048 143.909442 
L 219.360542 143.432678 
L 219.6093 143.13439 
L 220.01657 142.997645 
L 220.579513 143.050401 
L 221.161782 143.32425 
L 221.475468 143.688444 
L 221.415977 143.868206 
L 221.200444 143.837721 
L 221.133195 143.744964 
L 221.180312 143.756 
" style="fill:none;stroke:#ff7f0e;stroke-linecap:square;stroke-width:0.5;"/>
   </g>
   <g id="line2d_25">
    <path clip-path="url(#pe73489a77a)" d="M 240.599883 276.812 
L 231.871218 270.867477 
L 223.542133 264.902891 
L 215.613503 258.933833 
L 208.085135 252.975087 
L 200.955864 247.040675 
L 194.223603 241.143878 
L 187.885397 235.297237 
L 181.93748 229.512559 
L 176.375321 223.800926 
L 171.193668 218.172702 
L 166.386626 212.637548 
L 161.947628 207.204417 
L 157.869546 201.881579 
L 154.144677 196.676623 
L 150.764888 191.59649 
L 147.721585 186.647478 
L 145.005801 181.835261 
L 142.608186 177.164903 
L 140.519074 172.640871 
L 138.728511 168.267058 
L 137.226304 164.046805 
L 136.002039 159.982907 
L 135.045153 156.077654 
L 134.344924 152.332815 
L 133.890544 148.7497 
L 133.671133 145.329154 
L 133.675769 142.071593 
L 133.893519 138.977012 
L 134.31346 136.045007 
L 134.924705 133.2748 
L 135.716433 130.665251 
L 136.677911 128.214886 
L 137.798514 125.921916 
L 139.067751 123.784255 
L 140.475278 121.79954 
L 142.010919 119.965151 
L 144.008746 117.958273 
L 146.159795 116.15838 
L 148.44763 114.559705 
L 150.856294 113.156114 
L 153.370335 111.94115 
L 155.974835 110.908072 
L 159.108616 109.923368 
L 162.324165 109.165282 
L 165.600742 108.622079 
L 168.918722 108.281801 
L 172.737723 108.125852 
L 176.560903 108.200927 
L 180.364437 108.488801 
L 184.592772 109.044455 
L 188.740404 109.820985 
L 192.782171 110.79337 
L 197.121987 112.073871 
L 201.27757 113.533761 
L 205.22694 115.142088 
L 209.311788 117.047629 
L 213.106991 119.060401 
L 216.901409 121.338324 
L 220.32475 123.662493 
L 223.372577 125.996179 
L 226.046046 128.306678 
L 228.527029 130.750368 
L 230.589305 133.101979 
L 232.251281 135.335522 
L 233.535453 137.430043 
L 234.467556 139.369342 
L 235.075756 141.141653 
L 235.389915 142.739284 
L 235.440905 144.158246 
L 235.260001 145.397866 
L 234.878335 146.460387 
L 234.32642 147.350584 
L 233.575449 148.124518 
L 232.69625 148.717575 
L 231.64918 149.166849 
L 230.376725 149.464956 
L 228.981414 149.565425 
L 227.43196 149.457627 
L 225.792855 149.1254 
L 224.083331 148.548557 
L 222.483567 147.774904 
L 221.095267 146.86564 
L 220.004281 145.899276 
L 219.267427 144.961899 
L 218.913514 144.177152 
L 218.867437 143.574267 
L 219.046906 143.157543 
L 219.394789 142.903139 
L 219.911521 142.808867 
L 220.56872 142.923099 
L 221.202563 143.255438 
L 221.539994 143.656152 
L 221.502625 143.877669 
L 221.288788 143.894632 
L 221.119689 143.747489 
L 221.139375 143.731439 
L 221.190289 143.754859 
L 221.180312 143.756 
" style="fill:none;stroke:#ff7f0e;stroke-linecap:square;stroke-width:0.5;"/>
   </g>
   <g id="line2d_26">
    <path clip-path="url(#pe73489a77a)" d="M 201.760742 276.812 
L 194.776526 270.924004 
L 188.107499 265.067518 
L 180.211641 257.803019 
L 172.800747 250.614728 
L 165.869228 243.516482 
L 159.410635 236.521223 
L 153.417641 229.640975 
L 147.882147 222.886897 
L 142.795329 216.269297 
L 138.1477 209.79765 
L 133.929172 203.480616 
L 130.129103 197.326057 
L 126.736352 191.341055 
L 123.739357 185.531947 
L 121.1261 179.904308 
L 118.884233 174.463008 
L 117.00107 169.212207 
L 115.46372 164.155419 
L 114.259065 159.29551 
L 113.373842 154.634738 
L 112.794633 150.174753 
L 112.507929 145.916639 
L 112.500154 141.860927 
L 112.75772 138.007633 
L 113.267056 134.356278 
L 114.014645 130.905917 
L 114.987043 127.65516 
L 116.170917 124.602199 
L 117.553073 121.744831 
L 119.120468 119.080484 
L 120.860247 116.606239 
L 122.759758 114.318857 
L 124.806577 112.2148 
L 126.988534 110.290258 
L 129.293704 108.541166 
L 131.710475 106.963233 
L 134.227496 105.551956 
L 137.36477 104.071797 
L 140.612115 102.816452 
L 143.951789 101.777217 
L 147.366738 100.945132 
L 150.840661 100.31105 
L 154.947365 99.809097 
L 159.089749 99.548972 
L 163.245801 99.515554 
L 167.394934 99.693673 
L 172.103824 100.136842 
L 176.752373 100.814083 
L 181.31664 101.703234 
L 185.775053 102.782541 
L 190.640331 104.197614 
L 195.323271 105.797114 
L 199.803314 107.552783 
L 204.522346 109.653858 
L 208.950695 111.879244 
L 213.073917 114.195952 
L 216.881843 116.573264 
L 220.699102 119.224514 
L 224.124244 121.8804 
L 227.158907 124.510038 
L 229.809029 127.086061 
L 232.08433 129.584567 
L 234.154347 132.197772 
L 235.814448 134.672131 
L 237.088487 136.989808 
L 238.002852 139.137108 
L 238.585821 141.104195 
L 238.85433 142.743622 
L 238.892562 144.223866 
L 238.724064 145.544564 
L 238.372301 146.707219 
L 237.806694 147.799067 
L 237.079703 148.712653 
L 236.142575 149.510262 
L 235.082904 150.119577 
L 233.840994 150.58048 
L 232.434767 150.869703 
L 230.796065 150.97074 
L 229.063287 150.852767 
L 227.20123 150.500121 
L 225.293245 149.906617 
L 223.439898 149.091485 
L 221.749199 148.100049 
L 220.367581 147.039542 
L 219.304655 145.949366 
L 218.64528 144.974621 
L 218.330457 144.131812 
L 218.313565 143.497106 
L 218.508748 143.040947 
L 218.875622 142.737142 
L 219.411667 142.588634 
L 220.097873 142.633322 
L 220.849325 142.90556 
L 221.435487 143.340237 
L 221.650838 143.738334 
L 221.551027 143.924591 
L 221.297425 143.922321 
L 221.105434 143.744199 
L 221.109169 143.73717 
L 221.180424 143.739003 
L 221.180312 143.756 
" style="fill:none;stroke:#ff7f0e;stroke-linecap:square;stroke-width:0.5;"/>
   </g>
   <g id="line2d_27">
    <path clip-path="url(#pe73489a77a)" d="M 161.016444 276.812 
L 154.064453 269.733855 
L 147.490174 262.735647 
L 141.289264 255.825176 
L 135.45676 249.009892 
L 129.98738 242.296774 
L 124.875487 235.692371 
L 120.115081 229.202777 
L 115.699842 222.833661 
L 111.623148 216.590273 
L 107.878118 210.477474 
L 104.457616 204.499726 
L 101.354271 198.661104 
L 98.560519 192.965313 
L 96.06861 187.415688 
L 93.870611 182.015198 
L 91.958445 176.766466 
L 90.323906 171.671775 
L 88.958683 166.733082 
L 87.854351 161.95201 
L 87.002391 157.329865 
L 86.394245 152.867664 
L 86.021303 148.566132 
L 85.874938 144.425719 
L 85.946499 140.446602 
L 86.227334 136.628702 
L 86.708798 132.971682 
L 87.382267 129.474971 
L 88.239152 126.137762 
L 89.270917 122.959036 
L 90.469086 119.937562 
L 91.825252 117.071913 
L 93.331088 114.360469 
L 94.978373 111.80144 
L 96.758969 109.392859 
L 98.664844 107.132601 
L 100.688131 105.018405 
L 103.370483 102.577363 
L 106.209231 100.355763 
L 109.189859 98.348329 
L 112.298144 96.5495 
L 115.520319 94.953498 
L 118.842945 93.554313 
L 122.253037 92.345764 
L 125.738004 91.321494 
L 130.001725 90.326474 
L 134.335638 89.576031 
L 138.720515 89.058543 
L 143.138074 88.762251 
L 147.570983 88.675311 
L 152.002863 88.785833 
L 157.151578 89.148498 
L 162.255092 89.744959 
L 167.292332 90.5566 
L 172.243938 91.565026 
L 177.77552 92.935308 
L 183.148644 94.512655 
L 188.342458 96.271447 
L 193.338824 98.186923 
L 198.70448 100.499501 
L 203.782309 102.947887 
L 208.557774 105.501435 
L 213.019934 108.131331 
L 217.161213 110.810646 
L 221.380993 113.815292 
L 225.197304 116.818704 
L 228.61225 119.792433 
L 231.631555 122.711025 
L 234.26416 125.551979 
L 236.521835 128.295672 
L 238.418793 130.92527 
L 239.971322 133.426629 
L 241.197437 135.788166 
L 242.116543 138.000735 
L 242.749115 140.057474 
L 243.116408 141.953655 
L 243.240172 143.686528 
L 243.142405 145.255158 
L 242.845118 146.660258 
L 242.370131 147.904031 
L 241.667966 149.090093 
L 240.804441 150.091553 
L 239.806242 150.916178 
L 238.593562 151.624671 
L 237.169153 152.181885 
L 235.547369 152.557412 
L 233.754752 152.72762 
L 231.829808 152.677562 
L 229.821894 152.402552 
L 227.679939 151.876721 
L 225.596279 151.134974 
L 223.557401 150.168595 
L 221.746701 149.066713 
L 220.225545 147.892842 
L 219.03763 146.712992 
L 218.20546 145.590825 
L 217.739898 144.616971 
L 217.58457 143.815114 
L 217.677648 143.193339 
L 217.956738 142.747224 
L 218.415278 142.439699 
L 219.03692 142.298147 
L 219.813673 142.354618 
L 220.651055 142.638202 
L 221.364745 143.107092 
L 221.7314 143.588584 
L 221.729573 143.891003 
L 221.528995 143.993736 
L 221.206089 143.904313 
L 221.090541 143.734332 
L 221.12255 143.717311 
L 221.195865 143.755225 
L 221.180313 143.756 
" style="fill:none;stroke:#ff7f0e;stroke-linecap:square;stroke-width:0.5;"/>
   </g>
   <g id="line2d_28">
    <path clip-path="url(#pe73489a77a)" d="M 113.744325 276.812 
L 106.829633 268.353052 
L 100.365207 260.030354 
L 94.343807 251.851529 
L 88.757412 243.823854 
L 83.597721 235.954017 
L 78.856096 228.248163 
L 74.52359 220.711954 
L 70.590972 213.350583 
L 67.04873 206.168743 
L 63.887101 199.170644 
L 61.096114 192.360046 
L 58.665609 185.740271 
L 56.585261 179.314219 
L 54.844604 173.084372 
L 53.433051 167.05281 
L 52.339925 161.221224 
L 51.554436 155.590908 
L 51.065757 150.162802 
L 50.863001 144.937478 
L 50.935282 139.915186 
L 51.271706 135.095841 
L 51.861395 130.479047 
L 52.693494 126.064104 
L 53.757192 121.85002 
L 55.041743 117.83553 
L 56.536466 114.0191 
L 58.230778 110.39895 
L 60.114194 106.973061 
L 62.176342 103.739183 
L 64.406981 100.694863 
L 66.796008 97.837438 
L 69.333462 95.164063 
L 72.009551 92.671714 
L 74.814639 90.357202 
L 77.739269 88.217183 
L 80.77417 86.248172 
L 83.910256 84.446551 
L 87.138646 82.808583 
L 91.290723 80.985386 
L 95.556977 79.404145 
L 99.921433 78.05691 
L 104.368666 76.935558 
L 108.883792 76.031802 
L 113.452495 75.337237 
L 118.061022 74.843351 
L 122.696197 74.541563 
L 128.27588 74.420829 
L 133.855149 74.549317 
L 139.414543 74.912069 
L 144.935797 75.494172 
L 150.401846 76.280819 
L 155.796814 77.257353 
L 161.981549 78.617344 
L 168.028196 80.193529 
L 173.91749 81.963837 
L 179.63221 83.90677 
L 185.157123 86.001465 
L 191.221913 88.555393 
L 197.004588 91.252308 
L 202.491289 94.064636 
L 207.671042 96.966216 
L 212.535606 99.932348 
L 217.079307 102.939835 
L 221.803469 106.345774 
L 226.116207 109.748164 
L 230.019544 113.120967 
L 233.518499 116.440619 
L 236.620792 119.685996 
L 239.33655 122.838371 
L 241.67802 125.88135 
L 243.659294 128.800793 
L 245.296035 131.584732 
L 246.605225 134.223278 
L 247.604921 136.70852 
L 248.314023 139.034415 
L 248.752053 141.196674 
L 248.938951 143.192642 
L 248.894884 145.021181 
L 248.640073 146.682547 
L 248.194629 148.178268 
L 247.578406 149.51102 
L 246.810874 150.684515 
L 245.803645 151.807265 
L 244.65814 152.746618 
L 243.267045 153.578278 
L 241.768034 154.210875 
L 240.04299 154.689828 
L 238.106819 154.980945 
L 235.987139 155.056817 
L 233.724349 154.898937 
L 231.370758 154.499548 
L 228.988677 153.863001 
L 226.647488 153.006441 
L 224.419809 151.959658 
L 222.376965 150.763987 
L 220.584087 149.470225 
L 219.095264 148.135648 
L 217.949189 146.820275 
L 217.190615 145.630993 
L 216.775615 144.59785 
L 216.653122 143.737374 
L 216.768798 143.054573 
L 217.068267 142.545066 
L 217.541825 142.174088 
L 218.1829 141.958112 
L 218.994195 141.925043 
L 219.934632 142.116955 
L 220.845795 142.526796 
L 221.550615 143.073173 
L 221.888627 143.586143 
L 221.878886 143.914388 
L 221.67198 144.048567 
L 221.324049 144.001217 
L 221.061392 143.770422 
L 221.100307 143.708273 
L 221.164691 143.719633 
L 221.199071 143.759863 
L 221.180313 143.756 
" style="fill:none;stroke:#ff7f0e;stroke-linecap:square;stroke-width:0.5;"/>
   </g>
   <g id="line2d_29">
    <path clip-path="url(#pe73489a77a)" d="M 52.039296 276.812 
L 50.271268 274.227471 
L 48.537603 271.655624 
L 46.838343 269.096648 
L 45.173331 266.550663 
L 43.542383 264.017801 
L 41.945353 261.498163 
" style="fill:none;stroke:#ff7f0e;stroke-linecap:square;stroke-width:0.5;"/>
   </g>
   <g id="line2d_30">
    <path clip-path="url(#pe73489a77a)" d="M 42.620313 233.970206 
L 41.424784 231.744257 
" style="fill:none;stroke:#ff7f0e;stroke-linecap:square;stroke-width:0.5;"/>
   </g>
   <g id="line2d_31">
    <path clip-path="url(#pe73489a77a)" d="M 42.620313 196.770356 
L 41.921496 194.916408 
" style="fill:none;stroke:#ff7f0e;stroke-linecap:square;stroke-width:0.5;"/>
   </g>
   <g id="line2d_32">
    <path clip-path="url(#pe73489a77a)" d="M 42.620313 165.569424 
L 42.338007 164.02743 
" style="fill:none;stroke:#ff7f0e;stroke-linecap:square;stroke-width:0.5;"/>
   </g>
   <g id="line2d_33">
    <path clip-path="url(#pe73489a77a)" d="M 42.620313 136.541913 
L 43.140597 131.614588 
L 43.919499 126.899466 
L 44.945977 122.395656 
L 46.208767 118.101952 
L 47.696449 114.016836 
L 49.397864 110.138522 
L 51.301959 106.465001 
L 53.397795 102.994016 
L 55.674566 99.723065 
L 58.121612 96.649425 
L 60.728421 93.770176 
L 63.484641 91.082215 
L 66.380092 88.582256 
L 69.404777 86.266852 
L 72.548878 84.132393 
L 75.802779 82.175128 
L 79.157075 80.391184 
L 82.602574 78.776568 
L 86.130298 77.327178 
L 90.642257 75.741359 
L 95.252435 74.398739 
L 99.944771 73.290672 
L 104.703834 72.408455 
L 109.514742 71.743172 
L 114.36325 71.28589 
L 119.235706 71.027572 
L 124.119061 70.959151 
L 129.976025 71.114928 
L 135.810496 71.515377 
L 141.603404 72.144857 
L 147.336931 72.987827 
L 152.994505 74.028908 
L 158.560777 75.252912 
L 164.920566 76.892202 
L 171.116542 78.736968 
L 177.130457 80.764581 
L 182.946198 82.953112 
L 188.549637 85.28132 
L 194.678095 88.086953 
L 200.498287 91.019096 
L 205.998138 94.049996 
L 211.168469 97.153429 
L 216.002838 100.304744 
L 220.49736 103.480895 
L 224.65053 106.660442 
L 228.91579 110.21689 
L 232.754063 113.726864 
L 236.172388 117.167194 
L 239.180451 120.517243 
L 241.790278 123.75885 
L 244.015943 126.876254 
L 245.873279 129.856013 
L 247.37961 132.68691 
L 248.553485 135.35984 
L 249.414432 137.867711 
L 249.98272 140.205314 
L 250.279141 142.369209 
L 250.324796 144.357597 
L 250.140914 146.170191 
L 249.748677 147.808089 
L 249.169052 149.27365 
L 248.422657 150.57036 
L 247.52962 151.702716 
L 246.389107 152.774696 
L 245.117434 153.658912 
L 243.596394 154.425998 
L 241.977204 154.991045 
L 240.132609 155.394181 
L 238.080813 155.602103 
L 235.852832 155.588766 
L 233.492416 155.337497 
L 231.054989 154.842785 
L 228.605549 154.11155 
L 226.215546 153.16371 
L 223.958869 152.031858 
L 221.907183 150.759993 
L 220.124947 149.401242 
L 218.664557 148.014703 
L 217.562057 146.66155 
L 216.856317 145.449721 
L 216.499024 144.407191 
L 216.435395 143.548226 
L 216.608088 142.875525 
L 216.960415 142.382467 
L 217.484828 142.034148 
L 218.173196 141.846641 
L 219.02625 141.847748 
L 219.997757 142.077502 
L 220.922164 142.522281 
L 221.619958 143.093918 
L 221.933794 143.610022 
L 221.908064 143.93162 
L 221.690371 144.064301 
L 221.329522 144.01275 
L 221.056514 143.776111 
L 221.093299 143.706514 
L 221.156121 143.714198 
L 221.200239 143.759562 
L 221.180312 143.756 
" style="fill:none;stroke:#ff7f0e;stroke-linecap:square;stroke-width:0.5;"/>
   </g>
   <g id="line2d_34">
    <path clip-path="url(#pe73489a77a)" d="M 42.620313 106.813183 
L 44.704637 103.074742 
L 46.9839 99.546598 
L 49.447098 96.226148 
L 52.083066 93.110415 
L 54.881001 90.196195 
L 57.829953 87.480286 
L 60.919366 84.959174 
L 64.138927 82.629144 
L 67.478528 80.486336 
L 70.92823 78.526763 
L 74.478307 76.746315 
L 78.119247 75.140763 
L 81.841786 73.705776 
L 86.595937 72.145125 
L 91.446335 70.835183 
L 96.376464 69.766913 
L 101.370418 68.931132 
L 106.412913 68.318537 
L 111.489291 67.919736 
L 116.585521 67.725275 
L 121.688208 67.725663 
L 127.802041 67.969949 
L 133.886003 68.464758 
L 139.920581 69.19375 
L 145.887567 70.14078 
L 151.770059 71.289779 
L 157.552426 72.624994 
L 164.152886 74.397387 
L 170.576885 76.37803 
L 176.805964 78.543481 
L 182.823839 80.871025 
L 188.616318 83.338701 
L 194.171233 85.925358 
L 200.215793 89.00125 
L 205.924502 92.177253 
L 211.28809 95.426144 
L 216.30012 98.722349 
L 220.95681 102.041971 
L 225.256854 105.362806 
L 229.201235 108.664345 
L 233.217466 112.332148 
L 236.794844 115.927516 
L 239.943452 119.428854 
L 242.675824 122.817156 
L 245.006631 126.075921 
L 246.952391 129.191071 
L 248.53118 132.15085 
L 249.762362 134.94572 
L 250.666327 137.568239 
L 251.26424 140.012942 
L 251.577813 142.276208 
L 251.629092 144.356134 
L 251.440253 146.252398 
L 251.033427 147.966128 
L 250.430524 149.499769 
L 249.653088 150.856948 
L 248.722159 152.042349 
L 247.658154 153.061581 
L 246.34377 154.006993 
L 244.915205 154.764968 
L 243.241039 155.394959 
L 241.488742 155.826099 
L 239.521106 156.0882 
L 237.361034 156.150752 
L 235.043901 155.991004 
L 232.61722 155.595967 
L 230.139329 154.964052 
L 227.67705 154.106139 
L 225.302376 153.045906 
L 223.088331 151.819267 
L 221.104268 150.472843 
L 219.410957 149.061478 
L 218.055902 147.644898 
L 217.103639 146.339788 
L 216.51583 145.180608 
L 216.245939 144.188699 
L 216.242862 143.373949 
L 216.454042 142.736628 
L 216.848093 142.251873 
L 217.414088 141.917561 
L 218.142685 141.749595 
L 219.033164 141.775918 
L 220.011983 142.026737 
L 220.959682 142.498431 
L 221.656745 143.083601 
L 221.969231 143.609912 
L 221.940921 143.938979 
L 221.722355 144.0764 
L 221.358632 144.033322 
L 221.057664 143.797178 
L 221.079212 143.707533 
L 221.140652 143.707181 
L 221.201445 143.758841 
L 221.180312 143.756 
" style="fill:none;stroke:#ff7f0e;stroke-linecap:square;stroke-width:0.5;"/>
   </g>
   <g id="line2d_35">
    <path clip-path="url(#pe73489a77a)" d="M 42.620313 73.214173 
L 46.472044 70.819301 
L 50.446495 68.63253 
L 54.533092 66.649404 
L 58.720946 64.865016 
L 62.99939 63.27431 
L 67.358125 61.872184 
L 71.787179 60.653443 
L 76.276846 59.612814 
L 81.959944 58.554323 
L 87.705339 57.755186 
L 93.495869 57.204722 
L 99.315213 56.892138 
L 105.147833 56.806581 
L 110.978893 56.93718 
L 116.794251 57.273071 
L 122.580489 57.803428 
L 129.467722 58.681389 
L 136.274227 59.80541 
L 142.980925 61.157221 
L 149.570204 62.718828 
L 156.025889 64.472558 
L 162.333211 66.401098 
L 168.478776 68.487536 
L 175.428163 71.09931 
L 182.124155 73.878213 
L 188.552208 76.799799 
L 194.700027 79.840601 
L 200.557478 82.978175 
L 206.116483 86.191137 
L 211.37092 89.45919 
L 216.997678 93.237008 
L 222.217552 97.034931 
L 227.029725 100.828071 
L 231.43596 104.593475 
L 235.440381 108.310129 
L 239.049254 111.958932 
L 242.270808 115.522668 
L 245.115034 118.985973 
L 247.593461 122.33528 
L 249.71897 125.558762 
L 251.50562 128.646277 
L 252.968481 131.589297 
L 254.123456 134.38084 
L 254.987122 137.015387 
L 255.576567 139.48882 
L 255.909248 141.79832 
L 256.002855 143.942297 
L 255.875192 145.920294 
L 255.54406 147.73291 
L 255.02714 149.381717 
L 254.341892 150.869175 
L 253.505471 152.198544 
L 252.404656 153.510103 
L 251.15688 154.633271 
L 249.784449 155.575569 
L 248.139264 156.420519 
L 246.394304 157.064643 
L 244.390691 157.556743 
L 242.330102 157.83961 
L 240.051825 157.931376 
L 237.586773 157.803041 
L 234.978794 157.434604 
L 232.283968 156.817074 
L 229.568852 155.954019 
L 226.907651 154.862447 
L 224.378401 153.572844 
L 222.171221 152.205378 
L 220.204134 150.736203 
L 218.535633 149.218025 
L 217.26514 147.777686 
L 216.330641 146.390456 
L 215.765351 145.161581 
L 215.521737 144.109769 
L 215.548526 143.243166 
L 215.793436 142.561035 
L 216.205446 142.055469 
L 216.791743 141.688351 
L 217.555414 141.479967 
L 218.482137 141.463653 
L 219.518304 141.669297 
L 220.554851 142.098302 
L 221.431488 142.696127 
L 221.96062 143.308477 
L 222.105456 143.777725 
L 221.982942 144.040422 
L 221.69466 144.13274 
L 221.281414 144.025795 
L 221.029738 143.763617 
L 221.089251 143.694918 
L 221.135749 143.700418 
L 221.20447 143.759254 
L 221.180313 143.756 
" style="fill:none;stroke:#ff7f0e;stroke-linecap:square;stroke-width:0.5;"/>
   </g>
   <g id="line2d_36">
    <path clip-path="url(#pe73489a77a)" d="M 42.620313 30.737215 
L 48.706666 30.04105 
L 54.824644 29.550228 
L 60.963833 29.257886 
L 67.113647 29.156616 
L 73.263966 29.239037 
L 80.937838 29.5892 
L 88.579369 30.200629 
L 96.171566 31.0591 
L 103.6983 32.150475 
L 111.144338 33.460725 
L 118.495435 34.975976 
L 125.73831 36.682533 
L 132.860612 38.566906 
L 139.850883 40.615833 
L 148.050067 43.273437 
L 156.02722 46.127266 
L 163.767402 49.155925 
L 171.257361 52.338661 
L 178.485512 55.655377 
L 185.441843 59.086692 
L 192.117907 62.613931 
L 198.506716 66.219183 
L 204.60268 69.885313 
L 211.338935 74.217641 
L 217.666334 78.586027 
L 223.582585 82.967374 
L 229.087495 87.340081 
L 234.182834 91.684044 
L 238.87219 95.980654 
L 243.160826 100.212787 
L 247.055546 104.364778 
L 250.564554 108.42241 
L 253.69733 112.372868 
L 256.46449 116.20471 
L 258.877663 119.907828 
L 260.949364 123.473407 
L 262.692879 126.893879 
L 264.122146 130.162871 
L 265.251651 133.275162 
L 266.096314 136.226623 
L 266.671398 139.014165 
L 266.992408 141.635685 
L 267.075003 144.090004 
L 266.93491 146.376818 
L 266.587845 148.496632 
L 266.049443 150.450708 
L 265.335188 152.241006 
L 264.460346 153.870131 
L 263.439913 155.341272 
L 262.11423 156.833924 
L 260.638832 158.13142 
L 259.034302 159.240789 
L 257.32043 160.169675 
L 255.285176 161.009122 
L 253.161089 161.642763 
L 250.726051 162.121025 
L 248.241807 162.379154 
L 245.486011 162.43092 
L 242.739054 162.263528 
L 239.788224 161.860038 
L 236.684405 161.198493 
L 233.713599 160.34156 
L 230.698207 159.243031 
L 227.712352 157.912577 
L 225.006178 156.472214 
L 222.447392 154.865684 
L 220.110509 153.13265 
L 218.167325 151.421946 
L 216.527664 149.681342 
L 215.295689 148.052246 
L 214.440672 146.564464 
L 213.925803 145.238713 
L 213.710273 144.087506 
L 213.751147 143.116134 
L 214.004979 142.323696 
L 214.429182 141.704152 
L 215.016953 141.226479 
L 215.781638 140.890423 
L 216.737406 140.721791 
L 217.836665 140.757839 
L 219.03621 141.019968 
L 220.244855 141.512889 
L 221.297259 142.181462 
L 222.027379 142.89929 
L 222.363822 143.516961 
L 222.369305 143.94437 
L 222.166989 144.178907 
L 221.803197 144.251574 
L 221.321915 144.11603 
L 220.995258 143.817445 
L 221.028271 143.682849 
L 221.057339 143.675773 
L 221.212631 143.753975 
L 221.180313 143.756 
" style="fill:none;stroke:#ff7f0e;stroke-linecap:square;stroke-width:0.5;"/>
   </g>
   <g id="line2d_37">
    <path clip-path="url(#pe73489a77a)" d="M 85.442529 10.7 
L 94.314011 12.419182 
L 103.062037 14.374351 
L 111.671669 16.549869 
L 120.128445 18.929469 
L 128.419153 21.497345 
L 136.531649 24.238046 
L 144.454846 27.136465 
L 152.178672 30.17785 
L 159.69403 33.347815 
L 166.992768 36.632358 
L 175.455199 40.705937 
L 183.584537 44.902249 
L 191.371782 49.19949 
L 198.809654 53.576771 
L 205.892519 58.01414 
L 212.616308 62.492599 
L 218.978452 66.994111 
L 224.977794 71.50161 
L 230.614499 75.999003 
L 235.889991 80.47117 
L 240.806879 84.903958 
L 245.368873 89.284175 
L 249.580706 93.599582 
L 253.448059 97.838879 
L 256.977484 101.991687 
L 260.176331 106.048542 
L 263.501319 110.648859 
L 266.401316 115.094782 
L 268.891335 119.375719 
L 270.987312 123.482569 
L 272.705977 127.407673 
L 274.064708 131.144752 
L 274.956418 134.194511 
L 275.608358 137.100065 
L 276.03221 139.859666 
L 276.239776 142.472171 
L 276.242929 144.937021 
L 276.053559 147.254204 
L 275.68354 149.424224 
L 275.144686 151.448072 
L 274.318254 153.626432 
L 273.296325 155.61083 
L 272.096951 157.404991 
L 270.737801 159.013291 
L 269.236105 160.440685 
L 267.608607 161.692653 
L 265.871508 162.775131 
L 263.772067 163.812856 
L 261.572209 164.647499 
L 259.293178 165.289544 
L 256.65961 165.795164 
L 253.978066 166.086662 
L 250.972507 166.179094 
L 247.969691 166.049523 
L 244.703436 165.677263 
L 241.508151 165.092853 
L 238.137505 164.247166 
L 234.918183 163.219386 
L 231.631978 161.940464 
L 228.356631 160.416812 
L 225.378139 158.787986 
L 222.533888 156.975414 
L 220.057586 155.13963 
L 217.822053 153.202541 
L 215.996335 151.328862 
L 214.562935 149.553449 
L 213.497686 147.903682 
L 212.7713 146.399931 
L 212.350822 145.056104 
L 212.200948 143.880278 
L 212.285205 142.875371 
L 212.566987 142.039834 
L 213.042726 141.331651 
L 213.699709 140.772273 
L 214.514915 140.377146 
L 215.50421 140.147867 
L 216.677923 140.112151 
L 217.970402 140.300574 
L 219.325146 140.728501 
L 220.601113 141.368404 
L 221.626475 142.122726 
L 222.310859 142.884245 
L 222.617612 143.534245 
L 222.60754 143.981567 
L 222.39177 144.247618 
L 222.016336 144.351423 
L 221.501186 144.256901 
L 221.043931 143.95887 
L 220.959444 143.697147 
L 221.118185 143.670756 
L 221.21829 143.761879 
L 221.180313 143.756 
" style="fill:none;stroke:#ff7f0e;stroke-linecap:square;stroke-width:0.5;"/>
   </g>
   <g id="line2d_38">
    <path clip-path="url(#pe73489a77a)" d="M 138.56966 10.7 
L 147.37589 14.34907 
L 155.932753 18.135683 
L 164.231426 22.043925 
L 172.264235 26.058308 
L 180.024527 30.163854 
L 187.50667 34.346109 
L 194.706013 38.591149 
L 201.618772 42.885548 
L 209.531753 48.085854 
L 217.024599 53.317499 
L 224.095601 58.560379 
L 230.744638 63.795535 
L 236.973053 69.005127 
L 242.783579 74.17244 
L 248.180259 79.281892 
L 253.168334 84.319002 
L 257.754172 89.270385 
L 261.9452 94.123744 
L 265.749789 98.867841 
L 269.177144 103.492466 
L 272.23725 107.988418 
L 274.940799 112.347484 
L 277.299109 116.562407 
L 279.324041 120.62685 
L 281.027954 124.535392 
L 282.423587 128.283453 
L 283.52403 131.8673 
L 284.342622 135.283973 
L 284.892921 138.531273 
L 285.188616 141.607713 
L 285.243504 144.5125 
L 285.071414 147.245482 
L 284.686167 149.807118 
L 284.101526 152.19844 
L 283.331144 154.421014 
L 282.388528 156.4769 
L 281.287003 158.368627 
L 280.039667 160.099144 
L 278.659371 161.671797 
L 276.897722 163.311988 
L 274.991598 164.748783 
L 272.959787 165.989137 
L 270.820397 167.040462 
L 268.59082 167.910564 
L 265.953615 168.693511 
L 263.243929 169.26296 
L 260.483991 169.631828 
L 257.344873 169.823429 
L 254.195987 169.796752 
L 250.71636 169.534206 
L 247.287024 169.051538 
L 243.605944 168.296822 
L 240.051607 167.33981 
L 236.350867 166.102679 
L 232.862994 164.702571 
L 229.351445 163.045197 
L 226.138658 161.284606 
L 223.029244 159.319459 
L 220.292284 157.326852 
L 217.9291 155.346758 
L 215.805318 153.278227 
L 214.089456 151.299243 
L 212.760475 149.438603 
L 211.792203 147.718626 
L 211.154588 146.155588 
L 210.814871 144.760226 
L 210.73864 143.538282 
L 210.890787 142.491084 
L 211.23632 141.616133 
L 211.779589 140.866175 
L 212.464459 140.29532 
L 213.358111 139.850917 
L 214.391761 139.586059 
L 215.64024 139.505507 
L 216.992521 139.643983 
L 218.421424 140.012175 
L 219.815969 140.594844 
L 221.085301 141.36325 
L 222.061622 142.208827 
L 222.656949 143.005172 
L 222.876382 143.637719 
L 222.814023 144.080701 
L 222.560758 144.344697 
L 222.146424 144.448758 
L 221.595717 144.354417 
L 221.079806 144.051169 
L 220.904081 143.735753 
L 221.030749 143.642983 
L 221.22558 143.756188 
L 221.225575 143.756521 
L 221.204143 143.774415 
L 221.173055 143.755063 
L 221.173055 143.755063 
L 221.178073 143.753264 
L 221.180313 143.756 
" style="fill:none;stroke:#ff7f0e;stroke-linecap:square;stroke-width:0.5;"/>
   </g>
   <g id="line2d_39">
    <path clip-path="url(#pe73489a77a)" d="M 181.876284 10.7 
L 190.629328 15.922172 
L 199.030071 21.201341 
L 207.075155 26.521938 
L 214.762269 31.868864 
L 222.090095 37.227779 
L 229.058319 42.585054 
L 235.667491 47.927709 
L 241.919001 53.243425 
L 247.815052 58.52056 
L 253.358614 63.748132 
L 258.553363 68.915815 
L 263.403647 74.01393 
L 267.914437 79.03344 
L 272.091292 83.96594 
L 275.940299 88.803642 
L 279.468069 93.539377 
L 282.681656 98.166568 
L 285.58857 102.679233 
L 288.1967 107.071961 
L 290.514253 111.339891 
L 292.549766 115.478709 
L 294.312019 119.484619 
L 295.810031 123.354335 
L 297.053033 127.085062 
L 298.050428 130.674483 
L 298.811765 134.120737 
L 299.346702 137.422405 
L 299.66498 140.578492 
L 299.77639 143.588402 
L 299.690752 146.451928 
L 299.417879 149.169225 
L 298.967572 151.7408 
L 298.349576 154.16749 
L 297.57358 156.450446 
L 296.649181 158.591111 
L 295.357365 160.974527 
L 293.881673 163.158999 
L 292.237967 165.148481 
L 290.441773 166.947379 
L 288.508246 168.560509 
L 286.452137 169.993053 
L 284.287765 171.250524 
L 281.644306 172.504057 
L 278.893535 173.536852 
L 276.055722 174.358945 
L 273.150174 174.980692 
L 269.770067 175.45955 
L 266.351133 175.706697 
L 262.917375 175.738428 
L 259.064312 175.537015 
L 255.249618 175.106921 
L 251.49952 174.471159 
L 247.43696 173.551038 
L 243.511346 172.435178 
L 239.380223 171.016511 
L 235.471092 169.433578 
L 231.805576 167.721608 
L 228.104031 165.745599 
L 224.727215 163.695005 
L 221.445802 161.43129 
L 218.560204 159.163815 
L 216.067838 156.928922 
L 213.960209 154.758007 
L 212.105088 152.522005 
L 210.658035 150.418049 
L 209.592165 148.467309 
L 208.877141 146.685389 
L 208.480185 145.08277 
L 208.366992 143.665293 
L 208.485373 142.516382 
L 208.820603 141.45757 
L 209.337726 140.579052 
L 210.003537 139.873316 
L 210.846062 139.297865 
L 211.852116 138.874498 
L 213.067498 138.609766 
L 214.462515 138.543941 
L 215.983373 138.701239 
L 217.554659 139.085037 
L 219.140257 139.700357 
L 220.612517 140.512037 
L 221.810469 141.419898 
L 222.664483 142.332921 
L 223.136676 143.141701 
L 223.269268 143.774489 
L 223.148983 144.218515 
L 222.852997 144.489289 
L 222.386879 144.605006 
L 221.779194 144.519953 
L 221.171922 144.214288 
L 220.853841 143.835537 
L 220.904802 143.637953 
L 221.12094 143.645854 
L 221.23391 143.765876 
L 221.180312 143.756 
" style="fill:none;stroke:#ff7f0e;stroke-linecap:square;stroke-width:0.5;"/>
   </g>
   <g id="line2d_40">
    <path clip-path="url(#pe73489a77a)" d="M 221.180312 10.7 
L 229.885174 17.349805 
L 238.144315 23.983418 
L 245.959337 30.585533 
L 253.332815 37.141732 
L 260.268271 43.638267 
L 266.770198 50.062067 
L 272.843887 56.401019 
L 278.495371 62.643763 
L 283.731477 68.779781 
L 288.55971 74.799333 
L 292.988195 80.693429 
L 297.025626 86.453815 
L 300.681229 92.072966 
L 303.964715 97.544067 
L 306.886233 102.861002 
L 309.456299 108.018321 
L 311.685777 113.01123 
L 313.585882 117.835593 
L 315.168051 122.487872 
L 316.443937 126.965119 
L 317.425357 131.264952 
L 318.124263 135.385532 
L 318.552726 139.325555 
L 318.722887 143.084218 
L 318.646935 146.661206 
L 318.337063 150.05666 
L 317.805439 153.271156 
L 317.064168 156.305681 
L 316.125285 159.161616 
L 315.000713 161.840704 
L 313.702248 164.345041 
L 312.241539 166.677043 
L 310.630063 168.83943 
L 308.879101 170.835202 
L 306.999728 172.66762 
L 305.002797 174.340186 
L 302.46619 176.141507 
L 299.793392 177.724809 
L 297.001627 179.097251 
L 294.10761 180.266327 
L 291.12737 181.239785 
L 288.076358 182.025625 
L 284.447058 182.716223 
L 280.763844 183.175836 
L 277.047767 183.417896 
L 273.318648 183.455977 
L 269.064512 183.267176 
L 264.843087 182.850002 
L 260.677809 182.224579 
L 256.085399 181.296758 
L 251.618048 180.158191 
L 247.299581 178.835837 
L 242.700861 177.182647 
L 238.335138 175.368946 
L 234.221752 173.427255 
L 230.006376 171.18008 
L 226.129065 168.85307 
L 222.598986 166.481174 
L 219.420374 164.096207 
L 216.353276 161.513122 
L 213.698428 158.981466 
L 211.445193 156.529734 
L 209.578694 154.182115 
L 208.080495 151.958659 
L 206.929252 149.875461 
L 206.101334 147.94489 
L 205.571404 146.175851 
L 205.31295 144.574052 
L 205.298777 143.142295 
L 205.501452 141.880757 
L 205.893706 140.787288 
L 206.448788 139.857702 
L 207.203817 139.02867 
L 208.087986 138.37551 
L 209.15053 137.856029 
L 210.37784 137.493868 
L 211.832575 137.30113 
L 213.394191 137.315753 
L 215.095793 137.550919 
L 216.863494 138.017451 
L 218.605377 138.70247 
L 220.220155 139.568171 
L 221.608955 140.554049 
L 222.688685 141.582853 
L 223.388651 142.541405 
L 223.721014 143.344017 
L 223.756519 143.96646 
L 223.57138 144.405738 
L 223.214769 144.686675 
L 222.6868 144.809317 
L 222.009157 144.729066 
L 221.316517 144.426051 
L 220.845997 143.995875 
L 220.772413 143.680528 
L 220.937562 143.584147 
L 221.207891 143.685228 
L 221.242026 143.77539 
L 221.180313 143.756 
" style="fill:none;stroke:#ff7f0e;stroke-linecap:square;stroke-width:0.5;"/>
   </g>
   <g id="line2d_41">
    <path clip-path="url(#pe73489a77a)" d="M 221.180313 143.756 
" style="fill:none;stroke:#ff7f0e;stroke-linecap:square;stroke-width:1.5;"/>
   </g>
   <g id="patch_56">
    <path d="M 42.620313 276.812 
L 42.620313 10.7 
" style="fill:none;stroke:#000000;stroke-linecap:square;stroke-linejoin:miter;stroke-width:0.8;"/>
   </g>
   <g id="patch_57">
    <path d="M 399.740313 276.812 
L 399.740313 10.7 
" style="fill:none;stroke:#000000;stroke-linecap:square;stroke-linejoin:miter;stroke-width:0.8;"/>
   </g>
   <g id="patch_58">
    <path d="M 42.620313 276.812 
L 399.740313 276.812 
" style="fill:none;stroke:#000000;stroke-linecap:square;stroke-linejoin:miter;stroke-width:0.8;"/>
   </g>
   <g id="patch_59">
    <path d="M 42.620313 10.7 
L 399.740313 10.7 
" style="fill:none;stroke:#000000;stroke-linecap:square;stroke-linejoin:miter;stroke-width:0.8;"/>
   </g>
   <g id="legend_1">
    <g id="patch_60">
     <path d="M 306.312813 273.812 
L 395.540313 273.812 
Q 396.740313 273.812 396.740313 272.612 
L 396.740313 264.405125 
Q 396.740313 263.205125 395.540313 263.205125 
L 306.312813 263.205125 
Q 305.112813 263.205125 305.112813 264.405125 
L 305.112813 272.612 
Q 305.112813 273.812 306.312813 273.812 
z
" style="fill:#ffffff;opacity:0.8;stroke:#cccccc;stroke-linejoin:miter;"/>
    </g>
    <g id="line2d_42">
     <path d="M 307.512812 268.064187 
L 319.512812 268.064187 
" style="fill:none;stroke:#ff7f0e;stroke-linecap:square;stroke-width:1.5;"/>
    </g>
    <g id="line2d_43"/>
    <g id="text_13">
     <!-- system zlinearyzowany -->
     <defs>
      <path d="M 44.28125 53.078125 
L 44.28125 44.578125 
Q 40.484375 46.53125 36.375 47.5 
Q 32.28125 48.484375 27.875 48.484375 
Q 21.1875 48.484375 17.84375 46.4375 
Q 14.5 44.390625 14.5 40.28125 
Q 14.5 37.15625 16.890625 35.375 
Q 19.28125 33.59375 26.515625 31.984375 
L 29.59375 31.296875 
Q 39.15625 29.25 43.1875 25.515625 
Q 47.21875 21.78125 47.21875 15.09375 
Q 47.21875 7.46875 41.1875 3.015625 
Q 35.15625 -1.421875 24.609375 -1.421875 
Q 20.21875 -1.421875 15.453125 -0.5625 
Q 10.6875 0.296875 5.421875 2 
L 5.421875 11.28125 
Q 10.40625 8.6875 15.234375 7.390625 
Q 20.0625 6.109375 24.8125 6.109375 
Q 31.15625 6.109375 34.5625 8.28125 
Q 37.984375 10.453125 37.984375 14.40625 
Q 37.984375 18.0625 35.515625 20.015625 
Q 33.0625 21.96875 24.703125 23.78125 
L 21.578125 24.515625 
Q 13.234375 26.265625 9.515625 29.90625 
Q 5.8125 33.546875 5.8125 39.890625 
Q 5.8125 47.609375 11.28125 51.796875 
Q 16.75 56 26.8125 56 
Q 31.78125 56 36.171875 55.265625 
Q 40.578125 54.546875 44.28125 53.078125 
" id="DejaVuSans-73"/>
      <path d="M 32.171875 -5.078125 
Q 28.375 -14.84375 24.75 -17.8125 
Q 21.140625 -20.796875 15.09375 -20.796875 
L 7.90625 -20.796875 
L 7.90625 -13.28125 
L 13.1875 -13.28125 
Q 16.890625 -13.28125 18.9375 -11.515625 
Q 21 -9.765625 23.484375 -3.21875 
L 25.09375 0.875 
L 2.984375 54.6875 
L 12.5 54.6875 
L 29.59375 11.921875 
L 46.6875 54.6875 
L 56.203125 54.6875 
z
" id="DejaVuSans-79"/>
      <path d="M 18.3125 70.21875 
L 18.3125 54.6875 
L 36.8125 54.6875 
L 36.8125 47.703125 
L 18.3125 47.703125 
L 18.3125 18.015625 
Q 18.3125 11.328125 20.140625 9.421875 
Q 21.96875 7.515625 27.59375 7.515625 
L 36.8125 7.515625 
L 36.8125 0 
L 27.59375 0 
Q 17.1875 0 13.234375 3.875 
Q 9.28125 7.765625 9.28125 18.015625 
L 9.28125 47.703125 
L 2.6875 47.703125 
L 2.6875 54.6875 
L 9.28125 54.6875 
L 9.28125 70.21875 
z
" id="DejaVuSans-74"/>
      <path d="M 56.203125 29.59375 
L 56.203125 25.203125 
L 14.890625 25.203125 
Q 15.484375 15.921875 20.484375 11.0625 
Q 25.484375 6.203125 34.421875 6.203125 
Q 39.59375 6.203125 44.453125 7.46875 
Q 49.3125 8.734375 54.109375 11.28125 
L 54.109375 2.78125 
Q 49.265625 0.734375 44.1875 -0.34375 
Q 39.109375 -1.421875 33.890625 -1.421875 
Q 20.796875 -1.421875 13.15625 6.1875 
Q 5.515625 13.8125 5.515625 26.8125 
Q 5.515625 40.234375 12.765625 48.109375 
Q 20.015625 56 32.328125 56 
Q 43.359375 56 49.78125 48.890625 
Q 56.203125 41.796875 56.203125 29.59375 
M 47.21875 32.234375 
Q 47.125 39.59375 43.09375 43.984375 
Q 39.0625 48.390625 32.421875 48.390625 
Q 24.90625 48.390625 20.390625 44.140625 
Q 15.875 39.890625 15.1875 32.171875 
z
" id="DejaVuSans-65"/>
      <path d="M 52 44.1875 
Q 55.375 50.25 60.0625 53.125 
Q 64.75 56 71.09375 56 
Q 79.640625 56 84.28125 50.015625 
Q 88.921875 44.046875 88.921875 33.015625 
L 88.921875 0 
L 79.890625 0 
L 79.890625 32.71875 
Q 79.890625 40.578125 77.09375 44.375 
Q 74.3125 48.1875 68.609375 48.1875 
Q 61.625 48.1875 57.5625 43.546875 
Q 53.515625 38.921875 53.515625 30.90625 
L 53.515625 0 
L 44.484375 0 
L 44.484375 32.71875 
Q 44.484375 40.625 41.703125 44.40625 
Q 38.921875 48.1875 33.109375 48.1875 
Q 26.21875 48.1875 22.15625 43.53125 
Q 18.109375 38.875 18.109375 30.90625 
L 18.109375 0 
L 9.078125 0 
L 9.078125 54.6875 
L 18.109375 54.6875 
L 18.109375 46.1875 
Q 21.1875 51.21875 25.484375 53.609375 
Q 29.78125 56 35.6875 56 
Q 41.65625 56 45.828125 52.96875 
Q 50 49.953125 52 44.1875 
" id="DejaVuSans-6d"/>
      <path id="DejaVuSans-20"/>
      <path d="M 5.515625 54.6875 
L 48.1875 54.6875 
L 48.1875 46.484375 
L 14.40625 7.171875 
L 48.1875 7.171875 
L 48.1875 0 
L 4.296875 0 
L 4.296875 8.203125 
L 38.09375 47.515625 
L 5.515625 47.515625 
z
" id="DejaVuSans-7a"/>
      <path d="M 9.421875 75.984375 
L 18.40625 75.984375 
L 18.40625 0 
L 9.421875 0 
z
" id="DejaVuSans-6c"/>
      <path d="M 9.421875 54.6875 
L 18.40625 54.6875 
L 18.40625 0 
L 9.421875 0 
z
M 9.421875 75.984375 
L 18.40625 75.984375 
L 18.40625 64.59375 
L 9.421875 64.59375 
z
" id="DejaVuSans-69"/>
      <path d="M 54.890625 33.015625 
L 54.890625 0 
L 45.90625 0 
L 45.90625 32.71875 
Q 45.90625 40.484375 42.875 44.328125 
Q 39.84375 48.1875 33.796875 48.1875 
Q 26.515625 48.1875 22.3125 43.546875 
Q 18.109375 38.921875 18.109375 30.90625 
L 18.109375 0 
L 9.078125 0 
L 9.078125 54.6875 
L 18.109375 54.6875 
L 18.109375 46.1875 
Q 21.34375 51.125 25.703125 53.5625 
Q 30.078125 56 35.796875 56 
Q 45.21875 56 50.046875 50.171875 
Q 54.890625 44.34375 54.890625 33.015625 
" id="DejaVuSans-6e"/>
      <path d="M 34.28125 27.484375 
Q 23.390625 27.484375 19.1875 25 
Q 14.984375 22.515625 14.984375 16.5 
Q 14.984375 11.71875 18.140625 8.90625 
Q 21.296875 6.109375 26.703125 6.109375 
Q 34.1875 6.109375 38.703125 11.40625 
Q 43.21875 16.703125 43.21875 25.484375 
L 43.21875 27.484375 
z
M 52.203125 31.203125 
L 52.203125 0 
L 43.21875 0 
L 43.21875 8.296875 
Q 40.140625 3.328125 35.546875 0.953125 
Q 30.953125 -1.421875 24.3125 -1.421875 
Q 15.921875 -1.421875 10.953125 3.296875 
Q 6 8.015625 6 15.921875 
Q 6 25.140625 12.171875 29.828125 
Q 18.359375 34.515625 30.609375 34.515625 
L 43.21875 34.515625 
L 43.21875 35.40625 
Q 43.21875 41.609375 39.140625 45 
Q 35.0625 48.390625 27.6875 48.390625 
Q 23 48.390625 18.546875 47.265625 
Q 14.109375 46.140625 10.015625 43.890625 
L 10.015625 52.203125 
Q 14.9375 54.109375 19.578125 55.046875 
Q 24.21875 56 28.609375 56 
Q 40.484375 56 46.34375 49.84375 
Q 52.203125 43.703125 52.203125 31.203125 
" id="DejaVuSans-61"/>
      <path d="M 41.109375 46.296875 
Q 39.59375 47.171875 37.8125 47.578125 
Q 36.03125 48 33.890625 48 
Q 26.265625 48 22.1875 43.046875 
Q 18.109375 38.09375 18.109375 28.8125 
L 18.109375 0 
L 9.078125 0 
L 9.078125 54.6875 
L 18.109375 54.6875 
L 18.109375 46.1875 
Q 20.953125 51.171875 25.484375 53.578125 
Q 30.03125 56 36.53125 56 
Q 37.453125 56 38.578125 55.875 
Q 39.703125 55.765625 41.0625 55.515625 
z
" id="DejaVuSans-72"/>
      <path d="M 30.609375 48.390625 
Q 23.390625 48.390625 19.1875 42.75 
Q 14.984375 37.109375 14.984375 27.296875 
Q 14.984375 17.484375 19.15625 11.84375 
Q 23.34375 6.203125 30.609375 6.203125 
Q 37.796875 6.203125 41.984375 11.859375 
Q 46.1875 17.53125 46.1875 27.296875 
Q 46.1875 37.015625 41.984375 42.703125 
Q 37.796875 48.390625 30.609375 48.390625 
M 30.609375 56 
Q 42.328125 56 49.015625 48.375 
Q 55.71875 40.765625 55.71875 27.296875 
Q 55.71875 13.875 49.015625 6.21875 
Q 42.328125 -1.421875 30.609375 -1.421875 
Q 18.84375 -1.421875 12.171875 6.21875 
Q 5.515625 13.875 5.515625 27.296875 
Q 5.515625 40.765625 12.171875 48.375 
Q 18.84375 56 30.609375 56 
" id="DejaVuSans-6f"/>
      <path d="M 4.203125 54.6875 
L 13.1875 54.6875 
L 24.421875 12.015625 
L 35.59375 54.6875 
L 46.1875 54.6875 
L 57.421875 12.015625 
L 68.609375 54.6875 
L 77.59375 54.6875 
L 63.28125 0 
L 52.6875 0 
L 40.921875 44.828125 
L 29.109375 0 
L 18.5 0 
z
" id="DejaVuSans-77"/>
     </defs>
     <g transform="translate(324.312813 270.164187)scale(0.06 -0.06)">
      <use xlink:href="#DejaVuSans-73"/>
      <use x="52.099609" xlink:href="#DejaVuSans-79"/>
      <use x="111.279297" xlink:href="#DejaVuSans-73"/>
      <use x="163.378906" xlink:href="#DejaVuSans-74"/>
      <use x="202.587891" xlink:href="#DejaVuSans-65"/>
      <use x="264.111328" xlink:href="#DejaVuSans-6d"/>
      <use x="361.523438" xlink:href="#DejaVuSans-20"/>
      <use x="393.310547" xlink:href="#DejaVuSans-7a"/>
      <use x="445.800781" xlink:href="#DejaVuSans-6c"/>
      <use x="473.583984" xlink:href="#DejaVuSans-69"/>
      <use x="501.367188" xlink:href="#DejaVuSans-6e"/>
      <use x="564.746094" xlink:href="#DejaVuSans-65"/>
      <use x="626.269531" xlink:href="#DejaVuSans-61"/>
      <use x="687.548828" xlink:href="#DejaVuSans-72"/>
      <use x="728.662109" xlink:href="#DejaVuSans-79"/>
      <use x="787.841797" xlink:href="#DejaVuSans-7a"/>
      <use x="840.332031" xlink:href="#DejaVuSans-6f"/>
      <use x="901.513672" xlink:href="#DejaVuSans-77"/>
      <use x="983.300781" xlink:href="#DejaVuSans-61"/>
      <use x="1044.580078" xlink:href="#DejaVuSans-6e"/>
      <use x="1107.958984" xlink:href="#DejaVuSans-79"/>
     </g>
    </g>
   </g>
  </g>
 </g>
 <defs>
  <clipPath id="pe73489a77a">
   <rect height="266.112" width="357.12" x="42.620313" y="10.7"/>
  </clipPath>
 </defs>
</svg>
