<?xml version="1.0" encoding="utf-8" standalone="no"?>
<!DOCTYPE svg PUBLIC "-//W3C//DTD SVG 1.1//EN"
  "http://www.w3.org/Graphics/SVG/1.1/DTD/svg11.dtd">
<!-- Created with matplotlib (http://matplotlib.org/) -->
<svg height="314pt" version="1.1" viewBox="0 0 424 314" width="424pt" xmlns="http://www.w3.org/2000/svg" xmlns:xlink="http://www.w3.org/1999/xlink">
 <defs>
  <style type="text/css">
*{stroke-linecap:butt;stroke-linejoin:round;}
  </style>
 </defs>
 <g id="figure_1">
  <g id="patch_1">
   <path d="M 0 314.667469 
L 424.4325 314.667469 
L 424.4325 0 
L 0 0 
z
" style="fill:#ffffff;"/>
  </g>
  <g id="axes_1">
   <g id="patch_2">
    <path d="M 52.160938 277.111219 
L 409.280938 277.111219 
L 409.280938 10.999219 
L 52.160938 10.999219 
z
" style="fill:#ffffff;"/>
   </g>
   <g id="patch_3">
    <path clip-path="url(#p84e1968436)" d="M 270.122549 89.913197 
L 264.464313 85.714313 
L 267.807587 84.878155 
L 267.891444 84.855249 
L 267.892226 84.856986 
L 271.2355 84.020828 
z
" style="fill:#ff7f0e;stroke:#ff7f0e;stroke-linejoin:miter;"/>
   </g>
   <g id="patch_4">
    <path clip-path="url(#p84e1968436)" d="M 277.334796 107.14651 
L 271.849798 102.821868 
L 275.22552 102.061538 
L 275.310427 102.040922 
L 275.310981 102.042289 
L 278.686703 101.281959 
z
" style="fill:#ff7f0e;stroke:#ff7f0e;stroke-linejoin:miter;"/>
   </g>
   <g id="patch_5">
    <path clip-path="url(#p84e1968436)" d="M 306.259043 92.214891 
L 300.856082 87.833282 
L 304.245799 87.108349 
L 304.330863 87.088046 
L 304.331614 87.089996 
L 307.721331 86.365063 
z
" style="fill:#ff7f0e;stroke:#ff7f0e;stroke-linejoin:miter;"/>
   </g>
   <g id="patch_6">
    <path clip-path="url(#p84e1968436)" d="M 319.203574 147.283225 
L 315.456301 142.028633 
L 318.981776 141.963447 
L 319.071005 141.961096 
L 319.071028 141.961797 
L 322.596503 141.896611 
z
" style="fill:#ff7f0e;stroke:#ff7f0e;stroke-linejoin:miter;"/>
   </g>
   <g id="patch_7">
    <path clip-path="url(#p84e1968436)" d="M 353.714174 121.059725 
L 348.983558 116.265805 
L 352.459047 115.820201 
L 352.546666 115.807325 
L 352.547034 115.80892 
L 356.022523 115.363315 
z
" style="fill:#ff7f0e;stroke:#ff7f0e;stroke-linejoin:miter;"/>
   </g>
   <g id="patch_8">
    <path clip-path="url(#p84e1968436)" d="M 349.496135 167.707183 
L 349.111719 161.763636 
L 352.338235 162.824338 
L 352.420174 162.850761 
L 352.419919 162.851191 
L 355.646435 163.911893 
z
" style="fill:#ff7f0e;stroke:#ff7f0e;stroke-linejoin:miter;"/>
   </g>
   <g id="patch_9">
    <path clip-path="url(#p84e1968436)" d="M 401.633866 119.592729 
L 397.07658 114.706465 
L 400.566787 114.330117 
L 400.654761 114.318603 
L 400.655146 114.320589 
L 404.145353 113.94424 
z
" style="fill:#ff7f0e;stroke:#ff7f0e;stroke-linejoin:miter;"/>
   </g>
   <g id="patch_10">
    <path clip-path="url(#p84e1968436)" d="M 340.248714 181.321359 
L 348.04755 180.042477 
L 347.185198 182.590555 
L 347.163883 182.655161 
L 347.163366 182.655064 
L 346.301015 185.203142 
z
" style="fill:#ff7f0e;stroke:#ff7f0e;stroke-linejoin:miter;"/>
   </g>
   <g id="patch_11">
    <path clip-path="url(#p84e1968436)" d="M 411.143928 36.178845 
L 405.834648 31.734103 
L 409.239329 31.049213 
L 409.324035 31.027764 
L 409.325524 31.031874 
L 412.730204 30.346984 
z
" style="fill:#ff7f0e;stroke:#ff7f0e;stroke-linejoin:miter;"/>
   </g>
   <g id="patch_12">
    <path clip-path="url(#p84e1968436)" d="M 410.853453 78.708252 
L 405.798188 74.101995 
L 409.238318 73.52377 
L 409.324483 73.506073 
L 409.325409 73.509132 
L 412.765539 72.930907 
z
" style="fill:#ff7f0e;stroke:#ff7f0e;stroke-linejoin:miter;"/>
   </g>
   <g id="patch_13">
    <path clip-path="url(#p84e1968436)" d="M 410.415263 112.369379 
L 405.755504 107.537079 
L 409.237344 107.119911 
L 409.325011 107.107122 
L 409.325492 107.10935 
L 412.807332 106.692181 
z
" style="fill:#ff7f0e;stroke:#ff7f0e;stroke-linejoin:miter;"/>
   </g>
   <g id="patch_14">
    <path clip-path="url(#p84e1968436)" d="M 409.590101 142.159879 
L 405.71317 136.95778 
L 409.236426 136.844064 
L 409.325536 136.839693 
L 409.325622 136.841185 
L 412.848879 136.727469 
z
" style="fill:#ff7f0e;stroke:#ff7f0e;stroke-linejoin:miter;"/>
   </g>
   <g id="patch_15">
    <path clip-path="url(#p84e1968436)" d="M 322.94694 176.972405 
L 330.89569 176.402602 
L 329.627857 178.854763 
L 329.596227 178.916977 
L 329.59576 178.916843 
L 328.327927 181.369004 
z
" style="fill:#ff7f0e;stroke:#ff7f0e;stroke-linejoin:miter;"/>
   </g>
   <g id="patch_16">
    <path clip-path="url(#p84e1968436)" d="M 285.702864 164.376426 
L 293.686692 164.256658 
L 292.173373 166.630262 
L 292.135364 166.69046 
L 292.135062 166.690353 
L 290.621743 169.063957 
z
" style="fill:#ff7f0e;stroke:#ff7f0e;stroke-linejoin:miter;"/>
   </g>
   <g id="patch_17">
    <path clip-path="url(#p84e1968436)" d="M 322.346961 177.476404 
L 330.324377 177.209628 
L 328.890252 179.610379 
L 328.854422 179.671316 
L 328.853945 179.671158 
L 327.41982 182.071908 
z
" style="fill:#ff7f0e;stroke:#ff7f0e;stroke-linejoin:miter;"/>
   </g>
   <g id="patch_18">
    <path clip-path="url(#p84e1968436)" d="M 278.310689 161.740187 
L 286.295942 161.698804 
L 284.740791 164.057346 
L 284.701689 164.117154 
L 284.70142 164.117056 
L 283.14627 166.475598 
z
" style="fill:#ff7f0e;stroke:#ff7f0e;stroke-linejoin:miter;"/>
   </g>
   <g id="patch_19">
    <path clip-path="url(#p84e1968436)" d="M 333.425166 186.032619 
L 341.32224 186.915429 
L 339.294602 189.065488 
L 339.243872 189.120236 
L 339.243269 189.11992 
L 337.215632 191.26998 
z
" style="fill:#ff7f0e;stroke:#ff7f0e;stroke-linejoin:miter;"/>
   </g>
   <g id="patch_20">
    <path clip-path="url(#p84e1968436)" d="M 311.532105 175.658128 
L 319.485891 176.187469 
L 317.634422 178.424032 
L 317.58801 178.480865 
L 317.587549 178.480654 
L 315.73608 180.717216 
z
" style="fill:#ff7f0e;stroke:#ff7f0e;stroke-linejoin:miter;"/>
   </g>
   <g id="patch_21">
    <path clip-path="url(#p84e1968436)" d="M 327.18663 200.347308 
L 334.4329 202.847645 
L 331.676367 204.486686 
L 331.607388 204.528934 
L 331.606581 204.528181 
L 328.850048 206.167223 
z
" style="fill:#ff7f0e;stroke:#ff7f0e;stroke-linejoin:miter;"/>
   </g>
   <g id="patch_22">
    <path clip-path="url(#p84e1968436)" d="M 303.529791 180.483377 
L 311.028038 182.530013 
L 308.46224 184.332826 
L 308.397822 184.378892 
L 308.397284 184.378467 
L 305.831486 186.181281 
z
" style="fill:#ff7f0e;stroke:#ff7f0e;stroke-linejoin:miter;"/>
   </g>
   <g id="patch_23">
    <path clip-path="url(#p84e1968436)" d="M 298.066206 221.031879 
L 304.600482 224.452372 
L 301.496805 225.700115 
L 301.419317 225.733203 
L 301.418231 225.731703 
L 298.314554 226.979446 
z
" style="fill:#ff7f0e;stroke:#ff7f0e;stroke-linejoin:miter;"/>
   </g>
   <g id="patch_24">
    <path clip-path="url(#p84e1968436)" d="M 283.659291 201.366185 
L 290.227529 204.750365 
L 287.136393 206.015277 
L 287.058961 206.048418 
L 287.058137 206.0473 
L 283.967001 207.312211 
z
" style="fill:#ff7f0e;stroke:#ff7f0e;stroke-linejoin:miter;"/>
   </g>
   <g id="patch_25">
    <path clip-path="url(#p84e1968436)" d="M 260.182747 226.927946 
L 266.36647 230.692959 
L 263.149402 231.769478 
L 263.069122 231.798663 
L 263.067957 231.796731 
L 259.850889 232.87325 
z
" style="fill:#ff7f0e;stroke:#ff7f0e;stroke-linejoin:miter;"/>
   </g>
   <g id="patch_26">
    <path clip-path="url(#p84e1968436)" d="M 244.438552 200.286824 
L 250.560881 204.107142 
L 247.326622 205.154668 
L 247.245553 205.182577 
L 247.244742 205.181187 
L 244.010482 206.228713 
z
" style="fill:#ff7f0e;stroke:#ff7f0e;stroke-linejoin:miter;"/>
   </g>
   <g id="patch_27">
    <path clip-path="url(#p84e1968436)" d="M 206.035978 193.212611 
L 211.791413 197.337489 
L 208.468172 198.216873 
L 208.384756 198.24064 
L 208.384039 198.239136 
L 205.060799 199.11852 
z
" style="fill:#ff7f0e;stroke:#ff7f0e;stroke-linejoin:miter;"/>
   </g>
   <g id="patch_28">
    <path clip-path="url(#p84e1968436)" d="M 198.37129 175.919856 
L 203.95033 180.177177 
L 200.591721 180.978484 
L 200.507181 180.999906 
L 200.506693 180.99877 
L 197.148084 181.800077 
z
" style="fill:#ff7f0e;stroke:#ff7f0e;stroke-linejoin:miter;"/>
   </g>
   <g id="patch_29">
    <path clip-path="url(#p84e1968436)" d="M 170.671763 189.845366 
L 176.12781 194.190295 
L 172.747052 194.938097 
L 172.662135 194.958715 
L 172.661463 194.957029 
L 169.280705 195.704831 
z
" style="fill:#ff7f0e;stroke:#ff7f0e;stroke-linejoin:miter;"/>
   </g>
   <g id="patch_30">
    <path clip-path="url(#p84e1968436)" d="M 158.645589 144.028969 
L 162.74338 149.136203 
L 159.22679 149.333663 
L 159.137829 149.339319 
L 159.137763 149.338662 
L 155.621173 149.536122 
z
" style="fill:#ff7f0e;stroke:#ff7f0e;stroke-linejoin:miter;"/>
   </g>
   <g id="patch_31">
    <path clip-path="url(#p84e1968436)" d="M 133.80271 188.760561 
L 139.015657 193.268173 
L 135.596675 193.912291 
L 135.510775 193.930532 
L 135.510119 193.928598 
L 132.091137 194.572717 
z
" style="fill:#ff7f0e;stroke:#ff7f0e;stroke-linejoin:miter;"/>
   </g>
   <g id="patch_32">
    <path clip-path="url(#p84e1968436)" d="M 144.222365 118.375766 
L 139.070026 122.921907 
L 137.677765 120.507511 
L 137.6422 120.446489 
L 137.642518 120.446387 
L 136.250256 118.031992 
z
" style="fill:#ff7f0e;stroke:#ff7f0e;stroke-linejoin:miter;"/>
   </g>
   <g id="patch_33">
    <path clip-path="url(#p84e1968436)" d="M 82.890087 142.505044 
L 86.652382 147.753672 
L 83.127102 147.824457 
L 83.037897 147.827429 
L 83.037854 147.826249 
L 79.512574 147.897034 
z
" style="fill:#ff7f0e;stroke:#ff7f0e;stroke-linejoin:miter;"/>
   </g>
   <g id="patch_34">
    <path clip-path="url(#p84e1968436)" d="M 126.290366 110.055261 
L 118.842482 112.201581 
L 119.175704 109.585482 
L 119.183677 109.519219 
L 119.18414 109.519252 
L 119.517362 106.903153 
z
" style="fill:#ff7f0e;stroke:#ff7f0e;stroke-linejoin:miter;"/>
   </g>
   <g id="patch_35">
    <path clip-path="url(#p84e1968436)" d="M 56.196743 263.009352 
L 61.566473 267.413586 
L 58.171326 268.124269 
L 58.087009 268.146601 
L 58.085373 268.142261 
L 54.690226 268.852945 
z
" style="fill:#ff7f0e;stroke:#ff7f0e;stroke-linejoin:miter;"/>
   </g>
   <g id="patch_36">
    <path clip-path="url(#p84e1968436)" d="M 54.584944 258.664311 
L 59.933793 263.082631 
L 56.535303 263.784386 
L 56.450844 263.806397 
L 56.449266 263.802152 
L 53.050776 264.503908 
z
" style="fill:#ff7f0e;stroke:#ff7f0e;stroke-linejoin:miter;"/>
   </g>
   <g id="patch_37">
    <path clip-path="url(#p84e1968436)" d="M 50.431411 229.101814 
L 55.624816 233.621934 
L 52.203064 234.25783 
L 52.117624 234.277475 
L 52.116437 234.273929 
L 48.694685 234.909825 
z
" style="fill:#ff7f0e;stroke:#ff7f0e;stroke-linejoin:miter;"/>
   </g>
   <g id="patch_38">
    <path clip-path="url(#p84e1968436)" d="M 50.780455 191.844965 
L 55.664172 196.552866 
L 52.204043 197.060523 
L 52.117138 197.076001 
L 52.116445 197.073375 
L 48.656315 197.581032 
z
" style="fill:#ff7f0e;stroke:#ff7f0e;stroke-linejoin:miter;"/>
   </g>
   <g id="patch_39">
    <path clip-path="url(#p84e1968436)" d="M 51.361111 160.578002 
L 55.709411 165.568894 
L 52.205017 165.863065 
L 52.116578 165.872366 
L 52.116298 165.870513 
L 48.611904 166.164684 
z
" style="fill:#ff7f0e;stroke:#ff7f0e;stroke-linejoin:miter;"/>
   </g>
   <g id="patch_40">
    <path clip-path="url(#p84e1968436)" d="M 127.750105 108.129835 
L 119.854475 109.019786 
L 120.94211 106.520031 
L 120.969142 106.456625 
L 120.969646 106.456746 
L 122.057281 103.956991 
z
" style="fill:#ff7f0e;stroke:#ff7f0e;stroke-linejoin:miter;"/>
   </g>
   <g id="patch_41">
    <path clip-path="url(#p84e1968436)" d="M 148.076653 114.221783 
L 140.111394 114.64462 
L 141.460392 112.216625 
L 141.494117 112.155025 
L 141.494544 112.155157 
L 142.843543 109.727163 
z
" style="fill:#ff7f0e;stroke:#ff7f0e;stroke-linejoin:miter;"/>
   </g>
   <g id="patch_42">
    <path clip-path="url(#p84e1968436)" d="M 135.721294 110.048639 
L 127.766606 110.570399 
L 129.061079 108.125978 
L 129.093369 108.063953 
L 129.093851 108.064094 
L 130.388324 105.619674 
z
" style="fill:#ff7f0e;stroke:#ff7f0e;stroke-linejoin:miter;"/>
   </g>
   <g id="patch_43">
    <path clip-path="url(#p84e1968436)" d="M 178.88144 124.849839 
L 170.896836 124.936281 
L 172.427973 122.569031 
L 172.466448 122.508997 
L 172.466736 122.509101 
L 173.997873 120.14185 
z
" style="fill:#ff7f0e;stroke:#ff7f0e;stroke-linejoin:miter;"/>
   </g>
   <g id="patch_44">
    <path clip-path="url(#p84e1968436)" d="M 135.703959 108.317997 
L 127.719854 108.208981 
L 129.354503 105.88048 
L 129.395375 105.821331 
L 129.395886 105.821531 
L 131.030535 103.49303 
z
" style="fill:#ff7f0e;stroke:#ff7f0e;stroke-linejoin:miter;"/>
   </g>
   <g id="patch_45">
    <path clip-path="url(#p84e1968436)" d="M 167.968823 120.613178 
L 159.983518 120.577736 
L 161.579403 118.234351 
L 161.619459 118.174894 
L 161.619805 118.175025 
L 163.21569 115.831641 
z
" style="fill:#ff7f0e;stroke:#ff7f0e;stroke-linejoin:miter;"/>
   </g>
   <g id="patch_46">
    <path clip-path="url(#p84e1968436)" d="M 114.538562 85.99364 
L 107.012711 84.004055 
L 109.553719 82.181849 
L 109.617222 82.135078 
L 109.618048 82.135717 
L 112.159055 80.313511 
z
" style="fill:#ff7f0e;stroke:#ff7f0e;stroke-linejoin:miter;"/>
   </g>
   <g id="patch_47">
    <path clip-path="url(#p84e1968436)" d="M 144.236439 106.128351 
L 136.471713 104.738996 
L 138.741725 102.727934 
L 138.798641 102.676675 
L 138.799194 102.677021 
L 141.069206 100.665959 
z
" style="fill:#ff7f0e;stroke:#ff7f0e;stroke-linejoin:miter;"/>
   </g>
   <g id="patch_48">
    <path clip-path="url(#p84e1968436)" d="M 135.005264 61.534514 
L 128.245963 58.366115 
L 131.260451 57.00235 
L 131.335608 56.966402 
L 131.336767 56.967824 
L 134.351254 55.604059 
z
" style="fill:#ff7f0e;stroke:#ff7f0e;stroke-linejoin:miter;"/>
   </g>
   <g id="patch_49">
    <path clip-path="url(#p84e1968436)" d="M 181.940986 114.082842 
L 174.810788 111.403613 
L 177.639226 109.834067 
L 177.710375 109.793875 
L 177.710832 109.794332 
L 180.539269 108.224787 
z
" style="fill:#ff7f0e;stroke:#ff7f0e;stroke-linejoin:miter;"/>
   </g>
   <g id="patch_50">
    <path clip-path="url(#p84e1968436)" d="M 185.114218 67.398052 
L 178.777371 63.777172 
L 181.948278 62.627116 
L 182.027472 62.596345 
L 182.028554 62.598001 
L 185.199461 61.447945 
z
" style="fill:#ff7f0e;stroke:#ff7f0e;stroke-linejoin:miter;"/>
   </g>
   <g id="patch_51">
    <path clip-path="url(#p84e1968436)" d="M 198.392215 87.812734 
L 192.067721 84.179882 
L 195.242535 83.035827 
L 195.3221 83.005615 
L 195.32291 83.006864 
L 198.497724 81.862809 
z
" style="fill:#ff7f0e;stroke:#ff7f0e;stroke-linejoin:miter;"/>
   </g>
   <g id="patch_52">
    <path clip-path="url(#p84e1968436)" d="M 231.712714 82.072006 
L 225.73414 78.127293 
L 229.005947 77.146648 
L 229.087891 77.120179 
L 229.088778 77.121822 
L 232.360585 76.141177 
z
" style="fill:#ff7f0e;stroke:#ff7f0e;stroke-linejoin:miter;"/>
   </g>
   <g id="patch_53">
    <path clip-path="url(#p84e1968436)" d="M 251.872603 123.245473 
L 246.258716 119.013664 
L 249.610684 118.197062 
L 249.695202 118.175609 
L 249.695544 118.176389 
L 253.047512 117.359787 
z
" style="fill:#ff7f0e;stroke:#ff7f0e;stroke-linejoin:miter;"/>
   </g>
   <g id="patch_54">
    <path clip-path="url(#p84e1968436)" d="M 269.33286 88.133568 
L 263.660923 83.944961 
L 267.001455 83.10274 
L 267.085219 83.079642 
L 267.086025 83.081418 
L 270.426557 82.239197 
z
" style="fill:#ff7f0e;stroke:#ff7f0e;stroke-linejoin:miter;"/>
   </g>
   <g id="patch_55">
    <path clip-path="url(#p84e1968436)" d="M 287.029002 140.86165 
L 282.552166 135.934263 
L 286.048283 135.589716 
L 286.136683 135.580377 
L 286.136792 135.580994 
L 289.632909 135.236446 
z
" style="fill:#ff7f0e;stroke:#ff7f0e;stroke-linejoin:miter;"/>
   </g>
   <g id="matplotlib.axis_1">
    <g id="xtick_1">
     <g id="line2d_1">
      <defs>
       <path d="M 0 0 
L 0 3.5 
" id="mcf2f026cd0" style="stroke:#000000;stroke-width:0.8;"/>
      </defs>
      <g>
       <use style="stroke:#000000;stroke-width:0.8;" x="52.160938" xlink:href="#mcf2f026cd0" y="277.111219"/>
      </g>
     </g>
     <g id="text_1">
      <!-- −2.0 -->
      <defs>
       <path d="M 10.59375 35.5 
L 73.1875 35.5 
L 73.1875 27.203125 
L 10.59375 27.203125 
z
" id="DejaVuSans-2212"/>
       <path d="M 19.1875 8.296875 
L 53.609375 8.296875 
L 53.609375 0 
L 7.328125 0 
L 7.328125 8.296875 
Q 12.9375 14.109375 22.625 23.890625 
Q 32.328125 33.6875 34.8125 36.53125 
Q 39.546875 41.84375 41.421875 45.53125 
Q 43.3125 49.21875 43.3125 52.78125 
Q 43.3125 58.59375 39.234375 62.25 
Q 35.15625 65.921875 28.609375 65.921875 
Q 23.96875 65.921875 18.8125 64.3125 
Q 13.671875 62.703125 7.8125 59.421875 
L 7.8125 69.390625 
Q 13.765625 71.78125 18.9375 73 
Q 24.125 74.21875 28.421875 74.21875 
Q 39.75 74.21875 46.484375 68.546875 
Q 53.21875 62.890625 53.21875 53.421875 
Q 53.21875 48.921875 51.53125 44.890625 
Q 49.859375 40.875 45.40625 35.40625 
Q 44.1875 33.984375 37.640625 27.21875 
Q 31.109375 20.453125 19.1875 8.296875 
" id="DejaVuSans-32"/>
       <path d="M 10.6875 12.40625 
L 21 12.40625 
L 21 0 
L 10.6875 0 
z
" id="DejaVuSans-2e"/>
       <path d="M 31.78125 66.40625 
Q 24.171875 66.40625 20.328125 58.90625 
Q 16.5 51.421875 16.5 36.375 
Q 16.5 21.390625 20.328125 13.890625 
Q 24.171875 6.390625 31.78125 6.390625 
Q 39.453125 6.390625 43.28125 13.890625 
Q 47.125 21.390625 47.125 36.375 
Q 47.125 51.421875 43.28125 58.90625 
Q 39.453125 66.40625 31.78125 66.40625 
M 31.78125 74.21875 
Q 44.046875 74.21875 50.515625 64.515625 
Q 56.984375 54.828125 56.984375 36.375 
Q 56.984375 17.96875 50.515625 8.265625 
Q 44.046875 -1.421875 31.78125 -1.421875 
Q 19.53125 -1.421875 13.0625 8.265625 
Q 6.59375 17.96875 6.59375 36.375 
Q 6.59375 54.828125 13.0625 64.515625 
Q 19.53125 74.21875 31.78125 74.21875 
" id="DejaVuSans-30"/>
      </defs>
      <g transform="translate(40.019531 291.709656)scale(0.1 -0.1)">
       <use xlink:href="#DejaVuSans-2212"/>
       <use x="83.789062" xlink:href="#DejaVuSans-32"/>
       <use x="147.412109" xlink:href="#DejaVuSans-2e"/>
       <use x="179.199219" xlink:href="#DejaVuSans-30"/>
      </g>
     </g>
    </g>
    <g id="xtick_2">
     <g id="line2d_2">
      <g>
       <use style="stroke:#000000;stroke-width:0.8;" x="96.800938" xlink:href="#mcf2f026cd0" y="277.111219"/>
      </g>
     </g>
     <g id="text_2">
      <!-- −1.5 -->
      <defs>
       <path d="M 12.40625 8.296875 
L 28.515625 8.296875 
L 28.515625 63.921875 
L 10.984375 60.40625 
L 10.984375 69.390625 
L 28.421875 72.90625 
L 38.28125 72.90625 
L 38.28125 8.296875 
L 54.390625 8.296875 
L 54.390625 0 
L 12.40625 0 
z
" id="DejaVuSans-31"/>
       <path d="M 10.796875 72.90625 
L 49.515625 72.90625 
L 49.515625 64.59375 
L 19.828125 64.59375 
L 19.828125 46.734375 
Q 21.96875 47.46875 24.109375 47.828125 
Q 26.265625 48.1875 28.421875 48.1875 
Q 40.625 48.1875 47.75 41.5 
Q 54.890625 34.8125 54.890625 23.390625 
Q 54.890625 11.625 47.5625 5.09375 
Q 40.234375 -1.421875 26.90625 -1.421875 
Q 22.3125 -1.421875 17.546875 -0.640625 
Q 12.796875 0.140625 7.71875 1.703125 
L 7.71875 11.625 
Q 12.109375 9.234375 16.796875 8.0625 
Q 21.484375 6.890625 26.703125 6.890625 
Q 35.15625 6.890625 40.078125 11.328125 
Q 45.015625 15.765625 45.015625 23.390625 
Q 45.015625 31 40.078125 35.4375 
Q 35.15625 39.890625 26.703125 39.890625 
Q 22.75 39.890625 18.8125 39.015625 
Q 14.890625 38.140625 10.796875 36.28125 
z
" id="DejaVuSans-35"/>
      </defs>
      <g transform="translate(84.659531 291.709656)scale(0.1 -0.1)">
       <use xlink:href="#DejaVuSans-2212"/>
       <use x="83.789062" xlink:href="#DejaVuSans-31"/>
       <use x="147.412109" xlink:href="#DejaVuSans-2e"/>
       <use x="179.199219" xlink:href="#DejaVuSans-35"/>
      </g>
     </g>
    </g>
    <g id="xtick_3">
     <g id="line2d_3">
      <g>
       <use style="stroke:#000000;stroke-width:0.8;" x="141.440938" xlink:href="#mcf2f026cd0" y="277.111219"/>
      </g>
     </g>
     <g id="text_3">
      <!-- −1.0 -->
      <g transform="translate(129.299531 291.709656)scale(0.1 -0.1)">
       <use xlink:href="#DejaVuSans-2212"/>
       <use x="83.789062" xlink:href="#DejaVuSans-31"/>
       <use x="147.412109" xlink:href="#DejaVuSans-2e"/>
       <use x="179.199219" xlink:href="#DejaVuSans-30"/>
      </g>
     </g>
    </g>
    <g id="xtick_4">
     <g id="line2d_4">
      <g>
       <use style="stroke:#000000;stroke-width:0.8;" x="186.080938" xlink:href="#mcf2f026cd0" y="277.111219"/>
      </g>
     </g>
     <g id="text_4">
      <!-- −0.5 -->
      <g transform="translate(173.939531 291.709656)scale(0.1 -0.1)">
       <use xlink:href="#DejaVuSans-2212"/>
       <use x="83.789062" xlink:href="#DejaVuSans-30"/>
       <use x="147.412109" xlink:href="#DejaVuSans-2e"/>
       <use x="179.199219" xlink:href="#DejaVuSans-35"/>
      </g>
     </g>
    </g>
    <g id="xtick_5">
     <g id="line2d_5">
      <g>
       <use style="stroke:#000000;stroke-width:0.8;" x="230.720938" xlink:href="#mcf2f026cd0" y="277.111219"/>
      </g>
     </g>
     <g id="text_5">
      <!-- 0.0 -->
      <g transform="translate(222.769375 291.709656)scale(0.1 -0.1)">
       <use xlink:href="#DejaVuSans-30"/>
       <use x="63.623047" xlink:href="#DejaVuSans-2e"/>
       <use x="95.410156" xlink:href="#DejaVuSans-30"/>
      </g>
     </g>
    </g>
    <g id="xtick_6">
     <g id="line2d_6">
      <g>
       <use style="stroke:#000000;stroke-width:0.8;" x="275.360938" xlink:href="#mcf2f026cd0" y="277.111219"/>
      </g>
     </g>
     <g id="text_6">
      <!-- 0.5 -->
      <g transform="translate(267.409375 291.709656)scale(0.1 -0.1)">
       <use xlink:href="#DejaVuSans-30"/>
       <use x="63.623047" xlink:href="#DejaVuSans-2e"/>
       <use x="95.410156" xlink:href="#DejaVuSans-35"/>
      </g>
     </g>
    </g>
    <g id="xtick_7">
     <g id="line2d_7">
      <g>
       <use style="stroke:#000000;stroke-width:0.8;" x="320.000938" xlink:href="#mcf2f026cd0" y="277.111219"/>
      </g>
     </g>
     <g id="text_7">
      <!-- 1.0 -->
      <g transform="translate(312.049375 291.709656)scale(0.1 -0.1)">
       <use xlink:href="#DejaVuSans-31"/>
       <use x="63.623047" xlink:href="#DejaVuSans-2e"/>
       <use x="95.410156" xlink:href="#DejaVuSans-30"/>
      </g>
     </g>
    </g>
    <g id="xtick_8">
     <g id="line2d_8">
      <g>
       <use style="stroke:#000000;stroke-width:0.8;" x="364.640938" xlink:href="#mcf2f026cd0" y="277.111219"/>
      </g>
     </g>
     <g id="text_8">
      <!-- 1.5 -->
      <g transform="translate(356.689375 291.709656)scale(0.1 -0.1)">
       <use xlink:href="#DejaVuSans-31"/>
       <use x="63.623047" xlink:href="#DejaVuSans-2e"/>
       <use x="95.410156" xlink:href="#DejaVuSans-35"/>
      </g>
     </g>
    </g>
    <g id="xtick_9">
     <g id="line2d_9">
      <g>
       <use style="stroke:#000000;stroke-width:0.8;" x="409.280938" xlink:href="#mcf2f026cd0" y="277.111219"/>
      </g>
     </g>
     <g id="text_9">
      <!-- 2.0 -->
      <g transform="translate(401.329375 291.709656)scale(0.1 -0.1)">
       <use xlink:href="#DejaVuSans-32"/>
       <use x="63.623047" xlink:href="#DejaVuSans-2e"/>
       <use x="95.410156" xlink:href="#DejaVuSans-30"/>
      </g>
     </g>
    </g>
    <g id="text_10">
     <!-- x1 -->
     <defs>
      <path d="M 54.890625 54.6875 
L 35.109375 28.078125 
L 55.90625 0 
L 45.3125 0 
L 29.390625 21.484375 
L 13.484375 0 
L 2.875 0 
L 24.125 28.609375 
L 4.6875 54.6875 
L 15.28125 54.6875 
L 29.78125 35.203125 
L 44.28125 54.6875 
z
" id="DejaVuSans-78"/>
     </defs>
     <g transform="translate(224.580313 305.387781)scale(0.1 -0.1)">
      <use xlink:href="#DejaVuSans-78"/>
      <use x="59.179688" xlink:href="#DejaVuSans-31"/>
     </g>
    </g>
   </g>
   <g id="matplotlib.axis_2">
    <g id="ytick_1">
     <g id="line2d_10">
      <defs>
       <path d="M 0 0 
L -3.5 0 
" id="m44b750cc6c" style="stroke:#000000;stroke-width:0.8;"/>
      </defs>
      <g>
       <use style="stroke:#000000;stroke-width:0.8;" x="52.160938" xlink:href="#m44b750cc6c" y="277.111219"/>
      </g>
     </g>
     <g id="text_11">
      <!-- −2.0 -->
      <g transform="translate(20.878125 280.910437)scale(0.1 -0.1)">
       <use xlink:href="#DejaVuSans-2212"/>
       <use x="83.789062" xlink:href="#DejaVuSans-32"/>
       <use x="147.412109" xlink:href="#DejaVuSans-2e"/>
       <use x="179.199219" xlink:href="#DejaVuSans-30"/>
      </g>
     </g>
    </g>
    <g id="ytick_2">
     <g id="line2d_11">
      <g>
       <use style="stroke:#000000;stroke-width:0.8;" x="52.160938" xlink:href="#m44b750cc6c" y="243.847219"/>
      </g>
     </g>
     <g id="text_12">
      <!-- −1.5 -->
      <g transform="translate(20.878125 247.646437)scale(0.1 -0.1)">
       <use xlink:href="#DejaVuSans-2212"/>
       <use x="83.789062" xlink:href="#DejaVuSans-31"/>
       <use x="147.412109" xlink:href="#DejaVuSans-2e"/>
       <use x="179.199219" xlink:href="#DejaVuSans-35"/>
      </g>
     </g>
    </g>
    <g id="ytick_3">
     <g id="line2d_12">
      <g>
       <use style="stroke:#000000;stroke-width:0.8;" x="52.160938" xlink:href="#m44b750cc6c" y="210.583219"/>
      </g>
     </g>
     <g id="text_13">
      <!-- −1.0 -->
      <g transform="translate(20.878125 214.382437)scale(0.1 -0.1)">
       <use xlink:href="#DejaVuSans-2212"/>
       <use x="83.789062" xlink:href="#DejaVuSans-31"/>
       <use x="147.412109" xlink:href="#DejaVuSans-2e"/>
       <use x="179.199219" xlink:href="#DejaVuSans-30"/>
      </g>
     </g>
    </g>
    <g id="ytick_4">
     <g id="line2d_13">
      <g>
       <use style="stroke:#000000;stroke-width:0.8;" x="52.160938" xlink:href="#m44b750cc6c" y="177.319219"/>
      </g>
     </g>
     <g id="text_14">
      <!-- −0.5 -->
      <g transform="translate(20.878125 181.118437)scale(0.1 -0.1)">
       <use xlink:href="#DejaVuSans-2212"/>
       <use x="83.789062" xlink:href="#DejaVuSans-30"/>
       <use x="147.412109" xlink:href="#DejaVuSans-2e"/>
       <use x="179.199219" xlink:href="#DejaVuSans-35"/>
      </g>
     </g>
    </g>
    <g id="ytick_5">
     <g id="line2d_14">
      <g>
       <use style="stroke:#000000;stroke-width:0.8;" x="52.160938" xlink:href="#m44b750cc6c" y="144.055219"/>
      </g>
     </g>
     <g id="text_15">
      <!-- 0.0 -->
      <g transform="translate(29.257812 147.854437)scale(0.1 -0.1)">
       <use xlink:href="#DejaVuSans-30"/>
       <use x="63.623047" xlink:href="#DejaVuSans-2e"/>
       <use x="95.410156" xlink:href="#DejaVuSans-30"/>
      </g>
     </g>
    </g>
    <g id="ytick_6">
     <g id="line2d_15">
      <g>
       <use style="stroke:#000000;stroke-width:0.8;" x="52.160938" xlink:href="#m44b750cc6c" y="110.791219"/>
      </g>
     </g>
     <g id="text_16">
      <!-- 0.5 -->
      <g transform="translate(29.257812 114.590437)scale(0.1 -0.1)">
       <use xlink:href="#DejaVuSans-30"/>
       <use x="63.623047" xlink:href="#DejaVuSans-2e"/>
       <use x="95.410156" xlink:href="#DejaVuSans-35"/>
      </g>
     </g>
    </g>
    <g id="ytick_7">
     <g id="line2d_16">
      <g>
       <use style="stroke:#000000;stroke-width:0.8;" x="52.160938" xlink:href="#m44b750cc6c" y="77.527219"/>
      </g>
     </g>
     <g id="text_17">
      <!-- 1.0 -->
      <g transform="translate(29.257812 81.326437)scale(0.1 -0.1)">
       <use xlink:href="#DejaVuSans-31"/>
       <use x="63.623047" xlink:href="#DejaVuSans-2e"/>
       <use x="95.410156" xlink:href="#DejaVuSans-30"/>
      </g>
     </g>
    </g>
    <g id="ytick_8">
     <g id="line2d_17">
      <g>
       <use style="stroke:#000000;stroke-width:0.8;" x="52.160938" xlink:href="#m44b750cc6c" y="44.263219"/>
      </g>
     </g>
     <g id="text_18">
      <!-- 1.5 -->
      <g transform="translate(29.257812 48.062437)scale(0.1 -0.1)">
       <use xlink:href="#DejaVuSans-31"/>
       <use x="63.623047" xlink:href="#DejaVuSans-2e"/>
       <use x="95.410156" xlink:href="#DejaVuSans-35"/>
      </g>
     </g>
    </g>
    <g id="ytick_9">
     <g id="line2d_18">
      <g>
       <use style="stroke:#000000;stroke-width:0.8;" x="52.160938" xlink:href="#m44b750cc6c" y="10.999219"/>
      </g>
     </g>
     <g id="text_19">
      <!-- 2.0 -->
      <g transform="translate(29.257812 14.798437)scale(0.1 -0.1)">
       <use xlink:href="#DejaVuSans-32"/>
       <use x="63.623047" xlink:href="#DejaVuSans-2e"/>
       <use x="95.410156" xlink:href="#DejaVuSans-30"/>
      </g>
     </g>
    </g>
    <g id="text_20">
     <!-- x2 -->
     <g transform="translate(14.798438 150.195844)rotate(-90)scale(0.1 -0.1)">
      <use xlink:href="#DejaVuSans-78"/>
      <use x="59.179688" xlink:href="#DejaVuSans-32"/>
     </g>
    </g>
   </g>
   <g id="line2d_19">
    <path clip-path="url(#p84e1968436)" d="M 230.720938 10.999219 
L 240.66376 29.749631 
L 249.188414 46.270294 
L 256.463931 60.816556 
L 262.640004 73.614839 
L 267.849124 84.865833 
L 272.208586 94.747484 
L 275.822202 103.417555 
L 278.781735 111.015754 
L 281.168351 117.665916 
L 283.05391 123.47792 
L 284.501944 128.549151 
L 285.568549 132.965831 
L 286.303274 136.804351 
L 286.7499 140.132425 
L 286.94707 143.010042 
L 286.928868 145.490324 
L 286.725353 147.620324 
L 286.363019 149.441718 
L 285.770538 151.225622 
L 285.025817 152.690914 
L 284.156643 153.882158 
L 283.186903 154.838001 
L 281.981649 155.684907 
L 280.697686 156.310871 
L 279.186034 156.796115 
L 277.452558 157.113928 
L 275.335235 157.253773 
L 273.036082 157.181041 
L 270.247945 156.865186 
L 266.888666 156.245583 
L 262.956106 155.285997 
L 258.02006 153.839287 
L 251.707274 151.742875 
L 242.350191 148.375881 
L 230.720937 144.055219 
L 230.720937 144.055219 
" style="fill:none;stroke:#ff7f0e;stroke-linecap:square;stroke-width:0.5;"/>
   </g>
   <g id="line2d_20">
    <path clip-path="url(#p84e1968436)" d="M 270.024966 10.999219 
L 278.367 28.162941 
L 285.616695 43.581909 
L 291.885526 57.425139 
L 297.273999 69.845229 
L 301.873056 80.980459 
L 305.764543 90.955478 
L 309.022439 99.88315 
L 311.713568 107.865611 
L 313.898206 114.995171 
L 315.630688 121.35523 
L 316.960064 127.021249 
L 317.930605 132.061511 
L 318.582209 136.53772 
L 318.950813 140.505627 
L 319.068798 144.015627 
L 318.965342 147.113287 
L 318.666707 149.839778 
L 318.196522 152.2323 
L 317.576047 154.324468 
L 316.824403 156.146665 
L 315.958776 157.726342 
L 314.994596 159.088289 
L 313.726879 160.46658 
L 312.35834 161.598039 
L 310.907592 162.513263 
L 309.132783 163.343658 
L 307.290575 163.954071 
L 305.127027 164.423894 
L 302.647225 164.711315 
L 299.867442 164.789014 
L 296.814793 164.644754 
L 293.254756 164.242327 
L 289.256674 163.559231 
L 284.66458 162.545239 
L 279.178708 161.094325 
L 272.712229 159.143124 
L 264.613027 156.451609 
L 253.764363 152.592175 
L 233.956691 145.260778 
L 230.720937 144.055219 
L 230.720938 144.055219 
" style="fill:none;stroke:#ff7f0e;stroke-linecap:square;stroke-width:0.5;"/>
   </g>
   <g id="line2d_21">
    <path clip-path="url(#p84e1968436)" d="M 313.33159 10.999219 
L 320.063087 26.103874 
L 326.01778 39.950405 
L 331.26048 52.637375 
L 335.85115 64.256105 
L 339.845019 74.890817 
L 343.292773 84.618921 
L 346.241043 93.511748 
L 348.732872 101.635245 
L 350.807913 109.050273 
L 352.502672 115.812965 
L 353.850765 121.975115 
L 354.883123 127.584484 
L 355.628204 132.685108 
L 356.112204 137.317627 
L 356.359244 141.519551 
L 356.391509 145.325478 
L 356.229383 148.767289 
L 355.891611 151.874395 
L 355.395424 154.673919 
L 354.756652 157.190868 
L 353.989835 159.448299 
L 353.108324 161.46747 
L 352.124372 163.267973 
L 350.767416 165.238491 
L 349.287842 166.927686 
L 347.703539 168.36465 
L 346.030538 169.575653 
L 344.283204 170.584413 
L 342.106252 171.557925 
L 339.860282 172.30392 
L 337.562411 172.851593 
L 334.835746 173.274133 
L 331.683768 173.515073 
L 328.122174 173.531775 
L 324.179504 173.297837 
L 319.896556 172.803679 
L 315.324695 172.055471 
L 310.161361 170.991701 
L 304.180212 169.530348 
L 297.270429 167.60557 
L 289.190299 165.114417 
L 279.54478 161.899944 
L 267.026641 157.477765 
L 248.169514 150.550704 
L 230.720937 144.055219 
L 230.720937 144.055219 
" style="fill:none;stroke:#ff7f0e;stroke-linecap:square;stroke-width:0.5;"/>
   </g>
   <g id="line2d_22">
    <path clip-path="url(#p84e1968436)" d="M 366.458721 10.999219 
L 373.149136 27.610449 
L 378.985815 42.817858 
L 384.041106 56.731855 
L 388.381927 69.45473 
L 392.069716 81.080548 
L 395.160936 91.695905 
L 397.707639 101.380782 
L 399.757788 110.209014 
L 401.355506 118.24867 
L 402.541403 125.56253 
L 403.352864 132.208534 
L 403.824285 138.240114 
L 403.987299 143.706547 
L 403.871021 148.653312 
L 403.502205 153.122331 
L 402.905444 157.152263 
L 402.103341 160.778758 
L 401.11666 164.034695 
L 399.964466 166.950374 
L 398.664256 169.553724 
L 397.232095 171.870506 
L 395.682724 173.924469 
L 394.029659 175.737501 
L 392.285283 177.329767 
L 390.460935 178.719842 
L 388.566989 179.924832 
L 386.116119 181.194755 
L 383.588124 182.2282 
L 380.998016 183.05054 
L 377.826634 183.790729 
L 374.605367 184.295011 
L 371.351927 184.59456 
L 367.535961 184.721813 
L 363.173311 184.620472 
L 358.833579 184.302323 
L 354.00476 183.736215 
L 348.733262 182.905466 
L 342.571218 181.701816 
L 335.645673 180.104853 
L 328.114952 178.132449 
L 319.734271 175.708594 
L 310.031217 172.669538 
L 298.576464 168.843749 
L 284.276089 163.819999 
L 264.778695 156.713867 
L 230.720937 144.055219 
L 230.720938 144.055219 
" style="fill:none;stroke:#ff7f0e;stroke-linecap:square;stroke-width:0.5;"/>
   </g>
   <g id="line2d_23">
    <path clip-path="url(#p84e1968436)" d="M 409.280938 31.036434 
L 410.769863 35.146313 
" style="fill:none;stroke:#ff7f0e;stroke-linecap:square;stroke-width:0.5;"/>
   </g>
   <g id="line2d_24">
    <path clip-path="url(#p84e1968436)" d="M 409.280938 73.513392 
L 410.206947 76.572497 
" style="fill:none;stroke:#ff7f0e;stroke-linecap:square;stroke-width:0.5;"/>
   </g>
   <g id="line2d_25">
    <path clip-path="url(#p84e1968436)" d="M 409.280938 107.112402 
L 409.761669 109.340329 
" style="fill:none;stroke:#ff7f0e;stroke-linecap:square;stroke-width:0.5;"/>
   </g>
   <g id="line2d_26">
    <path clip-path="url(#p84e1968436)" d="M 409.280938 136.841132 
L 409.367693 138.333642 
" style="fill:none;stroke:#ff7f0e;stroke-linecap:square;stroke-width:0.5;"/>
   </g>
   <g id="line2d_27">
    <path clip-path="url(#p84e1968436)" d="M 409.280938 165.868643 
L 408.028851 168.840064 
L 406.625933 171.490918 
L 405.088646 173.84762 
L 403.4322 175.934705 
L 401.670447 177.77464 
L 399.81609 179.388143 
L 397.88079 180.794342 
L 395.875192 182.010817 
L 393.284075 183.289139 
L 390.615465 184.325065 
L 387.884753 185.144668 
L 385.10567 185.771466 
L 381.724 186.298769 
L 378.308645 186.611336 
L 374.302926 186.743025 
L 370.295189 186.661848 
L 365.735764 186.352419 
L 360.659588 185.78009 
L 355.115211 184.926682 
L 349.163561 183.790565 
L 342.362321 182.262585 
L 334.862093 180.346255 
L 326.38438 177.946417 
L 316.813956 175.003954 
L 305.501183 171.285383 
L 291.851879 166.553275 
L 274.128742 160.15814 
L 244.974833 149.365129 
L 230.720937 144.055219 
L 230.720937 144.055219 
" style="fill:none;stroke:#ff7f0e;stroke-linecap:square;stroke-width:0.5;"/>
   </g>
   <g id="line2d_28">
    <path clip-path="url(#p84e1968436)" d="M 409.280938 197.069575 
L 404.30323 196.980566 
L 399.344548 196.667851 
L 393.72538 196.08425 
L 387.492743 195.19569 
L 380.708572 193.985711 
L 373.448591 192.456139 
L 365.175911 190.467584 
L 356.076689 188.032072 
L 346.366427 185.200656 
L 335.262099 181.729416 
L 322.392365 177.466782 
L 307.144922 172.174641 
L 287.759768 165.197834 
L 258.805974 154.512784 
L 230.720937 144.055219 
L 230.720938 144.055219 
" style="fill:none;stroke:#ff7f0e;stroke-linecap:square;stroke-width:0.5;"/>
   </g>
   <g id="line2d_29">
    <path clip-path="url(#p84e1968436)" d="M 409.280938 234.269425 
L 399.976987 227.300588 
L 390.34931 220.388699 
L 381.504414 214.316183 
L 372.481436 208.40189 
L 363.410234 202.745387 
L 355.117599 197.828445 
L 346.186094 192.800671 
L 337.475253 188.156909 
L 328.505018 183.629731 
L 319.009221 179.098474 
L 309.328484 174.726683 
L 298.689956 170.169634 
L 286.674489 165.272155 
L 272.026952 159.556423 
L 250.985641 151.611972 
L 230.720937 144.055219 
L 230.720938 144.055219 
" style="fill:none;stroke:#ff7f0e;stroke-linecap:square;stroke-width:0.5;"/>
   </g>
   <g id="line2d_30">
    <path clip-path="url(#p84e1968436)" d="M 399.861954 277.111219 
L 386.422006 261.748141 
L 374.515831 248.487901 
L 363.934144 237.025763 
L 354.498212 227.102251 
L 345.0628 217.503226 
L 336.699779 209.306033 
L 328.476879 201.571895 
L 321.208722 195.040157 
L 314.141819 188.996537 
L 307.892326 183.93093 
L 301.854393 179.307959 
L 296.078202 175.152617 
L 290.227498 171.224221 
L 284.77174 167.822878 
L 279.141054 164.577639 
L 273.538224 161.606654 
L 267.714969 158.770045 
L 261.330495 155.913202 
L 253.915732 152.851152 
L 244.038948 149.034319 
L 230.720937 144.055219 
L 230.720937 144.055219 
" style="fill:none;stroke:#ff7f0e;stroke-linecap:square;stroke-width:0.5;"/>
   </g>
   <g id="line2d_31">
    <path clip-path="url(#p84e1968436)" d="M 338.156925 277.111219 
L 314.836441 244.311311 
L 296.225035 218.504333 
L 281.630863 198.642634 
L 270.357669 183.673895 
L 261.751709 172.611192 
L 255.233114 164.579799 
L 250.113518 158.617277 
L 246.1606 154.347617 
L 243.029015 151.286586 
L 240.50797 149.124879 
L 238.356936 147.565832 
L 236.36002 146.39149 
L 234.19921 145.389276 
L 230.720937 144.055219 
L 230.720938 144.055219 
" style="fill:none;stroke:#ff7f0e;stroke-linecap:square;stroke-width:0.5;"/>
   </g>
   <g id="line2d_32">
    <path clip-path="url(#p84e1968436)" d="M 290.884806 277.111219 
L 273.414319 248.752418 
L 258.604466 224.289212 
L 247.286493 205.169318 
L 238.696073 190.245531 
L 231.774931 177.771909 
L 226.759055 168.273613 
L 223.192032 161.06189 
L 220.72325 155.606201 
L 219.083532 151.497879 
L 218.009217 148.221106 
L 217.462036 145.84322 
L 217.295354 144.138029 
L 217.399561 142.935039 
L 217.692932 142.105791 
L 218.114765 141.553616 
L 218.697127 141.169421 
L 219.465203 140.951655 
L 220.47649 140.912875 
L 221.87466 141.101007 
L 223.871096 141.61686 
L 227.063274 142.701243 
L 230.720938 144.055219 
L 230.720938 144.055219 
" style="fill:none;stroke:#ff7f0e;stroke-linecap:square;stroke-width:0.5;"/>
   </g>
   <g id="line2d_33">
    <path clip-path="url(#p84e1968436)" d="M 250.140508 277.111219 
L 238.638306 256.388252 
L 228.947176 238.48753 
L 220.819846 223.036305 
L 214.041779 209.710757 
L 208.426823 198.229509 
L 203.813471 188.34805 
L 200.061687 179.853997 
L 197.050003 172.562769 
L 194.379899 165.498049 
L 192.404566 159.589741 
L 191.009387 154.662287 
L 190.097307 150.566486 
L 189.586082 147.175386 
L 189.406007 144.380901 
L 189.498101 142.091085 
L 189.812486 140.227721 
L 190.307053 138.724322 
L 190.946269 137.524346 
L 191.700202 136.57974 
L 192.654344 135.77176 
L 193.692178 135.186632 
L 194.913966 134.748622 
L 196.439252 134.456091 
L 198.255466 134.357743 
L 200.328865 134.473414 
L 202.855627 134.84064 
L 205.956344 135.522519 
L 209.919159 136.636055 
L 215.180363 138.36487 
L 223.342376 141.311085 
L 230.720938 144.055219 
L 230.720938 144.055219 
" style="fill:none;stroke:#ff7f0e;stroke-linecap:square;stroke-width:0.5;"/>
   </g>
   <g id="line2d_34">
    <path clip-path="url(#p84e1968436)" d="M 211.301367 277.111219 
L 202.935545 260.643715 
L 194.270905 243.06107 
L 186.934932 227.596571 
L 180.767132 214.006955 
L 175.625415 202.076502 
L 171.384024 191.613953 
L 167.931715 182.44979 
L 165.170096 174.433761 
L 163.012279 167.432865 
L 161.381329 161.329035 
L 160.209272 156.017663 
L 159.436131 151.406154 
L 159.008917 147.412426 
L 158.88087 143.963769 
L 159.01075 140.99579 
L 159.362194 138.451451 
L 159.903167 136.280246 
L 160.60546 134.437456 
L 161.444255 132.883495 
L 162.397737 131.583327 
L 163.446746 130.505946 
L 164.769011 129.494159 
L 166.17534 128.710233 
L 167.860229 128.051135 
L 169.604136 127.604296 
L 171.610808 127.310853 
L 173.867876 127.19489 
L 176.57887 127.282759 
L 179.702018 127.616094 
L 183.384164 128.247377 
L 187.70442 129.229794 
L 192.823909 130.635817 
L 199.156548 132.622457 
L 207.32461 135.4349 
L 219.960085 140.050211 
L 230.720938 144.055219 
L 230.720938 144.055219 
" style="fill:none;stroke:#ff7f0e;stroke-linecap:square;stroke-width:0.5;"/>
   </g>
   <g id="line2d_35">
    <path clip-path="url(#p84e1968436)" d="M 170.557069 277.111219 
L 162.23984 259.216899 
L 155.061255 243.155299 
L 148.90382 228.747956 
L 143.662127 215.834514 
L 139.240848 204.269712 
L 135.554053 193.922379 
L 132.524083 184.673742 
L 130.080864 176.416412 
L 128.16119 169.053305 
L 126.708059 162.496658 
L 125.670062 156.667109 
L 125.00086 151.492921 
L 124.658692 146.909246 
L 124.605943 142.85748 
L 124.808716 139.284621 
L 125.236511 136.142793 
L 125.86188 133.388727 
L 126.660125 130.983313 
L 127.609064 128.891243 
L 128.688783 127.080648 
L 129.881379 125.522709 
L 131.170791 124.191406 
L 132.542586 123.063195 
L 134.279408 121.947695 
L 136.096609 121.061453 
L 137.976931 120.375515 
L 140.230438 119.794453 
L 142.859681 119.376214 
L 145.521673 119.176825 
L 148.529146 119.166448 
L 151.857944 119.367252 
L 155.798948 119.833845 
L 160.280632 120.601749 
L 165.204506 121.671946 
L 171.013932 123.168181 
L 177.694284 125.12261 
L 185.735735 127.712127 
L 196.050868 131.282492 
L 210.757583 136.632994 
L 230.720938 144.055219 
L 230.720937 144.055219 
" style="fill:none;stroke:#ff7f0e;stroke-linecap:square;stroke-width:0.5;"/>
   </g>
   <g id="line2d_36">
    <path clip-path="url(#p84e1968436)" d="M 123.28495 277.111219 
L 116.572654 261.302575 
L 110.673108 246.820133 
L 105.518007 233.559835 
L 101.044053 221.425107 
L 97.193159 210.327193 
L 93.912028 200.184524 
L 91.151413 190.921602 
L 88.865951 182.468763 
L 87.013946 174.761846 
L 85.556979 167.741618 
L 84.45966 161.353395 
L 83.689431 155.546755 
L 83.216339 150.275194 
L 83.012833 145.495827 
L 83.05357 141.169093 
L 83.315238 137.258494 
L 83.776415 133.730385 
L 84.417412 130.553736 
L 85.220141 127.699938 
L 86.167994 125.14262 
L 87.245716 122.857457 
L 88.439306 120.822029 
L 89.73592 119.015667 
L 91.123782 117.419326 
L 92.592095 116.01545 
L 94.525631 114.506731 
L 96.551971 113.244717 
L 98.655448 112.203383 
L 100.822057 111.359246 
L 103.487808 110.576901 
L 106.207454 110.015414 
L 109.426475 109.601139 
L 112.673726 109.408188 
L 116.395048 109.414437 
L 120.566489 109.658253 
L 125.151159 110.161997 
L 130.100038 110.931561 
L 135.783944 112.049758 
L 142.080828 113.52341 
L 149.227505 115.432208 
L 157.324404 117.829639 
L 166.925417 120.913644 
L 178.540048 124.889971 
L 193.652486 130.313769 
L 218.606649 139.54246 
L 230.720938 144.055219 
L 230.720937 144.055219 
" style="fill:none;stroke:#ff7f0e;stroke-linecap:square;stroke-width:0.5;"/>
   </g>
   <g id="line2d_37">
    <path clip-path="url(#p84e1968436)" d="M 61.579921 277.111219 
L 59.824987 272.574977 
L 58.129986 268.137605 
L 56.493863 263.797514 
L 54.915324 259.552725 
L 53.393189 255.401437 
L 51.926228 251.341767 
" style="fill:none;stroke:#ff7f0e;stroke-linecap:square;stroke-width:0.5;"/>
   </g>
   <g id="line2d_38">
    <path clip-path="url(#p84e1968436)" d="M 52.160938 234.269425 
L 50.974226 230.723677 
" style="fill:none;stroke:#ff7f0e;stroke-linecap:square;stroke-width:0.5;"/>
   </g>
   <g id="line2d_39">
    <path clip-path="url(#p84e1968436)" d="M 52.160938 197.069575 
L 51.467203 194.44405 
" style="fill:none;stroke:#ff7f0e;stroke-linecap:square;stroke-width:0.5;"/>
   </g>
   <g id="line2d_40">
    <path clip-path="url(#p84e1968436)" d="M 52.160938 165.868643 
L 51.880705 164.014979 
" style="fill:none;stroke:#ff7f0e;stroke-linecap:square;stroke-width:0.5;"/>
   </g>
   <g id="line2d_41">
    <path clip-path="url(#p84e1968436)" d="M 52.160938 136.841132 
L 52.66752 132.469582 
L 53.397001 128.531734 
L 54.327017 124.992251 
L 55.437084 121.818632 
L 56.708346 118.980847 
L 58.123539 116.451271 
L 59.666822 114.204444 
L 61.323651 112.21687 
L 63.080695 110.466898 
L 64.925748 108.934591 
L 66.84763 107.601573 
L 68.836103 106.450909 
L 71.401148 105.245361 
L 74.039111 104.272633 
L 76.735224 103.507651 
L 80.028909 102.832259 
L 83.367454 102.388757 
L 87.296017 102.123487 
L 91.238334 102.089215 
L 95.735272 102.285755 
L 100.754355 102.751686 
L 106.248956 103.508334 
L 112.159285 104.559305 
L 118.925883 106.009425 
L 126.400614 107.859535 
L 134.407216 110.072487 
L 143.593411 112.842856 
L 154.270936 116.299687 
L 167.265827 120.753669 
L 183.812049 126.678441 
L 208.745454 135.872399 
L 230.720938 144.055219 
L 230.720938 144.055219 
" style="fill:none;stroke:#ff7f0e;stroke-linecap:square;stroke-width:0.5;"/>
   </g>
   <g id="line2d_42">
    <path clip-path="url(#p84e1968436)" d="M 52.160938 107.112402 
L 54.185732 105.592167 
L 56.286602 104.275137 
L 58.453172 103.144105 
L 61.23925 101.967566 
L 64.096103 101.028067 
L 67.008733 100.300009 
L 70.558809 99.673112 
L 74.149643 99.281851 
L 77.763547 99.094696 
L 81.988668 99.097441 
L 86.804087 99.345413 
L 91.580986 99.807649 
L 96.883322 100.532332 
L 102.658802 101.534457 
L 109.395818 102.936535 
L 116.952693 104.754477 
L 125.155595 106.965301 
L 134.270411 109.652637 
L 144.809287 112.994864 
L 157.23621 117.176528 
L 172.447067 122.538962 
L 193.295067 130.144043 
L 230.720938 144.055219 
L 230.720937 144.055219 
" style="fill:none;stroke:#ff7f0e;stroke-linecap:square;stroke-width:0.5;"/>
   </g>
   <g id="line2d_43">
    <path clip-path="url(#p84e1968436)" d="M 52.160938 73.513392 
L 66.596855 79.991314 
L 82.058808 86.673394 
L 98.672121 93.597948 
L 116.839313 100.920556 
L 137.715442 109.086622 
L 163.64938 118.97939 
L 203.344348 133.852816 
L 230.720938 144.055219 
L 230.720938 144.055219 
" style="fill:none;stroke:#ff7f0e;stroke-linecap:square;stroke-width:0.5;"/>
   </g>
   <g id="line2d_44">
    <path clip-path="url(#p84e1968436)" d="M 52.160938 31.036434 
L 62.305873 40.890088 
L 72.838039 50.790008 
L 82.37639 59.436105 
L 91.04581 67.00558 
L 99.893164 74.421763 
L 107.906242 80.848464 
L 115.964482 87.01382 
L 123.254636 92.319498 
L 130.512093 97.33317 
L 137.65056 101.99558 
L 144.604345 106.276833 
L 151.778896 110.425453 
L 158.991725 114.328352 
L 166.447515 118.09592 
L 174.198234 121.750778 
L 182.418822 125.375387 
L 191.799623 129.25883 
L 203.276605 133.755752 
L 221.282063 140.537426 
L 230.720938 144.055219 
L 230.720937 144.055219 
" style="fill:none;stroke:#ff7f0e;stroke-linecap:square;stroke-width:0.5;"/>
   </g>
   <g id="line2d_45">
    <path clip-path="url(#p84e1968436)" d="M 94.983154 10.999219 
L 111.381047 32.060639 
L 125.206313 49.452699 
L 136.906477 63.834322 
L 147.757482 76.816714 
L 156.876415 87.388426 
L 165.223146 96.718825 
L 172.22045 104.219194 
L 178.581373 110.719255 
L 184.304167 116.248459 
L 189.416166 120.877792 
L 193.964225 124.705072 
L 198.221945 128.001097 
L 202.142493 130.762628 
L 206.008567 133.211263 
L 209.790928 135.340745 
L 213.707217 137.287668 
L 218.092083 139.212879 
L 223.94908 141.520439 
L 230.720938 144.055219 
L 230.720937 144.055219 
" style="fill:none;stroke:#ff7f0e;stroke-linecap:square;stroke-width:0.5;"/>
   </g>
   <g id="line2d_46">
    <path clip-path="url(#p84e1968436)" d="M 148.110285 10.999219 
L 184.128979 65.89036 
L 205.841701 99.351504 
L 218.872824 119.80137 
L 226.390629 131.980634 
L 230.222112 138.569545 
L 231.984821 141.997498 
L 232.585335 143.590722 
L 232.630459 144.245836 
L 232.456451 144.467812 
L 232.122537 144.501069 
L 231.391738 144.301774 
L 230.720937 144.055219 
L 230.720938 144.055219 
" style="fill:none;stroke:#ff7f0e;stroke-linecap:square;stroke-width:0.5;"/>
   </g>
   <g id="line2d_47">
    <path clip-path="url(#p84e1968436)" d="M 191.416909 10.999219 
L 204.467885 33.369796 
L 216.521647 54.482605 
L 226.249769 71.990905 
L 234.050249 86.493938 
L 240.254935 98.492092 
L 245.140403 108.403128 
L 248.936987 116.575644 
L 251.836595 123.300736 
L 253.998925 128.821276 
L 255.556807 133.339877 
L 256.620781 137.02573 
L 257.282648 140.019899 
L 257.618624 142.440038 
L 257.69194 144.38427 
L 257.554986 145.934388 
L 257.251118 147.15856 
L 256.761088 148.205222 
L 256.14924 148.983672 
L 255.373929 149.592483 
L 254.444566 150.024591 
L 253.294114 150.296754 
L 251.855824 150.385983 
L 250.085177 150.255685 
L 247.825945 149.848846 
L 244.916803 149.083992 
L 240.881091 147.775197 
L 233.87615 145.230193 
L 230.720937 144.055219 
L 230.720938 144.055219 
" style="fill:none;stroke:#ff7f0e;stroke-linecap:square;stroke-width:0.5;"/>
   </g>
   <g id="line2d_48">
    <path clip-path="url(#p84e1968436)" d="M 230.720937 10.999219 
L 240.66376 29.749631 
L 249.188414 46.270294 
L 256.463931 60.816556 
L 262.640004 73.614839 
L 267.849124 84.865833 
L 272.208586 94.747484 
L 275.822202 103.417555 
L 278.781735 111.015754 
L 281.168351 117.665916 
L 283.05391 123.47792 
L 284.501944 128.549151 
L 285.568549 132.965831 
L 286.303274 136.804351 
L 286.7499 140.132425 
L 286.94707 143.010042 
L 286.928868 145.490324 
L 286.725353 147.620324 
L 286.363019 149.441718 
L 285.770538 151.225622 
L 285.025817 152.690914 
L 284.156643 153.882158 
L 283.186903 154.838001 
L 281.981649 155.684907 
L 280.697686 156.310871 
L 279.186034 156.796115 
L 277.452558 157.113928 
L 275.335235 157.253773 
L 273.036082 157.181041 
L 270.247945 156.865186 
L 266.888666 156.245583 
L 262.956106 155.285997 
L 258.02006 153.839287 
L 251.707274 151.742875 
L 242.350191 148.375881 
L 230.720937 144.055219 
L 230.720938 144.055219 
" style="fill:none;stroke:#ff7f0e;stroke-linecap:square;stroke-width:0.5;"/>
   </g>
   <g id="line2d_49">
    <path clip-path="url(#p84e1968436)" d="M 230.720938 144.055219 
" style="fill:none;stroke:#ff7f0e;stroke-linecap:square;stroke-width:1.5;"/>
   </g>
   <g id="line2d_50">
    <defs>
     <path d="M 0 3 
C 0.795609 3 1.55874 2.683901 2.12132 2.12132 
C 2.683901 1.55874 3 0.795609 3 0 
C 3 -0.795609 2.683901 -1.55874 2.12132 -2.12132 
C 1.55874 -2.683901 0.795609 -3 0 -3 
C -0.795609 -3 -1.55874 -2.683901 -2.12132 -2.12132 
C -2.683901 -1.55874 -3 -0.795609 -3 0 
C -3 0.795609 -2.683901 1.55874 -2.12132 2.12132 
C -1.55874 2.683901 -0.795609 3 0 3 
z
" id="m8610b3ac5c" style="stroke:#ff0000;"/>
    </defs>
    <g clip-path="url(#p84e1968436)">
     <use style="fill:#ff0000;stroke:#ff0000;" x="230.720938" xlink:href="#m8610b3ac5c" y="144.055219"/>
    </g>
   </g>
   <g id="patch_56">
    <path d="M 52.160938 277.111219 
L 52.160938 10.999219 
" style="fill:none;stroke:#000000;stroke-linecap:square;stroke-linejoin:miter;stroke-width:0.8;"/>
   </g>
   <g id="patch_57">
    <path d="M 409.280938 277.111219 
L 409.280938 10.999219 
" style="fill:none;stroke:#000000;stroke-linecap:square;stroke-linejoin:miter;stroke-width:0.8;"/>
   </g>
   <g id="patch_58">
    <path d="M 52.160938 277.111219 
L 409.280938 277.111219 
" style="fill:none;stroke:#000000;stroke-linecap:square;stroke-linejoin:miter;stroke-width:0.8;"/>
   </g>
   <g id="patch_59">
    <path d="M 52.160938 10.999219 
L 409.280938 10.999219 
" style="fill:none;stroke:#000000;stroke-linecap:square;stroke-linejoin:miter;stroke-width:0.8;"/>
   </g>
   <g id="legend_1">
    <g id="patch_60">
     <path d="M 259.340938 274.111219 
L 405.080938 274.111219 
Q 406.280938 274.111219 406.280938 272.911219 
L 406.280938 255.657469 
Q 406.280938 254.457469 405.080938 254.457469 
L 259.340938 254.457469 
Q 258.140938 254.457469 258.140938 255.657469 
L 258.140938 272.911219 
Q 258.140938 274.111219 259.340938 274.111219 
z
" style="fill:#ffffff;opacity:0.8;stroke:#cccccc;stroke-linejoin:miter;"/>
    </g>
    <g id="line2d_51">
     <path d="M 260.540938 259.316531 
L 272.540938 259.316531 
" style="fill:none;stroke:#ff7f0e;stroke-linecap:square;stroke-width:1.5;"/>
    </g>
    <g id="line2d_52"/>
    <g id="text_21">
     <!-- system zlinearyzowany -->
     <defs>
      <path d="M 44.28125 53.078125 
L 44.28125 44.578125 
Q 40.484375 46.53125 36.375 47.5 
Q 32.28125 48.484375 27.875 48.484375 
Q 21.1875 48.484375 17.84375 46.4375 
Q 14.5 44.390625 14.5 40.28125 
Q 14.5 37.15625 16.890625 35.375 
Q 19.28125 33.59375 26.515625 31.984375 
L 29.59375 31.296875 
Q 39.15625 29.25 43.1875 25.515625 
Q 47.21875 21.78125 47.21875 15.09375 
Q 47.21875 7.46875 41.1875 3.015625 
Q 35.15625 -1.421875 24.609375 -1.421875 
Q 20.21875 -1.421875 15.453125 -0.5625 
Q 10.6875 0.296875 5.421875 2 
L 5.421875 11.28125 
Q 10.40625 8.6875 15.234375 7.390625 
Q 20.0625 6.109375 24.8125 6.109375 
Q 31.15625 6.109375 34.5625 8.28125 
Q 37.984375 10.453125 37.984375 14.40625 
Q 37.984375 18.0625 35.515625 20.015625 
Q 33.0625 21.96875 24.703125 23.78125 
L 21.578125 24.515625 
Q 13.234375 26.265625 9.515625 29.90625 
Q 5.8125 33.546875 5.8125 39.890625 
Q 5.8125 47.609375 11.28125 51.796875 
Q 16.75 56 26.8125 56 
Q 31.78125 56 36.171875 55.265625 
Q 40.578125 54.546875 44.28125 53.078125 
" id="DejaVuSans-73"/>
      <path d="M 32.171875 -5.078125 
Q 28.375 -14.84375 24.75 -17.8125 
Q 21.140625 -20.796875 15.09375 -20.796875 
L 7.90625 -20.796875 
L 7.90625 -13.28125 
L 13.1875 -13.28125 
Q 16.890625 -13.28125 18.9375 -11.515625 
Q 21 -9.765625 23.484375 -3.21875 
L 25.09375 0.875 
L 2.984375 54.6875 
L 12.5 54.6875 
L 29.59375 11.921875 
L 46.6875 54.6875 
L 56.203125 54.6875 
z
" id="DejaVuSans-79"/>
      <path d="M 18.3125 70.21875 
L 18.3125 54.6875 
L 36.8125 54.6875 
L 36.8125 47.703125 
L 18.3125 47.703125 
L 18.3125 18.015625 
Q 18.3125 11.328125 20.140625 9.421875 
Q 21.96875 7.515625 27.59375 7.515625 
L 36.8125 7.515625 
L 36.8125 0 
L 27.59375 0 
Q 17.1875 0 13.234375 3.875 
Q 9.28125 7.765625 9.28125 18.015625 
L 9.28125 47.703125 
L 2.6875 47.703125 
L 2.6875 54.6875 
L 9.28125 54.6875 
L 9.28125 70.21875 
z
" id="DejaVuSans-74"/>
      <path d="M 56.203125 29.59375 
L 56.203125 25.203125 
L 14.890625 25.203125 
Q 15.484375 15.921875 20.484375 11.0625 
Q 25.484375 6.203125 34.421875 6.203125 
Q 39.59375 6.203125 44.453125 7.46875 
Q 49.3125 8.734375 54.109375 11.28125 
L 54.109375 2.78125 
Q 49.265625 0.734375 44.1875 -0.34375 
Q 39.109375 -1.421875 33.890625 -1.421875 
Q 20.796875 -1.421875 13.15625 6.1875 
Q 5.515625 13.8125 5.515625 26.8125 
Q 5.515625 40.234375 12.765625 48.109375 
Q 20.015625 56 32.328125 56 
Q 43.359375 56 49.78125 48.890625 
Q 56.203125 41.796875 56.203125 29.59375 
M 47.21875 32.234375 
Q 47.125 39.59375 43.09375 43.984375 
Q 39.0625 48.390625 32.421875 48.390625 
Q 24.90625 48.390625 20.390625 44.140625 
Q 15.875 39.890625 15.1875 32.171875 
z
" id="DejaVuSans-65"/>
      <path d="M 52 44.1875 
Q 55.375 50.25 60.0625 53.125 
Q 64.75 56 71.09375 56 
Q 79.640625 56 84.28125 50.015625 
Q 88.921875 44.046875 88.921875 33.015625 
L 88.921875 0 
L 79.890625 0 
L 79.890625 32.71875 
Q 79.890625 40.578125 77.09375 44.375 
Q 74.3125 48.1875 68.609375 48.1875 
Q 61.625 48.1875 57.5625 43.546875 
Q 53.515625 38.921875 53.515625 30.90625 
L 53.515625 0 
L 44.484375 0 
L 44.484375 32.71875 
Q 44.484375 40.625 41.703125 44.40625 
Q 38.921875 48.1875 33.109375 48.1875 
Q 26.21875 48.1875 22.15625 43.53125 
Q 18.109375 38.875 18.109375 30.90625 
L 18.109375 0 
L 9.078125 0 
L 9.078125 54.6875 
L 18.109375 54.6875 
L 18.109375 46.1875 
Q 21.1875 51.21875 25.484375 53.609375 
Q 29.78125 56 35.6875 56 
Q 41.65625 56 45.828125 52.96875 
Q 50 49.953125 52 44.1875 
" id="DejaVuSans-6d"/>
      <path id="DejaVuSans-20"/>
      <path d="M 5.515625 54.6875 
L 48.1875 54.6875 
L 48.1875 46.484375 
L 14.40625 7.171875 
L 48.1875 7.171875 
L 48.1875 0 
L 4.296875 0 
L 4.296875 8.203125 
L 38.09375 47.515625 
L 5.515625 47.515625 
z
" id="DejaVuSans-7a"/>
      <path d="M 9.421875 75.984375 
L 18.40625 75.984375 
L 18.40625 0 
L 9.421875 0 
z
" id="DejaVuSans-6c"/>
      <path d="M 9.421875 54.6875 
L 18.40625 54.6875 
L 18.40625 0 
L 9.421875 0 
z
M 9.421875 75.984375 
L 18.40625 75.984375 
L 18.40625 64.59375 
L 9.421875 64.59375 
z
" id="DejaVuSans-69"/>
      <path d="M 54.890625 33.015625 
L 54.890625 0 
L 45.90625 0 
L 45.90625 32.71875 
Q 45.90625 40.484375 42.875 44.328125 
Q 39.84375 48.1875 33.796875 48.1875 
Q 26.515625 48.1875 22.3125 43.546875 
Q 18.109375 38.921875 18.109375 30.90625 
L 18.109375 0 
L 9.078125 0 
L 9.078125 54.6875 
L 18.109375 54.6875 
L 18.109375 46.1875 
Q 21.34375 51.125 25.703125 53.5625 
Q 30.078125 56 35.796875 56 
Q 45.21875 56 50.046875 50.171875 
Q 54.890625 44.34375 54.890625 33.015625 
" id="DejaVuSans-6e"/>
      <path d="M 34.28125 27.484375 
Q 23.390625 27.484375 19.1875 25 
Q 14.984375 22.515625 14.984375 16.5 
Q 14.984375 11.71875 18.140625 8.90625 
Q 21.296875 6.109375 26.703125 6.109375 
Q 34.1875 6.109375 38.703125 11.40625 
Q 43.21875 16.703125 43.21875 25.484375 
L 43.21875 27.484375 
z
M 52.203125 31.203125 
L 52.203125 0 
L 43.21875 0 
L 43.21875 8.296875 
Q 40.140625 3.328125 35.546875 0.953125 
Q 30.953125 -1.421875 24.3125 -1.421875 
Q 15.921875 -1.421875 10.953125 3.296875 
Q 6 8.015625 6 15.921875 
Q 6 25.140625 12.171875 29.828125 
Q 18.359375 34.515625 30.609375 34.515625 
L 43.21875 34.515625 
L 43.21875 35.40625 
Q 43.21875 41.609375 39.140625 45 
Q 35.0625 48.390625 27.6875 48.390625 
Q 23 48.390625 18.546875 47.265625 
Q 14.109375 46.140625 10.015625 43.890625 
L 10.015625 52.203125 
Q 14.9375 54.109375 19.578125 55.046875 
Q 24.21875 56 28.609375 56 
Q 40.484375 56 46.34375 49.84375 
Q 52.203125 43.703125 52.203125 31.203125 
" id="DejaVuSans-61"/>
      <path d="M 41.109375 46.296875 
Q 39.59375 47.171875 37.8125 47.578125 
Q 36.03125 48 33.890625 48 
Q 26.265625 48 22.1875 43.046875 
Q 18.109375 38.09375 18.109375 28.8125 
L 18.109375 0 
L 9.078125 0 
L 9.078125 54.6875 
L 18.109375 54.6875 
L 18.109375 46.1875 
Q 20.953125 51.171875 25.484375 53.578125 
Q 30.03125 56 36.53125 56 
Q 37.453125 56 38.578125 55.875 
Q 39.703125 55.765625 41.0625 55.515625 
z
" id="DejaVuSans-72"/>
      <path d="M 30.609375 48.390625 
Q 23.390625 48.390625 19.1875 42.75 
Q 14.984375 37.109375 14.984375 27.296875 
Q 14.984375 17.484375 19.15625 11.84375 
Q 23.34375 6.203125 30.609375 6.203125 
Q 37.796875 6.203125 41.984375 11.859375 
Q 46.1875 17.53125 46.1875 27.296875 
Q 46.1875 37.015625 41.984375 42.703125 
Q 37.796875 48.390625 30.609375 48.390625 
M 30.609375 56 
Q 42.328125 56 49.015625 48.375 
Q 55.71875 40.765625 55.71875 27.296875 
Q 55.71875 13.875 49.015625 6.21875 
Q 42.328125 -1.421875 30.609375 -1.421875 
Q 18.84375 -1.421875 12.171875 6.21875 
Q 5.515625 13.875 5.515625 27.296875 
Q 5.515625 40.765625 12.171875 48.375 
Q 18.84375 56 30.609375 56 
" id="DejaVuSans-6f"/>
      <path d="M 4.203125 54.6875 
L 13.1875 54.6875 
L 24.421875 12.015625 
L 35.59375 54.6875 
L 46.1875 54.6875 
L 57.421875 12.015625 
L 68.609375 54.6875 
L 77.59375 54.6875 
L 63.28125 0 
L 52.6875 0 
L 40.921875 44.828125 
L 29.109375 0 
L 18.5 0 
z
" id="DejaVuSans-77"/>
     </defs>
     <g transform="translate(277.340938 261.416531)scale(0.06 -0.06)">
      <use xlink:href="#DejaVuSans-73"/>
      <use x="52.099609" xlink:href="#DejaVuSans-79"/>
      <use x="111.279297" xlink:href="#DejaVuSans-73"/>
      <use x="163.378906" xlink:href="#DejaVuSans-74"/>
      <use x="202.587891" xlink:href="#DejaVuSans-65"/>
      <use x="264.111328" xlink:href="#DejaVuSans-6d"/>
      <use x="361.523438" xlink:href="#DejaVuSans-20"/>
      <use x="393.310547" xlink:href="#DejaVuSans-7a"/>
      <use x="445.800781" xlink:href="#DejaVuSans-6c"/>
      <use x="473.583984" xlink:href="#DejaVuSans-69"/>
      <use x="501.367188" xlink:href="#DejaVuSans-6e"/>
      <use x="564.746094" xlink:href="#DejaVuSans-65"/>
      <use x="626.269531" xlink:href="#DejaVuSans-61"/>
      <use x="687.548828" xlink:href="#DejaVuSans-72"/>
      <use x="728.662109" xlink:href="#DejaVuSans-79"/>
      <use x="787.841797" xlink:href="#DejaVuSans-7a"/>
      <use x="840.332031" xlink:href="#DejaVuSans-6f"/>
      <use x="901.513672" xlink:href="#DejaVuSans-77"/>
      <use x="983.300781" xlink:href="#DejaVuSans-61"/>
      <use x="1044.580078" xlink:href="#DejaVuSans-6e"/>
      <use x="1107.958984" xlink:href="#DejaVuSans-79"/>
     </g>
    </g>
    <g id="line2d_53"/>
    <g id="line2d_54">
     <g>
      <use style="fill:#ff0000;stroke:#ff0000;" x="266.540938" xlink:href="#m8610b3ac5c" y="268.363406"/>
     </g>
    </g>
    <g id="text_22">
     <!-- Punkt równowagi asymptotycznie stabilny -->
     <defs>
      <path d="M 19.671875 64.796875 
L 19.671875 37.40625 
L 32.078125 37.40625 
Q 38.96875 37.40625 42.71875 40.96875 
Q 46.484375 44.53125 46.484375 51.125 
Q 46.484375 57.671875 42.71875 61.234375 
Q 38.96875 64.796875 32.078125 64.796875 
z
M 9.8125 72.90625 
L 32.078125 72.90625 
Q 44.34375 72.90625 50.609375 67.359375 
Q 56.890625 61.8125 56.890625 51.125 
Q 56.890625 40.328125 50.609375 34.8125 
Q 44.34375 29.296875 32.078125 29.296875 
L 19.671875 29.296875 
L 19.671875 0 
L 9.8125 0 
z
" id="DejaVuSans-50"/>
      <path d="M 8.5 21.578125 
L 8.5 54.6875 
L 17.484375 54.6875 
L 17.484375 21.921875 
Q 17.484375 14.15625 20.5 10.265625 
Q 23.53125 6.390625 29.59375 6.390625 
Q 36.859375 6.390625 41.078125 11.03125 
Q 45.3125 15.671875 45.3125 23.6875 
L 45.3125 54.6875 
L 54.296875 54.6875 
L 54.296875 0 
L 45.3125 0 
L 45.3125 8.40625 
Q 42.046875 3.421875 37.71875 1 
Q 33.40625 -1.421875 27.6875 -1.421875 
Q 18.265625 -1.421875 13.375 4.4375 
Q 8.5 10.296875 8.5 21.578125 
M 31.109375 56 
z
" id="DejaVuSans-75"/>
      <path d="M 9.078125 75.984375 
L 18.109375 75.984375 
L 18.109375 31.109375 
L 44.921875 54.6875 
L 56.390625 54.6875 
L 27.390625 29.109375 
L 57.625 0 
L 45.90625 0 
L 18.109375 26.703125 
L 18.109375 0 
L 9.078125 0 
z
" id="DejaVuSans-6b"/>
      <path d="M 30.609375 48.390625 
Q 23.390625 48.390625 19.1875 42.75 
Q 14.984375 37.109375 14.984375 27.296875 
Q 14.984375 17.484375 19.15625 11.84375 
Q 23.34375 6.203125 30.609375 6.203125 
Q 37.796875 6.203125 41.984375 11.859375 
Q 46.1875 17.53125 46.1875 27.296875 
Q 46.1875 37.015625 41.984375 42.703125 
Q 37.796875 48.390625 30.609375 48.390625 
M 30.609375 56 
Q 42.328125 56 49.015625 48.375 
Q 55.71875 40.765625 55.71875 27.296875 
Q 55.71875 13.875 49.015625 6.21875 
Q 42.328125 -1.421875 30.609375 -1.421875 
Q 18.84375 -1.421875 12.171875 6.21875 
Q 5.515625 13.875 5.515625 27.296875 
Q 5.515625 40.765625 12.171875 48.375 
Q 18.84375 56 30.609375 56 
M 37.40625 79.984375 
L 47.125 79.984375 
L 31.21875 61.625 
L 23.734375 61.625 
z
" id="DejaVuSans-f3"/>
      <path d="M 45.40625 27.984375 
Q 45.40625 37.75 41.375 43.109375 
Q 37.359375 48.484375 30.078125 48.484375 
Q 22.859375 48.484375 18.828125 43.109375 
Q 14.796875 37.75 14.796875 27.984375 
Q 14.796875 18.265625 18.828125 12.890625 
Q 22.859375 7.515625 30.078125 7.515625 
Q 37.359375 7.515625 41.375 12.890625 
Q 45.40625 18.265625 45.40625 27.984375 
M 54.390625 6.78125 
Q 54.390625 -7.171875 48.1875 -13.984375 
Q 42 -20.796875 29.203125 -20.796875 
Q 24.46875 -20.796875 20.265625 -20.09375 
Q 16.0625 -19.390625 12.109375 -17.921875 
L 12.109375 -9.1875 
Q 16.0625 -11.328125 19.921875 -12.34375 
Q 23.78125 -13.375 27.78125 -13.375 
Q 36.625 -13.375 41.015625 -8.765625 
Q 45.40625 -4.15625 45.40625 5.171875 
L 45.40625 9.625 
Q 42.625 4.78125 38.28125 2.390625 
Q 33.9375 0 27.875 0 
Q 17.828125 0 11.671875 7.65625 
Q 5.515625 15.328125 5.515625 27.984375 
Q 5.515625 40.671875 11.671875 48.328125 
Q 17.828125 56 27.875 56 
Q 33.9375 56 38.28125 53.609375 
Q 42.625 51.21875 45.40625 46.390625 
L 45.40625 54.6875 
L 54.390625 54.6875 
z
" id="DejaVuSans-67"/>
      <path d="M 18.109375 8.203125 
L 18.109375 -20.796875 
L 9.078125 -20.796875 
L 9.078125 54.6875 
L 18.109375 54.6875 
L 18.109375 46.390625 
Q 20.953125 51.265625 25.265625 53.625 
Q 29.59375 56 35.59375 56 
Q 45.5625 56 51.78125 48.09375 
Q 58.015625 40.1875 58.015625 27.296875 
Q 58.015625 14.40625 51.78125 6.484375 
Q 45.5625 -1.421875 35.59375 -1.421875 
Q 29.59375 -1.421875 25.265625 0.953125 
Q 20.953125 3.328125 18.109375 8.203125 
M 48.6875 27.296875 
Q 48.6875 37.203125 44.609375 42.84375 
Q 40.53125 48.484375 33.40625 48.484375 
Q 26.265625 48.484375 22.1875 42.84375 
Q 18.109375 37.203125 18.109375 27.296875 
Q 18.109375 17.390625 22.1875 11.75 
Q 26.265625 6.109375 33.40625 6.109375 
Q 40.53125 6.109375 44.609375 11.75 
Q 48.6875 17.390625 48.6875 27.296875 
" id="DejaVuSans-70"/>
      <path d="M 48.78125 52.59375 
L 48.78125 44.1875 
Q 44.96875 46.296875 41.140625 47.34375 
Q 37.3125 48.390625 33.40625 48.390625 
Q 24.65625 48.390625 19.8125 42.84375 
Q 14.984375 37.3125 14.984375 27.296875 
Q 14.984375 17.28125 19.8125 11.734375 
Q 24.65625 6.203125 33.40625 6.203125 
Q 37.3125 6.203125 41.140625 7.25 
Q 44.96875 8.296875 48.78125 10.40625 
L 48.78125 2.09375 
Q 45.015625 0.34375 40.984375 -0.53125 
Q 36.96875 -1.421875 32.421875 -1.421875 
Q 20.0625 -1.421875 12.78125 6.34375 
Q 5.515625 14.109375 5.515625 27.296875 
Q 5.515625 40.671875 12.859375 48.328125 
Q 20.21875 56 33.015625 56 
Q 37.15625 56 41.109375 55.140625 
Q 45.0625 54.296875 48.78125 52.59375 
" id="DejaVuSans-63"/>
      <path d="M 48.6875 27.296875 
Q 48.6875 37.203125 44.609375 42.84375 
Q 40.53125 48.484375 33.40625 48.484375 
Q 26.265625 48.484375 22.1875 42.84375 
Q 18.109375 37.203125 18.109375 27.296875 
Q 18.109375 17.390625 22.1875 11.75 
Q 26.265625 6.109375 33.40625 6.109375 
Q 40.53125 6.109375 44.609375 11.75 
Q 48.6875 17.390625 48.6875 27.296875 
M 18.109375 46.390625 
Q 20.953125 51.265625 25.265625 53.625 
Q 29.59375 56 35.59375 56 
Q 45.5625 56 51.78125 48.09375 
Q 58.015625 40.1875 58.015625 27.296875 
Q 58.015625 14.40625 51.78125 6.484375 
Q 45.5625 -1.421875 35.59375 -1.421875 
Q 29.59375 -1.421875 25.265625 0.953125 
Q 20.953125 3.328125 18.109375 8.203125 
L 18.109375 0 
L 9.078125 0 
L 9.078125 75.984375 
L 18.109375 75.984375 
z
" id="DejaVuSans-62"/>
     </defs>
     <g transform="translate(277.340938 270.463406)scale(0.06 -0.06)">
      <use xlink:href="#DejaVuSans-50"/>
      <use x="60.287109" xlink:href="#DejaVuSans-75"/>
      <use x="123.666016" xlink:href="#DejaVuSans-6e"/>
      <use x="187.044922" xlink:href="#DejaVuSans-6b"/>
      <use x="244.955078" xlink:href="#DejaVuSans-74"/>
      <use x="284.164062" xlink:href="#DejaVuSans-20"/>
      <use x="315.951172" xlink:href="#DejaVuSans-72"/>
      <use x="357.033203" xlink:href="#DejaVuSans-f3"/>
      <use x="418.214844" xlink:href="#DejaVuSans-77"/>
      <use x="500.001953" xlink:href="#DejaVuSans-6e"/>
      <use x="563.380859" xlink:href="#DejaVuSans-6f"/>
      <use x="624.5625" xlink:href="#DejaVuSans-77"/>
      <use x="706.349609" xlink:href="#DejaVuSans-61"/>
      <use x="767.628906" xlink:href="#DejaVuSans-67"/>
      <use x="831.105469" xlink:href="#DejaVuSans-69"/>
      <use x="858.888672" xlink:href="#DejaVuSans-20"/>
      <use x="890.675781" xlink:href="#DejaVuSans-61"/>
      <use x="951.955078" xlink:href="#DejaVuSans-73"/>
      <use x="1004.054688" xlink:href="#DejaVuSans-79"/>
      <use x="1063.234375" xlink:href="#DejaVuSans-6d"/>
      <use x="1160.646484" xlink:href="#DejaVuSans-70"/>
      <use x="1224.123047" xlink:href="#DejaVuSans-74"/>
      <use x="1263.332031" xlink:href="#DejaVuSans-6f"/>
      <use x="1324.513672" xlink:href="#DejaVuSans-74"/>
      <use x="1363.722656" xlink:href="#DejaVuSans-79"/>
      <use x="1422.902344" xlink:href="#DejaVuSans-63"/>
      <use x="1477.882812" xlink:href="#DejaVuSans-7a"/>
      <use x="1530.373047" xlink:href="#DejaVuSans-6e"/>
      <use x="1593.751953" xlink:href="#DejaVuSans-69"/>
      <use x="1621.535156" xlink:href="#DejaVuSans-65"/>
      <use x="1683.058594" xlink:href="#DejaVuSans-20"/>
      <use x="1714.845703" xlink:href="#DejaVuSans-73"/>
      <use x="1766.945312" xlink:href="#DejaVuSans-74"/>
      <use x="1806.154297" xlink:href="#DejaVuSans-61"/>
      <use x="1867.433594" xlink:href="#DejaVuSans-62"/>
      <use x="1930.910156" xlink:href="#DejaVuSans-69"/>
      <use x="1958.693359" xlink:href="#DejaVuSans-6c"/>
      <use x="1986.476562" xlink:href="#DejaVuSans-6e"/>
      <use x="2049.855469" xlink:href="#DejaVuSans-79"/>
     </g>
    </g>
   </g>
  </g>
 </g>
 <defs>
  <clipPath id="p84e1968436">
   <rect height="266.112" width="357.12" x="52.160938" y="10.999219"/>
  </clipPath>
 </defs>
</svg>
