<?xml version="1.0" encoding="utf-8" standalone="no"?>
<!DOCTYPE svg PUBLIC "-//W3C//DTD SVG 1.1//EN"
  "http://www.w3.org/Graphics/SVG/1.1/DTD/svg11.dtd">
<!-- Created with matplotlib (http://matplotlib.org/) -->
<svg height="314pt" version="1.1" viewBox="0 0 410 314" width="410pt" xmlns="http://www.w3.org/2000/svg" xmlns:xlink="http://www.w3.org/1999/xlink">
 <defs>
  <style type="text/css">
*{stroke-linecap:butt;stroke-linejoin:round;}
  </style>
 </defs>
 <g id="figure_1">
  <g id="patch_1">
   <path d="M 0 314.36825 
L 410.440313 314.36825 
L 410.440313 0 
L 0 0 
z
" style="fill:#ffffff;"/>
  </g>
  <g id="axes_1">
   <g id="patch_2">
    <path d="M 42.620313 276.812 
L 399.740313 276.812 
L 399.740313 10.7 
L 42.620313 10.7 
z
" style="fill:#ffffff;"/>
   </g>
   <g id="patch_3">
    <path clip-path="url(#p06660a732e)" d="M 260.752198 74.51655 
L 254.692544 70.641143 
L 257.968318 69.615212 
L 258.000258 69.603157 
L 258.001241 69.604901 
L 261.277016 68.578969 
z
" style="fill:#ff7f0e;stroke:#ff7f0e;stroke-linejoin:miter;"/>
   </g>
   <g id="patch_4">
    <path clip-path="url(#p06660a732e)" d="M 280.781023 116.501444 
L 275.31742 112.16179 
L 278.72254 111.405018 
L 278.756335 111.396345 
L 278.756762 111.397412 
L 282.161883 110.640639 
z
" style="fill:#ff7f0e;stroke:#ff7f0e;stroke-linejoin:miter;"/>
   </g>
   <g id="patch_5">
    <path clip-path="url(#p06660a732e)" d="M 299.340108 82.577074 
L 293.618017 78.426518 
L 296.973577 77.555454 
L 297.006425 77.544826 
L 297.007301 77.5467 
L 300.362862 76.675636 
z
" style="fill:#ff7f0e;stroke:#ff7f0e;stroke-linejoin:miter;"/>
   </g>
   <g id="patch_6">
    <path clip-path="url(#p06660a732e)" d="M 317.319962 142.053556 
L 313.204116 136.954389 
L 316.746699 136.74847 
L 316.782214 136.745556 
L 316.782302 136.7464 
L 320.324885 136.540481 
z
" style="fill:#ff7f0e;stroke:#ff7f0e;stroke-linejoin:miter;"/>
   </g>
   <g id="patch_7">
    <path clip-path="url(#p06660a732e)" d="M 345.526169 103.161095 
L 340.344256 98.633657 
L 343.793618 97.997796 
L 343.827683 97.989592 
L 343.828285 97.991405 
L 347.277647 97.355544 
z
" style="fill:#ff7f0e;stroke:#ff7f0e;stroke-linejoin:miter;"/>
   </g>
   <g id="patch_8">
    <path clip-path="url(#p06660a732e)" d="M 317.569095 180.317929 
L 324.112999 176.907673 
L 324.632222 179.527068 
L 324.637921 179.55334 
L 324.637441 179.553393 
L 325.156664 182.172787 
z
" style="fill:#ff7f0e;stroke:#ff7f0e;stroke-linejoin:miter;"/>
   </g>
   <g id="patch_9">
    <path clip-path="url(#p06660a732e)" d="M 398.80342 133.070786 
L 394.582872 128.019366 
L 398.120787 127.772893 
L 398.156141 127.768793 
L 398.156344 127.770416 
L 401.69426 127.523942 
z
" style="fill:#ff7f0e;stroke:#ff7f0e;stroke-linejoin:miter;"/>
   </g>
   <g id="patch_10">
    <path clip-path="url(#p06660a732e)" d="M 340.372396 192.072924 
L 347.750941 189.797505 
L 347.49794 192.4386 
L 347.496051 192.465178 
L 347.495397 192.465143 
L 347.242397 195.106238 
z
" style="fill:#ff7f0e;stroke:#ff7f0e;stroke-linejoin:miter;"/>
   </g>
   <g id="patch_11">
    <path clip-path="url(#p06660a732e)" d="M 401.871374 35.82094 
L 396.333036 31.534212 
L 399.724761 30.744743 
L 399.757356 30.733248 
L 399.758849 30.736808 
L 403.150574 29.947339 
z
" style="fill:#ff7f0e;stroke:#ff7f0e;stroke-linejoin:miter;"/>
   </g>
   <g id="patch_12">
    <path clip-path="url(#p06660a732e)" d="M 401.503107 78.374662 
L 396.280399 73.873328 
L 399.723937 73.220173 
L 399.757617 73.210891 
L 399.758545 73.213609 
L 403.202083 72.560454 
z
" style="fill:#ff7f0e;stroke:#ff7f0e;stroke-linejoin:miter;"/>
   </g>
   <g id="patch_13">
    <path clip-path="url(#p06660a732e)" d="M 400.972859 112.057691 
L 396.223128 107.274278 
L 399.723206 106.817529 
L 399.757901 106.810888 
L 399.758383 106.812939 
L 403.25846 106.356191 
z
" style="fill:#ff7f0e;stroke:#ff7f0e;stroke-linejoin:miter;"/>
   </g>
   <g id="patch_14">
    <path clip-path="url(#p06660a732e)" d="M 400.057033 141.860381 
L 396.17271 136.661345 
L 399.722561 136.543964 
L 399.758151 136.541323 
L 399.758238 136.542784 
L 403.308089 136.425402 
z
" style="fill:#ff7f0e;stroke:#ff7f0e;stroke-linejoin:miter;"/>
   </g>
   <g id="patch_15">
    <path clip-path="url(#p06660a732e)" d="M 330.232951 190.956101 
L 337.963129 189.463601 
L 337.221986 192.05318 
L 337.215185 192.079309 
L 337.214538 192.079206 
L 336.473395 194.668785 
z
" style="fill:#ff7f0e;stroke:#ff7f0e;stroke-linejoin:miter;"/>
   </g>
   <g id="patch_16">
    <path clip-path="url(#p06660a732e)" d="M 274.393734 172.04887 
L 282.36763 172.368792 
L 280.60995 174.66998 
L 280.592699 174.693283 
L 280.592285 174.693107 
L 278.834605 176.994295 
z
" style="fill:#ff7f0e;stroke:#ff7f0e;stroke-linejoin:miter;"/>
   </g>
   <g id="patch_17">
    <path clip-path="url(#p06660a732e)" d="M 334.615968 195.105985 
L 342.494422 194.135184 
L 341.445127 196.664919 
L 341.43529 196.690507 
L 341.434581 196.690344 
L 340.385286 199.22008 
z
" style="fill:#ff7f0e;stroke:#ff7f0e;stroke-linejoin:miter;"/>
   </g>
   <g id="patch_18">
    <path clip-path="url(#p06660a732e)" d="M 273.549749 172.237473 
L 281.508957 172.719442 
L 279.667649 174.984026 
L 279.649561 175.006974 
L 279.649143 175.006786 
L 277.807835 177.27137 
z
" style="fill:#ff7f0e;stroke:#ff7f0e;stroke-linejoin:miter;"/>
   </g>
   <g id="patch_19">
    <path clip-path="url(#p06660a732e)" d="M 345.432187 210.80132 
L 353.38966 211.298947 
L 351.540334 213.559901 
L 351.522682 213.583048 
L 351.521748 213.582624 
L 349.672422 215.843577 
z
" style="fill:#ff7f0e;stroke:#ff7f0e;stroke-linejoin:miter;"/>
   </g>
   <g id="patch_20">
    <path clip-path="url(#p06660a732e)" d="M 274.477017 175.106022 
L 282.357419 176.068008 
L 280.27541 178.213696 
L 280.254946 178.235509 
L 280.254485 178.235261 
L 278.172477 180.380949 
z
" style="fill:#ff7f0e;stroke:#ff7f0e;stroke-linejoin:miter;"/>
   </g>
   <g id="patch_21">
    <path clip-path="url(#p06660a732e)" d="M 330.686752 230.006785 
L 338.193668 232.035697 
L 335.616124 233.858302 
L 335.591422 233.877564 
L 335.590219 233.876619 
L 333.012675 235.699223 
z
" style="fill:#ff7f0e;stroke:#ff7f0e;stroke-linejoin:miter;"/>
   </g>
   <g id="patch_22">
    <path clip-path="url(#p06660a732e)" d="M 287.359393 195.959379 
L 294.864586 197.991828 
L 292.285496 199.813218 
L 292.260324 199.832112 
L 292.259575 199.831523 
L 289.680485 201.652912 
z
" style="fill:#ff7f0e;stroke:#ff7f0e;stroke-linejoin:miter;"/>
   </g>
   <g id="patch_23">
    <path clip-path="url(#p06660a732e)" d="M 276.403869 221.241401 
L 283.384111 224.131587 
L 280.451358 225.6266 
L 280.422974 225.642813 
L 280.421883 225.641625 
L 277.489131 227.136637 
z
" style="fill:#ff7f0e;stroke:#ff7f0e;stroke-linejoin:miter;"/>
   </g>
   <g id="patch_24">
    <path clip-path="url(#p06660a732e)" d="M 251.345327 193.199904 
L 258.241859 196.199601 
L 255.267273 197.647995 
L 255.238096 197.66337 
L 255.237378 197.662551 
L 252.262793 199.110945 
z
" style="fill:#ff7f0e;stroke:#ff7f0e;stroke-linejoin:miter;"/>
   </g>
   <g id="patch_25">
    <path clip-path="url(#p06660a732e)" d="M 243.855123 228.706034 
L 250.461099 232.049179 
L 247.360894 233.343055 
L 247.330928 233.357644 
L 247.329736 233.356059 
L 244.229531 234.649935 
z
" style="fill:#ff7f0e;stroke:#ff7f0e;stroke-linejoin:miter;"/>
   </g>
   <g id="patch_26">
    <path clip-path="url(#p06660a732e)" d="M 213.326425 184.804809 
L 219.636777 188.45129 
L 216.433385 189.597128 
L 216.401799 189.60959 
L 216.401191 189.608644 
L 213.197799 190.754482 
z
" style="fill:#ff7f0e;stroke:#ff7f0e;stroke-linejoin:miter;"/>
   </g>
   <g id="patch_27">
    <path clip-path="url(#p06660a732e)" d="M 211.614104 234.214711 
L 217.949663 237.836842 
L 214.754261 238.995001 
L 214.723412 239.008579 
L 214.722147 239.006641 
L 211.526745 240.1648 
z
" style="fill:#ff7f0e;stroke:#ff7f0e;stroke-linejoin:miter;"/>
   </g>
   <g id="patch_28">
    <path clip-path="url(#p06660a732e)" d="M 177.130408 172.691287 
L 182.814805 176.870505 
L 179.451437 177.724686 
L 179.418084 177.734253 
L 179.417634 177.733271 
L 176.054267 178.587452 
z
" style="fill:#ff7f0e;stroke:#ff7f0e;stroke-linejoin:miter;"/>
   </g>
   <g id="patch_29">
    <path clip-path="url(#p06660a732e)" d="M 160.292244 204.552126 
L 166.138185 208.605716 
L 162.809769 209.532807 
L 162.777189 209.543861 
L 162.776318 209.542125 
L 159.447902 210.469215 
z
" style="fill:#ff7f0e;stroke:#ff7f0e;stroke-linejoin:miter;"/>
   </g>
   <g id="patch_30">
    <path clip-path="url(#p06660a732e)" d="M 145.370804 168.553807 
L 150.610628 173.044081 
L 147.169591 173.704513 
L 147.135402 173.712292 
L 147.135008 173.711151 
L 143.693971 174.371583 
z
" style="fill:#ff7f0e;stroke:#ff7f0e;stroke-linejoin:miter;"/>
   </g>
   <g id="patch_31">
    <path clip-path="url(#p06660a732e)" d="M 132.613937 223.138985 
L 138.394264 227.24449 
L 135.051177 228.141791 
L 135.018695 228.15312 
L 135.017579 228.150809 
L 131.674492 229.048109 
z
" style="fill:#ff7f0e;stroke:#ff7f0e;stroke-linejoin:miter;"/>
   </g>
   <g id="patch_32">
    <path clip-path="url(#p06660a732e)" d="M 108.316404 149.637368 
L 112.590717 154.663622 
L 109.055543 154.931049 
L 109.020157 154.934786 
L 109.020014 154.933736 
L 105.48484 155.201163 
z
" style="fill:#ff7f0e;stroke:#ff7f0e;stroke-linejoin:miter;"/>
   </g>
   <g id="patch_33">
    <path clip-path="url(#p06660a732e)" d="M 76.347775 189.788245 
L 81.499056 194.335051 
L 78.045445 194.957974 
L 78.011409 194.966307 
L 78.010735 194.964235 
L 74.557124 195.587157 
z
" style="fill:#ff7f0e;stroke:#ff7f0e;stroke-linejoin:miter;"/>
   </g>
   <g id="patch_34">
    <path clip-path="url(#p06660a732e)" d="M 69.038543 130.446713 
L 71.971945 135.981135 
L 68.432194 135.749756 
L 68.396504 135.748399 
L 68.396618 135.747431 
L 64.856867 135.516052 
z
" style="fill:#ff7f0e;stroke:#ff7f0e;stroke-linejoin:miter;"/>
   </g>
   <g id="patch_35">
    <path clip-path="url(#p06660a732e)" d="M 46.343196 264.037517 
L 51.963656 268.264478 
L 48.587512 269.090197 
L 48.555238 269.102257 
L 48.553581 269.098495 
L 45.177436 269.924213 
z
" style="fill:#ff7f0e;stroke:#ff7f0e;stroke-linejoin:miter;"/>
   </g>
   <g id="patch_36">
    <path clip-path="url(#p06660a732e)" d="M 44.714267 260.269176 
L 50.311388 264.513298 
L 46.930722 265.32868 
L 46.898352 265.340574 
L 46.896745 265.336874 
L 43.516079 266.152256 
z
" style="fill:#ff7f0e;stroke:#ff7f0e;stroke-linejoin:miter;"/>
   </g>
   <g id="patch_37">
    <path clip-path="url(#p06660a732e)" d="M 40.660073 228.848974 
L 46.053362 233.237194 
L 42.636294 233.963449 
L 42.603141 233.973856 
L 42.601952 233.970748 
L 39.184883 234.697002 
z
" style="fill:#ff7f0e;stroke:#ff7f0e;stroke-linejoin:miter;"/>
   </g>
   <g id="patch_38">
    <path clip-path="url(#p06660a732e)" d="M 41.093702 191.568626 
L 46.108365 196.19946 
L 42.637061 196.765144 
L 42.602869 196.773198 
L 42.602173 196.770829 
L 39.130869 197.336513 
z
" style="fill:#ff7f0e;stroke:#ff7f0e;stroke-linejoin:miter;"/>
   </g>
   <g id="patch_39">
    <path clip-path="url(#p06660a732e)" d="M 41.771819 160.283098 
L 46.165959 165.251646 
L 42.637761 165.566094 
L 42.602583 165.571004 
L 42.602302 165.569254 
L 39.074104 165.883701 
z
" style="fill:#ff7f0e;stroke:#ff7f0e;stroke-linejoin:miter;"/>
   </g>
   <g id="patch_40">
    <path clip-path="url(#p06660a732e)" d="M 106.33688 95.910021 
L 98.788042 97.850645 
L 99.253748 95.22567 
L 99.257778 95.199224 
L 99.258429 95.199288 
L 99.724136 92.574314 
z
" style="fill:#ff7f0e;stroke:#ff7f0e;stroke-linejoin:miter;"/>
   </g>
   <g id="patch_41">
    <path clip-path="url(#p06660a732e)" d="M 147.898684 107.357367 
L 139.916833 107.535903 
L 141.409863 105.133163 
L 141.424351 105.108837 
L 141.424868 105.109015 
L 142.917898 102.706276 
z
" style="fill:#ff7f0e;stroke:#ff7f0e;stroke-linejoin:miter;"/>
   </g>
   <g id="patch_42">
    <path clip-path="url(#p06660a732e)" d="M 86.458771 91.692145 
L 79.432832 94.52018 
L 79.320505 91.873689 
L 79.31868 91.847108 
L 79.319376 91.847091 
L 79.207049 89.2006 
z
" style="fill:#ff7f0e;stroke:#ff7f0e;stroke-linejoin:miter;"/>
   </g>
   <g id="patch_43">
    <path clip-path="url(#p06660a732e)" d="M 164.042638 113.52901 
L 156.066884 113.235928 
L 157.810598 110.928849 
L 157.827683 110.905477 
L 157.828122 110.905662 
L 159.571836 108.598582 
z
" style="fill:#ff7f0e;stroke:#ff7f0e;stroke-linejoin:miter;"/>
   </g>
   <g id="patch_44">
    <path clip-path="url(#p06660a732e)" d="M 108.335162 88.660745 
L 100.356759 88.910602 
L 101.811009 86.494692 
L 101.824858 86.470156 
L 101.825625 86.470412 
L 103.279875 84.054502 
z
" style="fill:#ff7f0e;stroke:#ff7f0e;stroke-linejoin:miter;"/>
   </g>
   <g id="patch_45">
    <path clip-path="url(#p06660a732e)" d="M 152.195116 106.56449 
L 144.232717 106.112729 
L 146.058525 103.841188 
L 146.076341 103.81812 
L 146.076875 103.818358 
L 147.902684 101.546816 
z
" style="fill:#ff7f0e;stroke:#ff7f0e;stroke-linejoin:miter;"/>
   </g>
   <g id="patch_46">
    <path clip-path="url(#p06660a732e)" d="M 118.876511 77.976491 
L 111.110165 76.59217 
L 113.395052 74.564352 
L 113.417091 74.543394 
L 113.418015 74.543972 
L 115.702902 72.516155 
z
" style="fill:#ff7f0e;stroke:#ff7f0e;stroke-linejoin:miter;"/>
   </g>
   <g id="patch_47">
    <path clip-path="url(#p06660a732e)" d="M 146.310763 95.254326 
L 138.553505 93.841996 
L 140.851542 91.822447 
L 140.873944 91.801712 
L 140.874638 91.80215 
L 143.172676 89.782601 
z
" style="fill:#ff7f0e;stroke:#ff7f0e;stroke-linejoin:miter;"/>
   </g>
   <g id="patch_48">
    <path clip-path="url(#p06660a732e)" d="M 118.70255 41.574828 
L 111.453336 39.079233 
L 114.228858 37.425927 
L 114.255334 37.407989 
L 114.256753 37.409311 
L 117.032275 35.756004 
z
" style="fill:#ff7f0e;stroke:#ff7f0e;stroke-linejoin:miter;"/>
   </g>
   <g id="patch_49">
    <path clip-path="url(#p06660a732e)" d="M 175.206034 95.069276 
L 168.009129 92.490985 
L 170.818411 90.869649 
L 170.84594 90.852675 
L 170.846645 90.853354 
L 173.655927 89.232018 
z
" style="fill:#ff7f0e;stroke:#ff7f0e;stroke-linejoin:miter;"/>
   </g>
   <g id="patch_50">
    <path clip-path="url(#p06660a732e)" d="M 167.671076 44.628309 
L 160.845087 41.540316 
L 163.852795 40.130415 
L 163.881643 40.114611 
L 163.883023 40.116245 
L 166.89073 38.706344 
z
" style="fill:#ff7f0e;stroke:#ff7f0e;stroke-linejoin:miter;"/>
   </g>
   <g id="patch_51">
    <path clip-path="url(#p06660a732e)" d="M 213.436763 102.391558 
L 206.869981 99.005809 
L 209.985142 97.732035 
L 210.015838 97.718402 
L 210.01645 97.719233 
L 213.131611 96.445459 
z
" style="fill:#ff7f0e;stroke:#ff7f0e;stroke-linejoin:miter;"/>
   </g>
   <g id="patch_52">
    <path clip-path="url(#p06660a732e)" d="M 216.30328 58.297492 
L 209.85352 54.78906 
L 213.01092 53.574406 
L 213.041454 53.560468 
L 213.042653 53.562198 
L 216.200052 52.347544 
z
" style="fill:#ff7f0e;stroke:#ff7f0e;stroke-linejoin:miter;"/>
   </g>
   <g id="patch_53">
    <path clip-path="url(#p06660a732e)" d="M 256.550652 128.378554 
L 251.029808 124.079313 
L 254.424734 123.297522 
L 254.458584 123.289014 
L 254.458854 123.289665 
L 257.85378 122.507874 
z
" style="fill:#ff7f0e;stroke:#ff7f0e;stroke-linejoin:miter;"/>
   </g>
   <g id="patch_54">
    <path clip-path="url(#p06660a732e)" d="M 267.021492 86.200879 
L 261.072491 82.231418 
L 264.376481 81.257021 
L 264.408859 81.245668 
L 264.409687 81.247228 
L 267.713677 80.27283 
z
" style="fill:#ff7f0e;stroke:#ff7f0e;stroke-linejoin:miter;"/>
   </g>
   <g id="patch_55">
    <path clip-path="url(#p06660a732e)" d="M 287.117818 145.953143 
L 283.17958 140.776679 
L 286.728104 140.638815 
L 286.763729 140.636884 
L 286.763767 140.63743 
L 290.312292 140.499566 
z
" style="fill:#ff7f0e;stroke:#ff7f0e;stroke-linejoin:miter;"/>
   </g>
   <g id="matplotlib.axis_1">
    <g id="xtick_1">
     <g id="line2d_1">
      <defs>
       <path d="M 0 0 
L 0 3.5 
" id="m488190b109" style="stroke:#000000;stroke-width:0.8;"/>
      </defs>
      <g>
       <use style="stroke:#000000;stroke-width:0.8;" x="78.332313" xlink:href="#m488190b109" y="276.812"/>
      </g>
     </g>
     <g id="text_1">
      <!-- −4 -->
      <defs>
       <path d="M 10.59375 35.5 
L 73.1875 35.5 
L 73.1875 27.203125 
L 10.59375 27.203125 
z
" id="DejaVuSans-2212"/>
       <path d="M 37.796875 64.3125 
L 12.890625 25.390625 
L 37.796875 25.390625 
z
M 35.203125 72.90625 
L 47.609375 72.90625 
L 47.609375 25.390625 
L 58.015625 25.390625 
L 58.015625 17.1875 
L 47.609375 17.1875 
L 47.609375 0 
L 37.796875 0 
L 37.796875 17.1875 
L 4.890625 17.1875 
L 4.890625 26.703125 
z
" id="DejaVuSans-34"/>
      </defs>
      <g transform="translate(70.961219 291.410438)scale(0.1 -0.1)">
       <use xlink:href="#DejaVuSans-2212"/>
       <use x="83.789062" xlink:href="#DejaVuSans-34"/>
      </g>
     </g>
    </g>
    <g id="xtick_2">
     <g id="line2d_2">
      <g>
       <use style="stroke:#000000;stroke-width:0.8;" x="149.756313" xlink:href="#m488190b109" y="276.812"/>
      </g>
     </g>
     <g id="text_2">
      <!-- −2 -->
      <defs>
       <path d="M 19.1875 8.296875 
L 53.609375 8.296875 
L 53.609375 0 
L 7.328125 0 
L 7.328125 8.296875 
Q 12.9375 14.109375 22.625 23.890625 
Q 32.328125 33.6875 34.8125 36.53125 
Q 39.546875 41.84375 41.421875 45.53125 
Q 43.3125 49.21875 43.3125 52.78125 
Q 43.3125 58.59375 39.234375 62.25 
Q 35.15625 65.921875 28.609375 65.921875 
Q 23.96875 65.921875 18.8125 64.3125 
Q 13.671875 62.703125 7.8125 59.421875 
L 7.8125 69.390625 
Q 13.765625 71.78125 18.9375 73 
Q 24.125 74.21875 28.421875 74.21875 
Q 39.75 74.21875 46.484375 68.546875 
Q 53.21875 62.890625 53.21875 53.421875 
Q 53.21875 48.921875 51.53125 44.890625 
Q 49.859375 40.875 45.40625 35.40625 
Q 44.1875 33.984375 37.640625 27.21875 
Q 31.109375 20.453125 19.1875 8.296875 
" id="DejaVuSans-32"/>
      </defs>
      <g transform="translate(142.385219 291.410438)scale(0.1 -0.1)">
       <use xlink:href="#DejaVuSans-2212"/>
       <use x="83.789062" xlink:href="#DejaVuSans-32"/>
      </g>
     </g>
    </g>
    <g id="xtick_3">
     <g id="line2d_3">
      <g>
       <use style="stroke:#000000;stroke-width:0.8;" x="221.180313" xlink:href="#m488190b109" y="276.812"/>
      </g>
     </g>
     <g id="text_3">
      <!-- 0 -->
      <defs>
       <path d="M 31.78125 66.40625 
Q 24.171875 66.40625 20.328125 58.90625 
Q 16.5 51.421875 16.5 36.375 
Q 16.5 21.390625 20.328125 13.890625 
Q 24.171875 6.390625 31.78125 6.390625 
Q 39.453125 6.390625 43.28125 13.890625 
Q 47.125 21.390625 47.125 36.375 
Q 47.125 51.421875 43.28125 58.90625 
Q 39.453125 66.40625 31.78125 66.40625 
M 31.78125 74.21875 
Q 44.046875 74.21875 50.515625 64.515625 
Q 56.984375 54.828125 56.984375 36.375 
Q 56.984375 17.96875 50.515625 8.265625 
Q 44.046875 -1.421875 31.78125 -1.421875 
Q 19.53125 -1.421875 13.0625 8.265625 
Q 6.59375 17.96875 6.59375 36.375 
Q 6.59375 54.828125 13.0625 64.515625 
Q 19.53125 74.21875 31.78125 74.21875 
" id="DejaVuSans-30"/>
      </defs>
      <g transform="translate(217.999063 291.410438)scale(0.1 -0.1)">
       <use xlink:href="#DejaVuSans-30"/>
      </g>
     </g>
    </g>
    <g id="xtick_4">
     <g id="line2d_4">
      <g>
       <use style="stroke:#000000;stroke-width:0.8;" x="292.604312" xlink:href="#m488190b109" y="276.812"/>
      </g>
     </g>
     <g id="text_4">
      <!-- 2 -->
      <g transform="translate(289.423063 291.410438)scale(0.1 -0.1)">
       <use xlink:href="#DejaVuSans-32"/>
      </g>
     </g>
    </g>
    <g id="xtick_5">
     <g id="line2d_5">
      <g>
       <use style="stroke:#000000;stroke-width:0.8;" x="364.028313" xlink:href="#m488190b109" y="276.812"/>
      </g>
     </g>
     <g id="text_5">
      <!-- 4 -->
      <g transform="translate(360.847063 291.410438)scale(0.1 -0.1)">
       <use xlink:href="#DejaVuSans-34"/>
      </g>
     </g>
    </g>
    <g id="text_6">
     <!-- x1 -->
     <defs>
      <path d="M 54.890625 54.6875 
L 35.109375 28.078125 
L 55.90625 0 
L 45.3125 0 
L 29.390625 21.484375 
L 13.484375 0 
L 2.875 0 
L 24.125 28.609375 
L 4.6875 54.6875 
L 15.28125 54.6875 
L 29.78125 35.203125 
L 44.28125 54.6875 
z
" id="DejaVuSans-78"/>
      <path d="M 12.40625 8.296875 
L 28.515625 8.296875 
L 28.515625 63.921875 
L 10.984375 60.40625 
L 10.984375 69.390625 
L 28.421875 72.90625 
L 38.28125 72.90625 
L 38.28125 8.296875 
L 54.390625 8.296875 
L 54.390625 0 
L 12.40625 0 
z
" id="DejaVuSans-31"/>
     </defs>
     <g transform="translate(215.039688 305.088562)scale(0.1 -0.1)">
      <use xlink:href="#DejaVuSans-78"/>
      <use x="59.179688" xlink:href="#DejaVuSans-31"/>
     </g>
    </g>
   </g>
   <g id="matplotlib.axis_2">
    <g id="ytick_1">
     <g id="line2d_6">
      <defs>
       <path d="M 0 0 
L -3.5 0 
" id="m258941c089" style="stroke:#000000;stroke-width:0.8;"/>
      </defs>
      <g>
       <use style="stroke:#000000;stroke-width:0.8;" x="42.620313" xlink:href="#m258941c089" y="250.2008"/>
      </g>
     </g>
     <g id="text_7">
      <!-- −4 -->
      <g transform="translate(20.878125 254.000019)scale(0.1 -0.1)">
       <use xlink:href="#DejaVuSans-2212"/>
       <use x="83.789062" xlink:href="#DejaVuSans-34"/>
      </g>
     </g>
    </g>
    <g id="ytick_2">
     <g id="line2d_7">
      <g>
       <use style="stroke:#000000;stroke-width:0.8;" x="42.620313" xlink:href="#m258941c089" y="196.9784"/>
      </g>
     </g>
     <g id="text_8">
      <!-- −2 -->
      <g transform="translate(20.878125 200.777619)scale(0.1 -0.1)">
       <use xlink:href="#DejaVuSans-2212"/>
       <use x="83.789062" xlink:href="#DejaVuSans-32"/>
      </g>
     </g>
    </g>
    <g id="ytick_3">
     <g id="line2d_8">
      <g>
       <use style="stroke:#000000;stroke-width:0.8;" x="42.620313" xlink:href="#m258941c089" y="143.756"/>
      </g>
     </g>
     <g id="text_9">
      <!-- 0 -->
      <g transform="translate(29.257813 147.555219)scale(0.1 -0.1)">
       <use xlink:href="#DejaVuSans-30"/>
      </g>
     </g>
    </g>
    <g id="ytick_4">
     <g id="line2d_9">
      <g>
       <use style="stroke:#000000;stroke-width:0.8;" x="42.620313" xlink:href="#m258941c089" y="90.5336"/>
      </g>
     </g>
     <g id="text_10">
      <!-- 2 -->
      <g transform="translate(29.257813 94.332819)scale(0.1 -0.1)">
       <use xlink:href="#DejaVuSans-32"/>
      </g>
     </g>
    </g>
    <g id="ytick_5">
     <g id="line2d_10">
      <g>
       <use style="stroke:#000000;stroke-width:0.8;" x="42.620313" xlink:href="#m258941c089" y="37.3112"/>
      </g>
     </g>
     <g id="text_11">
      <!-- 4 -->
      <g transform="translate(29.257813 41.110419)scale(0.1 -0.1)">
       <use xlink:href="#DejaVuSans-34"/>
      </g>
     </g>
    </g>
    <g id="text_12">
     <!-- x2 -->
     <g transform="translate(14.798438 149.896625)rotate(-90)scale(0.1 -0.1)">
      <use xlink:href="#DejaVuSans-78"/>
      <use x="59.179688" xlink:href="#DejaVuSans-32"/>
     </g>
    </g>
   </g>
   <g id="line2d_11">
    <path clip-path="url(#p06660a732e)" d="M 221.180313 10.7 
L 231.269972 25.966996 
L 240.184515 39.907106 
L 248.026551 52.62306 
L 254.890799 64.210193 
L 260.864526 74.756837 
L 266.028151 84.344862 
L 270.455775 93.050159 
L 274.215613 100.943026 
L 277.370466 108.088601 
L 279.977986 114.547098 
L 282.091205 120.374295 
L 283.758884 125.621843 
L 285.025769 130.337514 
L 285.932876 134.565449 
L 286.517801 138.346454 
L 286.814998 141.718248 
L 286.855998 144.715675 
L 286.669633 147.3709 
L 286.282242 149.713612 
L 285.717866 151.771202 
L 284.998426 153.568927 
L 284.143909 155.130085 
L 283.172488 156.476136 
L 282.100678 157.626838 
L 280.743272 158.746612 
L 279.290965 159.651583 
L 277.539294 160.453395 
L 275.713473 161.037952 
L 273.597769 161.471464 
L 271.201346 161.716891 
L 268.544827 161.749094 
L 265.659955 161.555799 
L 262.35536 161.098001 
L 258.708206 160.35269 
L 254.819842 159.327819 
L 250.426358 157.929058 
L 245.780539 156.21175 
L 240.7366 154.104631 
L 235.48744 151.669394 
L 230.037419 148.892556 
L 224.817661 145.984126 
L 221.180312 143.756 
L 221.180313 143.756 
" style="fill:none;stroke:#ff7f0e;stroke-linecap:square;stroke-width:0.5;"/>
   </g>
   <g id="line2d_12">
    <path clip-path="url(#p06660a732e)" d="M 260.484341 10.7 
L 268.929515 24.910641 
L 276.457251 38.051455 
L 283.137104 50.193139 
L 289.033945 61.401963 
L 294.208178 71.739958 
L 298.716388 81.265527 
L 302.611242 90.033333 
L 305.941751 98.094544 
L 308.753711 105.49724 
L 311.089829 112.286521 
L 312.989768 118.50456 
L 314.490513 124.190923 
L 315.626492 129.382688 
L 316.429722 134.11458 
L 316.929959 138.419108 
L 317.154831 142.326686 
L 317.130019 145.865807 
L 316.879347 149.063119 
L 316.424903 151.943543 
L 315.787159 154.530384 
L 314.985077 156.845429 
L 314.036209 158.90904 
L 312.956776 160.740233 
L 311.761764 162.356762 
L 310.46501 163.775208 
L 308.792515 165.237594 
L 307.012021 166.461763 
L 305.14178 167.470502 
L 303.19828 168.284749 
L 300.858018 169.01444 
L 298.4593 169.533342 
L 295.670058 169.900408 
L 292.499922 170.065333 
L 289.323717 170.008229 
L 285.817121 169.729169 
L 282.018826 169.210438 
L 277.647777 168.376771 
L 273.12202 167.284911 
L 268.218851 165.875123 
L 262.806071 164.079518 
L 257.119629 161.95414 
L 250.98955 159.417023 
L 244.696793 156.569419 
L 238.116988 153.343042 
L 231.566577 149.879816 
L 225.431487 146.386013 
L 221.180312 143.756 
L 221.180313 143.756 
" style="fill:none;stroke:#ff7f0e;stroke-linecap:square;stroke-width:0.5;"/>
   </g>
   <g id="line2d_13">
    <path clip-path="url(#p06660a732e)" d="M 303.790965 10.7 
L 310.589108 23.396666 
L 316.727044 35.302159 
L 322.24605 46.458934 
L 327.185363 56.907542 
L 331.581916 66.686322 
L 335.470686 75.831745 
L 338.884811 84.378519 
L 341.855515 92.359512 
L 344.412289 99.805919 
L 346.583018 106.747386 
L 348.394048 113.212065 
L 349.870271 119.226693 
L 351.035157 124.816624 
L 351.910846 130.005909 
L 352.51818 134.817332 
L 352.876868 139.272555 
L 353.005502 143.392141 
L 352.921582 147.195568 
L 352.641568 150.701288 
L 352.18096 153.926792 
L 351.554352 156.888667 
L 350.775475 159.602632 
L 349.857235 162.083577 
L 348.81176 164.345602 
L 347.650436 166.40206 
L 346.383955 168.265592 
L 345.022347 169.948164 
L 343.200838 171.814099 
L 341.262431 173.435726 
L 339.222862 174.832438 
L 337.096611 176.022317 
L 334.896986 177.022218 
L 332.177708 177.993357 
L 329.389491 178.738568 
L 326.549586 179.280871 
L 323.191592 179.685164 
L 319.80604 179.872421 
L 315.927448 179.855821 
L 311.581144 179.586675 
L 307.28113 179.096437 
L 302.586941 178.340957 
L 297.555506 177.307967 
L 292.25549 176.000123 
L 286.354101 174.309316 
L 280.013336 172.247554 
L 273.418587 169.861759 
L 266.452424 167.099184 
L 259.153494 163.958967 
L 251.725325 160.521383 
L 243.985579 156.69025 
L 236.303037 152.635511 
L 228.998875 148.529739 
L 222.792369 144.795046 
L 221.180312 143.756 
L 221.180312 143.756 
" style="fill:none;stroke:#ff7f0e;stroke-linecap:square;stroke-width:0.5;"/>
   </g>
   <g id="line2d_14">
    <path clip-path="url(#p06660a732e)" d="M 356.918096 10.7 
L 363.674967 24.918215 
L 369.693135 38.225893 
L 375.020048 50.672449 
L 379.70089 62.305188 
L 383.778145 73.168802 
L 387.291886 83.305657 
L 390.280116 92.756122 
L 392.778689 101.558483 
L 394.821362 109.74899 
L 396.440018 117.362063 
L 397.664764 124.430391 
L 398.524008 130.984992 
L 399.04453 137.055286 
L 399.251572 142.669177 
L 399.168917 147.853122 
L 398.818964 152.632207 
L 398.222803 157.030211 
L 397.400293 161.069684 
L 396.370099 164.77198 
L 395.149769 168.157324 
L 393.755796 171.244881 
L 392.203644 174.052769 
L 390.50787 176.598184 
L 388.682126 178.897394 
L 386.739224 180.965803 
L 384.691162 182.817981 
L 382.549173 184.467703 
L 380.323771 185.927997 
L 378.024787 187.21118 
L 375.061523 188.583769 
L 372.014212 189.719092 
L 368.898117 190.637044 
L 365.727153 191.356088 
L 361.867557 191.980626 
L 357.967309 192.371022 
L 354.044235 192.552429 
L 349.459521 192.530492 
L 344.887431 192.288476 
L 339.702222 191.780572 
L 334.583093 191.063894 
L 328.928428 190.051626 
L 322.802672 188.721912 
L 316.284619 187.068939 
L 309.465843 185.103753 
L 302.447316 182.85307 
L 294.84561 180.177772 
L 286.884173 177.132831 
L 278.800469 173.805674 
L 270.121748 169.98639 
L 261.373251 165.890066 
L 252.564463 161.523027 
L 243.705321 156.885399 
L 235.045176 152.101408 
L 227.160261 147.495817 
L 221.269095 143.816144 
L 221.180312 143.756 
L 221.180312 143.756 
" style="fill:none;stroke:#ff7f0e;stroke-linecap:square;stroke-width:0.5;"/>
   </g>
   <g id="line2d_15">
    <path clip-path="url(#p06660a732e)" d="M 399.740313 30.737215 
L 401.232899 34.297835 
" style="fill:none;stroke:#ff7f0e;stroke-linecap:square;stroke-width:0.5;"/>
   </g>
   <g id="line2d_16">
    <path clip-path="url(#p06660a732e)" d="M 399.740313 73.214173 
L 400.668594 75.931669 
" style="fill:none;stroke:#ff7f0e;stroke-linecap:square;stroke-width:0.5;"/>
   </g>
   <g id="line2d_17">
    <path clip-path="url(#p06660a732e)" d="M 399.740313 106.813183 
L 400.222237 108.863781 
" style="fill:none;stroke:#ff7f0e;stroke-linecap:square;stroke-width:0.5;"/>
   </g>
   <g id="line2d_18">
    <path clip-path="url(#p06660a732e)" d="M 399.740313 136.541913 
L 399.827288 138.002429 
" style="fill:none;stroke:#ff7f0e;stroke-linecap:square;stroke-width:0.5;"/>
   </g>
   <g id="line2d_19">
    <path clip-path="url(#p06660a732e)" d="M 399.740313 165.569424 
L 398.47625 168.989387 
L 397.03674 172.107576 
L 395.43747 174.942371 
L 393.693245 177.511272 
L 391.817895 179.830774 
L 389.824377 181.916479 
L 387.724804 183.783115 
L 385.530599 185.444699 
L 383.252453 186.914484 
L 380.900314 188.204949 
L 377.870169 189.583742 
L 374.755675 190.722313 
L 371.57227 191.640818 
L 368.334091 192.35802 
L 364.394088 192.977437 
L 360.413947 193.359902 
L 356.411679 193.530886 
L 351.735724 193.494077 
L 347.07391 193.234726 
L 341.788296 192.704519 
L 336.571277 191.963375 
L 330.809725 190.921552 
L 324.569477 189.557133 
L 317.931085 187.864635 
L 310.987764 185.855413 
L 303.84228 183.556741 
L 296.104408 180.826745 
L 288.001843 177.721834 
L 279.776197 174.331112 
L 271.305647 170.603868 
L 262.350255 166.416016 
L 253.331196 161.949093 
L 244.258617 157.203192 
L 235.503011 152.370745 
L 227.518244 147.714083 
L 221.433153 143.92531 
L 221.180312 143.756 
L 221.180312 143.756 
" style="fill:none;stroke:#ff7f0e;stroke-linecap:square;stroke-width:0.5;"/>
   </g>
   <g id="line2d_20">
    <path clip-path="url(#p06660a732e)" d="M 399.740313 196.770356 
L 396.140754 197.991789 
L 392.467556 198.967994 
L 388.736409 199.71987 
L 384.961775 200.267073 
L 380.393237 200.67909 
L 375.801377 200.851491 
L 371.204396 200.810775 
L 365.856275 200.526166 
L 360.545651 200.01933 
L 354.546899 199.207934 
L 348.64667 198.18864 
L 342.151858 196.83907 
L 335.140045 195.140884 
L 327.703883 193.092792 
L 319.948854 190.710999 
L 311.989999 188.028313 
L 303.394421 184.882031 
L 294.923003 181.546802 
L 285.780584 177.703478 
L 276.385375 173.504818 
L 266.809961 168.976816 
L 257.052335 164.11039 
L 247.314991 158.999072 
L 237.925117 153.816506 
L 229.309746 148.811169 
L 222.366611 144.533248 
L 221.180312 143.756 
L 221.180312 143.756 
" style="fill:none;stroke:#ff7f0e;stroke-linecap:square;stroke-width:0.5;"/>
   </g>
   <g id="line2d_21">
    <path clip-path="url(#p06660a732e)" d="M 399.740313 233.970206 
L 386.806165 228.794804 
L 373.558871 223.263266 
L 359.211596 217.019122 
L 345.112067 210.63461 
L 330.639602 203.832262 
L 316.229803 196.813132 
L 301.66972 189.472832 
L 287.078467 181.865028 
L 272.868223 174.207094 
L 259.03375 166.502672 
L 245.746932 158.8482 
L 233.876069 151.757798 
L 224.238816 145.75495 
L 221.180312 143.756 
L 221.180313 143.756 
" style="fill:none;stroke:#ff7f0e;stroke-linecap:square;stroke-width:0.5;"/>
   </g>
   <g id="line2d_22">
    <path clip-path="url(#p06660a732e)" d="M 390.321329 276.812 
L 262.60076 176.47718 
L 221.180312 143.756 
L 221.180313 143.756 
" style="fill:none;stroke:#ff7f0e;stroke-linecap:square;stroke-width:0.5;"/>
   </g>
   <g id="line2d_23">
    <path clip-path="url(#p06660a732e)" d="M 328.6163 276.812 
L 307.399825 254.541414 
L 289.760335 235.723999 
L 274.126284 218.735454 
L 260.596065 203.704746 
L 249.807856 191.406561 
L 240.759529 180.772748 
L 233.381978 171.769137 
L 227.554392 164.309806 
L 223.119024 158.269989 
L 220.027791 153.704993 
L 217.861738 150.131811 
L 216.46896 147.417887 
L 215.722875 145.503329 
L 215.428466 144.182683 
L 215.441391 143.299649 
L 215.655787 142.735827 
L 216.013114 142.390594 
L 216.52759 142.205028 
L 217.267402 142.190473 
L 218.293832 142.407842 
L 219.668203 142.939685 
L 221.180313 143.756 
L 221.180312 143.756 
" style="fill:none;stroke:#ff7f0e;stroke-linecap:square;stroke-width:0.5;"/>
   </g>
   <g id="line2d_24">
    <path clip-path="url(#p06660a732e)" d="M 281.344181 276.812 
L 267.974937 260.066733 
L 256.306022 245.110025 
L 246.154828 231.765674 
L 237.356867 219.874082 
L 228.892929 208.053174 
L 221.766124 197.703221 
L 215.808982 188.658587 
L 210.872947 180.771241 
L 206.826367 173.908962 
L 203.552724 167.953747 
L 200.948935 162.800285 
L 198.923937 158.354673 
L 197.255388 154.143857 
L 196.10598 150.60228 
L 195.391969 147.64066 
L 195.040919 145.180707 
L 194.990224 143.15377 
L 195.185891 141.499705 
L 195.581497 140.165908 
L 196.137215 139.106401 
L 196.818983 138.281054 
L 197.680015 137.602028 
L 198.715238 137.089131 
L 199.910701 136.751971 
L 201.340865 136.5856 
L 203.072928 136.622148 
L 205.050105 136.890956 
L 207.356342 137.429345 
L 210.050074 138.291063 
L 213.108717 139.509421 
L 216.455833 141.087547 
L 219.812697 142.915952 
L 221.180313 143.756 
L 221.180312 143.756 
" style="fill:none;stroke:#ff7f0e;stroke-linecap:square;stroke-width:0.5;"/>
   </g>
   <g id="line2d_25">
    <path clip-path="url(#p06660a732e)" d="M 240.599883 276.812 
L 230.47654 262.362595 
L 221.466486 249.144951 
L 213.474304 237.06453 
L 206.412008 226.033714 
L 200.198375 215.971203 
L 194.7585 206.801617 
L 189.298199 197.139471 
L 184.696967 188.495615 
L 180.863594 180.776517 
L 177.715294 173.896652 
L 175.176954 167.777822 
L 173.180489 162.348574 
L 171.664216 157.543617 
L 170.572335 153.303356 
L 169.854453 149.573454 
L 169.464949 146.304247 
L 169.362689 143.450478 
L 169.510632 140.970932 
L 169.875407 138.828046 
L 170.427022 136.987635 
L 171.138551 135.418598 
L 171.985854 134.09266 
L 172.947317 132.984115 
L 174.161234 131.953559 
L 175.473591 131.145135 
L 177.040001 130.466358 
L 178.675366 129.997848 
L 180.544877 129.68611 
L 182.634053 129.554348 
L 185.108448 129.627932 
L 187.923696 129.949594 
L 191.010469 130.533938 
L 194.444636 131.414514 
L 198.228625 132.616643 
L 202.398709 134.178436 
L 206.898643 136.104928 
L 211.666784 138.392591 
L 216.464996 140.94395 
L 220.648258 143.411647 
L 221.180313 143.756 
L 221.180312 143.756 
" style="fill:none;stroke:#ff7f0e;stroke-linecap:square;stroke-width:0.5;"/>
   </g>
   <g id="line2d_26">
    <path clip-path="url(#p06660a732e)" d="M 201.760742 276.812 
L 193.291555 263.306109 
L 185.694794 250.801249 
L 178.905396 239.231799 
L 172.862574 228.53616 
L 167.509717 218.656679 
L 162.793915 209.539202 
L 158.665719 201.132865 
L 155.079022 193.38998 
L 151.990898 186.265894 
L 149.361258 179.718675 
L 147.152694 173.708973 
L 145.330374 168.199917 
L 143.861883 163.156973 
L 142.717046 158.547783 
L 141.867787 154.342035 
L 141.287998 150.511337 
L 140.953411 147.02911 
L 140.841492 143.870478 
L 140.931323 141.012164 
L 141.203473 138.432372 
L 141.639955 136.110742 
L 142.224097 134.028234 
L 142.940454 132.167041 
L 143.954567 130.202401 
L 145.115905 128.505888 
L 146.403871 127.052923 
L 147.799767 125.820884 
L 149.286676 124.788988 
L 151.116083 123.812653 
L 153.026751 123.055042 
L 155.285134 122.424902 
L 157.599106 122.014015 
L 160.241634 121.776641 
L 163.195691 121.748254 
L 166.432201 121.951653 
L 169.910574 122.396026 
L 173.857344 123.136451 
L 178.174986 124.188634 
L 182.741518 125.535855 
L 187.641462 127.212837 
L 193.047165 129.306648 
L 198.720056 131.749902 
L 204.671043 134.562039 
L 210.664625 137.643028 
L 216.42239 140.850777 
L 221.045518 143.665957 
L 221.180313 143.756 
L 221.180313 143.756 
" style="fill:none;stroke:#ff7f0e;stroke-linecap:square;stroke-width:0.5;"/>
   </g>
   <g id="line2d_27">
    <path clip-path="url(#p06660a732e)" d="M 161.016444 276.812 
L 154.200865 264.758204 
L 148.012323 253.445145 
L 142.412269 242.833427 
L 137.363774 232.885154 
L 132.83229 223.564705 
L 127.845309 212.745577 
L 123.554844 202.79187 
L 119.904789 193.644876 
L 116.842958 185.249656 
L 114.320684 177.554661 
L 112.292612 170.511552 
L 110.716514 164.075026 
L 109.553126 158.202666 
L 108.76599 152.854799 
L 108.32117 147.994229 
L 108.187122 143.586121 
L 108.334581 139.597894 
L 108.736421 135.999089 
L 109.367481 132.76121 
L 110.204442 129.857608 
L 111.225717 127.263376 
L 112.411338 124.955245 
L 113.742847 122.911482 
L 115.203197 121.11179 
L 116.776652 119.537225 
L 118.448706 118.170107 
L 120.205998 116.993947 
L 122.410026 115.813043 
L 124.699788 114.860439 
L 127.057827 114.11355 
L 129.874286 113.474624 
L 132.740121 113.057572 
L 136.050856 112.818009 
L 139.375286 112.796744 
L 143.104781 112.993869 
L 147.205484 113.440508 
L 151.630518 114.153758 
L 156.321017 115.135906 
L 161.574953 116.475916 
L 166.908621 118.063519 
L 172.873021 120.078417 
L 179.209049 122.466345 
L 185.883954 125.2314 
L 192.712674 128.304276 
L 199.703224 131.692011 
L 206.777174 135.365698 
L 213.640279 139.179478 
L 219.546264 142.707209 
L 221.180313 143.756 
L 221.180313 143.756 
" style="fill:none;stroke:#ff7f0e;stroke-linecap:square;stroke-width:0.5;"/>
   </g>
   <g id="line2d_28">
    <path clip-path="url(#p06660a732e)" d="M 113.744325 276.812 
L 106.96552 263.404396 
L 100.883535 250.843673 
L 95.454275 239.084191 
L 90.635719 228.082239 
L 86.388404 217.796571 
L 82.674964 208.187953 
L 79.459915 199.218961 
L 76.709839 190.854169 
L 74.393269 183.060033 
L 72.480491 175.804715 
L 70.943409 169.057951 
L 69.75549 162.791004 
L 68.89171 156.976615 
L 68.328479 151.58893 
L 68.043557 146.603427 
L 68.015985 141.996852 
L 68.226024 137.747156 
L 68.655076 133.833431 
L 69.285638 130.235858 
L 70.10125 126.935663 
L 71.086435 123.91506 
L 72.22664 121.157199 
L 73.508195 118.646117 
L 74.918255 116.366697 
L 76.444774 114.304634 
L 78.076446 112.446381 
L 79.802694 110.779142 
L 81.613593 109.290795 
L 83.982155 107.664517 
L 86.451662 106.278853 
L 89.006626 105.114195 
L 91.632834 104.152279 
L 94.317262 103.376099 
L 97.598714 102.667655 
L 100.928228 102.178682 
L 104.85121 101.854831 
L 108.793396 101.764816 
L 113.296001 101.909699 
L 117.770537 102.280475 
L 122.743269 102.923509 
L 128.162085 103.866815 
L 133.960285 105.122395 
L 140.058214 106.685629 
L 146.365982 108.535972 
L 153.230313 110.791537 
L 160.452456 113.410877 
L 167.817636 116.319618 
L 175.758731 119.70415 
L 183.797236 123.376544 
L 192.143908 127.441082 
L 200.455974 131.740518 
L 208.497671 136.149191 
L 215.877644 140.443456 
L 221.180313 143.756 
L 221.180313 143.756 
" style="fill:none;stroke:#ff7f0e;stroke-linecap:square;stroke-width:0.5;"/>
   </g>
   <g id="line2d_29">
    <path clip-path="url(#p06660a732e)" d="M 52.039296 276.812 
L 50.28004 272.923138 
L 48.572203 269.098107 
L 46.915341 265.336476 
L 45.308528 261.637281 
L 43.750955 257.999674 
L 42.241839 254.422836 
" style="fill:none;stroke:#ff7f0e;stroke-linecap:square;stroke-width:0.5;"/>
   </g>
   <g id="line2d_30">
    <path clip-path="url(#p06660a732e)" d="M 42.620313 233.970206 
L 41.430683 230.862233 
" style="fill:none;stroke:#ff7f0e;stroke-linecap:square;stroke-width:0.5;"/>
   </g>
   <g id="line2d_31">
    <path clip-path="url(#p06660a732e)" d="M 42.620313 196.770356 
L 41.92488 194.400759 
" style="fill:none;stroke:#ff7f0e;stroke-linecap:square;stroke-width:0.5;"/>
   </g>
   <g id="line2d_32">
    <path clip-path="url(#p06660a732e)" d="M 42.620313 165.569424 
L 42.339376 163.819121 
" style="fill:none;stroke:#ff7f0e;stroke-linecap:square;stroke-width:0.5;"/>
   </g>
   <g id="line2d_33">
    <path clip-path="url(#p06660a732e)" d="M 42.620313 136.541913 
L 43.131467 131.988476 
L 43.877088 127.803234 
L 44.837978 123.964292 
L 45.996128 120.450948 
L 47.33456 117.243537 
L 48.837356 114.323473 
L 50.489584 111.673164 
L 52.277212 109.275947 
L 54.18708 107.116043 
L 56.206852 105.17853 
L 58.324978 103.449291 
L 60.530623 101.914956 
L 62.813671 100.562904 
L 65.761996 99.111072 
L 68.799457 97.903623 
L 71.910337 96.920162 
L 75.080231 96.141697 
L 78.943546 95.453347 
L 82.852362 95.006632 
L 86.788284 94.775752 
L 91.392668 94.747789 
L 95.988752 94.947492 
L 101.205846 95.415337 
L 106.360835 96.099842 
L 112.059428 97.083973 
L 118.237298 98.390992 
L 124.81541 100.027753 
L 131.701829 101.984074 
L 138.794622 104.233447 
L 146.481451 106.915328 
L 154.53684 109.975359 
L 162.720628 113.32581 
L 171.153968 117.016744 
L 180.076304 121.171719 
L 189.06836 125.611044 
L 197.93939 130.237884 
L 206.629362 135.019709 
L 214.624806 139.669637 
L 220.791076 143.496921 
L 221.180313 143.756 
L 221.180313 143.756 
" style="fill:none;stroke:#ff7f0e;stroke-linecap:square;stroke-width:0.5;"/>
   </g>
   <g id="line2d_34">
    <path clip-path="url(#p06660a732e)" d="M 42.620313 106.813183 
L 44.66464 104.567875 
L 46.823122 102.555342 
L 49.083884 100.761081 
L 51.435502 99.170959 
L 53.86729 97.771632 
L 56.369348 96.550585 
L 59.581704 95.257023 
L 62.872728 94.20191 
L 66.227109 93.365066 
L 69.63086 92.727734 
L 73.762594 92.201779 
L 77.926992 91.910064 
L 82.106246 91.827101 
L 86.979777 91.963153 
L 91.829953 92.31811 
L 97.32009 92.953274 
L 102.730654 93.794852 
L 108.697374 94.944312 
L 115.150716 96.421787 
L 122.006568 98.23104 
L 129.168255 100.358963 
L 136.529623 102.776427 
L 144.491965 105.631465 
L 152.82018 108.863749 
L 161.265697 112.380235 
L 169.953523 116.233436 
L 179.129155 120.550843 
L 188.360403 125.144542 
L 197.636703 130.014229 
L 206.579204 134.962414 
L 214.724802 139.720937 
L 220.906529 143.572754 
L 221.180313 143.756 
L 221.180312 143.756 
" style="fill:none;stroke:#ff7f0e;stroke-linecap:square;stroke-width:0.5;"/>
   </g>
   <g id="line2d_35">
    <path clip-path="url(#p06660a732e)" d="M 42.620313 73.214173 
L 49.216313 73.902844 
L 55.736841 74.821086 
L 62.16176 75.934545 
L 69.365771 77.406786 
L 77.268933 79.269918 
L 84.936229 81.303779 
L 93.157144 83.711524 
L 101.81755 86.482296 
L 110.791511 89.588014 
L 119.945272 92.984783 
L 129.772984 96.872329 
L 139.977097 101.157124 
L 150.252003 105.714319 
L 160.749712 110.611847 
L 171.387376 115.817255 
L 182.16525 121.338662 
L 192.857817 127.067884 
L 203.106283 132.810804 
L 212.447716 138.295261 
L 219.893263 142.910599 
L 221.180312 143.756 
L 221.180312 143.756 
" style="fill:none;stroke:#ff7f0e;stroke-linecap:square;stroke-width:0.5;"/>
   </g>
   <g id="line2d_36">
    <path clip-path="url(#p06660a732e)" d="M 42.620313 30.737215 
L 82.924415 55.576851 
L 120.590948 79.053863 
L 154.270143 100.30527 
L 183.332124 118.898314 
L 206.680759 134.08754 
L 221.180313 143.756 
L 221.180313 143.756 
" style="fill:none;stroke:#ff7f0e;stroke-linecap:square;stroke-width:0.5;"/>
   </g>
   <g id="line2d_37">
    <path clip-path="url(#p06660a732e)" d="M 85.442529 10.7 
L 118.443122 41.334968 
L 145.895191 67.105612 
L 168.660525 88.774543 
L 186.496186 106.05395 
L 199.691845 119.133836 
L 209.290428 128.949041 
L 215.570486 135.668263 
L 219.317709 139.974214 
L 221.180675 142.415959 
L 221.800142 143.538848 
L 221.797769 143.892133 
L 221.602175 143.931885 
L 221.180312 143.756 
L 221.180313 143.756 
" style="fill:none;stroke:#ff7f0e;stroke-linecap:square;stroke-width:0.5;"/>
   </g>
   <g id="line2d_38">
    <path clip-path="url(#p06660a732e)" d="M 138.56966 10.7 
L 155.113426 29.831766 
L 169.256023 46.526679 
L 181.30524 61.075834 
L 192.463259 74.907682 
L 201.729452 86.755112 
L 209.376804 96.881391 
L 215.641976 105.516495 
L 221.140504 113.471218 
L 225.466303 120.115871 
L 228.814294 125.645028 
L 231.350289 130.225991 
L 233.344108 134.2849 
L 234.700685 137.555279 
L 235.545762 140.169064 
L 235.983879 142.237731 
L 236.101705 143.855349 
L 235.970812 145.101139 
L 235.650088 146.041718 
L 235.187761 146.732983 
L 234.576408 147.252121 
L 233.782484 147.619534 
L 232.821715 147.814087 
L 231.616593 147.827775 
L 230.120052 147.617416 
L 228.270371 147.124335 
L 226.052231 146.292555 
L 223.548689 145.110302 
L 221.180312 143.756 
L 221.180313 143.756 
" style="fill:none;stroke:#ff7f0e;stroke-linecap:square;stroke-width:0.5;"/>
   </g>
   <g id="line2d_39">
    <path clip-path="url(#p06660a732e)" d="M 181.876284 10.7 
L 193.622481 26.468196 
L 203.959923 40.71233 
L 213.025588 53.566572 
L 220.944206 65.153766 
L 227.829413 75.586458 
L 233.784737 84.967783 
L 239.572737 94.522751 
L 244.396246 102.955999 
L 248.369282 110.383461 
L 251.594165 116.909996 
L 254.162474 122.630254 
L 256.156096 127.629626 
L 257.648195 131.985127 
L 258.704091 135.766198 
L 259.382044 139.035431 
L 259.733951 141.849196 
L 259.805942 144.258209 
L 259.638966 146.308064 
L 259.269347 148.03975 
L 258.729232 149.490075 
L 258.04702 150.692066 
L 257.247747 151.675327 
L 256.235965 152.552967 
L 255.131173 153.220872 
L 253.823017 153.752889 
L 252.317403 154.123364 
L 250.629576 154.317007 
L 248.641567 154.322772 
L 246.391986 154.109699 
L 243.80749 153.643094 
L 240.868609 152.886035 
L 237.525895 151.790024 
L 233.804316 150.327578 
L 229.797868 148.508572 
L 225.641983 146.374449 
L 221.846179 144.181372 
L 221.180312 143.756 
L 221.180312 143.756 
" style="fill:none;stroke:#ff7f0e;stroke-linecap:square;stroke-width:0.5;"/>
   </g>
   <g id="line2d_40">
    <path clip-path="url(#p06660a732e)" d="M 221.180312 10.7 
L 231.269972 25.966996 
L 240.184515 39.907106 
L 248.026551 52.62306 
L 254.890799 64.210193 
L 260.864526 74.756837 
L 266.028151 84.344862 
L 270.455775 93.050159 
L 274.215613 100.943026 
L 277.370466 108.088601 
L 279.977986 114.547098 
L 282.091205 120.374295 
L 283.758884 125.621843 
L 285.025769 130.337514 
L 285.932876 134.565449 
L 286.517801 138.346454 
L 286.814998 141.718248 
L 286.855998 144.715675 
L 286.669633 147.3709 
L 286.282242 149.713612 
L 285.717866 151.771202 
L 284.998426 153.568927 
L 284.143909 155.130085 
L 283.172488 156.476136 
L 282.100678 157.626838 
L 280.743272 158.746612 
L 279.290965 159.651583 
L 277.539294 160.453395 
L 275.713473 161.037952 
L 273.597769 161.471464 
L 271.201346 161.716891 
L 268.544827 161.749094 
L 265.659955 161.555799 
L 262.35536 161.098001 
L 258.708206 160.35269 
L 254.819842 159.327819 
L 250.426358 157.929058 
L 245.780539 156.21175 
L 240.7366 154.104631 
L 235.48744 151.669394 
L 230.037419 148.892556 
L 224.817661 145.984126 
L 221.180312 143.756 
L 221.180312 143.756 
" style="fill:none;stroke:#ff7f0e;stroke-linecap:square;stroke-width:0.5;"/>
   </g>
   <g id="line2d_41">
    <path clip-path="url(#p06660a732e)" d="M 221.180313 143.756 
" style="fill:none;stroke:#ff7f0e;stroke-linecap:square;stroke-width:1.5;"/>
   </g>
   <g id="line2d_42">
    <defs>
     <path d="M 0 3 
C 0.795609 3 1.55874 2.683901 2.12132 2.12132 
C 2.683901 1.55874 3 0.795609 3 0 
C 3 -0.795609 2.683901 -1.55874 2.12132 -2.12132 
C 1.55874 -2.683901 0.795609 -3 0 -3 
C -0.795609 -3 -1.55874 -2.683901 -2.12132 -2.12132 
C -2.683901 -1.55874 -3 -0.795609 -3 0 
C -3 0.795609 -2.683901 1.55874 -2.12132 2.12132 
C -1.55874 2.683901 -0.795609 3 0 3 
z
" id="mda683ba65c" style="stroke:#ff0000;"/>
    </defs>
    <g clip-path="url(#p06660a732e)">
     <use style="fill:#ff0000;stroke:#ff0000;" x="221.180313" xlink:href="#mda683ba65c" y="143.756"/>
    </g>
   </g>
   <g id="patch_56">
    <path d="M 42.620313 276.812 
L 42.620313 10.7 
" style="fill:none;stroke:#000000;stroke-linecap:square;stroke-linejoin:miter;stroke-width:0.8;"/>
   </g>
   <g id="patch_57">
    <path d="M 399.740313 276.812 
L 399.740313 10.7 
" style="fill:none;stroke:#000000;stroke-linecap:square;stroke-linejoin:miter;stroke-width:0.8;"/>
   </g>
   <g id="patch_58">
    <path d="M 42.620313 276.812 
L 399.740313 276.812 
" style="fill:none;stroke:#000000;stroke-linecap:square;stroke-linejoin:miter;stroke-width:0.8;"/>
   </g>
   <g id="patch_59">
    <path d="M 42.620313 10.7 
L 399.740313 10.7 
" style="fill:none;stroke:#000000;stroke-linecap:square;stroke-linejoin:miter;stroke-width:0.8;"/>
   </g>
   <g id="legend_1">
    <g id="patch_60">
     <path d="M 249.800312 273.812 
L 395.540313 273.812 
Q 396.740313 273.812 396.740313 272.612 
L 396.740313 255.35825 
Q 396.740313 254.15825 395.540313 254.15825 
L 249.800312 254.15825 
Q 248.600313 254.15825 248.600313 255.35825 
L 248.600313 272.612 
Q 248.600313 273.812 249.800312 273.812 
z
" style="fill:#ffffff;opacity:0.8;stroke:#cccccc;stroke-linejoin:miter;"/>
    </g>
    <g id="line2d_43">
     <path d="M 251.000313 259.017312 
L 263.000313 259.017312 
" style="fill:none;stroke:#ff7f0e;stroke-linecap:square;stroke-width:1.5;"/>
    </g>
    <g id="line2d_44"/>
    <g id="text_13">
     <!-- system zlinearyzowany -->
     <defs>
      <path d="M 44.28125 53.078125 
L 44.28125 44.578125 
Q 40.484375 46.53125 36.375 47.5 
Q 32.28125 48.484375 27.875 48.484375 
Q 21.1875 48.484375 17.84375 46.4375 
Q 14.5 44.390625 14.5 40.28125 
Q 14.5 37.15625 16.890625 35.375 
Q 19.28125 33.59375 26.515625 31.984375 
L 29.59375 31.296875 
Q 39.15625 29.25 43.1875 25.515625 
Q 47.21875 21.78125 47.21875 15.09375 
Q 47.21875 7.46875 41.1875 3.015625 
Q 35.15625 -1.421875 24.609375 -1.421875 
Q 20.21875 -1.421875 15.453125 -0.5625 
Q 10.6875 0.296875 5.421875 2 
L 5.421875 11.28125 
Q 10.40625 8.6875 15.234375 7.390625 
Q 20.0625 6.109375 24.8125 6.109375 
Q 31.15625 6.109375 34.5625 8.28125 
Q 37.984375 10.453125 37.984375 14.40625 
Q 37.984375 18.0625 35.515625 20.015625 
Q 33.0625 21.96875 24.703125 23.78125 
L 21.578125 24.515625 
Q 13.234375 26.265625 9.515625 29.90625 
Q 5.8125 33.546875 5.8125 39.890625 
Q 5.8125 47.609375 11.28125 51.796875 
Q 16.75 56 26.8125 56 
Q 31.78125 56 36.171875 55.265625 
Q 40.578125 54.546875 44.28125 53.078125 
" id="DejaVuSans-73"/>
      <path d="M 32.171875 -5.078125 
Q 28.375 -14.84375 24.75 -17.8125 
Q 21.140625 -20.796875 15.09375 -20.796875 
L 7.90625 -20.796875 
L 7.90625 -13.28125 
L 13.1875 -13.28125 
Q 16.890625 -13.28125 18.9375 -11.515625 
Q 21 -9.765625 23.484375 -3.21875 
L 25.09375 0.875 
L 2.984375 54.6875 
L 12.5 54.6875 
L 29.59375 11.921875 
L 46.6875 54.6875 
L 56.203125 54.6875 
z
" id="DejaVuSans-79"/>
      <path d="M 18.3125 70.21875 
L 18.3125 54.6875 
L 36.8125 54.6875 
L 36.8125 47.703125 
L 18.3125 47.703125 
L 18.3125 18.015625 
Q 18.3125 11.328125 20.140625 9.421875 
Q 21.96875 7.515625 27.59375 7.515625 
L 36.8125 7.515625 
L 36.8125 0 
L 27.59375 0 
Q 17.1875 0 13.234375 3.875 
Q 9.28125 7.765625 9.28125 18.015625 
L 9.28125 47.703125 
L 2.6875 47.703125 
L 2.6875 54.6875 
L 9.28125 54.6875 
L 9.28125 70.21875 
z
" id="DejaVuSans-74"/>
      <path d="M 56.203125 29.59375 
L 56.203125 25.203125 
L 14.890625 25.203125 
Q 15.484375 15.921875 20.484375 11.0625 
Q 25.484375 6.203125 34.421875 6.203125 
Q 39.59375 6.203125 44.453125 7.46875 
Q 49.3125 8.734375 54.109375 11.28125 
L 54.109375 2.78125 
Q 49.265625 0.734375 44.1875 -0.34375 
Q 39.109375 -1.421875 33.890625 -1.421875 
Q 20.796875 -1.421875 13.15625 6.1875 
Q 5.515625 13.8125 5.515625 26.8125 
Q 5.515625 40.234375 12.765625 48.109375 
Q 20.015625 56 32.328125 56 
Q 43.359375 56 49.78125 48.890625 
Q 56.203125 41.796875 56.203125 29.59375 
M 47.21875 32.234375 
Q 47.125 39.59375 43.09375 43.984375 
Q 39.0625 48.390625 32.421875 48.390625 
Q 24.90625 48.390625 20.390625 44.140625 
Q 15.875 39.890625 15.1875 32.171875 
z
" id="DejaVuSans-65"/>
      <path d="M 52 44.1875 
Q 55.375 50.25 60.0625 53.125 
Q 64.75 56 71.09375 56 
Q 79.640625 56 84.28125 50.015625 
Q 88.921875 44.046875 88.921875 33.015625 
L 88.921875 0 
L 79.890625 0 
L 79.890625 32.71875 
Q 79.890625 40.578125 77.09375 44.375 
Q 74.3125 48.1875 68.609375 48.1875 
Q 61.625 48.1875 57.5625 43.546875 
Q 53.515625 38.921875 53.515625 30.90625 
L 53.515625 0 
L 44.484375 0 
L 44.484375 32.71875 
Q 44.484375 40.625 41.703125 44.40625 
Q 38.921875 48.1875 33.109375 48.1875 
Q 26.21875 48.1875 22.15625 43.53125 
Q 18.109375 38.875 18.109375 30.90625 
L 18.109375 0 
L 9.078125 0 
L 9.078125 54.6875 
L 18.109375 54.6875 
L 18.109375 46.1875 
Q 21.1875 51.21875 25.484375 53.609375 
Q 29.78125 56 35.6875 56 
Q 41.65625 56 45.828125 52.96875 
Q 50 49.953125 52 44.1875 
" id="DejaVuSans-6d"/>
      <path id="DejaVuSans-20"/>
      <path d="M 5.515625 54.6875 
L 48.1875 54.6875 
L 48.1875 46.484375 
L 14.40625 7.171875 
L 48.1875 7.171875 
L 48.1875 0 
L 4.296875 0 
L 4.296875 8.203125 
L 38.09375 47.515625 
L 5.515625 47.515625 
z
" id="DejaVuSans-7a"/>
      <path d="M 9.421875 75.984375 
L 18.40625 75.984375 
L 18.40625 0 
L 9.421875 0 
z
" id="DejaVuSans-6c"/>
      <path d="M 9.421875 54.6875 
L 18.40625 54.6875 
L 18.40625 0 
L 9.421875 0 
z
M 9.421875 75.984375 
L 18.40625 75.984375 
L 18.40625 64.59375 
L 9.421875 64.59375 
z
" id="DejaVuSans-69"/>
      <path d="M 54.890625 33.015625 
L 54.890625 0 
L 45.90625 0 
L 45.90625 32.71875 
Q 45.90625 40.484375 42.875 44.328125 
Q 39.84375 48.1875 33.796875 48.1875 
Q 26.515625 48.1875 22.3125 43.546875 
Q 18.109375 38.921875 18.109375 30.90625 
L 18.109375 0 
L 9.078125 0 
L 9.078125 54.6875 
L 18.109375 54.6875 
L 18.109375 46.1875 
Q 21.34375 51.125 25.703125 53.5625 
Q 30.078125 56 35.796875 56 
Q 45.21875 56 50.046875 50.171875 
Q 54.890625 44.34375 54.890625 33.015625 
" id="DejaVuSans-6e"/>
      <path d="M 34.28125 27.484375 
Q 23.390625 27.484375 19.1875 25 
Q 14.984375 22.515625 14.984375 16.5 
Q 14.984375 11.71875 18.140625 8.90625 
Q 21.296875 6.109375 26.703125 6.109375 
Q 34.1875 6.109375 38.703125 11.40625 
Q 43.21875 16.703125 43.21875 25.484375 
L 43.21875 27.484375 
z
M 52.203125 31.203125 
L 52.203125 0 
L 43.21875 0 
L 43.21875 8.296875 
Q 40.140625 3.328125 35.546875 0.953125 
Q 30.953125 -1.421875 24.3125 -1.421875 
Q 15.921875 -1.421875 10.953125 3.296875 
Q 6 8.015625 6 15.921875 
Q 6 25.140625 12.171875 29.828125 
Q 18.359375 34.515625 30.609375 34.515625 
L 43.21875 34.515625 
L 43.21875 35.40625 
Q 43.21875 41.609375 39.140625 45 
Q 35.0625 48.390625 27.6875 48.390625 
Q 23 48.390625 18.546875 47.265625 
Q 14.109375 46.140625 10.015625 43.890625 
L 10.015625 52.203125 
Q 14.9375 54.109375 19.578125 55.046875 
Q 24.21875 56 28.609375 56 
Q 40.484375 56 46.34375 49.84375 
Q 52.203125 43.703125 52.203125 31.203125 
" id="DejaVuSans-61"/>
      <path d="M 41.109375 46.296875 
Q 39.59375 47.171875 37.8125 47.578125 
Q 36.03125 48 33.890625 48 
Q 26.265625 48 22.1875 43.046875 
Q 18.109375 38.09375 18.109375 28.8125 
L 18.109375 0 
L 9.078125 0 
L 9.078125 54.6875 
L 18.109375 54.6875 
L 18.109375 46.1875 
Q 20.953125 51.171875 25.484375 53.578125 
Q 30.03125 56 36.53125 56 
Q 37.453125 56 38.578125 55.875 
Q 39.703125 55.765625 41.0625 55.515625 
z
" id="DejaVuSans-72"/>
      <path d="M 30.609375 48.390625 
Q 23.390625 48.390625 19.1875 42.75 
Q 14.984375 37.109375 14.984375 27.296875 
Q 14.984375 17.484375 19.15625 11.84375 
Q 23.34375 6.203125 30.609375 6.203125 
Q 37.796875 6.203125 41.984375 11.859375 
Q 46.1875 17.53125 46.1875 27.296875 
Q 46.1875 37.015625 41.984375 42.703125 
Q 37.796875 48.390625 30.609375 48.390625 
M 30.609375 56 
Q 42.328125 56 49.015625 48.375 
Q 55.71875 40.765625 55.71875 27.296875 
Q 55.71875 13.875 49.015625 6.21875 
Q 42.328125 -1.421875 30.609375 -1.421875 
Q 18.84375 -1.421875 12.171875 6.21875 
Q 5.515625 13.875 5.515625 27.296875 
Q 5.515625 40.765625 12.171875 48.375 
Q 18.84375 56 30.609375 56 
" id="DejaVuSans-6f"/>
      <path d="M 4.203125 54.6875 
L 13.1875 54.6875 
L 24.421875 12.015625 
L 35.59375 54.6875 
L 46.1875 54.6875 
L 57.421875 12.015625 
L 68.609375 54.6875 
L 77.59375 54.6875 
L 63.28125 0 
L 52.6875 0 
L 40.921875 44.828125 
L 29.109375 0 
L 18.5 0 
z
" id="DejaVuSans-77"/>
     </defs>
     <g transform="translate(267.800313 261.117312)scale(0.06 -0.06)">
      <use xlink:href="#DejaVuSans-73"/>
      <use x="52.099609" xlink:href="#DejaVuSans-79"/>
      <use x="111.279297" xlink:href="#DejaVuSans-73"/>
      <use x="163.378906" xlink:href="#DejaVuSans-74"/>
      <use x="202.587891" xlink:href="#DejaVuSans-65"/>
      <use x="264.111328" xlink:href="#DejaVuSans-6d"/>
      <use x="361.523438" xlink:href="#DejaVuSans-20"/>
      <use x="393.310547" xlink:href="#DejaVuSans-7a"/>
      <use x="445.800781" xlink:href="#DejaVuSans-6c"/>
      <use x="473.583984" xlink:href="#DejaVuSans-69"/>
      <use x="501.367188" xlink:href="#DejaVuSans-6e"/>
      <use x="564.746094" xlink:href="#DejaVuSans-65"/>
      <use x="626.269531" xlink:href="#DejaVuSans-61"/>
      <use x="687.548828" xlink:href="#DejaVuSans-72"/>
      <use x="728.662109" xlink:href="#DejaVuSans-79"/>
      <use x="787.841797" xlink:href="#DejaVuSans-7a"/>
      <use x="840.332031" xlink:href="#DejaVuSans-6f"/>
      <use x="901.513672" xlink:href="#DejaVuSans-77"/>
      <use x="983.300781" xlink:href="#DejaVuSans-61"/>
      <use x="1044.580078" xlink:href="#DejaVuSans-6e"/>
      <use x="1107.958984" xlink:href="#DejaVuSans-79"/>
     </g>
    </g>
    <g id="line2d_45"/>
    <g id="line2d_46">
     <g>
      <use style="fill:#ff0000;stroke:#ff0000;" x="257.000313" xlink:href="#mda683ba65c" y="268.064187"/>
     </g>
    </g>
    <g id="text_14">
     <!-- Punkt równowagi asymptotycznie stabilny -->
     <defs>
      <path d="M 19.671875 64.796875 
L 19.671875 37.40625 
L 32.078125 37.40625 
Q 38.96875 37.40625 42.71875 40.96875 
Q 46.484375 44.53125 46.484375 51.125 
Q 46.484375 57.671875 42.71875 61.234375 
Q 38.96875 64.796875 32.078125 64.796875 
z
M 9.8125 72.90625 
L 32.078125 72.90625 
Q 44.34375 72.90625 50.609375 67.359375 
Q 56.890625 61.8125 56.890625 51.125 
Q 56.890625 40.328125 50.609375 34.8125 
Q 44.34375 29.296875 32.078125 29.296875 
L 19.671875 29.296875 
L 19.671875 0 
L 9.8125 0 
z
" id="DejaVuSans-50"/>
      <path d="M 8.5 21.578125 
L 8.5 54.6875 
L 17.484375 54.6875 
L 17.484375 21.921875 
Q 17.484375 14.15625 20.5 10.265625 
Q 23.53125 6.390625 29.59375 6.390625 
Q 36.859375 6.390625 41.078125 11.03125 
Q 45.3125 15.671875 45.3125 23.6875 
L 45.3125 54.6875 
L 54.296875 54.6875 
L 54.296875 0 
L 45.3125 0 
L 45.3125 8.40625 
Q 42.046875 3.421875 37.71875 1 
Q 33.40625 -1.421875 27.6875 -1.421875 
Q 18.265625 -1.421875 13.375 4.4375 
Q 8.5 10.296875 8.5 21.578125 
M 31.109375 56 
z
" id="DejaVuSans-75"/>
      <path d="M 9.078125 75.984375 
L 18.109375 75.984375 
L 18.109375 31.109375 
L 44.921875 54.6875 
L 56.390625 54.6875 
L 27.390625 29.109375 
L 57.625 0 
L 45.90625 0 
L 18.109375 26.703125 
L 18.109375 0 
L 9.078125 0 
z
" id="DejaVuSans-6b"/>
      <path d="M 30.609375 48.390625 
Q 23.390625 48.390625 19.1875 42.75 
Q 14.984375 37.109375 14.984375 27.296875 
Q 14.984375 17.484375 19.15625 11.84375 
Q 23.34375 6.203125 30.609375 6.203125 
Q 37.796875 6.203125 41.984375 11.859375 
Q 46.1875 17.53125 46.1875 27.296875 
Q 46.1875 37.015625 41.984375 42.703125 
Q 37.796875 48.390625 30.609375 48.390625 
M 30.609375 56 
Q 42.328125 56 49.015625 48.375 
Q 55.71875 40.765625 55.71875 27.296875 
Q 55.71875 13.875 49.015625 6.21875 
Q 42.328125 -1.421875 30.609375 -1.421875 
Q 18.84375 -1.421875 12.171875 6.21875 
Q 5.515625 13.875 5.515625 27.296875 
Q 5.515625 40.765625 12.171875 48.375 
Q 18.84375 56 30.609375 56 
M 37.40625 79.984375 
L 47.125 79.984375 
L 31.21875 61.625 
L 23.734375 61.625 
z
" id="DejaVuSans-f3"/>
      <path d="M 45.40625 27.984375 
Q 45.40625 37.75 41.375 43.109375 
Q 37.359375 48.484375 30.078125 48.484375 
Q 22.859375 48.484375 18.828125 43.109375 
Q 14.796875 37.75 14.796875 27.984375 
Q 14.796875 18.265625 18.828125 12.890625 
Q 22.859375 7.515625 30.078125 7.515625 
Q 37.359375 7.515625 41.375 12.890625 
Q 45.40625 18.265625 45.40625 27.984375 
M 54.390625 6.78125 
Q 54.390625 -7.171875 48.1875 -13.984375 
Q 42 -20.796875 29.203125 -20.796875 
Q 24.46875 -20.796875 20.265625 -20.09375 
Q 16.0625 -19.390625 12.109375 -17.921875 
L 12.109375 -9.1875 
Q 16.0625 -11.328125 19.921875 -12.34375 
Q 23.78125 -13.375 27.78125 -13.375 
Q 36.625 -13.375 41.015625 -8.765625 
Q 45.40625 -4.15625 45.40625 5.171875 
L 45.40625 9.625 
Q 42.625 4.78125 38.28125 2.390625 
Q 33.9375 0 27.875 0 
Q 17.828125 0 11.671875 7.65625 
Q 5.515625 15.328125 5.515625 27.984375 
Q 5.515625 40.671875 11.671875 48.328125 
Q 17.828125 56 27.875 56 
Q 33.9375 56 38.28125 53.609375 
Q 42.625 51.21875 45.40625 46.390625 
L 45.40625 54.6875 
L 54.390625 54.6875 
z
" id="DejaVuSans-67"/>
      <path d="M 18.109375 8.203125 
L 18.109375 -20.796875 
L 9.078125 -20.796875 
L 9.078125 54.6875 
L 18.109375 54.6875 
L 18.109375 46.390625 
Q 20.953125 51.265625 25.265625 53.625 
Q 29.59375 56 35.59375 56 
Q 45.5625 56 51.78125 48.09375 
Q 58.015625 40.1875 58.015625 27.296875 
Q 58.015625 14.40625 51.78125 6.484375 
Q 45.5625 -1.421875 35.59375 -1.421875 
Q 29.59375 -1.421875 25.265625 0.953125 
Q 20.953125 3.328125 18.109375 8.203125 
M 48.6875 27.296875 
Q 48.6875 37.203125 44.609375 42.84375 
Q 40.53125 48.484375 33.40625 48.484375 
Q 26.265625 48.484375 22.1875 42.84375 
Q 18.109375 37.203125 18.109375 27.296875 
Q 18.109375 17.390625 22.1875 11.75 
Q 26.265625 6.109375 33.40625 6.109375 
Q 40.53125 6.109375 44.609375 11.75 
Q 48.6875 17.390625 48.6875 27.296875 
" id="DejaVuSans-70"/>
      <path d="M 48.78125 52.59375 
L 48.78125 44.1875 
Q 44.96875 46.296875 41.140625 47.34375 
Q 37.3125 48.390625 33.40625 48.390625 
Q 24.65625 48.390625 19.8125 42.84375 
Q 14.984375 37.3125 14.984375 27.296875 
Q 14.984375 17.28125 19.8125 11.734375 
Q 24.65625 6.203125 33.40625 6.203125 
Q 37.3125 6.203125 41.140625 7.25 
Q 44.96875 8.296875 48.78125 10.40625 
L 48.78125 2.09375 
Q 45.015625 0.34375 40.984375 -0.53125 
Q 36.96875 -1.421875 32.421875 -1.421875 
Q 20.0625 -1.421875 12.78125 6.34375 
Q 5.515625 14.109375 5.515625 27.296875 
Q 5.515625 40.671875 12.859375 48.328125 
Q 20.21875 56 33.015625 56 
Q 37.15625 56 41.109375 55.140625 
Q 45.0625 54.296875 48.78125 52.59375 
" id="DejaVuSans-63"/>
      <path d="M 48.6875 27.296875 
Q 48.6875 37.203125 44.609375 42.84375 
Q 40.53125 48.484375 33.40625 48.484375 
Q 26.265625 48.484375 22.1875 42.84375 
Q 18.109375 37.203125 18.109375 27.296875 
Q 18.109375 17.390625 22.1875 11.75 
Q 26.265625 6.109375 33.40625 6.109375 
Q 40.53125 6.109375 44.609375 11.75 
Q 48.6875 17.390625 48.6875 27.296875 
M 18.109375 46.390625 
Q 20.953125 51.265625 25.265625 53.625 
Q 29.59375 56 35.59375 56 
Q 45.5625 56 51.78125 48.09375 
Q 58.015625 40.1875 58.015625 27.296875 
Q 58.015625 14.40625 51.78125 6.484375 
Q 45.5625 -1.421875 35.59375 -1.421875 
Q 29.59375 -1.421875 25.265625 0.953125 
Q 20.953125 3.328125 18.109375 8.203125 
L 18.109375 0 
L 9.078125 0 
L 9.078125 75.984375 
L 18.109375 75.984375 
z
" id="DejaVuSans-62"/>
     </defs>
     <g transform="translate(267.800313 270.164187)scale(0.06 -0.06)">
      <use xlink:href="#DejaVuSans-50"/>
      <use x="60.287109" xlink:href="#DejaVuSans-75"/>
      <use x="123.666016" xlink:href="#DejaVuSans-6e"/>
      <use x="187.044922" xlink:href="#DejaVuSans-6b"/>
      <use x="244.955078" xlink:href="#DejaVuSans-74"/>
      <use x="284.164062" xlink:href="#DejaVuSans-20"/>
      <use x="315.951172" xlink:href="#DejaVuSans-72"/>
      <use x="357.033203" xlink:href="#DejaVuSans-f3"/>
      <use x="418.214844" xlink:href="#DejaVuSans-77"/>
      <use x="500.001953" xlink:href="#DejaVuSans-6e"/>
      <use x="563.380859" xlink:href="#DejaVuSans-6f"/>
      <use x="624.5625" xlink:href="#DejaVuSans-77"/>
      <use x="706.349609" xlink:href="#DejaVuSans-61"/>
      <use x="767.628906" xlink:href="#DejaVuSans-67"/>
      <use x="831.105469" xlink:href="#DejaVuSans-69"/>
      <use x="858.888672" xlink:href="#DejaVuSans-20"/>
      <use x="890.675781" xlink:href="#DejaVuSans-61"/>
      <use x="951.955078" xlink:href="#DejaVuSans-73"/>
      <use x="1004.054688" xlink:href="#DejaVuSans-79"/>
      <use x="1063.234375" xlink:href="#DejaVuSans-6d"/>
      <use x="1160.646484" xlink:href="#DejaVuSans-70"/>
      <use x="1224.123047" xlink:href="#DejaVuSans-74"/>
      <use x="1263.332031" xlink:href="#DejaVuSans-6f"/>
      <use x="1324.513672" xlink:href="#DejaVuSans-74"/>
      <use x="1363.722656" xlink:href="#DejaVuSans-79"/>
      <use x="1422.902344" xlink:href="#DejaVuSans-63"/>
      <use x="1477.882812" xlink:href="#DejaVuSans-7a"/>
      <use x="1530.373047" xlink:href="#DejaVuSans-6e"/>
      <use x="1593.751953" xlink:href="#DejaVuSans-69"/>
      <use x="1621.535156" xlink:href="#DejaVuSans-65"/>
      <use x="1683.058594" xlink:href="#DejaVuSans-20"/>
      <use x="1714.845703" xlink:href="#DejaVuSans-73"/>
      <use x="1766.945312" xlink:href="#DejaVuSans-74"/>
      <use x="1806.154297" xlink:href="#DejaVuSans-61"/>
      <use x="1867.433594" xlink:href="#DejaVuSans-62"/>
      <use x="1930.910156" xlink:href="#DejaVuSans-69"/>
      <use x="1958.693359" xlink:href="#DejaVuSans-6c"/>
      <use x="1986.476562" xlink:href="#DejaVuSans-6e"/>
      <use x="2049.855469" xlink:href="#DejaVuSans-79"/>
     </g>
    </g>
   </g>
  </g>
 </g>
 <defs>
  <clipPath id="p06660a732e">
   <rect height="266.112" width="357.12" x="42.620313" y="10.7"/>
  </clipPath>
 </defs>
</svg>
