<?xml version="1.0" encoding="utf-8" standalone="no"?>
<!DOCTYPE svg PUBLIC "-//W3C//DTD SVG 1.1//EN"
  "http://www.w3.org/Graphics/SVG/1.1/DTD/svg11.dtd">
<!-- Created with matplotlib (http://matplotlib.org/) -->
<svg height="314pt" version="1.1" viewBox="0 0 433 314" width="433pt" xmlns="http://www.w3.org/2000/svg" xmlns:xlink="http://www.w3.org/1999/xlink">
 <defs>
  <style type="text/css">
*{stroke-linecap:butt;stroke-linejoin:round;}
  </style>
 </defs>
 <g id="figure_1">
  <g id="patch_1">
   <path d="M 0 314.667469 
L 433.97625 314.667469 
L 433.97625 0 
L 0 0 
z
" style="fill:#ffffff;"/>
  </g>
  <g id="axes_1">
   <g id="patch_2">
    <path d="M 58.523438 277.111219 
L 415.643438 277.111219 
L 415.643438 10.999219 
L 58.523438 10.999219 
z
" style="fill:#ffffff;"/>
   </g>
   <g id="patch_3">
    <path clip-path="url(#pe372b9b8c4)" d="M 270.426479 76.611529 
L 264.67803 72.481245 
L 267.62399 71.704813 
L 268.464734 71.480955 
L 268.465693 71.482975 
L 271.411654 70.706542 
z
" style="fill:#1f77b4;stroke:#1f77b4;stroke-linejoin:miter;"/>
   </g>
   <g id="patch_4">
    <path clip-path="url(#pe372b9b8c4)" d="M 293.6078 143.206497 
L 289.312551 138.190162 
L 292.420377 137.947792 
L 293.308249 137.877983 
L 293.308328 137.878543 
L 296.416153 137.636173 
z
" style="fill:#1f77b4;stroke:#1f77b4;stroke-linejoin:miter;"/>
   </g>
   <g id="patch_5">
    <path clip-path="url(#pe372b9b8c4)" d="M 340.684046 118.40051 
L 335.777368 113.705884 
L 338.841088 113.24775 
L 339.716033 113.115354 
L 339.716437 113.116855 
L 342.780157 112.658721 
z
" style="fill:#1f77b4;stroke:#1f77b4;stroke-linejoin:miter;"/>
   </g>
   <g id="patch_6">
    <path clip-path="url(#pe372b9b8c4)" d="M 331.48916 168.546969 
L 334.08035 162.918505 
L 336.270564 164.579285 
L 336.896619 165.053589 
L 336.896339 165.053794 
L 339.086553 166.714574 
z
" style="fill:#1f77b4;stroke:#1f77b4;stroke-linejoin:miter;"/>
   </g>
   <g id="patch_7">
    <path clip-path="url(#pe372b9b8c4)" d="M 413.689026 134.857435 
L 409.513126 129.785452 
L 412.626203 129.583948 
L 413.51547 129.524797 
L 413.515654 129.526375 
L 416.628731 129.32487 
z
" style="fill:#1f77b4;stroke:#1f77b4;stroke-linejoin:miter;"/>
   </g>
   <g id="patch_8">
    <path clip-path="url(#pe372b9b8c4)" d="M 343.549369 179.620369 
L 351.377749 178.445984 
L 350.559387 180.693193 
L 350.326065 181.335353 
L 350.32557 181.335253 
L 349.507208 183.582462 
z
" style="fill:#1f77b4;stroke:#1f77b4;stroke-linejoin:miter;"/>
   </g>
   <g id="patch_9">
    <path clip-path="url(#pe372b9b8c4)" d="M 417.388487 62.289939 
L 412.181466 57.778526 
L 415.211692 57.209998 
L 416.076327 57.044177 
L 416.077471 57.047562 
L 419.107697 56.479035 
z
" style="fill:#1f77b4;stroke:#1f77b4;stroke-linejoin:miter;"/>
   </g>
   <g id="patch_10">
    <path clip-path="url(#pe372b9b8c4)" d="M 416.757643 115.620065 
L 412.116362 110.7779 
L 415.202937 110.414803 
L 416.084377 110.308992 
L 416.084815 110.311061 
L 419.171389 109.947964 
z
" style="fill:#1f77b4;stroke:#1f77b4;stroke-linejoin:miter;"/>
   </g>
   <g id="patch_11">
    <path clip-path="url(#pe372b9b8c4)" d="M 343.0756 179.61044 
L 350.921008 178.500944 
L 350.069188 180.741239 
L 349.826307 181.381428 
L 349.825811 181.381323 
L 348.973992 183.621618 
z
" style="fill:#1f77b4;stroke:#1f77b4;stroke-linejoin:miter;"/>
   </g>
   <g id="patch_12">
    <path clip-path="url(#pe372b9b8c4)" d="M 320.354666 173.350476 
L 328.304149 172.78638 
L 327.177944 174.958373 
L 326.856589 175.579063 
L 326.856171 175.578943 
L 325.729966 177.750936 
z
" style="fill:#1f77b4;stroke:#1f77b4;stroke-linejoin:miter;"/>
   </g>
   <g id="patch_13">
    <path clip-path="url(#pe372b9b8c4)" d="M 352.002421 184.16308 
L 359.965959 183.722601 
L 358.779231 185.876626 
L 358.440731 186.492235 
L 358.440166 186.492062 
L 357.253439 188.646088 
z
" style="fill:#1f77b4;stroke:#1f77b4;stroke-linejoin:miter;"/>
   </g>
   <g id="patch_14">
    <path clip-path="url(#pe372b9b8c4)" d="M 300.139026 167.020391 
L 308.120793 166.839799 
L 306.808808 168.953099 
L 306.434292 169.557016 
L 306.433955 169.556899 
L 305.121969 171.6702 
z
" style="fill:#1f77b4;stroke:#1f77b4;stroke-linejoin:miter;"/>
   </g>
   <g id="patch_15">
    <path clip-path="url(#pe372b9b8c4)" d="M 346.406467 199.621136 
L 353.849569 201.776648 
L 351.534588 203.340643 
L 350.87396 203.788151 
L 350.873166 203.787498 
L 348.558185 205.351492 
z
" style="fill:#1f77b4;stroke:#1f77b4;stroke-linejoin:miter;"/>
   </g>
   <g id="patch_16">
    <path clip-path="url(#pe372b9b8c4)" d="M 302.996286 171.00626 
L 310.858979 172.045595 
L 308.994835 173.914352 
L 308.462625 174.448506 
L 308.462223 174.448283 
L 306.598079 176.31704 
z
" style="fill:#1f77b4;stroke:#1f77b4;stroke-linejoin:miter;"/>
   </g>
   <g id="patch_17">
    <path clip-path="url(#pe372b9b8c4)" d="M 291.962556 216.297664 
L 298.409225 219.809247 
L 295.631678 220.876053 
L 294.839116 221.182334 
L 294.838093 221.180855 
L 292.060545 222.247661 
z
" style="fill:#1f77b4;stroke:#1f77b4;stroke-linejoin:miter;"/>
   </g>
   <g id="patch_18">
    <path clip-path="url(#pe372b9b8c4)" d="M 283.418083 203.995407 
L 289.874478 207.497055 
L 287.099896 208.568137 
L 286.308017 208.875396 
L 286.307158 208.87416 
L 283.532575 209.945241 
z
" style="fill:#1f77b4;stroke:#1f77b4;stroke-linejoin:miter;"/>
   </g>
   <g id="patch_19">
    <path clip-path="url(#pe372b9b8c4)" d="M 236.905142 223.443336 
L 242.886232 227.385929 
L 239.987717 228.255882 
L 239.160688 228.506508 
L 239.15957 228.50444 
L 236.261055 229.374393 
z
" style="fill:#1f77b4;stroke:#1f77b4;stroke-linejoin:miter;"/>
   </g>
   <g id="patch_20">
    <path clip-path="url(#pe372b9b8c4)" d="M 213.160442 175.820316 
L 218.836184 180.00606 
L 215.876898 180.753825 
L 215.031875 180.968542 
L 215.031388 180.967472 
L 212.072102 181.715237 
z
" style="fill:#1f77b4;stroke:#1f77b4;stroke-linejoin:miter;"/>
   </g>
   <g id="patch_21">
    <path clip-path="url(#pe372b9b8c4)" d="M 161.499633 171.218528 
L 166.619369 175.785075 
L 163.578522 176.32119 
L 162.710134 176.475704 
L 162.709709 176.474365 
L 159.668862 177.01048 
z
" style="fill:#1f77b4;stroke:#1f77b4;stroke-linejoin:miter;"/>
   </g>
   <g id="patch_22">
    <path clip-path="url(#pe372b9b8c4)" d="M 160.372142 167.276129 
L 165.408054 171.894141 
L 162.357702 172.399387 
L 161.486546 172.544994 
L 161.486173 172.543743 
L 158.435822 173.04899 
z
" style="fill:#1f77b4;stroke:#1f77b4;stroke-linejoin:miter;"/>
   </g>
   <g id="patch_23">
    <path clip-path="url(#pe372b9b8c4)" d="M 108.343121 194.49675 
L 113.474797 199.055849 
L 110.435359 199.596381 
L 109.567679 199.753101 
L 109.566948 199.750819 
L 106.52751 200.291351 
z
" style="fill:#1f77b4;stroke:#1f77b4;stroke-linejoin:miter;"/>
   </g>
   <g id="patch_24">
    <path clip-path="url(#pe372b9b8c4)" d="M 98.999172 135.33229 
L 102.260557 140.763832 
L 99.138635 140.663902 
L 98.246606 140.636248 
L 98.246658 140.635351 
L 95.124737 140.535421 
z
" style="fill:#1f77b4;stroke:#1f77b4;stroke-linejoin:miter;"/>
   </g>
   <g id="patch_25">
    <path clip-path="url(#pe372b9b8c4)" d="M 56.581939 261.415455 
L 61.958781 265.814868 
L 58.951442 266.447286 
L 58.093818 266.632241 
L 58.092203 266.627977 
L 55.084864 267.260394 
z
" style="fill:#1f77b4;stroke:#1f77b4;stroke-linejoin:miter;"/>
   </g>
   <g id="patch_26">
    <path clip-path="url(#pe372b9b8c4)" d="M 57.035604 197.210706 
L 62.015612 201.86226 
L 58.95929 202.347057 
L 58.08682 202.488248 
L 58.086055 202.48557 
L 55.029733 202.970366 
z
" style="fill:#1f77b4;stroke:#1f77b4;stroke-linejoin:miter;"/>
   </g>
   <g id="patch_27">
    <path clip-path="url(#pe372b9b8c4)" d="M 58.038039 149.769103 
L 62.086248 154.898247 
L 58.968668 155.056446 
L 58.078069 155.103153 
L 58.077931 155.101645 
L 54.960352 155.259844 
z
" style="fill:#1f77b4;stroke:#1f77b4;stroke-linejoin:miter;"/>
   </g>
   <g id="patch_28">
    <path clip-path="url(#pe372b9b8c4)" d="M 154.298087 114.786686 
L 146.340072 115.279483 
L 147.501259 113.117742 
L 147.832608 112.499977 
L 147.833027 112.500102 
L 148.994214 110.338361 
z
" style="fill:#1f77b4;stroke:#1f77b4;stroke-linejoin:miter;"/>
   </g>
   <g id="patch_29">
    <path clip-path="url(#pe372b9b8c4)" d="M 160.364538 116.706631 
L 152.398392 117.120088 
L 153.598268 114.970111 
L 153.940697 114.355709 
L 153.94109 114.355831 
L 155.140966 112.205854 
z
" style="fill:#1f77b4;stroke:#1f77b4;stroke-linejoin:miter;"/>
   </g>
   <g id="patch_30">
    <path clip-path="url(#pe372b9b8c4)" d="M 127.058794 100.669762 
L 119.14692 99.863885 
L 120.910015 97.941446 
L 121.413137 97.391862 
L 121.413757 97.392178 
L 123.176853 95.469738 
z
" style="fill:#1f77b4;stroke:#1f77b4;stroke-linejoin:miter;"/>
   </g>
   <g id="patch_31">
    <path clip-path="url(#pe372b9b8c4)" d="M 176.117124 121.401773 
L 168.132589 121.311862 
L 169.572114 119.245179 
L 169.98307 118.654568 
L 169.983406 118.654698 
L 171.42293 116.588014 
z
" style="fill:#1f77b4;stroke:#1f77b4;stroke-linejoin:miter;"/>
   </g>
   <g id="patch_32">
    <path clip-path="url(#pe372b9b8c4)" d="M 155.652194 82.158048 
L 148.782723 79.124068 
L 151.409932 77.863412 
L 152.159679 77.502202 
L 152.160563 77.503225 
L 154.787771 76.242569 
z
" style="fill:#1f77b4;stroke:#1f77b4;stroke-linejoin:miter;"/>
   </g>
   <g id="patch_33">
    <path clip-path="url(#pe372b9b8c4)" d="M 172.526764 100.680656 
L 165.513745 97.834871 
L 168.07768 96.503843 
L 168.809597 96.122869 
L 168.810233 96.123549 
L 171.374168 94.792521 
z
" style="fill:#1f77b4;stroke:#1f77b4;stroke-linejoin:miter;"/>
   </g>
   <g id="patch_34">
    <path clip-path="url(#pe372b9b8c4)" d="M 216.082009 77.083054 
L 209.921629 73.296852 
L 212.778063 72.352771 
L 213.593234 72.081432 
L 213.594187 72.083033 
L 216.450621 71.138952 
z
" style="fill:#1f77b4;stroke:#1f77b4;stroke-linejoin:miter;"/>
   </g>
   <g id="patch_35">
    <path clip-path="url(#pe372b9b8c4)" d="M 226.863707 95.558372 
L 220.7577 91.723576 
L 223.627443 90.802179 
L 224.446661 90.537698 
L 224.447369 90.538923 
L 227.317113 89.617526 
z
" style="fill:#1f77b4;stroke:#1f77b4;stroke-linejoin:miter;"/>
   </g>
   <g id="patch_36">
    <path clip-path="url(#pe372b9b8c4)" d="M 269.454489 74.54387 
L 263.694333 70.422653 
L 266.638084 69.64158 
L 267.478169 69.416352 
L 267.479155 69.418416 
L 270.422906 68.637343 
z
" style="fill:#1f77b4;stroke:#1f77b4;stroke-linejoin:miter;"/>
   </g>
   <g id="patch_37">
    <path clip-path="url(#pe372b9b8c4)" d="M 289.913874 124.832972 
L 284.748955 120.294765 
L 287.784398 119.741907 
L 288.651347 119.58297 
L 288.651668 119.583948 
L 291.687111 119.03109 
z
" style="fill:#1f77b4;stroke:#1f77b4;stroke-linejoin:miter;"/>
   </g>
   <g id="patch_38">
    <path clip-path="url(#pe372b9b8c4)" d="M 282.573261 104.311272 
L 277.053402 100.01133 
L 280.039047 99.324205 
L 280.891496 99.126455 
L 280.892088 99.127883 
L 283.877733 98.440758 
z
" style="fill:#ff7f0e;stroke:#ff7f0e;stroke-linejoin:miter;"/>
   </g>
   <g id="patch_39">
    <path clip-path="url(#pe372b9b8c4)" d="M 286.180836 113.713963 
L 280.790675 109.323609 
L 283.796089 108.686132 
L 284.654311 108.502772 
L 284.654778 108.503996 
L 287.660193 107.866519 
z
" style="fill:#ff7f0e;stroke:#ff7f0e;stroke-linejoin:miter;"/>
   </g>
   <g id="patch_40">
    <path clip-path="url(#pe372b9b8c4)" d="M 342.720264 128.569777 
L 338.086143 123.723806 
L 341.173252 123.363243 
L 342.055014 123.258942 
L 342.055283 123.260224 
L 345.142392 122.899661 
z
" style="fill:#ff7f0e;stroke:#ff7f0e;stroke-linejoin:miter;"/>
   </g>
   <g id="patch_41">
    <path clip-path="url(#pe372b9b8c4)" d="M 342.045114 158.622283 
L 339.753325 152.922162 
L 342.831717 153.32197 
L 343.711387 153.43565 
L 343.711258 153.4362 
L 346.789651 153.836008 
z
" style="fill:#ff7f0e;stroke:#ff7f0e;stroke-linejoin:miter;"/>
   </g>
   <g id="patch_42">
    <path clip-path="url(#pe372b9b8c4)" d="M 412.04364 159.128047 
L 409.186375 153.571552 
L 412.296265 153.798746 
L 413.184943 153.862607 
L 413.184805 153.863658 
L 416.294695 154.090852 
z
" style="fill:#ff7f0e;stroke:#ff7f0e;stroke-linejoin:miter;"/>
   </g>
   <g id="patch_43">
    <path clip-path="url(#pe372b9b8c4)" d="M 372.139608 185.656443 
L 379.051217 182.676077 
L 379.241555 185.000233 
L 379.296491 185.664253 
L 379.295937 185.664278 
L 379.486274 187.988434 
z
" style="fill:#ff7f0e;stroke:#ff7f0e;stroke-linejoin:miter;"/>
   </g>
   <g id="patch_44">
    <path clip-path="url(#pe372b9b8c4)" d="M 417.349972 62.29716 
L 412.176674 57.764256 
L 415.211092 57.208284 
L 416.076926 57.045971 
L 416.078069 57.049435 
L 419.112488 56.493464 
z
" style="fill:#ff7f0e;stroke:#ff7f0e;stroke-linejoin:miter;"/>
   </g>
   <g id="patch_45">
    <path clip-path="url(#pe372b9b8c4)" d="M 416.71627 115.624918 
L 412.113158 110.762565 
L 415.202536 110.412955 
L 416.084777 110.310919 
L 416.085215 110.313067 
L 419.174592 109.963457 
z
" style="fill:#ff7f0e;stroke:#ff7f0e;stroke-linejoin:miter;"/>
   </g>
   <g id="patch_46">
    <path clip-path="url(#pe372b9b8c4)" d="M 350.368437 182.594051 
L 358.170926 181.327603 
L 357.400337 183.584171 
L 357.180703 184.229006 
L 357.180169 184.228905 
L 356.40958 186.485472 
z
" style="fill:#ff7f0e;stroke:#ff7f0e;stroke-linejoin:miter;"/>
   </g>
   <g id="patch_47">
    <path clip-path="url(#pe372b9b8c4)" d="M 320.605271 174.179352 
L 328.569469 173.745559 
L 327.379486 175.898587 
L 327.039921 176.51387 
L 327.03949 176.513738 
L 325.849507 178.666766 
z
" style="fill:#ff7f0e;stroke:#ff7f0e;stroke-linejoin:miter;"/>
   </g>
   <g id="patch_48">
    <path clip-path="url(#pe372b9b8c4)" d="M 324.297168 176.16122 
L 332.280086 176.011522 
L 330.953388 178.119716 
L 330.574791 178.722218 
L 330.574331 178.722057 
L 329.247633 180.830251 
z
" style="fill:#ff7f0e;stroke:#ff7f0e;stroke-linejoin:miter;"/>
   </g>
   <g id="patch_49">
    <path clip-path="url(#pe372b9b8c4)" d="M 298.906759 166.995979 
L 306.89185 166.939814 
L 305.52084 169.032206 
L 305.129461 169.630155 
L 305.129122 169.630032 
L 303.758112 171.722424 
z
" style="fill:#ff7f0e;stroke:#ff7f0e;stroke-linejoin:miter;"/>
   </g>
   <g id="patch_50">
    <path clip-path="url(#pe372b9b8c4)" d="M 342.498857 198.089733 
L 349.972993 200.184767 
L 347.680988 201.767439 
L 347.026903 202.220253 
L 347.026129 202.219631 
L 344.734124 203.802303 
z
" style="fill:#ff7f0e;stroke:#ff7f0e;stroke-linejoin:miter;"/>
   </g>
   <g id="patch_51">
    <path clip-path="url(#pe372b9b8c4)" d="M 298.974493 169.610744 
L 306.835702 170.656295 
L 304.968898 172.523578 
L 304.43591 173.0573 
L 304.435526 173.057087 
L 302.568722 174.924369 
z
" style="fill:#ff7f0e;stroke:#ff7f0e;stroke-linejoin:miter;"/>
   </g>
   <g id="patch_52">
    <path clip-path="url(#pe372b9b8c4)" d="M 287.939695 210.671974 
L 294.392321 214.177478 
L 291.616587 215.246901 
L 290.824468 215.553817 
L 290.82352 215.552451 
L 288.047786 216.621874 
z
" style="fill:#ff7f0e;stroke:#ff7f0e;stroke-linejoin:miter;"/>
   </g>
   <g id="patch_53">
    <path clip-path="url(#pe372b9b8c4)" d="M 268.317277 182.641195 
L 274.799341 186.116411 
L 272.032681 187.198812 
L 271.242782 187.508887 
L 271.242207 187.50807 
L 268.475547 188.590471 
z
" style="fill:#ff7f0e;stroke:#ff7f0e;stroke-linejoin:miter;"/>
   </g>
   <g id="patch_54">
    <path clip-path="url(#pe372b9b8c4)" d="M 226.137969 202.891347 
L 232.032183 206.905934 
L 229.115056 207.74063 
L 228.282437 207.980755 
L 228.281592 207.979115 
L 225.364465 208.813811 
z
" style="fill:#ff7f0e;stroke:#ff7f0e;stroke-linejoin:miter;"/>
   </g>
   <g id="patch_55">
    <path clip-path="url(#pe372b9b8c4)" d="M 212.234135 173.69479 
L 217.882082 177.901359 
L 214.917879 178.63823 
L 214.071422 178.849789 
L 214.070963 178.848765 
L 211.10676 179.585636 
z
" style="fill:#ff7f0e;stroke:#ff7f0e;stroke-linejoin:miter;"/>
   </g>
   <g id="patch_56">
    <path clip-path="url(#pe372b9b8c4)" d="M 174.830101 207.589298 
L 180.385552 211.863713 
L 177.405668 212.564588 
L 176.555179 212.766978 
L 176.554273 212.764838 
L 173.574389 213.465713 
z
" style="fill:#ff7f0e;stroke:#ff7f0e;stroke-linejoin:miter;"/>
   </g>
   <g id="patch_57">
    <path clip-path="url(#pe372b9b8c4)" d="M 156.722868 148.408269 
L 161.066814 153.401265 
L 157.961428 153.66042 
L 157.074299 153.735288 
L 157.074175 153.734464 
L 153.968789 153.993619 
z
" style="fill:#ff7f0e;stroke:#ff7f0e;stroke-linejoin:miter;"/>
   </g>
   <g id="patch_58">
    <path clip-path="url(#pe372b9b8c4)" d="M 102.409325 171.389982 
L 107.17194 176.166277 
L 104.095072 176.572546 
L 103.216391 176.690411 
L 103.215966 176.688623 
L 100.139097 177.094892 
z
" style="fill:#ff7f0e;stroke:#ff7f0e;stroke-linejoin:miter;"/>
   </g>
   <g id="patch_59">
    <path clip-path="url(#pe372b9b8c4)" d="M 134.664473 111.575712 
L 127.573875 114.312674 
L 127.529187 111.984432 
L 127.515984 111.319224 
L 127.516419 111.31922 
L 127.471731 108.990978 
z
" style="fill:#ff7f0e;stroke:#ff7f0e;stroke-linejoin:miter;"/>
   </g>
   <g id="patch_60">
    <path clip-path="url(#pe372b9b8c4)" d="M 56.615656 261.408351 
L 61.963494 265.827351 
L 58.952032 266.448776 
L 58.093229 266.630671 
L 58.091614 266.626326 
L 55.080152 267.247752 
z
" style="fill:#ff7f0e;stroke:#ff7f0e;stroke-linejoin:miter;"/>
   </g>
   <g id="patch_61">
    <path clip-path="url(#pe372b9b8c4)" d="M 57.077581 197.204067 
L 62.020014 201.87782 
L 58.959841 202.348932 
L 58.08627 202.486293 
L 58.085505 202.483535 
L 55.025332 202.954647 
z
" style="fill:#ff7f0e;stroke:#ff7f0e;stroke-linejoin:miter;"/>
   </g>
   <g id="patch_62">
    <path clip-path="url(#pe372b9b8c4)" d="M 58.06385 149.76775 
L 62.087104 154.907784 
L 58.968776 155.057569 
L 58.077962 155.101951 
L 58.077825 155.100364 
L 54.959497 155.250149 
z
" style="fill:#ff7f0e;stroke:#ff7f0e;stroke-linejoin:miter;"/>
   </g>
   <g id="patch_63">
    <path clip-path="url(#pe372b9b8c4)" d="M 120.716714 104.185181 
L 112.878861 105.323939 
L 113.715614 103.080493 
L 113.954133 102.439394 
L 113.954687 102.439509 
L 114.79144 100.196064 
z
" style="fill:#ff7f0e;stroke:#ff7f0e;stroke-linejoin:miter;"/>
   </g>
   <g id="patch_64">
    <path clip-path="url(#pe372b9b8c4)" d="M 186.447357 125.292617 
L 178.462727 125.377728 
L 179.820061 123.280391 
L 180.207588 122.68105 
L 180.207871 122.681152 
L 181.565204 120.583814 
z
" style="fill:#ff7f0e;stroke:#ff7f0e;stroke-linejoin:miter;"/>
   </g>
   <g id="patch_65">
    <path clip-path="url(#pe372b9b8c4)" d="M 124.789644 97.985795 
L 116.896421 97.084063 
L 118.701276 95.183263 
L 119.216291 94.63983 
L 119.216949 94.640177 
L 121.021803 92.739376 
z
" style="fill:#ff7f0e;stroke:#ff7f0e;stroke-linejoin:miter;"/>
   </g>
   <g id="patch_66">
    <path clip-path="url(#pe372b9b8c4)" d="M 159.082886 113.942132 
L 151.115891 113.537861 
L 152.7 111.530764 
L 153.152164 110.957116 
L 153.152603 110.957308 
L 154.736712 108.950212 
z
" style="fill:#ff7f0e;stroke:#ff7f0e;stroke-linejoin:miter;"/>
   </g>
   <g id="patch_67">
    <path clip-path="url(#pe372b9b8c4)" d="M 139.419031 62.479953 
L 132.628738 59.348567 
L 135.287842 58.125607 
L 136.04644 57.774806 
L 136.047586 57.77619 
L 138.70669 56.55323 
z
" style="fill:#ff7f0e;stroke:#ff7f0e;stroke-linejoin:miter;"/>
   </g>
   <g id="patch_68">
    <path clip-path="url(#pe372b9b8c4)" d="M 188.540729 115.870232 
L 181.327724 113.317045 
L 183.789224 111.882655 
L 184.492078 111.472417 
L 184.492509 111.472829 
L 186.954009 110.038438 
z
" style="fill:#ff7f0e;stroke:#ff7f0e;stroke-linejoin:miter;"/>
   </g>
   <g id="patch_69">
    <path clip-path="url(#pe372b9b8c4)" d="M 209.922563 66.720293 
L 203.740852 62.953446 
L 206.591928 62.000414 
L 207.40543 61.726307 
L 207.406521 61.728119 
L 210.257597 60.775087 
z
" style="fill:#ff7f0e;stroke:#ff7f0e;stroke-linejoin:miter;"/>
   </g>
   <g id="patch_70">
    <path clip-path="url(#pe372b9b8c4)" d="M 228.931105 99.150474 
L 222.839725 95.302782 
L 225.712966 94.387457 
L 226.533231 94.124784 
L 226.533892 94.125936 
L 229.407132 93.21061 
z
" style="fill:#ff7f0e;stroke:#ff7f0e;stroke-linejoin:miter;"/>
   </g>
   <g id="patch_71">
    <path clip-path="url(#pe372b9b8c4)" d="M 283.144887 105.744226 
L 277.642258 101.432038 
L 280.63064 100.75155 
L 281.48389 100.555728 
L 281.484463 100.557125 
L 284.472845 99.876637 
z
" style="fill:#ff7f0e;stroke:#ff7f0e;stroke-linejoin:miter;"/>
   </g>
   <g id="patch_72">
    <path clip-path="url(#pe372b9b8c4)" d="M 286.624726 114.943145 
L 281.254945 110.538946 
L 284.263296 109.909207 
L 285.122374 109.728084 
L 285.122825 109.729282 
L 288.131176 109.099543 
z
" style="fill:#ff7f0e;stroke:#ff7f0e;stroke-linejoin:miter;"/>
   </g>
   <g id="matplotlib.axis_1">
    <g id="xtick_1">
     <g id="line2d_1">
      <defs>
       <path d="M 0 0 
L 0 3.5 
" id="mdc3d37d73a" style="stroke:#000000;stroke-width:0.8;"/>
      </defs>
      <g>
       <use style="stroke:#000000;stroke-width:0.8;" x="58.523438" xlink:href="#mdc3d37d73a" y="277.111219"/>
      </g>
     </g>
     <g id="text_1">
      <!-- −0.20 -->
      <defs>
       <path d="M 10.59375 35.5 
L 73.1875 35.5 
L 73.1875 27.203125 
L 10.59375 27.203125 
z
" id="DejaVuSans-2212"/>
       <path d="M 31.78125 66.40625 
Q 24.171875 66.40625 20.328125 58.90625 
Q 16.5 51.421875 16.5 36.375 
Q 16.5 21.390625 20.328125 13.890625 
Q 24.171875 6.390625 31.78125 6.390625 
Q 39.453125 6.390625 43.28125 13.890625 
Q 47.125 21.390625 47.125 36.375 
Q 47.125 51.421875 43.28125 58.90625 
Q 39.453125 66.40625 31.78125 66.40625 
M 31.78125 74.21875 
Q 44.046875 74.21875 50.515625 64.515625 
Q 56.984375 54.828125 56.984375 36.375 
Q 56.984375 17.96875 50.515625 8.265625 
Q 44.046875 -1.421875 31.78125 -1.421875 
Q 19.53125 -1.421875 13.0625 8.265625 
Q 6.59375 17.96875 6.59375 36.375 
Q 6.59375 54.828125 13.0625 64.515625 
Q 19.53125 74.21875 31.78125 74.21875 
" id="DejaVuSans-30"/>
       <path d="M 10.6875 12.40625 
L 21 12.40625 
L 21 0 
L 10.6875 0 
z
" id="DejaVuSans-2e"/>
       <path d="M 19.1875 8.296875 
L 53.609375 8.296875 
L 53.609375 0 
L 7.328125 0 
L 7.328125 8.296875 
Q 12.9375 14.109375 22.625 23.890625 
Q 32.328125 33.6875 34.8125 36.53125 
Q 39.546875 41.84375 41.421875 45.53125 
Q 43.3125 49.21875 43.3125 52.78125 
Q 43.3125 58.59375 39.234375 62.25 
Q 35.15625 65.921875 28.609375 65.921875 
Q 23.96875 65.921875 18.8125 64.3125 
Q 13.671875 62.703125 7.8125 59.421875 
L 7.8125 69.390625 
Q 13.765625 71.78125 18.9375 73 
Q 24.125 74.21875 28.421875 74.21875 
Q 39.75 74.21875 46.484375 68.546875 
Q 53.21875 62.890625 53.21875 53.421875 
Q 53.21875 48.921875 51.53125 44.890625 
Q 49.859375 40.875 45.40625 35.40625 
Q 44.1875 33.984375 37.640625 27.21875 
Q 31.109375 20.453125 19.1875 8.296875 
" id="DejaVuSans-32"/>
      </defs>
      <g transform="translate(43.200781 291.709656)scale(0.1 -0.1)">
       <use xlink:href="#DejaVuSans-2212"/>
       <use x="83.789062" xlink:href="#DejaVuSans-30"/>
       <use x="147.412109" xlink:href="#DejaVuSans-2e"/>
       <use x="179.199219" xlink:href="#DejaVuSans-32"/>
       <use x="242.822266" xlink:href="#DejaVuSans-30"/>
      </g>
     </g>
    </g>
    <g id="xtick_2">
     <g id="line2d_2">
      <g>
       <use style="stroke:#000000;stroke-width:0.8;" x="103.163437" xlink:href="#mdc3d37d73a" y="277.111219"/>
      </g>
     </g>
     <g id="text_2">
      <!-- −0.15 -->
      <defs>
       <path d="M 12.40625 8.296875 
L 28.515625 8.296875 
L 28.515625 63.921875 
L 10.984375 60.40625 
L 10.984375 69.390625 
L 28.421875 72.90625 
L 38.28125 72.90625 
L 38.28125 8.296875 
L 54.390625 8.296875 
L 54.390625 0 
L 12.40625 0 
z
" id="DejaVuSans-31"/>
       <path d="M 10.796875 72.90625 
L 49.515625 72.90625 
L 49.515625 64.59375 
L 19.828125 64.59375 
L 19.828125 46.734375 
Q 21.96875 47.46875 24.109375 47.828125 
Q 26.265625 48.1875 28.421875 48.1875 
Q 40.625 48.1875 47.75 41.5 
Q 54.890625 34.8125 54.890625 23.390625 
Q 54.890625 11.625 47.5625 5.09375 
Q 40.234375 -1.421875 26.90625 -1.421875 
Q 22.3125 -1.421875 17.546875 -0.640625 
Q 12.796875 0.140625 7.71875 1.703125 
L 7.71875 11.625 
Q 12.109375 9.234375 16.796875 8.0625 
Q 21.484375 6.890625 26.703125 6.890625 
Q 35.15625 6.890625 40.078125 11.328125 
Q 45.015625 15.765625 45.015625 23.390625 
Q 45.015625 31 40.078125 35.4375 
Q 35.15625 39.890625 26.703125 39.890625 
Q 22.75 39.890625 18.8125 39.015625 
Q 14.890625 38.140625 10.796875 36.28125 
z
" id="DejaVuSans-35"/>
      </defs>
      <g transform="translate(87.840781 291.709656)scale(0.1 -0.1)">
       <use xlink:href="#DejaVuSans-2212"/>
       <use x="83.789062" xlink:href="#DejaVuSans-30"/>
       <use x="147.412109" xlink:href="#DejaVuSans-2e"/>
       <use x="179.199219" xlink:href="#DejaVuSans-31"/>
       <use x="242.822266" xlink:href="#DejaVuSans-35"/>
      </g>
     </g>
    </g>
    <g id="xtick_3">
     <g id="line2d_3">
      <g>
       <use style="stroke:#000000;stroke-width:0.8;" x="147.803438" xlink:href="#mdc3d37d73a" y="277.111219"/>
      </g>
     </g>
     <g id="text_3">
      <!-- −0.10 -->
      <g transform="translate(132.480781 291.709656)scale(0.1 -0.1)">
       <use xlink:href="#DejaVuSans-2212"/>
       <use x="83.789062" xlink:href="#DejaVuSans-30"/>
       <use x="147.412109" xlink:href="#DejaVuSans-2e"/>
       <use x="179.199219" xlink:href="#DejaVuSans-31"/>
       <use x="242.822266" xlink:href="#DejaVuSans-30"/>
      </g>
     </g>
    </g>
    <g id="xtick_4">
     <g id="line2d_4">
      <g>
       <use style="stroke:#000000;stroke-width:0.8;" x="192.443438" xlink:href="#mdc3d37d73a" y="277.111219"/>
      </g>
     </g>
     <g id="text_4">
      <!-- −0.05 -->
      <g transform="translate(177.120781 291.709656)scale(0.1 -0.1)">
       <use xlink:href="#DejaVuSans-2212"/>
       <use x="83.789062" xlink:href="#DejaVuSans-30"/>
       <use x="147.412109" xlink:href="#DejaVuSans-2e"/>
       <use x="179.199219" xlink:href="#DejaVuSans-30"/>
       <use x="242.822266" xlink:href="#DejaVuSans-35"/>
      </g>
     </g>
    </g>
    <g id="xtick_5">
     <g id="line2d_5">
      <g>
       <use style="stroke:#000000;stroke-width:0.8;" x="237.083438" xlink:href="#mdc3d37d73a" y="277.111219"/>
      </g>
     </g>
     <g id="text_5">
      <!-- 0.00 -->
      <g transform="translate(225.950625 291.709656)scale(0.1 -0.1)">
       <use xlink:href="#DejaVuSans-30"/>
       <use x="63.623047" xlink:href="#DejaVuSans-2e"/>
       <use x="95.410156" xlink:href="#DejaVuSans-30"/>
       <use x="159.033203" xlink:href="#DejaVuSans-30"/>
      </g>
     </g>
    </g>
    <g id="xtick_6">
     <g id="line2d_6">
      <g>
       <use style="stroke:#000000;stroke-width:0.8;" x="281.723437" xlink:href="#mdc3d37d73a" y="277.111219"/>
      </g>
     </g>
     <g id="text_6">
      <!-- 0.05 -->
      <g transform="translate(270.590625 291.709656)scale(0.1 -0.1)">
       <use xlink:href="#DejaVuSans-30"/>
       <use x="63.623047" xlink:href="#DejaVuSans-2e"/>
       <use x="95.410156" xlink:href="#DejaVuSans-30"/>
       <use x="159.033203" xlink:href="#DejaVuSans-35"/>
      </g>
     </g>
    </g>
    <g id="xtick_7">
     <g id="line2d_7">
      <g>
       <use style="stroke:#000000;stroke-width:0.8;" x="326.363438" xlink:href="#mdc3d37d73a" y="277.111219"/>
      </g>
     </g>
     <g id="text_7">
      <!-- 0.10 -->
      <g transform="translate(315.230625 291.709656)scale(0.1 -0.1)">
       <use xlink:href="#DejaVuSans-30"/>
       <use x="63.623047" xlink:href="#DejaVuSans-2e"/>
       <use x="95.410156" xlink:href="#DejaVuSans-31"/>
       <use x="159.033203" xlink:href="#DejaVuSans-30"/>
      </g>
     </g>
    </g>
    <g id="xtick_8">
     <g id="line2d_8">
      <g>
       <use style="stroke:#000000;stroke-width:0.8;" x="371.003438" xlink:href="#mdc3d37d73a" y="277.111219"/>
      </g>
     </g>
     <g id="text_8">
      <!-- 0.15 -->
      <g transform="translate(359.870625 291.709656)scale(0.1 -0.1)">
       <use xlink:href="#DejaVuSans-30"/>
       <use x="63.623047" xlink:href="#DejaVuSans-2e"/>
       <use x="95.410156" xlink:href="#DejaVuSans-31"/>
       <use x="159.033203" xlink:href="#DejaVuSans-35"/>
      </g>
     </g>
    </g>
    <g id="xtick_9">
     <g id="line2d_9">
      <g>
       <use style="stroke:#000000;stroke-width:0.8;" x="415.643438" xlink:href="#mdc3d37d73a" y="277.111219"/>
      </g>
     </g>
     <g id="text_9">
      <!-- 0.20 -->
      <g transform="translate(404.510625 291.709656)scale(0.1 -0.1)">
       <use xlink:href="#DejaVuSans-30"/>
       <use x="63.623047" xlink:href="#DejaVuSans-2e"/>
       <use x="95.410156" xlink:href="#DejaVuSans-32"/>
       <use x="159.033203" xlink:href="#DejaVuSans-30"/>
      </g>
     </g>
    </g>
    <g id="text_10">
     <!-- x1 -->
     <defs>
      <path d="M 54.890625 54.6875 
L 35.109375 28.078125 
L 55.90625 0 
L 45.3125 0 
L 29.390625 21.484375 
L 13.484375 0 
L 2.875 0 
L 24.125 28.609375 
L 4.6875 54.6875 
L 15.28125 54.6875 
L 29.78125 35.203125 
L 44.28125 54.6875 
z
" id="DejaVuSans-78"/>
     </defs>
     <g transform="translate(230.942813 305.387781)scale(0.1 -0.1)">
      <use xlink:href="#DejaVuSans-78"/>
      <use x="59.179688" xlink:href="#DejaVuSans-31"/>
     </g>
    </g>
   </g>
   <g id="matplotlib.axis_2">
    <g id="ytick_1">
     <g id="line2d_10">
      <defs>
       <path d="M 0 0 
L -3.5 0 
" id="macff8f92da" style="stroke:#000000;stroke-width:0.8;"/>
      </defs>
      <g>
       <use style="stroke:#000000;stroke-width:0.8;" x="58.523438" xlink:href="#macff8f92da" y="277.111219"/>
      </g>
     </g>
     <g id="text_11">
      <!-- −0.20 -->
      <g transform="translate(20.878125 280.910438)scale(0.1 -0.1)">
       <use xlink:href="#DejaVuSans-2212"/>
       <use x="83.789062" xlink:href="#DejaVuSans-30"/>
       <use x="147.412109" xlink:href="#DejaVuSans-2e"/>
       <use x="179.199219" xlink:href="#DejaVuSans-32"/>
       <use x="242.822266" xlink:href="#DejaVuSans-30"/>
      </g>
     </g>
    </g>
    <g id="ytick_2">
     <g id="line2d_11">
      <g>
       <use style="stroke:#000000;stroke-width:0.8;" x="58.523438" xlink:href="#macff8f92da" y="243.847219"/>
      </g>
     </g>
     <g id="text_12">
      <!-- −0.15 -->
      <g transform="translate(20.878125 247.646437)scale(0.1 -0.1)">
       <use xlink:href="#DejaVuSans-2212"/>
       <use x="83.789062" xlink:href="#DejaVuSans-30"/>
       <use x="147.412109" xlink:href="#DejaVuSans-2e"/>
       <use x="179.199219" xlink:href="#DejaVuSans-31"/>
       <use x="242.822266" xlink:href="#DejaVuSans-35"/>
      </g>
     </g>
    </g>
    <g id="ytick_3">
     <g id="line2d_12">
      <g>
       <use style="stroke:#000000;stroke-width:0.8;" x="58.523438" xlink:href="#macff8f92da" y="210.583219"/>
      </g>
     </g>
     <g id="text_13">
      <!-- −0.10 -->
      <g transform="translate(20.878125 214.382437)scale(0.1 -0.1)">
       <use xlink:href="#DejaVuSans-2212"/>
       <use x="83.789062" xlink:href="#DejaVuSans-30"/>
       <use x="147.412109" xlink:href="#DejaVuSans-2e"/>
       <use x="179.199219" xlink:href="#DejaVuSans-31"/>
       <use x="242.822266" xlink:href="#DejaVuSans-30"/>
      </g>
     </g>
    </g>
    <g id="ytick_4">
     <g id="line2d_13">
      <g>
       <use style="stroke:#000000;stroke-width:0.8;" x="58.523438" xlink:href="#macff8f92da" y="177.319219"/>
      </g>
     </g>
     <g id="text_14">
      <!-- −0.05 -->
      <g transform="translate(20.878125 181.118437)scale(0.1 -0.1)">
       <use xlink:href="#DejaVuSans-2212"/>
       <use x="83.789062" xlink:href="#DejaVuSans-30"/>
       <use x="147.412109" xlink:href="#DejaVuSans-2e"/>
       <use x="179.199219" xlink:href="#DejaVuSans-30"/>
       <use x="242.822266" xlink:href="#DejaVuSans-35"/>
      </g>
     </g>
    </g>
    <g id="ytick_5">
     <g id="line2d_14">
      <g>
       <use style="stroke:#000000;stroke-width:0.8;" x="58.523438" xlink:href="#macff8f92da" y="144.055219"/>
      </g>
     </g>
     <g id="text_15">
      <!-- 0.00 -->
      <g transform="translate(29.257813 147.854437)scale(0.1 -0.1)">
       <use xlink:href="#DejaVuSans-30"/>
       <use x="63.623047" xlink:href="#DejaVuSans-2e"/>
       <use x="95.410156" xlink:href="#DejaVuSans-30"/>
       <use x="159.033203" xlink:href="#DejaVuSans-30"/>
      </g>
     </g>
    </g>
    <g id="ytick_6">
     <g id="line2d_15">
      <g>
       <use style="stroke:#000000;stroke-width:0.8;" x="58.523438" xlink:href="#macff8f92da" y="110.791219"/>
      </g>
     </g>
     <g id="text_16">
      <!-- 0.05 -->
      <g transform="translate(29.257813 114.590437)scale(0.1 -0.1)">
       <use xlink:href="#DejaVuSans-30"/>
       <use x="63.623047" xlink:href="#DejaVuSans-2e"/>
       <use x="95.410156" xlink:href="#DejaVuSans-30"/>
       <use x="159.033203" xlink:href="#DejaVuSans-35"/>
      </g>
     </g>
    </g>
    <g id="ytick_7">
     <g id="line2d_16">
      <g>
       <use style="stroke:#000000;stroke-width:0.8;" x="58.523438" xlink:href="#macff8f92da" y="77.527219"/>
      </g>
     </g>
     <g id="text_17">
      <!-- 0.10 -->
      <g transform="translate(29.257813 81.326437)scale(0.1 -0.1)">
       <use xlink:href="#DejaVuSans-30"/>
       <use x="63.623047" xlink:href="#DejaVuSans-2e"/>
       <use x="95.410156" xlink:href="#DejaVuSans-31"/>
       <use x="159.033203" xlink:href="#DejaVuSans-30"/>
      </g>
     </g>
    </g>
    <g id="ytick_8">
     <g id="line2d_17">
      <g>
       <use style="stroke:#000000;stroke-width:0.8;" x="58.523438" xlink:href="#macff8f92da" y="44.263219"/>
      </g>
     </g>
     <g id="text_18">
      <!-- 0.15 -->
      <g transform="translate(29.257813 48.062437)scale(0.1 -0.1)">
       <use xlink:href="#DejaVuSans-30"/>
       <use x="63.623047" xlink:href="#DejaVuSans-2e"/>
       <use x="95.410156" xlink:href="#DejaVuSans-31"/>
       <use x="159.033203" xlink:href="#DejaVuSans-35"/>
      </g>
     </g>
    </g>
    <g id="ytick_9">
     <g id="line2d_18">
      <g>
       <use style="stroke:#000000;stroke-width:0.8;" x="58.523438" xlink:href="#macff8f92da" y="10.999219"/>
      </g>
     </g>
     <g id="text_19">
      <!-- 0.20 -->
      <g transform="translate(29.257813 14.798437)scale(0.1 -0.1)">
       <use xlink:href="#DejaVuSans-30"/>
       <use x="63.623047" xlink:href="#DejaVuSans-2e"/>
       <use x="95.410156" xlink:href="#DejaVuSans-32"/>
       <use x="159.033203" xlink:href="#DejaVuSans-30"/>
      </g>
     </g>
    </g>
    <g id="text_20">
     <!-- x2 -->
     <g transform="translate(14.798438 150.195844)rotate(-90)scale(0.1 -0.1)">
      <use xlink:href="#DejaVuSans-78"/>
      <use x="59.179688" xlink:href="#DejaVuSans-32"/>
     </g>
    </g>
   </g>
   <g id="line2d_19">
    <path clip-path="url(#pe372b9b8c4)" d="M 237.083438 10.999219 
L 247.026246 29.749588 
L 255.550918 46.270014 
L 262.826525 60.815487 
L 269.002727 73.611967 
L 274.212127 84.860013 
L 278.572146 94.737608 
L 282.186668 103.402595 
L 285.147565 110.994937 
L 287.536064 117.638724 
L 289.424065 123.444115 
L 291.078484 129.28703 
L 292.226007 134.257177 
L 292.942933 138.472658 
L 293.29524 142.036023 
L 293.350422 144.639069 
L 293.210992 146.877615 
L 292.838946 149.086213 
L 292.277563 150.918026 
L 291.559719 152.425446 
L 290.713703 153.653879 
L 289.763829 154.64266 
L 288.577723 155.522746 
L 287.309572 156.177812 
L 285.812222 156.691629 
L 284.090882 157.036786 
L 282.160108 157.199004 
L 279.866819 157.166863 
L 277.077475 156.888672 
L 273.871782 156.335469 
L 270.055932 155.446306 
L 265.307727 154.099586 
L 259.240626 152.130429 
L 250.736354 149.113907 
L 237.083437 144.055219 
L 237.083438 144.055219 
" style="fill:none;stroke:#1f77b4;stroke-linecap:square;stroke-width:0.5;"/>
   </g>
   <g id="line2d_20">
    <path clip-path="url(#pe372b9b8c4)" d="M 298.383163 10.999219 
L 306.699626 28.914585 
L 313.876369 44.987342 
L 320.031527 59.396737 
L 325.271081 72.304208 
L 329.690865 83.856302 
L 333.377205 94.185561 
L 336.408065 103.412126 
L 338.853756 111.644736 
L 340.77761 118.981694 
L 342.236697 125.511882 
L 343.282404 131.315598 
L 343.96101 136.465393 
L 344.314142 141.026735 
L 344.379275 145.05875 
L 344.190113 148.614786 
L 343.776957 151.742962 
L 343.167029 154.486662 
L 342.384796 156.885018 
L 341.452227 158.973304 
L 340.389035 160.783305 
L 339.212915 162.343682 
L 337.93974 163.680266 
L 336.583731 164.816335 
L 334.865015 165.9443 
L 333.064779 166.845923 
L 331.200088 167.549746 
L 328.962927 168.154306 
L 326.349506 168.601921 
L 323.700041 168.832468 
L 320.702595 168.879087 
L 317.379784 168.718831 
L 313.438846 168.299699 
L 308.947893 167.583715 
L 304.002132 166.566332 
L 298.150767 165.12448 
L 291.400456 163.219505 
L 283.467042 160.739997 
L 273.797268 157.476159 
L 260.967386 152.895225 
L 239.449208 144.93662 
L 237.083437 144.055219 
L 237.083438 144.055219 
" style="fill:none;stroke:#1f77b4;stroke-linecap:square;stroke-width:0.5;"/>
   </g>
   <g id="line2d_21">
    <path clip-path="url(#pe372b9b8c4)" d="M 376.062264 10.999219 
L 382.754277 27.548 
L 388.596343 42.677817 
L 393.661478 56.501777 
L 398.017183 69.125023 
L 401.725443 80.644606 
L 404.843023 91.149849 
L 407.42204 100.723133 
L 409.510458 109.440568 
L 411.152319 117.372295 
L 412.388045 124.582909 
L 413.254727 131.131856 
L 413.786371 137.073793 
L 414.014203 142.459026 
L 413.966863 147.333795 
L 413.670591 151.74056 
L 413.149444 155.718319 
L 412.425471 159.302885 
L 411.518883 162.527133 
L 410.448208 165.42126 
L 409.230418 168.012969 
L 407.881055 170.327677 
L 406.414353 172.388702 
L 404.84334 174.217438 
L 403.179952 175.833515 
L 401.435113 177.254953 
L 399.154675 178.783091 
L 396.780213 180.062167 
L 394.32754 181.118521 
L 391.810789 181.975816 
L 388.723795 182.771593 
L 385.581926 183.343917 
L 381.869363 183.767387 
L 378.127892 183.965525 
L 373.841424 183.959845 
L 369.03456 183.709219 
L 363.745473 183.187891 
L 358.02536 182.386059 
L 351.936905 181.309063 
L 345.070586 179.867431 
L 337.572053 178.068192 
L 329.183518 175.82985 
L 319.409301 172.981447 
L 308.461448 169.549975 
L 295.918719 165.379539 
L 280.936074 160.153332 
L 262.131459 153.343601 
L 237.083437 144.055219 
L 237.083437 144.055219 
" style="fill:none;stroke:#1f77b4;stroke-linecap:square;stroke-width:0.5;"/>
   </g>
   <g id="line2d_22">
    <path clip-path="url(#pe372b9b8c4)" d="M 415.643438 57.125395 
L 416.787158 60.510283 
" style="fill:none;stroke:#1f77b4;stroke-linecap:square;stroke-width:0.5;"/>
   </g>
   <g id="line2d_23">
    <path clip-path="url(#pe372b9b8c4)" d="M 415.643438 110.360863 
L 416.081651 112.429293 
" style="fill:none;stroke:#1f77b4;stroke-linecap:square;stroke-width:0.5;"/>
   </g>
   <g id="line2d_24">
    <path clip-path="url(#pe372b9b8c4)" d="M 415.643438 155.080553 
L 414.950483 158.784474 
L 414.068747 162.117411 
L 413.017372 165.110568 
L 411.813783 167.792401 
L 410.47402 170.189143 
L 409.012728 172.324793 
L 407.443302 174.221343 
L 405.778044 175.899029 
L 404.028205 177.3764 
L 402.204054 178.670429 
L 399.833607 180.053754 
L 397.378345 181.202578 
L 394.853168 182.141794 
L 391.749283 183.023441 
L 388.584105 183.669622 
L 385.375353 184.110549 
L 381.597226 184.40085 
L 377.259257 184.481619 
L 372.924942 184.339287 
L 368.08017 183.961581 
L 362.76514 183.326507 
L 357.032126 182.426607 
L 350.445314 181.16526 
L 343.136987 179.532143 
L 334.818933 177.430618 
L 325.768092 174.907799 
L 315.544244 171.822997 
L 303.753708 168.024297 
L 290.136134 163.39441 
L 273.753489 157.579499 
L 252.055433 149.62415 
L 237.083437 144.055219 
L 237.083437 144.055219 
" style="fill:none;stroke:#1f77b4;stroke-linecap:square;stroke-width:0.5;"/>
   </g>
   <g id="line2d_25">
    <path clip-path="url(#pe372b9b8c4)" d="M 415.643438 202.418992 
L 395.496833 196.941632 
L 377.281483 191.756911 
L 359.745654 186.531095 
L 342.664625 181.210561 
L 325.194209 175.535208 
L 306.960681 169.371887 
L 287.669926 162.60979 
L 265.993369 154.766847 
L 237.083437 144.055219 
L 237.083438 144.055219 
" style="fill:none;stroke:#1f77b4;stroke-linecap:square;stroke-width:0.5;"/>
   </g>
   <g id="line2d_26">
    <path clip-path="url(#pe372b9b8c4)" d="M 415.643438 266.541895 
L 404.706508 254.682567 
L 394.8123 244.30943 
L 385.830978 235.214459 
L 377.650966 227.221162 
L 369.160777 219.243057 
L 361.469003 212.318176 
L 353.640939 205.589555 
L 346.56684 199.804861 
L 339.464682 194.296725 
L 333.046228 189.589076 
L 326.6597 185.168162 
L 320.377321 181.080162 
L 313.808231 177.082353 
L 307.52945 173.520103 
L 300.851952 169.995865 
L 294.029025 166.653341 
L 286.744932 163.33708 
L 278.542047 159.856408 
L 268.766667 155.961752 
L 254.6136 150.58951 
L 237.083437 144.055219 
L 237.083438 144.055219 
" style="fill:none;stroke:#1f77b4;stroke-linecap:square;stroke-width:0.5;"/>
   </g>
   <g id="line2d_27">
    <path clip-path="url(#pe372b9b8c4)" d="M 333.715277 277.111219 
L 304.176935 233.987502 
L 281.021693 200.562795 
L 265.027655 177.843786 
L 254.613033 163.412645 
L 248.148215 154.806129 
L 244.180303 149.861642 
L 241.722752 147.121828 
L 240.117683 145.640111 
L 238.937421 144.839565 
L 237.701059 144.286708 
L 237.083437 144.055219 
L 237.083437 144.055219 
" style="fill:none;stroke:#1f77b4;stroke-linecap:square;stroke-width:0.5;"/>
   </g>
   <g id="line2d_28">
    <path clip-path="url(#pe372b9b8c4)" d="M 266.879832 277.111219 
L 253.857475 254.22625 
L 243.098613 234.852234 
L 234.255047 218.463769 
L 227.030924 204.614654 
L 221.174579 192.925068 
L 216.471956 183.071464 
L 212.741222 174.778429 
L 209.827717 167.811132 
L 207.600137 161.969642 
L 205.947018 157.083709 
L 204.773744 153.008323 
L 204.000083 149.620056 
L 203.55807 146.813914 
L 203.390131 144.500543 
L 203.447553 142.603945 
L 203.689157 141.059504 
L 204.138031 139.67487 
L 204.734787 138.600782 
L 205.44533 137.782415 
L 206.334329 137.117811 
L 207.397508 136.625312 
L 208.622085 136.310595 
L 210.09407 136.164328 
L 211.892528 136.21401 
L 214.168092 136.515525 
L 216.988028 137.129924 
L 220.603179 138.159902 
L 225.5976 139.832875 
L 234.49606 143.091394 
L 237.083438 144.055219 
L 237.083437 144.055219 
" style="fill:none;stroke:#1f77b4;stroke-linecap:square;stroke-width:0.5;"/>
   </g>
   <g id="line2d_29">
    <path clip-path="url(#pe372b9b8c4)" d="M 207.287043 277.111219 
L 198.933554 260.283053 
L 191.651247 245.161748 
L 185.33094 231.582412 
L 179.874283 219.396156 
L 175.192366 208.468033 
L 171.204846 198.675753 
L 167.839382 189.90888 
L 165.030604 182.067324 
L 162.719502 175.06047 
L 160.852859 168.80635 
L 159.382682 163.230826 
L 158.265783 158.266976 
L 157.463163 153.854193 
L 156.939684 149.937707 
L 156.663743 146.468097 
L 156.606884 143.400721 
L 156.743486 140.69525 
L 157.050512 138.315291 
L 157.507248 136.227995 
L 158.095064 134.403703 
L 158.950017 132.524213 
L 159.943998 130.943718 
L 161.054443 129.625724 
L 162.261548 128.537981 
L 163.547936 127.651974 
L 165.128735 126.83984 
L 166.775917 126.233182 
L 168.716934 125.752878 
L 170.948651 125.438408 
L 173.457615 125.315947 
L 176.220298 125.397815 
L 179.450588 125.7145 
L 183.325899 126.333633 
L 187.728106 127.274497 
L 192.918624 128.622332 
L 199.146141 130.481858 
L 206.884292 133.038924 
L 217.234696 136.710519 
L 235.817374 143.583514 
L 237.083438 144.055219 
L 237.083437 144.055219 
" style="fill:none;stroke:#1f77b4;stroke-linecap:square;stroke-width:0.5;"/>
   </g>
   <g id="line2d_30">
    <path clip-path="url(#pe372b9b8c4)" d="M 140.451598 277.111219 
L 133.729536 261.662573 
L 127.801536 247.516071 
L 122.600555 234.569274 
L 118.064539 222.726961 
L 114.136436 211.901224 
L 110.763924 202.011106 
L 107.898894 192.981875 
L 105.497008 184.744417 
L 103.51749 177.234955 
L 101.922858 170.394672 
L 100.678657 164.169338 
L 99.753252 158.509016 
L 99.117597 153.367726 
L 98.744954 148.703043 
L 98.610787 144.475937 
L 98.692595 140.650524 
L 98.969718 137.193776 
L 99.423187 134.075302 
L 100.035604 131.267156 
L 100.791013 128.743648 
L 101.674781 126.481158 
L 102.673489 124.457969 
L 103.774835 122.654114 
L 104.967549 121.051249 
L 106.571248 119.304704 
L 108.283322 117.815937 
L 110.087398 116.557976 
L 111.968823 115.506557 
L 114.310274 114.486894 
L 116.72426 113.699682 
L 119.193278 113.115278 
L 122.12311 112.655139 
L 125.511273 112.37774 
L 128.916975 112.321391 
L 132.742634 112.473912 
L 136.957313 112.857605 
L 141.928825 113.545633 
L 147.171323 114.493924 
L 153.375823 115.852071 
L 160.344199 117.61834 
L 168.162594 119.835562 
L 177.336828 122.677982 
L 188.095515 126.252859 
L 201.487144 130.950126 
L 219.681828 137.58811 
L 237.083438 144.055219 
L 237.083437 144.055219 
" style="fill:none;stroke:#1f77b4;stroke-linecap:square;stroke-width:0.5;"/>
   </g>
   <g id="line2d_31">
    <path clip-path="url(#pe372b9b8c4)" d="M 58.523438 266.541895 
L 56.908503 262.277732 
" style="fill:none;stroke:#1f77b4;stroke-linecap:square;stroke-width:0.5;"/>
   </g>
   <g id="line2d_32">
    <path clip-path="url(#pe372b9b8c4)" d="M 58.523438 202.418992 
L 57.758282 199.740499 
" style="fill:none;stroke:#1f77b4;stroke-linecap:square;stroke-width:0.5;"/>
   </g>
   <g id="line2d_33">
    <path clip-path="url(#pe372b9b8c4)" d="M 58.523438 155.080553 
L 58.385638 153.572691 
" style="fill:none;stroke:#1f77b4;stroke-linecap:square;stroke-width:0.5;"/>
   </g>
   <g id="line2d_34">
    <path clip-path="url(#pe372b9b8c4)" d="M 58.523438 110.360863 
L 60.374134 108.828138 
L 62.301935 107.485434 
L 64.805396 106.04989 
L 67.3969 104.857413 
L 70.060926 103.882084 
L 72.783749 103.100877 
L 76.111526 102.390604 
L 79.487511 101.898137 
L 83.465363 101.56162 
L 87.464233 101.444657 
L 92.035863 101.537105 
L 97.152789 101.878913 
L 102.773904 102.494992 
L 108.845015 103.394621 
L 115.300436 104.572323 
L 122.575 106.125261 
L 130.515165 108.045237 
L 139.395409 110.419954 
L 149.330639 113.307169 
L 160.607082 116.819298 
L 173.399202 121.040073 
L 188.402637 126.231987 
L 206.647732 132.792206 
L 232.606406 142.387414 
L 237.083438 144.055219 
L 237.083438 144.055219 
" style="fill:none;stroke:#1f77b4;stroke-linecap:square;stroke-width:0.5;"/>
   </g>
   <g id="line2d_35">
    <path clip-path="url(#pe372b9b8c4)" d="M 58.523438 57.125395 
L 66.398214 63.211777 
L 73.733445 68.624152 
L 81.5312 74.102853 
L 88.776264 78.938633 
L 96.345167 83.73052 
L 104.121278 88.382277 
L 112.003861 92.826861 
L 119.907605 97.023582 
L 128.33807 101.234116 
L 137.080099 105.339302 
L 146.410722 109.466516 
L 156.82796 113.819395 
L 168.758761 118.554989 
L 184.376847 124.496233 
L 216.421343 136.373753 
L 237.083438 144.055219 
L 237.083437 144.055219 
" style="fill:none;stroke:#1f77b4;stroke-linecap:square;stroke-width:0.5;"/>
   </g>
   <g id="line2d_36">
    <path clip-path="url(#pe372b9b8c4)" d="M 98.104611 10.999219 
L 111.440504 28.22402 
L 124.411216 44.620297 
L 135.565756 58.381973 
L 146.180999 71.123252 
L 155.239122 81.660463 
L 163.722815 91.185435 
L 170.934119 98.961856 
L 177.621163 105.853003 
L 183.74411 111.836932 
L 189.298542 116.943198 
L 194.306148 121.238168 
L 198.805761 124.811115 
L 203.062966 127.913505 
L 207.207218 130.654084 
L 211.277076 133.069376 
L 215.372054 135.232724 
L 219.732108 137.276716 
L 224.860087 139.422002 
L 232.543205 142.362242 
L 237.083438 144.055219 
L 237.083438 144.055219 
" style="fill:none;stroke:#1f77b4;stroke-linecap:square;stroke-width:0.5;"/>
   </g>
   <g id="line2d_37">
    <path clip-path="url(#pe372b9b8c4)" d="M 175.783712 10.999219 
L 194.649219 41.566189 
L 209.150277 65.470265 
L 220.239634 84.150994 
L 229.264937 99.792105 
L 235.89861 111.730734 
L 240.708695 120.822448 
L 244.131879 127.726174 
L 246.650379 133.293547 
L 248.267219 137.394414 
L 249.22198 140.394145 
L 249.694433 142.568419 
L 249.819216 144.125136 
L 249.69694 145.220985 
L 249.402579 145.973985 
L 248.959173 146.500756 
L 248.394915 146.832211 
L 247.620122 147.017133 
L 246.580236 147.020228 
L 245.121262 146.78159 
L 242.999117 146.185988 
L 239.282684 144.873254 
L 237.083437 144.055219 
L 237.083438 144.055219 
" style="fill:none;stroke:#1f77b4;stroke-linecap:square;stroke-width:0.5;"/>
   </g>
   <g id="line2d_38">
    <path clip-path="url(#pe372b9b8c4)" d="M 237.083437 10.999219 
L 247.026246 29.749588 
L 255.550918 46.270014 
L 262.826525 60.815487 
L 269.002727 73.611967 
L 274.212127 84.860013 
L 278.572146 94.737608 
L 282.186668 103.402595 
L 285.147565 110.994937 
L 287.536064 117.638724 
L 289.424065 123.444115 
L 291.078484 129.28703 
L 292.226007 134.257177 
L 292.942933 138.472658 
L 293.29524 142.036023 
L 293.350422 144.639069 
L 293.210992 146.877615 
L 292.838946 149.086213 
L 292.277563 150.918026 
L 291.559719 152.425446 
L 290.713703 153.653879 
L 289.763829 154.64266 
L 288.577723 155.522746 
L 287.309572 156.177812 
L 285.812222 156.691629 
L 284.090882 157.036786 
L 282.160108 157.199004 
L 279.866819 157.166863 
L 277.077475 156.888672 
L 273.871782 156.335469 
L 270.055932 155.446306 
L 265.307727 154.099586 
L 259.240626 152.130429 
L 250.736354 149.113907 
L 237.083437 144.055219 
L 237.083437 144.055219 
" style="fill:none;stroke:#1f77b4;stroke-linecap:square;stroke-width:0.5;"/>
   </g>
   <g id="line2d_39">
    <path clip-path="url(#pe372b9b8c4)" d="M 237.083438 144.055219 
" style="fill:none;stroke:#1f77b4;stroke-linecap:square;stroke-width:1.5;"/>
   </g>
   <g id="line2d_40">
    <path clip-path="url(#pe372b9b8c4)" d="M 237.083438 10.999219 
L 247.026246 29.749609 
L 255.550908 46.270286 
L 262.826465 60.816607 
L 269.002513 73.614852 
L 274.211572 84.865755 
L 278.570974 94.747318 
L 282.184518 103.41728 
L 285.144004 111.01541 
L 287.5306 117.665542 
L 289.416172 123.477565 
L 290.864236 128.54884 
L 291.930867 132.96556 
L 292.665611 136.804107 
L 293.112254 140.132206 
L 293.30944 143.009848 
L 293.291254 145.490153 
L 293.087751 147.620172 
L 292.725428 149.441581 
L 292.132959 151.225504 
L 291.388248 152.69081 
L 290.519084 153.88207 
L 289.549352 154.837924 
L 288.344105 155.684841 
L 287.060148 156.310814 
L 285.548502 156.796067 
L 283.815032 157.113888 
L 281.697714 157.253741 
L 279.398566 157.181016 
L 276.610438 156.865175 
L 273.251158 156.24557 
L 269.318603 155.285992 
L 264.382557 153.839283 
L 258.069773 151.742873 
L 248.712688 148.375877 
L 237.083437 144.055219 
L 237.083437 144.055219 
" style="fill:none;stroke:#ff7f0e;stroke-linecap:square;stroke-width:0.5;"/>
   </g>
   <g id="line2d_41">
    <path clip-path="url(#pe372b9b8c4)" d="M 298.383163 10.999219 
L 306.699028 28.933301 
L 313.873743 45.029898 
L 320.025109 59.467952 
L 325.258803 72.408249 
L 329.670401 83.99644 
L 333.346052 94.364049 
L 336.363612 103.630165 
L 338.793334 111.902466 
L 340.698584 119.278294 
L 342.136505 125.845649 
L 343.158635 131.684101 
L 343.811429 136.865582 
L 344.136748 141.455109 
L 344.172299 145.511442 
L 343.952059 149.087722 
L 343.506602 152.231954 
L 342.863436 154.987512 
L 342.047299 157.393587 
L 341.080435 159.485593 
L 339.982835 161.295531 
L 338.772443 162.852298 
L 337.465354 164.18198 
L 336.075995 165.308129 
L 334.318279 166.420642 
L 332.48044 167.303446 
L 330.579781 167.985588 
L 328.302985 168.561885 
L 325.647674 168.974236 
L 322.960236 169.167371 
L 319.924965 169.170464 
L 316.566335 168.961381 
L 312.591002 168.484722 
L 308.07134 167.705147 
L 303.106713 166.621856 
L 297.250175 165.109839 
L 290.516737 163.137112 
L 282.412394 160.525272 
L 272.017665 156.925989 
L 257.198592 151.533958 
L 237.083437 144.055219 
L 237.083438 144.055219 
" style="fill:none;stroke:#ff7f0e;stroke-linecap:square;stroke-width:0.5;"/>
   </g>
   <g id="line2d_42">
    <path clip-path="url(#pe372b9b8c4)" d="M 376.062264 10.999219 
L 382.750174 27.70236 
L 388.579654 42.992789 
L 393.623509 56.981638 
L 397.949078 69.771858 
L 401.618192 81.458133 
L 404.687663 92.127621 
L 407.20987 101.86082 
L 409.233073 110.732044 
L 410.801672 118.809803 
L 411.956525 126.157289 
L 412.73525 132.832811 
L 413.172452 138.89015 
L 413.299958 144.378902 
L 413.14706 149.344838 
L 412.740673 153.830151 
L 412.105541 157.873751 
L 411.264399 161.511519 
L 410.238128 164.77653 
L 409.045904 167.69928 
L 407.705336 170.307893 
L 406.232587 172.628298 
L 404.642477 174.684389 
L 402.948591 176.498183 
L 401.163368 178.089952 
L 399.298233 179.478425 
L 397.363631 180.680835 
L 394.862189 181.946291 
L 392.283973 182.974042 
L 389.644054 183.789591 
L 386.413529 184.520375 
L 383.133922 185.014123 
L 379.823039 185.302215 
L 375.941271 185.415148 
L 371.505109 185.296439 
L 367.093768 184.960144 
L 362.186765 184.373016 
L 356.831407 183.51848 
L 350.572961 182.286096 
L 343.540777 180.655868 
L 335.895751 178.646358 
L 327.389465 176.180297 
L 317.542606 173.091437 
L 305.919774 169.205937 
L 291.411282 164.106635 
L 271.631953 156.896504 
L 237.083437 144.055219 
L 237.083437 144.055219 
" style="fill:none;stroke:#ff7f0e;stroke-linecap:square;stroke-width:0.5;"/>
   </g>
   <g id="line2d_43">
    <path clip-path="url(#pe372b9b8c4)" d="M 415.643438 57.125395 
L 416.786624 60.589897 
" style="fill:none;stroke:#ff7f0e;stroke-linecap:square;stroke-width:0.5;"/>
   </g>
   <g id="line2d_44">
    <path clip-path="url(#pe372b9b8c4)" d="M 415.643438 110.360863 
L 416.081119 112.508431 
" style="fill:none;stroke:#ff7f0e;stroke-linecap:square;stroke-width:0.5;"/>
   </g>
   <g id="line2d_45">
    <path clip-path="url(#pe372b9b8c4)" d="M 415.643438 155.080553 
L 414.942226 159.086574 
L 414.036932 162.68843 
L 412.9484 165.919166 
L 411.695733 168.809193 
L 410.29645 171.386521 
L 408.766621 173.676965 
L 407.121002 175.704345 
L 405.373121 177.490614 
L 403.535372 179.056 
L 401.619106 180.419141 
L 399.634707 181.5972 
L 397.072789 182.83347 
L 394.43599 183.833349 
L 391.739308 184.622273 
L 388.442976 185.322661 
L 385.099952 185.787575 
L 381.727903 186.048245 
L 377.777454 186.130804 
L 373.266179 185.979391 
L 368.783149 185.612386 
L 363.799335 184.992872 
L 358.36307 184.104735 
L 352.013246 182.83496 
L 344.881744 181.164726 
L 337.131985 179.113656 
L 328.512302 176.603218 
L 318.537375 173.464896 
L 306.766641 169.522957 
L 292.076929 164.355234 
L 272.054028 157.053867 
L 237.083437 144.055219 
L 237.083437 144.055219 
" style="fill:none;stroke:#ff7f0e;stroke-linecap:square;stroke-width:0.5;"/>
   </g>
   <g id="line2d_46">
    <path clip-path="url(#pe372b9b8c4)" d="M 415.643438 202.418992 
L 408.668264 201.16506 
L 401.108265 199.584376 
L 392.33104 197.505347 
L 383.213197 195.113689 
L 373.220676 192.26834 
L 361.988879 188.842032 
L 348.827267 184.583747 
L 333.570625 179.39804 
L 315.499984 173.009893 
L 291.900712 164.417019 
L 251.963194 149.598793 
L 237.083437 144.055219 
L 237.083438 144.055219 
" style="fill:none;stroke:#ff7f0e;stroke-linecap:square;stroke-width:0.5;"/>
   </g>
   <g id="line2d_47">
    <path clip-path="url(#pe372b9b8c4)" d="M 415.643438 266.541895 
L 404.68327 255.147631 
L 393.383017 243.744541 
L 383.224967 233.830477 
L 374.060963 225.193 
L 365.763958 217.650799 
L 357.330995 210.283177 
L 349.725423 203.919813 
L 342.11034 197.83851 
L 334.602627 192.147747 
L 327.869354 187.316918 
L 321.272653 182.845617 
L 314.871874 178.7613 
L 308.294016 174.827118 
L 301.706947 171.150753 
L 294.92399 167.628575 
L 287.898109 164.239661 
L 280.470746 160.907581 
L 272.019616 157.368396 
L 261.704773 153.303288 
L 245.591476 147.226226 
L 237.083437 144.055219 
L 237.083438 144.055219 
" style="fill:none;stroke:#ff7f0e;stroke-linecap:square;stroke-width:0.5;"/>
   </g>
   <g id="line2d_48">
    <path clip-path="url(#pe372b9b8c4)" d="M 333.715277 277.111219 
L 298.398764 225.765658 
L 275.989695 193.547632 
L 261.184769 172.62954 
L 252.141253 160.206333 
L 246.4904 152.794536 
L 243.117174 148.702791 
L 240.994961 146.449903 
L 239.596148 145.268135 
L 238.490816 144.617033 
L 237.083437 144.055219 
L 237.083437 144.055219 
" style="fill:none;stroke:#ff7f0e;stroke-linecap:square;stroke-width:0.5;"/>
   </g>
   <g id="line2d_49">
    <path clip-path="url(#pe372b9b8c4)" d="M 266.879832 277.111219 
L 253.85738 254.22756 
L 243.098373 234.853459 
L 234.254689 218.464757 
L 227.030488 204.615426 
L 221.174059 192.925401 
L 216.471438 183.071064 
L 212.740807 174.776897 
L 209.827538 167.808077 
L 207.600372 161.964781 
L 205.947865 157.076886 
L 204.775417 152.999523 
L 204.002801 149.6094 
L 203.562023 146.801603 
L 203.395483 144.486847 
L 203.454435 142.589179 
L 203.697669 141.044003 
L 204.090366 139.796376 
L 204.674422 138.690591 
L 205.375719 137.846489 
L 206.257706 137.159097 
L 207.316281 136.647273 
L 208.538645 136.316914 
L 210.010718 136.157904 
L 211.811843 136.197903 
L 213.99162 136.475596 
L 216.735252 137.058769 
L 220.230458 138.03894 
L 225.040447 139.634355 
L 233.309061 142.649587 
L 237.083438 144.055219 
L 237.083438 144.055219 
" style="fill:none;stroke:#ff7f0e;stroke-linecap:square;stroke-width:0.5;"/>
   </g>
   <g id="line2d_50">
    <path clip-path="url(#pe372b9b8c4)" d="M 207.287043 277.111219 
L 198.933634 260.280387 
L 191.651644 245.154498 
L 185.332036 231.568377 
L 179.876608 219.373069 
L 175.196604 208.433755 
L 171.21181 198.628416 
L 167.850005 189.846998 
L 165.045897 181.989844 
L 162.740536 174.966796 
L 160.880727 168.696334 
L 159.418478 163.10475 
L 158.310562 158.125488 
L 157.517926 153.698266 
L 157.005358 149.76858 
L 156.741169 146.28722 
L 156.696796 143.209692 
L 156.846509 140.495767 
L 157.167155 138.109103 
L 157.637898 136.016856 
L 158.23999 134.189342 
L 159.112278 132.3082 
L 160.123641 130.72834 
L 161.251339 129.413095 
L 162.475392 128.329993 
L 163.778279 127.450302 
L 165.377601 126.647377 
L 167.042366 126.051578 
L 169.002159 125.585287 
L 171.253102 125.288012 
L 173.780896 125.185723 
L 176.561127 125.290306 
L 179.807847 125.633517 
L 183.697201 126.283516 
L 188.107939 127.257001 
L 193.298468 128.638501 
L 199.511744 130.529575 
L 207.357709 133.161043 
L 218.335143 137.098166 
L 237.083438 144.055219 
L 237.083437 144.055219 
" style="fill:none;stroke:#ff7f0e;stroke-linecap:square;stroke-width:0.5;"/>
   </g>
   <g id="line2d_51">
    <path clip-path="url(#pe372b9b8c4)" d="M 140.451598 277.111219 
L 133.730947 261.608958 
L 127.807401 247.403269 
L 122.614176 234.392486 
L 118.089383 222.482258 
L 114.176235 211.585888 
L 110.822604 201.623663 
L 107.980325 192.521816 
L 105.605031 184.21228 
L 103.655944 176.632372 
L 102.095497 169.724238 
L 100.889053 163.434424 
L 100.004756 157.713656 
L 99.4133 152.516499 
L 99.087718 147.801036 
L 99.00321 143.528616 
L 99.13696 139.663577 
L 99.467993 136.173031 
L 99.977022 133.026645 
L 100.646336 130.196458 
L 101.459667 127.656697 
L 102.402073 125.383592 
L 103.45984 123.355234 
L 104.620381 121.55142 
L 105.872147 119.953527 
L 107.549093 118.219714 
L 109.333342 116.750331 
L 111.208095 115.51776 
L 113.158311 114.49707 
L 115.170543 113.665764 
L 117.650255 112.889742 
L 120.18371 112.325969 
L 123.186174 111.899758 
L 126.218402 111.686466 
L 129.696769 111.661 
L 133.599457 111.860496 
L 137.892351 112.30683 
L 142.529728 113.006103 
L 147.859432 114.03491 
L 153.767488 115.400849 
L 160.476473 117.178686 
L 168.410995 119.520758 
L 177.683095 122.500917 
L 188.976669 126.375801 
L 203.918782 131.753247 
L 230.242373 141.506471 
L 237.083438 144.055219 
L 237.083437 144.055219 
" style="fill:none;stroke:#ff7f0e;stroke-linecap:square;stroke-width:0.5;"/>
   </g>
   <g id="line2d_52">
    <path clip-path="url(#pe372b9b8c4)" d="M 58.523438 266.541895 
L 56.90904 262.197801 
" style="fill:none;stroke:#ff7f0e;stroke-linecap:square;stroke-width:0.5;"/>
   </g>
   <g id="line2d_53">
    <path clip-path="url(#pe372b9b8c4)" d="M 58.523438 202.418992 
L 57.758813 199.661138 
" style="fill:none;stroke:#ff7f0e;stroke-linecap:square;stroke-width:0.5;"/>
   </g>
   <g id="line2d_54">
    <path clip-path="url(#pe372b9b8c4)" d="M 58.523438 155.080553 
L 58.386171 153.493757 
" style="fill:none;stroke:#ff7f0e;stroke-linecap:square;stroke-width:0.5;"/>
   </g>
   <g id="line2d_55">
    <path clip-path="url(#pe372b9b8c4)" d="M 58.523438 110.360863 
L 60.382336 108.529061 
L 62.333366 106.925675 
L 64.364833 105.531495 
L 66.465958 104.328686 
L 69.175308 103.069271 
L 71.960781 102.054089 
L 74.806929 101.256895 
L 77.699924 100.653926 
L 81.216118 100.156735 
L 84.763435 99.875495 
L 88.919853 99.781666 
L 93.074747 99.901848 
L 97.797833 100.2567 
L 103.052214 100.880604 
L 108.7873 101.791473 
L 114.939873 102.990347 
L 121.966669 104.591038 
L 129.711605 106.588624 
L 138.461933 109.081525 
L 148.336025 112.130097 
L 160.003638 115.975326 
L 174.076809 120.861413 
L 192.345978 127.457684 
L 222.171311 138.500124 
L 237.083438 144.055219 
L 237.083437 144.055219 
" style="fill:none;stroke:#ff7f0e;stroke-linecap:square;stroke-width:0.5;"/>
   </g>
   <g id="line2d_56">
    <path clip-path="url(#pe372b9b8c4)" d="M 58.523438 57.125395 
L 67.508134 63.489659 
L 76.847577 69.833129 
L 86.383629 76.018218 
L 95.142595 81.436665 
L 103.99221 86.65607 
L 112.827122 91.614667 
L 122.198595 96.607043 
L 131.2765 101.193055 
L 141.048878 105.874258 
L 151.143594 110.458546 
L 162.020175 115.150444 
L 174.358663 120.219533 
L 188.893345 125.93591 
L 208.359036 133.332066 
L 237.083438 144.055219 
L 237.083438 144.055219 
" style="fill:none;stroke:#ff7f0e;stroke-linecap:square;stroke-width:0.5;"/>
   </g>
   <g id="line2d_57">
    <path clip-path="url(#pe372b9b8c4)" d="M 98.104611 10.999219 
L 112.998848 29.937292 
L 127.097661 47.495719 
L 139.05038 62.024194 
L 149.225851 74.064206 
L 158.726385 84.961595 
L 166.770686 93.863266 
L 174.195738 101.749524 
L 180.477719 108.117393 
L 186.245325 113.665608 
L 191.491197 118.41598 
L 196.232514 122.42505 
L 200.746929 125.95452 
L 204.960479 128.966743 
L 209.009458 131.585941 
L 212.941597 133.865758 
L 216.967533 135.942931 
L 221.401325 137.971145 
L 226.777355 140.168574 
L 236.099634 143.688669 
L 237.083438 144.055219 
L 237.083438 144.055219 
" style="fill:none;stroke:#ff7f0e;stroke-linecap:square;stroke-width:0.5;"/>
   </g>
   <g id="line2d_58">
    <path clip-path="url(#pe372b9b8c4)" d="M 175.783712 10.999219 
L 194.651287 41.546389 
L 209.15571 65.449637 
L 220.247964 84.13447 
L 229.275722 99.780711 
L 235.911015 111.72346 
L 240.722086 120.818267 
L 244.145788 127.724316 
L 246.664449 133.293571 
L 248.281153 137.39587 
L 249.23554 140.396653 
L 249.707451 142.571679 
L 249.831571 144.128888 
L 249.708559 145.225019 
L 249.413428 145.978137 
L 248.969184 146.504887 
L 248.404054 146.836208 
L 247.628222 147.020845 
L 246.587115 147.023482 
L 245.126656 146.784168 
L 243.002696 146.187636 
L 239.283835 144.873705 
L 237.083437 144.055219 
L 237.083438 144.055219 
" style="fill:none;stroke:#ff7f0e;stroke-linecap:square;stroke-width:0.5;"/>
   </g>
   <g id="line2d_59">
    <path clip-path="url(#pe372b9b8c4)" d="M 237.083437 10.999219 
L 247.026246 29.749609 
L 255.550908 46.270286 
L 262.826465 60.816607 
L 269.002513 73.614852 
L 274.211572 84.865755 
L 278.570974 94.747318 
L 282.184518 103.41728 
L 285.144004 111.01541 
L 287.5306 117.665542 
L 289.416172 123.477565 
L 290.864236 128.54884 
L 291.930867 132.96556 
L 292.665611 136.804107 
L 293.112254 140.132206 
L 293.30944 143.009848 
L 293.291254 145.490153 
L 293.087751 147.620172 
L 292.725428 149.441581 
L 292.132959 151.225504 
L 291.388248 152.69081 
L 290.519084 153.88207 
L 289.549352 154.837924 
L 288.344105 155.684841 
L 287.060148 156.310814 
L 285.548502 156.796067 
L 283.815032 157.113888 
L 281.697714 157.253741 
L 279.398566 157.181016 
L 276.610438 156.865175 
L 273.251158 156.24557 
L 269.318603 155.285992 
L 264.382557 153.839283 
L 258.069773 151.742873 
L 248.712688 148.375877 
L 237.083437 144.055219 
L 237.083438 144.055219 
" style="fill:none;stroke:#ff7f0e;stroke-linecap:square;stroke-width:0.5;"/>
   </g>
   <g id="line2d_60">
    <path clip-path="url(#pe372b9b8c4)" d="M 237.083438 144.055219 
" style="fill:none;stroke:#ff7f0e;stroke-linecap:square;stroke-width:1.5;"/>
   </g>
   <g id="line2d_61">
    <defs>
     <path d="M 0 3 
C 0.795609 3 1.55874 2.683901 2.12132 2.12132 
C 2.683901 1.55874 3 0.795609 3 0 
C 3 -0.795609 2.683901 -1.55874 2.12132 -2.12132 
C 1.55874 -2.683901 0.795609 -3 0 -3 
C -0.795609 -3 -1.55874 -2.683901 -2.12132 -2.12132 
C -2.683901 -1.55874 -3 -0.795609 -3 0 
C -3 0.795609 -2.683901 1.55874 -2.12132 2.12132 
C -1.55874 2.683901 -0.795609 3 0 3 
z
" id="mefee37134b" style="stroke:#ff0000;"/>
    </defs>
    <g clip-path="url(#pe372b9b8c4)">
     <use style="fill:#ff0000;stroke:#ff0000;" x="237.083438" xlink:href="#mefee37134b" y="144.055219"/>
    </g>
   </g>
   <g id="patch_73">
    <path d="M 58.523438 277.111219 
L 58.523438 10.999219 
" style="fill:none;stroke:#000000;stroke-linecap:square;stroke-linejoin:miter;stroke-width:0.8;"/>
   </g>
   <g id="patch_74">
    <path d="M 415.643438 277.111219 
L 415.643438 10.999219 
" style="fill:none;stroke:#000000;stroke-linecap:square;stroke-linejoin:miter;stroke-width:0.8;"/>
   </g>
   <g id="patch_75">
    <path d="M 58.523438 277.111219 
L 415.643438 277.111219 
" style="fill:none;stroke:#000000;stroke-linecap:square;stroke-linejoin:miter;stroke-width:0.8;"/>
   </g>
   <g id="patch_76">
    <path d="M 58.523438 10.999219 
L 415.643438 10.999219 
" style="fill:none;stroke:#000000;stroke-linecap:square;stroke-linejoin:miter;stroke-width:0.8;"/>
   </g>
   <g id="legend_1">
    <g id="patch_77">
     <path d="M 265.703438 274.111219 
L 411.443438 274.111219 
Q 412.643438 274.111219 412.643438 272.911219 
L 412.643438 246.850594 
Q 412.643438 245.650594 411.443438 245.650594 
L 265.703438 245.650594 
Q 264.503438 245.650594 264.503438 246.850594 
L 264.503438 272.911219 
Q 264.503438 274.111219 265.703438 274.111219 
z
" style="fill:#ffffff;opacity:0.8;stroke:#cccccc;stroke-linejoin:miter;"/>
    </g>
    <g id="line2d_62">
     <path d="M 266.903437 250.509656 
L 278.903437 250.509656 
" style="fill:none;stroke:#1f77b4;stroke-linecap:square;stroke-width:1.5;"/>
    </g>
    <g id="line2d_63"/>
    <g id="text_21">
     <!-- system nieliniowy -->
     <defs>
      <path d="M 44.28125 53.078125 
L 44.28125 44.578125 
Q 40.484375 46.53125 36.375 47.5 
Q 32.28125 48.484375 27.875 48.484375 
Q 21.1875 48.484375 17.84375 46.4375 
Q 14.5 44.390625 14.5 40.28125 
Q 14.5 37.15625 16.890625 35.375 
Q 19.28125 33.59375 26.515625 31.984375 
L 29.59375 31.296875 
Q 39.15625 29.25 43.1875 25.515625 
Q 47.21875 21.78125 47.21875 15.09375 
Q 47.21875 7.46875 41.1875 3.015625 
Q 35.15625 -1.421875 24.609375 -1.421875 
Q 20.21875 -1.421875 15.453125 -0.5625 
Q 10.6875 0.296875 5.421875 2 
L 5.421875 11.28125 
Q 10.40625 8.6875 15.234375 7.390625 
Q 20.0625 6.109375 24.8125 6.109375 
Q 31.15625 6.109375 34.5625 8.28125 
Q 37.984375 10.453125 37.984375 14.40625 
Q 37.984375 18.0625 35.515625 20.015625 
Q 33.0625 21.96875 24.703125 23.78125 
L 21.578125 24.515625 
Q 13.234375 26.265625 9.515625 29.90625 
Q 5.8125 33.546875 5.8125 39.890625 
Q 5.8125 47.609375 11.28125 51.796875 
Q 16.75 56 26.8125 56 
Q 31.78125 56 36.171875 55.265625 
Q 40.578125 54.546875 44.28125 53.078125 
" id="DejaVuSans-73"/>
      <path d="M 32.171875 -5.078125 
Q 28.375 -14.84375 24.75 -17.8125 
Q 21.140625 -20.796875 15.09375 -20.796875 
L 7.90625 -20.796875 
L 7.90625 -13.28125 
L 13.1875 -13.28125 
Q 16.890625 -13.28125 18.9375 -11.515625 
Q 21 -9.765625 23.484375 -3.21875 
L 25.09375 0.875 
L 2.984375 54.6875 
L 12.5 54.6875 
L 29.59375 11.921875 
L 46.6875 54.6875 
L 56.203125 54.6875 
z
" id="DejaVuSans-79"/>
      <path d="M 18.3125 70.21875 
L 18.3125 54.6875 
L 36.8125 54.6875 
L 36.8125 47.703125 
L 18.3125 47.703125 
L 18.3125 18.015625 
Q 18.3125 11.328125 20.140625 9.421875 
Q 21.96875 7.515625 27.59375 7.515625 
L 36.8125 7.515625 
L 36.8125 0 
L 27.59375 0 
Q 17.1875 0 13.234375 3.875 
Q 9.28125 7.765625 9.28125 18.015625 
L 9.28125 47.703125 
L 2.6875 47.703125 
L 2.6875 54.6875 
L 9.28125 54.6875 
L 9.28125 70.21875 
z
" id="DejaVuSans-74"/>
      <path d="M 56.203125 29.59375 
L 56.203125 25.203125 
L 14.890625 25.203125 
Q 15.484375 15.921875 20.484375 11.0625 
Q 25.484375 6.203125 34.421875 6.203125 
Q 39.59375 6.203125 44.453125 7.46875 
Q 49.3125 8.734375 54.109375 11.28125 
L 54.109375 2.78125 
Q 49.265625 0.734375 44.1875 -0.34375 
Q 39.109375 -1.421875 33.890625 -1.421875 
Q 20.796875 -1.421875 13.15625 6.1875 
Q 5.515625 13.8125 5.515625 26.8125 
Q 5.515625 40.234375 12.765625 48.109375 
Q 20.015625 56 32.328125 56 
Q 43.359375 56 49.78125 48.890625 
Q 56.203125 41.796875 56.203125 29.59375 
M 47.21875 32.234375 
Q 47.125 39.59375 43.09375 43.984375 
Q 39.0625 48.390625 32.421875 48.390625 
Q 24.90625 48.390625 20.390625 44.140625 
Q 15.875 39.890625 15.1875 32.171875 
z
" id="DejaVuSans-65"/>
      <path d="M 52 44.1875 
Q 55.375 50.25 60.0625 53.125 
Q 64.75 56 71.09375 56 
Q 79.640625 56 84.28125 50.015625 
Q 88.921875 44.046875 88.921875 33.015625 
L 88.921875 0 
L 79.890625 0 
L 79.890625 32.71875 
Q 79.890625 40.578125 77.09375 44.375 
Q 74.3125 48.1875 68.609375 48.1875 
Q 61.625 48.1875 57.5625 43.546875 
Q 53.515625 38.921875 53.515625 30.90625 
L 53.515625 0 
L 44.484375 0 
L 44.484375 32.71875 
Q 44.484375 40.625 41.703125 44.40625 
Q 38.921875 48.1875 33.109375 48.1875 
Q 26.21875 48.1875 22.15625 43.53125 
Q 18.109375 38.875 18.109375 30.90625 
L 18.109375 0 
L 9.078125 0 
L 9.078125 54.6875 
L 18.109375 54.6875 
L 18.109375 46.1875 
Q 21.1875 51.21875 25.484375 53.609375 
Q 29.78125 56 35.6875 56 
Q 41.65625 56 45.828125 52.96875 
Q 50 49.953125 52 44.1875 
" id="DejaVuSans-6d"/>
      <path id="DejaVuSans-20"/>
      <path d="M 54.890625 33.015625 
L 54.890625 0 
L 45.90625 0 
L 45.90625 32.71875 
Q 45.90625 40.484375 42.875 44.328125 
Q 39.84375 48.1875 33.796875 48.1875 
Q 26.515625 48.1875 22.3125 43.546875 
Q 18.109375 38.921875 18.109375 30.90625 
L 18.109375 0 
L 9.078125 0 
L 9.078125 54.6875 
L 18.109375 54.6875 
L 18.109375 46.1875 
Q 21.34375 51.125 25.703125 53.5625 
Q 30.078125 56 35.796875 56 
Q 45.21875 56 50.046875 50.171875 
Q 54.890625 44.34375 54.890625 33.015625 
" id="DejaVuSans-6e"/>
      <path d="M 9.421875 54.6875 
L 18.40625 54.6875 
L 18.40625 0 
L 9.421875 0 
z
M 9.421875 75.984375 
L 18.40625 75.984375 
L 18.40625 64.59375 
L 9.421875 64.59375 
z
" id="DejaVuSans-69"/>
      <path d="M 9.421875 75.984375 
L 18.40625 75.984375 
L 18.40625 0 
L 9.421875 0 
z
" id="DejaVuSans-6c"/>
      <path d="M 30.609375 48.390625 
Q 23.390625 48.390625 19.1875 42.75 
Q 14.984375 37.109375 14.984375 27.296875 
Q 14.984375 17.484375 19.15625 11.84375 
Q 23.34375 6.203125 30.609375 6.203125 
Q 37.796875 6.203125 41.984375 11.859375 
Q 46.1875 17.53125 46.1875 27.296875 
Q 46.1875 37.015625 41.984375 42.703125 
Q 37.796875 48.390625 30.609375 48.390625 
M 30.609375 56 
Q 42.328125 56 49.015625 48.375 
Q 55.71875 40.765625 55.71875 27.296875 
Q 55.71875 13.875 49.015625 6.21875 
Q 42.328125 -1.421875 30.609375 -1.421875 
Q 18.84375 -1.421875 12.171875 6.21875 
Q 5.515625 13.875 5.515625 27.296875 
Q 5.515625 40.765625 12.171875 48.375 
Q 18.84375 56 30.609375 56 
" id="DejaVuSans-6f"/>
      <path d="M 4.203125 54.6875 
L 13.1875 54.6875 
L 24.421875 12.015625 
L 35.59375 54.6875 
L 46.1875 54.6875 
L 57.421875 12.015625 
L 68.609375 54.6875 
L 77.59375 54.6875 
L 63.28125 0 
L 52.6875 0 
L 40.921875 44.828125 
L 29.109375 0 
L 18.5 0 
z
" id="DejaVuSans-77"/>
     </defs>
     <g transform="translate(283.703438 252.609656)scale(0.06 -0.06)">
      <use xlink:href="#DejaVuSans-73"/>
      <use x="52.099609" xlink:href="#DejaVuSans-79"/>
      <use x="111.279297" xlink:href="#DejaVuSans-73"/>
      <use x="163.378906" xlink:href="#DejaVuSans-74"/>
      <use x="202.587891" xlink:href="#DejaVuSans-65"/>
      <use x="264.111328" xlink:href="#DejaVuSans-6d"/>
      <use x="361.523438" xlink:href="#DejaVuSans-20"/>
      <use x="393.310547" xlink:href="#DejaVuSans-6e"/>
      <use x="456.689453" xlink:href="#DejaVuSans-69"/>
      <use x="484.472656" xlink:href="#DejaVuSans-65"/>
      <use x="545.996094" xlink:href="#DejaVuSans-6c"/>
      <use x="573.779297" xlink:href="#DejaVuSans-69"/>
      <use x="601.5625" xlink:href="#DejaVuSans-6e"/>
      <use x="664.941406" xlink:href="#DejaVuSans-69"/>
      <use x="692.724609" xlink:href="#DejaVuSans-6f"/>
      <use x="753.90625" xlink:href="#DejaVuSans-77"/>
      <use x="835.693359" xlink:href="#DejaVuSans-79"/>
     </g>
    </g>
    <g id="line2d_64">
     <path d="M 266.903437 259.316531 
L 278.903437 259.316531 
" style="fill:none;stroke:#ff7f0e;stroke-linecap:square;stroke-width:1.5;"/>
    </g>
    <g id="line2d_65"/>
    <g id="text_22">
     <!-- system zlinearyzowany -->
     <defs>
      <path d="M 5.515625 54.6875 
L 48.1875 54.6875 
L 48.1875 46.484375 
L 14.40625 7.171875 
L 48.1875 7.171875 
L 48.1875 0 
L 4.296875 0 
L 4.296875 8.203125 
L 38.09375 47.515625 
L 5.515625 47.515625 
z
" id="DejaVuSans-7a"/>
      <path d="M 34.28125 27.484375 
Q 23.390625 27.484375 19.1875 25 
Q 14.984375 22.515625 14.984375 16.5 
Q 14.984375 11.71875 18.140625 8.90625 
Q 21.296875 6.109375 26.703125 6.109375 
Q 34.1875 6.109375 38.703125 11.40625 
Q 43.21875 16.703125 43.21875 25.484375 
L 43.21875 27.484375 
z
M 52.203125 31.203125 
L 52.203125 0 
L 43.21875 0 
L 43.21875 8.296875 
Q 40.140625 3.328125 35.546875 0.953125 
Q 30.953125 -1.421875 24.3125 -1.421875 
Q 15.921875 -1.421875 10.953125 3.296875 
Q 6 8.015625 6 15.921875 
Q 6 25.140625 12.171875 29.828125 
Q 18.359375 34.515625 30.609375 34.515625 
L 43.21875 34.515625 
L 43.21875 35.40625 
Q 43.21875 41.609375 39.140625 45 
Q 35.0625 48.390625 27.6875 48.390625 
Q 23 48.390625 18.546875 47.265625 
Q 14.109375 46.140625 10.015625 43.890625 
L 10.015625 52.203125 
Q 14.9375 54.109375 19.578125 55.046875 
Q 24.21875 56 28.609375 56 
Q 40.484375 56 46.34375 49.84375 
Q 52.203125 43.703125 52.203125 31.203125 
" id="DejaVuSans-61"/>
      <path d="M 41.109375 46.296875 
Q 39.59375 47.171875 37.8125 47.578125 
Q 36.03125 48 33.890625 48 
Q 26.265625 48 22.1875 43.046875 
Q 18.109375 38.09375 18.109375 28.8125 
L 18.109375 0 
L 9.078125 0 
L 9.078125 54.6875 
L 18.109375 54.6875 
L 18.109375 46.1875 
Q 20.953125 51.171875 25.484375 53.578125 
Q 30.03125 56 36.53125 56 
Q 37.453125 56 38.578125 55.875 
Q 39.703125 55.765625 41.0625 55.515625 
z
" id="DejaVuSans-72"/>
     </defs>
     <g transform="translate(283.703438 261.416531)scale(0.06 -0.06)">
      <use xlink:href="#DejaVuSans-73"/>
      <use x="52.099609" xlink:href="#DejaVuSans-79"/>
      <use x="111.279297" xlink:href="#DejaVuSans-73"/>
      <use x="163.378906" xlink:href="#DejaVuSans-74"/>
      <use x="202.587891" xlink:href="#DejaVuSans-65"/>
      <use x="264.111328" xlink:href="#DejaVuSans-6d"/>
      <use x="361.523438" xlink:href="#DejaVuSans-20"/>
      <use x="393.310547" xlink:href="#DejaVuSans-7a"/>
      <use x="445.800781" xlink:href="#DejaVuSans-6c"/>
      <use x="473.583984" xlink:href="#DejaVuSans-69"/>
      <use x="501.367188" xlink:href="#DejaVuSans-6e"/>
      <use x="564.746094" xlink:href="#DejaVuSans-65"/>
      <use x="626.269531" xlink:href="#DejaVuSans-61"/>
      <use x="687.548828" xlink:href="#DejaVuSans-72"/>
      <use x="728.662109" xlink:href="#DejaVuSans-79"/>
      <use x="787.841797" xlink:href="#DejaVuSans-7a"/>
      <use x="840.332031" xlink:href="#DejaVuSans-6f"/>
      <use x="901.513672" xlink:href="#DejaVuSans-77"/>
      <use x="983.300781" xlink:href="#DejaVuSans-61"/>
      <use x="1044.580078" xlink:href="#DejaVuSans-6e"/>
      <use x="1107.958984" xlink:href="#DejaVuSans-79"/>
     </g>
    </g>
    <g id="line2d_66"/>
    <g id="line2d_67">
     <g>
      <use style="fill:#ff0000;stroke:#ff0000;" x="272.903437" xlink:href="#mefee37134b" y="268.363406"/>
     </g>
    </g>
    <g id="text_23">
     <!-- Punkt równowagi asymptotycznie stabilny -->
     <defs>
      <path d="M 19.671875 64.796875 
L 19.671875 37.40625 
L 32.078125 37.40625 
Q 38.96875 37.40625 42.71875 40.96875 
Q 46.484375 44.53125 46.484375 51.125 
Q 46.484375 57.671875 42.71875 61.234375 
Q 38.96875 64.796875 32.078125 64.796875 
z
M 9.8125 72.90625 
L 32.078125 72.90625 
Q 44.34375 72.90625 50.609375 67.359375 
Q 56.890625 61.8125 56.890625 51.125 
Q 56.890625 40.328125 50.609375 34.8125 
Q 44.34375 29.296875 32.078125 29.296875 
L 19.671875 29.296875 
L 19.671875 0 
L 9.8125 0 
z
" id="DejaVuSans-50"/>
      <path d="M 8.5 21.578125 
L 8.5 54.6875 
L 17.484375 54.6875 
L 17.484375 21.921875 
Q 17.484375 14.15625 20.5 10.265625 
Q 23.53125 6.390625 29.59375 6.390625 
Q 36.859375 6.390625 41.078125 11.03125 
Q 45.3125 15.671875 45.3125 23.6875 
L 45.3125 54.6875 
L 54.296875 54.6875 
L 54.296875 0 
L 45.3125 0 
L 45.3125 8.40625 
Q 42.046875 3.421875 37.71875 1 
Q 33.40625 -1.421875 27.6875 -1.421875 
Q 18.265625 -1.421875 13.375 4.4375 
Q 8.5 10.296875 8.5 21.578125 
M 31.109375 56 
z
" id="DejaVuSans-75"/>
      <path d="M 9.078125 75.984375 
L 18.109375 75.984375 
L 18.109375 31.109375 
L 44.921875 54.6875 
L 56.390625 54.6875 
L 27.390625 29.109375 
L 57.625 0 
L 45.90625 0 
L 18.109375 26.703125 
L 18.109375 0 
L 9.078125 0 
z
" id="DejaVuSans-6b"/>
      <path d="M 30.609375 48.390625 
Q 23.390625 48.390625 19.1875 42.75 
Q 14.984375 37.109375 14.984375 27.296875 
Q 14.984375 17.484375 19.15625 11.84375 
Q 23.34375 6.203125 30.609375 6.203125 
Q 37.796875 6.203125 41.984375 11.859375 
Q 46.1875 17.53125 46.1875 27.296875 
Q 46.1875 37.015625 41.984375 42.703125 
Q 37.796875 48.390625 30.609375 48.390625 
M 30.609375 56 
Q 42.328125 56 49.015625 48.375 
Q 55.71875 40.765625 55.71875 27.296875 
Q 55.71875 13.875 49.015625 6.21875 
Q 42.328125 -1.421875 30.609375 -1.421875 
Q 18.84375 -1.421875 12.171875 6.21875 
Q 5.515625 13.875 5.515625 27.296875 
Q 5.515625 40.765625 12.171875 48.375 
Q 18.84375 56 30.609375 56 
M 37.40625 79.984375 
L 47.125 79.984375 
L 31.21875 61.625 
L 23.734375 61.625 
z
" id="DejaVuSans-f3"/>
      <path d="M 45.40625 27.984375 
Q 45.40625 37.75 41.375 43.109375 
Q 37.359375 48.484375 30.078125 48.484375 
Q 22.859375 48.484375 18.828125 43.109375 
Q 14.796875 37.75 14.796875 27.984375 
Q 14.796875 18.265625 18.828125 12.890625 
Q 22.859375 7.515625 30.078125 7.515625 
Q 37.359375 7.515625 41.375 12.890625 
Q 45.40625 18.265625 45.40625 27.984375 
M 54.390625 6.78125 
Q 54.390625 -7.171875 48.1875 -13.984375 
Q 42 -20.796875 29.203125 -20.796875 
Q 24.46875 -20.796875 20.265625 -20.09375 
Q 16.0625 -19.390625 12.109375 -17.921875 
L 12.109375 -9.1875 
Q 16.0625 -11.328125 19.921875 -12.34375 
Q 23.78125 -13.375 27.78125 -13.375 
Q 36.625 -13.375 41.015625 -8.765625 
Q 45.40625 -4.15625 45.40625 5.171875 
L 45.40625 9.625 
Q 42.625 4.78125 38.28125 2.390625 
Q 33.9375 0 27.875 0 
Q 17.828125 0 11.671875 7.65625 
Q 5.515625 15.328125 5.515625 27.984375 
Q 5.515625 40.671875 11.671875 48.328125 
Q 17.828125 56 27.875 56 
Q 33.9375 56 38.28125 53.609375 
Q 42.625 51.21875 45.40625 46.390625 
L 45.40625 54.6875 
L 54.390625 54.6875 
z
" id="DejaVuSans-67"/>
      <path d="M 18.109375 8.203125 
L 18.109375 -20.796875 
L 9.078125 -20.796875 
L 9.078125 54.6875 
L 18.109375 54.6875 
L 18.109375 46.390625 
Q 20.953125 51.265625 25.265625 53.625 
Q 29.59375 56 35.59375 56 
Q 45.5625 56 51.78125 48.09375 
Q 58.015625 40.1875 58.015625 27.296875 
Q 58.015625 14.40625 51.78125 6.484375 
Q 45.5625 -1.421875 35.59375 -1.421875 
Q 29.59375 -1.421875 25.265625 0.953125 
Q 20.953125 3.328125 18.109375 8.203125 
M 48.6875 27.296875 
Q 48.6875 37.203125 44.609375 42.84375 
Q 40.53125 48.484375 33.40625 48.484375 
Q 26.265625 48.484375 22.1875 42.84375 
Q 18.109375 37.203125 18.109375 27.296875 
Q 18.109375 17.390625 22.1875 11.75 
Q 26.265625 6.109375 33.40625 6.109375 
Q 40.53125 6.109375 44.609375 11.75 
Q 48.6875 17.390625 48.6875 27.296875 
" id="DejaVuSans-70"/>
      <path d="M 48.78125 52.59375 
L 48.78125 44.1875 
Q 44.96875 46.296875 41.140625 47.34375 
Q 37.3125 48.390625 33.40625 48.390625 
Q 24.65625 48.390625 19.8125 42.84375 
Q 14.984375 37.3125 14.984375 27.296875 
Q 14.984375 17.28125 19.8125 11.734375 
Q 24.65625 6.203125 33.40625 6.203125 
Q 37.3125 6.203125 41.140625 7.25 
Q 44.96875 8.296875 48.78125 10.40625 
L 48.78125 2.09375 
Q 45.015625 0.34375 40.984375 -0.53125 
Q 36.96875 -1.421875 32.421875 -1.421875 
Q 20.0625 -1.421875 12.78125 6.34375 
Q 5.515625 14.109375 5.515625 27.296875 
Q 5.515625 40.671875 12.859375 48.328125 
Q 20.21875 56 33.015625 56 
Q 37.15625 56 41.109375 55.140625 
Q 45.0625 54.296875 48.78125 52.59375 
" id="DejaVuSans-63"/>
      <path d="M 48.6875 27.296875 
Q 48.6875 37.203125 44.609375 42.84375 
Q 40.53125 48.484375 33.40625 48.484375 
Q 26.265625 48.484375 22.1875 42.84375 
Q 18.109375 37.203125 18.109375 27.296875 
Q 18.109375 17.390625 22.1875 11.75 
Q 26.265625 6.109375 33.40625 6.109375 
Q 40.53125 6.109375 44.609375 11.75 
Q 48.6875 17.390625 48.6875 27.296875 
M 18.109375 46.390625 
Q 20.953125 51.265625 25.265625 53.625 
Q 29.59375 56 35.59375 56 
Q 45.5625 56 51.78125 48.09375 
Q 58.015625 40.1875 58.015625 27.296875 
Q 58.015625 14.40625 51.78125 6.484375 
Q 45.5625 -1.421875 35.59375 -1.421875 
Q 29.59375 -1.421875 25.265625 0.953125 
Q 20.953125 3.328125 18.109375 8.203125 
L 18.109375 0 
L 9.078125 0 
L 9.078125 75.984375 
L 18.109375 75.984375 
z
" id="DejaVuSans-62"/>
     </defs>
     <g transform="translate(283.703438 270.463406)scale(0.06 -0.06)">
      <use xlink:href="#DejaVuSans-50"/>
      <use x="60.287109" xlink:href="#DejaVuSans-75"/>
      <use x="123.666016" xlink:href="#DejaVuSans-6e"/>
      <use x="187.044922" xlink:href="#DejaVuSans-6b"/>
      <use x="244.955078" xlink:href="#DejaVuSans-74"/>
      <use x="284.164062" xlink:href="#DejaVuSans-20"/>
      <use x="315.951172" xlink:href="#DejaVuSans-72"/>
      <use x="357.033203" xlink:href="#DejaVuSans-f3"/>
      <use x="418.214844" xlink:href="#DejaVuSans-77"/>
      <use x="500.001953" xlink:href="#DejaVuSans-6e"/>
      <use x="563.380859" xlink:href="#DejaVuSans-6f"/>
      <use x="624.5625" xlink:href="#DejaVuSans-77"/>
      <use x="706.349609" xlink:href="#DejaVuSans-61"/>
      <use x="767.628906" xlink:href="#DejaVuSans-67"/>
      <use x="831.105469" xlink:href="#DejaVuSans-69"/>
      <use x="858.888672" xlink:href="#DejaVuSans-20"/>
      <use x="890.675781" xlink:href="#DejaVuSans-61"/>
      <use x="951.955078" xlink:href="#DejaVuSans-73"/>
      <use x="1004.054688" xlink:href="#DejaVuSans-79"/>
      <use x="1063.234375" xlink:href="#DejaVuSans-6d"/>
      <use x="1160.646484" xlink:href="#DejaVuSans-70"/>
      <use x="1224.123047" xlink:href="#DejaVuSans-74"/>
      <use x="1263.332031" xlink:href="#DejaVuSans-6f"/>
      <use x="1324.513672" xlink:href="#DejaVuSans-74"/>
      <use x="1363.722656" xlink:href="#DejaVuSans-79"/>
      <use x="1422.902344" xlink:href="#DejaVuSans-63"/>
      <use x="1477.882812" xlink:href="#DejaVuSans-7a"/>
      <use x="1530.373047" xlink:href="#DejaVuSans-6e"/>
      <use x="1593.751953" xlink:href="#DejaVuSans-69"/>
      <use x="1621.535156" xlink:href="#DejaVuSans-65"/>
      <use x="1683.058594" xlink:href="#DejaVuSans-20"/>
      <use x="1714.845703" xlink:href="#DejaVuSans-73"/>
      <use x="1766.945312" xlink:href="#DejaVuSans-74"/>
      <use x="1806.154297" xlink:href="#DejaVuSans-61"/>
      <use x="1867.433594" xlink:href="#DejaVuSans-62"/>
      <use x="1930.910156" xlink:href="#DejaVuSans-69"/>
      <use x="1958.693359" xlink:href="#DejaVuSans-6c"/>
      <use x="1986.476562" xlink:href="#DejaVuSans-6e"/>
      <use x="2049.855469" xlink:href="#DejaVuSans-79"/>
     </g>
    </g>
   </g>
  </g>
 </g>
 <defs>
  <clipPath id="pe372b9b8c4">
   <rect height="266.112" width="357.12" x="58.523438" y="10.999219"/>
  </clipPath>
 </defs>
</svg>
