<?xml version="1.0" encoding="utf-8" standalone="no"?>
<!DOCTYPE svg PUBLIC "-//W3C//DTD SVG 1.1//EN"
  "http://www.w3.org/Graphics/SVG/1.1/DTD/svg11.dtd">
<!-- Created with matplotlib (http://matplotlib.org/) -->
<svg height="314pt" version="1.1" viewBox="0 0 410 314" width="410pt" xmlns="http://www.w3.org/2000/svg" xmlns:xlink="http://www.w3.org/1999/xlink">
 <defs>
  <style type="text/css">
*{stroke-linecap:butt;stroke-linejoin:round;}
  </style>
 </defs>
 <g id="figure_1">
  <g id="patch_1">
   <path d="M 0 314.36825 
L 410.440313 314.36825 
L 410.440313 0 
L 0 0 
z
" style="fill:#ffffff;"/>
  </g>
  <g id="axes_1">
   <g id="patch_2">
    <path d="M 42.620313 276.812 
L 399.740313 276.812 
L 399.740313 10.7 
L 42.620313 10.7 
z
" style="fill:#ffffff;"/>
   </g>
   <g id="patch_3">
    <path clip-path="url(#pdf17be50e6)" d="M 257.541853 86.828347 
L 252.160408 82.432059 
L 255.579428 81.710923 
L 255.612972 81.701521 
L 255.61379 81.703675 
L 259.03281 80.982539 
z
" style="fill:#1f77b4;stroke:#1f77b4;stroke-linejoin:miter;"/>
   </g>
   <g id="patch_4">
    <path clip-path="url(#pdf17be50e6)" d="M 268.995743 147.949386 
L 265.399485 142.636524 
L 268.952807 142.627226 
L 268.988512 142.625808 
L 268.988518 142.627132 
L 272.541841 142.617835 
z
" style="fill:#1f77b4;stroke:#1f77b4;stroke-linejoin:miter;"/>
   </g>
   <g id="patch_5">
    <path clip-path="url(#pdf17be50e6)" d="M 285.365711 94.077475 
L 280.899907 89.144533 
L 284.423349 88.801746 
L 284.45805 88.794247 
L 284.45876 88.798301 
L 287.982201 88.455514 
z
" style="fill:#1f77b4;stroke:#1f77b4;stroke-linejoin:miter;"/>
   </g>
   <g id="patch_6">
    <path clip-path="url(#pdf17be50e6)" d="M 289.28738 156.911451 
L 285.936307 151.510309 
L 289.487988 151.591294 
L 289.523809 151.589046 
L 289.523684 151.592108 
L 293.075365 151.673094 
z
" style="fill:#1f77b4;stroke:#1f77b4;stroke-linejoin:miter;"/>
   </g>
   <g id="patch_7">
    <path clip-path="url(#pdf17be50e6)" d="M 316.548302 125.651276 
L 312.823245 120.387921 
L 316.375756 120.330573 
L 316.411204 120.321212 
L 316.411459 120.329996 
L 319.96397 120.272648 
z
" style="fill:#1f77b4;stroke:#1f77b4;stroke-linejoin:miter;"/>
   </g>
   <g id="patch_8">
    <path clip-path="url(#pdf17be50e6)" d="M 310.479615 220.789903 
L 307.963376 215.142588 
L 311.480409 215.520152 
L 311.516754 215.518785 
L 311.515756 215.523947 
L 315.032789 215.901511 
z
" style="fill:#1f77b4;stroke:#1f77b4;stroke-linejoin:miter;"/>
   </g>
   <g id="patch_9">
    <path clip-path="url(#pdf17be50e6)" d="M 361.275791 121.100175 
L 357.662251 115.793827 
L 361.215532 115.778108 
L 361.25104 115.752382 
L 361.251243 115.77795 
L 364.804525 115.76223 
z
" style="fill:#1f77b4;stroke:#1f77b4;stroke-linejoin:miter;"/>
   </g>
   <g id="patch_10">
    <path clip-path="url(#pdf17be50e6)" d="M 361.198489 171.619305 
L 357.730075 166.259453 
L 361.283054 166.297421 
L 361.319228 166.273622 
L 361.318762 166.297803 
L 364.871741 166.335772 
z
" style="fill:#1f77b4;stroke:#1f77b4;stroke-linejoin:miter;"/>
   </g>
   <g id="patch_11">
    <path clip-path="url(#pdf17be50e6)" d="M 399.855389 36.112697 
L 396.170721 30.833579 
L 399.723613 30.791346 
L 399.758166 30.737003 
L 399.759321 30.790921 
L 403.312212 30.748688 
z
" style="fill:#1f77b4;stroke:#1f77b4;stroke-linejoin:miter;"/>
   </g>
   <g id="patch_12">
    <path clip-path="url(#pdf17be50e6)" d="M 399.800818 78.588858 
L 396.169831 73.289127 
L 399.72305 73.266916 
L 399.758168 73.214062 
L 399.75876 73.266693 
L 403.311979 73.244482 
z
" style="fill:#1f77b4;stroke:#1f77b4;stroke-linejoin:miter;"/>
   </g>
   <g id="patch_13">
    <path clip-path="url(#pdf17be50e6)" d="M 399.755731 112.187025 
L 396.169269 106.870487 
L 399.722605 106.864826 
L 399.758168 106.813155 
L 399.758317 106.864769 
L 403.311652 106.859108 
z
" style="fill:#1f77b4;stroke:#1f77b4;stroke-linejoin:miter;"/>
   </g>
   <g id="patch_14">
    <path clip-path="url(#pdf17be50e6)" d="M 399.714342 141.914833 
L 396.168891 136.583043 
L 399.722211 136.59258 
L 399.758168 136.541961 
L 399.757923 136.592675 
L 403.311244 136.602212 
z
" style="fill:#1f77b4;stroke:#1f77b4;stroke-linejoin:miter;"/>
   </g>
   <g id="patch_15">
    <path clip-path="url(#pdf17be50e6)" d="M 399.39488 192.626869 
L 395.923408 187.268116 
L 399.476408 187.304959 
L 399.513031 187.256352 
L 399.512116 187.305329 
L 403.065116 187.342172 
z
" style="fill:#1f77b4;stroke:#1f77b4;stroke-linejoin:miter;"/>
   </g>
   <g id="patch_16">
    <path clip-path="url(#pdf17be50e6)" d="M 399.672499 170.941265 
L 396.168641 165.594228 
L 399.721828 165.619135 
L 399.758168 165.569549 
L 399.757539 165.619385 
L 403.310725 165.644292 
z
" style="fill:#1f77b4;stroke:#1f77b4;stroke-linejoin:miter;"/>
   </g>
   <g id="patch_17">
    <path clip-path="url(#pdf17be50e6)" d="M 398.966895 220.774572 
L 395.539414 215.400119 
L 399.092046 215.453132 
L 399.129035 215.405855 
L 399.12775 215.453665 
L 402.680382 215.506679 
z
" style="fill:#1f77b4;stroke:#1f77b4;stroke-linejoin:miter;"/>
   </g>
   <g id="patch_18">
    <path clip-path="url(#pdf17be50e6)" d="M 399.62587 202.140818 
L 396.168521 196.776998 
L 399.721417 196.819037 
L 399.758166 196.770567 
L 399.757124 196.81946 
L 403.31002 196.8615 
z
" style="fill:#1f77b4;stroke:#1f77b4;stroke-linejoin:miter;"/>
   </g>
   <g id="patch_19">
    <path clip-path="url(#pdf17be50e6)" d="M 398.504451 251.02992 
L 395.126837 245.637965 
L 398.678893 245.709251 
L 398.716275 245.663408 
L 398.714592 245.709968 
L 402.266648 245.781254 
z
" style="fill:#1f77b4;stroke:#1f77b4;stroke-linejoin:miter;"/>
   </g>
   <g id="patch_20">
    <path clip-path="url(#pdf17be50e6)" d="M 399.567912 239.338692 
L 396.168601 233.954314 
L 399.720928 234.017657 
L 399.758163 233.970525 
L 399.756629 234.018293 
L 403.308956 234.081636 
z
" style="fill:#1f77b4;stroke:#1f77b4;stroke-linejoin:miter;"/>
   </g>
   <g id="patch_21">
    <path clip-path="url(#pdf17be50e6)" d="M 390.040391 282.16929 
L 386.750801 276.747201 
L 390.301436 276.850589 
L 390.339171 276.81252 
L 390.33712 276.851628 
L 393.887755 276.955017 
z
" style="fill:#1f77b4;stroke:#1f77b4;stroke-linejoin:miter;"/>
   </g>
   <g id="patch_22">
    <path clip-path="url(#pdf17be50e6)" d="M 327.402316 282.064996 
L 325.095064 276.36834 
L 328.596863 276.817703 
L 328.633897 276.814258 
L 328.632057 276.822219 
L 332.133856 277.271582 
z
" style="fill:#1f77b4;stroke:#1f77b4;stroke-linejoin:miter;"/>
   </g>
   <g id="patch_23">
    <path clip-path="url(#pdf17be50e6)" d="M 248.152492 238.584657 
L 254.493038 242.201939 
L 251.299234 243.362543 
L 251.268459 243.376229 
L 251.267136 243.374207 
L 248.073331 244.53481 
z
" style="fill:#1f77b4;stroke:#1f77b4;stroke-linejoin:miter;"/>
   </g>
   <g id="patch_24">
    <path clip-path="url(#pdf17be50e6)" d="M 216.308407 182.692328 
L 222.244845 186.672218 
L 218.937785 187.640814 
L 218.905129 187.651652 
L 218.904548 187.650549 
L 215.597487 188.619145 
z
" style="fill:#1f77b4;stroke:#1f77b4;stroke-linejoin:miter;"/>
   </g>
   <g id="patch_25">
    <path clip-path="url(#pdf17be50e6)" d="M 205.674609 211.845762 
L 211.524623 215.896089 
L 208.19714 216.825037 
L 208.164665 216.836297 
L 208.163698 216.834373 
L 204.836215 217.763321 
z
" style="fill:#1f77b4;stroke:#1f77b4;stroke-linejoin:miter;"/>
   </g>
   <g id="patch_26">
    <path clip-path="url(#pdf17be50e6)" d="M 189.42643 173.310768 
L 194.671101 177.797901 
L 191.230778 178.460395 
L 191.196658 178.468371 
L 191.196201 178.467053 
L 187.755878 179.129548 
z
" style="fill:#1f77b4;stroke:#1f77b4;stroke-linejoin:miter;"/>
   </g>
   <g id="patch_27">
    <path clip-path="url(#pdf17be50e6)" d="M 174.100129 211.127908 
L 179.237275 215.683586 
L 175.781738 216.300551 
L 175.747963 216.309718 
L 175.747009 216.306752 
L 172.291472 216.923717 
z
" style="fill:#1f77b4;stroke:#1f77b4;stroke-linejoin:miter;"/>
   </g>
   <g id="patch_28">
    <path clip-path="url(#pdf17be50e6)" d="M 164.62331 123.601531 
L 167.509376 129.149755 
L 163.971673 128.901591 
L 163.935908 128.900764 
L 163.936119 128.899097 
L 160.398416 128.650933 
z
" style="fill:#1f77b4;stroke:#1f77b4;stroke-linejoin:miter;"/>
   </g>
   <g id="patch_29">
    <path clip-path="url(#pdf17be50e6)" d="M 145.32409 206.882501 
L 149.651715 211.883361 
L 146.119496 212.171652 
L 146.084874 212.180523 
L 146.083996 212.174549 
L 142.551777 212.46284 
z
" style="fill:#1f77b4;stroke:#1f77b4;stroke-linejoin:miter;"/>
   </g>
   <g id="patch_30">
    <path clip-path="url(#pdf17be50e6)" d="M 144.10729 98.17819 
L 146.830157 103.772031 
L 143.300565 103.466388 
L 143.264527 103.466941 
L 143.265092 103.463317 
L 139.735501 103.157674 
z
" style="fill:#1f77b4;stroke:#1f77b4;stroke-linejoin:miter;"/>
   </g>
   <g id="patch_31">
    <path clip-path="url(#pdf17be50e6)" d="M 107.926911 210.629709 
L 111.797298 215.834513 
L 108.24714 215.946614 
L 108.212327 215.962981 
L 108.21146 215.947741 
L 104.661302 216.059842 
z
" style="fill:#1f77b4;stroke:#1f77b4;stroke-linejoin:miter;"/>
   </g>
   <g id="patch_32">
    <path clip-path="url(#pdf17be50e6)" d="M 107.114751 95.431629 
L 110.403948 100.853851 
L 106.853321 100.75032 
L 106.816974 100.76189 
L 106.817637 100.749279 
L 103.26701 100.645748 
z
" style="fill:#1f77b4;stroke:#1f77b4;stroke-linejoin:miter;"/>
   </g>
   <g id="patch_33">
    <path clip-path="url(#pdf17be50e6)" d="M 50.472849 224.433856 
L 54.139467 229.719947 
L 50.586443 229.755439 
L 50.551575 229.802524 
L 50.550734 229.755796 
L 46.997709 229.791288 
z
" style="fill:#1f77b4;stroke:#1f77b4;stroke-linejoin:miter;"/>
   </g>
   <g id="patch_34">
    <path clip-path="url(#pdf17be50e6)" d="M 49.557641 131.726991 
L 53.082238 137.066453 
L 49.528969 137.049205 
L 49.492867 137.093807 
L 49.493258 137.049031 
L 45.93999 137.031783 
z
" style="fill:#1f77b4;stroke:#1f77b4;stroke-linejoin:miter;"/>
   </g>
   <g id="patch_35">
    <path clip-path="url(#pdf17be50e6)" d="M 42.534208 228.595118 
L 46.190405 233.885216 
L 42.637315 233.91682 
L 42.602458 233.970365 
L 42.601605 233.917138 
L 39.048514 233.948742 
z
" style="fill:#1f77b4;stroke:#1f77b4;stroke-linejoin:miter;"/>
   </g>
   <g id="patch_36">
    <path clip-path="url(#pdf17be50e6)" d="M 42.583109 191.396086 
L 46.191104 196.704528 
L 42.637808 196.718187 
L 42.602457 196.770424 
L 42.602096 196.718324 
L 39.048799 196.731982 
z
" style="fill:#1f77b4;stroke:#1f77b4;stroke-linejoin:miter;"/>
   </g>
   <g id="patch_37">
    <path clip-path="url(#pdf17be50e6)" d="M 42.625777 160.19603 
L 46.191563 165.520285 
L 42.638221 165.518278 
L 42.602457 165.569414 
L 42.602509 165.518258 
L 39.049166 165.516251 
z
" style="fill:#1f77b4;stroke:#1f77b4;stroke-linejoin:miter;"/>
   </g>
   <g id="patch_38">
    <path clip-path="url(#pdf17be50e6)" d="M 43.55684 59.4797 
L 46.972499 64.85833 
L 43.419989 64.800979 
L 43.382905 64.84787 
L 43.384285 64.800403 
L 39.831775 64.743052 
z
" style="fill:#1f77b4;stroke:#1f77b4;stroke-linejoin:miter;"/>
   </g>
   <g id="patch_39">
    <path clip-path="url(#pdf17be50e6)" d="M 42.6669 131.169507 
L 46.191874 136.508831 
L 42.638604 136.491721 
L 42.602457 136.541827 
L 42.602893 136.491549 
L 39.049623 136.47444 
z
" style="fill:#1f77b4;stroke:#1f77b4;stroke-linejoin:miter;"/>
   </g>
   <g id="patch_40">
    <path clip-path="url(#pdf17be50e6)" d="M 43.178208 80.894194 
L 46.628092 86.260682 
L 43.075256 86.215897 
L 43.03845 86.263844 
L 43.039549 86.215447 
L 39.486713 86.170662 
z
" style="fill:#1f77b4;stroke:#1f77b4;stroke-linejoin:miter;"/>
   </g>
   <g id="patch_41">
    <path clip-path="url(#pdf17be50e6)" d="M 42.710517 101.441981 
L 46.192062 106.797104 
L 42.638996 106.763971 
L 42.602458 106.813017 
L 42.603287 106.763638 
L 39.050221 106.730505 
z
" style="fill:#1f77b4;stroke:#1f77b4;stroke-linejoin:miter;"/>
   </g>
   <g id="patch_42">
    <path clip-path="url(#pdf17be50e6)" d="M 43.617647 52.066527 
L 47.021292 57.449385 
L 43.468915 57.387629 
L 43.431735 57.434212 
L 43.433213 57.387008 
L 39.880835 57.325253 
z
" style="fill:#1f77b4;stroke:#1f77b4;stroke-linejoin:miter;"/>
   </g>
   <g id="patch_43">
    <path clip-path="url(#pdf17be50e6)" d="M 42.761734 67.844595 
L 46.192099 73.218027 
L 42.639439 73.166072 
L 42.60246 73.213912 
L 42.603734 73.165549 
L 39.051074 73.113594 
z
" style="fill:#1f77b4;stroke:#1f77b4;stroke-linejoin:miter;"/>
   </g>
   <g id="patch_44">
    <path clip-path="url(#pdf17be50e6)" d="M 44.117131 19.485787 
L 47.465468 24.887872 
L 43.913828 24.805887 
L 43.876226 24.850922 
L 43.878133 24.805063 
L 40.326492 24.723079 
z
" style="fill:#1f77b4;stroke:#1f77b4;stroke-linejoin:miter;"/>
   </g>
   <g id="patch_45">
    <path clip-path="url(#pdf17be50e6)" d="M 42.82958 25.37014 
L 46.191842 30.76742 
L 42.639997 30.690522 
L 42.602464 30.736828 
L 42.6043 30.689749 
L 39.052455 30.61285 
z
" style="fill:#1f77b4;stroke:#1f77b4;stroke-linejoin:miter;"/>
   </g>
   <g id="patch_46">
    <path clip-path="url(#pdf17be50e6)" d="M 85.98169 5.37393 
L 89.005526 10.88126 
L 85.462249 10.682093 
L 85.424724 10.698999 
L 85.426638 10.680091 
L 81.883361 10.480924 
z
" style="fill:#1f77b4;stroke:#1f77b4;stroke-linejoin:miter;"/>
   </g>
   <g id="patch_47">
    <path clip-path="url(#pdf17be50e6)" d="M 142.496849 6.251578 
L 141.554964 12.160486 
L 138.586377 10.705274 
L 138.554742 10.692687 
L 138.556542 10.690649 
L 135.587955 9.235437 
z
" style="fill:#1f77b4;stroke:#1f77b4;stroke-linejoin:miter;"/>
   </g>
   <g id="patch_48">
    <path clip-path="url(#pdf17be50e6)" d="M 215.954648 67.138522 
L 209.931817 63.231371 
L 213.217219 62.222678 
L 213.249157 62.210585 
L 213.250238 62.21254 
L 216.535639 61.203847 
z
" style="fill:#1f77b4;stroke:#1f77b4;stroke-linejoin:miter;"/>
   </g>
   <g id="patch_49">
    <path clip-path="url(#pdf17be50e6)" d="M 238.588766 111.453477 
L 232.881949 107.29126 
L 236.240698 106.427046 
L 236.273961 106.417295 
L 236.274455 106.418361 
L 239.633204 105.554148 
z
" style="fill:#1f77b4;stroke:#1f77b4;stroke-linejoin:miter;"/>
   </g>
   <g id="patch_50">
    <path clip-path="url(#pdf17be50e6)" d="M 244.615259 56.331143 
L 238.833543 52.226723 
L 242.176327 51.328795 
L 242.208699 51.317242 
L 242.209923 51.319771 
L 245.552706 50.421843 
z
" style="fill:#1f77b4;stroke:#1f77b4;stroke-linejoin:miter;"/>
   </g>
   <g id="patch_51">
    <path clip-path="url(#pdf17be50e6)" d="M 268.348818 131.313835 
L 264.069806 126.2898 
L 267.60473 126.020539 
L 267.64003 126.016179 
L 267.640257 126.017833 
L 271.17518 125.748571 
z
" style="fill:#1f77b4;stroke:#1f77b4;stroke-linejoin:miter;"/>
   </g>
   <g id="matplotlib.axis_1">
    <g id="xtick_1">
     <g id="line2d_1">
      <defs>
       <path d="M 0 0 
L 0 3.5 
" id="m988dc18a46" style="stroke:#000000;stroke-width:0.8;"/>
      </defs>
      <g>
       <use style="stroke:#000000;stroke-width:0.8;" x="78.332313" xlink:href="#m988dc18a46" y="276.812"/>
      </g>
     </g>
     <g id="text_1">
      <!-- −4 -->
      <defs>
       <path d="M 10.59375 35.5 
L 73.1875 35.5 
L 73.1875 27.203125 
L 10.59375 27.203125 
z
" id="DejaVuSans-2212"/>
       <path d="M 37.796875 64.3125 
L 12.890625 25.390625 
L 37.796875 25.390625 
z
M 35.203125 72.90625 
L 47.609375 72.90625 
L 47.609375 25.390625 
L 58.015625 25.390625 
L 58.015625 17.1875 
L 47.609375 17.1875 
L 47.609375 0 
L 37.796875 0 
L 37.796875 17.1875 
L 4.890625 17.1875 
L 4.890625 26.703125 
z
" id="DejaVuSans-34"/>
      </defs>
      <g transform="translate(70.961219 291.410438)scale(0.1 -0.1)">
       <use xlink:href="#DejaVuSans-2212"/>
       <use x="83.789062" xlink:href="#DejaVuSans-34"/>
      </g>
     </g>
    </g>
    <g id="xtick_2">
     <g id="line2d_2">
      <g>
       <use style="stroke:#000000;stroke-width:0.8;" x="149.756313" xlink:href="#m988dc18a46" y="276.812"/>
      </g>
     </g>
     <g id="text_2">
      <!-- −2 -->
      <defs>
       <path d="M 19.1875 8.296875 
L 53.609375 8.296875 
L 53.609375 0 
L 7.328125 0 
L 7.328125 8.296875 
Q 12.9375 14.109375 22.625 23.890625 
Q 32.328125 33.6875 34.8125 36.53125 
Q 39.546875 41.84375 41.421875 45.53125 
Q 43.3125 49.21875 43.3125 52.78125 
Q 43.3125 58.59375 39.234375 62.25 
Q 35.15625 65.921875 28.609375 65.921875 
Q 23.96875 65.921875 18.8125 64.3125 
Q 13.671875 62.703125 7.8125 59.421875 
L 7.8125 69.390625 
Q 13.765625 71.78125 18.9375 73 
Q 24.125 74.21875 28.421875 74.21875 
Q 39.75 74.21875 46.484375 68.546875 
Q 53.21875 62.890625 53.21875 53.421875 
Q 53.21875 48.921875 51.53125 44.890625 
Q 49.859375 40.875 45.40625 35.40625 
Q 44.1875 33.984375 37.640625 27.21875 
Q 31.109375 20.453125 19.1875 8.296875 
" id="DejaVuSans-32"/>
      </defs>
      <g transform="translate(142.385219 291.410438)scale(0.1 -0.1)">
       <use xlink:href="#DejaVuSans-2212"/>
       <use x="83.789062" xlink:href="#DejaVuSans-32"/>
      </g>
     </g>
    </g>
    <g id="xtick_3">
     <g id="line2d_3">
      <g>
       <use style="stroke:#000000;stroke-width:0.8;" x="221.180313" xlink:href="#m988dc18a46" y="276.812"/>
      </g>
     </g>
     <g id="text_3">
      <!-- 0 -->
      <defs>
       <path d="M 31.78125 66.40625 
Q 24.171875 66.40625 20.328125 58.90625 
Q 16.5 51.421875 16.5 36.375 
Q 16.5 21.390625 20.328125 13.890625 
Q 24.171875 6.390625 31.78125 6.390625 
Q 39.453125 6.390625 43.28125 13.890625 
Q 47.125 21.390625 47.125 36.375 
Q 47.125 51.421875 43.28125 58.90625 
Q 39.453125 66.40625 31.78125 66.40625 
M 31.78125 74.21875 
Q 44.046875 74.21875 50.515625 64.515625 
Q 56.984375 54.828125 56.984375 36.375 
Q 56.984375 17.96875 50.515625 8.265625 
Q 44.046875 -1.421875 31.78125 -1.421875 
Q 19.53125 -1.421875 13.0625 8.265625 
Q 6.59375 17.96875 6.59375 36.375 
Q 6.59375 54.828125 13.0625 64.515625 
Q 19.53125 74.21875 31.78125 74.21875 
" id="DejaVuSans-30"/>
      </defs>
      <g transform="translate(217.999063 291.410438)scale(0.1 -0.1)">
       <use xlink:href="#DejaVuSans-30"/>
      </g>
     </g>
    </g>
    <g id="xtick_4">
     <g id="line2d_4">
      <g>
       <use style="stroke:#000000;stroke-width:0.8;" x="292.604312" xlink:href="#m988dc18a46" y="276.812"/>
      </g>
     </g>
     <g id="text_4">
      <!-- 2 -->
      <g transform="translate(289.423063 291.410438)scale(0.1 -0.1)">
       <use xlink:href="#DejaVuSans-32"/>
      </g>
     </g>
    </g>
    <g id="xtick_5">
     <g id="line2d_5">
      <g>
       <use style="stroke:#000000;stroke-width:0.8;" x="364.028313" xlink:href="#m988dc18a46" y="276.812"/>
      </g>
     </g>
     <g id="text_5">
      <!-- 4 -->
      <g transform="translate(360.847063 291.410438)scale(0.1 -0.1)">
       <use xlink:href="#DejaVuSans-34"/>
      </g>
     </g>
    </g>
    <g id="text_6">
     <!-- x1 -->
     <defs>
      <path d="M 54.890625 54.6875 
L 35.109375 28.078125 
L 55.90625 0 
L 45.3125 0 
L 29.390625 21.484375 
L 13.484375 0 
L 2.875 0 
L 24.125 28.609375 
L 4.6875 54.6875 
L 15.28125 54.6875 
L 29.78125 35.203125 
L 44.28125 54.6875 
z
" id="DejaVuSans-78"/>
      <path d="M 12.40625 8.296875 
L 28.515625 8.296875 
L 28.515625 63.921875 
L 10.984375 60.40625 
L 10.984375 69.390625 
L 28.421875 72.90625 
L 38.28125 72.90625 
L 38.28125 8.296875 
L 54.390625 8.296875 
L 54.390625 0 
L 12.40625 0 
z
" id="DejaVuSans-31"/>
     </defs>
     <g transform="translate(215.039688 305.088562)scale(0.1 -0.1)">
      <use xlink:href="#DejaVuSans-78"/>
      <use x="59.179688" xlink:href="#DejaVuSans-31"/>
     </g>
    </g>
   </g>
   <g id="matplotlib.axis_2">
    <g id="ytick_1">
     <g id="line2d_6">
      <defs>
       <path d="M 0 0 
L -3.5 0 
" id="m578bb284b3" style="stroke:#000000;stroke-width:0.8;"/>
      </defs>
      <g>
       <use style="stroke:#000000;stroke-width:0.8;" x="42.620313" xlink:href="#m578bb284b3" y="250.2008"/>
      </g>
     </g>
     <g id="text_7">
      <!-- −4 -->
      <g transform="translate(20.878125 254.000019)scale(0.1 -0.1)">
       <use xlink:href="#DejaVuSans-2212"/>
       <use x="83.789062" xlink:href="#DejaVuSans-34"/>
      </g>
     </g>
    </g>
    <g id="ytick_2">
     <g id="line2d_7">
      <g>
       <use style="stroke:#000000;stroke-width:0.8;" x="42.620313" xlink:href="#m578bb284b3" y="196.9784"/>
      </g>
     </g>
     <g id="text_8">
      <!-- −2 -->
      <g transform="translate(20.878125 200.777619)scale(0.1 -0.1)">
       <use xlink:href="#DejaVuSans-2212"/>
       <use x="83.789062" xlink:href="#DejaVuSans-32"/>
      </g>
     </g>
    </g>
    <g id="ytick_3">
     <g id="line2d_8">
      <g>
       <use style="stroke:#000000;stroke-width:0.8;" x="42.620313" xlink:href="#m578bb284b3" y="143.756"/>
      </g>
     </g>
     <g id="text_9">
      <!-- 0 -->
      <g transform="translate(29.257813 147.555219)scale(0.1 -0.1)">
       <use xlink:href="#DejaVuSans-30"/>
      </g>
     </g>
    </g>
    <g id="ytick_4">
     <g id="line2d_9">
      <g>
       <use style="stroke:#000000;stroke-width:0.8;" x="42.620313" xlink:href="#m578bb284b3" y="90.5336"/>
      </g>
     </g>
     <g id="text_10">
      <!-- 2 -->
      <g transform="translate(29.257813 94.332819)scale(0.1 -0.1)">
       <use xlink:href="#DejaVuSans-32"/>
      </g>
     </g>
    </g>
    <g id="ytick_5">
     <g id="line2d_10">
      <g>
       <use style="stroke:#000000;stroke-width:0.8;" x="42.620313" xlink:href="#m578bb284b3" y="37.3112"/>
      </g>
     </g>
     <g id="text_11">
      <!-- 4 -->
      <g transform="translate(29.257813 41.110419)scale(0.1 -0.1)">
       <use xlink:href="#DejaVuSans-34"/>
      </g>
     </g>
    </g>
    <g id="text_12">
     <!-- x2 -->
     <g transform="translate(14.798438 149.896625)rotate(-90)scale(0.1 -0.1)">
      <use xlink:href="#DejaVuSans-78"/>
      <use x="59.179688" xlink:href="#DejaVuSans-32"/>
     </g>
    </g>
   </g>
   <g id="line2d_11">
    <path clip-path="url(#pdf17be50e6)" d="M 221.180313 10.7 
L 231.122888 29.463672 
L 238.314094 43.485791 
L 243.415347 53.850772 
L 247.977177 63.604785 
L 252.029231 72.860875 
L 255.595791 81.705145 
L 257.964503 88.103862 
L 260.079346 94.318261 
L 261.947589 100.354755 
L 263.576384 106.212792 
L 264.973027 111.885991 
L 266.145165 117.363382 
L 267.372977 124.337001 
L 268.237322 130.898107 
L 268.76144 137.00663 
L 268.970656 142.625854 
L 268.892062 147.725883 
L 268.554115 152.286175 
L 267.986104 156.297065 
L 267.217524 159.760105 
L 266.527017 162.004894 
L 265.752061 163.957058 
L 264.904213 165.628073 
L 263.994525 167.031647 
L 263.033457 168.183273 
L 262.030815 169.099772 
L 260.995713 169.798845 
L 259.93654 170.298662 
L 258.499987 170.686696 
L 257.050281 170.795594 
L 255.6013 170.666291 
L 254.164787 170.337213 
L 252.401373 169.698524 
L 250.351978 168.67902 
L 248.076142 167.253291 
L 245.649198 165.450288 
L 242.894363 163.116351 
L 239.556412 159.971926 
L 235.257121 155.582787 
L 227.823949 147.943825 
L 225.705397 146.115021 
L 224.152386 145.057617 
L 222.695601 144.339808 
L 221.180312 143.756 
L 221.180313 143.756 
" style="fill:none;stroke:#1f77b4;stroke-linecap:square;stroke-width:0.5;"/>
   </g>
   <g id="line2d_12">
    <path clip-path="url(#pdf17be50e6)" d="M 260.484341 10.7 
L 262.242042 14.843181 
L 263.944327 18.972677 
L 267.182963 27.204293 
L 270.20093 35.418758 
L 272.998456 43.632575 
L 275.575436 51.854476 
L 277.931626 60.08509 
L 280.066863 68.317274 
L 281.981278 76.536854 
L 283.675473 84.723234 
L 285.150678 92.850183 
L 286.408895 100.886863 
L 287.453002 108.79896 
L 288.286828 116.549731 
L 288.915208 124.101363 
L 289.343998 131.416263 
L 289.580044 138.458018 
L 289.631142 145.192457 
L 289.505962 151.588639 
L 289.213956 157.619576 
L 288.765239 163.262793 
L 288.170464 168.500722 
L 287.440688 173.32092 
L 286.587232 177.716088 
L 285.621546 181.683945 
L 284.555075 185.22697 
L 283.399139 188.352025 
L 282.16482 191.069896 
L 280.862865 193.394781 
L 279.503598 195.343751 
L 278.09685 196.936198 
L 276.65191 198.193284 
L 275.177482 199.137413 
L 273.681657 199.791759 
L 272.171896 200.17983 
L 270.655029 200.325099 
L 269.137263 200.250677 
L 267.624189 199.979041 
L 266.120809 199.531814 
L 263.893467 198.576493 
L 261.710516 197.336769 
L 259.582211 195.870913 
L 256.843089 193.653113 
L 254.228972 191.22926 
L 251.149932 188.038422 
L 247.741317 184.139583 
L 244.158242 179.688149 
L 240.146202 174.345582 
L 235.412333 167.647846 
L 229.907401 159.439362 
L 224.289011 150.655558 
L 221.247916 145.546362 
L 220.50706 143.949184 
L 220.533267 143.613891 
L 220.74619 143.607597 
L 221.180313 143.756 
L 221.180313 143.756 
" style="fill:none;stroke:#1f77b4;stroke-linecap:square;stroke-width:0.5;"/>
   </g>
   <g id="line2d_13">
    <path clip-path="url(#pdf17be50e6)" d="M 303.790965 10.7 
L 305.516556 19.636905 
L 307.121676 28.672509 
L 308.604977 37.792527 
L 309.965422 46.979852 
L 311.202235 56.215473 
L 312.314893 65.478761 
L 313.303169 74.747476 
L 314.167153 83.998076 
L 314.907254 93.206069 
L 315.524211 102.346315 
L 316.019102 111.393318 
L 316.393352 120.321501 
L 316.648725 129.10549 
L 316.787324 137.720513 
L 316.724232 154.348998 
L 316.528326 162.318026 
L 316.227182 170.029703 
L 315.824377 177.465739 
L 315.323724 184.609715 
L 314.729241 191.447195 
L 314.045127 197.965814 
L 313.27573 204.155337 
L 312.425526 210.007676 
L 311.49908 215.516888 
L 310.501027 220.679148 
L 309.436037 225.492644 
L 308.308791 229.957511 
L 307.123956 234.07573 
L 305.88616 237.851007 
L 304.599973 241.288639 
L 303.269881 244.39537 
L 301.900274 247.179249 
L 300.495424 249.649464 
L 299.059472 251.816192 
L 297.596423 253.690457 
L 296.110118 255.283967 
L 294.604256 256.609007 
L 293.082339 257.678242 
L 291.547725 258.504674 
L 290.003571 259.101418 
L 288.452876 259.481716 
L 286.898452 259.658723 
L 285.34294 259.645516 
L 283.788808 259.454956 
L 282.23835 259.09965 
L 280.693697 258.591893 
L 279.156814 257.943595 
L 276.113439 256.27103 
L 273.120907 254.168666 
L 270.189673 251.715557 
L 267.32818 248.982803 
L 264.54307 246.033559 
L 260.519285 241.323046 
L 256.689786 236.40526 
L 253.06032 231.404043 
L 248.534029 224.76721 
L 243.369798 216.737737 
L 237.861115 207.732002 
L 231.581621 197.015129 
L 225.217121 185.724806 
L 219.365606 174.911392 
L 215.05363 166.504303 
L 211.939312 159.95634 
L 209.75894 154.844989 
L 208.307562 150.858571 
L 207.423474 147.766438 
L 206.977384 145.393118 
L 206.865085 143.600273 
L 207.002453 142.275421 
L 207.321861 141.325277 
L 207.76943 140.671902 
L 208.349986 140.223931 
L 209.040719 139.968622 
L 209.918449 139.882213 
L 211.049558 139.999905 
L 212.583096 140.396526 
L 214.899828 141.253831 
L 221.180313 143.756 
L 221.180313 143.756 
" style="fill:none;stroke:#1f77b4;stroke-linecap:square;stroke-width:0.5;"/>
   </g>
   <g id="line2d_14">
    <path clip-path="url(#pdf17be50e6)" d="M 356.918096 10.7 
L 358.52691 37.040847 
L 359.781878 63.442265 
L 360.683122 89.736389 
L 361.233184 115.752461 
L 361.436892 141.320151 
L 361.301373 166.273431 
L 360.835993 190.454608 
L 360.052102 213.71731 
L 358.962927 235.929471 
L 357.583364 256.9754 
L 355.92975 276.757536 
L 354.019593 295.197781 
" style="fill:none;stroke:#1f77b4;stroke-linecap:square;stroke-width:0.5;"/>
   </g>
   <g id="line2d_15">
    <path clip-path="url(#pdf17be50e6)" d="M 399.740313 30.737215 
L 400.894585 84.655879 
" style="fill:none;stroke:#1f77b4;stroke-linecap:square;stroke-width:0.5;"/>
   </g>
   <g id="line2d_16">
    <path clip-path="url(#pdf17be50e6)" d="M 399.740313 73.214173 
L 400.332811 125.845641 
" style="fill:none;stroke:#1f77b4;stroke-linecap:square;stroke-width:0.5;"/>
   </g>
   <g id="line2d_17">
    <path clip-path="url(#pdf17be50e6)" d="M 399.740313 106.813183 
L 399.888405 158.427128 
" style="fill:none;stroke:#1f77b4;stroke-linecap:square;stroke-width:0.5;"/>
   </g>
   <g id="line2d_18">
    <path clip-path="url(#pdf17be50e6)" d="M 399.740313 136.541913 
L 399.495176 187.256167 
L 398.580539 236.233326 
L 397.023068 282.980695 
" style="fill:none;stroke:#1f77b4;stroke-linecap:square;stroke-width:0.5;"/>
   </g>
   <g id="line2d_19">
    <path clip-path="url(#pdf17be50e6)" d="M 399.740313 165.569424 
L 399.111183 215.405588 
L 397.826313 263.21601 
L 395.916029 308.538754 
" style="fill:none;stroke:#1f77b4;stroke-linecap:square;stroke-width:0.5;"/>
   </g>
   <g id="line2d_20">
    <path clip-path="url(#pdf17be50e6)" d="M 399.740313 196.770356 
L 398.698425 245.663049 
L 397.015601 292.223262 
" style="fill:none;stroke:#1f77b4;stroke-linecap:square;stroke-width:0.5;"/>
   </g>
   <g id="line2d_21">
    <path clip-path="url(#pdf17be50e6)" d="M 399.740313 233.970206 
L 398.206307 281.738655 
" style="fill:none;stroke:#1f77b4;stroke-linecap:square;stroke-width:0.5;"/>
   </g>
   <g id="line2d_22">
    <path clip-path="url(#pdf17be50e6)" d="M 390.321329 276.812 
L 388.299427 315.36825 
" style="fill:none;stroke:#1f77b4;stroke-linecap:square;stroke-width:0.5;"/>
   </g>
   <g id="line2d_23">
    <path clip-path="url(#pdf17be50e6)" d="M 328.6163 276.812 
L 326.776483 284.773019 
" style="fill:none;stroke:#1f77b4;stroke-linecap:square;stroke-width:0.5;"/>
   </g>
   <g id="line2d_24">
    <path clip-path="url(#pdf17be50e6)" d="M 281.344181 276.812 
L 279.565488 275.765556 
L 277.80181 274.575475 
L 274.326576 271.819073 
L 270.931092 268.648861 
L 267.625179 265.158604 
L 264.416334 261.430448 
L 261.309952 257.535059 
L 256.850068 251.507529 
L 252.634934 245.401121 
L 247.3958 237.343884 
L 241.443672 227.674758 
L 235.125901 216.93575 
L 227.965412 204.292502 
L 220.757501 191.096931 
L 215.147748 180.391539 
L 210.835207 171.687044 
L 207.863941 165.219223 
L 205.60833 159.802994 
L 203.952431 155.263531 
L 202.798658 151.468991 
L 202.063458 148.317123 
L 201.67437 145.725012 
L 201.568154 143.621884 
L 201.689622 141.944786 
L 201.990834 140.636204 
L 202.430526 139.643106 
L 202.973589 138.91671 
L 203.662543 138.368521 
L 204.486573 138.017974 
L 205.425574 137.86663 
L 206.609534 137.91864 
L 208.063087 138.224949 
L 209.887965 138.848753 
L 212.550569 140.01689 
L 219.052927 142.947239 
L 221.180313 143.756 
L 221.180312 143.756 
" style="fill:none;stroke:#1f77b4;stroke-linecap:square;stroke-width:0.5;"/>
   </g>
   <g id="line2d_25">
    <path clip-path="url(#pdf17be50e6)" d="M 240.599883 276.812 
L 232.180856 261.855574 
L 223.335636 245.687789 
L 214.553502 229.20068 
L 208.181386 216.831629 
L 202.749771 205.794171 
L 198.871416 197.43225 
L 195.532243 189.706358 
L 192.692602 182.531078 
L 190.317639 175.848391 
L 188.375587 169.623544 
L 186.83636 163.839806 
L 185.670573 158.493248 
L 184.848791 153.587047 
L 184.341272 149.127202 
L 184.117886 145.11865 
L 184.148285 141.562464 
L 184.402235 138.454128 
L 184.850015 135.782703 
L 185.462857 133.530837 
L 186.213354 131.675372 
L 187.075821 130.188391 
L 188.02657 129.038481 
L 189.044104 128.192046 
L 190.109217 127.61459 
L 191.205012 127.271847 
L 192.540026 127.123864 
L 193.877081 127.212632 
L 195.416994 127.550844 
L 197.1256 128.165068 
L 199.153589 129.154385 
L 201.39758 130.506001 
L 204.195435 132.46861 
L 208.101528 135.517942 
L 213.815797 139.975768 
L 216.16739 141.512248 
L 218.160418 142.550004 
L 220.555297 143.522622 
L 221.180313 143.756 
L 221.180313 143.756 
" style="fill:none;stroke:#1f77b4;stroke-linecap:square;stroke-width:0.5;"/>
   </g>
   <g id="line2d_26">
    <path clip-path="url(#pdf17be50e6)" d="M 201.760742 276.812 
L 194.990192 263.088918 
L 190.38494 253.257872 
L 186.169221 243.725079 
L 182.33248 234.420354 
L 178.866628 225.291694 
L 175.765327 216.306617 
L 173.023134 207.451498 
L 170.634785 198.730534 
L 168.59453 190.163798 
L 166.895528 181.784564 
L 165.529381 173.636088 
L 164.485817 165.768394 
L 163.752473 158.234506 
L 163.314835 151.086817 
L 163.156356 144.374404 
L 163.258623 138.140122 
L 163.601658 132.418636 
L 164.164278 127.235042 
L 164.924494 122.604179 
L 165.859926 118.530559 
L 166.948221 115.008706 
L 168.167426 112.024298 
L 169.496318 109.555316 
L 170.914694 107.573384 
L 171.900571 106.506421 
L 172.912496 105.630454 
L 173.945497 104.934265 
L 175.524377 104.201797 
L 177.125794 103.80846 
L 178.736884 103.715135 
L 180.346332 103.883776 
L 181.944331 104.278067 
L 183.522491 104.863932 
L 185.583803 105.889012 
L 187.583968 107.131877 
L 189.983094 108.903824 
L 192.696841 111.227838 
L 195.620155 114.054292 
L 198.988644 117.656624 
L 202.825523 122.120495 
L 207.345406 127.740137 
L 218.777444 142.154286 
L 219.900525 143.145883 
L 220.724569 143.582987 
L 221.180313 143.756 
L 221.180313 143.756 
" style="fill:none;stroke:#1f77b4;stroke-linecap:square;stroke-width:0.5;"/>
   </g>
   <g id="line2d_27">
    <path clip-path="url(#pdf17be50e6)" d="M 161.016444 276.812 
L 157.598689 265.362041 
L 154.490327 253.747894 
L 151.695704 241.985364 
L 149.218414 230.106974 
L 147.060989 218.159855 
L 145.224489 206.20489 
L 143.708171 194.313919 
L 142.509264 182.566503 
L 141.622791 171.047044 
L 141.041479 159.841582 
L 140.755758 149.034535 
L 140.75385 138.705645 
L 141.021932 128.927329 
L 141.544358 119.762538 
L 142.30394 111.263072 
L 143.282264 103.468477 
L 144.460017 96.40559 
L 145.817343 90.088563 
L 147.334173 84.519388 
L 148.990532 79.688869 
L 150.766831 75.577849 
L 152.644111 72.158608 
L 154.604261 69.396419 
L 156.630178 67.251144 
L 157.662758 66.396194 
L 158.705882 65.678723 
L 159.757744 65.092845 
L 160.816619 64.632595 
L 162.948904 64.064958 
L 165.090541 63.92787 
L 167.230608 64.174182 
L 169.359432 64.758286 
L 171.468535 65.636698 
L 173.550573 66.768485 
L 175.599265 68.115547 
L 177.609309 69.642789 
L 180.542514 72.202293 
L 183.367573 75.000673 
L 186.076534 77.957528 
L 189.499616 82.03304 
L 193.468601 87.172103 
L 197.780875 93.184895 
L 202.218157 99.763913 
L 207.547679 108.101858 
L 212.961497 116.988998 
L 218.259604 126.105694 
L 222.155628 133.236828 
L 224.426823 137.817488 
L 225.697623 140.845664 
L 226.259269 142.70801 
L 226.389332 143.824745 
L 226.265138 144.466256 
L 225.985091 144.818098 
L 225.564356 144.982736 
L 224.915545 144.976739 
L 223.837402 144.716078 
L 221.341006 143.815878 
L 221.180312 143.756 
L 221.180313 143.756 
" style="fill:none;stroke:#1f77b4;stroke-linecap:square;stroke-width:0.5;"/>
   </g>
   <g id="line2d_28">
    <path clip-path="url(#pdf17be50e6)" d="M 113.744325 276.812 
L 112.059895 261.735157 
L 110.578545 246.530227 
L 109.301776 231.252604 
L 108.230167 215.962418 
L 107.363487 200.72198 
L 106.700641 185.595326 
L 106.239668 170.64715 
L 105.977742 155.941685 
L 105.911201 141.541824 
L 106.035522 127.50797 
L 106.345401 113.897199 
L 106.834817 100.76241 
L 107.497035 88.151816 
L 108.324714 76.108254 
L 109.309997 64.668654 
L 110.444572 53.86385 
L 111.719757 43.718419 
L 113.126579 34.250643 
L 114.655875 25.472599 
L 116.298302 17.390332 
L 118.044497 10.004107 
" style="fill:none;stroke:#1f77b4;stroke-linecap:square;stroke-width:0.5;"/>
   </g>
   <g id="line2d_29">
    <path clip-path="url(#pdf17be50e6)" d="M 52.039296 276.812 
L 50.569429 229.802346 
L 49.728778 183.074051 
L 49.510722 137.093894 
L 49.902166 92.317883 
L 50.883996 49.176701 
L 52.431593 8.063436 
" style="fill:none;stroke:#1f77b4;stroke-linecap:square;stroke-width:0.5;"/>
   </g>
   <g id="line2d_30">
    <path clip-path="url(#pdf17be50e6)" d="M 42.620313 233.970206 
L 41.767648 180.742754 
" style="fill:none;stroke:#1f77b4;stroke-linecap:square;stroke-width:0.5;"/>
   </g>
   <g id="line2d_31">
    <path clip-path="url(#pdf17be50e6)" d="M 42.620313 196.770356 
L 42.259646 144.669863 
" style="fill:none;stroke:#1f77b4;stroke-linecap:square;stroke-width:0.5;"/>
   </g>
   <g id="line2d_32">
    <path clip-path="url(#pdf17be50e6)" d="M 42.620313 165.569424 
L 42.672335 114.413441 
L 43.400757 64.848158 
L 44.780816 17.381041 
L 45.599448 -1 
" style="fill:none;stroke:#1f77b4;stroke-linecap:square;stroke-width:0.5;"/>
   </g>
   <g id="line2d_33">
    <path clip-path="url(#pdf17be50e6)" d="M 42.620313 136.541913 
L 43.056304 86.264069 
L 44.154981 37.867448 
L 45.61791 -1 
" style="fill:none;stroke:#1f77b4;stroke-linecap:square;stroke-width:0.5;"/>
   </g>
   <g id="line2d_34">
    <path clip-path="url(#pdf17be50e6)" d="M 42.620313 106.813183 
L 43.449586 57.434522 
L 44.927433 10.230989 
" style="fill:none;stroke:#1f77b4;stroke-linecap:square;stroke-width:0.5;"/>
   </g>
   <g id="line2d_35">
    <path clip-path="url(#pdf17be50e6)" d="M 42.620313 73.214173 
L 43.894074 24.851334 
L 44.968768 -1 
" style="fill:none;stroke:#1f77b4;stroke-linecap:square;stroke-width:0.5;"/>
   </g>
   <g id="line2d_36">
    <path clip-path="url(#pdf17be50e6)" d="M 42.620313 30.737215 
L 43.857778 -1 
" style="fill:none;stroke:#1f77b4;stroke-linecap:square;stroke-width:0.5;"/>
   </g>
   <g id="line2d_37">
    <path clip-path="url(#pdf17be50e6)" d="M 85.442529 10.7 
L 86.626927 -1 
" style="fill:none;stroke:#1f77b4;stroke-linecap:square;stroke-width:0.5;"/>
   </g>
   <g id="line2d_38">
    <path clip-path="url(#pdf17be50e6)" d="M 138.56966 10.7 
L 140.369318 8.661484 
" style="fill:none;stroke:#1f77b4;stroke-linecap:square;stroke-width:0.5;"/>
   </g>
   <g id="line2d_39">
    <path clip-path="url(#pdf17be50e6)" d="M 181.876284 10.7 
L 187.080925 18.272187 
L 191.980008 25.855393 
L 198.042038 35.736399 
L 204.893173 47.425008 
L 212.125045 60.221042 
L 220.272908 75.096908 
L 227.692077 89.120644 
L 232.980953 99.58479 
L 236.750934 107.487383 
L 239.82531 114.422452 
L 242.287765 120.536128 
L 244.210164 125.935191 
L 245.655855 130.696094 
L 246.682054 134.874391 
L 247.34141 138.512703 
L 247.682929 141.646971 
L 247.752376 144.310883 
L 247.592343 146.538455 
L 247.242159 148.36529 
L 246.737729 149.828714 
L 246.111391 150.967279 
L 245.391836 151.819855 
L 244.604126 152.424637 
L 243.647912 152.859204 
L 242.657567 153.068544 
L 241.529444 153.091494 
L 240.163471 152.892459 
L 238.489938 152.400863 
L 236.499834 151.564951 
L 233.915454 150.21748 
L 224.489655 145.059237 
L 221.39669 143.836636 
L 221.180312 143.756 
L 221.180312 143.756 
" style="fill:none;stroke:#1f77b4;stroke-linecap:square;stroke-width:0.5;"/>
   </g>
   <g id="line2d_40">
    <path clip-path="url(#pdf17be50e6)" d="M 221.180312 10.7 
L 231.122888 29.463672 
L 238.314094 43.485791 
L 243.415347 53.850772 
L 247.977177 63.604785 
L 252.029231 72.860875 
L 255.595791 81.705145 
L 257.964503 88.103862 
L 260.079346 94.318261 
L 261.947589 100.354755 
L 263.576384 106.212792 
L 264.973027 111.885991 
L 266.145165 117.363382 
L 267.372977 124.337001 
L 268.237322 130.898107 
L 268.76144 137.00663 
L 268.970656 142.625854 
L 268.892062 147.725883 
L 268.554115 152.286175 
L 267.986104 156.297065 
L 267.217524 159.760105 
L 266.527017 162.004894 
L 265.752061 163.957058 
L 264.904213 165.628073 
L 263.994525 167.031647 
L 263.033457 168.183273 
L 262.030815 169.099772 
L 260.995713 169.798845 
L 259.93654 170.298662 
L 258.499987 170.686696 
L 257.050281 170.795594 
L 255.6013 170.666291 
L 254.164787 170.337213 
L 252.401373 169.698524 
L 250.351978 168.67902 
L 248.076142 167.253291 
L 245.649198 165.450288 
L 242.894363 163.116351 
L 239.556412 159.971926 
L 235.257121 155.582787 
L 227.823949 147.943825 
L 225.705397 146.115021 
L 224.152386 145.057617 
L 222.695601 144.339808 
L 221.180312 143.756 
L 221.180312 143.756 
" style="fill:none;stroke:#1f77b4;stroke-linecap:square;stroke-width:0.5;"/>
   </g>
   <g id="line2d_41">
    <path clip-path="url(#pdf17be50e6)" d="M 221.180313 143.756 
" style="fill:none;stroke:#1f77b4;stroke-linecap:square;stroke-width:1.5;"/>
   </g>
   <g id="line2d_42">
    <defs>
     <path d="M 0 3 
C 0.795609 3 1.55874 2.683901 2.12132 2.12132 
C 2.683901 1.55874 3 0.795609 3 0 
C 3 -0.795609 2.683901 -1.55874 2.12132 -2.12132 
C 1.55874 -2.683901 0.795609 -3 0 -3 
C -0.795609 -3 -1.55874 -2.683901 -2.12132 -2.12132 
C -2.683901 -1.55874 -3 -0.795609 -3 0 
C -3 0.795609 -2.683901 1.55874 -2.12132 2.12132 
C -1.55874 2.683901 -0.795609 3 0 3 
z
" id="mdf18a8af09" style="stroke:#ff0000;"/>
    </defs>
    <g clip-path="url(#pdf17be50e6)">
     <use style="fill:#ff0000;stroke:#ff0000;" x="221.180313" xlink:href="#mdf18a8af09" y="143.756"/>
    </g>
   </g>
   <g id="patch_52">
    <path d="M 42.620313 276.812 
L 42.620313 10.7 
" style="fill:none;stroke:#000000;stroke-linecap:square;stroke-linejoin:miter;stroke-width:0.8;"/>
   </g>
   <g id="patch_53">
    <path d="M 399.740313 276.812 
L 399.740313 10.7 
" style="fill:none;stroke:#000000;stroke-linecap:square;stroke-linejoin:miter;stroke-width:0.8;"/>
   </g>
   <g id="patch_54">
    <path d="M 42.620313 276.812 
L 399.740313 276.812 
" style="fill:none;stroke:#000000;stroke-linecap:square;stroke-linejoin:miter;stroke-width:0.8;"/>
   </g>
   <g id="patch_55">
    <path d="M 42.620313 10.7 
L 399.740313 10.7 
" style="fill:none;stroke:#000000;stroke-linecap:square;stroke-linejoin:miter;stroke-width:0.8;"/>
   </g>
   <g id="legend_1">
    <g id="patch_56">
     <path d="M 249.800312 273.812 
L 395.540313 273.812 
Q 396.740313 273.812 396.740313 272.612 
L 396.740313 255.35825 
Q 396.740313 254.15825 395.540313 254.15825 
L 249.800312 254.15825 
Q 248.600313 254.15825 248.600313 255.35825 
L 248.600313 272.612 
Q 248.600313 273.812 249.800312 273.812 
z
" style="fill:#ffffff;opacity:0.8;stroke:#cccccc;stroke-linejoin:miter;"/>
    </g>
    <g id="line2d_43">
     <path d="M 251.000313 259.017312 
L 263.000313 259.017312 
" style="fill:none;stroke:#1f77b4;stroke-linecap:square;stroke-width:1.5;"/>
    </g>
    <g id="line2d_44"/>
    <g id="text_13">
     <!-- system nieliniowy -->
     <defs>
      <path d="M 44.28125 53.078125 
L 44.28125 44.578125 
Q 40.484375 46.53125 36.375 47.5 
Q 32.28125 48.484375 27.875 48.484375 
Q 21.1875 48.484375 17.84375 46.4375 
Q 14.5 44.390625 14.5 40.28125 
Q 14.5 37.15625 16.890625 35.375 
Q 19.28125 33.59375 26.515625 31.984375 
L 29.59375 31.296875 
Q 39.15625 29.25 43.1875 25.515625 
Q 47.21875 21.78125 47.21875 15.09375 
Q 47.21875 7.46875 41.1875 3.015625 
Q 35.15625 -1.421875 24.609375 -1.421875 
Q 20.21875 -1.421875 15.453125 -0.5625 
Q 10.6875 0.296875 5.421875 2 
L 5.421875 11.28125 
Q 10.40625 8.6875 15.234375 7.390625 
Q 20.0625 6.109375 24.8125 6.109375 
Q 31.15625 6.109375 34.5625 8.28125 
Q 37.984375 10.453125 37.984375 14.40625 
Q 37.984375 18.0625 35.515625 20.015625 
Q 33.0625 21.96875 24.703125 23.78125 
L 21.578125 24.515625 
Q 13.234375 26.265625 9.515625 29.90625 
Q 5.8125 33.546875 5.8125 39.890625 
Q 5.8125 47.609375 11.28125 51.796875 
Q 16.75 56 26.8125 56 
Q 31.78125 56 36.171875 55.265625 
Q 40.578125 54.546875 44.28125 53.078125 
" id="DejaVuSans-73"/>
      <path d="M 32.171875 -5.078125 
Q 28.375 -14.84375 24.75 -17.8125 
Q 21.140625 -20.796875 15.09375 -20.796875 
L 7.90625 -20.796875 
L 7.90625 -13.28125 
L 13.1875 -13.28125 
Q 16.890625 -13.28125 18.9375 -11.515625 
Q 21 -9.765625 23.484375 -3.21875 
L 25.09375 0.875 
L 2.984375 54.6875 
L 12.5 54.6875 
L 29.59375 11.921875 
L 46.6875 54.6875 
L 56.203125 54.6875 
z
" id="DejaVuSans-79"/>
      <path d="M 18.3125 70.21875 
L 18.3125 54.6875 
L 36.8125 54.6875 
L 36.8125 47.703125 
L 18.3125 47.703125 
L 18.3125 18.015625 
Q 18.3125 11.328125 20.140625 9.421875 
Q 21.96875 7.515625 27.59375 7.515625 
L 36.8125 7.515625 
L 36.8125 0 
L 27.59375 0 
Q 17.1875 0 13.234375 3.875 
Q 9.28125 7.765625 9.28125 18.015625 
L 9.28125 47.703125 
L 2.6875 47.703125 
L 2.6875 54.6875 
L 9.28125 54.6875 
L 9.28125 70.21875 
z
" id="DejaVuSans-74"/>
      <path d="M 56.203125 29.59375 
L 56.203125 25.203125 
L 14.890625 25.203125 
Q 15.484375 15.921875 20.484375 11.0625 
Q 25.484375 6.203125 34.421875 6.203125 
Q 39.59375 6.203125 44.453125 7.46875 
Q 49.3125 8.734375 54.109375 11.28125 
L 54.109375 2.78125 
Q 49.265625 0.734375 44.1875 -0.34375 
Q 39.109375 -1.421875 33.890625 -1.421875 
Q 20.796875 -1.421875 13.15625 6.1875 
Q 5.515625 13.8125 5.515625 26.8125 
Q 5.515625 40.234375 12.765625 48.109375 
Q 20.015625 56 32.328125 56 
Q 43.359375 56 49.78125 48.890625 
Q 56.203125 41.796875 56.203125 29.59375 
M 47.21875 32.234375 
Q 47.125 39.59375 43.09375 43.984375 
Q 39.0625 48.390625 32.421875 48.390625 
Q 24.90625 48.390625 20.390625 44.140625 
Q 15.875 39.890625 15.1875 32.171875 
z
" id="DejaVuSans-65"/>
      <path d="M 52 44.1875 
Q 55.375 50.25 60.0625 53.125 
Q 64.75 56 71.09375 56 
Q 79.640625 56 84.28125 50.015625 
Q 88.921875 44.046875 88.921875 33.015625 
L 88.921875 0 
L 79.890625 0 
L 79.890625 32.71875 
Q 79.890625 40.578125 77.09375 44.375 
Q 74.3125 48.1875 68.609375 48.1875 
Q 61.625 48.1875 57.5625 43.546875 
Q 53.515625 38.921875 53.515625 30.90625 
L 53.515625 0 
L 44.484375 0 
L 44.484375 32.71875 
Q 44.484375 40.625 41.703125 44.40625 
Q 38.921875 48.1875 33.109375 48.1875 
Q 26.21875 48.1875 22.15625 43.53125 
Q 18.109375 38.875 18.109375 30.90625 
L 18.109375 0 
L 9.078125 0 
L 9.078125 54.6875 
L 18.109375 54.6875 
L 18.109375 46.1875 
Q 21.1875 51.21875 25.484375 53.609375 
Q 29.78125 56 35.6875 56 
Q 41.65625 56 45.828125 52.96875 
Q 50 49.953125 52 44.1875 
" id="DejaVuSans-6d"/>
      <path id="DejaVuSans-20"/>
      <path d="M 54.890625 33.015625 
L 54.890625 0 
L 45.90625 0 
L 45.90625 32.71875 
Q 45.90625 40.484375 42.875 44.328125 
Q 39.84375 48.1875 33.796875 48.1875 
Q 26.515625 48.1875 22.3125 43.546875 
Q 18.109375 38.921875 18.109375 30.90625 
L 18.109375 0 
L 9.078125 0 
L 9.078125 54.6875 
L 18.109375 54.6875 
L 18.109375 46.1875 
Q 21.34375 51.125 25.703125 53.5625 
Q 30.078125 56 35.796875 56 
Q 45.21875 56 50.046875 50.171875 
Q 54.890625 44.34375 54.890625 33.015625 
" id="DejaVuSans-6e"/>
      <path d="M 9.421875 54.6875 
L 18.40625 54.6875 
L 18.40625 0 
L 9.421875 0 
z
M 9.421875 75.984375 
L 18.40625 75.984375 
L 18.40625 64.59375 
L 9.421875 64.59375 
z
" id="DejaVuSans-69"/>
      <path d="M 9.421875 75.984375 
L 18.40625 75.984375 
L 18.40625 0 
L 9.421875 0 
z
" id="DejaVuSans-6c"/>
      <path d="M 30.609375 48.390625 
Q 23.390625 48.390625 19.1875 42.75 
Q 14.984375 37.109375 14.984375 27.296875 
Q 14.984375 17.484375 19.15625 11.84375 
Q 23.34375 6.203125 30.609375 6.203125 
Q 37.796875 6.203125 41.984375 11.859375 
Q 46.1875 17.53125 46.1875 27.296875 
Q 46.1875 37.015625 41.984375 42.703125 
Q 37.796875 48.390625 30.609375 48.390625 
M 30.609375 56 
Q 42.328125 56 49.015625 48.375 
Q 55.71875 40.765625 55.71875 27.296875 
Q 55.71875 13.875 49.015625 6.21875 
Q 42.328125 -1.421875 30.609375 -1.421875 
Q 18.84375 -1.421875 12.171875 6.21875 
Q 5.515625 13.875 5.515625 27.296875 
Q 5.515625 40.765625 12.171875 48.375 
Q 18.84375 56 30.609375 56 
" id="DejaVuSans-6f"/>
      <path d="M 4.203125 54.6875 
L 13.1875 54.6875 
L 24.421875 12.015625 
L 35.59375 54.6875 
L 46.1875 54.6875 
L 57.421875 12.015625 
L 68.609375 54.6875 
L 77.59375 54.6875 
L 63.28125 0 
L 52.6875 0 
L 40.921875 44.828125 
L 29.109375 0 
L 18.5 0 
z
" id="DejaVuSans-77"/>
     </defs>
     <g transform="translate(267.800313 261.117312)scale(0.06 -0.06)">
      <use xlink:href="#DejaVuSans-73"/>
      <use x="52.099609" xlink:href="#DejaVuSans-79"/>
      <use x="111.279297" xlink:href="#DejaVuSans-73"/>
      <use x="163.378906" xlink:href="#DejaVuSans-74"/>
      <use x="202.587891" xlink:href="#DejaVuSans-65"/>
      <use x="264.111328" xlink:href="#DejaVuSans-6d"/>
      <use x="361.523438" xlink:href="#DejaVuSans-20"/>
      <use x="393.310547" xlink:href="#DejaVuSans-6e"/>
      <use x="456.689453" xlink:href="#DejaVuSans-69"/>
      <use x="484.472656" xlink:href="#DejaVuSans-65"/>
      <use x="545.996094" xlink:href="#DejaVuSans-6c"/>
      <use x="573.779297" xlink:href="#DejaVuSans-69"/>
      <use x="601.5625" xlink:href="#DejaVuSans-6e"/>
      <use x="664.941406" xlink:href="#DejaVuSans-69"/>
      <use x="692.724609" xlink:href="#DejaVuSans-6f"/>
      <use x="753.90625" xlink:href="#DejaVuSans-77"/>
      <use x="835.693359" xlink:href="#DejaVuSans-79"/>
     </g>
    </g>
    <g id="line2d_45"/>
    <g id="line2d_46">
     <g>
      <use style="fill:#ff0000;stroke:#ff0000;" x="257.000313" xlink:href="#mdf18a8af09" y="268.064187"/>
     </g>
    </g>
    <g id="text_14">
     <!-- Punkt równowagi asymptotycznie stabilny -->
     <defs>
      <path d="M 19.671875 64.796875 
L 19.671875 37.40625 
L 32.078125 37.40625 
Q 38.96875 37.40625 42.71875 40.96875 
Q 46.484375 44.53125 46.484375 51.125 
Q 46.484375 57.671875 42.71875 61.234375 
Q 38.96875 64.796875 32.078125 64.796875 
z
M 9.8125 72.90625 
L 32.078125 72.90625 
Q 44.34375 72.90625 50.609375 67.359375 
Q 56.890625 61.8125 56.890625 51.125 
Q 56.890625 40.328125 50.609375 34.8125 
Q 44.34375 29.296875 32.078125 29.296875 
L 19.671875 29.296875 
L 19.671875 0 
L 9.8125 0 
z
" id="DejaVuSans-50"/>
      <path d="M 8.5 21.578125 
L 8.5 54.6875 
L 17.484375 54.6875 
L 17.484375 21.921875 
Q 17.484375 14.15625 20.5 10.265625 
Q 23.53125 6.390625 29.59375 6.390625 
Q 36.859375 6.390625 41.078125 11.03125 
Q 45.3125 15.671875 45.3125 23.6875 
L 45.3125 54.6875 
L 54.296875 54.6875 
L 54.296875 0 
L 45.3125 0 
L 45.3125 8.40625 
Q 42.046875 3.421875 37.71875 1 
Q 33.40625 -1.421875 27.6875 -1.421875 
Q 18.265625 -1.421875 13.375 4.4375 
Q 8.5 10.296875 8.5 21.578125 
M 31.109375 56 
z
" id="DejaVuSans-75"/>
      <path d="M 9.078125 75.984375 
L 18.109375 75.984375 
L 18.109375 31.109375 
L 44.921875 54.6875 
L 56.390625 54.6875 
L 27.390625 29.109375 
L 57.625 0 
L 45.90625 0 
L 18.109375 26.703125 
L 18.109375 0 
L 9.078125 0 
z
" id="DejaVuSans-6b"/>
      <path d="M 41.109375 46.296875 
Q 39.59375 47.171875 37.8125 47.578125 
Q 36.03125 48 33.890625 48 
Q 26.265625 48 22.1875 43.046875 
Q 18.109375 38.09375 18.109375 28.8125 
L 18.109375 0 
L 9.078125 0 
L 9.078125 54.6875 
L 18.109375 54.6875 
L 18.109375 46.1875 
Q 20.953125 51.171875 25.484375 53.578125 
Q 30.03125 56 36.53125 56 
Q 37.453125 56 38.578125 55.875 
Q 39.703125 55.765625 41.0625 55.515625 
z
" id="DejaVuSans-72"/>
      <path d="M 30.609375 48.390625 
Q 23.390625 48.390625 19.1875 42.75 
Q 14.984375 37.109375 14.984375 27.296875 
Q 14.984375 17.484375 19.15625 11.84375 
Q 23.34375 6.203125 30.609375 6.203125 
Q 37.796875 6.203125 41.984375 11.859375 
Q 46.1875 17.53125 46.1875 27.296875 
Q 46.1875 37.015625 41.984375 42.703125 
Q 37.796875 48.390625 30.609375 48.390625 
M 30.609375 56 
Q 42.328125 56 49.015625 48.375 
Q 55.71875 40.765625 55.71875 27.296875 
Q 55.71875 13.875 49.015625 6.21875 
Q 42.328125 -1.421875 30.609375 -1.421875 
Q 18.84375 -1.421875 12.171875 6.21875 
Q 5.515625 13.875 5.515625 27.296875 
Q 5.515625 40.765625 12.171875 48.375 
Q 18.84375 56 30.609375 56 
M 37.40625 79.984375 
L 47.125 79.984375 
L 31.21875 61.625 
L 23.734375 61.625 
z
" id="DejaVuSans-f3"/>
      <path d="M 34.28125 27.484375 
Q 23.390625 27.484375 19.1875 25 
Q 14.984375 22.515625 14.984375 16.5 
Q 14.984375 11.71875 18.140625 8.90625 
Q 21.296875 6.109375 26.703125 6.109375 
Q 34.1875 6.109375 38.703125 11.40625 
Q 43.21875 16.703125 43.21875 25.484375 
L 43.21875 27.484375 
z
M 52.203125 31.203125 
L 52.203125 0 
L 43.21875 0 
L 43.21875 8.296875 
Q 40.140625 3.328125 35.546875 0.953125 
Q 30.953125 -1.421875 24.3125 -1.421875 
Q 15.921875 -1.421875 10.953125 3.296875 
Q 6 8.015625 6 15.921875 
Q 6 25.140625 12.171875 29.828125 
Q 18.359375 34.515625 30.609375 34.515625 
L 43.21875 34.515625 
L 43.21875 35.40625 
Q 43.21875 41.609375 39.140625 45 
Q 35.0625 48.390625 27.6875 48.390625 
Q 23 48.390625 18.546875 47.265625 
Q 14.109375 46.140625 10.015625 43.890625 
L 10.015625 52.203125 
Q 14.9375 54.109375 19.578125 55.046875 
Q 24.21875 56 28.609375 56 
Q 40.484375 56 46.34375 49.84375 
Q 52.203125 43.703125 52.203125 31.203125 
" id="DejaVuSans-61"/>
      <path d="M 45.40625 27.984375 
Q 45.40625 37.75 41.375 43.109375 
Q 37.359375 48.484375 30.078125 48.484375 
Q 22.859375 48.484375 18.828125 43.109375 
Q 14.796875 37.75 14.796875 27.984375 
Q 14.796875 18.265625 18.828125 12.890625 
Q 22.859375 7.515625 30.078125 7.515625 
Q 37.359375 7.515625 41.375 12.890625 
Q 45.40625 18.265625 45.40625 27.984375 
M 54.390625 6.78125 
Q 54.390625 -7.171875 48.1875 -13.984375 
Q 42 -20.796875 29.203125 -20.796875 
Q 24.46875 -20.796875 20.265625 -20.09375 
Q 16.0625 -19.390625 12.109375 -17.921875 
L 12.109375 -9.1875 
Q 16.0625 -11.328125 19.921875 -12.34375 
Q 23.78125 -13.375 27.78125 -13.375 
Q 36.625 -13.375 41.015625 -8.765625 
Q 45.40625 -4.15625 45.40625 5.171875 
L 45.40625 9.625 
Q 42.625 4.78125 38.28125 2.390625 
Q 33.9375 0 27.875 0 
Q 17.828125 0 11.671875 7.65625 
Q 5.515625 15.328125 5.515625 27.984375 
Q 5.515625 40.671875 11.671875 48.328125 
Q 17.828125 56 27.875 56 
Q 33.9375 56 38.28125 53.609375 
Q 42.625 51.21875 45.40625 46.390625 
L 45.40625 54.6875 
L 54.390625 54.6875 
z
" id="DejaVuSans-67"/>
      <path d="M 18.109375 8.203125 
L 18.109375 -20.796875 
L 9.078125 -20.796875 
L 9.078125 54.6875 
L 18.109375 54.6875 
L 18.109375 46.390625 
Q 20.953125 51.265625 25.265625 53.625 
Q 29.59375 56 35.59375 56 
Q 45.5625 56 51.78125 48.09375 
Q 58.015625 40.1875 58.015625 27.296875 
Q 58.015625 14.40625 51.78125 6.484375 
Q 45.5625 -1.421875 35.59375 -1.421875 
Q 29.59375 -1.421875 25.265625 0.953125 
Q 20.953125 3.328125 18.109375 8.203125 
M 48.6875 27.296875 
Q 48.6875 37.203125 44.609375 42.84375 
Q 40.53125 48.484375 33.40625 48.484375 
Q 26.265625 48.484375 22.1875 42.84375 
Q 18.109375 37.203125 18.109375 27.296875 
Q 18.109375 17.390625 22.1875 11.75 
Q 26.265625 6.109375 33.40625 6.109375 
Q 40.53125 6.109375 44.609375 11.75 
Q 48.6875 17.390625 48.6875 27.296875 
" id="DejaVuSans-70"/>
      <path d="M 48.78125 52.59375 
L 48.78125 44.1875 
Q 44.96875 46.296875 41.140625 47.34375 
Q 37.3125 48.390625 33.40625 48.390625 
Q 24.65625 48.390625 19.8125 42.84375 
Q 14.984375 37.3125 14.984375 27.296875 
Q 14.984375 17.28125 19.8125 11.734375 
Q 24.65625 6.203125 33.40625 6.203125 
Q 37.3125 6.203125 41.140625 7.25 
Q 44.96875 8.296875 48.78125 10.40625 
L 48.78125 2.09375 
Q 45.015625 0.34375 40.984375 -0.53125 
Q 36.96875 -1.421875 32.421875 -1.421875 
Q 20.0625 -1.421875 12.78125 6.34375 
Q 5.515625 14.109375 5.515625 27.296875 
Q 5.515625 40.671875 12.859375 48.328125 
Q 20.21875 56 33.015625 56 
Q 37.15625 56 41.109375 55.140625 
Q 45.0625 54.296875 48.78125 52.59375 
" id="DejaVuSans-63"/>
      <path d="M 5.515625 54.6875 
L 48.1875 54.6875 
L 48.1875 46.484375 
L 14.40625 7.171875 
L 48.1875 7.171875 
L 48.1875 0 
L 4.296875 0 
L 4.296875 8.203125 
L 38.09375 47.515625 
L 5.515625 47.515625 
z
" id="DejaVuSans-7a"/>
      <path d="M 48.6875 27.296875 
Q 48.6875 37.203125 44.609375 42.84375 
Q 40.53125 48.484375 33.40625 48.484375 
Q 26.265625 48.484375 22.1875 42.84375 
Q 18.109375 37.203125 18.109375 27.296875 
Q 18.109375 17.390625 22.1875 11.75 
Q 26.265625 6.109375 33.40625 6.109375 
Q 40.53125 6.109375 44.609375 11.75 
Q 48.6875 17.390625 48.6875 27.296875 
M 18.109375 46.390625 
Q 20.953125 51.265625 25.265625 53.625 
Q 29.59375 56 35.59375 56 
Q 45.5625 56 51.78125 48.09375 
Q 58.015625 40.1875 58.015625 27.296875 
Q 58.015625 14.40625 51.78125 6.484375 
Q 45.5625 -1.421875 35.59375 -1.421875 
Q 29.59375 -1.421875 25.265625 0.953125 
Q 20.953125 3.328125 18.109375 8.203125 
L 18.109375 0 
L 9.078125 0 
L 9.078125 75.984375 
L 18.109375 75.984375 
z
" id="DejaVuSans-62"/>
     </defs>
     <g transform="translate(267.800313 270.164187)scale(0.06 -0.06)">
      <use xlink:href="#DejaVuSans-50"/>
      <use x="60.287109" xlink:href="#DejaVuSans-75"/>
      <use x="123.666016" xlink:href="#DejaVuSans-6e"/>
      <use x="187.044922" xlink:href="#DejaVuSans-6b"/>
      <use x="244.955078" xlink:href="#DejaVuSans-74"/>
      <use x="284.164062" xlink:href="#DejaVuSans-20"/>
      <use x="315.951172" xlink:href="#DejaVuSans-72"/>
      <use x="357.033203" xlink:href="#DejaVuSans-f3"/>
      <use x="418.214844" xlink:href="#DejaVuSans-77"/>
      <use x="500.001953" xlink:href="#DejaVuSans-6e"/>
      <use x="563.380859" xlink:href="#DejaVuSans-6f"/>
      <use x="624.5625" xlink:href="#DejaVuSans-77"/>
      <use x="706.349609" xlink:href="#DejaVuSans-61"/>
      <use x="767.628906" xlink:href="#DejaVuSans-67"/>
      <use x="831.105469" xlink:href="#DejaVuSans-69"/>
      <use x="858.888672" xlink:href="#DejaVuSans-20"/>
      <use x="890.675781" xlink:href="#DejaVuSans-61"/>
      <use x="951.955078" xlink:href="#DejaVuSans-73"/>
      <use x="1004.054688" xlink:href="#DejaVuSans-79"/>
      <use x="1063.234375" xlink:href="#DejaVuSans-6d"/>
      <use x="1160.646484" xlink:href="#DejaVuSans-70"/>
      <use x="1224.123047" xlink:href="#DejaVuSans-74"/>
      <use x="1263.332031" xlink:href="#DejaVuSans-6f"/>
      <use x="1324.513672" xlink:href="#DejaVuSans-74"/>
      <use x="1363.722656" xlink:href="#DejaVuSans-79"/>
      <use x="1422.902344" xlink:href="#DejaVuSans-63"/>
      <use x="1477.882812" xlink:href="#DejaVuSans-7a"/>
      <use x="1530.373047" xlink:href="#DejaVuSans-6e"/>
      <use x="1593.751953" xlink:href="#DejaVuSans-69"/>
      <use x="1621.535156" xlink:href="#DejaVuSans-65"/>
      <use x="1683.058594" xlink:href="#DejaVuSans-20"/>
      <use x="1714.845703" xlink:href="#DejaVuSans-73"/>
      <use x="1766.945312" xlink:href="#DejaVuSans-74"/>
      <use x="1806.154297" xlink:href="#DejaVuSans-61"/>
      <use x="1867.433594" xlink:href="#DejaVuSans-62"/>
      <use x="1930.910156" xlink:href="#DejaVuSans-69"/>
      <use x="1958.693359" xlink:href="#DejaVuSans-6c"/>
      <use x="1986.476562" xlink:href="#DejaVuSans-6e"/>
      <use x="2049.855469" xlink:href="#DejaVuSans-79"/>
     </g>
    </g>
   </g>
  </g>
 </g>
 <defs>
  <clipPath id="pdf17be50e6">
   <rect height="266.112" width="357.12" x="42.620313" y="10.7"/>
  </clipPath>
 </defs>
</svg>
