<?xml version="1.0" encoding="utf-8" standalone="no"?>
<!DOCTYPE svg PUBLIC "-//W3C//DTD SVG 1.1//EN"
  "http://www.w3.org/Graphics/SVG/1.1/DTD/svg11.dtd">
<!-- Created with matplotlib (http://matplotlib.org/) -->
<svg height="314pt" version="1.1" viewBox="0 0 410 314" width="410pt" xmlns="http://www.w3.org/2000/svg" xmlns:xlink="http://www.w3.org/1999/xlink">
 <defs>
  <style type="text/css">
*{stroke-linecap:butt;stroke-linejoin:round;}
  </style>
 </defs>
 <g id="figure_1">
  <g id="patch_1">
   <path d="M 0 314.36825 
L 410.440313 314.36825 
L 410.440313 0 
L 0 0 
z
" style="fill:#ffffff;"/>
  </g>
  <g id="axes_1">
   <g id="patch_2">
    <path d="M 42.620313 276.812 
L 399.740313 276.812 
L 399.740313 10.7 
L 42.620313 10.7 
z
" style="fill:#ffffff;"/>
   </g>
   <g id="patch_3">
    <path clip-path="url(#p085421badb)" d="M 286.392867 147.909725 
L 282.828742 142.584852 
L 286.382084 142.587475 
L 286.4178 142.584586 
L 286.417796 142.587501 
L 289.971138 142.590123 
z
" style="fill:#1f77b4;stroke:#1f77b4;stroke-linejoin:miter;"/>
   </g>
   <g id="patch_4">
    <path clip-path="url(#p085421badb)" d="M 262.913181 211.633352 
L 265.795249 206.083975 
L 268.18571 208.043048 
L 268.210601 208.06215 
L 268.209734 208.062737 
L 270.600195 210.02181 
z
" style="fill:#1f77b4;stroke:#1f77b4;stroke-linejoin:miter;"/>
   </g>
   <g id="patch_5">
    <path clip-path="url(#p085421badb)" d="M 296.833169 159.389522 
L 293.472283 153.991767 
L 297.024108 154.069168 
L 297.059972 154.065691 
L 297.059805 154.069946 
L 300.61163 154.147347 
z
" style="fill:#1f77b4;stroke:#1f77b4;stroke-linejoin:miter;"/>
   </g>
   <g id="patch_6">
    <path clip-path="url(#p085421badb)" d="M 235.330331 225.084397 
L 243.182715 226.166146 
L 241.042315 228.279692 
L 241.021934 228.301569 
L 241.020803 228.300934 
L 238.880404 230.41448 
z
" style="fill:#1f77b4;stroke:#1f77b4;stroke-linejoin:miter;"/>
   </g>
   <g id="patch_7">
    <path clip-path="url(#p085421badb)" d="M 315.381671 78.64734 
L 311.277694 73.542865 
L 314.82075 73.341521 
L 314.855471 73.33083 
L 314.856358 73.339498 
L 318.399414 73.138155 
z
" style="fill:#1f77b4;stroke:#1f77b4;stroke-linejoin:miter;"/>
   </g>
   <g id="patch_8">
    <path clip-path="url(#p085421badb)" d="M 317.796234 175.546525 
L 314.489896 170.130095 
L 318.04084 170.22739 
L 318.07694 170.220033 
L 318.076528 170.228368 
L 321.627473 170.325663 
z
" style="fill:#1f77b4;stroke:#1f77b4;stroke-linejoin:miter;"/>
   </g>
   <g id="patch_9">
    <path clip-path="url(#p085421badb)" d="M 360.905803 90.997423 
L 357.208181 85.723336 
L 360.760964 85.67626 
L 360.796061 85.650278 
L 360.79667 85.675787 
L 364.349453 85.628712 
z
" style="fill:#1f77b4;stroke:#1f77b4;stroke-linejoin:miter;"/>
   </g>
   <g id="patch_10">
    <path clip-path="url(#p085421badb)" d="M 361.637568 141.991345 
L 358.08206 136.663274 
L 361.635396 136.669088 
L 361.671182 136.643866 
L 361.671108 136.669147 
L 365.224443 136.674961 
z
" style="fill:#1f77b4;stroke:#1f77b4;stroke-linejoin:miter;"/>
   </g>
   <g id="patch_11">
    <path clip-path="url(#p085421badb)" d="M 399.859139 36.111371 
L 396.170761 30.833692 
L 399.723623 30.790072 
L 399.758166 30.736996 
L 399.75933 30.789634 
L 403.312192 30.746014 
z
" style="fill:#1f77b4;stroke:#1f77b4;stroke-linejoin:miter;"/>
   </g>
   <g id="patch_12">
    <path clip-path="url(#p085421badb)" d="M 399.802115 78.588193 
L 396.169841 73.288952 
L 399.723055 73.266262 
L 399.758168 73.214059 
L 399.758766 73.266034 
L 403.311979 73.243344 
z
" style="fill:#1f77b4;stroke:#1f77b4;stroke-linejoin:miter;"/>
   </g>
   <g id="patch_13">
    <path clip-path="url(#p085421badb)" d="M 399.755959 112.186861 
L 396.169271 106.870407 
L 399.722606 106.864663 
L 399.758168 106.813155 
L 399.758318 106.864605 
L 403.311654 106.85886 
z
" style="fill:#1f77b4;stroke:#1f77b4;stroke-linejoin:miter;"/>
   </g>
   <g id="patch_14">
    <path clip-path="url(#p085421badb)" d="M 399.714375 141.915106 
L 396.168889 136.583328 
L 399.72221 136.592853 
L 399.758168 136.541961 
L 399.757922 136.592949 
L 403.311243 136.602473 
z
" style="fill:#1f77b4;stroke:#1f77b4;stroke-linejoin:miter;"/>
   </g>
   <g id="patch_15">
    <path clip-path="url(#p085421badb)" d="M 399.394865 192.900989 
L 395.922399 187.542594 
L 399.475406 187.579071 
L 399.512039 187.529449 
L 399.511114 187.579438 
L 403.064121 187.615915 
z
" style="fill:#1f77b4;stroke:#1f77b4;stroke-linejoin:miter;"/>
   </g>
   <g id="patch_16">
    <path clip-path="url(#p085421badb)" d="M 398.965147 221.475282 
L 395.535492 216.101599 
L 399.088145 216.153815 
L 399.125153 216.105116 
L 399.12385 216.15434 
L 402.676503 216.206555 
z
" style="fill:#1f77b4;stroke:#1f77b4;stroke-linejoin:miter;"/>
   </g>
   <g id="patch_17">
    <path clip-path="url(#p085421badb)" d="M 397.583342 270.695814 
L 394.232896 265.294455 
L 397.784568 265.37567 
L 397.822215 265.329091 
L 397.820263 265.376486 
L 401.371935 265.4577 
z
" style="fill:#1f77b4;stroke:#1f77b4;stroke-linejoin:miter;"/>
   </g>
   <g id="patch_18">
    <path clip-path="url(#p085421badb)" d="M 399.627742 202.141997 
L 396.168499 196.778855 
L 399.72141 196.820198 
L 399.758166 196.770564 
L 399.757117 196.820613 
L 403.310028 196.861957 
z
" style="fill:#1f77b4;stroke:#1f77b4;stroke-linejoin:miter;"/>
   </g>
   <g id="patch_19">
    <path clip-path="url(#p085421badb)" d="M 398.501779 252.18905 
L 395.11977 246.798625 
L 398.671883 246.868303 
L 398.709293 246.820598 
L 398.707583 246.869003 
L 402.259696 246.938681 
z
" style="fill:#1f77b4;stroke:#1f77b4;stroke-linejoin:miter;"/>
   </g>
   <g id="patch_20">
    <path clip-path="url(#p085421badb)" d="M 399.572635 239.340479 
L 396.168534 233.957781 
L 399.720917 234.019369 
L 399.758164 233.970516 
L 399.756619 234.019988 
L 403.309002 234.081576 
z
" style="fill:#1f77b4;stroke:#1f77b4;stroke-linejoin:miter;"/>
   </g>
   <g id="patch_21">
    <path clip-path="url(#p085421badb)" d="M 390.053819 282.17195 
L 386.75053 276.754487 
L 390.30142 276.852892 
L 390.339173 276.812494 
L 390.337107 276.853881 
L 393.887996 276.952286 
z
" style="fill:#1f77b4;stroke:#1f77b4;stroke-linejoin:miter;"/>
   </g>
   <g id="patch_22">
    <path clip-path="url(#p085421badb)" d="M 327.637824 282.094257 
L 325.076789 276.458135 
L 328.596758 276.820186 
L 328.633988 276.813819 
L 328.632135 276.823825 
L 332.152104 277.185877 
z
" style="fill:#1f77b4;stroke:#1f77b4;stroke-linejoin:miter;"/>
   </g>
   <g id="patch_23">
    <path clip-path="url(#p085421badb)" d="M 275.483954 279.857406 
L 279.29956 274.630191 
L 281.332175 276.802018 
L 281.354396 276.822914 
L 281.352604 276.823845 
L 283.385219 278.995671 
z
" style="fill:#1f77b4;stroke:#1f77b4;stroke-linejoin:miter;"/>
   </g>
   <g id="patch_24">
    <path clip-path="url(#p085421badb)" d="M 160.581644 150.571781 
L 164.462007 155.772459 
L 160.912067 155.888339 
L 160.876536 155.89199 
L 160.876389 155.889504 
L 157.32645 156.005384 
z
" style="fill:#1f77b4;stroke:#1f77b4;stroke-linejoin:miter;"/>
   </g>
   <g id="patch_25">
    <path clip-path="url(#p085421badb)" d="M 220.768287 100.058048 
L 213.084576 98.437784 
L 215.479038 96.481426 
L 215.502471 96.461335 
L 215.503103 96.461764 
L 217.897565 94.505406 
z
" style="fill:#1f77b4;stroke:#1f77b4;stroke-linejoin:miter;"/>
   </g>
   <g id="patch_26">
    <path clip-path="url(#p085421badb)" d="M 153.733113 181.969934 
L 158.116181 186.94391 
L 154.587288 187.253994 
L 154.552381 187.26065 
L 154.551821 187.257111 
L 151.022928 187.567194 
z
" style="fill:#1f77b4;stroke:#1f77b4;stroke-linejoin:miter;"/>
   </g>
   <g id="patch_27">
    <path clip-path="url(#p085421badb)" d="M 210.315509 76.419474 
L 202.486162 75.248673 
L 204.669541 73.159681 
L 204.690541 73.138138 
L 204.691485 73.138686 
L 206.874864 71.049693 
z
" style="fill:#1f77b4;stroke:#1f77b4;stroke-linejoin:miter;"/>
   </g>
   <g id="patch_28">
    <path clip-path="url(#p085421badb)" d="M 137.20414 122.62085 
L 140.537915 128.027933 
L 136.986503 127.940635 
L 136.95056 127.94541 
L 136.950811 127.939758 
L 133.399398 127.85246 
z
" style="fill:#1f77b4;stroke:#1f77b4;stroke-linejoin:miter;"/>
   </g>
   <g id="patch_29">
    <path clip-path="url(#p085421badb)" d="M 267.534993 114.66034 
L 262.463017 110.064295 
L 265.927145 109.47469 
L 265.96151 109.467296 
L 265.961961 109.468765 
L 269.426089 108.87916 
z
" style="fill:#1f77b4;stroke:#1f77b4;stroke-linejoin:miter;"/>
   </g>
   <g id="patch_30">
    <path clip-path="url(#p085421badb)" d="M 105.647494 172.942535 
L 109.350406 178.21456 
L 105.797672 178.263615 
L 105.762331 178.27878 
L 105.761966 178.264108 
L 102.209232 178.313164 
z
" style="fill:#1f77b4;stroke:#1f77b4;stroke-linejoin:miter;"/>
   </g>
   <g id="patch_31">
    <path clip-path="url(#p085421badb)" d="M 105.356694 129.148337 
L 108.845593 134.500802 
L 105.292483 134.470378 
L 105.256553 134.484385 
L 105.256774 134.470073 
L 101.703664 134.439649 
z
" style="fill:#1f77b4;stroke:#1f77b4;stroke-linejoin:miter;"/>
   </g>
   <g id="patch_32">
    <path clip-path="url(#p085421badb)" d="M 50.455741 226.065798 
L 54.12754 231.349892 
L 50.57455 231.387318 
L 50.539711 231.433524 
L 50.538842 231.387694 
L 46.985853 231.42512 
z
" style="fill:#1f77b4;stroke:#1f77b4;stroke-linejoin:miter;"/>
   </g>
   <g id="patch_33">
    <path clip-path="url(#p085421badb)" d="M 49.476564 134.427454 
L 53.005654 139.765268 
L 49.452372 139.74968 
L 49.416302 139.794835 
L 49.41666 139.749523 
L 45.863378 139.733935 
z
" style="fill:#1f77b4;stroke:#1f77b4;stroke-linejoin:miter;"/>
   </g>
   <g id="patch_34">
    <path clip-path="url(#p085421badb)" d="M 42.53192 228.596085 
L 46.190384 233.885312 
L 42.637307 233.917762 
L 42.602458 233.97037 
L 42.601598 233.918088 
L 39.048521 233.950538 
z
" style="fill:#1f77b4;stroke:#1f77b4;stroke-linejoin:miter;"/>
   </g>
   <g id="patch_35">
    <path clip-path="url(#p085421badb)" d="M 42.582485 191.396488 
L 46.191099 196.704696 
L 42.637804 196.718585 
L 42.602457 196.770426 
L 42.602093 196.718725 
L 39.048798 196.732613 
z
" style="fill:#1f77b4;stroke:#1f77b4;stroke-linejoin:miter;"/>
   </g>
   <g id="patch_36">
    <path clip-path="url(#p085421badb)" d="M 42.750185 108.982414 
L 46.243647 114.333226 
L 42.690512 114.304485 
L 42.654069 114.35457 
L 42.654802 114.304196 
L 39.101668 114.275455 
z
" style="fill:#1f77b4;stroke:#1f77b4;stroke-linejoin:miter;"/>
   </g>
   <g id="patch_37">
    <path clip-path="url(#p085421badb)" d="M 43.559356 58.610414 
L 46.977541 63.988154 
L 43.425004 63.931729 
L 43.387899 63.980145 
L 43.3893 63.931162 
L 39.836763 63.874737 
z
" style="fill:#1f77b4;stroke:#1f77b4;stroke-linejoin:miter;"/>
   </g>
   <g id="patch_38">
    <path clip-path="url(#p085421badb)" d="M 42.666716 131.169021 
L 46.191877 136.508276 
L 42.638607 136.491236 
L 42.602457 136.541828 
L 42.602895 136.491065 
L 39.049625 136.474025 
z
" style="fill:#1f77b4;stroke:#1f77b4;stroke-linejoin:miter;"/>
   </g>
   <g id="patch_39">
    <path clip-path="url(#p085421badb)" d="M 43.17918 80.408023 
L 46.630541 85.773984 
L 43.077693 85.729742 
L 43.040873 85.778905 
L 43.041986 85.729298 
L 39.489138 85.685056 
z
" style="fill:#1f77b4;stroke:#1f77b4;stroke-linejoin:miter;"/>
   </g>
   <g id="patch_40">
    <path clip-path="url(#p085421badb)" d="M 42.709457 101.44105 
L 46.192074 106.795786 
L 42.639002 106.763048 
L 42.602458 106.813019 
L 42.603293 106.762719 
L 39.05022 106.729981 
z
" style="fill:#1f77b4;stroke:#1f77b4;stroke-linejoin:miter;"/>
   </g>
   <g id="patch_41">
    <path clip-path="url(#p085421badb)" d="M 43.619977 51.143493 
L 47.026745 56.525254 
L 43.474332 56.464643 
L 43.437129 56.51286 
L 43.438629 56.464033 
L 39.886216 56.403422 
z
" style="fill:#1f77b4;stroke:#1f77b4;stroke-linejoin:miter;"/>
   </g>
   <g id="patch_42">
    <path clip-path="url(#p085421badb)" d="M 42.758693 67.843136 
L 46.192137 73.215476 
L 42.639448 73.164651 
L 42.60246 73.213918 
L 42.603742 73.16414 
L 39.051053 73.113316 
z
" style="fill:#1f77b4;stroke:#1f77b4;stroke-linejoin:miter;"/>
   </g>
   <g id="patch_43">
    <path clip-path="url(#p085421badb)" d="M 44.119832 18.068923 
L 47.47431 23.468892 
L 43.922577 23.389149 
L 43.884943 23.436295 
L 43.886882 23.388348 
L 40.335149 23.308606 
z
" style="fill:#1f77b4;stroke:#1f77b4;stroke-linejoin:miter;"/>
   </g>
   <g id="patch_44">
    <path clip-path="url(#p085421badb)" d="M 42.822391 25.367949 
L 46.191958 30.762699 
L 42.64001 30.68847 
L 42.602464 30.736842 
L 42.604312 30.687724 
L 39.052365 30.613495 
z
" style="fill:#1f77b4;stroke:#1f77b4;stroke-linejoin:miter;"/>
   </g>
   <g id="patch_45">
    <path clip-path="url(#p085421badb)" d="M 85.931167 5.369097 
L 89.007356 10.860304 
L 85.462272 10.679872 
L 85.424715 10.699093 
L 85.426643 10.678059 
L 81.881559 10.497627 
z
" style="fill:#1f77b4;stroke:#1f77b4;stroke-linejoin:miter;"/>
   </g>
   <g id="patch_46">
    <path clip-path="url(#p085421badb)" d="M 140.837069 5.648575 
L 141.958247 11.540078 
L 138.588407 10.700181 
L 138.552726 10.695779 
L 138.554539 10.69174 
L 135.184699 9.851843 
z
" style="fill:#1f77b4;stroke:#1f77b4;stroke-linejoin:miter;"/>
   </g>
   <g id="patch_47">
    <path clip-path="url(#p085421badb)" d="M 259.102521 70.344014 
L 252.536507 66.957438 
L 255.651957 65.684056 
L 255.68223 65.669848 
L 255.683268 65.671258 
L 258.798718 64.397877 
z
" style="fill:#1f77b4;stroke:#1f77b4;stroke-linejoin:miter;"/>
   </g>
   <g id="patch_48">
    <path clip-path="url(#p085421badb)" d="M 243.155513 195.496902 
L 250.872645 193.967373 
L 250.153876 196.560451 
L 250.14736 196.586622 
L 250.146652 196.586513 
L 249.427883 199.179591 
z
" style="fill:#1f77b4;stroke:#1f77b4;stroke-linejoin:miter;"/>
   </g>
   <g id="patch_49">
    <path clip-path="url(#p085421badb)" d="M 278.178596 84.328834 
L 272.999177 79.799812 
L 276.448889 79.165005 
L 276.48271 79.156061 
L 276.483559 79.158625 
L 279.933271 78.523819 
z
" style="fill:#1f77b4;stroke:#1f77b4;stroke-linejoin:miter;"/>
   </g>
   <g id="patch_50">
    <path clip-path="url(#p085421badb)" d="M 210.176993 185.642148 
L 217.608082 187.820552 
L 214.965782 189.590919 
L 214.939838 189.609219 
L 214.939226 189.608712 
L 212.296926 191.379078 
z
" style="fill:#1f77b4;stroke:#1f77b4;stroke-linejoin:miter;"/>
   </g>
   <g id="matplotlib.axis_1">
    <g id="xtick_1">
     <g id="line2d_1">
      <defs>
       <path d="M 0 0 
L 0 3.5 
" id="m6bff0b0f37" style="stroke:#000000;stroke-width:0.8;"/>
      </defs>
      <g>
       <use style="stroke:#000000;stroke-width:0.8;" x="78.332313" xlink:href="#m6bff0b0f37" y="276.812"/>
      </g>
     </g>
     <g id="text_1">
      <!-- −4 -->
      <defs>
       <path d="M 10.59375 35.5 
L 73.1875 35.5 
L 73.1875 27.203125 
L 10.59375 27.203125 
z
" id="DejaVuSans-2212"/>
       <path d="M 37.796875 64.3125 
L 12.890625 25.390625 
L 37.796875 25.390625 
z
M 35.203125 72.90625 
L 47.609375 72.90625 
L 47.609375 25.390625 
L 58.015625 25.390625 
L 58.015625 17.1875 
L 47.609375 17.1875 
L 47.609375 0 
L 37.796875 0 
L 37.796875 17.1875 
L 4.890625 17.1875 
L 4.890625 26.703125 
z
" id="DejaVuSans-34"/>
      </defs>
      <g transform="translate(70.961219 291.410438)scale(0.1 -0.1)">
       <use xlink:href="#DejaVuSans-2212"/>
       <use x="83.789062" xlink:href="#DejaVuSans-34"/>
      </g>
     </g>
    </g>
    <g id="xtick_2">
     <g id="line2d_2">
      <g>
       <use style="stroke:#000000;stroke-width:0.8;" x="149.756313" xlink:href="#m6bff0b0f37" y="276.812"/>
      </g>
     </g>
     <g id="text_2">
      <!-- −2 -->
      <defs>
       <path d="M 19.1875 8.296875 
L 53.609375 8.296875 
L 53.609375 0 
L 7.328125 0 
L 7.328125 8.296875 
Q 12.9375 14.109375 22.625 23.890625 
Q 32.328125 33.6875 34.8125 36.53125 
Q 39.546875 41.84375 41.421875 45.53125 
Q 43.3125 49.21875 43.3125 52.78125 
Q 43.3125 58.59375 39.234375 62.25 
Q 35.15625 65.921875 28.609375 65.921875 
Q 23.96875 65.921875 18.8125 64.3125 
Q 13.671875 62.703125 7.8125 59.421875 
L 7.8125 69.390625 
Q 13.765625 71.78125 18.9375 73 
Q 24.125 74.21875 28.421875 74.21875 
Q 39.75 74.21875 46.484375 68.546875 
Q 53.21875 62.890625 53.21875 53.421875 
Q 53.21875 48.921875 51.53125 44.890625 
Q 49.859375 40.875 45.40625 35.40625 
Q 44.1875 33.984375 37.640625 27.21875 
Q 31.109375 20.453125 19.1875 8.296875 
" id="DejaVuSans-32"/>
      </defs>
      <g transform="translate(142.385219 291.410438)scale(0.1 -0.1)">
       <use xlink:href="#DejaVuSans-2212"/>
       <use x="83.789062" xlink:href="#DejaVuSans-32"/>
      </g>
     </g>
    </g>
    <g id="xtick_3">
     <g id="line2d_3">
      <g>
       <use style="stroke:#000000;stroke-width:0.8;" x="221.180313" xlink:href="#m6bff0b0f37" y="276.812"/>
      </g>
     </g>
     <g id="text_3">
      <!-- 0 -->
      <defs>
       <path d="M 31.78125 66.40625 
Q 24.171875 66.40625 20.328125 58.90625 
Q 16.5 51.421875 16.5 36.375 
Q 16.5 21.390625 20.328125 13.890625 
Q 24.171875 6.390625 31.78125 6.390625 
Q 39.453125 6.390625 43.28125 13.890625 
Q 47.125 21.390625 47.125 36.375 
Q 47.125 51.421875 43.28125 58.90625 
Q 39.453125 66.40625 31.78125 66.40625 
M 31.78125 74.21875 
Q 44.046875 74.21875 50.515625 64.515625 
Q 56.984375 54.828125 56.984375 36.375 
Q 56.984375 17.96875 50.515625 8.265625 
Q 44.046875 -1.421875 31.78125 -1.421875 
Q 19.53125 -1.421875 13.0625 8.265625 
Q 6.59375 17.96875 6.59375 36.375 
Q 6.59375 54.828125 13.0625 64.515625 
Q 19.53125 74.21875 31.78125 74.21875 
" id="DejaVuSans-30"/>
      </defs>
      <g transform="translate(217.999063 291.410438)scale(0.1 -0.1)">
       <use xlink:href="#DejaVuSans-30"/>
      </g>
     </g>
    </g>
    <g id="xtick_4">
     <g id="line2d_4">
      <g>
       <use style="stroke:#000000;stroke-width:0.8;" x="292.604312" xlink:href="#m6bff0b0f37" y="276.812"/>
      </g>
     </g>
     <g id="text_4">
      <!-- 2 -->
      <g transform="translate(289.423063 291.410438)scale(0.1 -0.1)">
       <use xlink:href="#DejaVuSans-32"/>
      </g>
     </g>
    </g>
    <g id="xtick_5">
     <g id="line2d_5">
      <g>
       <use style="stroke:#000000;stroke-width:0.8;" x="364.028313" xlink:href="#m6bff0b0f37" y="276.812"/>
      </g>
     </g>
     <g id="text_5">
      <!-- 4 -->
      <g transform="translate(360.847063 291.410438)scale(0.1 -0.1)">
       <use xlink:href="#DejaVuSans-34"/>
      </g>
     </g>
    </g>
    <g id="text_6">
     <!-- x1 -->
     <defs>
      <path d="M 54.890625 54.6875 
L 35.109375 28.078125 
L 55.90625 0 
L 45.3125 0 
L 29.390625 21.484375 
L 13.484375 0 
L 2.875 0 
L 24.125 28.609375 
L 4.6875 54.6875 
L 15.28125 54.6875 
L 29.78125 35.203125 
L 44.28125 54.6875 
z
" id="DejaVuSans-78"/>
      <path d="M 12.40625 8.296875 
L 28.515625 8.296875 
L 28.515625 63.921875 
L 10.984375 60.40625 
L 10.984375 69.390625 
L 28.421875 72.90625 
L 38.28125 72.90625 
L 38.28125 8.296875 
L 54.390625 8.296875 
L 54.390625 0 
L 12.40625 0 
z
" id="DejaVuSans-31"/>
     </defs>
     <g transform="translate(215.039688 305.088562)scale(0.1 -0.1)">
      <use xlink:href="#DejaVuSans-78"/>
      <use x="59.179688" xlink:href="#DejaVuSans-31"/>
     </g>
    </g>
   </g>
   <g id="matplotlib.axis_2">
    <g id="ytick_1">
     <g id="line2d_6">
      <defs>
       <path d="M 0 0 
L -3.5 0 
" id="m478d09ea18" style="stroke:#000000;stroke-width:0.8;"/>
      </defs>
      <g>
       <use style="stroke:#000000;stroke-width:0.8;" x="42.620313" xlink:href="#m478d09ea18" y="250.2008"/>
      </g>
     </g>
     <g id="text_7">
      <!-- −4 -->
      <g transform="translate(20.878125 254.000019)scale(0.1 -0.1)">
       <use xlink:href="#DejaVuSans-2212"/>
       <use x="83.789062" xlink:href="#DejaVuSans-34"/>
      </g>
     </g>
    </g>
    <g id="ytick_2">
     <g id="line2d_7">
      <g>
       <use style="stroke:#000000;stroke-width:0.8;" x="42.620313" xlink:href="#m478d09ea18" y="196.9784"/>
      </g>
     </g>
     <g id="text_8">
      <!-- −2 -->
      <g transform="translate(20.878125 200.777619)scale(0.1 -0.1)">
       <use xlink:href="#DejaVuSans-2212"/>
       <use x="83.789062" xlink:href="#DejaVuSans-32"/>
      </g>
     </g>
    </g>
    <g id="ytick_3">
     <g id="line2d_8">
      <g>
       <use style="stroke:#000000;stroke-width:0.8;" x="42.620313" xlink:href="#m478d09ea18" y="143.756"/>
      </g>
     </g>
     <g id="text_9">
      <!-- 0 -->
      <g transform="translate(29.257813 147.555219)scale(0.1 -0.1)">
       <use xlink:href="#DejaVuSans-30"/>
      </g>
     </g>
    </g>
    <g id="ytick_4">
     <g id="line2d_9">
      <g>
       <use style="stroke:#000000;stroke-width:0.8;" x="42.620313" xlink:href="#m478d09ea18" y="90.5336"/>
      </g>
     </g>
     <g id="text_10">
      <!-- 2 -->
      <g transform="translate(29.257813 94.332819)scale(0.1 -0.1)">
       <use xlink:href="#DejaVuSans-32"/>
      </g>
     </g>
    </g>
    <g id="ytick_5">
     <g id="line2d_10">
      <g>
       <use style="stroke:#000000;stroke-width:0.8;" x="42.620313" xlink:href="#m478d09ea18" y="37.3112"/>
      </g>
     </g>
     <g id="text_11">
      <!-- 4 -->
      <g transform="translate(29.257813 41.110419)scale(0.1 -0.1)">
       <use xlink:href="#DejaVuSans-34"/>
      </g>
     </g>
    </g>
    <g id="text_12">
     <!-- x2 -->
     <g transform="translate(14.798438 149.896625)rotate(-90)scale(0.1 -0.1)">
      <use xlink:href="#DejaVuSans-78"/>
      <use x="59.179688" xlink:href="#DejaVuSans-32"/>
     </g>
    </g>
   </g>
   <g id="line2d_11">
    <path clip-path="url(#p085421badb)" d="M 221.180313 10.7 
L 229.885043 17.357784 
L 236.526151 22.732389 
L 241.315996 26.848537 
L 245.937683 31.095687 
L 250.384747 35.53376 
L 254.648255 40.225596 
L 257.383044 43.525283 
L 260.027192 46.982807 
L 262.576247 50.614117 
L 265.02535 54.433297 
L 267.36929 58.452022 
L 269.602586 62.679067 
L 271.719567 67.119905 
L 273.714462 71.776365 
L 275.581505 76.646356 
L 277.315038 81.723651 
L 278.909627 86.997738 
L 280.360178 92.4538 
L 281.662053 98.072819 
L 282.811179 103.831797 
L 283.804151 109.704099 
L 284.63832 115.659892 
L 285.311876 121.6667 
L 285.823909 127.690036 
L 286.174453 133.694103 
L 286.364513 139.642542 
L 286.39607 145.499193 
L 286.272064 151.228833 
L 285.996357 156.797885 
L 285.573686 162.175057 
L 285.00959 167.331908 
L 284.310328 172.243302 
L 283.482784 176.887757 
L 282.534367 181.247687 
L 281.472907 185.309513 
L 280.306541 189.063665 
L 279.043612 192.504498 
L 277.692562 195.630098 
L 276.261838 198.442034 
L 274.759803 200.945035 
L 273.194652 203.146633 
L 271.574345 205.056784 
L 269.90655 206.68747 
L 268.198589 208.052305 
L 266.457399 209.166149 
L 264.689507 210.044753 
L 262.901008 210.704427 
L 261.097557 211.161737 
L 259.284362 211.433246 
L 257.46619 211.535284 
L 254.738965 211.405216 
L 252.023072 210.980575 
L 249.329402 210.308661 
L 246.667032 209.432422 
L 243.178541 208.01178 
L 239.772471 206.37323 
L 235.645623 204.113935 
L 230.901358 201.214661 
L 225.667781 197.70869 
L 220.765977 194.162068 
L 216.197557 190.613536 
L 211.962499 187.061719 
L 208.062117 183.482524 
L 204.98836 180.367833 
L 202.167889 177.18848 
L 199.606563 173.928945 
L 197.675 171.14548 
L 195.932267 168.301197 
L 194.382288 165.401627 
L 193.028442 162.457438 
L 191.873226 159.484206 
L 190.917943 156.501861 
L 190.035175 152.944243 
L 189.436531 149.452478 
L 189.114807 146.07382 
L 189.059011 142.854627 
L 189.254546 139.837452 
L 189.683646 137.058649 
L 190.325916 134.546557 
L 191.159041 132.320497 
L 191.98217 130.691463 
L 192.907661 129.269286 
L 193.921708 128.051161 
L 195.236479 126.849843 
L 196.637031 125.917403 
L 198.102503 125.233709 
L 199.613772 124.775891 
L 201.153621 124.519693 
L 202.966004 124.442969 
L 205.033016 124.602333 
L 207.322633 125.034955 
L 209.789068 125.755031 
L 212.374775 126.754518 
L 215.013543 128.007727 
L 217.824764 129.59424 
L 220.498179 131.362523 
L 222.955103 133.262668 
L 225.006594 135.132871 
L 226.662698 136.940612 
L 227.939803 138.658706 
L 228.85988 140.262108 
L 229.450079 141.727736 
L 229.742175 143.035877 
L 229.771658 144.171921 
L 229.576484 145.127658 
L 229.195633 145.901764 
L 228.630626 146.531135 
L 227.900248 146.994936 
L 227.033691 147.281828 
L 225.971111 147.392356 
L 224.762733 147.287678 
L 223.448726 146.944907 
L 222.157175 146.377728 
L 221.034983 145.647857 
L 220.230157 144.874434 
L 219.802666 144.18076 
L 219.717753 143.664337 
L 219.870059 143.338122 
L 220.187404 143.176387 
L 220.661453 143.19196 
L 221.176707 143.426424 
L 221.419412 143.743565 
L 221.325154 143.852988 
L 221.317323 143.853454 
L 221.141251 143.756734 
L 221.143189 143.747863 
L 221.176841 143.745051 
L 221.180313 143.756 
" style="fill:none;stroke:#1f77b4;stroke-linecap:square;stroke-width:0.5;"/>
   </g>
   <g id="line2d_12">
    <path clip-path="url(#p085421badb)" d="M 260.484341 10.7 
L 263.996388 15.146005 
L 267.385355 19.88391 
L 270.64287 24.946281 
L 273.759806 30.360985 
L 276.726451 36.151181 
L 279.532486 42.33286 
L 282.167255 48.914118 
L 284.620031 55.894696 
L 286.880196 63.265147 
L 288.937499 71.006244 
L 290.782353 79.088764 
L 292.406104 87.473731 
L 293.801275 96.113067 
L 294.961778 104.950517 
L 295.883126 113.922866 
L 296.562606 122.961472 
L 296.999405 131.994059 
L 297.194678 140.946685 
L 297.151562 149.745758 
L 296.875143 158.320019 
L 296.372366 166.602365 
L 295.651902 174.531538 
L 294.723975 182.053501 
L 293.600148 189.122489 
L 292.293093 195.701708 
L 290.816345 201.763685 
L 289.184051 207.290282 
L 287.410721 212.272391 
L 285.510997 216.709385 
L 283.499431 220.608337 
L 281.39029 223.983107 
L 279.197391 226.853321 
L 276.933958 229.243324 
L 274.612514 231.181128 
L 272.244789 232.697401 
L 269.841665 233.824522 
L 267.41314 234.595746 
L 264.968317 235.044462 
L 262.51541 235.203568 
L 260.061761 235.104954 
L 257.613874 234.779089 
L 255.177459 234.254716 
L 252.757479 233.558629 
L 249.167496 232.245974 
L 245.635765 230.67622 
L 242.171328 228.912552 
L 237.66808 226.34873 
L 232.239746 222.934691 
L 227.044866 219.407076 
L 221.125658 215.127487 
L 215.55135 210.842973 
L 210.322393 206.543967 
L 206.230703 202.916503 
L 202.384916 199.207349 
L 199.489868 196.153408 
L 196.761323 193.000715 
L 194.205054 189.732137 
L 191.82765 186.334828 
L 189.636247 182.801406 
L 187.638209 179.130852 
L 185.840771 175.329123 
L 184.250653 171.409403 
L 182.873674 167.391981 
L 181.714384 163.303724 
L 180.775735 159.177212 
L 180.058803 155.049496 
L 179.562587 150.960622 
L 179.283893 146.951973 
L 179.217309 143.064566 
L 179.355265 139.337392 
L 179.688191 135.805926 
L 180.204731 132.500895 
L 180.892033 129.447354 
L 181.736061 126.664121 
L 182.721944 124.16357 
L 183.83432 121.951731 
L 185.057663 120.028694 
L 186.376589 118.389223 
L 187.77612 117.023522 
L 189.241909 115.918076 
L 190.760412 115.056538 
L 192.319022 114.420571 
L 193.906151 113.990635 
L 195.91424 113.712394 
L 197.932341 113.685875 
L 199.944825 113.873775 
L 202.333959 114.333596 
L 205.06255 115.125837 
L 207.706501 116.12466 
L 210.603554 117.443937 
L 214.014169 119.262798 
L 217.474489 121.381012 
L 220.887583 123.746982 
L 223.918716 126.118361 
L 226.569474 128.467758 
L 228.844708 130.780107 
L 230.751369 133.043025 
L 232.298562 135.241658 
L 233.498133 137.356797 
L 234.365335 139.365349 
L 234.919333 141.242327 
L 235.183298 142.963549 
L 235.184049 144.508218 
L 234.951332 145.86104 
L 234.516826 147.013447 
L 233.913014 147.963919 
L 233.172102 148.717505 
L 232.250554 149.324031 
L 231.160595 149.754272 
L 229.925834 149.989642 
L 228.495991 150.01932 
L 226.920315 149.81568 
L 225.270156 149.375854 
L 223.56657 148.689707 
L 221.939416 147.789266 
L 220.567006 146.775242 
L 219.557419 145.764922 
L 218.920539 144.832275 
L 218.63977 144.058525 
L 218.643641 143.465691 
L 218.855954 143.055191 
L 219.241686 142.79718 
L 219.789709 142.706518 
L 220.479064 142.824766 
L 221.15214 143.161605 
L 221.553163 143.585983 
L 221.568297 143.861303 
L 221.378972 143.925736 
L 221.122693 143.789499 
L 221.124302 143.73253 
L 221.18965 143.750444 
L 221.18965 143.750444 
L 221.189483 143.759804 
L 221.178775 143.756881 
L 221.178775 143.756881 
L 221.178828 143.755374 
L 221.180558 143.755847 
L 221.180558 143.755847 
L 221.180557 143.756101 
L 221.180271 143.756022 
L 221.180271 143.756022 
L 221.180273 143.755983 
L 221.180319 143.755995 
L 221.180319 143.755995 
L 221.180319 143.756003 
L 221.180311 143.756 
L 221.180311 143.756 
L 221.180312 143.756 
L 221.180313 143.756 
L 221.180313 143.756 
L 221.180313 143.756 
L 221.180313 143.756 
" style="fill:none;stroke:#1f77b4;stroke-linecap:square;stroke-width:0.5;"/>
   </g>
   <g id="line2d_13">
    <path clip-path="url(#p085421badb)" d="M 303.790965 10.7 
L 305.529626 17.718644 
L 307.17241 24.994197 
L 308.715913 32.517267 
L 310.156925 40.275739 
L 311.492329 48.2547 
L 312.719283 56.43692 
L 313.835175 64.803127 
L 314.837667 73.331842 
L 315.724738 81.999467 
L 316.494697 90.780635 
L 317.146203 99.648511 
L 317.678277 108.575025 
L 318.090326 117.531137 
L 318.382151 126.487141 
L 318.553956 135.412982 
L 318.606347 144.27856 
L 318.540333 153.054118 
L 318.35732 161.710527 
L 318.059096 170.219544 
L 317.647822 178.554134 
L 317.126014 186.688737 
L 316.496515 194.599498 
L 315.76248 202.264448 
L 314.927344 209.663687 
L 313.994796 216.779529 
L 312.968744 223.596594 
L 311.853285 230.101858 
L 310.652679 236.284752 
L 309.371308 242.137044 
L 308.013653 247.65285 
L 306.584256 252.828602 
L 305.087693 257.662871 
L 303.528542 262.156304 
L 301.911363 266.311515 
L 300.240666 270.132895 
L 298.520894 273.626473 
L 296.756397 276.799761 
L 294.951416 279.661553 
" style="fill:none;stroke:#1f77b4;stroke-linecap:square;stroke-width:0.5;"/>
   </g>
   <g id="line2d_14">
    <path clip-path="url(#p085421badb)" d="M 356.918096 10.7 
L 358.539411 35.253482 
L 359.827958 60.291228 
L 360.778208 85.650514 
L 361.386949 111.160116 
L 361.653326 136.643837 
L 361.57883 161.923956 
L 361.167413 186.825221 
L 360.425311 211.178654 
L 359.36096 234.824951 
L 357.984849 257.617442 
L 356.309342 279.424824 
" style="fill:none;stroke:#1f77b4;stroke-linecap:square;stroke-width:0.5;"/>
   </g>
   <g id="line2d_15">
    <path clip-path="url(#p085421badb)" d="M 399.740313 30.737215 
L 400.90418 83.375307 
" style="fill:none;stroke:#1f77b4;stroke-linecap:square;stroke-width:0.5;"/>
   </g>
   <g id="line2d_16">
    <path clip-path="url(#p085421badb)" d="M 399.740313 73.214173 
L 400.338034 125.188747 
" style="fill:none;stroke:#1f77b4;stroke-linecap:square;stroke-width:0.5;"/>
   </g>
   <g id="line2d_17">
    <path clip-path="url(#p085421badb)" d="M 399.740313 106.813183 
L 399.890117 158.263487 
" style="fill:none;stroke:#1f77b4;stroke-linecap:square;stroke-width:0.5;"/>
   </g>
   <g id="line2d_18">
    <path clip-path="url(#p085421badb)" d="M 399.740313 136.541913 
L 399.494184 187.529266 
L 398.569928 237.517803 
L 396.984587 285.966842 
" style="fill:none;stroke:#1f77b4;stroke-linecap:square;stroke-width:0.5;"/>
   </g>
   <g id="line2d_19">
    <path clip-path="url(#p085421badb)" d="M 399.740313 165.569424 
L 399.1073 216.104853 
L 397.804367 265.328683 
L 395.852603 312.723124 
" style="fill:none;stroke:#1f77b4;stroke-linecap:square;stroke-width:0.5;"/>
   </g>
   <g id="line2d_20">
    <path clip-path="url(#p085421badb)" d="M 399.740313 196.770356 
L 398.691443 246.820247 
L 396.981429 295.225477 
" style="fill:none;stroke:#1f77b4;stroke-linecap:square;stroke-width:0.5;"/>
   </g>
   <g id="line2d_21">
    <path clip-path="url(#p085421badb)" d="M 399.740313 233.970206 
L 398.195637 283.442191 
" style="fill:none;stroke:#1f77b4;stroke-linecap:square;stroke-width:0.5;"/>
   </g>
   <g id="line2d_22">
    <path clip-path="url(#p085421badb)" d="M 390.321329 276.812 
L 388.397025 315.36825 
" style="fill:none;stroke:#1f77b4;stroke-linecap:square;stroke-width:0.5;"/>
   </g>
   <g id="line2d_23">
    <path clip-path="url(#p085421badb)" d="M 328.6163 276.812 
L 326.762837 286.817826 
" style="fill:none;stroke:#1f77b4;stroke-linecap:square;stroke-width:0.5;"/>
   </g>
   <g id="line2d_24">
    <path clip-path="url(#p085421badb)" d="M 281.344181 276.812 
L 279.552139 277.743277 
" style="fill:none;stroke:#1f77b4;stroke-linecap:square;stroke-width:0.5;"/>
   </g>
   <g id="line2d_25">
    <path clip-path="url(#p085421badb)" d="M 240.599883 276.812 
L 235.311902 273.373325 
L 228.480432 268.648488 
L 220.300491 262.675078 
L 212.521724 256.691701 
L 206.588624 251.864451 
L 200.917212 246.926984 
L 196.840233 243.09553 
L 192.920566 239.104834 
L 189.165537 234.909218 
L 185.58429 230.464606 
L 183.298631 227.343253 
L 181.09859 224.083091 
L 178.988013 220.675474 
L 176.970952 217.113683 
L 175.051611 213.393203 
L 173.234283 209.511964 
L 171.523279 205.47054 
L 169.922863 201.272302 
L 168.437166 196.923516 
L 167.070112 192.43338 
L 165.825339 187.813991 
L 164.70612 183.080244 
L 163.268784 175.804186 
L 162.127619 168.379649 
L 161.287053 160.885021 
L 160.748213 153.405169 
L 160.508741 146.027985 
L 160.562737 138.840758 
L 160.900859 131.926622 
L 161.510558 125.361347 
L 162.376429 119.210647 
L 163.480656 113.528189 
L 164.803529 108.354379 
L 165.796553 105.201491 
L 166.870949 102.291363 
L 168.020169 99.625987 
L 169.237644 97.204948 
L 170.516848 95.025615 
L 171.851351 93.083359 
L 173.234873 91.371788 
L 174.661323 89.882995 
L 176.124844 88.607812 
L 177.619835 87.536059 
L 179.140983 86.656782 
L 180.683276 85.958476 
L 182.242016 85.429292 
L 184.601471 84.926358 
L 186.974737 84.736621 
L 189.349997 84.820838 
L 191.716984 85.141669 
L 194.06688 85.66426 
L 197.160761 86.620071 
L 200.19675 87.810896 
L 203.893785 89.543781 
L 207.467788 91.464903 
L 211.580108 93.923283 
L 216.122118 96.900462 
L 220.967341 100.353353 
L 225.441368 103.811056 
L 229.544402 107.266438 
L 232.829841 110.301455 
L 235.828931 113.365462 
L 238.538172 116.474716 
L 240.626071 119.183814 
L 242.494125 121.935087 
L 244.139077 124.724039 
L 245.558279 127.54016 
L 246.750161 130.36716 
L 247.714677 133.183675 
L 248.453669 135.9644 
L 248.971126 138.681488 
L 249.273334 141.306138 
L 249.368879 143.810209 
L 249.268537 146.167739 
L 248.985036 148.356204 
L 248.532752 150.357507 
L 247.927315 152.158574 
L 247.185198 153.751593 
L 246.323294 155.1339 
L 245.358517 156.307586 
L 244.307437 157.278901 
L 242.993301 158.169351 
L 241.607076 158.817276 
L 240.170503 159.245498 
L 238.491958 159.497212 
L 236.798427 159.530616 
L 234.901939 159.351132 
L 232.834717 158.935872 
L 230.445671 158.211713 
L 228.006763 157.23278 
L 225.421325 155.945564 
L 222.960953 154.472379 
L 220.699155 152.865564 
L 218.703565 151.174808 
L 217.110608 149.538305 
L 215.902869 147.990595 
L 215.055309 146.560621 
L 214.536467 145.272559 
L 214.309692 144.14501 
L 214.334632 143.189822 
L 214.568965 142.411444 
L 214.970179 141.807082 
L 215.52941 141.347793 
L 216.256806 141.033864 
L 217.162391 140.889408 
L 218.234583 140.951724 
L 219.383426 141.240925 
L 220.538655 141.762096 
L 221.496254 142.43385 
L 222.10797 143.120255 
L 222.330835 143.669052 
L 222.261905 144.024308 
L 222.012986 144.199468 
L 221.60944 144.204604 
L 221.154688 143.993458 
L 220.997423 143.724388 
L 221.132269 143.689 
L 221.210312 143.760675 
L 221.180312 143.756 
" style="fill:none;stroke:#1f77b4;stroke-linecap:square;stroke-width:0.5;"/>
   </g>
   <g id="line2d_26">
    <path clip-path="url(#p085421badb)" d="M 201.760742 276.812 
L 196.498032 272.110445 
L 191.428758 267.188475 
L 188.161814 263.742399 
L 184.989472 260.134249 
L 181.91644 256.338538 
L 178.948065 252.330994 
L 176.090347 248.089435 
L 173.349824 243.594397 
L 170.733526 238.83002 
L 168.248845 233.784652 
L 165.903423 228.451509 
L 163.705018 222.829081 
L 161.661347 216.922237 
L 159.779912 210.741782 
L 158.067852 204.304717 
L 156.531748 197.634656 
L 155.17747 190.761249 
L 154.010013 183.719716 
L 153.033364 176.550304 
L 152.250364 169.297455 
L 151.662621 162.00887 
L 151.270426 154.734353 
L 151.072723 147.524739 
L 151.067088 140.430578 
L 151.249758 133.501007 
L 151.615683 126.782647 
L 152.158605 120.318604 
L 152.871171 114.147579 
L 153.745053 108.303191 
L 154.771093 102.813463 
L 155.939463 97.700539 
L 157.239819 92.980583 
L 158.661463 88.663845 
L 160.193499 84.754879 
L 161.824981 81.252931 
L 163.54505 78.152411 
L 165.343055 75.443454 
L 167.208659 73.112518 
L 169.131932 71.143019 
L 171.103419 69.51595 
L 173.114209 68.210477 
L 175.155969 67.204522 
L 177.220967 66.475288 
L 179.302083 65.99971 
L 181.392819 65.754865 
L 183.487282 65.718307 
L 185.580176 65.868327 
L 187.666773 66.184194 
L 190.775846 66.926448 
L 193.849438 67.93739 
L 196.877837 69.163215 
L 200.83237 71.052068 
L 204.679569 73.148635 
L 209.324044 75.953988 
L 214.642815 79.46318 
L 220.487124 83.626548 
L 225.939665 87.798799 
L 231.000101 91.978515 
L 235.02386 95.597027 
L 238.152693 98.665628 
L 241.073334 101.806342 
L 243.780256 105.038794 
L 246.266773 108.377698 
L 248.525445 111.831026 
L 250.548546 115.398448 
L 252.32867 119.070603 
L 253.859365 122.829046 
L 255.135713 126.646662 
L 256.154867 130.488756 
L 256.916513 134.314789 
L 257.423203 138.080485 
L 257.680517 141.740196 
L 257.697078 145.249325 
L 257.484402 148.566616 
L 257.056597 151.656078 
L 256.429971 154.488481 
L 255.622542 157.042296 
L 254.653498 159.304062 
L 253.542666 161.268237 
L 252.309992 162.936611 
L 250.975082 164.317377 
L 249.556812 165.424006 
L 248.073004 166.274042 
L 246.540203 166.887858 
L 244.973528 167.287529 
L 243.067851 167.516546 
L 241.153514 167.509019 
L 238.932401 167.250765 
L 236.746158 166.775091 
L 234.313373 166.025653 
L 231.684488 164.990105 
L 228.655023 163.539653 
L 225.606111 161.821079 
L 222.622873 159.883127 
L 219.791203 157.772416 
L 217.354987 155.678892 
L 215.308293 153.629708 
L 213.640749 151.646222 
L 212.338061 149.74932 
L 211.381908 147.961072 
L 210.749751 146.304064 
L 210.414908 144.799409 
L 210.347038 143.464597 
L 210.513003 142.311666 
L 210.87801 141.346193 
L 211.406831 140.56716 
L 212.11609 139.931321 
L 212.991255 139.463432 
L 214.006926 139.178597 
L 215.191015 139.080951 
L 216.558843 139.201733 
L 218.031552 139.564057 
L 219.500298 140.154934 
L 220.840469 140.926092 
L 221.931582 141.799721 
L 222.665321 142.656219 
L 223.021939 143.390526 
L 223.059114 143.939535 
L 222.871387 144.29775 
L 222.52032 144.491712 
L 222.007658 144.514484 
L 221.401626 144.317268 
L 220.950802 143.954367 
L 220.891584 143.682428 
L 221.06063 143.634875 
L 221.230369 143.760858 
L 221.180313 143.756 
" style="fill:none;stroke:#1f77b4;stroke-linecap:square;stroke-width:0.5;"/>
   </g>
   <g id="line2d_27">
    <path clip-path="url(#p085421badb)" d="M 161.016444 276.812 
L 157.546982 269.139819 
L 154.291423 260.861962 
L 151.266266 251.971026 
L 148.487884 242.47545 
L 145.972203 232.401259 
L 143.734205 221.79243 
L 141.787454 210.71031 
L 140.143643 199.232869 
L 138.812168 187.452969 
L 137.799759 175.475869 
L 137.110189 163.41606 
L 136.744074 151.39364 
L 136.698776 139.53044 
L 136.968407 127.945849 
L 137.543952 116.753133 
L 138.413485 106.055918 
L 139.562442 95.945443 
L 140.974009 86.498131 
L 142.62955 77.774055 
L 144.509037 69.816499 
L 146.591504 62.651964 
L 148.855487 56.290794 
L 151.279453 50.728432 
L 152.544774 48.241732 
L 153.842172 45.947186 
L 155.169096 43.840846 
L 156.523048 41.91821 
L 157.901599 40.174264 
L 159.302383 38.603556 
L 160.723117 37.200257 
L 162.161592 35.958229 
L 163.615691 34.871084 
L 165.083374 33.932237 
L 166.562699 33.134978 
L 168.05181 32.47249 
L 169.548947 31.937942 
L 171.052435 31.524477 
L 174.072248 31.033695 
L 177.099696 30.946841 
L 180.12463 31.212769 
L 183.138237 31.783219 
L 186.132954 32.613335 
L 189.102371 33.662001 
L 192.04113 34.892028 
L 196.382365 37.005559 
L 200.633418 39.357802 
L 206.147775 42.735471 
L 211.476158 46.268634 
L 217.86664 50.774153 
L 225.13481 56.20631 
L 230.857319 60.741872 
L 236.27412 65.328436 
L 240.383783 69.082293 
L 244.288856 72.95891 
L 247.98152 77.003881 
L 250.605562 80.174068 
L 253.099308 83.479001 
L 255.457065 86.931593 
L 257.672688 90.541088 
L 259.739744 94.31242 
L 261.651696 98.245693 
L 263.40211 102.335808 
L 264.984865 106.572272 
L 266.394372 110.939206 
L 267.625785 115.415556 
L 268.675202 119.975524 
L 269.539847 124.589201 
L 270.218217 129.223381 
L 270.710196 133.842521 
L 271.017128 138.40981 
L 271.141846 142.888276 
L 271.088661 147.241903 
L 270.863292 151.436675 
L 270.472767 155.441498 
L 269.925297 159.228989 
L 269.230115 162.776074 
L 268.397283 166.064389 
L 267.437508 169.080477 
L 266.361938 171.81579 
L 265.181968 174.266521 
L 263.909058 176.433285 
L 262.55456 178.320694 
L 261.129569 179.936837 
L 259.644796 181.292722 
L 258.110456 182.401706 
L 256.536188 183.278924 
L 254.930997 183.940749 
L 253.303209 184.404288 
L 251.660456 184.68694 
L 249.458727 184.812313 
L 247.257178 184.686718 
L 245.068257 184.347787 
L 242.3657 183.676647 
L 239.715839 182.786417 
L 236.62353 181.500975 
L 233.156635 179.792165 
L 229.40061 177.668472 
L 225.455006 175.166574 
L 221.429481 172.334866 
L 217.784643 169.498449 
L 214.519604 166.675901 
L 211.632253 163.86943 
L 209.354872 161.355963 
L 207.380305 158.855739 
L 205.706589 156.375824 
L 204.330522 153.929777 
L 203.246881 151.537246 
L 202.447768 149.222607 
L 201.922156 147.012899 
L 201.655714 144.935438 
L 201.63091 143.015466 
L 201.827397 141.27415 
L 202.222592 139.727135 
L 202.792399 138.383754 
L 203.511993 137.246914 
L 204.356552 136.313525 
L 205.301947 135.575358 
L 206.442884 134.969133 
L 207.651167 134.567915 
L 209.02716 134.335622 
L 210.550155 134.295647 
L 212.313802 134.478695 
L 214.262153 134.920736 
L 216.314525 135.628706 
L 218.370904 136.581842 
L 220.320192 137.736783 
L 221.986328 138.979168 
L 223.319619 140.242984 
L 224.289789 141.46544 
L 224.872322 142.547602 
L 225.119668 143.459923 
L 225.091691 144.187583 
L 224.850914 144.729304 
L 224.44026 145.106395 
L 223.865237 145.32858 
L 223.130012 145.372039 
L 222.259359 145.195959 
L 221.403419 144.797033 
L 220.777753 144.274941 
L 220.533805 143.81847 
L 220.606641 143.563308 
L 220.852793 143.491558 
L 221.195407 143.622789 
L 221.277705 143.78336 
L 221.236467 143.799227 
L 221.162996 143.755693 
L 221.180313 143.756 
" style="fill:none;stroke:#1f77b4;stroke-linecap:square;stroke-width:0.5;"/>
   </g>
   <g id="line2d_28">
    <path clip-path="url(#p085421badb)" d="M 113.744325 276.812 
L 112.047016 263.607031 
L 110.529408 250.021153 
L 109.196373 236.103442 
L 108.052027 221.908965 
L 107.099696 207.497191 
L 106.341875 192.931558 
L 105.780184 178.278534 
L 105.415338 163.606635 
L 105.247126 148.98544 
L 105.274408 134.484538 
L 105.495106 120.172513 
L 105.906232 106.115914 
L 106.50393 92.378318 
L 107.283509 79.019434 
L 108.239511 66.09441 
L 109.365775 53.653104 
L 110.65551 41.739606 
L 112.101364 30.391879 
L 113.695522 19.641453 
L 115.429796 9.513287 
" style="fill:none;stroke:#1f77b4;stroke-linecap:square;stroke-width:0.5;"/>
   </g>
   <g id="line2d_29">
    <path clip-path="url(#p085421badb)" d="M 52.039296 276.812 
L 50.557566 231.433336 
L 49.688155 185.60371 
L 49.434158 139.794913 
L 49.792152 94.483093 
L 50.752261 50.133674 
L 52.2986 7.186995 
" style="fill:none;stroke:#1f77b4;stroke-linecap:square;stroke-width:0.5;"/>
   </g>
   <g id="line2d_30">
    <path clip-path="url(#p085421badb)" d="M 42.620313 233.970206 
L 41.760391 181.688572 
" style="fill:none;stroke:#1f77b4;stroke-linecap:square;stroke-width:0.5;"/>
   </g>
   <g id="line2d_31">
    <path clip-path="url(#p085421badb)" d="M 42.620313 196.770356 
L 42.256377 145.069372 
" style="fill:none;stroke:#1f77b4;stroke-linecap:square;stroke-width:0.5;"/>
   </g>
   <g id="line2d_32">
    <path clip-path="url(#p085421badb)" d="M 42.620313 165.569424 
L 42.671924 114.354715 
L 43.405751 63.980428 
L 44.80686 14.997843 
L 45.50217 -1 
" style="fill:none;stroke:#1f77b4;stroke-linecap:square;stroke-width:0.5;"/>
   </g>
   <g id="line2d_33">
    <path clip-path="url(#p085421badb)" d="M 42.620313 136.541913 
L 43.058727 85.779128 
L 44.171238 36.171249 
L 45.542205 -1 
" style="fill:none;stroke:#1f77b4;stroke-linecap:square;stroke-width:0.5;"/>
   </g>
   <g id="line2d_34">
    <path clip-path="url(#p085421badb)" d="M 42.620313 106.813183 
L 43.45498 56.513165 
L 44.9553 7.686704 
" style="fill:none;stroke:#1f77b4;stroke-linecap:square;stroke-width:0.5;"/>
   </g>
   <g id="line2d_35">
    <path clip-path="url(#p085421badb)" d="M 42.620313 73.214173 
L 43.902791 23.436696 
L 44.89087 -1 
" style="fill:none;stroke:#1f77b4;stroke-linecap:square;stroke-width:0.5;"/>
   </g>
   <g id="line2d_36">
    <path clip-path="url(#p085421badb)" d="M 42.620313 30.737215 
L 43.81478 -1 
" style="fill:none;stroke:#1f77b4;stroke-linecap:square;stroke-width:0.5;"/>
   </g>
   <g id="line2d_37">
    <path clip-path="url(#p085421badb)" d="M 85.442529 10.7 
L 86.514968 -1 
" style="fill:none;stroke:#1f77b4;stroke-linecap:square;stroke-width:0.5;"/>
   </g>
   <g id="line2d_38">
    <path clip-path="url(#p085421badb)" d="M 138.56966 10.7 
L 140.382728 6.660775 
" style="fill:none;stroke:#1f77b4;stroke-linecap:square;stroke-width:0.5;"/>
   </g>
   <g id="line2d_39">
    <path clip-path="url(#p085421badb)" d="M 181.876284 10.7 
L 185.43249 11.862653 
L 188.953877 13.290466 
L 192.433992 14.931507 
L 197.565892 17.694955 
L 202.58108 20.710324 
L 209.072961 24.958955 
L 215.332979 29.328623 
L 222.826376 34.833821 
L 229.95015 40.346697 
L 235.382022 44.793773 
L 240.572978 49.333918 
L 244.304086 52.844592 
L 247.891374 56.484436 
L 251.328928 60.288951 
L 254.60943 64.292207 
L 257.724244 68.525108 
L 260.663574 73.013573 
L 263.416719 77.776633 
L 265.972382 82.824932 
L 268.319021 88.159624 
L 270.445257 93.771474 
L 272.3403 99.640324 
L 273.994394 105.735058 
L 275.399246 112.01417 
L 276.548426 118.426863 
L 277.437713 124.914639 
L 278.065361 131.413318 
L 278.432281 137.855404 
L 278.542131 144.172621 
L 278.401293 150.298479 
L 278.018738 156.170682 
L 277.405825 161.733237 
L 276.57602 166.938184 
L 275.544529 171.746818 
L 274.32792 176.130407 
L 272.943713 180.070364 
L 271.409978 183.557982 
L 269.744944 186.593741 
L 267.966655 189.186326 
L 266.092659 191.35143 
L 264.139755 193.110438 
L 262.123787 194.489105 
L 260.059491 195.516263 
L 257.960403 196.222617 
L 255.838804 196.639672 
L 253.705709 196.798846 
L 251.570881 196.73075 
L 249.442876 196.464606 
L 246.628809 195.848748 
L 243.854611 194.98836 
L 241.131985 193.935263 
L 237.814909 192.414857 
L 233.977526 190.382698 
L 229.715851 187.839404 
L 225.144379 184.82306 
L 220.899279 181.768918 
L 216.515732 178.332119 
L 212.967388 175.282189 
L 209.74668 172.226208 
L 206.85505 169.149406 
L 204.597076 166.431035 
L 202.595741 163.685525 
L 200.85346 160.917034 
L 199.371919 158.136828 
L 198.151415 155.363043 
L 197.190256 152.619735 
L 196.484271 149.935326 
L 196.026489 147.340641 
L 195.807015 144.866784 
L 195.813097 142.543054 
L 196.029394 140.395117 
L 196.438383 138.443601 
L 197.020871 136.703161 
L 197.756586 135.182141 
L 198.624772 133.882699 
L 199.604737 132.801334 
L 200.676349 131.929725 
L 201.820451 131.255731 
L 203.193883 130.708216 
L 204.614386 130.374328 
L 206.242028 130.221449 
L 208.056572 130.285006 
L 210.025677 130.584134 
L 212.106171 131.120901 
L 214.405245 131.946654 
L 216.823667 133.062491 
L 219.11655 134.362085 
L 221.319866 135.871918 
L 223.137335 137.379539 
L 224.64127 138.912949 
L 225.745663 140.350606 
L 226.480818 141.659483 
L 226.884888 142.814143 
L 227.001771 143.79733 
L 226.878822 144.600629 
L 226.564464 145.224373 
L 226.080064 145.695014 
L 225.427459 146.013431 
L 224.608207 146.160336 
L 223.64407 146.106914 
L 222.569449 145.822231 
L 221.540502 145.322168 
L 220.734641 144.69428 
L 220.296651 144.096691 
L 220.219779 143.664727 
L 220.379339 143.429967 
L 220.696899 143.362795 
L 221.122954 143.501414 
L 221.33778 143.766024 
L 221.250365 143.819263 
L 221.219744 143.811856 
L 221.155178 143.752067 
L 221.180313 143.756 
" style="fill:none;stroke:#1f77b4;stroke-linecap:square;stroke-width:0.5;"/>
   </g>
   <g id="line2d_40">
    <path clip-path="url(#p085421badb)" d="M 221.180312 10.7 
L 228.17984 16.024227 
L 234.892948 21.379983 
L 239.737817 25.46464 
L 244.416163 29.661702 
L 248.92228 34.029267 
L 253.2481 38.629516 
L 256.026682 41.85669 
L 258.716688 45.23318 
L 261.313876 48.775732 
L 263.813583 52.499407 
L 266.210772 56.417093 
L 268.500105 60.538968 
L 270.675994 64.872253 
L 272.73269 69.420761 
L 274.66439 74.184498 
L 276.465374 79.159251 
L 278.130098 84.336561 
L 279.653288 89.703744 
L 281.03006 95.243901 
L 282.256043 100.936019 
L 283.327482 106.755226 
L 284.241342 112.673207 
L 284.995386 118.658728 
L 285.588246 124.67823 
L 286.01948 130.696486 
L 286.289604 136.677325 
L 286.400113 142.58439 
L 286.353469 148.381896 
L 286.153079 154.035358 
L 285.803251 159.512265 
L 285.30913 164.782688 
L 284.676628 169.819784 
L 283.912328 174.60021 
L 283.023391 179.104407 
L 282.017448 183.316783 
L 280.902496 187.225766 
L 279.686789 190.823768 
L 278.378732 194.107035 
L 276.986781 197.075432 
L 275.519352 199.732147 
L 273.984734 202.083362 
L 272.391014 204.137872 
L 270.746014 205.906694 
L 269.057231 207.402673 
L 267.331806 208.640097 
L 265.576472 209.634317 
L 263.797543 210.40141 
L 262.000896 210.957866 
L 260.191949 211.320249 
L 258.375693 211.505048 
L 256.556674 211.52839 
L 253.831874 211.294674 
L 251.122246 210.782596 
L 248.43806 210.038056 
L 245.787824 209.102472 
L 242.31877 207.620648 
L 238.934944 205.938059 
L 234.838607 203.642638 
L 230.133358 200.719965 
L 224.94685 197.203678 
L 220.0926 193.655507 
L 215.571745 190.107226 
L 211.384334 186.553297 
L 207.532018 182.967588 
L 204.500103 179.843427 
L 201.722351 176.651568 
L 199.204839 173.377626 
L 197.310694 170.581761 
L 195.60619 167.725766 
L 194.095171 164.816201 
L 192.780867 161.86475 
L 191.665562 158.887909 
L 190.750285 155.906389 
L 189.9152 152.356424 
L 189.363307 148.880112 
L 189.086773 145.524767 
L 189.07399 142.336318 
L 189.309812 139.35646 
L 189.775971 136.62031 
L 190.45168 134.154735 
L 191.3144 131.977524 
L 192.159154 130.389876 
L 193.103495 129.00884 
L 194.133657 127.830887 
L 195.464286 126.675626 
L 196.877114 125.78614 
L 198.351545 125.141748 
L 199.868766 124.719258 
L 201.670518 124.474285 
L 203.484177 124.459473 
L 205.546181 124.677009 
L 207.823551 125.160722 
L 210.270148 125.922504 
L 212.828656 126.953317 
L 215.641192 128.33885 
L 218.388189 129.944189 
L 220.9903 131.719111 
L 223.370796 133.616625 
L 225.347178 135.477362 
L 226.930805 137.270305 
L 228.139137 138.968799 
L 228.995137 140.548104 
L 229.526876 141.985622 
L 229.76691 143.262464 
L 229.751296 144.365144 
L 229.518291 145.286735 
L 229.106906 146.027182 
L 228.5172 146.622577 
L 227.768769 147.053531 
L 226.843477 147.318496 
L 225.775962 147.390527 
L 224.527213 147.243145 
L 223.195612 146.852602 
L 221.91714 146.243581 
L 220.840414 145.488352 
L 220.104857 144.712968 
L 219.759075 144.05413 
L 219.734072 143.578658 
L 219.923409 143.291592 
L 220.274053 143.163018 
L 220.772042 143.222589 
L 221.263434 143.49785 
L 221.414935 143.789955 
L 221.278381 143.850691 
L 221.141532 143.752584 
L 221.180313 143.756 
" style="fill:none;stroke:#1f77b4;stroke-linecap:square;stroke-width:0.5;"/>
   </g>
   <g id="line2d_41">
    <path clip-path="url(#p085421badb)" d="M 221.180313 143.756 
" style="fill:none;stroke:#1f77b4;stroke-linecap:square;stroke-width:1.5;"/>
   </g>
   <g id="line2d_42">
    <defs>
     <path d="M 0 3 
C 0.795609 3 1.55874 2.683901 2.12132 2.12132 
C 2.683901 1.55874 3 0.795609 3 0 
C 3 -0.795609 2.683901 -1.55874 2.12132 -2.12132 
C 1.55874 -2.683901 0.795609 -3 0 -3 
C -0.795609 -3 -1.55874 -2.683901 -2.12132 -2.12132 
C -2.683901 -1.55874 -3 -0.795609 -3 0 
C -3 0.795609 -2.683901 1.55874 -2.12132 2.12132 
C -1.55874 2.683901 -0.795609 3 0 3 
z
" id="ma8f0b43585" style="stroke:#ff0000;"/>
    </defs>
    <g clip-path="url(#p085421badb)">
     <use style="fill:#ff0000;stroke:#ff0000;" x="221.180313" xlink:href="#ma8f0b43585" y="143.756"/>
    </g>
   </g>
   <g id="patch_51">
    <path d="M 42.620313 276.812 
L 42.620313 10.7 
" style="fill:none;stroke:#000000;stroke-linecap:square;stroke-linejoin:miter;stroke-width:0.8;"/>
   </g>
   <g id="patch_52">
    <path d="M 399.740313 276.812 
L 399.740313 10.7 
" style="fill:none;stroke:#000000;stroke-linecap:square;stroke-linejoin:miter;stroke-width:0.8;"/>
   </g>
   <g id="patch_53">
    <path d="M 42.620313 276.812 
L 399.740313 276.812 
" style="fill:none;stroke:#000000;stroke-linecap:square;stroke-linejoin:miter;stroke-width:0.8;"/>
   </g>
   <g id="patch_54">
    <path d="M 42.620313 10.7 
L 399.740313 10.7 
" style="fill:none;stroke:#000000;stroke-linecap:square;stroke-linejoin:miter;stroke-width:0.8;"/>
   </g>
   <g id="legend_1">
    <g id="patch_55">
     <path d="M 249.800312 273.812 
L 395.540313 273.812 
Q 396.740313 273.812 396.740313 272.612 
L 396.740313 255.35825 
Q 396.740313 254.15825 395.540313 254.15825 
L 249.800312 254.15825 
Q 248.600313 254.15825 248.600313 255.35825 
L 248.600313 272.612 
Q 248.600313 273.812 249.800312 273.812 
z
" style="fill:#ffffff;opacity:0.8;stroke:#cccccc;stroke-linejoin:miter;"/>
    </g>
    <g id="line2d_43">
     <path d="M 251.000313 259.017312 
L 263.000313 259.017312 
" style="fill:none;stroke:#1f77b4;stroke-linecap:square;stroke-width:1.5;"/>
    </g>
    <g id="line2d_44"/>
    <g id="text_13">
     <!-- system nieliniowy -->
     <defs>
      <path d="M 44.28125 53.078125 
L 44.28125 44.578125 
Q 40.484375 46.53125 36.375 47.5 
Q 32.28125 48.484375 27.875 48.484375 
Q 21.1875 48.484375 17.84375 46.4375 
Q 14.5 44.390625 14.5 40.28125 
Q 14.5 37.15625 16.890625 35.375 
Q 19.28125 33.59375 26.515625 31.984375 
L 29.59375 31.296875 
Q 39.15625 29.25 43.1875 25.515625 
Q 47.21875 21.78125 47.21875 15.09375 
Q 47.21875 7.46875 41.1875 3.015625 
Q 35.15625 -1.421875 24.609375 -1.421875 
Q 20.21875 -1.421875 15.453125 -0.5625 
Q 10.6875 0.296875 5.421875 2 
L 5.421875 11.28125 
Q 10.40625 8.6875 15.234375 7.390625 
Q 20.0625 6.109375 24.8125 6.109375 
Q 31.15625 6.109375 34.5625 8.28125 
Q 37.984375 10.453125 37.984375 14.40625 
Q 37.984375 18.0625 35.515625 20.015625 
Q 33.0625 21.96875 24.703125 23.78125 
L 21.578125 24.515625 
Q 13.234375 26.265625 9.515625 29.90625 
Q 5.8125 33.546875 5.8125 39.890625 
Q 5.8125 47.609375 11.28125 51.796875 
Q 16.75 56 26.8125 56 
Q 31.78125 56 36.171875 55.265625 
Q 40.578125 54.546875 44.28125 53.078125 
" id="DejaVuSans-73"/>
      <path d="M 32.171875 -5.078125 
Q 28.375 -14.84375 24.75 -17.8125 
Q 21.140625 -20.796875 15.09375 -20.796875 
L 7.90625 -20.796875 
L 7.90625 -13.28125 
L 13.1875 -13.28125 
Q 16.890625 -13.28125 18.9375 -11.515625 
Q 21 -9.765625 23.484375 -3.21875 
L 25.09375 0.875 
L 2.984375 54.6875 
L 12.5 54.6875 
L 29.59375 11.921875 
L 46.6875 54.6875 
L 56.203125 54.6875 
z
" id="DejaVuSans-79"/>
      <path d="M 18.3125 70.21875 
L 18.3125 54.6875 
L 36.8125 54.6875 
L 36.8125 47.703125 
L 18.3125 47.703125 
L 18.3125 18.015625 
Q 18.3125 11.328125 20.140625 9.421875 
Q 21.96875 7.515625 27.59375 7.515625 
L 36.8125 7.515625 
L 36.8125 0 
L 27.59375 0 
Q 17.1875 0 13.234375 3.875 
Q 9.28125 7.765625 9.28125 18.015625 
L 9.28125 47.703125 
L 2.6875 47.703125 
L 2.6875 54.6875 
L 9.28125 54.6875 
L 9.28125 70.21875 
z
" id="DejaVuSans-74"/>
      <path d="M 56.203125 29.59375 
L 56.203125 25.203125 
L 14.890625 25.203125 
Q 15.484375 15.921875 20.484375 11.0625 
Q 25.484375 6.203125 34.421875 6.203125 
Q 39.59375 6.203125 44.453125 7.46875 
Q 49.3125 8.734375 54.109375 11.28125 
L 54.109375 2.78125 
Q 49.265625 0.734375 44.1875 -0.34375 
Q 39.109375 -1.421875 33.890625 -1.421875 
Q 20.796875 -1.421875 13.15625 6.1875 
Q 5.515625 13.8125 5.515625 26.8125 
Q 5.515625 40.234375 12.765625 48.109375 
Q 20.015625 56 32.328125 56 
Q 43.359375 56 49.78125 48.890625 
Q 56.203125 41.796875 56.203125 29.59375 
M 47.21875 32.234375 
Q 47.125 39.59375 43.09375 43.984375 
Q 39.0625 48.390625 32.421875 48.390625 
Q 24.90625 48.390625 20.390625 44.140625 
Q 15.875 39.890625 15.1875 32.171875 
z
" id="DejaVuSans-65"/>
      <path d="M 52 44.1875 
Q 55.375 50.25 60.0625 53.125 
Q 64.75 56 71.09375 56 
Q 79.640625 56 84.28125 50.015625 
Q 88.921875 44.046875 88.921875 33.015625 
L 88.921875 0 
L 79.890625 0 
L 79.890625 32.71875 
Q 79.890625 40.578125 77.09375 44.375 
Q 74.3125 48.1875 68.609375 48.1875 
Q 61.625 48.1875 57.5625 43.546875 
Q 53.515625 38.921875 53.515625 30.90625 
L 53.515625 0 
L 44.484375 0 
L 44.484375 32.71875 
Q 44.484375 40.625 41.703125 44.40625 
Q 38.921875 48.1875 33.109375 48.1875 
Q 26.21875 48.1875 22.15625 43.53125 
Q 18.109375 38.875 18.109375 30.90625 
L 18.109375 0 
L 9.078125 0 
L 9.078125 54.6875 
L 18.109375 54.6875 
L 18.109375 46.1875 
Q 21.1875 51.21875 25.484375 53.609375 
Q 29.78125 56 35.6875 56 
Q 41.65625 56 45.828125 52.96875 
Q 50 49.953125 52 44.1875 
" id="DejaVuSans-6d"/>
      <path id="DejaVuSans-20"/>
      <path d="M 54.890625 33.015625 
L 54.890625 0 
L 45.90625 0 
L 45.90625 32.71875 
Q 45.90625 40.484375 42.875 44.328125 
Q 39.84375 48.1875 33.796875 48.1875 
Q 26.515625 48.1875 22.3125 43.546875 
Q 18.109375 38.921875 18.109375 30.90625 
L 18.109375 0 
L 9.078125 0 
L 9.078125 54.6875 
L 18.109375 54.6875 
L 18.109375 46.1875 
Q 21.34375 51.125 25.703125 53.5625 
Q 30.078125 56 35.796875 56 
Q 45.21875 56 50.046875 50.171875 
Q 54.890625 44.34375 54.890625 33.015625 
" id="DejaVuSans-6e"/>
      <path d="M 9.421875 54.6875 
L 18.40625 54.6875 
L 18.40625 0 
L 9.421875 0 
z
M 9.421875 75.984375 
L 18.40625 75.984375 
L 18.40625 64.59375 
L 9.421875 64.59375 
z
" id="DejaVuSans-69"/>
      <path d="M 9.421875 75.984375 
L 18.40625 75.984375 
L 18.40625 0 
L 9.421875 0 
z
" id="DejaVuSans-6c"/>
      <path d="M 30.609375 48.390625 
Q 23.390625 48.390625 19.1875 42.75 
Q 14.984375 37.109375 14.984375 27.296875 
Q 14.984375 17.484375 19.15625 11.84375 
Q 23.34375 6.203125 30.609375 6.203125 
Q 37.796875 6.203125 41.984375 11.859375 
Q 46.1875 17.53125 46.1875 27.296875 
Q 46.1875 37.015625 41.984375 42.703125 
Q 37.796875 48.390625 30.609375 48.390625 
M 30.609375 56 
Q 42.328125 56 49.015625 48.375 
Q 55.71875 40.765625 55.71875 27.296875 
Q 55.71875 13.875 49.015625 6.21875 
Q 42.328125 -1.421875 30.609375 -1.421875 
Q 18.84375 -1.421875 12.171875 6.21875 
Q 5.515625 13.875 5.515625 27.296875 
Q 5.515625 40.765625 12.171875 48.375 
Q 18.84375 56 30.609375 56 
" id="DejaVuSans-6f"/>
      <path d="M 4.203125 54.6875 
L 13.1875 54.6875 
L 24.421875 12.015625 
L 35.59375 54.6875 
L 46.1875 54.6875 
L 57.421875 12.015625 
L 68.609375 54.6875 
L 77.59375 54.6875 
L 63.28125 0 
L 52.6875 0 
L 40.921875 44.828125 
L 29.109375 0 
L 18.5 0 
z
" id="DejaVuSans-77"/>
     </defs>
     <g transform="translate(267.800313 261.117312)scale(0.06 -0.06)">
      <use xlink:href="#DejaVuSans-73"/>
      <use x="52.099609" xlink:href="#DejaVuSans-79"/>
      <use x="111.279297" xlink:href="#DejaVuSans-73"/>
      <use x="163.378906" xlink:href="#DejaVuSans-74"/>
      <use x="202.587891" xlink:href="#DejaVuSans-65"/>
      <use x="264.111328" xlink:href="#DejaVuSans-6d"/>
      <use x="361.523438" xlink:href="#DejaVuSans-20"/>
      <use x="393.310547" xlink:href="#DejaVuSans-6e"/>
      <use x="456.689453" xlink:href="#DejaVuSans-69"/>
      <use x="484.472656" xlink:href="#DejaVuSans-65"/>
      <use x="545.996094" xlink:href="#DejaVuSans-6c"/>
      <use x="573.779297" xlink:href="#DejaVuSans-69"/>
      <use x="601.5625" xlink:href="#DejaVuSans-6e"/>
      <use x="664.941406" xlink:href="#DejaVuSans-69"/>
      <use x="692.724609" xlink:href="#DejaVuSans-6f"/>
      <use x="753.90625" xlink:href="#DejaVuSans-77"/>
      <use x="835.693359" xlink:href="#DejaVuSans-79"/>
     </g>
    </g>
    <g id="line2d_45"/>
    <g id="line2d_46">
     <g>
      <use style="fill:#ff0000;stroke:#ff0000;" x="257.000313" xlink:href="#ma8f0b43585" y="268.064187"/>
     </g>
    </g>
    <g id="text_14">
     <!-- Punkt równowagi asymptotycznie stabilny -->
     <defs>
      <path d="M 19.671875 64.796875 
L 19.671875 37.40625 
L 32.078125 37.40625 
Q 38.96875 37.40625 42.71875 40.96875 
Q 46.484375 44.53125 46.484375 51.125 
Q 46.484375 57.671875 42.71875 61.234375 
Q 38.96875 64.796875 32.078125 64.796875 
z
M 9.8125 72.90625 
L 32.078125 72.90625 
Q 44.34375 72.90625 50.609375 67.359375 
Q 56.890625 61.8125 56.890625 51.125 
Q 56.890625 40.328125 50.609375 34.8125 
Q 44.34375 29.296875 32.078125 29.296875 
L 19.671875 29.296875 
L 19.671875 0 
L 9.8125 0 
z
" id="DejaVuSans-50"/>
      <path d="M 8.5 21.578125 
L 8.5 54.6875 
L 17.484375 54.6875 
L 17.484375 21.921875 
Q 17.484375 14.15625 20.5 10.265625 
Q 23.53125 6.390625 29.59375 6.390625 
Q 36.859375 6.390625 41.078125 11.03125 
Q 45.3125 15.671875 45.3125 23.6875 
L 45.3125 54.6875 
L 54.296875 54.6875 
L 54.296875 0 
L 45.3125 0 
L 45.3125 8.40625 
Q 42.046875 3.421875 37.71875 1 
Q 33.40625 -1.421875 27.6875 -1.421875 
Q 18.265625 -1.421875 13.375 4.4375 
Q 8.5 10.296875 8.5 21.578125 
M 31.109375 56 
z
" id="DejaVuSans-75"/>
      <path d="M 9.078125 75.984375 
L 18.109375 75.984375 
L 18.109375 31.109375 
L 44.921875 54.6875 
L 56.390625 54.6875 
L 27.390625 29.109375 
L 57.625 0 
L 45.90625 0 
L 18.109375 26.703125 
L 18.109375 0 
L 9.078125 0 
z
" id="DejaVuSans-6b"/>
      <path d="M 41.109375 46.296875 
Q 39.59375 47.171875 37.8125 47.578125 
Q 36.03125 48 33.890625 48 
Q 26.265625 48 22.1875 43.046875 
Q 18.109375 38.09375 18.109375 28.8125 
L 18.109375 0 
L 9.078125 0 
L 9.078125 54.6875 
L 18.109375 54.6875 
L 18.109375 46.1875 
Q 20.953125 51.171875 25.484375 53.578125 
Q 30.03125 56 36.53125 56 
Q 37.453125 56 38.578125 55.875 
Q 39.703125 55.765625 41.0625 55.515625 
z
" id="DejaVuSans-72"/>
      <path d="M 30.609375 48.390625 
Q 23.390625 48.390625 19.1875 42.75 
Q 14.984375 37.109375 14.984375 27.296875 
Q 14.984375 17.484375 19.15625 11.84375 
Q 23.34375 6.203125 30.609375 6.203125 
Q 37.796875 6.203125 41.984375 11.859375 
Q 46.1875 17.53125 46.1875 27.296875 
Q 46.1875 37.015625 41.984375 42.703125 
Q 37.796875 48.390625 30.609375 48.390625 
M 30.609375 56 
Q 42.328125 56 49.015625 48.375 
Q 55.71875 40.765625 55.71875 27.296875 
Q 55.71875 13.875 49.015625 6.21875 
Q 42.328125 -1.421875 30.609375 -1.421875 
Q 18.84375 -1.421875 12.171875 6.21875 
Q 5.515625 13.875 5.515625 27.296875 
Q 5.515625 40.765625 12.171875 48.375 
Q 18.84375 56 30.609375 56 
M 37.40625 79.984375 
L 47.125 79.984375 
L 31.21875 61.625 
L 23.734375 61.625 
z
" id="DejaVuSans-f3"/>
      <path d="M 34.28125 27.484375 
Q 23.390625 27.484375 19.1875 25 
Q 14.984375 22.515625 14.984375 16.5 
Q 14.984375 11.71875 18.140625 8.90625 
Q 21.296875 6.109375 26.703125 6.109375 
Q 34.1875 6.109375 38.703125 11.40625 
Q 43.21875 16.703125 43.21875 25.484375 
L 43.21875 27.484375 
z
M 52.203125 31.203125 
L 52.203125 0 
L 43.21875 0 
L 43.21875 8.296875 
Q 40.140625 3.328125 35.546875 0.953125 
Q 30.953125 -1.421875 24.3125 -1.421875 
Q 15.921875 -1.421875 10.953125 3.296875 
Q 6 8.015625 6 15.921875 
Q 6 25.140625 12.171875 29.828125 
Q 18.359375 34.515625 30.609375 34.515625 
L 43.21875 34.515625 
L 43.21875 35.40625 
Q 43.21875 41.609375 39.140625 45 
Q 35.0625 48.390625 27.6875 48.390625 
Q 23 48.390625 18.546875 47.265625 
Q 14.109375 46.140625 10.015625 43.890625 
L 10.015625 52.203125 
Q 14.9375 54.109375 19.578125 55.046875 
Q 24.21875 56 28.609375 56 
Q 40.484375 56 46.34375 49.84375 
Q 52.203125 43.703125 52.203125 31.203125 
" id="DejaVuSans-61"/>
      <path d="M 45.40625 27.984375 
Q 45.40625 37.75 41.375 43.109375 
Q 37.359375 48.484375 30.078125 48.484375 
Q 22.859375 48.484375 18.828125 43.109375 
Q 14.796875 37.75 14.796875 27.984375 
Q 14.796875 18.265625 18.828125 12.890625 
Q 22.859375 7.515625 30.078125 7.515625 
Q 37.359375 7.515625 41.375 12.890625 
Q 45.40625 18.265625 45.40625 27.984375 
M 54.390625 6.78125 
Q 54.390625 -7.171875 48.1875 -13.984375 
Q 42 -20.796875 29.203125 -20.796875 
Q 24.46875 -20.796875 20.265625 -20.09375 
Q 16.0625 -19.390625 12.109375 -17.921875 
L 12.109375 -9.1875 
Q 16.0625 -11.328125 19.921875 -12.34375 
Q 23.78125 -13.375 27.78125 -13.375 
Q 36.625 -13.375 41.015625 -8.765625 
Q 45.40625 -4.15625 45.40625 5.171875 
L 45.40625 9.625 
Q 42.625 4.78125 38.28125 2.390625 
Q 33.9375 0 27.875 0 
Q 17.828125 0 11.671875 7.65625 
Q 5.515625 15.328125 5.515625 27.984375 
Q 5.515625 40.671875 11.671875 48.328125 
Q 17.828125 56 27.875 56 
Q 33.9375 56 38.28125 53.609375 
Q 42.625 51.21875 45.40625 46.390625 
L 45.40625 54.6875 
L 54.390625 54.6875 
z
" id="DejaVuSans-67"/>
      <path d="M 18.109375 8.203125 
L 18.109375 -20.796875 
L 9.078125 -20.796875 
L 9.078125 54.6875 
L 18.109375 54.6875 
L 18.109375 46.390625 
Q 20.953125 51.265625 25.265625 53.625 
Q 29.59375 56 35.59375 56 
Q 45.5625 56 51.78125 48.09375 
Q 58.015625 40.1875 58.015625 27.296875 
Q 58.015625 14.40625 51.78125 6.484375 
Q 45.5625 -1.421875 35.59375 -1.421875 
Q 29.59375 -1.421875 25.265625 0.953125 
Q 20.953125 3.328125 18.109375 8.203125 
M 48.6875 27.296875 
Q 48.6875 37.203125 44.609375 42.84375 
Q 40.53125 48.484375 33.40625 48.484375 
Q 26.265625 48.484375 22.1875 42.84375 
Q 18.109375 37.203125 18.109375 27.296875 
Q 18.109375 17.390625 22.1875 11.75 
Q 26.265625 6.109375 33.40625 6.109375 
Q 40.53125 6.109375 44.609375 11.75 
Q 48.6875 17.390625 48.6875 27.296875 
" id="DejaVuSans-70"/>
      <path d="M 48.78125 52.59375 
L 48.78125 44.1875 
Q 44.96875 46.296875 41.140625 47.34375 
Q 37.3125 48.390625 33.40625 48.390625 
Q 24.65625 48.390625 19.8125 42.84375 
Q 14.984375 37.3125 14.984375 27.296875 
Q 14.984375 17.28125 19.8125 11.734375 
Q 24.65625 6.203125 33.40625 6.203125 
Q 37.3125 6.203125 41.140625 7.25 
Q 44.96875 8.296875 48.78125 10.40625 
L 48.78125 2.09375 
Q 45.015625 0.34375 40.984375 -0.53125 
Q 36.96875 -1.421875 32.421875 -1.421875 
Q 20.0625 -1.421875 12.78125 6.34375 
Q 5.515625 14.109375 5.515625 27.296875 
Q 5.515625 40.671875 12.859375 48.328125 
Q 20.21875 56 33.015625 56 
Q 37.15625 56 41.109375 55.140625 
Q 45.0625 54.296875 48.78125 52.59375 
" id="DejaVuSans-63"/>
      <path d="M 5.515625 54.6875 
L 48.1875 54.6875 
L 48.1875 46.484375 
L 14.40625 7.171875 
L 48.1875 7.171875 
L 48.1875 0 
L 4.296875 0 
L 4.296875 8.203125 
L 38.09375 47.515625 
L 5.515625 47.515625 
z
" id="DejaVuSans-7a"/>
      <path d="M 48.6875 27.296875 
Q 48.6875 37.203125 44.609375 42.84375 
Q 40.53125 48.484375 33.40625 48.484375 
Q 26.265625 48.484375 22.1875 42.84375 
Q 18.109375 37.203125 18.109375 27.296875 
Q 18.109375 17.390625 22.1875 11.75 
Q 26.265625 6.109375 33.40625 6.109375 
Q 40.53125 6.109375 44.609375 11.75 
Q 48.6875 17.390625 48.6875 27.296875 
M 18.109375 46.390625 
Q 20.953125 51.265625 25.265625 53.625 
Q 29.59375 56 35.59375 56 
Q 45.5625 56 51.78125 48.09375 
Q 58.015625 40.1875 58.015625 27.296875 
Q 58.015625 14.40625 51.78125 6.484375 
Q 45.5625 -1.421875 35.59375 -1.421875 
Q 29.59375 -1.421875 25.265625 0.953125 
Q 20.953125 3.328125 18.109375 8.203125 
L 18.109375 0 
L 9.078125 0 
L 9.078125 75.984375 
L 18.109375 75.984375 
z
" id="DejaVuSans-62"/>
     </defs>
     <g transform="translate(267.800313 270.164187)scale(0.06 -0.06)">
      <use xlink:href="#DejaVuSans-50"/>
      <use x="60.287109" xlink:href="#DejaVuSans-75"/>
      <use x="123.666016" xlink:href="#DejaVuSans-6e"/>
      <use x="187.044922" xlink:href="#DejaVuSans-6b"/>
      <use x="244.955078" xlink:href="#DejaVuSans-74"/>
      <use x="284.164062" xlink:href="#DejaVuSans-20"/>
      <use x="315.951172" xlink:href="#DejaVuSans-72"/>
      <use x="357.033203" xlink:href="#DejaVuSans-f3"/>
      <use x="418.214844" xlink:href="#DejaVuSans-77"/>
      <use x="500.001953" xlink:href="#DejaVuSans-6e"/>
      <use x="563.380859" xlink:href="#DejaVuSans-6f"/>
      <use x="624.5625" xlink:href="#DejaVuSans-77"/>
      <use x="706.349609" xlink:href="#DejaVuSans-61"/>
      <use x="767.628906" xlink:href="#DejaVuSans-67"/>
      <use x="831.105469" xlink:href="#DejaVuSans-69"/>
      <use x="858.888672" xlink:href="#DejaVuSans-20"/>
      <use x="890.675781" xlink:href="#DejaVuSans-61"/>
      <use x="951.955078" xlink:href="#DejaVuSans-73"/>
      <use x="1004.054688" xlink:href="#DejaVuSans-79"/>
      <use x="1063.234375" xlink:href="#DejaVuSans-6d"/>
      <use x="1160.646484" xlink:href="#DejaVuSans-70"/>
      <use x="1224.123047" xlink:href="#DejaVuSans-74"/>
      <use x="1263.332031" xlink:href="#DejaVuSans-6f"/>
      <use x="1324.513672" xlink:href="#DejaVuSans-74"/>
      <use x="1363.722656" xlink:href="#DejaVuSans-79"/>
      <use x="1422.902344" xlink:href="#DejaVuSans-63"/>
      <use x="1477.882812" xlink:href="#DejaVuSans-7a"/>
      <use x="1530.373047" xlink:href="#DejaVuSans-6e"/>
      <use x="1593.751953" xlink:href="#DejaVuSans-69"/>
      <use x="1621.535156" xlink:href="#DejaVuSans-65"/>
      <use x="1683.058594" xlink:href="#DejaVuSans-20"/>
      <use x="1714.845703" xlink:href="#DejaVuSans-73"/>
      <use x="1766.945312" xlink:href="#DejaVuSans-74"/>
      <use x="1806.154297" xlink:href="#DejaVuSans-61"/>
      <use x="1867.433594" xlink:href="#DejaVuSans-62"/>
      <use x="1930.910156" xlink:href="#DejaVuSans-69"/>
      <use x="1958.693359" xlink:href="#DejaVuSans-6c"/>
      <use x="1986.476562" xlink:href="#DejaVuSans-6e"/>
      <use x="2049.855469" xlink:href="#DejaVuSans-79"/>
     </g>
    </g>
   </g>
  </g>
 </g>
 <defs>
  <clipPath id="p085421badb">
   <rect height="266.112" width="357.12" x="42.620313" y="10.7"/>
  </clipPath>
 </defs>
</svg>
