<?xml version="1.0" encoding="utf-8" standalone="no"?>
<!DOCTYPE svg PUBLIC "-//W3C//DTD SVG 1.1//EN"
  "http://www.w3.org/Graphics/SVG/1.1/DTD/svg11.dtd">
<!-- Created with matplotlib (http://matplotlib.org/) -->
<svg height="314pt" version="1.1" viewBox="0 0 419 314" width="419pt" xmlns="http://www.w3.org/2000/svg" xmlns:xlink="http://www.w3.org/1999/xlink">
 <defs>
  <style type="text/css">
*{stroke-linecap:butt;stroke-linejoin:round;}
  </style>
 </defs>
 <g id="figure_1">
  <g id="patch_1">
   <path d="M 0 314.36825 
L 419.980937 314.36825 
L 419.980937 0 
L 0 0 
z
" style="fill:#ffffff;"/>
  </g>
  <g id="axes_1">
   <g id="patch_2">
    <path d="M 52.160938 276.812 
L 409.280938 276.812 
L 409.280938 10.7 
L 52.160938 10.7 
z
" style="fill:#ffffff;"/>
   </g>
   <g id="patch_3">
    <path clip-path="url(#pa1fdae6cc0)" d="M 268.285198 70.960328 
L 262.200413 67.106847 
L 265.321631 66.116033 
L 265.64915 66.009934 
L 265.65018 66.011737 
L 268.771398 65.020923 
z
" style="fill:#1f77b4;stroke:#1f77b4;stroke-linejoin:miter;"/>
   </g>
   <g id="patch_4">
    <path clip-path="url(#pa1fdae6cc0)" d="M 295.452432 135.325016 
L 290.707343 130.539045 
L 294.049547 130.104754 
L 294.40118 130.058277 
L 294.401358 130.059039 
L 297.743563 129.624748 
z
" style="fill:#1f77b4;stroke:#1f77b4;stroke-linejoin:miter;"/>
   </g>
   <g id="patch_5">
    <path clip-path="url(#pa1fdae6cc0)" d="M 335.75975 104.335076 
L 330.558956 99.819676 
L 333.849765 99.204939 
L 334.195579 99.138486 
L 334.196166 99.140229 
L 337.486975 98.525492 
z
" style="fill:#1f77b4;stroke:#1f77b4;stroke-linejoin:miter;"/>
   </g>
   <g id="patch_6">
    <path clip-path="url(#pa1fdae6cc0)" d="M 341.88619 156.583694 
L 339.039631 151.024149 
L 342.415604 151.274427 
L 342.771077 151.299975 
L 342.77097 151.300772 
L 346.146944 151.551051 
z
" style="fill:#1f77b4;stroke:#1f77b4;stroke-linejoin:miter;"/>
   </g>
   <g id="patch_7">
    <path clip-path="url(#pa1fdae6cc0)" d="M 406.092214 127.568925 
L 401.871044 122.517794 
L 405.248925 122.282237 
L 405.604218 122.255262 
L 405.604491 122.257442 
L 408.982372 122.021885 
z
" style="fill:#1f77b4;stroke:#1f77b4;stroke-linejoin:miter;"/>
   </g>
   <g id="patch_8">
    <path clip-path="url(#pa1fdae6cc0)" d="M 397.493835 184.450446 
L 396.674178 178.53143 
L 399.848355 179.423948 
L 400.182965 179.516938 
L 400.182479 179.517897 
L 403.356655 180.410415 
z
" style="fill:#1f77b4;stroke:#1f77b4;stroke-linejoin:miter;"/>
   </g>
   <g id="patch_9">
    <path clip-path="url(#pa1fdae6cc0)" d="M 410.95164 62.004511 
L 405.809817 57.451764 
L 409.108467 56.86082 
L 409.454551 56.795074 
L 409.455693 56.798616 
L 412.754343 56.207673 
z
" style="fill:#1f77b4;stroke:#1f77b4;stroke-linejoin:miter;"/>
   </g>
   <g id="patch_10">
    <path clip-path="url(#pa1fdae6cc0)" d="M 410.207229 115.341461 
L 405.740304 110.409083 
L 409.10432 110.081374 
L 409.457991 110.044397 
L 409.458426 110.046879 
L 412.822442 109.719171 
z
" style="fill:#1f77b4;stroke:#1f77b4;stroke-linejoin:miter;"/>
   </g>
   <g id="patch_11">
    <path clip-path="url(#pa1fdae6cc0)" d="M 372.085215 203.23727 
L 377.401484 198.797169 
L 378.655652 201.14615 
L 378.788443 201.393182 
L 378.78767 201.393411 
L 380.041837 203.742392 
z
" style="fill:#1f77b4;stroke:#1f77b4;stroke-linejoin:miter;"/>
   </g>
   <g id="patch_12">
    <path clip-path="url(#pa1fdae6cc0)" d="M 319.205199 193.165529 
L 327.190481 193.127481 
L 325.692681 195.395833 
L 325.53571 195.634861 
L 325.535017 195.634607 
L 324.037216 197.902959 
z
" style="fill:#1f77b4;stroke:#1f77b4;stroke-linejoin:miter;"/>
   </g>
   <g id="patch_13">
    <path clip-path="url(#pa1fdae6cc0)" d="M 336.40802 203.635293 
L 344.388863 203.433282 
L 342.97552 205.73153 
L 342.827578 205.973735 
L 342.826747 205.973451 
L 341.413404 208.271699 
z
" style="fill:#1f77b4;stroke:#1f77b4;stroke-linejoin:miter;"/>
   </g>
   <g id="patch_14">
    <path clip-path="url(#pa1fdae6cc0)" d="M 306.295448 189.886535 
L 314.218634 190.628134 
L 312.335045 192.73077 
L 312.137429 192.952427 
L 312.136773 192.9521 
L 310.253184 195.054736 
z
" style="fill:#1f77b4;stroke:#1f77b4;stroke-linejoin:miter;"/>
   </g>
   <g id="patch_15">
    <path clip-path="url(#pa1fdae6cc0)" d="M 361.379764 242.254788 
L 369.199958 243.459074 
L 367.099988 245.444636 
L 366.880299 245.654441 
L 366.878938 245.653642 
L 364.778967 247.639204 
z
" style="fill:#1f77b4;stroke:#1f77b4;stroke-linejoin:miter;"/>
   </g>
   <g id="patch_16">
    <path clip-path="url(#pa1fdae6cc0)" d="M 293.099339 194.335448 
L 300.638332 196.297208 
L 298.205511 198.059225 
L 297.950151 198.245257 
L 297.949425 198.2447 
L 295.516603 200.006717 
z
" style="fill:#1f77b4;stroke:#1f77b4;stroke-linejoin:miter;"/>
   </g>
   <g id="patch_17">
    <path clip-path="url(#pa1fdae6cc0)" d="M 295.004322 242.02464 
L 301.963045 244.943496 
L 299.152398 246.359355 
L 298.857908 246.5099 
L 298.85654 246.508392 
L 296.045892 247.924251 
z
" style="fill:#1f77b4;stroke:#1f77b4;stroke-linejoin:miter;"/>
   </g>
   <g id="patch_18">
    <path clip-path="url(#pa1fdae6cc0)" d="M 258.639902 200.024447 
L 265.443269 203.140035 
L 262.561814 204.474524 
L 262.259313 204.615967 
L 262.258503 204.614997 
L 259.377048 205.949485 
z
" style="fill:#1f77b4;stroke:#1f77b4;stroke-linejoin:miter;"/>
   </g>
   <g id="patch_19">
    <path clip-path="url(#pa1fdae6cc0)" d="M 215.711409 211.327191 
L 221.979604 215.013826 
L 218.908623 216.088275 
L 218.586323 216.2029 
L 218.585362 216.201375 
L 215.514381 217.275824 
z
" style="fill:#1f77b4;stroke:#1f77b4;stroke-linejoin:miter;"/>
   </g>
   <g id="patch_20">
    <path clip-path="url(#pa1fdae6cc0)" d="M 197.572147 179.314528 
L 203.482658 183.315788 
L 200.319191 184.229176 
L 199.986731 184.326355 
L 199.986195 184.325322 
L 196.822728 185.238711 
z
" style="fill:#1f77b4;stroke:#1f77b4;stroke-linejoin:miter;"/>
   </g>
   <g id="patch_21">
    <path clip-path="url(#pa1fdae6cc0)" d="M 163.547341 209.971626 
L 169.359911 214.051775 
L 166.174823 214.922442 
L 165.840493 215.016006 
L 165.83955 215.014091 
L 162.654462 215.884757 
z
" style="fill:#1f77b4;stroke:#1f77b4;stroke-linejoin:miter;"/>
   </g>
   <g id="patch_22">
    <path clip-path="url(#pa1fdae6cc0)" d="M 142.952426 145.621219 
L 147.082006 150.714216 
L 143.700178 150.915884 
L 143.344287 150.937956 
L 143.344196 150.937112 
L 139.962368 151.13878 
z
" style="fill:#1f77b4;stroke:#1f77b4;stroke-linejoin:miter;"/>
   </g>
   <g id="patch_23">
    <path clip-path="url(#pa1fdae6cc0)" d="M 103.023423 206.869391 
L 108.347825 211.304077 
L 105.074691 211.969151 
L 104.73105 212.041617 
L 104.73015 212.039159 
L 101.457016 212.704233 
z
" style="fill:#1f77b4;stroke:#1f77b4;stroke-linejoin:miter;"/>
   </g>
   <g id="patch_24">
    <path clip-path="url(#pa1fdae6cc0)" d="M 110.037441 102.257359 
L 107.186355 107.815616 
L 104.893591 105.95223 
L 104.651736 105.756433 
L 104.652247 105.756084 
L 102.359483 103.892698 
z
" style="fill:#1f77b4;stroke:#1f77b4;stroke-linejoin:miter;"/>
   </g>
   <g id="patch_25">
    <path clip-path="url(#pa1fdae6cc0)" d="M 50.213123 261.117581 
L 55.595388 265.513311 
L 52.331126 266.202172 
L 51.989134 266.278933 
L 51.987519 266.274683 
L 48.723257 266.963544 
z
" style="fill:#1f77b4;stroke:#1f77b4;stroke-linejoin:miter;"/>
   </g>
   <g id="patch_26">
    <path clip-path="url(#pa1fdae6cc0)" d="M 50.818303 196.889332 
L 55.667783 201.616845 
L 52.335555 202.091802 
L 51.985557 202.144771 
L 51.984794 202.141798 
L 48.652566 202.616755 
z
" style="fill:#1f77b4;stroke:#1f77b4;stroke-linejoin:miter;"/>
   </g>
   <g id="patch_27">
    <path clip-path="url(#pa1fdae6cc0)" d="M 51.809281 149.463514 
L 55.727675 154.648334 
L 52.339147 154.772755 
L 51.982594 154.787883 
L 51.98246 154.785852 
L 48.593931 154.910274 
z
" style="fill:#1f77b4;stroke:#1f77b4;stroke-linejoin:miter;"/>
   </g>
   <g id="patch_28">
    <path clip-path="url(#pa1fdae6cc0)" d="M 99.94631 81.769324 
L 92.893448 84.5599 
L 92.810419 82.032593 
L 92.800849 81.766576 
L 92.801679 81.766561 
L 92.71865 79.239254 
z
" style="fill:#1f77b4;stroke:#1f77b4;stroke-linejoin:miter;"/>
   </g>
   <g id="patch_29">
    <path clip-path="url(#pa1fdae6cc0)" d="M 147.774642 95.956902 
L 139.798132 95.675479 
L 141.457183 93.470311 
L 141.631145 93.237906 
L 141.63182 93.238188 
L 143.29087 91.033019 
z
" style="fill:#1f77b4;stroke:#1f77b4;stroke-linejoin:miter;"/>
   </g>
   <g id="patch_30">
    <path clip-path="url(#pa1fdae6cc0)" d="M 134.499667 81.501239 
L 126.596016 80.651742 
L 128.530916 78.575139 
L 128.733717 78.356097 
L 128.73459 78.356549 
L 130.669491 76.279945 
z
" style="fill:#1f77b4;stroke:#1f77b4;stroke-linejoin:miter;"/>
   </g>
   <g id="patch_31">
    <path clip-path="url(#pa1fdae6cc0)" d="M 155.71298 93.659605 
L 147.895119 92.446936 
L 149.998921 90.463628 
L 150.21966 90.254438 
L 150.220373 90.254858 
L 152.324175 88.27155 
z
" style="fill:#1f77b4;stroke:#1f77b4;stroke-linejoin:miter;"/>
   </g>
   <g id="patch_32">
    <path clip-path="url(#pa1fdae6cc0)" d="M 136.766169 48.317173 
L 129.423033 45.979017 
L 132.010587 44.343974 
L 132.281634 44.170698 
L 132.282961 44.171865 
L 134.870515 42.536822 
z
" style="fill:#1f77b4;stroke:#1f77b4;stroke-linejoin:miter;"/>
   </g>
   <g id="patch_33">
    <path clip-path="url(#pa1fdae6cc0)" d="M 181.978945 90.324591 
L 174.782455 87.745656 
L 177.464933 86.197886 
L 177.74653 86.034224 
L 177.747299 86.034963 
L 180.429777 84.487193 
z
" style="fill:#1f77b4;stroke:#1f77b4;stroke-linejoin:miter;"/>
   </g>
   <g id="patch_34">
    <path clip-path="url(#pa1fdae6cc0)" d="M 203.295864 53.615314 
L 196.659005 50.306307 
L 199.607458 49.055717 
L 199.916561 48.922426 
L 199.917822 48.924076 
L 202.866276 47.673486 
z
" style="fill:#1f77b4;stroke:#1f77b4;stroke-linejoin:miter;"/>
   </g>
   <g id="patch_35">
    <path clip-path="url(#pa1fdae6cc0)" d="M 244.057994 112.869257 
L 237.872484 109.105874 
L 240.966894 108.06942 
L 241.292147 107.959533 
L 241.292621 107.960319 
L 244.38703 106.923865 
z
" style="fill:#1f77b4;stroke:#1f77b4;stroke-linejoin:miter;"/>
   </g>
   <g id="patch_36">
    <path clip-path="url(#pa1fdae6cc0)" d="M 265.100861 65.364093 
L 258.972952 61.548746 
L 262.082916 60.538475 
L 262.409176 60.430242 
L 262.410281 60.43213 
L 265.520246 59.42186 
z
" style="fill:#1f77b4;stroke:#1f77b4;stroke-linejoin:miter;"/>
   </g>
   <g id="patch_37">
    <path clip-path="url(#pa1fdae6cc0)" d="M 289.404692 114.548163 
L 283.917041 110.22539 
L 287.164121 109.492826 
L 287.505466 109.4146 
L 287.505919 109.415714 
L 290.753 108.683151 
z
" style="fill:#1f77b4;stroke:#1f77b4;stroke-linejoin:miter;"/>
   </g>
   <g id="patch_38">
    <path clip-path="url(#pa1fdae6cc0)" d="M 272.198052 77.987849 
L 266.16864 74.086338 
L 269.30383 73.120329 
L 269.632912 73.016955 
L 269.63385 73.018644 
L 272.76904 72.052635 
z
" style="fill:#ff7f0e;stroke:#ff7f0e;stroke-linejoin:miter;"/>
   </g>
   <g id="patch_39">
    <path clip-path="url(#pa1fdae6cc0)" d="M 295.521131 134.050882 
L 290.677723 129.319915 
L 294.010559 128.847333 
L 294.361188 128.796823 
L 294.361384 128.797588 
L 297.69422 128.325006 
z
" style="fill:#ff7f0e;stroke:#ff7f0e;stroke-linejoin:miter;"/>
   </g>
   <g id="patch_40">
    <path clip-path="url(#pa1fdae6cc0)" d="M 329.128014 84.094612 
L 323.55267 79.834603 
L 326.784405 79.065283 
L 327.123733 78.982307 
L 327.124588 78.984302 
L 330.356323 78.214982 
z
" style="fill:#ff7f0e;stroke:#ff7f0e;stroke-linejoin:miter;"/>
   </g>
   <g id="patch_41">
    <path clip-path="url(#pa1fdae6cc0)" d="M 319.183916 175.415131 
L 324.649327 171.076742 
L 325.82329 173.448629 
L 325.947266 173.698191 
L 325.946865 173.698301 
L 327.120827 176.070188 
z
" style="fill:#ff7f0e;stroke:#ff7f0e;stroke-linejoin:miter;"/>
   </g>
   <g id="patch_42">
    <path clip-path="url(#pa1fdae6cc0)" d="M 389.860448 56.024263 
L 384.364839 51.707108 
L 387.610567 50.971224 
L 387.950997 50.890761 
L 387.952222 50.893762 
L 391.19795 50.157878 
z
" style="fill:#ff7f0e;stroke:#ff7f0e;stroke-linejoin:miter;"/>
   </g>
   <g id="patch_43">
    <path clip-path="url(#pa1fdae6cc0)" d="M 397.397294 76.044763 
L 392.095304 71.595192 
L 395.37177 70.939292 
L 395.715702 70.867588 
L 395.716662 70.87025 
L 398.993128 70.21435 
z
" style="fill:#ff7f0e;stroke:#ff7f0e;stroke-linejoin:miter;"/>
   </g>
   <g id="patch_44">
    <path clip-path="url(#pa1fdae6cc0)" d="M 411.212025 61.953481 
L 405.843726 57.548278 
L 409.110166 56.865172 
L 409.452855 56.790224 
L 409.454001 56.793266 
L 412.720441 56.11016 
z
" style="fill:#ff7f0e;stroke:#ff7f0e;stroke-linejoin:miter;"/>
   </g>
   <g id="patch_45">
    <path clip-path="url(#pa1fdae6cc0)" d="M 410.441568 115.315186 
L 405.757606 110.495896 
L 409.105188 110.085244 
L 409.457126 110.040031 
L 409.457565 110.042018 
L 412.805147 109.631366 
z
" style="fill:#ff7f0e;stroke:#ff7f0e;stroke-linejoin:miter;"/>
   </g>
   <g id="patch_46">
    <path clip-path="url(#pa1fdae6cc0)" d="M 356.758669 192.963332 
L 363.847071 190.223214 
L 363.897616 192.750997 
L 363.903596 193.017072 
L 363.902936 193.01708 
L 363.953481 195.544863 
z
" style="fill:#ff7f0e;stroke:#ff7f0e;stroke-linejoin:miter;"/>
   </g>
   <g id="patch_47">
    <path clip-path="url(#pa1fdae6cc0)" d="M 288.426823 173.942076 
L 296.407391 174.15004 
L 294.785031 176.370315 
L 294.614694 176.604205 
L 294.614256 176.604028 
L 292.991896 178.824302 
z
" style="fill:#ff7f0e;stroke:#ff7f0e;stroke-linejoin:miter;"/>
   </g>
   <g id="patch_48">
    <path clip-path="url(#pa1fdae6cc0)" d="M 330.693354 191.916673 
L 338.661737 191.527897 
L 337.346003 193.858102 
L 337.208178 194.103598 
L 337.207505 194.103387 
L 335.891771 196.433592 
z
" style="fill:#ff7f0e;stroke:#ff7f0e;stroke-linejoin:miter;"/>
   </g>
   <g id="patch_49">
    <path clip-path="url(#pa1fdae6cc0)" d="M 296.383661 178.509468 
L 304.357832 178.825561 
L 302.681546 181.02348 
L 302.505595 181.255052 
L 302.505095 181.25484 
L 300.828808 183.452759 
z
" style="fill:#ff7f0e;stroke:#ff7f0e;stroke-linejoin:miter;"/>
   </g>
   <g id="patch_50">
    <path clip-path="url(#pa1fdae6cc0)" d="M 354.780863 229.081212 
L 362.459527 230.714708 
L 360.167569 232.578644 
L 359.927498 232.775659 
L 359.92631 232.774848 
L 357.634352 234.638784 
z
" style="fill:#ff7f0e;stroke:#ff7f0e;stroke-linejoin:miter;"/>
   </g>
   <g id="patch_51">
    <path clip-path="url(#pa1fdae6cc0)" d="M 297.697275 190.008892 
L 305.37093 191.655404 
L 303.073286 193.515449 
L 302.832094 193.7117 
L 302.831428 193.711243 
L 300.533784 195.571288 
z
" style="fill:#ff7f0e;stroke:#ff7f0e;stroke-linejoin:miter;"/>
   </g>
   <g id="patch_52">
    <path clip-path="url(#pa1fdae6cc0)" d="M 284.881759 229.660187 
L 291.787956 232.647512 
L 288.952373 234.035488 
L 288.655093 234.182956 
L 288.65389 234.181591 
L 285.818307 235.569567 
z
" style="fill:#ff7f0e;stroke:#ff7f0e;stroke-linejoin:miter;"/>
   </g>
   <g id="patch_53">
    <path clip-path="url(#pa1fdae6cc0)" d="M 253.75756 193.007476 
L 260.535243 196.153994 
L 257.642895 197.475333 
L 257.339153 197.615292 
L 257.338437 197.614422 
L 254.446089 198.935761 
z
" style="fill:#ff7f0e;stroke:#ff7f0e;stroke-linejoin:miter;"/>
   </g>
   <g id="patch_54">
    <path clip-path="url(#pa1fdae6cc0)" d="M 226.374056 227.970229 
L 232.748175 231.554599 
L 229.709219 232.678472 
L 229.390511 232.79855 
L 229.389329 232.796774 
L 226.350373 233.920648 
z
" style="fill:#ff7f0e;stroke:#ff7f0e;stroke-linejoin:miter;"/>
   </g>
   <g id="patch_55">
    <path clip-path="url(#pa1fdae6cc0)" d="M 189.437037 160.740416 
L 194.90141 165.079531 
L 191.650419 165.802398 
L 191.3085 165.879217 
L 191.308209 165.87849 
L 188.057217 166.601357 
z
" style="fill:#ff7f0e;stroke:#ff7f0e;stroke-linejoin:miter;"/>
   </g>
   <g id="patch_56">
    <path clip-path="url(#pa1fdae6cc0)" d="M 167.442393 218.159292 
L 173.351864 222.161405 
L 170.188161 223.074337 
L 169.856191 223.172458 
L 169.855139 223.170435 
L 166.691435 224.083367 
z
" style="fill:#ff7f0e;stroke:#ff7f0e;stroke-linejoin:miter;"/>
   </g>
   <g id="patch_57">
    <path clip-path="url(#pa1fdae6cc0)" d="M 142.56332 150.582691 
L 147.038139 155.511095 
L 143.674651 155.841794 
L 143.320756 155.877488 
L 143.320599 155.876604 
L 139.957111 156.207303 
z
" style="fill:#ff7f0e;stroke:#ff7f0e;stroke-linejoin:miter;"/>
   </g>
   <g id="patch_58">
    <path clip-path="url(#pa1fdae6cc0)" d="M 94.908516 187.553171 
L 100.074678 192.090592 
L 96.779219 192.691339 
L 96.432973 192.756537 
L 96.432329 192.754576 
L 93.13687 193.355323 
z
" style="fill:#ff7f0e;stroke:#ff7f0e;stroke-linejoin:miter;"/>
   </g>
   <g id="patch_59">
    <path clip-path="url(#pa1fdae6cc0)" d="M 93.06283 117.784786 
L 94.114139 123.683438 
L 90.906334 122.860384 
L 90.568385 122.774364 
L 90.56867 122.773747 
L 87.360864 121.950693 
z
" style="fill:#ff7f0e;stroke:#ff7f0e;stroke-linejoin:miter;"/>
   </g>
   <g id="patch_60">
    <path clip-path="url(#pa1fdae6cc0)" d="M 49.971945 261.172419 
L 55.558925 265.423955 
L 52.329299 266.198179 
L 51.990957 266.283425 
L 51.989339 266.279677 
L 48.759714 267.053901 
z
" style="fill:#ff7f0e;stroke:#ff7f0e;stroke-linejoin:miter;"/>
   </g>
   <g id="patch_61">
    <path clip-path="url(#pa1fdae6cc0)" d="M 50.554583 196.931276 
L 55.639969 201.519086 
L 52.334161 202.087387 
L 51.986948 202.149683 
L 51.986181 202.147208 
L 48.680373 202.715508 
z
" style="fill:#ff7f0e;stroke:#ff7f0e;stroke-linejoin:miter;"/>
   </g>
   <g id="patch_62">
    <path clip-path="url(#pa1fdae6cc0)" d="M 51.685091 149.469376 
L 55.72407 154.602558 
L 52.338963 154.770936 
L 51.982774 154.790196 
L 51.982636 154.78866 
L 48.59753 154.957038 
z
" style="fill:#ff7f0e;stroke:#ff7f0e;stroke-linejoin:miter;"/>
   </g>
   <g id="patch_63">
    <path clip-path="url(#pa1fdae6cc0)" d="M 113.677632 94.227616 
L 106.038827 95.961781 
L 106.605852 93.469276 
L 106.664862 93.206821 
L 106.665538 93.206907 
L 107.232562 90.714402 
z
" style="fill:#ff7f0e;stroke:#ff7f0e;stroke-linejoin:miter;"/>
   </g>
   <g id="patch_64">
    <path clip-path="url(#pa1fdae6cc0)" d="M 184.907298 118.737195 
L 176.949332 118.243968 
L 178.71287 116.084293 
L 178.898133 115.856791 
L 178.898505 115.856959 
L 180.662043 113.697284 
z
" style="fill:#ff7f0e;stroke:#ff7f0e;stroke-linejoin:miter;"/>
   </g>
   <g id="patch_65">
    <path clip-path="url(#pa1fdae6cc0)" d="M 128.192221 88.071572 
L 120.238398 87.542533 
L 122.019411 85.390836 
L 122.206104 85.163982 
L 122.206887 85.164341 
L 123.9879 83.012644 
z
" style="fill:#ff7f0e;stroke:#ff7f0e;stroke-linejoin:miter;"/>
   </g>
   <g id="patch_66">
    <path clip-path="url(#pa1fdae6cc0)" d="M 161.620066 104.466058 
L 153.704554 103.680265 
L 155.609222 101.588199 
L 155.809148 101.367696 
L 155.809713 101.367982 
L 157.714381 99.275916 
z
" style="fill:#ff7f0e;stroke:#ff7f0e;stroke-linejoin:miter;"/>
   </g>
   <g id="patch_67">
    <path clip-path="url(#pa1fdae6cc0)" d="M 149.320427 63.534005 
L 142.059207 61.057868 
L 144.701562 59.472237 
L 144.97858 59.304288 
L 144.979705 59.305329 
L 147.62206 57.719699 
z
" style="fill:#ff7f0e;stroke:#ff7f0e;stroke-linejoin:miter;"/>
   </g>
   <g id="patch_68">
    <path clip-path="url(#pa1fdae6cc0)" d="M 188.859718 100.596556 
L 181.637965 98.057138 
L 184.305091 96.494706 
L 184.58521 96.329641 
L 184.585841 96.33024 
L 187.252968 94.767808 
z
" style="fill:#ff7f0e;stroke:#ff7f0e;stroke-linejoin:miter;"/>
   </g>
   <g id="patch_69">
    <path clip-path="url(#pa1fdae6cc0)" d="M 218.865423 74.879055 
L 212.326505 71.463492 
L 215.310688 70.260881 
L 215.623835 70.132942 
L 215.624813 70.13429 
L 218.608996 68.931678 
z
" style="fill:#ff7f0e;stroke:#ff7f0e;stroke-linejoin:miter;"/>
   </g>
   <g id="patch_70">
    <path clip-path="url(#pa1fdae6cc0)" d="M 244.429286 113.700504 
L 238.25497 109.926927 
L 241.352451 108.89558 
L 241.678038 108.786244 
L 241.678502 108.787017 
L 244.775982 107.755669 
z
" style="fill:#ff7f0e;stroke:#ff7f0e;stroke-linejoin:miter;"/>
   </g>
   <g id="patch_71">
    <path clip-path="url(#pa1fdae6cc0)" d="M 269.304635 72.739634 
L 263.230264 68.87704 
L 266.35415 67.890907 
L 266.681974 67.785332 
L 266.68298 67.787103 
L 269.806866 66.800969 
z
" style="fill:#ff7f0e;stroke:#ff7f0e;stroke-linejoin:miter;"/>
   </g>
   <g id="patch_72">
    <path clip-path="url(#pa1fdae6cc0)" d="M 288.585811 112.020656 
L 283.021133 107.752911 
L 286.254787 106.988081 
L 286.594685 106.906431 
L 286.595171 106.907573 
L 289.828825 106.142743 
z
" style="fill:#ff7f0e;stroke:#ff7f0e;stroke-linejoin:miter;"/>
   </g>
   <g id="matplotlib.axis_1">
    <g id="xtick_1">
     <g id="line2d_1">
      <defs>
       <path d="M 0 0 
L 0 3.5 
" id="m2c13eb3fb4" style="stroke:#000000;stroke-width:0.8;"/>
      </defs>
      <g>
       <use style="stroke:#000000;stroke-width:0.8;" x="87.872938" xlink:href="#m2c13eb3fb4" y="276.812"/>
      </g>
     </g>
     <g id="text_1">
      <!-- −0.4 -->
      <defs>
       <path d="M 10.59375 35.5 
L 73.1875 35.5 
L 73.1875 27.203125 
L 10.59375 27.203125 
z
" id="DejaVuSans-2212"/>
       <path d="M 31.78125 66.40625 
Q 24.171875 66.40625 20.328125 58.90625 
Q 16.5 51.421875 16.5 36.375 
Q 16.5 21.390625 20.328125 13.890625 
Q 24.171875 6.390625 31.78125 6.390625 
Q 39.453125 6.390625 43.28125 13.890625 
Q 47.125 21.390625 47.125 36.375 
Q 47.125 51.421875 43.28125 58.90625 
Q 39.453125 66.40625 31.78125 66.40625 
M 31.78125 74.21875 
Q 44.046875 74.21875 50.515625 64.515625 
Q 56.984375 54.828125 56.984375 36.375 
Q 56.984375 17.96875 50.515625 8.265625 
Q 44.046875 -1.421875 31.78125 -1.421875 
Q 19.53125 -1.421875 13.0625 8.265625 
Q 6.59375 17.96875 6.59375 36.375 
Q 6.59375 54.828125 13.0625 64.515625 
Q 19.53125 74.21875 31.78125 74.21875 
" id="DejaVuSans-30"/>
       <path d="M 10.6875 12.40625 
L 21 12.40625 
L 21 0 
L 10.6875 0 
z
" id="DejaVuSans-2e"/>
       <path d="M 37.796875 64.3125 
L 12.890625 25.390625 
L 37.796875 25.390625 
z
M 35.203125 72.90625 
L 47.609375 72.90625 
L 47.609375 25.390625 
L 58.015625 25.390625 
L 58.015625 17.1875 
L 47.609375 17.1875 
L 47.609375 0 
L 37.796875 0 
L 37.796875 17.1875 
L 4.890625 17.1875 
L 4.890625 26.703125 
z
" id="DejaVuSans-34"/>
      </defs>
      <g transform="translate(75.731531 291.410438)scale(0.1 -0.1)">
       <use xlink:href="#DejaVuSans-2212"/>
       <use x="83.789062" xlink:href="#DejaVuSans-30"/>
       <use x="147.412109" xlink:href="#DejaVuSans-2e"/>
       <use x="179.199219" xlink:href="#DejaVuSans-34"/>
      </g>
     </g>
    </g>
    <g id="xtick_2">
     <g id="line2d_2">
      <g>
       <use style="stroke:#000000;stroke-width:0.8;" x="159.296938" xlink:href="#m2c13eb3fb4" y="276.812"/>
      </g>
     </g>
     <g id="text_2">
      <!-- −0.2 -->
      <defs>
       <path d="M 19.1875 8.296875 
L 53.609375 8.296875 
L 53.609375 0 
L 7.328125 0 
L 7.328125 8.296875 
Q 12.9375 14.109375 22.625 23.890625 
Q 32.328125 33.6875 34.8125 36.53125 
Q 39.546875 41.84375 41.421875 45.53125 
Q 43.3125 49.21875 43.3125 52.78125 
Q 43.3125 58.59375 39.234375 62.25 
Q 35.15625 65.921875 28.609375 65.921875 
Q 23.96875 65.921875 18.8125 64.3125 
Q 13.671875 62.703125 7.8125 59.421875 
L 7.8125 69.390625 
Q 13.765625 71.78125 18.9375 73 
Q 24.125 74.21875 28.421875 74.21875 
Q 39.75 74.21875 46.484375 68.546875 
Q 53.21875 62.890625 53.21875 53.421875 
Q 53.21875 48.921875 51.53125 44.890625 
Q 49.859375 40.875 45.40625 35.40625 
Q 44.1875 33.984375 37.640625 27.21875 
Q 31.109375 20.453125 19.1875 8.296875 
" id="DejaVuSans-32"/>
      </defs>
      <g transform="translate(147.155531 291.410438)scale(0.1 -0.1)">
       <use xlink:href="#DejaVuSans-2212"/>
       <use x="83.789062" xlink:href="#DejaVuSans-30"/>
       <use x="147.412109" xlink:href="#DejaVuSans-2e"/>
       <use x="179.199219" xlink:href="#DejaVuSans-32"/>
      </g>
     </g>
    </g>
    <g id="xtick_3">
     <g id="line2d_3">
      <g>
       <use style="stroke:#000000;stroke-width:0.8;" x="230.720938" xlink:href="#m2c13eb3fb4" y="276.812"/>
      </g>
     </g>
     <g id="text_3">
      <!-- 0.0 -->
      <g transform="translate(222.769375 291.410438)scale(0.1 -0.1)">
       <use xlink:href="#DejaVuSans-30"/>
       <use x="63.623047" xlink:href="#DejaVuSans-2e"/>
       <use x="95.410156" xlink:href="#DejaVuSans-30"/>
      </g>
     </g>
    </g>
    <g id="xtick_4">
     <g id="line2d_4">
      <g>
       <use style="stroke:#000000;stroke-width:0.8;" x="302.144938" xlink:href="#m2c13eb3fb4" y="276.812"/>
      </g>
     </g>
     <g id="text_4">
      <!-- 0.2 -->
      <g transform="translate(294.193375 291.410438)scale(0.1 -0.1)">
       <use xlink:href="#DejaVuSans-30"/>
       <use x="63.623047" xlink:href="#DejaVuSans-2e"/>
       <use x="95.410156" xlink:href="#DejaVuSans-32"/>
      </g>
     </g>
    </g>
    <g id="xtick_5">
     <g id="line2d_5">
      <g>
       <use style="stroke:#000000;stroke-width:0.8;" x="373.568938" xlink:href="#m2c13eb3fb4" y="276.812"/>
      </g>
     </g>
     <g id="text_5">
      <!-- 0.4 -->
      <g transform="translate(365.617375 291.410438)scale(0.1 -0.1)">
       <use xlink:href="#DejaVuSans-30"/>
       <use x="63.623047" xlink:href="#DejaVuSans-2e"/>
       <use x="95.410156" xlink:href="#DejaVuSans-34"/>
      </g>
     </g>
    </g>
    <g id="text_6">
     <!-- x1 -->
     <defs>
      <path d="M 54.890625 54.6875 
L 35.109375 28.078125 
L 55.90625 0 
L 45.3125 0 
L 29.390625 21.484375 
L 13.484375 0 
L 2.875 0 
L 24.125 28.609375 
L 4.6875 54.6875 
L 15.28125 54.6875 
L 29.78125 35.203125 
L 44.28125 54.6875 
z
" id="DejaVuSans-78"/>
      <path d="M 12.40625 8.296875 
L 28.515625 8.296875 
L 28.515625 63.921875 
L 10.984375 60.40625 
L 10.984375 69.390625 
L 28.421875 72.90625 
L 38.28125 72.90625 
L 38.28125 8.296875 
L 54.390625 8.296875 
L 54.390625 0 
L 12.40625 0 
z
" id="DejaVuSans-31"/>
     </defs>
     <g transform="translate(224.580313 305.088562)scale(0.1 -0.1)">
      <use xlink:href="#DejaVuSans-78"/>
      <use x="59.179688" xlink:href="#DejaVuSans-31"/>
     </g>
    </g>
   </g>
   <g id="matplotlib.axis_2">
    <g id="ytick_1">
     <g id="line2d_6">
      <defs>
       <path d="M 0 0 
L -3.5 0 
" id="mca35e9fad8" style="stroke:#000000;stroke-width:0.8;"/>
      </defs>
      <g>
       <use style="stroke:#000000;stroke-width:0.8;" x="52.160938" xlink:href="#mca35e9fad8" y="250.2008"/>
      </g>
     </g>
     <g id="text_7">
      <!-- −0.4 -->
      <g transform="translate(20.878125 254.000019)scale(0.1 -0.1)">
       <use xlink:href="#DejaVuSans-2212"/>
       <use x="83.789062" xlink:href="#DejaVuSans-30"/>
       <use x="147.412109" xlink:href="#DejaVuSans-2e"/>
       <use x="179.199219" xlink:href="#DejaVuSans-34"/>
      </g>
     </g>
    </g>
    <g id="ytick_2">
     <g id="line2d_7">
      <g>
       <use style="stroke:#000000;stroke-width:0.8;" x="52.160938" xlink:href="#mca35e9fad8" y="196.9784"/>
      </g>
     </g>
     <g id="text_8">
      <!-- −0.2 -->
      <g transform="translate(20.878125 200.777619)scale(0.1 -0.1)">
       <use xlink:href="#DejaVuSans-2212"/>
       <use x="83.789062" xlink:href="#DejaVuSans-30"/>
       <use x="147.412109" xlink:href="#DejaVuSans-2e"/>
       <use x="179.199219" xlink:href="#DejaVuSans-32"/>
      </g>
     </g>
    </g>
    <g id="ytick_3">
     <g id="line2d_8">
      <g>
       <use style="stroke:#000000;stroke-width:0.8;" x="52.160938" xlink:href="#mca35e9fad8" y="143.756"/>
      </g>
     </g>
     <g id="text_9">
      <!-- 0.0 -->
      <g transform="translate(29.257812 147.555219)scale(0.1 -0.1)">
       <use xlink:href="#DejaVuSans-30"/>
       <use x="63.623047" xlink:href="#DejaVuSans-2e"/>
       <use x="95.410156" xlink:href="#DejaVuSans-30"/>
      </g>
     </g>
    </g>
    <g id="ytick_4">
     <g id="line2d_9">
      <g>
       <use style="stroke:#000000;stroke-width:0.8;" x="52.160938" xlink:href="#mca35e9fad8" y="90.5336"/>
      </g>
     </g>
     <g id="text_10">
      <!-- 0.2 -->
      <g transform="translate(29.257812 94.332819)scale(0.1 -0.1)">
       <use xlink:href="#DejaVuSans-30"/>
       <use x="63.623047" xlink:href="#DejaVuSans-2e"/>
       <use x="95.410156" xlink:href="#DejaVuSans-32"/>
      </g>
     </g>
    </g>
    <g id="ytick_5">
     <g id="line2d_10">
      <g>
       <use style="stroke:#000000;stroke-width:0.8;" x="52.160938" xlink:href="#mca35e9fad8" y="37.3112"/>
      </g>
     </g>
     <g id="text_11">
      <!-- 0.4 -->
      <g transform="translate(29.257812 41.110419)scale(0.1 -0.1)">
       <use xlink:href="#DejaVuSans-30"/>
       <use x="63.623047" xlink:href="#DejaVuSans-2e"/>
       <use x="95.410156" xlink:href="#DejaVuSans-34"/>
      </g>
     </g>
    </g>
    <g id="text_12">
     <!-- x2 -->
     <g transform="translate(14.798438 149.896625)rotate(-90)scale(0.1 -0.1)">
      <use xlink:href="#DejaVuSans-78"/>
      <use x="59.179688" xlink:href="#DejaVuSans-32"/>
     </g>
    </g>
   </g>
   <g id="line2d_11">
    <path clip-path="url(#pa1fdae6cc0)" d="M 230.720938 10.7 
L 240.810609 25.967149 
L 249.725089 39.908964 
L 257.566815 52.630976 
L 264.429972 64.231291 
L 270.401124 74.800316 
L 275.559969 84.420986 
L 279.979797 93.169196 
L 283.728006 101.11435 
L 286.866644 108.319961 
L 289.452877 114.844249 
L 291.539395 120.740709 
L 293.174745 126.058603 
L 294.403659 130.843406 
L 295.267344 135.137187 
L 295.803746 138.978946 
L 296.047788 142.404897 
L 296.031578 145.448716 
L 295.784608 148.14174 
L 295.333933 150.513147 
L 294.704344 152.590111 
L 293.918518 154.397932 
L 292.997161 155.96015 
L 291.959154 157.298659 
L 290.821679 158.433802 
L 289.389675 159.526244 
L 287.865768 160.395166 
L 286.26974 161.065773 
L 284.379783 161.618733 
L 282.196632 162.005467 
L 279.732602 162.188649 
L 277.012017 162.144329 
L 274.070575 161.862873 
L 270.717982 161.301906 
L 267.039183 160.444879 
L 263.142391 159.308447 
L 258.771713 157.798796 
L 254.025083 155.91964 
L 248.859134 153.628886 
L 243.392458 150.955844 
L 237.826882 147.985167 
L 232.665941 144.983988 
L 230.720937 143.756 
L 230.720937 143.756 
" style="fill:none;stroke:#1f77b4;stroke-linecap:square;stroke-width:0.5;"/>
   </g>
   <g id="line2d_12">
    <path clip-path="url(#pa1fdae6cc0)" d="M 292.020663 10.7 
L 298.832986 22.878266 
L 305.011068 34.3364 
L 310.592307 45.114274 
L 315.612496 55.249336 
L 320.105115 64.775776 
L 324.101889 73.725258 
L 327.633188 82.127563 
L 330.72757 90.010026 
L 333.412187 97.398186 
L 335.712941 104.316085 
L 337.654471 110.786322 
L 339.260221 116.830218 
L 340.552515 122.467991 
L 341.552622 127.718912 
L 342.280824 132.601442 
L 342.756428 137.133265 
L 342.997802 141.331361 
L 343.022416 145.21208 
L 342.846877 148.791199 
L 342.486962 152.083964 
L 341.957648 155.105128 
L 341.273129 157.868957 
L 340.446847 160.389248 
L 339.491514 162.679343 
L 338.419138 164.752138 
L 337.241046 166.620081 
L 335.967912 168.295194 
L 334.258074 170.135502 
L 332.433647 171.714234 
L 330.511486 173.051982 
L 328.5071 174.16829 
L 326.434721 175.081654 
L 323.876375 175.934309 
L 321.259173 176.548042 
L 318.601285 176.949029 
L 315.470426 177.180117 
L 312.328533 177.189582 
L 308.748914 176.969551 
L 304.764759 176.477785 
L 300.423923 175.689201 
L 295.788059 174.597739 
L 290.930379 173.216288 
L 285.559836 171.44436 
L 279.84226 169.313266 
L 273.651963 166.758984 
L 267.017258 163.772696 
L 259.911548 160.323838 
L 252.308764 156.377715 
L 244.531061 152.087351 
L 236.919384 147.636595 
L 230.897132 143.874582 
L 230.720937 143.756 
L 230.720937 143.756 
" style="fill:none;stroke:#1f77b4;stroke-linecap:square;stroke-width:0.5;"/>
   </g>
   <g id="line2d_13">
    <path clip-path="url(#pa1fdae6cc0)" d="M 369.699764 10.7 
L 374.822628 22.245971 
L 379.490596 33.303442 
L 383.722729 43.8885 
L 387.537904 54.016244 
L 390.954321 63.70052 
L 393.989577 72.954054 
L 396.660773 81.788685 
L 398.984534 90.215497 
L 400.977065 98.245018 
L 402.654165 105.887324 
L 404.031216 113.152127 
L 405.123228 120.048904 
L 405.944835 126.586963 
L 406.510284 132.775508 
L 406.833466 138.623705 
L 406.927903 144.140717 
L 406.806767 149.335735 
L 406.482805 154.218019 
L 405.968421 158.79689 
L 405.275652 163.081741 
L 404.416142 167.082042 
L 403.401161 170.807318 
L 402.241576 174.267176 
L 400.947875 177.471246 
L 399.530159 180.429191 
L 397.998146 183.150657 
L 396.361164 185.645267 
L 394.628157 187.922614 
L 392.80768 189.99221 
L 390.907907 191.863469 
L 388.936635 193.545711 
L 386.901287 195.048106 
L 384.808925 196.379658 
L 381.941943 197.904566 
L 379.000378 199.161857 
L 375.998063 200.171258 
L 372.947791 200.951766 
L 369.861356 201.521602 
L 366.749595 201.898176 
L 362.839317 202.122303 
L 358.922406 202.100835 
L 355.014376 201.862211 
L 350.355593 201.326195 
L 345.749625 200.557033 
L 341.213713 199.592352 
L 336.029382 198.264581 
L 330.268412 196.537648 
L 324.70218 194.645011 
L 318.691411 192.380911 
L 311.724883 189.502543 
L 304.614394 186.316025 
L 296.964745 182.641726 
L 288.586295 178.362016 
L 279.533391 173.478501 
L 269.789419 167.964823 
L 259.119521 161.667541 
L 247.576563 154.593233 
L 236.031749 147.25928 
L 230.720937 143.756 
L 230.720937 143.756 
" style="fill:none;stroke:#1f77b4;stroke-linecap:square;stroke-width:0.5;"/>
   </g>
   <g id="line2d_14">
    <path clip-path="url(#pa1fdae6cc0)" d="M 409.280938 56.826177 
L 410.42357 60.367761 
" style="fill:none;stroke:#1f77b4;stroke-linecap:square;stroke-width:0.5;"/>
   </g>
   <g id="line2d_15">
    <path clip-path="url(#pa1fdae6cc0)" d="M 409.280938 110.061645 
L 409.716371 112.543593 
" style="fill:none;stroke:#1f77b4;stroke-linecap:square;stroke-width:0.5;"/>
   </g>
   <g id="line2d_16">
    <path clip-path="url(#pa1fdae6cc0)" d="M 409.280938 154.781334 
L 408.742032 159.454645 
L 408.021063 163.826777 
L 407.129897 167.907283 
L 406.080032 171.705892 
L 404.882676 175.232381 
L 403.548732 178.496604 
L 402.088587 181.508435 
L 400.512152 184.277751 
L 398.828946 186.814415 
L 397.048121 189.128261 
L 395.178455 191.229061 
L 393.228336 193.126503 
L 391.205762 194.830157 
L 389.118349 196.349446 
L 386.973327 197.693666 
L 384.035503 199.229303 
L 381.022695 200.490908 
L 377.949056 201.498833 
L 374.827679 202.272656 
L 371.670617 202.831164 
L 368.488948 203.192275 
L 364.492613 203.392016 
L 360.491446 203.341384 
L 356.501252 203.069674 
L 351.746967 202.489874 
L 347.049161 201.673591 
L 342.425294 200.659471 
L 337.143437 199.272247 
L 331.277908 197.476486 
L 325.614542 195.515474 
L 319.50319 193.176321 
L 313.050964 190.482669 
L 305.789732 187.207369 
L 297.982259 183.432144 
L 289.436768 179.037843 
L 280.211501 174.028788 
L 270.293235 168.381655 
L 259.448529 161.944873 
L 247.593631 154.642206 
L 235.834329 147.139326 
L 230.720937 143.756 
L 230.720938 143.756 
" style="fill:none;stroke:#1f77b4;stroke-linecap:square;stroke-width:0.5;"/>
   </g>
   <g id="line2d_17">
    <path clip-path="url(#pa1fdae6cc0)" d="M 409.280938 202.119773 
L 406.892845 203.993056 
L 404.433884 205.647248 
L 401.912386 207.093307 
L 399.336618 208.342597 
L 396.714288 209.406124 
L 394.052674 210.294623 
L 390.454579 211.225102 
L 386.81393 211.887025 
L 383.144474 212.303323 
L 379.458768 212.495875 
L 375.768258 212.485474 
L 371.164069 212.216924 
L 366.586518 211.69784 
L 362.051279 210.961367 
L 356.683773 209.83327 
L 351.416328 208.48328 
L 345.418782 206.683961 
L 339.599417 204.698664 
L 333.185998 202.266261 
L 326.291545 199.395944 
L 319.043836 196.1248 
L 311.580029 192.515188 
L 303.440254 188.333192 
L 294.401002 183.427539 
L 284.522383 177.796206 
L 273.790515 171.409398 
L 261.956658 164.099605 
L 248.649413 155.609943 
L 234.795929 146.508768 
L 230.720937 143.756 
L 230.720938 143.756 
" style="fill:none;stroke:#1f77b4;stroke-linecap:square;stroke-width:0.5;"/>
   </g>
   <g id="line2d_18">
    <path clip-path="url(#pa1fdae6cc0)" d="M 409.280938 266.242677 
L 402.774492 263.659708 
L 396.411472 260.898365 
L 390.200575 257.994588 
L 382.661133 254.213618 
L 375.379627 250.315735 
L 366.990824 245.549938 
L 358.987506 240.751605 
L 350.137695 235.185378 
L 340.658168 228.948257 
L 330.780541 222.177702 
L 319.788032 214.353921 
L 308.226403 205.837866 
L 295.921689 196.496726 
L 282.007173 185.645247 
L 266.373504 173.159869 
L 248.395255 158.506953 
L 232.207908 145.046822 
L 230.720739 143.755959 
L 230.720938 143.756 
" style="fill:none;stroke:#1f77b4;stroke-linecap:square;stroke-width:0.5;"/>
   </g>
   <g id="line2d_19">
    <path clip-path="url(#pa1fdae6cc0)" d="M 327.352777 276.812 
L 313.844842 262.541453 
L 301.802772 249.506024 
L 289.845026 236.260278 
L 278.326504 223.193256 
L 267.548202 210.650797 
L 257.745891 198.91751 
L 249.084828 188.20663 
L 242.132625 179.279089 
L 236.228485 171.350389 
L 231.672199 164.886405 
L 228.00147 159.306562 
L 225.334899 154.871099 
L 223.363201 151.164657 
L 222.092409 148.310961 
L 221.358423 146.138921 
L 221.030327 144.509444 
L 221.004164 143.309675 
L 221.197818 142.448249 
L 221.546844 141.8514 
L 222.031989 141.440953 
L 222.693088 141.178638 
L 223.579384 141.085114 
L 224.708657 141.200022 
L 226.175796 141.583351 
L 227.996805 142.299432 
L 230.052698 143.350932 
L 230.720938 143.756 
L 230.720938 143.756 
" style="fill:none;stroke:#1f77b4;stroke-linecap:square;stroke-width:0.5;"/>
   </g>
   <g id="line2d_20">
    <path clip-path="url(#pa1fdae6cc0)" d="M 260.517332 276.812 
L 250.375647 262.807144 
L 239.902071 247.94614 
L 230.754752 234.548642 
L 222.802281 222.486252 
L 215.924957 211.639007 
L 210.013899 201.896176 
L 204.970205 193.156405 
L 200.704058 185.327364 
L 197.133891 178.325097 
L 194.185671 172.073339 
L 191.792238 166.502842 
L 189.892623 161.550622 
L 188.431462 157.159296 
L 187.358533 153.276544 
L 186.628335 149.854644 
L 186.199667 146.850009 
L 186.035228 144.222778 
L 186.101299 141.936485 
L 186.367448 139.957778 
L 186.806233 138.256135 
L 187.392958 136.803642 
L 188.105435 135.574781 
L 189.048252 134.414403 
L 190.103026 133.48419 
L 191.246593 132.755758 
L 192.614106 132.145833 
L 194.20513 131.690731 
L 196.009104 131.416184 
L 198.005476 131.336332 
L 200.329656 131.470006 
L 202.931022 131.844763 
L 205.888562 132.498893 
L 209.217081 133.467906 
L 212.96346 134.799164 
L 217.089158 136.511391 
L 221.479603 138.579331 
L 226.014078 140.963369 
L 230.090703 143.350515 
L 230.720938 143.756 
L 230.720937 143.756 
" style="fill:none;stroke:#1f77b4;stroke-linecap:square;stroke-width:0.5;"/>
   </g>
   <g id="line2d_21">
    <path clip-path="url(#pa1fdae6cc0)" d="M 200.924543 276.812 
L 192.468364 262.921401 
L 184.909647 250.054781 
L 178.18192 238.141069 
L 172.22351 227.114846 
L 166.976838 216.915717 
L 162.3883 207.488233 
L 158.407895 198.781405 
L 154.988858 190.748171 
L 152.087465 183.34505 
L 149.662808 176.531763 
L 147.676591 170.270864 
L 146.092932 164.527396 
L 144.878222 159.26863 
L 144.000975 154.46383 
L 143.431713 150.084054 
L 143.142841 146.10198 
L 143.108555 142.491772 
L 143.304727 139.228944 
L 143.708826 136.290277 
L 144.299851 133.653755 
L 145.058236 131.298485 
L 145.96578 129.204642 
L 147.005578 127.353429 
L 148.161952 125.727034 
L 149.420369 124.308585 
L 150.767415 123.082143 
L 152.483514 121.842731 
L 154.289959 120.833806 
L 156.169173 120.032729 
L 158.432461 119.332866 
L 160.750779 118.856624 
L 163.442521 118.550413 
L 166.155101 118.46222 
L 169.204954 118.582035 
L 172.561735 118.938258 
L 176.183002 119.544349 
L 180.328492 120.476748 
L 184.593193 121.661815 
L 189.454682 123.250961 
L 194.696363 125.208579 
L 200.292437 127.54027 
L 206.262593 130.268825 
L 212.628961 133.423625 
L 219.224072 136.940389 
L 225.671128 140.628378 
L 230.717067 143.753322 
L 230.720938 143.756 
L 230.720938 143.756 
" style="fill:none;stroke:#1f77b4;stroke-linecap:square;stroke-width:0.5;"/>
   </g>
   <g id="line2d_22">
    <path clip-path="url(#pa1fdae6cc0)" d="M 134.089098 276.812 
L 127.310763 263.375291 
L 121.232656 250.718552 
L 115.814099 238.801224 
L 111.016236 227.586053 
L 106.802312 217.039211 
L 103.137305 207.129643 
L 99.987744 197.828599 
L 97.321703 189.109432 
L 95.108651 180.94719 
L 93.319331 173.318267 
L 91.925718 166.200202 
L 90.900969 159.571455 
L 90.219384 153.411294 
L 89.856355 147.699596 
L 89.788333 142.416738 
L 89.99281 137.543536 
L 90.448304 133.061224 
L 91.134329 128.951375 
L 92.031375 125.1959 
L 93.120893 121.777044 
L 94.385268 118.677396 
L 95.80784 115.879887 
L 97.372817 113.367839 
L 99.065377 111.124918 
L 100.871484 109.13526 
L 102.777951 107.383441 
L 104.772408 105.854506 
L 106.843278 104.533986 
L 108.979751 103.407924 
L 111.171749 102.462892 
L 113.975624 101.516589 
L 116.834856 100.809082 
L 119.734187 100.317767 
L 122.659829 100.021398 
L 126.187922 99.895165 
L 129.717078 99.989234 
L 133.813829 100.338683 
L 137.867203 100.906597 
L 142.422699 101.775528 
L 147.422715 102.975494 
L 152.794171 104.515667 
L 158.450719 106.383441 
L 164.296318 108.545884 
L 170.668637 111.139035 
L 177.75102 114.273794 
L 185.184177 117.813467 
L 193.193615 121.877114 
L 201.825383 126.510376 
L 210.987359 131.684921 
L 220.332769 137.220242 
L 228.60017 142.366142 
L 230.720938 143.756 
L 230.720937 143.756 
" style="fill:none;stroke:#1f77b4;stroke-linecap:square;stroke-width:0.5;"/>
   </g>
   <g id="line2d_23">
    <path clip-path="url(#pa1fdae6cc0)" d="M 52.160938 266.242677 
L 50.545951 261.99332 
" style="fill:none;stroke:#1f77b4;stroke-linecap:square;stroke-width:0.5;"/>
   </g>
   <g id="line2d_24">
    <path clip-path="url(#pa1fdae6cc0)" d="M 52.160938 202.119773 
L 51.397784 199.146791 
" style="fill:none;stroke:#1f77b4;stroke-linecap:square;stroke-width:0.5;"/>
   </g>
   <g id="line2d_25">
    <path clip-path="url(#pa1fdae6cc0)" d="M 52.160938 154.781334 
L 52.026649 152.750594 
" style="fill:none;stroke:#1f77b4;stroke-linecap:square;stroke-width:0.5;"/>
   </g>
   <g id="line2d_26">
    <path clip-path="url(#pa1fdae6cc0)" d="M 52.160938 110.061645 
L 53.585317 106.729186 
L 55.138595 103.658916 
L 56.810461 100.840622 
L 58.59093 98.263929 
L 60.470475 95.918554 
L 62.439943 93.794263 
L 64.490617 91.8809 
L 66.614223 90.168426 
L 68.802891 88.646946 
L 71.049135 87.306716 
L 73.345852 86.138179 
L 76.475082 84.831073 
L 79.667205 83.791072 
L 82.908441 82.997414 
L 86.186112 82.430167 
L 89.488578 82.070281 
L 92.805219 81.899592 
L 96.956272 81.926187 
L 101.097413 82.190094 
L 105.21371 82.662099 
L 110.102217 83.465379 
L 114.916978 84.487181 
L 120.419766 85.90495 
L 125.779943 87.51534 
L 131.711056 89.53283 
L 138.114917 91.959026 
L 144.878383 94.769677 
L 151.877707 97.916141 
L 159.551591 101.610942 
L 167.616891 105.7364 
L 176.678493 110.628133 
L 186.437572 116.156475 
L 197.199805 122.516727 
L 209.081795 129.807209 
L 221.539076 137.714258 
L 230.720938 143.756 
L 230.720937 143.756 
" style="fill:none;stroke:#1f77b4;stroke-linecap:square;stroke-width:0.5;"/>
   </g>
   <g id="line2d_27">
    <path clip-path="url(#pa1fdae6cc0)" d="M 52.160938 56.826177 
L 55.664917 56.642386 
L 60.341832 56.657709 
L 65.01074 56.943219 
L 69.65778 57.469589 
L 74.270701 58.20952 
L 78.838741 59.137644 
L 84.471474 60.526819 
L 90.003508 62.131064 
L 95.421645 63.912246 
L 101.758237 66.235677 
L 107.90123 68.713525 
L 114.809406 71.740269 
L 122.350168 75.306245 
L 130.372125 79.368685 
L 138.711149 83.853337 
L 147.933623 89.086582 
L 157.655108 94.873819 
L 168.057933 101.330158 
L 179.471187 108.675651 
L 192.585691 117.387264 
L 208.10147 127.972748 
L 227.904509 141.7689 
L 230.720938 143.756 
L 230.720937 143.756 
" style="fill:none;stroke:#1f77b4;stroke-linecap:square;stroke-width:0.5;"/>
   </g>
   <g id="line2d_28">
    <path clip-path="url(#pa1fdae6cc0)" d="M 91.742111 10.7 
L 102.12261 18.931536 
L 113.409999 28.203088 
L 125.269757 38.274512 
L 137.362215 48.861807 
L 149.360981 59.658472 
L 161.949193 71.275125 
L 175.239327 83.845337 
L 188.147603 96.354198 
L 200.28349 108.410449 
L 210.99549 119.357327 
L 219.215347 128.059356 
L 225.095162 134.592652 
L 228.738696 138.946435 
L 230.76825 141.687513 
L 231.613961 143.15816 
L 231.774128 143.811947 
L 231.63895 144.019561 
L 231.343533 144.027173 
L 230.777211 143.790533 
L 230.720937 143.756 
L 230.720937 143.756 
" style="fill:none;stroke:#1f77b4;stroke-linecap:square;stroke-width:0.5;"/>
   </g>
   <g id="line2d_29">
    <path clip-path="url(#pa1fdae6cc0)" d="M 169.421212 10.7 
L 181.224113 25.301406 
L 193.117069 40.379272 
L 203.477738 53.870124 
L 212.469066 65.912004 
L 221.131595 77.894134 
L 228.438306 88.392208 
L 234.55829 97.571285 
L 239.641712 105.580655 
L 243.821579 112.554243 
L 247.215653 118.611606 
L 249.928057 123.859197 
L 252.253808 128.854849 
L 253.961874 133.082041 
L 255.148519 136.641463 
L 255.897302 139.621448 
L 256.280659 142.099524 
L 256.361286 144.143746 
L 256.193311 145.813823 
L 255.823352 147.162105 
L 255.291449 148.234458 
L 254.631879 149.071009 
L 253.793658 149.760572 
L 252.781698 150.283061 
L 251.60986 150.628719 
L 250.205305 150.802982 
L 248.502107 150.774008 
L 246.556517 150.512489 
L 244.286727 149.982175 
L 241.636467 149.130927 
L 238.629847 147.927744 
L 235.309545 146.354841 
L 231.981826 144.533317 
L 230.720937 143.756 
L 230.720937 143.756 
" style="fill:none;stroke:#1f77b4;stroke-linecap:square;stroke-width:0.5;"/>
   </g>
   <g id="line2d_30">
    <path clip-path="url(#pa1fdae6cc0)" d="M 230.720937 10.7 
L 240.810609 25.967149 
L 249.725089 39.908964 
L 257.566815 52.630976 
L 264.429972 64.231291 
L 270.401124 74.800316 
L 275.559969 84.420986 
L 279.979797 93.169196 
L 283.728006 101.11435 
L 286.866644 108.319961 
L 289.452877 114.844249 
L 291.539395 120.740709 
L 293.174745 126.058603 
L 294.403659 130.843406 
L 295.267344 135.137187 
L 295.803746 138.978946 
L 296.047788 142.404897 
L 296.031578 145.448716 
L 295.784608 148.14174 
L 295.333933 150.513147 
L 294.704344 152.590111 
L 293.918518 154.397932 
L 292.997161 155.96015 
L 291.959154 157.298659 
L 290.821679 158.433802 
L 289.389675 159.526244 
L 287.865768 160.395166 
L 286.26974 161.065773 
L 284.379783 161.618733 
L 282.196632 162.005467 
L 279.732602 162.188649 
L 277.012017 162.144329 
L 274.070575 161.862873 
L 270.717982 161.301906 
L 267.039183 160.444879 
L 263.142391 159.308447 
L 258.771713 157.798796 
L 254.025083 155.91964 
L 248.859134 153.628886 
L 243.392458 150.955844 
L 237.826882 147.985167 
L 232.665941 144.983988 
L 230.720937 143.756 
L 230.720937 143.756 
" style="fill:none;stroke:#1f77b4;stroke-linecap:square;stroke-width:0.5;"/>
   </g>
   <g id="line2d_31">
    <path clip-path="url(#pa1fdae6cc0)" d="M 230.720938 143.756 
" style="fill:none;stroke:#1f77b4;stroke-linecap:square;stroke-width:1.5;"/>
   </g>
   <g id="line2d_32">
    <path clip-path="url(#pa1fdae6cc0)" d="M 230.720938 10.7 
L 240.810612 25.96701 
L 249.725152 39.907118 
L 257.567229 52.623111 
L 264.431488 64.210257 
L 270.405166 74.756857 
L 275.568714 84.344812 
L 279.996241 93.050018 
L 283.756003 100.942813 
L 286.910788 108.088325 
L 289.518297 114.546813 
L 291.631548 120.374037 
L 293.299253 125.62161 
L 294.566145 130.337286 
L 295.47326 134.565229 
L 296.058203 138.346249 
L 296.355418 141.71806 
L 296.39643 144.715497 
L 296.210075 147.370731 
L 295.822697 149.713454 
L 295.258339 151.77106 
L 294.538928 153.56881 
L 293.684436 155.129992 
L 292.713037 156.476063 
L 291.641246 157.626782 
L 290.283853 158.746567 
L 288.831554 159.651547 
L 287.079893 160.453368 
L 285.254083 161.037935 
L 283.138389 161.471457 
L 280.741974 161.716891 
L 278.08546 161.749099 
L 275.200594 161.55581 
L 271.895997 161.098011 
L 268.248836 160.352693 
L 264.360472 159.327822 
L 259.966985 157.929058 
L 255.321166 156.21175 
L 250.277221 154.104627 
L 245.02806 151.669388 
L 239.57804 148.892552 
L 234.358287 145.984128 
L 230.720937 143.756 
L 230.720937 143.756 
" style="fill:none;stroke:#ff7f0e;stroke-linecap:square;stroke-width:0.5;"/>
   </g>
   <g id="line2d_33">
    <path clip-path="url(#pa1fdae6cc0)" d="M 292.020663 10.7 
L 298.835356 22.786324 
L 305.021341 34.129364 
L 310.617294 44.768663 
L 315.660263 54.742254 
L 320.184919 64.085895 
L 324.224065 72.833567 
L 328.637612 82.979348 
L 332.398392 92.304325 
L 335.559495 100.864347 
L 338.1704 108.711784 
L 340.27726 115.895784 
L 341.923047 122.462412 
L 343.147727 128.454802 
L 343.988452 133.91334 
L 344.479745 138.87583 
L 344.653686 143.377669 
L 344.540076 147.452 
L 344.166553 151.129818 
L 343.558735 154.440105 
L 342.740364 157.409961 
L 341.733423 160.064719 
L 340.558256 162.428053 
L 339.233666 164.522075 
L 337.777023 166.367431 
L 336.204353 167.983391 
L 334.530437 169.387941 
L 332.768891 170.597856 
L 330.556935 171.814793 
L 328.25653 172.798965 
L 325.885478 173.573355 
L 323.051254 174.239713 
L 320.165296 174.679691 
L 316.829183 174.940552 
L 313.477338 174.978507 
L 309.715147 174.795375 
L 305.576473 174.359202 
L 301.108431 173.652293 
L 296.370349 172.672022 
L 291.431724 171.430451 
L 286.018464 169.843344 
L 280.283342 167.933262 
L 274.101988 165.639193 
L 267.491381 162.9414 
L 260.627037 159.894246 
L 253.486237 156.474135 
L 246.377923 152.821959 
L 239.423486 148.999817 
L 233.241502 145.354539 
L 230.720937 143.756 
L 230.720938 143.756 
" style="fill:none;stroke:#ff7f0e;stroke-linecap:square;stroke-width:0.5;"/>
   </g>
   <g id="line2d_34">
    <path clip-path="url(#pa1fdae6cc0)" d="M 369.699764 10.7 
L 371.460528 14.366356 
L 373.172807 17.973281 
L 374.837134 21.521298 
L 376.454113 25.011034 
L 378.024647 28.443426 
L 379.549463 31.819233 
L 381.029317 35.139242 
L 382.464973 38.40425 
L 383.857155 41.615014 
L 385.206615 44.77232 
L 386.514041 47.876889 
L 387.780169 50.929492 
L 389.005664 53.930827 
L 390.191237 56.88164 
L 391.337534 59.782614 
L 392.445245 62.634472 
L 393.514999 65.43788 
L 394.547465 68.193542 
L 395.543256 70.902109 
L 396.503021 73.564266 
L 397.427348 76.180638 
L 398.316864 78.751891 
L 399.172189 81.278679 
L 399.993886 83.761606 
L 400.782551 86.201306 
L 401.538777 88.598408 
L 402.263121 90.95351 
L 402.956138 93.267205 
L 403.618387 95.540091 
L 404.250411 97.772751 
L 404.852743 99.965757 
L 405.42591 102.119675 
L 405.97043 104.235066 
L 406.486822 106.312486 
L 406.975586 108.352476 
L 407.437219 110.355575 
L 407.872218 112.322319 
L 408.281063 114.253231 
L 408.664231 116.148826 
L 409.022195 118.00962 
L 409.355418 119.836117 
" style="fill:none;stroke:#ff7f0e;stroke-linecap:square;stroke-width:0.5;"/>
   </g>
   <g id="line2d_35">
    <path clip-path="url(#pa1fdae6cc0)" d="M 409.280938 56.826177 
L 410.426935 59.868959 
" style="fill:none;stroke:#ff7f0e;stroke-linecap:square;stroke-width:0.5;"/>
   </g>
   <g id="line2d_36">
    <path clip-path="url(#pa1fdae6cc0)" d="M 409.280938 110.061645 
L 409.719722 112.04778 
" style="fill:none;stroke:#ff7f0e;stroke-linecap:square;stroke-width:0.5;"/>
   </g>
   <g id="line2d_37">
    <path clip-path="url(#pa1fdae6cc0)" d="M 409.280938 154.781334 
L 408.573259 159.038902 
L 407.646486 162.945574 
L 406.518945 166.52238 
L 405.207807 169.789182 
L 403.729184 172.764772 
L 402.098267 175.467008 
L 400.329277 177.912754 
L 398.435532 180.117954 
L 396.429526 182.097702 
L 394.322979 183.866291 
L 392.126864 185.437242 
L 389.851447 186.823338 
L 386.910206 188.314338 
L 383.877352 189.557464 
L 380.768816 190.573345 
L 377.599195 191.381193 
L 374.381843 191.998885 
L 370.475139 192.512463 
L 366.536267 192.802637 
L 361.922802 192.891062 
L 357.312346 192.743328 
L 352.073322 192.325598 
L 346.891574 191.682512 
L 341.158055 190.735756 
L 334.936659 189.460357 
L 328.306485 187.848235 
L 321.359968 185.908828 
L 314.199849 183.668279 
L 306.935207 181.167341 
L 299.212529 178.278237 
L 290.842982 174.89935 
L 282.205873 171.160363 
L 273.367137 167.083402 
L 264.323717 162.658879 
L 255.453656 158.072368 
L 246.742169 153.321113 
L 238.593923 148.628345 
L 231.939738 144.551804 
L 230.720937 143.756 
L 230.720937 143.756 
" style="fill:none;stroke:#ff7f0e;stroke-linecap:square;stroke-width:0.5;"/>
   </g>
   <g id="line2d_38">
    <path clip-path="url(#pa1fdae6cc0)" d="M 409.280938 202.119773 
L 405.339944 202.82588 
L 401.358663 203.32438 
L 396.546386 203.674237 
L 391.715898 203.781322 
L 386.885653 203.672738 
L 381.272326 203.306312 
L 375.704281 202.715637 
L 369.421163 201.806874 
L 363.24718 200.689339 
L 356.457079 199.229027 
L 349.132821 197.408464 
L 341.371869 195.227761 
L 333.284578 192.704774 
L 324.990923 189.874312 
L 316.616227 186.785935 
L 307.754067 183.283617 
L 298.670742 179.459496 
L 289.2105 175.23806 
L 279.434765 170.630537 
L 269.620038 165.759786 
L 259.757594 160.618065 
L 250.119732 155.343887 
L 241.074698 150.14359 
L 233.410037 145.489067 
L 230.720937 143.756 
L 230.720938 143.756 
" style="fill:none;stroke:#ff7f0e;stroke-linecap:square;stroke-width:0.5;"/>
   </g>
   <g id="line2d_39">
    <path clip-path="url(#pa1fdae6cc0)" d="M 409.280938 266.242677 
L 326.068595 209.450803 
L 264.144154 166.932002 
L 230.720937 143.756 
L 230.720937 143.756 
" style="fill:none;stroke:#ff7f0e;stroke-linecap:square;stroke-width:0.5;"/>
   </g>
   <g id="line2d_40">
    <path clip-path="url(#pa1fdae6cc0)" d="M 327.352777 276.812 
L 309.213092 256.935614 
L 292.526056 238.316752 
L 278.609095 222.461335 
L 266.180771 207.955768 
L 256.070972 195.817207 
L 247.899041 185.684052 
L 240.897338 176.661373 
L 235.431894 169.280586 
L 230.961524 162.88304 
L 227.645135 157.772523 
L 225.115935 153.47655 
L 223.401897 150.144532 
L 222.317249 147.585323 
L 221.713351 145.643242 
L 221.471749 144.191743 
L 221.498509 143.128211 
L 221.719557 142.369653 
L 222.102619 141.823216 
L 222.616534 141.466652 
L 223.328562 141.256725 
L 224.245394 141.227866 
L 225.46018 141.422636 
L 227.010039 141.906257 
L 228.903814 142.738735 
L 230.720938 143.756 
L 230.720938 143.756 
" style="fill:none;stroke:#ff7f0e;stroke-linecap:square;stroke-width:0.5;"/>
   </g>
   <g id="line2d_41">
    <path clip-path="url(#pa1fdae6cc0)" d="M 260.517332 276.812 
L 248.793399 260.581429 
L 238.518594 245.937371 
L 229.550456 232.739398 
L 221.759269 220.858914 
L 215.02687 210.178087 
L 209.245701 200.589003 
L 204.317955 191.992899 
L 200.154658 184.299334 
L 196.674972 177.425568 
L 193.805491 171.295914 
L 191.479605 165.841172 
L 189.636938 160.998108 
L 188.22278 156.708945 
L 187.18761 152.920921 
L 186.486654 149.585886 
L 186.079451 146.659901 
L 185.9295 144.102914 
L 186.003863 141.878392 
L 186.272894 139.953067 
L 186.709931 138.296649 
L 187.291027 136.881579 
L 187.99471 135.682798 
L 188.924452 134.548487 
L 189.96379 133.636318 
L 191.236329 132.841588 
L 192.591758 132.258643 
L 194.166295 131.822253 
L 195.950043 131.55714 
L 198.088355 131.479086 
L 200.385079 131.617644 
L 203.113098 132.01414 
L 206.177123 132.696653 
L 209.58244 133.691546 
L 213.364961 135.036133 
L 217.477015 136.739677 
L 221.865133 138.802769 
L 226.312282 141.139964 
L 230.253665 143.453685 
L 230.720938 143.756 
L 230.720937 143.756 
" style="fill:none;stroke:#ff7f0e;stroke-linecap:square;stroke-width:0.5;"/>
   </g>
   <g id="line2d_42">
    <path clip-path="url(#pa1fdae6cc0)" d="M 200.924543 276.812 
L 192.467857 262.938301 
L 184.907084 250.101532 
L 178.174783 238.23339 
L 172.208225 227.270021 
L 166.948611 217.151287 
L 162.34111 207.820816 
L 158.334698 199.225855 
L 154.881733 191.316884 
L 151.937751 184.047426 
L 149.461305 177.3739 
L 147.413792 171.25547 
L 145.759282 165.65388 
L 144.464325 160.533283 
L 143.497781 155.860083 
L 142.830682 151.602805 
L 142.436113 147.731991 
L 142.289081 144.220075 
L 142.366385 141.04126 
L 142.646491 138.171408 
L 143.109434 135.587942 
L 143.73671 133.269753 
L 144.511191 131.19711 
L 145.417026 129.351578 
L 146.439561 127.715934 
L 147.565259 126.274094 
L 149.034746 124.778641 
L 150.615092 123.516653 
L 152.288403 122.466009 
L 154.038493 121.606376 
L 156.157889 120.820051 
L 158.341203 120.241286 
L 160.891268 119.802707 
L 163.801734 119.55457 
L 166.728487 119.52659 
L 169.970049 119.710013 
L 173.491627 120.123423 
L 177.5556 120.834032 
L 181.774399 121.796683 
L 186.355862 123.064666 
L 191.425009 124.701865 
L 196.761941 126.658969 
L 202.527029 129.012734 
L 208.618466 131.745865 
L 214.910498 134.81835 
L 221.172224 138.125201 
L 227.033898 141.469315 
L 230.720938 143.756 
L 230.720937 143.756 
" style="fill:none;stroke:#ff7f0e;stroke-linecap:square;stroke-width:0.5;"/>
   </g>
   <g id="line2d_43">
    <path clip-path="url(#pa1fdae6cc0)" d="M 134.089098 276.812 
L 127.301878 263.713803 
L 121.19554 251.438237 
L 115.727223 239.941057 
L 110.856113 229.179925 
L 106.543864 219.114873 
L 102.75416 209.707879 
L 99.452505 200.922672 
L 96.606418 192.724919 
L 94.185298 185.082106 
L 92.160247 177.963368 
L 90.503935 171.339363 
L 89.190547 165.18223 
L 88.195733 159.465535 
L 87.496531 154.164206 
L 87.071291 149.254462 
L 86.899601 144.713744 
L 86.962239 140.520666 
L 87.241085 136.65494 
L 87.719083 133.097339 
L 88.380188 129.829644 
L 89.209311 126.834594 
L 90.192259 124.095831 
L 91.315693 121.597861 
L 92.567076 119.326005 
L 93.934652 117.266374 
L 95.407388 115.405822 
L 96.974937 113.731905 
L 99.052997 111.884096 
L 101.246491 110.287945 
L 103.539212 108.923297 
L 105.916261 107.771361 
L 108.363959 106.814638 
L 111.376869 105.901381 
L 114.453838 105.219791 
L 117.577187 104.74598 
L 121.258728 104.42676 
L 124.959564 104.328955 
L 129.187909 104.451906 
L 133.391218 104.788989 
L 138.063869 105.382456 
L 143.157062 106.258988 
L 148.608229 107.430157 
L 154.342582 108.891863 
L 160.719341 110.762934 
L 167.148796 112.883784 
L 173.911691 115.343812 
L 181.150687 118.214802 
L 188.840252 121.513058 
L 196.772515 125.16708 
L 204.774951 129.102178 
L 212.800546 133.298409 
L 220.553874 137.603701 
L 227.416518 141.662786 
L 230.720938 143.756 
L 230.720938 143.756 
" style="fill:none;stroke:#ff7f0e;stroke-linecap:square;stroke-width:0.5;"/>
   </g>
   <g id="line2d_44">
    <path clip-path="url(#pa1fdae6cc0)" d="M 52.160938 266.242677 
L 50.542568 262.494125 
" style="fill:none;stroke:#ff7f0e;stroke-linecap:square;stroke-width:0.5;"/>
   </g>
   <g id="line2d_45">
    <path clip-path="url(#pa1fdae6cc0)" d="M 52.160938 202.119773 
L 51.394439 199.643997 
" style="fill:none;stroke:#ff7f0e;stroke-linecap:square;stroke-width:0.5;"/>
   </g>
   <g id="line2d_46">
    <path clip-path="url(#pa1fdae6cc0)" d="M 52.160938 154.781334 
L 52.023327 153.245168 
" style="fill:none;stroke:#ff7f0e;stroke-linecap:square;stroke-width:0.5;"/>
   </g>
   <g id="line2d_47">
    <path clip-path="url(#pa1fdae6cc0)" d="M 52.160938 110.061645 
L 54.037711 107.564098 
L 56.041802 105.314146 
L 58.160527 103.296462 
L 60.381691 101.496141 
L 62.693965 99.899198 
L 65.086798 98.492461 
L 67.550338 97.26349 
L 70.715175 95.959354 
L 73.959374 94.892961 
L 77.26769 94.044245 
L 80.626175 93.394537 
L 84.704699 92.853182 
L 88.81722 92.545673 
L 92.945909 92.446572 
L 97.762092 92.563444 
L 102.556829 92.899074 
L 107.985931 93.512088 
L 113.337813 94.331469 
L 119.241238 95.455982 
L 125.627749 96.906108 
L 132.414319 98.685977 
L 139.505238 100.782783 
L 146.795466 103.167899 
L 154.682561 105.987601 
L 162.933726 109.182483 
L 171.302809 112.660698 
L 179.913797 116.474313 
L 189.009977 120.749506 
L 198.163108 125.300423 
L 207.36255 130.126596 
L 216.232824 135.032543 
L 224.314359 139.752178 
L 230.461087 143.58199 
L 230.720938 143.756 
L 230.720938 143.756 
" style="fill:none;stroke:#ff7f0e;stroke-linecap:square;stroke-width:0.5;"/>
   </g>
   <g id="line2d_48">
    <path clip-path="url(#pa1fdae6cc0)" d="M 52.160938 56.826177 
L 63.551892 60.924843 
L 75.445888 65.440292 
L 87.66413 70.316956 
L 100.02344 75.48419 
L 113.183421 81.234472 
L 126.734663 87.414063 
L 140.270034 93.841205 
L 153.989399 100.611226 
L 167.295807 107.422628 
L 180.867347 114.622535 
L 194.126892 121.914488 
L 206.71355 129.093091 
L 218.061506 135.816602 
L 227.432342 141.616279 
L 230.720938 143.756 
L 230.720937 143.756 
" style="fill:none;stroke:#ff7f0e;stroke-linecap:square;stroke-width:0.5;"/>
   </g>
   <g id="line2d_49">
    <path clip-path="url(#pa1fdae6cc0)" d="M 91.742111 10.7 
L 127.531063 43.428678 
L 157.460751 71.096344 
L 181.164981 93.308457 
L 198.95214 110.265332 
L 212.144462 123.132051 
L 221.182452 132.236882 
L 226.806187 138.189852 
L 229.828802 141.680367 
L 230.994885 143.319829 
L 231.141683 143.824355 
L 230.99213 143.870555 
L 230.720937 143.756 
L 230.720937 143.756 
" style="fill:none;stroke:#ff7f0e;stroke-linecap:square;stroke-width:0.5;"/>
   </g>
   <g id="line2d_50">
    <path clip-path="url(#pa1fdae6cc0)" d="M 169.421212 10.7 
L 182.793905 27.382763 
L 194.472451 42.286577 
L 204.638487 55.586535 
L 214.470451 68.828768 
L 222.803218 80.444696 
L 229.821985 90.616135 
L 235.691203 99.505681 
L 240.556768 107.258653 
L 244.54797 114.004849 
L 247.779281 119.860144 
L 250.601104 125.446481 
L 252.731382 130.185995 
L 254.276179 134.189268 
L 255.327627 137.553496 
L 255.965644 140.364063 
L 256.259401 142.695883 
L 256.268638 144.614619 
L 256.044842 146.177772 
L 255.632278 147.435638 
L 255.068901 148.432165 
L 254.387156 149.205709 
L 253.53337 149.838807 
L 252.512884 150.312771 
L 251.247299 150.634546 
L 249.752395 150.765092 
L 247.97152 150.679173 
L 245.881686 150.34059 
L 243.437516 149.705625 
L 240.647064 148.74108 
L 237.523747 147.4199 
L 234.17682 145.75984 
L 231.047245 143.966101 
L 230.720937 143.756 
L 230.720937 143.756 
" style="fill:none;stroke:#ff7f0e;stroke-linecap:square;stroke-width:0.5;"/>
   </g>
   <g id="line2d_51">
    <path clip-path="url(#pa1fdae6cc0)" d="M 230.720937 10.7 
L 240.810612 25.96701 
L 249.725152 39.907118 
L 257.567229 52.623111 
L 264.431488 64.210257 
L 270.405166 74.756857 
L 275.568714 84.344812 
L 279.996241 93.050018 
L 283.756003 100.942813 
L 286.910788 108.088325 
L 289.518297 114.546813 
L 291.631548 120.374037 
L 293.299253 125.62161 
L 294.566145 130.337286 
L 295.47326 134.565229 
L 296.058203 138.346249 
L 296.355418 141.71806 
L 296.39643 144.715497 
L 296.210075 147.370731 
L 295.822697 149.713454 
L 295.258339 151.77106 
L 294.538928 153.56881 
L 293.684436 155.129992 
L 292.713037 156.476063 
L 291.641246 157.626782 
L 290.283853 158.746567 
L 288.831554 159.651547 
L 287.079893 160.453368 
L 285.254083 161.037935 
L 283.138389 161.471457 
L 280.741974 161.716891 
L 278.08546 161.749099 
L 275.200594 161.55581 
L 271.895997 161.098011 
L 268.248836 160.352693 
L 264.360472 159.327822 
L 259.966985 157.929058 
L 255.321166 156.21175 
L 250.277221 154.104627 
L 245.02806 151.669388 
L 239.57804 148.892552 
L 234.358287 145.984128 
L 230.720937 143.756 
L 230.720937 143.756 
" style="fill:none;stroke:#ff7f0e;stroke-linecap:square;stroke-width:0.5;"/>
   </g>
   <g id="line2d_52">
    <path clip-path="url(#pa1fdae6cc0)" d="M 230.720938 143.756 
" style="fill:none;stroke:#ff7f0e;stroke-linecap:square;stroke-width:1.5;"/>
   </g>
   <g id="line2d_53">
    <defs>
     <path d="M 0 3 
C 0.795609 3 1.55874 2.683901 2.12132 2.12132 
C 2.683901 1.55874 3 0.795609 3 0 
C 3 -0.795609 2.683901 -1.55874 2.12132 -2.12132 
C 1.55874 -2.683901 0.795609 -3 0 -3 
C -0.795609 -3 -1.55874 -2.683901 -2.12132 -2.12132 
C -2.683901 -1.55874 -3 -0.795609 -3 0 
C -3 0.795609 -2.683901 1.55874 -2.12132 2.12132 
C -1.55874 2.683901 -0.795609 3 0 3 
z
" id="m2855eceba5" style="stroke:#ff0000;"/>
    </defs>
    <g clip-path="url(#pa1fdae6cc0)">
     <use style="fill:#ff0000;stroke:#ff0000;" x="230.720938" xlink:href="#m2855eceba5" y="143.756"/>
    </g>
   </g>
   <g id="patch_73">
    <path d="M 52.160938 276.812 
L 52.160938 10.7 
" style="fill:none;stroke:#000000;stroke-linecap:square;stroke-linejoin:miter;stroke-width:0.8;"/>
   </g>
   <g id="patch_74">
    <path d="M 409.280938 276.812 
L 409.280938 10.7 
" style="fill:none;stroke:#000000;stroke-linecap:square;stroke-linejoin:miter;stroke-width:0.8;"/>
   </g>
   <g id="patch_75">
    <path d="M 52.160938 276.812 
L 409.280938 276.812 
" style="fill:none;stroke:#000000;stroke-linecap:square;stroke-linejoin:miter;stroke-width:0.8;"/>
   </g>
   <g id="patch_76">
    <path d="M 52.160938 10.7 
L 409.280938 10.7 
" style="fill:none;stroke:#000000;stroke-linecap:square;stroke-linejoin:miter;stroke-width:0.8;"/>
   </g>
   <g id="legend_1">
    <g id="patch_77">
     <path d="M 259.340938 273.812 
L 405.080938 273.812 
Q 406.280938 273.812 406.280938 272.612 
L 406.280938 246.551375 
Q 406.280938 245.351375 405.080938 245.351375 
L 259.340938 245.351375 
Q 258.140938 245.351375 258.140938 246.551375 
L 258.140938 272.612 
Q 258.140938 273.812 259.340938 273.812 
z
" style="fill:#ffffff;opacity:0.8;stroke:#cccccc;stroke-linejoin:miter;"/>
    </g>
    <g id="line2d_54">
     <path d="M 260.540938 250.210437 
L 272.540938 250.210437 
" style="fill:none;stroke:#1f77b4;stroke-linecap:square;stroke-width:1.5;"/>
    </g>
    <g id="line2d_55"/>
    <g id="text_13">
     <!-- system nieliniowy -->
     <defs>
      <path d="M 44.28125 53.078125 
L 44.28125 44.578125 
Q 40.484375 46.53125 36.375 47.5 
Q 32.28125 48.484375 27.875 48.484375 
Q 21.1875 48.484375 17.84375 46.4375 
Q 14.5 44.390625 14.5 40.28125 
Q 14.5 37.15625 16.890625 35.375 
Q 19.28125 33.59375 26.515625 31.984375 
L 29.59375 31.296875 
Q 39.15625 29.25 43.1875 25.515625 
Q 47.21875 21.78125 47.21875 15.09375 
Q 47.21875 7.46875 41.1875 3.015625 
Q 35.15625 -1.421875 24.609375 -1.421875 
Q 20.21875 -1.421875 15.453125 -0.5625 
Q 10.6875 0.296875 5.421875 2 
L 5.421875 11.28125 
Q 10.40625 8.6875 15.234375 7.390625 
Q 20.0625 6.109375 24.8125 6.109375 
Q 31.15625 6.109375 34.5625 8.28125 
Q 37.984375 10.453125 37.984375 14.40625 
Q 37.984375 18.0625 35.515625 20.015625 
Q 33.0625 21.96875 24.703125 23.78125 
L 21.578125 24.515625 
Q 13.234375 26.265625 9.515625 29.90625 
Q 5.8125 33.546875 5.8125 39.890625 
Q 5.8125 47.609375 11.28125 51.796875 
Q 16.75 56 26.8125 56 
Q 31.78125 56 36.171875 55.265625 
Q 40.578125 54.546875 44.28125 53.078125 
" id="DejaVuSans-73"/>
      <path d="M 32.171875 -5.078125 
Q 28.375 -14.84375 24.75 -17.8125 
Q 21.140625 -20.796875 15.09375 -20.796875 
L 7.90625 -20.796875 
L 7.90625 -13.28125 
L 13.1875 -13.28125 
Q 16.890625 -13.28125 18.9375 -11.515625 
Q 21 -9.765625 23.484375 -3.21875 
L 25.09375 0.875 
L 2.984375 54.6875 
L 12.5 54.6875 
L 29.59375 11.921875 
L 46.6875 54.6875 
L 56.203125 54.6875 
z
" id="DejaVuSans-79"/>
      <path d="M 18.3125 70.21875 
L 18.3125 54.6875 
L 36.8125 54.6875 
L 36.8125 47.703125 
L 18.3125 47.703125 
L 18.3125 18.015625 
Q 18.3125 11.328125 20.140625 9.421875 
Q 21.96875 7.515625 27.59375 7.515625 
L 36.8125 7.515625 
L 36.8125 0 
L 27.59375 0 
Q 17.1875 0 13.234375 3.875 
Q 9.28125 7.765625 9.28125 18.015625 
L 9.28125 47.703125 
L 2.6875 47.703125 
L 2.6875 54.6875 
L 9.28125 54.6875 
L 9.28125 70.21875 
z
" id="DejaVuSans-74"/>
      <path d="M 56.203125 29.59375 
L 56.203125 25.203125 
L 14.890625 25.203125 
Q 15.484375 15.921875 20.484375 11.0625 
Q 25.484375 6.203125 34.421875 6.203125 
Q 39.59375 6.203125 44.453125 7.46875 
Q 49.3125 8.734375 54.109375 11.28125 
L 54.109375 2.78125 
Q 49.265625 0.734375 44.1875 -0.34375 
Q 39.109375 -1.421875 33.890625 -1.421875 
Q 20.796875 -1.421875 13.15625 6.1875 
Q 5.515625 13.8125 5.515625 26.8125 
Q 5.515625 40.234375 12.765625 48.109375 
Q 20.015625 56 32.328125 56 
Q 43.359375 56 49.78125 48.890625 
Q 56.203125 41.796875 56.203125 29.59375 
M 47.21875 32.234375 
Q 47.125 39.59375 43.09375 43.984375 
Q 39.0625 48.390625 32.421875 48.390625 
Q 24.90625 48.390625 20.390625 44.140625 
Q 15.875 39.890625 15.1875 32.171875 
z
" id="DejaVuSans-65"/>
      <path d="M 52 44.1875 
Q 55.375 50.25 60.0625 53.125 
Q 64.75 56 71.09375 56 
Q 79.640625 56 84.28125 50.015625 
Q 88.921875 44.046875 88.921875 33.015625 
L 88.921875 0 
L 79.890625 0 
L 79.890625 32.71875 
Q 79.890625 40.578125 77.09375 44.375 
Q 74.3125 48.1875 68.609375 48.1875 
Q 61.625 48.1875 57.5625 43.546875 
Q 53.515625 38.921875 53.515625 30.90625 
L 53.515625 0 
L 44.484375 0 
L 44.484375 32.71875 
Q 44.484375 40.625 41.703125 44.40625 
Q 38.921875 48.1875 33.109375 48.1875 
Q 26.21875 48.1875 22.15625 43.53125 
Q 18.109375 38.875 18.109375 30.90625 
L 18.109375 0 
L 9.078125 0 
L 9.078125 54.6875 
L 18.109375 54.6875 
L 18.109375 46.1875 
Q 21.1875 51.21875 25.484375 53.609375 
Q 29.78125 56 35.6875 56 
Q 41.65625 56 45.828125 52.96875 
Q 50 49.953125 52 44.1875 
" id="DejaVuSans-6d"/>
      <path id="DejaVuSans-20"/>
      <path d="M 54.890625 33.015625 
L 54.890625 0 
L 45.90625 0 
L 45.90625 32.71875 
Q 45.90625 40.484375 42.875 44.328125 
Q 39.84375 48.1875 33.796875 48.1875 
Q 26.515625 48.1875 22.3125 43.546875 
Q 18.109375 38.921875 18.109375 30.90625 
L 18.109375 0 
L 9.078125 0 
L 9.078125 54.6875 
L 18.109375 54.6875 
L 18.109375 46.1875 
Q 21.34375 51.125 25.703125 53.5625 
Q 30.078125 56 35.796875 56 
Q 45.21875 56 50.046875 50.171875 
Q 54.890625 44.34375 54.890625 33.015625 
" id="DejaVuSans-6e"/>
      <path d="M 9.421875 54.6875 
L 18.40625 54.6875 
L 18.40625 0 
L 9.421875 0 
z
M 9.421875 75.984375 
L 18.40625 75.984375 
L 18.40625 64.59375 
L 9.421875 64.59375 
z
" id="DejaVuSans-69"/>
      <path d="M 9.421875 75.984375 
L 18.40625 75.984375 
L 18.40625 0 
L 9.421875 0 
z
" id="DejaVuSans-6c"/>
      <path d="M 30.609375 48.390625 
Q 23.390625 48.390625 19.1875 42.75 
Q 14.984375 37.109375 14.984375 27.296875 
Q 14.984375 17.484375 19.15625 11.84375 
Q 23.34375 6.203125 30.609375 6.203125 
Q 37.796875 6.203125 41.984375 11.859375 
Q 46.1875 17.53125 46.1875 27.296875 
Q 46.1875 37.015625 41.984375 42.703125 
Q 37.796875 48.390625 30.609375 48.390625 
M 30.609375 56 
Q 42.328125 56 49.015625 48.375 
Q 55.71875 40.765625 55.71875 27.296875 
Q 55.71875 13.875 49.015625 6.21875 
Q 42.328125 -1.421875 30.609375 -1.421875 
Q 18.84375 -1.421875 12.171875 6.21875 
Q 5.515625 13.875 5.515625 27.296875 
Q 5.515625 40.765625 12.171875 48.375 
Q 18.84375 56 30.609375 56 
" id="DejaVuSans-6f"/>
      <path d="M 4.203125 54.6875 
L 13.1875 54.6875 
L 24.421875 12.015625 
L 35.59375 54.6875 
L 46.1875 54.6875 
L 57.421875 12.015625 
L 68.609375 54.6875 
L 77.59375 54.6875 
L 63.28125 0 
L 52.6875 0 
L 40.921875 44.828125 
L 29.109375 0 
L 18.5 0 
z
" id="DejaVuSans-77"/>
     </defs>
     <g transform="translate(277.340938 252.310437)scale(0.06 -0.06)">
      <use xlink:href="#DejaVuSans-73"/>
      <use x="52.099609" xlink:href="#DejaVuSans-79"/>
      <use x="111.279297" xlink:href="#DejaVuSans-73"/>
      <use x="163.378906" xlink:href="#DejaVuSans-74"/>
      <use x="202.587891" xlink:href="#DejaVuSans-65"/>
      <use x="264.111328" xlink:href="#DejaVuSans-6d"/>
      <use x="361.523438" xlink:href="#DejaVuSans-20"/>
      <use x="393.310547" xlink:href="#DejaVuSans-6e"/>
      <use x="456.689453" xlink:href="#DejaVuSans-69"/>
      <use x="484.472656" xlink:href="#DejaVuSans-65"/>
      <use x="545.996094" xlink:href="#DejaVuSans-6c"/>
      <use x="573.779297" xlink:href="#DejaVuSans-69"/>
      <use x="601.5625" xlink:href="#DejaVuSans-6e"/>
      <use x="664.941406" xlink:href="#DejaVuSans-69"/>
      <use x="692.724609" xlink:href="#DejaVuSans-6f"/>
      <use x="753.90625" xlink:href="#DejaVuSans-77"/>
      <use x="835.693359" xlink:href="#DejaVuSans-79"/>
     </g>
    </g>
    <g id="line2d_56">
     <path d="M 260.540938 259.017312 
L 272.540938 259.017312 
" style="fill:none;stroke:#ff7f0e;stroke-linecap:square;stroke-width:1.5;"/>
    </g>
    <g id="line2d_57"/>
    <g id="text_14">
     <!-- system zlinearyzowany -->
     <defs>
      <path d="M 5.515625 54.6875 
L 48.1875 54.6875 
L 48.1875 46.484375 
L 14.40625 7.171875 
L 48.1875 7.171875 
L 48.1875 0 
L 4.296875 0 
L 4.296875 8.203125 
L 38.09375 47.515625 
L 5.515625 47.515625 
z
" id="DejaVuSans-7a"/>
      <path d="M 34.28125 27.484375 
Q 23.390625 27.484375 19.1875 25 
Q 14.984375 22.515625 14.984375 16.5 
Q 14.984375 11.71875 18.140625 8.90625 
Q 21.296875 6.109375 26.703125 6.109375 
Q 34.1875 6.109375 38.703125 11.40625 
Q 43.21875 16.703125 43.21875 25.484375 
L 43.21875 27.484375 
z
M 52.203125 31.203125 
L 52.203125 0 
L 43.21875 0 
L 43.21875 8.296875 
Q 40.140625 3.328125 35.546875 0.953125 
Q 30.953125 -1.421875 24.3125 -1.421875 
Q 15.921875 -1.421875 10.953125 3.296875 
Q 6 8.015625 6 15.921875 
Q 6 25.140625 12.171875 29.828125 
Q 18.359375 34.515625 30.609375 34.515625 
L 43.21875 34.515625 
L 43.21875 35.40625 
Q 43.21875 41.609375 39.140625 45 
Q 35.0625 48.390625 27.6875 48.390625 
Q 23 48.390625 18.546875 47.265625 
Q 14.109375 46.140625 10.015625 43.890625 
L 10.015625 52.203125 
Q 14.9375 54.109375 19.578125 55.046875 
Q 24.21875 56 28.609375 56 
Q 40.484375 56 46.34375 49.84375 
Q 52.203125 43.703125 52.203125 31.203125 
" id="DejaVuSans-61"/>
      <path d="M 41.109375 46.296875 
Q 39.59375 47.171875 37.8125 47.578125 
Q 36.03125 48 33.890625 48 
Q 26.265625 48 22.1875 43.046875 
Q 18.109375 38.09375 18.109375 28.8125 
L 18.109375 0 
L 9.078125 0 
L 9.078125 54.6875 
L 18.109375 54.6875 
L 18.109375 46.1875 
Q 20.953125 51.171875 25.484375 53.578125 
Q 30.03125 56 36.53125 56 
Q 37.453125 56 38.578125 55.875 
Q 39.703125 55.765625 41.0625 55.515625 
z
" id="DejaVuSans-72"/>
     </defs>
     <g transform="translate(277.340938 261.117312)scale(0.06 -0.06)">
      <use xlink:href="#DejaVuSans-73"/>
      <use x="52.099609" xlink:href="#DejaVuSans-79"/>
      <use x="111.279297" xlink:href="#DejaVuSans-73"/>
      <use x="163.378906" xlink:href="#DejaVuSans-74"/>
      <use x="202.587891" xlink:href="#DejaVuSans-65"/>
      <use x="264.111328" xlink:href="#DejaVuSans-6d"/>
      <use x="361.523438" xlink:href="#DejaVuSans-20"/>
      <use x="393.310547" xlink:href="#DejaVuSans-7a"/>
      <use x="445.800781" xlink:href="#DejaVuSans-6c"/>
      <use x="473.583984" xlink:href="#DejaVuSans-69"/>
      <use x="501.367188" xlink:href="#DejaVuSans-6e"/>
      <use x="564.746094" xlink:href="#DejaVuSans-65"/>
      <use x="626.269531" xlink:href="#DejaVuSans-61"/>
      <use x="687.548828" xlink:href="#DejaVuSans-72"/>
      <use x="728.662109" xlink:href="#DejaVuSans-79"/>
      <use x="787.841797" xlink:href="#DejaVuSans-7a"/>
      <use x="840.332031" xlink:href="#DejaVuSans-6f"/>
      <use x="901.513672" xlink:href="#DejaVuSans-77"/>
      <use x="983.300781" xlink:href="#DejaVuSans-61"/>
      <use x="1044.580078" xlink:href="#DejaVuSans-6e"/>
      <use x="1107.958984" xlink:href="#DejaVuSans-79"/>
     </g>
    </g>
    <g id="line2d_58"/>
    <g id="line2d_59">
     <g>
      <use style="fill:#ff0000;stroke:#ff0000;" x="266.540938" xlink:href="#m2855eceba5" y="268.064187"/>
     </g>
    </g>
    <g id="text_15">
     <!-- Punkt równowagi asymptotycznie stabilny -->
     <defs>
      <path d="M 19.671875 64.796875 
L 19.671875 37.40625 
L 32.078125 37.40625 
Q 38.96875 37.40625 42.71875 40.96875 
Q 46.484375 44.53125 46.484375 51.125 
Q 46.484375 57.671875 42.71875 61.234375 
Q 38.96875 64.796875 32.078125 64.796875 
z
M 9.8125 72.90625 
L 32.078125 72.90625 
Q 44.34375 72.90625 50.609375 67.359375 
Q 56.890625 61.8125 56.890625 51.125 
Q 56.890625 40.328125 50.609375 34.8125 
Q 44.34375 29.296875 32.078125 29.296875 
L 19.671875 29.296875 
L 19.671875 0 
L 9.8125 0 
z
" id="DejaVuSans-50"/>
      <path d="M 8.5 21.578125 
L 8.5 54.6875 
L 17.484375 54.6875 
L 17.484375 21.921875 
Q 17.484375 14.15625 20.5 10.265625 
Q 23.53125 6.390625 29.59375 6.390625 
Q 36.859375 6.390625 41.078125 11.03125 
Q 45.3125 15.671875 45.3125 23.6875 
L 45.3125 54.6875 
L 54.296875 54.6875 
L 54.296875 0 
L 45.3125 0 
L 45.3125 8.40625 
Q 42.046875 3.421875 37.71875 1 
Q 33.40625 -1.421875 27.6875 -1.421875 
Q 18.265625 -1.421875 13.375 4.4375 
Q 8.5 10.296875 8.5 21.578125 
M 31.109375 56 
z
" id="DejaVuSans-75"/>
      <path d="M 9.078125 75.984375 
L 18.109375 75.984375 
L 18.109375 31.109375 
L 44.921875 54.6875 
L 56.390625 54.6875 
L 27.390625 29.109375 
L 57.625 0 
L 45.90625 0 
L 18.109375 26.703125 
L 18.109375 0 
L 9.078125 0 
z
" id="DejaVuSans-6b"/>
      <path d="M 30.609375 48.390625 
Q 23.390625 48.390625 19.1875 42.75 
Q 14.984375 37.109375 14.984375 27.296875 
Q 14.984375 17.484375 19.15625 11.84375 
Q 23.34375 6.203125 30.609375 6.203125 
Q 37.796875 6.203125 41.984375 11.859375 
Q 46.1875 17.53125 46.1875 27.296875 
Q 46.1875 37.015625 41.984375 42.703125 
Q 37.796875 48.390625 30.609375 48.390625 
M 30.609375 56 
Q 42.328125 56 49.015625 48.375 
Q 55.71875 40.765625 55.71875 27.296875 
Q 55.71875 13.875 49.015625 6.21875 
Q 42.328125 -1.421875 30.609375 -1.421875 
Q 18.84375 -1.421875 12.171875 6.21875 
Q 5.515625 13.875 5.515625 27.296875 
Q 5.515625 40.765625 12.171875 48.375 
Q 18.84375 56 30.609375 56 
M 37.40625 79.984375 
L 47.125 79.984375 
L 31.21875 61.625 
L 23.734375 61.625 
z
" id="DejaVuSans-f3"/>
      <path d="M 45.40625 27.984375 
Q 45.40625 37.75 41.375 43.109375 
Q 37.359375 48.484375 30.078125 48.484375 
Q 22.859375 48.484375 18.828125 43.109375 
Q 14.796875 37.75 14.796875 27.984375 
Q 14.796875 18.265625 18.828125 12.890625 
Q 22.859375 7.515625 30.078125 7.515625 
Q 37.359375 7.515625 41.375 12.890625 
Q 45.40625 18.265625 45.40625 27.984375 
M 54.390625 6.78125 
Q 54.390625 -7.171875 48.1875 -13.984375 
Q 42 -20.796875 29.203125 -20.796875 
Q 24.46875 -20.796875 20.265625 -20.09375 
Q 16.0625 -19.390625 12.109375 -17.921875 
L 12.109375 -9.1875 
Q 16.0625 -11.328125 19.921875 -12.34375 
Q 23.78125 -13.375 27.78125 -13.375 
Q 36.625 -13.375 41.015625 -8.765625 
Q 45.40625 -4.15625 45.40625 5.171875 
L 45.40625 9.625 
Q 42.625 4.78125 38.28125 2.390625 
Q 33.9375 0 27.875 0 
Q 17.828125 0 11.671875 7.65625 
Q 5.515625 15.328125 5.515625 27.984375 
Q 5.515625 40.671875 11.671875 48.328125 
Q 17.828125 56 27.875 56 
Q 33.9375 56 38.28125 53.609375 
Q 42.625 51.21875 45.40625 46.390625 
L 45.40625 54.6875 
L 54.390625 54.6875 
z
" id="DejaVuSans-67"/>
      <path d="M 18.109375 8.203125 
L 18.109375 -20.796875 
L 9.078125 -20.796875 
L 9.078125 54.6875 
L 18.109375 54.6875 
L 18.109375 46.390625 
Q 20.953125 51.265625 25.265625 53.625 
Q 29.59375 56 35.59375 56 
Q 45.5625 56 51.78125 48.09375 
Q 58.015625 40.1875 58.015625 27.296875 
Q 58.015625 14.40625 51.78125 6.484375 
Q 45.5625 -1.421875 35.59375 -1.421875 
Q 29.59375 -1.421875 25.265625 0.953125 
Q 20.953125 3.328125 18.109375 8.203125 
M 48.6875 27.296875 
Q 48.6875 37.203125 44.609375 42.84375 
Q 40.53125 48.484375 33.40625 48.484375 
Q 26.265625 48.484375 22.1875 42.84375 
Q 18.109375 37.203125 18.109375 27.296875 
Q 18.109375 17.390625 22.1875 11.75 
Q 26.265625 6.109375 33.40625 6.109375 
Q 40.53125 6.109375 44.609375 11.75 
Q 48.6875 17.390625 48.6875 27.296875 
" id="DejaVuSans-70"/>
      <path d="M 48.78125 52.59375 
L 48.78125 44.1875 
Q 44.96875 46.296875 41.140625 47.34375 
Q 37.3125 48.390625 33.40625 48.390625 
Q 24.65625 48.390625 19.8125 42.84375 
Q 14.984375 37.3125 14.984375 27.296875 
Q 14.984375 17.28125 19.8125 11.734375 
Q 24.65625 6.203125 33.40625 6.203125 
Q 37.3125 6.203125 41.140625 7.25 
Q 44.96875 8.296875 48.78125 10.40625 
L 48.78125 2.09375 
Q 45.015625 0.34375 40.984375 -0.53125 
Q 36.96875 -1.421875 32.421875 -1.421875 
Q 20.0625 -1.421875 12.78125 6.34375 
Q 5.515625 14.109375 5.515625 27.296875 
Q 5.515625 40.671875 12.859375 48.328125 
Q 20.21875 56 33.015625 56 
Q 37.15625 56 41.109375 55.140625 
Q 45.0625 54.296875 48.78125 52.59375 
" id="DejaVuSans-63"/>
      <path d="M 48.6875 27.296875 
Q 48.6875 37.203125 44.609375 42.84375 
Q 40.53125 48.484375 33.40625 48.484375 
Q 26.265625 48.484375 22.1875 42.84375 
Q 18.109375 37.203125 18.109375 27.296875 
Q 18.109375 17.390625 22.1875 11.75 
Q 26.265625 6.109375 33.40625 6.109375 
Q 40.53125 6.109375 44.609375 11.75 
Q 48.6875 17.390625 48.6875 27.296875 
M 18.109375 46.390625 
Q 20.953125 51.265625 25.265625 53.625 
Q 29.59375 56 35.59375 56 
Q 45.5625 56 51.78125 48.09375 
Q 58.015625 40.1875 58.015625 27.296875 
Q 58.015625 14.40625 51.78125 6.484375 
Q 45.5625 -1.421875 35.59375 -1.421875 
Q 29.59375 -1.421875 25.265625 0.953125 
Q 20.953125 3.328125 18.109375 8.203125 
L 18.109375 0 
L 9.078125 0 
L 9.078125 75.984375 
L 18.109375 75.984375 
z
" id="DejaVuSans-62"/>
     </defs>
     <g transform="translate(277.340938 270.164187)scale(0.06 -0.06)">
      <use xlink:href="#DejaVuSans-50"/>
      <use x="60.287109" xlink:href="#DejaVuSans-75"/>
      <use x="123.666016" xlink:href="#DejaVuSans-6e"/>
      <use x="187.044922" xlink:href="#DejaVuSans-6b"/>
      <use x="244.955078" xlink:href="#DejaVuSans-74"/>
      <use x="284.164062" xlink:href="#DejaVuSans-20"/>
      <use x="315.951172" xlink:href="#DejaVuSans-72"/>
      <use x="357.033203" xlink:href="#DejaVuSans-f3"/>
      <use x="418.214844" xlink:href="#DejaVuSans-77"/>
      <use x="500.001953" xlink:href="#DejaVuSans-6e"/>
      <use x="563.380859" xlink:href="#DejaVuSans-6f"/>
      <use x="624.5625" xlink:href="#DejaVuSans-77"/>
      <use x="706.349609" xlink:href="#DejaVuSans-61"/>
      <use x="767.628906" xlink:href="#DejaVuSans-67"/>
      <use x="831.105469" xlink:href="#DejaVuSans-69"/>
      <use x="858.888672" xlink:href="#DejaVuSans-20"/>
      <use x="890.675781" xlink:href="#DejaVuSans-61"/>
      <use x="951.955078" xlink:href="#DejaVuSans-73"/>
      <use x="1004.054688" xlink:href="#DejaVuSans-79"/>
      <use x="1063.234375" xlink:href="#DejaVuSans-6d"/>
      <use x="1160.646484" xlink:href="#DejaVuSans-70"/>
      <use x="1224.123047" xlink:href="#DejaVuSans-74"/>
      <use x="1263.332031" xlink:href="#DejaVuSans-6f"/>
      <use x="1324.513672" xlink:href="#DejaVuSans-74"/>
      <use x="1363.722656" xlink:href="#DejaVuSans-79"/>
      <use x="1422.902344" xlink:href="#DejaVuSans-63"/>
      <use x="1477.882812" xlink:href="#DejaVuSans-7a"/>
      <use x="1530.373047" xlink:href="#DejaVuSans-6e"/>
      <use x="1593.751953" xlink:href="#DejaVuSans-69"/>
      <use x="1621.535156" xlink:href="#DejaVuSans-65"/>
      <use x="1683.058594" xlink:href="#DejaVuSans-20"/>
      <use x="1714.845703" xlink:href="#DejaVuSans-73"/>
      <use x="1766.945312" xlink:href="#DejaVuSans-74"/>
      <use x="1806.154297" xlink:href="#DejaVuSans-61"/>
      <use x="1867.433594" xlink:href="#DejaVuSans-62"/>
      <use x="1930.910156" xlink:href="#DejaVuSans-69"/>
      <use x="1958.693359" xlink:href="#DejaVuSans-6c"/>
      <use x="1986.476562" xlink:href="#DejaVuSans-6e"/>
      <use x="2049.855469" xlink:href="#DejaVuSans-79"/>
     </g>
    </g>
   </g>
  </g>
 </g>
 <defs>
  <clipPath id="pa1fdae6cc0">
   <rect height="266.112" width="357.12" x="52.160938" y="10.7"/>
  </clipPath>
 </defs>
</svg>
