<?xml version="1.0" encoding="utf-8" standalone="no"?>
<!DOCTYPE svg PUBLIC "-//W3C//DTD SVG 1.1//EN"
  "http://www.w3.org/Graphics/SVG/1.1/DTD/svg11.dtd">
<!-- Created with matplotlib (http://matplotlib.org/) -->
<svg height="314pt" version="1.1" viewBox="0 0 427 314" width="427pt" xmlns="http://www.w3.org/2000/svg" xmlns:xlink="http://www.w3.org/1999/xlink">
 <defs>
  <style type="text/css">
*{stroke-linecap:butt;stroke-linejoin:round;}
  </style>
 </defs>
 <g id="figure_1">
  <g id="patch_1">
   <path d="M 0 314.36825 
L 427.61375 314.36825 
L 427.61375 0 
L 0 0 
z
" style="fill:#ffffff;"/>
  </g>
  <g id="axes_1">
   <g id="patch_2">
    <path d="M 52.160938 276.812 
L 409.280938 276.812 
L 409.280938 10.7 
L 52.160938 10.7 
z
" style="fill:#ffffff;"/>
   </g>
   <g id="patch_3">
    <path clip-path="url(#pe29a2b1d4f)" d="M 261.347461 116.506662 
L 258.059908 109.664853 
L 260.465578 109.09432 
L 260.641693 109.050385 
L 260.641919 109.052498 
L 263.047589 108.481965 
z
" style="fill:#1f77b4;stroke:#1f77b4;stroke-linejoin:miter;"/>
   </g>
   <g id="patch_4">
    <path clip-path="url(#pe29a2b1d4f)" d="M 219.388798 172.542537 
L 223.545595 178.237971 
L 221.26903 179.529534 
L 221.102389 179.625138 
L 221.102152 179.624209 
L 218.825587 180.915772 
z
" style="fill:#1f77b4;stroke:#1f77b4;stroke-linejoin:miter;"/>
   </g>
   <g id="patch_5">
    <path clip-path="url(#pe29a2b1d4f)" d="M 301.123505 76.642503 
L 297.872973 69.761518 
L 300.281644 69.219832 
L 300.457721 69.175342 
L 300.458205 69.180125 
L 302.866875 68.638439 
z
" style="fill:#1f77b4;stroke:#1f77b4;stroke-linejoin:miter;"/>
   </g>
   <g id="patch_6">
    <path clip-path="url(#pe29a2b1d4f)" d="M 303.807719 170.646856 
L 301.553534 162.931312 
L 303.986055 163.123589 
L 304.164508 163.13365 
L 304.164364 163.137683 
L 306.596885 163.32996 
z
" style="fill:#1f77b4;stroke:#1f77b4;stroke-linejoin:miter;"/>
   </g>
   <g id="patch_7">
    <path clip-path="url(#pe29a2b1d4f)" d="M 375.348533 86.866933 
L 372.464532 79.632156 
L 374.894088 79.369501 
L 375.071776 79.341942 
L 375.07218 79.350248 
L 377.501736 79.087593 
z
" style="fill:#1f77b4;stroke:#1f77b4;stroke-linejoin:miter;"/>
   </g>
   <g id="patch_8">
    <path clip-path="url(#pe29a2b1d4f)" d="M 376.274954 174.28904 
L 373.931766 166.632618 
L 376.366151 166.762307 
L 376.544776 166.76433 
L 376.544597 166.771814 
L 378.978982 166.901502 
z
" style="fill:#1f77b4;stroke:#1f77b4;stroke-linejoin:miter;"/>
   </g>
   <g id="patch_9">
    <path clip-path="url(#pe29a2b1d4f)" d="M 409.703247 64.336456 
L 406.765089 57.150241 
L 409.19252 56.847074 
L 409.369906 56.815065 
L 409.370456 56.824851 
L 411.797887 56.521684 
z
" style="fill:#1f77b4;stroke:#1f77b4;stroke-linejoin:miter;"/>
   </g>
   <g id="patch_10">
    <path clip-path="url(#pe29a2b1d4f)" d="M 409.439678 117.59397 
L 406.757157 110.189037 
L 409.191896 110.075073 
L 409.370173 110.057468 
L 409.370368 110.066719 
L 411.805108 109.952754 
z
" style="fill:#1f77b4;stroke:#1f77b4;stroke-linejoin:miter;"/>
   </g>
   <g id="patch_11">
    <path clip-path="url(#pe29a2b1d4f)" d="M 408.549194 188.434754 
L 406.272119 180.734154 
L 408.705187 180.910385 
L 408.883815 180.91478 
L 408.883537 180.923303 
L 411.316605 181.099534 
z
" style="fill:#1f77b4;stroke:#1f77b4;stroke-linejoin:miter;"/>
   </g>
   <g id="patch_12">
    <path clip-path="url(#pe29a2b1d4f)" d="M 405.712299 238.092401 
L 403.777358 230.18671 
L 406.197518 230.599253 
L 406.375531 230.621552 
L 406.374922 230.629493 
L 408.795082 231.042037 
z
" style="fill:#1f77b4;stroke:#1f77b4;stroke-linejoin:miter;"/>
   </g>
   <g id="patch_13">
    <path clip-path="url(#pe29a2b1d4f)" d="M 407.897304 226.172106 
L 405.872268 218.316692 
L 408.296793 218.667726 
L 408.475046 218.685328 
L 408.474516 218.693458 
L 410.899041 219.044492 
z
" style="fill:#1f77b4;stroke:#1f77b4;stroke-linejoin:miter;"/>
   </g>
   <g id="patch_14">
    <path clip-path="url(#pe29a2b1d4f)" d="M 405.975332 250.23414 
L 404.129888 242.281064 
L 406.54505 242.754215 
L 406.722777 242.781068 
L 406.722087 242.788898 
L 409.137249 243.262049 
z
" style="fill:#1f77b4;stroke:#1f77b4;stroke-linejoin:miter;"/>
   </g>
   <g id="patch_15">
    <path clip-path="url(#pe29a2b1d4f)" d="M 408.460197 273.677296 
L 406.788368 265.639404 
L 409.191994 266.228756 
L 409.369033 266.264277 
L 409.368185 266.271957 
L 411.771812 266.861309 
z
" style="fill:#1f77b4;stroke:#1f77b4;stroke-linejoin:miter;"/>
   </g>
   <g id="patch_16">
    <path clip-path="url(#pe29a2b1d4f)" d="M 407.552795 281.341904 
L 405.945584 273.274791 
L 408.344309 273.906939 
L 408.52104 273.945702 
L 408.520142 273.953277 
L 410.918867 274.585426 
z
" style="fill:#1f77b4;stroke:#1f77b4;stroke-linejoin:miter;"/>
   </g>
   <g id="patch_17">
    <path clip-path="url(#pe29a2b1d4f)" d="M 325.774077 283.966164 
L 324.953042 275.640398 
L 327.267059 276.774541 
L 327.437589 276.853568 
L 327.436682 276.857677 
L 329.750699 277.99182 
z
" style="fill:#1f77b4;stroke:#1f77b4;stroke-linejoin:miter;"/>
   </g>
   <g id="patch_18">
    <path clip-path="url(#pe29a2b1d4f)" d="M 255.688097 279.019934 
L 259.775817 273.214517 
L 260.490252 276.685204 
L 260.543516 276.939205 
L 260.542622 276.939614 
L 261.257057 280.410301 
z
" style="fill:#1f77b4;stroke:#1f77b4;stroke-linejoin:miter;"/>
   </g>
   <g id="patch_19">
    <path clip-path="url(#pe29a2b1d4f)" d="M 183.341314 115.042366 
L 185.419292 122.867011 
L 182.992519 122.552358 
L 182.81448 122.53188 
L 182.814631 122.529293 
L 180.387859 122.21464 
z
" style="fill:#1f77b4;stroke:#1f77b4;stroke-linejoin:miter;"/>
   </g>
   <g id="patch_20">
    <path clip-path="url(#pe29a2b1d4f)" d="M 251.51256 126.606834 
L 248.191039 119.801561 
L 250.593803 119.204446 
L 250.769771 119.159245 
L 250.769931 119.160676 
L 253.172694 118.56356 
z
" style="fill:#1f77b4;stroke:#1f77b4;stroke-linejoin:miter;"/>
   </g>
   <g id="patch_21">
    <path clip-path="url(#pe29a2b1d4f)" d="M 129.471905 235.613024 
L 132.691975 242.525747 
L 130.280964 243.043793 
L 130.104875 243.088424 
L 130.104231 243.081767 
L 127.693221 243.599812 
z
" style="fill:#1f77b4;stroke:#1f77b4;stroke-linejoin:miter;"/>
   </g>
   <g id="patch_22">
    <path clip-path="url(#pe29a2b1d4f)" d="M 125.328202 122.530385 
L 127.707113 130.1623 
L 125.272181 130.057882 
L 125.093583 130.055991 
L 125.093695 130.050228 
L 122.658763 129.945809 
z
" style="fill:#1f77b4;stroke:#1f77b4;stroke-linejoin:miter;"/>
   </g>
   <g id="patch_23">
    <path clip-path="url(#pe29a2b1d4f)" d="M 51.579601 258.755642 
L 54.668631 265.799931 
L 52.248838 266.217238 
L 52.072249 266.257972 
L 52.071462 266.247828 
L 49.651669 266.665135 
z
" style="fill:#1f77b4;stroke:#1f77b4;stroke-linejoin:miter;"/>
   </g>
   <g id="patch_24">
    <path clip-path="url(#pe29a2b1d4f)" d="M 51.876075 194.595442 
L 54.681788 201.898273 
L 52.249716 202.102779 
L 52.071799 202.127268 
L 52.07144 202.117769 
L 49.639368 202.322275 
z
" style="fill:#1f77b4;stroke:#1f77b4;stroke-linejoin:miter;"/>
   </g>
   <g id="patch_25">
    <path clip-path="url(#pe29a2b1d4f)" d="M 52.124485 147.245723 
L 54.686048 154.745181 
L 52.250172 154.771352 
L 52.07166 154.782294 
L 52.071616 154.773271 
L 49.63574 154.799442 
z
" style="fill:#1f77b4;stroke:#1f77b4;stroke-linejoin:miter;"/>
   </g>
   <g id="patch_26">
    <path clip-path="url(#pe29a2b1d4f)" d="M 52.692805 93.964584 
L 54.937619 101.686193 
L 52.505336 101.487358 
L 52.326732 101.481261 
L 52.327044 101.472783 
L 49.89476 101.273947 
z
" style="fill:#1f77b4;stroke:#1f77b4;stroke-linejoin:miter;"/>
   </g>
   <g id="patch_27">
    <path clip-path="url(#pe29a2b1d4f)" d="M 55.087031 52.567289 
L 57.04634 60.459639 
L 54.624933 60.063682 
L 54.44685 60.042651 
L 54.447438 60.034658 
L 52.026031 59.638701 
z
" style="fill:#1f77b4;stroke:#1f77b4;stroke-linejoin:miter;"/>
   </g>
   <g id="patch_28">
    <path clip-path="url(#pe29a2b1d4f)" d="M 52.729535 49.339105 
L 54.670747 57.241381 
L 52.250262 56.833103 
L 52.072224 56.811213 
L 52.072834 56.803175 
L 49.652348 56.394897 
z
" style="fill:#1f77b4;stroke:#1f77b4;stroke-linejoin:miter;"/>
   </g>
   <g id="patch_29">
    <path clip-path="url(#pe29a2b1d4f)" d="M 55.721024 17.842447 
L 57.415197 25.869941 
L 55.009952 25.295444 
L 54.832821 25.260962 
L 54.833642 25.253332 
L 52.428397 24.678835 
z
" style="fill:#1f77b4;stroke:#1f77b4;stroke-linejoin:miter;"/>
   </g>
   <g id="patch_30">
    <path clip-path="url(#pe29a2b1d4f)" d="M 92.84425 3.348228 
L 94.207484 11.514498 
L 91.830156 10.72292 
L 91.654979 10.670988 
L 91.655893 10.664895 
L 89.278565 9.873316 
z
" style="fill:#1f77b4;stroke:#1f77b4;stroke-linejoin:miter;"/>
   </g>
   <g id="patch_31">
    <path clip-path="url(#pe29a2b1d4f)" d="M 172.0382 4.259483 
L 171.582149 12.647191 
L 169.498481 10.766706 
L 169.344843 10.631078 
L 169.345744 10.628862 
L 167.262076 8.748377 
z
" style="fill:#1f77b4;stroke:#1f77b4;stroke-linejoin:miter;"/>
   </g>
   <g id="patch_32">
    <path clip-path="url(#pe29a2b1d4f)" d="M 259.084277 97.122142 
L 255.427042 90.710584 
L 257.792639 89.844456 
L 257.965687 89.778815 
L 257.966042 89.780967 
L 260.331639 88.914839 
z
" style="fill:#1f77b4;stroke:#1f77b4;stroke-linejoin:miter;"/>
   </g>
   <g id="patch_33">
    <path clip-path="url(#pe29a2b1d4f)" d="M 233.798927 208.080335 
L 239.371959 206.726689 
L 238.647231 210.192633 
L 238.594552 210.446902 
L 238.594106 210.446695 
L 237.869378 213.912639 
z
" style="fill:#1f77b4;stroke:#1f77b4;stroke-linejoin:miter;"/>
   </g>
   <g id="patch_34">
    <path clip-path="url(#pe29a2b1d4f)" d="M 261.674528 120.886114 
L 258.476903 113.950288 
L 260.889565 113.449607 
L 261.066222 113.410804 
L 261.066419 113.412906 
L 263.47908 112.912225 
z
" style="fill:#ff7f0e;stroke:#ff7f0e;stroke-linejoin:miter;"/>
   </g>
   <g id="patch_35">
    <path clip-path="url(#pe29a2b1d4f)" d="M 218.446697 167.430691 
L 222.390118 173.453715 
L 220.069903 174.559374 
L 219.90003 174.641372 
L 219.899826 174.640422 
L 217.579611 175.746081 
z
" style="fill:#ff7f0e;stroke:#ff7f0e;stroke-linejoin:miter;"/>
   </g>
   <g id="patch_36">
    <path clip-path="url(#pe29a2b1d4f)" d="M 302.255787 92.234842 
L 299.157307 85.199779 
L 301.576534 84.775257 
L 301.75349 84.739332 
L 301.753869 84.744138 
L 304.173097 84.319616 
z
" style="fill:#ff7f0e;stroke:#ff7f0e;stroke-linejoin:miter;"/>
   </g>
   <g id="patch_37">
    <path clip-path="url(#pe29a2b1d4f)" d="M 303.80982 165.167603 
L 301.478345 157.503243 
L 303.912526 157.641199 
L 304.091064 157.647106 
L 304.090957 157.651312 
L 306.525137 157.789268 
z
" style="fill:#ff7f0e;stroke:#ff7f0e;stroke-linejoin:miter;"/>
   </g>
   <g id="patch_38">
    <path clip-path="url(#pe29a2b1d4f)" d="M 373.800636 65.678583 
L 370.848444 58.505155 
L 373.275272 58.19145 
L 373.452621 58.159126 
L 373.453164 58.168455 
L 375.879992 57.85475 
z
" style="fill:#ff7f0e;stroke:#ff7f0e;stroke-linejoin:miter;"/>
   </g>
   <g id="patch_39">
    <path clip-path="url(#pe29a2b1d4f)" d="M 374.864145 197.749988 
L 372.658418 190.0034 
L 375.089627 190.229532 
L 375.268179 190.238011 
L 375.26784 190.246108 
L 377.69905 190.472239 
z
" style="fill:#ff7f0e;stroke:#ff7f0e;stroke-linejoin:miter;"/>
   </g>
   <g id="patch_40">
    <path clip-path="url(#pe29a2b1d4f)" d="M 409.637887 64.345668 
L 406.762558 57.103229 
L 409.192425 56.847039 
L 409.369995 56.816787 
L 409.37054 56.82826 
L 411.800406 56.57207 
z
" style="fill:#ff7f0e;stroke:#ff7f0e;stroke-linejoin:miter;"/>
   </g>
   <g id="patch_41">
    <path clip-path="url(#pe29a2b1d4f)" d="M 409.411414 117.596856 
L 406.756747 110.169662 
L 409.191877 110.07601 
L 409.370188 110.058212 
L 409.370377 110.069145 
L 411.805506 109.975492 
z
" style="fill:#ff7f0e;stroke:#ff7f0e;stroke-linejoin:miter;"/>
   </g>
   <g id="patch_42">
    <path clip-path="url(#pe29a2b1d4f)" d="M 409.04154 172.794757 
L 406.647172 165.173585 
L 409.082305 165.267042 
L 409.260985 165.263526 
L 409.260806 165.273892 
L 411.695938 165.36735 
z
" style="fill:#ff7f0e;stroke:#ff7f0e;stroke-linejoin:miter;"/>
   </g>
   <g id="patch_43">
    <path clip-path="url(#pe29a2b1d4f)" d="M 407.194394 223.41619 
L 405.07447 215.616577 
L 407.502854 215.902279 
L 407.681378 215.913464 
L 407.680861 215.923222 
L 410.109245 216.208925 
z
" style="fill:#ff7f0e;stroke:#ff7f0e;stroke-linejoin:miter;"/>
   </g>
   <g id="patch_44">
    <path clip-path="url(#pe29a2b1d4f)" d="M 408.481133 219.634019 
L 406.336868 211.849198 
L 408.766118 212.11805 
L 408.94468 212.127885 
L 408.944188 212.137757 
L 411.373439 212.406609 
z
" style="fill:#ff7f0e;stroke:#ff7f0e;stroke-linejoin:miter;"/>
   </g>
   <g id="patch_45">
    <path clip-path="url(#pe29a2b1d4f)" d="M 405.896006 258.301311 
L 403.988678 250.38073 
L 406.407366 250.812026 
L 406.585412 250.834302 
L 406.584662 250.843641 
L 409.00335 251.274936 
z
" style="fill:#ff7f0e;stroke:#ff7f0e;stroke-linejoin:miter;"/>
   </g>
   <g id="patch_46">
    <path clip-path="url(#pe29a2b1d4f)" d="M 408.59916 273.710084 
L 406.777921 265.744626 
L 409.191619 266.234085 
L 409.369402 266.260616 
L 409.368549 266.269963 
L 411.782247 266.759423 
z
" style="fill:#ff7f0e;stroke:#ff7f0e;stroke-linejoin:miter;"/>
   </g>
   <g id="patch_47">
    <path clip-path="url(#pe29a2b1d4f)" d="M 407.685872 283.044613 
L 405.928693 275.047258 
L 408.33829 275.579709 
L 408.515835 275.609537 
L 408.51492 275.618739 
L 410.924517 276.15119 
z
" style="fill:#ff7f0e;stroke:#ff7f0e;stroke-linejoin:miter;"/>
   </g>
   <g id="patch_48">
    <path clip-path="url(#pe29a2b1d4f)" d="M 325.861865 284.008145 
L 324.939048 275.706087 
L 327.266563 276.777126 
L 327.438083 276.851255 
L 327.437176 276.855636 
L 329.764691 277.926674 
z
" style="fill:#ff7f0e;stroke:#ff7f0e;stroke-linejoin:miter;"/>
   </g>
   <g id="patch_49">
    <path clip-path="url(#pe29a2b1d4f)" d="M 255.696094 279.058424 
L 259.762907 273.220484 
L 260.489796 276.685423 
L 260.543973 276.938994 
L 260.543079 276.939411 
L 261.269968 280.40435 
z
" style="fill:#ff7f0e;stroke:#ff7f0e;stroke-linejoin:miter;"/>
   </g>
   <g id="patch_50">
    <path clip-path="url(#pe29a2b1d4f)" d="M 183.752767 178.807084 
L 186.902214 185.791699 
L 184.486215 186.255263 
L 184.309391 186.292422 
L 184.309117 186.289243 
L 181.893118 186.752806 
z
" style="fill:#ff7f0e;stroke:#ff7f0e;stroke-linejoin:miter;"/>
   </g>
   <g id="patch_51">
    <path clip-path="url(#pe29a2b1d4f)" d="M 250.957815 120.404479 
L 247.462662 113.795174 
L 249.848186 113.060403 
L 250.02285 113.005091 
L 250.023051 113.006543 
L 252.408575 112.271772 
z
" style="fill:#ff7f0e;stroke:#ff7f0e;stroke-linejoin:miter;"/>
   </g>
   <g id="patch_52">
    <path clip-path="url(#pe29a2b1d4f)" d="M 127.915485 213.380291 
L 130.966537 220.461246 
L 128.544578 220.84964 
L 128.367538 220.884959 
L 128.367043 220.878111 
L 125.945084 221.266505 
z
" style="fill:#ff7f0e;stroke:#ff7f0e;stroke-linejoin:miter;"/>
   </g>
   <g id="patch_53">
    <path clip-path="url(#pe29a2b1d4f)" d="M 126.110566 109.81656 
L 128.38354 117.51985 
L 125.950567 117.340742 
L 125.772027 117.333565 
L 125.772224 117.327613 
L 123.339251 117.148506 
z
" style="fill:#ff7f0e;stroke:#ff7f0e;stroke-linejoin:miter;"/>
   </g>
   <g id="patch_54">
    <path clip-path="url(#pe29a2b1d4f)" d="M 51.665201 258.740292 
L 54.673219 265.862022 
L 52.249006 266.217803 
L 52.072087 266.255716 
L 52.071305 266.243883 
L 49.647092 266.599664 
z
" style="fill:#ff7f0e;stroke:#ff7f0e;stroke-linejoin:miter;"/>
   </g>
   <g id="patch_55">
    <path clip-path="url(#pe29a2b1d4f)" d="M 51.922614 194.590166 
L 54.682999 201.931264 
L 52.249764 202.102321 
L 52.071757 202.126042 
L 52.071403 202.114859 
L 49.638169 202.285915 
z
" style="fill:#ff7f0e;stroke:#ff7f0e;stroke-linejoin:miter;"/>
   </g>
   <g id="patch_56">
    <path clip-path="url(#pe29a2b1d4f)" d="M 52.134175 147.243953 
L 54.686084 154.750718 
L 52.250178 154.769928 
L 52.071659 154.782039 
L 52.071621 154.771336 
L 49.635715 154.790546 
z
" style="fill:#ff7f0e;stroke:#ff7f0e;stroke-linejoin:miter;"/>
   </g>
   <g id="patch_57">
    <path clip-path="url(#pe29a2b1d4f)" d="M 53.048453 82.160093 
L 55.271608 89.895608 
L 52.839903 89.681635 
L 52.661257 89.675957 
L 52.661653 89.66595 
L 50.229948 89.451977 
z
" style="fill:#ff7f0e;stroke:#ff7f0e;stroke-linejoin:miter;"/>
   </g>
   <g id="patch_58">
    <path clip-path="url(#pe29a2b1d4f)" d="M 55.25306 42.92044 
L 57.245674 50.794248 
L 54.822642 50.42102 
L 54.64437 50.403153 
L 54.645028 50.393662 
L 52.221996 50.020435 
z
" style="fill:#ff7f0e;stroke:#ff7f0e;stroke-linejoin:miter;"/>
   </g>
   <g id="patch_59">
    <path clip-path="url(#pe29a2b1d4f)" d="M 52.63703 49.323115 
L 54.675557 57.170775 
L 52.250437 56.828995 
L 52.072054 56.81365 
L 52.07267 56.803942 
L 49.64755 56.462162 
z
" style="fill:#ff7f0e;stroke:#ff7f0e;stroke-linejoin:miter;"/>
   </g>
   <g id="patch_60">
    <path clip-path="url(#pe29a2b1d4f)" d="M 54.048059 30.059753 
L 55.966274 37.974492 
L 53.546998 37.550584 
L 53.368915 37.528946 
L 53.369659 37.51951 
L 50.950383 37.095602 
z
" style="fill:#ff7f0e;stroke:#ff7f0e;stroke-linejoin:miter;"/>
   </g>
   <g id="patch_61">
    <path clip-path="url(#pe29a2b1d4f)" d="M 92.724351 3.309775 
L 94.220119 11.424352 
L 91.830605 10.718961 
L 91.654533 10.674147 
L 91.655449 10.667254 
L 89.265935 9.961863 
z
" style="fill:#ff7f0e;stroke:#ff7f0e;stroke-linejoin:miter;"/>
   </g>
   <g id="patch_62">
    <path clip-path="url(#pe29a2b1d4f)" d="M 171.979801 4.207507 
L 171.599563 12.603605 
L 169.499097 10.765098 
L 169.344228 10.632617 
L 169.345128 10.630331 
L 167.244662 8.791824 
z
" style="fill:#ff7f0e;stroke:#ff7f0e;stroke-linejoin:miter;"/>
   </g>
   <g id="patch_63">
    <path clip-path="url(#pe29a2b1d4f)" d="M 259.074821 97.19856 
L 255.421457 90.782101 
L 257.787575 89.919145 
L 257.960663 89.853731 
L 257.961017 89.855888 
L 260.327135 88.992933 
z
" style="fill:#ff7f0e;stroke:#ff7f0e;stroke-linejoin:miter;"/>
   </g>
   <g id="patch_64">
    <path clip-path="url(#pe29a2b1d4f)" d="M 218.446697 167.430691 
L 222.390118 173.453715 
L 220.069903 174.559374 
L 219.90003 174.641372 
L 219.899826 174.640422 
L 217.579611 175.746081 
z
" style="fill:#ff7f0e;stroke:#ff7f0e;stroke-linejoin:miter;"/>
   </g>
   <g id="matplotlib.axis_1">
    <g id="xtick_1">
     <g id="line2d_1">
      <defs>
       <path d="M 0 0 
L 0 3.5 
" id="m8ea6eb542f" style="stroke:#000000;stroke-width:0.8;"/>
      </defs>
      <g>
       <use style="stroke:#000000;stroke-width:0.8;" x="52.160938" xlink:href="#m8ea6eb542f" y="276.812"/>
      </g>
     </g>
     <g id="text_1">
      <!-- −1.00 -->
      <defs>
       <path d="M 10.59375 35.5 
L 73.1875 35.5 
L 73.1875 27.203125 
L 10.59375 27.203125 
z
" id="DejaVuSans-2212"/>
       <path d="M 12.40625 8.296875 
L 28.515625 8.296875 
L 28.515625 63.921875 
L 10.984375 60.40625 
L 10.984375 69.390625 
L 28.421875 72.90625 
L 38.28125 72.90625 
L 38.28125 8.296875 
L 54.390625 8.296875 
L 54.390625 0 
L 12.40625 0 
z
" id="DejaVuSans-31"/>
       <path d="M 10.6875 12.40625 
L 21 12.40625 
L 21 0 
L 10.6875 0 
z
" id="DejaVuSans-2e"/>
       <path d="M 31.78125 66.40625 
Q 24.171875 66.40625 20.328125 58.90625 
Q 16.5 51.421875 16.5 36.375 
Q 16.5 21.390625 20.328125 13.890625 
Q 24.171875 6.390625 31.78125 6.390625 
Q 39.453125 6.390625 43.28125 13.890625 
Q 47.125 21.390625 47.125 36.375 
Q 47.125 51.421875 43.28125 58.90625 
Q 39.453125 66.40625 31.78125 66.40625 
M 31.78125 74.21875 
Q 44.046875 74.21875 50.515625 64.515625 
Q 56.984375 54.828125 56.984375 36.375 
Q 56.984375 17.96875 50.515625 8.265625 
Q 44.046875 -1.421875 31.78125 -1.421875 
Q 19.53125 -1.421875 13.0625 8.265625 
Q 6.59375 17.96875 6.59375 36.375 
Q 6.59375 54.828125 13.0625 64.515625 
Q 19.53125 74.21875 31.78125 74.21875 
" id="DejaVuSans-30"/>
      </defs>
      <g transform="translate(36.838281 291.410438)scale(0.1 -0.1)">
       <use xlink:href="#DejaVuSans-2212"/>
       <use x="83.789062" xlink:href="#DejaVuSans-31"/>
       <use x="147.412109" xlink:href="#DejaVuSans-2e"/>
       <use x="179.199219" xlink:href="#DejaVuSans-30"/>
       <use x="242.822266" xlink:href="#DejaVuSans-30"/>
      </g>
     </g>
    </g>
    <g id="xtick_2">
     <g id="line2d_2">
      <g>
       <use style="stroke:#000000;stroke-width:0.8;" x="96.800938" xlink:href="#m8ea6eb542f" y="276.812"/>
      </g>
     </g>
     <g id="text_2">
      <!-- −0.75 -->
      <defs>
       <path d="M 8.203125 72.90625 
L 55.078125 72.90625 
L 55.078125 68.703125 
L 28.609375 0 
L 18.3125 0 
L 43.21875 64.59375 
L 8.203125 64.59375 
z
" id="DejaVuSans-37"/>
       <path d="M 10.796875 72.90625 
L 49.515625 72.90625 
L 49.515625 64.59375 
L 19.828125 64.59375 
L 19.828125 46.734375 
Q 21.96875 47.46875 24.109375 47.828125 
Q 26.265625 48.1875 28.421875 48.1875 
Q 40.625 48.1875 47.75 41.5 
Q 54.890625 34.8125 54.890625 23.390625 
Q 54.890625 11.625 47.5625 5.09375 
Q 40.234375 -1.421875 26.90625 -1.421875 
Q 22.3125 -1.421875 17.546875 -0.640625 
Q 12.796875 0.140625 7.71875 1.703125 
L 7.71875 11.625 
Q 12.109375 9.234375 16.796875 8.0625 
Q 21.484375 6.890625 26.703125 6.890625 
Q 35.15625 6.890625 40.078125 11.328125 
Q 45.015625 15.765625 45.015625 23.390625 
Q 45.015625 31 40.078125 35.4375 
Q 35.15625 39.890625 26.703125 39.890625 
Q 22.75 39.890625 18.8125 39.015625 
Q 14.890625 38.140625 10.796875 36.28125 
z
" id="DejaVuSans-35"/>
      </defs>
      <g transform="translate(81.478281 291.410438)scale(0.1 -0.1)">
       <use xlink:href="#DejaVuSans-2212"/>
       <use x="83.789062" xlink:href="#DejaVuSans-30"/>
       <use x="147.412109" xlink:href="#DejaVuSans-2e"/>
       <use x="179.199219" xlink:href="#DejaVuSans-37"/>
       <use x="242.822266" xlink:href="#DejaVuSans-35"/>
      </g>
     </g>
    </g>
    <g id="xtick_3">
     <g id="line2d_3">
      <g>
       <use style="stroke:#000000;stroke-width:0.8;" x="141.440938" xlink:href="#m8ea6eb542f" y="276.812"/>
      </g>
     </g>
     <g id="text_3">
      <!-- −0.50 -->
      <g transform="translate(126.118281 291.410438)scale(0.1 -0.1)">
       <use xlink:href="#DejaVuSans-2212"/>
       <use x="83.789062" xlink:href="#DejaVuSans-30"/>
       <use x="147.412109" xlink:href="#DejaVuSans-2e"/>
       <use x="179.199219" xlink:href="#DejaVuSans-35"/>
       <use x="242.822266" xlink:href="#DejaVuSans-30"/>
      </g>
     </g>
    </g>
    <g id="xtick_4">
     <g id="line2d_4">
      <g>
       <use style="stroke:#000000;stroke-width:0.8;" x="186.080938" xlink:href="#m8ea6eb542f" y="276.812"/>
      </g>
     </g>
     <g id="text_4">
      <!-- −0.25 -->
      <defs>
       <path d="M 19.1875 8.296875 
L 53.609375 8.296875 
L 53.609375 0 
L 7.328125 0 
L 7.328125 8.296875 
Q 12.9375 14.109375 22.625 23.890625 
Q 32.328125 33.6875 34.8125 36.53125 
Q 39.546875 41.84375 41.421875 45.53125 
Q 43.3125 49.21875 43.3125 52.78125 
Q 43.3125 58.59375 39.234375 62.25 
Q 35.15625 65.921875 28.609375 65.921875 
Q 23.96875 65.921875 18.8125 64.3125 
Q 13.671875 62.703125 7.8125 59.421875 
L 7.8125 69.390625 
Q 13.765625 71.78125 18.9375 73 
Q 24.125 74.21875 28.421875 74.21875 
Q 39.75 74.21875 46.484375 68.546875 
Q 53.21875 62.890625 53.21875 53.421875 
Q 53.21875 48.921875 51.53125 44.890625 
Q 49.859375 40.875 45.40625 35.40625 
Q 44.1875 33.984375 37.640625 27.21875 
Q 31.109375 20.453125 19.1875 8.296875 
" id="DejaVuSans-32"/>
      </defs>
      <g transform="translate(170.758281 291.410438)scale(0.1 -0.1)">
       <use xlink:href="#DejaVuSans-2212"/>
       <use x="83.789062" xlink:href="#DejaVuSans-30"/>
       <use x="147.412109" xlink:href="#DejaVuSans-2e"/>
       <use x="179.199219" xlink:href="#DejaVuSans-32"/>
       <use x="242.822266" xlink:href="#DejaVuSans-35"/>
      </g>
     </g>
    </g>
    <g id="xtick_5">
     <g id="line2d_5">
      <g>
       <use style="stroke:#000000;stroke-width:0.8;" x="230.720938" xlink:href="#m8ea6eb542f" y="276.812"/>
      </g>
     </g>
     <g id="text_5">
      <!-- 0.00 -->
      <g transform="translate(219.588125 291.410438)scale(0.1 -0.1)">
       <use xlink:href="#DejaVuSans-30"/>
       <use x="63.623047" xlink:href="#DejaVuSans-2e"/>
       <use x="95.410156" xlink:href="#DejaVuSans-30"/>
       <use x="159.033203" xlink:href="#DejaVuSans-30"/>
      </g>
     </g>
    </g>
    <g id="xtick_6">
     <g id="line2d_6">
      <g>
       <use style="stroke:#000000;stroke-width:0.8;" x="275.360938" xlink:href="#m8ea6eb542f" y="276.812"/>
      </g>
     </g>
     <g id="text_6">
      <!-- 0.25 -->
      <g transform="translate(264.228125 291.410438)scale(0.1 -0.1)">
       <use xlink:href="#DejaVuSans-30"/>
       <use x="63.623047" xlink:href="#DejaVuSans-2e"/>
       <use x="95.410156" xlink:href="#DejaVuSans-32"/>
       <use x="159.033203" xlink:href="#DejaVuSans-35"/>
      </g>
     </g>
    </g>
    <g id="xtick_7">
     <g id="line2d_7">
      <g>
       <use style="stroke:#000000;stroke-width:0.8;" x="320.000938" xlink:href="#m8ea6eb542f" y="276.812"/>
      </g>
     </g>
     <g id="text_7">
      <!-- 0.50 -->
      <g transform="translate(308.868125 291.410438)scale(0.1 -0.1)">
       <use xlink:href="#DejaVuSans-30"/>
       <use x="63.623047" xlink:href="#DejaVuSans-2e"/>
       <use x="95.410156" xlink:href="#DejaVuSans-35"/>
       <use x="159.033203" xlink:href="#DejaVuSans-30"/>
      </g>
     </g>
    </g>
    <g id="xtick_8">
     <g id="line2d_8">
      <g>
       <use style="stroke:#000000;stroke-width:0.8;" x="364.640938" xlink:href="#m8ea6eb542f" y="276.812"/>
      </g>
     </g>
     <g id="text_8">
      <!-- 0.75 -->
      <g transform="translate(353.508125 291.410438)scale(0.1 -0.1)">
       <use xlink:href="#DejaVuSans-30"/>
       <use x="63.623047" xlink:href="#DejaVuSans-2e"/>
       <use x="95.410156" xlink:href="#DejaVuSans-37"/>
       <use x="159.033203" xlink:href="#DejaVuSans-35"/>
      </g>
     </g>
    </g>
    <g id="xtick_9">
     <g id="line2d_9">
      <g>
       <use style="stroke:#000000;stroke-width:0.8;" x="409.280938" xlink:href="#m8ea6eb542f" y="276.812"/>
      </g>
     </g>
     <g id="text_9">
      <!-- 1.00 -->
      <g transform="translate(398.148125 291.410438)scale(0.1 -0.1)">
       <use xlink:href="#DejaVuSans-31"/>
       <use x="63.623047" xlink:href="#DejaVuSans-2e"/>
       <use x="95.410156" xlink:href="#DejaVuSans-30"/>
       <use x="159.033203" xlink:href="#DejaVuSans-30"/>
      </g>
     </g>
    </g>
    <g id="text_10">
     <!-- x1 -->
     <defs>
      <path d="M 54.890625 54.6875 
L 35.109375 28.078125 
L 55.90625 0 
L 45.3125 0 
L 29.390625 21.484375 
L 13.484375 0 
L 2.875 0 
L 24.125 28.609375 
L 4.6875 54.6875 
L 15.28125 54.6875 
L 29.78125 35.203125 
L 44.28125 54.6875 
z
" id="DejaVuSans-78"/>
     </defs>
     <g transform="translate(224.580313 305.088562)scale(0.1 -0.1)">
      <use xlink:href="#DejaVuSans-78"/>
      <use x="59.179688" xlink:href="#DejaVuSans-31"/>
     </g>
    </g>
   </g>
   <g id="matplotlib.axis_2">
    <g id="ytick_1">
     <g id="line2d_10">
      <defs>
       <path d="M 0 0 
L -3.5 0 
" id="m9b7d1d1e1b" style="stroke:#000000;stroke-width:0.8;"/>
      </defs>
      <g>
       <use style="stroke:#000000;stroke-width:0.8;" x="52.160938" xlink:href="#m9b7d1d1e1b" y="250.2008"/>
      </g>
     </g>
     <g id="text_11">
      <!-- −0.4 -->
      <defs>
       <path d="M 37.796875 64.3125 
L 12.890625 25.390625 
L 37.796875 25.390625 
z
M 35.203125 72.90625 
L 47.609375 72.90625 
L 47.609375 25.390625 
L 58.015625 25.390625 
L 58.015625 17.1875 
L 47.609375 17.1875 
L 47.609375 0 
L 37.796875 0 
L 37.796875 17.1875 
L 4.890625 17.1875 
L 4.890625 26.703125 
z
" id="DejaVuSans-34"/>
      </defs>
      <g transform="translate(20.878125 254.000019)scale(0.1 -0.1)">
       <use xlink:href="#DejaVuSans-2212"/>
       <use x="83.789062" xlink:href="#DejaVuSans-30"/>
       <use x="147.412109" xlink:href="#DejaVuSans-2e"/>
       <use x="179.199219" xlink:href="#DejaVuSans-34"/>
      </g>
     </g>
    </g>
    <g id="ytick_2">
     <g id="line2d_11">
      <g>
       <use style="stroke:#000000;stroke-width:0.8;" x="52.160938" xlink:href="#m9b7d1d1e1b" y="196.9784"/>
      </g>
     </g>
     <g id="text_12">
      <!-- −0.2 -->
      <g transform="translate(20.878125 200.777619)scale(0.1 -0.1)">
       <use xlink:href="#DejaVuSans-2212"/>
       <use x="83.789062" xlink:href="#DejaVuSans-30"/>
       <use x="147.412109" xlink:href="#DejaVuSans-2e"/>
       <use x="179.199219" xlink:href="#DejaVuSans-32"/>
      </g>
     </g>
    </g>
    <g id="ytick_3">
     <g id="line2d_12">
      <g>
       <use style="stroke:#000000;stroke-width:0.8;" x="52.160938" xlink:href="#m9b7d1d1e1b" y="143.756"/>
      </g>
     </g>
     <g id="text_13">
      <!-- 0.0 -->
      <g transform="translate(29.257812 147.555219)scale(0.1 -0.1)">
       <use xlink:href="#DejaVuSans-30"/>
       <use x="63.623047" xlink:href="#DejaVuSans-2e"/>
       <use x="95.410156" xlink:href="#DejaVuSans-30"/>
      </g>
     </g>
    </g>
    <g id="ytick_4">
     <g id="line2d_13">
      <g>
       <use style="stroke:#000000;stroke-width:0.8;" x="52.160938" xlink:href="#m9b7d1d1e1b" y="90.5336"/>
      </g>
     </g>
     <g id="text_14">
      <!-- 0.2 -->
      <g transform="translate(29.257812 94.332819)scale(0.1 -0.1)">
       <use xlink:href="#DejaVuSans-30"/>
       <use x="63.623047" xlink:href="#DejaVuSans-2e"/>
       <use x="95.410156" xlink:href="#DejaVuSans-32"/>
      </g>
     </g>
    </g>
    <g id="ytick_5">
     <g id="line2d_14">
      <g>
       <use style="stroke:#000000;stroke-width:0.8;" x="52.160938" xlink:href="#m9b7d1d1e1b" y="37.3112"/>
      </g>
     </g>
     <g id="text_15">
      <!-- 0.4 -->
      <g transform="translate(29.257812 41.110419)scale(0.1 -0.1)">
       <use xlink:href="#DejaVuSans-30"/>
       <use x="63.623047" xlink:href="#DejaVuSans-2e"/>
       <use x="95.410156" xlink:href="#DejaVuSans-34"/>
      </g>
     </g>
    </g>
    <g id="text_16">
     <!-- x2 -->
     <g transform="translate(14.798438 149.896625)rotate(-90)scale(0.1 -0.1)">
      <use xlink:href="#DejaVuSans-78"/>
      <use x="59.179688" xlink:href="#DejaVuSans-32"/>
     </g>
    </g>
   </g>
   <g id="line2d_15">
    <path clip-path="url(#pe29a2b1d4f)" d="M 230.720938 10.7 
L 233.357979 14.867086 
L 235.907742 19.367927 
L 238.363758 24.176576 
L 240.720094 29.266687 
L 242.971356 34.611653 
L 245.112685 40.184722 
L 247.13976 45.959102 
L 249.658333 53.925303 
L 251.959629 62.139249 
L 254.03783 70.539284 
L 255.88875 79.065161 
L 257.509798 87.658387 
L 258.89993 96.262502 
L 260.059588 104.823345 
L 260.990644 113.289295 
L 261.696305 121.61156 
L 262.181044 129.744275 
L 262.450529 137.644617 
L 262.511534 145.272912 
L 262.371858 152.592739 
L 262.040234 159.571001 
L 261.526235 166.177988 
L 260.840187 172.387398 
L 259.993074 178.176347 
L 258.996451 183.525367 
L 257.862347 188.418392 
L 256.603181 192.842728 
L 255.231665 196.789012 
L 253.760718 200.251144 
L 252.203382 203.226218 
L 250.986555 205.137895 
L 249.733993 206.776845 
L 248.451167 208.145183 
L 247.143497 209.245913 
L 245.816331 210.082901 
L 244.474932 210.660831 
L 243.124462 210.985176 
L 241.769963 211.062152 
L 240.416348 210.898677 
L 239.068381 210.502335 
L 237.730667 209.881318 
L 236.407644 209.044392 
L 235.103563 208.000845 
L 233.401247 206.304961 
L 231.748875 204.283419 
L 230.154846 201.961626 
L 228.626869 199.365907 
L 226.820366 195.777292 
L 225.139983 191.856823 
L 223.595937 187.659002 
L 222.196613 183.238374 
L 220.948579 178.648985 
L 219.657236 172.993518 
L 218.595443 167.260029 
L 217.764621 161.533075 
L 217.16289 155.892118 
L 216.785286 150.410733 
L 216.624014 145.15594 
L 216.668718 140.187677 
L 216.906781 135.5584 
L 217.323632 131.312818 
L 217.903055 127.487716 
L 218.627514 124.111906 
L 219.478475 121.206292 
L 220.436713 118.784048 
L 221.303059 117.139086 
L 222.218895 115.833392 
L 223.172893 114.863201 
L 224.153904 114.221668 
L 224.950845 113.938628 
L 225.752711 113.853548 
L 226.554281 113.959232 
L 227.548217 114.347135 
L 228.524597 115.002688 
L 229.474767 115.906469 
L 230.569183 117.289159 
L 231.601984 118.960798 
L 232.714686 121.222585 
L 233.714484 123.757289 
L 234.704556 126.903138 
L 235.520715 130.220758 
L 236.22292 134.040727 
L 236.694697 137.831988 
L 236.941307 141.479897 
L 236.965738 145.243517 
L 236.750975 148.592584 
L 236.378609 151.179384 
L 235.863493 153.314255 
L 235.233825 154.970135 
L 234.601639 156.031507 
L 234.009502 156.645761 
L 233.395251 156.974927 
L 232.771989 157.032046 
L 232.152102 156.83442 
L 231.547076 156.402999 
L 230.88714 155.654505 
L 230.201078 154.534152 
L 229.52746 153.014488 
L 228.864568 150.92568 
L 228.344468 148.496745 
L 228.022683 145.882521 
L 227.939046 143.455282 
L 228.085 141.233926 
L 228.401239 139.62685 
L 228.809897 138.590743 
L 229.250714 138.035656 
L 229.641903 137.858228 
L 230.036802 137.921432 
L 230.457228 138.238515 
L 230.91197 138.891753 
L 231.351694 139.922249 
L 231.728242 141.378031 
L 231.93993 143.112589 
L 231.914399 144.681849 
L 231.689829 145.782893 
L 231.395158 146.280247 
L 231.116502 146.375949 
L 230.858469 146.22863 
L 230.56901 145.783712 
L 230.297568 144.932662 
L 230.171621 143.810017 
L 230.271496 142.911941 
L 230.480902 142.598096 
L 230.658123 142.655631 
L 230.843111 142.992155 
L 230.963975 143.683521 
L 230.87198 144.234814 
L 230.759554 144.254486 
L 230.736646 144.231643 
L 230.625836 143.925528 
L 230.677449 143.526328 
L 230.751244 143.625039 
L 230.741104 143.857859 
L 230.720938 143.756 
" style="fill:none;stroke:#1f77b4;stroke-linecap:square;stroke-width:0.5;"/>
   </g>
   <g id="line2d_16">
    <path clip-path="url(#pe29a2b1d4f)" d="M 292.020663 10.7 
L 292.896851 15.613597 
L 293.740197 20.526188 
L 294.550591 25.43597 
L 295.328055 30.341047 
L 296.07263 35.239547 
L 296.784368 40.129647 
L 297.463326 45.009536 
L 298.109579 49.877452 
L 298.723213 54.731663 
L 299.304327 59.570472 
L 299.853029 64.392196 
L 300.36944 69.195196 
L 300.853704 73.977889 
L 301.305946 78.738645 
L 301.726316 83.475895 
L 302.114977 88.188118 
L 302.472101 92.873809 
L 302.797876 97.531508 
L 303.092492 102.159774 
L 303.356157 106.757204 
L 303.58908 111.322414 
L 303.791484 115.85405 
L 303.963598 120.350786 
L 304.10566 124.811321 
L 304.217918 129.234385 
L 304.300626 133.618736 
L 304.354048 137.963158 
L 304.378457 142.266464 
L 304.374131 146.527494 
L 304.34136 150.745116 
L 304.280437 154.918223 
L 304.191665 159.045737 
L 304.075353 163.126603 
L 303.931818 167.159796 
L 303.761383 171.144315 
L 303.564378 175.079186 
L 303.341138 178.963461 
L 303.092009 182.796217 
L 302.817336 186.576558 
L 302.517476 190.303611 
L 302.19279 193.976531 
L 301.843643 197.594498 
L 301.470405 201.156715 
L 301.073456 204.662412 
L 300.653175 208.110845 
L 300.20995 211.501291 
L 299.744172 214.833056 
L 299.256237 218.105467 
L 298.746545 221.317879 
L 298.215501 224.469674 
L 297.663515 227.560251 
L 297.090997 230.589039 
L 296.498365 233.555487 
L 295.886039 236.459081 
L 295.254442 239.299317 
L 294.604002 242.075723 
L 293.935147 244.787848 
L 293.24831 247.43527 
L 292.543927 250.017591 
L 291.822437 252.534435 
L 291.084279 254.985452 
L 290.329897 257.370316 
L 289.559734 259.68873 
L 288.774239 261.940416 
L 287.97386 264.125125 
L 287.159047 266.24263 
L 286.330252 268.292731 
L 285.487926 270.275252 
L 284.632526 272.190042 
L 283.764505 274.036976 
L 282.884319 275.815951 
L 281.992424 277.526892 
" style="fill:none;stroke:#1f77b4;stroke-linecap:square;stroke-width:0.5;"/>
   </g>
   <g id="line2d_17">
    <path clip-path="url(#pe29a2b1d4f)" d="M 369.699764 10.7 
L 370.562876 19.478319 
L 371.36748 28.204473 
L 372.113707 36.876303 
L 372.80193 45.491774 
L 373.432539 54.048907 
L 374.005934 62.545806 
L 374.522524 70.980622 
L 374.98273 79.351569 
L 375.386986 87.656933 
L 375.735738 95.895052 
L 376.029444 104.064306 
L 376.268568 112.16312 
L 376.45359 120.189969 
L 376.584997 128.143377 
L 376.663289 136.021904 
L 376.688967 143.824126 
L 376.662551 151.548688 
L 376.584568 159.19427 
L 376.455553 166.759577 
L 376.27605 174.243339 
L 376.046607 181.64431 
L 375.767783 188.961279 
L 375.440147 196.193065 
L 375.064275 203.338509 
L 374.640749 210.396471 
L 374.170161 217.365839 
L 373.653109 224.245516 
L 373.090198 231.03443 
L 372.48204 237.731518 
L 371.829255 244.335735 
L 371.132471 250.84607 
L 370.392321 257.261516 
L 369.609441 263.58106 
L 368.784483 269.803751 
L 367.918101 275.928636 
L 367.01095 281.954735 
" style="fill:none;stroke:#1f77b4;stroke-linecap:square;stroke-width:0.5;"/>
   </g>
   <g id="line2d_18">
    <path clip-path="url(#pe29a2b1d4f)" d="M 409.280938 56.826177 
L 409.831221 66.612338 
" style="fill:none;stroke:#1f77b4;stroke-linecap:square;stroke-width:0.5;"/>
   </g>
   <g id="line2d_19">
    <path clip-path="url(#pe29a2b1d4f)" d="M 409.280938 110.061645 
L 409.475895 119.312504 
" style="fill:none;stroke:#1f77b4;stroke-linecap:square;stroke-width:0.5;"/>
   </g>
   <g id="line2d_20">
    <path clip-path="url(#pe29a2b1d4f)" d="M 409.280938 154.781334 
L 409.177371 163.582474 
L 409.015075 172.291794 
L 408.79464 180.908321 
L 408.516702 189.431092 
L 408.181896 197.859175 
L 407.790858 206.19165 
L 407.344233 214.427614 
L 406.842672 222.566169 
L 406.28683 230.606432 
L 405.677369 238.547527 
L 405.014959 246.388567 
L 404.300272 254.128679 
L 403.53399 261.767012 
L 402.716801 269.302722 
L 401.849391 276.734856 
L 400.932461 284.062596 
" style="fill:none;stroke:#1f77b4;stroke-linecap:square;stroke-width:0.5;"/>
   </g>
   <g id="line2d_21">
    <path clip-path="url(#pe29a2b1d4f)" d="M 409.280938 202.119773 
L 408.861273 210.444697 
L 408.386184 218.672462 
L 407.856236 226.802101 
L 407.272036 234.832815 
L 406.634259 242.763726 
L 405.943595 250.593952 
L 405.200728 258.322636 
L 404.406347 265.94891 
L 403.561145 273.471912 
L 402.665815 280.890782 
" style="fill:none;stroke:#1f77b4;stroke-linecap:square;stroke-width:0.5;"/>
   </g>
   <g id="line2d_22">
    <path clip-path="url(#pe29a2b1d4f)" d="M 409.280938 266.242677 
L 408.433124 273.922533 
L 407.534276 281.497981 
" style="fill:none;stroke:#1f77b4;stroke-linecap:square;stroke-width:0.5;"/>
   </g>
   <g id="line2d_23">
    <path clip-path="url(#pe29a2b1d4f)" d="M 327.352777 276.812 
L 326.446072 280.920897 
" style="fill:none;stroke:#1f77b4;stroke-linecap:square;stroke-width:0.5;"/>
   </g>
   <g id="line2d_24">
    <path clip-path="url(#pe29a2b1d4f)" d="M 260.517332 276.812 
L 259.623122 277.220834 
" style="fill:none;stroke:#1f77b4;stroke-linecap:square;stroke-width:0.5;"/>
   </g>
   <g id="line2d_25">
    <path clip-path="url(#pe29a2b1d4f)" d="M 200.924543 276.812 
L 198.340388 267.426187 
L 195.946692 257.886427 
L 193.746243 248.231585 
L 191.740966 238.499535 
L 189.932052 228.727124 
L 188.31999 218.950102 
L 186.904523 209.202936 
L 185.684697 199.518753 
L 184.658908 189.929314 
L 183.82494 180.464984 
L 183.179985 171.154672 
L 182.720665 162.025798 
L 182.443064 153.104272 
L 182.342759 144.414475 
L 182.414853 135.979253 
L 182.654005 127.819904 
L 183.05446 119.956169 
L 183.610082 112.406242 
L 184.314387 105.186761 
L 185.160596 98.312818 
L 186.141585 91.797949 
L 187.250018 85.654151 
L 188.47827 79.891869 
L 189.818582 74.520023 
L 191.263017 69.546013 
L 192.803525 64.975728 
L 194.431934 60.813559 
L 196.140003 57.062424 
L 197.919434 53.723781 
L 199.761919 50.797649 
L 201.659161 48.282642 
L 203.602912 46.175994 
L 205.584991 44.473598 
L 206.923674 43.560632 
L 208.27343 42.823037 
L 209.631921 42.258652 
L 210.996837 41.865085 
L 212.365904 41.639708 
L 213.736883 41.579683 
L 215.107574 41.681948 
L 216.475821 41.943245 
L 217.839514 42.360115 
L 219.872013 43.269096 
L 221.882883 44.506824 
L 223.865643 46.059423 
L 225.814103 47.912253 
L 227.722372 50.050002 
L 229.584873 52.456751 
L 231.396358 55.116057 
L 233.151912 58.011034 
L 235.397795 62.207737 
L 237.526288 66.75104 
L 239.528657 71.598688 
L 241.397295 76.708146 
L 243.125767 82.03692 
L 244.708755 87.54282 
L 246.476609 94.610955 
L 248.004885 101.811482 
L 249.290437 109.067723 
L 250.332643 116.306328 
L 251.133269 123.457826 
L 251.696343 130.457084 
L 252.027997 137.243705 
L 252.13631 143.76236 
L 252.031127 149.963041 
L 251.723876 155.801244 
L 251.227386 161.238112 
L 250.555692 166.24054 
L 249.723846 170.781194 
L 248.747718 174.838476 
L 247.643809 178.396506 
L 246.429059 181.444925 
L 245.389003 183.513231 
L 244.29786 185.251987 
L 243.164452 186.663128 
L 241.997526 187.750538 
L 240.805695 188.520007 
L 239.597398 188.979065 
L 238.380844 189.136915 
L 237.163977 189.004291 
L 235.954437 188.593329 
L 234.759511 187.917467 
L 233.586121 186.99127 
L 232.440769 185.830336 
L 231.057737 184.07421 
L 229.738873 182.010793 
L 228.493904 179.675185 
L 227.109402 176.563981 
L 225.85594 173.176065 
L 224.743379 169.574901 
L 223.6331 165.187641 
L 222.731799 160.692271 
L 222.042366 156.181059 
L 221.512015 151.116352 
L 221.248421 146.260579 
L 221.237536 141.716731 
L 221.4602 137.572224 
L 221.892999 133.898004 
L 222.423094 131.11165 
L 223.074111 128.752359 
L 223.825587 126.835864 
L 224.533767 125.550613 
L 225.28706 124.594198 
L 226.072327 123.960848 
L 226.74188 123.672788 
L 227.417554 123.59446 
L 228.092469 123.716412 
L 228.89218 124.111616 
L 229.670849 124.75802 
L 230.539887 125.798 
L 231.464619 127.313546 
L 232.299997 129.116233 
L 233.116143 131.404845 
L 233.853364 134.160257 
L 234.445852 137.304122 
L 234.8066 140.414956 
L 234.945127 143.608718 
L 234.839829 146.449289 
L 234.523962 148.823198 
L 234.084252 150.524217 
L 233.590092 151.649084 
L 233.091715 152.313734 
L 232.562976 152.656757 
L 232.082843 152.705278 
L 231.60619 152.530369 
L 231.088304 152.093392 
L 230.552388 151.351488 
L 229.986233 150.179025 
L 229.457841 148.547213 
L 229.051408 146.525655 
L 228.856823 144.424889 
L 228.897124 142.485378 
L 229.144772 141.01444 
L 229.488066 140.179309 
L 229.843371 139.825865 
L 230.162896 139.788402 
L 230.501761 139.993422 
L 230.857496 140.490383 
L 231.218458 141.398387 
L 231.48418 142.681418 
L 231.549209 144.042483 
L 231.397924 145.053022 
L 231.148515 145.479659 
L 230.924499 145.503505 
L 230.702516 145.280048 
L 230.468177 144.688927 
L 230.350456 143.784519 
L 230.456904 143.086629 
L 230.634486 142.981417 
L 230.778891 143.176623 
L 230.885201 143.72092 
L 230.783228 144.10507 
L 230.690511 144.001834 
L 230.66666 143.628453 
L 230.703393 143.602836 
L 230.739119 143.660128 
L 230.739119 143.660128 
L 230.734834 143.824599 
L 230.720937 143.756 
" style="fill:none;stroke:#1f77b4;stroke-linecap:square;stroke-width:0.5;"/>
   </g>
   <g id="line2d_26">
    <path clip-path="url(#pe29a2b1d4f)" d="M 134.089098 276.812 
L 133.219312 270.009783 
L 132.394902 263.23228 
L 131.615881 256.481636 
L 130.882063 249.759987 
L 130.193242 243.069437 
L 129.5492 236.412014 
L 128.949712 229.789727 
L 128.394537 223.20451 
L 127.883419 216.65825 
L 127.416088 210.152786 
L 126.992268 203.68993 
L 126.611666 197.271437 
L 126.273971 190.899006 
L 125.97888 184.574352 
L 125.726058 178.299081 
L 125.515179 172.074837 
L 125.345889 165.903152 
L 125.217835 159.785569 
L 125.130646 153.723567 
L 125.083944 147.718593 
L 125.077339 141.772062 
L 125.110436 135.885353 
L 125.182826 130.059818 
L 125.294097 124.296773 
L 125.443825 118.597507 
L 125.631577 112.963272 
L 125.856914 107.395294 
L 126.119388 101.894773 
L 126.418546 96.462882 
L 126.753921 91.100749 
L 127.125039 85.809474 
L 127.531417 80.590129 
L 127.972571 75.443773 
L 128.448013 70.371442 
L 128.957235 65.37412 
L 129.499731 60.452779 
L 130.074995 55.60838 
L 130.682501 50.841835 
L 131.321725 46.15404 
L 131.992139 41.545872 
L 132.693204 37.018172 
L 133.424376 32.571761 
L 134.185109 28.207436 
L 134.97485 23.925967 
L 135.793039 19.728097 
L 136.639112 15.614547 
L 137.512504 11.586011 
L 138.412639 7.643158 
" style="fill:none;stroke:#1f77b4;stroke-linecap:square;stroke-width:0.5;"/>
   </g>
   <g id="line2d_27">
    <path clip-path="url(#pe29a2b1d4f)" d="M 52.160938 266.242677 
L 51.373322 256.098973 
" style="fill:none;stroke:#1f77b4;stroke-linecap:square;stroke-width:0.5;"/>
   </g>
   <g id="line2d_28">
    <path clip-path="url(#pe29a2b1d4f)" d="M 52.160938 202.119773 
L 51.801319 192.62086 
" style="fill:none;stroke:#1f77b4;stroke-linecap:square;stroke-width:0.5;"/>
   </g>
   <g id="line2d_29">
    <path clip-path="url(#pe29a2b1d4f)" d="M 52.160938 154.781334 
L 52.117291 145.758416 
" style="fill:none;stroke:#1f77b4;stroke-linecap:square;stroke-width:0.5;"/>
   </g>
   <g id="line2d_30">
    <path clip-path="url(#pe29a2b1d4f)" d="M 52.160938 110.061645 
L 52.415878 101.488549 
L 52.727945 93.009848 
L 53.096582 84.626479 
L 53.52118 76.339301 
L 54.001073 68.149232 
L 54.535597 60.057163 
L 55.124086 52.063983 
L 55.765872 44.170557 
L 56.460284 36.377768 
L 57.206641 28.686469 
L 58.004264 21.097534 
L 58.85246 13.611821 
L 59.750537 6.230197 
" style="fill:none;stroke:#1f77b4;stroke-linecap:square;stroke-width:0.5;"/>
   </g>
   <g id="line2d_31">
    <path clip-path="url(#pe29a2b1d4f)" d="M 52.160938 56.826177 
L 52.77134 48.788622 
L 53.435215 40.851435 
L 54.151965 33.015647 
L 54.920976 25.282018 
L 55.74157 17.651386 
L 56.613034 10.124622 
" style="fill:none;stroke:#1f77b4;stroke-linecap:square;stroke-width:0.5;"/>
   </g>
   <g id="line2d_32">
    <path clip-path="url(#pe29a2b1d4f)" d="M 91.742111 10.7 
L 92.655503 4.607257 
" style="fill:none;stroke:#1f77b4;stroke-linecap:square;stroke-width:0.5;"/>
   </g>
   <g id="line2d_33">
    <path clip-path="url(#pe29a2b1d4f)" d="M 169.421212 10.7 
L 170.321532 8.484275 
" style="fill:none;stroke:#1f77b4;stroke-linecap:square;stroke-width:0.5;"/>
   </g>
   <g id="line2d_34">
    <path clip-path="url(#pe29a2b1d4f)" d="M 230.720937 10.7 
L 233.357979 14.867086 
L 235.907742 19.367927 
L 238.363758 24.176576 
L 240.720094 29.266687 
L 242.971356 34.611653 
L 245.112685 40.184722 
L 247.13976 45.959102 
L 249.658333 53.925303 
L 251.959629 62.139249 
L 254.03783 70.539284 
L 255.88875 79.065161 
L 257.509798 87.658387 
L 258.89993 96.262502 
L 260.059588 104.823345 
L 260.990644 113.289295 
L 261.696305 121.61156 
L 262.181044 129.744275 
L 262.450529 137.644617 
L 262.511534 145.272912 
L 262.371858 152.592739 
L 262.040234 159.571001 
L 261.526235 166.177988 
L 260.840187 172.387398 
L 259.993074 178.176347 
L 258.996451 183.525367 
L 257.862347 188.418392 
L 256.603181 192.842728 
L 255.231665 196.789012 
L 253.760718 200.251144 
L 252.203382 203.226218 
L 250.986555 205.137895 
L 249.733993 206.776845 
L 248.451167 208.145183 
L 247.143497 209.245913 
L 245.816331 210.082901 
L 244.474932 210.660831 
L 243.124462 210.985176 
L 241.769963 211.062152 
L 240.416348 210.898677 
L 239.068381 210.502335 
L 237.730667 209.881318 
L 236.407644 209.044392 
L 235.103563 208.000845 
L 233.401247 206.304961 
L 231.748875 204.283419 
L 230.154846 201.961626 
L 228.626869 199.365907 
L 226.820366 195.777292 
L 225.139983 191.856823 
L 223.595937 187.659002 
L 222.196613 183.238374 
L 220.948579 178.648985 
L 219.657236 172.993518 
L 218.595443 167.260029 
L 217.764621 161.533075 
L 217.16289 155.892118 
L 216.785286 150.410733 
L 216.624014 145.15594 
L 216.668718 140.187677 
L 216.906781 135.5584 
L 217.323632 131.312818 
L 217.903055 127.487716 
L 218.627514 124.111906 
L 219.478475 121.206291 
L 220.436713 118.784048 
L 221.303059 117.139086 
L 222.218895 115.833392 
L 223.172893 114.863201 
L 224.153904 114.221668 
L 224.950845 113.938627 
L 225.752711 113.853548 
L 226.554281 113.959232 
L 227.548217 114.347135 
L 228.524597 115.002688 
L 229.474767 115.906469 
L 230.569183 117.289159 
L 231.601984 118.960798 
L 232.714686 121.222585 
L 233.714485 123.757289 
L 234.704556 126.903138 
L 235.520715 130.220758 
L 236.22292 134.040728 
L 236.694697 137.831988 
L 236.941307 141.479897 
L 236.965738 145.243517 
L 236.750975 148.592585 
L 236.378609 151.179384 
L 235.863493 153.314256 
L 235.233825 154.970135 
L 234.601639 156.031508 
L 234.009502 156.645761 
L 233.395251 156.974927 
L 232.771989 157.032046 
L 232.152101 156.834421 
L 231.547075 156.402999 
L 230.88714 155.654505 
L 230.201077 154.534152 
L 229.52746 153.014488 
L 228.864568 150.92568 
L 228.344468 148.496746 
L 228.022683 145.882523 
L 227.939045 143.455283 
L 228.084999 141.233927 
L 228.401239 139.626851 
L 228.809897 138.590743 
L 229.250713 138.035657 
L 229.641902 137.858229 
L 230.036801 137.921433 
L 230.457227 138.238516 
L 230.911969 138.891753 
L 231.351694 139.922252 
L 231.728242 141.378049 
L 231.939927 143.112604 
L 231.914395 144.681859 
L 231.689825 145.782895 
L 231.395154 146.280245 
L 231.116497 146.375946 
L 230.858464 146.228622 
L 230.569005 145.783701 
L 230.297566 144.932653 
L 230.171619 143.810012 
L 230.271495 142.911938 
L 230.480898 142.598089 
L 230.65812 142.655618 
L 230.84311 142.992137 
L 230.963979 143.683507 
L 230.871986 144.23482 
L 230.759558 144.2545 
L 230.736649 144.231657 
L 230.625835 143.92554 
L 230.677446 143.526324 
L 230.751243 143.625032 
L 230.741105 143.857861 
L 230.720938 143.756 
" style="fill:none;stroke:#1f77b4;stroke-linecap:square;stroke-width:0.5;"/>
   </g>
   <g id="line2d_35">
    <path clip-path="url(#pe29a2b1d4f)" d="M 230.720938 143.756 
" style="fill:none;stroke:#1f77b4;stroke-linecap:square;stroke-width:1.5;"/>
   </g>
   <g id="line2d_36">
    <path clip-path="url(#pe29a2b1d4f)" d="M 230.720938 10.7 
L 233.357979 14.867091 
L 235.907741 19.367994 
L 238.363754 24.176894 
L 240.720079 29.26764 
L 242.97131 34.613856 
L 245.112574 40.18904 
L 247.139531 45.966648 
L 249.657821 53.939276 
L 251.958625 62.162467 
L 254.036041 70.574863 
L 255.885801 79.116294 
L 257.505236 87.728108 
L 258.893226 96.353527 
L 260.050144 104.937942 
L 260.977795 113.429154 
L 261.679352 121.777587 
L 262.159281 129.936492 
L 262.423262 137.862135 
L 262.478108 145.513959 
L 262.331677 152.854732 
L 261.992778 159.850619 
L 261.471081 166.471271 
L 260.777025 172.689884 
L 259.921721 178.483228 
L 258.916856 183.83165 
L 257.774596 188.719075 
L 256.507491 193.132934 
L 255.12838 197.064117 
L 253.650302 200.506894 
L 252.086404 203.458827 
L 250.865087 205.35099 
L 249.608446 206.968845 
L 248.321978 208.314769 
L 247.011128 209.392024 
L 245.681265 210.20473 
L 244.337663 210.757827 
L 242.985494 211.057023 
L 241.629804 211.108766 
L 240.275505 210.920183 
L 238.927356 210.499048 
L 237.589956 209.853727 
L 236.267729 208.99313 
L 234.964912 207.926673 
L 233.264984 206.201612 
L 231.615759 204.152637 
L 230.025588 201.805297 
L 228.502127 199.186009 
L 226.702113 195.570785 
L 225.029054 191.626891 
L 223.493064 187.408794 
L 222.10243 182.97098 
L 220.863615 178.367414 
L 219.583886 172.698795 
L 218.534152 166.956257 
L 217.715675 161.224269 
L 217.126413 155.582236 
L 216.761241 150.10368 
L 216.612208 144.85556 
L 216.668808 139.897717 
L 216.918276 135.282457 
L 217.345897 131.054257 
L 217.935327 127.249602 
L 218.668915 123.896938 
L 219.528025 121.016745 
L 220.493355 118.621717 
L 221.364755 117.000427 
L 222.284841 115.718967 
L 223.242272 114.773252 
L 224.225895 114.156127 
L 225.024339 113.892372 
L 225.827195 113.826214 
L 226.629256 113.95032 
L 227.623122 114.36038 
L 228.598707 115.03693 
L 229.547395 115.960377 
L 230.639197 117.364709 
L 231.668559 119.055674 
L 232.776334 121.336911 
L 233.770368 123.887613 
L 234.753049 127.047474 
L 235.56119 130.374594 
L 236.253913 134.200013 
L 236.716041 137.991471 
L 236.953139 141.634733 
L 236.967495 145.388117 
L 236.743502 148.722403 
L 236.363779 151.292761 
L 235.842369 153.408987 
L 235.207581 155.044788 
L 234.571882 156.087716 
L 233.977486 156.685785 
L 233.361731 156.999063 
L 232.737697 157.040886 
L 232.117739 156.828816 
L 231.513296 156.384024 
L 230.854755 155.621803 
L 230.171079 154.488236 
L 229.50095 152.956889 
L 228.843117 150.858405 
L 228.329149 148.424294 
L 228.014206 145.810264 
L 227.937139 143.388427 
L 228.089334 141.177444 
L 228.410303 139.583039 
L 228.822212 138.560111 
L 229.26499 138.017512 
L 229.657053 137.850192 
L 230.052168 137.922849 
L 230.472137 138.249219 
L 230.925532 138.911534 
L 231.388143 140.026273 
L 231.751237 141.494031 
L 231.946745 143.223063 
L 231.906438 144.769187 
L 231.671371 145.836723 
L 231.371836 146.302793 
L 231.092104 146.373926 
L 230.818908 146.188921 
L 230.523569 145.682737 
L 230.2647 144.769735 
L 230.172307 143.634614 
L 230.303418 142.819364 
L 230.515085 142.589565 
L 230.690143 142.69002 
L 230.878438 143.105827 
L 230.963931 143.834425 
L 230.837419 144.266735 
L 230.716757 144.204642 
L 230.615384 143.835561 
L 230.681123 143.525649 
L 230.704024 143.534483 
L 230.768584 143.732383 
L 230.738788 143.858346 
L 230.700632 143.736549 
L 230.700632 143.736549 
L 230.713851 143.710543 
L 230.729158 143.74028 
L 230.729158 143.74028 
L 230.72466 143.776187 
L 230.720937 143.756 
" style="fill:none;stroke:#ff7f0e;stroke-linecap:square;stroke-width:0.5;"/>
   </g>
   <g id="line2d_37">
    <path clip-path="url(#pe29a2b1d4f)" d="M 292.020663 10.7 
L 292.896609 15.686144 
L 293.739218 20.673581 
L 294.548365 25.66043 
L 295.324059 30.644693 
L 296.066326 35.62439 
L 296.775202 40.597579 
L 297.450742 45.562351 
L 298.093001 50.516799 
L 298.702058 55.459064 
L 299.277993 60.387283 
L 299.820911 65.299643 
L 300.330921 70.194339 
L 300.808149 75.069606 
L 301.252734 79.923696 
L 301.664822 84.754891 
L 302.044575 89.561497 
L 302.392161 94.341847 
L 302.707763 99.0943 
L 302.991577 103.81724 
L 303.2438 108.509086 
L 303.464649 113.168275 
L 303.654352 117.793275 
L 303.813138 122.382592 
L 303.941254 126.934752 
L 304.038955 131.448308 
L 304.106504 135.921852 
L 304.144172 140.354003 
L 304.152246 144.743404 
L 304.131015 149.088733 
L 304.08078 153.388701 
L 304.001848 157.64205 
L 303.894537 161.84755 
L 303.75917 166.004005 
L 303.59608 170.110248 
L 303.405608 174.165145 
L 303.188104 178.167593 
L 302.943917 182.116522 
L 302.673415 186.010892 
L 302.376969 189.849694 
L 302.054955 193.631953 
L 301.707749 197.35673 
L 301.335745 201.023112 
L 300.939342 204.630217 
L 300.518936 208.177203 
L 300.07493 211.663257 
L 299.607741 215.087595 
L 299.117789 218.44947 
L 298.605486 221.748164 
L 298.071262 224.982995 
L 297.51555 228.153309 
L 296.938789 231.258488 
L 296.341406 234.297942 
L 295.723851 237.271117 
L 295.086572 240.17749 
L 294.43002 243.016569 
L 293.754639 245.78789 
L 293.060892 248.491027 
L 292.34924 251.125585 
L 291.620142 253.691195 
L 290.874057 256.187519 
L 290.111456 258.614258 
L 289.33281 260.97114 
L 288.538581 263.257916 
L 287.729242 265.474375 
L 286.905269 267.620337 
L 286.067138 269.695652 
L 285.215314 271.700188 
L 284.350276 273.633857 
L 283.472504 275.496596 
L 282.582475 277.288371 
" style="fill:none;stroke:#ff7f0e;stroke-linecap:square;stroke-width:0.5;"/>
   </g>
   <g id="line2d_38">
    <path clip-path="url(#pe29a2b1d4f)" d="M 369.699764 10.7 
L 370.560138 20.293258 
L 371.356521 29.840269 
L 372.089003 39.337706 
L 372.757931 48.782247 
L 373.363675 58.170624 
L 373.906622 67.499644 
L 374.38718 76.766185 
L 374.805778 85.967183 
L 375.162865 95.099628 
L 375.458916 104.160578 
L 375.694429 113.14717 
L 375.869892 122.056503 
L 375.985834 130.885803 
L 376.0428 139.632352 
L 376.041362 148.29351 
L 375.982103 156.866686 
L 375.865621 165.349339 
L 375.692531 173.738996 
L 375.463466 182.03324 
L 375.179073 190.229723 
L 374.840016 198.326155 
L 374.446975 206.32031 
L 374.000643 214.210023 
L 373.501728 221.993192 
L 372.950951 229.667779 
L 372.349048 237.231807 
L 371.696767 244.683367 
L 370.994868 252.020612 
L 370.244125 259.24176 
L 369.445323 266.34509 
L 368.599257 273.328941 
L 367.706734 280.191723 
" style="fill:none;stroke:#ff7f0e;stroke-linecap:square;stroke-width:0.5;"/>
   </g>
   <g id="line2d_39">
    <path clip-path="url(#pe29a2b1d4f)" d="M 409.280938 56.826177 
L 409.825549 68.298937 
" style="fill:none;stroke:#ff7f0e;stroke-linecap:square;stroke-width:0.5;"/>
   </g>
   <g id="line2d_40">
    <path clip-path="url(#pe29a2b1d4f)" d="M 409.280938 110.061645 
L 409.470242 120.994241 
" style="fill:none;stroke:#ff7f0e;stroke-linecap:square;stroke-width:0.5;"/>
   </g>
   <g id="line2d_41">
    <path clip-path="url(#pe29a2b1d4f)" d="M 409.280938 154.781334 
L 409.171734 165.260101 
L 408.992617 175.626051 
L 408.744317 185.876231 
L 408.427634 196.007678 
L 408.043378 206.017526 
L 407.592374 215.902992 
L 407.075465 225.66138 
L 406.493511 235.290072 
L 405.847397 244.786553 
L 405.13801 254.148327 
L 404.366269 263.373034 
L 403.53309 272.458323 
L 402.639423 281.401983 
" style="fill:none;stroke:#ff7f0e;stroke-linecap:square;stroke-width:0.5;"/>
   </g>
   <g id="line2d_42">
    <path clip-path="url(#pe29a2b1d4f)" d="M 409.280938 202.119773 
L 408.855645 212.118032 
L 408.363751 221.989731 
L 407.806052 231.732098 
L 407.183426 241.342528 
L 406.496764 250.818494 
L 405.746977 260.157562 
L 404.93499 269.357378 
L 404.061759 278.415727 
" style="fill:none;stroke:#ff7f0e;stroke-linecap:square;stroke-width:0.5;"/>
   </g>
   <g id="line2d_43">
    <path clip-path="url(#pe29a2b1d4f)" d="M 409.280938 266.242677 
L 408.427521 275.590022 
L 407.512022 284.79204 
" style="fill:none;stroke:#ff7f0e;stroke-linecap:square;stroke-width:0.5;"/>
   </g>
   <g id="line2d_44">
    <path clip-path="url(#pe29a2b1d4f)" d="M 327.352777 276.812 
L 326.445159 281.192775 
" style="fill:none;stroke:#ff7f0e;stroke-linecap:square;stroke-width:0.5;"/>
   </g>
   <g id="line2d_45">
    <path clip-path="url(#pe29a2b1d4f)" d="M 260.517332 276.812 
L 259.623095 277.228663 
" style="fill:none;stroke:#ff7f0e;stroke-linecap:square;stroke-width:0.5;"/>
   </g>
   <g id="line2d_46">
    <path clip-path="url(#pe29a2b1d4f)" d="M 200.924543 276.812 
L 198.340657 267.398464 
L 195.947851 257.824731 
L 193.74904 248.129509 
L 191.746278 238.350744 
L 189.94088 228.525573 
L 188.333453 218.690247 
L 186.923844 208.879947 
L 185.711188 199.1287 
L 184.69395 189.469321 
L 183.869961 179.933344 
L 183.236433 170.550935 
L 182.789985 161.350822 
L 182.526671 152.360235 
L 182.442011 143.604855 
L 182.531025 135.108774 
L 182.788264 126.894449 
L 183.207845 118.982677 
L 183.783489 111.392563 
L 184.50854 104.141518 
L 185.376009 97.245231 
L 186.378609 90.717671 
L 187.508784 84.571081 
L 188.758758 78.815985 
L 190.120564 73.461226 
L 191.58607 68.513956 
L 193.147017 63.97967 
L 194.795049 59.862235 
L 196.521749 56.163932 
L 198.318668 52.885483 
L 200.177361 50.026105 
L 202.089411 47.583553 
L 204.046464 45.554166 
L 206.040251 43.932929 
L 207.385818 43.075787 
L 208.741701 42.395083 
L 210.105549 41.888404 
L 211.475043 41.553104 
L 212.847902 41.386322 
L 214.221886 41.384985 
L 215.594796 41.54582 
L 216.964478 41.865359 
L 219.008359 42.634212 
L 221.03336 43.738866 
L 223.03286 45.16548 
L 225.000524 46.899481 
L 226.930315 48.925635 
L 228.816512 51.228123 
L 230.653716 53.790617 
L 232.436862 56.596347 
L 234.722182 60.686026 
L 236.892803 65.136223 
L 238.939611 69.904898 
L 240.854628 74.949661 
L 242.631016 80.228055 
L 244.263071 85.697823 
L 245.746218 91.317162 
L 247.385582 98.489143 
L 248.78258 105.752511 
L 249.935417 113.032022 
L 250.844766 120.255941 
L 251.513639 127.356576 
L 251.947245 134.270737 
L 252.152832 140.940133 
L 252.139519 147.311702 
L 251.91811 153.337872 
L 251.500912 158.976757 
L 250.90154 164.192288 
L 250.134719 168.954284 
L 249.21609 173.238451 
L 248.162011 177.026342 
L 246.989359 180.305242 
L 245.977425 182.556915 
L 244.909506 184.477003 
L 243.794494 186.066468 
L 242.641227 187.328309 
L 241.458435 188.267459 
L 240.254694 188.890683 
L 239.038373 189.20646 
L 237.817591 189.224865 
L 236.600178 188.957443 
L 235.393636 188.417079 
L 234.205104 187.617863 
L 233.041328 186.574956 
L 231.631018 184.953228 
L 230.280619 183.009087 
L 229.000371 180.777203 
L 227.569342 177.769564 
L 226.265649 174.462262 
L 225.100071 170.918913 
L 223.925624 166.57093 
L 222.959002 162.085722 
L 222.204422 157.557337 
L 221.661806 153.074272 
L 221.295826 148.11066 
L 221.189372 143.421761 
L 221.325105 139.101559 
L 221.681072 135.227779 
L 222.231603 131.8612 
L 222.850587 129.366248 
L 223.576465 127.311922 
L 224.38829 125.707253 
L 225.136511 124.689893 
L 225.919115 123.997937 
L 226.588211 123.663296 
L 227.264953 123.540799 
L 227.942371 123.621292 
L 228.74685 123.970691 
L 229.532037 124.575939 
L 230.410636 125.574168 
L 231.235702 126.848524 
L 232.097814 128.58813 
L 232.947468 130.827082 
L 233.724592 133.553274 
L 234.31381 136.407108 
L 234.739815 139.550348 
L 234.93799 142.55815 
L 234.911827 145.540814 
L 234.662237 148.08979 
L 234.270147 149.968965 
L 233.75688 151.368768 
L 233.215462 152.213123 
L 232.690561 152.629515 
L 232.210239 152.738697 
L 231.730284 152.618957 
L 231.205364 152.236336 
L 230.658124 151.544127 
L 230.074579 150.415374 
L 229.522452 148.812194 
L 229.107887 146.923126 
L 228.869351 144.791481 
L 228.869248 142.782726 
L 229.086423 141.21907 
L 229.412573 140.293771 
L 229.760783 139.863276 
L 230.079773 139.765451 
L 230.397325 139.894251 
L 230.743477 140.287068 
L 231.117322 141.077541 
L 231.425768 142.27879 
L 231.556999 143.700677 
L 231.456371 144.843253 
L 231.218627 145.41983 
L 230.984803 145.526758 
L 230.766423 145.374649 
L 230.530919 144.90615 
L 230.363089 144.06826 
L 230.403497 143.233638 
L 230.586612 142.967953 
L 230.72785 143.074944 
L 230.866551 143.503995 
L 230.83713 144.057065 
L 230.757798 144.100235 
L 230.714309 144.052809 
L 230.648529 143.721714 
L 230.696021 143.600443 
L 230.752201 143.727113 
L 230.752201 143.727113 
L 230.733044 143.825122 
L 230.710106 143.730952 
L 230.710106 143.730952 
L 230.717359 143.725631 
L 230.724598 143.737217 
L 230.724598 143.737217 
L 230.723644 143.769593 
L 230.720937 143.756 
" style="fill:none;stroke:#ff7f0e;stroke-linecap:square;stroke-width:0.5;"/>
   </g>
   <g id="line2d_47">
    <path clip-path="url(#pe29a2b1d4f)" d="M 134.089098 276.812 
L 133.220248 269.730332 
L 132.398664 262.668992 
L 131.624388 255.630522 
L 130.897256 248.617516 
L 130.217086 241.632543 
L 129.583682 234.678115 
L 128.996831 227.756699 
L 128.456305 220.870724 
L 127.961859 214.022576 
L 127.51323 207.214604 
L 127.11014 200.44911 
L 126.752278 193.728321 
L 126.439357 187.054515 
L 126.171066 180.429914 
L 125.947061 173.856651 
L 125.766992 167.336829 
L 125.630488 160.872503 
L 125.537167 154.465686 
L 125.486637 148.118354 
L 125.47849 141.832439 
L 125.51231 135.609833 
L 125.587665 129.452385 
L 125.704113 123.361898 
L 125.861198 117.340129 
L 126.058454 111.388792 
L 126.295403 105.509554 
L 126.571556 99.704037 
L 126.886413 93.973818 
L 127.239464 88.320428 
L 127.6302 82.745351 
L 128.058082 77.250028 
L 128.522567 71.835854 
L 129.023097 66.504179 
L 129.559135 61.256299 
L 130.130119 56.093467 
L 130.735457 51.016898 
L 131.374557 46.027756 
L 132.046816 41.12716 
L 132.751694 36.316167 
L 133.48855 31.595807 
L 134.256767 26.96706 
L 135.055717 22.430856 
L 135.884785 17.988081 
L 136.74337 13.63957 
L 137.630812 9.386117 
" style="fill:none;stroke:#ff7f0e;stroke-linecap:square;stroke-width:0.5;"/>
   </g>
   <g id="line2d_48">
    <path clip-path="url(#pe29a2b1d4f)" d="M 52.160938 266.242677 
L 51.379008 254.409096 
" style="fill:none;stroke:#ff7f0e;stroke-linecap:square;stroke-width:0.5;"/>
   </g>
   <g id="line2d_49">
    <path clip-path="url(#pe29a2b1d4f)" d="M 52.160938 202.119773 
L 51.806982 190.936875 
" style="fill:none;stroke:#ff7f0e;stroke-linecap:square;stroke-width:0.5;"/>
   </g>
   <g id="line2d_50">
    <path clip-path="url(#pe29a2b1d4f)" d="M 52.160938 154.781334 
L 52.122937 144.078749 
" style="fill:none;stroke:#ff7f0e;stroke-linecap:square;stroke-width:0.5;"/>
   </g>
   <g id="line2d_51">
    <path clip-path="url(#pe29a2b1d4f)" d="M 52.160938 110.061645 
L 52.421511 99.812975 
L 52.750381 89.683799 
L 53.146833 79.676841 
L 53.610025 69.794916 
L 54.139097 60.040731 
L 54.733177 50.416832 
L 55.391388 40.925847 
L 56.112824 31.570142 
L 56.896581 22.352257 
L 57.741722 13.274413 
L 58.647304 4.338893 
" style="fill:none;stroke:#ff7f0e;stroke-linecap:square;stroke-width:0.5;"/>
   </g>
   <g id="line2d_52">
    <path clip-path="url(#pe29a2b1d4f)" d="M 52.160938 56.826177 
L 52.776958 47.117892 
L 53.457584 37.544483 
L 54.20199 28.108566 
L 55.00924 18.812548 
L 55.878385 9.658719 
" style="fill:none;stroke:#ff7f0e;stroke-linecap:square;stroke-width:0.5;"/>
   </g>
   <g id="line2d_53">
    <path clip-path="url(#pe29a2b1d4f)" d="M 91.742111 10.7 
L 92.65819 3.807565 
" style="fill:none;stroke:#ff7f0e;stroke-linecap:square;stroke-width:0.5;"/>
   </g>
   <g id="line2d_54">
    <path clip-path="url(#pe29a2b1d4f)" d="M 169.421212 10.7 
L 170.321765 8.414821 
" style="fill:none;stroke:#ff7f0e;stroke-linecap:square;stroke-width:0.5;"/>
   </g>
   <g id="line2d_55">
    <path clip-path="url(#pe29a2b1d4f)" d="M 230.720937 10.7 
L 233.357979 14.867091 
L 235.907741 19.367994 
L 238.363754 24.176894 
L 240.720079 29.26764 
L 242.97131 34.613856 
L 245.112574 40.18904 
L 247.139531 45.966648 
L 249.657821 53.939276 
L 251.958625 62.162467 
L 254.036041 70.574863 
L 255.885801 79.116294 
L 257.505236 87.728108 
L 258.893226 96.353527 
L 260.050144 104.937942 
L 260.977795 113.429154 
L 261.679352 121.777587 
L 262.159281 129.936492 
L 262.423262 137.862135 
L 262.478108 145.513959 
L 262.331677 152.854732 
L 261.992778 159.850619 
L 261.471081 166.471271 
L 260.777025 172.689884 
L 259.921721 178.483228 
L 258.916856 183.83165 
L 257.774596 188.719075 
L 256.507491 193.132934 
L 255.12838 197.064117 
L 253.650302 200.506894 
L 252.086404 203.458827 
L 250.865087 205.35099 
L 249.608446 206.968845 
L 248.321978 208.314769 
L 247.011128 209.392024 
L 245.681265 210.20473 
L 244.337663 210.757827 
L 242.985494 211.057023 
L 241.629804 211.108766 
L 240.275505 210.920183 
L 238.927356 210.499048 
L 237.589956 209.853727 
L 236.267729 208.99313 
L 234.964912 207.926673 
L 233.264984 206.201612 
L 231.615759 204.152637 
L 230.025588 201.805297 
L 228.502127 199.186009 
L 226.702113 195.570785 
L 225.029054 191.626891 
L 223.493064 187.408794 
L 222.10243 182.97098 
L 220.863615 178.367414 
L 219.583886 172.698795 
L 218.534152 166.956257 
L 217.715675 161.224269 
L 217.126413 155.582236 
L 216.761241 150.10368 
L 216.612208 144.85556 
L 216.668808 139.897717 
L 216.918276 135.282457 
L 217.345897 131.054257 
L 217.935327 127.249602 
L 218.668915 123.896938 
L 219.528025 121.016745 
L 220.493355 118.621717 
L 221.364755 117.000427 
L 222.284841 115.718967 
L 223.242272 114.773252 
L 224.225895 114.156127 
L 225.024339 113.892372 
L 225.827195 113.826214 
L 226.629256 113.95032 
L 227.623122 114.36038 
L 228.598707 115.03693 
L 229.547395 115.960377 
L 230.639197 117.364709 
L 231.668559 119.055674 
L 232.776334 121.336911 
L 233.770368 123.887613 
L 234.753049 127.047474 
L 235.56119 130.374594 
L 236.253913 134.200013 
L 236.716041 137.991471 
L 236.953139 141.634733 
L 236.967495 145.388117 
L 236.743502 148.722403 
L 236.363779 151.292761 
L 235.842369 153.408986 
L 235.207581 155.044786 
L 234.571882 156.087714 
L 233.977487 156.685784 
L 233.361731 156.999062 
L 232.737698 157.040885 
L 232.11774 156.828814 
L 231.513297 156.384023 
L 230.854756 155.621803 
L 230.17108 154.488236 
L 229.500951 152.95689 
L 228.843118 150.858406 
L 228.32915 148.424295 
L 228.014206 145.810266 
L 227.937139 143.388429 
L 228.089335 141.177447 
L 228.410302 139.583026 
L 228.822215 138.560091 
L 229.264996 138.017491 
L 229.657062 137.850174 
L 230.052179 137.922836 
L 230.472151 138.249213 
L 230.925546 138.91154 
L 231.388157 140.026291 
L 231.751248 141.494057 
L 231.946752 143.223096 
L 231.90644 144.769219 
L 231.671369 145.83675 
L 231.371831 146.302811 
L 231.092097 146.373937 
L 230.8189 146.188924 
L 230.523561 145.682731 
L 230.264694 144.769718 
L 230.172305 143.634594 
L 230.30342 142.81935 
L 230.515088 142.58956 
L 230.690147 142.69002 
L 230.878442 143.105833 
L 230.963932 143.834434 
L 230.837417 144.26674 
L 230.716754 144.204641 
L 230.615383 143.835556 
L 230.681125 143.525648 
L 230.704026 143.534483 
L 230.768585 143.732387 
L 230.738787 143.858347 
L 230.700632 143.736547 
L 230.700632 143.736547 
L 230.713851 143.710543 
L 230.729158 143.74028 
L 230.729158 143.74028 
L 230.72466 143.776187 
L 230.720938 143.756 
" style="fill:none;stroke:#ff7f0e;stroke-linecap:square;stroke-width:0.5;"/>
   </g>
   <g id="line2d_56">
    <path clip-path="url(#pe29a2b1d4f)" d="M 230.720938 143.756 
" style="fill:none;stroke:#ff7f0e;stroke-linecap:square;stroke-width:1.5;"/>
   </g>
   <g id="patch_65">
    <path d="M 52.160938 276.812 
L 52.160938 10.7 
" style="fill:none;stroke:#000000;stroke-linecap:square;stroke-linejoin:miter;stroke-width:0.8;"/>
   </g>
   <g id="patch_66">
    <path d="M 409.280938 276.812 
L 409.280938 10.7 
" style="fill:none;stroke:#000000;stroke-linecap:square;stroke-linejoin:miter;stroke-width:0.8;"/>
   </g>
   <g id="patch_67">
    <path d="M 52.160938 276.812 
L 409.280938 276.812 
" style="fill:none;stroke:#000000;stroke-linecap:square;stroke-linejoin:miter;stroke-width:0.8;"/>
   </g>
   <g id="patch_68">
    <path d="M 52.160938 10.7 
L 409.280938 10.7 
" style="fill:none;stroke:#000000;stroke-linecap:square;stroke-linejoin:miter;stroke-width:0.8;"/>
   </g>
   <g id="legend_1">
    <g id="patch_69">
     <path d="M 315.853438 273.812 
L 405.080938 273.812 
Q 406.280938 273.812 406.280938 272.612 
L 406.280938 255.59825 
Q 406.280938 254.39825 405.080938 254.39825 
L 315.853438 254.39825 
Q 314.653438 254.39825 314.653438 255.59825 
L 314.653438 272.612 
Q 314.653438 273.812 315.853438 273.812 
z
" style="fill:#ffffff;opacity:0.8;stroke:#cccccc;stroke-linejoin:miter;"/>
    </g>
    <g id="line2d_57">
     <path d="M 317.053438 259.257312 
L 329.053438 259.257312 
" style="fill:none;stroke:#1f77b4;stroke-linecap:square;stroke-width:1.5;"/>
    </g>
    <g id="line2d_58"/>
    <g id="text_17">
     <!-- system nieliniowy -->
     <defs>
      <path d="M 44.28125 53.078125 
L 44.28125 44.578125 
Q 40.484375 46.53125 36.375 47.5 
Q 32.28125 48.484375 27.875 48.484375 
Q 21.1875 48.484375 17.84375 46.4375 
Q 14.5 44.390625 14.5 40.28125 
Q 14.5 37.15625 16.890625 35.375 
Q 19.28125 33.59375 26.515625 31.984375 
L 29.59375 31.296875 
Q 39.15625 29.25 43.1875 25.515625 
Q 47.21875 21.78125 47.21875 15.09375 
Q 47.21875 7.46875 41.1875 3.015625 
Q 35.15625 -1.421875 24.609375 -1.421875 
Q 20.21875 -1.421875 15.453125 -0.5625 
Q 10.6875 0.296875 5.421875 2 
L 5.421875 11.28125 
Q 10.40625 8.6875 15.234375 7.390625 
Q 20.0625 6.109375 24.8125 6.109375 
Q 31.15625 6.109375 34.5625 8.28125 
Q 37.984375 10.453125 37.984375 14.40625 
Q 37.984375 18.0625 35.515625 20.015625 
Q 33.0625 21.96875 24.703125 23.78125 
L 21.578125 24.515625 
Q 13.234375 26.265625 9.515625 29.90625 
Q 5.8125 33.546875 5.8125 39.890625 
Q 5.8125 47.609375 11.28125 51.796875 
Q 16.75 56 26.8125 56 
Q 31.78125 56 36.171875 55.265625 
Q 40.578125 54.546875 44.28125 53.078125 
" id="DejaVuSans-73"/>
      <path d="M 32.171875 -5.078125 
Q 28.375 -14.84375 24.75 -17.8125 
Q 21.140625 -20.796875 15.09375 -20.796875 
L 7.90625 -20.796875 
L 7.90625 -13.28125 
L 13.1875 -13.28125 
Q 16.890625 -13.28125 18.9375 -11.515625 
Q 21 -9.765625 23.484375 -3.21875 
L 25.09375 0.875 
L 2.984375 54.6875 
L 12.5 54.6875 
L 29.59375 11.921875 
L 46.6875 54.6875 
L 56.203125 54.6875 
z
" id="DejaVuSans-79"/>
      <path d="M 18.3125 70.21875 
L 18.3125 54.6875 
L 36.8125 54.6875 
L 36.8125 47.703125 
L 18.3125 47.703125 
L 18.3125 18.015625 
Q 18.3125 11.328125 20.140625 9.421875 
Q 21.96875 7.515625 27.59375 7.515625 
L 36.8125 7.515625 
L 36.8125 0 
L 27.59375 0 
Q 17.1875 0 13.234375 3.875 
Q 9.28125 7.765625 9.28125 18.015625 
L 9.28125 47.703125 
L 2.6875 47.703125 
L 2.6875 54.6875 
L 9.28125 54.6875 
L 9.28125 70.21875 
z
" id="DejaVuSans-74"/>
      <path d="M 56.203125 29.59375 
L 56.203125 25.203125 
L 14.890625 25.203125 
Q 15.484375 15.921875 20.484375 11.0625 
Q 25.484375 6.203125 34.421875 6.203125 
Q 39.59375 6.203125 44.453125 7.46875 
Q 49.3125 8.734375 54.109375 11.28125 
L 54.109375 2.78125 
Q 49.265625 0.734375 44.1875 -0.34375 
Q 39.109375 -1.421875 33.890625 -1.421875 
Q 20.796875 -1.421875 13.15625 6.1875 
Q 5.515625 13.8125 5.515625 26.8125 
Q 5.515625 40.234375 12.765625 48.109375 
Q 20.015625 56 32.328125 56 
Q 43.359375 56 49.78125 48.890625 
Q 56.203125 41.796875 56.203125 29.59375 
M 47.21875 32.234375 
Q 47.125 39.59375 43.09375 43.984375 
Q 39.0625 48.390625 32.421875 48.390625 
Q 24.90625 48.390625 20.390625 44.140625 
Q 15.875 39.890625 15.1875 32.171875 
z
" id="DejaVuSans-65"/>
      <path d="M 52 44.1875 
Q 55.375 50.25 60.0625 53.125 
Q 64.75 56 71.09375 56 
Q 79.640625 56 84.28125 50.015625 
Q 88.921875 44.046875 88.921875 33.015625 
L 88.921875 0 
L 79.890625 0 
L 79.890625 32.71875 
Q 79.890625 40.578125 77.09375 44.375 
Q 74.3125 48.1875 68.609375 48.1875 
Q 61.625 48.1875 57.5625 43.546875 
Q 53.515625 38.921875 53.515625 30.90625 
L 53.515625 0 
L 44.484375 0 
L 44.484375 32.71875 
Q 44.484375 40.625 41.703125 44.40625 
Q 38.921875 48.1875 33.109375 48.1875 
Q 26.21875 48.1875 22.15625 43.53125 
Q 18.109375 38.875 18.109375 30.90625 
L 18.109375 0 
L 9.078125 0 
L 9.078125 54.6875 
L 18.109375 54.6875 
L 18.109375 46.1875 
Q 21.1875 51.21875 25.484375 53.609375 
Q 29.78125 56 35.6875 56 
Q 41.65625 56 45.828125 52.96875 
Q 50 49.953125 52 44.1875 
" id="DejaVuSans-6d"/>
      <path id="DejaVuSans-20"/>
      <path d="M 54.890625 33.015625 
L 54.890625 0 
L 45.90625 0 
L 45.90625 32.71875 
Q 45.90625 40.484375 42.875 44.328125 
Q 39.84375 48.1875 33.796875 48.1875 
Q 26.515625 48.1875 22.3125 43.546875 
Q 18.109375 38.921875 18.109375 30.90625 
L 18.109375 0 
L 9.078125 0 
L 9.078125 54.6875 
L 18.109375 54.6875 
L 18.109375 46.1875 
Q 21.34375 51.125 25.703125 53.5625 
Q 30.078125 56 35.796875 56 
Q 45.21875 56 50.046875 50.171875 
Q 54.890625 44.34375 54.890625 33.015625 
" id="DejaVuSans-6e"/>
      <path d="M 9.421875 54.6875 
L 18.40625 54.6875 
L 18.40625 0 
L 9.421875 0 
z
M 9.421875 75.984375 
L 18.40625 75.984375 
L 18.40625 64.59375 
L 9.421875 64.59375 
z
" id="DejaVuSans-69"/>
      <path d="M 9.421875 75.984375 
L 18.40625 75.984375 
L 18.40625 0 
L 9.421875 0 
z
" id="DejaVuSans-6c"/>
      <path d="M 30.609375 48.390625 
Q 23.390625 48.390625 19.1875 42.75 
Q 14.984375 37.109375 14.984375 27.296875 
Q 14.984375 17.484375 19.15625 11.84375 
Q 23.34375 6.203125 30.609375 6.203125 
Q 37.796875 6.203125 41.984375 11.859375 
Q 46.1875 17.53125 46.1875 27.296875 
Q 46.1875 37.015625 41.984375 42.703125 
Q 37.796875 48.390625 30.609375 48.390625 
M 30.609375 56 
Q 42.328125 56 49.015625 48.375 
Q 55.71875 40.765625 55.71875 27.296875 
Q 55.71875 13.875 49.015625 6.21875 
Q 42.328125 -1.421875 30.609375 -1.421875 
Q 18.84375 -1.421875 12.171875 6.21875 
Q 5.515625 13.875 5.515625 27.296875 
Q 5.515625 40.765625 12.171875 48.375 
Q 18.84375 56 30.609375 56 
" id="DejaVuSans-6f"/>
      <path d="M 4.203125 54.6875 
L 13.1875 54.6875 
L 24.421875 12.015625 
L 35.59375 54.6875 
L 46.1875 54.6875 
L 57.421875 12.015625 
L 68.609375 54.6875 
L 77.59375 54.6875 
L 63.28125 0 
L 52.6875 0 
L 40.921875 44.828125 
L 29.109375 0 
L 18.5 0 
z
" id="DejaVuSans-77"/>
     </defs>
     <g transform="translate(333.853438 261.357312)scale(0.06 -0.06)">
      <use xlink:href="#DejaVuSans-73"/>
      <use x="52.099609" xlink:href="#DejaVuSans-79"/>
      <use x="111.279297" xlink:href="#DejaVuSans-73"/>
      <use x="163.378906" xlink:href="#DejaVuSans-74"/>
      <use x="202.587891" xlink:href="#DejaVuSans-65"/>
      <use x="264.111328" xlink:href="#DejaVuSans-6d"/>
      <use x="361.523438" xlink:href="#DejaVuSans-20"/>
      <use x="393.310547" xlink:href="#DejaVuSans-6e"/>
      <use x="456.689453" xlink:href="#DejaVuSans-69"/>
      <use x="484.472656" xlink:href="#DejaVuSans-65"/>
      <use x="545.996094" xlink:href="#DejaVuSans-6c"/>
      <use x="573.779297" xlink:href="#DejaVuSans-69"/>
      <use x="601.5625" xlink:href="#DejaVuSans-6e"/>
      <use x="664.941406" xlink:href="#DejaVuSans-69"/>
      <use x="692.724609" xlink:href="#DejaVuSans-6f"/>
      <use x="753.90625" xlink:href="#DejaVuSans-77"/>
      <use x="835.693359" xlink:href="#DejaVuSans-79"/>
     </g>
    </g>
    <g id="line2d_59">
     <path d="M 317.053438 268.064187 
L 329.053438 268.064187 
" style="fill:none;stroke:#ff7f0e;stroke-linecap:square;stroke-width:1.5;"/>
    </g>
    <g id="line2d_60"/>
    <g id="text_18">
     <!-- system zlinearyzowany -->
     <defs>
      <path d="M 5.515625 54.6875 
L 48.1875 54.6875 
L 48.1875 46.484375 
L 14.40625 7.171875 
L 48.1875 7.171875 
L 48.1875 0 
L 4.296875 0 
L 4.296875 8.203125 
L 38.09375 47.515625 
L 5.515625 47.515625 
z
" id="DejaVuSans-7a"/>
      <path d="M 34.28125 27.484375 
Q 23.390625 27.484375 19.1875 25 
Q 14.984375 22.515625 14.984375 16.5 
Q 14.984375 11.71875 18.140625 8.90625 
Q 21.296875 6.109375 26.703125 6.109375 
Q 34.1875 6.109375 38.703125 11.40625 
Q 43.21875 16.703125 43.21875 25.484375 
L 43.21875 27.484375 
z
M 52.203125 31.203125 
L 52.203125 0 
L 43.21875 0 
L 43.21875 8.296875 
Q 40.140625 3.328125 35.546875 0.953125 
Q 30.953125 -1.421875 24.3125 -1.421875 
Q 15.921875 -1.421875 10.953125 3.296875 
Q 6 8.015625 6 15.921875 
Q 6 25.140625 12.171875 29.828125 
Q 18.359375 34.515625 30.609375 34.515625 
L 43.21875 34.515625 
L 43.21875 35.40625 
Q 43.21875 41.609375 39.140625 45 
Q 35.0625 48.390625 27.6875 48.390625 
Q 23 48.390625 18.546875 47.265625 
Q 14.109375 46.140625 10.015625 43.890625 
L 10.015625 52.203125 
Q 14.9375 54.109375 19.578125 55.046875 
Q 24.21875 56 28.609375 56 
Q 40.484375 56 46.34375 49.84375 
Q 52.203125 43.703125 52.203125 31.203125 
" id="DejaVuSans-61"/>
      <path d="M 41.109375 46.296875 
Q 39.59375 47.171875 37.8125 47.578125 
Q 36.03125 48 33.890625 48 
Q 26.265625 48 22.1875 43.046875 
Q 18.109375 38.09375 18.109375 28.8125 
L 18.109375 0 
L 9.078125 0 
L 9.078125 54.6875 
L 18.109375 54.6875 
L 18.109375 46.1875 
Q 20.953125 51.171875 25.484375 53.578125 
Q 30.03125 56 36.53125 56 
Q 37.453125 56 38.578125 55.875 
Q 39.703125 55.765625 41.0625 55.515625 
z
" id="DejaVuSans-72"/>
     </defs>
     <g transform="translate(333.853438 270.164187)scale(0.06 -0.06)">
      <use xlink:href="#DejaVuSans-73"/>
      <use x="52.099609" xlink:href="#DejaVuSans-79"/>
      <use x="111.279297" xlink:href="#DejaVuSans-73"/>
      <use x="163.378906" xlink:href="#DejaVuSans-74"/>
      <use x="202.587891" xlink:href="#DejaVuSans-65"/>
      <use x="264.111328" xlink:href="#DejaVuSans-6d"/>
      <use x="361.523438" xlink:href="#DejaVuSans-20"/>
      <use x="393.310547" xlink:href="#DejaVuSans-7a"/>
      <use x="445.800781" xlink:href="#DejaVuSans-6c"/>
      <use x="473.583984" xlink:href="#DejaVuSans-69"/>
      <use x="501.367188" xlink:href="#DejaVuSans-6e"/>
      <use x="564.746094" xlink:href="#DejaVuSans-65"/>
      <use x="626.269531" xlink:href="#DejaVuSans-61"/>
      <use x="687.548828" xlink:href="#DejaVuSans-72"/>
      <use x="728.662109" xlink:href="#DejaVuSans-79"/>
      <use x="787.841797" xlink:href="#DejaVuSans-7a"/>
      <use x="840.332031" xlink:href="#DejaVuSans-6f"/>
      <use x="901.513672" xlink:href="#DejaVuSans-77"/>
      <use x="983.300781" xlink:href="#DejaVuSans-61"/>
      <use x="1044.580078" xlink:href="#DejaVuSans-6e"/>
      <use x="1107.958984" xlink:href="#DejaVuSans-79"/>
     </g>
    </g>
   </g>
  </g>
 </g>
 <defs>
  <clipPath id="pe29a2b1d4f">
   <rect height="266.112" width="357.12" x="52.160938" y="10.7"/>
  </clipPath>
 </defs>
</svg>
