<?xml version="1.0" encoding="utf-8" standalone="no"?>
<!DOCTYPE svg PUBLIC "-//W3C//DTD SVG 1.1//EN"
  "http://www.w3.org/Graphics/SVG/1.1/DTD/svg11.dtd">
<!-- Created with matplotlib (http://matplotlib.org/) -->
<svg height="314pt" version="1.1" viewBox="0 0 427 314" width="427pt" xmlns="http://www.w3.org/2000/svg" xmlns:xlink="http://www.w3.org/1999/xlink">
 <defs>
  <style type="text/css">
*{stroke-linecap:butt;stroke-linejoin:round;}
  </style>
 </defs>
 <g id="figure_1">
  <g id="patch_1">
   <path d="M 0 314.36825 
L 427.61375 314.36825 
L 427.61375 0 
L 0 0 
z
" style="fill:#ffffff;"/>
  </g>
  <g id="axes_1">
   <g id="patch_2">
    <path d="M 52.160938 276.812 
L 409.280938 276.812 
L 409.280938 10.7 
L 52.160938 10.7 
z
" style="fill:#ffffff;"/>
   </g>
   <g id="patch_3">
    <path clip-path="url(#pd8d3834994)" d="M 245.325416 67.588993 
L 241.221014 61.809777 
L 243.509162 60.564508 
L 243.676338 60.470978 
L 243.676889 60.473226 
L 245.965038 59.227957 
z
" style="fill:#1f77b4;stroke:#1f77b4;stroke-linejoin:miter;"/>
   </g>
   <g id="patch_4">
    <path clip-path="url(#pd8d3834994)" d="M 255.451126 114.264139 
L 251.62466 108.075829 
L 253.965105 107.069314 
L 254.136423 106.994283 
L 254.136665 106.995534 
L 256.47711 105.989019 
z
" style="fill:#1f77b4;stroke:#1f77b4;stroke-linejoin:miter;"/>
   </g>
   <g id="patch_5">
    <path clip-path="url(#pd8d3834994)" d="M 304.806841 77.775378 
L 301.125571 71.394444 
L 303.487875 70.508586 
L 303.660555 70.440795 
L 303.661038 70.44365 
L 306.023342 69.557793 
z
" style="fill:#1f77b4;stroke:#1f77b4;stroke-linejoin:miter;"/>
   </g>
   <g id="patch_6">
    <path clip-path="url(#pd8d3834994)" d="M 308.602855 170.30049 
L 307.645005 162.00725 
L 309.976996 163.056442 
L 310.148068 163.132699 
L 310.147936 163.13335 
L 312.479927 164.182542 
z
" style="fill:#1f77b4;stroke:#1f77b4;stroke-linejoin:miter;"/>
   </g>
   <g id="patch_7">
    <path clip-path="url(#pd8d3834994)" d="M 381.65449 94.442323 
L 378.346075 87.622886 
L 380.749977 87.03604 
L 380.925819 86.989662 
L 380.926189 86.993023 
L 383.330091 86.406176 
z
" style="fill:#1f77b4;stroke:#1f77b4;stroke-linejoin:miter;"/>
   </g>
   <g id="patch_8">
    <path clip-path="url(#pd8d3834994)" d="M 331.580372 206.616949 
L 337.011614 204.315243 
L 336.559703 207.882559 
L 336.527007 208.144173 
L 336.526576 208.144051 
L 336.074665 211.711368 
z
" style="fill:#1f77b4;stroke:#1f77b4;stroke-linejoin:miter;"/>
   </g>
   <g id="patch_9">
    <path clip-path="url(#pd8d3834994)" d="M 410.245041 64.219071 
L 406.802669 57.548525 
L 409.193866 56.855921 
L 409.368578 56.800792 
L 409.369146 56.805152 
L 411.760343 56.112548 
z
" style="fill:#1f77b4;stroke:#1f77b4;stroke-linejoin:miter;"/>
   </g>
   <g id="patch_10">
    <path clip-path="url(#pd8d3834994)" d="M 409.811812 117.549809 
L 406.769912 110.460116 
L 409.192368 110.078669 
L 409.369723 110.047664 
L 409.369939 110.050709 
L 411.792395 109.669262 
z
" style="fill:#1f77b4;stroke:#1f77b4;stroke-linejoin:miter;"/>
   </g>
   <g id="patch_11">
    <path clip-path="url(#pd8d3834994)" d="M 368.229408 219.007383 
L 373.178826 214.956848 
L 373.27266 218.58449 
L 373.280041 218.850375 
L 373.279538 218.850404 
L 373.373372 222.478046 
z
" style="fill:#1f77b4;stroke:#1f77b4;stroke-linejoin:miter;"/>
   </g>
   <g id="patch_12">
    <path clip-path="url(#pd8d3834994)" d="M 299.797636 191.671078 
L 305.420904 190.907476 
L 304.533716 194.288472 
L 304.469023 194.536505 
L 304.468683 194.536307 
L 303.581496 197.917304 
z
" style="fill:#1f77b4;stroke:#1f77b4;stroke-linejoin:miter;"/>
   </g>
   <g id="patch_13">
    <path clip-path="url(#pd8d3834994)" d="M 374.821953 221.878883 
L 379.796687 217.897824 
L 379.867648 221.526619 
L 379.873373 221.792596 
L 379.87285 221.792618 
L 379.943812 225.421414 
z
" style="fill:#1f77b4;stroke:#1f77b4;stroke-linejoin:miter;"/>
   </g>
   <g id="patch_14">
    <path clip-path="url(#pd8d3834994)" d="M 305.388748 195.059106 
L 311.00684 194.215116 
L 310.141464 197.608645 
L 310.078392 197.857604 
L 310.07803 197.857399 
L 309.212655 201.250928 
z
" style="fill:#1f77b4;stroke:#1f77b4;stroke-linejoin:miter;"/>
   </g>
   <g id="patch_15">
    <path clip-path="url(#pd8d3834994)" d="M 387.229607 246.807011 
L 392.873265 247.076906 
L 391.714562 250.270236 
L 391.63034 250.504889 
L 391.629626 250.504314 
L 390.470923 253.697645 
z
" style="fill:#1f77b4;stroke:#1f77b4;stroke-linejoin:miter;"/>
   </g>
   <g id="patch_16">
    <path clip-path="url(#pd8d3834994)" d="M 294.517513 188.784727 
L 300.153559 188.271365 
L 299.199117 191.611431 
L 299.129475 191.856469 
L 299.129154 191.856265 
L 298.174711 195.196331 
z
" style="fill:#1f77b4;stroke:#1f77b4;stroke-linejoin:miter;"/>
   </g>
   <g id="patch_17">
    <path clip-path="url(#pd8d3834994)" d="M 301.777809 224.926866 
L 306.892531 228.492224 
L 304.98265 230.745598 
L 304.843232 230.911868 
L 304.842651 230.910775 
L 302.93277 233.16415 
z
" style="fill:#1f77b4;stroke:#1f77b4;stroke-linejoin:miter;"/>
   </g>
   <g id="patch_18">
    <path clip-path="url(#pd8d3834994)" d="M 268.304753 175.129231 
L 273.827947 176.878694 
L 272.309411 179.7173 
L 272.19834 179.925663 
L 272.198099 179.925376 
L 270.679563 182.763982 
z
" style="fill:#1f77b4;stroke:#1f77b4;stroke-linejoin:miter;"/>
   </g>
   <g id="patch_19">
    <path clip-path="url(#pd8d3834994)" d="M 251.865168 248.675089 
L 256.258463 253.961562 
L 254.042154 255.468024 
L 253.880435 255.580875 
L 253.879693 255.578451 
L 251.663384 257.084914 
z
" style="fill:#1f77b4;stroke:#1f77b4;stroke-linejoin:miter;"/>
   </g>
   <g id="patch_20">
    <path clip-path="url(#pd8d3834994)" d="M 235.177871 192.447652 
L 239.490154 197.880259 
L 237.251639 199.311942 
L 237.08792 199.418168 
L 237.087551 199.416887 
L 234.849036 200.84857 
z
" style="fill:#1f77b4;stroke:#1f77b4;stroke-linejoin:miter;"/>
   </g>
   <g id="patch_21">
    <path clip-path="url(#pd8d3834994)" d="M 186.520983 210.914768 
L 190.379304 217.058989 
L 188.044128 218.092329 
L 187.873445 218.170539 
L 187.872955 218.168075 
L 185.537779 219.201415 
z
" style="fill:#1f77b4;stroke:#1f77b4;stroke-linejoin:miter;"/>
   </g>
   <g id="patch_22">
    <path clip-path="url(#pd8d3834994)" d="M 178.106996 153.865097 
L 181.321083 160.784002 
L 178.909626 161.297414 
L 178.732974 161.336236 
L 178.73286 161.335049 
L 176.321404 161.848461 
z
" style="fill:#1f77b4;stroke:#1f77b4;stroke-linejoin:miter;"/>
   </g>
   <g id="patch_23">
    <path clip-path="url(#pd8d3834994)" d="M 120.72942 193.992856 
L 124.159585 200.677354 
L 121.767131 201.360247 
L 121.592135 201.413237 
L 121.591758 201.410304 
L 119.199304 202.093197 
z
" style="fill:#1f77b4;stroke:#1f77b4;stroke-linejoin:miter;"/>
   </g>
   <g id="patch_24">
    <path clip-path="url(#pd8d3834994)" d="M 142.396782 92.236016 
L 137.675927 96.852937 
L 137.391354 93.247459 
L 137.370154 92.983229 
L 137.370494 92.983169 
L 137.085922 89.377691 
z
" style="fill:#1f77b4;stroke:#1f77b4;stroke-linejoin:miter;"/>
   </g>
   <g id="patch_25">
    <path clip-path="url(#pd8d3834994)" d="M 51.033814 258.900214 
L 54.621756 265.398149 
L 52.247165 266.207765 
L 52.073906 266.27235 
L 52.073102 266.267111 
L 49.698511 267.076727 
z
" style="fill:#1f77b4;stroke:#1f77b4;stroke-linejoin:miter;"/>
   </g>
   <g id="patch_26">
    <path clip-path="url(#pd8d3834994)" d="M 51.388424 194.677819 
L 54.656092 201.540754 
L 52.248789 202.095777 
L 52.072707 202.140115 
L 52.072328 202.136461 
L 49.665025 202.691483 
z
" style="fill:#1f77b4;stroke:#1f77b4;stroke-linejoin:miter;"/>
   </g>
   <g id="patch_27">
    <path clip-path="url(#pd8d3834994)" d="M 51.962217 147.257891 
L 54.684137 154.630821 
L 52.250083 154.773617 
L 52.071727 154.786568 
L 52.071661 154.784084 
L 49.637606 154.92688 
z
" style="fill:#1f77b4;stroke:#1f77b4;stroke-linejoin:miter;"/>
   </g>
   <g id="patch_28">
    <path clip-path="url(#pd8d3834994)" d="M 94.720672 68.088825 
L 89.652267 71.798185 
L 89.669722 68.167942 
L 89.670494 67.901832 
L 89.671002 67.901837 
L 89.688457 64.271595 
z
" style="fill:#1f77b4;stroke:#1f77b4;stroke-linejoin:miter;"/>
   </g>
   <g id="patch_29">
    <path clip-path="url(#pd8d3834994)" d="M 155.474355 92.18276 
L 149.8589 93.064869 
L 150.713898 89.665502 
L 150.776208 89.416117 
L 150.776571 89.41632 
L 151.631569 86.016953 
z
" style="fill:#1f77b4;stroke:#1f77b4;stroke-linejoin:miter;"/>
   </g>
   <g id="patch_30">
    <path clip-path="url(#pd8d3834994)" d="M 113.003891 70.074389 
L 107.468656 71.737179 
L 108.106051 68.233327 
L 108.152267 67.976282 
L 108.152774 67.976486 
L 108.79017 64.472634 
z
" style="fill:#1f77b4;stroke:#1f77b4;stroke-linejoin:miter;"/>
   </g>
   <g id="patch_31">
    <path clip-path="url(#pd8d3834994)" d="M 171.531224 101.871345 
L 165.896349 102.412503 
L 166.843369 99.067748 
L 166.912487 98.822381 
L 166.912788 98.822569 
L 167.859807 95.477814 
z
" style="fill:#1f77b4;stroke:#1f77b4;stroke-linejoin:miter;"/>
   </g>
   <g id="patch_32">
    <path clip-path="url(#pd8d3834994)" d="M 107.743598 35.109776 
L 102.364867 32.548796 
L 104.06564 29.949829 
L 104.18955 29.758213 
L 104.190311 29.759319 
L 105.891084 27.160352 
z
" style="fill:#1f77b4;stroke:#1f77b4;stroke-linejoin:miter;"/>
   </g>
   <g id="patch_33">
    <path clip-path="url(#pd8d3834994)" d="M 182.904373 108.720711 
L 177.257832 108.74414 
L 178.341147 105.492561 
L 178.4203 105.254023 
L 178.420557 105.254213 
L 179.503872 102.002634 
z
" style="fill:#1f77b4;stroke:#1f77b4;stroke-linejoin:miter;"/>
   </g>
   <g id="patch_34">
    <path clip-path="url(#pd8d3834994)" d="M 179.288466 37.31896 
L 174.627275 32.5693 
L 176.756283 30.805216 
L 176.911593 30.67389 
L 176.912344 30.675905 
L 179.041352 28.911822 
z
" style="fill:#1f77b4;stroke:#1f77b4;stroke-linejoin:miter;"/>
   </g>
   <g id="patch_35">
    <path clip-path="url(#pd8d3834994)" d="M 203.766598 99.794533 
L 198.969957 95.354494 
L 201.044933 93.452785 
L 201.196699 93.312573 
L 201.197034 93.313385 
L 203.27201 91.411676 
z
" style="fill:#1f77b4;stroke:#1f77b4;stroke-linejoin:miter;"/>
   </g>
   <g id="patch_36">
    <path clip-path="url(#pd8d3834994)" d="M 240.408553 47.730251 
L 236.248661 42.03984 
L 238.524523 40.745528 
L 238.690666 40.647986 
L 238.691349 40.650652 
L 240.967211 39.356339 
z
" style="fill:#1f77b4;stroke:#1f77b4;stroke-linejoin:miter;"/>
   </g>
   <g id="patch_37">
    <path clip-path="url(#pd8d3834994)" d="M 255.894149 116.752578 
L 252.096053 110.525571 
L 254.441043 109.542836 
L 254.612711 109.469603 
L 254.612936 109.470799 
L 256.957927 108.488064 
z
" style="fill:#1f77b4;stroke:#1f77b4;stroke-linejoin:miter;"/>
   </g>
   <g id="patch_38">
    <path clip-path="url(#pd8d3834994)" d="M 236.754444 33.50099 
L 232.564209 27.86024 
L 234.833067 26.538899 
L 234.998603 26.439078 
L 234.99938 26.442041 
L 237.268238 25.120699 
z
" style="fill:#ff7f0e;stroke:#ff7f0e;stroke-linejoin:miter;"/>
   </g>
   <g id="patch_39">
    <path clip-path="url(#pd8d3834994)" d="M 258.31306 133.168264 
L 254.803764 126.575626 
L 257.187702 125.829507 
L 257.362332 125.773979 
L 257.36245 125.774814 
L 259.746388 125.028695 
z
" style="fill:#ff7f0e;stroke:#ff7f0e;stroke-linejoin:miter;"/>
   </g>
   <g id="patch_40">
    <path clip-path="url(#pd8d3834994)" d="M 306.093273 86.580538 
L 302.479875 80.11401 
L 304.851246 79.283696 
L 305.024649 79.220144 
L 305.025073 79.222832 
L 307.396444 78.392519 
z
" style="fill:#ff7f0e;stroke:#ff7f0e;stroke-linejoin:miter;"/>
   </g>
   <g id="patch_41">
    <path clip-path="url(#pd8d3834994)" d="M 309.377647 167.315491 
L 307.968953 159.166375 
L 310.35061 159.928503 
L 310.525302 159.983596 
L 310.525191 159.984368 
L 312.906848 160.746496 
z
" style="fill:#ff7f0e;stroke:#ff7f0e;stroke-linejoin:miter;"/>
   </g>
   <g id="patch_42">
    <path clip-path="url(#pd8d3834994)" d="M 381.962736 104.81452 
L 378.794103 97.849205 
L 381.208807 97.370885 
L 381.38551 97.332459 
L 381.38581 97.335823 
L 383.800514 96.857503 
z
" style="fill:#ff7f0e;stroke:#ff7f0e;stroke-linejoin:miter;"/>
   </g>
   <g id="patch_43">
    <path clip-path="url(#pd8d3834994)" d="M 350.938765 215.980219 
L 355.692537 211.438935 
L 355.951176 215.04875 
L 355.970615 215.313281 
L 355.970135 215.313358 
L 356.228774 218.923173 
z
" style="fill:#ff7f0e;stroke:#ff7f0e;stroke-linejoin:miter;"/>
   </g>
   <g id="patch_44">
    <path clip-path="url(#pd8d3834994)" d="M 410.161225 64.242674 
L 406.794889 57.486489 
L 409.19359 56.854132 
L 409.368853 56.803 
L 409.36942 56.807779 
L 411.76812 56.175422 
z
" style="fill:#ff7f0e;stroke:#ff7f0e;stroke-linejoin:miter;"/>
   </g>
   <g id="patch_45">
    <path clip-path="url(#pd8d3834994)" d="M 409.745409 117.560022 
L 406.766624 110.411052 
L 409.19225 110.077337 
L 409.369839 110.049414 
L 409.370054 110.052875 
L 411.79568 109.71916 
z
" style="fill:#ff7f0e;stroke:#ff7f0e;stroke-linejoin:miter;"/>
   </g>
   <g id="patch_46">
    <path clip-path="url(#pd8d3834994)" d="M 381.186828 226.699838 
L 385.051518 220.564513 
L 385.894397 223.970595 
L 385.956723 224.219972 
L 385.956183 224.220269 
L 386.799062 227.626351 
z
" style="fill:#ff7f0e;stroke:#ff7f0e;stroke-linejoin:miter;"/>
   </g>
   <g id="patch_47">
    <path clip-path="url(#pd8d3834994)" d="M 318.013893 206.327885 
L 323.642812 205.663156 
L 322.728935 209.028326 
L 322.662383 209.275265 
L 322.661945 209.275001 
L 321.748068 212.640172 
z
" style="fill:#ff7f0e;stroke:#ff7f0e;stroke-linejoin:miter;"/>
   </g>
   <g id="patch_48">
    <path clip-path="url(#pd8d3834994)" d="M 375.567382 231.084657 
L 380.438161 226.827657 
L 380.600622 230.44991 
L 380.613114 230.715371 
L 380.612531 230.715429 
L 380.774993 234.337682 
z
" style="fill:#ff7f0e;stroke:#ff7f0e;stroke-linejoin:miter;"/>
   </g>
   <g id="patch_49">
    <path clip-path="url(#pd8d3834994)" d="M 303.110628 196.68266 
L 308.75296 196.356947 
L 307.748721 199.664424 
L 307.675483 199.907123 
L 307.675108 199.90687 
L 306.670869 203.214348 
z
" style="fill:#ff7f0e;stroke:#ff7f0e;stroke-linejoin:miter;"/>
   </g>
   <g id="patch_50">
    <path clip-path="url(#pd8d3834994)" d="M 356.605796 235.145602 
L 362.245693 234.736834 
L 361.263428 238.058936 
L 361.192058 238.302868 
L 361.191425 238.302453 
L 360.20916 241.624555 
z
" style="fill:#ff7f0e;stroke:#ff7f0e;stroke-linejoin:miter;"/>
   </g>
   <g id="patch_51">
    <path clip-path="url(#pd8d3834994)" d="M 297.319509 193.202897 
L 302.965923 193.141599 
L 301.892437 196.40041 
L 301.814101 196.639547 
L 301.813748 196.639289 
L 300.740262 199.8981 
z
" style="fill:#ff7f0e;stroke:#ff7f0e;stroke-linejoin:miter;"/>
   </g>
   <g id="patch_52">
    <path clip-path="url(#pd8d3834994)" d="M 314.481183 250.386052 
L 319.51684 254.193188 
L 317.559614 256.354449 
L 317.416896 256.514385 
L 317.416145 256.512874 
L 315.45892 258.674136 
z
" style="fill:#ff7f0e;stroke:#ff7f0e;stroke-linejoin:miter;"/>
   </g>
   <g id="patch_53">
    <path clip-path="url(#pd8d3834994)" d="M 280.165756 191.046121 
L 285.526882 193.687818 
L 283.808607 196.261089 
L 283.683004 196.450236 
L 283.682653 196.449715 
L 281.964378 199.022986 
z
" style="fill:#ff7f0e;stroke:#ff7f0e;stroke-linejoin:miter;"/>
   </g>
   <g id="patch_54">
    <path clip-path="url(#pd8d3834994)" d="M 249.694478 241.557 
L 254.082163 246.853811 
L 251.864259 248.355053 
L 251.702377 248.467377 
L 251.701682 248.465098 
L 249.483779 249.966339 
z
" style="fill:#ff7f0e;stroke:#ff7f0e;stroke-linejoin:miter;"/>
   </g>
   <g id="patch_55">
    <path clip-path="url(#pd8d3834994)" d="M 233.436836 186.294413 
L 237.731131 191.758575 
L 235.487917 193.173826 
L 235.323812 193.278722 
L 235.323484 193.277567 
L 233.080269 194.692818 
z
" style="fill:#ff7f0e;stroke:#ff7f0e;stroke-linejoin:miter;"/>
   </g>
   <g id="patch_56">
    <path clip-path="url(#pd8d3834994)" d="M 188.601303 221.308786 
L 192.506843 227.386385 
L 190.179807 228.459731 
L 190.009789 228.541104 
L 190.00923 228.53841 
L 187.682193 229.611756 
z
" style="fill:#ff7f0e;stroke:#ff7f0e;stroke-linejoin:miter;"/>
   </g>
   <g id="patch_57">
    <path clip-path="url(#pd8d3834994)" d="M 180.19151 124.023435 
L 181.26441 132.28533 
L 178.918338 131.308345 
L 178.74628 131.237185 
L 178.746365 131.23673 
L 176.400294 130.259745 
z
" style="fill:#ff7f0e;stroke:#ff7f0e;stroke-linejoin:miter;"/>
   </g>
   <g id="patch_58">
    <path clip-path="url(#pd8d3834994)" d="M 122.009803 202.058084 
L 125.474652 208.702733 
L 123.085823 209.413259 
L 122.911146 209.468552 
L 122.910716 209.465342 
L 120.521887 210.175867 
z
" style="fill:#ff7f0e;stroke:#ff7f0e;stroke-linejoin:miter;"/>
   </g>
   <g id="patch_59">
    <path clip-path="url(#pd8d3834994)" d="M 153.760567 92.779903 
L 148.369735 95.283735 
L 148.761518 91.700661 
L 148.789886 91.437929 
L 148.790236 91.438014 
L 149.182019 87.85494 
z
" style="fill:#ff7f0e;stroke:#ff7f0e;stroke-linejoin:miter;"/>
   </g>
   <g id="patch_60">
    <path clip-path="url(#pd8d3834994)" d="M 51.115331 258.873057 
L 54.630728 265.458471 
L 52.247483 266.209493 
L 52.073589 266.270203 
L 52.072786 266.264544 
L 49.689541 267.015566 
z
" style="fill:#ff7f0e;stroke:#ff7f0e;stroke-linejoin:miter;"/>
   </g>
   <g id="patch_61">
    <path clip-path="url(#pd8d3834994)" d="M 51.468641 194.659888 
L 54.661969 201.60011 
L 52.248998 202.097472 
L 52.072499 202.138002 
L 52.072121 202.13393 
L 49.659151 202.631292 
z
" style="fill:#ff7f0e;stroke:#ff7f0e;stroke-linejoin:miter;"/>
   </g>
   <g id="patch_62">
    <path clip-path="url(#pd8d3834994)" d="M 51.994369 147.255741 
L 54.68472 154.654361 
L 52.250105 154.774047 
L 52.071706 154.785721 
L 52.071642 154.78282 
L 49.637026 154.902506 
z
" style="fill:#ff7f0e;stroke:#ff7f0e;stroke-linejoin:miter;"/>
   </g>
   <g id="patch_63">
    <path clip-path="url(#pd8d3834994)" d="M 82.118736 59.259226 
L 77.869118 64.800424 
L 77.254326 61.287612 
L 77.208706 61.030331 
L 77.209261 61.030115 
L 76.594469 57.517303 
z
" style="fill:#ff7f0e;stroke:#ff7f0e;stroke-linejoin:miter;"/>
   </g>
   <g id="patch_64">
    <path clip-path="url(#pd8d3834994)" d="M 166.163856 96.339137 
L 160.519827 96.591216 
L 161.543458 93.296968 
L 161.618154 93.055259 
L 161.618493 93.055492 
L 162.642124 89.761245 
z
" style="fill:#ff7f0e;stroke:#ff7f0e;stroke-linejoin:miter;"/>
   </g>
   <g id="patch_65">
    <path clip-path="url(#pd8d3834994)" d="M 76.910047 49.610259 
L 71.890292 53.463755 
L 71.861044 49.833681 
L 71.858268 49.567599 
L 71.8589 49.567588 
L 71.829651 45.937514 
z
" style="fill:#ff7f0e;stroke:#ff7f0e;stroke-linejoin:miter;"/>
   </g>
   <g id="patch_66">
    <path clip-path="url(#pd8d3834994)" d="M 171.154809 99.728922 
L 165.509062 99.872001 
L 166.561246 96.597795 
L 166.638057 96.357562 
L 166.638373 96.357788 
L 167.690557 93.083582 
z
" style="fill:#ff7f0e;stroke:#ff7f0e;stroke-linejoin:miter;"/>
   </g>
   <g id="patch_67">
    <path clip-path="url(#pd8d3834994)" d="M 117.733951 44.58873 
L 112.229096 42.715275 
L 113.776196 39.911138 
L 113.888908 39.704737 
L 113.889602 39.705588 
L 115.436702 36.90145 
z
" style="fill:#ff7f0e;stroke:#ff7f0e;stroke-linejoin:miter;"/>
   </g>
   <g id="patch_68">
    <path clip-path="url(#pd8d3834994)" d="M 189.3728 112.630207 
L 183.727737 112.436297 
L 184.867038 109.227499 
L 184.950319 108.992103 
L 184.950551 108.992286 
L 186.089853 105.783488 
z
" style="fill:#ff7f0e;stroke:#ff7f0e;stroke-linejoin:miter;"/>
   </g>
   <g id="patch_69">
    <path clip-path="url(#pd8d3834994)" d="M 186.286596 55.577428 
L 181.596168 50.892134 
L 183.714152 49.098819 
L 183.868775 48.965712 
L 183.869405 48.967365 
L 185.987389 47.17405 
z
" style="fill:#ff7f0e;stroke:#ff7f0e;stroke-linejoin:miter;"/>
   </g>
   <g id="patch_70">
    <path clip-path="url(#pd8d3834994)" d="M 205.794096 104.285842 
L 200.976547 99.896369 
L 203.042465 97.97288 
L 203.193597 97.831156 
L 203.193902 97.831884 
L 205.25982 95.908396 
z
" style="fill:#ff7f0e;stroke:#ff7f0e;stroke-linejoin:miter;"/>
   </g>
   <g id="patch_71">
    <path clip-path="url(#pd8d3834994)" d="M 241.0831 50.400547 
L 236.929679 44.699646 
L 239.207009 43.411079 
L 239.373277 43.314014 
L 239.373942 43.316624 
L 241.651271 42.028057 
z
" style="fill:#ff7f0e;stroke:#ff7f0e;stroke-linejoin:miter;"/>
   </g>
   <g id="patch_72">
    <path clip-path="url(#pd8d3834994)" d="M 257.878176 129.600269 
L 254.285441 123.108221 
L 256.659433 122.294713 
L 256.833311 122.234166 
L 256.833452 122.235081 
L 259.207445 121.421573 
z
" style="fill:#ff7f0e;stroke:#ff7f0e;stroke-linejoin:miter;"/>
   </g>
   <g id="matplotlib.axis_1">
    <g id="xtick_1">
     <g id="line2d_1">
      <defs>
       <path d="M 0 0 
L 0 3.5 
" id="m675d958bfe" style="stroke:#000000;stroke-width:0.8;"/>
      </defs>
      <g>
       <use style="stroke:#000000;stroke-width:0.8;" x="52.160938" xlink:href="#m675d958bfe" y="276.812"/>
      </g>
     </g>
     <g id="text_1">
      <!-- −1.00 -->
      <defs>
       <path d="M 10.59375 35.5 
L 73.1875 35.5 
L 73.1875 27.203125 
L 10.59375 27.203125 
z
" id="DejaVuSans-2212"/>
       <path d="M 12.40625 8.296875 
L 28.515625 8.296875 
L 28.515625 63.921875 
L 10.984375 60.40625 
L 10.984375 69.390625 
L 28.421875 72.90625 
L 38.28125 72.90625 
L 38.28125 8.296875 
L 54.390625 8.296875 
L 54.390625 0 
L 12.40625 0 
z
" id="DejaVuSans-31"/>
       <path d="M 10.6875 12.40625 
L 21 12.40625 
L 21 0 
L 10.6875 0 
z
" id="DejaVuSans-2e"/>
       <path d="M 31.78125 66.40625 
Q 24.171875 66.40625 20.328125 58.90625 
Q 16.5 51.421875 16.5 36.375 
Q 16.5 21.390625 20.328125 13.890625 
Q 24.171875 6.390625 31.78125 6.390625 
Q 39.453125 6.390625 43.28125 13.890625 
Q 47.125 21.390625 47.125 36.375 
Q 47.125 51.421875 43.28125 58.90625 
Q 39.453125 66.40625 31.78125 66.40625 
M 31.78125 74.21875 
Q 44.046875 74.21875 50.515625 64.515625 
Q 56.984375 54.828125 56.984375 36.375 
Q 56.984375 17.96875 50.515625 8.265625 
Q 44.046875 -1.421875 31.78125 -1.421875 
Q 19.53125 -1.421875 13.0625 8.265625 
Q 6.59375 17.96875 6.59375 36.375 
Q 6.59375 54.828125 13.0625 64.515625 
Q 19.53125 74.21875 31.78125 74.21875 
" id="DejaVuSans-30"/>
      </defs>
      <g transform="translate(36.838281 291.410438)scale(0.1 -0.1)">
       <use xlink:href="#DejaVuSans-2212"/>
       <use x="83.789062" xlink:href="#DejaVuSans-31"/>
       <use x="147.412109" xlink:href="#DejaVuSans-2e"/>
       <use x="179.199219" xlink:href="#DejaVuSans-30"/>
       <use x="242.822266" xlink:href="#DejaVuSans-30"/>
      </g>
     </g>
    </g>
    <g id="xtick_2">
     <g id="line2d_2">
      <g>
       <use style="stroke:#000000;stroke-width:0.8;" x="96.800938" xlink:href="#m675d958bfe" y="276.812"/>
      </g>
     </g>
     <g id="text_2">
      <!-- −0.75 -->
      <defs>
       <path d="M 8.203125 72.90625 
L 55.078125 72.90625 
L 55.078125 68.703125 
L 28.609375 0 
L 18.3125 0 
L 43.21875 64.59375 
L 8.203125 64.59375 
z
" id="DejaVuSans-37"/>
       <path d="M 10.796875 72.90625 
L 49.515625 72.90625 
L 49.515625 64.59375 
L 19.828125 64.59375 
L 19.828125 46.734375 
Q 21.96875 47.46875 24.109375 47.828125 
Q 26.265625 48.1875 28.421875 48.1875 
Q 40.625 48.1875 47.75 41.5 
Q 54.890625 34.8125 54.890625 23.390625 
Q 54.890625 11.625 47.5625 5.09375 
Q 40.234375 -1.421875 26.90625 -1.421875 
Q 22.3125 -1.421875 17.546875 -0.640625 
Q 12.796875 0.140625 7.71875 1.703125 
L 7.71875 11.625 
Q 12.109375 9.234375 16.796875 8.0625 
Q 21.484375 6.890625 26.703125 6.890625 
Q 35.15625 6.890625 40.078125 11.328125 
Q 45.015625 15.765625 45.015625 23.390625 
Q 45.015625 31 40.078125 35.4375 
Q 35.15625 39.890625 26.703125 39.890625 
Q 22.75 39.890625 18.8125 39.015625 
Q 14.890625 38.140625 10.796875 36.28125 
z
" id="DejaVuSans-35"/>
      </defs>
      <g transform="translate(81.478281 291.410438)scale(0.1 -0.1)">
       <use xlink:href="#DejaVuSans-2212"/>
       <use x="83.789062" xlink:href="#DejaVuSans-30"/>
       <use x="147.412109" xlink:href="#DejaVuSans-2e"/>
       <use x="179.199219" xlink:href="#DejaVuSans-37"/>
       <use x="242.822266" xlink:href="#DejaVuSans-35"/>
      </g>
     </g>
    </g>
    <g id="xtick_3">
     <g id="line2d_3">
      <g>
       <use style="stroke:#000000;stroke-width:0.8;" x="141.440938" xlink:href="#m675d958bfe" y="276.812"/>
      </g>
     </g>
     <g id="text_3">
      <!-- −0.50 -->
      <g transform="translate(126.118281 291.410438)scale(0.1 -0.1)">
       <use xlink:href="#DejaVuSans-2212"/>
       <use x="83.789062" xlink:href="#DejaVuSans-30"/>
       <use x="147.412109" xlink:href="#DejaVuSans-2e"/>
       <use x="179.199219" xlink:href="#DejaVuSans-35"/>
       <use x="242.822266" xlink:href="#DejaVuSans-30"/>
      </g>
     </g>
    </g>
    <g id="xtick_4">
     <g id="line2d_4">
      <g>
       <use style="stroke:#000000;stroke-width:0.8;" x="186.080938" xlink:href="#m675d958bfe" y="276.812"/>
      </g>
     </g>
     <g id="text_4">
      <!-- −0.25 -->
      <defs>
       <path d="M 19.1875 8.296875 
L 53.609375 8.296875 
L 53.609375 0 
L 7.328125 0 
L 7.328125 8.296875 
Q 12.9375 14.109375 22.625 23.890625 
Q 32.328125 33.6875 34.8125 36.53125 
Q 39.546875 41.84375 41.421875 45.53125 
Q 43.3125 49.21875 43.3125 52.78125 
Q 43.3125 58.59375 39.234375 62.25 
Q 35.15625 65.921875 28.609375 65.921875 
Q 23.96875 65.921875 18.8125 64.3125 
Q 13.671875 62.703125 7.8125 59.421875 
L 7.8125 69.390625 
Q 13.765625 71.78125 18.9375 73 
Q 24.125 74.21875 28.421875 74.21875 
Q 39.75 74.21875 46.484375 68.546875 
Q 53.21875 62.890625 53.21875 53.421875 
Q 53.21875 48.921875 51.53125 44.890625 
Q 49.859375 40.875 45.40625 35.40625 
Q 44.1875 33.984375 37.640625 27.21875 
Q 31.109375 20.453125 19.1875 8.296875 
" id="DejaVuSans-32"/>
      </defs>
      <g transform="translate(170.758281 291.410438)scale(0.1 -0.1)">
       <use xlink:href="#DejaVuSans-2212"/>
       <use x="83.789062" xlink:href="#DejaVuSans-30"/>
       <use x="147.412109" xlink:href="#DejaVuSans-2e"/>
       <use x="179.199219" xlink:href="#DejaVuSans-32"/>
       <use x="242.822266" xlink:href="#DejaVuSans-35"/>
      </g>
     </g>
    </g>
    <g id="xtick_5">
     <g id="line2d_5">
      <g>
       <use style="stroke:#000000;stroke-width:0.8;" x="230.720938" xlink:href="#m675d958bfe" y="276.812"/>
      </g>
     </g>
     <g id="text_5">
      <!-- 0.00 -->
      <g transform="translate(219.588125 291.410438)scale(0.1 -0.1)">
       <use xlink:href="#DejaVuSans-30"/>
       <use x="63.623047" xlink:href="#DejaVuSans-2e"/>
       <use x="95.410156" xlink:href="#DejaVuSans-30"/>
       <use x="159.033203" xlink:href="#DejaVuSans-30"/>
      </g>
     </g>
    </g>
    <g id="xtick_6">
     <g id="line2d_6">
      <g>
       <use style="stroke:#000000;stroke-width:0.8;" x="275.360938" xlink:href="#m675d958bfe" y="276.812"/>
      </g>
     </g>
     <g id="text_6">
      <!-- 0.25 -->
      <g transform="translate(264.228125 291.410438)scale(0.1 -0.1)">
       <use xlink:href="#DejaVuSans-30"/>
       <use x="63.623047" xlink:href="#DejaVuSans-2e"/>
       <use x="95.410156" xlink:href="#DejaVuSans-32"/>
       <use x="159.033203" xlink:href="#DejaVuSans-35"/>
      </g>
     </g>
    </g>
    <g id="xtick_7">
     <g id="line2d_7">
      <g>
       <use style="stroke:#000000;stroke-width:0.8;" x="320.000938" xlink:href="#m675d958bfe" y="276.812"/>
      </g>
     </g>
     <g id="text_7">
      <!-- 0.50 -->
      <g transform="translate(308.868125 291.410438)scale(0.1 -0.1)">
       <use xlink:href="#DejaVuSans-30"/>
       <use x="63.623047" xlink:href="#DejaVuSans-2e"/>
       <use x="95.410156" xlink:href="#DejaVuSans-35"/>
       <use x="159.033203" xlink:href="#DejaVuSans-30"/>
      </g>
     </g>
    </g>
    <g id="xtick_8">
     <g id="line2d_8">
      <g>
       <use style="stroke:#000000;stroke-width:0.8;" x="364.640938" xlink:href="#m675d958bfe" y="276.812"/>
      </g>
     </g>
     <g id="text_8">
      <!-- 0.75 -->
      <g transform="translate(353.508125 291.410438)scale(0.1 -0.1)">
       <use xlink:href="#DejaVuSans-30"/>
       <use x="63.623047" xlink:href="#DejaVuSans-2e"/>
       <use x="95.410156" xlink:href="#DejaVuSans-37"/>
       <use x="159.033203" xlink:href="#DejaVuSans-35"/>
      </g>
     </g>
    </g>
    <g id="xtick_9">
     <g id="line2d_9">
      <g>
       <use style="stroke:#000000;stroke-width:0.8;" x="409.280938" xlink:href="#m675d958bfe" y="276.812"/>
      </g>
     </g>
     <g id="text_9">
      <!-- 1.00 -->
      <g transform="translate(398.148125 291.410438)scale(0.1 -0.1)">
       <use xlink:href="#DejaVuSans-31"/>
       <use x="63.623047" xlink:href="#DejaVuSans-2e"/>
       <use x="95.410156" xlink:href="#DejaVuSans-30"/>
       <use x="159.033203" xlink:href="#DejaVuSans-30"/>
      </g>
     </g>
    </g>
    <g id="text_10">
     <!-- x1 -->
     <defs>
      <path d="M 54.890625 54.6875 
L 35.109375 28.078125 
L 55.90625 0 
L 45.3125 0 
L 29.390625 21.484375 
L 13.484375 0 
L 2.875 0 
L 24.125 28.609375 
L 4.6875 54.6875 
L 15.28125 54.6875 
L 29.78125 35.203125 
L 44.28125 54.6875 
z
" id="DejaVuSans-78"/>
     </defs>
     <g transform="translate(224.580313 305.088562)scale(0.1 -0.1)">
      <use xlink:href="#DejaVuSans-78"/>
      <use x="59.179688" xlink:href="#DejaVuSans-31"/>
     </g>
    </g>
   </g>
   <g id="matplotlib.axis_2">
    <g id="ytick_1">
     <g id="line2d_10">
      <defs>
       <path d="M 0 0 
L -3.5 0 
" id="m36ef1c34ff" style="stroke:#000000;stroke-width:0.8;"/>
      </defs>
      <g>
       <use style="stroke:#000000;stroke-width:0.8;" x="52.160938" xlink:href="#m36ef1c34ff" y="250.2008"/>
      </g>
     </g>
     <g id="text_11">
      <!-- −0.4 -->
      <defs>
       <path d="M 37.796875 64.3125 
L 12.890625 25.390625 
L 37.796875 25.390625 
z
M 35.203125 72.90625 
L 47.609375 72.90625 
L 47.609375 25.390625 
L 58.015625 25.390625 
L 58.015625 17.1875 
L 47.609375 17.1875 
L 47.609375 0 
L 37.796875 0 
L 37.796875 17.1875 
L 4.890625 17.1875 
L 4.890625 26.703125 
z
" id="DejaVuSans-34"/>
      </defs>
      <g transform="translate(20.878125 254.000019)scale(0.1 -0.1)">
       <use xlink:href="#DejaVuSans-2212"/>
       <use x="83.789062" xlink:href="#DejaVuSans-30"/>
       <use x="147.412109" xlink:href="#DejaVuSans-2e"/>
       <use x="179.199219" xlink:href="#DejaVuSans-34"/>
      </g>
     </g>
    </g>
    <g id="ytick_2">
     <g id="line2d_11">
      <g>
       <use style="stroke:#000000;stroke-width:0.8;" x="52.160938" xlink:href="#m36ef1c34ff" y="196.9784"/>
      </g>
     </g>
     <g id="text_12">
      <!-- −0.2 -->
      <g transform="translate(20.878125 200.777619)scale(0.1 -0.1)">
       <use xlink:href="#DejaVuSans-2212"/>
       <use x="83.789062" xlink:href="#DejaVuSans-30"/>
       <use x="147.412109" xlink:href="#DejaVuSans-2e"/>
       <use x="179.199219" xlink:href="#DejaVuSans-32"/>
      </g>
     </g>
    </g>
    <g id="ytick_3">
     <g id="line2d_12">
      <g>
       <use style="stroke:#000000;stroke-width:0.8;" x="52.160938" xlink:href="#m36ef1c34ff" y="143.756"/>
      </g>
     </g>
     <g id="text_13">
      <!-- 0.0 -->
      <g transform="translate(29.257812 147.555219)scale(0.1 -0.1)">
       <use xlink:href="#DejaVuSans-30"/>
       <use x="63.623047" xlink:href="#DejaVuSans-2e"/>
       <use x="95.410156" xlink:href="#DejaVuSans-30"/>
      </g>
     </g>
    </g>
    <g id="ytick_4">
     <g id="line2d_13">
      <g>
       <use style="stroke:#000000;stroke-width:0.8;" x="52.160938" xlink:href="#m36ef1c34ff" y="90.5336"/>
      </g>
     </g>
     <g id="text_14">
      <!-- 0.2 -->
      <g transform="translate(29.257812 94.332819)scale(0.1 -0.1)">
       <use xlink:href="#DejaVuSans-30"/>
       <use x="63.623047" xlink:href="#DejaVuSans-2e"/>
       <use x="95.410156" xlink:href="#DejaVuSans-32"/>
      </g>
     </g>
    </g>
    <g id="ytick_5">
     <g id="line2d_14">
      <g>
       <use style="stroke:#000000;stroke-width:0.8;" x="52.160938" xlink:href="#m36ef1c34ff" y="37.3112"/>
      </g>
     </g>
     <g id="text_15">
      <!-- 0.4 -->
      <g transform="translate(29.257812 41.110419)scale(0.1 -0.1)">
       <use xlink:href="#DejaVuSans-30"/>
       <use x="63.623047" xlink:href="#DejaVuSans-2e"/>
       <use x="95.410156" xlink:href="#DejaVuSans-34"/>
      </g>
     </g>
    </g>
    <g id="text_16">
     <!-- x2 -->
     <g transform="translate(14.798438 149.896625)rotate(-90)scale(0.1 -0.1)">
      <use xlink:href="#DejaVuSans-78"/>
      <use x="59.179688" xlink:href="#DejaVuSans-32"/>
     </g>
    </g>
   </g>
   <g id="line2d_15">
    <path clip-path="url(#pd8d3834994)" d="M 230.720938 10.7 
L 237.187516 35.191732 
L 242.44447 55.872968 
L 247.146554 75.290883 
L 250.782427 91.29082 
L 253.540568 104.444791 
L 255.578037 115.231114 
L 257.02539 124.048939 
L 257.991154 131.231458 
L 258.565407 137.056483 
L 258.822947 141.755851 
L 258.825735 145.522687 
L 258.625081 148.517917 
L 258.263411 150.875556 
L 257.77576 152.707177 
L 257.190997 154.105596 
L 256.532888 155.148064 
L 255.820932 155.898784 
L 254.98601 156.455279 
L 254.03447 156.798749 
L 252.977671 156.925278 
L 251.743291 156.829997 
L 250.270417 156.469963 
L 248.524175 155.795763 
L 246.362711 154.703351 
L 243.64533 153.062464 
L 239.987242 150.574107 
L 233.896925 146.121114 
L 230.720937 143.756 
L 230.720937 143.756 
" style="fill:none;stroke:#1f77b4;stroke-linecap:square;stroke-width:0.5;"/>
   </g>
   <g id="line2d_16">
    <path clip-path="url(#pd8d3834994)" d="M 292.020663 10.7 
L 296.143452 30.687294 
L 299.631265 48.573392 
L 302.551216 64.564713 
L 304.963877 78.848459 
L 306.92365 91.593555 
L 308.479473 102.952626 
L 309.675503 113.063919 
L 310.551496 122.052369 
L 311.143144 130.030558 
L 311.48262 137.100286 
L 311.598862 143.353396 
L 311.517843 148.872593 
L 311.262914 153.732453 
L 310.855049 158.000169 
L 310.313084 161.736261 
L 309.653926 164.995241 
L 308.892737 167.826161 
L 308.043122 170.273198 
L 307.117288 172.376141 
L 306.126168 174.170798 
L 304.864357 175.962573 
L 303.537568 177.406253 
L 302.158915 178.545579 
L 300.739869 179.41912 
L 299.290432 180.060849 
L 297.572574 180.556271 
L 295.837078 180.818236 
L 293.844947 180.877459 
L 291.607584 180.691887 
L 289.143203 180.235629 
L 286.476509 179.499527 
L 283.405113 178.398472 
L 279.991365 176.918397 
L 276.102342 174.970768 
L 271.677073 172.4893 
L 266.574417 169.359945 
L 260.559733 165.39943 
L 253.17423 160.25791 
L 243.286241 153.083463 
L 230.720937 143.756 
L 230.720938 143.756 
" style="fill:none;stroke:#1f77b4;stroke-linecap:square;stroke-width:0.5;"/>
   </g>
   <g id="line2d_17">
    <path clip-path="url(#pd8d3834994)" d="M 369.699764 10.7 
L 373.00077 30.543679 
L 375.792929 48.61855 
L 378.122112 65.073313 
L 380.029846 80.043412 
L 381.554284 93.653914 
L 382.730402 106.019987 
L 383.590144 117.247212 
L 384.16274 127.432488 
L 384.474941 136.664729 
L 384.55121 145.025417 
L 384.413931 152.589214 
L 384.083566 159.424453 
L 383.578816 165.593648 
L 382.916782 171.153978 
L 382.113091 176.157708 
L 381.182027 180.652612 
L 380.136653 184.682371 
L 378.988915 188.286903 
L 377.749726 191.502674 
L 376.429054 194.362961 
L 375.03601 196.898172 
L 373.578967 199.136222 
L 372.065599 201.102675 
L 370.502837 202.820631 
L 368.897064 204.311362 
L 366.838212 205.884706 
L 364.731544 207.167598 
L 362.586269 208.190747 
L 360.41063 208.981681 
L 358.211999 209.565072 
L 355.552519 210.022162 
L 352.879437 210.246031 
L 350.201527 210.266467 
L 347.081353 210.067974 
L 343.533449 209.591863 
L 340.017247 208.893968 
L 336.112812 207.892225 
L 331.852739 206.564525 
L 327.277074 204.903678 
L 322.432478 202.916833 
L 316.990085 200.443552 
L 311.061426 197.499403 
L 304.77351 194.132058 
L 297.639399 190.049689 
L 289.972398 185.396542 
L 281.61327 180.055821 
L 272.485864 173.955024 
L 262.336662 166.898934 
L 250.590609 158.453146 
L 235.104361 147.02108 
L 230.720937 143.756 
L 230.720937 143.756 
" style="fill:none;stroke:#1f77b4;stroke-linecap:square;stroke-width:0.5;"/>
   </g>
   <g id="line2d_18">
    <path clip-path="url(#pd8d3834994)" d="M 409.280938 56.826177 
L 409.849522 61.186171 
" style="fill:none;stroke:#1f77b4;stroke-linecap:square;stroke-width:0.5;"/>
   </g>
   <g id="line2d_19">
    <path clip-path="url(#pd8d3834994)" d="M 409.280938 110.061645 
L 409.49676 113.105894 
" style="fill:none;stroke:#1f77b4;stroke-linecap:square;stroke-width:0.5;"/>
   </g>
   <g id="line2d_20">
    <path clip-path="url(#pd8d3834994)" d="M 409.280938 154.781334 
L 408.883105 162.250225 
L 408.294675 168.992999 
L 407.534294 175.073154 
L 406.618954 180.548517 
L 405.564199 185.471927 
L 404.384169 189.89139 
L 403.091789 193.850712 
L 401.698871 197.389853 
L 400.216194 200.545201 
L 398.653602 203.349911 
L 397.020095 205.834227 
L 395.323898 208.025713 
L 393.57253 209.949514 
L 391.772867 211.628559 
L 389.931199 213.083773 
L 388.053255 214.334173 
L 385.662777 215.635519 
L 383.233104 216.674679 
L 380.772574 217.479156 
L 378.288649 218.073518 
L 375.286401 218.540147 
L 372.27025 218.769326 
L 369.249149 218.790557 
L 365.728678 218.586923 
L 362.222884 218.171283 
L 358.245987 217.476159 
L 353.823596 216.460326 
L 348.989691 215.096345 
L 343.786476 213.37154 
L 338.263735 211.287843 
L 332.477757 208.860852 
L 326.072081 205.918627 
L 319.176327 202.487454 
L 311.935072 198.624364 
L 304.162299 194.214873 
L 296.106003 189.388826 
L 287.473823 183.960613 
L 278.030447 177.752717 
L 267.832682 170.773947 
L 256.51527 162.750147 
L 243.086245 152.943065 
L 230.720937 143.756 
L 230.720937 143.756 
" style="fill:none;stroke:#1f77b4;stroke-linecap:square;stroke-width:0.5;"/>
   </g>
   <g id="line2d_21">
    <path clip-path="url(#pd8d3834994)" d="M 409.280938 202.119773 
L 407.674195 205.064562 
L 405.992927 207.677987 
L 404.245599 209.988483 
L 402.440033 212.022255 
L 400.583318 213.802983 
L 398.681957 215.352304 
L 396.741909 216.689989 
L 394.27068 218.091704 
L 391.757058 219.222311 
L 389.209649 220.110061 
L 386.636176 220.780225 
L 383.523297 221.328838 
L 380.393405 221.631015 
L 377.255781 221.716937 
L 373.596275 221.579098 
L 369.948577 221.219697 
L 365.806557 220.578086 
L 361.195345 219.609762 
L 356.649306 218.426874 
L 351.688745 216.910045 
L 346.356892 215.048316 
L 340.704182 212.843657 
L 334.341374 210.110826 
L 327.815438 207.062557 
L 320.794855 203.53577 
L 313.42564 199.586215 
L 305.517194 195.093513 
L 297.009574 189.995301 
L 287.989955 184.32001 
L 278.462473 178.055127 
L 268.173743 171.01611 
L 256.883039 163.015894 
L 243.452934 153.213951 
L 230.720937 143.756 
L 230.720937 143.756 
" style="fill:none;stroke:#1f77b4;stroke-linecap:square;stroke-width:0.5;"/>
   </g>
   <g id="line2d_22">
    <path clip-path="url(#pd8d3834994)" d="M 409.280938 266.242677 
L 404.445666 261.543613 
L 399.031297 256.604774 
L 393.837003 252.160971 
L 388.142853 247.587376 
L 382.014508 242.971323 
L 375.514331 238.370255 
L 368.701869 233.814978 
L 360.491044 228.602697 
L 350.084199 222.289926 
L 331.94712 211.615328 
L 314.719197 201.367631 
L 302.453017 193.809149 
L 291.244617 186.644222 
L 280.214469 179.329982 
L 268.98335 171.614445 
L 256.924983 163.05347 
L 243.034816 152.905472 
L 230.720937 143.756 
L 230.720938 143.756 
" style="fill:none;stroke:#1f77b4;stroke-linecap:square;stroke-width:0.5;"/>
   </g>
   <g id="line2d_23">
    <path clip-path="url(#pd8d3834994)" d="M 327.352777 276.812 
L 320.609614 262.301321 
L 313.88267 248.385707 
L 307.929824 236.59623 
L 302.634007 226.571191 
L 297.402577 217.142518 
L 292.752427 209.195409 
L 288.201664 201.847206 
L 283.801252 195.173387 
L 279.58512 189.198491 
L 275.573029 183.906559 
L 271.773834 179.252471 
L 267.978983 174.944197 
L 264.078213 170.852627 
L 260.041528 166.945812 
L 255.774235 163.126428 
L 250.913974 159.081544 
L 244.826822 154.321366 
L 234.160989 146.319106 
L 230.720937 143.756 
L 230.720938 143.756 
" style="fill:none;stroke:#1f77b4;stroke-linecap:square;stroke-width:0.5;"/>
   </g>
   <g id="line2d_24">
    <path clip-path="url(#pd8d3834994)" d="M 260.517332 276.812 
L 249.095957 239.556205 
L 240.448935 210.624487 
L 234.447991 189.825605 
L 230.140521 174.137698 
L 227.209595 162.63785 
L 225.432113 154.813993 
L 224.398337 149.302154 
L 223.936556 145.715616 
L 223.843711 143.429095 
L 223.982962 142.016501 
L 224.262562 141.187832 
L 224.621438 140.746028 
L 225.062327 140.548352 
L 225.624131 140.558132 
L 226.389909 140.8152 
L 227.533937 141.459394 
L 229.610693 142.929808 
L 230.720938 143.756 
L 230.720937 143.756 
" style="fill:none;stroke:#1f77b4;stroke-linecap:square;stroke-width:0.5;"/>
   </g>
   <g id="line2d_25">
    <path clip-path="url(#pd8d3834994)" d="M 200.924543 276.812 
L 196.003738 255.603262 
L 191.883826 236.98246 
L 188.466518 220.651017 
L 185.252522 204.140005 
L 182.756634 190.017144 
L 180.87439 177.961179 
L 179.51541 167.692937 
L 178.601554 158.970014 
L 178.065297 151.582018 
L 177.848328 145.346477 
L 177.900323 140.10519 
L 178.17787 135.721048 
L 178.643563 132.075297 
L 179.265182 129.065079 
L 180.015043 126.60146 
L 180.869325 124.607398 
L 181.80757 123.0162 
L 182.812233 121.77017 
L 183.8683 120.819429 
L 184.962943 120.120858 
L 186.247234 119.583687 
L 187.553905 119.279708 
L 189.036541 119.16653 
L 190.68424 119.269107 
L 192.480692 119.59776 
L 194.563082 120.202214 
L 197.041795 121.166101 
L 199.838366 122.498644 
L 203.247014 124.385545 
L 207.258934 126.872922 
L 212.33403 130.296732 
L 219.287948 135.280901 
L 230.720937 143.756 
L 230.720937 143.756 
" style="fill:none;stroke:#1f77b4;stroke-linecap:square;stroke-width:0.5;"/>
   </g>
   <g id="line2d_26">
    <path clip-path="url(#pd8d3834994)" d="M 134.089098 276.812 
L 130.004366 254.605226 
L 126.624163 234.788426 
L 123.872187 217.121758 
L 121.679821 201.388208 
L 119.985654 187.392446 
L 118.734365 174.957707 
L 117.876321 163.924697 
L 117.36696 154.149888 
L 117.166261 145.503974 
L 117.238343 137.870696 
L 117.551006 131.145472 
L 118.075391 125.234355 
L 118.785628 120.052965 
L 119.658531 115.525521 
L 120.67332 111.583983 
L 121.811366 108.167239 
L 123.056002 105.220485 
L 124.39234 102.694666 
L 125.806996 100.545562 
L 127.287985 98.733465 
L 128.824615 97.222822 
L 130.407325 95.981719 
L 132.027559 94.981463 
L 133.677674 94.196281 
L 135.687705 93.50555 
L 137.720586 93.05577 
L 139.767274 92.815694 
L 142.162052 92.763983 
L 144.554181 92.922081 
L 147.273244 93.317737 
L 150.300063 93.98745 
L 153.60831 94.952447 
L 157.164902 96.218145 
L 161.239033 97.911358 
L 165.747481 100.036963 
L 170.866995 102.714518 
L 176.426877 105.881588 
L 182.697731 109.714245 
L 189.921173 114.400216 
L 198.257314 120.084695 
L 208.170778 127.125559 
L 221.089902 136.592956 
L 230.720937 143.756 
L 230.720938 143.756 
" style="fill:none;stroke:#1f77b4;stroke-linecap:square;stroke-width:0.5;"/>
   </g>
   <g id="line2d_27">
    <path clip-path="url(#pd8d3834994)" d="M 52.160938 266.242677 
L 51.356747 261.003908 
" style="fill:none;stroke:#1f77b4;stroke-linecap:square;stroke-width:0.5;"/>
   </g>
   <g id="line2d_28">
    <path clip-path="url(#pd8d3834994)" d="M 52.160938 202.119773 
L 51.781633 198.465765 
" style="fill:none;stroke:#1f77b4;stroke-linecap:square;stroke-width:0.5;"/>
   </g>
   <g id="line2d_29">
    <path clip-path="url(#pd8d3834994)" d="M 52.160938 154.781334 
L 52.095327 152.297353 
" style="fill:none;stroke:#1f77b4;stroke-linecap:square;stroke-width:0.5;"/>
   </g>
   <g id="line2d_30">
    <path clip-path="url(#pd8d3834994)" d="M 52.160938 110.061645 
L 53.137634 104.75903 
L 54.249392 99.993568 
L 55.482415 95.718394 
L 56.824097 91.890763 
L 58.262912 88.471663 
L 59.7884 85.425779 
L 61.390997 82.720906 
L 63.061948 80.327624 
L 64.793248 78.219122 
L 66.577593 76.370987 
L 68.408301 74.760956 
L 70.279257 73.368709 
L 72.666077 71.906566 
L 75.097187 70.723139 
L 77.56373 69.789221 
L 80.057785 69.078742 
L 82.572264 68.568417 
L 85.607704 68.19103 
L 88.65369 68.039928 
L 92.209333 68.112336 
L 95.756002 68.415849 
L 99.785537 69.003092 
L 103.777602 69.806063 
L 108.210776 70.922343 
L 113.050257 72.376461 
L 118.253372 74.179244 
L 123.770239 76.32797 
L 129.544769 78.807113 
L 135.932486 81.791425 
L 142.803765 85.252964 
L 150.014581 89.134474 
L 157.750258 93.551427 
L 166.067947 98.561618 
L 174.880995 104.133448 
L 184.408317 110.42673 
L 194.755192 117.537177 
L 206.221571 125.69556 
L 220.0962 135.856229 
L 230.720938 143.756 
L 230.720937 143.756 
" style="fill:none;stroke:#1f77b4;stroke-linecap:square;stroke-width:0.5;"/>
   </g>
   <g id="line2d_31">
    <path clip-path="url(#pd8d3834994)" d="M 52.160938 56.826177 
L 55.667118 56.539666 
L 59.180707 56.455394 
L 63.279189 56.582245 
L 67.366582 56.920455 
L 72.012522 57.530537 
L 77.192849 58.460158 
L 82.310228 59.606005 
L 87.907999 61.08948 
L 93.942862 62.929528 
L 100.363425 65.133481 
L 107.110934 67.697302 
L 114.120227 70.605712 
L 121.321088 73.832858 
L 129.084835 77.564039 
L 136.839647 81.534172 
L 145.28343 86.115237 
L 153.800382 90.992268 
L 162.860561 96.444891 
L 172.088108 102.259195 
L 181.83502 108.664306 
L 192.363109 115.856799 
L 203.788602 123.94019 
L 217.145624 133.675555 
L 230.720938 143.756 
L 230.720938 143.756 
" style="fill:none;stroke:#1f77b4;stroke-linecap:square;stroke-width:0.5;"/>
   </g>
   <g id="line2d_32">
    <path clip-path="url(#pd8d3834994)" d="M 91.742111 10.7 
L 96.929222 18.984568 
L 102.58355 27.584486 
L 107.857645 35.19667 
L 112.794586 41.96366 
L 118.070907 48.815576 
L 123.001448 54.869967 
L 128.183743 60.881925 
L 133.543666 66.73835 
L 139.016068 72.36248 
L 144.544429 77.7099 
L 150.080221 82.763707 
L 156.331576 88.157904 
L 163.060094 93.658044 
L 170.638978 99.562416 
L 180.15249 106.681596 
L 196.450817 118.54671 
L 218.152379 134.41569 
L 230.720938 143.756 
L 230.720937 143.756 
" style="fill:none;stroke:#1f77b4;stroke-linecap:square;stroke-width:0.5;"/>
   </g>
   <g id="line2d_33">
    <path clip-path="url(#pd8d3834994)" d="M 169.421212 10.7 
L 180.46004 40.426537 
L 189.594752 64.401665 
L 197.045097 83.347028 
L 203.053251 98.034697 
L 207.861829 109.22607 
L 211.697632 117.626553 
L 214.894136 124.115028 
L 217.526076 128.973999 
L 219.762191 132.649958 
L 221.698647 135.421115 
L 223.47755 137.590528 
L 225.250124 139.403022 
L 227.273369 141.140634 
L 230.720938 143.756 
L 230.720938 143.756 
" style="fill:none;stroke:#1f77b4;stroke-linecap:square;stroke-width:0.5;"/>
   </g>
   <g id="line2d_34">
    <path clip-path="url(#pd8d3834994)" d="M 230.720937 10.7 
L 237.187516 35.191732 
L 242.44447 55.872968 
L 247.146554 75.290883 
L 250.782427 91.29082 
L 253.540568 104.444791 
L 255.578037 115.231114 
L 257.02539 124.048939 
L 257.991154 131.231458 
L 258.565407 137.056483 
L 258.822947 141.755851 
L 258.825735 145.522687 
L 258.625081 148.517917 
L 258.263411 150.875556 
L 257.77576 152.707177 
L 257.190997 154.105596 
L 256.532888 155.148064 
L 255.820932 155.898784 
L 254.98601 156.455279 
L 254.03447 156.798749 
L 252.977671 156.925278 
L 251.743291 156.829997 
L 250.270417 156.469963 
L 248.524175 155.795763 
L 246.362711 154.703351 
L 243.64533 153.062464 
L 239.987242 150.574108 
L 233.896925 146.121114 
L 230.720937 143.756 
L 230.720937 143.756 
" style="fill:none;stroke:#1f77b4;stroke-linecap:square;stroke-width:0.5;"/>
   </g>
   <g id="line2d_35">
    <path clip-path="url(#pd8d3834994)" d="M 230.720938 143.756 
" style="fill:none;stroke:#1f77b4;stroke-linecap:square;stroke-width:1.5;"/>
   </g>
   <g id="line2d_36">
    <path clip-path="url(#pd8d3834994)" d="M 230.720938 10.7 
L 237.187516 35.191775 
L 242.444458 55.873488 
L 247.146465 75.293163 
L 250.782103 91.296552 
L 253.539753 104.455614 
L 255.576383 115.248223 
L 257.022496 124.072925 
L 257.986603 131.262295 
L 258.558799 137.093618 
L 258.813929 141.798331 
L 258.814021 145.569306 
L 258.610459 148.567346 
L 258.245753 150.92645 
L 257.755017 152.758263 
L 257.167192 154.155724 
L 256.50611 155.196239 
L 255.791325 155.944196 
L 254.95348 156.49688 
L 253.999041 156.835512 
L 252.93951 156.956332 
L 251.70253 156.854174 
L 250.227356 156.485997 
L 248.479521 155.802755 
L 246.317719 154.700518 
L 243.602458 153.050311 
L 239.906087 150.523801 
L 233.567759 145.876643 
L 230.720937 143.756 
L 230.720938 143.756 
" style="fill:none;stroke:#ff7f0e;stroke-linecap:square;stroke-width:0.5;"/>
   </g>
   <g id="line2d_37">
    <path clip-path="url(#pd8d3834994)" d="M 292.020663 10.7 
L 296.141911 30.780336 
L 299.624951 48.765908 
L 302.536726 64.860999 
L 304.937736 79.250576 
L 306.88223 92.10086 
L 308.419298 103.562576 
L 309.593207 113.77197 
L 310.443861 122.852176 
L 311.007244 130.914539 
L 311.315789 138.059719 
L 311.398711 144.378691 
L 311.282329 149.953691 
L 310.990337 154.859052 
L 310.544059 159.161936 
L 309.96267 162.923022 
L 309.263408 166.197125 
L 308.46177 169.03378 
L 307.571669 171.47773 
L 306.60559 173.569367 
L 305.574723 175.345157 
L 304.48911 176.83806 
L 303.357738 178.077818 
L 301.950943 179.268975 
L 300.502056 180.175539 
L 299.021778 180.83411 
L 297.519427 181.277025 
L 295.749528 181.559116 
L 293.971578 181.62606 
L 291.941613 181.482824 
L 289.673973 181.093173 
L 287.189526 180.436833 
L 284.275608 179.41713 
L 280.990401 178.005984 
L 277.408228 176.215427 
L 273.209787 173.8551 
L 268.410031 170.893078 
L 262.660731 167.076326 
L 255.315666 161.91673 
L 244.804235 154.232593 
L 230.720937 143.756 
L 230.720938 143.756 
" style="fill:none;stroke:#ff7f0e;stroke-linecap:square;stroke-width:0.5;"/>
   </g>
   <g id="line2d_38">
    <path clip-path="url(#pd8d3834994)" d="M 369.699764 10.7 
L 372.989976 31.344266 
L 375.750311 50.194574 
L 378.027066 67.39315 
L 379.86291 83.071349 
L 381.297008 97.34999 
L 382.365426 110.340574 
L 383.101338 122.145903 
L 383.535227 132.860685 
L 383.695176 142.572388 
L 383.607016 151.361702 
L 383.294492 159.303024 
L 382.779434 166.464968 
L 382.081896 172.91079 
L 381.220306 178.698828 
L 380.211602 183.882908 
L 379.071304 188.512567 
L 377.813658 192.633477 
L 376.451749 196.287789 
L 374.997583 199.514376 
L 373.462158 202.349043 
L 371.855541 204.824757 
L 370.186947 206.971895 
L 368.464812 208.818451 
L 366.69685 210.390204 
L 364.890125 211.71095 
L 363.051076 212.802562 
L 361.185579 213.685183 
L 358.824632 214.522685 
L 356.440114 215.095504 
L 354.040396 215.433394 
L 351.632903 215.563164 
L 348.742845 215.478006 
L 345.860921 215.16502 
L 342.520224 214.555431 
L 339.213498 213.725581 
L 335.487962 212.557359 
L 331.378406 211.02161 
L 326.92806 209.108477 
L 322.187673 206.827621 
L 316.809131 203.984128 
L 310.916596 200.6096 
L 304.295264 196.553878 
L 296.859617 191.734581 
L 288.110532 185.789579 
L 277.595533 178.363121 
L 263.818893 168.339907 
L 241.159558 151.53368 
L 230.720937 143.756 
L 230.720937 143.756 
" style="fill:none;stroke:#ff7f0e;stroke-linecap:square;stroke-width:0.5;"/>
   </g>
   <g id="line2d_39">
    <path clip-path="url(#pd8d3834994)" d="M 409.280938 56.826177 
L 409.848125 61.604783 
" style="fill:none;stroke:#ff7f0e;stroke-linecap:square;stroke-width:0.5;"/>
   </g>
   <g id="line2d_40">
    <path clip-path="url(#pd8d3834994)" d="M 409.280938 110.061645 
L 409.495362 113.523286 
" style="fill:none;stroke:#ff7f0e;stroke-linecap:square;stroke-width:0.5;"/>
   </g>
   <g id="line2d_41">
    <path clip-path="url(#pd8d3834994)" d="M 409.280938 154.781334 
L 408.861234 163.850769 
L 408.210249 172.026482 
L 407.350999 179.381116 
L 406.30461 185.981612 
L 405.090513 191.889771 
L 403.726495 197.162424 
L 402.228897 201.852012 
L 400.612717 206.006901 
L 398.891697 209.671638 
L 397.07843 212.887274 
L 395.184454 215.691653 
L 393.220334 218.119644 
L 391.195739 220.203378 
L 389.11951 221.972459 
L 386.999734 223.45417 
L 384.843754 224.673517 
L 382.658296 225.653608 
L 380.449489 226.415711 
L 378.22292 226.979415 
L 375.422441 227.432413 
L 372.611047 227.635594 
L 369.796622 227.61783 
L 366.42506 227.341277 
L 363.069601 226.823891 
L 359.73922 226.100954 
L 355.895595 225.038955 
L 351.570258 223.589017 
L 347.328343 221.939073 
L 342.667609 219.900573 
L 337.639022 217.471965 
L 331.825863 214.41088 
L 325.360623 210.737241 
L 318.396326 206.517286 
L 310.322611 201.348643 
L 301.181909 195.215433 
L 290.619117 187.849427 
L 277.469012 178.392048 
L 259.401983 165.099951 
L 230.720937 143.756 
L 230.720937 143.756 
" style="fill:none;stroke:#ff7f0e;stroke-linecap:square;stroke-width:0.5;"/>
   </g>
   <g id="line2d_42">
    <path clip-path="url(#pd8d3834994)" d="M 409.280938 202.119773 
L 407.652522 206.649088 
L 405.909681 210.651573 
L 404.065923 214.171126 
L 402.133725 217.248562 
L 400.124436 219.921241 
L 398.048445 222.22359 
L 395.915293 224.187449 
L 393.733666 225.842034 
L 391.511481 227.214208 
L 389.255975 228.328738 
L 386.973755 229.208449 
L 384.670843 229.874368 
L 382.352716 230.345835 
L 379.441208 230.688696 
L 376.522388 230.787035 
L 373.60394 230.669253 
L 370.111839 230.278624 
L 366.640309 229.653232 
L 362.627789 228.67312 
L 358.666749 227.468811 
L 354.215018 225.870735 
L 349.316055 223.852387 
L 344.022628 221.40812 
L 338.395671 218.553232 
L 332.023232 215.04965 
L 325.054049 210.943136 
L 317.235388 206.056037 
L 308.467614 200.29401 
L 298.496802 193.462635 
L 286.619231 185.043715 
L 271.384694 173.955407 
L 247.689702 156.397381 
L 230.720937 143.756 
L 230.720937 143.756 
" style="fill:none;stroke:#ff7f0e;stroke-linecap:square;stroke-width:0.5;"/>
   </g>
   <g id="line2d_43">
    <path clip-path="url(#pd8d3834994)" d="M 409.280938 266.242677 
L 401.994828 262.554457 
L 394.164927 258.320121 
L 385.88368 253.576493 
L 377.250223 248.380773 
L 367.704398 242.381844 
L 356.860924 235.295866 
L 345.114728 227.352582 
L 331.37835 217.784005 
L 315.36854 206.346546 
L 295.431241 191.810776 
L 267.350398 171.033977 
L 230.720937 143.756 
L 230.720937 143.756 
" style="fill:none;stroke:#ff7f0e;stroke-linecap:square;stroke-width:0.5;"/>
   </g>
   <g id="line2d_44">
    <path clip-path="url(#pd8d3834994)" d="M 327.352777 276.812 
L 319.803669 261.129812 
L 313.129984 247.756905 
L 306.586334 235.160042 
L 300.819423 224.541484 
L 295.229386 214.737668 
L 290.301565 206.540674 
L 285.555836 199.081006 
L 281.030765 192.397538 
L 276.748428 186.482877 
L 272.717835 181.294803 
L 268.718145 176.514652 
L 264.826206 172.209418 
L 260.931251 168.22512 
L 256.861411 164.375715 
L 252.377439 160.448904 
L 247.231422 156.251379 
L 240.447435 151.027384 
L 230.720937 143.756 
L 230.720938 143.756 
" style="fill:none;stroke:#ff7f0e;stroke-linecap:square;stroke-width:0.5;"/>
   </g>
   <g id="line2d_45">
    <path clip-path="url(#pd8d3834994)" d="M 260.517332 276.812 
L 249.095033 239.569298 
L 240.446667 210.635773 
L 234.444697 189.832844 
L 230.136588 174.141651 
L 227.205327 162.639437 
L 225.427744 154.813921 
L 224.394056 149.300882 
L 223.932495 145.713555 
L 223.839947 143.426551 
L 223.979538 142.013736 
L 224.259495 141.185051 
L 224.618722 140.743366 
L 225.059972 140.54591 
L 225.622173 140.556022 
L 226.388415 140.813568 
L 227.533002 141.458419 
L 229.615972 142.933703 
L 230.720938 143.756 
L 230.720937 143.756 
" style="fill:none;stroke:#ff7f0e;stroke-linecap:square;stroke-width:0.5;"/>
   </g>
   <g id="line2d_46">
    <path clip-path="url(#pd8d3834994)" d="M 200.924543 276.812 
L 196.004019 255.588458 
L 191.885083 236.947965 
L 188.469636 220.592386 
L 185.671103 206.258118 
L 183.084252 191.779479 
L 181.126763 179.40953 
L 179.706378 168.86528 
L 178.743255 159.901018 
L 178.168312 152.303364 
L 177.921815 145.887068 
L 177.952144 140.491307 
L 178.214713 135.976465 
L 178.671055 132.221398 
L 179.288001 129.120971 
L 180.037016 126.58408 
L 180.893539 124.531674 
L 181.836453 122.895171 
L 182.847642 121.615127 
L 183.9116 120.640055 
L 185.015075 119.925385 
L 186.310164 119.378226 
L 187.627965 119.071581 
L 189.123084 118.962279 
L 190.784161 119.075577 
L 192.594292 119.421436 
L 194.691007 120.050657 
L 197.184216 121.047859 
L 199.993337 122.419646 
L 203.411267 124.352487 
L 207.538016 126.960562 
L 212.756128 130.538843 
L 220.268798 135.986651 
L 230.720938 143.756 
L 230.720938 143.756 
" style="fill:none;stroke:#ff7f0e;stroke-linecap:square;stroke-width:0.5;"/>
   </g>
   <g id="line2d_47">
    <path clip-path="url(#pd8d3834994)" d="M 134.089098 276.812 
L 130.766121 258.569421 
L 127.911674 241.888457 
L 125.485508 226.645888 
L 123.45043 212.727643 
L 121.772276 200.028749 
L 120.128956 185.723423 
L 118.938579 173.000423 
L 118.150698 161.70365 
L 117.719903 151.692161 
L 117.605241 142.838435 
L 117.769821 135.027188 
L 118.18045 128.154302 
L 118.807249 122.125651 
L 119.623346 116.856204 
L 120.604583 112.269144 
L 121.729257 108.295085 
L 122.977875 104.871349 
L 124.332924 101.941265 
L 125.778703 99.45368 
L 127.301161 97.362466 
L 128.88772 95.625986 
L 130.527123 94.206648 
L 132.209305 93.070512 
L 133.925284 92.186959 
L 135.667056 91.528386 
L 137.427502 91.069912 
L 139.555828 90.752457 
L 141.692377 90.656384 
L 144.184415 90.78357 
L 146.665209 91.128345 
L 149.474723 91.742245 
L 152.589225 92.658287 
L 155.977578 93.891996 
L 159.601892 95.441031 
L 163.730031 97.445653 
L 168.56259 100.058477 
L 173.931481 103.230759 
L 180.138266 107.172669 
L 187.45609 112.101448 
L 196.412404 118.419038 
L 208.576776 127.294367 
L 230.720938 143.756 
L 230.720937 143.756 
" style="fill:none;stroke:#ff7f0e;stroke-linecap:square;stroke-width:0.5;"/>
   </g>
   <g id="line2d_48">
    <path clip-path="url(#pd8d3834994)" d="M 52.160938 266.242677 
L 51.358153 260.584506 
" style="fill:none;stroke:#ff7f0e;stroke-linecap:square;stroke-width:0.5;"/>
   </g>
   <g id="line2d_49">
    <path clip-path="url(#pd8d3834994)" d="M 52.160938 202.119773 
L 51.783057 198.047893 
" style="fill:none;stroke:#ff7f0e;stroke-linecap:square;stroke-width:0.5;"/>
   </g>
   <g id="line2d_50">
    <path clip-path="url(#pd8d3834994)" d="M 52.160938 154.781334 
L 52.096732 151.880496 
" style="fill:none;stroke:#ff7f0e;stroke-linecap:square;stroke-width:0.5;"/>
   </g>
   <g id="line2d_51">
    <path clip-path="url(#pd8d3834994)" d="M 52.160938 110.061645 
L 53.159451 103.166318 
L 54.33332 96.989129 
L 55.664016 91.470981 
L 57.134596 86.557585 
L 58.729502 82.198849 
L 60.434445 78.348533 
L 62.236379 74.964181 
L 64.12334 72.006628 
L 66.084357 69.439745 
L 68.109394 67.230252 
L 70.189282 65.347517 
L 72.315636 63.763323 
L 74.4808 62.451672 
L 76.677782 61.388622 
L 78.900208 60.552131 
L 81.142262 59.921873 
L 83.964439 59.395802 
L 86.799816 59.129752 
L 89.640192 59.093833 
L 92.478314 59.261114 
L 95.872114 59.696046 
L 99.243847 60.351315 
L 103.138779 61.350619 
L 106.98168 62.559768 
L 111.298507 64.148698 
L 116.046748 66.141486 
L 121.17502 68.542419 
L 126.624178 71.335931 
L 132.792886 74.753816 
L 139.536868 78.750226 
L 147.10048 83.497224 
L 155.57977 89.085285 
L 165.541784 95.926999 
L 177.499055 104.423052 
L 192.961549 115.701195 
L 218.265278 134.475489 
L 230.720938 143.756 
L 230.720938 143.756 
" style="fill:none;stroke:#ff7f0e;stroke-linecap:square;stroke-width:0.5;"/>
   </g>
   <g id="line2d_52">
    <path clip-path="url(#pd8d3834994)" d="M 52.160938 56.826177 
L 54.518799 55.036751 
L 56.920504 53.552529 
L 59.358342 52.347181 
L 61.825083 51.395739 
L 64.314205 50.675431 
L 66.819792 50.165372 
L 69.336475 49.846368 
L 72.490493 49.689351 
L 75.64565 49.771709 
L 78.794404 50.065146 
L 82.555176 50.660235 
L 86.287282 51.483587 
L 90.593938 52.686814 
L 94.838839 54.106097 
L 99.602854 55.94024 
L 104.838293 58.212426 
L 110.48812 60.925282 
L 116.486894 64.059983 
L 123.27291 67.87419 
L 130.686857 72.314297 
L 138.996808 77.569415 
L 148.307801 83.737921 
L 158.888624 91.025062 
L 171.485158 99.980686 
L 187.633811 111.750655 
L 212.831633 130.428596 
L 230.720938 143.756 
L 230.720938 143.756 
" style="fill:none;stroke:#ff7f0e;stroke-linecap:square;stroke-width:0.5;"/>
   </g>
   <g id="line2d_53">
    <path clip-path="url(#pd8d3834994)" d="M 91.742111 10.7 
L 98.625132 20.190203 
L 105.794948 29.672943 
L 112.425647 38.071877 
L 119.234217 46.323772 
L 125.522327 53.611658 
L 131.909037 60.692131 
L 138.3181 67.480833 
L 145.151346 74.384887 
L 151.803276 80.795232 
L 158.997529 87.412121 
L 166.46203 93.968425 
L 174.537072 100.75784 
L 183.491289 107.988763 
L 194.043868 116.21466 
L 208.183503 126.931625 
L 230.720938 143.756 
L 230.720937 143.756 
" style="fill:none;stroke:#ff7f0e;stroke-linecap:square;stroke-width:0.5;"/>
   </g>
   <g id="line2d_54">
    <path clip-path="url(#pd8d3834994)" d="M 169.421212 10.7 
L 181.156884 42.091853 
L 190.670927 66.907908 
L 197.891726 85.160934 
L 203.723499 99.344405 
L 208.397288 110.171826 
L 212.299774 118.667695 
L 215.37233 124.853706 
L 218.003346 129.660046 
L 220.210613 133.232216 
L 222.103223 135.886312 
L 223.86605 137.984179 
L 225.640863 139.749555 
L 227.732051 141.500631 
L 230.720938 143.756 
L 230.720937 143.756 
" style="fill:none;stroke:#ff7f0e;stroke-linecap:square;stroke-width:0.5;"/>
   </g>
   <g id="line2d_55">
    <path clip-path="url(#pd8d3834994)" d="M 230.720937 10.7 
L 237.187516 35.191775 
L 242.444458 55.873488 
L 247.146465 75.293163 
L 250.782103 91.296552 
L 253.539753 104.455614 
L 255.576383 115.248223 
L 257.022496 124.072925 
L 257.986603 131.262295 
L 258.558799 137.093618 
L 258.813929 141.798331 
L 258.814021 145.569306 
L 258.610459 148.567346 
L 258.245753 150.92645 
L 257.755017 152.758263 
L 257.167192 154.155724 
L 256.50611 155.196239 
L 255.791325 155.944196 
L 254.95348 156.49688 
L 253.999041 156.835512 
L 252.93951 156.956332 
L 251.70253 156.854174 
L 250.227356 156.485997 
L 248.479521 155.802755 
L 246.317719 154.700518 
L 243.602458 153.050312 
L 239.906087 150.523801 
L 233.567759 145.876643 
L 230.720937 143.756 
L 230.720938 143.756 
" style="fill:none;stroke:#ff7f0e;stroke-linecap:square;stroke-width:0.5;"/>
   </g>
   <g id="line2d_56">
    <path clip-path="url(#pd8d3834994)" d="M 230.720938 143.756 
" style="fill:none;stroke:#ff7f0e;stroke-linecap:square;stroke-width:1.5;"/>
   </g>
   <g id="line2d_57">
    <defs>
     <path d="M 0 3 
C 0.795609 3 1.55874 2.683901 2.12132 2.12132 
C 2.683901 1.55874 3 0.795609 3 0 
C 3 -0.795609 2.683901 -1.55874 2.12132 -2.12132 
C 1.55874 -2.683901 0.795609 -3 0 -3 
C -0.795609 -3 -1.55874 -2.683901 -2.12132 -2.12132 
C -2.683901 -1.55874 -3 -0.795609 -3 0 
C -3 0.795609 -2.683901 1.55874 -2.12132 2.12132 
C -1.55874 2.683901 -0.795609 3 0 3 
z
" id="m5d9baafead" style="stroke:#ff0000;"/>
    </defs>
    <g clip-path="url(#pd8d3834994)">
     <use style="fill:#ff0000;stroke:#ff0000;" x="230.720938" xlink:href="#m5d9baafead" y="143.756"/>
    </g>
   </g>
   <g id="patch_73">
    <path d="M 52.160938 276.812 
L 52.160938 10.7 
" style="fill:none;stroke:#000000;stroke-linecap:square;stroke-linejoin:miter;stroke-width:0.8;"/>
   </g>
   <g id="patch_74">
    <path d="M 409.280938 276.812 
L 409.280938 10.7 
" style="fill:none;stroke:#000000;stroke-linecap:square;stroke-linejoin:miter;stroke-width:0.8;"/>
   </g>
   <g id="patch_75">
    <path d="M 52.160938 276.812 
L 409.280938 276.812 
" style="fill:none;stroke:#000000;stroke-linecap:square;stroke-linejoin:miter;stroke-width:0.8;"/>
   </g>
   <g id="patch_76">
    <path d="M 52.160938 10.7 
L 409.280938 10.7 
" style="fill:none;stroke:#000000;stroke-linecap:square;stroke-linejoin:miter;stroke-width:0.8;"/>
   </g>
   <g id="legend_1">
    <g id="patch_77">
     <path d="M 259.340938 273.812 
L 405.080938 273.812 
Q 406.280938 273.812 406.280938 272.612 
L 406.280938 246.551375 
Q 406.280938 245.351375 405.080938 245.351375 
L 259.340938 245.351375 
Q 258.140938 245.351375 258.140938 246.551375 
L 258.140938 272.612 
Q 258.140938 273.812 259.340938 273.812 
z
" style="fill:#ffffff;opacity:0.8;stroke:#cccccc;stroke-linejoin:miter;"/>
    </g>
    <g id="line2d_58">
     <path d="M 260.540938 250.210437 
L 272.540938 250.210437 
" style="fill:none;stroke:#1f77b4;stroke-linecap:square;stroke-width:1.5;"/>
    </g>
    <g id="line2d_59"/>
    <g id="text_17">
     <!-- system nieliniowy -->
     <defs>
      <path d="M 44.28125 53.078125 
L 44.28125 44.578125 
Q 40.484375 46.53125 36.375 47.5 
Q 32.28125 48.484375 27.875 48.484375 
Q 21.1875 48.484375 17.84375 46.4375 
Q 14.5 44.390625 14.5 40.28125 
Q 14.5 37.15625 16.890625 35.375 
Q 19.28125 33.59375 26.515625 31.984375 
L 29.59375 31.296875 
Q 39.15625 29.25 43.1875 25.515625 
Q 47.21875 21.78125 47.21875 15.09375 
Q 47.21875 7.46875 41.1875 3.015625 
Q 35.15625 -1.421875 24.609375 -1.421875 
Q 20.21875 -1.421875 15.453125 -0.5625 
Q 10.6875 0.296875 5.421875 2 
L 5.421875 11.28125 
Q 10.40625 8.6875 15.234375 7.390625 
Q 20.0625 6.109375 24.8125 6.109375 
Q 31.15625 6.109375 34.5625 8.28125 
Q 37.984375 10.453125 37.984375 14.40625 
Q 37.984375 18.0625 35.515625 20.015625 
Q 33.0625 21.96875 24.703125 23.78125 
L 21.578125 24.515625 
Q 13.234375 26.265625 9.515625 29.90625 
Q 5.8125 33.546875 5.8125 39.890625 
Q 5.8125 47.609375 11.28125 51.796875 
Q 16.75 56 26.8125 56 
Q 31.78125 56 36.171875 55.265625 
Q 40.578125 54.546875 44.28125 53.078125 
" id="DejaVuSans-73"/>
      <path d="M 32.171875 -5.078125 
Q 28.375 -14.84375 24.75 -17.8125 
Q 21.140625 -20.796875 15.09375 -20.796875 
L 7.90625 -20.796875 
L 7.90625 -13.28125 
L 13.1875 -13.28125 
Q 16.890625 -13.28125 18.9375 -11.515625 
Q 21 -9.765625 23.484375 -3.21875 
L 25.09375 0.875 
L 2.984375 54.6875 
L 12.5 54.6875 
L 29.59375 11.921875 
L 46.6875 54.6875 
L 56.203125 54.6875 
z
" id="DejaVuSans-79"/>
      <path d="M 18.3125 70.21875 
L 18.3125 54.6875 
L 36.8125 54.6875 
L 36.8125 47.703125 
L 18.3125 47.703125 
L 18.3125 18.015625 
Q 18.3125 11.328125 20.140625 9.421875 
Q 21.96875 7.515625 27.59375 7.515625 
L 36.8125 7.515625 
L 36.8125 0 
L 27.59375 0 
Q 17.1875 0 13.234375 3.875 
Q 9.28125 7.765625 9.28125 18.015625 
L 9.28125 47.703125 
L 2.6875 47.703125 
L 2.6875 54.6875 
L 9.28125 54.6875 
L 9.28125 70.21875 
z
" id="DejaVuSans-74"/>
      <path d="M 56.203125 29.59375 
L 56.203125 25.203125 
L 14.890625 25.203125 
Q 15.484375 15.921875 20.484375 11.0625 
Q 25.484375 6.203125 34.421875 6.203125 
Q 39.59375 6.203125 44.453125 7.46875 
Q 49.3125 8.734375 54.109375 11.28125 
L 54.109375 2.78125 
Q 49.265625 0.734375 44.1875 -0.34375 
Q 39.109375 -1.421875 33.890625 -1.421875 
Q 20.796875 -1.421875 13.15625 6.1875 
Q 5.515625 13.8125 5.515625 26.8125 
Q 5.515625 40.234375 12.765625 48.109375 
Q 20.015625 56 32.328125 56 
Q 43.359375 56 49.78125 48.890625 
Q 56.203125 41.796875 56.203125 29.59375 
M 47.21875 32.234375 
Q 47.125 39.59375 43.09375 43.984375 
Q 39.0625 48.390625 32.421875 48.390625 
Q 24.90625 48.390625 20.390625 44.140625 
Q 15.875 39.890625 15.1875 32.171875 
z
" id="DejaVuSans-65"/>
      <path d="M 52 44.1875 
Q 55.375 50.25 60.0625 53.125 
Q 64.75 56 71.09375 56 
Q 79.640625 56 84.28125 50.015625 
Q 88.921875 44.046875 88.921875 33.015625 
L 88.921875 0 
L 79.890625 0 
L 79.890625 32.71875 
Q 79.890625 40.578125 77.09375 44.375 
Q 74.3125 48.1875 68.609375 48.1875 
Q 61.625 48.1875 57.5625 43.546875 
Q 53.515625 38.921875 53.515625 30.90625 
L 53.515625 0 
L 44.484375 0 
L 44.484375 32.71875 
Q 44.484375 40.625 41.703125 44.40625 
Q 38.921875 48.1875 33.109375 48.1875 
Q 26.21875 48.1875 22.15625 43.53125 
Q 18.109375 38.875 18.109375 30.90625 
L 18.109375 0 
L 9.078125 0 
L 9.078125 54.6875 
L 18.109375 54.6875 
L 18.109375 46.1875 
Q 21.1875 51.21875 25.484375 53.609375 
Q 29.78125 56 35.6875 56 
Q 41.65625 56 45.828125 52.96875 
Q 50 49.953125 52 44.1875 
" id="DejaVuSans-6d"/>
      <path id="DejaVuSans-20"/>
      <path d="M 54.890625 33.015625 
L 54.890625 0 
L 45.90625 0 
L 45.90625 32.71875 
Q 45.90625 40.484375 42.875 44.328125 
Q 39.84375 48.1875 33.796875 48.1875 
Q 26.515625 48.1875 22.3125 43.546875 
Q 18.109375 38.921875 18.109375 30.90625 
L 18.109375 0 
L 9.078125 0 
L 9.078125 54.6875 
L 18.109375 54.6875 
L 18.109375 46.1875 
Q 21.34375 51.125 25.703125 53.5625 
Q 30.078125 56 35.796875 56 
Q 45.21875 56 50.046875 50.171875 
Q 54.890625 44.34375 54.890625 33.015625 
" id="DejaVuSans-6e"/>
      <path d="M 9.421875 54.6875 
L 18.40625 54.6875 
L 18.40625 0 
L 9.421875 0 
z
M 9.421875 75.984375 
L 18.40625 75.984375 
L 18.40625 64.59375 
L 9.421875 64.59375 
z
" id="DejaVuSans-69"/>
      <path d="M 9.421875 75.984375 
L 18.40625 75.984375 
L 18.40625 0 
L 9.421875 0 
z
" id="DejaVuSans-6c"/>
      <path d="M 30.609375 48.390625 
Q 23.390625 48.390625 19.1875 42.75 
Q 14.984375 37.109375 14.984375 27.296875 
Q 14.984375 17.484375 19.15625 11.84375 
Q 23.34375 6.203125 30.609375 6.203125 
Q 37.796875 6.203125 41.984375 11.859375 
Q 46.1875 17.53125 46.1875 27.296875 
Q 46.1875 37.015625 41.984375 42.703125 
Q 37.796875 48.390625 30.609375 48.390625 
M 30.609375 56 
Q 42.328125 56 49.015625 48.375 
Q 55.71875 40.765625 55.71875 27.296875 
Q 55.71875 13.875 49.015625 6.21875 
Q 42.328125 -1.421875 30.609375 -1.421875 
Q 18.84375 -1.421875 12.171875 6.21875 
Q 5.515625 13.875 5.515625 27.296875 
Q 5.515625 40.765625 12.171875 48.375 
Q 18.84375 56 30.609375 56 
" id="DejaVuSans-6f"/>
      <path d="M 4.203125 54.6875 
L 13.1875 54.6875 
L 24.421875 12.015625 
L 35.59375 54.6875 
L 46.1875 54.6875 
L 57.421875 12.015625 
L 68.609375 54.6875 
L 77.59375 54.6875 
L 63.28125 0 
L 52.6875 0 
L 40.921875 44.828125 
L 29.109375 0 
L 18.5 0 
z
" id="DejaVuSans-77"/>
     </defs>
     <g transform="translate(277.340938 252.310437)scale(0.06 -0.06)">
      <use xlink:href="#DejaVuSans-73"/>
      <use x="52.099609" xlink:href="#DejaVuSans-79"/>
      <use x="111.279297" xlink:href="#DejaVuSans-73"/>
      <use x="163.378906" xlink:href="#DejaVuSans-74"/>
      <use x="202.587891" xlink:href="#DejaVuSans-65"/>
      <use x="264.111328" xlink:href="#DejaVuSans-6d"/>
      <use x="361.523438" xlink:href="#DejaVuSans-20"/>
      <use x="393.310547" xlink:href="#DejaVuSans-6e"/>
      <use x="456.689453" xlink:href="#DejaVuSans-69"/>
      <use x="484.472656" xlink:href="#DejaVuSans-65"/>
      <use x="545.996094" xlink:href="#DejaVuSans-6c"/>
      <use x="573.779297" xlink:href="#DejaVuSans-69"/>
      <use x="601.5625" xlink:href="#DejaVuSans-6e"/>
      <use x="664.941406" xlink:href="#DejaVuSans-69"/>
      <use x="692.724609" xlink:href="#DejaVuSans-6f"/>
      <use x="753.90625" xlink:href="#DejaVuSans-77"/>
      <use x="835.693359" xlink:href="#DejaVuSans-79"/>
     </g>
    </g>
    <g id="line2d_60">
     <path d="M 260.540938 259.017312 
L 272.540938 259.017312 
" style="fill:none;stroke:#ff7f0e;stroke-linecap:square;stroke-width:1.5;"/>
    </g>
    <g id="line2d_61"/>
    <g id="text_18">
     <!-- system zlinearyzowany -->
     <defs>
      <path d="M 5.515625 54.6875 
L 48.1875 54.6875 
L 48.1875 46.484375 
L 14.40625 7.171875 
L 48.1875 7.171875 
L 48.1875 0 
L 4.296875 0 
L 4.296875 8.203125 
L 38.09375 47.515625 
L 5.515625 47.515625 
z
" id="DejaVuSans-7a"/>
      <path d="M 34.28125 27.484375 
Q 23.390625 27.484375 19.1875 25 
Q 14.984375 22.515625 14.984375 16.5 
Q 14.984375 11.71875 18.140625 8.90625 
Q 21.296875 6.109375 26.703125 6.109375 
Q 34.1875 6.109375 38.703125 11.40625 
Q 43.21875 16.703125 43.21875 25.484375 
L 43.21875 27.484375 
z
M 52.203125 31.203125 
L 52.203125 0 
L 43.21875 0 
L 43.21875 8.296875 
Q 40.140625 3.328125 35.546875 0.953125 
Q 30.953125 -1.421875 24.3125 -1.421875 
Q 15.921875 -1.421875 10.953125 3.296875 
Q 6 8.015625 6 15.921875 
Q 6 25.140625 12.171875 29.828125 
Q 18.359375 34.515625 30.609375 34.515625 
L 43.21875 34.515625 
L 43.21875 35.40625 
Q 43.21875 41.609375 39.140625 45 
Q 35.0625 48.390625 27.6875 48.390625 
Q 23 48.390625 18.546875 47.265625 
Q 14.109375 46.140625 10.015625 43.890625 
L 10.015625 52.203125 
Q 14.9375 54.109375 19.578125 55.046875 
Q 24.21875 56 28.609375 56 
Q 40.484375 56 46.34375 49.84375 
Q 52.203125 43.703125 52.203125 31.203125 
" id="DejaVuSans-61"/>
      <path d="M 41.109375 46.296875 
Q 39.59375 47.171875 37.8125 47.578125 
Q 36.03125 48 33.890625 48 
Q 26.265625 48 22.1875 43.046875 
Q 18.109375 38.09375 18.109375 28.8125 
L 18.109375 0 
L 9.078125 0 
L 9.078125 54.6875 
L 18.109375 54.6875 
L 18.109375 46.1875 
Q 20.953125 51.171875 25.484375 53.578125 
Q 30.03125 56 36.53125 56 
Q 37.453125 56 38.578125 55.875 
Q 39.703125 55.765625 41.0625 55.515625 
z
" id="DejaVuSans-72"/>
     </defs>
     <g transform="translate(277.340938 261.117312)scale(0.06 -0.06)">
      <use xlink:href="#DejaVuSans-73"/>
      <use x="52.099609" xlink:href="#DejaVuSans-79"/>
      <use x="111.279297" xlink:href="#DejaVuSans-73"/>
      <use x="163.378906" xlink:href="#DejaVuSans-74"/>
      <use x="202.587891" xlink:href="#DejaVuSans-65"/>
      <use x="264.111328" xlink:href="#DejaVuSans-6d"/>
      <use x="361.523438" xlink:href="#DejaVuSans-20"/>
      <use x="393.310547" xlink:href="#DejaVuSans-7a"/>
      <use x="445.800781" xlink:href="#DejaVuSans-6c"/>
      <use x="473.583984" xlink:href="#DejaVuSans-69"/>
      <use x="501.367188" xlink:href="#DejaVuSans-6e"/>
      <use x="564.746094" xlink:href="#DejaVuSans-65"/>
      <use x="626.269531" xlink:href="#DejaVuSans-61"/>
      <use x="687.548828" xlink:href="#DejaVuSans-72"/>
      <use x="728.662109" xlink:href="#DejaVuSans-79"/>
      <use x="787.841797" xlink:href="#DejaVuSans-7a"/>
      <use x="840.332031" xlink:href="#DejaVuSans-6f"/>
      <use x="901.513672" xlink:href="#DejaVuSans-77"/>
      <use x="983.300781" xlink:href="#DejaVuSans-61"/>
      <use x="1044.580078" xlink:href="#DejaVuSans-6e"/>
      <use x="1107.958984" xlink:href="#DejaVuSans-79"/>
     </g>
    </g>
    <g id="line2d_62"/>
    <g id="line2d_63">
     <g>
      <use style="fill:#ff0000;stroke:#ff0000;" x="266.540938" xlink:href="#m5d9baafead" y="268.064187"/>
     </g>
    </g>
    <g id="text_19">
     <!-- Punkt równowagi asymptotycznie stabilny -->
     <defs>
      <path d="M 19.671875 64.796875 
L 19.671875 37.40625 
L 32.078125 37.40625 
Q 38.96875 37.40625 42.71875 40.96875 
Q 46.484375 44.53125 46.484375 51.125 
Q 46.484375 57.671875 42.71875 61.234375 
Q 38.96875 64.796875 32.078125 64.796875 
z
M 9.8125 72.90625 
L 32.078125 72.90625 
Q 44.34375 72.90625 50.609375 67.359375 
Q 56.890625 61.8125 56.890625 51.125 
Q 56.890625 40.328125 50.609375 34.8125 
Q 44.34375 29.296875 32.078125 29.296875 
L 19.671875 29.296875 
L 19.671875 0 
L 9.8125 0 
z
" id="DejaVuSans-50"/>
      <path d="M 8.5 21.578125 
L 8.5 54.6875 
L 17.484375 54.6875 
L 17.484375 21.921875 
Q 17.484375 14.15625 20.5 10.265625 
Q 23.53125 6.390625 29.59375 6.390625 
Q 36.859375 6.390625 41.078125 11.03125 
Q 45.3125 15.671875 45.3125 23.6875 
L 45.3125 54.6875 
L 54.296875 54.6875 
L 54.296875 0 
L 45.3125 0 
L 45.3125 8.40625 
Q 42.046875 3.421875 37.71875 1 
Q 33.40625 -1.421875 27.6875 -1.421875 
Q 18.265625 -1.421875 13.375 4.4375 
Q 8.5 10.296875 8.5 21.578125 
M 31.109375 56 
z
" id="DejaVuSans-75"/>
      <path d="M 9.078125 75.984375 
L 18.109375 75.984375 
L 18.109375 31.109375 
L 44.921875 54.6875 
L 56.390625 54.6875 
L 27.390625 29.109375 
L 57.625 0 
L 45.90625 0 
L 18.109375 26.703125 
L 18.109375 0 
L 9.078125 0 
z
" id="DejaVuSans-6b"/>
      <path d="M 30.609375 48.390625 
Q 23.390625 48.390625 19.1875 42.75 
Q 14.984375 37.109375 14.984375 27.296875 
Q 14.984375 17.484375 19.15625 11.84375 
Q 23.34375 6.203125 30.609375 6.203125 
Q 37.796875 6.203125 41.984375 11.859375 
Q 46.1875 17.53125 46.1875 27.296875 
Q 46.1875 37.015625 41.984375 42.703125 
Q 37.796875 48.390625 30.609375 48.390625 
M 30.609375 56 
Q 42.328125 56 49.015625 48.375 
Q 55.71875 40.765625 55.71875 27.296875 
Q 55.71875 13.875 49.015625 6.21875 
Q 42.328125 -1.421875 30.609375 -1.421875 
Q 18.84375 -1.421875 12.171875 6.21875 
Q 5.515625 13.875 5.515625 27.296875 
Q 5.515625 40.765625 12.171875 48.375 
Q 18.84375 56 30.609375 56 
M 37.40625 79.984375 
L 47.125 79.984375 
L 31.21875 61.625 
L 23.734375 61.625 
z
" id="DejaVuSans-f3"/>
      <path d="M 45.40625 27.984375 
Q 45.40625 37.75 41.375 43.109375 
Q 37.359375 48.484375 30.078125 48.484375 
Q 22.859375 48.484375 18.828125 43.109375 
Q 14.796875 37.75 14.796875 27.984375 
Q 14.796875 18.265625 18.828125 12.890625 
Q 22.859375 7.515625 30.078125 7.515625 
Q 37.359375 7.515625 41.375 12.890625 
Q 45.40625 18.265625 45.40625 27.984375 
M 54.390625 6.78125 
Q 54.390625 -7.171875 48.1875 -13.984375 
Q 42 -20.796875 29.203125 -20.796875 
Q 24.46875 -20.796875 20.265625 -20.09375 
Q 16.0625 -19.390625 12.109375 -17.921875 
L 12.109375 -9.1875 
Q 16.0625 -11.328125 19.921875 -12.34375 
Q 23.78125 -13.375 27.78125 -13.375 
Q 36.625 -13.375 41.015625 -8.765625 
Q 45.40625 -4.15625 45.40625 5.171875 
L 45.40625 9.625 
Q 42.625 4.78125 38.28125 2.390625 
Q 33.9375 0 27.875 0 
Q 17.828125 0 11.671875 7.65625 
Q 5.515625 15.328125 5.515625 27.984375 
Q 5.515625 40.671875 11.671875 48.328125 
Q 17.828125 56 27.875 56 
Q 33.9375 56 38.28125 53.609375 
Q 42.625 51.21875 45.40625 46.390625 
L 45.40625 54.6875 
L 54.390625 54.6875 
z
" id="DejaVuSans-67"/>
      <path d="M 18.109375 8.203125 
L 18.109375 -20.796875 
L 9.078125 -20.796875 
L 9.078125 54.6875 
L 18.109375 54.6875 
L 18.109375 46.390625 
Q 20.953125 51.265625 25.265625 53.625 
Q 29.59375 56 35.59375 56 
Q 45.5625 56 51.78125 48.09375 
Q 58.015625 40.1875 58.015625 27.296875 
Q 58.015625 14.40625 51.78125 6.484375 
Q 45.5625 -1.421875 35.59375 -1.421875 
Q 29.59375 -1.421875 25.265625 0.953125 
Q 20.953125 3.328125 18.109375 8.203125 
M 48.6875 27.296875 
Q 48.6875 37.203125 44.609375 42.84375 
Q 40.53125 48.484375 33.40625 48.484375 
Q 26.265625 48.484375 22.1875 42.84375 
Q 18.109375 37.203125 18.109375 27.296875 
Q 18.109375 17.390625 22.1875 11.75 
Q 26.265625 6.109375 33.40625 6.109375 
Q 40.53125 6.109375 44.609375 11.75 
Q 48.6875 17.390625 48.6875 27.296875 
" id="DejaVuSans-70"/>
      <path d="M 48.78125 52.59375 
L 48.78125 44.1875 
Q 44.96875 46.296875 41.140625 47.34375 
Q 37.3125 48.390625 33.40625 48.390625 
Q 24.65625 48.390625 19.8125 42.84375 
Q 14.984375 37.3125 14.984375 27.296875 
Q 14.984375 17.28125 19.8125 11.734375 
Q 24.65625 6.203125 33.40625 6.203125 
Q 37.3125 6.203125 41.140625 7.25 
Q 44.96875 8.296875 48.78125 10.40625 
L 48.78125 2.09375 
Q 45.015625 0.34375 40.984375 -0.53125 
Q 36.96875 -1.421875 32.421875 -1.421875 
Q 20.0625 -1.421875 12.78125 6.34375 
Q 5.515625 14.109375 5.515625 27.296875 
Q 5.515625 40.671875 12.859375 48.328125 
Q 20.21875 56 33.015625 56 
Q 37.15625 56 41.109375 55.140625 
Q 45.0625 54.296875 48.78125 52.59375 
" id="DejaVuSans-63"/>
      <path d="M 48.6875 27.296875 
Q 48.6875 37.203125 44.609375 42.84375 
Q 40.53125 48.484375 33.40625 48.484375 
Q 26.265625 48.484375 22.1875 42.84375 
Q 18.109375 37.203125 18.109375 27.296875 
Q 18.109375 17.390625 22.1875 11.75 
Q 26.265625 6.109375 33.40625 6.109375 
Q 40.53125 6.109375 44.609375 11.75 
Q 48.6875 17.390625 48.6875 27.296875 
M 18.109375 46.390625 
Q 20.953125 51.265625 25.265625 53.625 
Q 29.59375 56 35.59375 56 
Q 45.5625 56 51.78125 48.09375 
Q 58.015625 40.1875 58.015625 27.296875 
Q 58.015625 14.40625 51.78125 6.484375 
Q 45.5625 -1.421875 35.59375 -1.421875 
Q 29.59375 -1.421875 25.265625 0.953125 
Q 20.953125 3.328125 18.109375 8.203125 
L 18.109375 0 
L 9.078125 0 
L 9.078125 75.984375 
L 18.109375 75.984375 
z
" id="DejaVuSans-62"/>
     </defs>
     <g transform="translate(277.340938 270.164187)scale(0.06 -0.06)">
      <use xlink:href="#DejaVuSans-50"/>
      <use x="60.287109" xlink:href="#DejaVuSans-75"/>
      <use x="123.666016" xlink:href="#DejaVuSans-6e"/>
      <use x="187.044922" xlink:href="#DejaVuSans-6b"/>
      <use x="244.955078" xlink:href="#DejaVuSans-74"/>
      <use x="284.164062" xlink:href="#DejaVuSans-20"/>
      <use x="315.951172" xlink:href="#DejaVuSans-72"/>
      <use x="357.033203" xlink:href="#DejaVuSans-f3"/>
      <use x="418.214844" xlink:href="#DejaVuSans-77"/>
      <use x="500.001953" xlink:href="#DejaVuSans-6e"/>
      <use x="563.380859" xlink:href="#DejaVuSans-6f"/>
      <use x="624.5625" xlink:href="#DejaVuSans-77"/>
      <use x="706.349609" xlink:href="#DejaVuSans-61"/>
      <use x="767.628906" xlink:href="#DejaVuSans-67"/>
      <use x="831.105469" xlink:href="#DejaVuSans-69"/>
      <use x="858.888672" xlink:href="#DejaVuSans-20"/>
      <use x="890.675781" xlink:href="#DejaVuSans-61"/>
      <use x="951.955078" xlink:href="#DejaVuSans-73"/>
      <use x="1004.054688" xlink:href="#DejaVuSans-79"/>
      <use x="1063.234375" xlink:href="#DejaVuSans-6d"/>
      <use x="1160.646484" xlink:href="#DejaVuSans-70"/>
      <use x="1224.123047" xlink:href="#DejaVuSans-74"/>
      <use x="1263.332031" xlink:href="#DejaVuSans-6f"/>
      <use x="1324.513672" xlink:href="#DejaVuSans-74"/>
      <use x="1363.722656" xlink:href="#DejaVuSans-79"/>
      <use x="1422.902344" xlink:href="#DejaVuSans-63"/>
      <use x="1477.882812" xlink:href="#DejaVuSans-7a"/>
      <use x="1530.373047" xlink:href="#DejaVuSans-6e"/>
      <use x="1593.751953" xlink:href="#DejaVuSans-69"/>
      <use x="1621.535156" xlink:href="#DejaVuSans-65"/>
      <use x="1683.058594" xlink:href="#DejaVuSans-20"/>
      <use x="1714.845703" xlink:href="#DejaVuSans-73"/>
      <use x="1766.945312" xlink:href="#DejaVuSans-74"/>
      <use x="1806.154297" xlink:href="#DejaVuSans-61"/>
      <use x="1867.433594" xlink:href="#DejaVuSans-62"/>
      <use x="1930.910156" xlink:href="#DejaVuSans-69"/>
      <use x="1958.693359" xlink:href="#DejaVuSans-6c"/>
      <use x="1986.476562" xlink:href="#DejaVuSans-6e"/>
      <use x="2049.855469" xlink:href="#DejaVuSans-79"/>
     </g>
    </g>
   </g>
  </g>
 </g>
 <defs>
  <clipPath id="pd8d3834994">
   <rect height="266.112" width="357.12" x="52.160938" y="10.7"/>
  </clipPath>
 </defs>
</svg>
