<?xml version="1.0" encoding="utf-8" standalone="no"?>
<!DOCTYPE svg PUBLIC "-//W3C//DTD SVG 1.1//EN"
  "http://www.w3.org/Graphics/SVG/1.1/DTD/svg11.dtd">
<!-- Created with matplotlib (http://matplotlib.org/) -->
<svg height="314pt" version="1.1" viewBox="0 0 427 314" width="427pt" xmlns="http://www.w3.org/2000/svg" xmlns:xlink="http://www.w3.org/1999/xlink">
 <defs>
  <style type="text/css">
*{stroke-linecap:butt;stroke-linejoin:round;}
  </style>
 </defs>
 <g id="figure_1">
  <g id="patch_1">
   <path d="M 0 314.36825 
L 427.61375 314.36825 
L 427.61375 0 
L 0 0 
z
" style="fill:#ffffff;"/>
  </g>
  <g id="axes_1">
   <g id="patch_2">
    <path d="M 52.160938 276.812 
L 409.280938 276.812 
L 409.280938 10.7 
L 52.160938 10.7 
z
" style="fill:#ffffff;"/>
   </g>
   <g id="patch_3">
    <path clip-path="url(#p8e07659d5d)" d="M 255.66424 77.66747 
L 251.647535 71.752983 
L 253.953787 70.584242 
L 254.122356 70.496448 
L 254.122841 70.49857 
L 256.429093 69.329828 
z
" style="fill:#1f77b4;stroke:#1f77b4;stroke-linejoin:miter;"/>
   </g>
   <g id="patch_4">
    <path clip-path="url(#p8e07659d5d)" d="M 228.0286 199.191828 
L 233.456503 201.510962 
L 231.808859 204.184864 
L 231.688487 204.381421 
L 231.688083 204.380867 
L 230.040439 207.05477 
z
" style="fill:#1f77b4;stroke:#1f77b4;stroke-linejoin:miter;"/>
   </g>
   <g id="patch_5">
    <path clip-path="url(#p8e07659d5d)" d="M 297.143944 42.600164 
L 293.605512 36.042208 
L 295.986091 35.272643 
L 296.159881 35.211342 
L 296.160593 35.216232 
L 298.541173 34.446666 
z
" style="fill:#1f77b4;stroke:#1f77b4;stroke-linejoin:miter;"/>
   </g>
   <g id="patch_6">
    <path clip-path="url(#p8e07659d5d)" d="M 304.315618 154.057991 
L 301.849048 146.488134 
L 304.284825 146.530171 
L 304.463406 146.529035 
L 304.463373 146.533253 
L 306.899149 146.57529 
z
" style="fill:#1f77b4;stroke:#1f77b4;stroke-linejoin:miter;"/>
   </g>
   <g id="patch_7">
    <path clip-path="url(#p8e07659d5d)" d="M 372.711435 44.358924 
L 369.606882 37.329809 
L 372.025741 36.900647 
L 372.202361 36.860573 
L 372.203049 36.869189 
L 374.621908 36.440027 
z
" style="fill:#1f77b4;stroke:#1f77b4;stroke-linejoin:miter;"/>
   </g>
   <g id="patch_8">
    <path clip-path="url(#p8e07659d5d)" d="M 375.427229 196.478197 
L 373.247972 188.714988 
L 375.678378 188.959548 
L 375.85686 188.970243 
L 375.856532 188.977475 
L 378.286939 189.222035 
z
" style="fill:#1f77b4;stroke:#1f77b4;stroke-linejoin:miter;"/>
   </g>
   <g id="patch_9">
    <path clip-path="url(#p8e07659d5d)" d="M 409.703247 64.336456 
L 406.765089 57.150241 
L 409.19252 56.847074 
L 409.369906 56.815065 
L 409.370456 56.824851 
L 411.797887 56.521684 
z
" style="fill:#1f77b4;stroke:#1f77b4;stroke-linejoin:miter;"/>
   </g>
   <g id="patch_10">
    <path clip-path="url(#p8e07659d5d)" d="M 409.439678 117.59397 
L 406.757157 110.189037 
L 409.191896 110.075073 
L 409.370173 110.057468 
L 409.370368 110.066719 
L 411.805108 109.952754 
z
" style="fill:#1f77b4;stroke:#1f77b4;stroke-linejoin:miter;"/>
   </g>
   <g id="patch_11">
    <path clip-path="url(#p8e07659d5d)" d="M 408.549194 188.434754 
L 406.272119 180.734154 
L 408.705187 180.910385 
L 408.883815 180.91478 
L 408.883537 180.923303 
L 411.316605 181.099534 
z
" style="fill:#1f77b4;stroke:#1f77b4;stroke-linejoin:miter;"/>
   </g>
   <g id="patch_12">
    <path clip-path="url(#p8e07659d5d)" d="M 406.324512 230.06136 
L 404.330193 222.188511 
L 406.753306 222.560573 
L 406.931482 222.579806 
L 406.930926 222.587846 
L 409.354039 222.959908 
z
" style="fill:#1f77b4;stroke:#1f77b4;stroke-linejoin:miter;"/>
   </g>
   <g id="patch_13">
    <path clip-path="url(#p8e07659d5d)" d="M 408.427786 217.951993 
L 406.344877 210.130261 
L 408.771847 210.441517 
L 408.950225 210.456105 
L 408.94975 210.464333 
L 411.37672 210.775589 
z
" style="fill:#1f77b4;stroke:#1f77b4;stroke-linejoin:miter;"/>
   </g>
   <g id="patch_14">
    <path clip-path="url(#p8e07659d5d)" d="M 405.226702 258.05241 
L 403.443149 250.068033 
L 405.854474 250.582813 
L 406.031973 250.612819 
L 406.03123 250.620548 
L 408.442555 251.135328 
z
" style="fill:#1f77b4;stroke:#1f77b4;stroke-linejoin:miter;"/>
   </g>
   <g id="patch_15">
    <path clip-path="url(#p8e07659d5d)" d="M 408.460197 273.677296 
L 406.788368 265.639404 
L 409.191994 266.228756 
L 409.369033 266.264277 
L 409.368185 266.271957 
L 411.771812 266.861309 
z
" style="fill:#1f77b4;stroke:#1f77b4;stroke-linejoin:miter;"/>
   </g>
   <g id="patch_16">
    <path clip-path="url(#p8e07659d5d)" d="M 407.552795 281.341904 
L 405.945584 273.274791 
L 408.344309 273.906939 
L 408.52104 273.945702 
L 408.520142 273.953277 
L 410.918867 274.585426 
z
" style="fill:#1f77b4;stroke:#1f77b4;stroke-linejoin:miter;"/>
   </g>
   <g id="patch_17">
    <path clip-path="url(#p8e07659d5d)" d="M 325.774077 283.966164 
L 324.953042 275.640398 
L 327.267059 276.774541 
L 327.437589 276.853568 
L 327.436682 276.857677 
L 329.750699 277.99182 
z
" style="fill:#1f77b4;stroke:#1f77b4;stroke-linejoin:miter;"/>
   </g>
   <g id="patch_18">
    <path clip-path="url(#p8e07659d5d)" d="M 255.688097 279.019934 
L 259.775817 273.214517 
L 260.490252 276.685204 
L 260.543516 276.939205 
L 260.542622 276.939614 
L 261.257057 280.410301 
z
" style="fill:#1f77b4;stroke:#1f77b4;stroke-linejoin:miter;"/>
   </g>
   <g id="patch_19">
    <path clip-path="url(#p8e07659d5d)" d="M 185.183131 195.324587 
L 188.555316 202.074291 
L 186.157165 202.711262 
L 185.98176 202.761173 
L 185.981375 202.757954 
L 183.583224 203.394925 
z
" style="fill:#1f77b4;stroke:#1f77b4;stroke-linejoin:miter;"/>
   </g>
   <g id="patch_20">
    <path clip-path="url(#p8e07659d5d)" d="M 252.240923 146.0942 
L 249.54354 138.701269 
L 251.978039 138.576442 
L 252.156463 138.565976 
L 252.156494 138.567292 
L 254.590993 138.442465 
z
" style="fill:#1f77b4;stroke:#1f77b4;stroke-linejoin:miter;"/>
   </g>
   <g id="patch_21">
    <path clip-path="url(#p8e07659d5d)" d="M 129.471905 235.613024 
L 132.691975 242.525747 
L 130.280964 243.043793 
L 130.104875 243.088424 
L 130.104231 243.081767 
L 127.693221 243.599812 
z
" style="fill:#1f77b4;stroke:#1f77b4;stroke-linejoin:miter;"/>
   </g>
   <g id="patch_22">
    <path clip-path="url(#p8e07659d5d)" d="M 125.204023 128.354034 
L 127.635295 135.949212 
L 125.199773 135.881991 
L 125.021171 135.882889 
L 125.021243 135.877064 
L 122.585721 135.809844 
z
" style="fill:#1f77b4;stroke:#1f77b4;stroke-linejoin:miter;"/>
   </g>
   <g id="patch_23">
    <path clip-path="url(#p8e07659d5d)" d="M 51.579601 258.755642 
L 54.668631 265.799931 
L 52.248838 266.217238 
L 52.072249 266.257972 
L 52.071462 266.247828 
L 49.651669 266.665135 
z
" style="fill:#1f77b4;stroke:#1f77b4;stroke-linejoin:miter;"/>
   </g>
   <g id="patch_24">
    <path clip-path="url(#p8e07659d5d)" d="M 51.876075 194.595442 
L 54.681788 201.898273 
L 52.249716 202.102779 
L 52.071799 202.127268 
L 52.07144 202.117769 
L 49.639368 202.322275 
z
" style="fill:#1f77b4;stroke:#1f77b4;stroke-linejoin:miter;"/>
   </g>
   <g id="patch_25">
    <path clip-path="url(#p8e07659d5d)" d="M 52.124485 147.245723 
L 54.686048 154.745181 
L 52.250172 154.771352 
L 52.07166 154.782294 
L 52.071616 154.773271 
L 49.63574 154.799442 
z
" style="fill:#1f77b4;stroke:#1f77b4;stroke-linejoin:miter;"/>
   </g>
   <g id="patch_26">
    <path clip-path="url(#p8e07659d5d)" d="M 52.692805 93.964584 
L 54.937619 101.686193 
L 52.505336 101.487358 
L 52.326732 101.481261 
L 52.327044 101.472783 
L 49.89476 101.273947 
z
" style="fill:#1f77b4;stroke:#1f77b4;stroke-linejoin:miter;"/>
   </g>
   <g id="patch_27">
    <path clip-path="url(#p8e07659d5d)" d="M 55.087031 52.567289 
L 57.04634 60.459639 
L 54.624933 60.063682 
L 54.44685 60.042651 
L 54.447438 60.034658 
L 52.026031 59.638701 
z
" style="fill:#1f77b4;stroke:#1f77b4;stroke-linejoin:miter;"/>
   </g>
   <g id="patch_28">
    <path clip-path="url(#p8e07659d5d)" d="M 52.729535 49.339105 
L 54.670747 57.241381 
L 52.250262 56.833103 
L 52.072224 56.811213 
L 52.072834 56.803175 
L 49.652348 56.394897 
z
" style="fill:#1f77b4;stroke:#1f77b4;stroke-linejoin:miter;"/>
   </g>
   <g id="patch_29">
    <path clip-path="url(#p8e07659d5d)" d="M 54.893092 25.562442 
L 56.650673 33.559599 
L 54.241049 33.027418 
L 54.063649 32.996142 
L 54.064418 32.988408 
L 51.654794 32.456227 
z
" style="fill:#1f77b4;stroke:#1f77b4;stroke-linejoin:miter;"/>
   </g>
   <g id="patch_30">
    <path clip-path="url(#p8e07659d5d)" d="M 92.84425 3.348228 
L 94.207484 11.514498 
L 91.830156 10.72292 
L 91.654979 10.670988 
L 91.655893 10.664895 
L 89.278565 9.873316 
z
" style="fill:#1f77b4;stroke:#1f77b4;stroke-linejoin:miter;"/>
   </g>
   <g id="patch_31">
    <path clip-path="url(#p8e07659d5d)" d="M 172.0382 4.259483 
L 171.582149 12.647191 
L 169.498481 10.766706 
L 169.344843 10.631078 
L 169.345744 10.628862 
L 167.262076 8.748377 
z
" style="fill:#1f77b4;stroke:#1f77b4;stroke-linejoin:miter;"/>
   </g>
   <g id="patch_32">
    <path clip-path="url(#p8e07659d5d)" d="M 256.52303 81.96509 
L 252.585907 75.932922 
L 254.907274 74.832648 
L 255.07698 74.749861 
L 255.077436 74.751996 
L 257.398803 73.651722 
z
" style="fill:#1f77b4;stroke:#1f77b4;stroke-linejoin:miter;"/>
   </g>
   <g id="patch_33">
    <path clip-path="url(#p8e07659d5d)" d="M 222.865759 186.210722 
L 227.630205 190.727097 
L 225.541675 192.595564 
L 225.388907 192.733335 
L 225.388581 192.732527 
L 223.300052 194.600995 
z
" style="fill:#1f77b4;stroke:#1f77b4;stroke-linejoin:miter;"/>
   </g>
   <g id="patch_34">
    <path clip-path="url(#p8e07659d5d)" d="M 250.550365 56.748349 
L 246.135078 51.502727 
L 248.345053 49.975737 
L 248.506427 49.861802 
L 248.50705 49.863805 
L 250.717025 48.336815 
z
" style="fill:#ff7f0e;stroke:#ff7f0e;stroke-linejoin:miter;"/>
   </g>
   <g id="patch_35">
    <path clip-path="url(#p8e07659d5d)" d="M 228.931482 200.964527 
L 234.44203 202.800432 
L 232.903553 205.615088 
L 232.791193 205.821911 
L 232.790779 205.821409 
L 231.252303 208.636065 
z
" style="fill:#ff7f0e;stroke:#ff7f0e;stroke-linejoin:miter;"/>
   </g>
   <g id="patch_36">
    <path clip-path="url(#p8e07659d5d)" d="M 302.255787 92.234851 
L 299.157306 85.199788 
L 301.576534 84.775266 
L 301.753489 84.739341 
L 301.753869 84.744147 
L 304.173096 84.319625 
z
" style="fill:#ff7f0e;stroke:#ff7f0e;stroke-linejoin:miter;"/>
   </g>
   <g id="patch_37">
    <path clip-path="url(#p8e07659d5d)" d="M 303.243192 177.622729 
L 301.076832 169.851507 
L 303.506825 170.105029 
L 303.685139 170.119558 
L 303.684949 170.123613 
L 306.114941 170.377136 
z
" style="fill:#ff7f0e;stroke:#ff7f0e;stroke-linejoin:miter;"/>
   </g>
   <g id="patch_38">
    <path clip-path="url(#p8e07659d5d)" d="M 375.099941 93.490363 
L 372.285191 86.195259 
L 374.717006 85.984066 
L 374.894906 85.959453 
L 374.895263 85.968585 
L 377.327077 85.757393 
z
" style="fill:#ff7f0e;stroke:#ff7f0e;stroke-linejoin:miter;"/>
   </g>
   <g id="patch_39">
    <path clip-path="url(#p8e07659d5d)" d="M 375.484606 181.267729 
L 373.169217 173.592547 
L 375.603096 173.741841 
L 375.781734 173.74449 
L 375.781505 173.752784 
L 378.215384 173.902078 
z
" style="fill:#ff7f0e;stroke:#ff7f0e;stroke-linejoin:miter;"/>
   </g>
   <g id="patch_40">
    <path clip-path="url(#p8e07659d5d)" d="M 409.637887 64.345668 
L 406.762558 57.103229 
L 409.192425 56.847039 
L 409.369995 56.816787 
L 409.37054 56.82826 
L 411.800406 56.57207 
z
" style="fill:#ff7f0e;stroke:#ff7f0e;stroke-linejoin:miter;"/>
   </g>
   <g id="patch_41">
    <path clip-path="url(#p8e07659d5d)" d="M 409.411414 117.596856 
L 406.756747 110.169662 
L 409.191877 110.07601 
L 409.370188 110.058212 
L 409.370377 110.069145 
L 411.805506 109.975492 
z
" style="fill:#ff7f0e;stroke:#ff7f0e;stroke-linejoin:miter;"/>
   </g>
   <g id="patch_42">
    <path clip-path="url(#p8e07659d5d)" d="M 409.04154 172.794758 
L 406.647172 165.173586 
L 409.082305 165.267044 
L 409.260985 165.263528 
L 409.260806 165.273894 
L 411.695938 165.367351 
z
" style="fill:#ff7f0e;stroke:#ff7f0e;stroke-linejoin:miter;"/>
   </g>
   <g id="patch_43">
    <path clip-path="url(#p8e07659d5d)" d="M 405.983375 242.787968 
L 403.980527 234.91993 
L 406.40404 235.286159 
L 406.582335 235.303508 
L 406.581689 235.313004 
L 409.005202 235.679233 
z
" style="fill:#ff7f0e;stroke:#ff7f0e;stroke-linejoin:miter;"/>
   </g>
   <g id="patch_44">
    <path clip-path="url(#p8e07659d5d)" d="M 408.481134 219.634021 
L 406.336868 211.8492 
L 408.766118 212.118051 
L 408.94468 212.127887 
L 408.944188 212.137759 
L 411.373439 212.40661 
z
" style="fill:#ff7f0e;stroke:#ff7f0e;stroke-linejoin:miter;"/>
   </g>
   <g id="patch_45">
    <path clip-path="url(#p8e07659d5d)" d="M 406.640475 248.835283 
L 404.672117 240.947936 
L 407.093975 241.337724 
L 407.27219 241.356821 
L 407.271503 241.366297 
L 409.693361 241.756085 
z
" style="fill:#ff7f0e;stroke:#ff7f0e;stroke-linejoin:miter;"/>
   </g>
   <g id="patch_46">
    <path clip-path="url(#p8e07659d5d)" d="M 408.59916 273.710084 
L 406.777921 265.744626 
L 409.191619 266.234085 
L 409.369402 266.260616 
L 409.368549 266.269963 
L 411.782247 266.759422 
z
" style="fill:#ff7f0e;stroke:#ff7f0e;stroke-linejoin:miter;"/>
   </g>
   <g id="patch_47">
    <path clip-path="url(#p8e07659d5d)" d="M 407.685872 283.044614 
L 405.928693 275.04726 
L 408.33829 275.579711 
L 408.515835 275.609539 
L 408.51492 275.618741 
L 410.924517 276.151191 
z
" style="fill:#ff7f0e;stroke:#ff7f0e;stroke-linejoin:miter;"/>
   </g>
   <g id="patch_48">
    <path clip-path="url(#p8e07659d5d)" d="M 325.861865 284.008145 
L 324.939048 275.706087 
L 327.266563 276.777126 
L 327.438083 276.851255 
L 327.437176 276.855636 
L 329.764691 277.926674 
z
" style="fill:#ff7f0e;stroke:#ff7f0e;stroke-linejoin:miter;"/>
   </g>
   <g id="patch_49">
    <path clip-path="url(#p8e07659d5d)" d="M 255.696095 279.058425 
L 259.762906 273.220484 
L 260.489796 276.685423 
L 260.543973 276.938994 
L 260.543079 276.939411 
L 261.269968 280.404349 
z
" style="fill:#ff7f0e;stroke:#ff7f0e;stroke-linejoin:miter;"/>
   </g>
   <g id="patch_50">
    <path clip-path="url(#p8e07659d5d)" d="M 182.702729 159.952327 
L 185.585514 167.188181 
L 183.155914 167.449928 
L 182.977967 167.472182 
L 182.977819 167.469115 
L 180.548219 167.730863 
z
" style="fill:#ff7f0e;stroke:#ff7f0e;stroke-linejoin:miter;"/>
   </g>
   <g id="patch_51">
    <path clip-path="url(#p8e07659d5d)" d="M 249.36506 108.624891 
L 245.546376 102.425915 
L 247.888081 101.425932 
L 248.059454 101.351178 
L 248.059733 101.352631 
L 250.401439 100.352649 
z
" style="fill:#ff7f0e;stroke:#ff7f0e;stroke-linejoin:miter;"/>
   </g>
   <g id="patch_52">
    <path clip-path="url(#p8e07659d5d)" d="M 127.915485 213.380284 
L 130.966537 220.461238 
L 128.544578 220.849633 
L 128.367538 220.884951 
L 128.367043 220.878103 
L 125.945085 221.266498 
z
" style="fill:#ff7f0e;stroke:#ff7f0e;stroke-linejoin:miter;"/>
   </g>
   <g id="patch_53">
    <path clip-path="url(#p8e07659d5d)" d="M 126.110568 109.816539 
L 128.383542 117.519829 
L 125.950569 117.340722 
L 125.772029 117.333544 
L 125.772226 117.327593 
L 123.339253 117.148485 
z
" style="fill:#ff7f0e;stroke:#ff7f0e;stroke-linejoin:miter;"/>
   </g>
   <g id="patch_54">
    <path clip-path="url(#p8e07659d5d)" d="M 51.665201 258.740292 
L 54.673219 265.862023 
L 52.249006 266.217803 
L 52.072087 266.255716 
L 52.071305 266.243883 
L 49.647092 266.599664 
z
" style="fill:#ff7f0e;stroke:#ff7f0e;stroke-linejoin:miter;"/>
   </g>
   <g id="patch_55">
    <path clip-path="url(#p8e07659d5d)" d="M 51.922614 194.590166 
L 54.682999 201.931264 
L 52.249764 202.102321 
L 52.071757 202.126042 
L 52.071403 202.114859 
L 49.638169 202.285915 
z
" style="fill:#ff7f0e;stroke:#ff7f0e;stroke-linejoin:miter;"/>
   </g>
   <g id="patch_56">
    <path clip-path="url(#p8e07659d5d)" d="M 52.134176 147.243953 
L 54.686084 154.750718 
L 52.250178 154.769928 
L 52.071659 154.782039 
L 52.071621 154.771336 
L 49.635715 154.790546 
z
" style="fill:#ff7f0e;stroke:#ff7f0e;stroke-linejoin:miter;"/>
   </g>
   <g id="patch_57">
    <path clip-path="url(#p8e07659d5d)" d="M 52.665931 92.284856 
L 54.944109 99.984731 
L 52.511016 99.809275 
L 52.332335 99.806542 
L 52.332664 99.796413 
L 49.899571 99.620957 
z
" style="fill:#ff7f0e;stroke:#ff7f0e;stroke-linejoin:miter;"/>
   </g>
   <g id="patch_58">
    <path clip-path="url(#p8e07659d5d)" d="M 55.253061 42.92043 
L 57.245674 50.794238 
L 54.822642 50.42101 
L 54.64437 50.403143 
L 54.645028 50.393652 
L 52.221996 50.020424 
z
" style="fill:#ff7f0e;stroke:#ff7f0e;stroke-linejoin:miter;"/>
   </g>
   <g id="patch_59">
    <path clip-path="url(#p8e07659d5d)" d="M 53.30978 39.62343 
L 55.288802 47.504848 
L 52.866422 47.122336 
L 52.688175 47.103871 
L 52.688856 47.094297 
L 50.266476 46.711786 
z
" style="fill:#ff7f0e;stroke:#ff7f0e;stroke-linejoin:miter;"/>
   </g>
   <g id="patch_60">
    <path clip-path="url(#p8e07659d5d)" d="M 54.851004 20.634732 
L 56.707132 28.582284 
L 54.291339 28.116342 
L 54.113448 28.091484 
L 54.114256 28.082188 
L 51.698463 27.616246 
z
" style="fill:#ff7f0e;stroke:#ff7f0e;stroke-linejoin:miter;"/>
   </g>
   <g id="patch_61">
    <path clip-path="url(#p8e07659d5d)" d="M 92.724351 3.309775 
L 94.220119 11.424352 
L 91.830605 10.718961 
L 91.654533 10.674147 
L 91.655449 10.667254 
L 89.265935 9.961863 
z
" style="fill:#ff7f0e;stroke:#ff7f0e;stroke-linejoin:miter;"/>
   </g>
   <g id="patch_62">
    <path clip-path="url(#p8e07659d5d)" d="M 171.979801 4.207506 
L 171.599564 12.603605 
L 169.499097 10.765098 
L 169.344228 10.632617 
L 169.345128 10.630331 
L 167.244662 8.791825 
z
" style="fill:#ff7f0e;stroke:#ff7f0e;stroke-linejoin:miter;"/>
   </g>
   <g id="patch_63">
    <path clip-path="url(#p8e07659d5d)" d="M 262.429709 135.425584 
L 259.541443 128.194587 
L 261.970844 127.92875 
L 262.148825 127.907244 
L 262.148924 127.909264 
L 264.578324 127.643427 
z
" style="fill:#ff7f0e;stroke:#ff7f0e;stroke-linejoin:miter;"/>
   </g>
   <g id="patch_64">
    <path clip-path="url(#p8e07659d5d)" d="M 234.881858 209.260095 
L 240.3431 207.121852 
L 239.843079 210.674882 
L 239.806876 210.935468 
L 239.806426 210.935328 
L 239.306405 214.488358 
z
" style="fill:#ff7f0e;stroke:#ff7f0e;stroke-linejoin:miter;"/>
   </g>
   <g id="matplotlib.axis_1">
    <g id="xtick_1">
     <g id="line2d_1">
      <defs>
       <path d="M 0 0 
L 0 3.5 
" id="mf937f27948" style="stroke:#000000;stroke-width:0.8;"/>
      </defs>
      <g>
       <use style="stroke:#000000;stroke-width:0.8;" x="52.160938" xlink:href="#mf937f27948" y="276.812"/>
      </g>
     </g>
     <g id="text_1">
      <!-- −1.00 -->
      <defs>
       <path d="M 10.59375 35.5 
L 73.1875 35.5 
L 73.1875 27.203125 
L 10.59375 27.203125 
z
" id="DejaVuSans-2212"/>
       <path d="M 12.40625 8.296875 
L 28.515625 8.296875 
L 28.515625 63.921875 
L 10.984375 60.40625 
L 10.984375 69.390625 
L 28.421875 72.90625 
L 38.28125 72.90625 
L 38.28125 8.296875 
L 54.390625 8.296875 
L 54.390625 0 
L 12.40625 0 
z
" id="DejaVuSans-31"/>
       <path d="M 10.6875 12.40625 
L 21 12.40625 
L 21 0 
L 10.6875 0 
z
" id="DejaVuSans-2e"/>
       <path d="M 31.78125 66.40625 
Q 24.171875 66.40625 20.328125 58.90625 
Q 16.5 51.421875 16.5 36.375 
Q 16.5 21.390625 20.328125 13.890625 
Q 24.171875 6.390625 31.78125 6.390625 
Q 39.453125 6.390625 43.28125 13.890625 
Q 47.125 21.390625 47.125 36.375 
Q 47.125 51.421875 43.28125 58.90625 
Q 39.453125 66.40625 31.78125 66.40625 
M 31.78125 74.21875 
Q 44.046875 74.21875 50.515625 64.515625 
Q 56.984375 54.828125 56.984375 36.375 
Q 56.984375 17.96875 50.515625 8.265625 
Q 44.046875 -1.421875 31.78125 -1.421875 
Q 19.53125 -1.421875 13.0625 8.265625 
Q 6.59375 17.96875 6.59375 36.375 
Q 6.59375 54.828125 13.0625 64.515625 
Q 19.53125 74.21875 31.78125 74.21875 
" id="DejaVuSans-30"/>
      </defs>
      <g transform="translate(36.838281 291.410438)scale(0.1 -0.1)">
       <use xlink:href="#DejaVuSans-2212"/>
       <use x="83.789062" xlink:href="#DejaVuSans-31"/>
       <use x="147.412109" xlink:href="#DejaVuSans-2e"/>
       <use x="179.199219" xlink:href="#DejaVuSans-30"/>
       <use x="242.822266" xlink:href="#DejaVuSans-30"/>
      </g>
     </g>
    </g>
    <g id="xtick_2">
     <g id="line2d_2">
      <g>
       <use style="stroke:#000000;stroke-width:0.8;" x="96.800938" xlink:href="#mf937f27948" y="276.812"/>
      </g>
     </g>
     <g id="text_2">
      <!-- −0.75 -->
      <defs>
       <path d="M 8.203125 72.90625 
L 55.078125 72.90625 
L 55.078125 68.703125 
L 28.609375 0 
L 18.3125 0 
L 43.21875 64.59375 
L 8.203125 64.59375 
z
" id="DejaVuSans-37"/>
       <path d="M 10.796875 72.90625 
L 49.515625 72.90625 
L 49.515625 64.59375 
L 19.828125 64.59375 
L 19.828125 46.734375 
Q 21.96875 47.46875 24.109375 47.828125 
Q 26.265625 48.1875 28.421875 48.1875 
Q 40.625 48.1875 47.75 41.5 
Q 54.890625 34.8125 54.890625 23.390625 
Q 54.890625 11.625 47.5625 5.09375 
Q 40.234375 -1.421875 26.90625 -1.421875 
Q 22.3125 -1.421875 17.546875 -0.640625 
Q 12.796875 0.140625 7.71875 1.703125 
L 7.71875 11.625 
Q 12.109375 9.234375 16.796875 8.0625 
Q 21.484375 6.890625 26.703125 6.890625 
Q 35.15625 6.890625 40.078125 11.328125 
Q 45.015625 15.765625 45.015625 23.390625 
Q 45.015625 31 40.078125 35.4375 
Q 35.15625 39.890625 26.703125 39.890625 
Q 22.75 39.890625 18.8125 39.015625 
Q 14.890625 38.140625 10.796875 36.28125 
z
" id="DejaVuSans-35"/>
      </defs>
      <g transform="translate(81.478281 291.410438)scale(0.1 -0.1)">
       <use xlink:href="#DejaVuSans-2212"/>
       <use x="83.789062" xlink:href="#DejaVuSans-30"/>
       <use x="147.412109" xlink:href="#DejaVuSans-2e"/>
       <use x="179.199219" xlink:href="#DejaVuSans-37"/>
       <use x="242.822266" xlink:href="#DejaVuSans-35"/>
      </g>
     </g>
    </g>
    <g id="xtick_3">
     <g id="line2d_3">
      <g>
       <use style="stroke:#000000;stroke-width:0.8;" x="141.440938" xlink:href="#mf937f27948" y="276.812"/>
      </g>
     </g>
     <g id="text_3">
      <!-- −0.50 -->
      <g transform="translate(126.118281 291.410438)scale(0.1 -0.1)">
       <use xlink:href="#DejaVuSans-2212"/>
       <use x="83.789062" xlink:href="#DejaVuSans-30"/>
       <use x="147.412109" xlink:href="#DejaVuSans-2e"/>
       <use x="179.199219" xlink:href="#DejaVuSans-35"/>
       <use x="242.822266" xlink:href="#DejaVuSans-30"/>
      </g>
     </g>
    </g>
    <g id="xtick_4">
     <g id="line2d_4">
      <g>
       <use style="stroke:#000000;stroke-width:0.8;" x="186.080938" xlink:href="#mf937f27948" y="276.812"/>
      </g>
     </g>
     <g id="text_4">
      <!-- −0.25 -->
      <defs>
       <path d="M 19.1875 8.296875 
L 53.609375 8.296875 
L 53.609375 0 
L 7.328125 0 
L 7.328125 8.296875 
Q 12.9375 14.109375 22.625 23.890625 
Q 32.328125 33.6875 34.8125 36.53125 
Q 39.546875 41.84375 41.421875 45.53125 
Q 43.3125 49.21875 43.3125 52.78125 
Q 43.3125 58.59375 39.234375 62.25 
Q 35.15625 65.921875 28.609375 65.921875 
Q 23.96875 65.921875 18.8125 64.3125 
Q 13.671875 62.703125 7.8125 59.421875 
L 7.8125 69.390625 
Q 13.765625 71.78125 18.9375 73 
Q 24.125 74.21875 28.421875 74.21875 
Q 39.75 74.21875 46.484375 68.546875 
Q 53.21875 62.890625 53.21875 53.421875 
Q 53.21875 48.921875 51.53125 44.890625 
Q 49.859375 40.875 45.40625 35.40625 
Q 44.1875 33.984375 37.640625 27.21875 
Q 31.109375 20.453125 19.1875 8.296875 
" id="DejaVuSans-32"/>
      </defs>
      <g transform="translate(170.758281 291.410438)scale(0.1 -0.1)">
       <use xlink:href="#DejaVuSans-2212"/>
       <use x="83.789062" xlink:href="#DejaVuSans-30"/>
       <use x="147.412109" xlink:href="#DejaVuSans-2e"/>
       <use x="179.199219" xlink:href="#DejaVuSans-32"/>
       <use x="242.822266" xlink:href="#DejaVuSans-35"/>
      </g>
     </g>
    </g>
    <g id="xtick_5">
     <g id="line2d_5">
      <g>
       <use style="stroke:#000000;stroke-width:0.8;" x="230.720938" xlink:href="#mf937f27948" y="276.812"/>
      </g>
     </g>
     <g id="text_5">
      <!-- 0.00 -->
      <g transform="translate(219.588125 291.410438)scale(0.1 -0.1)">
       <use xlink:href="#DejaVuSans-30"/>
       <use x="63.623047" xlink:href="#DejaVuSans-2e"/>
       <use x="95.410156" xlink:href="#DejaVuSans-30"/>
       <use x="159.033203" xlink:href="#DejaVuSans-30"/>
      </g>
     </g>
    </g>
    <g id="xtick_6">
     <g id="line2d_6">
      <g>
       <use style="stroke:#000000;stroke-width:0.8;" x="275.360938" xlink:href="#mf937f27948" y="276.812"/>
      </g>
     </g>
     <g id="text_6">
      <!-- 0.25 -->
      <g transform="translate(264.228125 291.410438)scale(0.1 -0.1)">
       <use xlink:href="#DejaVuSans-30"/>
       <use x="63.623047" xlink:href="#DejaVuSans-2e"/>
       <use x="95.410156" xlink:href="#DejaVuSans-32"/>
       <use x="159.033203" xlink:href="#DejaVuSans-35"/>
      </g>
     </g>
    </g>
    <g id="xtick_7">
     <g id="line2d_7">
      <g>
       <use style="stroke:#000000;stroke-width:0.8;" x="320.000938" xlink:href="#mf937f27948" y="276.812"/>
      </g>
     </g>
     <g id="text_7">
      <!-- 0.50 -->
      <g transform="translate(308.868125 291.410438)scale(0.1 -0.1)">
       <use xlink:href="#DejaVuSans-30"/>
       <use x="63.623047" xlink:href="#DejaVuSans-2e"/>
       <use x="95.410156" xlink:href="#DejaVuSans-35"/>
       <use x="159.033203" xlink:href="#DejaVuSans-30"/>
      </g>
     </g>
    </g>
    <g id="xtick_8">
     <g id="line2d_8">
      <g>
       <use style="stroke:#000000;stroke-width:0.8;" x="364.640938" xlink:href="#mf937f27948" y="276.812"/>
      </g>
     </g>
     <g id="text_8">
      <!-- 0.75 -->
      <g transform="translate(353.508125 291.410438)scale(0.1 -0.1)">
       <use xlink:href="#DejaVuSans-30"/>
       <use x="63.623047" xlink:href="#DejaVuSans-2e"/>
       <use x="95.410156" xlink:href="#DejaVuSans-37"/>
       <use x="159.033203" xlink:href="#DejaVuSans-35"/>
      </g>
     </g>
    </g>
    <g id="xtick_9">
     <g id="line2d_9">
      <g>
       <use style="stroke:#000000;stroke-width:0.8;" x="409.280938" xlink:href="#mf937f27948" y="276.812"/>
      </g>
     </g>
     <g id="text_9">
      <!-- 1.00 -->
      <g transform="translate(398.148125 291.410438)scale(0.1 -0.1)">
       <use xlink:href="#DejaVuSans-31"/>
       <use x="63.623047" xlink:href="#DejaVuSans-2e"/>
       <use x="95.410156" xlink:href="#DejaVuSans-30"/>
       <use x="159.033203" xlink:href="#DejaVuSans-30"/>
      </g>
     </g>
    </g>
    <g id="text_10">
     <!-- x1 -->
     <defs>
      <path d="M 54.890625 54.6875 
L 35.109375 28.078125 
L 55.90625 0 
L 45.3125 0 
L 29.390625 21.484375 
L 13.484375 0 
L 2.875 0 
L 24.125 28.609375 
L 4.6875 54.6875 
L 15.28125 54.6875 
L 29.78125 35.203125 
L 44.28125 54.6875 
z
" id="DejaVuSans-78"/>
     </defs>
     <g transform="translate(224.580313 305.088562)scale(0.1 -0.1)">
      <use xlink:href="#DejaVuSans-78"/>
      <use x="59.179688" xlink:href="#DejaVuSans-31"/>
     </g>
    </g>
   </g>
   <g id="matplotlib.axis_2">
    <g id="ytick_1">
     <g id="line2d_10">
      <defs>
       <path d="M 0 0 
L -3.5 0 
" id="mefb9f92f8b" style="stroke:#000000;stroke-width:0.8;"/>
      </defs>
      <g>
       <use style="stroke:#000000;stroke-width:0.8;" x="52.160938" xlink:href="#mefb9f92f8b" y="250.2008"/>
      </g>
     </g>
     <g id="text_11">
      <!-- −0.4 -->
      <defs>
       <path d="M 37.796875 64.3125 
L 12.890625 25.390625 
L 37.796875 25.390625 
z
M 35.203125 72.90625 
L 47.609375 72.90625 
L 47.609375 25.390625 
L 58.015625 25.390625 
L 58.015625 17.1875 
L 47.609375 17.1875 
L 47.609375 0 
L 37.796875 0 
L 37.796875 17.1875 
L 4.890625 17.1875 
L 4.890625 26.703125 
z
" id="DejaVuSans-34"/>
      </defs>
      <g transform="translate(20.878125 254.000019)scale(0.1 -0.1)">
       <use xlink:href="#DejaVuSans-2212"/>
       <use x="83.789062" xlink:href="#DejaVuSans-30"/>
       <use x="147.412109" xlink:href="#DejaVuSans-2e"/>
       <use x="179.199219" xlink:href="#DejaVuSans-34"/>
      </g>
     </g>
    </g>
    <g id="ytick_2">
     <g id="line2d_11">
      <g>
       <use style="stroke:#000000;stroke-width:0.8;" x="52.160938" xlink:href="#mefb9f92f8b" y="196.9784"/>
      </g>
     </g>
     <g id="text_12">
      <!-- −0.2 -->
      <g transform="translate(20.878125 200.777619)scale(0.1 -0.1)">
       <use xlink:href="#DejaVuSans-2212"/>
       <use x="83.789062" xlink:href="#DejaVuSans-30"/>
       <use x="147.412109" xlink:href="#DejaVuSans-2e"/>
       <use x="179.199219" xlink:href="#DejaVuSans-32"/>
      </g>
     </g>
    </g>
    <g id="ytick_3">
     <g id="line2d_12">
      <g>
       <use style="stroke:#000000;stroke-width:0.8;" x="52.160938" xlink:href="#mefb9f92f8b" y="143.756"/>
      </g>
     </g>
     <g id="text_13">
      <!-- 0.0 -->
      <g transform="translate(29.257812 147.555219)scale(0.1 -0.1)">
       <use xlink:href="#DejaVuSans-30"/>
       <use x="63.623047" xlink:href="#DejaVuSans-2e"/>
       <use x="95.410156" xlink:href="#DejaVuSans-30"/>
      </g>
     </g>
    </g>
    <g id="ytick_4">
     <g id="line2d_13">
      <g>
       <use style="stroke:#000000;stroke-width:0.8;" x="52.160938" xlink:href="#mefb9f92f8b" y="90.5336"/>
      </g>
     </g>
     <g id="text_14">
      <!-- 0.2 -->
      <g transform="translate(29.257812 94.332819)scale(0.1 -0.1)">
       <use xlink:href="#DejaVuSans-30"/>
       <use x="63.623047" xlink:href="#DejaVuSans-2e"/>
       <use x="95.410156" xlink:href="#DejaVuSans-32"/>
      </g>
     </g>
    </g>
    <g id="ytick_5">
     <g id="line2d_14">
      <g>
       <use style="stroke:#000000;stroke-width:0.8;" x="52.160938" xlink:href="#mefb9f92f8b" y="37.3112"/>
      </g>
     </g>
     <g id="text_15">
      <!-- 0.4 -->
      <g transform="translate(29.257812 41.110419)scale(0.1 -0.1)">
       <use xlink:href="#DejaVuSans-30"/>
       <use x="63.623047" xlink:href="#DejaVuSans-2e"/>
       <use x="95.410156" xlink:href="#DejaVuSans-34"/>
      </g>
     </g>
    </g>
    <g id="text_16">
     <!-- x2 -->
     <g transform="translate(14.798438 149.896625)rotate(-90)scale(0.1 -0.1)">
      <use xlink:href="#DejaVuSans-78"/>
      <use x="59.179688" xlink:href="#DejaVuSans-32"/>
     </g>
    </g>
   </g>
   <g id="line2d_15">
    <path clip-path="url(#p8e07659d5d)" d="M 230.720938 10.7 
L 233.357979 14.867086 
L 235.907742 19.367927 
L 238.363758 24.176576 
L 240.720094 29.266687 
L 242.971356 34.611653 
L 245.112685 40.184722 
L 247.13976 45.959102 
L 249.658333 53.925303 
L 251.959629 62.139249 
L 254.03783 70.539284 
L 255.88875 79.065161 
L 257.509798 87.658387 
L 258.89993 96.262502 
L 260.059588 104.823345 
L 260.990644 113.289295 
L 261.696305 121.61156 
L 262.181044 129.744275 
L 262.450529 137.644617 
L 262.511534 145.272912 
L 262.371858 152.592739 
L 262.040234 159.571001 
L 261.526235 166.177988 
L 260.840187 172.387398 
L 259.993074 178.176347 
L 258.996451 183.525367 
L 257.862347 188.418392 
L 256.603181 192.842728 
L 255.231665 196.789012 
L 253.760718 200.251144 
L 252.203382 203.226218 
L 250.986555 205.137895 
L 249.733993 206.776845 
L 248.451167 208.145183 
L 247.143497 209.245913 
L 245.816331 210.082901 
L 244.474932 210.660831 
L 243.124462 210.985176 
L 241.769963 211.062152 
L 240.416348 210.898677 
L 239.068381 210.502335 
L 237.730667 209.881318 
L 236.407644 209.044392 
L 235.103563 208.000845 
L 233.401247 206.304961 
L 231.748875 204.283419 
L 230.154846 201.961626 
L 228.626869 199.365907 
L 226.820366 195.777292 
L 225.139983 191.856823 
L 223.595937 187.659002 
L 222.196613 183.238374 
L 220.948579 178.648985 
L 219.657236 172.993518 
L 218.595443 167.260029 
L 217.764621 161.533075 
L 217.16289 155.892118 
L 216.785286 150.410733 
L 216.624014 145.15594 
L 216.668718 140.187677 
L 216.906781 135.5584 
L 217.323632 131.312818 
L 217.903055 127.487716 
L 218.627514 124.111906 
L 219.478475 121.206292 
L 220.436713 118.784048 
L 221.303059 117.139086 
L 222.218895 115.833392 
L 223.172893 114.863201 
L 224.153904 114.221668 
L 224.950845 113.938628 
L 225.752711 113.853548 
L 226.554281 113.959232 
L 227.548217 114.347135 
L 228.524597 115.002688 
L 229.474767 115.906469 
L 230.569183 117.289159 
L 231.601984 118.960798 
L 232.714686 121.222585 
L 233.714484 123.757289 
L 234.704556 126.903138 
L 235.520715 130.220758 
L 236.22292 134.040727 
L 236.694697 137.831988 
L 236.941307 141.479897 
L 236.965738 145.243517 
L 236.750975 148.592584 
L 236.378609 151.179384 
L 235.863493 153.314255 
L 235.233825 154.970135 
L 234.601639 156.031507 
L 234.009502 156.645761 
L 233.395251 156.974927 
L 232.771989 157.032046 
L 232.152102 156.83442 
L 231.547076 156.402999 
L 230.88714 155.654505 
L 230.201078 154.534152 
L 229.52746 153.014488 
L 228.864568 150.92568 
L 228.344468 148.496745 
L 228.022683 145.882521 
L 227.939046 143.455282 
L 228.085 141.233926 
L 228.401239 139.62685 
L 228.809897 138.590743 
L 229.250714 138.035656 
L 229.641903 137.858228 
L 230.036802 137.921432 
L 230.457228 138.238515 
L 230.91197 138.891753 
L 231.351694 139.922249 
L 231.728242 141.378031 
L 231.93993 143.112589 
L 231.914399 144.681849 
L 231.689829 145.782893 
L 231.395158 146.280247 
L 231.116502 146.375949 
L 230.858469 146.22863 
L 230.56901 145.783712 
L 230.297568 144.932662 
L 230.171621 143.810017 
L 230.271496 142.911941 
L 230.480902 142.598096 
L 230.658123 142.655631 
L 230.843111 142.992155 
L 230.963975 143.683521 
L 230.87198 144.234814 
L 230.759554 144.254486 
L 230.736646 144.231643 
L 230.625836 143.925528 
L 230.677449 143.526328 
L 230.751244 143.625039 
L 230.741104 143.857859 
L 230.720938 143.756 
" style="fill:none;stroke:#1f77b4;stroke-linecap:square;stroke-width:0.5;"/>
   </g>
   <g id="line2d_16">
    <path clip-path="url(#p8e07659d5d)" d="M 292.020663 10.7 
L 292.896851 15.613597 
L 293.740197 20.526188 
L 294.550591 25.43597 
L 295.328055 30.341047 
L 296.07263 35.239547 
L 296.784368 40.129647 
L 297.463326 45.009536 
L 298.109579 49.877452 
L 298.723213 54.731663 
L 299.304327 59.570472 
L 299.853029 64.392196 
L 300.36944 69.195196 
L 300.853704 73.977889 
L 301.305946 78.738645 
L 301.726316 83.475895 
L 302.114977 88.188118 
L 302.472101 92.873809 
L 302.797876 97.531508 
L 303.092492 102.159774 
L 303.356157 106.757204 
L 303.58908 111.322414 
L 303.791484 115.85405 
L 303.963598 120.350786 
L 304.10566 124.811321 
L 304.217918 129.234385 
L 304.300626 133.618736 
L 304.354048 137.963158 
L 304.378457 142.266464 
L 304.374131 146.527494 
L 304.34136 150.745116 
L 304.280437 154.918223 
L 304.191665 159.045737 
L 304.075353 163.126603 
L 303.931818 167.159796 
L 303.761383 171.144315 
L 303.564378 175.079186 
L 303.341138 178.963461 
L 303.092009 182.796217 
L 302.817336 186.576558 
L 302.517476 190.303611 
L 302.19279 193.976531 
L 301.843643 197.594498 
L 301.470405 201.156715 
L 301.073456 204.662412 
L 300.653175 208.110845 
L 300.20995 211.501291 
L 299.744172 214.833056 
L 299.256237 218.105467 
L 298.746545 221.317879 
L 298.215501 224.469674 
L 297.663515 227.560251 
L 297.090997 230.589039 
L 296.498365 233.555487 
L 295.886039 236.459081 
L 295.254442 239.299317 
L 294.604002 242.075723 
L 293.935147 244.787848 
L 293.24831 247.43527 
L 292.543927 250.017591 
L 291.822437 252.534435 
L 291.084279 254.985452 
L 290.329897 257.370316 
L 289.559734 259.68873 
L 288.774239 261.940416 
L 287.97386 264.125125 
L 287.159047 266.24263 
L 286.330252 268.292731 
L 285.487926 270.275252 
L 284.632526 272.190042 
L 283.764505 274.036976 
L 282.884319 275.815951 
L 281.992424 277.526892 
" style="fill:none;stroke:#1f77b4;stroke-linecap:square;stroke-width:0.5;"/>
   </g>
   <g id="line2d_17">
    <path clip-path="url(#p8e07659d5d)" d="M 369.699764 10.7 
L 370.562876 19.478319 
L 371.36748 28.204473 
L 372.113707 36.876303 
L 372.80193 45.491774 
L 373.432539 54.048907 
L 374.005934 62.545806 
L 374.522524 70.980622 
L 374.98273 79.351569 
L 375.386986 87.656933 
L 375.735738 95.895052 
L 376.029444 104.064306 
L 376.268568 112.16312 
L 376.45359 120.189969 
L 376.584997 128.143377 
L 376.663289 136.021904 
L 376.688967 143.824126 
L 376.662551 151.548688 
L 376.584568 159.19427 
L 376.455553 166.759577 
L 376.27605 174.243339 
L 376.046607 181.64431 
L 375.767783 188.961279 
L 375.440147 196.193065 
L 375.064275 203.338509 
L 374.640749 210.396471 
L 374.170161 217.365839 
L 373.653109 224.245516 
L 373.090198 231.03443 
L 372.48204 237.731518 
L 371.829255 244.335735 
L 371.132471 250.84607 
L 370.392321 257.261516 
L 369.609441 263.58106 
L 368.784483 269.803751 
L 367.918101 275.928636 
L 367.01095 281.954735 
" style="fill:none;stroke:#1f77b4;stroke-linecap:square;stroke-width:0.5;"/>
   </g>
   <g id="line2d_18">
    <path clip-path="url(#p8e07659d5d)" d="M 409.280938 56.826177 
L 409.831221 66.612338 
" style="fill:none;stroke:#1f77b4;stroke-linecap:square;stroke-width:0.5;"/>
   </g>
   <g id="line2d_19">
    <path clip-path="url(#p8e07659d5d)" d="M 409.280938 110.061645 
L 409.475895 119.312504 
" style="fill:none;stroke:#1f77b4;stroke-linecap:square;stroke-width:0.5;"/>
   </g>
   <g id="line2d_20">
    <path clip-path="url(#p8e07659d5d)" d="M 409.280938 154.781334 
L 409.177371 163.582474 
L 409.015075 172.291794 
L 408.79464 180.908321 
L 408.516702 189.431092 
L 408.181896 197.859175 
L 407.790858 206.19165 
L 407.344233 214.427614 
L 406.842672 222.566169 
L 406.28683 230.606432 
L 405.677369 238.547527 
L 405.014959 246.388567 
L 404.300272 254.128679 
L 403.53399 261.767012 
L 402.716801 269.302722 
L 401.849391 276.734856 
L 400.932461 284.062596 
" style="fill:none;stroke:#1f77b4;stroke-linecap:square;stroke-width:0.5;"/>
   </g>
   <g id="line2d_21">
    <path clip-path="url(#p8e07659d5d)" d="M 409.280938 202.119773 
L 408.861273 210.444697 
L 408.386184 218.672462 
L 407.856236 226.802101 
L 407.272036 234.832815 
L 406.634259 242.763726 
L 405.943595 250.593952 
L 405.200728 258.322636 
L 404.406347 265.94891 
L 403.561145 273.471912 
L 402.665815 280.890782 
" style="fill:none;stroke:#1f77b4;stroke-linecap:square;stroke-width:0.5;"/>
   </g>
   <g id="line2d_22">
    <path clip-path="url(#p8e07659d5d)" d="M 409.280938 266.242677 
L 408.433124 273.922533 
L 407.534276 281.497981 
" style="fill:none;stroke:#1f77b4;stroke-linecap:square;stroke-width:0.5;"/>
   </g>
   <g id="line2d_23">
    <path clip-path="url(#p8e07659d5d)" d="M 327.352777 276.812 
L 326.446072 280.920897 
" style="fill:none;stroke:#1f77b4;stroke-linecap:square;stroke-width:0.5;"/>
   </g>
   <g id="line2d_24">
    <path clip-path="url(#p8e07659d5d)" d="M 260.517332 276.812 
L 259.623122 277.220834 
" style="fill:none;stroke:#1f77b4;stroke-linecap:square;stroke-width:0.5;"/>
   </g>
   <g id="line2d_25">
    <path clip-path="url(#p8e07659d5d)" d="M 200.924543 276.812 
L 198.340388 267.426187 
L 195.946692 257.886427 
L 193.746243 248.231585 
L 191.740966 238.499535 
L 189.932052 228.727124 
L 188.31999 218.950102 
L 186.904523 209.202936 
L 185.684697 199.518753 
L 184.658908 189.929314 
L 183.82494 180.464984 
L 183.179985 171.154672 
L 182.720665 162.025798 
L 182.443064 153.104272 
L 182.342759 144.414475 
L 182.414853 135.979253 
L 182.654005 127.819904 
L 183.05446 119.956169 
L 183.610082 112.406242 
L 184.314387 105.186761 
L 185.160596 98.312818 
L 186.141585 91.797949 
L 187.250018 85.654151 
L 188.47827 79.891869 
L 189.818582 74.520023 
L 191.263017 69.546013 
L 192.803525 64.975728 
L 194.431934 60.813559 
L 196.140003 57.062424 
L 197.919434 53.723781 
L 199.761919 50.797649 
L 201.659161 48.282642 
L 203.602912 46.175994 
L 205.584991 44.473598 
L 206.923674 43.560632 
L 208.27343 42.823037 
L 209.631921 42.258652 
L 210.996837 41.865085 
L 212.365904 41.639708 
L 213.736883 41.579683 
L 215.107574 41.681948 
L 216.475821 41.943245 
L 217.839514 42.360115 
L 219.872013 43.269096 
L 221.882883 44.506824 
L 223.865643 46.059423 
L 225.814103 47.912253 
L 227.722372 50.050002 
L 229.584873 52.456751 
L 231.396358 55.116057 
L 233.151912 58.011034 
L 235.397795 62.207737 
L 237.526288 66.75104 
L 239.528657 71.598688 
L 241.397295 76.708146 
L 243.125767 82.03692 
L 244.708755 87.54282 
L 246.476609 94.610955 
L 248.004885 101.811482 
L 249.290437 109.067723 
L 250.332643 116.306328 
L 251.133269 123.457826 
L 251.696343 130.457084 
L 252.027997 137.243705 
L 252.13631 143.76236 
L 252.031127 149.963041 
L 251.723876 155.801244 
L 251.227386 161.238112 
L 250.555692 166.24054 
L 249.723846 170.781194 
L 248.747718 174.838476 
L 247.643809 178.396506 
L 246.429059 181.444925 
L 245.389003 183.513231 
L 244.29786 185.251987 
L 243.164452 186.663128 
L 241.997526 187.750538 
L 240.805695 188.520007 
L 239.597398 188.979065 
L 238.380844 189.136915 
L 237.163977 189.004291 
L 235.954437 188.593329 
L 234.759511 187.917467 
L 233.586121 186.99127 
L 232.440769 185.830336 
L 231.057737 184.07421 
L 229.738873 182.010793 
L 228.493904 179.675185 
L 227.109402 176.563981 
L 225.85594 173.176065 
L 224.743379 169.574901 
L 223.6331 165.187641 
L 222.731799 160.692271 
L 222.042366 156.181059 
L 221.512015 151.116352 
L 221.248421 146.260579 
L 221.237536 141.716731 
L 221.4602 137.572224 
L 221.892999 133.898004 
L 222.423094 131.11165 
L 223.074111 128.752359 
L 223.825587 126.835864 
L 224.533767 125.550613 
L 225.28706 124.594198 
L 226.072327 123.960848 
L 226.74188 123.672788 
L 227.417554 123.59446 
L 228.092469 123.716412 
L 228.89218 124.111616 
L 229.670849 124.75802 
L 230.539887 125.798 
L 231.464619 127.313546 
L 232.299997 129.116233 
L 233.116143 131.404845 
L 233.853364 134.160257 
L 234.445852 137.304122 
L 234.8066 140.414956 
L 234.945127 143.608718 
L 234.839829 146.449289 
L 234.523962 148.823198 
L 234.084252 150.524217 
L 233.590092 151.649084 
L 233.091715 152.313734 
L 232.562976 152.656757 
L 232.082843 152.705278 
L 231.60619 152.530369 
L 231.088304 152.093392 
L 230.552388 151.351488 
L 229.986233 150.179025 
L 229.457841 148.547213 
L 229.051408 146.525655 
L 228.856823 144.424889 
L 228.897124 142.485378 
L 229.144772 141.01444 
L 229.488066 140.179309 
L 229.843371 139.825865 
L 230.162896 139.788402 
L 230.501761 139.993422 
L 230.857496 140.490383 
L 231.218458 141.398387 
L 231.48418 142.681418 
L 231.549209 144.042483 
L 231.397924 145.053022 
L 231.148515 145.479659 
L 230.924499 145.503505 
L 230.702516 145.280048 
L 230.468177 144.688927 
L 230.350456 143.784519 
L 230.456904 143.086629 
L 230.634486 142.981417 
L 230.778891 143.176623 
L 230.885201 143.72092 
L 230.783228 144.10507 
L 230.690511 144.001834 
L 230.66666 143.628453 
L 230.703393 143.602836 
L 230.739119 143.660128 
L 230.739119 143.660128 
L 230.734834 143.824599 
L 230.720937 143.756 
" style="fill:none;stroke:#1f77b4;stroke-linecap:square;stroke-width:0.5;"/>
   </g>
   <g id="line2d_26">
    <path clip-path="url(#p8e07659d5d)" d="M 134.089098 276.812 
L 133.219312 270.009783 
L 132.394902 263.23228 
L 131.615881 256.481636 
L 130.882063 249.759987 
L 130.193242 243.069437 
L 129.5492 236.412014 
L 128.949712 229.789727 
L 128.394537 223.20451 
L 127.883419 216.65825 
L 127.416088 210.152786 
L 126.992268 203.68993 
L 126.611666 197.271437 
L 126.273971 190.899006 
L 125.97888 184.574352 
L 125.726058 178.299081 
L 125.515179 172.074837 
L 125.345889 165.903152 
L 125.217835 159.785569 
L 125.130646 153.723567 
L 125.083944 147.718593 
L 125.077339 141.772062 
L 125.110436 135.885353 
L 125.182826 130.059818 
L 125.294097 124.296773 
L 125.443825 118.597507 
L 125.631577 112.963272 
L 125.856914 107.395294 
L 126.119388 101.894773 
L 126.418546 96.462882 
L 126.753921 91.100749 
L 127.125039 85.809474 
L 127.531417 80.590129 
L 127.972571 75.443773 
L 128.448013 70.371442 
L 128.957235 65.37412 
L 129.499731 60.452779 
L 130.074995 55.60838 
L 130.682501 50.841835 
L 131.321725 46.15404 
L 131.992139 41.545872 
L 132.693204 37.018172 
L 133.424376 32.571761 
L 134.185109 28.207436 
L 134.97485 23.925967 
L 135.793039 19.728097 
L 136.639112 15.614547 
L 137.512504 11.586011 
L 138.412639 7.643158 
" style="fill:none;stroke:#1f77b4;stroke-linecap:square;stroke-width:0.5;"/>
   </g>
   <g id="line2d_27">
    <path clip-path="url(#p8e07659d5d)" d="M 52.160938 266.242677 
L 51.373322 256.098973 
" style="fill:none;stroke:#1f77b4;stroke-linecap:square;stroke-width:0.5;"/>
   </g>
   <g id="line2d_28">
    <path clip-path="url(#p8e07659d5d)" d="M 52.160938 202.119773 
L 51.801319 192.62086 
" style="fill:none;stroke:#1f77b4;stroke-linecap:square;stroke-width:0.5;"/>
   </g>
   <g id="line2d_29">
    <path clip-path="url(#p8e07659d5d)" d="M 52.160938 154.781334 
L 52.117291 145.758416 
" style="fill:none;stroke:#1f77b4;stroke-linecap:square;stroke-width:0.5;"/>
   </g>
   <g id="line2d_30">
    <path clip-path="url(#p8e07659d5d)" d="M 52.160938 110.061645 
L 52.415878 101.488549 
L 52.727945 93.009848 
L 53.096582 84.626479 
L 53.52118 76.339301 
L 54.001073 68.149232 
L 54.535597 60.057163 
L 55.124086 52.063983 
L 55.765872 44.170557 
L 56.460284 36.377768 
L 57.206641 28.686469 
L 58.004264 21.097534 
L 58.85246 13.611821 
L 59.750537 6.230197 
" style="fill:none;stroke:#1f77b4;stroke-linecap:square;stroke-width:0.5;"/>
   </g>
   <g id="line2d_31">
    <path clip-path="url(#p8e07659d5d)" d="M 52.160938 56.826177 
L 52.77134 48.788622 
L 53.435215 40.851435 
L 54.151965 33.015647 
L 54.920976 25.282018 
L 55.74157 17.651386 
L 56.613034 10.124622 
" style="fill:none;stroke:#1f77b4;stroke-linecap:square;stroke-width:0.5;"/>
   </g>
   <g id="line2d_32">
    <path clip-path="url(#p8e07659d5d)" d="M 91.742111 10.7 
L 92.655503 4.607257 
" style="fill:none;stroke:#1f77b4;stroke-linecap:square;stroke-width:0.5;"/>
   </g>
   <g id="line2d_33">
    <path clip-path="url(#p8e07659d5d)" d="M 169.421212 10.7 
L 170.321532 8.484275 
" style="fill:none;stroke:#1f77b4;stroke-linecap:square;stroke-width:0.5;"/>
   </g>
   <g id="line2d_34">
    <path clip-path="url(#p8e07659d5d)" d="M 230.720937 10.7 
L 233.357979 14.867086 
L 235.907742 19.367927 
L 238.363758 24.176576 
L 240.720094 29.266687 
L 242.971356 34.611653 
L 245.112685 40.184722 
L 247.13976 45.959102 
L 249.658333 53.925303 
L 251.959629 62.139249 
L 254.03783 70.539284 
L 255.88875 79.065161 
L 257.509798 87.658387 
L 258.89993 96.262502 
L 260.059588 104.823345 
L 260.990644 113.289295 
L 261.696305 121.61156 
L 262.181044 129.744275 
L 262.450529 137.644617 
L 262.511534 145.272912 
L 262.371858 152.592739 
L 262.040234 159.571001 
L 261.526235 166.177988 
L 260.840187 172.387398 
L 259.993074 178.176347 
L 258.996451 183.525367 
L 257.862347 188.418392 
L 256.603181 192.842728 
L 255.231665 196.789012 
L 253.760718 200.251144 
L 252.203382 203.226218 
L 250.986555 205.137895 
L 249.733993 206.776845 
L 248.451167 208.145183 
L 247.143497 209.245913 
L 245.816331 210.082901 
L 244.474932 210.660831 
L 243.124462 210.985176 
L 241.769963 211.062152 
L 240.416348 210.898677 
L 239.068381 210.502335 
L 237.730667 209.881318 
L 236.407644 209.044392 
L 235.103563 208.000845 
L 233.401247 206.304961 
L 231.748875 204.283419 
L 230.154846 201.961626 
L 228.626869 199.365907 
L 226.820366 195.777292 
L 225.139983 191.856823 
L 223.595937 187.659002 
L 222.196613 183.238374 
L 220.948579 178.648985 
L 219.657236 172.993518 
L 218.595443 167.260029 
L 217.764621 161.533075 
L 217.16289 155.892118 
L 216.785286 150.410733 
L 216.624014 145.15594 
L 216.668718 140.187677 
L 216.906781 135.5584 
L 217.323632 131.312818 
L 217.903055 127.487716 
L 218.627514 124.111906 
L 219.478475 121.206291 
L 220.436713 118.784048 
L 221.303059 117.139086 
L 222.218895 115.833392 
L 223.172893 114.863201 
L 224.153904 114.221668 
L 224.950845 113.938627 
L 225.752711 113.853548 
L 226.554281 113.959232 
L 227.548217 114.347135 
L 228.524597 115.002688 
L 229.474767 115.906469 
L 230.569183 117.289159 
L 231.601984 118.960798 
L 232.714686 121.222585 
L 233.714485 123.757289 
L 234.704556 126.903138 
L 235.520715 130.220758 
L 236.22292 134.040728 
L 236.694697 137.831988 
L 236.941307 141.479897 
L 236.965738 145.243517 
L 236.750975 148.592585 
L 236.378609 151.179384 
L 235.863493 153.314256 
L 235.233825 154.970135 
L 234.601639 156.031508 
L 234.009502 156.645761 
L 233.395251 156.974927 
L 232.771989 157.032046 
L 232.152101 156.834421 
L 231.547075 156.402999 
L 230.88714 155.654505 
L 230.201077 154.534152 
L 229.52746 153.014488 
L 228.864568 150.92568 
L 228.344468 148.496746 
L 228.022683 145.882523 
L 227.939045 143.455283 
L 228.084999 141.233927 
L 228.401239 139.626851 
L 228.809897 138.590743 
L 229.250713 138.035657 
L 229.641902 137.858229 
L 230.036801 137.921433 
L 230.457227 138.238516 
L 230.911969 138.891753 
L 231.351694 139.922252 
L 231.728242 141.378049 
L 231.939927 143.112604 
L 231.914395 144.681859 
L 231.689825 145.782895 
L 231.395154 146.280245 
L 231.116497 146.375946 
L 230.858464 146.228622 
L 230.569005 145.783701 
L 230.297566 144.932653 
L 230.171619 143.810012 
L 230.271495 142.911938 
L 230.480898 142.598089 
L 230.65812 142.655618 
L 230.84311 142.992137 
L 230.963979 143.683507 
L 230.871986 144.23482 
L 230.759558 144.2545 
L 230.736649 144.231657 
L 230.625835 143.92554 
L 230.677446 143.526324 
L 230.751243 143.625032 
L 230.741105 143.857861 
L 230.720938 143.756 
" style="fill:none;stroke:#1f77b4;stroke-linecap:square;stroke-width:0.5;"/>
   </g>
   <g id="line2d_35">
    <path clip-path="url(#p8e07659d5d)" d="M 230.720938 143.756 
" style="fill:none;stroke:#1f77b4;stroke-linecap:square;stroke-width:1.5;"/>
   </g>
   <g id="line2d_36">
    <path clip-path="url(#p8e07659d5d)" d="M 230.720938 10.7 
L 233.357979 14.867091 
L 235.907741 19.367994 
L 238.363754 24.176895 
L 240.720079 29.26764 
L 242.97131 34.613857 
L 245.112574 40.189041 
L 247.139531 45.966649 
L 249.657821 53.939278 
L 251.958625 62.16247 
L 254.03604 70.574866 
L 255.8858 79.116298 
L 257.505235 87.728113 
L 258.893225 96.353533 
L 260.050144 104.937948 
L 260.977794 113.429161 
L 261.679351 121.777595 
L 262.159279 129.936501 
L 262.42326 137.862144 
L 262.478106 145.513969 
L 262.331675 152.854742 
L 261.992776 159.850629 
L 261.471079 166.471281 
L 260.777022 172.689894 
L 259.921718 178.483238 
L 258.916852 183.83166 
L 257.774593 188.719085 
L 256.507487 193.132944 
L 255.128376 197.064127 
L 253.650298 200.506903 
L 252.0864 203.458835 
L 250.865082 205.350998 
L 249.60844 206.968853 
L 248.321973 208.314775 
L 247.011123 209.39203 
L 245.681259 210.204735 
L 244.337657 210.757832 
L 242.985488 211.057027 
L 241.629798 211.108769 
L 240.275499 210.920186 
L 238.92735 210.49905 
L 237.58995 209.853727 
L 236.267723 208.99313 
L 234.964907 207.926672 
L 233.264978 206.20161 
L 231.615753 204.152633 
L 230.025582 201.805292 
L 228.502121 199.186003 
L 226.702108 195.570778 
L 225.029049 191.626882 
L 223.49306 187.408784 
L 222.102426 182.970969 
L 220.863611 178.367401 
L 219.583882 172.698781 
L 218.534149 166.956242 
L 217.715673 161.224254 
L 217.126411 155.58222 
L 216.76124 150.103664 
L 216.612208 144.855544 
L 216.668809 139.897701 
L 216.918277 135.282441 
L 217.345899 131.054242 
L 217.935329 127.249587 
L 218.668918 123.896924 
L 219.528029 121.016733 
L 220.493359 118.621706 
L 221.364759 117.000417 
L 222.284846 115.718958 
L 223.242277 114.773245 
L 224.2259 114.156121 
L 225.024344 113.892367 
L 225.827201 113.82621 
L 226.629261 113.950317 
L 227.623127 114.360379 
L 228.598712 115.03693 
L 229.5474 115.960379 
L 230.639202 117.364713 
L 231.668564 119.055679 
L 232.776339 121.336918 
L 233.770373 123.887621 
L 234.753053 127.047484 
L 235.561193 130.374605 
L 236.253916 134.200025 
L 236.716043 137.991484 
L 236.95314 141.634746 
L 236.967495 145.388129 
L 236.743502 148.722415 
L 236.363778 151.292772 
L 235.842367 153.408996 
L 235.207579 155.044795 
L 234.57188 156.087722 
L 233.977483 156.68579 
L 233.361728 156.999067 
L 232.737694 157.040888 
L 232.117736 156.828816 
L 231.513292 156.384023 
L 230.854752 155.621801 
L 230.171076 154.488232 
L 229.500947 152.956884 
L 228.843115 150.858399 
L 228.329148 148.424287 
L 228.014205 145.810257 
L 227.937139 143.38842 
L 228.089335 141.177437 
L 228.410304 139.58303 
L 228.822214 138.560101 
L 229.264994 138.017502 
L 229.657057 137.850185 
L 230.052172 137.922844 
L 230.472141 138.249217 
L 230.925537 138.911536 
L 231.388148 140.02628 
L 231.751241 141.49404 
L 231.946748 143.223075 
L 231.906439 144.7692 
L 231.671369 145.836736 
L 231.371833 146.302803 
L 231.0921 146.373933 
L 230.818903 146.188923 
L 230.523564 145.682733 
L 230.264696 144.769724 
L 230.172306 143.634602 
L 230.30342 142.819352 
L 230.515088 142.589559 
L 230.690148 142.69002 
L 230.878442 143.105834 
L 230.963932 143.834434 
L 230.837417 144.26674 
L 230.716754 144.204641 
L 230.615382 143.835554 
L 230.681126 143.525648 
L 230.704027 143.534485 
L 230.768585 143.732389 
L 230.738786 143.858346 
L 230.700632 143.736546 
L 230.700632 143.736546 
L 230.713851 143.710543 
L 230.729158 143.740281 
L 230.729158 143.740281 
L 230.72466 143.776187 
L 230.720938 143.756 
" style="fill:none;stroke:#ff7f0e;stroke-linecap:square;stroke-width:0.5;"/>
   </g>
   <g id="line2d_37">
    <path clip-path="url(#p8e07659d5d)" d="M 292.020663 10.7 
L 292.896609 15.686145 
L 293.739218 20.673582 
L 294.548365 25.660431 
L 295.324059 30.644695 
L 296.066326 35.624393 
L 296.775202 40.597583 
L 297.450742 45.562355 
L 298.093001 50.516803 
L 298.702058 55.459069 
L 299.277993 60.387289 
L 299.820911 65.299649 
L 300.330921 70.194347 
L 300.808149 75.069614 
L 301.252734 79.923705 
L 301.664822 84.7549 
L 302.044575 89.561507 
L 302.392161 94.341857 
L 302.707763 99.09431 
L 302.991576 103.817251 
L 303.243799 108.509097 
L 303.464648 113.168288 
L 303.654351 117.793288 
L 303.813137 122.382606 
L 303.941252 126.934766 
L 304.038954 131.448322 
L 304.106502 135.921867 
L 304.144171 140.354018 
L 304.152244 144.74342 
L 304.131013 149.088749 
L 304.080778 153.388718 
L 304.001846 157.642067 
L 303.894535 161.847568 
L 303.759168 166.004023 
L 303.596077 170.110266 
L 303.405606 174.165164 
L 303.188102 178.167612 
L 302.943915 182.116542 
L 302.673412 186.010912 
L 302.376966 189.849714 
L 302.054952 193.631974 
L 301.707745 197.356751 
L 301.335741 201.023133 
L 300.939338 204.630239 
L 300.518933 208.177224 
L 300.074926 211.663279 
L 299.607737 215.087618 
L 299.117785 218.449492 
L 298.605482 221.748187 
L 298.071258 224.983018 
L 297.515546 228.153332 
L 296.938785 231.258511 
L 296.341401 234.297966 
L 295.723846 237.271141 
L 295.086567 240.177514 
L 294.430015 243.016592 
L 293.754634 245.787913 
L 293.060887 248.491051 
L 292.349235 251.125608 
L 291.620136 253.691218 
L 290.874051 256.187543 
L 290.11145 258.614282 
L 289.332803 260.971164 
L 288.538575 263.25794 
L 287.729236 265.474398 
L 286.905262 267.62036 
L 286.067131 269.695676 
L 285.215306 271.700212 
L 284.350269 273.63388 
L 283.472497 275.496619 
L 282.582467 277.288394 
" style="fill:none;stroke:#ff7f0e;stroke-linecap:square;stroke-width:0.5;"/>
   </g>
   <g id="line2d_38">
    <path clip-path="url(#p8e07659d5d)" d="M 369.699764 10.7 
L 370.560138 20.293259 
L 371.356521 29.840271 
L 372.089003 39.337711 
L 372.757931 48.782253 
L 373.363675 58.17063 
L 373.906622 67.499652 
L 374.387179 76.766195 
L 374.805777 85.967193 
L 375.162865 95.09964 
L 375.458916 104.160592 
L 375.694429 113.147185 
L 375.869891 122.056518 
L 375.985833 130.88582 
L 376.042799 139.63237 
L 376.041361 148.29353 
L 375.982102 156.866706 
L 375.865619 165.349361 
L 375.692529 173.739018 
L 375.463464 182.033264 
L 375.179071 190.229748 
L 374.840014 198.326181 
L 374.446973 206.320337 
L 374.000641 214.210051 
L 373.501725 221.993221 
L 372.950948 229.667809 
L 372.349045 237.231838 
L 371.696764 244.683399 
L 370.994865 252.020645 
L 370.244122 259.241794 
L 369.445319 266.345125 
L 368.599253 273.328976 
L 367.70673 280.191759 
" style="fill:none;stroke:#ff7f0e;stroke-linecap:square;stroke-width:0.5;"/>
   </g>
   <g id="line2d_39">
    <path clip-path="url(#p8e07659d5d)" d="M 409.280938 56.826177 
L 409.825549 68.298938 
" style="fill:none;stroke:#ff7f0e;stroke-linecap:square;stroke-width:0.5;"/>
   </g>
   <g id="line2d_40">
    <path clip-path="url(#p8e07659d5d)" d="M 409.280938 110.061645 
L 409.470242 120.994243 
" style="fill:none;stroke:#ff7f0e;stroke-linecap:square;stroke-width:0.5;"/>
   </g>
   <g id="line2d_41">
    <path clip-path="url(#p8e07659d5d)" d="M 409.280938 154.781334 
L 409.171734 165.260103 
L 408.992617 175.626054 
L 408.744317 185.876236 
L 408.427634 196.007684 
L 408.043378 206.017534 
L 407.592374 215.903002 
L 407.075464 225.661392 
L 406.49351 235.290085 
L 405.847396 244.786568 
L 405.138009 254.148344 
L 404.366268 263.373052 
L 403.53309 272.458343 
L 402.639422 281.402004 
" style="fill:none;stroke:#ff7f0e;stroke-linecap:square;stroke-width:0.5;"/>
   </g>
   <g id="line2d_42">
    <path clip-path="url(#p8e07659d5d)" d="M 409.280938 202.119773 
L 408.855645 212.118033 
L 408.363751 221.989734 
L 407.806052 231.732104 
L 407.183426 241.342534 
L 406.496764 250.818503 
L 405.746976 260.157573 
L 404.93499 269.35739 
L 404.061759 278.41574 
" style="fill:none;stroke:#ff7f0e;stroke-linecap:square;stroke-width:0.5;"/>
   </g>
   <g id="line2d_43">
    <path clip-path="url(#p8e07659d5d)" d="M 409.280938 266.242677 
L 408.42752 275.590024 
L 407.512022 284.792043 
" style="fill:none;stroke:#ff7f0e;stroke-linecap:square;stroke-width:0.5;"/>
   </g>
   <g id="line2d_44">
    <path clip-path="url(#p8e07659d5d)" d="M 327.352777 276.812 
L 326.445159 281.192776 
" style="fill:none;stroke:#ff7f0e;stroke-linecap:square;stroke-width:0.5;"/>
   </g>
   <g id="line2d_45">
    <path clip-path="url(#p8e07659d5d)" d="M 260.517332 276.812 
L 259.623095 277.228664 
" style="fill:none;stroke:#ff7f0e;stroke-linecap:square;stroke-width:0.5;"/>
   </g>
   <g id="line2d_46">
    <path clip-path="url(#p8e07659d5d)" d="M 200.924543 276.812 
L 198.340657 267.398463 
L 195.947851 257.824729 
L 193.74904 248.129506 
L 191.746278 238.35074 
L 189.94088 228.525568 
L 188.333453 218.690241 
L 186.923845 208.87994 
L 185.711189 199.128692 
L 184.693951 189.469313 
L 183.869962 179.933334 
L 183.236434 170.550924 
L 182.789987 161.350811 
L 182.526673 152.360223 
L 182.442013 143.604842 
L 182.531027 135.10876 
L 182.788266 126.894435 
L 183.207847 118.982662 
L 183.783492 111.392547 
L 184.508544 104.141502 
L 185.376013 97.245215 
L 186.378613 90.717655 
L 187.508788 84.571065 
L 188.758763 78.815969 
L 190.120569 73.46121 
L 191.586076 68.51394 
L 193.147023 63.979655 
L 194.795055 59.86222 
L 196.521755 56.163918 
L 198.318674 52.885469 
L 200.177367 50.026092 
L 202.089418 47.58354 
L 204.046471 45.554155 
L 206.040259 43.932918 
L 207.385826 43.075777 
L 208.741709 42.395074 
L 210.105557 41.888395 
L 211.475051 41.553096 
L 212.84791 41.386315 
L 214.221894 41.384978 
L 215.594804 41.545814 
L 216.964487 41.865354 
L 219.008367 42.634209 
L 221.033368 43.738864 
L 223.032868 45.165479 
L 225.000532 46.899481 
L 226.930324 48.925636 
L 228.816521 51.228126 
L 230.653725 53.790621 
L 232.43687 56.596352 
L 234.72219 60.686033 
L 236.89281 65.136233 
L 238.939618 69.904909 
L 240.854636 74.949674 
L 242.631023 80.228069 
L 244.263077 85.697839 
L 245.746224 91.317179 
L 247.385588 98.489161 
L 248.782585 105.752531 
L 249.935422 113.032043 
L 250.84477 120.255964 
L 251.513641 127.356599 
L 251.947247 134.270761 
L 252.152834 140.940157 
L 252.139519 147.311726 
L 251.91811 153.337895 
L 251.500911 158.97678 
L 250.901538 164.192311 
L 250.134716 168.954306 
L 249.216087 173.238472 
L 248.162006 177.026361 
L 246.989354 180.30526 
L 245.977419 182.556931 
L 244.9095 184.477018 
L 243.794488 186.066482 
L 242.64122 187.328321 
L 241.458428 188.26747 
L 240.254687 188.890692 
L 239.038365 189.206467 
L 237.817583 189.22487 
L 236.60017 188.957447 
L 235.393628 188.417081 
L 234.205096 187.617863 
L 233.04132 186.574954 
L 231.63101 184.953225 
L 230.280612 183.009082 
L 229.000364 180.777196 
L 227.569335 177.769555 
L 226.265643 174.462251 
L 225.100065 170.918899 
L 223.925619 166.570915 
L 222.958997 162.085706 
L 222.204418 157.55732 
L 221.661804 153.074254 
L 221.295824 148.110641 
L 221.189372 143.421742 
L 221.325105 139.101541 
L 221.681073 135.227762 
L 222.231605 131.861184 
L 222.85059 129.366234 
L 223.576468 127.31191 
L 224.388294 125.707243 
L 225.136515 124.689884 
L 225.919119 123.99793 
L 226.588216 123.663291 
L 227.264958 123.540795 
L 227.942376 123.62129 
L 228.746855 123.970691 
L 229.532043 124.57594 
L 230.410641 125.574171 
L 231.235706 126.848529 
L 232.097818 128.588136 
L 232.947471 130.82709 
L 233.724596 133.553287 
L 234.313814 136.407124 
L 234.739818 139.550369 
L 234.937992 142.558173 
L 234.911828 145.540837 
L 234.662238 148.089802 
L 234.270156 149.968957 
L 233.756902 151.368761 
L 233.215484 152.213122 
L 232.690584 152.629519 
L 232.210265 152.738707 
L 231.730311 152.618975 
L 231.205392 152.236364 
L 230.658149 151.544168 
L 230.074601 150.415428 
L 229.522469 148.812263 
L 229.107897 146.923207 
L 228.869349 144.791562 
L 228.869236 142.782789 
L 229.086402 141.21911 
L 229.412548 140.293783 
L 229.760758 139.863266 
L 230.079749 139.765426 
L 230.397304 139.894212 
L 230.74346 140.287019 
L 231.117311 141.077487 
L 231.425765 142.278739 
L 231.557005 143.70064 
L 231.45638 144.843238 
L 231.218634 145.419828 
L 230.984811 145.526764 
L 230.766429 145.374662 
L 230.530924 144.906168 
L 230.36309 144.068278 
L 230.403494 143.233646 
L 230.586607 142.967951 
L 230.727847 143.074937 
L 230.866551 143.503987 
L 230.837132 144.057064 
L 230.757799 144.100237 
L 230.71431 144.052812 
L 230.648529 143.721715 
L 230.69602 143.600442 
L 230.752201 143.727112 
L 230.752201 143.727112 
L 230.733044 143.825122 
L 230.710105 143.730952 
L 230.710105 143.730952 
L 230.717359 143.72563 
L 230.724598 143.737217 
L 230.724598 143.737217 
L 230.723644 143.769593 
L 230.720938 143.756 
" style="fill:none;stroke:#ff7f0e;stroke-linecap:square;stroke-width:0.5;"/>
   </g>
   <g id="line2d_47">
    <path clip-path="url(#p8e07659d5d)" d="M 134.089098 276.812 
L 133.220248 269.730331 
L 132.398664 262.668991 
L 131.624388 255.630519 
L 130.897256 248.617512 
L 130.217086 241.632538 
L 129.583682 234.678109 
L 128.996831 227.756692 
L 128.456305 220.870716 
L 127.961859 214.022568 
L 127.513231 207.214595 
L 127.11014 200.4491 
L 126.752279 193.72831 
L 126.439358 187.054503 
L 126.171066 180.429901 
L 125.947062 173.856637 
L 125.766993 167.336814 
L 125.630489 160.872487 
L 125.537168 154.46567 
L 125.486638 148.118337 
L 125.478491 141.832421 
L 125.512311 135.609814 
L 125.587666 129.452365 
L 125.704114 123.361878 
L 125.8612 117.340108 
L 126.058456 111.388771 
L 126.295405 105.509532 
L 126.571559 99.704014 
L 126.886416 93.973795 
L 127.239467 88.320404 
L 127.630203 82.745326 
L 128.058085 77.250002 
L 128.52257 71.835828 
L 129.0231 66.504153 
L 129.559138 61.256272 
L 130.130123 56.09344 
L 130.735461 51.01687 
L 131.37456 46.027727 
L 132.04682 41.127131 
L 132.751699 36.316137 
L 133.488555 31.595777 
L 134.256772 26.96703 
L 135.055722 22.430826 
L 135.88479 17.98805 
L 136.743375 13.639539 
L 137.630817 9.386086 
" style="fill:none;stroke:#ff7f0e;stroke-linecap:square;stroke-width:0.5;"/>
   </g>
   <g id="line2d_48">
    <path clip-path="url(#p8e07659d5d)" d="M 52.160938 266.242677 
L 51.379008 254.409094 
" style="fill:none;stroke:#ff7f0e;stroke-linecap:square;stroke-width:0.5;"/>
   </g>
   <g id="line2d_49">
    <path clip-path="url(#p8e07659d5d)" d="M 52.160938 202.119773 
L 51.806982 190.936873 
" style="fill:none;stroke:#ff7f0e;stroke-linecap:square;stroke-width:0.5;"/>
   </g>
   <g id="line2d_50">
    <path clip-path="url(#p8e07659d5d)" d="M 52.160938 154.781334 
L 52.122937 144.078747 
" style="fill:none;stroke:#ff7f0e;stroke-linecap:square;stroke-width:0.5;"/>
   </g>
   <g id="line2d_51">
    <path clip-path="url(#p8e07659d5d)" d="M 52.160938 110.061645 
L 52.421511 99.812973 
L 52.750382 89.683796 
L 53.146833 79.676836 
L 53.610025 69.794909 
L 54.139097 60.040722 
L 54.733177 50.416822 
L 55.391388 40.925835 
L 56.112824 31.570128 
L 56.896581 22.352242 
L 57.741722 13.274397 
L 58.647305 4.338875 
" style="fill:none;stroke:#ff7f0e;stroke-linecap:square;stroke-width:0.5;"/>
   </g>
   <g id="line2d_52">
    <path clip-path="url(#p8e07659d5d)" d="M 52.160938 56.826177 
L 52.776958 47.11789 
L 53.457584 37.54448 
L 54.20199 28.108561 
L 55.00924 18.812541 
L 55.878385 9.658711 
" style="fill:none;stroke:#ff7f0e;stroke-linecap:square;stroke-width:0.5;"/>
   </g>
   <g id="line2d_53">
    <path clip-path="url(#p8e07659d5d)" d="M 91.742111 10.7 
L 92.65819 3.807564 
" style="fill:none;stroke:#ff7f0e;stroke-linecap:square;stroke-width:0.5;"/>
   </g>
   <g id="line2d_54">
    <path clip-path="url(#p8e07659d5d)" d="M 169.421212 10.7 
L 170.321765 8.414821 
" style="fill:none;stroke:#ff7f0e;stroke-linecap:square;stroke-width:0.5;"/>
   </g>
   <g id="line2d_55">
    <path clip-path="url(#p8e07659d5d)" d="M 230.720937 10.7 
L 233.357979 14.867091 
L 235.907741 19.367994 
L 238.363754 24.176895 
L 240.720079 29.26764 
L 242.97131 34.613857 
L 245.112574 40.189041 
L 247.139531 45.966649 
L 249.657821 53.939278 
L 251.958625 62.16247 
L 254.03604 70.574866 
L 255.8858 79.116298 
L 257.505235 87.728113 
L 258.893225 96.353533 
L 260.050144 104.937948 
L 260.977794 113.429161 
L 261.679351 121.777595 
L 262.159279 129.936501 
L 262.42326 137.862144 
L 262.478106 145.513969 
L 262.331675 152.854742 
L 261.992776 159.850629 
L 261.471079 166.471281 
L 260.777022 172.689894 
L 259.921718 178.483238 
L 258.916852 183.83166 
L 257.774593 188.719085 
L 256.507487 193.132944 
L 255.128376 197.064127 
L 253.650298 200.506903 
L 252.0864 203.458835 
L 250.865082 205.350998 
L 249.60844 206.968853 
L 248.321973 208.314775 
L 247.011123 209.39203 
L 245.681259 210.204735 
L 244.337657 210.757832 
L 242.985488 211.057027 
L 241.629798 211.108769 
L 240.275499 210.920186 
L 238.92735 210.49905 
L 237.58995 209.853727 
L 236.267723 208.99313 
L 234.964907 207.926672 
L 233.264978 206.20161 
L 231.615753 204.152633 
L 230.025582 201.805292 
L 228.502121 199.186003 
L 226.702108 195.570778 
L 225.029049 191.626882 
L 223.49306 187.408784 
L 222.102426 182.970969 
L 220.863611 178.367401 
L 219.583882 172.698781 
L 218.534149 166.956243 
L 217.715673 161.224254 
L 217.126411 155.58222 
L 216.76124 150.103664 
L 216.612208 144.855544 
L 216.668809 139.897701 
L 216.918277 135.282441 
L 217.345899 131.054242 
L 217.935329 127.249587 
L 218.668918 123.896924 
L 219.528029 121.016733 
L 220.493359 118.621706 
L 221.364759 117.000417 
L 222.284846 115.718958 
L 223.242277 114.773245 
L 224.2259 114.156121 
L 225.024344 113.892367 
L 225.827201 113.82621 
L 226.629261 113.950317 
L 227.623127 114.360379 
L 228.598712 115.03693 
L 229.5474 115.960379 
L 230.639202 117.364713 
L 231.668564 119.055679 
L 232.776339 121.336918 
L 233.770373 123.887621 
L 234.753053 127.047484 
L 235.561193 130.374605 
L 236.253916 134.200025 
L 236.716043 137.991484 
L 236.95314 141.634746 
L 236.967495 145.38813 
L 236.743502 148.722415 
L 236.363778 151.292771 
L 235.842367 153.408995 
L 235.207579 155.044793 
L 234.57188 156.08772 
L 233.977484 156.685788 
L 233.361728 156.999065 
L 232.737695 157.040886 
L 232.117736 156.828815 
L 231.513293 156.384022 
L 230.854753 155.6218 
L 230.171077 154.488232 
L 229.500948 152.956885 
L 228.843116 150.8584 
L 228.329149 148.424288 
L 228.014205 145.810258 
L 227.937139 143.388422 
L 228.089335 141.17744 
L 228.410304 139.583035 
L 228.822214 138.560104 
L 229.264993 138.017505 
L 229.657057 137.850186 
L 230.052172 137.922845 
L 230.472142 138.249217 
L 230.925537 138.911537 
L 231.388148 140.02628 
L 231.751241 141.494041 
L 231.946748 143.223076 
L 231.906439 144.769201 
L 231.67137 145.836731 
L 231.371835 146.302797 
L 231.092103 146.373928 
L 230.818907 146.188922 
L 230.523568 145.682737 
L 230.264699 144.76973 
L 230.172306 143.634607 
L 230.303421 142.819357 
L 230.515089 142.589565 
L 230.690148 142.690026 
L 230.878441 143.105837 
L 230.963931 143.834435 
L 230.837416 144.266737 
L 230.716755 144.204639 
L 230.615383 143.835556 
L 230.681125 143.525648 
L 230.704026 143.534483 
L 230.768585 143.732387 
L 230.738787 143.858347 
L 230.700632 143.736547 
L 230.700632 143.736547 
L 230.713851 143.710543 
L 230.729158 143.74028 
L 230.729158 143.74028 
L 230.72466 143.776187 
L 230.720938 143.756 
" style="fill:none;stroke:#ff7f0e;stroke-linecap:square;stroke-width:0.5;"/>
   </g>
   <g id="line2d_56">
    <path clip-path="url(#p8e07659d5d)" d="M 230.720938 143.756 
" style="fill:none;stroke:#ff7f0e;stroke-linecap:square;stroke-width:1.5;"/>
   </g>
   <g id="line2d_57">
    <defs>
     <path d="M 0 3 
C 0.795609 3 1.55874 2.683901 2.12132 2.12132 
C 2.683901 1.55874 3 0.795609 3 0 
C 3 -0.795609 2.683901 -1.55874 2.12132 -2.12132 
C 1.55874 -2.683901 0.795609 -3 0 -3 
C -0.795609 -3 -1.55874 -2.683901 -2.12132 -2.12132 
C -2.683901 -1.55874 -3 -0.795609 -3 0 
C -3 0.795609 -2.683901 1.55874 -2.12132 2.12132 
C -1.55874 2.683901 -0.795609 3 0 3 
z
" id="m33f0cc24ae" style="stroke:#ff0000;"/>
    </defs>
    <g clip-path="url(#p8e07659d5d)">
     <use style="fill:#ff0000;stroke:#ff0000;" x="230.720938" xlink:href="#m33f0cc24ae" y="143.756"/>
    </g>
   </g>
   <g id="patch_65">
    <path d="M 52.160938 276.812 
L 52.160938 10.7 
" style="fill:none;stroke:#000000;stroke-linecap:square;stroke-linejoin:miter;stroke-width:0.8;"/>
   </g>
   <g id="patch_66">
    <path d="M 409.280938 276.812 
L 409.280938 10.7 
" style="fill:none;stroke:#000000;stroke-linecap:square;stroke-linejoin:miter;stroke-width:0.8;"/>
   </g>
   <g id="patch_67">
    <path d="M 52.160938 276.812 
L 409.280938 276.812 
" style="fill:none;stroke:#000000;stroke-linecap:square;stroke-linejoin:miter;stroke-width:0.8;"/>
   </g>
   <g id="patch_68">
    <path d="M 52.160938 10.7 
L 409.280938 10.7 
" style="fill:none;stroke:#000000;stroke-linecap:square;stroke-linejoin:miter;stroke-width:0.8;"/>
   </g>
   <g id="legend_1">
    <g id="patch_69">
     <path d="M 259.340938 273.812 
L 405.080938 273.812 
Q 406.280938 273.812 406.280938 272.612 
L 406.280938 246.551375 
Q 406.280938 245.351375 405.080938 245.351375 
L 259.340938 245.351375 
Q 258.140938 245.351375 258.140938 246.551375 
L 258.140938 272.612 
Q 258.140938 273.812 259.340938 273.812 
z
" style="fill:#ffffff;opacity:0.8;stroke:#cccccc;stroke-linejoin:miter;"/>
    </g>
    <g id="line2d_58">
     <path d="M 260.540938 250.210437 
L 272.540938 250.210437 
" style="fill:none;stroke:#1f77b4;stroke-linecap:square;stroke-width:1.5;"/>
    </g>
    <g id="line2d_59"/>
    <g id="text_17">
     <!-- system nieliniowy -->
     <defs>
      <path d="M 44.28125 53.078125 
L 44.28125 44.578125 
Q 40.484375 46.53125 36.375 47.5 
Q 32.28125 48.484375 27.875 48.484375 
Q 21.1875 48.484375 17.84375 46.4375 
Q 14.5 44.390625 14.5 40.28125 
Q 14.5 37.15625 16.890625 35.375 
Q 19.28125 33.59375 26.515625 31.984375 
L 29.59375 31.296875 
Q 39.15625 29.25 43.1875 25.515625 
Q 47.21875 21.78125 47.21875 15.09375 
Q 47.21875 7.46875 41.1875 3.015625 
Q 35.15625 -1.421875 24.609375 -1.421875 
Q 20.21875 -1.421875 15.453125 -0.5625 
Q 10.6875 0.296875 5.421875 2 
L 5.421875 11.28125 
Q 10.40625 8.6875 15.234375 7.390625 
Q 20.0625 6.109375 24.8125 6.109375 
Q 31.15625 6.109375 34.5625 8.28125 
Q 37.984375 10.453125 37.984375 14.40625 
Q 37.984375 18.0625 35.515625 20.015625 
Q 33.0625 21.96875 24.703125 23.78125 
L 21.578125 24.515625 
Q 13.234375 26.265625 9.515625 29.90625 
Q 5.8125 33.546875 5.8125 39.890625 
Q 5.8125 47.609375 11.28125 51.796875 
Q 16.75 56 26.8125 56 
Q 31.78125 56 36.171875 55.265625 
Q 40.578125 54.546875 44.28125 53.078125 
" id="DejaVuSans-73"/>
      <path d="M 32.171875 -5.078125 
Q 28.375 -14.84375 24.75 -17.8125 
Q 21.140625 -20.796875 15.09375 -20.796875 
L 7.90625 -20.796875 
L 7.90625 -13.28125 
L 13.1875 -13.28125 
Q 16.890625 -13.28125 18.9375 -11.515625 
Q 21 -9.765625 23.484375 -3.21875 
L 25.09375 0.875 
L 2.984375 54.6875 
L 12.5 54.6875 
L 29.59375 11.921875 
L 46.6875 54.6875 
L 56.203125 54.6875 
z
" id="DejaVuSans-79"/>
      <path d="M 18.3125 70.21875 
L 18.3125 54.6875 
L 36.8125 54.6875 
L 36.8125 47.703125 
L 18.3125 47.703125 
L 18.3125 18.015625 
Q 18.3125 11.328125 20.140625 9.421875 
Q 21.96875 7.515625 27.59375 7.515625 
L 36.8125 7.515625 
L 36.8125 0 
L 27.59375 0 
Q 17.1875 0 13.234375 3.875 
Q 9.28125 7.765625 9.28125 18.015625 
L 9.28125 47.703125 
L 2.6875 47.703125 
L 2.6875 54.6875 
L 9.28125 54.6875 
L 9.28125 70.21875 
z
" id="DejaVuSans-74"/>
      <path d="M 56.203125 29.59375 
L 56.203125 25.203125 
L 14.890625 25.203125 
Q 15.484375 15.921875 20.484375 11.0625 
Q 25.484375 6.203125 34.421875 6.203125 
Q 39.59375 6.203125 44.453125 7.46875 
Q 49.3125 8.734375 54.109375 11.28125 
L 54.109375 2.78125 
Q 49.265625 0.734375 44.1875 -0.34375 
Q 39.109375 -1.421875 33.890625 -1.421875 
Q 20.796875 -1.421875 13.15625 6.1875 
Q 5.515625 13.8125 5.515625 26.8125 
Q 5.515625 40.234375 12.765625 48.109375 
Q 20.015625 56 32.328125 56 
Q 43.359375 56 49.78125 48.890625 
Q 56.203125 41.796875 56.203125 29.59375 
M 47.21875 32.234375 
Q 47.125 39.59375 43.09375 43.984375 
Q 39.0625 48.390625 32.421875 48.390625 
Q 24.90625 48.390625 20.390625 44.140625 
Q 15.875 39.890625 15.1875 32.171875 
z
" id="DejaVuSans-65"/>
      <path d="M 52 44.1875 
Q 55.375 50.25 60.0625 53.125 
Q 64.75 56 71.09375 56 
Q 79.640625 56 84.28125 50.015625 
Q 88.921875 44.046875 88.921875 33.015625 
L 88.921875 0 
L 79.890625 0 
L 79.890625 32.71875 
Q 79.890625 40.578125 77.09375 44.375 
Q 74.3125 48.1875 68.609375 48.1875 
Q 61.625 48.1875 57.5625 43.546875 
Q 53.515625 38.921875 53.515625 30.90625 
L 53.515625 0 
L 44.484375 0 
L 44.484375 32.71875 
Q 44.484375 40.625 41.703125 44.40625 
Q 38.921875 48.1875 33.109375 48.1875 
Q 26.21875 48.1875 22.15625 43.53125 
Q 18.109375 38.875 18.109375 30.90625 
L 18.109375 0 
L 9.078125 0 
L 9.078125 54.6875 
L 18.109375 54.6875 
L 18.109375 46.1875 
Q 21.1875 51.21875 25.484375 53.609375 
Q 29.78125 56 35.6875 56 
Q 41.65625 56 45.828125 52.96875 
Q 50 49.953125 52 44.1875 
" id="DejaVuSans-6d"/>
      <path id="DejaVuSans-20"/>
      <path d="M 54.890625 33.015625 
L 54.890625 0 
L 45.90625 0 
L 45.90625 32.71875 
Q 45.90625 40.484375 42.875 44.328125 
Q 39.84375 48.1875 33.796875 48.1875 
Q 26.515625 48.1875 22.3125 43.546875 
Q 18.109375 38.921875 18.109375 30.90625 
L 18.109375 0 
L 9.078125 0 
L 9.078125 54.6875 
L 18.109375 54.6875 
L 18.109375 46.1875 
Q 21.34375 51.125 25.703125 53.5625 
Q 30.078125 56 35.796875 56 
Q 45.21875 56 50.046875 50.171875 
Q 54.890625 44.34375 54.890625 33.015625 
" id="DejaVuSans-6e"/>
      <path d="M 9.421875 54.6875 
L 18.40625 54.6875 
L 18.40625 0 
L 9.421875 0 
z
M 9.421875 75.984375 
L 18.40625 75.984375 
L 18.40625 64.59375 
L 9.421875 64.59375 
z
" id="DejaVuSans-69"/>
      <path d="M 9.421875 75.984375 
L 18.40625 75.984375 
L 18.40625 0 
L 9.421875 0 
z
" id="DejaVuSans-6c"/>
      <path d="M 30.609375 48.390625 
Q 23.390625 48.390625 19.1875 42.75 
Q 14.984375 37.109375 14.984375 27.296875 
Q 14.984375 17.484375 19.15625 11.84375 
Q 23.34375 6.203125 30.609375 6.203125 
Q 37.796875 6.203125 41.984375 11.859375 
Q 46.1875 17.53125 46.1875 27.296875 
Q 46.1875 37.015625 41.984375 42.703125 
Q 37.796875 48.390625 30.609375 48.390625 
M 30.609375 56 
Q 42.328125 56 49.015625 48.375 
Q 55.71875 40.765625 55.71875 27.296875 
Q 55.71875 13.875 49.015625 6.21875 
Q 42.328125 -1.421875 30.609375 -1.421875 
Q 18.84375 -1.421875 12.171875 6.21875 
Q 5.515625 13.875 5.515625 27.296875 
Q 5.515625 40.765625 12.171875 48.375 
Q 18.84375 56 30.609375 56 
" id="DejaVuSans-6f"/>
      <path d="M 4.203125 54.6875 
L 13.1875 54.6875 
L 24.421875 12.015625 
L 35.59375 54.6875 
L 46.1875 54.6875 
L 57.421875 12.015625 
L 68.609375 54.6875 
L 77.59375 54.6875 
L 63.28125 0 
L 52.6875 0 
L 40.921875 44.828125 
L 29.109375 0 
L 18.5 0 
z
" id="DejaVuSans-77"/>
     </defs>
     <g transform="translate(277.340938 252.310437)scale(0.06 -0.06)">
      <use xlink:href="#DejaVuSans-73"/>
      <use x="52.099609" xlink:href="#DejaVuSans-79"/>
      <use x="111.279297" xlink:href="#DejaVuSans-73"/>
      <use x="163.378906" xlink:href="#DejaVuSans-74"/>
      <use x="202.587891" xlink:href="#DejaVuSans-65"/>
      <use x="264.111328" xlink:href="#DejaVuSans-6d"/>
      <use x="361.523438" xlink:href="#DejaVuSans-20"/>
      <use x="393.310547" xlink:href="#DejaVuSans-6e"/>
      <use x="456.689453" xlink:href="#DejaVuSans-69"/>
      <use x="484.472656" xlink:href="#DejaVuSans-65"/>
      <use x="545.996094" xlink:href="#DejaVuSans-6c"/>
      <use x="573.779297" xlink:href="#DejaVuSans-69"/>
      <use x="601.5625" xlink:href="#DejaVuSans-6e"/>
      <use x="664.941406" xlink:href="#DejaVuSans-69"/>
      <use x="692.724609" xlink:href="#DejaVuSans-6f"/>
      <use x="753.90625" xlink:href="#DejaVuSans-77"/>
      <use x="835.693359" xlink:href="#DejaVuSans-79"/>
     </g>
    </g>
    <g id="line2d_60">
     <path d="M 260.540938 259.017312 
L 272.540938 259.017312 
" style="fill:none;stroke:#ff7f0e;stroke-linecap:square;stroke-width:1.5;"/>
    </g>
    <g id="line2d_61"/>
    <g id="text_18">
     <!-- system zlinearyzowany -->
     <defs>
      <path d="M 5.515625 54.6875 
L 48.1875 54.6875 
L 48.1875 46.484375 
L 14.40625 7.171875 
L 48.1875 7.171875 
L 48.1875 0 
L 4.296875 0 
L 4.296875 8.203125 
L 38.09375 47.515625 
L 5.515625 47.515625 
z
" id="DejaVuSans-7a"/>
      <path d="M 34.28125 27.484375 
Q 23.390625 27.484375 19.1875 25 
Q 14.984375 22.515625 14.984375 16.5 
Q 14.984375 11.71875 18.140625 8.90625 
Q 21.296875 6.109375 26.703125 6.109375 
Q 34.1875 6.109375 38.703125 11.40625 
Q 43.21875 16.703125 43.21875 25.484375 
L 43.21875 27.484375 
z
M 52.203125 31.203125 
L 52.203125 0 
L 43.21875 0 
L 43.21875 8.296875 
Q 40.140625 3.328125 35.546875 0.953125 
Q 30.953125 -1.421875 24.3125 -1.421875 
Q 15.921875 -1.421875 10.953125 3.296875 
Q 6 8.015625 6 15.921875 
Q 6 25.140625 12.171875 29.828125 
Q 18.359375 34.515625 30.609375 34.515625 
L 43.21875 34.515625 
L 43.21875 35.40625 
Q 43.21875 41.609375 39.140625 45 
Q 35.0625 48.390625 27.6875 48.390625 
Q 23 48.390625 18.546875 47.265625 
Q 14.109375 46.140625 10.015625 43.890625 
L 10.015625 52.203125 
Q 14.9375 54.109375 19.578125 55.046875 
Q 24.21875 56 28.609375 56 
Q 40.484375 56 46.34375 49.84375 
Q 52.203125 43.703125 52.203125 31.203125 
" id="DejaVuSans-61"/>
      <path d="M 41.109375 46.296875 
Q 39.59375 47.171875 37.8125 47.578125 
Q 36.03125 48 33.890625 48 
Q 26.265625 48 22.1875 43.046875 
Q 18.109375 38.09375 18.109375 28.8125 
L 18.109375 0 
L 9.078125 0 
L 9.078125 54.6875 
L 18.109375 54.6875 
L 18.109375 46.1875 
Q 20.953125 51.171875 25.484375 53.578125 
Q 30.03125 56 36.53125 56 
Q 37.453125 56 38.578125 55.875 
Q 39.703125 55.765625 41.0625 55.515625 
z
" id="DejaVuSans-72"/>
     </defs>
     <g transform="translate(277.340938 261.117312)scale(0.06 -0.06)">
      <use xlink:href="#DejaVuSans-73"/>
      <use x="52.099609" xlink:href="#DejaVuSans-79"/>
      <use x="111.279297" xlink:href="#DejaVuSans-73"/>
      <use x="163.378906" xlink:href="#DejaVuSans-74"/>
      <use x="202.587891" xlink:href="#DejaVuSans-65"/>
      <use x="264.111328" xlink:href="#DejaVuSans-6d"/>
      <use x="361.523438" xlink:href="#DejaVuSans-20"/>
      <use x="393.310547" xlink:href="#DejaVuSans-7a"/>
      <use x="445.800781" xlink:href="#DejaVuSans-6c"/>
      <use x="473.583984" xlink:href="#DejaVuSans-69"/>
      <use x="501.367188" xlink:href="#DejaVuSans-6e"/>
      <use x="564.746094" xlink:href="#DejaVuSans-65"/>
      <use x="626.269531" xlink:href="#DejaVuSans-61"/>
      <use x="687.548828" xlink:href="#DejaVuSans-72"/>
      <use x="728.662109" xlink:href="#DejaVuSans-79"/>
      <use x="787.841797" xlink:href="#DejaVuSans-7a"/>
      <use x="840.332031" xlink:href="#DejaVuSans-6f"/>
      <use x="901.513672" xlink:href="#DejaVuSans-77"/>
      <use x="983.300781" xlink:href="#DejaVuSans-61"/>
      <use x="1044.580078" xlink:href="#DejaVuSans-6e"/>
      <use x="1107.958984" xlink:href="#DejaVuSans-79"/>
     </g>
    </g>
    <g id="line2d_62"/>
    <g id="line2d_63">
     <g>
      <use style="fill:#ff0000;stroke:#ff0000;" x="266.540938" xlink:href="#m33f0cc24ae" y="268.064187"/>
     </g>
    </g>
    <g id="text_19">
     <!-- Punkt równowagi asymptotycznie stabilny -->
     <defs>
      <path d="M 19.671875 64.796875 
L 19.671875 37.40625 
L 32.078125 37.40625 
Q 38.96875 37.40625 42.71875 40.96875 
Q 46.484375 44.53125 46.484375 51.125 
Q 46.484375 57.671875 42.71875 61.234375 
Q 38.96875 64.796875 32.078125 64.796875 
z
M 9.8125 72.90625 
L 32.078125 72.90625 
Q 44.34375 72.90625 50.609375 67.359375 
Q 56.890625 61.8125 56.890625 51.125 
Q 56.890625 40.328125 50.609375 34.8125 
Q 44.34375 29.296875 32.078125 29.296875 
L 19.671875 29.296875 
L 19.671875 0 
L 9.8125 0 
z
" id="DejaVuSans-50"/>
      <path d="M 8.5 21.578125 
L 8.5 54.6875 
L 17.484375 54.6875 
L 17.484375 21.921875 
Q 17.484375 14.15625 20.5 10.265625 
Q 23.53125 6.390625 29.59375 6.390625 
Q 36.859375 6.390625 41.078125 11.03125 
Q 45.3125 15.671875 45.3125 23.6875 
L 45.3125 54.6875 
L 54.296875 54.6875 
L 54.296875 0 
L 45.3125 0 
L 45.3125 8.40625 
Q 42.046875 3.421875 37.71875 1 
Q 33.40625 -1.421875 27.6875 -1.421875 
Q 18.265625 -1.421875 13.375 4.4375 
Q 8.5 10.296875 8.5 21.578125 
M 31.109375 56 
z
" id="DejaVuSans-75"/>
      <path d="M 9.078125 75.984375 
L 18.109375 75.984375 
L 18.109375 31.109375 
L 44.921875 54.6875 
L 56.390625 54.6875 
L 27.390625 29.109375 
L 57.625 0 
L 45.90625 0 
L 18.109375 26.703125 
L 18.109375 0 
L 9.078125 0 
z
" id="DejaVuSans-6b"/>
      <path d="M 30.609375 48.390625 
Q 23.390625 48.390625 19.1875 42.75 
Q 14.984375 37.109375 14.984375 27.296875 
Q 14.984375 17.484375 19.15625 11.84375 
Q 23.34375 6.203125 30.609375 6.203125 
Q 37.796875 6.203125 41.984375 11.859375 
Q 46.1875 17.53125 46.1875 27.296875 
Q 46.1875 37.015625 41.984375 42.703125 
Q 37.796875 48.390625 30.609375 48.390625 
M 30.609375 56 
Q 42.328125 56 49.015625 48.375 
Q 55.71875 40.765625 55.71875 27.296875 
Q 55.71875 13.875 49.015625 6.21875 
Q 42.328125 -1.421875 30.609375 -1.421875 
Q 18.84375 -1.421875 12.171875 6.21875 
Q 5.515625 13.875 5.515625 27.296875 
Q 5.515625 40.765625 12.171875 48.375 
Q 18.84375 56 30.609375 56 
M 37.40625 79.984375 
L 47.125 79.984375 
L 31.21875 61.625 
L 23.734375 61.625 
z
" id="DejaVuSans-f3"/>
      <path d="M 45.40625 27.984375 
Q 45.40625 37.75 41.375 43.109375 
Q 37.359375 48.484375 30.078125 48.484375 
Q 22.859375 48.484375 18.828125 43.109375 
Q 14.796875 37.75 14.796875 27.984375 
Q 14.796875 18.265625 18.828125 12.890625 
Q 22.859375 7.515625 30.078125 7.515625 
Q 37.359375 7.515625 41.375 12.890625 
Q 45.40625 18.265625 45.40625 27.984375 
M 54.390625 6.78125 
Q 54.390625 -7.171875 48.1875 -13.984375 
Q 42 -20.796875 29.203125 -20.796875 
Q 24.46875 -20.796875 20.265625 -20.09375 
Q 16.0625 -19.390625 12.109375 -17.921875 
L 12.109375 -9.1875 
Q 16.0625 -11.328125 19.921875 -12.34375 
Q 23.78125 -13.375 27.78125 -13.375 
Q 36.625 -13.375 41.015625 -8.765625 
Q 45.40625 -4.15625 45.40625 5.171875 
L 45.40625 9.625 
Q 42.625 4.78125 38.28125 2.390625 
Q 33.9375 0 27.875 0 
Q 17.828125 0 11.671875 7.65625 
Q 5.515625 15.328125 5.515625 27.984375 
Q 5.515625 40.671875 11.671875 48.328125 
Q 17.828125 56 27.875 56 
Q 33.9375 56 38.28125 53.609375 
Q 42.625 51.21875 45.40625 46.390625 
L 45.40625 54.6875 
L 54.390625 54.6875 
z
" id="DejaVuSans-67"/>
      <path d="M 18.109375 8.203125 
L 18.109375 -20.796875 
L 9.078125 -20.796875 
L 9.078125 54.6875 
L 18.109375 54.6875 
L 18.109375 46.390625 
Q 20.953125 51.265625 25.265625 53.625 
Q 29.59375 56 35.59375 56 
Q 45.5625 56 51.78125 48.09375 
Q 58.015625 40.1875 58.015625 27.296875 
Q 58.015625 14.40625 51.78125 6.484375 
Q 45.5625 -1.421875 35.59375 -1.421875 
Q 29.59375 -1.421875 25.265625 0.953125 
Q 20.953125 3.328125 18.109375 8.203125 
M 48.6875 27.296875 
Q 48.6875 37.203125 44.609375 42.84375 
Q 40.53125 48.484375 33.40625 48.484375 
Q 26.265625 48.484375 22.1875 42.84375 
Q 18.109375 37.203125 18.109375 27.296875 
Q 18.109375 17.390625 22.1875 11.75 
Q 26.265625 6.109375 33.40625 6.109375 
Q 40.53125 6.109375 44.609375 11.75 
Q 48.6875 17.390625 48.6875 27.296875 
" id="DejaVuSans-70"/>
      <path d="M 48.78125 52.59375 
L 48.78125 44.1875 
Q 44.96875 46.296875 41.140625 47.34375 
Q 37.3125 48.390625 33.40625 48.390625 
Q 24.65625 48.390625 19.8125 42.84375 
Q 14.984375 37.3125 14.984375 27.296875 
Q 14.984375 17.28125 19.8125 11.734375 
Q 24.65625 6.203125 33.40625 6.203125 
Q 37.3125 6.203125 41.140625 7.25 
Q 44.96875 8.296875 48.78125 10.40625 
L 48.78125 2.09375 
Q 45.015625 0.34375 40.984375 -0.53125 
Q 36.96875 -1.421875 32.421875 -1.421875 
Q 20.0625 -1.421875 12.78125 6.34375 
Q 5.515625 14.109375 5.515625 27.296875 
Q 5.515625 40.671875 12.859375 48.328125 
Q 20.21875 56 33.015625 56 
Q 37.15625 56 41.109375 55.140625 
Q 45.0625 54.296875 48.78125 52.59375 
" id="DejaVuSans-63"/>
      <path d="M 48.6875 27.296875 
Q 48.6875 37.203125 44.609375 42.84375 
Q 40.53125 48.484375 33.40625 48.484375 
Q 26.265625 48.484375 22.1875 42.84375 
Q 18.109375 37.203125 18.109375 27.296875 
Q 18.109375 17.390625 22.1875 11.75 
Q 26.265625 6.109375 33.40625 6.109375 
Q 40.53125 6.109375 44.609375 11.75 
Q 48.6875 17.390625 48.6875 27.296875 
M 18.109375 46.390625 
Q 20.953125 51.265625 25.265625 53.625 
Q 29.59375 56 35.59375 56 
Q 45.5625 56 51.78125 48.09375 
Q 58.015625 40.1875 58.015625 27.296875 
Q 58.015625 14.40625 51.78125 6.484375 
Q 45.5625 -1.421875 35.59375 -1.421875 
Q 29.59375 -1.421875 25.265625 0.953125 
Q 20.953125 3.328125 18.109375 8.203125 
L 18.109375 0 
L 9.078125 0 
L 9.078125 75.984375 
L 18.109375 75.984375 
z
" id="DejaVuSans-62"/>
     </defs>
     <g transform="translate(277.340938 270.164187)scale(0.06 -0.06)">
      <use xlink:href="#DejaVuSans-50"/>
      <use x="60.287109" xlink:href="#DejaVuSans-75"/>
      <use x="123.666016" xlink:href="#DejaVuSans-6e"/>
      <use x="187.044922" xlink:href="#DejaVuSans-6b"/>
      <use x="244.955078" xlink:href="#DejaVuSans-74"/>
      <use x="284.164062" xlink:href="#DejaVuSans-20"/>
      <use x="315.951172" xlink:href="#DejaVuSans-72"/>
      <use x="357.033203" xlink:href="#DejaVuSans-f3"/>
      <use x="418.214844" xlink:href="#DejaVuSans-77"/>
      <use x="500.001953" xlink:href="#DejaVuSans-6e"/>
      <use x="563.380859" xlink:href="#DejaVuSans-6f"/>
      <use x="624.5625" xlink:href="#DejaVuSans-77"/>
      <use x="706.349609" xlink:href="#DejaVuSans-61"/>
      <use x="767.628906" xlink:href="#DejaVuSans-67"/>
      <use x="831.105469" xlink:href="#DejaVuSans-69"/>
      <use x="858.888672" xlink:href="#DejaVuSans-20"/>
      <use x="890.675781" xlink:href="#DejaVuSans-61"/>
      <use x="951.955078" xlink:href="#DejaVuSans-73"/>
      <use x="1004.054688" xlink:href="#DejaVuSans-79"/>
      <use x="1063.234375" xlink:href="#DejaVuSans-6d"/>
      <use x="1160.646484" xlink:href="#DejaVuSans-70"/>
      <use x="1224.123047" xlink:href="#DejaVuSans-74"/>
      <use x="1263.332031" xlink:href="#DejaVuSans-6f"/>
      <use x="1324.513672" xlink:href="#DejaVuSans-74"/>
      <use x="1363.722656" xlink:href="#DejaVuSans-79"/>
      <use x="1422.902344" xlink:href="#DejaVuSans-63"/>
      <use x="1477.882812" xlink:href="#DejaVuSans-7a"/>
      <use x="1530.373047" xlink:href="#DejaVuSans-6e"/>
      <use x="1593.751953" xlink:href="#DejaVuSans-69"/>
      <use x="1621.535156" xlink:href="#DejaVuSans-65"/>
      <use x="1683.058594" xlink:href="#DejaVuSans-20"/>
      <use x="1714.845703" xlink:href="#DejaVuSans-73"/>
      <use x="1766.945312" xlink:href="#DejaVuSans-74"/>
      <use x="1806.154297" xlink:href="#DejaVuSans-61"/>
      <use x="1867.433594" xlink:href="#DejaVuSans-62"/>
      <use x="1930.910156" xlink:href="#DejaVuSans-69"/>
      <use x="1958.693359" xlink:href="#DejaVuSans-6c"/>
      <use x="1986.476562" xlink:href="#DejaVuSans-6e"/>
      <use x="2049.855469" xlink:href="#DejaVuSans-79"/>
     </g>
    </g>
   </g>
  </g>
 </g>
 <defs>
  <clipPath id="p8e07659d5d">
   <rect height="266.112" width="357.12" x="52.160938" y="10.7"/>
  </clipPath>
 </defs>
</svg>
