<?xml version="1.0" encoding="utf-8" standalone="no"?>
<!DOCTYPE svg PUBLIC "-//W3C//DTD SVG 1.1//EN"
  "http://www.w3.org/Graphics/SVG/1.1/DTD/svg11.dtd">
<!-- Created with matplotlib (http://matplotlib.org/) -->
<svg height="314pt" version="1.1" viewBox="0 0 427 314" width="427pt" xmlns="http://www.w3.org/2000/svg" xmlns:xlink="http://www.w3.org/1999/xlink">
 <defs>
  <style type="text/css">
*{stroke-linecap:butt;stroke-linejoin:round;}
  </style>
 </defs>
 <g id="figure_1">
  <g id="patch_1">
   <path d="M 0 314.36825 
L 427.61375 314.36825 
L 427.61375 0 
L 0 0 
z
" style="fill:#ffffff;"/>
  </g>
  <g id="axes_1">
   <g id="patch_2">
    <path d="M 52.160938 276.812 
L 409.280938 276.812 
L 409.280938 10.7 
L 52.160938 10.7 
z
" style="fill:#ffffff;"/>
   </g>
   <g id="patch_3">
    <path clip-path="url(#pa1ab574bb5)" d="M 239.29981 49.803065 
L 235.349923 43.789457 
L 237.668947 42.678263 
L 237.838269 42.593713 
L 237.838937 42.59681 
L 240.157962 41.485616 
z
" style="fill:#1f77b4;stroke:#1f77b4;stroke-linejoin:miter;"/>
   </g>
   <g id="patch_4">
    <path clip-path="url(#pa1ab574bb5)" d="M 252.241609 115.879842 
L 248.535418 109.531029 
L 250.894214 108.624644 
L 251.066888 108.556866 
L 251.067119 108.558203 
L 253.425915 107.651818 
z
" style="fill:#1f77b4;stroke:#1f77b4;stroke-linejoin:miter;"/>
   </g>
   <g id="patch_5">
    <path clip-path="url(#pa1ab574bb5)" d="M 305.386417 93.173912 
L 301.900611 86.553654 
L 304.287168 85.826371 
L 304.461729 85.770293 
L 304.462108 85.773059 
L 306.848665 85.045777 
z
" style="fill:#1f77b4;stroke:#1f77b4;stroke-linejoin:miter;"/>
   </g>
   <g id="patch_6">
    <path clip-path="url(#pa1ab574bb5)" d="M 298.926299 176.542037 
L 301.817825 169.313934 
L 303.131387 172.371224 
L 303.227867 172.595146 
L 303.227674 172.59533 
L 304.541235 175.65262 
z
" style="fill:#1f77b4;stroke:#1f77b4;stroke-linejoin:miter;"/>
   </g>
   <g id="patch_7">
    <path clip-path="url(#pa1ab574bb5)" d="M 376.632728 60.020042 
L 373.195532 53.343571 
L 375.587264 52.655086 
L 375.761988 52.60002 
L 375.762584 52.604619 
L 378.154317 51.916134 
z
" style="fill:#1f77b4;stroke:#1f77b4;stroke-linejoin:miter;"/>
   </g>
   <g id="patch_8">
    <path clip-path="url(#pa1ab574bb5)" d="M 344.646324 199.740848 
L 349.935111 196.793018 
L 349.67797 200.40307 
L 349.659502 200.667756 
L 349.659121 200.667696 
L 349.401981 204.277748 
z
" style="fill:#1f77b4;stroke:#1f77b4;stroke-linejoin:miter;"/>
   </g>
   <g id="patch_9">
    <path clip-path="url(#pa1ab574bb5)" d="M 410.161424 64.242621 
L 406.794907 57.486636 
L 409.19359 56.854136 
L 409.368852 56.802995 
L 409.369419 56.807772 
L 411.768103 56.175272 
z
" style="fill:#1f77b4;stroke:#1f77b4;stroke-linejoin:miter;"/>
   </g>
   <g id="patch_10">
    <path clip-path="url(#pa1ab574bb5)" d="M 409.784586 117.554144 
L 406.76851 110.439986 
L 409.192317 110.078111 
L 409.369773 110.048382 
L 409.369988 110.051584 
L 411.793796 109.689709 
z
" style="fill:#1f77b4;stroke:#1f77b4;stroke-linejoin:miter;"/>
   </g>
   <g id="patch_11">
    <path clip-path="url(#pa1ab574bb5)" d="M 380.495698 209.011721 
L 385.082854 204.10458 
L 385.468361 207.689166 
L 385.49705 207.951821 
L 385.49662 207.951924 
L 385.882128 211.53651 
z
" style="fill:#1f77b4;stroke:#1f77b4;stroke-linejoin:miter;"/>
   </g>
   <g id="patch_12">
    <path clip-path="url(#pa1ab574bb5)" d="M 302.77738 182.933715 
L 308.360733 181.678084 
L 307.608637 185.131053 
L 307.553785 185.384298 
L 307.553507 185.384164 
L 306.801411 188.837134 
z
" style="fill:#1f77b4;stroke:#1f77b4;stroke-linejoin:miter;"/>
   </g>
   <g id="patch_13">
    <path clip-path="url(#pa1ab574bb5)" d="M 353.670011 204.848366 
L 359.134814 202.730431 
L 358.628848 206.281592 
L 358.59218 206.542033 
L 358.59176 206.5419 
L 358.085794 210.093061 
z
" style="fill:#1f77b4;stroke:#1f77b4;stroke-linejoin:miter;"/>
   </g>
   <g id="patch_14">
    <path clip-path="url(#pa1ab574bb5)" d="M 294.366249 178.713204 
L 299.958327 177.547002 
L 299.181394 180.987735 
L 299.124693 181.240075 
L 299.124443 181.239949 
L 298.347509 184.680683 
z
" style="fill:#1f77b4;stroke:#1f77b4;stroke-linejoin:miter;"/>
   </g>
   <g id="patch_15">
    <path clip-path="url(#pa1ab574bb5)" d="M 379.096623 226.268224 
L 384.691811 227.400816 
L 383.319099 230.399834 
L 383.219056 230.620259 
L 383.218476 230.619669 
L 381.845764 233.618687 
z
" style="fill:#1f77b4;stroke:#1f77b4;stroke-linejoin:miter;"/>
   </g>
   <g id="patch_16">
    <path clip-path="url(#pa1ab574bb5)" d="M 297.044636 180.101517 
L 302.636933 178.937638 
L 301.859355 182.378049 
L 301.802617 182.630369 
L 301.802357 182.630239 
L 301.02478 186.07065 
z
" style="fill:#1f77b4;stroke:#1f77b4;stroke-linejoin:miter;"/>
   </g>
   <g id="patch_17">
    <path clip-path="url(#pa1ab574bb5)" d="M 309.31399 227.657148 
L 314.050406 232.238535 
L 311.950453 234.078342 
L 311.797123 234.214729 
L 311.796521 234.213204 
L 309.696567 236.053011 
z
" style="fill:#1f77b4;stroke:#1f77b4;stroke-linejoin:miter;"/>
   </g>
   <g id="patch_18">
    <path clip-path="url(#pa1ab574bb5)" d="M 277.203871 172.174531 
L 282.768525 173.602679 
L 281.325182 176.527117 
L 281.219602 176.741726 
L 281.219382 176.741485 
L 279.776039 179.665923 
z
" style="fill:#1f77b4;stroke:#1f77b4;stroke-linejoin:miter;"/>
   </g>
   <g id="patch_19">
    <path clip-path="url(#pa1ab574bb5)" d="M 255.359402 256.281602 
L 259.494349 262.012253 
L 257.212881 263.284457 
L 257.046436 263.380866 
L 257.045645 263.377713 
L 254.764177 264.649917 
z
" style="fill:#1f77b4;stroke:#1f77b4;stroke-linejoin:miter;"/>
   </g>
   <g id="patch_20">
    <path clip-path="url(#pa1ab574bb5)" d="M 241.607691 201.129539 
L 245.725611 206.887357 
L 243.440395 208.144528 
L 243.27331 208.238404 
L 243.272883 208.236682 
L 240.987667 209.493854 
z
" style="fill:#1f77b4;stroke:#1f77b4;stroke-linejoin:miter;"/>
   </g>
   <g id="patch_21">
    <path clip-path="url(#pa1ab574bb5)" d="M 189.1753 214.904303 
L 192.908823 221.217447 
L 190.553989 222.146432 
L 190.381891 222.217436 
L 190.381374 222.214528 
L 188.02654 223.143513 
z
" style="fill:#1f77b4;stroke:#1f77b4;stroke-linejoin:miter;"/>
   </g>
   <g id="patch_22">
    <path clip-path="url(#pa1ab574bb5)" d="M 180.41184 146.55831 
L 183.404516 153.694382 
L 180.979549 154.038574 
L 180.801859 154.064831 
L 180.801794 154.063804 
L 178.376827 154.407995 
z
" style="fill:#1f77b4;stroke:#1f77b4;stroke-linejoin:miter;"/>
   </g>
   <g id="patch_23">
    <path clip-path="url(#pa1ab574bb5)" d="M 125.760463 222.667126 
L 129.273841 229.254933 
L 126.890366 230.004332 
L 126.716217 230.063259 
L 126.715652 230.059264 
L 124.332177 230.808663 
z
" style="fill:#1f77b4;stroke:#1f77b4;stroke-linejoin:miter;"/>
   </g>
   <g id="patch_24">
    <path clip-path="url(#pa1ab574bb5)" d="M 159.311239 105.457914 
L 153.794085 107.249206 
L 154.394722 103.730959 
L 154.438481 103.472962 
L 154.43875 103.473064 
L 155.039387 99.954817 
z
" style="fill:#1f77b4;stroke:#1f77b4;stroke-linejoin:miter;"/>
   </g>
   <g id="patch_25">
    <path clip-path="url(#pa1ab574bb5)" d="M 51.145424 258.863545 
L 54.633862 265.480724 
L 52.247595 266.210115 
L 52.073478 266.26941 
L 52.072676 266.263581 
L 49.686408 266.992971 
z
" style="fill:#1f77b4;stroke:#1f77b4;stroke-linejoin:miter;"/>
   </g>
   <g id="patch_26">
    <path clip-path="url(#pa1ab574bb5)" d="M 51.443703 194.665262 
L 54.660212 201.581667 
L 52.248935 202.096955 
L 52.072561 202.138659 
L 52.072183 202.134726 
L 49.660906 202.650014 
z
" style="fill:#1f77b4;stroke:#1f77b4;stroke-linejoin:miter;"/>
   </g>
   <g id="patch_27">
    <path clip-path="url(#pa1ab574bb5)" d="M 51.966485 147.257596 
L 54.684221 154.633952 
L 52.250086 154.773681 
L 52.071724 154.786456 
L 52.071658 154.783924 
L 49.637523 154.923652 
z
" style="fill:#1f77b4;stroke:#1f77b4;stroke-linejoin:miter;"/>
   </g>
   <g id="patch_28">
    <path clip-path="url(#pa1ab574bb5)" d="M 69.766961 79.835093 
L 66.390224 86.579742 
L 65.295445 83.336702 
L 65.214787 83.099285 
L 65.215195 83.09898 
L 64.120415 79.855941 
z
" style="fill:#1f77b4;stroke:#1f77b4;stroke-linejoin:miter;"/>
   </g>
   <g id="patch_29">
    <path clip-path="url(#pa1ab574bb5)" d="M 151.533326 101.105768 
L 145.958425 102.442204 
L 146.687969 98.978505 
L 146.741146 98.724467 
L 146.741446 98.724608 
L 147.470991 95.260909 
z
" style="fill:#1f77b4;stroke:#1f77b4;stroke-linejoin:miter;"/>
   </g>
   <g id="patch_30">
    <path clip-path="url(#pa1ab574bb5)" d="M 79.721493 70.597803 
L 74.167452 72.114931 
L 74.846189 68.628367 
L 74.895438 68.372575 
L 74.895942 68.372794 
L 75.574679 64.886229 
z
" style="fill:#1f77b4;stroke:#1f77b4;stroke-linejoin:miter;"/>
   </g>
   <g id="patch_31">
    <path clip-path="url(#pa1ab574bb5)" d="M 163.943954 107.202013 
L 158.35401 108.390728 
L 159.124703 104.946878 
L 159.180936 104.694306 
L 159.181197 104.694436 
L 159.95189 101.250586 
z
" style="fill:#1f77b4;stroke:#1f77b4;stroke-linejoin:miter;"/>
   </g>
   <g id="patch_32">
    <path clip-path="url(#pa1ab574bb5)" d="M 110.954687 51.288857 
L 105.850909 47.688835 
L 107.767653 45.448442 
L 107.907499 45.282969 
L 107.908155 45.284216 
L 109.824899 43.043823 
z
" style="fill:#1f77b4;stroke:#1f77b4;stroke-linejoin:miter;"/>
   </g>
   <g id="patch_33">
    <path clip-path="url(#pa1ab574bb5)" d="M 175.185311 112.842215 
L 169.571088 113.741574 
L 170.421382 110.339588 
L 170.483486 110.09009 
L 170.48371 110.090214 
L 171.334004 106.688228 
z
" style="fill:#1f77b4;stroke:#1f77b4;stroke-linejoin:miter;"/>
   </g>
   <g id="patch_34">
    <path clip-path="url(#pa1ab574bb5)" d="M 184.687347 62.111675 
L 180.295717 56.822129 
L 182.512501 55.317217 
L 182.674409 55.204982 
L 182.674996 55.206903 
L 184.891779 53.701991 
z
" style="fill:#1f77b4;stroke:#1f77b4;stroke-linejoin:miter;"/>
   </g>
   <g id="patch_35">
    <path clip-path="url(#pa1ab574bb5)" d="M 205.50976 120.928035 
L 200.669699 116.593915 
L 202.72563 114.646803 
L 202.87614 114.503619 
L 202.876334 114.504075 
L 204.932264 112.556962 
z
" style="fill:#1f77b4;stroke:#1f77b4;stroke-linejoin:miter;"/>
   </g>
   <g id="patch_36">
    <path clip-path="url(#pa1ab574bb5)" d="M 236.434189 36.542021 
L 232.465007 30.556699 
L 234.78043 29.428951 
L 234.949401 29.342838 
L 234.950156 29.346285 
L 237.26558 28.218538 
z
" style="fill:#1f77b4;stroke:#1f77b4;stroke-linejoin:miter;"/>
   </g>
   <g id="patch_37">
    <path clip-path="url(#pa1ab574bb5)" d="M 253.414738 123.414009 
L 249.78511 116.9677 
L 252.154378 116.124152 
L 252.327869 116.061184 
L 252.32805 116.062318 
L 254.697318 115.218771 
z
" style="fill:#1f77b4;stroke:#1f77b4;stroke-linejoin:miter;"/>
   </g>
   <g id="patch_38">
    <path clip-path="url(#pa1ab574bb5)" d="M 237.18443 39.991277 
L 233.219894 33.999119 
L 235.536191 32.875362 
L 235.705248 32.789633 
L 235.705981 32.792988 
L 238.022278 31.669232 
z
" style="fill:#ff7f0e;stroke:#ff7f0e;stroke-linejoin:miter;"/>
   </g>
   <g id="patch_39">
    <path clip-path="url(#pa1ab574bb5)" d="M 254.028687 127.803121 
L 250.459073 121.282806 
L 252.835922 120.488048 
L 253.009998 120.428774 
L 253.010151 120.42979 
L 255.387001 119.635031 
z
" style="fill:#ff7f0e;stroke:#ff7f0e;stroke-linejoin:miter;"/>
   </g>
   <g id="patch_40">
    <path clip-path="url(#pa1ab574bb5)" d="M 300.623049 60.933581 
L 296.98853 54.493397 
L 299.357155 53.645854 
L 299.530188 53.58005 
L 299.530781 53.583728 
L 301.899406 52.736185 
z
" style="fill:#ff7f0e;stroke:#ff7f0e;stroke-linejoin:miter;"/>
   </g>
   <g id="patch_41">
    <path clip-path="url(#pa1ab574bb5)" d="M 280.348395 171.532502 
L 285.882236 169.859436 
L 285.24777 173.364469 
L 285.201462 173.621476 
L 285.201262 173.621396 
L 284.566796 177.126429 
z
" style="fill:#ff7f0e;stroke:#ff7f0e;stroke-linejoin:miter;"/>
   </g>
   <g id="patch_42">
    <path clip-path="url(#pa1ab574bb5)" d="M 377.629174 71.017987 
L 374.282513 64.240125 
L 376.68303 63.623265 
L 376.858471 63.57353 
L 376.858993 63.578048 
L 379.25951 62.961187 
z
" style="fill:#ff7f0e;stroke:#ff7f0e;stroke-linejoin:miter;"/>
   </g>
   <g id="patch_43">
    <path clip-path="url(#pa1ab574bb5)" d="M 336.398011 201.482857 
L 341.881319 199.473954 
L 341.343553 203.01472 
L 341.304532 203.2744 
L 341.304134 203.274266 
L 340.766368 206.815033 
z
" style="fill:#ff7f0e;stroke:#ff7f0e;stroke-linejoin:miter;"/>
   </g>
   <g id="patch_44">
    <path clip-path="url(#pa1ab574bb5)" d="M 410.090648 64.260928 
L 406.788903 57.434315 
L 409.193377 56.852689 
L 409.369064 56.804859 
L 409.36963 56.810054 
L 411.774104 56.228428 
z
" style="fill:#ff7f0e;stroke:#ff7f0e;stroke-linejoin:miter;"/>
   </g>
   <g id="patch_45">
    <path clip-path="url(#pa1ab574bb5)" d="M 409.724266 117.563021 
L 406.76567 110.395456 
L 409.192216 110.076938 
L 409.369873 110.049971 
L 409.370087 110.05359 
L 411.796633 109.735072 
z
" style="fill:#ff7f0e;stroke:#ff7f0e;stroke-linejoin:miter;"/>
   </g>
   <g id="patch_46">
    <path clip-path="url(#pa1ab574bb5)" d="M 383.844725 217.012164 
L 387.95018 211.234609 
L 388.65398 214.710119 
L 388.706047 214.964668 
L 388.70557 214.964882 
L 389.40937 218.440393 
z
" style="fill:#ff7f0e;stroke:#ff7f0e;stroke-linejoin:miter;"/>
   </g>
   <g id="patch_47">
    <path clip-path="url(#pa1ab574bb5)" d="M 324.230683 196.599435 
L 329.834847 195.570126 
L 329.020139 198.9914 
L 328.96079 199.242383 
L 328.960419 199.242187 
L 328.145711 202.66346 
z
" style="fill:#ff7f0e;stroke:#ff7f0e;stroke-linejoin:miter;"/>
   </g>
   <g id="patch_48">
    <path clip-path="url(#pa1ab574bb5)" d="M 379.896284 220.185858 
L 384.93874 216.398765 
L 384.946417 220.029083 
L 384.947492 220.295192 
L 384.946979 220.295194 
L 384.954656 223.925512 
z
" style="fill:#ff7f0e;stroke:#ff7f0e;stroke-linejoin:miter;"/>
   </g>
   <g id="patch_49">
    <path clip-path="url(#pa1ab574bb5)" d="M 306.138128 186.621056 
L 311.754013 185.74504 
L 310.897355 189.143478 
L 310.834865 189.392762 
L 310.83456 189.392592 
L 309.977902 192.79103 
z
" style="fill:#ff7f0e;stroke:#ff7f0e;stroke-linejoin:miter;"/>
   </g>
   <g id="patch_50">
    <path clip-path="url(#pa1ab574bb5)" d="M 373.346265 230.153416 
L 378.985263 230.588885 
L 377.78459 233.747591 
L 377.697181 233.97964 
L 377.696578 233.979131 
L 376.495906 237.137838 
z
" style="fill:#ff7f0e;stroke:#ff7f0e;stroke-linejoin:miter;"/>
   </g>
   <g id="patch_51">
    <path clip-path="url(#pa1ab574bb5)" d="M 284.243101 174.229197 
L 289.8626 173.406275 
L 288.991498 176.796549 
L 288.927867 177.045191 
L 288.927644 177.045064 
L 288.056542 180.435337 
z
" style="fill:#ff7f0e;stroke:#ff7f0e;stroke-linejoin:miter;"/>
   </g>
   <g id="patch_52">
    <path clip-path="url(#pa1ab574bb5)" d="M 318.294234 251.688616 
L 322.937062 256.478054 
L 320.801298 258.223904 
L 320.645503 258.353948 
L 320.644742 258.351879 
L 318.508977 260.097728 
z
" style="fill:#ff7f0e;stroke:#ff7f0e;stroke-linejoin:miter;"/>
   </g>
   <g id="patch_53">
    <path clip-path="url(#pa1ab574bb5)" d="M 267.151871 164.89747 
L 272.797425 165.056491 
L 271.667063 168.272303 
L 271.584369 168.508158 
L 271.584204 168.508029 
L 270.453842 171.723841 
z
" style="fill:#ff7f0e;stroke:#ff7f0e;stroke-linejoin:miter;"/>
   </g>
   <g id="patch_54">
    <path clip-path="url(#pa1ab574bb5)" d="M 251.607028 241.320949 
L 255.739449 247.055644 
L 253.457422 248.325616 
L 253.290836 248.421472 
L 253.290144 248.418708 
L 251.008116 249.688679 
z
" style="fill:#ff7f0e;stroke:#ff7f0e;stroke-linejoin:miter;"/>
   </g>
   <g id="patch_55">
    <path clip-path="url(#pa1ab574bb5)" d="M 235.219288 175.035212 
L 239.313886 180.829855 
L 237.023634 182.06651 
L 236.856008 182.158204 
L 236.855754 182.15716 
L 234.565502 183.393815 
z
" style="fill:#ff7f0e;stroke:#ff7f0e;stroke-linejoin:miter;"/>
   </g>
   <g id="patch_56">
    <path clip-path="url(#pa1ab574bb5)" d="M 188.676301 211.943047 
L 192.396712 218.273361 
L 190.039962 219.191492 
L 189.867703 219.261626 
L 189.867206 219.258794 
L 187.510457 220.176925 
z
" style="fill:#ff7f0e;stroke:#ff7f0e;stroke-linejoin:miter;"/>
   </g>
   <g id="patch_57">
    <path clip-path="url(#pa1ab574bb5)" d="M 180.890457 133.00655 
L 183.131659 140.73049 
L 180.699469 140.529127 
L 180.52116 140.515007 
L 180.521184 140.514367 
L 178.088994 140.313005 
z
" style="fill:#ff7f0e;stroke:#ff7f0e;stroke-linejoin:miter;"/>
   </g>
   <g id="patch_58">
    <path clip-path="url(#pa1ab574bb5)" d="M 125.807644 221.982856 
L 129.299264 228.596307 
L 126.913347 229.328246 
L 126.739015 229.385959 
L 126.738454 229.381899 
L 124.352538 230.113838 
z
" style="fill:#ff7f0e;stroke:#ff7f0e;stroke-linejoin:miter;"/>
   </g>
   <g id="patch_59">
    <path clip-path="url(#pa1ab574bb5)" d="M 164.271277 106.473928 
L 158.695701 107.804105 
L 159.426997 104.341226 
L 159.480337 104.087264 
L 159.480602 104.087389 
L 160.211897 100.624509 
z
" style="fill:#ff7f0e;stroke:#ff7f0e;stroke-linejoin:miter;"/>
   </g>
   <g id="patch_60">
    <path clip-path="url(#pa1ab574bb5)" d="M 51.212495 258.843331 
L 54.640505 265.530283 
L 52.247831 266.211463 
L 52.073243 266.267643 
L 52.072442 266.261395 
L 49.679768 266.942575 
z
" style="fill:#ff7f0e;stroke:#ff7f0e;stroke-linejoin:miter;"/>
   </g>
   <g id="patch_61">
    <path clip-path="url(#pa1ab574bb5)" d="M 51.513579 194.650655 
L 54.664974 201.633318 
L 52.249105 202.098378 
L 52.072393 202.136818 
L 52.072016 202.132469 
L 49.656147 202.597529 
z
" style="fill:#ff7f0e;stroke:#ff7f0e;stroke-linejoin:miter;"/>
   </g>
   <g id="patch_62">
    <path clip-path="url(#pa1ab574bb5)" d="M 51.997447 147.255544 
L 54.684771 154.656608 
L 52.250107 154.774081 
L 52.071704 154.78564 
L 52.07164 154.782692 
L 49.636976 154.900165 
z
" style="fill:#ff7f0e;stroke:#ff7f0e;stroke-linejoin:miter;"/>
   </g>
   <g id="patch_63">
    <path clip-path="url(#pa1ab574bb5)" d="M 82.275804 69.39704 
L 77.504315 73.89687 
L 77.259828 70.284865 
L 77.241412 70.020171 
L 77.241906 70.020097 
L 76.997418 66.408092 
z
" style="fill:#ff7f0e;stroke:#ff7f0e;stroke-linejoin:miter;"/>
   </g>
   <g id="patch_64">
    <path clip-path="url(#pa1ab574bb5)" d="M 156.545341 101.6028 
L 150.9298 102.483693 
L 151.785129 99.084511 
L 151.847527 98.835176 
L 151.847827 98.835343 
L 152.703156 95.436162 
z
" style="fill:#ff7f0e;stroke:#ff7f0e;stroke-linejoin:miter;"/>
   </g>
   <g id="patch_65">
    <path clip-path="url(#pa1ab574bb5)" d="M 77.920687 61.207283 
L 72.465292 63.378422 
L 72.955668 59.822407 
L 72.99105 59.56157 
L 72.991614 59.561743 
L 73.48199 56.005727 
z
" style="fill:#ff7f0e;stroke:#ff7f0e;stroke-linejoin:miter;"/>
   </g>
   <g id="patch_66">
    <path clip-path="url(#pa1ab574bb5)" d="M 159.735147 103.367233 
L 154.117142 104.212511 
L 154.982167 100.818783 
L 155.045287 100.569852 
L 155.045576 100.570015 
L 155.910601 97.176288 
z
" style="fill:#ff7f0e;stroke:#ff7f0e;stroke-linejoin:miter;"/>
   </g>
   <g id="patch_67">
    <path clip-path="url(#pa1ab574bb5)" d="M 122.682251 66.076948 
L 117.31664 63.455549 
L 119.030525 60.875784 
L 119.155603 60.685864 
L 119.156157 60.686681 
L 120.870042 58.106916 
z
" style="fill:#ff7f0e;stroke:#ff7f0e;stroke-linejoin:miter;"/>
   </g>
   <g id="patch_68">
    <path clip-path="url(#pa1ab574bb5)" d="M 171.783657 109.907861 
L 166.148483 110.442063 
L 167.097361 107.098478 
L 167.16667 106.85323 
L 167.166916 106.853386 
L 168.115795 103.5098 
z
" style="fill:#ff7f0e;stroke:#ff7f0e;stroke-linejoin:miter;"/>
   </g>
   <g id="patch_69">
    <path clip-path="url(#pa1ab574bb5)" d="M 179.454284 44.730571 
L 175.093271 39.385061 
L 177.318637 37.908552 
L 177.481059 37.797969 
L 177.481762 37.800321 
L 179.707128 36.323812 
z
" style="fill:#ff7f0e;stroke:#ff7f0e;stroke-linejoin:miter;"/>
   </g>
   <g id="patch_70">
    <path clip-path="url(#pa1ab574bb5)" d="M 197.153284 99.800335 
L 192.593904 94.836032 
L 194.758843 93.171906 
L 194.917201 93.048949 
L 194.917538 93.049922 
L 197.082477 91.385796 
z
" style="fill:#ff7f0e;stroke:#ff7f0e;stroke-linejoin:miter;"/>
   </g>
   <g id="patch_71">
    <path clip-path="url(#pa1ab574bb5)" d="M 239.299795 49.803134 
L 235.34992 43.789509 
L 237.668947 42.678325 
L 237.838268 42.593776 
L 237.838937 42.596873 
L 240.157963 41.485689 
z
" style="fill:#ff7f0e;stroke:#ff7f0e;stroke-linejoin:miter;"/>
   </g>
   <g id="patch_72">
    <path clip-path="url(#pa1ab574bb5)" d="M 254.73319 133.530407 
L 251.266994 126.887319 
L 253.655679 126.175718 
L 253.830659 126.122696 
L 253.830775 126.123556 
L 256.219459 125.411954 
z
" style="fill:#ff7f0e;stroke:#ff7f0e;stroke-linejoin:miter;"/>
   </g>
   <g id="matplotlib.axis_1">
    <g id="xtick_1">
     <g id="line2d_1">
      <defs>
       <path d="M 0 0 
L 0 3.5 
" id="mf9ed2f36eb" style="stroke:#000000;stroke-width:0.8;"/>
      </defs>
      <g>
       <use style="stroke:#000000;stroke-width:0.8;" x="52.160938" xlink:href="#mf9ed2f36eb" y="276.812"/>
      </g>
     </g>
     <g id="text_1">
      <!-- −1.00 -->
      <defs>
       <path d="M 10.59375 35.5 
L 73.1875 35.5 
L 73.1875 27.203125 
L 10.59375 27.203125 
z
" id="DejaVuSans-2212"/>
       <path d="M 12.40625 8.296875 
L 28.515625 8.296875 
L 28.515625 63.921875 
L 10.984375 60.40625 
L 10.984375 69.390625 
L 28.421875 72.90625 
L 38.28125 72.90625 
L 38.28125 8.296875 
L 54.390625 8.296875 
L 54.390625 0 
L 12.40625 0 
z
" id="DejaVuSans-31"/>
       <path d="M 10.6875 12.40625 
L 21 12.40625 
L 21 0 
L 10.6875 0 
z
" id="DejaVuSans-2e"/>
       <path d="M 31.78125 66.40625 
Q 24.171875 66.40625 20.328125 58.90625 
Q 16.5 51.421875 16.5 36.375 
Q 16.5 21.390625 20.328125 13.890625 
Q 24.171875 6.390625 31.78125 6.390625 
Q 39.453125 6.390625 43.28125 13.890625 
Q 47.125 21.390625 47.125 36.375 
Q 47.125 51.421875 43.28125 58.90625 
Q 39.453125 66.40625 31.78125 66.40625 
M 31.78125 74.21875 
Q 44.046875 74.21875 50.515625 64.515625 
Q 56.984375 54.828125 56.984375 36.375 
Q 56.984375 17.96875 50.515625 8.265625 
Q 44.046875 -1.421875 31.78125 -1.421875 
Q 19.53125 -1.421875 13.0625 8.265625 
Q 6.59375 17.96875 6.59375 36.375 
Q 6.59375 54.828125 13.0625 64.515625 
Q 19.53125 74.21875 31.78125 74.21875 
" id="DejaVuSans-30"/>
      </defs>
      <g transform="translate(36.838281 291.410438)scale(0.1 -0.1)">
       <use xlink:href="#DejaVuSans-2212"/>
       <use x="83.789062" xlink:href="#DejaVuSans-31"/>
       <use x="147.412109" xlink:href="#DejaVuSans-2e"/>
       <use x="179.199219" xlink:href="#DejaVuSans-30"/>
       <use x="242.822266" xlink:href="#DejaVuSans-30"/>
      </g>
     </g>
    </g>
    <g id="xtick_2">
     <g id="line2d_2">
      <g>
       <use style="stroke:#000000;stroke-width:0.8;" x="96.800938" xlink:href="#mf9ed2f36eb" y="276.812"/>
      </g>
     </g>
     <g id="text_2">
      <!-- −0.75 -->
      <defs>
       <path d="M 8.203125 72.90625 
L 55.078125 72.90625 
L 55.078125 68.703125 
L 28.609375 0 
L 18.3125 0 
L 43.21875 64.59375 
L 8.203125 64.59375 
z
" id="DejaVuSans-37"/>
       <path d="M 10.796875 72.90625 
L 49.515625 72.90625 
L 49.515625 64.59375 
L 19.828125 64.59375 
L 19.828125 46.734375 
Q 21.96875 47.46875 24.109375 47.828125 
Q 26.265625 48.1875 28.421875 48.1875 
Q 40.625 48.1875 47.75 41.5 
Q 54.890625 34.8125 54.890625 23.390625 
Q 54.890625 11.625 47.5625 5.09375 
Q 40.234375 -1.421875 26.90625 -1.421875 
Q 22.3125 -1.421875 17.546875 -0.640625 
Q 12.796875 0.140625 7.71875 1.703125 
L 7.71875 11.625 
Q 12.109375 9.234375 16.796875 8.0625 
Q 21.484375 6.890625 26.703125 6.890625 
Q 35.15625 6.890625 40.078125 11.328125 
Q 45.015625 15.765625 45.015625 23.390625 
Q 45.015625 31 40.078125 35.4375 
Q 35.15625 39.890625 26.703125 39.890625 
Q 22.75 39.890625 18.8125 39.015625 
Q 14.890625 38.140625 10.796875 36.28125 
z
" id="DejaVuSans-35"/>
      </defs>
      <g transform="translate(81.478281 291.410438)scale(0.1 -0.1)">
       <use xlink:href="#DejaVuSans-2212"/>
       <use x="83.789062" xlink:href="#DejaVuSans-30"/>
       <use x="147.412109" xlink:href="#DejaVuSans-2e"/>
       <use x="179.199219" xlink:href="#DejaVuSans-37"/>
       <use x="242.822266" xlink:href="#DejaVuSans-35"/>
      </g>
     </g>
    </g>
    <g id="xtick_3">
     <g id="line2d_3">
      <g>
       <use style="stroke:#000000;stroke-width:0.8;" x="141.440938" xlink:href="#mf9ed2f36eb" y="276.812"/>
      </g>
     </g>
     <g id="text_3">
      <!-- −0.50 -->
      <g transform="translate(126.118281 291.410438)scale(0.1 -0.1)">
       <use xlink:href="#DejaVuSans-2212"/>
       <use x="83.789062" xlink:href="#DejaVuSans-30"/>
       <use x="147.412109" xlink:href="#DejaVuSans-2e"/>
       <use x="179.199219" xlink:href="#DejaVuSans-35"/>
       <use x="242.822266" xlink:href="#DejaVuSans-30"/>
      </g>
     </g>
    </g>
    <g id="xtick_4">
     <g id="line2d_4">
      <g>
       <use style="stroke:#000000;stroke-width:0.8;" x="186.080938" xlink:href="#mf9ed2f36eb" y="276.812"/>
      </g>
     </g>
     <g id="text_4">
      <!-- −0.25 -->
      <defs>
       <path d="M 19.1875 8.296875 
L 53.609375 8.296875 
L 53.609375 0 
L 7.328125 0 
L 7.328125 8.296875 
Q 12.9375 14.109375 22.625 23.890625 
Q 32.328125 33.6875 34.8125 36.53125 
Q 39.546875 41.84375 41.421875 45.53125 
Q 43.3125 49.21875 43.3125 52.78125 
Q 43.3125 58.59375 39.234375 62.25 
Q 35.15625 65.921875 28.609375 65.921875 
Q 23.96875 65.921875 18.8125 64.3125 
Q 13.671875 62.703125 7.8125 59.421875 
L 7.8125 69.390625 
Q 13.765625 71.78125 18.9375 73 
Q 24.125 74.21875 28.421875 74.21875 
Q 39.75 74.21875 46.484375 68.546875 
Q 53.21875 62.890625 53.21875 53.421875 
Q 53.21875 48.921875 51.53125 44.890625 
Q 49.859375 40.875 45.40625 35.40625 
Q 44.1875 33.984375 37.640625 27.21875 
Q 31.109375 20.453125 19.1875 8.296875 
" id="DejaVuSans-32"/>
      </defs>
      <g transform="translate(170.758281 291.410438)scale(0.1 -0.1)">
       <use xlink:href="#DejaVuSans-2212"/>
       <use x="83.789062" xlink:href="#DejaVuSans-30"/>
       <use x="147.412109" xlink:href="#DejaVuSans-2e"/>
       <use x="179.199219" xlink:href="#DejaVuSans-32"/>
       <use x="242.822266" xlink:href="#DejaVuSans-35"/>
      </g>
     </g>
    </g>
    <g id="xtick_5">
     <g id="line2d_5">
      <g>
       <use style="stroke:#000000;stroke-width:0.8;" x="230.720938" xlink:href="#mf9ed2f36eb" y="276.812"/>
      </g>
     </g>
     <g id="text_5">
      <!-- 0.00 -->
      <g transform="translate(219.588125 291.410438)scale(0.1 -0.1)">
       <use xlink:href="#DejaVuSans-30"/>
       <use x="63.623047" xlink:href="#DejaVuSans-2e"/>
       <use x="95.410156" xlink:href="#DejaVuSans-30"/>
       <use x="159.033203" xlink:href="#DejaVuSans-30"/>
      </g>
     </g>
    </g>
    <g id="xtick_6">
     <g id="line2d_6">
      <g>
       <use style="stroke:#000000;stroke-width:0.8;" x="275.360938" xlink:href="#mf9ed2f36eb" y="276.812"/>
      </g>
     </g>
     <g id="text_6">
      <!-- 0.25 -->
      <g transform="translate(264.228125 291.410438)scale(0.1 -0.1)">
       <use xlink:href="#DejaVuSans-30"/>
       <use x="63.623047" xlink:href="#DejaVuSans-2e"/>
       <use x="95.410156" xlink:href="#DejaVuSans-32"/>
       <use x="159.033203" xlink:href="#DejaVuSans-35"/>
      </g>
     </g>
    </g>
    <g id="xtick_7">
     <g id="line2d_7">
      <g>
       <use style="stroke:#000000;stroke-width:0.8;" x="320.000938" xlink:href="#mf9ed2f36eb" y="276.812"/>
      </g>
     </g>
     <g id="text_7">
      <!-- 0.50 -->
      <g transform="translate(308.868125 291.410438)scale(0.1 -0.1)">
       <use xlink:href="#DejaVuSans-30"/>
       <use x="63.623047" xlink:href="#DejaVuSans-2e"/>
       <use x="95.410156" xlink:href="#DejaVuSans-35"/>
       <use x="159.033203" xlink:href="#DejaVuSans-30"/>
      </g>
     </g>
    </g>
    <g id="xtick_8">
     <g id="line2d_8">
      <g>
       <use style="stroke:#000000;stroke-width:0.8;" x="364.640938" xlink:href="#mf9ed2f36eb" y="276.812"/>
      </g>
     </g>
     <g id="text_8">
      <!-- 0.75 -->
      <g transform="translate(353.508125 291.410438)scale(0.1 -0.1)">
       <use xlink:href="#DejaVuSans-30"/>
       <use x="63.623047" xlink:href="#DejaVuSans-2e"/>
       <use x="95.410156" xlink:href="#DejaVuSans-37"/>
       <use x="159.033203" xlink:href="#DejaVuSans-35"/>
      </g>
     </g>
    </g>
    <g id="xtick_9">
     <g id="line2d_9">
      <g>
       <use style="stroke:#000000;stroke-width:0.8;" x="409.280938" xlink:href="#mf9ed2f36eb" y="276.812"/>
      </g>
     </g>
     <g id="text_9">
      <!-- 1.00 -->
      <g transform="translate(398.148125 291.410438)scale(0.1 -0.1)">
       <use xlink:href="#DejaVuSans-31"/>
       <use x="63.623047" xlink:href="#DejaVuSans-2e"/>
       <use x="95.410156" xlink:href="#DejaVuSans-30"/>
       <use x="159.033203" xlink:href="#DejaVuSans-30"/>
      </g>
     </g>
    </g>
    <g id="text_10">
     <!-- x1 -->
     <defs>
      <path d="M 54.890625 54.6875 
L 35.109375 28.078125 
L 55.90625 0 
L 45.3125 0 
L 29.390625 21.484375 
L 13.484375 0 
L 2.875 0 
L 24.125 28.609375 
L 4.6875 54.6875 
L 15.28125 54.6875 
L 29.78125 35.203125 
L 44.28125 54.6875 
z
" id="DejaVuSans-78"/>
     </defs>
     <g transform="translate(224.580313 305.088562)scale(0.1 -0.1)">
      <use xlink:href="#DejaVuSans-78"/>
      <use x="59.179688" xlink:href="#DejaVuSans-31"/>
     </g>
    </g>
   </g>
   <g id="matplotlib.axis_2">
    <g id="ytick_1">
     <g id="line2d_10">
      <defs>
       <path d="M 0 0 
L -3.5 0 
" id="mb0bee57516" style="stroke:#000000;stroke-width:0.8;"/>
      </defs>
      <g>
       <use style="stroke:#000000;stroke-width:0.8;" x="52.160938" xlink:href="#mb0bee57516" y="250.2008"/>
      </g>
     </g>
     <g id="text_11">
      <!-- −0.4 -->
      <defs>
       <path d="M 37.796875 64.3125 
L 12.890625 25.390625 
L 37.796875 25.390625 
z
M 35.203125 72.90625 
L 47.609375 72.90625 
L 47.609375 25.390625 
L 58.015625 25.390625 
L 58.015625 17.1875 
L 47.609375 17.1875 
L 47.609375 0 
L 37.796875 0 
L 37.796875 17.1875 
L 4.890625 17.1875 
L 4.890625 26.703125 
z
" id="DejaVuSans-34"/>
      </defs>
      <g transform="translate(20.878125 254.000019)scale(0.1 -0.1)">
       <use xlink:href="#DejaVuSans-2212"/>
       <use x="83.789062" xlink:href="#DejaVuSans-30"/>
       <use x="147.412109" xlink:href="#DejaVuSans-2e"/>
       <use x="179.199219" xlink:href="#DejaVuSans-34"/>
      </g>
     </g>
    </g>
    <g id="ytick_2">
     <g id="line2d_11">
      <g>
       <use style="stroke:#000000;stroke-width:0.8;" x="52.160938" xlink:href="#mb0bee57516" y="196.9784"/>
      </g>
     </g>
     <g id="text_12">
      <!-- −0.2 -->
      <g transform="translate(20.878125 200.777619)scale(0.1 -0.1)">
       <use xlink:href="#DejaVuSans-2212"/>
       <use x="83.789062" xlink:href="#DejaVuSans-30"/>
       <use x="147.412109" xlink:href="#DejaVuSans-2e"/>
       <use x="179.199219" xlink:href="#DejaVuSans-32"/>
      </g>
     </g>
    </g>
    <g id="ytick_3">
     <g id="line2d_12">
      <g>
       <use style="stroke:#000000;stroke-width:0.8;" x="52.160938" xlink:href="#mb0bee57516" y="143.756"/>
      </g>
     </g>
     <g id="text_13">
      <!-- 0.0 -->
      <g transform="translate(29.257812 147.555219)scale(0.1 -0.1)">
       <use xlink:href="#DejaVuSans-30"/>
       <use x="63.623047" xlink:href="#DejaVuSans-2e"/>
       <use x="95.410156" xlink:href="#DejaVuSans-30"/>
      </g>
     </g>
    </g>
    <g id="ytick_4">
     <g id="line2d_13">
      <g>
       <use style="stroke:#000000;stroke-width:0.8;" x="52.160938" xlink:href="#mb0bee57516" y="90.5336"/>
      </g>
     </g>
     <g id="text_14">
      <!-- 0.2 -->
      <g transform="translate(29.257812 94.332819)scale(0.1 -0.1)">
       <use xlink:href="#DejaVuSans-30"/>
       <use x="63.623047" xlink:href="#DejaVuSans-2e"/>
       <use x="95.410156" xlink:href="#DejaVuSans-32"/>
      </g>
     </g>
    </g>
    <g id="ytick_5">
     <g id="line2d_14">
      <g>
       <use style="stroke:#000000;stroke-width:0.8;" x="52.160938" xlink:href="#mb0bee57516" y="37.3112"/>
      </g>
     </g>
     <g id="text_15">
      <!-- 0.4 -->
      <g transform="translate(29.257812 41.110419)scale(0.1 -0.1)">
       <use xlink:href="#DejaVuSans-30"/>
       <use x="63.623047" xlink:href="#DejaVuSans-2e"/>
       <use x="95.410156" xlink:href="#DejaVuSans-34"/>
      </g>
     </g>
    </g>
    <g id="text_16">
     <!-- x2 -->
     <g transform="translate(14.798438 149.896625)rotate(-90)scale(0.1 -0.1)">
      <use xlink:href="#DejaVuSans-78"/>
      <use x="59.179688" xlink:href="#DejaVuSans-32"/>
     </g>
    </g>
   </g>
   <g id="line2d_15">
    <path clip-path="url(#pa1ab574bb5)" d="M 230.720938 10.7 
L 237.753274 42.63444 
L 243.071755 67.729324 
L 247.044179 87.424076 
L 250.230453 104.349429 
L 252.422832 117.226221 
L 253.860116 126.99294 
L 254.725697 134.3718 
L 255.160345 139.918484 
L 255.272032 144.060388 
L 255.143507 147.126187 
L 254.838127 149.368562 
L 254.404343 150.981746 
L 253.879146 152.114995 
L 253.290722 152.882974 
L 252.595839 153.41033 
L 251.804896 153.706494 
L 250.931648 153.793698 
L 249.858488 153.67722 
L 248.484939 153.29895 
L 246.578079 152.522198 
L 243.767038 151.109483 
L 238.175967 147.996294 
L 230.720937 143.756 
L 230.720938 143.756 
" style="fill:none;stroke:#1f77b4;stroke-linecap:square;stroke-width:0.5;"/>
   </g>
   <g id="line2d_16">
    <path clip-path="url(#pa1ab574bb5)" d="M 292.020663 10.7 
L 296.093048 33.53296 
L 299.449589 53.423506 
L 302.183024 70.738015 
L 304.374259 85.796949 
L 306.387162 101.283955 
L 307.826642 114.347306 
L 308.782842 125.346682 
L 309.332528 134.589081 
L 309.541022 142.336291 
L 309.463905 148.811514 
L 309.148461 154.205015 
L 308.634894 158.678916 
L 307.957373 162.371295 
L 307.144913 165.399707 
L 306.222176 167.86434 
L 305.210119 169.8506 
L 304.126492 171.431097 
L 302.98634 172.667634 
L 301.802417 173.612887 
L 300.585547 174.311812 
L 299.136324 174.866541 
L 297.666683 175.188683 
L 295.974709 175.325999 
L 294.069492 175.247199 
L 291.965689 174.93788 
L 289.477526 174.342273 
L 286.446428 173.366544 
L 282.951266 171.996504 
L 278.561234 170.022465 
L 272.891411 167.209628 
L 265.024556 163.034803 
L 252.822909 156.279083 
L 230.720937 143.756 
L 230.720937 143.756 
" style="fill:none;stroke:#1f77b4;stroke-linecap:square;stroke-width:0.5;"/>
   </g>
   <g id="line2d_17">
    <path clip-path="url(#pa1ab574bb5)" d="M 369.699764 10.7 
L 372.968176 32.857313 
L 375.674328 52.625254 
L 377.879132 70.252313 
L 379.637086 85.961598 
L 380.996884 99.953067 
L 382.002181 112.406423 
L 382.692056 123.482888 
L 383.101485 133.326983 
L 383.261763 142.068215 
L 383.200915 149.822657 
L 382.944007 156.69422 
L 382.513465 162.775916 
L 381.929352 168.150972 
L 381.20961 172.893837 
L 380.3703 177.071139 
L 379.425788 180.742473 
L 378.388925 183.961125 
L 377.271197 186.774717 
L 376.082906 189.225932 
L 374.833262 191.35291 
L 373.530501 193.18976 
L 372.181992 194.766968 
L 370.794324 196.111802 
L 369.013606 197.503027 
L 367.191071 198.611282 
L 365.335584 199.473241 
L 363.454856 200.120835 
L 361.174058 200.653906 
L 358.876504 200.959558 
L 356.186021 201.07526 
L 353.495324 200.975742 
L 350.431669 200.647758 
L 347.012679 200.061287 
L 343.262395 199.201627 
L 338.846709 197.957584 
L 333.831295 196.304897 
L 327.960331 194.119721 
L 321.381464 191.425402 
L 313.671059 188.017353 
L 304.896581 183.889781 
L 294.805009 178.892146 
L 283.189228 172.882935 
L 270.038259 165.822704 
L 254.30528 157.112651 
L 231.687578 144.306258 
L 230.720937 143.756 
L 230.720938 143.756 
" style="fill:none;stroke:#1f77b4;stroke-linecap:square;stroke-width:0.5;"/>
   </g>
   <g id="line2d_18">
    <path clip-path="url(#pa1ab574bb5)" d="M 409.280938 56.826177 
L 409.848111 61.603546 
" style="fill:none;stroke:#1f77b4;stroke-linecap:square;stroke-width:0.5;"/>
   </g>
   <g id="line2d_19">
    <path clip-path="url(#pa1ab574bb5)" d="M 409.280938 110.061645 
L 409.496221 113.264306 
" style="fill:none;stroke:#1f77b4;stroke-linecap:square;stroke-width:0.5;"/>
   </g>
   <g id="line2d_20">
    <path clip-path="url(#pa1ab574bb5)" d="M 409.280938 154.781334 
L 408.886619 161.969522 
L 408.310662 168.329877 
L 407.574107 173.950824 
L 406.695724 178.911207 
L 405.692272 183.281378 
L 404.578738 187.124174 
L 403.368508 190.495658 
L 402.073543 193.445853 
L 400.704539 196.019425 
L 399.27106 198.256245 
L 397.781662 200.19192 
L 396.243996 201.858227 
L 394.664903 203.28353 
L 393.050503 204.493149 
L 390.991143 205.7361 
L 388.894593 206.716191 
L 386.769093 207.467289 
L 384.190315 208.107507 
L 381.590807 208.503846 
L 378.979621 208.693293 
L 375.928659 208.694371 
L 372.448154 208.455944 
L 368.55529 207.942085 
L 364.274339 207.132925 
L 359.636238 206.023504 
L 354.269805 204.497522 
L 348.253298 202.539974 
L 341.682152 200.164601 
L 334.306134 197.261913 
L 325.973298 193.739489 
L 316.656633 189.550904 
L 306.474655 184.721362 
L 295.458083 179.24553 
L 283.333397 172.964189 
L 269.850653 165.720969 
L 254.013892 156.949306 
L 231.128252 143.987864 
L 230.720937 143.756 
L 230.720938 143.756 
" style="fill:none;stroke:#1f77b4;stroke-linecap:square;stroke-width:0.5;"/>
   </g>
   <g id="line2d_21">
    <path clip-path="url(#pa1ab574bb5)" d="M 409.280938 202.119773 
L 407.689521 203.935968 
L 406.052851 205.49713 
L 404.377333 206.829774 
L 402.237179 208.21087 
L 400.055472 209.313866 
L 397.840924 210.174496 
L 395.601131 210.823801 
L 392.889316 211.361705 
L 390.160538 211.674082 
L 386.966624 211.798304 
L 383.772132 211.706292 
L 380.132342 211.383554 
L 376.065023 210.796508 
L 371.594736 209.925771 
L 366.316671 208.651067 
L 360.723818 207.064656 
L 354.451793 205.052676 
L 347.202586 202.478482 
L 339.520352 199.512311 
L 330.831317 195.912448 
L 321.423326 191.766622 
L 311.317341 187.065965 
L 300.4171 181.746062 
L 288.69518 175.77357 
L 275.877649 168.988966 
L 261.229194 160.974902 
L 242.731912 150.58412 
L 230.720937 143.756 
L 230.720938 143.756 
" style="fill:none;stroke:#1f77b4;stroke-linecap:square;stroke-width:0.5;"/>
   </g>
   <g id="line2d_22">
    <path clip-path="url(#pa1ab574bb5)" d="M 409.280938 266.242677 
L 405.286975 259.499942 
L 401.505727 253.546512 
L 397.912496 248.27547 
L 394.485958 243.594806 
L 390.568343 238.646298 
L 386.83712 234.317479 
L 383.269368 230.510341 
L 379.288041 226.619142 
L 375.477596 223.21849 
L 371.305406 219.820172 
L 367.303938 216.841523 
L 362.981394 213.888193 
L 357.924476 210.721191 
L 352.229162 207.445173 
L 345.585676 203.903546 
L 337.02978 199.617453 
L 320.36754 191.590004 
L 304.206847 183.69243 
L 290.983053 176.974487 
L 277.678968 169.959479 
L 263.187377 162.059759 
L 245.390506 152.090059 
L 230.720937 143.756 
L 230.720937 143.756 
" style="fill:none;stroke:#1f77b4;stroke-linecap:square;stroke-width:0.5;"/>
   </g>
   <g id="line2d_23">
    <path clip-path="url(#pa1ab574bb5)" d="M 327.352777 276.812 
L 321.50936 260.013393 
L 316.388847 245.948587 
L 311.874088 234.147298 
L 307.868177 224.222567 
L 303.810577 214.770606 
L 300.214622 206.965019 
L 297.000671 200.492498 
L 293.761655 194.491572 
L 290.851085 189.572897 
L 288.210706 185.511458 
L 285.537921 181.789902 
L 282.858392 178.442854 
L 280.189258 175.469171 
L 277.541376 172.841908 
L 274.74261 170.368781 
L 271.679087 167.956398 
L 268.143488 165.46377 
L 263.791987 162.685096 
L 257.62398 159.039352 
L 241.918612 150.123067 
L 230.720937 143.756 
L 230.720937 143.756 
" style="fill:none;stroke:#1f77b4;stroke-linecap:square;stroke-width:0.5;"/>
   </g>
   <g id="line2d_24">
    <path clip-path="url(#pa1ab574bb5)" d="M 260.517332 276.812 
L 242.515332 204.792667 
L 234.134474 170.465924 
L 230.380462 154.278099 
L 228.918281 147.129825 
L 228.513637 144.213992 
L 228.55712 143.158248 
L 228.755264 142.871494 
L 229.03408 142.86608 
L 229.629495 143.137987 
L 230.720938 143.756 
L 230.720937 143.756 
" style="fill:none;stroke:#1f77b4;stroke-linecap:square;stroke-width:0.5;"/>
   </g>
   <g id="line2d_25">
    <path clip-path="url(#pa1ab574bb5)" d="M 200.924543 276.812 
L 195.359724 248.540876 
L 191.004418 225.17177 
L 187.647968 205.877766 
L 185.115733 189.971798 
L 183.262429 176.881043 
L 181.967397 166.128719 
L 181.13039 157.317868 
L 180.668213 150.11832 
L 180.511824 144.255454 
L 180.603965 139.500976 
L 180.897171 135.665129 
L 181.352113 132.590215 
L 181.936227 130.145213 
L 182.622559 128.221239 
L 183.388824 126.727854 
L 184.216618 125.589949 
L 185.090754 124.745133 
L 186.130565 124.072473 
L 187.199466 123.651811 
L 188.421782 123.416323 
L 189.788868 123.382433 
L 191.423027 123.575041 
L 193.299321 124.022484 
L 195.636645 124.816283 
L 198.587813 126.066677 
L 202.516351 127.989038 
L 208.402503 131.143193 
L 220.140595 137.739569 
L 230.720938 143.756 
L 230.720937 143.756 
" style="fill:none;stroke:#1f77b4;stroke-linecap:square;stroke-width:0.5;"/>
   </g>
   <g id="line2d_26">
    <path clip-path="url(#pa1ab574bb5)" d="M 134.089098 276.812 
L 130.054476 251.786483 
L 126.803574 230.035793 
L 124.233252 211.147188 
L 122.253714 194.760071 
L 120.786456 180.558233 
L 119.762933 168.264843 
L 119.123278 157.637589 
L 118.815216 148.46448 
L 118.793147 140.560277 
L 119.017267 133.763068 
L 119.452863 127.931453 
L 120.069663 122.941978 
L 120.841258 118.686834 
L 121.744613 115.071862 
L 122.759686 112.015045 
L 123.86898 109.444689 
L 125.057229 107.298149 
L 126.311157 105.520844 
L 127.619201 104.065142 
L 128.971286 102.889439 
L 130.358636 101.957384 
L 132.059324 101.116137 
L 133.78853 100.532996 
L 135.536701 100.167825 
L 137.589516 99.972025 
L 139.94023 99.996764 
L 142.57559 100.275824 
L 145.475893 100.824823 
L 148.615613 101.642545 
L 152.239537 102.809519 
L 156.549764 104.433066 
L 161.681895 106.610568 
L 167.90981 109.503344 
L 175.710311 113.384906 
L 185.570713 118.551138 
L 198.430487 125.552153 
L 215.736577 135.243865 
L 230.720938 143.756 
L 230.720938 143.756 
" style="fill:none;stroke:#1f77b4;stroke-linecap:square;stroke-width:0.5;"/>
   </g>
   <g id="line2d_27">
    <path clip-path="url(#pa1ab574bb5)" d="M 52.160938 266.242677 
L 51.358737 260.413559 
" style="fill:none;stroke:#1f77b4;stroke-linecap:square;stroke-width:0.5;"/>
   </g>
   <g id="line2d_28">
    <path clip-path="url(#pa1ab574bb5)" d="M 52.160938 202.119773 
L 51.782582 198.187365 
" style="fill:none;stroke:#1f77b4;stroke-linecap:square;stroke-width:0.5;"/>
   </g>
   <g id="line2d_29">
    <path clip-path="url(#pa1ab574bb5)" d="M 52.160938 154.781334 
L 52.095494 152.249211 
" style="fill:none;stroke:#1f77b4;stroke-linecap:square;stroke-width:0.5;"/>
   </g>
   <g id="line2d_30">
    <path clip-path="url(#pa1ab574bb5)" d="M 52.160938 110.061645 
L 53.128495 105.445853 
L 54.21242 101.383682 
L 55.398628 97.816066 
L 56.674532 94.690289 
L 58.028918 91.959451 
L 59.451771 89.581754 
L 60.93413 87.519856 
L 62.467971 85.740386 
L 64.046117 84.213569 
L 65.662148 82.912809 
L 67.726775 81.568866 
L 69.83177 80.500443 
L 71.968501 79.672056 
L 74.12944 79.052828 
L 76.745343 78.548303 
L 79.37695 78.266692 
L 82.456042 78.175221 
L 85.534278 78.296646 
L 89.039599 78.648836 
L 92.95387 79.263841 
L 97.252318 80.159505 
L 102.322284 81.455767 
L 107.688158 83.055487 
L 114.090759 85.209365 
L 121.008039 87.776614 
L 128.679463 90.858829 
L 137.243777 94.538576 
L 146.714407 98.851416 
L 157.229646 103.893141 
L 168.633734 109.617443 
L 181.035519 116.099004 
L 194.888714 123.596998 
L 211.560647 132.885939 
L 230.720938 143.756 
L 230.720938 143.756 
" style="fill:none;stroke:#1f77b4;stroke-linecap:square;stroke-width:0.5;"/>
   </g>
   <g id="line2d_31">
    <path clip-path="url(#pa1ab574bb5)" d="M 52.160938 56.826177 
L 56.751636 59.587747 
L 61.750412 62.315083 
L 67.123527 64.988306 
L 73.349009 67.835703 
L 81.314837 71.217542 
L 93.534084 76.124138 
L 114.37519 84.489549 
L 126.544312 89.637408 
L 137.631211 94.566954 
L 148.872894 99.811553 
L 160.190765 105.33723 
L 172.262817 111.483796 
L 185.183637 118.317583 
L 199.836365 126.328338 
L 218.183932 136.629675 
L 230.720938 143.756 
L 230.720938 143.756 
" style="fill:none;stroke:#1f77b4;stroke-linecap:square;stroke-width:0.5;"/>
   </g>
   <g id="line2d_32">
    <path clip-path="url(#pa1ab574bb5)" d="M 91.742111 10.7 
L 96.855112 22.516815 
L 101.526462 32.678638 
L 105.817661 41.440673 
L 109.780632 49.017192 
L 113.459437 55.58911 
L 116.891302 61.308479 
L 120.624945 67.07381 
L 124.107585 72.023645 
L 127.374103 76.298045 
L 130.879473 80.502879 
L 134.175577 84.115455 
L 137.669032 87.610513 
L 141.321991 90.933641 
L 145.10243 94.060507 
L 148.983014 96.990743 
L 153.527692 100.131833 
L 158.596924 103.355486 
L 164.79951 107.026928 
L 173.522689 111.910399 
L 214.852576 134.743905 
L 230.720938 143.756 
L 230.720937 143.756 
" style="fill:none;stroke:#1f77b4;stroke-linecap:square;stroke-width:0.5;"/>
   </g>
   <g id="line2d_33">
    <path clip-path="url(#pa1ab574bb5)" d="M 169.421212 10.7 
L 177.394777 37.976193 
L 184.317287 60.880422 
L 189.766483 78.171405 
L 194.101982 91.259671 
L 197.876183 101.974405 
L 200.903797 109.945779 
L 203.560017 116.334437 
L 205.887919 121.345537 
L 207.812978 124.992693 
L 209.656323 128.0112 
L 211.31393 130.311948 
L 212.980955 132.245453 
L 214.694851 133.886382 
L 216.583301 135.381967 
L 219.004335 136.997795 
L 223.067841 139.39652 
L 230.720938 143.756 
L 230.720938 143.756 
" style="fill:none;stroke:#1f77b4;stroke-linecap:square;stroke-width:0.5;"/>
   </g>
   <g id="line2d_34">
    <path clip-path="url(#pa1ab574bb5)" d="M 230.720937 10.7 
L 237.753274 42.63444 
L 243.071755 67.729324 
L 247.044179 87.424076 
L 250.230453 104.349429 
L 252.422832 117.226221 
L 253.860116 126.99294 
L 254.725697 134.3718 
L 255.160345 139.918484 
L 255.272032 144.060388 
L 255.143507 147.126187 
L 254.838127 149.368562 
L 254.404343 150.981746 
L 253.879146 152.114995 
L 253.290722 152.882974 
L 252.595839 153.41033 
L 251.804896 153.706494 
L 250.931648 153.793698 
L 249.858488 153.67722 
L 248.484939 153.29895 
L 246.578079 152.522198 
L 243.767038 151.109483 
L 238.175967 147.996294 
L 230.720937 143.756 
L 230.720938 143.756 
" style="fill:none;stroke:#1f77b4;stroke-linecap:square;stroke-width:0.5;"/>
   </g>
   <g id="line2d_35">
    <path clip-path="url(#pa1ab574bb5)" d="M 230.720938 143.756 
" style="fill:none;stroke:#1f77b4;stroke-linecap:square;stroke-width:1.5;"/>
   </g>
   <g id="line2d_36">
    <path clip-path="url(#pa1ab574bb5)" d="M 230.720938 10.7 
L 237.753273 42.634502 
L 243.071736 67.730016 
L 247.044071 87.426513 
L 250.230076 104.355216 
L 252.421923 117.236436 
L 253.858359 127.008015 
L 254.722769 134.391548 
L 255.155953 139.942246 
L 255.265936 144.087227 
L 255.135538 147.155054 
L 254.828186 149.39842 
L 254.392393 151.011629 
L 253.865207 152.144067 
L 253.274871 152.910589 
L 252.578025 153.435814 
L 251.785139 153.729192 
L 250.910056 153.813088 
L 249.83504 153.692423 
L 248.459724 153.308897 
L 246.551509 152.525547 
L 243.740711 151.105491 
L 238.01647 147.907837 
L 230.720937 143.756 
L 230.720937 143.756 
" style="fill:none;stroke:#ff7f0e;stroke-linecap:square;stroke-width:0.5;"/>
   </g>
   <g id="line2d_37">
    <path clip-path="url(#pa1ab574bb5)" d="M 292.020663 10.7 
L 296.091521 33.624831 
L 299.443376 53.611114 
L 302.168884 71.022887 
L 304.348938 86.178241 
L 306.054447 99.356268 
L 307.34755 110.801796 
L 308.28266 120.729465 
L 308.907494 129.327742 
L 309.263818 136.761834 
L 309.388205 143.176641 
L 309.31267 148.699244 
L 309.065243 153.441125 
L 308.670441 157.500022 
L 308.149717 160.961688 
L 307.521801 163.901205 
L 306.803074 166.384445 
L 306.007863 168.469247 
L 305.148681 170.206317 
L 304.048477 171.893936 
L 302.887993 173.210863 
L 301.680971 174.213784 
L 300.439071 174.951194 
L 299.172141 175.464449 
L 297.673407 175.826627 
L 295.946529 175.985403 
L 294.001363 175.906774 
L 291.853902 175.576083 
L 289.316091 174.934848 
L 286.431415 173.960623 
L 283.06301 172.585093 
L 278.767674 170.577271 
L 273.150681 167.686065 
L 264.88811 163.155543 
L 247.13807 153.101158 
L 230.720937 143.756 
L 230.720937 143.756 
" style="fill:none;stroke:#ff7f0e;stroke-linecap:square;stroke-width:0.5;"/>
   </g>
   <g id="line2d_38">
    <path clip-path="url(#pa1ab574bb5)" d="M 369.699764 10.7 
L 372.95747 33.650056 
L 375.63216 54.170103 
L 377.785866 72.504518 
L 379.474417 88.873448 
L 380.747771 103.474093 
L 381.650981 116.484495 
L 382.224529 128.064814 
L 382.504804 138.359204 
L 382.524565 147.497641 
L 382.313246 155.597072 
L 381.897284 162.762737 
L 381.300456 169.089457 
L 380.544123 174.662596 
L 379.647455 179.558943 
L 378.627668 183.847627 
L 377.500224 187.590905 
L 376.278999 190.844818 
L 374.976436 193.659789 
L 373.603693 196.081197 
L 372.170777 198.1499 
L 370.686651 199.90266 
L 369.159348 201.372577 
L 367.596057 202.589436 
L 366.003201 203.580009 
L 364.386524 204.368385 
L 362.33994 205.102318 
L 360.272934 205.591631 
L 358.193149 205.869266 
L 355.689779 205.963366 
L 353.18719 205.837075 
L 350.279234 205.459859 
L 346.984067 204.784915 
L 343.327618 203.78542 
L 339.343204 202.455248 
L 334.688206 200.650357 
L 329.449597 198.37074 
L 323.383544 195.487616 
L 315.702623 191.575151 
L 306.000673 186.368187 
L 291.777998 178.455689 
L 262.747353 161.986413 
L 230.720937 143.756 
L 230.720938 143.756 
" style="fill:none;stroke:#ff7f0e;stroke-linecap:square;stroke-width:0.5;"/>
   </g>
   <g id="line2d_39">
    <path clip-path="url(#pa1ab574bb5)" d="M 409.280938 56.826177 
L 409.846711 62.021103 
" style="fill:none;stroke:#ff7f0e;stroke-linecap:square;stroke-width:0.5;"/>
   </g>
   <g id="line2d_40">
    <path clip-path="url(#pa1ab574bb5)" d="M 409.280938 110.061645 
L 409.494819 113.680642 
" style="fill:none;stroke:#ff7f0e;stroke-linecap:square;stroke-width:0.5;"/>
   </g>
   <g id="line2d_41">
    <path clip-path="url(#pa1ab574bb5)" d="M 409.280938 154.781334 
L 408.864886 163.554422 
L 408.227304 171.305524 
L 407.394217 178.138578 
L 406.389008 184.147168 
L 405.232652 189.415451 
L 403.943974 194.019164 
L 402.539887 198.026539 
L 401.035554 201.49896 
L 399.444575 204.491661 
L 397.779145 207.054382 
L 396.050201 209.231901 
L 394.267535 211.064515 
L 392.439908 212.588452 
L 390.575147 213.836273 
L 388.680252 214.837286 
L 386.761494 215.617909 
L 384.824474 216.201931 
L 382.385065 216.68782 
L 379.933426 216.936756 
L 377.476951 216.981153 
L 374.531706 216.804154 
L 371.597975 216.415722 
L 368.200127 215.743197 
L 364.361733 214.743575 
L 360.114539 213.393873 
L 355.497979 211.691772 
L 350.116494 209.46241 
L 344.072264 206.715123 
L 336.686184 203.099153 
L 327.882151 198.529711 
L 316.449447 192.331367 
L 299.715944 182.98081 
L 264.247422 162.840671 
L 230.720938 143.756 
L 230.720938 143.756 
" style="fill:none;stroke:#ff7f0e;stroke-linecap:square;stroke-width:0.5;"/>
   </g>
   <g id="line2d_42">
    <path clip-path="url(#pa1ab574bb5)" d="M 409.280938 202.119773 
L 407.667948 205.504953 
L 405.970572 208.414157 
L 404.200924 210.896848 
L 402.369872 212.997622 
L 400.487117 214.75649 
L 398.561343 216.209455 
L 396.600324 217.388945 
L 394.611003 218.324113 
L 392.599563 219.041113 
L 390.571514 219.563438 
L 388.020576 219.97477 
L 385.459863 220.1519 
L 382.89669 220.127074 
L 379.82642 219.870104 
L 376.770811 219.404738 
L 373.234588 218.645946 
L 369.242896 217.552 
L 364.829167 216.101199 
L 360.034557 214.292318 
L 354.448605 211.941683 
L 348.177795 209.061377 
L 340.518079 205.286196 
L 331.391143 200.530373 
L 319.542453 194.093446 
L 302.20355 184.39715 
L 265.19159 163.378156 
L 230.720937 143.756 
L 230.720937 143.756 
" style="fill:none;stroke:#ff7f0e;stroke-linecap:square;stroke-width:0.5;"/>
   </g>
   <g id="line2d_43">
    <path clip-path="url(#pa1ab574bb5)" d="M 409.280938 266.242677 
L 404.467752 260.472877 
L 399.129798 254.451858 
L 394.058938 249.082326 
L 389.226971 244.26456 
L 383.966748 239.328032 
L 378.347535 234.379239 
L 372.433844 229.495714 
L 366.284891 224.7269 
L 359.955017 220.098779 
L 353.013483 215.295465 
L 345.153741 210.130127 
L 335.798451 204.264799 
L 324.331281 197.360035 
L 308.896558 188.350081 
L 282.060975 172.986641 
L 230.720937 143.756 
L 230.720938 143.756 
" style="fill:none;stroke:#ff7f0e;stroke-linecap:square;stroke-width:0.5;"/>
   </g>
   <g id="line2d_44">
    <path clip-path="url(#pa1ab574bb5)" d="M 327.352777 276.812 
L 321.499381 260.410549 
L 316.353755 246.600802 
L 311.804437 234.952332 
L 307.217038 223.830076 
L 303.173421 214.625567 
L 299.580534 206.981874 
L 296.362751 200.609885 
L 293.114588 194.670082 
L 290.192404 189.774612 
L 287.259642 185.303232 
L 284.598957 181.632151 
L 281.930013 178.309784 
L 279.271313 175.339685 
L 276.441554 172.517906 
L 273.498801 169.906685 
L 270.330446 167.397982 
L 266.736432 164.841677 
L 262.268238 161.954112 
L 256.054328 158.231008 
L 243.40235 150.975394 
L 230.720937 143.756 
L 230.720937 143.756 
" style="fill:none;stroke:#ff7f0e;stroke-linecap:square;stroke-width:0.5;"/>
   </g>
   <g id="line2d_45">
    <path clip-path="url(#pa1ab574bb5)" d="M 260.517332 276.812 
L 242.513288 204.803885 
L 234.13087 170.469996 
L 230.376434 154.278446 
L 228.914372 147.128672 
L 228.510076 144.212365 
L 228.553984 143.156591 
L 228.752535 142.869972 
L 229.031787 142.864773 
L 229.628033 143.13715 
L 230.720938 143.756 
L 230.720937 143.756 
" style="fill:none;stroke:#ff7f0e;stroke-linecap:square;stroke-width:0.5;"/>
   </g>
   <g id="line2d_46">
    <path clip-path="url(#pa1ab574bb5)" d="M 200.924543 276.812 
L 195.360111 248.523461 
L 191.006152 225.131388 
L 187.652226 205.810121 
L 185.12386 189.874459 
L 183.275844 176.753492 
L 181.987468 165.972026 
L 181.158457 157.13469 
L 180.705434 149.912175 
L 180.559183 144.030517 
L 180.662243 139.261722 
L 180.966938 135.416076 
L 181.433729 132.335707 
L 182.029846 129.889254 
L 182.728161 127.96746 
L 183.506233 126.479439 
L 184.345514 125.349596 
L 185.230704 124.515079 
L 186.149196 123.923638 
L 187.22647 123.489982 
L 188.458786 123.24824 
L 189.837162 123.215173 
L 191.484496 123.416293 
L 193.374976 123.880053 
L 195.727973 124.699696 
L 198.695014 125.985853 
L 202.636999 127.953427 
L 208.694651 131.252001 
L 223.899526 139.872906 
L 230.720938 143.756 
L 230.720937 143.756 
" style="fill:none;stroke:#ff7f0e;stroke-linecap:square;stroke-width:0.5;"/>
   </g>
   <g id="line2d_47">
    <path clip-path="url(#pa1ab574bb5)" d="M 134.089098 276.812 
L 130.798861 256.240257 
L 127.414781 233.533509 
L 124.741887 213.781382 
L 122.687227 196.617793 
L 121.16952 181.722277 
L 120.117475 168.813396 
L 119.468706 157.644534 
L 119.168534 147.999194 
L 119.169087 139.687506 
L 119.428481 132.543016 
L 119.910058 126.419715 
L 120.581753 121.189586 
L 121.415531 116.740368 
L 122.386878 112.973617 
L 123.474374 109.802994 
L 124.659311 107.152804 
L 125.925367 104.956713 
L 127.258308 103.156575 
L 128.645723 101.701417 
L 130.076804 100.54656 
L 131.542146 99.652855 
L 133.033577 98.986005 
L 134.847809 98.443186 
L 136.678951 98.139027 
L 138.824974 98.035019 
L 140.970493 98.152703 
L 143.409946 98.504463 
L 146.125211 99.115895 
L 149.385363 100.091902 
L 153.135603 101.46622 
L 157.575958 103.351982 
L 162.831942 105.841011 
L 169.394787 109.206482 
L 178.428358 114.108401 
L 193.476629 122.566314 
L 230.720938 143.756 
L 230.720938 143.756 
" style="fill:none;stroke:#ff7f0e;stroke-linecap:square;stroke-width:0.5;"/>
   </g>
   <g id="line2d_48">
    <path clip-path="url(#pa1ab574bb5)" d="M 52.160938 266.242677 
L 51.360141 259.995204 
" style="fill:none;stroke:#ff7f0e;stroke-linecap:square;stroke-width:0.5;"/>
   </g>
   <g id="line2d_49">
    <path clip-path="url(#pa1ab574bb5)" d="M 52.160938 202.119773 
L 51.783974 197.77043 
" style="fill:none;stroke:#ff7f0e;stroke-linecap:square;stroke-width:0.5;"/>
   </g>
   <g id="line2d_50">
    <path clip-path="url(#pa1ab574bb5)" d="M 52.160938 154.781334 
L 52.096896 151.833391 
" style="fill:none;stroke:#ff7f0e;stroke-linecap:square;stroke-width:0.5;"/>
   </g>
   <g id="line2d_51">
    <path clip-path="url(#pa1ab574bb5)" d="M 52.160938 110.061645 
L 53.150117 103.868463 
L 54.295208 98.436023 
L 55.576806 93.686305 
L 56.977494 89.549082 
L 58.481704 85.961366 
L 60.075476 82.866483 
L 61.746272 80.213341 
L 63.482863 77.955983 
L 65.275198 76.053086 
L 67.114274 74.467445 
L 68.99203 73.165564 
L 70.901258 72.117309 
L 72.835519 71.295564 
L 74.789061 70.675941 
L 77.250373 70.152555 
L 79.725074 69.872979 
L 82.205547 69.803867 
L 85.180545 69.957893 
L 88.144821 70.329592 
L 91.579012 70.98924 
L 95.45951 71.981358 
L 99.754343 73.329854 
L 104.423668 75.037362 
L 109.867689 77.280058 
L 115.983217 80.049446 
L 123.053877 83.496784 
L 131.995212 88.120531 
L 143.277459 94.222838 
L 159.533377 103.291806 
L 192.370059 121.925533 
L 230.720938 143.756 
L 230.720938 143.756 
" style="fill:none;stroke:#ff7f0e;stroke-linecap:square;stroke-width:0.5;"/>
   </g>
   <g id="line2d_52">
    <path clip-path="url(#pa1ab574bb5)" d="M 52.160938 56.826177 
L 55.080437 56.682426 
L 58.000964 56.760788 
L 61.497309 57.104744 
L 64.975057 57.677426 
L 68.997825 58.582243 
L 73.536566 59.86449 
L 78.55299 61.547357 
L 84.000227 63.631515 
L 89.824039 66.09673 
L 96.466038 69.142986 
L 104.271384 72.965934 
L 113.894462 77.939922 
L 126.05623 84.497238 
L 142.533685 93.654336 
L 171.199227 109.879803 
L 230.720938 143.756 
L 230.720938 143.756 
" style="fill:none;stroke:#ff7f0e;stroke-linecap:square;stroke-width:0.5;"/>
   </g>
   <g id="line2d_53">
    <path clip-path="url(#pa1ab574bb5)" d="M 91.742111 10.7 
L 96.877356 21.464908 
L 101.607368 30.858758 
L 105.983445 39.076957 
L 110.049484 46.28613 
L 114.451377 53.610695 
L 118.533231 59.946443 
L 122.337481 65.452088 
L 126.391001 70.897667 
L 130.172919 75.595624 
L 134.148045 80.151531 
L 137.867664 84.080685 
L 141.742121 87.856944 
L 145.732463 91.441544 
L 150.132936 95.0815 
L 154.846489 98.673915 
L 160.063324 102.353946 
L 166.136288 106.344778 
L 173.434443 110.858473 
L 183.44178 116.764664 
L 201.73853 127.254969 
L 230.720938 143.756 
L 230.720937 143.756 
" style="fill:none;stroke:#ff7f0e;stroke-linecap:square;stroke-width:0.5;"/>
   </g>
   <g id="line2d_54">
    <path clip-path="url(#pa1ab574bb5)" d="M 169.421212 10.7 
L 178.102165 40.204294 
L 184.884774 62.481448 
L 190.232937 79.334063 
L 194.837854 93.109942 
L 198.48402 103.33282 
L 201.417212 110.953234 
L 203.997974 117.072986 
L 206.266467 121.884239 
L 208.27022 125.607136 
L 210.057017 128.461549 
L 211.757796 130.756727 
L 213.373491 132.575043 
L 215.105912 134.188431 
L 217.048866 135.687076 
L 219.603166 137.355743 
L 224.244792 140.067654 
L 230.720938 143.756 
L 230.720938 143.756 
" style="fill:none;stroke:#ff7f0e;stroke-linecap:square;stroke-width:0.5;"/>
   </g>
   <g id="line2d_55">
    <path clip-path="url(#pa1ab574bb5)" d="M 230.720937 10.7 
L 237.753273 42.634502 
L 243.071736 67.730016 
L 247.044071 87.426513 
L 250.230076 104.355216 
L 252.421923 117.236436 
L 253.858359 127.008015 
L 254.722769 134.391548 
L 255.155953 139.942246 
L 255.265936 144.087227 
L 255.135538 147.155054 
L 254.828186 149.39842 
L 254.392393 151.011629 
L 253.865207 152.144068 
L 253.274871 152.91059 
L 252.578025 153.435815 
L 251.785139 153.729192 
L 250.910056 153.813088 
L 249.83504 153.692423 
L 248.459724 153.308897 
L 246.551509 152.525547 
L 243.740711 151.105491 
L 238.01647 147.907837 
L 230.720937 143.756 
L 230.720937 143.756 
" style="fill:none;stroke:#ff7f0e;stroke-linecap:square;stroke-width:0.5;"/>
   </g>
   <g id="line2d_56">
    <path clip-path="url(#pa1ab574bb5)" d="M 230.720938 143.756 
" style="fill:none;stroke:#ff7f0e;stroke-linecap:square;stroke-width:1.5;"/>
   </g>
   <g id="patch_73">
    <path d="M 52.160938 276.812 
L 52.160938 10.7 
" style="fill:none;stroke:#000000;stroke-linecap:square;stroke-linejoin:miter;stroke-width:0.8;"/>
   </g>
   <g id="patch_74">
    <path d="M 409.280938 276.812 
L 409.280938 10.7 
" style="fill:none;stroke:#000000;stroke-linecap:square;stroke-linejoin:miter;stroke-width:0.8;"/>
   </g>
   <g id="patch_75">
    <path d="M 52.160938 276.812 
L 409.280938 276.812 
" style="fill:none;stroke:#000000;stroke-linecap:square;stroke-linejoin:miter;stroke-width:0.8;"/>
   </g>
   <g id="patch_76">
    <path d="M 52.160938 10.7 
L 409.280938 10.7 
" style="fill:none;stroke:#000000;stroke-linecap:square;stroke-linejoin:miter;stroke-width:0.8;"/>
   </g>
   <g id="legend_1">
    <g id="patch_77">
     <path d="M 315.853438 273.812 
L 405.080938 273.812 
Q 406.280938 273.812 406.280938 272.612 
L 406.280938 255.59825 
Q 406.280938 254.39825 405.080938 254.39825 
L 315.853438 254.39825 
Q 314.653438 254.39825 314.653438 255.59825 
L 314.653438 272.612 
Q 314.653438 273.812 315.853438 273.812 
z
" style="fill:#ffffff;opacity:0.8;stroke:#cccccc;stroke-linejoin:miter;"/>
    </g>
    <g id="line2d_57">
     <path d="M 317.053438 259.257312 
L 329.053438 259.257312 
" style="fill:none;stroke:#1f77b4;stroke-linecap:square;stroke-width:1.5;"/>
    </g>
    <g id="line2d_58"/>
    <g id="text_17">
     <!-- system nieliniowy -->
     <defs>
      <path d="M 44.28125 53.078125 
L 44.28125 44.578125 
Q 40.484375 46.53125 36.375 47.5 
Q 32.28125 48.484375 27.875 48.484375 
Q 21.1875 48.484375 17.84375 46.4375 
Q 14.5 44.390625 14.5 40.28125 
Q 14.5 37.15625 16.890625 35.375 
Q 19.28125 33.59375 26.515625 31.984375 
L 29.59375 31.296875 
Q 39.15625 29.25 43.1875 25.515625 
Q 47.21875 21.78125 47.21875 15.09375 
Q 47.21875 7.46875 41.1875 3.015625 
Q 35.15625 -1.421875 24.609375 -1.421875 
Q 20.21875 -1.421875 15.453125 -0.5625 
Q 10.6875 0.296875 5.421875 2 
L 5.421875 11.28125 
Q 10.40625 8.6875 15.234375 7.390625 
Q 20.0625 6.109375 24.8125 6.109375 
Q 31.15625 6.109375 34.5625 8.28125 
Q 37.984375 10.453125 37.984375 14.40625 
Q 37.984375 18.0625 35.515625 20.015625 
Q 33.0625 21.96875 24.703125 23.78125 
L 21.578125 24.515625 
Q 13.234375 26.265625 9.515625 29.90625 
Q 5.8125 33.546875 5.8125 39.890625 
Q 5.8125 47.609375 11.28125 51.796875 
Q 16.75 56 26.8125 56 
Q 31.78125 56 36.171875 55.265625 
Q 40.578125 54.546875 44.28125 53.078125 
" id="DejaVuSans-73"/>
      <path d="M 32.171875 -5.078125 
Q 28.375 -14.84375 24.75 -17.8125 
Q 21.140625 -20.796875 15.09375 -20.796875 
L 7.90625 -20.796875 
L 7.90625 -13.28125 
L 13.1875 -13.28125 
Q 16.890625 -13.28125 18.9375 -11.515625 
Q 21 -9.765625 23.484375 -3.21875 
L 25.09375 0.875 
L 2.984375 54.6875 
L 12.5 54.6875 
L 29.59375 11.921875 
L 46.6875 54.6875 
L 56.203125 54.6875 
z
" id="DejaVuSans-79"/>
      <path d="M 18.3125 70.21875 
L 18.3125 54.6875 
L 36.8125 54.6875 
L 36.8125 47.703125 
L 18.3125 47.703125 
L 18.3125 18.015625 
Q 18.3125 11.328125 20.140625 9.421875 
Q 21.96875 7.515625 27.59375 7.515625 
L 36.8125 7.515625 
L 36.8125 0 
L 27.59375 0 
Q 17.1875 0 13.234375 3.875 
Q 9.28125 7.765625 9.28125 18.015625 
L 9.28125 47.703125 
L 2.6875 47.703125 
L 2.6875 54.6875 
L 9.28125 54.6875 
L 9.28125 70.21875 
z
" id="DejaVuSans-74"/>
      <path d="M 56.203125 29.59375 
L 56.203125 25.203125 
L 14.890625 25.203125 
Q 15.484375 15.921875 20.484375 11.0625 
Q 25.484375 6.203125 34.421875 6.203125 
Q 39.59375 6.203125 44.453125 7.46875 
Q 49.3125 8.734375 54.109375 11.28125 
L 54.109375 2.78125 
Q 49.265625 0.734375 44.1875 -0.34375 
Q 39.109375 -1.421875 33.890625 -1.421875 
Q 20.796875 -1.421875 13.15625 6.1875 
Q 5.515625 13.8125 5.515625 26.8125 
Q 5.515625 40.234375 12.765625 48.109375 
Q 20.015625 56 32.328125 56 
Q 43.359375 56 49.78125 48.890625 
Q 56.203125 41.796875 56.203125 29.59375 
M 47.21875 32.234375 
Q 47.125 39.59375 43.09375 43.984375 
Q 39.0625 48.390625 32.421875 48.390625 
Q 24.90625 48.390625 20.390625 44.140625 
Q 15.875 39.890625 15.1875 32.171875 
z
" id="DejaVuSans-65"/>
      <path d="M 52 44.1875 
Q 55.375 50.25 60.0625 53.125 
Q 64.75 56 71.09375 56 
Q 79.640625 56 84.28125 50.015625 
Q 88.921875 44.046875 88.921875 33.015625 
L 88.921875 0 
L 79.890625 0 
L 79.890625 32.71875 
Q 79.890625 40.578125 77.09375 44.375 
Q 74.3125 48.1875 68.609375 48.1875 
Q 61.625 48.1875 57.5625 43.546875 
Q 53.515625 38.921875 53.515625 30.90625 
L 53.515625 0 
L 44.484375 0 
L 44.484375 32.71875 
Q 44.484375 40.625 41.703125 44.40625 
Q 38.921875 48.1875 33.109375 48.1875 
Q 26.21875 48.1875 22.15625 43.53125 
Q 18.109375 38.875 18.109375 30.90625 
L 18.109375 0 
L 9.078125 0 
L 9.078125 54.6875 
L 18.109375 54.6875 
L 18.109375 46.1875 
Q 21.1875 51.21875 25.484375 53.609375 
Q 29.78125 56 35.6875 56 
Q 41.65625 56 45.828125 52.96875 
Q 50 49.953125 52 44.1875 
" id="DejaVuSans-6d"/>
      <path id="DejaVuSans-20"/>
      <path d="M 54.890625 33.015625 
L 54.890625 0 
L 45.90625 0 
L 45.90625 32.71875 
Q 45.90625 40.484375 42.875 44.328125 
Q 39.84375 48.1875 33.796875 48.1875 
Q 26.515625 48.1875 22.3125 43.546875 
Q 18.109375 38.921875 18.109375 30.90625 
L 18.109375 0 
L 9.078125 0 
L 9.078125 54.6875 
L 18.109375 54.6875 
L 18.109375 46.1875 
Q 21.34375 51.125 25.703125 53.5625 
Q 30.078125 56 35.796875 56 
Q 45.21875 56 50.046875 50.171875 
Q 54.890625 44.34375 54.890625 33.015625 
" id="DejaVuSans-6e"/>
      <path d="M 9.421875 54.6875 
L 18.40625 54.6875 
L 18.40625 0 
L 9.421875 0 
z
M 9.421875 75.984375 
L 18.40625 75.984375 
L 18.40625 64.59375 
L 9.421875 64.59375 
z
" id="DejaVuSans-69"/>
      <path d="M 9.421875 75.984375 
L 18.40625 75.984375 
L 18.40625 0 
L 9.421875 0 
z
" id="DejaVuSans-6c"/>
      <path d="M 30.609375 48.390625 
Q 23.390625 48.390625 19.1875 42.75 
Q 14.984375 37.109375 14.984375 27.296875 
Q 14.984375 17.484375 19.15625 11.84375 
Q 23.34375 6.203125 30.609375 6.203125 
Q 37.796875 6.203125 41.984375 11.859375 
Q 46.1875 17.53125 46.1875 27.296875 
Q 46.1875 37.015625 41.984375 42.703125 
Q 37.796875 48.390625 30.609375 48.390625 
M 30.609375 56 
Q 42.328125 56 49.015625 48.375 
Q 55.71875 40.765625 55.71875 27.296875 
Q 55.71875 13.875 49.015625 6.21875 
Q 42.328125 -1.421875 30.609375 -1.421875 
Q 18.84375 -1.421875 12.171875 6.21875 
Q 5.515625 13.875 5.515625 27.296875 
Q 5.515625 40.765625 12.171875 48.375 
Q 18.84375 56 30.609375 56 
" id="DejaVuSans-6f"/>
      <path d="M 4.203125 54.6875 
L 13.1875 54.6875 
L 24.421875 12.015625 
L 35.59375 54.6875 
L 46.1875 54.6875 
L 57.421875 12.015625 
L 68.609375 54.6875 
L 77.59375 54.6875 
L 63.28125 0 
L 52.6875 0 
L 40.921875 44.828125 
L 29.109375 0 
L 18.5 0 
z
" id="DejaVuSans-77"/>
     </defs>
     <g transform="translate(333.853438 261.357312)scale(0.06 -0.06)">
      <use xlink:href="#DejaVuSans-73"/>
      <use x="52.099609" xlink:href="#DejaVuSans-79"/>
      <use x="111.279297" xlink:href="#DejaVuSans-73"/>
      <use x="163.378906" xlink:href="#DejaVuSans-74"/>
      <use x="202.587891" xlink:href="#DejaVuSans-65"/>
      <use x="264.111328" xlink:href="#DejaVuSans-6d"/>
      <use x="361.523438" xlink:href="#DejaVuSans-20"/>
      <use x="393.310547" xlink:href="#DejaVuSans-6e"/>
      <use x="456.689453" xlink:href="#DejaVuSans-69"/>
      <use x="484.472656" xlink:href="#DejaVuSans-65"/>
      <use x="545.996094" xlink:href="#DejaVuSans-6c"/>
      <use x="573.779297" xlink:href="#DejaVuSans-69"/>
      <use x="601.5625" xlink:href="#DejaVuSans-6e"/>
      <use x="664.941406" xlink:href="#DejaVuSans-69"/>
      <use x="692.724609" xlink:href="#DejaVuSans-6f"/>
      <use x="753.90625" xlink:href="#DejaVuSans-77"/>
      <use x="835.693359" xlink:href="#DejaVuSans-79"/>
     </g>
    </g>
    <g id="line2d_59">
     <path d="M 317.053438 268.064187 
L 329.053438 268.064187 
" style="fill:none;stroke:#ff7f0e;stroke-linecap:square;stroke-width:1.5;"/>
    </g>
    <g id="line2d_60"/>
    <g id="text_18">
     <!-- system zlinearyzowany -->
     <defs>
      <path d="M 5.515625 54.6875 
L 48.1875 54.6875 
L 48.1875 46.484375 
L 14.40625 7.171875 
L 48.1875 7.171875 
L 48.1875 0 
L 4.296875 0 
L 4.296875 8.203125 
L 38.09375 47.515625 
L 5.515625 47.515625 
z
" id="DejaVuSans-7a"/>
      <path d="M 34.28125 27.484375 
Q 23.390625 27.484375 19.1875 25 
Q 14.984375 22.515625 14.984375 16.5 
Q 14.984375 11.71875 18.140625 8.90625 
Q 21.296875 6.109375 26.703125 6.109375 
Q 34.1875 6.109375 38.703125 11.40625 
Q 43.21875 16.703125 43.21875 25.484375 
L 43.21875 27.484375 
z
M 52.203125 31.203125 
L 52.203125 0 
L 43.21875 0 
L 43.21875 8.296875 
Q 40.140625 3.328125 35.546875 0.953125 
Q 30.953125 -1.421875 24.3125 -1.421875 
Q 15.921875 -1.421875 10.953125 3.296875 
Q 6 8.015625 6 15.921875 
Q 6 25.140625 12.171875 29.828125 
Q 18.359375 34.515625 30.609375 34.515625 
L 43.21875 34.515625 
L 43.21875 35.40625 
Q 43.21875 41.609375 39.140625 45 
Q 35.0625 48.390625 27.6875 48.390625 
Q 23 48.390625 18.546875 47.265625 
Q 14.109375 46.140625 10.015625 43.890625 
L 10.015625 52.203125 
Q 14.9375 54.109375 19.578125 55.046875 
Q 24.21875 56 28.609375 56 
Q 40.484375 56 46.34375 49.84375 
Q 52.203125 43.703125 52.203125 31.203125 
" id="DejaVuSans-61"/>
      <path d="M 41.109375 46.296875 
Q 39.59375 47.171875 37.8125 47.578125 
Q 36.03125 48 33.890625 48 
Q 26.265625 48 22.1875 43.046875 
Q 18.109375 38.09375 18.109375 28.8125 
L 18.109375 0 
L 9.078125 0 
L 9.078125 54.6875 
L 18.109375 54.6875 
L 18.109375 46.1875 
Q 20.953125 51.171875 25.484375 53.578125 
Q 30.03125 56 36.53125 56 
Q 37.453125 56 38.578125 55.875 
Q 39.703125 55.765625 41.0625 55.515625 
z
" id="DejaVuSans-72"/>
     </defs>
     <g transform="translate(333.853438 270.164187)scale(0.06 -0.06)">
      <use xlink:href="#DejaVuSans-73"/>
      <use x="52.099609" xlink:href="#DejaVuSans-79"/>
      <use x="111.279297" xlink:href="#DejaVuSans-73"/>
      <use x="163.378906" xlink:href="#DejaVuSans-74"/>
      <use x="202.587891" xlink:href="#DejaVuSans-65"/>
      <use x="264.111328" xlink:href="#DejaVuSans-6d"/>
      <use x="361.523438" xlink:href="#DejaVuSans-20"/>
      <use x="393.310547" xlink:href="#DejaVuSans-7a"/>
      <use x="445.800781" xlink:href="#DejaVuSans-6c"/>
      <use x="473.583984" xlink:href="#DejaVuSans-69"/>
      <use x="501.367188" xlink:href="#DejaVuSans-6e"/>
      <use x="564.746094" xlink:href="#DejaVuSans-65"/>
      <use x="626.269531" xlink:href="#DejaVuSans-61"/>
      <use x="687.548828" xlink:href="#DejaVuSans-72"/>
      <use x="728.662109" xlink:href="#DejaVuSans-79"/>
      <use x="787.841797" xlink:href="#DejaVuSans-7a"/>
      <use x="840.332031" xlink:href="#DejaVuSans-6f"/>
      <use x="901.513672" xlink:href="#DejaVuSans-77"/>
      <use x="983.300781" xlink:href="#DejaVuSans-61"/>
      <use x="1044.580078" xlink:href="#DejaVuSans-6e"/>
      <use x="1107.958984" xlink:href="#DejaVuSans-79"/>
     </g>
    </g>
   </g>
  </g>
 </g>
 <defs>
  <clipPath id="pa1ab574bb5">
   <rect height="266.112" width="357.12" x="52.160938" y="10.7"/>
  </clipPath>
 </defs>
</svg>
