<?xml version="1.0" encoding="utf-8" standalone="no"?>
<!DOCTYPE svg PUBLIC "-//W3C//DTD SVG 1.1//EN"
  "http://www.w3.org/Graphics/SVG/1.1/DTD/svg11.dtd">
<!-- Created with matplotlib (http://matplotlib.org/) -->
<svg height="314pt" version="1.1" viewBox="0 0 427 314" width="427pt" xmlns="http://www.w3.org/2000/svg" xmlns:xlink="http://www.w3.org/1999/xlink">
 <defs>
  <style type="text/css">
*{stroke-linecap:butt;stroke-linejoin:round;}
  </style>
 </defs>
 <g id="figure_1">
  <g id="patch_1">
   <path d="M 0 314.36825 
L 427.61375 314.36825 
L 427.61375 0 
L 0 0 
z
" style="fill:#ffffff;"/>
  </g>
  <g id="axes_1">
   <g id="patch_2">
    <path d="M 52.160938 276.812 
L 409.280938 276.812 
L 409.280938 10.7 
L 52.160938 10.7 
z
" style="fill:#ffffff;"/>
   </g>
   <g id="patch_3">
    <path clip-path="url(#p48cb41753b)" d="M 250.087887 72.959155 
L 245.782103 67.515112 
L 248.022325 66.089372 
L 248.186023 65.983063 
L 248.186538 65.984862 
L 250.42676 64.559123 
z
" style="fill:#1f77b4;stroke:#1f77b4;stroke-linejoin:miter;"/>
   </g>
   <g id="patch_4">
    <path clip-path="url(#p48cb41753b)" d="M 261.325661 120.715863 
L 257.497799 114.529473 
L 259.838016 113.521784 
L 260.00936 113.446888 
L 260.00956 113.447918 
L 262.349777 112.440229 
z
" style="fill:#1f77b4;stroke:#1f77b4;stroke-linejoin:miter;"/>
   </g>
   <g id="patch_5">
    <path clip-path="url(#p48cb41753b)" d="M 301.40644 50.618881 
L 297.422166 44.65587 
L 299.734725 43.51514 
L 299.903578 43.428537 
L 299.904241 43.431522 
L 302.2168 42.290792 
z
" style="fill:#1f77b4;stroke:#1f77b4;stroke-linejoin:miter;"/>
   </g>
   <g id="patch_6">
    <path clip-path="url(#p48cb41753b)" d="M 312.364801 167.219189 
L 310.840261 159.116513 
L 313.232244 159.803063 
L 313.407693 159.852531 
L 313.407582 159.853388 
L 315.799565 160.539938 
z
" style="fill:#1f77b4;stroke:#1f77b4;stroke-linejoin:miter;"/>
   </g>
   <g id="patch_7">
    <path clip-path="url(#p48cb41753b)" d="M 384.768069 111.900159 
L 381.582143 104.952386 
L 383.995641 104.460738 
L 384.172301 104.421924 
L 384.172556 104.424699 
L 386.586054 103.93305 
z
" style="fill:#1f77b4;stroke:#1f77b4;stroke-linejoin:miter;"/>
   </g>
   <g id="patch_8">
    <path clip-path="url(#p48cb41753b)" d="M 330.665597 221.098559 
L 335.973826 218.229399 
L 335.692566 221.835455 
L 335.672474 222.099878 
L 335.671949 222.099787 
L 335.39069 225.705843 
z
" style="fill:#1f77b4;stroke:#1f77b4;stroke-linejoin:miter;"/>
   </g>
   <g id="patch_9">
    <path clip-path="url(#p48cb41753b)" d="M 410.345803 64.187877 
L 406.812995 57.623189 
L 409.194232 56.858156 
L 409.368213 56.798137 
L 409.368783 56.802078 
L 411.75002 56.037045 
z
" style="fill:#1f77b4;stroke:#1f77b4;stroke-linejoin:miter;"/>
   </g>
   <g id="patch_10">
    <path clip-path="url(#p48cb41753b)" d="M 409.842144 117.544736 
L 406.771561 110.482558 
L 409.192426 110.079309 
L 409.369665 110.046865 
L 409.369881 110.04975 
L 411.790747 109.646502 
z
" style="fill:#1f77b4;stroke:#1f77b4;stroke-linejoin:miter;"/>
   </g>
   <g id="patch_11">
    <path clip-path="url(#p48cb41753b)" d="M 388.418269 222.553133 
L 390.74802 214.88761 
L 392.283216 217.706241 
L 392.396249 217.912249 
L 392.39575 217.912853 
L 393.930946 220.731484 
z
" style="fill:#1f77b4;stroke:#1f77b4;stroke-linejoin:miter;"/>
   </g>
   <g id="patch_12">
    <path clip-path="url(#p48cb41753b)" d="M 312.699402 216.815256 
L 318.305487 215.809447 
L 317.484324 219.227291 
L 317.424637 219.478098 
L 317.424131 219.477827 
L 316.602968 222.895671 
z
" style="fill:#1f77b4;stroke:#1f77b4;stroke-linejoin:miter;"/>
   </g>
   <g id="patch_13">
    <path clip-path="url(#p48cb41753b)" d="M 382.280508 232.941182 
L 386.215236 226.905543 
L 387.018794 230.332668 
L 387.07828 230.583581 
L 387.077697 230.583884 
L 387.881255 234.011009 
z
" style="fill:#1f77b4;stroke:#1f77b4;stroke-linejoin:miter;"/>
   </g>
   <g id="patch_14">
    <path clip-path="url(#p48cb41753b)" d="M 299.328346 208.804458 
L 304.968806 208.413295 
L 303.981873 211.732323 
L 303.909985 211.975916 
L 303.909529 211.975615 
L 302.922597 215.294643 
z
" style="fill:#1f77b4;stroke:#1f77b4;stroke-linejoin:miter;"/>
   </g>
   <g id="patch_15">
    <path clip-path="url(#p48cb41753b)" d="M 362.502404 249.63962 
L 368.060556 248.156303 
L 367.372271 251.638708 
L 367.322542 251.894294 
L 367.321819 251.893976 
L 366.633534 255.376381 
z
" style="fill:#1f77b4;stroke:#1f77b4;stroke-linejoin:miter;"/>
   </g>
   <g id="patch_16">
    <path clip-path="url(#p48cb41753b)" d="M 282.161433 197.03468 
L 287.801022 197.452799 
L 286.604727 200.615193 
L 286.517418 200.847324 
L 286.517036 200.847004 
L 285.320742 204.009397 
z
" style="fill:#1f77b4;stroke:#1f77b4;stroke-linejoin:miter;"/>
   </g>
   <g id="patch_17">
    <path clip-path="url(#p48cb41753b)" d="M 303.828982 243.406992 
L 309.237515 245.824553 
L 307.568125 248.468327 
L 307.446455 248.663104 
L 307.445755 248.662122 
L 305.776364 251.305896 
z
" style="fill:#1f77b4;stroke:#1f77b4;stroke-linejoin:miter;"/>
   </g>
   <g id="patch_18">
    <path clip-path="url(#p48cb41753b)" d="M 257.864639 180.577804 
L 263.302687 182.843539 
L 261.666911 185.533577 
L 261.547285 185.731141 
L 261.547005 185.730763 
L 259.911229 188.420802 
z
" style="fill:#1f77b4;stroke:#1f77b4;stroke-linejoin:miter;"/>
   </g>
   <g id="patch_19">
    <path clip-path="url(#p48cb41753b)" d="M 242.272815 229.943323 
L 246.949741 234.658501 
L 244.826625 236.438286 
L 244.671612 236.570382 
L 244.670996 236.568748 
L 242.547879 238.348532 
z
" style="fill:#1f77b4;stroke:#1f77b4;stroke-linejoin:miter;"/>
   </g>
   <g id="patch_20">
    <path clip-path="url(#p48cb41753b)" d="M 220.813989 164.709297 
L 225.067664 170.243577 
L 222.814133 171.621941 
L 222.649129 171.723651 
L 222.648944 171.722979 
L 220.395412 173.101344 
z
" style="fill:#1f77b4;stroke:#1f77b4;stroke-linejoin:miter;"/>
   </g>
   <g id="patch_21">
    <path clip-path="url(#p48cb41753b)" d="M 182.292841 203.723275 
L 186.266222 209.702407 
L 183.951591 210.833763 
L 183.782367 210.918709 
L 183.781923 210.916694 
L 181.467292 212.048049 
z
" style="fill:#1f77b4;stroke:#1f77b4;stroke-linejoin:miter;"/>
   </g>
   <g id="patch_22">
    <path clip-path="url(#p48cb41753b)" d="M 174.255367 139.192092 
L 176.924823 146.607504 
L 174.489891 146.711934 
L 174.311422 146.720465 
L 174.311405 146.719589 
L 171.876473 146.824019 
z
" style="fill:#1f77b4;stroke:#1f77b4;stroke-linejoin:miter;"/>
   </g>
   <g id="patch_23">
    <path clip-path="url(#p48cb41753b)" d="M 123.309863 222.613943 
L 127.046455 228.923054 
L 124.692073 229.854581 
L 124.520059 229.926048 
L 124.519492 229.922864 
L 122.16511 230.854391 
z
" style="fill:#1f77b4;stroke:#1f77b4;stroke-linejoin:miter;"/>
   </g>
   <g id="patch_24">
    <path clip-path="url(#p48cb41753b)" d="M 129.27787 88.555367 
L 127.31069 96.443366 
L 125.647942 93.790311 
L 125.525721 93.596305 
L 125.526059 93.595836 
L 123.863311 90.94278 
z
" style="fill:#1f77b4;stroke:#1f77b4;stroke-linejoin:miter;"/>
   </g>
   <g id="patch_25">
    <path clip-path="url(#p48cb41753b)" d="M 50.895538 258.951018 
L 54.604909 265.295705 
L 52.246567 266.204715 
L 52.074502 266.275993 
L 52.073695 266.271348 
L 49.715354 267.180358 
z
" style="fill:#1f77b4;stroke:#1f77b4;stroke-linejoin:miter;"/>
   </g>
   <g id="patch_26">
    <path clip-path="url(#p48cb41753b)" d="M 51.32408 194.693568 
L 54.650901 201.493088 
L 52.248604 202.094361 
L 52.072891 202.14181 
L 52.07251 202.138436 
L 49.670214 202.739709 
z
" style="fill:#1f77b4;stroke:#1f77b4;stroke-linejoin:miter;"/>
   </g>
   <g id="patch_27">
    <path clip-path="url(#p48cb41753b)" d="M 51.957761 147.258204 
L 54.684049 154.627549 
L 52.250079 154.773548 
L 52.07173 154.786686 
L 52.071664 154.78425 
L 49.637695 154.930249 
z
" style="fill:#1f77b4;stroke:#1f77b4;stroke-linejoin:miter;"/>
   </g>
   <g id="patch_28">
    <path clip-path="url(#p48cb41753b)" d="M 93.168773 54.540543 
L 88.579818 59.443945 
L 88.195626 55.859046 
L 88.166872 55.596405 
L 88.167463 55.596265 
L 87.783271 52.011366 
z
" style="fill:#1f77b4;stroke:#1f77b4;stroke-linejoin:miter;"/>
   </g>
   <g id="patch_29">
    <path clip-path="url(#p48cb41753b)" d="M 148.91731 70.63992 
L 143.308251 71.608208 
L 144.139702 68.195893 
L 144.200143 67.945488 
L 144.20065 67.945762 
L 145.032101 64.533447 
z
" style="fill:#1f77b4;stroke:#1f77b4;stroke-linejoin:miter;"/>
   </g>
   <g id="patch_30">
    <path clip-path="url(#p48cb41753b)" d="M 107.651255 49.768236 
L 102.256438 52.252931 
L 102.653945 48.671258 
L 102.682444 48.408555 
L 102.683083 48.408713 
L 103.080589 44.827039 
z
" style="fill:#1f77b4;stroke:#1f77b4;stroke-linejoin:miter;"/>
   </g>
   <g id="patch_31">
    <path clip-path="url(#p48cb41753b)" d="M 164.307824 79.642516 
L 158.662856 79.842529 
L 159.700148 76.557786 
L 159.775734 76.316691 
L 159.776184 76.317007 
L 160.813477 73.032265 
z
" style="fill:#1f77b4;stroke:#1f77b4;stroke-linejoin:miter;"/>
   </g>
   <g id="patch_32">
    <path clip-path="url(#p48cb41753b)" d="M 122.909567 37.72068 
L 117.272628 37.229574 
L 118.487308 34.082785 
L 118.575613 33.851489 
L 118.576347 33.852119 
L 119.791028 30.70533 
z
" style="fill:#1f77b4;stroke:#1f77b4;stroke-linejoin:miter;"/>
   </g>
   <g id="patch_33">
    <path clip-path="url(#p48cb41753b)" d="M 173.959663 82.944953 
L 168.337948 82.156363 
L 169.626712 79.075723 
L 169.720749 78.849502 
L 169.721182 78.849904 
L 171.009946 75.769264 
z
" style="fill:#1f77b4;stroke:#1f77b4;stroke-linejoin:miter;"/>
   </g>
   <g id="patch_34">
    <path clip-path="url(#p48cb41753b)" d="M 181.588875 34.831258 
L 176.538701 31.067074 
L 178.487607 28.889178 
L 178.6297 28.72801 
L 178.630466 28.729533 
L 180.579372 26.551637 
z
" style="fill:#1f77b4;stroke:#1f77b4;stroke-linejoin:miter;"/>
   </g>
   <g id="patch_35">
    <path clip-path="url(#p48cb41753b)" d="M 208.38178 89.053819 
L 203.375877 85.160508 
L 205.349674 83.032982 
L 205.493952 82.876195 
L 205.494358 82.877029 
L 207.468154 80.749504 
z
" style="fill:#1f77b4;stroke:#1f77b4;stroke-linejoin:miter;"/>
   </g>
   <g id="patch_36">
    <path clip-path="url(#p48cb41753b)" d="M 240.956931 42.209372 
L 236.516691 37.010743 
L 238.719313 35.460337 
L 238.880051 35.344419 
L 238.88077 35.346689 
L 241.083393 33.796282 
z
" style="fill:#1f77b4;stroke:#1f77b4;stroke-linejoin:miter;"/>
   </g>
   <g id="patch_37">
    <path clip-path="url(#p48cb41753b)" d="M 261.502513 121.755447 
L 257.694187 115.542333 
L 260.037554 114.551035 
L 260.209136 114.477358 
L 260.209328 114.47837 
L 262.552695 113.487072 
z
" style="fill:#1f77b4;stroke:#1f77b4;stroke-linejoin:miter;"/>
   </g>
   <g id="patch_38">
    <path clip-path="url(#p48cb41753b)" d="M 243.70197 51.114697 
L 239.294545 45.854411 
L 241.5068 44.334771 
L 241.668303 44.221243 
L 241.668964 44.223378 
L 243.881219 42.703738 
z
" style="fill:#ff7f0e;stroke:#ff7f0e;stroke-linejoin:miter;"/>
   </g>
   <g id="patch_39">
    <path clip-path="url(#p48cb41753b)" d="M 263.768937 142.025791 
L 260.594377 135.066472 
L 263.008672 134.583587 
L 263.185586 134.54753 
L 263.185645 134.54819 
L 265.599939 134.065305 
z
" style="fill:#ff7f0e;stroke:#ff7f0e;stroke-linejoin:miter;"/>
   </g>
   <g id="patch_40">
    <path clip-path="url(#p48cb41753b)" d="M 305.462379 70.90975 
L 301.61235 64.753988 
L 303.948914 63.727643 
L 304.119661 63.649738 
L 304.120189 63.652409 
L 306.456754 62.626064 
z
" style="fill:#ff7f0e;stroke:#ff7f0e;stroke-linejoin:miter;"/>
   </g>
   <g id="patch_41">
    <path clip-path="url(#p48cb41753b)" d="M 302.928616 186.562775 
L 304.736466 178.590545 
L 306.451761 181.168228 
L 306.577749 181.356804 
L 306.577496 181.357178 
L 308.292792 183.93486 
z
" style="fill:#ff7f0e;stroke:#ff7f0e;stroke-linejoin:miter;"/>
   </g>
   <g id="patch_42">
    <path clip-path="url(#p48cb41753b)" d="M 378.225424 61.494005 
L 374.663673 54.964146 
L 377.041477 54.17575 
L 377.215187 54.11402 
L 377.215775 54.117959 
L 379.593579 53.329563 
z
" style="fill:#ff7f0e;stroke:#ff7f0e;stroke-linejoin:miter;"/>
   </g>
   <g id="patch_43">
    <path clip-path="url(#p48cb41753b)" d="M 337.611795 228.108819 
L 342.742209 224.593894 
L 342.662449 228.222283 
L 342.65717 228.48828 
L 342.656603 228.488253 
L 342.576843 232.116642 
z
" style="fill:#ff7f0e;stroke:#ff7f0e;stroke-linejoin:miter;"/>
   </g>
   <g id="patch_44">
    <path clip-path="url(#p48cb41753b)" d="M 410.244993 64.219085 
L 406.802664 57.54849 
L 409.193866 56.85592 
L 409.368578 56.800793 
L 409.369146 56.805153 
L 411.760348 56.112583 
z
" style="fill:#ff7f0e;stroke:#ff7f0e;stroke-linejoin:miter;"/>
   </g>
   <g id="patch_45">
    <path clip-path="url(#p48cb41753b)" d="M 409.768633 117.556588 
L 406.767723 110.4282 
L 409.192289 110.077791 
L 409.369801 110.048802 
L 409.370016 110.052105 
L 411.794581 109.701697 
z
" style="fill:#ff7f0e;stroke:#ff7f0e;stroke-linejoin:miter;"/>
   </g>
   <g id="patch_46">
    <path clip-path="url(#p48cb41753b)" d="M 403.768491 200.138624 
L 402.865646 191.831691 
L 405.19057 192.915155 
L 405.361328 192.992977 
L 405.360993 192.994576 
L 407.685917 194.07804 
z
" style="fill:#ff7f0e;stroke:#ff7f0e;stroke-linejoin:miter;"/>
   </g>
   <g id="patch_47">
    <path clip-path="url(#p48cb41753b)" d="M 290.385878 205.686858 
L 296.029215 205.971314 
L 294.866803 209.16165 
L 294.782034 209.395864 
L 294.781596 209.395509 
L 293.619185 212.585845 
z
" style="fill:#ff7f0e;stroke:#ff7f0e;stroke-linejoin:miter;"/>
   </g>
   <g id="patch_48">
    <path clip-path="url(#p48cb41753b)" d="M 369.60912 245.157183 
L 374.295704 240.463353 
L 374.606801 244.063961 
L 374.63028 244.327765 
L 374.629605 244.327894 
L 374.940702 247.928503 
z
" style="fill:#ff7f0e;stroke:#ff7f0e;stroke-linejoin:miter;"/>
   </g>
   <g id="patch_49">
    <path clip-path="url(#p48cb41753b)" d="M 286.94583 203.09053 
L 292.584443 203.536905 
L 291.381021 206.693286 
L 291.29323 206.925013 
L 291.292808 206.924656 
L 290.089385 210.081037 
z
" style="fill:#ff7f0e;stroke:#ff7f0e;stroke-linejoin:miter;"/>
   </g>
   <g id="patch_50">
    <path clip-path="url(#p48cb41753b)" d="M 364.149952 260.027754 
L 369.671158 258.264406 
L 369.062504 261.779591 
L 369.01868 262.037567 
L 369.017888 262.037262 
L 368.409235 265.552447 
z
" style="fill:#ff7f0e;stroke:#ff7f0e;stroke-linejoin:miter;"/>
   </g>
   <g id="patch_51">
    <path clip-path="url(#p48cb41753b)" d="M 285.896951 203.957167 
L 291.520172 204.721547 
L 290.237385 207.807724 
L 290.143783 208.034344 
L 290.143354 208.033948 
L 288.860567 211.120125 
z
" style="fill:#ff7f0e;stroke:#ff7f0e;stroke-linejoin:miter;"/>
   </g>
   <g id="patch_52">
    <path clip-path="url(#p48cb41753b)" d="M 312.691506 256.749233 
L 318.119215 259.06938 
L 316.471346 261.742975 
L 316.351342 261.940035 
L 316.350554 261.938955 
L 314.702685 264.61255 
z
" style="fill:#ff7f0e;stroke:#ff7f0e;stroke-linejoin:miter;"/>
   </g>
   <g id="patch_53">
    <path clip-path="url(#p48cb41753b)" d="M 265.62139 192.118554 
L 271.044587 194.462016 
L 269.391552 197.128519 
L 269.270738 197.324471 
L 269.27038 197.323979 
L 267.617345 199.990482 
z
" style="fill:#ff7f0e;stroke:#ff7f0e;stroke-linejoin:miter;"/>
   </g>
   <g id="patch_54">
    <path clip-path="url(#p48cb41753b)" d="M 252.060475 255.539633 
L 256.796696 260.121468 
L 254.696663 261.961077 
L 254.543513 262.097919 
L 254.542726 262.095924 
L 252.442694 263.935532 
z
" style="fill:#ff7f0e;stroke:#ff7f0e;stroke-linejoin:miter;"/>
   </g>
   <g id="patch_55">
    <path clip-path="url(#p48cb41753b)" d="M 225.047722 179.856217 
L 229.480669 185.068652 
L 227.275879 186.612201 
L 227.114548 186.72625 
L 227.114263 186.725346 
L 224.909473 188.268895 
z
" style="fill:#ff7f0e;stroke:#ff7f0e;stroke-linejoin:miter;"/>
   </g>
   <g id="patch_56">
    <path clip-path="url(#p48cb41753b)" d="M 191.835648 243.761526 
L 196.041932 249.375682 
L 193.776863 250.711383 
L 193.611537 250.811964 
L 193.610828 250.809293 
L 191.345759 252.144995 
z
" style="fill:#ff7f0e;stroke:#ff7f0e;stroke-linejoin:miter;"/>
   </g>
   <g id="patch_57">
    <path clip-path="url(#p48cb41753b)" d="M 175.100546 130.052718 
L 177.146415 137.896134 
L 174.720977 137.559394 
L 174.543143 137.535415 
L 174.543187 137.53471 
L 172.117749 137.197971 
z
" style="fill:#ff7f0e;stroke:#ff7f0e;stroke-linejoin:miter;"/>
   </g>
   <g id="patch_58">
    <path clip-path="url(#p48cb41753b)" d="M 123.948252 224.993207 
L 127.671506 231.319807 
L 125.315169 232.24029 
L 125.143027 232.311077 
L 125.142444 232.307764 
L 122.786107 233.228247 
z
" style="fill:#ff7f0e;stroke:#ff7f0e;stroke-linejoin:miter;"/>
   </g>
   <g id="patch_59">
    <path clip-path="url(#p48cb41753b)" d="M 156.17539 81.946734 
L 150.877307 84.857248 
L 151.145902 81.249049 
L 151.16517 80.98449 
L 151.165591 80.984559 
L 151.434186 77.37636 
z
" style="fill:#ff7f0e;stroke:#ff7f0e;stroke-linejoin:miter;"/>
   </g>
   <g id="patch_60">
    <path clip-path="url(#p48cb41753b)" d="M 50.996607 258.913294 
L 54.617425 265.370596 
L 52.247011 266.206957 
L 52.074059 266.27333 
L 52.073254 266.268264 
L 49.70284 267.104625 
z
" style="fill:#ff7f0e;stroke:#ff7f0e;stroke-linejoin:miter;"/>
   </g>
   <g id="patch_61">
    <path clip-path="url(#p48cb41753b)" d="M 51.417025 194.671211 
L 54.658262 201.561927 
L 52.248866 202.096391 
L 52.07263 202.139362 
L 52.072252 202.135568 
L 49.662855 202.670032 
z
" style="fill:#ff7f0e;stroke:#ff7f0e;stroke-linejoin:miter;"/>
   </g>
   <g id="patch_62">
    <path clip-path="url(#p48cb41753b)" d="M 51.991175 147.255947 
L 54.684667 154.652028 
L 52.250103 154.77401 
L 52.071708 154.785805 
L 52.071644 154.782952 
L 49.637079 154.904934 
z
" style="fill:#ff7f0e;stroke:#ff7f0e;stroke-linejoin:miter;"/>
   </g>
   <g id="patch_63">
    <path clip-path="url(#p48cb41753b)" d="M 71.862939 55.320767 
L 69.760092 63.130641 
L 68.143746 60.414642 
L 68.024701 60.216297 
L 68.025264 60.215553 
L 66.408917 57.499555 
z
" style="fill:#ff7f0e;stroke:#ff7f0e;stroke-linejoin:miter;"/>
   </g>
   <g id="patch_64">
    <path clip-path="url(#p48cb41753b)" d="M 168.348238 79.466493 
L 162.703557 79.249258 
L 163.848823 76.04518 
L 163.93232 75.809953 
L 163.932774 75.810313 
L 165.07804 72.606235 
z
" style="fill:#ff7f0e;stroke:#ff7f0e;stroke-linejoin:miter;"/>
   </g>
   <g id="patch_65">
    <path clip-path="url(#p48cb41753b)" d="M 109.434253 40.892494 
L 103.986547 43.106102 
L 104.464444 39.546315 
L 104.498776 39.285166 
L 104.499475 39.285375 
L 104.977372 35.725588 
z
" style="fill:#ff7f0e;stroke:#ff7f0e;stroke-linejoin:miter;"/>
   </g>
   <g id="patch_66">
    <path clip-path="url(#p48cb41753b)" d="M 153.027802 66.110791 
L 147.381537 66.197245 
L 148.448481 62.933666 
L 148.526148 62.694045 
L 148.52669 62.694438 
L 149.593634 59.430859 
z
" style="fill:#ff7f0e;stroke:#ff7f0e;stroke-linejoin:miter;"/>
   </g>
   <g id="patch_67">
    <path clip-path="url(#p48cb41753b)" d="M 119.648117 30.991492 
L 114.002235 30.860785 
L 115.12533 27.639322 
L 115.206878 27.402579 
L 115.207656 27.403182 
L 116.330751 24.181719 
z
" style="fill:#ff7f0e;stroke:#ff7f0e;stroke-linejoin:miter;"/>
   </g>
   <g id="patch_68">
    <path clip-path="url(#p48cb41753b)" d="M 170.485857 76.471841 
L 164.877553 75.493893 
L 166.212756 72.457497 
L 166.310152 72.234456 
L 166.31063 72.234922 
L 167.645833 69.198526 
z
" style="fill:#ff7f0e;stroke:#ff7f0e;stroke-linejoin:miter;"/>
   </g>
   <g id="patch_69">
    <path clip-path="url(#p48cb41753b)" d="M 180.831308 33.143457 
L 175.772431 29.405319 
L 177.716272 27.217393 
L 177.857983 27.055479 
L 177.85876 27.057013 
L 179.802601 24.869088 
z
" style="fill:#ff7f0e;stroke:#ff7f0e;stroke-linejoin:miter;"/>
   </g>
   <g id="patch_70">
    <path clip-path="url(#p48cb41753b)" d="M 206.337284 84.537866 
L 201.325898 80.660253 
L 203.296689 78.526545 
L 203.440717 78.369247 
L 203.441152 78.37014 
L 205.411942 76.236433 
z
" style="fill:#ff7f0e;stroke:#ff7f0e;stroke-linejoin:miter;"/>
   </g>
   <g id="patch_71">
    <path clip-path="url(#p48cb41753b)" d="M 244.351206 53.257307 
L 239.952309 47.98119 
L 242.167017 46.469508 
L 242.328714 46.356596 
L 242.329361 46.358699 
L 244.544069 44.847017 
z
" style="fill:#ff7f0e;stroke:#ff7f0e;stroke-linejoin:miter;"/>
   </g>
   <g id="patch_72">
    <path clip-path="url(#p48cb41753b)" d="M 261.49579 121.789876 
L 257.690118 115.573153 
L 260.033907 114.584077 
L 260.20552 114.510562 
L 260.205713 114.511575 
L 262.549502 113.522499 
z
" style="fill:#ff7f0e;stroke:#ff7f0e;stroke-linejoin:miter;"/>
   </g>
   <g id="matplotlib.axis_1">
    <g id="xtick_1">
     <g id="line2d_1">
      <defs>
       <path d="M 0 0 
L 0 3.5 
" id="m7b302bf900" style="stroke:#000000;stroke-width:0.8;"/>
      </defs>
      <g>
       <use style="stroke:#000000;stroke-width:0.8;" x="52.160938" xlink:href="#m7b302bf900" y="276.812"/>
      </g>
     </g>
     <g id="text_1">
      <!-- −1.00 -->
      <defs>
       <path d="M 10.59375 35.5 
L 73.1875 35.5 
L 73.1875 27.203125 
L 10.59375 27.203125 
z
" id="DejaVuSans-2212"/>
       <path d="M 12.40625 8.296875 
L 28.515625 8.296875 
L 28.515625 63.921875 
L 10.984375 60.40625 
L 10.984375 69.390625 
L 28.421875 72.90625 
L 38.28125 72.90625 
L 38.28125 8.296875 
L 54.390625 8.296875 
L 54.390625 0 
L 12.40625 0 
z
" id="DejaVuSans-31"/>
       <path d="M 10.6875 12.40625 
L 21 12.40625 
L 21 0 
L 10.6875 0 
z
" id="DejaVuSans-2e"/>
       <path d="M 31.78125 66.40625 
Q 24.171875 66.40625 20.328125 58.90625 
Q 16.5 51.421875 16.5 36.375 
Q 16.5 21.390625 20.328125 13.890625 
Q 24.171875 6.390625 31.78125 6.390625 
Q 39.453125 6.390625 43.28125 13.890625 
Q 47.125 21.390625 47.125 36.375 
Q 47.125 51.421875 43.28125 58.90625 
Q 39.453125 66.40625 31.78125 66.40625 
M 31.78125 74.21875 
Q 44.046875 74.21875 50.515625 64.515625 
Q 56.984375 54.828125 56.984375 36.375 
Q 56.984375 17.96875 50.515625 8.265625 
Q 44.046875 -1.421875 31.78125 -1.421875 
Q 19.53125 -1.421875 13.0625 8.265625 
Q 6.59375 17.96875 6.59375 36.375 
Q 6.59375 54.828125 13.0625 64.515625 
Q 19.53125 74.21875 31.78125 74.21875 
" id="DejaVuSans-30"/>
      </defs>
      <g transform="translate(36.838281 291.410438)scale(0.1 -0.1)">
       <use xlink:href="#DejaVuSans-2212"/>
       <use x="83.789062" xlink:href="#DejaVuSans-31"/>
       <use x="147.412109" xlink:href="#DejaVuSans-2e"/>
       <use x="179.199219" xlink:href="#DejaVuSans-30"/>
       <use x="242.822266" xlink:href="#DejaVuSans-30"/>
      </g>
     </g>
    </g>
    <g id="xtick_2">
     <g id="line2d_2">
      <g>
       <use style="stroke:#000000;stroke-width:0.8;" x="96.800938" xlink:href="#m7b302bf900" y="276.812"/>
      </g>
     </g>
     <g id="text_2">
      <!-- −0.75 -->
      <defs>
       <path d="M 8.203125 72.90625 
L 55.078125 72.90625 
L 55.078125 68.703125 
L 28.609375 0 
L 18.3125 0 
L 43.21875 64.59375 
L 8.203125 64.59375 
z
" id="DejaVuSans-37"/>
       <path d="M 10.796875 72.90625 
L 49.515625 72.90625 
L 49.515625 64.59375 
L 19.828125 64.59375 
L 19.828125 46.734375 
Q 21.96875 47.46875 24.109375 47.828125 
Q 26.265625 48.1875 28.421875 48.1875 
Q 40.625 48.1875 47.75 41.5 
Q 54.890625 34.8125 54.890625 23.390625 
Q 54.890625 11.625 47.5625 5.09375 
Q 40.234375 -1.421875 26.90625 -1.421875 
Q 22.3125 -1.421875 17.546875 -0.640625 
Q 12.796875 0.140625 7.71875 1.703125 
L 7.71875 11.625 
Q 12.109375 9.234375 16.796875 8.0625 
Q 21.484375 6.890625 26.703125 6.890625 
Q 35.15625 6.890625 40.078125 11.328125 
Q 45.015625 15.765625 45.015625 23.390625 
Q 45.015625 31 40.078125 35.4375 
Q 35.15625 39.890625 26.703125 39.890625 
Q 22.75 39.890625 18.8125 39.015625 
Q 14.890625 38.140625 10.796875 36.28125 
z
" id="DejaVuSans-35"/>
      </defs>
      <g transform="translate(81.478281 291.410438)scale(0.1 -0.1)">
       <use xlink:href="#DejaVuSans-2212"/>
       <use x="83.789062" xlink:href="#DejaVuSans-30"/>
       <use x="147.412109" xlink:href="#DejaVuSans-2e"/>
       <use x="179.199219" xlink:href="#DejaVuSans-37"/>
       <use x="242.822266" xlink:href="#DejaVuSans-35"/>
      </g>
     </g>
    </g>
    <g id="xtick_3">
     <g id="line2d_3">
      <g>
       <use style="stroke:#000000;stroke-width:0.8;" x="141.440938" xlink:href="#m7b302bf900" y="276.812"/>
      </g>
     </g>
     <g id="text_3">
      <!-- −0.50 -->
      <g transform="translate(126.118281 291.410438)scale(0.1 -0.1)">
       <use xlink:href="#DejaVuSans-2212"/>
       <use x="83.789062" xlink:href="#DejaVuSans-30"/>
       <use x="147.412109" xlink:href="#DejaVuSans-2e"/>
       <use x="179.199219" xlink:href="#DejaVuSans-35"/>
       <use x="242.822266" xlink:href="#DejaVuSans-30"/>
      </g>
     </g>
    </g>
    <g id="xtick_4">
     <g id="line2d_4">
      <g>
       <use style="stroke:#000000;stroke-width:0.8;" x="186.080938" xlink:href="#m7b302bf900" y="276.812"/>
      </g>
     </g>
     <g id="text_4">
      <!-- −0.25 -->
      <defs>
       <path d="M 19.1875 8.296875 
L 53.609375 8.296875 
L 53.609375 0 
L 7.328125 0 
L 7.328125 8.296875 
Q 12.9375 14.109375 22.625 23.890625 
Q 32.328125 33.6875 34.8125 36.53125 
Q 39.546875 41.84375 41.421875 45.53125 
Q 43.3125 49.21875 43.3125 52.78125 
Q 43.3125 58.59375 39.234375 62.25 
Q 35.15625 65.921875 28.609375 65.921875 
Q 23.96875 65.921875 18.8125 64.3125 
Q 13.671875 62.703125 7.8125 59.421875 
L 7.8125 69.390625 
Q 13.765625 71.78125 18.9375 73 
Q 24.125 74.21875 28.421875 74.21875 
Q 39.75 74.21875 46.484375 68.546875 
Q 53.21875 62.890625 53.21875 53.421875 
Q 53.21875 48.921875 51.53125 44.890625 
Q 49.859375 40.875 45.40625 35.40625 
Q 44.1875 33.984375 37.640625 27.21875 
Q 31.109375 20.453125 19.1875 8.296875 
" id="DejaVuSans-32"/>
      </defs>
      <g transform="translate(170.758281 291.410438)scale(0.1 -0.1)">
       <use xlink:href="#DejaVuSans-2212"/>
       <use x="83.789062" xlink:href="#DejaVuSans-30"/>
       <use x="147.412109" xlink:href="#DejaVuSans-2e"/>
       <use x="179.199219" xlink:href="#DejaVuSans-32"/>
       <use x="242.822266" xlink:href="#DejaVuSans-35"/>
      </g>
     </g>
    </g>
    <g id="xtick_5">
     <g id="line2d_5">
      <g>
       <use style="stroke:#000000;stroke-width:0.8;" x="230.720938" xlink:href="#m7b302bf900" y="276.812"/>
      </g>
     </g>
     <g id="text_5">
      <!-- 0.00 -->
      <g transform="translate(219.588125 291.410438)scale(0.1 -0.1)">
       <use xlink:href="#DejaVuSans-30"/>
       <use x="63.623047" xlink:href="#DejaVuSans-2e"/>
       <use x="95.410156" xlink:href="#DejaVuSans-30"/>
       <use x="159.033203" xlink:href="#DejaVuSans-30"/>
      </g>
     </g>
    </g>
    <g id="xtick_6">
     <g id="line2d_6">
      <g>
       <use style="stroke:#000000;stroke-width:0.8;" x="275.360938" xlink:href="#m7b302bf900" y="276.812"/>
      </g>
     </g>
     <g id="text_6">
      <!-- 0.25 -->
      <g transform="translate(264.228125 291.410438)scale(0.1 -0.1)">
       <use xlink:href="#DejaVuSans-30"/>
       <use x="63.623047" xlink:href="#DejaVuSans-2e"/>
       <use x="95.410156" xlink:href="#DejaVuSans-32"/>
       <use x="159.033203" xlink:href="#DejaVuSans-35"/>
      </g>
     </g>
    </g>
    <g id="xtick_7">
     <g id="line2d_7">
      <g>
       <use style="stroke:#000000;stroke-width:0.8;" x="320.000938" xlink:href="#m7b302bf900" y="276.812"/>
      </g>
     </g>
     <g id="text_7">
      <!-- 0.50 -->
      <g transform="translate(308.868125 291.410438)scale(0.1 -0.1)">
       <use xlink:href="#DejaVuSans-30"/>
       <use x="63.623047" xlink:href="#DejaVuSans-2e"/>
       <use x="95.410156" xlink:href="#DejaVuSans-35"/>
       <use x="159.033203" xlink:href="#DejaVuSans-30"/>
      </g>
     </g>
    </g>
    <g id="xtick_8">
     <g id="line2d_8">
      <g>
       <use style="stroke:#000000;stroke-width:0.8;" x="364.640938" xlink:href="#m7b302bf900" y="276.812"/>
      </g>
     </g>
     <g id="text_8">
      <!-- 0.75 -->
      <g transform="translate(353.508125 291.410438)scale(0.1 -0.1)">
       <use xlink:href="#DejaVuSans-30"/>
       <use x="63.623047" xlink:href="#DejaVuSans-2e"/>
       <use x="95.410156" xlink:href="#DejaVuSans-37"/>
       <use x="159.033203" xlink:href="#DejaVuSans-35"/>
      </g>
     </g>
    </g>
    <g id="xtick_9">
     <g id="line2d_9">
      <g>
       <use style="stroke:#000000;stroke-width:0.8;" x="409.280938" xlink:href="#m7b302bf900" y="276.812"/>
      </g>
     </g>
     <g id="text_9">
      <!-- 1.00 -->
      <g transform="translate(398.148125 291.410438)scale(0.1 -0.1)">
       <use xlink:href="#DejaVuSans-31"/>
       <use x="63.623047" xlink:href="#DejaVuSans-2e"/>
       <use x="95.410156" xlink:href="#DejaVuSans-30"/>
       <use x="159.033203" xlink:href="#DejaVuSans-30"/>
      </g>
     </g>
    </g>
    <g id="text_10">
     <!-- x1 -->
     <defs>
      <path d="M 54.890625 54.6875 
L 35.109375 28.078125 
L 55.90625 0 
L 45.3125 0 
L 29.390625 21.484375 
L 13.484375 0 
L 2.875 0 
L 24.125 28.609375 
L 4.6875 54.6875 
L 15.28125 54.6875 
L 29.78125 35.203125 
L 44.28125 54.6875 
z
" id="DejaVuSans-78"/>
     </defs>
     <g transform="translate(224.580313 305.088562)scale(0.1 -0.1)">
      <use xlink:href="#DejaVuSans-78"/>
      <use x="59.179688" xlink:href="#DejaVuSans-31"/>
     </g>
    </g>
   </g>
   <g id="matplotlib.axis_2">
    <g id="ytick_1">
     <g id="line2d_10">
      <defs>
       <path d="M 0 0 
L -3.5 0 
" id="m679bcb7df3" style="stroke:#000000;stroke-width:0.8;"/>
      </defs>
      <g>
       <use style="stroke:#000000;stroke-width:0.8;" x="52.160938" xlink:href="#m679bcb7df3" y="250.2008"/>
      </g>
     </g>
     <g id="text_11">
      <!-- −0.4 -->
      <defs>
       <path d="M 37.796875 64.3125 
L 12.890625 25.390625 
L 37.796875 25.390625 
z
M 35.203125 72.90625 
L 47.609375 72.90625 
L 47.609375 25.390625 
L 58.015625 25.390625 
L 58.015625 17.1875 
L 47.609375 17.1875 
L 47.609375 0 
L 37.796875 0 
L 37.796875 17.1875 
L 4.890625 17.1875 
L 4.890625 26.703125 
z
" id="DejaVuSans-34"/>
      </defs>
      <g transform="translate(20.878125 254.000019)scale(0.1 -0.1)">
       <use xlink:href="#DejaVuSans-2212"/>
       <use x="83.789062" xlink:href="#DejaVuSans-30"/>
       <use x="147.412109" xlink:href="#DejaVuSans-2e"/>
       <use x="179.199219" xlink:href="#DejaVuSans-34"/>
      </g>
     </g>
    </g>
    <g id="ytick_2">
     <g id="line2d_11">
      <g>
       <use style="stroke:#000000;stroke-width:0.8;" x="52.160938" xlink:href="#m679bcb7df3" y="196.9784"/>
      </g>
     </g>
     <g id="text_12">
      <!-- −0.2 -->
      <g transform="translate(20.878125 200.777619)scale(0.1 -0.1)">
       <use xlink:href="#DejaVuSans-2212"/>
       <use x="83.789062" xlink:href="#DejaVuSans-30"/>
       <use x="147.412109" xlink:href="#DejaVuSans-2e"/>
       <use x="179.199219" xlink:href="#DejaVuSans-32"/>
      </g>
     </g>
    </g>
    <g id="ytick_3">
     <g id="line2d_12">
      <g>
       <use style="stroke:#000000;stroke-width:0.8;" x="52.160938" xlink:href="#m679bcb7df3" y="143.756"/>
      </g>
     </g>
     <g id="text_13">
      <!-- 0.0 -->
      <g transform="translate(29.257812 147.555219)scale(0.1 -0.1)">
       <use xlink:href="#DejaVuSans-30"/>
       <use x="63.623047" xlink:href="#DejaVuSans-2e"/>
       <use x="95.410156" xlink:href="#DejaVuSans-30"/>
      </g>
     </g>
    </g>
    <g id="ytick_4">
     <g id="line2d_13">
      <g>
       <use style="stroke:#000000;stroke-width:0.8;" x="52.160938" xlink:href="#m679bcb7df3" y="90.5336"/>
      </g>
     </g>
     <g id="text_14">
      <!-- 0.2 -->
      <g transform="translate(29.257812 94.332819)scale(0.1 -0.1)">
       <use xlink:href="#DejaVuSans-30"/>
       <use x="63.623047" xlink:href="#DejaVuSans-2e"/>
       <use x="95.410156" xlink:href="#DejaVuSans-32"/>
      </g>
     </g>
    </g>
    <g id="ytick_5">
     <g id="line2d_14">
      <g>
       <use style="stroke:#000000;stroke-width:0.8;" x="52.160938" xlink:href="#m679bcb7df3" y="37.3112"/>
      </g>
     </g>
     <g id="text_15">
      <!-- 0.4 -->
      <g transform="translate(29.257812 41.110419)scale(0.1 -0.1)">
       <use xlink:href="#DejaVuSans-30"/>
       <use x="63.623047" xlink:href="#DejaVuSans-2e"/>
       <use x="95.410156" xlink:href="#DejaVuSans-34"/>
      </g>
     </g>
    </g>
    <g id="text_16">
     <!-- x2 -->
     <g transform="translate(14.798438 149.896625)rotate(-90)scale(0.1 -0.1)">
      <use xlink:href="#DejaVuSans-78"/>
      <use x="59.179688" xlink:href="#DejaVuSans-32"/>
     </g>
    </g>
   </g>
   <g id="line2d_15">
    <path clip-path="url(#p48cb41753b)" d="M 230.720938 10.7 
L 236.548019 28.379608 
L 242.247553 46.411542 
L 247.036318 62.351602 
L 251.020696 76.413945 
L 254.29618 88.792499 
L 256.948403 99.662867 
L 259.054038 109.183909 
L 260.681586 117.499064 
L 261.892216 124.737804 
L 262.740519 131.016958 
L 263.275139 136.441809 
L 263.539347 141.107089 
L 263.571585 145.097971 
L 263.405965 148.490979 
L 263.072704 151.354785 
L 262.598523 153.75097 
L 262.007014 155.734713 
L 261.318973 157.355421 
L 260.55268 158.657288 
L 259.724169 159.679808 
L 258.735122 160.540002 
L 257.702324 161.135685 
L 256.640545 161.505961 
L 255.441999 161.694585 
L 254.117262 161.678144 
L 252.563609 161.417516 
L 250.926602 160.913813 
L 249.015001 160.081597 
L 246.901183 158.906936 
L 244.584627 157.36135 
L 241.966149 155.335724 
L 239.12979 152.848256 
L 236.137265 149.920303 
L 233.144972 146.680407 
L 230.720937 143.756 
L 230.720938 143.756 
" style="fill:none;stroke:#1f77b4;stroke-linecap:square;stroke-width:0.5;"/>
   </g>
   <g id="line2d_16">
    <path clip-path="url(#p48cb41753b)" d="M 292.020663 10.7 
L 296.194548 27.768665 
L 299.81882 43.470347 
L 302.937856 57.898643 
L 305.592961 71.141712 
L 307.822437 83.282237 
L 309.662048 94.398185 
L 311.144931 104.562532 
L 312.301808 113.843567 
L 313.161221 122.305248 
L 313.749648 130.007383 
L 314.091626 137.005801 
L 314.209879 143.352569 
L 314.125444 149.096213 
L 313.857795 154.281938 
L 313.424934 158.951807 
L 312.843503 163.144936 
L 312.128877 166.897707 
L 311.295258 170.243925 
L 310.355757 173.215018 
L 309.322473 175.840182 
L 308.206534 178.146478 
L 307.018195 180.159039 
L 305.766923 181.90125 
L 304.461432 183.394832 
L 302.834495 184.887199 
L 301.15357 186.082556 
L 299.430006 187.010216 
L 297.674033 187.697011 
L 295.894836 188.167453 
L 293.800708 188.472673 
L 291.697793 188.54622 
L 289.296712 188.383836 
L 286.910576 187.995724 
L 284.257883 187.33202 
L 281.365238 186.362756 
L 278.266766 185.073366 
L 275.003433 183.465598 
L 271.621794 181.557172 
L 267.933783 179.221735 
L 264.043299 176.496213 
L 259.865076 173.29382 
L 255.409571 169.586669 
L 250.793064 165.444782 
L 246.112625 160.943232 
L 241.392396 156.094766 
L 236.75426 151.010133 
L 232.61138 146.144658 
L 230.720937 143.756 
L 230.720937 143.756 
" style="fill:none;stroke:#1f77b4;stroke-linecap:square;stroke-width:0.5;"/>
   </g>
   <g id="line2d_17">
    <path clip-path="url(#p48cb41753b)" d="M 369.699764 10.7 
L 373.03365 28.182394 
L 375.914788 44.44482 
L 378.374898 59.561741 
L 380.443856 73.604137 
L 382.14954 86.638953 
L 383.518168 98.72969 
L 384.574343 109.93639 
L 385.340992 120.315417 
L 385.839578 129.919823 
L 386.09021 138.79954 
L 386.11171 147.001468 
L 385.921673 154.569588 
L 385.536551 161.545108 
L 384.971726 167.966619 
L 384.241582 173.87025 
L 383.359564 179.289782 
L 382.338224 184.256765 
L 381.189304 188.800702 
L 379.923784 192.949169 
L 378.551934 196.727934 
L 377.083351 200.16107 
L 375.527013 203.271063 
L 373.891304 206.078911 
L 372.184067 208.604235 
L 370.412617 210.865336 
L 368.583801 212.879333 
L 366.704046 214.662293 
L 364.779396 216.229313 
L 362.81542 217.594351 
L 360.31315 219.036668 
L 357.767125 220.207805 
L 355.186056 221.129762 
L 352.577949 221.822847 
L 349.95015 222.305823 
L 346.780276 222.632463 
L 343.60237 222.709172 
L 340.425984 222.561165 
L 337.259702 222.211506 
L 333.588676 221.576715 
L 329.952634 220.726521 
L 325.85207 219.526346 
L 321.821683 218.117761 
L 317.384124 216.325013 
L 312.587538 214.123321 
L 307.944728 211.749213 
L 303.027186 208.990481 
L 297.899843 205.861761 
L 292.63327 202.393595 
L 286.934293 198.363225 
L 281.3009 194.106484 
L 275.50256 189.450306 
L 269.431668 184.28258 
L 263.352544 178.810625 
L 257.316066 173.081345 
L 251.172132 166.940265 
L 245.168017 160.621101 
L 239.467046 154.300328 
L 234.304342 148.249799 
L 230.720937 143.756 
L 230.720938 143.756 
" style="fill:none;stroke:#1f77b4;stroke-linecap:square;stroke-width:0.5;"/>
   </g>
   <g id="line2d_18">
    <path clip-path="url(#p48cb41753b)" d="M 409.280938 56.826177 
L 409.85093 60.766685 
" style="fill:none;stroke:#1f77b4;stroke-linecap:square;stroke-width:0.5;"/>
   </g>
   <g id="line2d_19">
    <path clip-path="url(#p48cb41753b)" d="M 409.280938 110.061645 
L 409.497307 112.946698 
" style="fill:none;stroke:#1f77b4;stroke-linecap:square;stroke-width:0.5;"/>
   </g>
   <g id="line2d_20">
    <path clip-path="url(#p48cb41753b)" d="M 409.280938 154.781334 
L 408.87955 162.53604 
L 408.278308 169.678809 
L 407.493107 176.25069 
L 406.53873 182.289823 
L 405.429025 187.831891 
L 404.176886 192.91006 
L 402.794331 197.555157 
L 401.292589 201.79591 
L 399.682154 205.659087 
L 397.972824 209.169595 
L 396.173747 212.350604 
L 394.293469 215.223687 
L 392.339982 217.808943 
L 390.320758 220.1251 
L 388.242782 222.189611 
L 386.112596 224.018765 
L 383.936306 225.627731 
L 381.719646 227.030722 
L 379.467934 228.240882 
L 376.611612 229.501217 
L 373.717401 230.501945 
L 370.793665 231.263741 
L 367.848108 231.80569 
L 364.887813 232.145394 
L 361.325132 232.308901 
L 357.760823 232.230369 
L 354.204147 231.933408 
L 350.075433 231.339624 
L 345.980282 230.509183 
L 341.929137 229.470441 
L 337.364851 228.061162 
L 332.881831 226.448108 
L 327.948066 224.428632 
L 323.141838 222.230552 
L 317.962889 219.621735 
L 312.473986 216.598928 
L 306.745843 213.174953 
L 300.855567 209.379244 
L 294.884526 205.257235 
L 288.915803 200.868733 
L 282.679842 196.003532 
L 276.35449 190.780056 
L 270.115771 185.34489 
L 263.645584 179.409156 
L 257.315744 173.30186 
L 250.979599 166.879524 
L 244.778308 160.274062 
L 238.935014 153.724913 
L 233.772293 147.611347 
L 230.720937 143.756 
L 230.720937 143.756 
" style="fill:none;stroke:#1f77b4;stroke-linecap:square;stroke-width:0.5;"/>
   </g>
   <g id="line2d_21">
    <path clip-path="url(#p48cb41753b)" d="M 409.280938 202.119773 
L 407.65871 206.2155 
L 405.93156 209.943775 
L 404.108912 213.32858 
L 402.199748 216.392695 
L 400.212412 219.157198 
L 398.154698 221.641685 
L 396.03387 223.864329 
L 393.856712 225.842027 
L 391.629579 227.590551 
L 389.358427 229.124622 
L 387.048829 230.457973 
L 384.115676 231.861832 
L 381.140025 232.995185 
L 378.130585 233.879343 
L 375.095381 234.533947 
L 372.041809 234.977117 
L 368.97668 235.225588 
L 365.292072 235.288502 
L 361.609717 235.117909 
L 357.938543 234.736279 
L 353.680361 234.051732 
L 349.459816 233.137843 
L 345.28704 232.021783 
L 340.588024 230.530336 
L 335.974539 228.84047 
L 330.898772 226.739586 
L 325.955312 224.464129 
L 320.629237 221.772905 
L 314.984779 218.662637 
L 309.094218 215.145922 
L 303.036324 211.25184 
L 296.894266 207.025583 
L 290.753104 202.5271 
L 284.335023 197.539574 
L 277.822467 192.182828 
L 271.396213 186.605633 
L 264.975522 180.741871 
L 258.406127 174.434557 
L 251.985656 167.957783 
L 245.724558 161.324489 
L 239.791979 154.716834 
L 234.462806 148.45411 
L 230.720937 143.756 
L 230.720937 143.756 
" style="fill:none;stroke:#1f77b4;stroke-linecap:square;stroke-width:0.5;"/>
   </g>
   <g id="line2d_22">
    <path clip-path="url(#p48cb41753b)" d="M 409.280938 266.242677 
L 401.94336 264.252326 
L 394.731611 262.076977 
L 387.65637 259.727458 
L 379.967539 256.928173 
L 372.472678 253.948658 
L 365.1831 250.809301 
L 358.108855 247.531339 
L 350.586286 243.791531 
L 343.344196 239.939918 
L 335.771914 235.645075 
L 328.548176 231.288958 
L 321.119757 226.541341 
L 313.5828 221.441743 
L 306.522454 216.401697 
L 299.027189 210.767373 
L 291.715436 204.98326 
L 284.305971 198.824744 
L 277.000979 192.451832 
L 269.988291 186.04291 
L 262.949986 179.311866 
L 256.074983 172.432472 
L 249.359016 165.400144 
L 242.879436 158.291127 
L 236.945631 151.450936 
L 232.065822 145.498656 
L 230.720937 143.756 
L 230.720937 143.756 
" style="fill:none;stroke:#1f77b4;stroke-linecap:square;stroke-width:0.5;"/>
   </g>
   <g id="line2d_23">
    <path clip-path="url(#p48cb41753b)" d="M 327.352777 276.812 
L 314.113752 257.877179 
L 299.52618 237.424044 
L 283.064152 214.753146 
L 262.17434 186.398553 
L 230.720937 143.756 
L 230.720937 143.756 
" style="fill:none;stroke:#1f77b4;stroke-linecap:square;stroke-width:0.5;"/>
   </g>
   <g id="line2d_24">
    <path clip-path="url(#p48cb41753b)" d="M 260.517332 276.812 
L 251.552453 254.203922 
L 244.132586 234.870821 
L 238.032615 218.369947 
L 233.057938 204.318806 
L 228.717339 191.395337 
L 225.328524 180.620275 
L 222.731723 171.673132 
L 220.655297 163.724631 
L 219.203768 157.29964 
L 218.255616 152.144813 
L 217.709625 148.045792 
L 217.48182 144.821647 
L 217.512931 142.153522 
L 217.761664 140.164274 
L 218.137152 138.809297 
L 218.613525 137.837875 
L 219.160622 137.176609 
L 219.801128 136.741383 
L 220.519967 136.524199 
L 221.347581 136.512614 
L 222.307619 136.725165 
L 223.449024 137.20875 
L 224.809952 138.031705 
L 226.418429 139.272372 
L 228.24883 140.973804 
L 230.141897 143.039211 
L 230.720938 143.756 
L 230.720937 143.756 
" style="fill:none;stroke:#1f77b4;stroke-linecap:square;stroke-width:0.5;"/>
   </g>
   <g id="line2d_25">
    <path clip-path="url(#p48cb41753b)" d="M 200.924543 276.812 
L 195.930864 259.050647 
L 191.619269 242.914407 
L 187.926729 228.27447 
L 184.795519 215.011604 
L 182.172413 203.014746 
L 180.008488 192.180762 
L 178.258937 182.414203 
L 176.882601 173.626549 
L 175.841725 165.73584 
L 175.101739 158.666329 
L 174.631024 152.348097 
L 174.400665 146.716637 
L 174.384219 141.712451 
L 174.557536 137.280719 
L 174.898601 133.371006 
L 175.387349 129.936923 
L 176.005505 126.935808 
L 176.736437 124.328455 
L 177.565023 122.078843 
L 178.477531 120.153897 
L 179.461512 118.523264 
L 180.505688 117.159099 
L 181.786414 115.870397 
L 183.120698 114.872759 
L 184.495664 114.13281 
L 185.899928 113.620418 
L 187.527856 113.278711 
L 189.167924 113.162445 
L 191.013606 113.261074 
L 193.049418 113.608458 
L 195.2532 114.224559 
L 197.596555 115.114537 
L 200.229913 116.36423 
L 203.085371 117.97918 
L 206.081841 119.929348 
L 209.418736 122.374678 
L 212.900266 125.203255 
L 216.63377 128.525881 
L 220.551478 132.317439 
L 224.516482 136.471302 
L 228.256502 140.711003 
L 230.720938 143.756 
L 230.720938 143.756 
" style="fill:none;stroke:#1f77b4;stroke-linecap:square;stroke-width:0.5;"/>
   </g>
   <g id="line2d_26">
    <path clip-path="url(#p48cb41753b)" d="M 134.089098 276.812 
L 129.953583 257.496555 
L 126.43896 239.790891 
L 123.493043 223.579621 
L 121.067455 208.754322 
L 119.117474 195.213517 
L 117.601517 182.861886 
L 116.481209 171.610582 
L 115.721088 161.37681 
L 115.288331 152.083391 
L 115.152602 143.658538 
L 115.285896 136.035606 
L 115.662357 129.152754 
L 116.258125 122.952663 
L 117.051198 117.382253 
L 118.021288 112.392399 
L 119.149686 107.93763 
L 120.41915 103.975884 
L 121.813796 100.468275 
L 123.319013 97.378876 
L 124.921348 94.674475 
L 126.608401 92.324314 
L 128.368762 90.299942 
L 130.191944 88.575051 
L 132.06831 87.125307 
L 133.989016 85.928194 
L 135.945951 84.96289 
L 137.93166 84.210078 
L 140.342923 83.562089 
L 142.775107 83.165927 
L 145.218606 82.995632 
L 147.664808 83.027479 
L 150.511915 83.291325 
L 153.341481 83.769681 
L 156.541783 84.543061 
L 159.694883 85.522362 
L 163.173138 86.828839 
L 166.938407 88.486099 
L 170.944537 90.502073 
L 175.138231 92.868031 
L 179.460535 95.558871 
L 184.151483 98.748382 
L 189.078086 102.380445 
L 194.097869 106.36224 
L 199.289609 110.765672 
L 204.618534 115.577935 
L 210.091757 120.82505 
L 215.601712 126.423223 
L 220.967368 132.196246 
L 225.985162 137.921876 
L 230.073959 142.910911 
L 230.720938 143.756 
L 230.720938 143.756 
" style="fill:none;stroke:#1f77b4;stroke-linecap:square;stroke-width:0.5;"/>
   </g>
   <g id="line2d_27">
    <path clip-path="url(#p48cb41753b)" d="M 52.160938 266.242677 
L 51.354764 261.597236 
" style="fill:none;stroke:#1f77b4;stroke-linecap:square;stroke-width:0.5;"/>
   </g>
   <g id="line2d_28">
    <path clip-path="url(#p48cb41753b)" d="M 52.160938 202.119773 
L 51.780707 198.745641 
" style="fill:none;stroke:#1f77b4;stroke-linecap:square;stroke-width:0.5;"/>
   </g>
   <g id="line2d_29">
    <path clip-path="url(#p48cb41753b)" d="M 52.160938 154.781334 
L 52.09516 152.345745 
" style="fill:none;stroke:#1f77b4;stroke-linecap:square;stroke-width:0.5;"/>
   </g>
   <g id="line2d_30">
    <path clip-path="url(#p48cb41753b)" d="M 52.160938 110.061645 
L 53.146947 104.059088 
L 54.287386 98.551389 
L 55.569429 93.505523 
L 56.981045 88.89058 
L 58.511062 84.677937 
L 60.149043 80.84095 
L 61.885263 77.35488 
L 63.710602 74.196614 
L 65.616524 71.344591 
L 67.595083 68.778828 
L 69.638866 66.480751 
L 71.740934 64.433038 
L 73.894787 62.619512 
L 76.094343 61.02508 
L 78.333909 59.635657 
L 81.181552 58.167213 
L 84.073759 56.974787 
L 87.001655 56.036511 
L 89.957062 55.332222 
L 92.93244 54.843284 
L 95.920857 54.552498 
L 99.515219 54.442783 
L 103.109139 54.570254 
L 106.693542 54.911807 
L 110.852451 55.552746 
L 114.975708 56.425732 
L 119.053062 57.502927 
L 123.645209 58.951763 
L 128.154074 60.60027 
L 133.114748 62.655362 
L 137.945848 64.885229 
L 143.150312 67.52557 
L 148.664978 70.579141 
L 154.418781 74.032763 
L 160.334333 77.856828 
L 166.330005 82.005799 
L 172.322473 86.419775 
L 178.582405 91.310297 
L 184.931324 96.558455 
L 191.192717 102.017377 
L 197.685895 107.977361 
L 204.037748 114.108154 
L 210.395531 120.554047 
L 216.617654 127.182799 
L 222.480289 133.754319 
L 227.659837 139.888212 
L 230.720938 143.756 
L 230.720938 143.756 
" style="fill:none;stroke:#1f77b4;stroke-linecap:square;stroke-width:0.5;"/>
   </g>
   <g id="line2d_31">
    <path clip-path="url(#p48cb41753b)" d="M 52.160938 56.826177 
L 54.519933 54.938668 
L 56.926519 53.27134 
L 59.375157 51.810734 
L 61.860405 50.543644 
L 65.010769 49.213386 
L 68.201311 48.144539 
L 71.423621 47.317019 
L 74.669907 46.71229 
L 77.932961 46.313231 
L 81.861457 46.083763 
L 85.794084 46.102903 
L 89.721318 46.347878 
L 93.634505 46.797826 
L 98.171693 47.556312 
L 102.667875 48.539828 
L 107.113081 49.72294 
L 112.119626 51.289758 
L 117.036596 53.055399 
L 122.448863 55.243784 
L 127.723412 57.610597 
L 133.410698 60.409243 
L 139.443884 63.646006 
L 145.233495 67.001832 
L 151.26327 70.748751 
L 157.452666 74.855363 
L 163.717272 79.275261 
L 170.371549 84.256131 
L 176.863671 89.39729 
L 183.440584 94.888897 
L 190.209302 100.840415 
L 196.881842 107.009928 
L 203.402166 113.337442 
L 209.922111 119.973799 
L 216.296931 126.784145 
L 222.297851 133.523373 
L 227.567726 139.770553 
L 230.720938 143.756 
L 230.720938 143.756 
" style="fill:none;stroke:#1f77b4;stroke-linecap:square;stroke-width:0.5;"/>
   </g>
   <g id="line2d_32">
    <path clip-path="url(#p48cb41753b)" d="M 91.742111 10.7 
L 104.558239 21.934429 
L 125.690051 40.103704 
L 146.008525 57.672788 
L 158.930135 69.141839 
L 170.106925 79.365121 
L 180.099689 88.810929 
L 189.226055 97.739503 
L 197.860847 106.494842 
L 206.007536 115.070242 
L 213.665105 123.453523 
L 220.650004 131.426439 
L 226.743704 138.713011 
L 230.720938 143.756 
L 230.720938 143.756 
" style="fill:none;stroke:#1f77b4;stroke-linecap:square;stroke-width:0.5;"/>
   </g>
   <g id="line2d_33">
    <path clip-path="url(#p48cb41753b)" d="M 169.421212 10.7 
L 189.668021 50.98169 
L 202.869604 77.713559 
L 212.544321 97.770514 
L 219.870721 113.45194 
L 225.045594 125.035869 
L 228.419875 133.095278 
L 230.479502 138.548838 
L 231.500253 141.826627 
L 231.822561 143.523103 
L 231.761773 144.203736 
L 231.564557 144.363769 
L 231.284305 144.279454 
L 230.821401 143.875872 
L 230.720937 143.756 
L 230.720937 143.756 
" style="fill:none;stroke:#1f77b4;stroke-linecap:square;stroke-width:0.5;"/>
   </g>
   <g id="line2d_34">
    <path clip-path="url(#p48cb41753b)" d="M 230.720937 10.7 
L 236.548019 28.379608 
L 242.247553 46.411542 
L 247.036318 62.351602 
L 251.020696 76.413945 
L 254.29618 88.792499 
L 256.948403 99.662867 
L 259.054038 109.183909 
L 260.681586 117.499064 
L 261.892216 124.737804 
L 262.740519 131.016958 
L 263.275139 136.441809 
L 263.539347 141.107089 
L 263.571585 145.097971 
L 263.405965 148.490979 
L 263.072704 151.354785 
L 262.598523 153.75097 
L 262.007014 155.734713 
L 261.318973 157.355421 
L 260.55268 158.657288 
L 259.724169 159.679808 
L 258.735122 160.540002 
L 257.702324 161.135685 
L 256.640545 161.505961 
L 255.441999 161.694585 
L 254.117262 161.678144 
L 252.563609 161.417516 
L 250.926602 160.913813 
L 249.015001 160.081597 
L 246.901183 158.906936 
L 244.584627 157.36135 
L 241.966149 155.335724 
L 239.12979 152.848256 
L 236.137265 149.920303 
L 233.144972 146.680407 
L 230.720937 143.756 
L 230.720938 143.756 
" style="fill:none;stroke:#1f77b4;stroke-linecap:square;stroke-width:0.5;"/>
   </g>
   <g id="line2d_35">
    <path clip-path="url(#p48cb41753b)" d="M 230.720938 143.756 
" style="fill:none;stroke:#1f77b4;stroke-linecap:square;stroke-width:1.5;"/>
   </g>
   <g id="line2d_36">
    <path clip-path="url(#p48cb41753b)" d="M 230.720938 10.7 
L 236.548019 28.379636 
L 242.247543 46.412001 
L 247.036249 62.353629 
L 251.020437 76.419299 
L 254.295505 88.803226 
L 256.946975 99.680933 
L 259.051414 109.21089 
L 260.67725 117.536013 
L 261.885617 124.785195 
L 262.731099 131.074672 
L 263.262359 136.509177 
L 263.522714 141.182996 
L 263.550679 145.180968 
L 263.380449 148.579392 
L 263.042335 151.446828 
L 262.563159 153.844834 
L 261.966609 155.828643 
L 261.273567 157.44777 
L 260.502395 158.746567 
L 259.669206 159.764718 
L 258.675214 160.618701 
L 257.637881 161.207091 
L 256.572032 161.569281 
L 255.369559 161.748328 
L 254.041258 161.721015 
L 252.48443 161.44759 
L 250.845222 160.930695 
L 248.932537 160.083919 
L 246.819412 158.894786 
L 244.505933 157.335966 
L 241.893965 155.299597 
L 239.068478 152.80672 
L 236.05114 149.839352 
L 233.044844 146.568355 
L 230.720937 143.756 
L 230.720937 143.756 
" style="fill:none;stroke:#ff7f0e;stroke-linecap:square;stroke-width:0.5;"/>
   </g>
   <g id="line2d_37">
    <path clip-path="url(#p48cb41753b)" d="M 292.020663 10.7 
L 296.192998 27.862909 
L 299.812398 43.667924 
L 302.922962 58.206828 
L 305.565798 71.565694 
L 307.779074 83.824934 
L 309.598482 95.060181 
L 311.057173 105.342153 
L 312.185967 114.73704 
L 313.01357 123.306902 
L 313.566677 131.109875 
L 313.870095 138.200376 
L 313.946862 144.62934 
L 313.818362 150.444424 
L 313.504442 155.69023 
L 313.023494 160.408454 
L 312.39255 164.638067 
L 311.627386 168.415508 
L 310.742596 171.774824 
L 309.751667 174.747814 
L 308.667078 177.364211 
L 307.500321 179.651722 
L 306.261959 181.636145 
L 304.961731 183.341564 
L 303.608636 184.79051 
L 302.210944 186.003978 
L 300.776224 187.001498 
L 299.015402 187.938958 
L 297.222076 188.620561 
L 295.405998 189.072915 
L 293.575903 189.320417 
L 291.433408 189.37991 
L 289.293325 189.223109 
L 286.862559 188.816105 
L 284.161412 188.113553 
L 281.509352 187.19815 
L 278.634154 185.982069 
L 275.300011 184.312784 
L 271.84794 182.323023 
L 268.087967 179.884923 
L 264.128555 177.042034 
L 259.885907 173.710437 
L 255.374417 169.869679 
L 250.715698 165.602125 
L 245.895755 160.878292 
L 241.042711 155.807046 
L 236.342664 150.576048 
L 232.181117 145.620679 
L 230.720937 143.756 
L 230.720938 143.756 
" style="fill:none;stroke:#ff7f0e;stroke-linecap:square;stroke-width:0.5;"/>
   </g>
   <g id="line2d_38">
    <path clip-path="url(#p48cb41753b)" d="M 369.699764 10.7 
L 373.022815 28.991079 
L 375.871495 46.052162 
L 378.277911 61.951571 
L 380.272459 76.75437 
L 381.88371 90.522052 
L 383.13866 103.313042 
L 384.062833 115.182881 
L 384.680217 126.1841 
L 385.013427 136.366521 
L 385.083794 145.777432 
L 384.911423 154.46169 
L 384.515249 162.461826 
L 383.913089 169.818138 
L 383.121695 176.568796 
L 382.156828 182.749976 
L 381.033308 188.395958 
L 379.765063 193.539217 
L 378.365175 198.210503 
L 376.84592 202.438926 
L 375.21881 206.252033 
L 373.494638 209.675891 
L 371.683515 212.735155 
L 369.794909 215.453155 
L 367.83767 217.851926 
L 365.82008 219.952319 
L 363.749907 221.774092 
L 361.634363 223.335839 
L 359.480206 224.655181 
L 357.293713 225.748722 
L 355.080731 226.632137 
L 352.846695 227.320219 
L 350.032202 227.926815 
L 347.201733 228.275444 
L 344.36355 228.38984 
L 341.525152 228.292049 
L 338.128276 227.923256 
L 334.751268 227.310744 
L 331.403338 226.484149 
L 327.544857 225.285088 
L 323.747904 223.870024 
L 319.495752 222.032642 
L 315.347552 220.004232 
L 310.8164 217.543835 
L 305.961667 214.646246 
L 300.851148 211.325999 
L 295.559358 207.617428 
L 290.165195 203.573038 
L 284.377761 198.955888 
L 278.372689 193.878196 
L 272.030595 188.213914 
L 265.640465 182.205426 
L 259.042535 175.691748 
L 252.378881 168.794359 
L 245.803755 161.664421 
L 239.562507 154.570858 
L 233.984485 147.901176 
L 230.720937 143.756 
L 230.720938 143.756 
" style="fill:none;stroke:#ff7f0e;stroke-linecap:square;stroke-width:0.5;"/>
   </g>
   <g id="line2d_39">
    <path clip-path="url(#p48cb41753b)" d="M 409.280938 56.826177 
L 409.849507 61.186282 
" style="fill:none;stroke:#ff7f0e;stroke-linecap:square;stroke-width:0.5;"/>
   </g>
   <g id="line2d_40">
    <path clip-path="url(#p48cb41753b)" d="M 409.280938 110.061645 
L 409.495893 113.365093 
" style="fill:none;stroke:#ff7f0e;stroke-linecap:square;stroke-width:0.5;"/>
   </g>
   <g id="line2d_41">
    <path clip-path="url(#p48cb41753b)" d="M 409.280938 154.781334 
L 408.857529 164.152407 
L 408.192777 172.771606 
L 407.306288 180.683543 
L 406.216468 187.930422 
L 404.940624 194.552227 
L 403.495037 200.586868 
L 401.895002 206.070256 
L 400.154783 211.036206 
L 398.287812 215.516824 
L 396.306734 219.542591 
L 394.2234 223.142348 
L 392.048872 226.343313 
L 389.793493 229.1712 
L 387.466939 231.650332 
L 385.07826 233.803709 
L 382.635908 235.653074 
L 380.147759 237.218945 
L 377.621175 238.520743 
L 375.062992 239.576761 
L 372.479575 240.404274 
L 369.876833 241.019578 
L 367.260254 241.438039 
L 363.977761 241.706258 
L 360.690643 241.715906 
L 357.407189 241.491625 
L 354.134867 241.056217 
L 350.232208 240.284707 
L 346.365573 239.273108 
L 342.544003 238.052007 
L 338.152872 236.399546 
L 333.844364 234.539504 
L 329.032869 232.205078 
L 324.351652 229.692979 
L 319.251401 226.705497 
L 313.800958 223.244536 
L 308.07782 219.332618 
L 302.166184 215.012762 
L 296.154348 210.346623 
L 289.719113 205.063821 
L 283.057269 199.296923 
L 276.368547 193.214559 
L 269.266662 186.446187 
L 262.186617 179.386053 
L 255.135464 172.043584 
L 248.122705 164.42246 
L 241.347742 156.731106 
L 235.259308 149.487507 
L 230.789285 143.84884 
L 230.720937 143.756 
L 230.720937 143.756 
" style="fill:none;stroke:#ff7f0e;stroke-linecap:square;stroke-width:0.5;"/>
   </g>
   <g id="line2d_42">
    <path clip-path="url(#p48cb41753b)" d="M 409.280938 202.119773 
L 407.636923 207.815658 
L 405.847305 212.975183 
L 403.925884 217.631265 
L 401.88586 221.815721 
L 399.739502 225.558408 
L 397.498331 228.887633 
L 395.173092 231.830087 
L 392.773793 234.410919 
L 390.309806 236.653938 
L 387.789893 238.581672 
L 385.22224 240.215418 
L 382.614467 241.575273 
L 379.973659 242.680188 
L 377.306418 243.548066 
L 374.618878 244.195798 
L 371.916719 244.639294 
L 369.205226 244.893582 
L 365.810145 244.966865 
L 362.416831 244.792439 
L 359.033186 244.394291 
L 355.666337 243.794655 
L 351.657287 242.838066 
L 347.691454 241.653654 
L 343.777418 240.271236 
L 339.286286 238.444024 
L 334.885628 236.422647 
L 329.977673 233.918996 
L 324.622704 230.909819 
L 319.454266 227.750754 
L 313.939419 224.123117 
L 308.157419 220.053457 
L 302.193779 215.588003 
L 295.689092 210.4253 
L 289.251784 205.031868 
L 282.599004 199.174567 
L 275.600893 192.714258 
L 268.577867 185.931174 
L 261.355165 178.645573 
L 254.090094 170.997372 
L 246.951672 163.155968 
L 240.205981 155.416519 
L 234.2679 148.273873 
L 230.720937 143.756 
L 230.720938 143.756 
" style="fill:none;stroke:#ff7f0e;stroke-linecap:square;stroke-width:0.5;"/>
   </g>
   <g id="line2d_43">
    <path clip-path="url(#p48cb41753b)" d="M 409.280938 266.242677 
L 405.983292 266.959695 
L 402.669813 267.43257 
L 399.346593 267.678584 
L 396.019551 267.714982 
L 392.694144 267.557955 
L 388.547289 267.112711 
L 384.419658 266.416421 
L 380.319228 265.494609 
L 376.253183 264.370967 
L 371.428312 262.786955 
L 366.671891 260.978488 
L 361.992296 258.977046 
L 356.639374 256.436116 
L 351.410236 253.712104 
L 345.595479 250.421206 
L 339.961423 246.986354 
L 333.847235 243.00167 
L 327.339185 238.483835 
L 320.532373 233.471234 
L 313.528231 228.023307 
L 306.431714 222.218787 
L 298.863319 215.726995 
L 291.057234 208.718295 
L 283.247876 201.398618 
L 275.319881 193.659247 
L 267.337005 185.554323 
L 259.30097 177.075524 
L 251.381285 168.391952 
L 243.843307 159.797025 
L 236.971859 151.6282 
L 231.586224 144.897885 
L 230.720937 143.756 
L 230.720937 143.756 
" style="fill:none;stroke:#ff7f0e;stroke-linecap:square;stroke-width:0.5;"/>
   </g>
   <g id="line2d_44">
    <path clip-path="url(#p48cb41753b)" d="M 327.352777 276.812 
L 274.693569 204.606418 
L 239.15822 155.532614 
L 230.720937 143.756 
L 230.720938 143.756 
" style="fill:none;stroke:#ff7f0e;stroke-linecap:square;stroke-width:0.5;"/>
   </g>
   <g id="line2d_45">
    <path clip-path="url(#p48cb41753b)" d="M 260.517332 276.812 
L 252.299465 256.128569 
L 244.747956 236.518882 
L 238.535519 219.775197 
L 233.465089 205.513156 
L 229.036489 192.392097 
L 225.574372 181.448806 
L 222.91678 172.358524 
L 220.786454 164.279038 
L 219.29152 157.744391 
L 218.308691 152.497952 
L 217.735325 148.32275 
L 217.486206 145.035587 
L 217.499913 142.312067 
L 217.735921 140.278322 
L 218.10296 138.890192 
L 218.573484 137.892194 
L 219.116801 137.209823 
L 219.755051 136.756918 
L 220.473078 136.525519 
L 221.301235 136.502473 
L 222.263266 136.706322 
L 223.408379 137.184152 
L 224.775075 138.004972 
L 226.391718 139.247964 
L 228.23271 140.956836 
L 230.128138 143.022812 
L 230.720938 143.756 
L 230.720937 143.756 
" style="fill:none;stroke:#ff7f0e;stroke-linecap:square;stroke-width:0.5;"/>
   </g>
   <g id="line2d_46">
    <path clip-path="url(#p48cb41753b)" d="M 200.924543 276.812 
L 195.931148 259.035604 
L 191.62056 242.878724 
L 187.929965 228.212595 
L 184.801854 214.918548 
L 182.183187 202.886428 
L 180.025189 192.014251 
L 178.283142 182.207827 
L 176.915925 173.379915 
L 175.885777 165.449779 
L 175.158071 158.342783 
L 174.701107 151.990008 
L 174.485811 146.327699 
L 174.485568 141.296946 
L 174.676066 136.843406 
L 175.035095 132.91692 
L 175.542376 129.471198 
L 176.179423 126.463558 
L 176.929403 123.854666 
L 177.777004 121.608282 
L 178.708314 119.691032 
L 179.710705 118.072198 
L 180.772742 116.723525 
L 182.073421 115.456988 
L 183.426525 114.485257 
L 184.819021 113.77426 
L 186.239398 113.293183 
L 187.883883 112.989331 
L 189.538435 112.91227 
L 191.397874 113.055627 
L 193.445811 113.452328 
L 195.659164 114.120929 
L 198.008666 115.064779 
L 200.643969 116.371477 
L 203.495552 118.04267 
L 206.639867 120.157111 
L 209.939513 122.647672 
L 213.492816 125.609527 
L 217.334486 129.11146 
L 221.308619 133.04462 
L 225.273481 137.284217 
L 228.95205 141.538224 
L 230.720938 143.756 
L 230.720937 143.756 
" style="fill:none;stroke:#ff7f0e;stroke-linecap:square;stroke-width:0.5;"/>
   </g>
   <g id="line2d_47">
    <path clip-path="url(#p48cb41753b)" d="M 134.089098 276.812 
L 130.733101 260.946446 
L 127.788887 246.120547 
L 125.229389 232.277341 
L 123.028853 219.362327 
L 121.163098 207.32407 
L 119.60925 196.11366 
L 118.345665 185.684587 
L 117.351967 175.992805 
L 116.608967 166.996596 
L 116.098539 158.656325 
L 115.803584 150.934378 
L 115.707988 143.795084 
L 115.796573 137.204631 
L 116.055038 131.130944 
L 116.469919 125.543623 
L 117.028542 120.413843 
L 117.719013 115.714342 
L 118.530137 111.419275 
L 119.451391 107.504149 
L 120.472889 103.945768 
L 121.585355 100.722178 
L 122.780085 97.812596 
L 124.048917 95.197351 
L 125.3842 92.857832 
L 126.77875 90.776394 
L 128.225891 88.93644 
L 130.099275 86.952218 
L 132.033749 85.291988 
L 134.018878 83.92883 
L 136.045106 82.83769 
L 138.1037 81.995273 
L 140.186684 81.379915 
L 142.286789 80.971483 
L 144.820233 80.728251 
L 147.35853 80.726299 
L 149.892516 80.938335 
L 152.832625 81.42305 
L 155.744634 82.129352 
L 159.025918 83.166719 
L 162.245829 84.408835 
L 165.782555 86.004319 
L 169.592754 87.968797 
L 173.625272 90.300093 
L 177.822436 92.977947 
L 182.441808 96.19679 
L 187.34865 99.903026 
L 192.396434 104.001829 
L 197.672682 108.576567 
L 203.144386 113.618211 
L 208.822889 119.159552 
L 214.595977 125.113119 
L 220.270316 131.290108 
L 225.582292 137.400245 
L 229.952105 142.75166 
L 230.720938 143.756 
L 230.720938 143.756 
" style="fill:none;stroke:#ff7f0e;stroke-linecap:square;stroke-width:0.5;"/>
   </g>
   <g id="line2d_48">
    <path clip-path="url(#p48cb41753b)" d="M 52.160938 266.242677 
L 51.356185 261.176814 
" style="fill:none;stroke:#ff7f0e;stroke-linecap:square;stroke-width:0.5;"/>
   </g>
   <g id="line2d_49">
    <path clip-path="url(#p48cb41753b)" d="M 52.160938 202.119773 
L 51.782105 198.326644 
" style="fill:none;stroke:#ff7f0e;stroke-linecap:square;stroke-width:0.5;"/>
   </g>
   <g id="line2d_50">
    <path clip-path="url(#p48cb41753b)" d="M 52.160938 154.781334 
L 52.096567 151.927847 
" style="fill:none;stroke:#ff7f0e;stroke-linecap:square;stroke-width:0.5;"/>
   </g>
   <g id="line2d_51">
    <path clip-path="url(#p48cb41753b)" d="M 52.160938 110.061645 
L 53.168865 102.450529 
L 54.372338 95.488202 
L 55.754434 89.135417 
L 57.299261 83.355005 
L 58.991931 78.111845 
L 60.818481 73.372709 
L 62.765822 69.106152 
L 64.821674 65.282403 
L 66.974531 61.873292 
L 69.213623 58.852178 
L 71.528877 56.193872 
L 73.910852 53.874519 
L 76.35078 51.871674 
L 78.840446 50.16406 
L 81.372237 48.731684 
L 83.939008 47.555559 
L 86.534126 46.617796 
L 89.151402 45.901475 
L 91.785105 45.390663 
L 94.429921 45.070344 
L 97.744116 44.916356 
L 101.059219 45.012122 
L 104.367266 45.33366 
L 107.661073 45.858743 
L 111.585753 46.728573 
L 115.4707 47.829167 
L 119.307194 49.130629 
L 123.711865 50.866805 
L 128.030192 52.800714 
L 132.848885 55.208651 
L 138.109382 58.115584 
L 143.189374 61.178076 
L 148.612603 64.704793 
L 154.301374 68.670791 
L 160.171682 73.031448 
L 166.577679 78.082214 
L 172.920349 83.367181 
L 179.478292 89.114589 
L 186.379849 95.461768 
L 193.309273 102.133957 
L 200.438936 109.307856 
L 207.6138 116.846263 
L 214.667079 124.582475 
L 221.335815 132.225174 
L 227.239544 139.322299 
L 230.720938 143.756 
L 230.720938 143.756 
" style="fill:none;stroke:#ff7f0e;stroke-linecap:square;stroke-width:0.5;"/>
   </g>
   <g id="line2d_52">
    <path clip-path="url(#p48cb41753b)" d="M 52.160938 56.826177 
L 53.937841 54.178755 
L 55.765586 51.763438 
L 57.639774 49.569286 
L 59.556067 47.585352 
L 62.169442 45.248807 
L 64.841039 43.243364 
L 67.562254 41.546612 
L 70.325118 40.137486 
L 73.122176 38.996033 
L 75.946472 38.103367 
L 78.791557 37.441709 
L 81.651472 36.99434 
L 84.520691 36.7455 
L 88.112535 36.691062 
L 91.701778 36.896475 
L 95.280127 37.336514 
L 98.840076 37.987743 
L 103.078347 39.017677 
L 107.270244 40.286363 
L 111.406825 41.762559 
L 116.152604 43.709203 
L 120.802028 45.8588 
L 125.986616 48.517535 
L 131.02372 51.346114 
L 136.504367 54.679472 
L 142.353467 58.511231 
L 148.487044 62.813658 
L 154.814279 67.537741 
L 161.240696 72.616015 
L 168.11131 78.341303 
L 175.215054 84.567414 
L 182.338769 91.111854 
L 189.58788 98.072217 
L 196.904376 105.4005 
L 204.287534 113.10609 
L 211.58191 121.035915 
L 218.642129 129.03658 
L 225.099912 136.686773 
L 230.118101 142.957685 
L 230.720938 143.756 
L 230.720938 143.756 
" style="fill:none;stroke:#ff7f0e;stroke-linecap:square;stroke-width:0.5;"/>
   </g>
   <g id="line2d_53">
    <path clip-path="url(#p48cb41753b)" d="M 91.742111 10.7 
L 98.756892 15.459885 
L 106.34128 20.878343 
L 114.383747 26.917847 
L 122.763589 33.51693 
L 131.354128 40.592005 
L 140.026412 48.040114 
L 148.653326 55.743532 
L 157.650082 64.08102 
L 166.73881 72.812197 
L 176.069916 82.094915 
L 185.224393 91.516112 
L 194.411248 101.289272 
L 203.425756 111.202736 
L 212.211783 121.199243 
L 220.269608 130.702014 
L 227.151587 139.151862 
L 230.720938 143.756 
L 230.720938 143.756 
" style="fill:none;stroke:#ff7f0e;stroke-linecap:square;stroke-width:0.5;"/>
   </g>
   <g id="line2d_54">
    <path clip-path="url(#p48cb41753b)" d="M 169.421212 10.7 
L 185.795444 43.00152 
L 199.170752 69.880003 
L 209.658234 91.450282 
L 217.534774 108.137914 
L 223.333435 120.918011 
L 227.292854 130.143465 
L 229.81132 136.526663 
L 231.2109 140.626898 
L 231.787854 142.933976 
L 231.857283 144.001081 
L 231.69698 144.349491 
L 231.46329 144.370461 
L 231.091485 144.142855 
L 230.720937 143.756 
L 230.720937 143.756 
" style="fill:none;stroke:#ff7f0e;stroke-linecap:square;stroke-width:0.5;"/>
   </g>
   <g id="line2d_55">
    <path clip-path="url(#p48cb41753b)" d="M 230.720937 10.7 
L 236.548019 28.379636 
L 242.247543 46.412001 
L 247.036249 62.353629 
L 251.020437 76.419299 
L 254.295505 88.803226 
L 256.946975 99.680933 
L 259.051414 109.21089 
L 260.67725 117.536013 
L 261.885617 124.785195 
L 262.731099 131.074672 
L 263.262359 136.509177 
L 263.522714 141.182996 
L 263.550679 145.180968 
L 263.380449 148.579392 
L 263.042335 151.446828 
L 262.563159 153.844834 
L 261.966609 155.828643 
L 261.273567 157.44777 
L 260.502395 158.746567 
L 259.669206 159.764718 
L 258.675214 160.618701 
L 257.637881 161.207091 
L 256.572032 161.569281 
L 255.369559 161.748328 
L 254.041258 161.721015 
L 252.48443 161.44759 
L 250.845222 160.930695 
L 248.932537 160.083919 
L 246.819412 158.894786 
L 244.505933 157.335966 
L 241.893965 155.299597 
L 239.068478 152.80672 
L 236.05114 149.839352 
L 233.044844 146.568355 
L 230.720937 143.756 
L 230.720937 143.756 
" style="fill:none;stroke:#ff7f0e;stroke-linecap:square;stroke-width:0.5;"/>
   </g>
   <g id="line2d_56">
    <path clip-path="url(#p48cb41753b)" d="M 230.720938 143.756 
" style="fill:none;stroke:#ff7f0e;stroke-linecap:square;stroke-width:1.5;"/>
   </g>
   <g id="line2d_57">
    <defs>
     <path d="M 0 3 
C 0.795609 3 1.55874 2.683901 2.12132 2.12132 
C 2.683901 1.55874 3 0.795609 3 0 
C 3 -0.795609 2.683901 -1.55874 2.12132 -2.12132 
C 1.55874 -2.683901 0.795609 -3 0 -3 
C -0.795609 -3 -1.55874 -2.683901 -2.12132 -2.12132 
C -2.683901 -1.55874 -3 -0.795609 -3 0 
C -3 0.795609 -2.683901 1.55874 -2.12132 2.12132 
C -1.55874 2.683901 -0.795609 3 0 3 
z
" id="mb44d6969c0" style="stroke:#ff0000;"/>
    </defs>
    <g clip-path="url(#p48cb41753b)">
     <use style="fill:#ff0000;stroke:#ff0000;" x="230.720938" xlink:href="#mb44d6969c0" y="143.756"/>
    </g>
   </g>
   <g id="patch_73">
    <path d="M 52.160938 276.812 
L 52.160938 10.7 
" style="fill:none;stroke:#000000;stroke-linecap:square;stroke-linejoin:miter;stroke-width:0.8;"/>
   </g>
   <g id="patch_74">
    <path d="M 409.280938 276.812 
L 409.280938 10.7 
" style="fill:none;stroke:#000000;stroke-linecap:square;stroke-linejoin:miter;stroke-width:0.8;"/>
   </g>
   <g id="patch_75">
    <path d="M 52.160938 276.812 
L 409.280938 276.812 
" style="fill:none;stroke:#000000;stroke-linecap:square;stroke-linejoin:miter;stroke-width:0.8;"/>
   </g>
   <g id="patch_76">
    <path d="M 52.160938 10.7 
L 409.280938 10.7 
" style="fill:none;stroke:#000000;stroke-linecap:square;stroke-linejoin:miter;stroke-width:0.8;"/>
   </g>
   <g id="legend_1">
    <g id="patch_77">
     <path d="M 259.340938 273.812 
L 405.080938 273.812 
Q 406.280938 273.812 406.280938 272.612 
L 406.280938 246.551375 
Q 406.280938 245.351375 405.080938 245.351375 
L 259.340938 245.351375 
Q 258.140938 245.351375 258.140938 246.551375 
L 258.140938 272.612 
Q 258.140938 273.812 259.340938 273.812 
z
" style="fill:#ffffff;opacity:0.8;stroke:#cccccc;stroke-linejoin:miter;"/>
    </g>
    <g id="line2d_58">
     <path d="M 260.540938 250.210437 
L 272.540938 250.210437 
" style="fill:none;stroke:#1f77b4;stroke-linecap:square;stroke-width:1.5;"/>
    </g>
    <g id="line2d_59"/>
    <g id="text_17">
     <!-- system nieliniowy -->
     <defs>
      <path d="M 44.28125 53.078125 
L 44.28125 44.578125 
Q 40.484375 46.53125 36.375 47.5 
Q 32.28125 48.484375 27.875 48.484375 
Q 21.1875 48.484375 17.84375 46.4375 
Q 14.5 44.390625 14.5 40.28125 
Q 14.5 37.15625 16.890625 35.375 
Q 19.28125 33.59375 26.515625 31.984375 
L 29.59375 31.296875 
Q 39.15625 29.25 43.1875 25.515625 
Q 47.21875 21.78125 47.21875 15.09375 
Q 47.21875 7.46875 41.1875 3.015625 
Q 35.15625 -1.421875 24.609375 -1.421875 
Q 20.21875 -1.421875 15.453125 -0.5625 
Q 10.6875 0.296875 5.421875 2 
L 5.421875 11.28125 
Q 10.40625 8.6875 15.234375 7.390625 
Q 20.0625 6.109375 24.8125 6.109375 
Q 31.15625 6.109375 34.5625 8.28125 
Q 37.984375 10.453125 37.984375 14.40625 
Q 37.984375 18.0625 35.515625 20.015625 
Q 33.0625 21.96875 24.703125 23.78125 
L 21.578125 24.515625 
Q 13.234375 26.265625 9.515625 29.90625 
Q 5.8125 33.546875 5.8125 39.890625 
Q 5.8125 47.609375 11.28125 51.796875 
Q 16.75 56 26.8125 56 
Q 31.78125 56 36.171875 55.265625 
Q 40.578125 54.546875 44.28125 53.078125 
" id="DejaVuSans-73"/>
      <path d="M 32.171875 -5.078125 
Q 28.375 -14.84375 24.75 -17.8125 
Q 21.140625 -20.796875 15.09375 -20.796875 
L 7.90625 -20.796875 
L 7.90625 -13.28125 
L 13.1875 -13.28125 
Q 16.890625 -13.28125 18.9375 -11.515625 
Q 21 -9.765625 23.484375 -3.21875 
L 25.09375 0.875 
L 2.984375 54.6875 
L 12.5 54.6875 
L 29.59375 11.921875 
L 46.6875 54.6875 
L 56.203125 54.6875 
z
" id="DejaVuSans-79"/>
      <path d="M 18.3125 70.21875 
L 18.3125 54.6875 
L 36.8125 54.6875 
L 36.8125 47.703125 
L 18.3125 47.703125 
L 18.3125 18.015625 
Q 18.3125 11.328125 20.140625 9.421875 
Q 21.96875 7.515625 27.59375 7.515625 
L 36.8125 7.515625 
L 36.8125 0 
L 27.59375 0 
Q 17.1875 0 13.234375 3.875 
Q 9.28125 7.765625 9.28125 18.015625 
L 9.28125 47.703125 
L 2.6875 47.703125 
L 2.6875 54.6875 
L 9.28125 54.6875 
L 9.28125 70.21875 
z
" id="DejaVuSans-74"/>
      <path d="M 56.203125 29.59375 
L 56.203125 25.203125 
L 14.890625 25.203125 
Q 15.484375 15.921875 20.484375 11.0625 
Q 25.484375 6.203125 34.421875 6.203125 
Q 39.59375 6.203125 44.453125 7.46875 
Q 49.3125 8.734375 54.109375 11.28125 
L 54.109375 2.78125 
Q 49.265625 0.734375 44.1875 -0.34375 
Q 39.109375 -1.421875 33.890625 -1.421875 
Q 20.796875 -1.421875 13.15625 6.1875 
Q 5.515625 13.8125 5.515625 26.8125 
Q 5.515625 40.234375 12.765625 48.109375 
Q 20.015625 56 32.328125 56 
Q 43.359375 56 49.78125 48.890625 
Q 56.203125 41.796875 56.203125 29.59375 
M 47.21875 32.234375 
Q 47.125 39.59375 43.09375 43.984375 
Q 39.0625 48.390625 32.421875 48.390625 
Q 24.90625 48.390625 20.390625 44.140625 
Q 15.875 39.890625 15.1875 32.171875 
z
" id="DejaVuSans-65"/>
      <path d="M 52 44.1875 
Q 55.375 50.25 60.0625 53.125 
Q 64.75 56 71.09375 56 
Q 79.640625 56 84.28125 50.015625 
Q 88.921875 44.046875 88.921875 33.015625 
L 88.921875 0 
L 79.890625 0 
L 79.890625 32.71875 
Q 79.890625 40.578125 77.09375 44.375 
Q 74.3125 48.1875 68.609375 48.1875 
Q 61.625 48.1875 57.5625 43.546875 
Q 53.515625 38.921875 53.515625 30.90625 
L 53.515625 0 
L 44.484375 0 
L 44.484375 32.71875 
Q 44.484375 40.625 41.703125 44.40625 
Q 38.921875 48.1875 33.109375 48.1875 
Q 26.21875 48.1875 22.15625 43.53125 
Q 18.109375 38.875 18.109375 30.90625 
L 18.109375 0 
L 9.078125 0 
L 9.078125 54.6875 
L 18.109375 54.6875 
L 18.109375 46.1875 
Q 21.1875 51.21875 25.484375 53.609375 
Q 29.78125 56 35.6875 56 
Q 41.65625 56 45.828125 52.96875 
Q 50 49.953125 52 44.1875 
" id="DejaVuSans-6d"/>
      <path id="DejaVuSans-20"/>
      <path d="M 54.890625 33.015625 
L 54.890625 0 
L 45.90625 0 
L 45.90625 32.71875 
Q 45.90625 40.484375 42.875 44.328125 
Q 39.84375 48.1875 33.796875 48.1875 
Q 26.515625 48.1875 22.3125 43.546875 
Q 18.109375 38.921875 18.109375 30.90625 
L 18.109375 0 
L 9.078125 0 
L 9.078125 54.6875 
L 18.109375 54.6875 
L 18.109375 46.1875 
Q 21.34375 51.125 25.703125 53.5625 
Q 30.078125 56 35.796875 56 
Q 45.21875 56 50.046875 50.171875 
Q 54.890625 44.34375 54.890625 33.015625 
" id="DejaVuSans-6e"/>
      <path d="M 9.421875 54.6875 
L 18.40625 54.6875 
L 18.40625 0 
L 9.421875 0 
z
M 9.421875 75.984375 
L 18.40625 75.984375 
L 18.40625 64.59375 
L 9.421875 64.59375 
z
" id="DejaVuSans-69"/>
      <path d="M 9.421875 75.984375 
L 18.40625 75.984375 
L 18.40625 0 
L 9.421875 0 
z
" id="DejaVuSans-6c"/>
      <path d="M 30.609375 48.390625 
Q 23.390625 48.390625 19.1875 42.75 
Q 14.984375 37.109375 14.984375 27.296875 
Q 14.984375 17.484375 19.15625 11.84375 
Q 23.34375 6.203125 30.609375 6.203125 
Q 37.796875 6.203125 41.984375 11.859375 
Q 46.1875 17.53125 46.1875 27.296875 
Q 46.1875 37.015625 41.984375 42.703125 
Q 37.796875 48.390625 30.609375 48.390625 
M 30.609375 56 
Q 42.328125 56 49.015625 48.375 
Q 55.71875 40.765625 55.71875 27.296875 
Q 55.71875 13.875 49.015625 6.21875 
Q 42.328125 -1.421875 30.609375 -1.421875 
Q 18.84375 -1.421875 12.171875 6.21875 
Q 5.515625 13.875 5.515625 27.296875 
Q 5.515625 40.765625 12.171875 48.375 
Q 18.84375 56 30.609375 56 
" id="DejaVuSans-6f"/>
      <path d="M 4.203125 54.6875 
L 13.1875 54.6875 
L 24.421875 12.015625 
L 35.59375 54.6875 
L 46.1875 54.6875 
L 57.421875 12.015625 
L 68.609375 54.6875 
L 77.59375 54.6875 
L 63.28125 0 
L 52.6875 0 
L 40.921875 44.828125 
L 29.109375 0 
L 18.5 0 
z
" id="DejaVuSans-77"/>
     </defs>
     <g transform="translate(277.340938 252.310437)scale(0.06 -0.06)">
      <use xlink:href="#DejaVuSans-73"/>
      <use x="52.099609" xlink:href="#DejaVuSans-79"/>
      <use x="111.279297" xlink:href="#DejaVuSans-73"/>
      <use x="163.378906" xlink:href="#DejaVuSans-74"/>
      <use x="202.587891" xlink:href="#DejaVuSans-65"/>
      <use x="264.111328" xlink:href="#DejaVuSans-6d"/>
      <use x="361.523438" xlink:href="#DejaVuSans-20"/>
      <use x="393.310547" xlink:href="#DejaVuSans-6e"/>
      <use x="456.689453" xlink:href="#DejaVuSans-69"/>
      <use x="484.472656" xlink:href="#DejaVuSans-65"/>
      <use x="545.996094" xlink:href="#DejaVuSans-6c"/>
      <use x="573.779297" xlink:href="#DejaVuSans-69"/>
      <use x="601.5625" xlink:href="#DejaVuSans-6e"/>
      <use x="664.941406" xlink:href="#DejaVuSans-69"/>
      <use x="692.724609" xlink:href="#DejaVuSans-6f"/>
      <use x="753.90625" xlink:href="#DejaVuSans-77"/>
      <use x="835.693359" xlink:href="#DejaVuSans-79"/>
     </g>
    </g>
    <g id="line2d_60">
     <path d="M 260.540938 259.017312 
L 272.540938 259.017312 
" style="fill:none;stroke:#ff7f0e;stroke-linecap:square;stroke-width:1.5;"/>
    </g>
    <g id="line2d_61"/>
    <g id="text_18">
     <!-- system zlinearyzowany -->
     <defs>
      <path d="M 5.515625 54.6875 
L 48.1875 54.6875 
L 48.1875 46.484375 
L 14.40625 7.171875 
L 48.1875 7.171875 
L 48.1875 0 
L 4.296875 0 
L 4.296875 8.203125 
L 38.09375 47.515625 
L 5.515625 47.515625 
z
" id="DejaVuSans-7a"/>
      <path d="M 34.28125 27.484375 
Q 23.390625 27.484375 19.1875 25 
Q 14.984375 22.515625 14.984375 16.5 
Q 14.984375 11.71875 18.140625 8.90625 
Q 21.296875 6.109375 26.703125 6.109375 
Q 34.1875 6.109375 38.703125 11.40625 
Q 43.21875 16.703125 43.21875 25.484375 
L 43.21875 27.484375 
z
M 52.203125 31.203125 
L 52.203125 0 
L 43.21875 0 
L 43.21875 8.296875 
Q 40.140625 3.328125 35.546875 0.953125 
Q 30.953125 -1.421875 24.3125 -1.421875 
Q 15.921875 -1.421875 10.953125 3.296875 
Q 6 8.015625 6 15.921875 
Q 6 25.140625 12.171875 29.828125 
Q 18.359375 34.515625 30.609375 34.515625 
L 43.21875 34.515625 
L 43.21875 35.40625 
Q 43.21875 41.609375 39.140625 45 
Q 35.0625 48.390625 27.6875 48.390625 
Q 23 48.390625 18.546875 47.265625 
Q 14.109375 46.140625 10.015625 43.890625 
L 10.015625 52.203125 
Q 14.9375 54.109375 19.578125 55.046875 
Q 24.21875 56 28.609375 56 
Q 40.484375 56 46.34375 49.84375 
Q 52.203125 43.703125 52.203125 31.203125 
" id="DejaVuSans-61"/>
      <path d="M 41.109375 46.296875 
Q 39.59375 47.171875 37.8125 47.578125 
Q 36.03125 48 33.890625 48 
Q 26.265625 48 22.1875 43.046875 
Q 18.109375 38.09375 18.109375 28.8125 
L 18.109375 0 
L 9.078125 0 
L 9.078125 54.6875 
L 18.109375 54.6875 
L 18.109375 46.1875 
Q 20.953125 51.171875 25.484375 53.578125 
Q 30.03125 56 36.53125 56 
Q 37.453125 56 38.578125 55.875 
Q 39.703125 55.765625 41.0625 55.515625 
z
" id="DejaVuSans-72"/>
     </defs>
     <g transform="translate(277.340938 261.117312)scale(0.06 -0.06)">
      <use xlink:href="#DejaVuSans-73"/>
      <use x="52.099609" xlink:href="#DejaVuSans-79"/>
      <use x="111.279297" xlink:href="#DejaVuSans-73"/>
      <use x="163.378906" xlink:href="#DejaVuSans-74"/>
      <use x="202.587891" xlink:href="#DejaVuSans-65"/>
      <use x="264.111328" xlink:href="#DejaVuSans-6d"/>
      <use x="361.523438" xlink:href="#DejaVuSans-20"/>
      <use x="393.310547" xlink:href="#DejaVuSans-7a"/>
      <use x="445.800781" xlink:href="#DejaVuSans-6c"/>
      <use x="473.583984" xlink:href="#DejaVuSans-69"/>
      <use x="501.367188" xlink:href="#DejaVuSans-6e"/>
      <use x="564.746094" xlink:href="#DejaVuSans-65"/>
      <use x="626.269531" xlink:href="#DejaVuSans-61"/>
      <use x="687.548828" xlink:href="#DejaVuSans-72"/>
      <use x="728.662109" xlink:href="#DejaVuSans-79"/>
      <use x="787.841797" xlink:href="#DejaVuSans-7a"/>
      <use x="840.332031" xlink:href="#DejaVuSans-6f"/>
      <use x="901.513672" xlink:href="#DejaVuSans-77"/>
      <use x="983.300781" xlink:href="#DejaVuSans-61"/>
      <use x="1044.580078" xlink:href="#DejaVuSans-6e"/>
      <use x="1107.958984" xlink:href="#DejaVuSans-79"/>
     </g>
    </g>
    <g id="line2d_62"/>
    <g id="line2d_63">
     <g>
      <use style="fill:#ff0000;stroke:#ff0000;" x="266.540938" xlink:href="#mb44d6969c0" y="268.064187"/>
     </g>
    </g>
    <g id="text_19">
     <!-- Punkt równowagi asymptotycznie stabilny -->
     <defs>
      <path d="M 19.671875 64.796875 
L 19.671875 37.40625 
L 32.078125 37.40625 
Q 38.96875 37.40625 42.71875 40.96875 
Q 46.484375 44.53125 46.484375 51.125 
Q 46.484375 57.671875 42.71875 61.234375 
Q 38.96875 64.796875 32.078125 64.796875 
z
M 9.8125 72.90625 
L 32.078125 72.90625 
Q 44.34375 72.90625 50.609375 67.359375 
Q 56.890625 61.8125 56.890625 51.125 
Q 56.890625 40.328125 50.609375 34.8125 
Q 44.34375 29.296875 32.078125 29.296875 
L 19.671875 29.296875 
L 19.671875 0 
L 9.8125 0 
z
" id="DejaVuSans-50"/>
      <path d="M 8.5 21.578125 
L 8.5 54.6875 
L 17.484375 54.6875 
L 17.484375 21.921875 
Q 17.484375 14.15625 20.5 10.265625 
Q 23.53125 6.390625 29.59375 6.390625 
Q 36.859375 6.390625 41.078125 11.03125 
Q 45.3125 15.671875 45.3125 23.6875 
L 45.3125 54.6875 
L 54.296875 54.6875 
L 54.296875 0 
L 45.3125 0 
L 45.3125 8.40625 
Q 42.046875 3.421875 37.71875 1 
Q 33.40625 -1.421875 27.6875 -1.421875 
Q 18.265625 -1.421875 13.375 4.4375 
Q 8.5 10.296875 8.5 21.578125 
M 31.109375 56 
z
" id="DejaVuSans-75"/>
      <path d="M 9.078125 75.984375 
L 18.109375 75.984375 
L 18.109375 31.109375 
L 44.921875 54.6875 
L 56.390625 54.6875 
L 27.390625 29.109375 
L 57.625 0 
L 45.90625 0 
L 18.109375 26.703125 
L 18.109375 0 
L 9.078125 0 
z
" id="DejaVuSans-6b"/>
      <path d="M 30.609375 48.390625 
Q 23.390625 48.390625 19.1875 42.75 
Q 14.984375 37.109375 14.984375 27.296875 
Q 14.984375 17.484375 19.15625 11.84375 
Q 23.34375 6.203125 30.609375 6.203125 
Q 37.796875 6.203125 41.984375 11.859375 
Q 46.1875 17.53125 46.1875 27.296875 
Q 46.1875 37.015625 41.984375 42.703125 
Q 37.796875 48.390625 30.609375 48.390625 
M 30.609375 56 
Q 42.328125 56 49.015625 48.375 
Q 55.71875 40.765625 55.71875 27.296875 
Q 55.71875 13.875 49.015625 6.21875 
Q 42.328125 -1.421875 30.609375 -1.421875 
Q 18.84375 -1.421875 12.171875 6.21875 
Q 5.515625 13.875 5.515625 27.296875 
Q 5.515625 40.765625 12.171875 48.375 
Q 18.84375 56 30.609375 56 
M 37.40625 79.984375 
L 47.125 79.984375 
L 31.21875 61.625 
L 23.734375 61.625 
z
" id="DejaVuSans-f3"/>
      <path d="M 45.40625 27.984375 
Q 45.40625 37.75 41.375 43.109375 
Q 37.359375 48.484375 30.078125 48.484375 
Q 22.859375 48.484375 18.828125 43.109375 
Q 14.796875 37.75 14.796875 27.984375 
Q 14.796875 18.265625 18.828125 12.890625 
Q 22.859375 7.515625 30.078125 7.515625 
Q 37.359375 7.515625 41.375 12.890625 
Q 45.40625 18.265625 45.40625 27.984375 
M 54.390625 6.78125 
Q 54.390625 -7.171875 48.1875 -13.984375 
Q 42 -20.796875 29.203125 -20.796875 
Q 24.46875 -20.796875 20.265625 -20.09375 
Q 16.0625 -19.390625 12.109375 -17.921875 
L 12.109375 -9.1875 
Q 16.0625 -11.328125 19.921875 -12.34375 
Q 23.78125 -13.375 27.78125 -13.375 
Q 36.625 -13.375 41.015625 -8.765625 
Q 45.40625 -4.15625 45.40625 5.171875 
L 45.40625 9.625 
Q 42.625 4.78125 38.28125 2.390625 
Q 33.9375 0 27.875 0 
Q 17.828125 0 11.671875 7.65625 
Q 5.515625 15.328125 5.515625 27.984375 
Q 5.515625 40.671875 11.671875 48.328125 
Q 17.828125 56 27.875 56 
Q 33.9375 56 38.28125 53.609375 
Q 42.625 51.21875 45.40625 46.390625 
L 45.40625 54.6875 
L 54.390625 54.6875 
z
" id="DejaVuSans-67"/>
      <path d="M 18.109375 8.203125 
L 18.109375 -20.796875 
L 9.078125 -20.796875 
L 9.078125 54.6875 
L 18.109375 54.6875 
L 18.109375 46.390625 
Q 20.953125 51.265625 25.265625 53.625 
Q 29.59375 56 35.59375 56 
Q 45.5625 56 51.78125 48.09375 
Q 58.015625 40.1875 58.015625 27.296875 
Q 58.015625 14.40625 51.78125 6.484375 
Q 45.5625 -1.421875 35.59375 -1.421875 
Q 29.59375 -1.421875 25.265625 0.953125 
Q 20.953125 3.328125 18.109375 8.203125 
M 48.6875 27.296875 
Q 48.6875 37.203125 44.609375 42.84375 
Q 40.53125 48.484375 33.40625 48.484375 
Q 26.265625 48.484375 22.1875 42.84375 
Q 18.109375 37.203125 18.109375 27.296875 
Q 18.109375 17.390625 22.1875 11.75 
Q 26.265625 6.109375 33.40625 6.109375 
Q 40.53125 6.109375 44.609375 11.75 
Q 48.6875 17.390625 48.6875 27.296875 
" id="DejaVuSans-70"/>
      <path d="M 48.78125 52.59375 
L 48.78125 44.1875 
Q 44.96875 46.296875 41.140625 47.34375 
Q 37.3125 48.390625 33.40625 48.390625 
Q 24.65625 48.390625 19.8125 42.84375 
Q 14.984375 37.3125 14.984375 27.296875 
Q 14.984375 17.28125 19.8125 11.734375 
Q 24.65625 6.203125 33.40625 6.203125 
Q 37.3125 6.203125 41.140625 7.25 
Q 44.96875 8.296875 48.78125 10.40625 
L 48.78125 2.09375 
Q 45.015625 0.34375 40.984375 -0.53125 
Q 36.96875 -1.421875 32.421875 -1.421875 
Q 20.0625 -1.421875 12.78125 6.34375 
Q 5.515625 14.109375 5.515625 27.296875 
Q 5.515625 40.671875 12.859375 48.328125 
Q 20.21875 56 33.015625 56 
Q 37.15625 56 41.109375 55.140625 
Q 45.0625 54.296875 48.78125 52.59375 
" id="DejaVuSans-63"/>
      <path d="M 48.6875 27.296875 
Q 48.6875 37.203125 44.609375 42.84375 
Q 40.53125 48.484375 33.40625 48.484375 
Q 26.265625 48.484375 22.1875 42.84375 
Q 18.109375 37.203125 18.109375 27.296875 
Q 18.109375 17.390625 22.1875 11.75 
Q 26.265625 6.109375 33.40625 6.109375 
Q 40.53125 6.109375 44.609375 11.75 
Q 48.6875 17.390625 48.6875 27.296875 
M 18.109375 46.390625 
Q 20.953125 51.265625 25.265625 53.625 
Q 29.59375 56 35.59375 56 
Q 45.5625 56 51.78125 48.09375 
Q 58.015625 40.1875 58.015625 27.296875 
Q 58.015625 14.40625 51.78125 6.484375 
Q 45.5625 -1.421875 35.59375 -1.421875 
Q 29.59375 -1.421875 25.265625 0.953125 
Q 20.953125 3.328125 18.109375 8.203125 
L 18.109375 0 
L 9.078125 0 
L 9.078125 75.984375 
L 18.109375 75.984375 
z
" id="DejaVuSans-62"/>
     </defs>
     <g transform="translate(277.340938 270.164187)scale(0.06 -0.06)">
      <use xlink:href="#DejaVuSans-50"/>
      <use x="60.287109" xlink:href="#DejaVuSans-75"/>
      <use x="123.666016" xlink:href="#DejaVuSans-6e"/>
      <use x="187.044922" xlink:href="#DejaVuSans-6b"/>
      <use x="244.955078" xlink:href="#DejaVuSans-74"/>
      <use x="284.164062" xlink:href="#DejaVuSans-20"/>
      <use x="315.951172" xlink:href="#DejaVuSans-72"/>
      <use x="357.033203" xlink:href="#DejaVuSans-f3"/>
      <use x="418.214844" xlink:href="#DejaVuSans-77"/>
      <use x="500.001953" xlink:href="#DejaVuSans-6e"/>
      <use x="563.380859" xlink:href="#DejaVuSans-6f"/>
      <use x="624.5625" xlink:href="#DejaVuSans-77"/>
      <use x="706.349609" xlink:href="#DejaVuSans-61"/>
      <use x="767.628906" xlink:href="#DejaVuSans-67"/>
      <use x="831.105469" xlink:href="#DejaVuSans-69"/>
      <use x="858.888672" xlink:href="#DejaVuSans-20"/>
      <use x="890.675781" xlink:href="#DejaVuSans-61"/>
      <use x="951.955078" xlink:href="#DejaVuSans-73"/>
      <use x="1004.054688" xlink:href="#DejaVuSans-79"/>
      <use x="1063.234375" xlink:href="#DejaVuSans-6d"/>
      <use x="1160.646484" xlink:href="#DejaVuSans-70"/>
      <use x="1224.123047" xlink:href="#DejaVuSans-74"/>
      <use x="1263.332031" xlink:href="#DejaVuSans-6f"/>
      <use x="1324.513672" xlink:href="#DejaVuSans-74"/>
      <use x="1363.722656" xlink:href="#DejaVuSans-79"/>
      <use x="1422.902344" xlink:href="#DejaVuSans-63"/>
      <use x="1477.882812" xlink:href="#DejaVuSans-7a"/>
      <use x="1530.373047" xlink:href="#DejaVuSans-6e"/>
      <use x="1593.751953" xlink:href="#DejaVuSans-69"/>
      <use x="1621.535156" xlink:href="#DejaVuSans-65"/>
      <use x="1683.058594" xlink:href="#DejaVuSans-20"/>
      <use x="1714.845703" xlink:href="#DejaVuSans-73"/>
      <use x="1766.945312" xlink:href="#DejaVuSans-74"/>
      <use x="1806.154297" xlink:href="#DejaVuSans-61"/>
      <use x="1867.433594" xlink:href="#DejaVuSans-62"/>
      <use x="1930.910156" xlink:href="#DejaVuSans-69"/>
      <use x="1958.693359" xlink:href="#DejaVuSans-6c"/>
      <use x="1986.476562" xlink:href="#DejaVuSans-6e"/>
      <use x="2049.855469" xlink:href="#DejaVuSans-79"/>
     </g>
    </g>
   </g>
  </g>
 </g>
 <defs>
  <clipPath id="p48cb41753b">
   <rect height="266.112" width="357.12" x="52.160938" y="10.7"/>
  </clipPath>
 </defs>
</svg>
