<?xml version="1.0" encoding="utf-8" standalone="no"?>
<!DOCTYPE svg PUBLIC "-//W3C//DTD SVG 1.1//EN"
  "http://www.w3.org/Graphics/SVG/1.1/DTD/svg11.dtd">
<!-- Created with matplotlib (http://matplotlib.org/) -->
<svg height="314pt" version="1.1" viewBox="0 0 410 314" width="410pt" xmlns="http://www.w3.org/2000/svg" xmlns:xlink="http://www.w3.org/1999/xlink">
 <defs>
  <style type="text/css">
*{stroke-linecap:butt;stroke-linejoin:round;}
  </style>
 </defs>
 <g id="figure_1">
  <g id="patch_1">
   <path d="M 0 314.36825 
L 410.440313 314.36825 
L 410.440313 0 
L 0 0 
z
" style="fill:#ffffff;"/>
  </g>
  <g id="axes_1">
   <g id="patch_2">
    <path d="M 42.620313 276.812 
L 399.740313 276.812 
L 399.740313 10.7 
L 42.620313 10.7 
z
" style="fill:#ffffff;"/>
   </g>
   <g id="patch_3">
    <path clip-path="url(#p3699431bc7)" d="M 253.778106 13.522568 
L 246.050152 15.021449 
L 246.787443 12.43126 
L 246.793617 12.405032 
L 246.794853 12.405228 
L 247.532145 9.815039 
z
" style="fill:#ff7f0e;stroke:#ff7f0e;stroke-linejoin:miter;"/>
   </g>
   <g id="patch_4">
    <path clip-path="url(#p3699431bc7)" d="M 271.651957 86.642707 
L 271.279038 80.698754 
L 274.527989 81.771002 
L 274.560877 81.781382 
L 274.560642 81.781779 
L 277.809592 82.854027 
z
" style="fill:#ff7f0e;stroke:#ff7f0e;stroke-linejoin:miter;"/>
   </g>
   <g id="patch_5">
    <path clip-path="url(#p3699431bc7)" d="M 288.104984 48.240509 
L 284.381723 42.976448 
L 287.934252 42.919773 
L 287.969942 42.918706 
L 287.969956 42.919203 
L 291.522486 42.862528 
z
" style="fill:#ff7f0e;stroke:#ff7f0e;stroke-linejoin:miter;"/>
   </g>
   <g id="patch_6">
    <path clip-path="url(#p3699431bc7)" d="M 265.987602 95.158193 
L 266.063697 89.208018 
L 269.226617 90.41467 
L 269.258651 90.42644 
L 269.258405 90.426797 
L 272.421326 91.63345 
z
" style="fill:#ff7f0e;stroke:#ff7f0e;stroke-linejoin:miter;"/>
   </g>
   <g id="patch_7">
    <path clip-path="url(#p3699431bc7)" d="M 293.767436 35.010177 
L 289.315212 30.070424 
L 292.839588 29.73302 
L 292.874917 29.729095 
L 292.875009 29.729629 
L 296.399386 29.392225 
z
" style="fill:#ff7f0e;stroke:#ff7f0e;stroke-linejoin:miter;"/>
   </g>
   <g id="patch_8">
    <path clip-path="url(#p3699431bc7)" d="M 269.147178 91.848895 
L 269.263461 85.899081 
L 272.418191 87.11758 
L 272.450162 87.129446 
L 272.449897 87.129827 
L 275.604627 88.348326 
z
" style="fill:#ff7f0e;stroke:#ff7f0e;stroke-linejoin:miter;"/>
   </g>
   <g id="patch_9">
    <path clip-path="url(#p3699431bc7)" d="M 298.158946 54.244507 
L 297.575102 48.309988 
L 300.860988 49.317804 
L 300.89434 49.32734 
L 300.894012 49.327933 
L 304.179899 50.335749 
z
" style="fill:#ff7f0e;stroke:#ff7f0e;stroke-linejoin:miter;"/>
   </g>
   <g id="patch_10">
    <path clip-path="url(#p3699431bc7)" d="M 256.387811 109.172307 
L 257.35952 103.266081 
L 260.320739 104.729604 
L 260.350759 104.744022 
L 260.3505 104.744313 
L 263.31172 106.207836 
z
" style="fill:#ff7f0e;stroke:#ff7f0e;stroke-linejoin:miter;"/>
   </g>
   <g id="patch_11">
    <path clip-path="url(#p3699431bc7)" d="M 316.03062 53.029004 
L 317.262489 47.149788 
L 320.15751 48.685092 
L 320.187308 48.699787 
L 320.186606 48.700522 
L 323.081627 50.235827 
z
" style="fill:#ff7f0e;stroke:#ff7f0e;stroke-linejoin:miter;"/>
   </g>
   <g id="patch_12">
    <path clip-path="url(#p3699431bc7)" d="M 279.185614 90.225265 
L 280.64414 84.374916 
L 283.478638 85.971697 
L 283.507595 85.987282 
L 283.507126 85.987745 
L 286.341624 87.584526 
z
" style="fill:#ff7f0e;stroke:#ff7f0e;stroke-linejoin:miter;"/>
   </g>
   <g id="patch_13">
    <path clip-path="url(#p3699431bc7)" d="M 349.49096 51.967369 
L 352.163978 46.360194 
L 354.62691 48.26877 
L 354.653044 48.286963 
L 354.651663 48.287952 
L 357.114595 50.196528 
z
" style="fill:#ff7f0e;stroke:#ff7f0e;stroke-linejoin:miter;"/>
   </g>
   <g id="patch_14">
    <path clip-path="url(#p3699431bc7)" d="M 275.301732 105.09509 
L 277.979389 99.489144 
L 280.440742 101.398852 
L 280.466093 101.417605 
L 280.465479 101.418045 
L 282.926831 103.327752 
z
" style="fill:#ff7f0e;stroke:#ff7f0e;stroke-linejoin:miter;"/>
   </g>
   <g id="patch_15">
    <path clip-path="url(#p3699431bc7)" d="M 372.047289 67.598463 
L 375.584367 62.263586 
L 377.729913 64.374232 
L 377.75353 64.394286 
L 377.751477 64.395445 
L 379.897023 66.506092 
z
" style="fill:#ff7f0e;stroke:#ff7f0e;stroke-linejoin:miter;"/>
   </g>
   <g id="patch_16">
    <path clip-path="url(#p3699431bc7)" d="M 289.831593 112.906492 
L 293.5405 107.636808 
L 295.617032 109.785442 
L 295.638928 109.806485 
L 295.637902 109.807036 
L 297.714434 111.955669 
z
" style="fill:#ff7f0e;stroke:#ff7f0e;stroke-linejoin:miter;"/>
   </g>
   <g id="patch_17">
    <path clip-path="url(#p3699431bc7)" d="M 343.894884 107.312603 
L 348.044342 102.228585 
L 349.934038 104.470926 
L 349.955064 104.492511 
L 349.95303 104.493462 
L 351.842725 106.735804 
z
" style="fill:#ff7f0e;stroke:#ff7f0e;stroke-linejoin:miter;"/>
   </g>
   <g id="patch_18">
    <path clip-path="url(#p3699431bc7)" d="M 261.353976 142.989303 
L 266.026213 138.163698 
L 267.673854 140.509659 
L 267.691294 140.532893 
L 267.690413 140.533236 
L 269.338054 142.879197 
z
" style="fill:#ff7f0e;stroke:#ff7f0e;stroke-linejoin:miter;"/>
   </g>
   <g id="patch_19">
    <path clip-path="url(#p3699431bc7)" d="M 354.735897 124.348973 
L 359.232525 119.431604 
L 360.964125 121.743744 
L 360.98401 121.765949 
L 360.981528 121.766982 
L 362.713127 124.079122 
z
" style="fill:#ff7f0e;stroke:#ff7f0e;stroke-linejoin:miter;"/>
   </g>
   <g id="patch_20">
    <path clip-path="url(#p3699431bc7)" d="M 287.556287 150.283979 
L 292.450376 145.582062 
L 293.987805 147.969204 
L 294.004758 147.992659 
L 294.003257 147.993196 
L 295.540686 150.380338 
z
" style="fill:#ff7f0e;stroke:#ff7f0e;stroke-linejoin:miter;"/>
   </g>
   <g id="patch_21">
    <path clip-path="url(#p3699431bc7)" d="M 365.103739 141.027434 
L 369.841026 136.237174 
L 371.456844 138.595393 
L 371.475998 138.617984 
L 371.473083 138.619093 
L 373.088901 140.977312 
z
" style="fill:#ff7f0e;stroke:#ff7f0e;stroke-linejoin:miter;"/>
   </g>
   <g id="patch_22">
    <path clip-path="url(#p3699431bc7)" d="M 273.69074 171.763549 
L 279.078563 167.371601 
L 280.35218 169.843488 
L 280.366502 169.867896 
L 280.364981 169.868331 
L 281.638598 172.340218 
z
" style="fill:#ff7f0e;stroke:#ff7f0e;stroke-linejoin:miter;"/>
   </g>
   <g id="patch_23">
    <path clip-path="url(#p3699431bc7)" d="M 344.361138 168.412045 
L 349.427615 163.812634 
L 350.875989 166.230503 
L 350.893419 166.253847 
L 350.890546 166.254803 
L 352.33892 168.672672 
z
" style="fill:#ff7f0e;stroke:#ff7f0e;stroke-linejoin:miter;"/>
   </g>
   <g id="patch_24">
    <path clip-path="url(#p3699431bc7)" d="M 238.280509 195.59816 
L 244.564991 191.926954 
L 245.275217 194.521339 
L 245.283508 194.547238 
L 245.282354 194.547413 
L 245.99258 197.141798 
z
" style="fill:#ff7f0e;stroke:#ff7f0e;stroke-linejoin:miter;"/>
   </g>
   <g id="patch_25">
    <path clip-path="url(#p3699431bc7)" d="M 353.357332 185.92808 
L 358.574731 181.423329 
L 359.942513 183.86712 
L 359.959547 183.890659 
L 359.956259 183.891681 
L 361.324041 186.335473 
z
" style="fill:#ff7f0e;stroke:#ff7f0e;stroke-linejoin:miter;"/>
   </g>
   <g id="patch_26">
    <path clip-path="url(#p3699431bc7)" d="M 187.956559 203.786585 
L 195.559356 205.606493 
L 193.074363 207.499125 
L 193.049678 207.518357 
L 193.049389 207.518146 
L 190.564396 209.410778 
z
" style="fill:#ff7f0e;stroke:#ff7f0e;stroke-linejoin:miter;"/>
   </g>
   <g id="patch_27">
    <path clip-path="url(#p3699431bc7)" d="M 302.672026 221.054822 
L 308.411044 216.917262 
L 309.478902 219.442681 
L 309.492393 219.467415 
L 309.489634 219.468062 
L 310.557492 221.993481 
z
" style="fill:#ff7f0e;stroke:#ff7f0e;stroke-linejoin:miter;"/>
   </g>
   <g id="patch_28">
    <path clip-path="url(#p3699431bc7)" d="M 182.709493 223.682581 
L 190.58908 224.648266 
L 188.505257 226.792977 
L 188.484769 226.814777 
L 188.484315 226.814531 
L 186.400492 228.959242 
z
" style="fill:#ff7f0e;stroke:#ff7f0e;stroke-linejoin:miter;"/>
   </g>
   <g id="patch_29">
    <path clip-path="url(#p3699431bc7)" d="M 314.409403 242.548206 
L 320.223414 238.469196 
L 321.245076 241.005204 
L 321.258623 241.029958 
L 321.255344 241.030692 
L 322.277006 243.5667 
z
" style="fill:#ff7f0e;stroke:#ff7f0e;stroke-linejoin:miter;"/>
   </g>
   <g id="patch_30">
    <path clip-path="url(#p3699431bc7)" d="M 175.963916 245.774839 
L 183.903575 246.411143 
L 181.983725 248.639216 
L 181.965045 248.661903 
L 181.96443 248.661609 
L 180.04458 250.889682 
z
" style="fill:#ff7f0e;stroke:#ff7f0e;stroke-linejoin:miter;"/>
   </g>
   <g id="patch_31">
    <path clip-path="url(#p3699431bc7)" d="M 383.088396 256.714652 
L 388.678066 252.465079 
L 389.835471 254.968496 
L 389.85193 254.992417 
L 389.847104 254.993656 
L 391.004509 257.497072 
z
" style="fill:#ff7f0e;stroke:#ff7f0e;stroke-linejoin:miter;"/>
   </g>
   <g id="patch_32">
    <path clip-path="url(#p3699431bc7)" d="M 330.069561 269.093213 
L 335.942074 265.061006 
L 336.927096 267.605051 
L 336.940939 267.629771 
L 336.936996 267.630619 
L 337.922019 270.174664 
z
" style="fill:#ff7f0e;stroke:#ff7f0e;stroke-linejoin:miter;"/>
   </g>
   <g id="patch_33">
    <path clip-path="url(#p3699431bc7)" d="M 372.557814 278.422733 
L 378.285745 274.276651 
L 379.360361 276.800478 
L 379.376069 276.824683 
L 379.371161 276.825843 
L 380.445777 279.349669 
z
" style="fill:#ff7f0e;stroke:#ff7f0e;stroke-linejoin:miter;"/>
   </g>
   <g id="patch_34">
    <path clip-path="url(#p3699431bc7)" d="M 327.206899 278.231709 
L 333.138742 274.248016 
L 334.086045 276.800002 
L 334.099575 276.824824 
L 334.095566 276.82565 
L 335.04287 279.377637 
z
" style="fill:#ff7f0e;stroke:#ff7f0e;stroke-linejoin:miter;"/>
   </g>
   <g id="patch_35">
    <path clip-path="url(#p3699431bc7)" d="M 290.289225 277.991002 
L 296.463607 274.217487 
L 297.250387 276.799579 
L 297.261572 276.824975 
L 297.258295 276.82553 
L 298.045074 279.407622 
z
" style="fill:#ff7f0e;stroke:#ff7f0e;stroke-linejoin:miter;"/>
   </g>
   <g id="patch_36">
    <path clip-path="url(#p3699431bc7)" d="M 258.137825 277.661348 
L 264.619063 274.185277 
L 265.18591 276.799183 
L 265.194248 276.825135 
L 265.191607 276.825453 
L 265.758454 279.439359 
z
" style="fill:#ff7f0e;stroke:#ff7f0e;stroke-linejoin:miter;"/>
   </g>
   <g id="patch_37">
    <path clip-path="url(#p3699431bc7)" d="M 228.465827 277.158168 
L 235.360902 274.156611 
L 235.591951 276.798822 
L 235.596327 276.825277 
L 235.594273 276.825377 
L 235.825322 279.467588 
z
" style="fill:#ff7f0e;stroke:#ff7f0e;stroke-linejoin:miter;"/>
   </g>
   <g id="patch_38">
    <path clip-path="url(#p3699431bc7)" d="M 167.364386 266.179467 
L 175.2827 266.949422 
L 173.295713 269.144568 
L 173.276458 269.16699 
L 173.275743 269.16663 
L 171.288756 271.361776 
z
" style="fill:#ff7f0e;stroke:#ff7f0e;stroke-linejoin:miter;"/>
   </g>
   <g id="patch_39">
    <path clip-path="url(#p3699431bc7)" d="M 167.457066 206.030189 
L 168.105088 211.961009 
L 164.808407 210.972963 
L 164.775048 210.963452 
L 164.775274 210.963033 
L 161.478592 209.974986 
z
" style="fill:#ff7f0e;stroke:#ff7f0e;stroke-linejoin:miter;"/>
   </g>
   <g id="patch_40">
    <path clip-path="url(#p3699431bc7)" d="M 152.197094 248.611916 
L 156.937252 253.400599 
L 153.436265 253.85346 
L 153.401197 253.858517 
L 153.401079 253.858011 
L 149.900092 254.310872 
z
" style="fill:#ff7f0e;stroke:#ff7f0e;stroke-linejoin:miter;"/>
   </g>
   <g id="patch_41">
    <path clip-path="url(#p3699431bc7)" d="M 171.402821 198.987054 
L 171.550896 204.936476 
L 168.343768 203.796456 
L 168.311284 203.785392 
L 168.311536 203.784999 
L 165.104408 202.644979 
z
" style="fill:#ff7f0e;stroke:#ff7f0e;stroke-linejoin:miter;"/>
   </g>
   <g id="patch_42">
    <path clip-path="url(#p3699431bc7)" d="M 148.163309 235.110193 
L 149.720426 240.946416 
L 146.29336 240.246808 
L 146.258712 240.240334 
L 146.258917 240.239777 
L 142.831851 239.540169 
z
" style="fill:#ff7f0e;stroke:#ff7f0e;stroke-linejoin:miter;"/>
   </g>
   <g id="patch_43">
    <path clip-path="url(#p3699431bc7)" d="M 169.204343 199.850759 
L 169.043314 205.799995 
L 165.897797 204.56834 
L 165.865894 204.556372 
L 165.866184 204.555961 
L 162.720668 203.324306 
z
" style="fill:#ff7f0e;stroke:#ff7f0e;stroke-linejoin:miter;"/>
   </g>
   <g id="patch_44">
    <path clip-path="url(#p3699431bc7)" d="M 133.242519 238.623208 
L 133.002683 244.570969 
L 129.873637 243.316235 
L 129.841699 243.304303 
L 129.842189 243.303625 
L 126.713143 242.048891 
z
" style="fill:#ff7f0e;stroke:#ff7f0e;stroke-linejoin:miter;"/>
   </g>
   <g id="patch_45">
    <path clip-path="url(#p3699431bc7)" d="M 181.270911 182.059401 
L 180.104679 187.946046 
L 177.192629 186.428729 
L 177.163055 186.413806 
L 177.163362 186.41348 
L 174.251311 184.896163 
z
" style="fill:#ff7f0e;stroke:#ff7f0e;stroke-linejoin:miter;"/>
   </g>
   <g id="patch_46">
    <path clip-path="url(#p3699431bc7)" d="M 105.233221 240.79253 
L 103.212031 246.549215 
L 100.53953 244.804202 
L 100.511618 244.78756 
L 100.512671 244.786665 
L 97.84017 243.041652 
z
" style="fill:#ff7f0e;stroke:#ff7f0e;stroke-linejoin:miter;"/>
   </g>
   <g id="patch_47">
    <path clip-path="url(#p3699431bc7)" d="M 146.812177 205.594929 
L 144.760808 211.345684 
L 142.09748 209.5929 
L 142.070017 209.575871 
L 142.070713 209.575284 
L 139.407385 207.822501 
z
" style="fill:#ff7f0e;stroke:#ff7f0e;stroke-linejoin:miter;"/>
   </g>
   <g id="patch_48">
    <path clip-path="url(#p3699431bc7)" d="M 82.431784 227.400202 
L 79.261298 232.861547 
L 76.975252 230.834455 
L 76.950571 230.81515 
L 76.952277 230.814082 
L 74.666231 228.78699 
z
" style="fill:#ff7f0e;stroke:#ff7f0e;stroke-linejoin:miter;"/>
   </g>
   <g id="patch_49">
    <path clip-path="url(#p3699431bc7)" d="M 142.578849 190.026595 
L 139.355049 195.470581 
L 137.088883 193.431132 
L 137.065098 193.411258 
L 137.066108 193.410635 
L 134.799943 191.371185 
z
" style="fill:#ff7f0e;stroke:#ff7f0e;stroke-linejoin:miter;"/>
   </g>
   <g id="patch_50">
    <path clip-path="url(#p3699431bc7)" d="M 83.121132 199.595242 
L 79.263768 204.805411 
L 77.248567 202.624592 
L 77.226238 202.603739 
L 77.228313 202.602675 
L 75.213112 200.421856 
z
" style="fill:#ff7f0e;stroke:#ff7f0e;stroke-linejoin:miter;"/>
   </g>
   <g id="patch_51">
    <path clip-path="url(#p3699431bc7)" d="M 144.349226 169.146526 
L 140.297379 174.274074 
L 138.365009 172.052019 
L 138.34432 172.030299 
L 138.345588 172.029687 
L 136.413218 169.807631 
z
" style="fill:#ff7f0e;stroke:#ff7f0e;stroke-linejoin:miter;"/>
   </g>
   <g id="patch_52">
    <path clip-path="url(#p3699431bc7)" d="M 73.226293 180.332585 
L 68.951663 185.35869 
L 67.117809 183.09075 
L 67.096842 183.069095 
L 67.099378 183.067957 
L 65.265523 180.800017 
z
" style="fill:#ff7f0e;stroke:#ff7f0e;stroke-linejoin:miter;"/>
   </g>
   <g id="patch_53">
    <path clip-path="url(#p3699431bc7)" d="M 162.296627 143.254848 
L 157.550456 148.040223 
L 155.939015 145.680342 
L 155.92155 145.657106 
L 155.92282 145.656624 
L 154.311379 143.296743 
z
" style="fill:#ff7f0e;stroke:#ff7f0e;stroke-linejoin:miter;"/>
   </g>
   <g id="patch_54">
    <path clip-path="url(#p3699431bc7)" d="M 73.132033 158.482843 
L 68.541686 163.351892 
L 66.854544 161.021573 
L 66.834754 160.999292 
L 66.837588 160.998153 
L 65.150447 158.667834 
z
" style="fill:#ff7f0e;stroke:#ff7f0e;stroke-linejoin:miter;"/>
   </g>
   <g id="patch_55">
    <path clip-path="url(#p3699431bc7)" d="M 164.04939 125.552245 
L 158.876942 130.085689 
L 157.48489 127.649519 
L 157.469421 127.625504 
L 157.470899 127.625035 
L 156.078848 125.188865 
z
" style="fill:#ff7f0e;stroke:#ff7f0e;stroke-linejoin:miter;"/>
   </g>
   <g id="patch_56">
    <path clip-path="url(#p3699431bc7)" d="M 117.147822 122.510112 
L 112.08249 127.110224 
L 110.633514 124.692555 
L 110.616503 124.669072 
L 110.618951 124.668257 
L 109.169974 122.250588 
z
" style="fill:#ff7f0e;stroke:#ff7f0e;stroke-linejoin:miter;"/>
   </g>
   <g id="patch_57">
    <path clip-path="url(#p3699431bc7)" d="M 222.925546 98.492032 
L 216.055998 101.525914 
L 215.802603 98.88484 
L 215.799354 98.858334 
L 215.800057 98.858297 
L 215.546662 96.217224 
z
" style="fill:#ff7f0e;stroke:#ff7f0e;stroke-linejoin:miter;"/>
   </g>
   <g id="patch_58">
    <path clip-path="url(#p3699431bc7)" d="M 122.543197 101.690228 
L 117.219455 106.125354 
L 115.910023 103.663879 
L 115.894241 103.639916 
L 115.896863 103.639141 
L 114.587431 101.177667 
z
" style="fill:#ff7f0e;stroke:#ff7f0e;stroke-linejoin:miter;"/>
   </g>
   <g id="patch_59">
    <path clip-path="url(#p3699431bc7)" d="M 219.05168 82.457843 
L 212.250681 85.576302 
L 211.938472 82.938728 
L 211.934343 82.912285 
L 211.935334 82.91222 
L 211.623125 80.274646 
z
" style="fill:#ff7f0e;stroke:#ff7f0e;stroke-linejoin:miter;"/>
   </g>
   <g id="patch_60">
    <path clip-path="url(#p3699431bc7)" d="M 103.896247 86.52621 
L 98.502933 90.914414 
L 97.232408 88.441643 
L 97.216443 88.417703 
L 97.219639 88.416791 
L 95.949114 85.944021 
z
" style="fill:#ff7f0e;stroke:#ff7f0e;stroke-linejoin:miter;"/>
   </g>
   <g id="patch_61">
    <path clip-path="url(#p3699431bc7)" d="M 228.808682 64.785198 
L 221.632044 67.394669 
L 221.666444 64.746979 
L 221.665749 64.720361 
L 221.666789 64.720369 
L 221.701189 62.072678 
z
" style="fill:#ff7f0e;stroke:#ff7f0e;stroke-linejoin:miter;"/>
   </g>
   <g id="patch_62">
    <path clip-path="url(#p3699431bc7)" d="M 118.404816 59.853251 
L 112.742812 64.049313 
L 111.628381 61.535093 
L 111.613913 61.510628 
L 111.617181 61.509824 
L 110.50275 58.995603 
z
" style="fill:#ff7f0e;stroke:#ff7f0e;stroke-linejoin:miter;"/>
   </g>
   <g id="patch_63">
    <path clip-path="url(#p3699431bc7)" d="M 231.172447 44.35195 
L 223.934453 46.865563 
L 224.032262 44.218752 
L 224.031979 44.192125 
L 224.033245 44.192151 
L 224.131053 41.54534 
z
" style="fill:#ff7f0e;stroke:#ff7f0e;stroke-linejoin:miter;"/>
   </g>
   <g id="patch_64">
    <path clip-path="url(#p3699431bc7)" d="M 101.744132 36.74878 
L 96.02066 40.898279 
L 94.943331 38.375094 
L 94.928598 38.350662 
L 94.932504 38.349736 
L 93.855176 35.826551 
z
" style="fill:#ff7f0e;stroke:#ff7f0e;stroke-linejoin:miter;"/>
   </g>
   <g id="patch_65">
    <path clip-path="url(#p3699431bc7)" d="M 274.509548 32.020945 
L 266.732068 30.671779 
L 269.000393 28.633664 
L 269.02261 28.612822 
L 269.02319 28.61318 
L 271.291515 26.575064 
z
" style="fill:#ff7f0e;stroke:#ff7f0e;stroke-linejoin:miter;"/>
   </g>
   <g id="patch_66">
    <path clip-path="url(#p3699431bc7)" d="M 49.396876 14.25948 
L 43.761676 18.47553 
L 42.631235 15.965281 
L 42.614632 15.941363 
L 42.619874 15.940052 
L 41.489434 13.429803 
z
" style="fill:#ff7f0e;stroke:#ff7f0e;stroke-linejoin:miter;"/>
   </g>
   <g id="patch_67">
    <path clip-path="url(#p3699431bc7)" d="M 59.813162 11.716991 
L 54.132645 15.899137 
L 53.029331 13.382195 
L 53.013172 13.358133 
L 53.018242 13.356899 
L 51.914929 10.839957 
z
" style="fill:#ff7f0e;stroke:#ff7f0e;stroke-linejoin:miter;"/>
   </g>
   <g id="patch_68">
    <path clip-path="url(#p3699431bc7)" d="M 93.850985 9.180149 
L 88.024762 13.249472 
L 87.010704 10.711769 
L 86.996081 10.687248 
L 87.000513 10.686265 
L 85.986455 8.148562 
z
" style="fill:#ff7f0e;stroke:#ff7f0e;stroke-linejoin:miter;"/>
   </g>
   <g id="patch_69">
    <path clip-path="url(#p3699431bc7)" d="M 134.392205 9.392598 
L 128.345225 13.278982 
L 127.472807 10.712214 
L 127.460411 10.687102 
L 127.464039 10.686417 
L 126.591621 8.119648 
z
" style="fill:#ff7f0e;stroke:#ff7f0e;stroke-linejoin:miter;"/>
   </g>
   <g id="patch_70">
    <path clip-path="url(#p3699431bc7)" d="M 168.578932 9.671018 
L 162.261328 13.310521 
L 161.574627 10.712622 
L 161.564775 10.686945 
L 161.567726 10.686512 
L 160.881025 8.088613 
z
" style="fill:#ff7f0e;stroke:#ff7f0e;stroke-linejoin:miter;"/>
   </g>
   <g id="patch_71">
    <path clip-path="url(#p3699431bc7)" d="M 199.256369 10.071997 
L 192.58508 13.342334 
L 192.165938 10.713005 
L 192.159382 10.686787 
L 192.161726 10.68658 
L 191.742584 8.057251 
z
" style="fill:#ff7f0e;stroke:#ff7f0e;stroke-linejoin:miter;"/>
   </g>
   <g id="patch_72">
    <path clip-path="url(#p3699431bc7)" d="M 266.517106 17.376971 
L 258.549769 17.777478 
L 259.921353 15.33487 
L 259.934201 15.310029 
L 259.935138 15.310321 
L 261.306723 12.867714 
z
" style="fill:#ff7f0e;stroke:#ff7f0e;stroke-linejoin:miter;"/>
   </g>
   <g id="patch_73">
    <path clip-path="url(#p3699431bc7)" d="M 260.051551 102.829058 
L 260.40441 96.884425 
L 263.509294 98.172056 
L 263.540734 98.184682 
L 263.540499 98.184997 
L 266.645383 99.472628 
z
" style="fill:#ff7f0e;stroke:#ff7f0e;stroke-linejoin:miter;"/>
   </g>
   <g id="matplotlib.axis_1">
    <g id="xtick_1">
     <g id="line2d_1">
      <defs>
       <path d="M 0 0 
L 0 3.5 
" id="md9ce784a12" style="stroke:#000000;stroke-width:0.8;"/>
      </defs>
      <g>
       <use style="stroke:#000000;stroke-width:0.8;" x="78.332313" xlink:href="#md9ce784a12" y="276.812"/>
      </g>
     </g>
     <g id="text_1">
      <!-- −4 -->
      <defs>
       <path d="M 10.59375 35.5 
L 73.1875 35.5 
L 73.1875 27.203125 
L 10.59375 27.203125 
z
" id="DejaVuSans-2212"/>
       <path d="M 37.796875 64.3125 
L 12.890625 25.390625 
L 37.796875 25.390625 
z
M 35.203125 72.90625 
L 47.609375 72.90625 
L 47.609375 25.390625 
L 58.015625 25.390625 
L 58.015625 17.1875 
L 47.609375 17.1875 
L 47.609375 0 
L 37.796875 0 
L 37.796875 17.1875 
L 4.890625 17.1875 
L 4.890625 26.703125 
z
" id="DejaVuSans-34"/>
      </defs>
      <g transform="translate(70.961219 291.410438)scale(0.1 -0.1)">
       <use xlink:href="#DejaVuSans-2212"/>
       <use x="83.789062" xlink:href="#DejaVuSans-34"/>
      </g>
     </g>
    </g>
    <g id="xtick_2">
     <g id="line2d_2">
      <g>
       <use style="stroke:#000000;stroke-width:0.8;" x="149.756313" xlink:href="#md9ce784a12" y="276.812"/>
      </g>
     </g>
     <g id="text_2">
      <!-- −2 -->
      <defs>
       <path d="M 19.1875 8.296875 
L 53.609375 8.296875 
L 53.609375 0 
L 7.328125 0 
L 7.328125 8.296875 
Q 12.9375 14.109375 22.625 23.890625 
Q 32.328125 33.6875 34.8125 36.53125 
Q 39.546875 41.84375 41.421875 45.53125 
Q 43.3125 49.21875 43.3125 52.78125 
Q 43.3125 58.59375 39.234375 62.25 
Q 35.15625 65.921875 28.609375 65.921875 
Q 23.96875 65.921875 18.8125 64.3125 
Q 13.671875 62.703125 7.8125 59.421875 
L 7.8125 69.390625 
Q 13.765625 71.78125 18.9375 73 
Q 24.125 74.21875 28.421875 74.21875 
Q 39.75 74.21875 46.484375 68.546875 
Q 53.21875 62.890625 53.21875 53.421875 
Q 53.21875 48.921875 51.53125 44.890625 
Q 49.859375 40.875 45.40625 35.40625 
Q 44.1875 33.984375 37.640625 27.21875 
Q 31.109375 20.453125 19.1875 8.296875 
" id="DejaVuSans-32"/>
      </defs>
      <g transform="translate(142.385219 291.410438)scale(0.1 -0.1)">
       <use xlink:href="#DejaVuSans-2212"/>
       <use x="83.789062" xlink:href="#DejaVuSans-32"/>
      </g>
     </g>
    </g>
    <g id="xtick_3">
     <g id="line2d_3">
      <g>
       <use style="stroke:#000000;stroke-width:0.8;" x="221.180313" xlink:href="#md9ce784a12" y="276.812"/>
      </g>
     </g>
     <g id="text_3">
      <!-- 0 -->
      <defs>
       <path d="M 31.78125 66.40625 
Q 24.171875 66.40625 20.328125 58.90625 
Q 16.5 51.421875 16.5 36.375 
Q 16.5 21.390625 20.328125 13.890625 
Q 24.171875 6.390625 31.78125 6.390625 
Q 39.453125 6.390625 43.28125 13.890625 
Q 47.125 21.390625 47.125 36.375 
Q 47.125 51.421875 43.28125 58.90625 
Q 39.453125 66.40625 31.78125 66.40625 
M 31.78125 74.21875 
Q 44.046875 74.21875 50.515625 64.515625 
Q 56.984375 54.828125 56.984375 36.375 
Q 56.984375 17.96875 50.515625 8.265625 
Q 44.046875 -1.421875 31.78125 -1.421875 
Q 19.53125 -1.421875 13.0625 8.265625 
Q 6.59375 17.96875 6.59375 36.375 
Q 6.59375 54.828125 13.0625 64.515625 
Q 19.53125 74.21875 31.78125 74.21875 
" id="DejaVuSans-30"/>
      </defs>
      <g transform="translate(217.999063 291.410438)scale(0.1 -0.1)">
       <use xlink:href="#DejaVuSans-30"/>
      </g>
     </g>
    </g>
    <g id="xtick_4">
     <g id="line2d_4">
      <g>
       <use style="stroke:#000000;stroke-width:0.8;" x="292.604312" xlink:href="#md9ce784a12" y="276.812"/>
      </g>
     </g>
     <g id="text_4">
      <!-- 2 -->
      <g transform="translate(289.423063 291.410438)scale(0.1 -0.1)">
       <use xlink:href="#DejaVuSans-32"/>
      </g>
     </g>
    </g>
    <g id="xtick_5">
     <g id="line2d_5">
      <g>
       <use style="stroke:#000000;stroke-width:0.8;" x="364.028313" xlink:href="#md9ce784a12" y="276.812"/>
      </g>
     </g>
     <g id="text_5">
      <!-- 4 -->
      <g transform="translate(360.847063 291.410438)scale(0.1 -0.1)">
       <use xlink:href="#DejaVuSans-34"/>
      </g>
     </g>
    </g>
    <g id="text_6">
     <!-- x1 -->
     <defs>
      <path d="M 54.890625 54.6875 
L 35.109375 28.078125 
L 55.90625 0 
L 45.3125 0 
L 29.390625 21.484375 
L 13.484375 0 
L 2.875 0 
L 24.125 28.609375 
L 4.6875 54.6875 
L 15.28125 54.6875 
L 29.78125 35.203125 
L 44.28125 54.6875 
z
" id="DejaVuSans-78"/>
      <path d="M 12.40625 8.296875 
L 28.515625 8.296875 
L 28.515625 63.921875 
L 10.984375 60.40625 
L 10.984375 69.390625 
L 28.421875 72.90625 
L 38.28125 72.90625 
L 38.28125 8.296875 
L 54.390625 8.296875 
L 54.390625 0 
L 12.40625 0 
z
" id="DejaVuSans-31"/>
     </defs>
     <g transform="translate(215.039688 305.088562)scale(0.1 -0.1)">
      <use xlink:href="#DejaVuSans-78"/>
      <use x="59.179688" xlink:href="#DejaVuSans-31"/>
     </g>
    </g>
   </g>
   <g id="matplotlib.axis_2">
    <g id="ytick_1">
     <g id="line2d_6">
      <defs>
       <path d="M 0 0 
L -3.5 0 
" id="m0842e17956" style="stroke:#000000;stroke-width:0.8;"/>
      </defs>
      <g>
       <use style="stroke:#000000;stroke-width:0.8;" x="42.620313" xlink:href="#m0842e17956" y="250.2008"/>
      </g>
     </g>
     <g id="text_7">
      <!-- −4 -->
      <g transform="translate(20.878125 254.000019)scale(0.1 -0.1)">
       <use xlink:href="#DejaVuSans-2212"/>
       <use x="83.789062" xlink:href="#DejaVuSans-34"/>
      </g>
     </g>
    </g>
    <g id="ytick_2">
     <g id="line2d_7">
      <g>
       <use style="stroke:#000000;stroke-width:0.8;" x="42.620313" xlink:href="#m0842e17956" y="196.9784"/>
      </g>
     </g>
     <g id="text_8">
      <!-- −2 -->
      <g transform="translate(20.878125 200.777619)scale(0.1 -0.1)">
       <use xlink:href="#DejaVuSans-2212"/>
       <use x="83.789062" xlink:href="#DejaVuSans-32"/>
      </g>
     </g>
    </g>
    <g id="ytick_3">
     <g id="line2d_8">
      <g>
       <use style="stroke:#000000;stroke-width:0.8;" x="42.620313" xlink:href="#m0842e17956" y="143.756"/>
      </g>
     </g>
     <g id="text_9">
      <!-- 0 -->
      <g transform="translate(29.257813 147.555219)scale(0.1 -0.1)">
       <use xlink:href="#DejaVuSans-30"/>
      </g>
     </g>
    </g>
    <g id="ytick_4">
     <g id="line2d_9">
      <g>
       <use style="stroke:#000000;stroke-width:0.8;" x="42.620313" xlink:href="#m0842e17956" y="90.5336"/>
      </g>
     </g>
     <g id="text_10">
      <!-- 2 -->
      <g transform="translate(29.257813 94.332819)scale(0.1 -0.1)">
       <use xlink:href="#DejaVuSans-32"/>
      </g>
     </g>
    </g>
    <g id="ytick_5">
     <g id="line2d_10">
      <g>
       <use style="stroke:#000000;stroke-width:0.8;" x="42.620313" xlink:href="#m0842e17956" y="37.3112"/>
      </g>
     </g>
     <g id="text_11">
      <!-- 4 -->
      <g transform="translate(29.257813 41.110419)scale(0.1 -0.1)">
       <use xlink:href="#DejaVuSans-34"/>
      </g>
     </g>
    </g>
    <g id="text_12">
     <!-- x2 -->
     <g transform="translate(14.798438 149.896625)rotate(-90)scale(0.1 -0.1)">
      <use xlink:href="#DejaVuSans-78"/>
      <use x="59.179688" xlink:href="#DejaVuSans-32"/>
     </g>
    </g>
   </g>
   <g id="line2d_11">
    <path clip-path="url(#p3699431bc7)" d="M 221.180313 10.7 
L 228.042639 10.803657 
L 234.366816 11.103753 
L 240.184515 11.584714 
L 245.525704 12.231909 
L 250.418813 13.031559 
L 254.890798 13.970694 
L 258.967134 15.037167 
L 262.671964 16.219549 
L 266.028154 17.507114 
L 269.057353 18.889791 
L 271.780047 20.358141 
L 274.215617 21.903318 
L 276.382425 23.517021 
L 278.29777 25.191519 
L 279.978103 26.919529 
L 281.438814 28.694335 
L 282.694597 30.509578 
L 283.997035 32.826604 
L 285.026082 35.187008 
L 285.8053 37.581053 
L 286.356654 39.999817 
L 286.70052 42.435192 
L 286.865835 45.369232 
L 286.789698 48.305155 
L 286.499663 51.232796 
L 285.924392 54.625977 
L 285.128351 57.983249 
L 283.989774 61.762562 
L 282.648277 65.467748 
L 280.94358 69.533941 
L 278.861403 73.910758 
L 276.40548 78.539077 
L 273.597843 83.352507 
L 270.23611 88.645954 
L 266.617945 93.926711 
L 262.588398 99.426189 
L 258.043258 105.255492 
L 252.972658 111.387755 
L 247.496397 117.652973 
L 241.729015 123.913672 
L 235.701202 130.132357 
L 229.566786 136.142237 
L 223.903137 141.387194 
L 221.180312 143.756 
L 221.180312 143.756 
" style="fill:none;stroke:#ff7f0e;stroke-linecap:square;stroke-width:0.5;"/>
   </g>
   <g id="line2d_12">
    <path clip-path="url(#p3699431bc7)" d="M 250.199137 10.7 
L 254.808466 11.634639 
L 259.011656 12.700588 
L 262.833433 13.886122 
L 266.297339 15.18018 
L 269.425573 16.57242 
L 272.239123 18.05316 
L 274.757802 19.613347 
L 277.00046 21.244448 
L 278.984931 22.938469 
L 280.728006 24.687974 
L 282.245531 26.486025 
L 283.552493 28.326137 
L 284.66307 30.202247 
L 285.79546 32.58943 
L 286.666405 35.013855 
L 287.298718 37.46621 
L 287.713609 39.938001 
L 287.930757 42.421511 
L 287.95597 45.407364 
L 287.751849 48.389127 
L 287.345035 51.357142 
L 286.646548 54.791145 
L 285.740101 58.183142 
L 284.489501 61.995515 
L 282.858082 66.187855 
L 281.038501 70.264207 
L 278.849985 74.644032 
L 276.299408 79.267388 
L 273.16725 84.455863 
L 269.733922 89.700426 
L 265.825594 95.255728 
L 261.544542 100.955017 
L 256.805328 106.89645 
L 251.619768 113.041788 
L 245.956768 119.402561 
L 240.04286 125.711823 
L 233.856782 131.985667 
L 227.784012 137.831743 
L 222.427801 142.691966 
L 221.180312 143.756 
L 221.180312 143.756 
" style="fill:none;stroke:#ff7f0e;stroke-linecap:square;stroke-width:0.5;"/>
   </g>
   <g id="line2d_13">
    <path clip-path="url(#p3699431bc7)" d="M 280.7924 10.7 
L 283.026385 12.510754 
L 284.993698 14.384026 
L 286.711417 16.312282 
L 288.196263 18.288254 
L 289.463907 20.305213 
L 290.529127 22.356893 
L 291.597071 24.961514 
L 292.39589 27.600836 
L 292.949354 30.265248 
L 293.279487 32.94603 
L 293.406723 35.635264 
L 293.31822 38.863425 
L 292.995075 42.082279 
L 292.464944 45.281947 
L 291.618364 48.979113 
L 290.56043 52.626468 
L 289.133962 56.720951 
L 287.303057 61.21805 
L 285.283961 65.585753 
L 282.875451 70.273682 
L 280.086792 75.217223 
L 276.945462 80.344733 
L 273.230216 85.968655 
L 269.011069 91.922126 
L 264.398875 98.026282 
L 259.302144 104.38599 
L 253.73409 110.960108 
L 247.843193 117.562679 
L 241.619838 124.199706 
L 235.231889 130.687828 
L 228.867997 136.836728 
L 223.163083 142.049838 
L 221.180312 143.756 
L 221.180312 143.756 
" style="fill:none;stroke:#ff7f0e;stroke-linecap:square;stroke-width:0.5;"/>
   </g>
   <g id="line2d_14">
    <path clip-path="url(#p3699431bc7)" d="M 314.89583 10.7 
L 314.232713 14.875973 
L 313.32891 19.016905 
L 312.214457 23.112749 
L 310.685302 27.822351 
L 308.946795 32.446585 
L 306.748635 37.614181 
L 304.369792 42.645079 
L 301.528177 48.129677 
L 298.223673 53.994535 
L 294.476676 60.156604 
L 290.327854 66.525409 
L 285.836208 73.005919 
L 280.740783 79.946791 
L 275.168542 87.136138 
L 269.282263 94.358485 
L 262.994249 101.720661 
L 256.347268 109.164034 
L 249.33205 116.688253 
L 242.087009 124.135388 
L 234.751978 131.357196 
L 227.766812 137.927928 
L 221.967452 143.094679 
L 221.180312 143.756 
L 221.180313 143.756 
" style="fill:none;stroke:#ff7f0e;stroke-linecap:square;stroke-width:0.5;"/>
   </g>
   <g id="line2d_15">
    <path clip-path="url(#p3699431bc7)" d="M 355.359448 10.7 
L 342.399202 24.964479 
L 328.926863 39.453425 
L 315.34573 53.72885 
L 301.455037 68.001324 
L 287.36393 82.150271 
L 273.472009 95.777504 
L 260.083671 108.603243 
L 247.074616 120.75937 
L 235.17158 131.581887 
L 225.260313 140.30561 
L 221.180312 143.756 
L 221.180312 143.756 
" style="fill:none;stroke:#ff7f0e;stroke-linecap:square;stroke-width:0.5;"/>
   </g>
   <g id="line2d_16">
    <path clip-path="url(#p3699431bc7)" d="M 399.740313 15.953977 
L 235.997445 133.196262 
L 221.180312 143.756 
L 221.180313 143.756 
" style="fill:none;stroke:#ff7f0e;stroke-linecap:square;stroke-width:0.5;"/>
   </g>
   <g id="line2d_17">
    <path clip-path="url(#p3699431bc7)" d="M 399.740313 51.914074 
L 363.891877 72.183654 
L 333.367648 89.201365 
L 306.6494 103.846157 
L 285.028202 115.453419 
L 267.182677 124.790963 
L 253.005541 131.967731 
L 242.176052 137.215348 
L 234.018841 140.934044 
L 228.262796 143.327415 
L 224.487184 144.674885 
L 222.220447 145.271439 
L 221.015474 145.383802 
L 220.51466 145.240855 
L 220.376108 144.998508 
L 220.454707 144.649714 
L 220.833291 144.1034 
L 221.180313 143.756 
L 221.180313 143.756 
" style="fill:none;stroke:#ff7f0e;stroke-linecap:square;stroke-width:0.5;"/>
   </g>
   <g id="line2d_18">
    <path clip-path="url(#p3699431bc7)" d="M 399.740313 80.620143 
L 371.893677 94.087033 
L 347.911321 105.433149 
L 327.290017 114.954396 
L 308.111527 123.561263 
L 291.91356 130.58992 
L 278.267339 136.287202 
L 265.935665 141.20106 
L 255.762242 145.027847 
L 246.827677 148.152859 
L 239.637343 150.439652 
L 233.887978 152.053911 
L 229.039553 153.191942 
L 225.295284 153.851925 
L 222.441621 154.144969 
L 220.303102 154.160493 
L 218.735868 153.970122 
L 217.622262 153.630914 
L 216.866321 153.188023 
L 216.366571 152.641137 
L 216.099388 152.011949 
L 216.036104 151.285641 
L 216.186574 150.414036 
L 216.604931 149.341104 
L 217.368335 148.02608 
L 218.539307 146.470262 
L 220.129543 144.736369 
L 221.180313 143.756 
L 221.180313 143.756 
" style="fill:none;stroke:#ff7f0e;stroke-linecap:square;stroke-width:0.5;"/>
   </g>
   <g id="line2d_19">
    <path clip-path="url(#p3699431bc7)" d="M 399.740313 105.21586 
L 376.644808 115.158991 
L 356.045491 123.800804 
L 337.694584 131.282903 
L 319.459474 138.471893 
L 303.500138 144.515818 
L 289.559974 149.558498 
L 277.40962 153.727516 
L 266.844246 157.135911 
L 257.680972 159.883762 
L 248.946383 162.269363 
L 241.543675 164.054864 
L 235.298427 165.332892 
L 230.057408 166.183847 
L 225.68603 166.677449 
L 222.066247 166.874 
L 219.094596 166.825568 
L 216.680502 166.576999 
L 214.744764 166.16682 
L 213.218199 165.628041 
L 212.040453 164.988857 
L 211.158967 164.273255 
L 210.47713 163.421997 
L 210.046076 162.525462 
L 209.809339 161.517626 
L 209.77261 160.412695 
L 209.948493 159.145553 
L 210.382304 157.665885 
L 211.125419 155.954189 
L 212.24462 153.971003 
L 213.747354 151.776019 
L 215.697084 149.331879 
L 218.065684 146.726612 
L 220.608664 144.256154 
L 221.180313 143.756 
L 221.180312 143.756 
" style="fill:none;stroke:#ff7f0e;stroke-linecap:square;stroke-width:0.5;"/>
   </g>
   <g id="line2d_20">
    <path clip-path="url(#p3699431bc7)" d="M 399.740313 127.600077 
L 377.429338 136.322167 
L 357.319081 143.938691 
L 339.213806 150.559358 
L 322.934354 156.283992 
L 308.316589 161.203498 
L 295.210247 165.400567 
L 283.477781 168.950395 
L 271.590576 172.302172 
L 261.162966 174.989642 
L 252.040834 177.095108 
L 244.085071 178.692182 
L 237.170219 179.846611 
L 231.183248 180.617018 
L 226.022364 181.055625 
L 221.595927 181.208899 
L 217.821506 181.118125 
L 214.625013 180.81992 
L 211.939897 180.346713 
L 209.706416 179.727181 
L 207.870989 178.986623 
L 206.385611 178.147312 
L 205.207308 177.228807 
L 204.297645 176.248247 
L 203.622277 175.220603 
L 203.10451 174.02439 
L 202.805938 172.801005 
L 202.690189 171.426213 
L 202.779113 169.91287 
L 203.115837 168.144853 
L 203.738716 166.158538 
L 204.65511 164.00523 
L 205.906877 161.634039 
L 207.587812 158.94437 
L 209.667082 156.046286 
L 212.184465 152.922214 
L 215.15496 149.597507 
L 218.405331 146.296803 
L 221.180313 143.756 
L 221.180313 143.756 
" style="fill:none;stroke:#ff7f0e;stroke-linecap:square;stroke-width:0.5;"/>
   </g>
   <g id="line2d_21">
    <path clip-path="url(#p3699431bc7)" d="M 399.740313 149.117973 
L 378.845517 156.627136 
L 359.778794 163.243513 
L 342.39806 169.045641 
L 326.571554 174.105952 
L 312.177297 178.491107 
L 299.102226 182.262534 
L 287.241405 185.476907 
L 276.497705 188.186344 
L 266.78127 190.438735 
L 258.008968 192.278076 
L 248.865457 193.955742 
L 240.789916 195.184803 
L 233.679732 196.018247 
L 227.441317 196.503932 
L 221.989288 196.685074 
L 217.245817 196.600638 
L 213.140025 196.285701 
L 209.607371 195.771816 
L 206.589123 195.087322 
L 204.031883 194.257633 
L 201.887111 193.305508 
L 200.110726 192.251295 
L 198.662711 191.113154 
L 197.50678 189.907255 
L 196.610061 188.647961 
L 195.942792 187.347999 
L 195.42674 185.826907 
L 195.139222 184.282031 
L 195.049118 182.531297 
L 195.191867 180.587971 
L 195.589194 178.472499 
L 196.248198 176.212082 
L 197.238694 173.661005 
L 198.571143 170.884287 
L 200.221239 167.961146 
L 202.325662 164.697192 
L 204.880893 161.16248 
L 207.870364 157.41853 
L 211.318742 153.468286 
L 215.091445 149.490744 
L 218.933547 145.759858 
L 221.180313 143.756 
L 221.180312 143.756 
" style="fill:none;stroke:#ff7f0e;stroke-linecap:square;stroke-width:0.5;"/>
   </g>
   <g id="line2d_22">
    <path clip-path="url(#p3699431bc7)" d="M 399.740313 170.919577 
L 380.805352 177.215156 
L 363.292856 182.831903 
L 347.108907 187.821178 
L 332.165507 192.230865 
L 318.380251 196.105569 
L 303.257774 200.107689 
L 289.566899 203.466191 
L 277.192283 206.242402 
L 266.026954 208.492812 
L 255.972108 210.269196 
L 246.936292 211.619121 
L 238.834898 212.586245 
L 231.589731 213.210579 
L 225.128544 213.528767 
L 219.384618 213.574335 
L 214.296304 213.37797 
L 209.80672 212.967696 
L 205.863388 212.369094 
L 202.4179 211.605495 
L 199.425623 210.698161 
L 196.845474 209.666411 
L 194.639642 208.527789 
L 192.773286 207.298238 
L 191.214326 205.992222 
L 189.933271 204.622828 
L 188.903042 203.201866 
L 188.098775 201.739983 
L 187.415726 199.995457 
L 186.976251 198.221781 
L 186.750583 196.430845 
L 186.719981 194.376326 
L 186.932762 192.071056 
L 187.364146 189.787651 
L 188.052396 187.29225 
L 189.010357 184.614826 
L 190.345125 181.561612 
L 192.071079 178.21002 
L 194.165378 174.654135 
L 196.696241 170.816396 
L 199.686941 166.706796 
L 203.078174 162.434051 
L 206.896851 157.983734 
L 211.130086 153.39737 
L 215.583476 148.903373 
L 219.809081 144.947539 
L 221.180313 143.756 
L 221.180313 143.756 
" style="fill:none;stroke:#ff7f0e;stroke-linecap:square;stroke-width:0.5;"/>
   </g>
   <g id="line2d_23">
    <path clip-path="url(#p3699431bc7)" d="M 399.740313 194.217485 
L 379.318202 200.484962 
L 360.463654 206.020906 
L 343.072088 210.881916 
L 327.045645 215.120663 
L 312.29254 218.786277 
L 298.726555 221.924659 
L 286.267072 224.57847 
L 274.83846 226.78749 
L 264.369786 228.588803 
L 254.794592 230.016929 
L 246.050634 231.103978 
L 238.079622 231.879816 
L 230.82696 232.372211 
L 224.241545 232.606963 
L 218.27555 232.608027 
L 212.884203 232.39765 
L 208.025642 231.996454 
L 203.660723 231.42355 
L 199.752852 230.696643 
L 196.267816 229.832124 
L 193.173645 228.845159 
L 190.440532 227.749729 
L 188.040647 226.558745 
L 185.947992 225.284132 
L 184.1383 223.936882 
L 182.588934 222.527123 
L 181.278793 221.064162 
L 180.188233 219.556541 
L 179.143733 217.699425 
L 178.35992 215.801534 
L 177.809993 213.873902 
L 177.469334 211.926453 
L 177.306461 209.641131 
L 177.365374 207.353246 
L 177.666913 204.749151 
L 178.181108 202.169535 
L 178.97098 199.311136 
L 180.061069 196.205208 
L 181.460281 192.890848 
L 183.161369 189.414027 
L 185.298045 185.558132 
L 187.847205 181.431288 
L 190.748153 177.155023 
L 194.217511 172.452372 
L 198.075657 167.607394 
L 202.33397 162.617349 
L 207.013208 157.478292 
L 212.006413 152.32931 
L 216.981375 147.517636 
L 221.114612 143.809961 
L 221.180313 143.756 
L 221.180312 143.756 
" style="fill:none;stroke:#ff7f0e;stroke-linecap:square;stroke-width:0.5;"/>
   </g>
   <g id="line2d_24">
    <path clip-path="url(#p3699431bc7)" d="M 399.740313 220.575917 
L 381.914384 225.629742 
L 365.211876 230.169099 
L 349.572295 234.226476 
L 334.937719 237.832824 
L 321.253489 241.017215 
L 308.467605 243.807177 
L 296.530469 246.228856 
L 285.395126 248.306874 
L 272.535957 250.456324 
L 260.778368 252.147421 
L 250.045488 253.419764 
L 240.265314 254.310187 
L 231.370451 254.852915 
L 223.297808 255.079744 
L 215.988351 255.020191 
L 209.386831 254.701655 
L 203.441563 254.14955 
L 198.104241 253.387414 
L 193.329721 252.437039 
L 189.075806 251.318596 
L 185.303069 250.05074 
L 181.974693 248.650707 
L 179.056284 247.134418 
L 176.515777 245.516541 
L 174.323241 243.810596 
L 172.450814 242.029001 
L 170.872518 240.183175 
L 169.564103 238.283629 
L 168.502998 236.339993 
L 167.668163 234.361104 
L 167.040049 232.355025 
L 166.533679 229.922154 
L 166.269894 227.47217 
L 166.222163 225.015315 
L 166.407289 222.152391 
L 166.818577 219.305165 
L 167.525385 216.084408 
L 168.444842 212.912323 
L 169.687678 209.416205 
L 171.274093 205.637096 
L 173.207183 201.624475 
L 175.472492 197.43505 
L 178.239344 192.810194 
L 181.46764 187.882722 
L 185.076956 182.798956 
L 189.142247 177.470127 
L 193.657842 171.92855 
L 198.50544 166.32998 
L 203.816288 160.539024 
L 209.350483 154.833749 
L 214.922993 149.405329 
L 219.922724 144.833481 
L 221.180313 143.756 
L 221.180312 143.756 
" style="fill:none;stroke:#ff7f0e;stroke-linecap:square;stroke-width:0.5;"/>
   </g>
   <g id="line2d_25">
    <path clip-path="url(#p3699431bc7)" d="M 399.740313 252.392861 
L 394.752668 253.704661 
L 389.846114 254.979837 
L 385.01993 256.218796 
L 380.273267 257.421992 
L 375.604841 258.590111 
L 371.013617 259.723704 
L 366.498518 260.823344 
L 362.058457 261.889607 
L 357.692398 262.923045 
L 353.399268 263.924226 
L 349.178083 264.893671 
L 345.027788 265.831938 
L 340.94743 266.73953 
L 336.93599 267.616987 
L 332.992535 268.464798 
L 329.116078 269.283484 
L 325.305708 270.073523 
L 321.560465 270.835421 
L 317.879457 271.569642 
L 314.261751 272.276679 
L 310.706492 272.956975 
L 307.212771 273.611008 
L 303.779693 274.239245 
L 300.406435 274.842113 
L 297.092129 275.420064 
L 293.835918 275.973545 
L 290.636985 276.50298 
L 287.494519 277.008789 
" style="fill:none;stroke:#ff7f0e;stroke-linecap:square;stroke-width:0.5;"/>
   </g>
   <g id="line2d_26">
    <path clip-path="url(#p3699431bc7)" d="M 379.370669 276.812 
L 374.462927 277.972316 
" style="fill:none;stroke:#ff7f0e;stroke-linecap:square;stroke-width:0.5;"/>
   </g>
   <g id="line2d_27">
    <path clip-path="url(#p3699431bc7)" d="M 334.094815 276.812 
L 330.085752 277.638331 
" style="fill:none;stroke:#ff7f0e;stroke-linecap:square;stroke-width:0.5;"/>
   </g>
   <g id="line2d_28">
    <path clip-path="url(#p3699431bc7)" d="M 297.257619 276.812 
L 293.979736 277.366594 
" style="fill:none;stroke:#ff7f0e;stroke-linecap:square;stroke-width:0.5;"/>
   </g>
   <g id="line2d_29">
    <path clip-path="url(#p3699431bc7)" d="M 265.1914 276.812 
L 262.549971 277.130065 
" style="fill:none;stroke:#ff7f0e;stroke-linecap:square;stroke-width:0.5;"/>
   </g>
   <g id="line2d_30">
    <path clip-path="url(#p3699431bc7)" d="M 235.595166 276.812 
L 233.541207 276.911731 
" style="fill:none;stroke:#ff7f0e;stroke-linecap:square;stroke-width:0.5;"/>
   </g>
   <g id="line2d_31">
    <path clip-path="url(#p3699431bc7)" d="M 206.765459 276.812 
L 201.022259 276.295575 
L 195.751691 275.615035 
L 190.925448 274.784083 
L 186.516776 273.815568 
L 182.500385 272.721537 
L 178.852235 271.513351 
L 175.549613 270.20165 
L 172.571054 268.796396 
L 169.896237 267.306936 
L 167.505918 265.742035 
L 165.381891 264.109905 
L 163.506938 262.418227 
L 161.864807 260.674174 
L 160.440128 258.88445 
L 159.218372 257.055319 
L 157.955703 254.722351 
L 156.963579 252.347453 
L 156.218607 249.940265 
L 155.699012 247.509605 
L 155.384596 245.063477 
L 155.251809 242.117913 
L 155.357636 239.171844 
L 155.674781 236.235294 
L 156.278646 232.833154 
L 157.100266 229.468337 
L 158.264721 225.681947 
L 159.628894 221.971131 
L 161.355706 217.900105 
L 163.458745 213.519511 
L 165.933689 208.888675 
L 168.758072 204.074102 
L 172.134943 198.780989 
L 175.765051 193.502099 
L 180.037333 187.698633 
L 184.576091 181.908461 
L 189.630824 175.821149 
L 195.081508 169.605732 
L 200.957282 163.247442 
L 207.009772 157.024394 
L 213.135789 151.043002 
L 218.764696 145.850258 
L 221.180313 143.756 
L 221.180313 143.756 
" style="fill:none;stroke:#ff7f0e;stroke-linecap:square;stroke-width:0.5;"/>
   </g>
   <g id="line2d_32">
    <path clip-path="url(#p3699431bc7)" d="M 177.169225 276.812 
L 173.723859 275.448054 
L 170.61627 273.986521 
L 167.825575 272.437023 
L 165.331516 270.808788 
L 163.115085 269.110393 
L 161.15829 267.349873 
L 159.44419 265.534703 
L 157.956786 263.671864 
L 156.680948 261.767877 
L 155.602365 259.828837 
L 154.511012 257.364359 
L 153.682084 254.864187 
L 153.092588 252.337658 
L 152.721127 249.793299 
L 152.547827 247.238864 
L 152.575512 244.170128 
L 152.832797 241.107824 
L 153.292861 238.061601 
L 154.053283 234.539332 
L 155.021137 231.062305 
L 156.340985 227.156681 
L 158.048813 222.864355 
L 159.942999 218.693069 
L 162.212 214.213522 
L 164.847873 209.487245 
L 168.076129 204.185904 
L 171.606947 198.829878 
L 175.618749 193.159259 
L 180.00629 187.34434 
L 184.856891 181.285069 
L 190.157985 175.020661 
L 195.941017 168.539516 
L 201.974201 162.113862 
L 208.279285 155.727279 
L 214.463318 149.779197 
L 219.879445 144.865907 
L 221.180313 143.756 
L 221.180312 143.756 
" style="fill:none;stroke:#ff7f0e;stroke-linecap:square;stroke-width:0.5;"/>
   </g>
   <g id="line2d_33">
    <path clip-path="url(#p3699431bc7)" d="M 145.103006 276.812 
L 144.147447 274.529709 
L 143.383581 272.221885 
L 142.678309 269.309357 
L 142.226935 266.375328 
L 142.006296 263.428857 
L 141.994989 260.478123 
L 142.229867 256.942 
L 142.705867 253.421919 
L 143.394111 249.928002 
L 144.430381 245.8966 
L 145.682073 241.92502 
L 147.333074 237.47251 
L 149.176437 233.124388 
L 151.431363 228.370226 
L 154.105343 223.271554 
L 157.186659 217.899057 
L 160.644181 212.330853 
L 164.429073 206.649926 
L 168.764053 200.549543 
L 173.545089 194.214304 
L 178.891981 187.51779 
L 184.576608 180.764833 
L 190.751702 173.786396 
L 197.133116 166.910948 
L 203.831006 160.022596 
L 210.520212 153.459902 
L 216.838828 147.565499 
L 221.180313 143.756 
L 221.180312 143.756 
" style="fill:none;stroke:#ff7f0e;stroke-linecap:square;stroke-width:0.5;"/>
   </g>
   <g id="line2d_34">
    <path clip-path="url(#p3699431bc7)" d="M 108.26581 276.812 
L 112.584525 269.383774 
L 116.996511 262.248362 
L 121.949804 254.669259 
L 127.397406 246.75894 
L 133.272136 238.636266 
L 139.488809 230.42304 
L 146.398958 221.681093 
L 153.393854 213.186297 
L 161.134723 204.144514 
L 169.285865 194.981092 
L 177.789165 185.770216 
L 186.401294 176.772324 
L 195.116828 167.984793 
L 203.826669 159.516869 
L 212.092116 151.786954 
L 219.122993 145.50345 
L 221.180313 143.756 
L 221.180313 143.756 
" style="fill:none;stroke:#ff7f0e;stroke-linecap:square;stroke-width:0.5;"/>
   </g>
   <g id="line2d_35">
    <path clip-path="url(#p3699431bc7)" d="M 62.989956 276.812 
L 110.654969 236.188508 
L 153.12326 200.281225 
L 188.094339 170.995769 
L 213.520332 149.975563 
L 221.180313 143.756 
L 221.180313 143.756 
" style="fill:none;stroke:#ff7f0e;stroke-linecap:square;stroke-width:0.5;"/>
   </g>
   <g id="line2d_36">
    <path clip-path="url(#p3699431bc7)" d="M 42.620313 252.392861 
L 94.68162 219.745999 
L 136.054936 194.052018 
L 168.200632 174.340523 
L 191.574107 160.258713 
L 207.026298 151.190723 
L 216.115876 146.088785 
L 220.280901 143.969921 
L 221.230269 143.669218 
L 221.230866 143.670716 
L 221.180312 143.756 
L 221.180313 143.756 
" style="fill:none;stroke:#ff7f0e;stroke-linecap:square;stroke-width:0.5;"/>
   </g>
   <g id="line2d_37">
    <path clip-path="url(#p3699431bc7)" d="M 42.620313 220.575917 
L 73.00317 204.791315 
L 98.630988 191.71413 
L 121.723377 180.171321 
L 142.108175 170.232132 
L 158.743808 162.355289 
L 173.085152 155.797712 
L 185.184396 150.502125 
L 195.164792 146.372341 
L 203.202479 143.284762 
L 209.50866 141.099414 
L 214.119332 139.721823 
L 217.580287 138.903614 
L 220.076518 138.531537 
L 221.727229 138.495653 
L 222.769014 138.677693 
L 223.378007 138.992979 
L 223.692919 139.40048 
L 223.78573 139.89985 
L 223.663009 140.529472 
L 223.255804 141.366132 
L 222.470424 142.437809 
L 221.299249 143.652234 
L 221.180312 143.756 
L 221.180313 143.756 
" style="fill:none;stroke:#ff7f0e;stroke-linecap:square;stroke-width:0.5;"/>
   </g>
   <g id="line2d_38">
    <path clip-path="url(#p3699431bc7)" d="M 42.620313 194.217485 
L 67.106057 183.080492 
L 88.699364 173.486947 
L 109.683624 164.415412 
L 127.873945 156.801081 
L 143.611895 150.448859 
L 157.199501 145.187485 
L 169.979596 140.481354 
L 180.791423 136.740125 
L 189.906347 133.813851 
L 197.560579 131.573342 
L 204.485373 129.78112 
L 210.146087 128.550006 
L 214.740057 127.776015 
L 218.436155 127.371507 
L 221.378699 127.262818 
L 223.690852 127.388217 
L 225.477553 127.696154 
L 226.828071 128.143743 
L 227.818207 128.695465 
L 228.512197 129.322043 
L 228.992613 130.057603 
L 229.258575 130.888479 
L 229.317122 131.857359 
L 229.154135 132.940075 
L 228.734304 134.215468 
L 228.00035 135.717655 
L 226.875249 137.490641 
L 225.326932 139.499672 
L 223.359087 141.681355 
L 221.247503 143.699561 
L 221.180312 143.756 
L 221.180312 143.756 
" style="fill:none;stroke:#ff7f0e;stroke-linecap:square;stroke-width:0.5;"/>
   </g>
   <g id="line2d_39">
    <path clip-path="url(#p3699431bc7)" d="M 42.620313 170.919577 
L 63.967139 162.171744 
L 83.243553 154.482684 
L 102.972038 146.859561 
L 120.482343 140.345184 
L 135.998884 134.814155 
L 149.724745 130.153765 
L 161.843533 126.262848 
L 172.521225 123.050633 
L 181.907783 120.435754 
L 191.09249 118.117571 
L 198.987029 116.371224 
L 205.745483 115.115428 
L 211.504978 114.278651 
L 216.387377 113.798086 
L 220.500999 113.61861 
L 223.942028 113.691947 
L 226.795754 113.975915 
L 229.137789 114.43371 
L 231.035073 115.033308 
L 232.546793 115.746921 
L 233.725287 116.550467 
L 234.616731 117.423171 
L 235.261798 118.347181 
L 235.732939 119.41553 
L 236.001806 120.62104 
L 236.052669 121.950333 
L 235.882391 123.384444 
L 235.465927 125.006368 
L 234.747876 126.87649 
L 233.672449 129.014701 
L 232.219219 131.383065 
L 230.331957 134.014086 
L 228.008062 136.859852 
L 225.294745 139.827282 
L 222.375359 142.693032 
L 221.180312 143.756 
L 221.180312 143.756 
" style="fill:none;stroke:#ff7f0e;stroke-linecap:square;stroke-width:0.5;"/>
   </g>
   <g id="line2d_40">
    <path clip-path="url(#p3699431bc7)" d="M 42.620313 149.117973 
L 62.701914 141.590259 
L 81.050114 134.921147 
L 97.798717 129.036151 
L 115.482118 123.069965 
L 131.338504 117.977717 
L 145.53401 113.668554 
L 158.220765 110.059849 
L 169.537874 107.076597 
L 179.61253 104.65073 
L 188.560998 102.720521 
L 196.489532 101.230023 
L 203.495113 100.128619 
L 209.666261 99.370534 
L 215.083824 98.914356 
L 219.821504 98.722719 
L 223.946452 98.761949 
L 227.519863 99.001705 
L 230.597464 99.414692 
L 233.229959 99.976392 
L 235.46346 100.664814 
L 237.339882 101.460256 
L 238.897296 102.345103 
L 240.170273 103.303623 
L 241.190156 104.321807 
L 242.082134 105.542605 
L 242.718674 106.808783 
L 243.133781 108.106149 
L 243.373673 109.58774 
L 243.402543 111.244002 
L 243.197376 113.058626 
L 242.748869 115.008867 
L 242.001375 117.221764 
L 240.939033 119.642633 
L 239.499882 122.339873 
L 237.640118 125.32116 
L 235.372476 128.517641 
L 232.653516 131.953411 
L 229.51964 135.548857 
L 226.030951 139.209432 
L 222.519156 142.577542 
L 221.180312 143.756 
L 221.180312 143.756 
" style="fill:none;stroke:#ff7f0e;stroke-linecap:square;stroke-width:0.5;"/>
   </g>
   <g id="line2d_41">
    <path clip-path="url(#p3699431bc7)" d="M 42.620313 127.600077 
L 64.333788 120.109486 
L 84.123562 113.546283 
L 102.140248 107.827742 
L 118.523528 102.877577 
L 133.402349 98.625804 
L 146.896362 95.007876 
L 159.116432 91.964366 
L 170.165169 89.440644 
L 180.137528 87.386509 
L 189.1214 85.755829 
L 197.1981 84.506249 
L 204.44282 83.598909 
L 210.925079 82.998184 
L 216.709093 82.671448 
L 221.854194 82.588833 
L 226.415207 82.722999 
L 230.44271 83.048979 
L 233.983371 83.543977 
L 237.080242 84.187199 
L 239.773007 84.9597 
L 242.098218 85.844249 
L 244.089544 86.82518 
L 245.77799 87.888266 
L 247.192088 89.020606 
L 248.358068 90.210528 
L 249.30003 91.447486 
L 250.145268 92.937423 
L 250.747682 94.464993 
L 251.136206 96.018318 
L 251.351872 97.811659 
L 251.344829 99.836224 
L 251.1155 101.852629 
L 250.646388 104.067075 
L 249.921919 106.453982 
L 248.851609 109.187975 
L 247.4139 112.202204 
L 245.623354 115.41333 
L 243.418311 118.892457 
L 240.774312 122.632079 
L 237.74139 126.534228 
L 234.208009 130.710266 
L 230.310395 134.968105 
L 226.163308 139.168821 
L 222.214682 142.860871 
L 221.180312 143.756 
L 221.180312 143.756 
" style="fill:none;stroke:#ff7f0e;stroke-linecap:square;stroke-width:0.5;"/>
   </g>
   <g id="line2d_42">
    <path clip-path="url(#p3699431bc7)" d="M 42.620313 105.21586 
L 62.28145 98.934009 
L 80.449275 93.356723 
L 97.222827 88.430129 
L 112.695049 84.103936 
L 126.952908 80.331335 
L 140.078094 77.068595 
L 152.147319 74.274874 
L 163.2322 71.91228 
L 173.400035 69.945409 
L 182.713974 68.341241 
L 191.233068 67.069111 
L 199.012679 66.100455 
L 206.104681 65.408693 
L 212.557648 64.969116 
L 218.417046 64.758768 
L 223.725403 64.75635 
L 228.522548 64.942068 
L 232.845722 65.297576 
L 236.729746 65.805872 
L 240.207177 66.451202 
L 243.30843 67.218996 
L 246.061921 68.095777 
L 248.494195 69.069087 
L 250.630038 70.127423 
L 252.492583 71.260175 
L 254.103405 72.457567 
L 255.732347 73.967148 
L 257.059898 75.542714 
L 258.115617 77.171473 
L 258.926659 78.841887 
L 259.518014 80.543536 
L 259.960612 82.555922 
L 260.168156 84.585117 
L 260.155542 86.910148 
L 259.914387 89.227443 
L 259.413616 91.809587 
L 258.623504 94.630522 
L 257.529937 97.656247 
L 256.135185 100.845589 
L 254.322965 104.399047 
L 252.105022 108.21939 
L 249.5314 112.195074 
L 246.544942 116.396979 
L 243.144326 120.80195 
L 239.18361 125.557263 
L 234.874854 130.376867 
L 230.231301 135.23416 
L 225.522622 139.839722 
L 221.437737 143.540537 
L 221.180312 143.756 
L 221.180312 143.756 
" style="fill:none;stroke:#ff7f0e;stroke-linecap:square;stroke-width:0.5;"/>
   </g>
   <g id="line2d_43">
    <path clip-path="url(#p3699431bc7)" d="M 42.620313 80.620143 
L 63.851399 74.367984 
L 83.436031 68.876004 
L 101.48452 64.084793 
L 118.100144 59.939045 
L 133.37973 56.387203 
L 147.414222 53.381111 
L 160.288647 50.87603 
L 172.082733 48.830266 
L 182.871244 47.20497 
L 192.724238 45.96398 
L 201.707337 45.073657 
L 209.881835 44.502821 
L 217.305261 44.222412 
L 224.031487 44.205425 
L 230.110852 44.42684 
L 235.590443 44.863447 
L 240.514311 45.493726 
L 244.923631 46.297746 
L 248.856879 47.25706 
L 252.349997 48.354615 
L 255.436554 49.574646 
L 258.147898 50.902597 
L 260.513292 52.325036 
L 262.560035 53.829586 
L 264.313581 55.404855 
L 265.797656 57.040369 
L 267.034374 58.726503 
L 268.044319 60.45444 
L 268.846689 62.216078 
L 269.560552 64.364172 
L 270.029624 66.538602 
L 270.279994 68.729017 
L 270.327419 71.292443 
L 270.144019 73.852179 
L 269.691384 76.758757 
L 269.018919 79.631608 
L 268.044881 82.808395 
L 266.745399 86.253412 
L 265.113263 89.922642 
L 263.158476 93.764823 
L 260.730446 98.01849 
L 257.858948 102.563285 
L 254.613591 107.264951 
L 250.925599 112.206126 
L 246.798073 117.357714 
L 242.199714 122.732446 
L 237.198947 128.22614 
L 231.952478 133.655789 
L 226.663952 138.809868 
L 221.989238 143.067859 
L 221.180312 143.756 
L 221.180313 143.756 
" style="fill:none;stroke:#ff7f0e;stroke-linecap:square;stroke-width:0.5;"/>
   </g>
   <g id="line2d_44">
    <path clip-path="url(#p3699431bc7)" d="M 42.620313 51.914074 
L 61.221138 46.871875 
L 78.637667 42.366387 
L 94.934011 38.363341 
L 110.171543 34.830098 
L 124.408247 31.735963 
L 137.699098 29.051982 
L 150.096483 26.750689 
L 161.650098 24.806164 
L 172.406989 23.194004 
L 182.411836 21.891153 
L 191.707073 20.875837 
L 200.332972 20.127507 
L 208.327733 19.626786 
L 215.727588 19.355407 
L 222.566897 19.296156 
L 228.878237 19.432816 
L 234.692512 19.750107 
L 240.039006 20.233649 
L 244.945456 20.869922 
L 249.438143 21.646208 
L 253.541967 22.550552 
L 257.28052 23.571716 
L 260.676132 24.699152 
L 263.749953 25.922952 
L 266.521997 27.233828 
L 269.011211 28.623063 
L 271.23556 30.082472 
L 273.211917 31.604456 
L 274.956317 33.18186 
L 276.483877 34.808018 
L 278.110184 36.89977 
L 279.446316 39.046631 
L 280.516725 41.23824 
L 281.344145 43.465129 
L 281.949721 45.718652 
L 282.353115 47.990917 
L 282.595945 50.732307 
L 282.603022 53.479186 
L 282.400972 56.221623 
L 281.933303 59.403824 
L 281.249074 62.555824 
L 280.242068 66.107787 
L 278.871738 70.024056 
L 277.299763 73.841401 
L 275.370985 77.952388 
L 273.088119 82.301679 
L 270.471265 86.827 
L 267.33101 91.805863 
L 263.720366 97.092788 
L 259.731967 102.529803 
L 255.284893 108.211093 
L 250.388186 114.101005 
L 245.0103 120.211609 
L 239.365288 126.28699 
L 233.432266 132.342951 
L 227.580811 138.000837 
L 222.394182 142.719386 
L 221.180312 143.756 
L 221.180313 143.756 
" style="fill:none;stroke:#ff7f0e;stroke-linecap:square;stroke-width:0.5;"/>
   </g>
   <g id="line2d_45">
    <path clip-path="url(#p3699431bc7)" d="M 42.620313 15.953977 
L 47.862577 14.643135 
L 53.018716 13.370781 
L 58.089313 12.136581 
L 63.075669 10.939843 
L 67.978928 9.779959 
" style="fill:none;stroke:#ff7f0e;stroke-linecap:square;stroke-width:0.5;"/>
   </g>
   <g id="line2d_46">
    <path clip-path="url(#p3699431bc7)" d="M 87.001177 10.7 
L 91.432317 9.716809 
" style="fill:none;stroke:#ff7f0e;stroke-linecap:square;stroke-width:0.5;"/>
   </g>
   <g id="line2d_47">
    <path clip-path="url(#p3699431bc7)" d="M 127.464795 10.7 
L 131.092774 10.015296 
" style="fill:none;stroke:#ff7f0e;stroke-linecap:square;stroke-width:0.5;"/>
   </g>
   <g id="line2d_48">
    <path clip-path="url(#p3699431bc7)" d="M 161.568225 10.7 
L 164.519294 10.266863 
" style="fill:none;stroke:#ff7f0e;stroke-linecap:square;stroke-width:0.5;"/>
   </g>
   <g id="line2d_49">
    <path clip-path="url(#p3699431bc7)" d="M 192.161488 10.7 
L 194.505326 10.492535 
" style="fill:none;stroke:#ff7f0e;stroke-linecap:square;stroke-width:0.5;"/>
   </g>
   <g id="line2d_50">
    <path clip-path="url(#p3699431bc7)" d="M 221.180312 10.7 
L 228.042647 10.803653 
L 234.366835 11.103743 
L 240.184531 11.584706 
L 245.525745 12.231887 
L 250.418905 13.031509 
L 254.890895 13.970645 
L 258.967197 15.037138 
L 262.671989 16.219543 
L 266.028156 17.507121 
L 269.057343 18.889805 
L 271.780025 20.358161 
L 274.215579 21.903347 
L 276.382326 23.517085 
L 278.297609 25.191619 
L 279.977806 26.919707 
L 281.438428 28.694563 
L 282.69411 30.509863 
L 283.996511 32.82691 
L 285.025573 35.187305 
L 285.804849 37.581315 
L 286.356253 40.000049 
L 286.700131 42.435417 
L 286.865417 45.369474 
L 286.789253 48.305413 
L 286.499215 51.233054 
L 285.923978 54.626215 
L 285.12799 57.983454 
L 283.989458 61.762741 
L 282.647942 65.467937 
L 280.943186 69.534165 
L 278.861004 73.910984 
L 276.405158 78.539257 
L 273.597575 83.352655 
L 270.235818 88.646115 
L 266.617592 93.926906 
L 262.588042 99.426383 
L 258.042954 105.255654 
L 252.972387 111.387896 
L 247.496191 117.653076 
L 241.72889 123.91373 
L 235.701143 130.13238 
L 229.566765 136.142242 
L 223.903136 141.38719 
L 221.180312 143.756 
L 221.180312 143.756 
" style="fill:none;stroke:#ff7f0e;stroke-linecap:square;stroke-width:0.5;"/>
   </g>
   <g id="line2d_51">
    <path clip-path="url(#p3699431bc7)" d="M 221.180313 143.756 
" style="fill:none;stroke:#ff7f0e;stroke-linecap:square;stroke-width:1.5;"/>
   </g>
   <g id="line2d_52">
    <defs>
     <path d="M 0 3 
C 0.795609 3 1.55874 2.683901 2.12132 2.12132 
C 2.683901 1.55874 3 0.795609 3 0 
C 3 -0.795609 2.683901 -1.55874 2.12132 -2.12132 
C 1.55874 -2.683901 0.795609 -3 0 -3 
C -0.795609 -3 -1.55874 -2.683901 -2.12132 -2.12132 
C -2.683901 -1.55874 -3 -0.795609 -3 0 
C -3 0.795609 -2.683901 1.55874 -2.12132 2.12132 
C -1.55874 2.683901 -0.795609 3 0 3 
z
" id="mbe46c91f1d" style="stroke:#ff0000;"/>
    </defs>
    <g clip-path="url(#p3699431bc7)">
     <use style="fill:#ff0000;stroke:#ff0000;" x="221.180313" xlink:href="#mbe46c91f1d" y="143.756"/>
    </g>
   </g>
   <g id="patch_74">
    <path d="M 42.620313 276.812 
L 42.620313 10.7 
" style="fill:none;stroke:#000000;stroke-linecap:square;stroke-linejoin:miter;stroke-width:0.8;"/>
   </g>
   <g id="patch_75">
    <path d="M 399.740313 276.812 
L 399.740313 10.7 
" style="fill:none;stroke:#000000;stroke-linecap:square;stroke-linejoin:miter;stroke-width:0.8;"/>
   </g>
   <g id="patch_76">
    <path d="M 42.620313 276.812 
L 399.740313 276.812 
" style="fill:none;stroke:#000000;stroke-linecap:square;stroke-linejoin:miter;stroke-width:0.8;"/>
   </g>
   <g id="patch_77">
    <path d="M 42.620313 10.7 
L 399.740313 10.7 
" style="fill:none;stroke:#000000;stroke-linecap:square;stroke-linejoin:miter;stroke-width:0.8;"/>
   </g>
   <g id="legend_1">
    <g id="patch_78">
     <path d="M 249.800312 273.812 
L 395.540313 273.812 
Q 396.740313 273.812 396.740313 272.612 
L 396.740313 255.35825 
Q 396.740313 254.15825 395.540313 254.15825 
L 249.800312 254.15825 
Q 248.600313 254.15825 248.600313 255.35825 
L 248.600313 272.612 
Q 248.600313 273.812 249.800312 273.812 
z
" style="fill:#ffffff;opacity:0.8;stroke:#cccccc;stroke-linejoin:miter;"/>
    </g>
    <g id="line2d_53">
     <path d="M 251.000313 259.017312 
L 263.000313 259.017312 
" style="fill:none;stroke:#ff7f0e;stroke-linecap:square;stroke-width:1.5;"/>
    </g>
    <g id="line2d_54"/>
    <g id="text_13">
     <!-- system zlinearyzowany -->
     <defs>
      <path d="M 44.28125 53.078125 
L 44.28125 44.578125 
Q 40.484375 46.53125 36.375 47.5 
Q 32.28125 48.484375 27.875 48.484375 
Q 21.1875 48.484375 17.84375 46.4375 
Q 14.5 44.390625 14.5 40.28125 
Q 14.5 37.15625 16.890625 35.375 
Q 19.28125 33.59375 26.515625 31.984375 
L 29.59375 31.296875 
Q 39.15625 29.25 43.1875 25.515625 
Q 47.21875 21.78125 47.21875 15.09375 
Q 47.21875 7.46875 41.1875 3.015625 
Q 35.15625 -1.421875 24.609375 -1.421875 
Q 20.21875 -1.421875 15.453125 -0.5625 
Q 10.6875 0.296875 5.421875 2 
L 5.421875 11.28125 
Q 10.40625 8.6875 15.234375 7.390625 
Q 20.0625 6.109375 24.8125 6.109375 
Q 31.15625 6.109375 34.5625 8.28125 
Q 37.984375 10.453125 37.984375 14.40625 
Q 37.984375 18.0625 35.515625 20.015625 
Q 33.0625 21.96875 24.703125 23.78125 
L 21.578125 24.515625 
Q 13.234375 26.265625 9.515625 29.90625 
Q 5.8125 33.546875 5.8125 39.890625 
Q 5.8125 47.609375 11.28125 51.796875 
Q 16.75 56 26.8125 56 
Q 31.78125 56 36.171875 55.265625 
Q 40.578125 54.546875 44.28125 53.078125 
" id="DejaVuSans-73"/>
      <path d="M 32.171875 -5.078125 
Q 28.375 -14.84375 24.75 -17.8125 
Q 21.140625 -20.796875 15.09375 -20.796875 
L 7.90625 -20.796875 
L 7.90625 -13.28125 
L 13.1875 -13.28125 
Q 16.890625 -13.28125 18.9375 -11.515625 
Q 21 -9.765625 23.484375 -3.21875 
L 25.09375 0.875 
L 2.984375 54.6875 
L 12.5 54.6875 
L 29.59375 11.921875 
L 46.6875 54.6875 
L 56.203125 54.6875 
z
" id="DejaVuSans-79"/>
      <path d="M 18.3125 70.21875 
L 18.3125 54.6875 
L 36.8125 54.6875 
L 36.8125 47.703125 
L 18.3125 47.703125 
L 18.3125 18.015625 
Q 18.3125 11.328125 20.140625 9.421875 
Q 21.96875 7.515625 27.59375 7.515625 
L 36.8125 7.515625 
L 36.8125 0 
L 27.59375 0 
Q 17.1875 0 13.234375 3.875 
Q 9.28125 7.765625 9.28125 18.015625 
L 9.28125 47.703125 
L 2.6875 47.703125 
L 2.6875 54.6875 
L 9.28125 54.6875 
L 9.28125 70.21875 
z
" id="DejaVuSans-74"/>
      <path d="M 56.203125 29.59375 
L 56.203125 25.203125 
L 14.890625 25.203125 
Q 15.484375 15.921875 20.484375 11.0625 
Q 25.484375 6.203125 34.421875 6.203125 
Q 39.59375 6.203125 44.453125 7.46875 
Q 49.3125 8.734375 54.109375 11.28125 
L 54.109375 2.78125 
Q 49.265625 0.734375 44.1875 -0.34375 
Q 39.109375 -1.421875 33.890625 -1.421875 
Q 20.796875 -1.421875 13.15625 6.1875 
Q 5.515625 13.8125 5.515625 26.8125 
Q 5.515625 40.234375 12.765625 48.109375 
Q 20.015625 56 32.328125 56 
Q 43.359375 56 49.78125 48.890625 
Q 56.203125 41.796875 56.203125 29.59375 
M 47.21875 32.234375 
Q 47.125 39.59375 43.09375 43.984375 
Q 39.0625 48.390625 32.421875 48.390625 
Q 24.90625 48.390625 20.390625 44.140625 
Q 15.875 39.890625 15.1875 32.171875 
z
" id="DejaVuSans-65"/>
      <path d="M 52 44.1875 
Q 55.375 50.25 60.0625 53.125 
Q 64.75 56 71.09375 56 
Q 79.640625 56 84.28125 50.015625 
Q 88.921875 44.046875 88.921875 33.015625 
L 88.921875 0 
L 79.890625 0 
L 79.890625 32.71875 
Q 79.890625 40.578125 77.09375 44.375 
Q 74.3125 48.1875 68.609375 48.1875 
Q 61.625 48.1875 57.5625 43.546875 
Q 53.515625 38.921875 53.515625 30.90625 
L 53.515625 0 
L 44.484375 0 
L 44.484375 32.71875 
Q 44.484375 40.625 41.703125 44.40625 
Q 38.921875 48.1875 33.109375 48.1875 
Q 26.21875 48.1875 22.15625 43.53125 
Q 18.109375 38.875 18.109375 30.90625 
L 18.109375 0 
L 9.078125 0 
L 9.078125 54.6875 
L 18.109375 54.6875 
L 18.109375 46.1875 
Q 21.1875 51.21875 25.484375 53.609375 
Q 29.78125 56 35.6875 56 
Q 41.65625 56 45.828125 52.96875 
Q 50 49.953125 52 44.1875 
" id="DejaVuSans-6d"/>
      <path id="DejaVuSans-20"/>
      <path d="M 5.515625 54.6875 
L 48.1875 54.6875 
L 48.1875 46.484375 
L 14.40625 7.171875 
L 48.1875 7.171875 
L 48.1875 0 
L 4.296875 0 
L 4.296875 8.203125 
L 38.09375 47.515625 
L 5.515625 47.515625 
z
" id="DejaVuSans-7a"/>
      <path d="M 9.421875 75.984375 
L 18.40625 75.984375 
L 18.40625 0 
L 9.421875 0 
z
" id="DejaVuSans-6c"/>
      <path d="M 9.421875 54.6875 
L 18.40625 54.6875 
L 18.40625 0 
L 9.421875 0 
z
M 9.421875 75.984375 
L 18.40625 75.984375 
L 18.40625 64.59375 
L 9.421875 64.59375 
z
" id="DejaVuSans-69"/>
      <path d="M 54.890625 33.015625 
L 54.890625 0 
L 45.90625 0 
L 45.90625 32.71875 
Q 45.90625 40.484375 42.875 44.328125 
Q 39.84375 48.1875 33.796875 48.1875 
Q 26.515625 48.1875 22.3125 43.546875 
Q 18.109375 38.921875 18.109375 30.90625 
L 18.109375 0 
L 9.078125 0 
L 9.078125 54.6875 
L 18.109375 54.6875 
L 18.109375 46.1875 
Q 21.34375 51.125 25.703125 53.5625 
Q 30.078125 56 35.796875 56 
Q 45.21875 56 50.046875 50.171875 
Q 54.890625 44.34375 54.890625 33.015625 
" id="DejaVuSans-6e"/>
      <path d="M 34.28125 27.484375 
Q 23.390625 27.484375 19.1875 25 
Q 14.984375 22.515625 14.984375 16.5 
Q 14.984375 11.71875 18.140625 8.90625 
Q 21.296875 6.109375 26.703125 6.109375 
Q 34.1875 6.109375 38.703125 11.40625 
Q 43.21875 16.703125 43.21875 25.484375 
L 43.21875 27.484375 
z
M 52.203125 31.203125 
L 52.203125 0 
L 43.21875 0 
L 43.21875 8.296875 
Q 40.140625 3.328125 35.546875 0.953125 
Q 30.953125 -1.421875 24.3125 -1.421875 
Q 15.921875 -1.421875 10.953125 3.296875 
Q 6 8.015625 6 15.921875 
Q 6 25.140625 12.171875 29.828125 
Q 18.359375 34.515625 30.609375 34.515625 
L 43.21875 34.515625 
L 43.21875 35.40625 
Q 43.21875 41.609375 39.140625 45 
Q 35.0625 48.390625 27.6875 48.390625 
Q 23 48.390625 18.546875 47.265625 
Q 14.109375 46.140625 10.015625 43.890625 
L 10.015625 52.203125 
Q 14.9375 54.109375 19.578125 55.046875 
Q 24.21875 56 28.609375 56 
Q 40.484375 56 46.34375 49.84375 
Q 52.203125 43.703125 52.203125 31.203125 
" id="DejaVuSans-61"/>
      <path d="M 41.109375 46.296875 
Q 39.59375 47.171875 37.8125 47.578125 
Q 36.03125 48 33.890625 48 
Q 26.265625 48 22.1875 43.046875 
Q 18.109375 38.09375 18.109375 28.8125 
L 18.109375 0 
L 9.078125 0 
L 9.078125 54.6875 
L 18.109375 54.6875 
L 18.109375 46.1875 
Q 20.953125 51.171875 25.484375 53.578125 
Q 30.03125 56 36.53125 56 
Q 37.453125 56 38.578125 55.875 
Q 39.703125 55.765625 41.0625 55.515625 
z
" id="DejaVuSans-72"/>
      <path d="M 30.609375 48.390625 
Q 23.390625 48.390625 19.1875 42.75 
Q 14.984375 37.109375 14.984375 27.296875 
Q 14.984375 17.484375 19.15625 11.84375 
Q 23.34375 6.203125 30.609375 6.203125 
Q 37.796875 6.203125 41.984375 11.859375 
Q 46.1875 17.53125 46.1875 27.296875 
Q 46.1875 37.015625 41.984375 42.703125 
Q 37.796875 48.390625 30.609375 48.390625 
M 30.609375 56 
Q 42.328125 56 49.015625 48.375 
Q 55.71875 40.765625 55.71875 27.296875 
Q 55.71875 13.875 49.015625 6.21875 
Q 42.328125 -1.421875 30.609375 -1.421875 
Q 18.84375 -1.421875 12.171875 6.21875 
Q 5.515625 13.875 5.515625 27.296875 
Q 5.515625 40.765625 12.171875 48.375 
Q 18.84375 56 30.609375 56 
" id="DejaVuSans-6f"/>
      <path d="M 4.203125 54.6875 
L 13.1875 54.6875 
L 24.421875 12.015625 
L 35.59375 54.6875 
L 46.1875 54.6875 
L 57.421875 12.015625 
L 68.609375 54.6875 
L 77.59375 54.6875 
L 63.28125 0 
L 52.6875 0 
L 40.921875 44.828125 
L 29.109375 0 
L 18.5 0 
z
" id="DejaVuSans-77"/>
     </defs>
     <g transform="translate(267.800313 261.117312)scale(0.06 -0.06)">
      <use xlink:href="#DejaVuSans-73"/>
      <use x="52.099609" xlink:href="#DejaVuSans-79"/>
      <use x="111.279297" xlink:href="#DejaVuSans-73"/>
      <use x="163.378906" xlink:href="#DejaVuSans-74"/>
      <use x="202.587891" xlink:href="#DejaVuSans-65"/>
      <use x="264.111328" xlink:href="#DejaVuSans-6d"/>
      <use x="361.523438" xlink:href="#DejaVuSans-20"/>
      <use x="393.310547" xlink:href="#DejaVuSans-7a"/>
      <use x="445.800781" xlink:href="#DejaVuSans-6c"/>
      <use x="473.583984" xlink:href="#DejaVuSans-69"/>
      <use x="501.367188" xlink:href="#DejaVuSans-6e"/>
      <use x="564.746094" xlink:href="#DejaVuSans-65"/>
      <use x="626.269531" xlink:href="#DejaVuSans-61"/>
      <use x="687.548828" xlink:href="#DejaVuSans-72"/>
      <use x="728.662109" xlink:href="#DejaVuSans-79"/>
      <use x="787.841797" xlink:href="#DejaVuSans-7a"/>
      <use x="840.332031" xlink:href="#DejaVuSans-6f"/>
      <use x="901.513672" xlink:href="#DejaVuSans-77"/>
      <use x="983.300781" xlink:href="#DejaVuSans-61"/>
      <use x="1044.580078" xlink:href="#DejaVuSans-6e"/>
      <use x="1107.958984" xlink:href="#DejaVuSans-79"/>
     </g>
    </g>
    <g id="line2d_55"/>
    <g id="line2d_56">
     <g>
      <use style="fill:#ff0000;stroke:#ff0000;" x="257.000313" xlink:href="#mbe46c91f1d" y="268.064187"/>
     </g>
    </g>
    <g id="text_14">
     <!-- Punkt równowagi asymptotycznie stabilny -->
     <defs>
      <path d="M 19.671875 64.796875 
L 19.671875 37.40625 
L 32.078125 37.40625 
Q 38.96875 37.40625 42.71875 40.96875 
Q 46.484375 44.53125 46.484375 51.125 
Q 46.484375 57.671875 42.71875 61.234375 
Q 38.96875 64.796875 32.078125 64.796875 
z
M 9.8125 72.90625 
L 32.078125 72.90625 
Q 44.34375 72.90625 50.609375 67.359375 
Q 56.890625 61.8125 56.890625 51.125 
Q 56.890625 40.328125 50.609375 34.8125 
Q 44.34375 29.296875 32.078125 29.296875 
L 19.671875 29.296875 
L 19.671875 0 
L 9.8125 0 
z
" id="DejaVuSans-50"/>
      <path d="M 8.5 21.578125 
L 8.5 54.6875 
L 17.484375 54.6875 
L 17.484375 21.921875 
Q 17.484375 14.15625 20.5 10.265625 
Q 23.53125 6.390625 29.59375 6.390625 
Q 36.859375 6.390625 41.078125 11.03125 
Q 45.3125 15.671875 45.3125 23.6875 
L 45.3125 54.6875 
L 54.296875 54.6875 
L 54.296875 0 
L 45.3125 0 
L 45.3125 8.40625 
Q 42.046875 3.421875 37.71875 1 
Q 33.40625 -1.421875 27.6875 -1.421875 
Q 18.265625 -1.421875 13.375 4.4375 
Q 8.5 10.296875 8.5 21.578125 
M 31.109375 56 
z
" id="DejaVuSans-75"/>
      <path d="M 9.078125 75.984375 
L 18.109375 75.984375 
L 18.109375 31.109375 
L 44.921875 54.6875 
L 56.390625 54.6875 
L 27.390625 29.109375 
L 57.625 0 
L 45.90625 0 
L 18.109375 26.703125 
L 18.109375 0 
L 9.078125 0 
z
" id="DejaVuSans-6b"/>
      <path d="M 30.609375 48.390625 
Q 23.390625 48.390625 19.1875 42.75 
Q 14.984375 37.109375 14.984375 27.296875 
Q 14.984375 17.484375 19.15625 11.84375 
Q 23.34375 6.203125 30.609375 6.203125 
Q 37.796875 6.203125 41.984375 11.859375 
Q 46.1875 17.53125 46.1875 27.296875 
Q 46.1875 37.015625 41.984375 42.703125 
Q 37.796875 48.390625 30.609375 48.390625 
M 30.609375 56 
Q 42.328125 56 49.015625 48.375 
Q 55.71875 40.765625 55.71875 27.296875 
Q 55.71875 13.875 49.015625 6.21875 
Q 42.328125 -1.421875 30.609375 -1.421875 
Q 18.84375 -1.421875 12.171875 6.21875 
Q 5.515625 13.875 5.515625 27.296875 
Q 5.515625 40.765625 12.171875 48.375 
Q 18.84375 56 30.609375 56 
M 37.40625 79.984375 
L 47.125 79.984375 
L 31.21875 61.625 
L 23.734375 61.625 
z
" id="DejaVuSans-f3"/>
      <path d="M 45.40625 27.984375 
Q 45.40625 37.75 41.375 43.109375 
Q 37.359375 48.484375 30.078125 48.484375 
Q 22.859375 48.484375 18.828125 43.109375 
Q 14.796875 37.75 14.796875 27.984375 
Q 14.796875 18.265625 18.828125 12.890625 
Q 22.859375 7.515625 30.078125 7.515625 
Q 37.359375 7.515625 41.375 12.890625 
Q 45.40625 18.265625 45.40625 27.984375 
M 54.390625 6.78125 
Q 54.390625 -7.171875 48.1875 -13.984375 
Q 42 -20.796875 29.203125 -20.796875 
Q 24.46875 -20.796875 20.265625 -20.09375 
Q 16.0625 -19.390625 12.109375 -17.921875 
L 12.109375 -9.1875 
Q 16.0625 -11.328125 19.921875 -12.34375 
Q 23.78125 -13.375 27.78125 -13.375 
Q 36.625 -13.375 41.015625 -8.765625 
Q 45.40625 -4.15625 45.40625 5.171875 
L 45.40625 9.625 
Q 42.625 4.78125 38.28125 2.390625 
Q 33.9375 0 27.875 0 
Q 17.828125 0 11.671875 7.65625 
Q 5.515625 15.328125 5.515625 27.984375 
Q 5.515625 40.671875 11.671875 48.328125 
Q 17.828125 56 27.875 56 
Q 33.9375 56 38.28125 53.609375 
Q 42.625 51.21875 45.40625 46.390625 
L 45.40625 54.6875 
L 54.390625 54.6875 
z
" id="DejaVuSans-67"/>
      <path d="M 18.109375 8.203125 
L 18.109375 -20.796875 
L 9.078125 -20.796875 
L 9.078125 54.6875 
L 18.109375 54.6875 
L 18.109375 46.390625 
Q 20.953125 51.265625 25.265625 53.625 
Q 29.59375 56 35.59375 56 
Q 45.5625 56 51.78125 48.09375 
Q 58.015625 40.1875 58.015625 27.296875 
Q 58.015625 14.40625 51.78125 6.484375 
Q 45.5625 -1.421875 35.59375 -1.421875 
Q 29.59375 -1.421875 25.265625 0.953125 
Q 20.953125 3.328125 18.109375 8.203125 
M 48.6875 27.296875 
Q 48.6875 37.203125 44.609375 42.84375 
Q 40.53125 48.484375 33.40625 48.484375 
Q 26.265625 48.484375 22.1875 42.84375 
Q 18.109375 37.203125 18.109375 27.296875 
Q 18.109375 17.390625 22.1875 11.75 
Q 26.265625 6.109375 33.40625 6.109375 
Q 40.53125 6.109375 44.609375 11.75 
Q 48.6875 17.390625 48.6875 27.296875 
" id="DejaVuSans-70"/>
      <path d="M 48.78125 52.59375 
L 48.78125 44.1875 
Q 44.96875 46.296875 41.140625 47.34375 
Q 37.3125 48.390625 33.40625 48.390625 
Q 24.65625 48.390625 19.8125 42.84375 
Q 14.984375 37.3125 14.984375 27.296875 
Q 14.984375 17.28125 19.8125 11.734375 
Q 24.65625 6.203125 33.40625 6.203125 
Q 37.3125 6.203125 41.140625 7.25 
Q 44.96875 8.296875 48.78125 10.40625 
L 48.78125 2.09375 
Q 45.015625 0.34375 40.984375 -0.53125 
Q 36.96875 -1.421875 32.421875 -1.421875 
Q 20.0625 -1.421875 12.78125 6.34375 
Q 5.515625 14.109375 5.515625 27.296875 
Q 5.515625 40.671875 12.859375 48.328125 
Q 20.21875 56 33.015625 56 
Q 37.15625 56 41.109375 55.140625 
Q 45.0625 54.296875 48.78125 52.59375 
" id="DejaVuSans-63"/>
      <path d="M 48.6875 27.296875 
Q 48.6875 37.203125 44.609375 42.84375 
Q 40.53125 48.484375 33.40625 48.484375 
Q 26.265625 48.484375 22.1875 42.84375 
Q 18.109375 37.203125 18.109375 27.296875 
Q 18.109375 17.390625 22.1875 11.75 
Q 26.265625 6.109375 33.40625 6.109375 
Q 40.53125 6.109375 44.609375 11.75 
Q 48.6875 17.390625 48.6875 27.296875 
M 18.109375 46.390625 
Q 20.953125 51.265625 25.265625 53.625 
Q 29.59375 56 35.59375 56 
Q 45.5625 56 51.78125 48.09375 
Q 58.015625 40.1875 58.015625 27.296875 
Q 58.015625 14.40625 51.78125 6.484375 
Q 45.5625 -1.421875 35.59375 -1.421875 
Q 29.59375 -1.421875 25.265625 0.953125 
Q 20.953125 3.328125 18.109375 8.203125 
L 18.109375 0 
L 9.078125 0 
L 9.078125 75.984375 
L 18.109375 75.984375 
z
" id="DejaVuSans-62"/>
     </defs>
     <g transform="translate(267.800313 270.164187)scale(0.06 -0.06)">
      <use xlink:href="#DejaVuSans-50"/>
      <use x="60.287109" xlink:href="#DejaVuSans-75"/>
      <use x="123.666016" xlink:href="#DejaVuSans-6e"/>
      <use x="187.044922" xlink:href="#DejaVuSans-6b"/>
      <use x="244.955078" xlink:href="#DejaVuSans-74"/>
      <use x="284.164062" xlink:href="#DejaVuSans-20"/>
      <use x="315.951172" xlink:href="#DejaVuSans-72"/>
      <use x="357.033203" xlink:href="#DejaVuSans-f3"/>
      <use x="418.214844" xlink:href="#DejaVuSans-77"/>
      <use x="500.001953" xlink:href="#DejaVuSans-6e"/>
      <use x="563.380859" xlink:href="#DejaVuSans-6f"/>
      <use x="624.5625" xlink:href="#DejaVuSans-77"/>
      <use x="706.349609" xlink:href="#DejaVuSans-61"/>
      <use x="767.628906" xlink:href="#DejaVuSans-67"/>
      <use x="831.105469" xlink:href="#DejaVuSans-69"/>
      <use x="858.888672" xlink:href="#DejaVuSans-20"/>
      <use x="890.675781" xlink:href="#DejaVuSans-61"/>
      <use x="951.955078" xlink:href="#DejaVuSans-73"/>
      <use x="1004.054688" xlink:href="#DejaVuSans-79"/>
      <use x="1063.234375" xlink:href="#DejaVuSans-6d"/>
      <use x="1160.646484" xlink:href="#DejaVuSans-70"/>
      <use x="1224.123047" xlink:href="#DejaVuSans-74"/>
      <use x="1263.332031" xlink:href="#DejaVuSans-6f"/>
      <use x="1324.513672" xlink:href="#DejaVuSans-74"/>
      <use x="1363.722656" xlink:href="#DejaVuSans-79"/>
      <use x="1422.902344" xlink:href="#DejaVuSans-63"/>
      <use x="1477.882812" xlink:href="#DejaVuSans-7a"/>
      <use x="1530.373047" xlink:href="#DejaVuSans-6e"/>
      <use x="1593.751953" xlink:href="#DejaVuSans-69"/>
      <use x="1621.535156" xlink:href="#DejaVuSans-65"/>
      <use x="1683.058594" xlink:href="#DejaVuSans-20"/>
      <use x="1714.845703" xlink:href="#DejaVuSans-73"/>
      <use x="1766.945312" xlink:href="#DejaVuSans-74"/>
      <use x="1806.154297" xlink:href="#DejaVuSans-61"/>
      <use x="1867.433594" xlink:href="#DejaVuSans-62"/>
      <use x="1930.910156" xlink:href="#DejaVuSans-69"/>
      <use x="1958.693359" xlink:href="#DejaVuSans-6c"/>
      <use x="1986.476562" xlink:href="#DejaVuSans-6e"/>
      <use x="2049.855469" xlink:href="#DejaVuSans-79"/>
     </g>
    </g>
   </g>
  </g>
 </g>
 <defs>
  <clipPath id="p3699431bc7">
   <rect height="266.112" width="357.12" x="42.620313" y="10.7"/>
  </clipPath>
 </defs>
</svg>
