<?xml version="1.0" encoding="utf-8" standalone="no"?>
<!DOCTYPE svg PUBLIC "-//W3C//DTD SVG 1.1//EN"
  "http://www.w3.org/Graphics/SVG/1.1/DTD/svg11.dtd">
<!-- Created with matplotlib (http://matplotlib.org/) -->
<svg height="314pt" version="1.1" viewBox="0 0 419 314" width="419pt" xmlns="http://www.w3.org/2000/svg" xmlns:xlink="http://www.w3.org/1999/xlink">
 <defs>
  <style type="text/css">
*{stroke-linecap:butt;stroke-linejoin:round;}
  </style>
 </defs>
 <g id="figure_1">
  <g id="patch_1">
   <path d="M 0 314.36825 
L 419.980937 314.36825 
L 419.980937 0 
L 0 0 
z
" style="fill:#ffffff;"/>
  </g>
  <g id="axes_1">
   <g id="patch_2">
    <path d="M 52.160938 276.812 
L 409.280938 276.812 
L 409.280938 10.7 
L 52.160938 10.7 
z
" style="fill:#ffffff;"/>
   </g>
   <g id="patch_3">
    <path clip-path="url(#p3351a44700)" d="M 273.211161 16.296981 
L 265.280153 16.990608 
L 266.433325 14.613065 
L 266.553708 14.362527 
L 266.554711 14.362797 
L 267.707883 11.985253 
z
" style="fill:#1f77b4;stroke:#1f77b4;stroke-linejoin:miter;"/>
   </g>
   <g id="patch_4">
    <path clip-path="url(#p3351a44700)" d="M 286.858784 75.444131 
L 285.815621 69.544676 
L 289.022289 70.370189 
L 289.360034 70.45665 
L 289.359832 70.457085 
L 292.5665 71.282598 
z
" style="fill:#1f77b4;stroke:#1f77b4;stroke-linejoin:miter;"/>
   </g>
   <g id="patch_5">
    <path clip-path="url(#p3351a44700)" d="M 301.322595 46.487061 
L 298.606876 40.891291 
L 301.976463 41.185501 
L 302.33124 41.215938 
L 302.331156 41.21647 
L 305.700744 41.51068 
z
" style="fill:#1f77b4;stroke:#1f77b4;stroke-linejoin:miter;"/>
   </g>
   <g id="patch_6">
    <path clip-path="url(#p3351a44700)" d="M 278.077494 91.453841 
L 278.127532 85.503513 
L 281.152435 86.648244 
L 281.471102 86.768366 
L 281.470845 86.768742 
L 284.495748 87.913473 
z
" style="fill:#1f77b4;stroke:#1f77b4;stroke-linejoin:miter;"/>
   </g>
   <g id="patch_7">
    <path clip-path="url(#p3351a44700)" d="M 348.690422 29.404621 
L 350.45057 23.600526 
L 353.075979 25.20171 
L 353.353337 25.369347 
L 353.352338 25.370256 
L 355.977747 26.97144 
z
" style="fill:#1f77b4;stroke:#1f77b4;stroke-linejoin:miter;"/>
   </g>
   <g id="patch_8">
    <path clip-path="url(#p3351a44700)" d="M 295.441204 81.395345 
L 296.822363 75.534579 
L 299.548679 77.039215 
L 299.836169 77.197086 
L 299.83566 77.197598 
L 302.561977 78.702234 
z
" style="fill:#1f77b4;stroke:#1f77b4;stroke-linejoin:miter;"/>
   </g>
   <g id="patch_9">
    <path clip-path="url(#p3351a44700)" d="M 382.261758 69.731755 
L 386.299309 64.597948 
L 388.150193 66.71665 
L 388.347424 66.938506 
L 388.345023 66.939671 
L 390.195907 69.058372 
z
" style="fill:#1f77b4;stroke:#1f77b4;stroke-linejoin:miter;"/>
   </g>
   <g id="patch_10">
    <path clip-path="url(#p3351a44700)" d="M 295.725617 114.118207 
L 299.508909 108.877966 
L 301.462379 110.944894 
L 301.669006 111.161941 
L 301.668008 111.162465 
L 303.621478 113.229393 
z
" style="fill:#1f77b4;stroke:#1f77b4;stroke-linejoin:miter;"/>
   </g>
   <g id="patch_11">
    <path clip-path="url(#p3351a44700)" d="M 376.727002 122.312404 
L 381.481214 117.531463 
L 383.015986 119.786051 
L 383.180516 120.022251 
L 383.177541 120.023376 
L 384.712314 122.277963 
z
" style="fill:#1f77b4;stroke:#1f77b4;stroke-linejoin:miter;"/>
   </g>
   <g id="patch_12">
    <path clip-path="url(#p3351a44700)" d="M 291.712365 153.395892 
L 296.725376 148.764065 
L 298.134935 151.063603 
L 298.284771 151.305163 
L 298.28331 151.30566 
L 299.692869 153.605198 
z
" style="fill:#1f77b4;stroke:#1f77b4;stroke-linejoin:miter;"/>
   </g>
   <g id="patch_13">
    <path clip-path="url(#p3351a44700)" d="M 332.158376 178.783293 
L 337.471855 174.341338 
L 338.727499 176.689881 
L 338.862351 176.936301 
L 338.859672 176.937096 
L 340.115315 179.285639 
z
" style="fill:#1f77b4;stroke:#1f77b4;stroke-linejoin:miter;"/>
   </g>
   <g id="patch_14">
    <path clip-path="url(#p3351a44700)" d="M 253.390486 197.576243 
L 259.575817 193.812697 
L 260.319849 196.279217 
L 260.399458 196.538635 
L 260.398169 196.538851 
L 261.142201 199.005371 
z
" style="fill:#1f77b4;stroke:#1f77b4;stroke-linejoin:miter;"/>
   </g>
   <g id="patch_15">
    <path clip-path="url(#p3351a44700)" d="M 331.120104 222.627236 
L 336.807453 218.450249 
L 337.856939 220.854313 
L 337.970657 221.106586 
L 337.967411 221.107373 
L 339.016898 223.511437 
z
" style="fill:#1f77b4;stroke:#1f77b4;stroke-linejoin:miter;"/>
   </g>
   <g id="patch_16">
    <path clip-path="url(#p3351a44700)" d="M 206.081129 235.849074 
L 213.792977 234.304819 
L 213.115229 236.781924 
L 213.044774 237.042807 
L 213.043887 237.042672 
L 212.366139 239.519777 
z
" style="fill:#1f77b4;stroke:#1f77b4;stroke-linejoin:miter;"/>
   </g>
   <g id="patch_17">
    <path clip-path="url(#p3351a44700)" d="M 396.86345 269.137254 
L 402.619598 265.012929 
L 403.629157 267.42647 
L 403.740888 267.679258 
L 403.735426 267.680526 
L 404.744985 270.094067 
z
" style="fill:#1f77b4;stroke:#1f77b4;stroke-linejoin:miter;"/>
   </g>
   <g id="patch_18">
    <path clip-path="url(#p3351a44700)" d="M 375.736861 273.918005 
L 381.552928 269.840624 
L 382.527163 272.262211 
L 382.634696 272.516002 
L 382.629714 272.517115 
L 383.60395 274.938703 
z
" style="fill:#1f77b4;stroke:#1f77b4;stroke-linejoin:miter;"/>
   </g>
   <g id="patch_19">
    <path clip-path="url(#p3351a44700)" d="M 320.423994 278.115743 
L 326.474693 274.232574 
L 327.305309 276.683699 
L 327.396494 276.941007 
L 327.392742 276.941713 
L 328.223357 279.392838 
z
" style="fill:#1f77b4;stroke:#1f77b4;stroke-linejoin:miter;"/>
   </g>
   <g id="patch_20">
    <path clip-path="url(#p3351a44700)" d="M 253.424438 277.452459 
L 260.085368 274.170418 
L 260.49349 276.680123 
L 260.538812 276.94409 
L 260.536451 276.944303 
L 260.944573 279.454008 
z
" style="fill:#1f77b4;stroke:#1f77b4;stroke-linejoin:miter;"/>
   </g>
   <g id="patch_21">
    <path clip-path="url(#p3351a44700)" d="M 167.296216 258.21175 
L 174.146315 261.269953 
L 171.285245 262.628577 
L 170.984461 262.772036 
L 170.98408 262.77159 
L 168.12301 264.130215 
z
" style="fill:#1f77b4;stroke:#1f77b4;stroke-linejoin:miter;"/>
   </g>
   <g id="patch_22">
    <path clip-path="url(#p3351a44700)" d="M 188.059213 190.441895 
L 187.961323 196.391893 
L 184.945681 195.233675 
L 184.628009 195.112099 
L 184.628245 195.111757 
L 181.612602 193.953539 
z
" style="fill:#1f77b4;stroke:#1f77b4;stroke-linejoin:miter;"/>
   </g>
   <g id="patch_23">
    <path clip-path="url(#p3351a44700)" d="M 144.041289 252.374341 
L 145.043025 258.277781 
L 141.842196 257.43978 
L 141.504955 257.352232 
L 141.505267 257.35157 
L 138.304438 256.513569 
z
" style="fill:#1f77b4;stroke:#1f77b4;stroke-linejoin:miter;"/>
   </g>
   <g id="patch_24">
    <path clip-path="url(#p3351a44700)" d="M 197.94654 176.453475 
L 197.040894 182.365529 
L 194.198075 180.985795 
L 193.898593 180.840832 
L 193.898831 180.84056 
L 191.056013 179.460826 
z
" style="fill:#1f77b4;stroke:#1f77b4;stroke-linejoin:miter;"/>
   </g>
   <g id="patch_25">
    <path clip-path="url(#p3351a44700)" d="M 95.628785 240.391167 
L 92.436132 245.845336 
L 90.261346 243.905008 
L 90.030748 243.701804 
L 90.032421 243.700763 
L 87.857635 241.760435 
z
" style="fill:#1f77b4;stroke:#1f77b4;stroke-linejoin:miter;"/>
   </g>
   <g id="patch_26">
    <path clip-path="url(#p3351a44700)" d="M 168.242145 190.786284 
L 165.612771 196.404906 
L 163.247098 194.592831 
L 162.997389 194.402587 
L 162.99808 194.402086 
L 160.632407 192.590011 
z
" style="fill:#1f77b4;stroke:#1f77b4;stroke-linejoin:miter;"/>
   </g>
   <g id="patch_27">
    <path clip-path="url(#p3351a44700)" d="M 97.643079 182.993109 
L 93.217816 187.946296 
L 91.532705 185.752127 
L 91.352912 185.522191 
L 91.355325 185.521162 
L 89.670214 183.326993 
z
" style="fill:#1f77b4;stroke:#1f77b4;stroke-linejoin:miter;"/>
   </g>
   <g id="patch_28">
    <path clip-path="url(#p3351a44700)" d="M 161.432082 155.840827 
L 156.94527 160.763173 
L 155.287581 158.557435 
L 155.111751 158.32581 
L 155.113088 158.325253 
L 153.455399 156.119516 
z
" style="fill:#1f77b4;stroke:#1f77b4;stroke-linejoin:miter;"/>
   </g>
   <g id="patch_29">
    <path clip-path="url(#p3351a44700)" d="M 80.380667 145.060008 
L 75.396057 149.708824 
L 73.972438 147.4141 
L 73.819228 147.173706 
L 73.822584 147.17255 
L 72.398965 144.877827 
z
" style="fill:#1f77b4;stroke:#1f77b4;stroke-linejoin:miter;"/>
   </g>
   <g id="patch_30">
    <path clip-path="url(#p3351a44700)" d="M 195.757253 109.380641 
L 190.063266 113.552603 
L 189.017604 111.147613 
L 188.906265 110.894763 
L 188.907534 110.894457 
L 187.861871 108.489467 
z
" style="fill:#1f77b4;stroke:#1f77b4;stroke-linejoin:miter;"/>
   </g>
   <g id="patch_31">
    <path clip-path="url(#p3351a44700)" d="M 102.424461 95.3796 
L 97.030795 99.767564 
L 95.81792 97.406574 
L 95.686769 97.159041 
L 95.690249 97.158048 
L 94.477374 94.797058 
z
" style="fill:#1f77b4;stroke:#1f77b4;stroke-linejoin:miter;"/>
   </g>
   <g id="patch_32">
    <path clip-path="url(#p3351a44700)" d="M 213.83302 70.893172 
L 207.353853 74.371386 
L 206.811156 71.875876 
L 206.752597 71.613364 
L 206.75403 71.613191 
L 206.211333 69.117681 
z
" style="fill:#1f77b4;stroke:#1f77b4;stroke-linejoin:miter;"/>
   </g>
   <g id="patch_33">
    <path clip-path="url(#p3351a44700)" d="M 113.450968 41.824574 
L 107.686788 45.942666 
L 106.681934 43.528036 
L 106.572221 43.274774 
L 106.576159 43.273864 
L 105.571305 40.859234 
z
" style="fill:#1f77b4;stroke:#1f77b4;stroke-linejoin:miter;"/>
   </g>
   <g id="patch_34">
    <path clip-path="url(#p3351a44700)" d="M 274.540493 32.048703 
L 266.555222 32.08816 
L 268.052302 29.819543 
L 268.209121 29.58046 
L 268.20989 29.580742 
L 269.70697 27.312125 
z
" style="fill:#1f77b4;stroke:#1f77b4;stroke-linejoin:miter;"/>
   </g>
   <g id="patch_35">
    <path clip-path="url(#p3351a44700)" d="M 98.608193 9.220697 
L 92.738758 13.255391 
L 91.796431 10.826803 
L 91.692515 10.57218 
L 91.697239 10.571162 
L 90.754912 8.142573 
z
" style="fill:#1f77b4;stroke:#1f77b4;stroke-linejoin:miter;"/>
   </g>
   <g id="patch_36">
    <path clip-path="url(#p3351a44700)" d="M 176.428962 9.659693 
L 170.121956 13.309388 
L 169.4591 10.830046 
L 169.386325 10.569508 
L 169.389326 10.569063 
L 168.726471 8.089721 
z
" style="fill:#1f77b4;stroke:#1f77b4;stroke-linejoin:miter;"/>
   </g>
   <g id="patch_37">
    <path clip-path="url(#p3351a44700)" d="M 263.312765 13.5232 
L 255.584499 15.021188 
L 256.28896 12.548225 
L 256.361879 12.287717 
L 256.363114 12.287913 
L 257.067576 9.814949 
z
" style="fill:#1f77b4;stroke:#1f77b4;stroke-linejoin:miter;"/>
   </g>
   <g id="patch_38">
    <path clip-path="url(#p3351a44700)" d="M 277.254256 91.361485 
L 277.074647 85.412545 
L 280.142475 86.491986 
L 280.465637 86.605242 
L 280.465404 86.605611 
L 283.533231 87.685051 
z
" style="fill:#1f77b4;stroke:#1f77b4;stroke-linejoin:miter;"/>
   </g>
   <g id="patch_39">
    <path clip-path="url(#p3351a44700)" d="M 286.327469 23.230851 
L 278.489494 22.092559 
L 280.559189 20.089424 
L 280.776398 19.878193 
L 280.777051 19.878567 
L 282.846746 17.875432 
z
" style="fill:#ff7f0e;stroke:#ff7f0e;stroke-linejoin:miter;"/>
   </g>
   <g id="patch_40">
    <path clip-path="url(#p3351a44700)" d="M 279.417562 89.344984 
L 279.183035 83.397105 
L 282.260756 84.460793 
L 282.584966 84.572376 
L 282.584727 84.57276 
L 285.662447 85.636449 
z
" style="fill:#ff7f0e;stroke:#ff7f0e;stroke-linejoin:miter;"/>
   </g>
   <g id="patch_41">
    <path clip-path="url(#p3351a44700)" d="M 302.993556 43.494823 
L 299.817189 38.035376 
L 303.20478 38.173247 
L 303.561408 38.187218 
L 303.561369 38.187759 
L 306.94896 38.32563 
z
" style="fill:#ff7f0e;stroke:#ff7f0e;stroke-linejoin:miter;"/>
   </g>
   <g id="patch_42">
    <path clip-path="url(#p3351a44700)" d="M 265.829095 108.107252 
L 266.511768 102.178591 
L 269.40542 103.498343 
L 269.710252 103.636976 
L 269.710015 103.637264 
L 272.603668 104.957017 
z
" style="fill:#ff7f0e;stroke:#ff7f0e;stroke-linejoin:miter;"/>
   </g>
   <g id="patch_43">
    <path clip-path="url(#p3351a44700)" d="M 350.342542 30.65647 
L 351.658958 24.787436 
L 354.401792 26.275311 
L 354.691409 26.43101 
L 354.690511 26.431929 
L 357.433345 27.919804 
z
" style="fill:#ff7f0e;stroke:#ff7f0e;stroke-linejoin:miter;"/>
   </g>
   <g id="patch_44">
    <path clip-path="url(#p3351a44700)" d="M 275.369297 103.843569 
L 277.02024 98.021683 
L 279.675471 99.595324 
L 279.955358 99.760606 
L 279.954969 99.760971 
L 282.6102 101.334612 
z
" style="fill:#ff7f0e;stroke:#ff7f0e;stroke-linejoin:miter;"/>
   </g>
   <g id="patch_45">
    <path clip-path="url(#p3351a44700)" d="M 357.309729 85.267133 
L 360.988019 79.985546 
L 362.982524 82.030597 
L 363.194281 82.244886 
L 363.192472 82.245866 
L 365.186978 84.290916 
z
" style="fill:#ff7f0e;stroke:#ff7f0e;stroke-linejoin:miter;"/>
   </g>
   <g id="patch_46">
    <path clip-path="url(#p3351a44700)" d="M 281.08242 125.100689 
L 285.013191 119.921074 
L 286.907724 122.018243 
L 287.107979 122.238581 
L 287.107149 122.238997 
L 289.001682 124.336166 
z
" style="fill:#ff7f0e;stroke:#ff7f0e;stroke-linejoin:miter;"/>
   </g>
   <g id="patch_47">
    <path clip-path="url(#p3351a44700)" d="M 351.127974 134.01055 
L 355.748144 129.157188 
L 357.345316 131.38758 
L 357.515792 131.621423 
L 357.51344 131.622358 
L 359.110612 133.85275 
z
" style="fill:#ff7f0e;stroke:#ff7f0e;stroke-linejoin:miter;"/>
   </g>
   <g id="patch_48">
    <path clip-path="url(#p3351a44700)" d="M 251.805201 167.103665 
L 257.487988 162.923232 
L 258.540098 165.32666 
L 258.651688 165.579448 
L 258.650847 165.579652 
L 259.702957 167.98308 
z
" style="fill:#ff7f0e;stroke:#ff7f0e;stroke-linejoin:miter;"/>
   </g>
   <g id="patch_49">
    <path clip-path="url(#p3351a44700)" d="M 361.979585 171.02984 
L 367.05841 166.437996 
L 368.435075 168.748572 
L 368.583056 168.990776 
L 368.579987 168.991791 
L 369.956652 171.302368 
z
" style="fill:#ff7f0e;stroke:#ff7f0e;stroke-linejoin:miter;"/>
   </g>
   <g id="patch_50">
    <path clip-path="url(#p3351a44700)" d="M 250.054412 199.674755 
L 256.332223 195.997217 
L 257.014824 198.473582 
L 257.087928 198.734061 
L 257.086676 198.734252 
L 257.769277 201.210618 
z
" style="fill:#ff7f0e;stroke:#ff7f0e;stroke-linejoin:miter;"/>
   </g>
   <g id="patch_51">
    <path clip-path="url(#p3351a44700)" d="M 301.717958 230.4278 
L 307.604181 226.406708 
L 308.536381 228.837466 
L 308.637185 229.092765 
L 308.634507 229.093335 
L 309.566708 231.524093 
z
" style="fill:#ff7f0e;stroke:#ff7f0e;stroke-linejoin:miter;"/>
   </g>
   <g id="patch_52">
    <path clip-path="url(#p3351a44700)" d="M 231.048668 239.38244 
L 238.012731 236.470663 
L 238.174439 238.995853 
L 238.192876 239.261613 
L 238.191461 239.261663 
L 238.353169 241.786854 
z
" style="fill:#ff7f0e;stroke:#ff7f0e;stroke-linejoin:miter;"/>
   </g>
   <g id="patch_53">
    <path clip-path="url(#p3351a44700)" d="M 392.237613 270.502499 
L 397.89389 266.30215 
L 398.961194 268.701855 
L 399.078544 268.95322 
L 399.073542 268.954456 
L 400.140845 271.354161 
z
" style="fill:#ff7f0e;stroke:#ff7f0e;stroke-linejoin:miter;"/>
   </g>
   <g id="patch_54">
    <path clip-path="url(#p3351a44700)" d="M 372.683209 275.140584 
L 378.43256 271.010998 
L 379.446094 273.423613 
L 379.557459 273.676481 
L 379.552782 273.677572 
L 380.566315 276.090187 
z
" style="fill:#ff7f0e;stroke:#ff7f0e;stroke-linejoin:miter;"/>
   </g>
   <g id="patch_55">
    <path clip-path="url(#p3351a44700)" d="M 320.431701 278.138087 
L 326.459766 274.235421 
L 327.304625 276.683842 
L 327.397243 276.940864 
L 327.393558 276.94157 
L 328.238416 279.389992 
z
" style="fill:#ff7f0e;stroke:#ff7f0e;stroke-linejoin:miter;"/>
   </g>
   <g id="patch_56">
    <path clip-path="url(#p3351a44700)" d="M 253.424521 277.452957 
L 260.085036 274.170448 
L 260.493475 276.680125 
L 260.538828 276.944088 
L 260.536469 276.944301 
L 260.944909 279.453978 
z
" style="fill:#ff7f0e;stroke:#ff7f0e;stroke-linejoin:miter;"/>
   </g>
   <g id="patch_57">
    <path clip-path="url(#p3351a44700)" d="M 163.460778 243.571848 
L 167.837461 248.548945 
L 164.467787 248.842604 
L 164.113163 248.87401 
L 164.113085 248.873515 
L 160.743411 249.167174 
z
" style="fill:#ff7f0e;stroke:#ff7f0e;stroke-linejoin:miter;"/>
   </g>
   <g id="patch_58">
    <path clip-path="url(#p3351a44700)" d="M 186.539497 191.48616 
L 186.424477 197.435988 
L 183.412176 196.272952 
L 183.094846 196.15088 
L 183.095092 196.150527 
L 180.082791 194.98749 
z
" style="fill:#ff7f0e;stroke:#ff7f0e;stroke-linejoin:miter;"/>
   </g>
   <g id="patch_59">
    <path clip-path="url(#p3351a44700)" d="M 153.58606 232.008428 
L 153.980846 237.951596 
L 150.875078 236.934183 
L 150.547804 236.827681 
L 150.548155 236.827086 
L 147.442387 235.809673 
z
" style="fill:#ff7f0e;stroke:#ff7f0e;stroke-linejoin:miter;"/>
   </g>
   <g id="patch_60">
    <path clip-path="url(#p3351a44700)" d="M 189.788838 184.516758 
L 188.913283 190.431327 
L 186.063464 189.059635 
L 185.763194 188.91558 
L 185.763483 188.915247 
L 182.913664 187.543555 
z
" style="fill:#ff7f0e;stroke:#ff7f0e;stroke-linejoin:miter;"/>
   </g>
   <g id="patch_61">
    <path clip-path="url(#p3351a44700)" d="M 95.172279 236.572004 
L 92.354728 242.139748 
L 90.050755 240.284055 
L 89.806718 240.089763 
L 89.808231 240.088719 
L 87.504257 238.233027 
z
" style="fill:#ff7f0e;stroke:#ff7f0e;stroke-linejoin:miter;"/>
   </g>
   <g id="patch_62">
    <path clip-path="url(#p3351a44700)" d="M 158.354621 193.092326 
L 155.524127 198.656423 
L 153.224472 196.797758 
L 152.981565 196.602685 
L 152.982403 196.602109 
L 150.682748 194.743444 
z
" style="fill:#ff7f0e;stroke:#ff7f0e;stroke-linejoin:miter;"/>
   </g>
   <g id="patch_63">
    <path clip-path="url(#p3351a44700)" d="M 86.697906 185.857955 
L 82.5337 190.935273 
L 80.735687 188.79144 
L 80.54404 188.566883 
L 80.546422 188.565774 
L 78.748409 186.421941 
z
" style="fill:#ff7f0e;stroke:#ff7f0e;stroke-linejoin:miter;"/>
   </g>
   <g id="patch_64">
    <path clip-path="url(#p3351a44700)" d="M 187.283812 142.816608 
L 182.538177 147.602278 
L 180.999363 145.349221 
L 180.836414 145.112424 
L 180.837383 145.112057 
L 179.298569 142.859 
z
" style="fill:#ff7f0e;stroke:#ff7f0e;stroke-linejoin:miter;"/>
   </g>
   <g id="patch_65">
    <path clip-path="url(#p3351a44700)" d="M 125.264393 127.986717 
L 120.273259 132.631645 
L 118.852863 130.335813 
L 118.700945 130.094972 
L 118.703347 130.094146 
L 117.28295 127.798314 
z
" style="fill:#ff7f0e;stroke:#ff7f0e;stroke-linejoin:miter;"/>
   </g>
   <g id="patch_66">
    <path clip-path="url(#p3351a44700)" d="M 221.783282 103.049504 
L 215.40466 106.629423 
L 214.790995 104.143059 
L 214.725554 103.881453 
L 214.726399 103.881337 
L 214.112733 101.394974 
z
" style="fill:#ff7f0e;stroke:#ff7f0e;stroke-linejoin:miter;"/>
   </g>
   <g id="patch_67">
    <path clip-path="url(#p3351a44700)" d="M 130.780023 86.219348 
L 125.311747 90.555733 
L 124.139351 88.183416 
L 124.013084 87.934482 
L 124.015941 87.933698 
L 122.843545 85.561381 
z
" style="fill:#ff7f0e;stroke:#ff7f0e;stroke-linejoin:miter;"/>
   </g>
   <g id="patch_68">
    <path clip-path="url(#p3351a44700)" d="M 260.660456 74.152785 
L 252.675515 74.219747 
L 254.158506 71.945998 
L 254.314122 71.706479 
L 254.31461 71.706656 
L 255.797601 69.432907 
z
" style="fill:#ff7f0e;stroke:#ff7f0e;stroke-linejoin:miter;"/>
   </g>
   <g id="patch_69">
    <path clip-path="url(#p3351a44700)" d="M 129.261088 37.332205 
L 123.44921 41.412902 
L 122.472488 38.991871 
L 122.366131 38.737819 
L 122.369675 38.737025 
L 121.392953 36.315994 
z
" style="fill:#ff7f0e;stroke:#ff7f0e;stroke-linejoin:miter;"/>
   </g>
   <g id="patch_70">
    <path clip-path="url(#p3351a44700)" d="M 281.232112 35.035747 
L 273.379941 33.953145 
L 275.423934 31.935408 
L 275.638494 31.722679 
L 275.639091 31.723015 
L 277.683084 29.705279 
z
" style="fill:#ff7f0e;stroke:#ff7f0e;stroke-linejoin:miter;"/>
   </g>
   <g id="patch_71">
    <path clip-path="url(#p3351a44700)" d="M 98.584052 9.16033 
L 92.779066 13.24647 
L 91.798259 10.826356 
L 91.69049 10.572626 
L 91.695016 10.571607 
L 90.714209 8.151493 
z
" style="fill:#ff7f0e;stroke:#ff7f0e;stroke-linejoin:miter;"/>
   </g>
   <g id="patch_72">
    <path clip-path="url(#p3351a44700)" d="M 176.427418 9.653996 
L 170.125762 13.308819 
L 169.459275 10.830018 
L 169.386134 10.569537 
L 169.389118 10.569091 
L 168.722632 8.09029 
z
" style="fill:#ff7f0e;stroke:#ff7f0e;stroke-linejoin:miter;"/>
   </g>
   <g id="patch_73">
    <path clip-path="url(#p3351a44700)" d="M 272.245269 15.949537 
L 264.33128 16.743798 
L 265.429899 14.351953 
L 265.544513 14.099917 
L 265.545543 14.10018 
L 266.644163 11.708335 
z
" style="fill:#ff7f0e;stroke:#ff7f0e;stroke-linejoin:miter;"/>
   </g>
   <g id="patch_74">
    <path clip-path="url(#p3351a44700)" d="M 287.984766 75.018167 
L 286.902318 69.122643 
L 290.114445 69.936286 
L 290.452765 70.021489 
L 290.452563 70.021932 
L 293.66469 70.835574 
z
" style="fill:#ff7f0e;stroke:#ff7f0e;stroke-linejoin:miter;"/>
   </g>
   <g id="matplotlib.axis_1">
    <g id="xtick_1">
     <g id="line2d_1">
      <defs>
       <path d="M 0 0 
L 0 3.5 
" id="m2387e1c465" style="stroke:#000000;stroke-width:0.8;"/>
      </defs>
      <g>
       <use style="stroke:#000000;stroke-width:0.8;" x="87.872938" xlink:href="#m2387e1c465" y="276.812"/>
      </g>
     </g>
     <g id="text_1">
      <!-- −0.4 -->
      <defs>
       <path d="M 10.59375 35.5 
L 73.1875 35.5 
L 73.1875 27.203125 
L 10.59375 27.203125 
z
" id="DejaVuSans-2212"/>
       <path d="M 31.78125 66.40625 
Q 24.171875 66.40625 20.328125 58.90625 
Q 16.5 51.421875 16.5 36.375 
Q 16.5 21.390625 20.328125 13.890625 
Q 24.171875 6.390625 31.78125 6.390625 
Q 39.453125 6.390625 43.28125 13.890625 
Q 47.125 21.390625 47.125 36.375 
Q 47.125 51.421875 43.28125 58.90625 
Q 39.453125 66.40625 31.78125 66.40625 
M 31.78125 74.21875 
Q 44.046875 74.21875 50.515625 64.515625 
Q 56.984375 54.828125 56.984375 36.375 
Q 56.984375 17.96875 50.515625 8.265625 
Q 44.046875 -1.421875 31.78125 -1.421875 
Q 19.53125 -1.421875 13.0625 8.265625 
Q 6.59375 17.96875 6.59375 36.375 
Q 6.59375 54.828125 13.0625 64.515625 
Q 19.53125 74.21875 31.78125 74.21875 
" id="DejaVuSans-30"/>
       <path d="M 10.6875 12.40625 
L 21 12.40625 
L 21 0 
L 10.6875 0 
z
" id="DejaVuSans-2e"/>
       <path d="M 37.796875 64.3125 
L 12.890625 25.390625 
L 37.796875 25.390625 
z
M 35.203125 72.90625 
L 47.609375 72.90625 
L 47.609375 25.390625 
L 58.015625 25.390625 
L 58.015625 17.1875 
L 47.609375 17.1875 
L 47.609375 0 
L 37.796875 0 
L 37.796875 17.1875 
L 4.890625 17.1875 
L 4.890625 26.703125 
z
" id="DejaVuSans-34"/>
      </defs>
      <g transform="translate(75.731531 291.410438)scale(0.1 -0.1)">
       <use xlink:href="#DejaVuSans-2212"/>
       <use x="83.789062" xlink:href="#DejaVuSans-30"/>
       <use x="147.412109" xlink:href="#DejaVuSans-2e"/>
       <use x="179.199219" xlink:href="#DejaVuSans-34"/>
      </g>
     </g>
    </g>
    <g id="xtick_2">
     <g id="line2d_2">
      <g>
       <use style="stroke:#000000;stroke-width:0.8;" x="159.296938" xlink:href="#m2387e1c465" y="276.812"/>
      </g>
     </g>
     <g id="text_2">
      <!-- −0.2 -->
      <defs>
       <path d="M 19.1875 8.296875 
L 53.609375 8.296875 
L 53.609375 0 
L 7.328125 0 
L 7.328125 8.296875 
Q 12.9375 14.109375 22.625 23.890625 
Q 32.328125 33.6875 34.8125 36.53125 
Q 39.546875 41.84375 41.421875 45.53125 
Q 43.3125 49.21875 43.3125 52.78125 
Q 43.3125 58.59375 39.234375 62.25 
Q 35.15625 65.921875 28.609375 65.921875 
Q 23.96875 65.921875 18.8125 64.3125 
Q 13.671875 62.703125 7.8125 59.421875 
L 7.8125 69.390625 
Q 13.765625 71.78125 18.9375 73 
Q 24.125 74.21875 28.421875 74.21875 
Q 39.75 74.21875 46.484375 68.546875 
Q 53.21875 62.890625 53.21875 53.421875 
Q 53.21875 48.921875 51.53125 44.890625 
Q 49.859375 40.875 45.40625 35.40625 
Q 44.1875 33.984375 37.640625 27.21875 
Q 31.109375 20.453125 19.1875 8.296875 
" id="DejaVuSans-32"/>
      </defs>
      <g transform="translate(147.155531 291.410438)scale(0.1 -0.1)">
       <use xlink:href="#DejaVuSans-2212"/>
       <use x="83.789062" xlink:href="#DejaVuSans-30"/>
       <use x="147.412109" xlink:href="#DejaVuSans-2e"/>
       <use x="179.199219" xlink:href="#DejaVuSans-32"/>
      </g>
     </g>
    </g>
    <g id="xtick_3">
     <g id="line2d_3">
      <g>
       <use style="stroke:#000000;stroke-width:0.8;" x="230.720938" xlink:href="#m2387e1c465" y="276.812"/>
      </g>
     </g>
     <g id="text_3">
      <!-- 0.0 -->
      <g transform="translate(222.769375 291.410438)scale(0.1 -0.1)">
       <use xlink:href="#DejaVuSans-30"/>
       <use x="63.623047" xlink:href="#DejaVuSans-2e"/>
       <use x="95.410156" xlink:href="#DejaVuSans-30"/>
      </g>
     </g>
    </g>
    <g id="xtick_4">
     <g id="line2d_4">
      <g>
       <use style="stroke:#000000;stroke-width:0.8;" x="302.144938" xlink:href="#m2387e1c465" y="276.812"/>
      </g>
     </g>
     <g id="text_4">
      <!-- 0.2 -->
      <g transform="translate(294.193375 291.410438)scale(0.1 -0.1)">
       <use xlink:href="#DejaVuSans-30"/>
       <use x="63.623047" xlink:href="#DejaVuSans-2e"/>
       <use x="95.410156" xlink:href="#DejaVuSans-32"/>
      </g>
     </g>
    </g>
    <g id="xtick_5">
     <g id="line2d_5">
      <g>
       <use style="stroke:#000000;stroke-width:0.8;" x="373.568938" xlink:href="#m2387e1c465" y="276.812"/>
      </g>
     </g>
     <g id="text_5">
      <!-- 0.4 -->
      <g transform="translate(365.617375 291.410438)scale(0.1 -0.1)">
       <use xlink:href="#DejaVuSans-30"/>
       <use x="63.623047" xlink:href="#DejaVuSans-2e"/>
       <use x="95.410156" xlink:href="#DejaVuSans-34"/>
      </g>
     </g>
    </g>
    <g id="text_6">
     <!-- x1 -->
     <defs>
      <path d="M 54.890625 54.6875 
L 35.109375 28.078125 
L 55.90625 0 
L 45.3125 0 
L 29.390625 21.484375 
L 13.484375 0 
L 2.875 0 
L 24.125 28.609375 
L 4.6875 54.6875 
L 15.28125 54.6875 
L 29.78125 35.203125 
L 44.28125 54.6875 
z
" id="DejaVuSans-78"/>
      <path d="M 12.40625 8.296875 
L 28.515625 8.296875 
L 28.515625 63.921875 
L 10.984375 60.40625 
L 10.984375 69.390625 
L 28.421875 72.90625 
L 38.28125 72.90625 
L 38.28125 8.296875 
L 54.390625 8.296875 
L 54.390625 0 
L 12.40625 0 
z
" id="DejaVuSans-31"/>
     </defs>
     <g transform="translate(224.580313 305.088562)scale(0.1 -0.1)">
      <use xlink:href="#DejaVuSans-78"/>
      <use x="59.179688" xlink:href="#DejaVuSans-31"/>
     </g>
    </g>
   </g>
   <g id="matplotlib.axis_2">
    <g id="ytick_1">
     <g id="line2d_6">
      <defs>
       <path d="M 0 0 
L -3.5 0 
" id="mac877f4eac" style="stroke:#000000;stroke-width:0.8;"/>
      </defs>
      <g>
       <use style="stroke:#000000;stroke-width:0.8;" x="52.160938" xlink:href="#mac877f4eac" y="250.2008"/>
      </g>
     </g>
     <g id="text_7">
      <!-- −0.4 -->
      <g transform="translate(20.878125 254.000019)scale(0.1 -0.1)">
       <use xlink:href="#DejaVuSans-2212"/>
       <use x="83.789062" xlink:href="#DejaVuSans-30"/>
       <use x="147.412109" xlink:href="#DejaVuSans-2e"/>
       <use x="179.199219" xlink:href="#DejaVuSans-34"/>
      </g>
     </g>
    </g>
    <g id="ytick_2">
     <g id="line2d_7">
      <g>
       <use style="stroke:#000000;stroke-width:0.8;" x="52.160938" xlink:href="#mac877f4eac" y="196.9784"/>
      </g>
     </g>
     <g id="text_8">
      <!-- −0.2 -->
      <g transform="translate(20.878125 200.777619)scale(0.1 -0.1)">
       <use xlink:href="#DejaVuSans-2212"/>
       <use x="83.789062" xlink:href="#DejaVuSans-30"/>
       <use x="147.412109" xlink:href="#DejaVuSans-2e"/>
       <use x="179.199219" xlink:href="#DejaVuSans-32"/>
      </g>
     </g>
    </g>
    <g id="ytick_3">
     <g id="line2d_8">
      <g>
       <use style="stroke:#000000;stroke-width:0.8;" x="52.160938" xlink:href="#mac877f4eac" y="143.756"/>
      </g>
     </g>
     <g id="text_9">
      <!-- 0.0 -->
      <g transform="translate(29.257812 147.555219)scale(0.1 -0.1)">
       <use xlink:href="#DejaVuSans-30"/>
       <use x="63.623047" xlink:href="#DejaVuSans-2e"/>
       <use x="95.410156" xlink:href="#DejaVuSans-30"/>
      </g>
     </g>
    </g>
    <g id="ytick_4">
     <g id="line2d_9">
      <g>
       <use style="stroke:#000000;stroke-width:0.8;" x="52.160938" xlink:href="#mac877f4eac" y="90.5336"/>
      </g>
     </g>
     <g id="text_10">
      <!-- 0.2 -->
      <g transform="translate(29.257812 94.332819)scale(0.1 -0.1)">
       <use xlink:href="#DejaVuSans-30"/>
       <use x="63.623047" xlink:href="#DejaVuSans-2e"/>
       <use x="95.410156" xlink:href="#DejaVuSans-32"/>
      </g>
     </g>
    </g>
    <g id="ytick_5">
     <g id="line2d_10">
      <g>
       <use style="stroke:#000000;stroke-width:0.8;" x="52.160938" xlink:href="#mac877f4eac" y="37.3112"/>
      </g>
     </g>
     <g id="text_11">
      <!-- 0.4 -->
      <g transform="translate(29.257812 41.110419)scale(0.1 -0.1)">
       <use xlink:href="#DejaVuSans-30"/>
       <use x="63.623047" xlink:href="#DejaVuSans-2e"/>
       <use x="95.410156" xlink:href="#DejaVuSans-34"/>
      </g>
     </g>
    </g>
    <g id="text_12">
     <!-- x2 -->
     <g transform="translate(14.798438 149.896625)rotate(-90)scale(0.1 -0.1)">
      <use xlink:href="#DejaVuSans-78"/>
      <use x="59.179688" xlink:href="#DejaVuSans-32"/>
     </g>
    </g>
   </g>
   <g id="line2d_11">
    <path clip-path="url(#p3351a44700)" d="M 230.720938 10.7 
L 237.583241 10.803654 
L 243.907086 11.103742 
L 249.723496 11.584678 
L 255.061695 12.231777 
L 259.949339 13.031198 
L 264.412639 13.969922 
L 268.476585 15.03568 
L 272.165024 16.216924 
L 275.500717 17.502797 
L 278.505372 18.883108 
L 281.199695 20.3483 
L 283.603423 21.889415 
L 285.735335 23.498079 
L 287.613288 25.16646 
L 289.254258 26.887244 
L 290.674344 28.653608 
L 291.888805 30.459202 
L 293.139638 32.762391 
L 294.118141 35.107032 
L 294.848919 37.483442 
L 295.354799 39.882819 
L 295.656936 42.297185 
L 295.777993 45.20409 
L 295.664727 48.11106 
L 295.34525 51.008258 
L 294.745726 54.364506 
L 293.936347 57.683862 
L 292.795499 61.419366 
L 291.286877 65.532982 
L 289.391248 69.976756 
L 287.108082 74.693461 
L 284.455576 79.617978 
L 281.469239 84.679329 
L 277.965477 90.156074 
L 274.016343 95.890056 
L 269.729528 101.714302 
L 265.032716 107.719747 
L 259.944055 113.865816 
L 254.438905 120.160865 
L 248.732198 126.348364 
L 242.892869 132.354917 
L 237.1085 137.987557 
L 232.027356 142.635949 
L 230.720937 143.756 
L 230.720937 143.756 
" style="fill:none;stroke:#1f77b4;stroke-linecap:square;stroke-width:0.5;"/>
   </g>
   <g id="line2d_12">
    <path clip-path="url(#p3351a44700)" d="M 292.020663 10.7 
L 294.050504 12.558021 
L 295.820151 14.472604 
L 297.34723 16.436333 
L 298.648692 18.442237 
L 299.740775 20.483722 
L 300.63857 22.554793 
L 301.509158 25.176835 
L 302.124386 27.826479 
L 302.508461 30.49463 
L 302.683695 33.173106 
L 302.647156 36.390571 
L 302.371797 39.601035 
L 301.887134 42.794448 
L 301.092615 46.486848 
L 300.087155 50.132132 
L 298.722354 54.227614 
L 296.963665 58.730307 
L 295.019742 63.108556 
L 292.697413 67.814218 
L 290.005056 72.784741 
L 286.71179 78.368869 
L 283.110965 84.022341 
L 279.015641 90.023837 
L 274.526103 96.198639 
L 269.542914 102.659451 
L 264.273102 109.123896 
L 258.583248 115.745935 
L 252.573935 122.388495 
L 246.483451 128.787389 
L 240.412815 134.846075 
L 234.678185 140.26096 
L 230.720937 143.756 
L 230.720938 143.756 
" style="fill:none;stroke:#1f77b4;stroke-linecap:square;stroke-width:0.5;"/>
   </g>
   <g id="line2d_13">
    <path clip-path="url(#p3351a44700)" d="M 369.699764 10.7 
L 359.453107 19.670603 
L 349.287397 28.877198 
L 338.467671 38.985477 
L 326.642354 50.352201 
L 313.17723 63.615361 
L 293.366404 83.487845 
L 268.749542 108.130151 
L 255.891541 120.679567 
L 245.335519 130.677858 
L 236.65942 138.599216 
L 230.720937 143.756 
L 230.720937 143.756 
" style="fill:none;stroke:#1f77b4;stroke-linecap:square;stroke-width:0.5;"/>
   </g>
   <g id="line2d_14">
    <path clip-path="url(#p3351a44700)" d="M 409.280938 56.826177 
L 393.195069 64.442707 
L 374.499234 73.55676 
L 354.645423 83.509159 
L 333.338887 94.44571 
L 302.579262 110.521478 
L 270.665927 127.14557 
L 256.332027 134.365263 
L 246.532845 139.06995 
L 239.667497 142.137292 
L 235.078209 143.960689 
L 232.305587 144.842965 
L 230.837542 145.100725 
L 230.229458 145.016994 
L 230.061038 144.806961 
L 230.119716 144.498885 
L 230.471721 144.001242 
L 230.720938 143.756 
L 230.720937 143.756 
" style="fill:none;stroke:#1f77b4;stroke-linecap:square;stroke-width:0.5;"/>
   </g>
   <g id="line2d_15">
    <path clip-path="url(#p3351a44700)" d="M 409.280938 110.061645 
L 371.551028 124.271038 
L 333.214197 138.664167 
L 312.513266 146.19031 
L 296.749059 151.681584 
L 283.381616 156.090107 
L 273.08735 159.268107 
L 263.301469 162.050461 
L 255.015287 164.160894 
L 248.021 165.703188 
L 242.142203 166.766856 
L 237.227196 167.429244 
L 233.144663 167.75716 
L 229.780285 167.808281 
L 227.034299 167.632321 
L 224.819546 167.272034 
L 223.059854 166.764106 
L 221.688699 166.139918 
L 220.648088 165.426211 
L 219.887521 164.645685 
L 219.322115 163.732749 
L 218.992179 162.783436 
L 218.850476 161.726799 
L 218.912362 160.4898 
L 219.20825 159.097524 
L 219.776199 157.50552 
L 220.695951 155.628007 
L 221.982828 153.529463 
L 223.690791 151.182217 
L 225.831895 148.624497 
L 228.353224 145.962346 
L 230.720938 143.756 
L 230.720937 143.756 
" style="fill:none;stroke:#1f77b4;stroke-linecap:square;stroke-width:0.5;"/>
   </g>
   <g id="line2d_16">
    <path clip-path="url(#p3351a44700)" d="M 409.280938 154.781334 
L 365.355935 168.699877 
L 341.526054 175.997204 
L 323.441394 181.295176 
L 307.522606 185.707748 
L 295.372563 188.865128 
L 284.441936 191.507048 
L 274.605442 193.685146 
L 265.756667 195.445903 
L 257.803625 196.831376 
L 250.66558 197.879772 
L 244.270751 198.625895 
L 238.554647 199.101507 
L 233.458839 199.335628 
L 228.930059 199.35478 
L 224.919501 199.183211 
L 221.382303 198.843075 
L 218.277147 198.354597 
L 215.565923 197.73623 
L 213.213454 197.004788 
L 211.187264 196.175577 
L 209.457384 195.262508 
L 207.776949 194.108045 
L 206.422135 192.874585 
L 205.35647 191.578144 
L 204.546876 190.23293 
L 203.963405 188.851509 
L 203.538853 187.242556 
L 203.338138 185.615137 
L 203.339983 183.77754 
L 203.577816 181.744674 
L 204.071288 179.538555 
L 204.825522 177.187817 
L 205.915277 174.541527 
L 207.347087 171.667854 
L 209.192749 168.487981 
L 211.396901 165.139227 
L 214.046932 161.520052 
L 217.125252 157.693049 
L 220.658482 153.66033 
L 224.511914 149.603181 
L 228.411777 145.816278 
L 230.720938 143.756 
L 230.720937 143.756 
" style="fill:none;stroke:#1f77b4;stroke-linecap:square;stroke-width:0.5;"/>
   </g>
   <g id="line2d_17">
    <path clip-path="url(#p3351a44700)" d="M 409.280938 202.119773 
L 378.236574 210.602737 
L 355.131906 216.670798 
L 337.915421 220.980057 
L 322.294886 224.67824 
L 308.083877 227.821237 
L 295.132883 230.458664 
L 283.319228 232.635095 
L 272.539992 234.390948 
L 262.70762 235.76307 
L 253.74593 236.785284 
L 245.587486 237.488772 
L 238.172119 237.902309 
L 231.445211 238.052552 
L 225.356779 237.964207 
L 219.860716 237.660191 
L 214.914206 237.161768 
L 210.477333 236.488662 
L 206.512771 235.659155 
L 202.985526 234.690187 
L 199.862762 233.597434 
L 197.113668 232.395389 
L 194.709351 231.097428 
L 192.622729 229.715888 
L 190.828433 228.262125 
L 189.30273 226.74658 
L 188.023422 225.178843 
L 186.969808 223.567697 
L 186.122556 221.921194 
L 185.353019 219.90902 
L 184.826093 217.867974 
L 184.515548 215.808297 
L 184.394839 213.393936 
L 184.501636 210.979359 
L 184.862791 208.233668 
L 185.439901 205.516132 
L 186.302634 202.507145 
L 187.47445 199.239667 
L 188.962877 195.754604 
L 190.759174 192.099811 
L 193.003217 188.046873 
L 195.669917 183.708257 
L 198.69691 179.21009 
L 202.151695 174.470861 
L 206.036616 169.515151 
L 210.388688 164.326454 
L 215.153218 159.00026 
L 220.115025 153.787756 
L 225.151051 148.817842 
L 229.681068 144.648288 
L 230.720938 143.756 
L 230.720938 143.756 
" style="fill:none;stroke:#1f77b4;stroke-linecap:square;stroke-width:0.5;"/>
   </g>
   <g id="line2d_18">
    <path clip-path="url(#p3351a44700)" d="M 409.280938 266.242677 
L 403.687753 267.55223 
L 398.226277 268.820721 
L 392.891426 270.049034 
L 387.678693 271.238012 
L 382.583421 272.38855 
L 377.60125 273.501519 
L 372.727946 274.577771 
L 367.959668 275.618112 
L 363.292887 276.623305 
L 358.724284 277.594093 
" style="fill:none;stroke:#1f77b4;stroke-linecap:square;stroke-width:0.5;"/>
   </g>
   <g id="line2d_19">
    <path clip-path="url(#p3351a44700)" d="M 327.352777 276.812 
L 323.600847 277.517976 
" style="fill:none;stroke:#1f77b4;stroke-linecap:square;stroke-width:0.5;"/>
   </g>
   <g id="line2d_20">
    <path clip-path="url(#p3351a44700)" d="M 260.517332 276.812 
L 258.156226 277.025198 
" style="fill:none;stroke:#1f77b4;stroke-linecap:square;stroke-width:0.5;"/>
   </g>
   <g id="line2d_21">
    <path clip-path="url(#p3351a44700)" d="M 200.924543 276.812 
L 196.385634 275.855236 
L 192.25314 274.769263 
L 188.502858 273.565821 
L 185.111558 272.255998 
L 182.057143 270.850179 
L 179.318561 269.358079 
L 176.875814 267.788759 
L 174.709604 266.150849 
L 172.801758 264.452303 
L 171.135043 262.700529 
L 169.693068 260.902458 
L 168.460279 259.06456 
L 167.191118 256.72031 
L 166.198881 254.334053 
L 165.458523 251.91561 
L 164.946767 249.473942 
L 164.64216 247.01708 
L 164.522091 244.059104 
L 164.640084 241.101189 
L 164.967512 238.153341 
L 165.579802 234.738546 
L 166.405128 231.361391 
L 167.567409 227.560939 
L 169.10338 223.375903 
L 170.830705 219.300593 
L 172.92018 214.914758 
L 175.366366 210.276359 
L 178.382286 205.05936 
L 181.700922 199.772044 
L 185.494347 194.154117 
L 189.669576 188.369464 
L 194.318492 182.312981 
L 199.441968 176.0163 
L 204.918211 169.650108 
L 210.634599 163.350029 
L 216.562509 157.151549 
L 222.430272 151.336585 
L 227.866203 146.254765 
L 230.720938 143.756 
L 230.720937 143.756 
" style="fill:none;stroke:#1f77b4;stroke-linecap:square;stroke-width:0.5;"/>
   </g>
   <g id="line2d_22">
    <path clip-path="url(#p3351a44700)" d="M 134.089098 276.812 
L 135.724719 271.813422 
L 137.556846 266.905338 
L 139.846147 261.418827 
L 142.616384 255.416191 
L 145.539978 249.604825 
L 148.912702 243.382547 
L 152.714356 236.832316 
L 156.907612 230.044396 
L 161.439745 223.113902 
L 166.584064 215.658773 
L 172.227553 207.894071 
L 178.22458 200.041294 
L 184.40563 192.316504 
L 190.845292 184.619495 
L 197.496144 177.00953 
L 204.361603 169.488722 
L 211.312092 162.204586 
L 218.125952 155.382929 
L 224.550756 149.258578 
L 229.910887 144.44016 
L 230.720938 143.756 
L 230.720938 143.756 
" style="fill:none;stroke:#1f77b4;stroke-linecap:square;stroke-width:0.5;"/>
   </g>
   <g id="line2d_23">
    <path clip-path="url(#p3351a44700)" d="M 52.160938 266.242677 
L 65.60243 258.565556 
L 77.621525 251.456725 
L 90.14521 243.803927 
L 102.814117 235.809284 
L 116.630304 226.805476 
L 129.728416 218.003977 
L 143.868225 208.227697 
L 158.804147 197.615716 
L 174.457977 186.216467 
L 192.257449 172.972659 
L 214.842753 155.870645 
L 230.720938 143.756 
L 230.720937 143.756 
" style="fill:none;stroke:#1f77b4;stroke-linecap:square;stroke-width:0.5;"/>
   </g>
   <g id="line2d_24">
    <path clip-path="url(#p3351a44700)" d="M 52.160938 202.119773 
L 75.954635 192.204235 
L 105.270619 179.725413 
L 153.841195 159.009709 
L 171.049529 151.919563 
L 184.912207 146.443446 
L 196.094305 142.268731 
L 205.101022 139.14323 
L 212.329718 136.861505 
L 218.100385 135.25535 
L 222.961576 134.127861 
L 226.712531 133.479463 
L 229.568909 133.198512 
L 231.707295 133.195218 
L 233.272305 133.397681 
L 234.382164 133.748642 
L 235.133293 134.202803 
L 235.627151 134.76107 
L 235.8876 135.401549 
L 235.943173 136.139449 
L 235.783532 137.023635 
L 235.353998 138.110689 
L 234.577034 139.441574 
L 233.390117 141.014662 
L 231.782023 142.766313 
L 230.720937 143.756 
L 230.720938 143.756 
" style="fill:none;stroke:#1f77b4;stroke-linecap:square;stroke-width:0.5;"/>
   </g>
   <g id="line2d_25">
    <path clip-path="url(#p3351a44700)" d="M 52.160938 154.781334 
L 115.25253 133.190526 
L 136.591875 126.181713 
L 152.88797 121.067489 
L 167.072438 116.860123 
L 179.441093 113.442923 
L 190.230584 110.714907 
L 199.63481 108.587919 
L 207.817234 106.984378 
L 214.918037 105.835731 
L 221.059336 105.081218 
L 226.348736 104.666906 
L 230.881704 104.544917 
L 234.743479 104.672744 
L 238.010381 105.012692 
L 240.75088 105.53138 
L 243.026458 106.19929 
L 244.892304 106.99038 
L 246.397917 107.881733 
L 247.587664 108.853225 
L 248.501276 109.887227 
L 249.17428 110.968351 
L 249.683138 112.224349 
L 249.967439 113.50673 
L 250.062397 114.945767 
L 249.946099 116.527803 
L 249.572796 118.373901 
L 248.904238 120.4457 
L 247.934 122.689571 
L 246.618683 125.158534 
L 244.931957 127.851665 
L 242.76171 130.882036 
L 240.193514 134.079693 
L 237.164275 137.487784 
L 233.863042 140.86374 
L 230.813802 143.67862 
L 230.720937 143.756 
L 230.720937 143.756 
" style="fill:none;stroke:#1f77b4;stroke-linecap:square;stroke-width:0.5;"/>
   </g>
   <g id="line2d_26">
    <path clip-path="url(#p3351a44700)" d="M 52.160938 110.061645 
L 84.869444 100.42089 
L 109.260844 93.464387 
L 127.636187 88.452639 
L 144.035791 84.217155 
L 158.718014 80.675675 
L 171.887096 77.756133 
L 183.70829 75.394692 
L 194.318689 73.53424 
L 203.834624 72.12331 
L 212.356755 71.115268 
L 219.973696 70.467703 
L 226.764544 70.141943 
L 232.800698 70.102676 
L 238.147159 70.317636 
L 242.863477 70.757333 
L 247.004424 71.394837 
L 250.620522 72.205572 
L 253.758451 73.167126 
L 256.46137 74.259097 
L 258.769163 75.462936 
L 260.718662 76.761815 
L 262.343853 78.140485 
L 263.676059 79.585162 
L 264.744112 81.083406 
L 265.574553 82.623997 
L 266.1917 84.196879 
L 266.67186 86.060691 
L 266.924273 87.943467 
L 266.970954 90.104252 
L 266.796619 92.261045 
L 266.378674 94.667641 
L 265.688378 97.300342 
L 264.711908 100.127907 
L 263.450911 103.112288 
L 261.798983 106.441978 
L 259.76505 110.027159 
L 257.26141 113.962528 
L 254.371762 118.075687 
L 250.987163 122.489586 
L 247.242349 127.002766 
L 243.044367 131.706093 
L 238.572938 136.375435 
L 234.112906 140.713612 
L 230.720937 143.756 
L 230.720938 143.756 
" style="fill:none;stroke:#1f77b4;stroke-linecap:square;stroke-width:0.5;"/>
   </g>
   <g id="line2d_27">
    <path clip-path="url(#p3351a44700)" d="M 52.160938 56.826177 
L 81.190313 49.506586 
L 102.605533 44.341482 
L 121.910995 39.933921 
L 139.392544 36.210875 
L 152.214395 33.682244 
L 164.101869 31.521651 
L 175.131498 29.702418 
L 185.368624 28.199974 
L 194.869851 26.991562 
L 203.684909 26.056003 
L 211.858067 25.373517 
L 219.42922 24.925577 
L 226.434729 24.69479 
L 232.908074 24.664794 
L 238.880307 24.820201 
L 244.380466 25.146512 
L 249.435857 25.630065 
L 254.072257 26.257997 
L 258.314106 27.018183 
L 262.184622 27.899211 
L 265.705887 28.890346 
L 268.89893 29.981496 
L 271.783788 31.163178 
L 274.379551 32.42649 
L 276.704397 33.763087 
L 278.775621 35.165153 
L 280.609651 36.625383 
L 282.592342 38.522098 
L 284.257504 40.48669 
L 285.632012 42.50783 
L 286.740944 44.575158 
L 287.607654 46.679219 
L 288.253868 48.811396 
L 288.699737 50.963857 
L 288.996559 53.563627 
L 289.061374 56.171383 
L 288.921193 58.777372 
L 288.531109 61.804021 
L 287.930303 64.80468 
L 287.025504 68.189221 
L 285.778136 71.924683 
L 284.166048 75.968592 
L 282.185217 80.269474 
L 279.849939 84.768089 
L 277.191579 89.399322 
L 274.045449 94.41814 
L 270.474595 99.679813 
L 266.577134 105.030597 
L 262.100716 110.787867 
L 257.288395 116.608524 
L 252.136346 122.491312 
L 246.630571 128.435749 
L 241.055868 134.128501 
L 235.588545 139.397266 
L 231.038974 143.490052 
L 230.720937 143.756 
L 230.720938 143.756 
" style="fill:none;stroke:#1f77b4;stroke-linecap:square;stroke-width:0.5;"/>
   </g>
   <g id="line2d_28">
    <path clip-path="url(#p3351a44700)" d="M 91.742111 10.7 
L 96.466484 9.68213 
" style="fill:none;stroke:#1f77b4;stroke-linecap:square;stroke-width:0.5;"/>
   </g>
   <g id="line2d_29">
    <path clip-path="url(#p3351a44700)" d="M 169.421212 10.7 
L 172.422401 10.254471 
" style="fill:none;stroke:#1f77b4;stroke-linecap:square;stroke-width:0.5;"/>
   </g>
   <g id="line2d_30">
    <path clip-path="url(#p3351a44700)" d="M 230.720937 10.7 
L 237.583241 10.803654 
L 243.907086 11.103742 
L 249.723496 11.584678 
L 255.061695 12.231777 
L 259.949339 13.031198 
L 264.412639 13.969922 
L 268.476585 15.03568 
L 272.165024 16.216924 
L 275.500717 17.502797 
L 278.505372 18.883108 
L 281.199695 20.3483 
L 283.603423 21.889415 
L 285.735335 23.498079 
L 287.613288 25.16646 
L 289.254258 26.887244 
L 290.674344 28.653608 
L 291.888805 30.459202 
L 293.139638 32.762391 
L 294.118141 35.107032 
L 294.848919 37.483442 
L 295.354799 39.882819 
L 295.656936 42.297185 
L 295.777993 45.20409 
L 295.664727 48.11106 
L 295.34525 51.008258 
L 294.745726 54.364506 
L 293.936347 57.683862 
L 292.795499 61.419366 
L 291.286877 65.532982 
L 289.391248 69.976756 
L 287.108082 74.693461 
L 284.455576 79.617978 
L 281.469239 84.679329 
L 277.965477 90.156074 
L 274.016343 95.890056 
L 269.729528 101.714302 
L 265.032716 107.719747 
L 259.944055 113.865816 
L 254.438905 120.160865 
L 248.732198 126.348364 
L 242.892869 132.354917 
L 237.1085 137.987557 
L 232.027356 142.635949 
L 230.720937 143.756 
L 230.720937 143.756 
" style="fill:none;stroke:#1f77b4;stroke-linecap:square;stroke-width:0.5;"/>
   </g>
   <g id="line2d_31">
    <path clip-path="url(#p3351a44700)" d="M 230.720938 143.756 
" style="fill:none;stroke:#1f77b4;stroke-linecap:square;stroke-width:1.5;"/>
   </g>
   <g id="line2d_32">
    <path clip-path="url(#p3351a44700)" d="M 230.720938 10.7 
L 237.58327 10.803654 
L 243.907456 11.103745 
L 249.725151 11.584707 
L 255.066358 12.231893 
L 259.959505 13.031521 
L 264.431486 13.970661 
L 268.507787 15.037154 
L 272.212569 16.219563 
L 275.568709 17.507156 
L 278.597829 18.889876 
L 281.320466 20.358256 
L 283.755988 21.903459 
L 285.922732 23.517197 
L 287.838038 25.191717 
L 289.518278 26.91978 
L 290.978937 28.694614 
L 292.234646 30.509898 
L 293.537063 32.826934 
L 294.566122 35.187329 
L 295.345395 37.58134 
L 295.8968 40.000072 
L 296.240707 42.435422 
L 296.406047 45.369446 
L 296.329913 48.305366 
L 296.039882 51.233003 
L 295.464619 54.626178 
L 294.668594 57.983439 
L 293.530047 61.762733 
L 292.188576 65.467901 
L 290.483903 69.534078 
L 288.401749 73.910881 
L 285.945851 78.539184 
L 283.138244 83.352596 
L 279.776529 88.646031 
L 276.158384 93.926776 
L 272.128868 99.426237 
L 267.583746 105.255529 
L 262.51317 111.387781 
L 257.036943 117.652982 
L 251.269614 123.913657 
L 245.241834 130.13233 
L 239.107427 136.142213 
L 233.44377 141.387178 
L 230.720937 143.756 
L 230.720937 143.756 
" style="fill:none;stroke:#ff7f0e;stroke-linecap:square;stroke-width:0.5;"/>
   </g>
   <g id="line2d_33">
    <path clip-path="url(#p3351a44700)" d="M 292.020663 10.7 
L 294.123561 12.559107 
L 295.967405 14.47697 
L 297.569048 16.446198 
L 298.944654 18.459821 
L 300.109697 20.511221 
L 301.078549 22.594355 
L 302.034256 25.234389 
L 302.729388 27.905104 
L 303.187198 30.597169 
L 303.429125 33.30218 
L 303.475053 36.012517 
L 303.29736 39.262261 
L 302.893584 42.498926 
L 302.172679 46.245837 
L 301.219416 49.948904 
L 299.889737 54.11305 
L 298.347691 58.191446 
L 296.409425 62.662931 
L 294.061594 67.471397 
L 291.310023 72.551488 
L 288.180137 77.830136 
L 284.715747 83.228809 
L 280.710526 89.039901 
L 276.256974 95.08901 
L 271.484348 101.195177 
L 266.097186 107.713186 
L 260.4044 114.246131 
L 254.248956 120.963181 
L 247.874383 127.585855 
L 241.382285 134.007112 
L 235.229619 139.783509 
L 230.720937 143.756 
L 230.720937 143.756 
" style="fill:none;stroke:#ff7f0e;stroke-linecap:square;stroke-width:0.5;"/>
   </g>
   <g id="line2d_34">
    <path clip-path="url(#p3351a44700)" d="M 369.699764 10.7 
L 352.756303 28.184787 
L 336.048555 45.100135 
L 319.353692 61.684538 
L 302.81419 77.800979 
L 286.44556 93.43696 
L 270.914178 107.968667 
L 256.185242 121.446885 
L 243.124748 133.102269 
L 232.97092 141.882634 
L 230.720937 143.756 
L 230.720938 143.756 
" style="fill:none;stroke:#ff7f0e;stroke-linecap:square;stroke-width:0.5;"/>
   </g>
   <g id="line2d_35">
    <path clip-path="url(#p3351a44700)" d="M 409.280938 56.826177 
L 376.416433 74.89042 
L 347.610556 90.485413 
L 322.825003 103.665651 
L 301.893787 114.56104 
L 283.753428 123.757004 
L 269.249343 130.867711 
L 257.45291 136.40714 
L 248.564124 140.348457 
L 241.818592 143.111004 
L 236.94305 144.882028 
L 233.611702 145.870881 
L 231.48885 146.283687 
L 230.28606 146.30865 
L 229.698753 146.119883 
L 229.47596 145.835563 
L 229.471939 145.458816 
L 229.712679 144.914444 
L 230.315952 144.147719 
L 230.720938 143.756 
L 230.720938 143.756 
" style="fill:none;stroke:#ff7f0e;stroke-linecap:square;stroke-width:0.5;"/>
   </g>
   <g id="line2d_36">
    <path clip-path="url(#p3351a44700)" d="M 409.280938 110.061645 
L 385.7052 119.990059 
L 364.699416 128.590821 
L 346.007481 136.009565 
L 329.397712 142.377242 
L 314.660503 147.811575 
L 300.083874 152.940971 
L 287.394621 157.157362 
L 276.375842 160.57991 
L 266.833925 163.314067 
L 258.596314 165.452952 
L 251.509289 167.078708 
L 245.435689 168.263897 
L 240.253578 169.072306 
L 235.854514 169.559996 
L 231.768146 169.785395 
L 228.413029 169.734215 
L 225.686993 169.457055 
L 223.500691 168.997389 
L 221.77609 168.392459 
L 220.445115 167.674076 
L 219.448459 166.869315 
L 218.734547 166.001121 
L 218.258593 165.088855 
L 217.963708 164.05377 
L 217.86495 162.907056 
L 217.981174 161.570045 
L 218.342358 160.070615 
L 218.989272 158.361603 
L 219.961755 156.432172 
L 221.313551 154.252068 
L 223.116308 151.782931 
L 225.363917 149.096046 
L 227.98443 146.316548 
L 230.589272 143.867004 
L 230.720938 143.756 
L 230.720937 143.756 
" style="fill:none;stroke:#ff7f0e;stroke-linecap:square;stroke-width:0.5;"/>
   </g>
   <g id="line2d_37">
    <path clip-path="url(#p3351a44700)" d="M 409.280938 154.781334 
L 387.956625 162.280732 
L 368.5106 168.869166 
L 350.796191 174.627436 
L 334.6777 179.629867 
L 320.029265 183.945 
L 306.734331 187.635919 
L 294.684975 190.760669 
L 283.78123 193.372663 
L 273.930542 195.521018 
L 265.047225 197.250884 
L 257.052001 198.603726 
L 249.871563 199.617588 
L 243.438184 200.327328 
L 237.689178 200.764946 
L 232.566623 200.959748 
L 228.017059 200.938526 
L 223.991135 200.725772 
L 220.443283 200.343872 
L 217.331469 199.813251 
L 214.616942 199.152524 
L 212.26399 198.37864 
L 210.239709 197.507017 
L 208.513798 196.551664 
L 207.058368 195.525291 
L 205.668117 194.253392 
L 204.573995 192.916854 
L 203.742318 191.530229 
L 203.142602 190.106399 
L 202.706012 188.448126 
L 202.499574 186.77086 
L 202.501727 184.877001 
L 202.74727 182.78192 
L 203.256881 180.508339 
L 204.036233 178.08585 
L 205.162947 175.359092 
L 206.644062 172.398608 
L 208.451053 169.289264 
L 210.731086 165.825069 
L 213.377872 162.210454 
L 216.49163 158.335555 
L 220.044575 154.272582 
L 223.931579 150.165553 
L 227.933575 146.256366 
L 230.720938 143.756 
L 230.720938 143.756 
" style="fill:none;stroke:#ff7f0e;stroke-linecap:square;stroke-width:0.5;"/>
   </g>
   <g id="line2d_38">
    <path clip-path="url(#p3351a44700)" d="M 409.280938 202.119773 
L 388.354436 208.377698 
L 369.044684 213.886231 
L 351.243531 218.703723 
L 334.849738 222.884485 
L 319.768379 226.479163 
L 305.910285 229.535063 
L 293.192091 232.096142 
L 281.535611 234.203374 
L 270.86752 235.894944 
L 261.119123 237.206392 
L 252.226096 238.170767 
L 244.128204 238.818794 
L 236.76905 239.179034 
L 230.095845 239.278011 
L 224.05917 239.140361 
L 218.612793 238.78894 
L 213.71348 238.244935 
L 209.320851 237.527952 
L 205.397165 236.656138 
L 201.90712 235.646309 
L 198.817729 234.514012 
L 196.098211 233.273597 
L 193.719842 231.938299 
L 191.655821 230.52032 
L 189.881143 229.0309 
L 188.372494 227.480382 
L 187.108142 225.878271 
L 186.067838 224.233292 
L 185.232739 222.553434 
L 184.476883 220.501818 
L 183.963331 218.421923 
L 183.666426 216.324001 
L 183.562626 213.865797 
L 183.687927 211.408294 
L 184.072673 208.614799 
L 184.676274 205.850954 
L 185.572361 202.791871 
L 186.785409 199.471505 
L 188.323547 195.931987 
L 190.177979 192.222613 
L 192.492839 188.112734 
L 195.241244 183.718162 
L 198.357113 179.168526 
L 201.906856 174.383711 
L 205.888062 169.391655 
L 210.33146 164.179784 
L 215.171481 158.848861 
L 220.333932 153.498666 
L 225.514493 148.449873 
L 230.063685 144.313271 
L 230.720938 143.756 
L 230.720937 143.756 
" style="fill:none;stroke:#ff7f0e;stroke-linecap:square;stroke-width:0.5;"/>
   </g>
   <g id="line2d_39">
    <path clip-path="url(#p3351a44700)" d="M 409.280938 266.242677 
L 404.109289 267.553784 
L 399.02237 268.82692 
L 394.019606 270.062414 
L 389.099718 271.260948 
L 384.261584 272.423118 
L 379.504116 273.549501 
L 374.826169 274.640705 
L 370.226607 275.697331 
L 365.704327 276.719963 
L 361.258232 277.70918 
" style="fill:none;stroke:#ff7f0e;stroke-linecap:square;stroke-width:0.5;"/>
   </g>
   <g id="line2d_40">
    <path clip-path="url(#p3351a44700)" d="M 327.352777 276.812 
L 323.666912 277.518217 
" style="fill:none;stroke:#ff7f0e;stroke-linecap:square;stroke-width:0.5;"/>
   </g>
   <g id="line2d_41">
    <path clip-path="url(#p3351a44700)" d="M 260.517332 276.812 
L 258.158059 277.025201 
" style="fill:none;stroke:#ff7f0e;stroke-linecap:square;stroke-width:0.5;"/>
   </g>
   <g id="line2d_42">
    <path clip-path="url(#p3351a44700)" d="M 200.924543 276.812 
L 196.37559 275.855093 
L 192.229243 274.768618 
L 188.460976 273.56419 
L 185.047326 272.252826 
L 181.966353 270.844723 
L 179.197333 269.349423 
L 176.720336 267.776037 
L 174.516731 266.132982 
L 172.56896 264.4281 
L 170.860351 262.668764 
L 169.375124 260.861878 
L 168.09838 259.013878 
L 166.774268 256.655173 
L 165.728293 254.252372 
L 164.936485 251.815382 
L 164.376533 249.353257 
L 164.027689 246.874254 
L 163.86068 243.887709 
L 163.939286 240.899308 
L 164.235484 237.919386 
L 164.822032 234.465662 
L 165.633157 231.048537 
L 166.792907 227.201898 
L 168.15906 223.430755 
L 169.894846 219.292224 
L 172.01478 214.837586 
L 174.515032 210.127025 
L 177.373141 205.228128 
L 180.549278 200.213706 
L 184.233465 194.811863 
L 188.34165 189.184339 
L 192.980491 183.217278 
L 197.954252 177.181341 
L 203.398001 170.924767 
L 209.213184 164.580817 
L 215.273651 158.295673 
L 221.422837 152.234534 
L 227.255371 146.791454 
L 230.720938 143.756 
L 230.720937 143.756 
" style="fill:none;stroke:#ff7f0e;stroke-linecap:square;stroke-width:0.5;"/>
   </g>
   <g id="line2d_43">
    <path clip-path="url(#p3351a44700)" d="M 134.089098 276.812 
L 135.086868 272.51323 
L 136.296151 268.263824 
L 137.937599 263.380182 
L 139.788658 258.587798 
L 142.11498 253.235278 
L 144.621073 248.027035 
L 147.604007 242.351884 
L 151.06224 236.286324 
L 154.973443 229.916553 
L 159.29476 223.336224 
L 163.964552 216.643601 
L 169.253539 209.478841 
L 174.697268 202.477193 
L 180.812571 194.983083 
L 187.342591 187.345057 
L 194.243255 179.623797 
L 201.523994 171.819754 
L 209.041274 164.09671 
L 216.540459 156.713756 
L 223.66792 150.003397 
L 229.661924 144.64967 
L 230.720938 143.756 
L 230.720937 143.756 
" style="fill:none;stroke:#ff7f0e;stroke-linecap:square;stroke-width:0.5;"/>
   </g>
   <g id="line2d_44">
    <path clip-path="url(#p3351a44700)" d="M 52.160938 266.242677 
L 151.400598 197.869914 
L 209.945111 157.778089 
L 230.720954 143.755969 
L 230.720938 143.756 
" style="fill:none;stroke:#ff7f0e;stroke-linecap:square;stroke-width:0.5;"/>
   </g>
   <g id="line2d_45">
    <path clip-path="url(#p3351a44700)" d="M 52.160938 202.119773 
L 78.223364 189.807038 
L 100.941888 179.309547 
L 122.547262 169.580078 
L 141.059846 161.491715 
L 156.889475 154.808171 
L 171.517682 148.879255 
L 183.781645 144.149909 
L 194.029032 140.424636 
L 203.200748 137.329379 
L 210.681574 135.038287 
L 216.747486 133.401281 
L 221.632253 132.292956 
L 225.798096 131.571059 
L 229.030596 131.233422 
L 231.502517 131.191967 
L 233.357416 131.375069 
L 234.714321 131.724763 
L 235.671687 132.1944 
L 236.310746 132.746672 
L 236.717915 133.396581 
L 236.909047 134.125133 
L 236.896688 135.002959 
L 236.645788 136.042832 
L 236.093861 137.308938 
L 235.178871 138.812577 
L 233.844837 140.555889 
L 232.095084 142.466664 
L 230.720937 143.756 
L 230.720937 143.756 
" style="fill:none;stroke:#ff7f0e;stroke-linecap:square;stroke-width:0.5;"/>
   </g>
   <g id="line2d_46">
    <path clip-path="url(#p3351a44700)" d="M 52.160938 154.781334 
L 74.921218 146.071292 
L 95.420121 138.488583 
L 113.859371 131.920594 
L 130.423863 126.264723 
L 145.282727 121.427708 
L 158.590833 117.324706 
L 170.490019 113.878534 
L 181.11005 111.019086 
L 190.569423 108.682822 
L 198.976484 106.812099 
L 206.430301 105.354639 
L 213.0214 104.263078 
L 219.603269 103.408907 
L 225.277667 102.919536 
L 230.145241 102.743912 
L 234.296525 102.836677 
L 237.812889 103.157599 
L 240.76743 103.671042 
L 243.225736 104.345518 
L 245.246644 105.153229 
L 246.882896 106.069695 
L 248.181702 107.073411 
L 249.185252 108.14556 
L 249.931251 109.269697 
L 250.453381 110.431483 
L 250.810446 111.768068 
L 250.965144 113.27227 
L 250.892717 114.930238 
L 250.581947 116.72169 
L 249.985596 118.764421 
L 249.083325 121.009399 
L 247.817007 123.521391 
L 246.216735 126.194025 
L 244.140641 129.210034 
L 241.615853 132.465805 
L 238.673156 135.887225 
L 235.366724 139.385417 
L 231.999595 142.628671 
L 230.720937 143.756 
L 230.720937 143.756 
" style="fill:none;stroke:#ff7f0e;stroke-linecap:square;stroke-width:0.5;"/>
   </g>
   <g id="line2d_47">
    <path clip-path="url(#p3351a44700)" d="M 52.160938 110.061645 
L 71.512779 103.773943 
L 89.40137 98.179909 
L 105.923858 93.226577 
L 121.170894 88.864786 
L 135.227427 85.048711 
L 148.173634 81.73531 
L 160.084208 78.884731 
L 171.029346 76.459728 
L 181.074906 74.425556 
L 190.282589 72.74987 
L 200.306965 71.169985 
L 209.300927 70.014922 
L 217.350504 69.240553 
L 224.535186 68.806457 
L 230.928404 68.67563 
L 236.597971 68.814226 
L 241.606494 69.191304 
L 246.011739 69.778618 
L 249.86698 70.550407 
L 253.221332 71.483194 
L 256.120063 72.555609 
L 258.604865 73.748225 
L 260.714121 75.043403 
L 262.483153 76.425148 
L 263.944429 77.878987 
L 265.127791 79.39184 
L 266.06065 80.951904 
L 266.768172 82.548549 
L 267.339498 84.444848 
L 267.668817 86.364498 
L 267.786237 88.295676 
L 267.695662 90.503659 
L 267.350163 92.973094 
L 266.790235 95.41193 
L 265.964431 98.070103 
L 264.753375 101.168966 
L 263.243739 104.39398 
L 261.334502 107.923775 
L 259.054537 111.658224 
L 256.33235 115.677871 
L 253.146126 119.971077 
L 249.561036 124.423462 
L 245.550012 129.049454 
L 241.128494 133.804977 
L 236.500813 138.452538 
L 232.143847 142.520783 
L 230.720937 143.756 
L 230.720937 143.756 
" style="fill:none;stroke:#ff7f0e;stroke-linecap:square;stroke-width:0.5;"/>
   </g>
   <g id="line2d_48">
    <path clip-path="url(#p3351a44700)" d="M 52.160938 56.826177 
L 70.508424 51.780154 
L 87.691479 47.263591 
L 103.773055 43.242788 
L 118.813409 39.68565 
L 132.869476 36.561994 
L 145.995236 33.843341 
L 158.242136 31.502677 
L 169.658979 29.514502 
L 180.291968 27.854808 
L 190.184985 26.500912 
L 199.379706 25.431389 
L 207.915689 24.626016 
L 215.830457 24.06572 
L 223.159602 23.732522 
L 229.936881 23.609474 
L 236.194302 23.680609 
L 241.962215 23.930886 
L 247.269395 24.346143 
L 252.143105 24.913057 
L 256.609173 25.619101 
L 260.692067 26.452495 
L 264.41496 27.402174 
L 267.799808 28.457734 
L 270.867407 29.609408 
L 273.637435 30.848034 
L 276.128513 32.165019 
L 278.358258 33.552316 
L 280.343329 35.002389 
L 282.09948 36.508184 
L 283.995375 38.458773 
L 285.584104 40.474215 
L 286.891156 42.543522 
L 287.940188 44.656668 
L 288.753315 46.804421 
L 289.351015 48.978404 
L 289.752405 51.170924 
L 289.99978 53.816657 
L 290.018156 56.468223 
L 289.833358 59.115975 
L 289.392325 62.18886 
L 288.740747 65.233108 
L 287.777235 68.664202 
L 286.462259 72.44781 
L 284.950981 76.136382 
L 283.094286 80.109237 
L 280.894565 84.312957 
L 278.156868 89.041652 
L 275.123006 93.83249 
L 271.638505 98.918422 
L 267.58331 104.422872 
L 263.114815 110.095671 
L 258.2599 115.893326 
L 253.007704 121.817582 
L 247.33869 127.870249 
L 241.551713 133.72408 
L 235.835411 139.19394 
L 231.063874 143.469537 
L 230.720937 143.756 
L 230.720937 143.756 
" style="fill:none;stroke:#ff7f0e;stroke-linecap:square;stroke-width:0.5;"/>
   </g>
   <g id="line2d_49">
    <path clip-path="url(#p3351a44700)" d="M 91.742111 10.7 
L 96.268521 9.681403 
" style="fill:none;stroke:#ff7f0e;stroke-linecap:square;stroke-width:0.5;"/>
   </g>
   <g id="line2d_50">
    <path clip-path="url(#p3351a44700)" d="M 169.421212 10.7 
L 172.405779 10.254414 
" style="fill:none;stroke:#ff7f0e;stroke-linecap:square;stroke-width:0.5;"/>
   </g>
   <g id="line2d_51">
    <path clip-path="url(#p3351a44700)" d="M 230.720937 10.7 
L 237.58327 10.803654 
L 243.907456 11.103745 
L 249.725151 11.584707 
L 255.066358 12.231893 
L 259.959505 13.031521 
L 264.431486 13.970661 
L 268.507787 15.037154 
L 272.212569 16.219563 
L 275.568709 17.507156 
L 278.597829 18.889876 
L 281.320466 20.358256 
L 283.755988 21.903459 
L 285.922732 23.517197 
L 287.838038 25.191717 
L 289.518278 26.91978 
L 290.978937 28.694614 
L 292.234646 30.509898 
L 293.537063 32.826934 
L 294.566122 35.187329 
L 295.345395 37.58134 
L 295.8968 40.000072 
L 296.240707 42.435422 
L 296.406047 45.369446 
L 296.329913 48.305366 
L 296.039882 51.233003 
L 295.464619 54.626178 
L 294.668594 57.983439 
L 293.530047 61.762733 
L 292.188576 65.467901 
L 290.483903 69.534078 
L 288.401749 73.910881 
L 285.945851 78.539184 
L 283.138244 83.352596 
L 279.776529 88.646031 
L 276.158384 93.926776 
L 272.128868 99.426237 
L 267.583746 105.255529 
L 262.51317 111.387781 
L 257.036943 117.652982 
L 251.269614 123.913657 
L 245.241834 130.13233 
L 239.107427 136.142213 
L 233.44377 141.387178 
L 230.720937 143.756 
L 230.720938 143.756 
" style="fill:none;stroke:#ff7f0e;stroke-linecap:square;stroke-width:0.5;"/>
   </g>
   <g id="line2d_52">
    <path clip-path="url(#p3351a44700)" d="M 230.720938 143.756 
" style="fill:none;stroke:#ff7f0e;stroke-linecap:square;stroke-width:1.5;"/>
   </g>
   <g id="patch_75">
    <path d="M 52.160938 276.812 
L 52.160938 10.7 
" style="fill:none;stroke:#000000;stroke-linecap:square;stroke-linejoin:miter;stroke-width:0.8;"/>
   </g>
   <g id="patch_76">
    <path d="M 409.280938 276.812 
L 409.280938 10.7 
" style="fill:none;stroke:#000000;stroke-linecap:square;stroke-linejoin:miter;stroke-width:0.8;"/>
   </g>
   <g id="patch_77">
    <path d="M 52.160938 276.812 
L 409.280938 276.812 
" style="fill:none;stroke:#000000;stroke-linecap:square;stroke-linejoin:miter;stroke-width:0.8;"/>
   </g>
   <g id="patch_78">
    <path d="M 52.160938 10.7 
L 409.280938 10.7 
" style="fill:none;stroke:#000000;stroke-linecap:square;stroke-linejoin:miter;stroke-width:0.8;"/>
   </g>
   <g id="legend_1">
    <g id="patch_79">
     <path d="M 315.853438 273.812 
L 405.080938 273.812 
Q 406.280938 273.812 406.280938 272.612 
L 406.280938 255.59825 
Q 406.280938 254.39825 405.080938 254.39825 
L 315.853438 254.39825 
Q 314.653438 254.39825 314.653438 255.59825 
L 314.653438 272.612 
Q 314.653438 273.812 315.853438 273.812 
z
" style="fill:#ffffff;opacity:0.8;stroke:#cccccc;stroke-linejoin:miter;"/>
    </g>
    <g id="line2d_53">
     <path d="M 317.053438 259.257312 
L 329.053438 259.257312 
" style="fill:none;stroke:#1f77b4;stroke-linecap:square;stroke-width:1.5;"/>
    </g>
    <g id="line2d_54"/>
    <g id="text_13">
     <!-- system nieliniowy -->
     <defs>
      <path d="M 44.28125 53.078125 
L 44.28125 44.578125 
Q 40.484375 46.53125 36.375 47.5 
Q 32.28125 48.484375 27.875 48.484375 
Q 21.1875 48.484375 17.84375 46.4375 
Q 14.5 44.390625 14.5 40.28125 
Q 14.5 37.15625 16.890625 35.375 
Q 19.28125 33.59375 26.515625 31.984375 
L 29.59375 31.296875 
Q 39.15625 29.25 43.1875 25.515625 
Q 47.21875 21.78125 47.21875 15.09375 
Q 47.21875 7.46875 41.1875 3.015625 
Q 35.15625 -1.421875 24.609375 -1.421875 
Q 20.21875 -1.421875 15.453125 -0.5625 
Q 10.6875 0.296875 5.421875 2 
L 5.421875 11.28125 
Q 10.40625 8.6875 15.234375 7.390625 
Q 20.0625 6.109375 24.8125 6.109375 
Q 31.15625 6.109375 34.5625 8.28125 
Q 37.984375 10.453125 37.984375 14.40625 
Q 37.984375 18.0625 35.515625 20.015625 
Q 33.0625 21.96875 24.703125 23.78125 
L 21.578125 24.515625 
Q 13.234375 26.265625 9.515625 29.90625 
Q 5.8125 33.546875 5.8125 39.890625 
Q 5.8125 47.609375 11.28125 51.796875 
Q 16.75 56 26.8125 56 
Q 31.78125 56 36.171875 55.265625 
Q 40.578125 54.546875 44.28125 53.078125 
" id="DejaVuSans-73"/>
      <path d="M 32.171875 -5.078125 
Q 28.375 -14.84375 24.75 -17.8125 
Q 21.140625 -20.796875 15.09375 -20.796875 
L 7.90625 -20.796875 
L 7.90625 -13.28125 
L 13.1875 -13.28125 
Q 16.890625 -13.28125 18.9375 -11.515625 
Q 21 -9.765625 23.484375 -3.21875 
L 25.09375 0.875 
L 2.984375 54.6875 
L 12.5 54.6875 
L 29.59375 11.921875 
L 46.6875 54.6875 
L 56.203125 54.6875 
z
" id="DejaVuSans-79"/>
      <path d="M 18.3125 70.21875 
L 18.3125 54.6875 
L 36.8125 54.6875 
L 36.8125 47.703125 
L 18.3125 47.703125 
L 18.3125 18.015625 
Q 18.3125 11.328125 20.140625 9.421875 
Q 21.96875 7.515625 27.59375 7.515625 
L 36.8125 7.515625 
L 36.8125 0 
L 27.59375 0 
Q 17.1875 0 13.234375 3.875 
Q 9.28125 7.765625 9.28125 18.015625 
L 9.28125 47.703125 
L 2.6875 47.703125 
L 2.6875 54.6875 
L 9.28125 54.6875 
L 9.28125 70.21875 
z
" id="DejaVuSans-74"/>
      <path d="M 56.203125 29.59375 
L 56.203125 25.203125 
L 14.890625 25.203125 
Q 15.484375 15.921875 20.484375 11.0625 
Q 25.484375 6.203125 34.421875 6.203125 
Q 39.59375 6.203125 44.453125 7.46875 
Q 49.3125 8.734375 54.109375 11.28125 
L 54.109375 2.78125 
Q 49.265625 0.734375 44.1875 -0.34375 
Q 39.109375 -1.421875 33.890625 -1.421875 
Q 20.796875 -1.421875 13.15625 6.1875 
Q 5.515625 13.8125 5.515625 26.8125 
Q 5.515625 40.234375 12.765625 48.109375 
Q 20.015625 56 32.328125 56 
Q 43.359375 56 49.78125 48.890625 
Q 56.203125 41.796875 56.203125 29.59375 
M 47.21875 32.234375 
Q 47.125 39.59375 43.09375 43.984375 
Q 39.0625 48.390625 32.421875 48.390625 
Q 24.90625 48.390625 20.390625 44.140625 
Q 15.875 39.890625 15.1875 32.171875 
z
" id="DejaVuSans-65"/>
      <path d="M 52 44.1875 
Q 55.375 50.25 60.0625 53.125 
Q 64.75 56 71.09375 56 
Q 79.640625 56 84.28125 50.015625 
Q 88.921875 44.046875 88.921875 33.015625 
L 88.921875 0 
L 79.890625 0 
L 79.890625 32.71875 
Q 79.890625 40.578125 77.09375 44.375 
Q 74.3125 48.1875 68.609375 48.1875 
Q 61.625 48.1875 57.5625 43.546875 
Q 53.515625 38.921875 53.515625 30.90625 
L 53.515625 0 
L 44.484375 0 
L 44.484375 32.71875 
Q 44.484375 40.625 41.703125 44.40625 
Q 38.921875 48.1875 33.109375 48.1875 
Q 26.21875 48.1875 22.15625 43.53125 
Q 18.109375 38.875 18.109375 30.90625 
L 18.109375 0 
L 9.078125 0 
L 9.078125 54.6875 
L 18.109375 54.6875 
L 18.109375 46.1875 
Q 21.1875 51.21875 25.484375 53.609375 
Q 29.78125 56 35.6875 56 
Q 41.65625 56 45.828125 52.96875 
Q 50 49.953125 52 44.1875 
" id="DejaVuSans-6d"/>
      <path id="DejaVuSans-20"/>
      <path d="M 54.890625 33.015625 
L 54.890625 0 
L 45.90625 0 
L 45.90625 32.71875 
Q 45.90625 40.484375 42.875 44.328125 
Q 39.84375 48.1875 33.796875 48.1875 
Q 26.515625 48.1875 22.3125 43.546875 
Q 18.109375 38.921875 18.109375 30.90625 
L 18.109375 0 
L 9.078125 0 
L 9.078125 54.6875 
L 18.109375 54.6875 
L 18.109375 46.1875 
Q 21.34375 51.125 25.703125 53.5625 
Q 30.078125 56 35.796875 56 
Q 45.21875 56 50.046875 50.171875 
Q 54.890625 44.34375 54.890625 33.015625 
" id="DejaVuSans-6e"/>
      <path d="M 9.421875 54.6875 
L 18.40625 54.6875 
L 18.40625 0 
L 9.421875 0 
z
M 9.421875 75.984375 
L 18.40625 75.984375 
L 18.40625 64.59375 
L 9.421875 64.59375 
z
" id="DejaVuSans-69"/>
      <path d="M 9.421875 75.984375 
L 18.40625 75.984375 
L 18.40625 0 
L 9.421875 0 
z
" id="DejaVuSans-6c"/>
      <path d="M 30.609375 48.390625 
Q 23.390625 48.390625 19.1875 42.75 
Q 14.984375 37.109375 14.984375 27.296875 
Q 14.984375 17.484375 19.15625 11.84375 
Q 23.34375 6.203125 30.609375 6.203125 
Q 37.796875 6.203125 41.984375 11.859375 
Q 46.1875 17.53125 46.1875 27.296875 
Q 46.1875 37.015625 41.984375 42.703125 
Q 37.796875 48.390625 30.609375 48.390625 
M 30.609375 56 
Q 42.328125 56 49.015625 48.375 
Q 55.71875 40.765625 55.71875 27.296875 
Q 55.71875 13.875 49.015625 6.21875 
Q 42.328125 -1.421875 30.609375 -1.421875 
Q 18.84375 -1.421875 12.171875 6.21875 
Q 5.515625 13.875 5.515625 27.296875 
Q 5.515625 40.765625 12.171875 48.375 
Q 18.84375 56 30.609375 56 
" id="DejaVuSans-6f"/>
      <path d="M 4.203125 54.6875 
L 13.1875 54.6875 
L 24.421875 12.015625 
L 35.59375 54.6875 
L 46.1875 54.6875 
L 57.421875 12.015625 
L 68.609375 54.6875 
L 77.59375 54.6875 
L 63.28125 0 
L 52.6875 0 
L 40.921875 44.828125 
L 29.109375 0 
L 18.5 0 
z
" id="DejaVuSans-77"/>
     </defs>
     <g transform="translate(333.853438 261.357312)scale(0.06 -0.06)">
      <use xlink:href="#DejaVuSans-73"/>
      <use x="52.099609" xlink:href="#DejaVuSans-79"/>
      <use x="111.279297" xlink:href="#DejaVuSans-73"/>
      <use x="163.378906" xlink:href="#DejaVuSans-74"/>
      <use x="202.587891" xlink:href="#DejaVuSans-65"/>
      <use x="264.111328" xlink:href="#DejaVuSans-6d"/>
      <use x="361.523438" xlink:href="#DejaVuSans-20"/>
      <use x="393.310547" xlink:href="#DejaVuSans-6e"/>
      <use x="456.689453" xlink:href="#DejaVuSans-69"/>
      <use x="484.472656" xlink:href="#DejaVuSans-65"/>
      <use x="545.996094" xlink:href="#DejaVuSans-6c"/>
      <use x="573.779297" xlink:href="#DejaVuSans-69"/>
      <use x="601.5625" xlink:href="#DejaVuSans-6e"/>
      <use x="664.941406" xlink:href="#DejaVuSans-69"/>
      <use x="692.724609" xlink:href="#DejaVuSans-6f"/>
      <use x="753.90625" xlink:href="#DejaVuSans-77"/>
      <use x="835.693359" xlink:href="#DejaVuSans-79"/>
     </g>
    </g>
    <g id="line2d_55">
     <path d="M 317.053438 268.064187 
L 329.053438 268.064187 
" style="fill:none;stroke:#ff7f0e;stroke-linecap:square;stroke-width:1.5;"/>
    </g>
    <g id="line2d_56"/>
    <g id="text_14">
     <!-- system zlinearyzowany -->
     <defs>
      <path d="M 5.515625 54.6875 
L 48.1875 54.6875 
L 48.1875 46.484375 
L 14.40625 7.171875 
L 48.1875 7.171875 
L 48.1875 0 
L 4.296875 0 
L 4.296875 8.203125 
L 38.09375 47.515625 
L 5.515625 47.515625 
z
" id="DejaVuSans-7a"/>
      <path d="M 34.28125 27.484375 
Q 23.390625 27.484375 19.1875 25 
Q 14.984375 22.515625 14.984375 16.5 
Q 14.984375 11.71875 18.140625 8.90625 
Q 21.296875 6.109375 26.703125 6.109375 
Q 34.1875 6.109375 38.703125 11.40625 
Q 43.21875 16.703125 43.21875 25.484375 
L 43.21875 27.484375 
z
M 52.203125 31.203125 
L 52.203125 0 
L 43.21875 0 
L 43.21875 8.296875 
Q 40.140625 3.328125 35.546875 0.953125 
Q 30.953125 -1.421875 24.3125 -1.421875 
Q 15.921875 -1.421875 10.953125 3.296875 
Q 6 8.015625 6 15.921875 
Q 6 25.140625 12.171875 29.828125 
Q 18.359375 34.515625 30.609375 34.515625 
L 43.21875 34.515625 
L 43.21875 35.40625 
Q 43.21875 41.609375 39.140625 45 
Q 35.0625 48.390625 27.6875 48.390625 
Q 23 48.390625 18.546875 47.265625 
Q 14.109375 46.140625 10.015625 43.890625 
L 10.015625 52.203125 
Q 14.9375 54.109375 19.578125 55.046875 
Q 24.21875 56 28.609375 56 
Q 40.484375 56 46.34375 49.84375 
Q 52.203125 43.703125 52.203125 31.203125 
" id="DejaVuSans-61"/>
      <path d="M 41.109375 46.296875 
Q 39.59375 47.171875 37.8125 47.578125 
Q 36.03125 48 33.890625 48 
Q 26.265625 48 22.1875 43.046875 
Q 18.109375 38.09375 18.109375 28.8125 
L 18.109375 0 
L 9.078125 0 
L 9.078125 54.6875 
L 18.109375 54.6875 
L 18.109375 46.1875 
Q 20.953125 51.171875 25.484375 53.578125 
Q 30.03125 56 36.53125 56 
Q 37.453125 56 38.578125 55.875 
Q 39.703125 55.765625 41.0625 55.515625 
z
" id="DejaVuSans-72"/>
     </defs>
     <g transform="translate(333.853438 270.164187)scale(0.06 -0.06)">
      <use xlink:href="#DejaVuSans-73"/>
      <use x="52.099609" xlink:href="#DejaVuSans-79"/>
      <use x="111.279297" xlink:href="#DejaVuSans-73"/>
      <use x="163.378906" xlink:href="#DejaVuSans-74"/>
      <use x="202.587891" xlink:href="#DejaVuSans-65"/>
      <use x="264.111328" xlink:href="#DejaVuSans-6d"/>
      <use x="361.523438" xlink:href="#DejaVuSans-20"/>
      <use x="393.310547" xlink:href="#DejaVuSans-7a"/>
      <use x="445.800781" xlink:href="#DejaVuSans-6c"/>
      <use x="473.583984" xlink:href="#DejaVuSans-69"/>
      <use x="501.367188" xlink:href="#DejaVuSans-6e"/>
      <use x="564.746094" xlink:href="#DejaVuSans-65"/>
      <use x="626.269531" xlink:href="#DejaVuSans-61"/>
      <use x="687.548828" xlink:href="#DejaVuSans-72"/>
      <use x="728.662109" xlink:href="#DejaVuSans-79"/>
      <use x="787.841797" xlink:href="#DejaVuSans-7a"/>
      <use x="840.332031" xlink:href="#DejaVuSans-6f"/>
      <use x="901.513672" xlink:href="#DejaVuSans-77"/>
      <use x="983.300781" xlink:href="#DejaVuSans-61"/>
      <use x="1044.580078" xlink:href="#DejaVuSans-6e"/>
      <use x="1107.958984" xlink:href="#DejaVuSans-79"/>
     </g>
    </g>
   </g>
  </g>
 </g>
 <defs>
  <clipPath id="p3351a44700">
   <rect height="266.112" width="357.12" x="52.160938" y="10.7"/>
  </clipPath>
 </defs>
</svg>
