<?xml version="1.0" encoding="utf-8" standalone="no"?>
<!DOCTYPE svg PUBLIC "-//W3C//DTD SVG 1.1//EN"
  "http://www.w3.org/Graphics/SVG/1.1/DTD/svg11.dtd">
<!-- Created with matplotlib (http://matplotlib.org/) -->
<svg height="314pt" version="1.1" viewBox="0 0 419 314" width="419pt" xmlns="http://www.w3.org/2000/svg" xmlns:xlink="http://www.w3.org/1999/xlink">
 <defs>
  <style type="text/css">
*{stroke-linecap:butt;stroke-linejoin:round;}
  </style>
 </defs>
 <g id="figure_1">
  <g id="patch_1">
   <path d="M 0 314.36825 
L 419.980937 314.36825 
L 419.980937 0 
L 0 0 
z
" style="fill:#ffffff;"/>
  </g>
  <g id="axes_1">
   <g id="patch_2">
    <path d="M 52.160938 276.812 
L 409.280938 276.812 
L 409.280938 10.7 
L 52.160938 10.7 
z
" style="fill:#ffffff;"/>
   </g>
   <g id="patch_3">
    <path clip-path="url(#pf619a0637f)" d="M 262.299358 13.529062 
L 254.551796 14.970644 
L 255.288688 12.502934 
L 255.365125 12.242987 
L 255.366256 12.243175 
L 256.103148 9.775465 
z
" style="fill:#1f77b4;stroke:#1f77b4;stroke-linejoin:miter;"/>
   </g>
   <g id="patch_4">
    <path clip-path="url(#pf619a0637f)" d="M 273.397164 76.809989 
L 272.618379 70.887909 
L 275.786352 71.792582 
L 276.119996 71.887475 
L 276.119823 71.887811 
L 279.287796 72.792484 
z
" style="fill:#1f77b4;stroke:#1f77b4;stroke-linejoin:miter;"/>
   </g>
   <g id="patch_5">
    <path clip-path="url(#pf619a0637f)" d="M 293.910009 32.531493 
L 290.952019 27.004342 
L 294.332645 27.216913 
L 294.688554 27.238813 
L 294.6885 27.239289 
L 298.069126 27.451859 
z
" style="fill:#1f77b4;stroke:#1f77b4;stroke-linejoin:miter;"/>
   </g>
   <g id="patch_6">
    <path clip-path="url(#pf619a0637f)" d="M 263.310214 94.268855 
L 263.060326 88.321324 
L 266.140788 89.380596 
L 266.465211 89.491834 
L 266.465047 89.492099 
L 269.545509 90.551371 
z
" style="fill:#1f77b4;stroke:#1f77b4;stroke-linejoin:miter;"/>
   </g>
   <g id="patch_7">
    <path clip-path="url(#pf619a0637f)" d="M 317.09705 43.7416 
L 319.776211 38.136053 
L 322.125757 39.959742 
L 322.374026 40.151031 
L 322.373077 40.151709 
L 324.722623 41.975398 
z
" style="fill:#1f77b4;stroke:#1f77b4;stroke-linejoin:miter;"/>
   </g>
   <g id="patch_8">
    <path clip-path="url(#pf619a0637f)" d="M 272.980663 84.451418 
L 273.959791 78.545872 
L 276.78533 79.945177 
L 277.083061 80.092129 
L 277.082755 80.092472 
L 279.908293 81.491777 
z
" style="fill:#1f77b4;stroke:#1f77b4;stroke-linejoin:miter;"/>
   </g>
   <g id="patch_9">
    <path clip-path="url(#pf619a0637f)" d="M 367.216479 72.347625 
L 371.957722 67.559539 
L 373.498603 69.811812 
L 373.663576 70.047839 
L 373.660801 70.048893 
L 375.201681 72.301166 
z
" style="fill:#1f77b4;stroke:#1f77b4;stroke-linejoin:miter;"/>
   </g>
   <g id="patch_10">
    <path clip-path="url(#pf619a0637f)" d="M 302.483522 98.776951 
L 306.870491 93.804885 
L 308.572505 95.991797 
L 308.752997 96.221422 
L 308.751665 96.221998 
L 310.453679 98.40891 
z
" style="fill:#1f77b4;stroke:#1f77b4;stroke-linejoin:miter;"/>
   </g>
   <g id="patch_11">
    <path clip-path="url(#pf619a0637f)" d="M 367.119385 122.813435 
L 372.376979 118.334708 
L 373.661993 120.674414 
L 373.80071 120.919646 
L 373.797258 120.920698 
L 375.082271 123.260403 
z
" style="fill:#1f77b4;stroke:#1f77b4;stroke-linejoin:miter;"/>
   </g>
   <g id="patch_12">
    <path clip-path="url(#pf619a0637f)" d="M 289.037581 146.386973 
L 294.384503 141.967358 
L 295.6224 144.321126 
L 295.754342 144.568413 
L 295.752705 144.568891 
L 296.990603 146.922659 
z
" style="fill:#1f77b4;stroke:#1f77b4;stroke-linejoin:miter;"/>
   </g>
   <g id="patch_13">
    <path clip-path="url(#pf619a0637f)" d="M 370.392301 164.993327 
L 375.949132 160.719908 
L 377.072593 163.105337 
L 377.194965 163.355359 
L 377.190852 163.356435 
L 378.314313 165.741864 
z
" style="fill:#1f77b4;stroke:#1f77b4;stroke-linejoin:miter;"/>
   </g>
   <g id="patch_14">
    <path clip-path="url(#pf619a0637f)" d="M 220.059164 192.890619 
L 227.424945 190.592354 
L 227.197462 193.114728 
L 227.174085 193.38027 
L 227.173517 193.380242 
L 226.946034 195.902616 
z
" style="fill:#1f77b4;stroke:#1f77b4;stroke-linejoin:miter;"/>
   </g>
   <g id="patch_15">
    <path clip-path="url(#pf619a0637f)" d="M 340.276681 217.710959 
L 346.145713 213.675939 
L 347.088282 216.104476 
L 347.191457 216.359259 
L 347.1875 216.360111 
L 348.130069 218.788648 
z
" style="fill:#1f77b4;stroke:#1f77b4;stroke-linejoin:miter;"/>
   </g>
   <g id="patch_16">
    <path clip-path="url(#pf619a0637f)" d="M 229.904526 233.801762 
L 236.891117 230.920107 
L 237.033184 233.445954 
L 237.049485 233.711791 
L 237.048138 233.711833 
L 237.190205 236.237679 
z
" style="fill:#1f77b4;stroke:#1f77b4;stroke-linejoin:miter;"/>
   </g>
   <g id="patch_17">
    <path clip-path="url(#pf619a0637f)" d="M 395.920209 268.934596 
L 401.887881 264.980727 
L 402.770325 267.421775 
L 402.869486 267.677469 
L 402.863214 267.678728 
L 403.745658 270.119776 
z
" style="fill:#1f77b4;stroke:#1f77b4;stroke-linejoin:miter;"/>
   </g>
   <g id="patch_18">
    <path clip-path="url(#pf619a0637f)" d="M 366.24485 274.717786 
L 372.277516 270.819068 
L 373.119486 273.268042 
L 373.213568 273.524788 
L 373.208115 273.525829 
L 374.050086 275.974802 
z
" style="fill:#1f77b4;stroke:#1f77b4;stroke-linejoin:miter;"/>
   </g>
   <g id="patch_19">
    <path clip-path="url(#pf619a0637f)" d="M 320.378857 277.976004 
L 326.567989 274.215929 
L 327.309529 276.682865 
L 327.391806 276.941839 
L 327.387586 276.942543 
L 328.129127 279.40948 
z
" style="fill:#1f77b4;stroke:#1f77b4;stroke-linejoin:miter;"/>
   </g>
   <g id="patch_20">
    <path clip-path="url(#pf619a0637f)" d="M 253.418431 277.415295 
L 260.110164 274.168232 
L 260.494596 276.680014 
L 260.537565 276.944199 
L 260.535062 276.944412 
L 260.919495 279.456193 
z
" style="fill:#1f77b4;stroke:#1f77b4;stroke-linejoin:miter;"/>
   </g>
   <g id="patch_21">
    <path clip-path="url(#pf619a0637f)" d="M 173.652229 256.611898 
L 179.435451 260.715138 
L 176.244164 261.573107 
L 175.908437 261.663828 
L 175.908239 261.66342 
L 172.716952 262.521389 
z
" style="fill:#1f77b4;stroke:#1f77b4;stroke-linejoin:miter;"/>
   </g>
   <g id="patch_22">
    <path clip-path="url(#pf619a0637f)" d="M 197.368398 194.674763 
L 197.716899 200.619539 
L 194.619106 199.588713 
L 194.292861 199.480475 
L 194.293022 199.480205 
L 191.195229 198.44938 
z
" style="fill:#1f77b4;stroke:#1f77b4;stroke-linejoin:miter;"/>
   </g>
   <g id="patch_23">
    <path clip-path="url(#pf619a0637f)" d="M 159.56048 247.566129 
L 158.952379 253.499296 
L 156.04226 252.199803 
L 155.735484 252.063571 
L 155.735931 252.063015 
L 152.825812 250.763522 
z
" style="fill:#1f77b4;stroke:#1f77b4;stroke-linejoin:miter;"/>
   </g>
   <g id="patch_24">
    <path clip-path="url(#pf619a0637f)" d="M 202.708894 185.75073 
L 202.74218 191.701124 
L 199.701413 190.579974 
L 199.381178 190.46219 
L 199.381332 190.461959 
L 196.340564 189.340809 
z
" style="fill:#1f77b4;stroke:#1f77b4;stroke-linejoin:miter;"/>
   </g>
   <g id="patch_25">
    <path clip-path="url(#pf619a0637f)" d="M 94.338615 248.022629 
L 90.090064 253.060997 
L 88.327939 250.900682 
L 88.140127 250.674334 
L 88.142452 250.673281 
L 86.380327 248.512965 
z
" style="fill:#1f77b4;stroke:#1f77b4;stroke-linejoin:miter;"/>
   </g>
   <g id="patch_26">
    <path clip-path="url(#pf619a0637f)" d="M 176.261875 203.067917 
L 173.334518 208.604116 
L 171.067494 206.723325 
L 170.828198 206.52579 
L 170.82886 206.525347 
L 168.561836 204.644555 
z
" style="fill:#1f77b4;stroke:#1f77b4;stroke-linejoin:miter;"/>
   </g>
   <g id="patch_27">
    <path clip-path="url(#pf619a0637f)" d="M 109.680781 182.985122 
L 104.668155 187.61718 
L 103.258404 185.317707 
L 103.107248 185.076598 
L 103.110009 185.075658 
L 101.700259 182.776185 
z
" style="fill:#1f77b4;stroke:#1f77b4;stroke-linejoin:miter;"/>
   </g>
   <g id="patch_28">
    <path clip-path="url(#pf619a0637f)" d="M 165.788941 163.490493 
L 160.845571 168.163697 
L 159.40168 165.876017 
L 159.248189 165.635735 
L 159.249691 165.635209 
L 157.8058 163.347529 
z
" style="fill:#1f77b4;stroke:#1f77b4;stroke-linejoin:miter;"/>
   </g>
   <g id="patch_29">
    <path clip-path="url(#pf619a0637f)" d="M 96.786244 142.25171 
L 91.362866 146.61929 
L 90.16603 144.253759 
L 90.036367 144.00579 
L 90.040048 144.004756 
L 88.843213 141.639225 
z
" style="fill:#1f77b4;stroke:#1f77b4;stroke-linejoin:miter;"/>
   </g>
   <g id="patch_30">
    <path clip-path="url(#pf619a0637f)" d="M 186.610061 118.504439 
L 180.879104 122.648198 
L 179.854849 120.238098 
L 179.745449 119.984777 
L 179.747032 119.984404 
L 178.722776 117.574304 
z
" style="fill:#1f77b4;stroke:#1f77b4;stroke-linejoin:miter;"/>
   </g>
   <g id="patch_31">
    <path clip-path="url(#pf619a0637f)" d="M 101.618753 97.935475 
L 95.92372 102.106644 
L 94.878661 99.701509 
L 94.764521 99.449334 
L 94.768654 99.448337 
L 93.723595 97.043202 
z
" style="fill:#1f77b4;stroke:#1f77b4;stroke-linejoin:miter;"/>
   </g>
   <g id="patch_32">
    <path clip-path="url(#pf619a0637f)" d="M 247.081079 76.411207 
L 239.504782 78.291476 
L 239.985423 75.78891 
L 240.035344 75.525411 
L 240.036016 75.525483 
L 240.516658 73.022917 
z
" style="fill:#1f77b4;stroke:#1f77b4;stroke-linejoin:miter;"/>
   </g>
   <g id="patch_33">
    <path clip-path="url(#pf619a0637f)" d="M 116.574569 43.287876 
L 110.598829 47.234971 
L 109.721372 44.792925 
L 109.62457 44.536753 
L 109.629008 44.535867 
L 108.751551 42.093821 
z
" style="fill:#1f77b4;stroke:#1f77b4;stroke-linejoin:miter;"/>
   </g>
   <g id="patch_34">
    <path clip-path="url(#pf619a0637f)" d="M 268.145665 34.070981 
L 260.171046 34.380732 
L 261.528264 32.063776 
L 261.670413 31.819653 
L 261.671129 31.819886 
L 263.028347 29.50293 
z
" style="fill:#1f77b4;stroke:#1f77b4;stroke-linejoin:miter;"/>
   </g>
   <g id="patch_35">
    <path clip-path="url(#pf619a0637f)" d="M 98.67264 9.396244 
L 92.621642 13.279155 
L 91.791215 10.827993 
L 91.698404 10.570992 
L 91.703802 10.569976 
L 90.873375 8.118815 
z
" style="fill:#1f77b4;stroke:#1f77b4;stroke-linejoin:miter;"/>
   </g>
   <g id="patch_36">
    <path clip-path="url(#pf619a0637f)" d="M 176.45279 9.75196 
L 170.060341 13.318157 
L 169.4563 10.830486 
L 169.38942 10.56907 
L 169.392717 10.568625 
L 168.788676 8.080954 
z
" style="fill:#1f77b4;stroke:#1f77b4;stroke-linejoin:miter;"/>
   </g>
   <g id="patch_37">
    <path clip-path="url(#pf619a0637f)" d="M 286.739232 33.024787 
L 280.926886 28.94446 
L 284.112022 28.073891 
L 284.447103 27.981852 
L 284.4473 27.982252 
L 287.632436 27.111683 
z
" style="fill:#1f77b4;stroke:#1f77b4;stroke-linejoin:miter;"/>
   </g>
   <g id="patch_38">
    <path clip-path="url(#pf619a0637f)" d="M 273.94601 75.801707 
L 273.130822 69.882349 
L 276.304324 70.776197 
L 276.63855 70.869946 
L 276.638377 70.870286 
L 279.811879 71.764135 
z
" style="fill:#1f77b4;stroke:#1f77b4;stroke-linejoin:miter;"/>
   </g>
   <g id="patch_39">
    <path clip-path="url(#pf619a0637f)" d="M 280.34803 21.688794 
L 272.512402 20.541565 
L 274.586209 18.540792 
L 274.803931 18.329854 
L 274.804504 18.330184 
L 276.878311 16.329411 
z
" style="fill:#ff7f0e;stroke:#ff7f0e;stroke-linejoin:miter;"/>
   </g>
   <g id="patch_40">
    <path clip-path="url(#pf619a0637f)" d="M 258.425525 102.094978 
L 258.247045 96.146019 
L 261.314667 97.225783 
L 261.63772 97.339214 
L 261.637575 97.339442 
L 264.705198 98.419206 
z
" style="fill:#ff7f0e;stroke:#ff7f0e;stroke-linejoin:miter;"/>
   </g>
   <g id="patch_41">
    <path clip-path="url(#pf619a0637f)" d="M 293.126765 37.796446 
L 290.668647 32.134936 
L 294.022814 32.514579 
L 294.375981 32.554069 
L 294.375884 32.554541 
L 297.730052 32.934185 
z
" style="fill:#ff7f0e;stroke:#ff7f0e;stroke-linejoin:miter;"/>
   </g>
   <g id="patch_42">
    <path clip-path="url(#pf619a0637f)" d="M 267.353425 88.345274 
L 267.089432 82.398082 
L 270.172401 83.453295 
L 270.497106 83.564076 
L 270.496925 83.564371 
L 273.579894 84.619584 
z
" style="fill:#ff7f0e;stroke:#ff7f0e;stroke-linejoin:miter;"/>
   </g>
   <g id="patch_43">
    <path clip-path="url(#pf619a0637f)" d="M 339.349661 30.195619 
L 342.292775 24.664061 
L 344.554438 26.548433 
L 344.793775 26.745943 
L 344.792508 26.746788 
L 347.054172 28.63116 
z
" style="fill:#ff7f0e;stroke:#ff7f0e;stroke-linejoin:miter;"/>
   </g>
   <g id="patch_44">
    <path clip-path="url(#pf619a0637f)" d="M 264.788808 95.555122 
L 265.587759 89.634534 
L 268.455202 90.985678 
L 268.757277 91.127622 
L 268.757038 91.127904 
L 271.624481 92.479047 
z
" style="fill:#ff7f0e;stroke:#ff7f0e;stroke-linejoin:miter;"/>
   </g>
   <g id="patch_45">
    <path clip-path="url(#pf619a0637f)" d="M 370.382618 72.639788 
L 374.924535 67.745584 
L 376.557402 69.961578 
L 376.731917 70.193763 
L 376.729283 70.19484 
L 378.362151 72.410834 
z
" style="fill:#ff7f0e;stroke:#ff7f0e;stroke-linejoin:miter;"/>
   </g>
   <g id="patch_46">
    <path clip-path="url(#pf619a0637f)" d="M 280.561524 111.007964 
L 284.81173 105.970371 
L 286.573145 108.131007 
L 286.759471 108.358029 
L 286.758558 108.358443 
L 288.519973 110.519079 
z
" style="fill:#ff7f0e;stroke:#ff7f0e;stroke-linejoin:miter;"/>
   </g>
   <g id="patch_47">
    <path clip-path="url(#pf619a0637f)" d="M 373.140669 121.933503 
L 378.253831 117.362868 
L 379.613156 119.679139 
L 379.759611 119.921859 
L 379.756243 119.922957 
L 381.115568 122.239227 
z
" style="fill:#ff7f0e;stroke:#ff7f0e;stroke-linejoin:miter;"/>
   </g>
   <g id="patch_48">
    <path clip-path="url(#pf619a0637f)" d="M 295.230197 146.231482 
L 300.547492 141.792064 
L 301.801117 144.141206 
L 301.934844 144.38796 
L 301.933078 144.388484 
L 303.186702 146.737625 
z
" style="fill:#ff7f0e;stroke:#ff7f0e;stroke-linejoin:miter;"/>
   </g>
   <g id="patch_49">
    <path clip-path="url(#pf619a0637f)" d="M 339.976087 173.898958 
L 345.525672 169.620314 
L 346.653174 172.004684 
L 346.775104 172.254818 
L 346.771858 172.25567 
L 347.89936 174.64004 
z
" style="fill:#ff7f0e;stroke:#ff7f0e;stroke-linejoin:miter;"/>
   </g>
   <g id="patch_50">
    <path clip-path="url(#pf619a0637f)" d="M 270.972674 189.77755 
L 276.971154 185.849654 
L 277.8345 188.294492 
L 277.927137 188.551498 
L 277.925378 188.551843 
L 278.788724 190.996681 
z
" style="fill:#ff7f0e;stroke:#ff7f0e;stroke-linejoin:miter;"/>
   </g>
   <g id="patch_51">
    <path clip-path="url(#pf619a0637f)" d="M 363.924213 213.18688 
L 369.659066 209.046116 
L 370.681054 211.456749 
L 370.792995 211.709473 
L 370.788632 211.7105 
L 371.81062 214.121134 
z
" style="fill:#ff7f0e;stroke:#ff7f0e;stroke-linejoin:miter;"/>
   </g>
   <g id="patch_52">
    <path clip-path="url(#pf619a0637f)" d="M 223.153434 234.558436 
L 230.326193 231.943049 
L 230.297103 234.47102 
L 230.295234 234.73713 
L 230.294041 234.737122 
L 230.264951 237.265093 
z
" style="fill:#ff7f0e;stroke:#ff7f0e;stroke-linejoin:miter;"/>
   </g>
   <g id="patch_53">
    <path clip-path="url(#pf619a0637f)" d="M 390.453616 270.265978 
L 396.352235 266.254985 
L 397.27693 268.687334 
L 397.380046 268.942151 
L 397.374266 268.943371 
L 398.298961 271.37572 
z
" style="fill:#ff7f0e;stroke:#ff7f0e;stroke-linejoin:miter;"/>
   </g>
   <g id="patch_54">
    <path clip-path="url(#pf619a0637f)" d="M 373.472687 273.744314 
L 379.428457 269.780493 
L 380.318237 272.220063 
L 380.417305 272.475765 
L 380.411899 272.47686 
L 381.301679 274.916429 
z
" style="fill:#ff7f0e;stroke:#ff7f0e;stroke-linejoin:miter;"/>
   </g>
   <g id="patch_55">
    <path clip-path="url(#pf619a0637f)" d="M 320.384323 277.993825 
L 326.556096 274.217941 
L 327.308997 276.682966 
L 327.392403 276.941738 
L 327.38825 276.942443 
L 328.14115 279.407468 
z
" style="fill:#ff7f0e;stroke:#ff7f0e;stroke-linejoin:miter;"/>
   </g>
   <g id="patch_56">
    <path clip-path="url(#pf619a0637f)" d="M 253.418502 277.415744 
L 260.109864 274.168258 
L 260.494583 276.680015 
L 260.53758 276.944198 
L 260.535079 276.94441 
L 260.919798 279.456168 
z
" style="fill:#ff7f0e;stroke:#ff7f0e;stroke-linejoin:miter;"/>
   </g>
   <g id="patch_57">
    <path clip-path="url(#pf619a0637f)" d="M 174.972182 261.50084 
L 181.849493 264.524941 
L 179.000643 265.89775 
L 178.7011 266.042644 
L 178.700764 266.042256 
L 175.851914 267.415065 
z
" style="fill:#ff7f0e;stroke:#ff7f0e;stroke-linejoin:miter;"/>
   </g>
   <g id="patch_58">
    <path clip-path="url(#pf619a0637f)" d="M 195.983289 196.471994 
L 196.315036 202.417302 
L 193.220154 201.381632 
L 192.894208 201.272894 
L 192.894377 201.272614 
L 189.799495 200.236943 
z
" style="fill:#ff7f0e;stroke:#ff7f0e;stroke-linejoin:miter;"/>
   </g>
   <g id="patch_59">
    <path clip-path="url(#pf619a0637f)" d="M 158.402354 247.319977 
L 157.859819 253.256673 
L 154.935442 251.975076 
L 154.627168 251.840735 
L 154.627613 251.840171 
L 151.703237 250.558574 
z
" style="fill:#ff7f0e;stroke:#ff7f0e;stroke-linejoin:miter;"/>
   </g>
   <g id="patch_60">
    <path clip-path="url(#pf619a0637f)" d="M 195.963955 195.295774 
L 195.877546 201.245871 
L 192.859672 200.090885 
L 192.541806 199.96959 
L 192.542001 199.969307 
L 189.524127 198.814321 
z
" style="fill:#ff7f0e;stroke:#ff7f0e;stroke-linejoin:miter;"/>
   </g>
   <g id="patch_61">
    <path clip-path="url(#pf619a0637f)" d="M 107.13345 239.399721 
L 103.22483 244.588636 
L 101.321346 242.495972 
L 101.119082 242.27665 
L 101.120979 242.275692 
L 99.217495 240.183028 
z
" style="fill:#ff7f0e;stroke:#ff7f0e;stroke-linejoin:miter;"/>
   </g>
   <g id="patch_62">
    <path clip-path="url(#pf619a0637f)" d="M 183.963373 194.854667 
L 181.128703 200.417584 
L 178.830443 198.557961 
L 178.58796 198.362597 
L 178.588521 198.362211 
L 176.290262 196.502588 
z
" style="fill:#ff7f0e;stroke:#ff7f0e;stroke-linejoin:miter;"/>
   </g>
   <g id="patch_63">
    <path clip-path="url(#pf619a0637f)" d="M 91.932322 187.783588 
L 87.051721 192.493284 
L 85.577295 190.216444 
L 85.419114 189.977848 
L 85.422092 189.976777 
L 83.947666 187.699937 
z
" style="fill:#ff7f0e;stroke:#ff7f0e;stroke-linejoin:miter;"/>
   </g>
   <g id="patch_64">
    <path clip-path="url(#pf619a0637f)" d="M 171.769286 159.448111 
L 166.818457 164.116928 
L 165.37822 161.827969 
L 165.225235 161.587509 
L 165.226616 161.587026 
L 163.786379 159.298068 
z
" style="fill:#ff7f0e;stroke:#ff7f0e;stroke-linejoin:miter;"/>
   </g>
   <g id="patch_65">
    <path clip-path="url(#pf619a0637f)" d="M 107.936538 138.023811 
L 102.595106 142.447111 
L 101.354287 140.094197 
L 101.220422 139.847474 
L 101.223674 139.846522 
L 99.982855 137.493608 
z
" style="fill:#ff7f0e;stroke:#ff7f0e;stroke-linejoin:miter;"/>
   </g>
   <g id="patch_66">
    <path clip-path="url(#pf619a0637f)" d="M 216.410102 111.423476 
L 210.208812 115.172411 
L 209.475263 112.704148 
L 209.397107 112.444486 
L 209.398047 112.444331 
L 208.664497 109.976068 
z
" style="fill:#ff7f0e;stroke:#ff7f0e;stroke-linejoin:miter;"/>
   </g>
   <g id="patch_67">
    <path clip-path="url(#pf619a0637f)" d="M 86.592287 100.960888 
L 81.019291 105.222602 
L 79.90487 102.83482 
L 79.783286 102.584583 
L 79.787563 102.583474 
L 78.673142 100.195692 
z
" style="fill:#ff7f0e;stroke:#ff7f0e;stroke-linejoin:miter;"/>
   </g>
   <g id="patch_68">
    <path clip-path="url(#pf619a0637f)" d="M 248.714644 75.722912 
L 241.062435 77.423943 
L 241.648902 74.933937 
L 241.709993 74.671747 
L 241.710636 74.671831 
L 242.297104 72.181826 
z
" style="fill:#ff7f0e;stroke:#ff7f0e;stroke-linejoin:miter;"/>
   </g>
   <g id="patch_69">
    <path clip-path="url(#pf619a0637f)" d="M 118.453676 42.225788 
L 112.507508 46.197604 
L 111.611825 43.759234 
L 111.513268 43.503436 
L 111.517543 43.502564 
L 110.62186 41.064194 
z
" style="fill:#ff7f0e;stroke:#ff7f0e;stroke-linejoin:miter;"/>
   </g>
   <g id="patch_70">
    <path clip-path="url(#pf619a0637f)" d="M 264.924458 31.852081 
L 257.015811 32.675358 
L 258.098618 30.279513 
L 258.211771 30.027111 
L 258.212598 30.027318 
L 259.295405 27.631473 
z
" style="fill:#ff7f0e;stroke:#ff7f0e;stroke-linejoin:miter;"/>
   </g>
   <g id="patch_71">
    <path clip-path="url(#pf619a0637f)" d="M 98.656246 9.349334 
L 92.652922 13.273119 
L 91.792593 10.827691 
L 91.69683 10.571293 
L 91.702032 10.570277 
L 90.841703 8.124849 
z
" style="fill:#ff7f0e;stroke:#ff7f0e;stroke-linejoin:miter;"/>
   </g>
   <g id="patch_72">
    <path clip-path="url(#pf619a0637f)" d="M 176.451619 9.747218 
L 170.063506 13.317727 
L 169.456443 10.830464 
L 169.389261 10.569091 
L 169.392541 10.568647 
L 168.785478 8.081384 
z
" style="fill:#ff7f0e;stroke:#ff7f0e;stroke-linejoin:miter;"/>
   </g>
   <g id="patch_73">
    <path clip-path="url(#pf619a0637f)" d="M 279.8508 21.26977 
L 271.983169 20.251397 
L 273.997345 18.217079 
L 274.208772 18.002615 
L 274.209364 18.00294 
L 276.22354 15.968623 
z
" style="fill:#ff7f0e;stroke:#ff7f0e;stroke-linejoin:miter;"/>
   </g>
   <g id="patch_74">
    <path clip-path="url(#pf619a0637f)" d="M 262.457196 95.783669 
L 262.189906 89.836559 
L 265.27346 90.890824 
L 265.598204 91.001541 
L 265.598045 91.001799 
L 268.681599 92.056064 
z
" style="fill:#ff7f0e;stroke:#ff7f0e;stroke-linejoin:miter;"/>
   </g>
   <g id="matplotlib.axis_1">
    <g id="xtick_1">
     <g id="line2d_1">
      <defs>
       <path d="M 0 0 
L 0 3.5 
" id="m1cd861ceba" style="stroke:#000000;stroke-width:0.8;"/>
      </defs>
      <g>
       <use style="stroke:#000000;stroke-width:0.8;" x="87.872938" xlink:href="#m1cd861ceba" y="276.812"/>
      </g>
     </g>
     <g id="text_1">
      <!-- −0.4 -->
      <defs>
       <path d="M 10.59375 35.5 
L 73.1875 35.5 
L 73.1875 27.203125 
L 10.59375 27.203125 
z
" id="DejaVuSans-2212"/>
       <path d="M 31.78125 66.40625 
Q 24.171875 66.40625 20.328125 58.90625 
Q 16.5 51.421875 16.5 36.375 
Q 16.5 21.390625 20.328125 13.890625 
Q 24.171875 6.390625 31.78125 6.390625 
Q 39.453125 6.390625 43.28125 13.890625 
Q 47.125 21.390625 47.125 36.375 
Q 47.125 51.421875 43.28125 58.90625 
Q 39.453125 66.40625 31.78125 66.40625 
M 31.78125 74.21875 
Q 44.046875 74.21875 50.515625 64.515625 
Q 56.984375 54.828125 56.984375 36.375 
Q 56.984375 17.96875 50.515625 8.265625 
Q 44.046875 -1.421875 31.78125 -1.421875 
Q 19.53125 -1.421875 13.0625 8.265625 
Q 6.59375 17.96875 6.59375 36.375 
Q 6.59375 54.828125 13.0625 64.515625 
Q 19.53125 74.21875 31.78125 74.21875 
" id="DejaVuSans-30"/>
       <path d="M 10.6875 12.40625 
L 21 12.40625 
L 21 0 
L 10.6875 0 
z
" id="DejaVuSans-2e"/>
       <path d="M 37.796875 64.3125 
L 12.890625 25.390625 
L 37.796875 25.390625 
z
M 35.203125 72.90625 
L 47.609375 72.90625 
L 47.609375 25.390625 
L 58.015625 25.390625 
L 58.015625 17.1875 
L 47.609375 17.1875 
L 47.609375 0 
L 37.796875 0 
L 37.796875 17.1875 
L 4.890625 17.1875 
L 4.890625 26.703125 
z
" id="DejaVuSans-34"/>
      </defs>
      <g transform="translate(75.731531 291.410438)scale(0.1 -0.1)">
       <use xlink:href="#DejaVuSans-2212"/>
       <use x="83.789062" xlink:href="#DejaVuSans-30"/>
       <use x="147.412109" xlink:href="#DejaVuSans-2e"/>
       <use x="179.199219" xlink:href="#DejaVuSans-34"/>
      </g>
     </g>
    </g>
    <g id="xtick_2">
     <g id="line2d_2">
      <g>
       <use style="stroke:#000000;stroke-width:0.8;" x="159.296938" xlink:href="#m1cd861ceba" y="276.812"/>
      </g>
     </g>
     <g id="text_2">
      <!-- −0.2 -->
      <defs>
       <path d="M 19.1875 8.296875 
L 53.609375 8.296875 
L 53.609375 0 
L 7.328125 0 
L 7.328125 8.296875 
Q 12.9375 14.109375 22.625 23.890625 
Q 32.328125 33.6875 34.8125 36.53125 
Q 39.546875 41.84375 41.421875 45.53125 
Q 43.3125 49.21875 43.3125 52.78125 
Q 43.3125 58.59375 39.234375 62.25 
Q 35.15625 65.921875 28.609375 65.921875 
Q 23.96875 65.921875 18.8125 64.3125 
Q 13.671875 62.703125 7.8125 59.421875 
L 7.8125 69.390625 
Q 13.765625 71.78125 18.9375 73 
Q 24.125 74.21875 28.421875 74.21875 
Q 39.75 74.21875 46.484375 68.546875 
Q 53.21875 62.890625 53.21875 53.421875 
Q 53.21875 48.921875 51.53125 44.890625 
Q 49.859375 40.875 45.40625 35.40625 
Q 44.1875 33.984375 37.640625 27.21875 
Q 31.109375 20.453125 19.1875 8.296875 
" id="DejaVuSans-32"/>
      </defs>
      <g transform="translate(147.155531 291.410438)scale(0.1 -0.1)">
       <use xlink:href="#DejaVuSans-2212"/>
       <use x="83.789062" xlink:href="#DejaVuSans-30"/>
       <use x="147.412109" xlink:href="#DejaVuSans-2e"/>
       <use x="179.199219" xlink:href="#DejaVuSans-32"/>
      </g>
     </g>
    </g>
    <g id="xtick_3">
     <g id="line2d_3">
      <g>
       <use style="stroke:#000000;stroke-width:0.8;" x="230.720938" xlink:href="#m1cd861ceba" y="276.812"/>
      </g>
     </g>
     <g id="text_3">
      <!-- 0.0 -->
      <g transform="translate(222.769375 291.410438)scale(0.1 -0.1)">
       <use xlink:href="#DejaVuSans-30"/>
       <use x="63.623047" xlink:href="#DejaVuSans-2e"/>
       <use x="95.410156" xlink:href="#DejaVuSans-30"/>
      </g>
     </g>
    </g>
    <g id="xtick_4">
     <g id="line2d_4">
      <g>
       <use style="stroke:#000000;stroke-width:0.8;" x="302.144938" xlink:href="#m1cd861ceba" y="276.812"/>
      </g>
     </g>
     <g id="text_4">
      <!-- 0.2 -->
      <g transform="translate(294.193375 291.410438)scale(0.1 -0.1)">
       <use xlink:href="#DejaVuSans-30"/>
       <use x="63.623047" xlink:href="#DejaVuSans-2e"/>
       <use x="95.410156" xlink:href="#DejaVuSans-32"/>
      </g>
     </g>
    </g>
    <g id="xtick_5">
     <g id="line2d_5">
      <g>
       <use style="stroke:#000000;stroke-width:0.8;" x="373.568938" xlink:href="#m1cd861ceba" y="276.812"/>
      </g>
     </g>
     <g id="text_5">
      <!-- 0.4 -->
      <g transform="translate(365.617375 291.410438)scale(0.1 -0.1)">
       <use xlink:href="#DejaVuSans-30"/>
       <use x="63.623047" xlink:href="#DejaVuSans-2e"/>
       <use x="95.410156" xlink:href="#DejaVuSans-34"/>
      </g>
     </g>
    </g>
    <g id="text_6">
     <!-- x1 -->
     <defs>
      <path d="M 54.890625 54.6875 
L 35.109375 28.078125 
L 55.90625 0 
L 45.3125 0 
L 29.390625 21.484375 
L 13.484375 0 
L 2.875 0 
L 24.125 28.609375 
L 4.6875 54.6875 
L 15.28125 54.6875 
L 29.78125 35.203125 
L 44.28125 54.6875 
z
" id="DejaVuSans-78"/>
      <path d="M 12.40625 8.296875 
L 28.515625 8.296875 
L 28.515625 63.921875 
L 10.984375 60.40625 
L 10.984375 69.390625 
L 28.421875 72.90625 
L 38.28125 72.90625 
L 38.28125 8.296875 
L 54.390625 8.296875 
L 54.390625 0 
L 12.40625 0 
z
" id="DejaVuSans-31"/>
     </defs>
     <g transform="translate(224.580313 305.088562)scale(0.1 -0.1)">
      <use xlink:href="#DejaVuSans-78"/>
      <use x="59.179688" xlink:href="#DejaVuSans-31"/>
     </g>
    </g>
   </g>
   <g id="matplotlib.axis_2">
    <g id="ytick_1">
     <g id="line2d_6">
      <defs>
       <path d="M 0 0 
L -3.5 0 
" id="m5a085744fb" style="stroke:#000000;stroke-width:0.8;"/>
      </defs>
      <g>
       <use style="stroke:#000000;stroke-width:0.8;" x="52.160938" xlink:href="#m5a085744fb" y="250.2008"/>
      </g>
     </g>
     <g id="text_7">
      <!-- −0.4 -->
      <g transform="translate(20.878125 254.000019)scale(0.1 -0.1)">
       <use xlink:href="#DejaVuSans-2212"/>
       <use x="83.789062" xlink:href="#DejaVuSans-30"/>
       <use x="147.412109" xlink:href="#DejaVuSans-2e"/>
       <use x="179.199219" xlink:href="#DejaVuSans-34"/>
      </g>
     </g>
    </g>
    <g id="ytick_2">
     <g id="line2d_7">
      <g>
       <use style="stroke:#000000;stroke-width:0.8;" x="52.160938" xlink:href="#m5a085744fb" y="196.9784"/>
      </g>
     </g>
     <g id="text_8">
      <!-- −0.2 -->
      <g transform="translate(20.878125 200.777619)scale(0.1 -0.1)">
       <use xlink:href="#DejaVuSans-2212"/>
       <use x="83.789062" xlink:href="#DejaVuSans-30"/>
       <use x="147.412109" xlink:href="#DejaVuSans-2e"/>
       <use x="179.199219" xlink:href="#DejaVuSans-32"/>
      </g>
     </g>
    </g>
    <g id="ytick_3">
     <g id="line2d_8">
      <g>
       <use style="stroke:#000000;stroke-width:0.8;" x="52.160938" xlink:href="#m5a085744fb" y="143.756"/>
      </g>
     </g>
     <g id="text_9">
      <!-- 0.0 -->
      <g transform="translate(29.257812 147.555219)scale(0.1 -0.1)">
       <use xlink:href="#DejaVuSans-30"/>
       <use x="63.623047" xlink:href="#DejaVuSans-2e"/>
       <use x="95.410156" xlink:href="#DejaVuSans-30"/>
      </g>
     </g>
    </g>
    <g id="ytick_4">
     <g id="line2d_9">
      <g>
       <use style="stroke:#000000;stroke-width:0.8;" x="52.160938" xlink:href="#m5a085744fb" y="90.5336"/>
      </g>
     </g>
     <g id="text_10">
      <!-- 0.2 -->
      <g transform="translate(29.257812 94.332819)scale(0.1 -0.1)">
       <use xlink:href="#DejaVuSans-30"/>
       <use x="63.623047" xlink:href="#DejaVuSans-2e"/>
       <use x="95.410156" xlink:href="#DejaVuSans-32"/>
      </g>
     </g>
    </g>
    <g id="ytick_5">
     <g id="line2d_10">
      <g>
       <use style="stroke:#000000;stroke-width:0.8;" x="52.160938" xlink:href="#m5a085744fb" y="37.3112"/>
      </g>
     </g>
     <g id="text_11">
      <!-- 0.4 -->
      <g transform="translate(29.257812 41.110419)scale(0.1 -0.1)">
       <use xlink:href="#DejaVuSans-30"/>
       <use x="63.623047" xlink:href="#DejaVuSans-2e"/>
       <use x="95.410156" xlink:href="#DejaVuSans-34"/>
      </g>
     </g>
    </g>
    <g id="text_12">
     <!-- x2 -->
     <g transform="translate(14.798438 149.896625)rotate(-90)scale(0.1 -0.1)">
      <use xlink:href="#DejaVuSans-78"/>
      <use x="59.179688" xlink:href="#DejaVuSans-32"/>
     </g>
    </g>
   </g>
   <g id="line2d_11">
    <path clip-path="url(#pf619a0637f)" d="M 230.720938 10.7 
L 237.51598 10.802974 
L 243.653758 11.098548 
L 249.186865 11.567934 
L 254.163727 12.193831 
L 258.629006 12.96033 
L 262.623944 13.85281 
L 266.186707 14.857833 
L 269.352646 15.963057 
L 272.154506 17.157147 
L 274.622611 18.42971 
L 276.785023 19.771218 
L 278.6677 21.17295 
L 280.294627 22.626928 
L 281.687954 24.125864 
L 282.868113 25.663107 
L 284.072103 27.629337 
L 285.005916 29.635299 
L 285.69982 31.671499 
L 286.181076 33.729505 
L 286.5122 36.217461 
L 286.609904 38.714868 
L 286.47275 41.627621 
L 286.108303 44.527111 
L 285.463331 47.81079 
L 284.50484 51.451149 
L 283.218073 55.412233 
L 281.60651 59.650439 
L 279.525174 64.480184 
L 276.988187 69.794374 
L 273.874663 75.791587 
L 270.110619 82.556024 
L 265.396251 90.552293 
L 259.556168 99.996839 
L 252.149685 111.532567 
L 241.796395 127.214914 
L 230.720937 143.756 
L 230.720938 143.756 
" style="fill:none;stroke:#1f77b4;stroke-linecap:square;stroke-width:0.5;"/>
   </g>
   <g id="line2d_12">
    <path clip-path="url(#pf619a0637f)" d="M 292.020663 10.7 
L 293.049292 13.003895 
L 293.806791 15.340985 
L 294.324001 17.701824 
L 294.629173 20.077903 
L 294.750648 22.938913 
L 294.64123 25.800051 
L 294.266427 29.125542 
L 293.669221 32.425509 
L 292.765003 36.152151 
L 291.523893 40.272605 
L 289.934315 44.745334 
L 288.003395 49.520845 
L 285.562818 54.952676 
L 282.634779 60.919598 
L 279.083081 67.644416 
L 274.82613 75.221684 
L 269.702472 83.882726 
L 263.445729 94.014891 
L 255.53691 106.379476 
L 245.119952 122.224758 
L 230.720937 143.756 
L 230.720938 143.756 
" style="fill:none;stroke:#1f77b4;stroke-linecap:square;stroke-width:0.5;"/>
   </g>
   <g id="line2d_13">
    <path clip-path="url(#pf619a0637f)" d="M 369.699764 10.7 
L 359.019454 16.669796 
L 349.615116 22.191363 
L 341.287556 27.317219 
L 332.720593 32.856183 
L 325.197234 37.976266 
L 317.667031 43.378666 
L 311.088604 48.36141 
L 304.631004 53.529629 
L 298.420479 58.800023 
L 292.541912 64.102141 
L 287.04402 69.377946 
L 281.945756 74.580643 
L 276.934348 80.018482 
L 272.129078 85.55971 
L 267.163082 91.63874 
L 262.107966 98.192743 
L 256.656517 105.639436 
L 250.293145 114.727042 
L 241.03305 128.386579 
L 230.720937 143.756 
L 230.720938 143.756 
" style="fill:none;stroke:#1f77b4;stroke-linecap:square;stroke-width:0.5;"/>
   </g>
   <g id="line2d_14">
    <path clip-path="url(#pf619a0637f)" d="M 409.280938 56.826177 
L 388.548059 64.333756 
L 370.807547 70.983444 
L 353.1493 77.817089 
L 334.27709 85.373305 
L 317.265883 92.433287 
L 302.266132 98.88911 
L 288.361445 105.117216 
L 276.870371 110.504043 
L 267.526556 115.115716 
L 259.641844 119.253044 
L 253.53538 122.701095 
L 248.6381 125.715822 
L 244.815214 128.321495 
L 241.781023 130.647194 
L 239.297425 132.82374 
L 237.21811 134.936817 
L 235.325968 137.179929 
L 233.28447 139.968429 
L 230.720937 143.756 
L 230.720937 143.756 
" style="fill:none;stroke:#1f77b4;stroke-linecap:square;stroke-width:0.5;"/>
   </g>
   <g id="line2d_15">
    <path clip-path="url(#pf619a0637f)" d="M 409.280938 110.061645 
L 373.733077 120.796503 
L 299.073296 143.451264 
L 280.831376 148.711909 
L 266.796348 152.537963 
L 255.991427 155.259651 
L 247.688357 157.13175 
L 241.331997 158.352012 
L 236.492877 159.074543 
L 232.83665 159.419441 
L 229.908722 159.474982 
L 227.804929 159.288627 
L 226.42212 158.962572 
L 225.385723 158.492564 
L 224.713832 157.940654 
L 224.314971 157.337526 
L 224.1034 156.607574 
L 224.094941 155.716962 
L 224.31557 154.646162 
L 224.852709 153.225234 
L 225.823063 151.33865 
L 227.540167 148.539869 
L 230.720938 143.756 
L 230.720938 143.756 
" style="fill:none;stroke:#1f77b4;stroke-linecap:square;stroke-width:0.5;"/>
   </g>
   <g id="line2d_16">
    <path clip-path="url(#pf619a0637f)" d="M 409.280938 154.781334 
L 350.458002 170.150301 
L 325.161866 176.509682 
L 306.66496 180.940164 
L 290.947332 184.48055 
L 277.563292 187.263697 
L 266.159512 189.401721 
L 256.447866 190.990171 
L 248.189065 192.110887 
L 241.181372 192.834249 
L 235.252892 193.220914 
L 230.256059 193.323232 
L 226.063554 193.186396 
L 222.565187 192.849424 
L 219.665409 192.345976 
L 217.281328 191.705057 
L 215.340998 190.951633 
L 213.781921 190.107188 
L 212.549823 189.190177 
L 211.597706 188.216395 
L 210.884837 187.19935 
L 210.318015 185.998758 
L 209.972538 184.771183 
L 209.80107 183.372788 
L 209.827297 181.813627 
L 210.090974 179.955472 
L 210.631703 177.829683 
L 211.512243 175.338568 
L 212.791735 172.430936 
L 214.554519 169.000211 
L 216.988029 164.770894 
L 220.483444 159.175348 
L 226.198935 150.502319 
L 230.720938 143.756 
L 230.720937 143.756 
" style="fill:none;stroke:#1f77b4;stroke-linecap:square;stroke-width:0.5;"/>
   </g>
   <g id="line2d_17">
    <path clip-path="url(#pf619a0637f)" d="M 409.280938 202.119773 
L 373.136782 210.460322 
L 347.141848 216.231441 
L 328.309042 220.210911 
L 311.648239 223.530224 
L 296.870037 226.264664 
L 283.741228 228.479883 
L 272.069557 230.233648 
L 261.693603 231.577127 
L 252.474782 232.55597 
L 244.292783 233.211007 
L 237.042008 233.578851 
L 230.628739 233.692423 
L 224.969299 233.581338 
L 219.988592 233.272258 
L 215.61895 232.78919 
L 211.799265 232.153743 
L 208.474272 231.38536 
L 205.593939 230.501524 
L 203.11295 229.517946 
L 200.990274 228.448728 
L 199.188775 227.306516 
L 197.674858 226.102639 
L 196.418144 224.847235 
L 195.39119 223.549361 
L 194.427368 221.947192 
L 193.720509 220.307813 
L 193.23681 218.641942 
L 192.914967 216.677271 
L 192.815112 214.701769 
L 192.927345 212.44434 
L 193.288584 209.920595 
L 193.919367 207.153464 
L 194.823542 204.172685 
L 196.093168 200.755314 
L 197.84464 196.729645 
L 200.059227 192.230766 
L 202.894406 187.001255 
L 206.522018 180.803673 
L 211.258412 173.180951 
L 217.828081 163.064284 
L 229.42588 145.686109 
L 230.720938 143.756 
L 230.720937 143.756 
" style="fill:none;stroke:#1f77b4;stroke-linecap:square;stroke-width:0.5;"/>
   </g>
   <g id="line2d_18">
    <path clip-path="url(#pf619a0637f)" d="M 409.280938 266.242677 
L 402.823042 267.548993 
L 396.550842 268.808009 
L 390.456631 270.02096 
L 384.533043 271.189091 
L 378.772837 272.313665 
L 373.169254 273.395894 
L 367.716043 274.43693 
L 362.407415 275.437874 
L 357.23795 276.399783 
L 352.202568 277.323679 
" style="fill:none;stroke:#1f77b4;stroke-linecap:square;stroke-width:0.5;"/>
   </g>
   <g id="line2d_19">
    <path clip-path="url(#pf619a0637f)" d="M 327.352777 276.812 
L 323.133473 277.516236 
" style="fill:none;stroke:#1f77b4;stroke-linecap:square;stroke-width:0.5;"/>
   </g>
   <g id="line2d_20">
    <path clip-path="url(#pf619a0637f)" d="M 260.517332 276.812 
L 258.014989 277.02466 
" style="fill:none;stroke:#1f77b4;stroke-linecap:square;stroke-width:0.5;"/>
   </g>
   <g id="line2d_21">
    <path clip-path="url(#pf619a0637f)" d="M 200.924543 276.812 
L 196.996736 275.864303 
L 193.497911 274.805973 
L 190.392944 273.649252 
L 187.649075 272.405447 
L 185.236171 271.084856 
L 183.126314 269.696924 
L 181.293633 268.250315 
L 179.71428 266.752928 
L 178.366267 265.211968 
L 177.22928 263.634019 
L 176.076399 261.618672 
L 175.190682 259.56546 
L 174.542018 257.483789 
L 174.103515 255.381916 
L 173.820648 252.843311 
L 173.768033 250.297335 
L 173.954084 247.33039 
L 174.363867 244.379164 
L 175.056782 241.039124 
L 176.064812 237.338618 
L 177.401805 233.314429 
L 179.063542 229.010944 
L 181.198461 224.109071 
L 183.790822 218.717751 
L 186.963344 212.635668 
L 190.961446 205.480634 
L 195.735148 197.411147 
L 201.636794 187.883696 
L 209.216109 176.089068 
L 219.772475 160.106148 
L 230.720938 143.756 
L 230.720937 143.756 
" style="fill:none;stroke:#1f77b4;stroke-linecap:square;stroke-width:0.5;"/>
   </g>
   <g id="line2d_22">
    <path clip-path="url(#pf619a0637f)" d="M 134.089098 276.812 
L 140.041018 270.534777 
L 145.920147 264.001125 
L 151.659795 257.290185 
L 157.651733 249.927943 
L 163.719643 242.107314 
L 170.067299 233.556228 
L 177.043504 223.774662 
L 185.173559 211.975978 
L 196.294488 195.405808 
L 230.720938 143.756 
L 230.720937 143.756 
" style="fill:none;stroke:#1f77b4;stroke-linecap:square;stroke-width:0.5;"/>
   </g>
   <g id="line2d_23">
    <path clip-path="url(#pf619a0637f)" d="M 52.160938 266.242677 
L 67.45749 259.881054 
L 80.915414 254.054131 
L 95.047727 247.679784 
L 107.34601 241.894953 
L 119.776091 235.791883 
L 130.493492 230.291104 
L 141.01436 224.638142 
L 150.014036 219.565548 
L 158.647666 214.450464 
L 166.731443 209.389882 
L 173.529416 204.882046 
L 179.812757 200.459364 
L 185.526549 196.170551 
L 190.656051 192.048871 
L 195.511489 187.85134 
L 199.731632 183.91358 
L 203.784016 179.823541 
L 207.528601 175.726316 
L 211.146984 171.439206 
L 214.845043 166.707775 
L 218.875439 161.178482 
L 224.1188 153.574618 
L 230.720938 143.756 
L 230.720938 143.756 
" style="fill:none;stroke:#1f77b4;stroke-linecap:square;stroke-width:0.5;"/>
   </g>
   <g id="line2d_24">
    <path clip-path="url(#pf619a0637f)" d="M 52.160938 202.119773 
L 78.45003 193.513058 
L 105.94285 184.257586 
L 138.507481 173.030486 
L 215.786755 146.234161 
L 224.415744 143.528657 
L 228.670763 142.399868 
L 230.554453 142.099602 
L 231.239898 142.176663 
L 231.416978 142.384391 
L 231.364251 142.700517 
L 230.970088 143.383346 
L 230.720937 143.756 
L 230.720938 143.756 
" style="fill:none;stroke:#1f77b4;stroke-linecap:square;stroke-width:0.5;"/>
   </g>
   <g id="line2d_25">
    <path clip-path="url(#pf619a0637f)" d="M 52.160938 154.781334 
L 141.814155 129.817412 
L 161.849613 124.549815 
L 178.180557 120.497083 
L 190.169413 117.733006 
L 200.188614 115.623182 
L 208.553645 114.059915 
L 216.308674 112.842269 
L 222.602711 112.094181 
L 227.686646 111.726351 
L 231.76812 111.664805 
L 235.019635 111.848272 
L 237.58476 112.226053 
L 239.583104 112.756247 
L 241.114327 113.404286 
L 242.26141 114.141719 
L 243.093478 114.945167 
L 243.66801 115.79549 
L 244.062153 116.77638 
L 244.260438 117.879545 
L 244.25254 119.192576 
L 244.007746 120.693338 
L 243.492585 122.443062 
L 242.632908 124.560541 
L 241.288595 127.242135 
L 239.308201 130.662391 
L 236.2124 135.525383 
L 230.720937 143.756 
L 230.720938 143.756 
" style="fill:none;stroke:#1f77b4;stroke-linecap:square;stroke-width:0.5;"/>
   </g>
   <g id="line2d_26">
    <path clip-path="url(#pf619a0637f)" d="M 52.160938 110.061645 
L 94.819524 99.57592 
L 121.656023 93.207705 
L 141.228358 88.77957 
L 158.179177 85.166281 
L 172.90057 82.259731 
L 185.703366 79.967439 
L 196.840787 78.20948 
L 206.524005 76.916244 
L 214.932098 76.026819 
L 222.219026 75.487724 
L 228.518675 75.251883 
L 233.948097 75.277837 
L 238.61038 75.529027 
L 242.596531 75.973231 
L 245.987059 76.582061 
L 248.853335 77.330511 
L 251.258643 78.196585 
L 253.259068 79.160952 
L 254.904313 80.206648 
L 256.238427 81.318795 
L 257.300419 82.48437 
L 258.124799 83.69199 
L 258.826751 85.140852 
L 259.28903 86.619908 
L 259.570655 88.332531 
L 259.633748 90.055212 
L 259.492471 91.99063 
L 259.079782 94.33364 
L 258.404 96.840747 
L 257.408005 99.678347 
L 256.010755 102.972118 
L 254.145134 106.784754 
L 251.707332 111.25171 
L 248.45738 116.72682 
L 243.958907 123.840445 
L 236.919547 134.506522 
L 230.720937 143.756 
L 230.720937 143.756 
" style="fill:none;stroke:#1f77b4;stroke-linecap:square;stroke-width:0.5;"/>
   </g>
   <g id="line2d_27">
    <path clip-path="url(#pf619a0637f)" d="M 52.160938 56.826177 
L 85.658955 49.612774 
L 109.670752 44.665281 
L 130.776492 40.556692 
L 149.415166 37.187306 
L 165.924671 34.471762 
L 177.781178 32.719949 
L 188.561316 31.305218 
L 198.363208 30.196983 
L 207.272616 29.367409 
L 215.365574 28.791044 
L 222.710054 28.444585 
L 229.367301 28.30666 
L 235.393044 28.357619 
L 240.838109 28.579411 
L 245.749122 28.955429 
L 250.168968 29.470405 
L 254.137183 30.110296 
L 257.690265 30.862194 
L 260.861936 31.714238 
L 263.683488 32.655524 
L 266.183798 33.676051 
L 268.897927 35.049244 
L 271.199436 36.51573 
L 273.131573 38.060961 
L 274.733473 39.671929 
L 276.040656 41.336982 
L 277.085142 43.045741 
L 277.895805 44.788967 
L 278.498652 46.558448 
L 278.980575 48.706269 
L 279.232972 50.870383 
L 279.279531 53.403122 
L 279.100688 55.932234 
L 278.668383 58.804515 
L 277.947984 61.997196 
L 276.922501 65.479458 
L 275.592506 69.213204 
L 273.834019 73.476098 
L 271.654555 78.174298 
L 268.9474 83.48365 
L 265.497853 89.738453 
L 261.209145 97.027524 
L 255.831546 105.707001 
L 248.740311 116.704507 
L 238.188198 132.616063 
L 230.720937 143.756 
L 230.720937 143.756 
" style="fill:none;stroke:#1f77b4;stroke-linecap:square;stroke-width:0.5;"/>
   </g>
   <g id="line2d_28">
    <path clip-path="url(#pf619a0637f)" d="M 91.742111 10.7 
L 97.139555 9.684645 
" style="fill:none;stroke:#1f77b4;stroke-linecap:square;stroke-width:0.5;"/>
   </g>
   <g id="line2d_29">
    <path clip-path="url(#pf619a0637f)" d="M 169.421212 10.7 
L 172.71753 10.25557 
" style="fill:none;stroke:#1f77b4;stroke-linecap:square;stroke-width:0.5;"/>
   </g>
   <g id="line2d_30">
    <path clip-path="url(#pf619a0637f)" d="M 230.720937 10.7 
L 237.51598 10.802974 
L 243.653758 11.098548 
L 249.186865 11.567934 
L 254.163727 12.193831 
L 258.629006 12.96033 
L 262.623944 13.85281 
L 266.186707 14.857833 
L 269.352646 15.963057 
L 272.154506 17.157147 
L 274.622611 18.42971 
L 276.785023 19.771218 
L 278.6677 21.17295 
L 280.294627 22.626928 
L 281.687954 24.125864 
L 282.868113 25.663107 
L 284.072103 27.629337 
L 285.005916 29.635299 
L 285.69982 31.671499 
L 286.181076 33.729505 
L 286.5122 36.217461 
L 286.609904 38.714868 
L 286.47275 41.627621 
L 286.108303 44.527111 
L 285.463331 47.81079 
L 284.50484 51.451149 
L 283.218073 55.412233 
L 281.60651 59.650439 
L 279.525174 64.480184 
L 276.988187 69.794374 
L 273.874663 75.791587 
L 270.110619 82.556024 
L 265.396251 90.552293 
L 259.556168 99.996839 
L 252.149685 111.532567 
L 241.796395 127.214914 
L 230.720937 143.756 
L 230.720938 143.756 
" style="fill:none;stroke:#1f77b4;stroke-linecap:square;stroke-width:0.5;"/>
   </g>
   <g id="line2d_31">
    <path clip-path="url(#pf619a0637f)" d="M 230.720938 143.756 
" style="fill:none;stroke:#1f77b4;stroke-linecap:square;stroke-width:1.5;"/>
   </g>
   <g id="line2d_32">
    <path clip-path="url(#pf619a0637f)" d="M 230.720938 10.7 
L 237.515994 10.802978 
L 243.654094 11.098556 
L 249.188413 11.567954 
L 254.167984 12.193916 
L 258.637936 12.960619 
L 262.640008 13.853487 
L 266.212674 14.859137 
L 269.391366 15.965303 
L 272.208712 17.160746 
L 274.694783 18.435158 
L 276.877311 19.779089 
L 278.781864 21.183874 
L 280.432003 22.641581 
L 281.849434 24.144952 
L 283.054139 25.687354 
L 284.288774 27.661063 
L 285.252475 29.675628 
L 285.974809 31.721516 
L 286.482441 33.79024 
L 286.841865 36.292292 
L 286.963663 38.804974 
L 286.880532 41.318406 
L 286.562814 44.240409 
L 285.957009 47.552383 
L 285.026143 51.226841 
L 283.752333 55.22736 
L 282.137286 59.50932 
L 280.200597 64.021436 
L 277.802426 69.059166 
L 274.803748 74.833861 
L 271.111694 81.442185 
L 266.562392 89.105984 
L 260.899859 98.190481 
L 253.420535 109.745174 
L 241.895372 127.0921 
L 230.720937 143.756 
L 230.720937 143.756 
" style="fill:none;stroke:#ff7f0e;stroke-linecap:square;stroke-width:0.5;"/>
   </g>
   <g id="line2d_33">
    <path clip-path="url(#pf619a0637f)" d="M 292.020663 10.7 
L 292.936481 12.541212 
L 293.827578 14.8766 
L 294.465387 17.240486 
L 294.878452 19.623874 
L 295.09226 22.018857 
L 295.117883 24.898365 
L 294.924694 27.774013 
L 294.464121 31.112008 
L 293.791197 34.420216 
L 292.809344 38.151754 
L 291.489282 42.272529 
L 289.81996 46.739673 
L 287.80882 51.502449 
L 285.281747 56.911173 
L 282.264411 62.841626 
L 278.620981 69.510427 
L 274.082579 77.328182 
L 268.546274 86.393405 
L 261.568384 97.364107 
L 252.096112 111.806498 
L 235.321157 136.899991 
L 230.720937 143.756 
L 230.720937 143.756 
" style="fill:none;stroke:#ff7f0e;stroke-linecap:square;stroke-width:0.5;"/>
   </g>
   <g id="line2d_34">
    <path clip-path="url(#pf619a0637f)" d="M 369.699764 10.7 
L 357.050531 18.599703 
L 345.96229 25.792854 
L 336.215873 32.366009 
L 326.623543 39.11183 
L 318.268737 45.257002 
L 310.208463 51.473128 
L 303.228426 57.130078 
L 296.587469 62.794446 
L 290.36423 68.398806 
L 284.600927 73.890038 
L 279.309921 79.227566 
L 274.184786 84.706424 
L 269.090641 90.488298 
L 264.211789 96.365605 
L 259.163839 102.807385 
L 253.903764 109.893398 
L 247.889028 118.389845 
L 239.821233 130.211678 
L 230.720937 143.756 
L 230.720938 143.756 
" style="fill:none;stroke:#ff7f0e;stroke-linecap:square;stroke-width:0.5;"/>
   </g>
   <g id="line2d_35">
    <path clip-path="url(#pf619a0637f)" d="M 409.280938 56.826177 
L 371.429768 72.212728 
L 340.087375 85.182784 
L 314.7225 95.921246 
L 295.71628 104.197531 
L 280.62088 111.001369 
L 268.857874 116.538138 
L 259.845087 121.015778 
L 253.036571 124.629976 
L 247.736552 127.682317 
L 243.727598 130.233417 
L 240.559218 132.509604 
L 238.111833 134.542328 
L 236.176841 136.434262 
L 234.466435 138.422692 
L 232.654561 140.895957 
L 230.720937 143.756 
L 230.720938 143.756 
" style="fill:none;stroke:#ff7f0e;stroke-linecap:square;stroke-width:0.5;"/>
   </g>
   <g id="line2d_36">
    <path clip-path="url(#pf619a0637f)" d="M 409.280938 110.061645 
L 373.021224 121.969997 
L 343.524425 131.436715 
L 319.554859 138.918381 
L 298.371868 145.298414 
L 281.566957 150.128192 
L 268.26507 153.729412 
L 257.764542 156.359402 
L 249.502887 158.223855 
L 242.516052 159.576952 
L 237.193506 160.382766 
L 233.17004 160.773126 
L 230.158939 160.850865 
L 227.935241 160.696038 
L 226.322499 160.370846 
L 225.182405 159.923484 
L 224.406624 159.391176 
L 223.879447 158.751685 
L 223.583605 158.020438 
L 223.493119 157.1619 
L 223.61671 156.144969 
L 224.00673 154.854932 
L 224.772085 153.153536 
L 226.083791 150.830273 
L 228.468724 147.120669 
L 230.720938 143.756 
L 230.720938 143.756 
" style="fill:none;stroke:#ff7f0e;stroke-linecap:square;stroke-width:0.5;"/>
   </g>
   <g id="line2d_37">
    <path clip-path="url(#pf619a0637f)" d="M 409.280938 154.781334 
L 383.293984 162.171523 
L 360.41724 168.470648 
L 340.293419 173.809825 
L 322.606488 178.30486 
L 304.679436 182.618348 
L 289.298121 186.064714 
L 276.12298 188.767673 
L 264.859011 190.834436 
L 255.250005 192.357852 
L 247.073445 193.418305 
L 240.136102 194.085357 
L 234.27021 194.419165 
L 229.330121 194.471724 
L 225.189377 194.287962 
L 221.738254 193.906644 
L 218.881546 193.361198 
L 216.536638 192.680434 
L 214.63195 191.889117 
L 213.10535 191.008556 
L 211.90298 190.057044 
L 210.978205 189.050239 
L 210.290621 188.001542 
L 209.750568 186.766331 
L 209.429975 185.505677 
L 209.284658 184.071782 
L 209.338083 182.475172 
L 209.63234 180.574661 
L 210.20644 178.402789 
L 211.124666 175.860223 
L 212.446871 172.895341 
L 214.258673 169.400277 
L 216.750473 165.095723 
L 220.31823 159.406698 
L 226.267364 150.397986 
L 230.720938 143.756 
L 230.720938 143.756 
" style="fill:none;stroke:#ff7f0e;stroke-linecap:square;stroke-width:0.5;"/>
   </g>
   <g id="line2d_38">
    <path clip-path="url(#pf619a0637f)" d="M 409.280938 202.119773 
L 384.413508 208.301306 
L 362.107862 213.604503 
L 342.114793 218.120334 
L 324.208904 221.930942 
L 308.187386 225.110103 
L 293.866395 227.724569 
L 281.079685 229.834581 
L 269.677231 231.494374 
L 259.523097 232.752979 
L 250.494423 233.654592 
L 242.480185 234.239041 
L 235.380022 234.542216 
L 229.103219 234.596452 
L 223.567766 234.430878 
L 218.699552 234.071712 
L 214.431604 233.542549 
L 210.703428 232.864604 
L 207.460367 232.056948 
L 204.653031 231.136725 
L 202.236811 230.119324 
L 200.17144 229.01855 
L 198.420555 227.846782 
L 196.951306 226.61512 
L 195.734033 225.333501 
L 194.741989 224.010808 
L 193.815029 222.380467 
L 193.140528 220.714455 
L 192.685579 219.023308 
L 192.39371 217.030679 
L 192.320912 215.028704 
L 192.461492 212.742674 
L 192.852389 210.18869 
L 193.514301 207.390222 
L 194.451277 204.377595 
L 195.758292 200.925987 
L 197.43765 197.110629 
L 199.697083 192.557275 
L 202.589762 187.268166 
L 206.287725 181.006533 
L 211.105233 173.316781 
L 217.949623 162.845669 
L 230.720938 143.756 
L 230.720937 143.756 
" style="fill:none;stroke:#ff7f0e;stroke-linecap:square;stroke-width:0.5;"/>
   </g>
   <g id="line2d_39">
    <path clip-path="url(#pf619a0637f)" d="M 409.280938 266.242677 
L 403.240397 267.550562 
L 397.331378 268.814133 
L 391.551766 270.034166 
L 385.89893 271.211621 
L 380.370475 272.347366 
L 374.963897 273.442313 
L 369.676651 274.497385 
L 364.506256 275.513484 
L 359.450314 276.49148 
L 354.506505 277.432215 
" style="fill:none;stroke:#ff7f0e;stroke-linecap:square;stroke-width:0.5;"/>
   </g>
   <g id="line2d_40">
    <path clip-path="url(#pf619a0637f)" d="M 327.352777 276.812 
L 323.198869 277.516488 
" style="fill:none;stroke:#ff7f0e;stroke-linecap:square;stroke-width:0.5;"/>
   </g>
   <g id="line2d_41">
    <path clip-path="url(#pf619a0637f)" d="M 260.517332 276.812 
L 258.016794 277.024667 
" style="fill:none;stroke:#ff7f0e;stroke-linecap:square;stroke-width:0.5;"/>
   </g>
   <g id="line2d_42">
    <path clip-path="url(#pf619a0637f)" d="M 200.924543 276.812 
L 196.987085 275.864162 
L 193.475771 274.805364 
L 190.355462 273.64776 
L 187.593528 272.402575 
L 185.160094 271.080029 
L 183.0276 269.6895 
L 181.170604 268.239593 
L 179.565726 266.738161 
L 178.191449 265.192382 
L 177.027928 263.608827 
L 175.842175 261.585364 
L 174.924657 259.522828 
L 174.245956 257.430678 
L 173.77978 255.317244 
L 173.467439 252.763487 
L 173.389933 250.201149 
L 173.553215 247.213859 
L 173.947172 244.241279 
L 174.630361 240.876065 
L 175.637495 237.146875 
L 176.984607 233.09116 
L 178.668812 228.754328 
L 180.841961 223.815984 
L 183.488779 218.387786 
L 186.733556 212.269996 
L 190.649059 205.381494 
L 195.537721 197.257224 
L 201.701877 187.473695 
L 209.977114 174.789274 
L 223.816578 154.04715 
L 230.720938 143.756 
L 230.720938 143.756 
" style="fill:none;stroke:#ff7f0e;stroke-linecap:square;stroke-width:0.5;"/>
   </g>
   <g id="line2d_43">
    <path clip-path="url(#pf619a0637f)" d="M 134.089098 276.812 
L 141.797892 267.832078 
L 149.635824 258.340451 
L 157.400715 248.571993 
L 165.312849 238.249144 
L 173.425659 227.296944 
L 182.178881 215.105568 
L 192.307849 200.599926 
L 205.011887 181.987614 
L 227.091948 149.164334 
L 230.720938 143.756 
L 230.720938 143.756 
" style="fill:none;stroke:#ff7f0e;stroke-linecap:square;stroke-width:0.5;"/>
   </g>
   <g id="line2d_44">
    <path clip-path="url(#pf619a0637f)" d="M 52.160938 266.242677 
L 73.123171 256.238387 
L 93.276967 246.3637 
L 110.366558 237.734775 
L 124.885451 230.163162 
L 138.50173 222.799006 
L 149.921334 216.365023 
L 159.529249 210.712323 
L 168.380439 205.250846 
L 176.370788 200.045243 
L 182.9655 195.489408 
L 188.857877 191.158051 
L 194.056145 187.071083 
L 198.87103 182.997205 
L 203.203666 179.026854 
L 207.026303 175.221793 
L 210.628479 171.319839 
L 214.091406 167.232945 
L 217.537573 162.816437 
L 221.38318 157.509039 
L 226.6467 149.821647 
L 230.720938 143.756 
L 230.720937 143.756 
" style="fill:none;stroke:#ff7f0e;stroke-linecap:square;stroke-width:0.5;"/>
   </g>
   <g id="line2d_45">
    <path clip-path="url(#pf619a0637f)" d="M 52.160938 202.119773 
L 115.175801 179.455428 
L 159.489835 163.743384 
L 188.21641 153.78131 
L 206.375445 147.698422 
L 217.868644 144.063893 
L 224.748085 142.105531 
L 228.524477 141.238394 
L 230.532295 140.983563 
L 231.447651 141.062833 
L 231.808154 141.286684 
L 231.893781 141.594823 
L 231.762723 142.071229 
L 231.237354 142.980983 
L 230.720937 143.756 
L 230.720937 143.756 
" style="fill:none;stroke:#ff7f0e;stroke-linecap:square;stroke-width:0.5;"/>
   </g>
   <g id="line2d_46">
    <path clip-path="url(#pf619a0637f)" d="M 52.160938 154.781334 
L 83.957143 145.110974 
L 110.840456 137.185729 
L 133.545697 130.735165 
L 152.698598 125.529362 
L 168.832004 121.372879 
L 182.399618 118.099645 
L 193.788048 115.568468 
L 203.326224 113.659533 
L 211.294194 112.271133 
L 217.930436 111.316944 
L 223.437897 110.723782 
L 227.989249 110.429647 
L 231.73143 110.382035 
L 234.789407 110.536541 
L 237.269481 110.855631 
L 239.262028 111.30762 
L 240.843871 111.865798 
L 242.080286 112.507679 
L 243.127063 113.306444 
L 243.873005 114.164986 
L 244.373312 115.065039 
L 244.696638 116.095771 
L 244.828682 117.248151 
L 244.755178 118.612953 
L 244.44809 120.166296 
L 243.835895 122.068744 
L 242.866641 124.329705 
L 241.411706 127.138328 
L 239.259281 130.784097 
L 235.825001 136.120223 
L 230.720937 143.756 
L 230.720938 143.756 
" style="fill:none;stroke:#ff7f0e;stroke-linecap:square;stroke-width:0.5;"/>
   </g>
   <g id="line2d_47">
    <path clip-path="url(#pf619a0637f)" d="M 52.160938 110.061645 
L 75.472344 103.850763 
L 96.408998 98.463574 
L 118.720794 92.968189 
L 138.299131 88.407967 
L 155.459328 84.667887 
L 170.480777 81.646241 
L 183.611224 79.253041 
L 195.070139 77.408767 
L 205.052049 76.043123 
L 213.729341 75.094001 
L 221.254737 74.506555 
L 227.763528 74.232372 
L 233.375561 74.228736 
L 238.197013 74.457966 
L 242.32189 74.886861 
L 245.833444 75.486172 
L 248.805356 76.230163 
L 251.302854 77.096199 
L 253.383684 78.06438 
L 255.098934 79.117243 
L 256.49376 80.239485 
L 257.608158 81.417684 
L 258.477482 82.6401 
L 259.223417 84.108541 
L 259.721526 85.609253 
L 260.035249 87.34866 
L 260.122158 89.099787 
L 259.999132 91.068617 
L 259.64441 93.23836 
L 258.98881 95.796978 
L 257.99901 98.696052 
L 256.678324 101.871097 
L 254.879549 105.606823 
L 252.478703 110.054624 
L 249.292172 115.458099 
L 244.995291 122.280039 
L 238.329241 132.401505 
L 230.720937 143.756 
L 230.720937 143.756 
" style="fill:none;stroke:#ff7f0e;stroke-linecap:square;stroke-width:0.5;"/>
   </g>
   <g id="line2d_48">
    <path clip-path="url(#pf619a0637f)" d="M 52.160938 56.826177 
L 73.726996 51.829747 
L 93.47936 47.4489 
L 111.560409 43.631771 
L 128.102293 40.330295 
L 143.226483 37.500359 
L 157.044575 35.101506 
L 169.659865 33.096351 
L 181.167707 31.450443 
L 191.655841 30.132149 
L 201.20534 29.112301 
L 209.891012 28.364039 
L 217.781847 27.862655 
L 224.941473 27.585418 
L 231.428552 27.511428 
L 237.297218 27.621453 
L 242.597404 27.897807 
L 247.375132 28.324245 
L 251.672839 28.885836 
L 255.52967 29.568863 
L 258.981708 30.360728 
L 262.062231 31.249865 
L 264.801904 32.225664 
L 267.22897 33.278399 
L 269.862674 34.688995 
L 272.094924 36.190109 
L 273.96767 37.76757 
L 275.518759 39.408699 
L 276.782321 41.102167 
L 277.789156 42.837851 
L 278.567087 44.606704 
L 279.141198 46.400667 
L 279.592757 48.576534 
L 279.818104 50.767404 
L 279.835911 53.329905 
L 279.630156 55.887337 
L 279.168261 58.79029 
L 278.415028 62.015366 
L 277.352718 65.531052 
L 275.98144 69.298388 
L 274.173478 73.596563 
L 271.936989 78.329509 
L 269.163691 83.672268 
L 265.637061 89.957384 
L 261.265273 97.267886 
L 255.68793 106.137817 
L 247.96516 117.966938 
L 234.064664 138.772642 
L 230.720937 143.756 
L 230.720938 143.756 
" style="fill:none;stroke:#ff7f0e;stroke-linecap:square;stroke-width:0.5;"/>
   </g>
   <g id="line2d_49">
    <path clip-path="url(#pf619a0637f)" d="M 91.742111 10.7 
L 96.943578 9.683901 
" style="fill:none;stroke:#ff7f0e;stroke-linecap:square;stroke-width:0.5;"/>
   </g>
   <g id="line2d_50">
    <path clip-path="url(#pf619a0637f)" d="M 169.421212 10.7 
L 172.701108 10.255499 
" style="fill:none;stroke:#ff7f0e;stroke-linecap:square;stroke-width:0.5;"/>
   </g>
   <g id="line2d_51">
    <path clip-path="url(#pf619a0637f)" d="M 230.720937 10.7 
L 237.515994 10.802978 
L 243.654094 11.098556 
L 249.188413 11.567954 
L 254.167984 12.193916 
L 258.637936 12.960619 
L 262.640008 13.853487 
L 266.212674 14.859137 
L 269.391366 15.965303 
L 272.208712 17.160746 
L 274.694783 18.435158 
L 276.877311 19.779089 
L 278.781864 21.183874 
L 280.432003 22.641581 
L 281.849434 24.144952 
L 283.054139 25.687354 
L 284.288774 27.661063 
L 285.252475 29.675628 
L 285.974809 31.721516 
L 286.482441 33.79024 
L 286.841865 36.292292 
L 286.963663 38.804974 
L 286.880532 41.318406 
L 286.562814 44.240409 
L 285.957009 47.552383 
L 285.026143 51.226841 
L 283.752333 55.22736 
L 282.137286 59.50932 
L 280.200597 64.021436 
L 277.802426 69.059166 
L 274.803748 74.833861 
L 271.111694 81.442185 
L 266.562391 89.105984 
L 260.899946 98.19045 
L 253.420573 109.745159 
L 241.895356 127.092103 
L 230.720937 143.756 
L 230.720938 143.756 
" style="fill:none;stroke:#ff7f0e;stroke-linecap:square;stroke-width:0.5;"/>
   </g>
   <g id="line2d_52">
    <path clip-path="url(#pf619a0637f)" d="M 230.720938 143.756 
" style="fill:none;stroke:#ff7f0e;stroke-linecap:square;stroke-width:1.5;"/>
   </g>
   <g id="line2d_53">
    <defs>
     <path d="M 0 3 
C 0.795609 3 1.55874 2.683901 2.12132 2.12132 
C 2.683901 1.55874 3 0.795609 3 0 
C 3 -0.795609 2.683901 -1.55874 2.12132 -2.12132 
C 1.55874 -2.683901 0.795609 -3 0 -3 
C -0.795609 -3 -1.55874 -2.683901 -2.12132 -2.12132 
C -2.683901 -1.55874 -3 -0.795609 -3 0 
C -3 0.795609 -2.683901 1.55874 -2.12132 2.12132 
C -1.55874 2.683901 -0.795609 3 0 3 
z
" id="mad46fd821d" style="stroke:#ff0000;"/>
    </defs>
    <g clip-path="url(#pf619a0637f)">
     <use style="fill:#ff0000;stroke:#ff0000;" x="230.720938" xlink:href="#mad46fd821d" y="143.756"/>
    </g>
   </g>
   <g id="patch_75">
    <path d="M 52.160938 276.812 
L 52.160938 10.7 
" style="fill:none;stroke:#000000;stroke-linecap:square;stroke-linejoin:miter;stroke-width:0.8;"/>
   </g>
   <g id="patch_76">
    <path d="M 409.280938 276.812 
L 409.280938 10.7 
" style="fill:none;stroke:#000000;stroke-linecap:square;stroke-linejoin:miter;stroke-width:0.8;"/>
   </g>
   <g id="patch_77">
    <path d="M 52.160938 276.812 
L 409.280938 276.812 
" style="fill:none;stroke:#000000;stroke-linecap:square;stroke-linejoin:miter;stroke-width:0.8;"/>
   </g>
   <g id="patch_78">
    <path d="M 52.160938 10.7 
L 409.280938 10.7 
" style="fill:none;stroke:#000000;stroke-linecap:square;stroke-linejoin:miter;stroke-width:0.8;"/>
   </g>
   <g id="legend_1">
    <g id="patch_79">
     <path d="M 259.340938 273.812 
L 405.080938 273.812 
Q 406.280938 273.812 406.280938 272.612 
L 406.280938 246.551375 
Q 406.280938 245.351375 405.080938 245.351375 
L 259.340938 245.351375 
Q 258.140938 245.351375 258.140938 246.551375 
L 258.140938 272.612 
Q 258.140938 273.812 259.340938 273.812 
z
" style="fill:#ffffff;opacity:0.8;stroke:#cccccc;stroke-linejoin:miter;"/>
    </g>
    <g id="line2d_54">
     <path d="M 260.540938 250.210437 
L 272.540938 250.210437 
" style="fill:none;stroke:#1f77b4;stroke-linecap:square;stroke-width:1.5;"/>
    </g>
    <g id="line2d_55"/>
    <g id="text_13">
     <!-- system nieliniowy -->
     <defs>
      <path d="M 44.28125 53.078125 
L 44.28125 44.578125 
Q 40.484375 46.53125 36.375 47.5 
Q 32.28125 48.484375 27.875 48.484375 
Q 21.1875 48.484375 17.84375 46.4375 
Q 14.5 44.390625 14.5 40.28125 
Q 14.5 37.15625 16.890625 35.375 
Q 19.28125 33.59375 26.515625 31.984375 
L 29.59375 31.296875 
Q 39.15625 29.25 43.1875 25.515625 
Q 47.21875 21.78125 47.21875 15.09375 
Q 47.21875 7.46875 41.1875 3.015625 
Q 35.15625 -1.421875 24.609375 -1.421875 
Q 20.21875 -1.421875 15.453125 -0.5625 
Q 10.6875 0.296875 5.421875 2 
L 5.421875 11.28125 
Q 10.40625 8.6875 15.234375 7.390625 
Q 20.0625 6.109375 24.8125 6.109375 
Q 31.15625 6.109375 34.5625 8.28125 
Q 37.984375 10.453125 37.984375 14.40625 
Q 37.984375 18.0625 35.515625 20.015625 
Q 33.0625 21.96875 24.703125 23.78125 
L 21.578125 24.515625 
Q 13.234375 26.265625 9.515625 29.90625 
Q 5.8125 33.546875 5.8125 39.890625 
Q 5.8125 47.609375 11.28125 51.796875 
Q 16.75 56 26.8125 56 
Q 31.78125 56 36.171875 55.265625 
Q 40.578125 54.546875 44.28125 53.078125 
" id="DejaVuSans-73"/>
      <path d="M 32.171875 -5.078125 
Q 28.375 -14.84375 24.75 -17.8125 
Q 21.140625 -20.796875 15.09375 -20.796875 
L 7.90625 -20.796875 
L 7.90625 -13.28125 
L 13.1875 -13.28125 
Q 16.890625 -13.28125 18.9375 -11.515625 
Q 21 -9.765625 23.484375 -3.21875 
L 25.09375 0.875 
L 2.984375 54.6875 
L 12.5 54.6875 
L 29.59375 11.921875 
L 46.6875 54.6875 
L 56.203125 54.6875 
z
" id="DejaVuSans-79"/>
      <path d="M 18.3125 70.21875 
L 18.3125 54.6875 
L 36.8125 54.6875 
L 36.8125 47.703125 
L 18.3125 47.703125 
L 18.3125 18.015625 
Q 18.3125 11.328125 20.140625 9.421875 
Q 21.96875 7.515625 27.59375 7.515625 
L 36.8125 7.515625 
L 36.8125 0 
L 27.59375 0 
Q 17.1875 0 13.234375 3.875 
Q 9.28125 7.765625 9.28125 18.015625 
L 9.28125 47.703125 
L 2.6875 47.703125 
L 2.6875 54.6875 
L 9.28125 54.6875 
L 9.28125 70.21875 
z
" id="DejaVuSans-74"/>
      <path d="M 56.203125 29.59375 
L 56.203125 25.203125 
L 14.890625 25.203125 
Q 15.484375 15.921875 20.484375 11.0625 
Q 25.484375 6.203125 34.421875 6.203125 
Q 39.59375 6.203125 44.453125 7.46875 
Q 49.3125 8.734375 54.109375 11.28125 
L 54.109375 2.78125 
Q 49.265625 0.734375 44.1875 -0.34375 
Q 39.109375 -1.421875 33.890625 -1.421875 
Q 20.796875 -1.421875 13.15625 6.1875 
Q 5.515625 13.8125 5.515625 26.8125 
Q 5.515625 40.234375 12.765625 48.109375 
Q 20.015625 56 32.328125 56 
Q 43.359375 56 49.78125 48.890625 
Q 56.203125 41.796875 56.203125 29.59375 
M 47.21875 32.234375 
Q 47.125 39.59375 43.09375 43.984375 
Q 39.0625 48.390625 32.421875 48.390625 
Q 24.90625 48.390625 20.390625 44.140625 
Q 15.875 39.890625 15.1875 32.171875 
z
" id="DejaVuSans-65"/>
      <path d="M 52 44.1875 
Q 55.375 50.25 60.0625 53.125 
Q 64.75 56 71.09375 56 
Q 79.640625 56 84.28125 50.015625 
Q 88.921875 44.046875 88.921875 33.015625 
L 88.921875 0 
L 79.890625 0 
L 79.890625 32.71875 
Q 79.890625 40.578125 77.09375 44.375 
Q 74.3125 48.1875 68.609375 48.1875 
Q 61.625 48.1875 57.5625 43.546875 
Q 53.515625 38.921875 53.515625 30.90625 
L 53.515625 0 
L 44.484375 0 
L 44.484375 32.71875 
Q 44.484375 40.625 41.703125 44.40625 
Q 38.921875 48.1875 33.109375 48.1875 
Q 26.21875 48.1875 22.15625 43.53125 
Q 18.109375 38.875 18.109375 30.90625 
L 18.109375 0 
L 9.078125 0 
L 9.078125 54.6875 
L 18.109375 54.6875 
L 18.109375 46.1875 
Q 21.1875 51.21875 25.484375 53.609375 
Q 29.78125 56 35.6875 56 
Q 41.65625 56 45.828125 52.96875 
Q 50 49.953125 52 44.1875 
" id="DejaVuSans-6d"/>
      <path id="DejaVuSans-20"/>
      <path d="M 54.890625 33.015625 
L 54.890625 0 
L 45.90625 0 
L 45.90625 32.71875 
Q 45.90625 40.484375 42.875 44.328125 
Q 39.84375 48.1875 33.796875 48.1875 
Q 26.515625 48.1875 22.3125 43.546875 
Q 18.109375 38.921875 18.109375 30.90625 
L 18.109375 0 
L 9.078125 0 
L 9.078125 54.6875 
L 18.109375 54.6875 
L 18.109375 46.1875 
Q 21.34375 51.125 25.703125 53.5625 
Q 30.078125 56 35.796875 56 
Q 45.21875 56 50.046875 50.171875 
Q 54.890625 44.34375 54.890625 33.015625 
" id="DejaVuSans-6e"/>
      <path d="M 9.421875 54.6875 
L 18.40625 54.6875 
L 18.40625 0 
L 9.421875 0 
z
M 9.421875 75.984375 
L 18.40625 75.984375 
L 18.40625 64.59375 
L 9.421875 64.59375 
z
" id="DejaVuSans-69"/>
      <path d="M 9.421875 75.984375 
L 18.40625 75.984375 
L 18.40625 0 
L 9.421875 0 
z
" id="DejaVuSans-6c"/>
      <path d="M 30.609375 48.390625 
Q 23.390625 48.390625 19.1875 42.75 
Q 14.984375 37.109375 14.984375 27.296875 
Q 14.984375 17.484375 19.15625 11.84375 
Q 23.34375 6.203125 30.609375 6.203125 
Q 37.796875 6.203125 41.984375 11.859375 
Q 46.1875 17.53125 46.1875 27.296875 
Q 46.1875 37.015625 41.984375 42.703125 
Q 37.796875 48.390625 30.609375 48.390625 
M 30.609375 56 
Q 42.328125 56 49.015625 48.375 
Q 55.71875 40.765625 55.71875 27.296875 
Q 55.71875 13.875 49.015625 6.21875 
Q 42.328125 -1.421875 30.609375 -1.421875 
Q 18.84375 -1.421875 12.171875 6.21875 
Q 5.515625 13.875 5.515625 27.296875 
Q 5.515625 40.765625 12.171875 48.375 
Q 18.84375 56 30.609375 56 
" id="DejaVuSans-6f"/>
      <path d="M 4.203125 54.6875 
L 13.1875 54.6875 
L 24.421875 12.015625 
L 35.59375 54.6875 
L 46.1875 54.6875 
L 57.421875 12.015625 
L 68.609375 54.6875 
L 77.59375 54.6875 
L 63.28125 0 
L 52.6875 0 
L 40.921875 44.828125 
L 29.109375 0 
L 18.5 0 
z
" id="DejaVuSans-77"/>
     </defs>
     <g transform="translate(277.340938 252.310437)scale(0.06 -0.06)">
      <use xlink:href="#DejaVuSans-73"/>
      <use x="52.099609" xlink:href="#DejaVuSans-79"/>
      <use x="111.279297" xlink:href="#DejaVuSans-73"/>
      <use x="163.378906" xlink:href="#DejaVuSans-74"/>
      <use x="202.587891" xlink:href="#DejaVuSans-65"/>
      <use x="264.111328" xlink:href="#DejaVuSans-6d"/>
      <use x="361.523438" xlink:href="#DejaVuSans-20"/>
      <use x="393.310547" xlink:href="#DejaVuSans-6e"/>
      <use x="456.689453" xlink:href="#DejaVuSans-69"/>
      <use x="484.472656" xlink:href="#DejaVuSans-65"/>
      <use x="545.996094" xlink:href="#DejaVuSans-6c"/>
      <use x="573.779297" xlink:href="#DejaVuSans-69"/>
      <use x="601.5625" xlink:href="#DejaVuSans-6e"/>
      <use x="664.941406" xlink:href="#DejaVuSans-69"/>
      <use x="692.724609" xlink:href="#DejaVuSans-6f"/>
      <use x="753.90625" xlink:href="#DejaVuSans-77"/>
      <use x="835.693359" xlink:href="#DejaVuSans-79"/>
     </g>
    </g>
    <g id="line2d_56">
     <path d="M 260.540938 259.017312 
L 272.540938 259.017312 
" style="fill:none;stroke:#ff7f0e;stroke-linecap:square;stroke-width:1.5;"/>
    </g>
    <g id="line2d_57"/>
    <g id="text_14">
     <!-- system zlinearyzowany -->
     <defs>
      <path d="M 5.515625 54.6875 
L 48.1875 54.6875 
L 48.1875 46.484375 
L 14.40625 7.171875 
L 48.1875 7.171875 
L 48.1875 0 
L 4.296875 0 
L 4.296875 8.203125 
L 38.09375 47.515625 
L 5.515625 47.515625 
z
" id="DejaVuSans-7a"/>
      <path d="M 34.28125 27.484375 
Q 23.390625 27.484375 19.1875 25 
Q 14.984375 22.515625 14.984375 16.5 
Q 14.984375 11.71875 18.140625 8.90625 
Q 21.296875 6.109375 26.703125 6.109375 
Q 34.1875 6.109375 38.703125 11.40625 
Q 43.21875 16.703125 43.21875 25.484375 
L 43.21875 27.484375 
z
M 52.203125 31.203125 
L 52.203125 0 
L 43.21875 0 
L 43.21875 8.296875 
Q 40.140625 3.328125 35.546875 0.953125 
Q 30.953125 -1.421875 24.3125 -1.421875 
Q 15.921875 -1.421875 10.953125 3.296875 
Q 6 8.015625 6 15.921875 
Q 6 25.140625 12.171875 29.828125 
Q 18.359375 34.515625 30.609375 34.515625 
L 43.21875 34.515625 
L 43.21875 35.40625 
Q 43.21875 41.609375 39.140625 45 
Q 35.0625 48.390625 27.6875 48.390625 
Q 23 48.390625 18.546875 47.265625 
Q 14.109375 46.140625 10.015625 43.890625 
L 10.015625 52.203125 
Q 14.9375 54.109375 19.578125 55.046875 
Q 24.21875 56 28.609375 56 
Q 40.484375 56 46.34375 49.84375 
Q 52.203125 43.703125 52.203125 31.203125 
" id="DejaVuSans-61"/>
      <path d="M 41.109375 46.296875 
Q 39.59375 47.171875 37.8125 47.578125 
Q 36.03125 48 33.890625 48 
Q 26.265625 48 22.1875 43.046875 
Q 18.109375 38.09375 18.109375 28.8125 
L 18.109375 0 
L 9.078125 0 
L 9.078125 54.6875 
L 18.109375 54.6875 
L 18.109375 46.1875 
Q 20.953125 51.171875 25.484375 53.578125 
Q 30.03125 56 36.53125 56 
Q 37.453125 56 38.578125 55.875 
Q 39.703125 55.765625 41.0625 55.515625 
z
" id="DejaVuSans-72"/>
     </defs>
     <g transform="translate(277.340938 261.117312)scale(0.06 -0.06)">
      <use xlink:href="#DejaVuSans-73"/>
      <use x="52.099609" xlink:href="#DejaVuSans-79"/>
      <use x="111.279297" xlink:href="#DejaVuSans-73"/>
      <use x="163.378906" xlink:href="#DejaVuSans-74"/>
      <use x="202.587891" xlink:href="#DejaVuSans-65"/>
      <use x="264.111328" xlink:href="#DejaVuSans-6d"/>
      <use x="361.523438" xlink:href="#DejaVuSans-20"/>
      <use x="393.310547" xlink:href="#DejaVuSans-7a"/>
      <use x="445.800781" xlink:href="#DejaVuSans-6c"/>
      <use x="473.583984" xlink:href="#DejaVuSans-69"/>
      <use x="501.367188" xlink:href="#DejaVuSans-6e"/>
      <use x="564.746094" xlink:href="#DejaVuSans-65"/>
      <use x="626.269531" xlink:href="#DejaVuSans-61"/>
      <use x="687.548828" xlink:href="#DejaVuSans-72"/>
      <use x="728.662109" xlink:href="#DejaVuSans-79"/>
      <use x="787.841797" xlink:href="#DejaVuSans-7a"/>
      <use x="840.332031" xlink:href="#DejaVuSans-6f"/>
      <use x="901.513672" xlink:href="#DejaVuSans-77"/>
      <use x="983.300781" xlink:href="#DejaVuSans-61"/>
      <use x="1044.580078" xlink:href="#DejaVuSans-6e"/>
      <use x="1107.958984" xlink:href="#DejaVuSans-79"/>
     </g>
    </g>
    <g id="line2d_58"/>
    <g id="line2d_59">
     <g>
      <use style="fill:#ff0000;stroke:#ff0000;" x="266.540938" xlink:href="#mad46fd821d" y="268.064187"/>
     </g>
    </g>
    <g id="text_15">
     <!-- Punkt równowagi asymptotycznie stabilny -->
     <defs>
      <path d="M 19.671875 64.796875 
L 19.671875 37.40625 
L 32.078125 37.40625 
Q 38.96875 37.40625 42.71875 40.96875 
Q 46.484375 44.53125 46.484375 51.125 
Q 46.484375 57.671875 42.71875 61.234375 
Q 38.96875 64.796875 32.078125 64.796875 
z
M 9.8125 72.90625 
L 32.078125 72.90625 
Q 44.34375 72.90625 50.609375 67.359375 
Q 56.890625 61.8125 56.890625 51.125 
Q 56.890625 40.328125 50.609375 34.8125 
Q 44.34375 29.296875 32.078125 29.296875 
L 19.671875 29.296875 
L 19.671875 0 
L 9.8125 0 
z
" id="DejaVuSans-50"/>
      <path d="M 8.5 21.578125 
L 8.5 54.6875 
L 17.484375 54.6875 
L 17.484375 21.921875 
Q 17.484375 14.15625 20.5 10.265625 
Q 23.53125 6.390625 29.59375 6.390625 
Q 36.859375 6.390625 41.078125 11.03125 
Q 45.3125 15.671875 45.3125 23.6875 
L 45.3125 54.6875 
L 54.296875 54.6875 
L 54.296875 0 
L 45.3125 0 
L 45.3125 8.40625 
Q 42.046875 3.421875 37.71875 1 
Q 33.40625 -1.421875 27.6875 -1.421875 
Q 18.265625 -1.421875 13.375 4.4375 
Q 8.5 10.296875 8.5 21.578125 
M 31.109375 56 
z
" id="DejaVuSans-75"/>
      <path d="M 9.078125 75.984375 
L 18.109375 75.984375 
L 18.109375 31.109375 
L 44.921875 54.6875 
L 56.390625 54.6875 
L 27.390625 29.109375 
L 57.625 0 
L 45.90625 0 
L 18.109375 26.703125 
L 18.109375 0 
L 9.078125 0 
z
" id="DejaVuSans-6b"/>
      <path d="M 30.609375 48.390625 
Q 23.390625 48.390625 19.1875 42.75 
Q 14.984375 37.109375 14.984375 27.296875 
Q 14.984375 17.484375 19.15625 11.84375 
Q 23.34375 6.203125 30.609375 6.203125 
Q 37.796875 6.203125 41.984375 11.859375 
Q 46.1875 17.53125 46.1875 27.296875 
Q 46.1875 37.015625 41.984375 42.703125 
Q 37.796875 48.390625 30.609375 48.390625 
M 30.609375 56 
Q 42.328125 56 49.015625 48.375 
Q 55.71875 40.765625 55.71875 27.296875 
Q 55.71875 13.875 49.015625 6.21875 
Q 42.328125 -1.421875 30.609375 -1.421875 
Q 18.84375 -1.421875 12.171875 6.21875 
Q 5.515625 13.875 5.515625 27.296875 
Q 5.515625 40.765625 12.171875 48.375 
Q 18.84375 56 30.609375 56 
M 37.40625 79.984375 
L 47.125 79.984375 
L 31.21875 61.625 
L 23.734375 61.625 
z
" id="DejaVuSans-f3"/>
      <path d="M 45.40625 27.984375 
Q 45.40625 37.75 41.375 43.109375 
Q 37.359375 48.484375 30.078125 48.484375 
Q 22.859375 48.484375 18.828125 43.109375 
Q 14.796875 37.75 14.796875 27.984375 
Q 14.796875 18.265625 18.828125 12.890625 
Q 22.859375 7.515625 30.078125 7.515625 
Q 37.359375 7.515625 41.375 12.890625 
Q 45.40625 18.265625 45.40625 27.984375 
M 54.390625 6.78125 
Q 54.390625 -7.171875 48.1875 -13.984375 
Q 42 -20.796875 29.203125 -20.796875 
Q 24.46875 -20.796875 20.265625 -20.09375 
Q 16.0625 -19.390625 12.109375 -17.921875 
L 12.109375 -9.1875 
Q 16.0625 -11.328125 19.921875 -12.34375 
Q 23.78125 -13.375 27.78125 -13.375 
Q 36.625 -13.375 41.015625 -8.765625 
Q 45.40625 -4.15625 45.40625 5.171875 
L 45.40625 9.625 
Q 42.625 4.78125 38.28125 2.390625 
Q 33.9375 0 27.875 0 
Q 17.828125 0 11.671875 7.65625 
Q 5.515625 15.328125 5.515625 27.984375 
Q 5.515625 40.671875 11.671875 48.328125 
Q 17.828125 56 27.875 56 
Q 33.9375 56 38.28125 53.609375 
Q 42.625 51.21875 45.40625 46.390625 
L 45.40625 54.6875 
L 54.390625 54.6875 
z
" id="DejaVuSans-67"/>
      <path d="M 18.109375 8.203125 
L 18.109375 -20.796875 
L 9.078125 -20.796875 
L 9.078125 54.6875 
L 18.109375 54.6875 
L 18.109375 46.390625 
Q 20.953125 51.265625 25.265625 53.625 
Q 29.59375 56 35.59375 56 
Q 45.5625 56 51.78125 48.09375 
Q 58.015625 40.1875 58.015625 27.296875 
Q 58.015625 14.40625 51.78125 6.484375 
Q 45.5625 -1.421875 35.59375 -1.421875 
Q 29.59375 -1.421875 25.265625 0.953125 
Q 20.953125 3.328125 18.109375 8.203125 
M 48.6875 27.296875 
Q 48.6875 37.203125 44.609375 42.84375 
Q 40.53125 48.484375 33.40625 48.484375 
Q 26.265625 48.484375 22.1875 42.84375 
Q 18.109375 37.203125 18.109375 27.296875 
Q 18.109375 17.390625 22.1875 11.75 
Q 26.265625 6.109375 33.40625 6.109375 
Q 40.53125 6.109375 44.609375 11.75 
Q 48.6875 17.390625 48.6875 27.296875 
" id="DejaVuSans-70"/>
      <path d="M 48.78125 52.59375 
L 48.78125 44.1875 
Q 44.96875 46.296875 41.140625 47.34375 
Q 37.3125 48.390625 33.40625 48.390625 
Q 24.65625 48.390625 19.8125 42.84375 
Q 14.984375 37.3125 14.984375 27.296875 
Q 14.984375 17.28125 19.8125 11.734375 
Q 24.65625 6.203125 33.40625 6.203125 
Q 37.3125 6.203125 41.140625 7.25 
Q 44.96875 8.296875 48.78125 10.40625 
L 48.78125 2.09375 
Q 45.015625 0.34375 40.984375 -0.53125 
Q 36.96875 -1.421875 32.421875 -1.421875 
Q 20.0625 -1.421875 12.78125 6.34375 
Q 5.515625 14.109375 5.515625 27.296875 
Q 5.515625 40.671875 12.859375 48.328125 
Q 20.21875 56 33.015625 56 
Q 37.15625 56 41.109375 55.140625 
Q 45.0625 54.296875 48.78125 52.59375 
" id="DejaVuSans-63"/>
      <path d="M 48.6875 27.296875 
Q 48.6875 37.203125 44.609375 42.84375 
Q 40.53125 48.484375 33.40625 48.484375 
Q 26.265625 48.484375 22.1875 42.84375 
Q 18.109375 37.203125 18.109375 27.296875 
Q 18.109375 17.390625 22.1875 11.75 
Q 26.265625 6.109375 33.40625 6.109375 
Q 40.53125 6.109375 44.609375 11.75 
Q 48.6875 17.390625 48.6875 27.296875 
M 18.109375 46.390625 
Q 20.953125 51.265625 25.265625 53.625 
Q 29.59375 56 35.59375 56 
Q 45.5625 56 51.78125 48.09375 
Q 58.015625 40.1875 58.015625 27.296875 
Q 58.015625 14.40625 51.78125 6.484375 
Q 45.5625 -1.421875 35.59375 -1.421875 
Q 29.59375 -1.421875 25.265625 0.953125 
Q 20.953125 3.328125 18.109375 8.203125 
L 18.109375 0 
L 9.078125 0 
L 9.078125 75.984375 
L 18.109375 75.984375 
z
" id="DejaVuSans-62"/>
     </defs>
     <g transform="translate(277.340938 270.164187)scale(0.06 -0.06)">
      <use xlink:href="#DejaVuSans-50"/>
      <use x="60.287109" xlink:href="#DejaVuSans-75"/>
      <use x="123.666016" xlink:href="#DejaVuSans-6e"/>
      <use x="187.044922" xlink:href="#DejaVuSans-6b"/>
      <use x="244.955078" xlink:href="#DejaVuSans-74"/>
      <use x="284.164062" xlink:href="#DejaVuSans-20"/>
      <use x="315.951172" xlink:href="#DejaVuSans-72"/>
      <use x="357.033203" xlink:href="#DejaVuSans-f3"/>
      <use x="418.214844" xlink:href="#DejaVuSans-77"/>
      <use x="500.001953" xlink:href="#DejaVuSans-6e"/>
      <use x="563.380859" xlink:href="#DejaVuSans-6f"/>
      <use x="624.5625" xlink:href="#DejaVuSans-77"/>
      <use x="706.349609" xlink:href="#DejaVuSans-61"/>
      <use x="767.628906" xlink:href="#DejaVuSans-67"/>
      <use x="831.105469" xlink:href="#DejaVuSans-69"/>
      <use x="858.888672" xlink:href="#DejaVuSans-20"/>
      <use x="890.675781" xlink:href="#DejaVuSans-61"/>
      <use x="951.955078" xlink:href="#DejaVuSans-73"/>
      <use x="1004.054688" xlink:href="#DejaVuSans-79"/>
      <use x="1063.234375" xlink:href="#DejaVuSans-6d"/>
      <use x="1160.646484" xlink:href="#DejaVuSans-70"/>
      <use x="1224.123047" xlink:href="#DejaVuSans-74"/>
      <use x="1263.332031" xlink:href="#DejaVuSans-6f"/>
      <use x="1324.513672" xlink:href="#DejaVuSans-74"/>
      <use x="1363.722656" xlink:href="#DejaVuSans-79"/>
      <use x="1422.902344" xlink:href="#DejaVuSans-63"/>
      <use x="1477.882812" xlink:href="#DejaVuSans-7a"/>
      <use x="1530.373047" xlink:href="#DejaVuSans-6e"/>
      <use x="1593.751953" xlink:href="#DejaVuSans-69"/>
      <use x="1621.535156" xlink:href="#DejaVuSans-65"/>
      <use x="1683.058594" xlink:href="#DejaVuSans-20"/>
      <use x="1714.845703" xlink:href="#DejaVuSans-73"/>
      <use x="1766.945312" xlink:href="#DejaVuSans-74"/>
      <use x="1806.154297" xlink:href="#DejaVuSans-61"/>
      <use x="1867.433594" xlink:href="#DejaVuSans-62"/>
      <use x="1930.910156" xlink:href="#DejaVuSans-69"/>
      <use x="1958.693359" xlink:href="#DejaVuSans-6c"/>
      <use x="1986.476562" xlink:href="#DejaVuSans-6e"/>
      <use x="2049.855469" xlink:href="#DejaVuSans-79"/>
     </g>
    </g>
   </g>
  </g>
 </g>
 <defs>
  <clipPath id="pf619a0637f">
   <rect height="266.112" width="357.12" x="52.160938" y="10.7"/>
  </clipPath>
 </defs>
</svg>
