<?xml version="1.0" encoding="utf-8" standalone="no"?>
<!DOCTYPE svg PUBLIC "-//W3C//DTD SVG 1.1//EN"
  "http://www.w3.org/Graphics/SVG/1.1/DTD/svg11.dtd">
<!-- Created with matplotlib (http://matplotlib.org/) -->
<svg height="314pt" version="1.1" viewBox="0 0 410 314" width="410pt" xmlns="http://www.w3.org/2000/svg" xmlns:xlink="http://www.w3.org/1999/xlink">
 <defs>
  <style type="text/css">
*{stroke-linecap:butt;stroke-linejoin:round;}
  </style>
 </defs>
 <g id="figure_1">
  <g id="patch_1">
   <path d="M 0 314.36825 
L 410.440313 314.36825 
L 410.440313 0 
L 0 0 
z
" style="fill:#ffffff;"/>
  </g>
  <g id="axes_1">
   <g id="patch_2">
    <path d="M 42.620313 276.812 
L 399.740313 276.812 
L 399.740313 10.7 
L 42.620313 10.7 
z
" style="fill:#ffffff;"/>
   </g>
   <g id="patch_3">
    <path clip-path="url(#p6aef44927f)" d="M 272.229099 22.707222 
L 264.772594 20.577589 
L 267.393902 18.789979 
L 267.419822 18.771667 
L 267.420247 18.772013 
L 270.041556 16.984403 
z
" style="fill:#1f77b4;stroke:#000000;stroke-linejoin:miter;"/>
   </g>
   <g id="patch_4">
    <path clip-path="url(#p6aef44927f)" d="M 262.564767 77.624595 
L 260.356873 71.906117 
L 263.850555 72.389289 
L 263.885747 72.393828 
L 263.885668 72.394145 
L 267.379349 72.877318 
z
" style="fill:#1f77b4;stroke:#000000;stroke-linejoin:miter;"/>
   </g>
   <g id="patch_5">
    <path clip-path="url(#p6aef44927f)" d="M 270.30847 43.319072 
L 267.699115 37.695271 
L 271.222119 38.04054 
L 271.257592 38.043637 
L 271.257526 38.04401 
L 274.780531 38.389279 
z
" style="fill:#1f77b4;stroke:#000000;stroke-linejoin:miter;"/>
   </g>
   <g id="patch_6">
    <path clip-path="url(#p6aef44927f)" d="M 259.183799 89.78636 
L 257.154825 84.031196 
L 260.632497 84.574732 
L 260.667531 84.579901 
L 260.667448 84.580195 
L 264.14512 85.123732 
z
" style="fill:#1f77b4;stroke:#000000;stroke-linejoin:miter;"/>
   </g>
   <g id="patch_7">
    <path clip-path="url(#p6aef44927f)" d="M 271.73099 36.216431 
L 269.742865 30.453356 
L 273.216633 31.010581 
L 273.251657 31.015794 
L 273.251545 31.016181 
L 276.725313 31.573407 
z
" style="fill:#1f77b4;stroke:#000000;stroke-linejoin:miter;"/>
   </g>
   <g id="patch_8">
    <path clip-path="url(#p6aef44927f)" d="M 260.424281 85.50689 
L 258.326735 79.765392 
L 261.810752 80.285872 
L 261.845849 80.290801 
L 261.845768 80.291103 
L 265.329785 80.811583 
z
" style="fill:#1f77b4;stroke:#000000;stroke-linejoin:miter;"/>
   </g>
   <g id="patch_9">
    <path clip-path="url(#p6aef44927f)" d="M 298.944184 16.534765 
L 305.095997 12.740837 
L 305.898171 15.320297 
L 305.90981 15.345604 
L 305.906233 15.346221 
L 306.708407 17.925682 
z
" style="fill:#1f77b4;stroke:#000000;stroke-linejoin:miter;"/>
   </g>
   <g id="patch_10">
    <path clip-path="url(#p6aef44927f)" d="M 264.886148 68.333656 
L 262.576501 62.637538 
L 266.078488 63.086084 
L 266.113761 63.090258 
L 266.113684 63.090592 
L 269.615672 63.539138 
z
" style="fill:#1f77b4;stroke:#000000;stroke-linejoin:miter;"/>
   </g>
   <g id="patch_11">
    <path clip-path="url(#p6aef44927f)" d="M 340.394798 33.425187 
L 347.183652 30.292069 
L 347.506108 32.928959 
L 347.522453 32.95457 
L 347.509348 32.95546 
L 347.831804 35.59235 
z
" style="fill:#1f77b4;stroke:#000000;stroke-linejoin:miter;"/>
   </g>
   <g id="patch_12">
    <path clip-path="url(#p6aef44927f)" d="M 266.519462 62.00773 
L 265.072844 56.15574 
L 268.486343 56.891256 
L 268.520786 56.898296 
L 268.520649 56.898649 
L 271.934148 57.634165 
z
" style="fill:#1f77b4;stroke:#000000;stroke-linejoin:miter;"/>
   </g>
   <g id="patch_13">
    <path clip-path="url(#p6aef44927f)" d="M 359.332737 74.772226 
L 366.214865 71.754216 
L 366.457279 74.395861 
L 366.479418 74.421406 
L 366.459715 74.42241 
L 366.702129 77.064056 
z
" style="fill:#1f77b4;stroke:#000000;stroke-linejoin:miter;"/>
   </g>
   <g id="patch_14">
    <path clip-path="url(#p6aef44927f)" d="M 276.339614 85.293863 
L 281.721999 80.898215 
L 282.998675 83.369226 
L 283.013091 83.393605 
L 283.011506 83.39406 
L 284.288182 85.865071 
z
" style="fill:#1f77b4;stroke:#000000;stroke-linejoin:miter;"/>
   </g>
   <g id="patch_15">
    <path clip-path="url(#p6aef44927f)" d="M 358.98823 108.364112 
L 365.874729 105.351644 
L 366.113313 107.993483 
L 366.135661 108.019034 
L 366.115711 108.020034 
L 366.354295 110.661873 
z
" style="fill:#1f77b4;stroke:#000000;stroke-linejoin:miter;"/>
   </g>
   <g id="patch_16">
    <path clip-path="url(#p6aef44927f)" d="M 291.940618 114.349456 
L 298.23978 110.692247 
L 298.939608 113.2882 
L 298.950417 113.313725 
L 298.946642 113.31429 
L 299.64647 115.910244 
z
" style="fill:#1f77b4;stroke:#000000;stroke-linejoin:miter;"/>
   </g>
   <g id="patch_17">
    <path clip-path="url(#p6aef44927f)" d="M 358.683174 138.086636 
L 365.57346 135.078979 
L 365.80872 137.720984 
L 365.831255 137.746539 
L 365.811084 137.747537 
L 366.046345 140.389541 
z
" style="fill:#1f77b4;stroke:#000000;stroke-linejoin:miter;"/>
   </g>
   <g id="patch_18">
    <path clip-path="url(#p6aef44927f)" d="M 279.964087 145.771032 
L 286.103857 141.966287 
L 286.914205 144.544329 
L 286.925096 144.569759 
L 286.922349 144.570239 
L 287.732697 147.14828 
z
" style="fill:#1f77b4;stroke:#000000;stroke-linejoin:miter;"/>
   </g>
   <g id="patch_19">
    <path clip-path="url(#p6aef44927f)" d="M 338.01461 168.197464 
L 344.835185 165.102836 
L 345.13077 167.741473 
L 345.147709 167.767123 
L 345.133741 167.767992 
L 345.429326 170.406629 
z
" style="fill:#1f77b4;stroke:#000000;stroke-linejoin:miter;"/>
   </g>
   <g id="patch_20">
    <path clip-path="url(#p6aef44927f)" d="M 257.088799 178.843319 
L 262.960498 174.810454 
L 263.946034 177.354389 
L 263.957395 177.379643 
L 263.955939 177.379956 
L 264.941474 179.92389 
z
" style="fill:#1f77b4;stroke:#000000;stroke-linejoin:miter;"/>
   </g>
   <g id="patch_21">
    <path clip-path="url(#p6aef44927f)" d="M 337.460779 199.385044 
L 344.288221 196.298835 
L 344.577943 198.937833 
L 344.595027 198.963492 
L 344.580854 198.964356 
L 344.870577 201.603354 
z
" style="fill:#1f77b4;stroke:#000000;stroke-linejoin:miter;"/>
   </g>
   <g id="patch_22">
    <path clip-path="url(#p6aef44927f)" d="M 232.351884 212.150464 
L 238.85553 208.697709 
L 239.405463 211.313621 
L 239.412118 211.33978 
L 239.41099 211.339912 
L 239.960924 213.955823 
z
" style="fill:#1f77b4;stroke:#000000;stroke-linejoin:miter;"/>
   </g>
   <g id="patch_23">
    <path clip-path="url(#p6aef44927f)" d="M 322.393352 237.507298 
L 329.165641 234.354337 
L 329.501992 236.990262 
L 329.516173 237.015989 
L 329.505372 237.016754 
L 329.841723 239.652679 
z
" style="fill:#1f77b4;stroke:#000000;stroke-linejoin:miter;"/>
   </g>
   <g id="patch_24">
    <path clip-path="url(#p6aef44927f)" d="M 204.346559 246.739406 
L 211.754543 244.517737 
L 211.466976 247.156866 
L 211.465361 247.183467 
L 211.464086 247.18339 
L 211.176518 249.822519 
z
" style="fill:#1f77b4;stroke:#000000;stroke-linejoin:miter;"/>
   </g>
   <g id="patch_25">
    <path clip-path="url(#p6aef44927f)" d="M 383.15621 277.072338 
L 390.116209 274.155171 
L 390.289265 276.799844 
L 390.322198 276.82529 
L 390.291004 276.826423 
L 390.46406 279.471096 
z
" style="fill:#1f77b4;stroke:#000000;stroke-linejoin:miter;"/>
   </g>
   <g id="patch_26">
    <path clip-path="url(#p6aef44927f)" d="M 321.492752 277.299433 
L 328.278671 274.162787 
L 328.603595 276.799508 
L 328.617933 276.82525 
L 328.606861 276.826007 
L 328.931785 279.462729 
z
" style="fill:#1f77b4;stroke:#000000;stroke-linejoin:miter;"/>
   </g>
   <g id="patch_27">
    <path clip-path="url(#p6aef44927f)" d="M 274.275398 277.594507 
L 280.815498 274.180201 
L 281.337641 276.799272 
L 281.346805 276.825161 
L 281.342889 276.825595 
L 281.865033 279.444666 
z
" style="fill:#1f77b4;stroke:#000000;stroke-linejoin:miter;"/>
   </g>
   <g id="patch_28">
    <path clip-path="url(#p6aef44927f)" d="M 233.484937 277.295149 
L 240.273764 274.161999 
L 240.596243 276.798886 
L 240.601503 276.825251 
L 240.599484 276.825388 
L 240.921962 279.462276 
z
" style="fill:#1f77b4;stroke:#000000;stroke-linejoin:miter;"/>
   </g>
   <g id="patch_29">
    <path clip-path="url(#p6aef44927f)" d="M 170.340558 253.266321 
L 173.818379 258.622787 
L 170.265337 258.588282 
L 170.229621 258.588315 
L 170.229628 258.587936 
L 166.676585 258.553431 
z
" style="fill:#1f77b4;stroke:#000000;stroke-linejoin:miter;"/>
   </g>
   <g id="patch_30">
    <path clip-path="url(#p6aef44927f)" d="M 181.606862 203.176547 
L 183.722345 208.91439 
L 180.23671 208.399957 
L 180.201597 208.395092 
L 180.201678 208.394787 
L 176.716043 207.880354 
z
" style="fill:#1f77b4;stroke:#000000;stroke-linejoin:miter;"/>
   </g>
   <g id="patch_31">
    <path clip-path="url(#p6aef44927f)" d="M 172.442579 242.191783 
L 174.933965 247.845212 
L 171.418611 247.45906 
L 171.383208 247.45555 
L 171.383281 247.455179 
L 167.867928 247.069028 
z
" style="fill:#1f77b4;stroke:#000000;stroke-linejoin:miter;"/>
   </g>
   <g id="patch_32">
    <path clip-path="url(#p6aef44927f)" d="M 183.565067 196.42878 
L 185.571578 202.188316 
L 182.096042 201.637247 
L 182.061028 201.632 
L 182.061112 201.631709 
L 178.585576 201.080641 
z
" style="fill:#1f77b4;stroke:#000000;stroke-linejoin:miter;"/>
   </g>
   <g id="patch_33">
    <path clip-path="url(#p6aef44927f)" d="M 165.226187 263.858872 
L 161.965313 269.290585 
L 159.713082 267.242583 
L 159.689701 267.222455 
L 159.690446 267.222 
L 157.438214 265.173998 
z
" style="fill:#1f77b4;stroke:#000000;stroke-linejoin:miter;"/>
   </g>
   <g id="patch_34">
    <path clip-path="url(#p6aef44927f)" d="M 179.858717 209.645642 
L 182.062346 215.365033 
L 178.569025 214.880414 
L 178.533837 214.875861 
L 178.533916 214.875543 
L 175.040595 214.390924 
z
" style="fill:#1f77b4;stroke:#000000;stroke-linejoin:miter;"/>
   </g>
   <g id="patch_35">
    <path clip-path="url(#p6aef44927f)" d="M 116.977555 273.179591 
L 110.313238 276.457812 
L 109.888498 273.828981 
L 109.87537 273.803356 
L 109.884229 273.802561 
L 109.45949 271.173731 
z
" style="fill:#1f77b4;stroke:#000000;stroke-linejoin:miter;"/>
   </g>
   <g id="patch_36">
    <path clip-path="url(#p6aef44927f)" d="M 174.824366 230.768858 
L 177.198196 236.450305 
L 173.691272 236.023714 
L 173.655949 236.01978 
L 173.656026 236.019426 
L 170.149102 235.592835 
z
" style="fill:#1f77b4;stroke:#000000;stroke-linejoin:miter;"/>
   </g>
   <g id="patch_37">
    <path clip-path="url(#p6aef44927f)" d="M 82.826296 232.407926 
L 75.946775 235.429235 
L 75.702081 232.787706 
L 75.680063 232.762164 
L 75.699622 232.761158 
L 75.454928 230.119629 
z
" style="fill:#1f77b4;stroke:#000000;stroke-linejoin:miter;"/>
   </g>
   <g id="patch_38">
    <path clip-path="url(#p6aef44927f)" d="M 174.739958 215.106023 
L 171.74497 220.6221 
L 169.394767 218.636164 
L 169.370563 218.616589 
L 169.371147 218.616205 
L 167.020944 216.63027 
z
" style="fill:#1f77b4;stroke:#000000;stroke-linejoin:miter;"/>
   </g>
   <g id="patch_39">
    <path clip-path="url(#p6aef44927f)" d="M 83.207574 195.216034 
L 76.323153 198.23114 
L 76.082747 195.589392 
L 76.060499 195.563844 
L 76.080331 195.562842 
L 75.839925 192.921095 
z
" style="fill:#1f77b4;stroke:#000000;stroke-linejoin:miter;"/>
   </g>
   <g id="patch_40">
    <path clip-path="url(#p6aef44927f)" d="M 156.40408 187.849496 
L 150.337549 191.718925 
L 149.478078 189.149732 
L 149.466621 189.124435 
L 149.46944 189.123911 
L 148.609969 186.554719 
z
" style="fill:#1f77b4;stroke:#000000;stroke-linejoin:miter;"/>
   </g>
   <g id="patch_41">
    <path clip-path="url(#p6aef44927f)" d="M 83.527609 164.021664 
L 76.639174 167.031674 
L 76.402289 164.38975 
L 76.379845 164.364197 
L 76.399908 164.363198 
L 76.163023 161.721274 
z
" style="fill:#1f77b4;stroke:#000000;stroke-linejoin:miter;"/>
   </g>
   <g id="patch_42">
    <path clip-path="url(#p6aef44927f)" d="M 151.223816 158.091933 
L 144.894254 161.719881 
L 144.216104 159.120735 
L 144.205431 159.095172 
L 144.209289 159.094613 
L 143.531139 156.495466 
z
" style="fill:#1f77b4;stroke:#000000;stroke-linejoin:miter;"/>
   </g>
   <g id="patch_43">
    <path clip-path="url(#p6aef44927f)" d="M 83.825566 135.00017 
L 76.93347 138.005522 
L 76.6998 135.363439 
L 76.677174 135.337882 
L 76.697452 135.336886 
L 76.463782 132.694803 
z
" style="fill:#1f77b4;stroke:#000000;stroke-linejoin:miter;"/>
   </g>
   <g id="patch_44">
    <path clip-path="url(#p6aef44927f)" d="M 173.238994 125.410388 
L 167.275557 129.367803 
L 166.348576 126.811676 
L 166.337268 126.786387 
L 166.33926 126.785986 
L 165.412279 124.229859 
z
" style="fill:#1f77b4;stroke:#000000;stroke-linejoin:miter;"/>
   </g>
   <g id="patch_45">
    <path clip-path="url(#p6aef44927f)" d="M 104.614422 104.191641 
L 97.790496 107.282165 
L 97.49777 104.643351 
L 97.480761 104.617696 
L 97.494828 104.61683 
L 97.202102 101.978015 
z
" style="fill:#1f77b4;stroke:#000000;stroke-linejoin:miter;"/>
   </g>
   <g id="patch_46">
    <path clip-path="url(#p6aef44927f)" d="M 197.048146 92.012217 
L 190.99903 95.896756 
L 190.128024 93.329721 
L 190.118065 93.304148 
L 190.11927 93.303921 
L 189.248263 90.736887 
z
" style="fill:#1f77b4;stroke:#000000;stroke-linejoin:miter;"/>
   </g>
   <g id="patch_47">
    <path clip-path="url(#p6aef44927f)" d="M 119.486192 69.662651 
L 112.720658 72.823655 
L 112.378667 70.188133 
L 112.364553 70.162414 
L 112.37523 70.161645 
L 112.03324 67.526122 
z
" style="fill:#1f77b4;stroke:#000000;stroke-linejoin:miter;"/>
   </g>
   <g id="patch_48">
    <path clip-path="url(#p6aef44927f)" d="M 223.341857 58.563692 
L 216.336308 61.419675 
L 216.204996 58.773669 
L 216.202491 58.747109 
L 216.203676 58.747076 
L 216.072364 56.101071 
z
" style="fill:#1f77b4;stroke:#000000;stroke-linejoin:miter;"/>
   </g>
   <g id="patch_49">
    <path clip-path="url(#p6aef44927f)" d="M 131.46069 26.387481 
L 124.736013 29.596529 
L 124.360231 26.963563 
L 124.347772 26.937789 
L 124.356454 26.937101 
L 123.980672 24.304135 
z
" style="fill:#1f77b4;stroke:#000000;stroke-linejoin:miter;"/>
   </g>
   <g id="patch_50">
    <path clip-path="url(#p6aef44927f)" d="M 253.830948 21.050736 
L 246.107961 22.563767 
L 246.836707 19.972235 
L 246.842776 19.945993 
L 246.844031 19.946189 
L 247.572777 17.354658 
z
" style="fill:#1f77b4;stroke:#000000;stroke-linejoin:miter;"/>
   </g>
   <g id="patch_51">
    <path clip-path="url(#p6aef44927f)" d="M 92.587628 10.342598 
L 85.700452 13.354207 
L 85.462462 10.712339 
L 85.441333 10.686724 
L 85.46007 10.685787 
L 85.22208 8.043918 
z
" style="fill:#1f77b4;stroke:#000000;stroke-linejoin:miter;"/>
   </g>
   <g id="patch_52">
    <path clip-path="url(#p6aef44927f)" d="M 145.665953 10.05466 
L 139.008779 13.34093 
L 138.578319 10.712617 
L 138.567496 10.686792 
L 138.573992 10.686202 
L 138.143532 8.057888 
z
" style="fill:#1f77b4;stroke:#000000;stroke-linejoin:miter;"/>
   </g>
   <g id="patch_53">
    <path clip-path="url(#p6aef44927f)" d="M 188.946113 9.929591 
L 182.395634 13.33283 
L 181.881466 10.712882 
L 181.873701 10.686834 
L 181.876299 10.686551 
L 181.362131 8.066604 
z
" style="fill:#1f77b4;stroke:#000000;stroke-linejoin:miter;"/>
   </g>
   <g id="patch_54">
    <path clip-path="url(#p6aef44927f)" d="M 272.229099 22.707222 
L 264.772594 20.577589 
L 267.393902 18.789979 
L 267.419822 18.771667 
L 267.420247 18.772013 
L 270.041556 16.984403 
z
" style="fill:#1f77b4;stroke:#000000;stroke-linejoin:miter;"/>
   </g>
   <g id="patch_55">
    <path clip-path="url(#p6aef44927f)" d="M 262.564767 77.624595 
L 260.356873 71.906117 
L 263.850555 72.389289 
L 263.885747 72.393828 
L 263.885668 72.394145 
L 267.379349 72.877318 
z
" style="fill:#1f77b4;stroke:#000000;stroke-linejoin:miter;"/>
   </g>
   <g id="matplotlib.axis_1">
    <g id="xtick_1">
     <g id="line2d_1">
      <defs>
       <path d="M 0 0 
L 0 3.5 
" id="m99c765e21b" style="stroke:#000000;stroke-width:0.8;"/>
      </defs>
      <g>
       <use style="stroke:#000000;stroke-width:0.8;" x="78.332313" xlink:href="#m99c765e21b" y="276.812"/>
      </g>
     </g>
     <g id="text_1">
      <!-- −4 -->
      <defs>
       <path d="M 10.59375 35.5 
L 73.1875 35.5 
L 73.1875 27.203125 
L 10.59375 27.203125 
z
" id="DejaVuSans-2212"/>
       <path d="M 37.796875 64.3125 
L 12.890625 25.390625 
L 37.796875 25.390625 
z
M 35.203125 72.90625 
L 47.609375 72.90625 
L 47.609375 25.390625 
L 58.015625 25.390625 
L 58.015625 17.1875 
L 47.609375 17.1875 
L 47.609375 0 
L 37.796875 0 
L 37.796875 17.1875 
L 4.890625 17.1875 
L 4.890625 26.703125 
z
" id="DejaVuSans-34"/>
      </defs>
      <g transform="translate(70.961219 291.410438)scale(0.1 -0.1)">
       <use xlink:href="#DejaVuSans-2212"/>
       <use x="83.789062" xlink:href="#DejaVuSans-34"/>
      </g>
     </g>
    </g>
    <g id="xtick_2">
     <g id="line2d_2">
      <g>
       <use style="stroke:#000000;stroke-width:0.8;" x="149.756313" xlink:href="#m99c765e21b" y="276.812"/>
      </g>
     </g>
     <g id="text_2">
      <!-- −2 -->
      <defs>
       <path d="M 19.1875 8.296875 
L 53.609375 8.296875 
L 53.609375 0 
L 7.328125 0 
L 7.328125 8.296875 
Q 12.9375 14.109375 22.625 23.890625 
Q 32.328125 33.6875 34.8125 36.53125 
Q 39.546875 41.84375 41.421875 45.53125 
Q 43.3125 49.21875 43.3125 52.78125 
Q 43.3125 58.59375 39.234375 62.25 
Q 35.15625 65.921875 28.609375 65.921875 
Q 23.96875 65.921875 18.8125 64.3125 
Q 13.671875 62.703125 7.8125 59.421875 
L 7.8125 69.390625 
Q 13.765625 71.78125 18.9375 73 
Q 24.125 74.21875 28.421875 74.21875 
Q 39.75 74.21875 46.484375 68.546875 
Q 53.21875 62.890625 53.21875 53.421875 
Q 53.21875 48.921875 51.53125 44.890625 
Q 49.859375 40.875 45.40625 35.40625 
Q 44.1875 33.984375 37.640625 27.21875 
Q 31.109375 20.453125 19.1875 8.296875 
" id="DejaVuSans-32"/>
      </defs>
      <g transform="translate(142.385219 291.410438)scale(0.1 -0.1)">
       <use xlink:href="#DejaVuSans-2212"/>
       <use x="83.789062" xlink:href="#DejaVuSans-32"/>
      </g>
     </g>
    </g>
    <g id="xtick_3">
     <g id="line2d_3">
      <g>
       <use style="stroke:#000000;stroke-width:0.8;" x="221.180313" xlink:href="#m99c765e21b" y="276.812"/>
      </g>
     </g>
     <g id="text_3">
      <!-- 0 -->
      <defs>
       <path d="M 31.78125 66.40625 
Q 24.171875 66.40625 20.328125 58.90625 
Q 16.5 51.421875 16.5 36.375 
Q 16.5 21.390625 20.328125 13.890625 
Q 24.171875 6.390625 31.78125 6.390625 
Q 39.453125 6.390625 43.28125 13.890625 
Q 47.125 21.390625 47.125 36.375 
Q 47.125 51.421875 43.28125 58.90625 
Q 39.453125 66.40625 31.78125 66.40625 
M 31.78125 74.21875 
Q 44.046875 74.21875 50.515625 64.515625 
Q 56.984375 54.828125 56.984375 36.375 
Q 56.984375 17.96875 50.515625 8.265625 
Q 44.046875 -1.421875 31.78125 -1.421875 
Q 19.53125 -1.421875 13.0625 8.265625 
Q 6.59375 17.96875 6.59375 36.375 
Q 6.59375 54.828125 13.0625 64.515625 
Q 19.53125 74.21875 31.78125 74.21875 
" id="DejaVuSans-30"/>
      </defs>
      <g transform="translate(217.999063 291.410438)scale(0.1 -0.1)">
       <use xlink:href="#DejaVuSans-30"/>
      </g>
     </g>
    </g>
    <g id="xtick_4">
     <g id="line2d_4">
      <g>
       <use style="stroke:#000000;stroke-width:0.8;" x="292.604312" xlink:href="#m99c765e21b" y="276.812"/>
      </g>
     </g>
     <g id="text_4">
      <!-- 2 -->
      <g transform="translate(289.423063 291.410438)scale(0.1 -0.1)">
       <use xlink:href="#DejaVuSans-32"/>
      </g>
     </g>
    </g>
    <g id="xtick_5">
     <g id="line2d_5">
      <g>
       <use style="stroke:#000000;stroke-width:0.8;" x="364.028313" xlink:href="#m99c765e21b" y="276.812"/>
      </g>
     </g>
     <g id="text_5">
      <!-- 4 -->
      <g transform="translate(360.847063 291.410438)scale(0.1 -0.1)">
       <use xlink:href="#DejaVuSans-34"/>
      </g>
     </g>
    </g>
    <g id="text_6">
     <!-- x1 -->
     <defs>
      <path d="M 54.890625 54.6875 
L 35.109375 28.078125 
L 55.90625 0 
L 45.3125 0 
L 29.390625 21.484375 
L 13.484375 0 
L 2.875 0 
L 24.125 28.609375 
L 4.6875 54.6875 
L 15.28125 54.6875 
L 29.78125 35.203125 
L 44.28125 54.6875 
z
" id="DejaVuSans-78"/>
      <path d="M 12.40625 8.296875 
L 28.515625 8.296875 
L 28.515625 63.921875 
L 10.984375 60.40625 
L 10.984375 69.390625 
L 28.421875 72.90625 
L 38.28125 72.90625 
L 38.28125 8.296875 
L 54.390625 8.296875 
L 54.390625 0 
L 12.40625 0 
z
" id="DejaVuSans-31"/>
     </defs>
     <g transform="translate(215.039688 305.088562)scale(0.1 -0.1)">
      <use xlink:href="#DejaVuSans-78"/>
      <use x="59.179688" xlink:href="#DejaVuSans-31"/>
     </g>
    </g>
   </g>
   <g id="matplotlib.axis_2">
    <g id="ytick_1">
     <g id="line2d_6">
      <defs>
       <path d="M 0 0 
L -3.5 0 
" id="m993e7b5581" style="stroke:#000000;stroke-width:0.8;"/>
      </defs>
      <g>
       <use style="stroke:#000000;stroke-width:0.8;" x="42.620313" xlink:href="#m993e7b5581" y="250.2008"/>
      </g>
     </g>
     <g id="text_7">
      <!-- −4 -->
      <g transform="translate(20.878125 254.000019)scale(0.1 -0.1)">
       <use xlink:href="#DejaVuSans-2212"/>
       <use x="83.789062" xlink:href="#DejaVuSans-34"/>
      </g>
     </g>
    </g>
    <g id="ytick_2">
     <g id="line2d_7">
      <g>
       <use style="stroke:#000000;stroke-width:0.8;" x="42.620313" xlink:href="#m993e7b5581" y="196.9784"/>
      </g>
     </g>
     <g id="text_8">
      <!-- −2 -->
      <g transform="translate(20.878125 200.777619)scale(0.1 -0.1)">
       <use xlink:href="#DejaVuSans-2212"/>
       <use x="83.789062" xlink:href="#DejaVuSans-32"/>
      </g>
     </g>
    </g>
    <g id="ytick_3">
     <g id="line2d_8">
      <g>
       <use style="stroke:#000000;stroke-width:0.8;" x="42.620313" xlink:href="#m993e7b5581" y="143.756"/>
      </g>
     </g>
     <g id="text_9">
      <!-- 0 -->
      <g transform="translate(29.257813 147.555219)scale(0.1 -0.1)">
       <use xlink:href="#DejaVuSans-30"/>
      </g>
     </g>
    </g>
    <g id="ytick_4">
     <g id="line2d_9">
      <g>
       <use style="stroke:#000000;stroke-width:0.8;" x="42.620313" xlink:href="#m993e7b5581" y="90.5336"/>
      </g>
     </g>
     <g id="text_10">
      <!-- 2 -->
      <g transform="translate(29.257813 94.332819)scale(0.1 -0.1)">
       <use xlink:href="#DejaVuSans-32"/>
      </g>
     </g>
    </g>
    <g id="ytick_5">
     <g id="line2d_10">
      <g>
       <use style="stroke:#000000;stroke-width:0.8;" x="42.620313" xlink:href="#m993e7b5581" y="37.3112"/>
      </g>
     </g>
     <g id="text_11">
      <!-- 4 -->
      <g transform="translate(29.257813 41.110419)scale(0.1 -0.1)">
       <use xlink:href="#DejaVuSans-34"/>
      </g>
     </g>
    </g>
    <g id="text_12">
     <!-- x2 -->
     <g transform="translate(14.798438 149.896625)rotate(-90)scale(0.1 -0.1)">
      <use xlink:href="#DejaVuSans-78"/>
      <use x="59.179688" xlink:href="#DejaVuSans-32"/>
     </g>
    </g>
   </g>
   <g id="line2d_11">
    <path clip-path="url(#p6aef44927f)" d="M 221.180313 10.7 
L 228.177176 10.805007 
L 234.853436 11.113931 
L 241.131805 11.616155 
L 246.910045 12.298327 
L 252.087463 13.144002 
L 256.589251 14.134067 
L 260.382835 15.247783 
L 262.769958 16.151543 
L 264.786313 17.104474 
L 266.461728 18.098609 
L 267.831669 19.126713 
L 268.93396 20.182365 
L 269.805742 21.260022 
L 270.669761 22.723019 
L 271.259997 24.207517 
L 271.638039 25.706307 
L 271.886764 27.591562 
L 271.951824 29.860867 
L 271.782824 32.883612 
L 271.33471 36.63883 
L 270.425475 42.195726 
L 268.818207 50.500125 
L 266.507737 61.239726 
L 264.026236 71.754034 
L 261.53717 81.365582 
L 259.045877 90.110379 
L 256.644194 97.761609 
L 254.256001 104.657677 
L 251.888046 110.837547 
L 249.548525 116.341175 
L 247.247069 121.209558 
L 244.89576 125.661796 
L 242.602738 129.530325 
L 240.28134 133.003252 
L 238.047782 135.951598 
L 235.818806 138.533894 
L 233.616221 140.752606 
L 231.466423 142.614162 
L 229.308259 144.19057 
L 227.278308 145.407539 
L 225.337256 146.321535 
L 223.548441 146.925333 
L 221.975583 147.226823 
L 220.716545 147.253795 
L 219.773429 147.067562 
L 219.130325 146.728059 
L 218.756876 146.290668 
L 218.611583 145.784733 
L 218.679711 145.214224 
L 218.986299 144.5802 
L 219.544631 143.948988 
L 220.288414 143.441713 
L 221.0126 143.199331 
L 221.472326 143.248801 
L 221.597276 143.445574 
L 221.485673 143.686687 
L 221.181259 143.84871 
L 221.112344 143.806485 
L 221.181006 143.740894 
L 221.181006 143.740894 
L 221.19139 143.747954 
L 221.180492 143.758461 
L 221.180492 143.758461 
L 221.178506 143.757376 
L 221.180392 143.755603 
L 221.180392 143.755603 
L 221.180606 143.755803 
L 221.180331 143.756064 
L 221.180331 143.756064 
L 221.180265 143.756039 
L 221.180312 143.756 
" style="fill:none;stroke:#1f77b4;stroke-linecap:square;stroke-width:0.5;"/>
   </g>
   <g id="line2d_12">
    <path clip-path="url(#p6aef44927f)" d="M 260.484341 10.7 
L 263.027983 11.607736 
L 265.175343 12.567897 
L 266.957213 13.571965 
L 268.411484 14.612144 
L 269.578794 15.681559 
L 270.499662 16.774226 
L 271.409781 18.258633 
L 272.029624 19.765661 
L 272.425933 21.287668 
L 272.687379 23.202481 
L 272.759021 25.507745 
L 272.592544 28.578682 
L 272.145445 32.394238 
L 271.239889 38.041902 
L 269.573218 46.84771 
L 267.20805 58.107208 
L 264.671347 69.115564 
L 262.123124 79.184016 
L 259.651588 88.061982 
L 257.182702 96.110161 
L 254.721742 103.366466 
L 252.367224 109.637845 
L 250.040371 115.231893 
L 247.750424 120.189233 
L 245.409418 124.732405 
L 243.124424 128.689707 
L 240.808337 132.252572 
L 238.576336 135.287485 
L 236.344456 137.95625 
L 234.133391 140.260513 
L 231.968492 142.205711 
L 229.786564 143.866253 
L 227.724278 145.162549 
L 225.740655 146.152625 
L 223.899285 146.82679 
L 222.265576 147.190433 
L 220.942961 147.267443 
L 219.937365 147.118976 
L 219.236265 146.805522 
L 218.811824 146.383587 
L 218.622609 145.884126 
L 218.653458 145.311689 
L 218.920475 144.683138 
L 219.432407 144.052398 
L 220.152285 143.514665 
L 220.905485 143.217737 
L 221.419753 143.224563 
L 221.5941 143.407758 
L 221.522469 143.642729 
L 221.234692 143.841605 
L 221.113246 143.814656 
L 221.165641 143.743768 
L 221.191088 143.74589 
L 221.180313 143.756 
" style="fill:none;stroke:#1f77b4;stroke-linecap:square;stroke-width:0.5;"/>
   </g>
   <g id="line2d_13">
    <path clip-path="url(#p6aef44927f)" d="M 303.790965 10.7 
L 300.59806 11.30338 
L 297.866946 11.884735 
L 293.446405 12.993165 
L 290.035973 14.043708 
L 287.339028 15.049034 
L 284.23206 16.491515 
L 281.908668 17.873862 
L 280.124534 19.210653 
L 278.724155 20.512077 
L 277.278226 22.204701 
L 276.1696 23.859563 
L 275.101752 25.887566 
L 274.122913 28.275518 
L 273.122266 31.40046 
L 272.042256 35.612159 
L 270.414716 43.068051 
L 266.328297 62.058095 
L 263.755916 72.845622 
L 261.256602 82.393552 
L 258.755743 91.074554 
L 256.34477 98.664284 
L 253.947429 105.499188 
L 251.570671 111.61841 
L 249.222869 117.062132 
L 246.913933 121.871593 
L 244.65516 126.089069 
L 242.358591 129.916041 
L 240.136371 133.206042 
L 237.902536 136.130585 
L 235.674561 138.689139 
L 233.474555 140.884387 
L 231.3292 142.723056 
L 229.177902 144.2765 
L 227.157171 145.471885 
L 225.228142 146.365258 
L 223.454023 146.950065 
L 221.898046 147.234872 
L 220.656514 147.24851 
L 219.730481 147.052309 
L 219.103124 146.706031 
L 218.743426 146.264729 
L 218.609896 145.757312 
L 218.693843 145.169041 
L 219.013309 144.5407 
L 219.578281 143.919678 
L 220.320243 143.42587 
L 221.043532 143.195466 
L 221.485241 143.256452 
L 221.597001 143.456239 
L 221.474002 143.698807 
L 221.168862 143.848289 
L 221.112456 143.803735 
L 221.177254 143.741042 
L 221.177254 143.741042 
L 221.191366 143.747165 
L 221.178878 143.758085 
L 221.178878 143.758085 
L 221.178875 143.756433 
L 221.180312 143.756 
" style="fill:none;stroke:#1f77b4;stroke-linecap:square;stroke-width:0.5;"/>
   </g>
   <g id="line2d_14">
    <path clip-path="url(#p6aef44927f)" d="M 356.918096 10.7 
L 341.167497 11.648961 
L 330.099342 12.499651 
L 321.821995 13.279073 
L 310.176031 14.68588 
L 302.328973 15.950282 
L 296.67646 17.115419 
L 292.420773 18.207434 
L 289.113905 19.243523 
L 286.482868 20.235632 
L 283.43191 21.659665 
L 281.133882 23.024447 
L 279.357567 24.344032 
L 277.954828 25.628303 
L 276.497699 27.297844 
L 275.373182 28.929213 
L 274.283636 30.92714 
L 273.279622 33.277947 
L 272.249919 36.351721 
L 271.138678 40.490577 
L 269.551554 47.448594 
L 265.088144 67.390313 
L 262.55174 77.559458 
L 260.094119 86.534776 
L 257.639675 94.680157 
L 255.193205 102.033333 
L 252.760948 108.63304 
L 250.350692 114.519121 
L 247.971835 119.732619 
L 245.63545 124.315804 
L 243.354119 128.312153 
L 241.04059 131.914599 
L 238.809615 134.987701 
L 236.576861 137.694677 
L 234.362536 140.036824 
L 232.191512 142.019127 
L 229.999716 143.717099 
L 227.92378 145.048812 
L 225.921966 146.072998 
L 224.057892 146.778878 
L 222.397618 147.170708 
L 221.047004 147.270597 
L 220.013655 147.139583 
L 219.286582 146.83835 
L 218.839129 146.423875 
L 218.629934 145.927826 
L 218.639725 145.373927 
L 218.877628 144.756179 
L 219.361271 144.122794 
L 220.066508 143.564913 
L 220.820294 143.237342 
L 221.37797 143.21103 
L 221.588922 143.385391 
L 221.539444 143.61843 
L 221.26752 143.831993 
L 221.114139 143.817782 
L 221.140549 143.758033 
L 221.190169 143.744244 
L 221.180313 143.756 
" style="fill:none;stroke:#1f77b4;stroke-linecap:square;stroke-width:0.5;"/>
   </g>
   <g id="line2d_15">
    <path clip-path="url(#p6aef44927f)" d="M 399.740313 30.737215 
L 366.91237 31.932922 
L 347.520833 32.94132 
L 334.416311 33.831134 
L 324.845275 34.637577 
L 311.638817 36.076636 
L 302.8628 37.355413 
L 296.572441 38.523497 
L 291.836997 39.610239 
L 288.146455 40.634675 
L 283.93366 42.082154 
L 280.79404 43.448285 
L 278.378646 44.752824 
L 276.473876 46.00939 
L 274.495263 47.626659 
L 272.967875 49.192097 
L 271.756353 50.716983 
L 270.552529 52.578021 
L 269.417147 54.759031 
L 268.366989 57.246725 
L 267.16795 60.716577 
L 265.700097 65.772357 
L 258.227537 92.8122 
L 255.797221 100.289672 
L 253.382449 107.012648 
L 250.989342 113.020816 
L 248.626468 118.354824 
L 246.304157 123.056408 
L 244.034231 127.168402 
L 241.729041 130.888172 
L 239.501988 134.074512 
L 237.267837 136.894958 
L 235.045353 139.349818 
L 232.857979 141.442845 
L 230.733585 143.182032 
L 228.61402 144.635967 
L 226.553071 145.778508 
L 224.687087 146.569312 
L 222.989162 147.060282 
L 221.519687 147.263325 
L 220.366874 147.21226 
L 219.526545 146.968333 
L 218.977467 146.590276 
L 218.685517 146.13138 
L 218.610345 145.59916 
L 218.757273 144.9997 
L 219.145597 144.364459 
L 219.777145 143.760075 
L 220.537836 143.329449 
L 221.200639 143.187447 
L 221.543557 143.304662 
L 221.586399 143.518509 
L 221.399305 143.762398 
L 221.118501 143.826309 
L 221.145811 143.75411 
L 221.180312 143.756 
" style="fill:none;stroke:#1f77b4;stroke-linecap:square;stroke-width:0.5;"/>
   </g>
   <g id="line2d_16">
    <path clip-path="url(#p6aef44927f)" d="M 399.740313 73.214173 
L 366.4782 74.408132 
L 346.775144 75.412094 
L 333.401944 76.295334 
L 323.58243 77.093283 
L 309.910221 78.510012 
L 300.693125 79.759716 
L 293.979393 80.892289 
L 288.835882 81.937329 
L 283.006676 83.381188 
L 278.649606 84.712428 
L 275.259605 85.957775 
L 271.752229 87.515037 
L 269.036271 88.980317 
L 266.866754 90.373263 
L 264.694458 92.033409 
L 262.636146 93.931061 
L 260.987736 95.746432 
L 259.415846 97.780484 
L 257.763645 100.287474 
L 255.959812 103.475492 
L 253.830707 107.7427 
L 246.436544 123.01971 
L 244.01627 127.320285 
L 241.681337 131.034206 
L 239.334073 134.346775 
L 237.088463 137.138647 
L 234.859677 139.563497 
L 232.670436 141.625865 
L 230.548345 143.334432 
L 228.435501 144.757132 
L 226.386063 145.868709 
L 224.463498 146.655725 
L 222.796251 147.10784 
L 221.362062 147.276896 
L 220.245692 147.198831 
L 219.440707 146.934892 
L 218.924006 146.543407 
L 218.660154 146.076955 
L 218.609637 145.542122 
L 218.777345 144.945126 
L 219.193257 144.303073 
L 219.84679 143.707233 
L 220.610586 143.300628 
L 221.252132 143.188734 
L 221.560216 143.323621 
L 221.579058 143.542568 
L 221.367619 143.783893 
L 221.11709 143.824509 
L 221.112475 143.811223 
L 221.176645 143.741075 
L 221.180312 143.756 
" style="fill:none;stroke:#1f77b4;stroke-linecap:square;stroke-width:0.5;"/>
   </g>
   <g id="line2d_17">
    <path clip-path="url(#p6aef44927f)" d="M 399.740313 106.813183 
L 366.134463 108.005758 
L 346.183747 109.006205 
L 332.5958 109.884225 
L 314.795296 111.400871 
L 303.336295 112.705272 
L 295.171885 113.865765 
L 288.976967 114.92038 
L 281.968542 116.353553 
L 276.695952 117.650997 
L 271.34096 119.222113 
L 267.219366 120.653358 
L 263.184456 122.290386 
L 259.410798 124.080528 
L 255.957147 125.981048 
L 252.815834 127.957142 
L 249.379015 130.403852 
L 245.67849 133.340863 
L 233.698038 143.139263 
L 230.916801 144.959937 
L 228.491545 146.290894 
L 226.19296 147.297581 
L 224.157598 147.94877 
L 222.403819 148.289141 
L 220.885743 148.36408 
L 219.693677 148.206821 
L 218.817583 147.872576 
L 218.254206 147.435577 
L 217.920811 146.902038 
L 217.80995 146.305932 
L 217.916496 145.634976 
L 218.258027 144.916818 
L 218.850285 144.189595 
L 219.665457 143.544445 
L 220.532656 143.130822 
L 221.248567 143.015683 
L 221.635342 143.147699 
L 221.72257 143.383702 
L 221.581249 143.662823 
L 221.237689 143.870681 
L 221.092497 143.831034 
L 221.104611 143.784231 
L 221.191268 143.73893 
L 221.180313 143.756 
" style="fill:none;stroke:#1f77b4;stroke-linecap:square;stroke-width:0.5;"/>
   </g>
   <g id="line2d_18">
    <path clip-path="url(#p6aef44927f)" d="M 399.740313 136.541913 
L 365.830073 137.733263 
L 345.65923 138.730595 
L 331.879637 139.603982 
L 313.727437 141.107302 
L 301.933124 142.39328 
L 293.440567 143.53041 
L 284.173952 145.036264 
L 277.358195 146.364845 
L 270.493198 147.932085 
L 264.03899 149.643527 
L 257.276359 151.694006 
L 249.513995 154.317302 
L 237.526991 158.400353 
L 233.102155 159.659924 
L 229.178485 160.547277 
L 225.935974 161.067831 
L 222.995421 161.335127 
L 220.343651 161.37327 
L 217.978706 161.205801 
L 215.902602 160.856302 
L 214.116345 160.348514 
L 212.616899 159.706105 
L 211.3958 158.952276 
L 210.439083 158.109305 
L 209.728196 157.198128 
L 209.241384 156.238022 
L 208.938292 155.155237 
L 208.843574 153.962942 
L 208.971136 152.680714 
L 209.32403 151.333904 
L 209.936536 149.868694 
L 210.819887 148.337245 
L 211.962739 146.803624 
L 213.331294 145.339943 
L 214.869793 144.02086 
L 216.501518 142.916583 
L 218.131559 142.084627 
L 219.608679 141.572718 
L 220.857454 141.359679 
L 221.824868 141.40458 
L 222.471118 141.641473 
L 222.827752 141.997103 
L 222.943542 142.421085 
L 222.83972 142.910613 
L 222.494228 143.436172 
L 221.918739 143.903699 
L 221.299359 144.138243 
L 220.939914 144.075981 
L 220.909554 143.895248 
L 221.108243 143.708208 
L 221.225436 143.712473 
L 221.180312 143.756 
" style="fill:none;stroke:#1f77b4;stroke-linecap:square;stroke-width:0.5;"/>
   </g>
   <g id="line2d_19">
    <path clip-path="url(#p6aef44927f)" d="M 399.740313 165.569424 
L 365.532693 166.759577 
L 345.146224 167.753864 
L 331.17799 168.622715 
L 312.677391 170.112952 
L 300.54811 171.380776 
L 291.72384 172.494791 
L 281.959595 173.956707 
L 272.56367 175.620727 
L 262.496227 177.68011 
L 238.889759 182.732962 
L 233.254821 183.617776 
L 228.127058 184.182557 
L 223.398166 184.453889 
L 219.553609 184.46814 
L 215.979489 184.288881 
L 212.687156 183.930471 
L 209.693964 183.408051 
L 207.016875 182.737682 
L 204.667541 181.936186 
L 202.649194 181.020786 
L 200.955527 180.008621 
L 199.571301 178.916267 
L 198.474194 177.759309 
L 197.637219 176.552036 
L 197.031147 175.307256 
L 196.58361 173.853117 
L 196.357831 172.379103 
L 196.322475 170.712044 
L 196.50147 168.865139 
L 196.950631 166.676799 
L 197.652078 164.362085 
L 198.660058 161.7869 
L 199.980376 159.016078 
L 201.604618 156.128073 
L 203.422 153.345023 
L 205.399122 150.720178 
L 207.502879 148.305335 
L 209.601179 146.235439 
L 211.657076 144.506554 
L 213.721457 143.052827 
L 215.739193 141.901726 
L 217.646483 141.069184 
L 219.375345 140.556518 
L 220.811985 140.350888 
L 221.978481 140.399717 
L 222.817879 140.650086 
L 223.338865 141.022127 
L 223.617963 141.488607 
L 223.672564 142.025324 
L 223.501808 142.621417 
L 223.081855 143.255005 
L 222.431911 143.832422 
L 221.675549 144.217434 
L 221.065217 144.301276 
L 220.797986 144.152745 
L 220.807272 143.931634 
L 221.045575 143.702965 
L 221.243158 143.692367 
L 221.237849 143.73321 
L 221.172346 143.768845 
L 221.180313 143.756 
" style="fill:none;stroke:#1f77b4;stroke-linecap:square;stroke-width:0.5;"/>
   </g>
   <g id="line2d_20">
    <path clip-path="url(#p6aef44927f)" d="M 399.740313 196.770356 
L 365.212801 197.959222 
L 344.593571 198.950231 
L 330.420925 199.814192 
L 311.540228 201.290287 
L 299.041792 202.538408 
L 286.042657 204.124468 
L 274.062925 205.868674 
L 258.067526 208.509866 
L 245.354359 210.538441 
L 238.281781 211.458258 
L 231.841854 212.076983 
L 225.843217 212.41813 
L 220.19987 212.499199 
L 214.892972 212.335452 
L 209.947352 211.942359 
L 205.412214 211.337106 
L 201.342921 210.539307 
L 198.340806 209.74314 
L 195.708552 208.841986 
L 193.447793 207.849698 
L 191.547265 206.779945 
L 189.984872 205.645766 
L 188.730787 204.459219 
L 187.750867 203.231165 
L 187.009669 201.971159 
L 186.38708 200.428494 
L 186.004443 198.863546 
L 185.798778 197.022368 
L 185.806893 194.912305 
L 186.042665 192.54678 
L 186.556502 189.686257 
L 187.442617 186.118535 
L 188.728174 181.924335 
L 190.409276 177.211475 
L 192.382207 172.327337 
L 194.534463 167.575055 
L 196.753004 163.19759 
L 199.022149 159.204885 
L 201.328303 155.604454 
L 203.5547 152.532325 
L 205.78433 149.825686 
L 207.996398 147.483456 
L 210.165784 145.500739 
L 212.356378 143.80209 
L 214.431521 142.46953 
L 216.432891 141.444347 
L 218.296862 140.737377 
L 219.957355 140.344422 
L 221.308473 140.243482 
L 222.342515 140.373564 
L 223.070391 140.67401 
L 223.518682 141.087858 
L 223.72872 141.583426 
L 223.71975 142.136989 
L 223.482646 142.754551 
L 222.999702 143.387943 
L 222.294942 143.946059 
L 221.541272 144.274044 
L 220.983364 144.300796 
L 220.772052 144.126716 
L 220.82121 143.89378 
L 221.09295 143.680125 
L 221.246427 143.694201 
L 221.219722 143.75423 
L 221.17041 143.767683 
L 221.180312 143.756 
" style="fill:none;stroke:#1f77b4;stroke-linecap:square;stroke-width:0.5;"/>
   </g>
   <g id="line2d_21">
    <path clip-path="url(#p6aef44927f)" d="M 399.740313 233.970206 
L 364.831093 235.157538 
L 343.933093 236.144632 
L 329.514483 237.002743 
L 310.172968 238.461869 
L 297.222131 239.686244 
L 283.533076 241.223953 
L 265.377647 243.575905 
L 248.751991 245.689793 
L 240.212437 246.555134 
L 232.39693 247.116883 
L 225.054348 247.396766 
L 218.080132 247.410096 
L 211.466806 247.170205 
L 205.272941 246.691443 
L 199.59419 245.991184 
L 195.490774 245.285587 
L 191.824242 244.464099 
L 188.619256 243.540167 
L 185.87992 242.527669 
L 183.590417 241.440287 
L 181.718854 240.290988 
L 180.222619 239.091613 
L 179.053799 237.852655 
L 178.164039 236.583129 
L 177.507523 235.290655 
L 176.952479 233.652333 
L 176.629245 231.997843 
L 176.470593 230.001633 
L 176.511795 227.669707 
L 176.801939 224.682554 
L 177.435994 220.741038 
L 178.509062 215.587772 
L 180.176605 208.727131 
L 182.360962 200.695356 
L 184.722374 192.840741 
L 187.165866 185.487492 
L 189.597052 178.887353 
L 192.006863 173.000714 
L 194.385461 167.786626 
L 196.721684 163.202842 
L 199.00292 159.205893 
L 201.316385 155.602835 
L 203.547326 152.529145 
L 205.780076 149.821575 
L 207.994433 147.478833 
L 210.165541 145.495928 
L 212.357481 143.797355 
L 214.433627 142.465071 
L 216.435725 141.440336 
L 218.300158 140.733942 
L 219.960846 140.341651 
L 221.31191 140.241392 
L 222.3457 140.372123 
L 223.073184 140.673154 
L 223.521005 141.087503 
L 223.73052 141.583489 
L 223.721 142.137384 
L 223.48332 142.755188 
L 222.999821 143.388695 
L 222.294616 143.946763 
L 221.540728 144.274541 
L 220.982866 144.301012 
L 220.771747 144.126717 
L 220.821122 143.89367 
L 221.093034 143.680033 
L 221.246478 143.6942 
L 221.220089 143.753955 
L 221.170459 143.767758 
L 221.180313 143.756 
" style="fill:none;stroke:#1f77b4;stroke-linecap:square;stroke-width:0.5;"/>
   </g>
   <g id="line2d_22">
    <path clip-path="url(#p6aef44927f)" d="M 390.321329 276.812 
L 359.127121 277.945413 
" style="fill:none;stroke:#1f77b4;stroke-linecap:square;stroke-width:0.5;"/>
   </g>
   <g id="line2d_23">
    <path clip-path="url(#p6aef44927f)" d="M 328.6163 276.812 
L 317.544653 277.569584 
" style="fill:none;stroke:#1f77b4;stroke-linecap:square;stroke-width:0.5;"/>
   </g>
   <g id="line2d_24">
    <path clip-path="url(#p6aef44927f)" d="M 281.344181 276.812 
L 277.428036 277.245513 
" style="fill:none;stroke:#1f77b4;stroke-linecap:square;stroke-width:0.5;"/>
   </g>
   <g id="line2d_25">
    <path clip-path="url(#p6aef44927f)" d="M 240.599883 276.812 
L 238.580213 276.949148 
" style="fill:none;stroke:#1f77b4;stroke-linecap:square;stroke-width:0.5;"/>
   </g>
   <g id="line2d_26">
    <path clip-path="url(#p6aef44927f)" d="M 201.760742 276.812 
L 195.890153 276.144311 
L 190.617497 275.310331 
L 186.022433 274.329128 
L 182.142338 273.22157 
L 179.697149 272.320797 
L 177.629505 271.369655 
L 175.90991 270.376245 
L 174.502763 269.347955 
L 173.369827 268.291347 
L 172.473052 267.212123 
L 171.583115 265.746285 
L 170.973909 264.258282 
L 170.582165 262.755519 
L 170.321551 260.864825 
L 170.247476 258.588488 
L 170.409735 255.55591 
L 170.853401 251.788007 
L 171.759201 246.211619 
L 173.362524 237.876735 
L 175.667424 227.094959 
L 178.142658 216.535689 
L 180.625241 206.879101 
L 183.109744 198.089255 
L 185.59182 190.129068 
L 187.976247 183.207549 
L 190.34056 177.002456 
L 192.676608 171.47392 
L 194.974912 166.581036 
L 197.323437 162.103763 
L 199.614308 158.210801 
L 201.93432 154.713133 
L 204.167536 151.74098 
L 206.397423 149.134915 
L 208.60248 146.892714 
L 210.756595 145.008218 
L 212.921481 143.408768 
L 214.960516 142.170112 
L 216.913453 141.235358 
L 218.716882 140.612418 
L 220.306558 140.294075 
L 221.583089 140.25359 
L 222.543324 140.42968 
L 223.202254 140.762246 
L 223.589566 141.195588 
L 223.746746 141.699909 
L 223.688659 142.271087 
L 223.389888 142.908335 
L 222.835705 143.545475 
L 222.091049 144.06068 
L 221.361185 144.310807 
L 220.89393 144.266277 
L 220.76339 144.070866 
L 220.869824 143.830889 
L 221.172375 143.663471 
L 221.248247 143.703779 
L 221.176815 143.770858 
L 221.176815 143.770858 
L 221.169323 143.763176 
L 221.179597 143.753587 
L 221.179597 143.753587 
L 221.18211 143.754524 
L 221.180312 143.756 
" style="fill:none;stroke:#1f77b4;stroke-linecap:square;stroke-width:0.5;"/>
   </g>
   <g id="line2d_27">
    <path clip-path="url(#p6aef44927f)" d="M 161.016444 276.812 
L 162.410322 275.483239 
L 163.834438 273.753779 
L 164.91548 272.061315 
L 165.947009 269.985112 
L 166.885335 267.537558 
L 167.839864 264.330564 
L 168.87186 260.002136 
L 170.516088 251.948189 
L 174.279186 233.407629 
L 176.866556 221.850934 
L 179.386722 211.582987 
L 181.912545 202.21875 
L 184.355264 193.99562 
L 186.79005 186.564937 
L 189.210982 179.888147 
L 191.610355 173.925694 
L 193.979158 168.636816 
L 196.306766 163.97958 
L 198.58101 159.910901 
L 200.889416 156.235076 
L 203.118089 153.091174 
L 205.351926 150.313284 
L 207.571611 147.900735 
L 209.753163 145.849309 
L 211.868249 144.150484 
L 213.974015 142.736769 
L 216.0161 141.633279 
L 217.930977 140.853287 
L 219.590628 140.406769 
L 221.017257 140.242059 
L 222.126704 140.323062 
L 222.925643 140.588688 
L 223.437341 140.980783 
L 223.697301 141.446982 
L 223.74485 141.980823 
L 223.566851 142.593904 
L 223.145849 143.230323 
L 222.491816 143.818218 
L 221.721015 144.220245 
L 221.092506 144.320669 
L 220.796613 144.180723 
L 220.786346 143.959024 
L 221.005397 143.720917 
L 221.243788 143.688284 
L 221.24821 143.707661 
L 221.178621 143.771059 
L 221.180312 143.756 
" style="fill:none;stroke:#1f77b4;stroke-linecap:square;stroke-width:0.5;"/>
   </g>
   <g id="line2d_28">
    <path clip-path="url(#p6aef44927f)" d="M 113.744325 276.812 
L 121.655708 276.042173 
L 132.866722 274.648435 
L 140.468129 273.392211 
L 145.963121 272.232324 
L 150.109475 271.143598 
L 153.335591 270.109404 
L 155.904272 269.118135 
L 158.88433 267.69386 
L 161.129274 266.327466 
L 162.864337 265.005224 
L 164.234188 263.717471 
L 165.656708 262.042282 
L 166.754406 260.404351 
L 167.818124 258.397237 
L 168.799204 256.034315 
L 169.807462 252.943065 
L 170.899909 248.778516 
L 172.468876 241.773482 
L 176.749887 222.339312 
L 179.34806 211.731384 
L 181.873002 202.358122 
L 184.314486 194.126318 
L 186.748019 186.686995 
L 189.167625 180.001635 
L 191.565789 174.030672 
L 193.933475 168.733387 
L 196.260082 164.067876 
L 198.533531 159.991106 
L 200.841357 156.307059 
L 203.069756 153.155223 
L 205.303681 150.369381 
L 207.523931 147.948958 
L 209.706607 145.88979 
L 211.823474 144.183459 
L 213.931862 142.762283 
L 215.977505 141.651558 
L 217.896909 140.864785 
L 219.56172 140.412397 
L 220.994088 140.242638 
L 222.109322 140.319716 
L 222.913766 140.582509 
L 223.430423 140.972791 
L 223.694612 141.438069 
L 223.745795 141.97174 
L 223.579073 142.567611 
L 223.164469 143.208629 
L 222.512435 143.803707 
L 221.750005 144.210023 
L 221.109307 144.322148 
L 220.801386 144.187761 
L 220.782283 143.969278 
L 220.993177 143.728299 
L 221.243376 143.687588 
L 221.248003 143.700843 
L 221.183995 143.770891 
L 221.180312 143.756 
" style="fill:none;stroke:#1f77b4;stroke-linecap:square;stroke-width:0.5;"/>
   </g>
   <g id="line2d_29">
    <path clip-path="url(#p6aef44927f)" d="M 52.039296 276.812 
L 80.45223 275.667447 
L 97.876259 274.688203 
L 109.877504 273.816566 
L 118.737383 273.02171 
L 131.058083 271.593652 
L 139.275196 270.315467 
L 145.158279 269.140897 
L 149.569804 268.042276 
L 152.988236 267.001546 
L 155.702709 266.006233 
L 158.845212 264.579369 
L 161.20899 263.21349 
L 163.034465 261.894083 
L 164.475083 260.610954 
L 165.97057 258.944081 
L 167.123757 257.31637 
L 168.239969 255.324042 
L 169.266704 252.981057 
L 170.199194 250.298454 
L 171.256802 246.540387 
L 172.64655 240.673316 
L 178.396822 215.496223 
L 180.890075 205.899627 
L 183.384014 197.170028 
L 185.788005 189.533491 
L 188.178434 182.652047 
L 190.54848 176.486695 
L 192.889967 170.997399 
L 195.193224 166.143106 
L 197.54611 161.705282 
L 199.840353 157.850788 
L 202.061176 154.534157 
L 204.294701 151.582834 
L 206.523804 148.997571 
L 208.726709 146.775937 
L 210.877055 144.91152 
L 213.036069 143.332241 
L 215.067163 142.112573 
L 217.009705 141.195995 
L 218.800348 140.589818 
L 220.375309 140.286236 
L 221.636529 140.257589 
L 222.581778 140.442568 
L 223.226851 140.781216 
L 223.602023 141.218112 
L 223.74879 141.723854 
L 223.681903 142.294454 
L 223.376277 142.928885 
L 222.818452 143.560839 
L 222.074553 144.069101 
L 221.349656 144.312444 
L 220.888993 144.263584 
L 220.76335 144.066978 
L 220.874575 143.825719 
L 221.17788 143.663305 
L 221.248279 143.704918 
L 221.179074 143.771086 
L 221.179074 143.771086 
L 221.169242 143.763896 
L 221.179985 143.753547 
L 221.179985 143.753547 
L 221.182117 143.754595 
L 221.180168 143.756384 
L 221.180168 143.756384 
L 221.180026 143.756165 
L 221.1803 143.755935 
L 221.1803 143.755935 
L 221.18036 143.755962 
L 221.180307 143.756009 
L 221.180307 143.756009 
L 221.180306 143.756003 
L 221.180313 143.755998 
L 221.180313 143.755998 
L 221.180314 143.756 
L 221.180312 143.756 
L 221.180312 143.756 
L 221.180312 143.756 
L 221.180313 143.756 
" style="fill:none;stroke:#1f77b4;stroke-linecap:square;stroke-width:0.5;"/>
   </g>
   <g id="line2d_30">
    <path clip-path="url(#p6aef44927f)" d="M 42.620313 233.970206 
L 75.681293 232.775438 
L 95.239856 231.769421 
L 108.488234 230.883132 
L 118.192111 230.081242 
L 131.646979 228.654142 
L 140.657435 227.390914 
L 147.171971 226.241795 
L 152.122603 225.177289 
L 157.673608 223.698951 
L 161.765365 222.327159 
L 164.902933 221.035472 
L 167.380382 219.806124 
L 169.966409 218.24279 
L 171.97694 216.747435 
L 173.583354 215.305645 
L 175.189388 213.563366 
L 176.708392 211.542446 
L 178.106623 209.260608 
L 179.389203 206.732415 
L 180.825541 203.367714 
L 182.562347 198.662736 
L 189.788167 178.338685 
L 192.217218 172.49113 
L 194.607035 167.317365 
L 196.950872 162.773921 
L 199.237417 158.816739 
L 201.554429 155.254216 
L 203.78697 152.219717 
L 206.019193 149.551432 
L 208.230451 147.247686 
L 210.395441 145.303026 
L 212.577356 143.643057 
L 214.639535 142.347319 
L 216.622956 141.357801 
L 218.46403 140.684175 
L 220.097351 140.32102 
L 221.419541 140.244415 
L 222.424695 140.393202 
L 223.125367 140.706893 
L 223.549422 141.128988 
L 223.738287 141.628538 
L 223.707129 142.201001 
L 223.439856 142.829507 
L 222.927756 143.460125 
L 222.207838 143.997667 
L 221.454741 144.29438 
L 220.94066 144.287395 
L 220.766477 144.104136 
L 220.838213 143.869172 
L 221.126 143.670373 
L 221.247388 143.697362 
L 221.194971 143.768237 
L 221.169535 143.766107 
L 221.180312 143.756 
" style="fill:none;stroke:#1f77b4;stroke-linecap:square;stroke-width:0.5;"/>
   </g>
   <g id="line2d_31">
    <path clip-path="url(#p6aef44927f)" d="M 42.620313 196.770356 
L 76.061707 195.577119 
L 95.89382 194.57499 
L 109.378801 193.694471 
L 119.302158 192.900043 
L 133.170413 191.492598 
L 142.575104 190.25503 
L 149.47094 189.137346 
L 157.031438 187.623668 
L 162.549185 186.25424 
L 166.788494 184.992853 
L 171.147854 183.439589 
L 174.521633 182.000561 
L 177.821982 180.32623 
L 180.430349 178.761135 
L 182.941256 176.997436 
L 185.289713 175.066318 
L 187.460944 172.993704 
L 189.673154 170.566282 
L 192.030136 167.631993 
L 195.016339 163.517188 
L 201.470115 154.498011 
L 204.133955 151.21261 
L 206.611618 148.504394 
L 208.913367 146.305726 
L 211.133605 144.477987 
L 213.341525 142.947191 
L 215.4008 141.782565 
L 217.353453 140.926833 
L 219.1364 140.384243 
L 220.633349 140.147525 
L 221.87031 140.16669 
L 222.782888 140.393904 
L 223.390677 140.767951 
L 223.727317 141.232853 
L 223.835634 141.759886 
L 223.723649 142.36449 
L 223.363419 143.020424 
L 222.754462 143.653302 
L 221.981296 144.137575 
L 221.272121 144.339175 
L 220.849368 144.260631 
L 220.751117 144.054092 
L 220.885158 143.807202 
L 221.196115 143.661132 
L 221.250212 143.70805 
L 221.184071 143.77137 
L 221.184071 143.77137 
L 221.168912 143.765159 
L 221.180313 143.756 
" style="fill:none;stroke:#1f77b4;stroke-linecap:square;stroke-width:0.5;"/>
   </g>
   <g id="line2d_32">
    <path clip-path="url(#p6aef44927f)" d="M 42.620313 165.569424 
L 76.381036 164.377473 
L 96.443637 163.378611 
L 110.128926 162.502946 
L 128.107755 160.993073 
L 139.736287 159.698025 
L 148.066301 158.54938 
L 157.091276 157.02174 
L 163.66688 155.665985 
L 170.212315 154.054174 
L 175.193932 152.612271 
L 180.054764 150.993232 
L 185.279032 148.990611 
L 190.381656 146.76175 
L 195.955968 144.061009 
L 207.660273 138.288423 
L 211.285301 136.810389 
L 214.30281 135.814 
L 216.987879 135.157268 
L 219.358261 134.801821 
L 221.417869 134.710452 
L 223.166921 134.846122 
L 224.608174 135.171922 
L 225.750213 135.651601 
L 226.608428 136.250335 
L 227.204359 136.935514 
L 227.56412 137.677387 
L 227.719814 138.498215 
L 227.660555 139.422519 
L 227.364989 140.41621 
L 226.806976 141.475292 
L 225.994355 142.528068 
L 224.94016 143.519719 
L 223.766965 144.322776 
L 222.568832 144.881437 
L 221.519754 145.137991 
L 220.749373 145.114092 
L 220.312099 144.897578 
L 220.156284 144.587852 
L 220.225305 144.220232 
L 220.532163 143.826232 
L 221.014109 143.553564 
L 221.330559 143.580068 
L 221.30337 143.727699 
L 221.157552 143.78658 
L 221.180312 143.756 
" style="fill:none;stroke:#1f77b4;stroke-linecap:square;stroke-width:0.5;"/>
   </g>
   <g id="line2d_33">
    <path clip-path="url(#p6aef44927f)" d="M 42.620313 136.541913 
L 76.678348 135.351158 
L 96.956301 134.355339 
L 110.829469 133.484206 
L 129.154227 131.98738 
L 141.114145 130.710405 
L 149.769878 129.58473 
L 159.28088 128.100605 
L 168.333898 126.398114 
L 176.505746 124.58933 
L 184.854051 122.488174 
L 205.075326 117.234737 
L 209.759794 116.314531 
L 214.007415 115.693207 
L 217.899722 115.34453 
L 221.472297 115.246058 
L 224.733741 115.376749 
L 227.678285 115.715596 
L 230.295073 116.240989 
L 232.575054 116.930617 
L 234.515571 117.761761 
L 236.122628 118.711803 
L 237.282936 119.63836 
L 238.206632 120.626948 
L 238.986249 121.796412 
L 239.519377 123.009719 
L 239.836194 124.251356 
L 239.97003 125.647811 
L 239.89455 127.186313 
L 239.595315 128.847857 
L 239.021072 130.740855 
L 238.140695 132.817485 
L 237.016416 134.896483 
L 235.602974 137.040084 
L 234.003158 139.071374 
L 232.176402 141.02431 
L 230.254128 142.743937 
L 228.295568 144.190405 
L 226.366707 145.334041 
L 224.539172 146.158462 
L 222.885835 146.66338 
L 221.473385 146.866301 
L 220.386236 146.808356 
L 219.618894 146.557233 
L 219.145834 146.1773 
L 218.927262 145.725992 
L 218.924322 145.200979 
L 219.149125 144.621522 
L 219.630444 144.017038 
L 220.317319 143.513951 
L 221.014845 143.263949 
L 221.449701 143.311407 
L 221.549468 143.502304 
L 221.412529 143.731955 
L 221.133264 143.82636 
L 221.130887 143.772244 
L 221.189486 143.751498 
L 221.189486 143.751498 
L 221.179288 143.758002 
L 221.180313 143.756 
" style="fill:none;stroke:#1f77b4;stroke-linecap:square;stroke-width:0.5;"/>
   </g>
   <g id="line2d_34">
    <path clip-path="url(#p6aef44927f)" d="M 42.620313 106.813183 
L 76.983019 105.623654 
L 97.482232 104.630957 
L 111.549371 103.764475 
L 130.233554 102.281085 
L 142.540677 101.02279 
L 155.251311 99.41612 
L 166.835313 97.634257 
L 177.087446 95.810665 
L 200.922982 91.420607 
L 207.351287 90.534548 
L 213.215262 89.968201 
L 218.657775 89.696335 
L 223.031415 89.682302 
L 227.140251 89.857923 
L 230.968572 90.211065 
L 234.490949 90.728638 
L 237.680213 91.396342 
L 240.514205 92.198758 
L 242.980696 93.119689 
L 245.079799 94.142656 
L 246.823966 95.251469 
L 248.235977 96.430737 
L 249.345878 97.666261 
L 250.187663 98.945283 
L 250.796318 100.2566 
L 251.256634 101.814479 
L 251.494277 103.390364 
L 251.547215 105.200075 
L 251.389653 107.232452 
L 250.965112 109.692729 
L 250.231364 112.544153 
L 249.175844 115.734007 
L 247.720405 119.393238 
L 245.952144 123.218358 
L 243.987923 126.942206 
L 241.854773 130.507167 
L 239.674064 133.718179 
L 237.470147 136.569471 
L 235.266843 139.059183 
L 233.090182 141.189501 
L 230.969333 142.967133 
L 228.846452 144.461286 
L 226.775009 145.644556 
L 224.892061 146.473626 
L 223.17076 147.000685 
L 221.672553 147.236192 
L 220.488644 147.211759 
L 219.617048 146.988389 
L 219.038439 146.62497 
L 218.720116 146.175277 
L 218.621084 145.647705 
L 218.740066 145.066334 
L 219.107289 144.422943 
L 219.714088 143.81368 
L 220.467116 143.361932 
L 221.154608 143.190379 
L 221.528856 143.293594 
L 221.588349 143.50447 
L 221.416407 143.748786 
L 221.125732 143.833355 
L 221.127711 143.77071 
L 221.180313 143.756 
" style="fill:none;stroke:#1f77b4;stroke-linecap:square;stroke-width:0.5;"/>
   </g>
   <g id="line2d_35">
    <path clip-path="url(#p6aef44927f)" d="M 42.620313 73.214173 
L 77.327632 72.02603 
L 98.07804 71.036865 
L 112.366271 70.175658 
L 131.463052 68.707543 
L 144.172971 67.470576 
L 157.49329 65.907185 
L 169.918577 64.204593 
L 197.996229 60.198677 
L 206.237844 59.349533 
L 212.572683 58.912034 
L 218.562068 58.703866 
L 224.257161 58.7133 
L 229.657905 58.929501 
L 234.729271 59.340944 
L 239.416386 59.934369 
L 243.659994 60.694335 
L 247.410998 61.603355 
L 250.641284 62.642476 
L 252.848363 63.554319 
L 254.731094 64.527073 
L 256.308776 65.55134 
L 257.606821 66.618397 
L 258.654204 67.720334 
L 259.656939 69.136192 
L 260.372556 70.583892 
L 260.853496 72.053732 
L 261.184632 73.835792 
L 261.312527 75.92684 
L 261.213187 78.317362 
L 260.840998 81.288019 
L 260.166919 84.805872 
L 259.049873 89.389292 
L 257.470088 94.917157 
L 255.434911 101.226878 
L 253.216822 107.402864 
L 250.923058 113.158379 
L 248.56322 118.480337 
L 246.241744 123.170654 
L 243.971941 127.271929 
L 241.666636 130.981009 
L 239.439571 134.157105 
L 237.205756 136.96732 
L 234.984114 139.412044 
L 232.798237 141.495139 
L 230.676151 143.224703 
L 228.559931 144.669066 
L 226.503511 145.802323 
L 224.643024 146.584745 
L 222.951635 147.068105 
L 221.489469 147.264586 
L 220.344048 147.208393 
L 219.510775 146.960743 
L 218.968076 146.580268 
L 218.68159 146.120104 
L 218.611145 145.587584 
L 218.761982 144.988813 
L 219.165368 144.340276 
L 219.7996 143.743458 
L 220.569269 143.317306 
L 221.219704 143.188039 
L 221.549652 143.311775 
L 221.583037 143.52937 
L 221.38657 143.771273 
L 221.117993 143.825566 
L 221.11513 143.820333 
L 221.161298 143.745462 
L 221.180312 143.756 
" style="fill:none;stroke:#1f77b4;stroke-linecap:square;stroke-width:0.5;"/>
   </g>
   <g id="line2d_36">
    <path clip-path="url(#p6aef44927f)" d="M 42.620313 30.737215 
L 77.763696 29.550824 
L 98.833264 28.566134 
L 113.403872 27.71162 
L 133.032028 26.262955 
L 146.266891 25.053276 
L 160.39447 23.545656 
L 197.606595 19.363886 
L 205.334755 18.777809 
L 212.60318 18.414762 
L 219.545748 18.263291 
L 226.212054 18.314597 
L 232.589895 18.560397 
L 238.622394 18.991337 
L 244.226181 19.595919 
L 249.312201 20.360025 
L 253.806404 21.267057 
L 257.665713 22.298643 
L 260.885219 23.43569 
L 262.897511 24.346397 
L 264.590332 25.298469 
L 265.992937 26.285081 
L 267.137513 27.300102 
L 268.318734 28.688425 
L 269.173231 30.106912 
L 269.766812 31.54683 
L 270.225945 33.36647 
L 270.450952 35.198621 
L 270.502773 37.403392 
L 270.327775 40.339529 
L 269.877206 43.986202 
L 268.961059 49.379859 
L 267.404996 57.087329 
L 265.20981 66.841099 
L 262.765565 76.731314 
L 260.316522 85.755421 
L 257.869703 93.949695 
L 255.430637 101.351645 
L 253.005578 107.999862 
L 250.602158 113.934027 
L 248.229614 119.194989 
L 245.898734 123.824802 
L 243.621816 127.866697 
L 241.311422 131.515314 
L 239.081814 134.632941 
L 236.848291 137.384504 
L 234.630485 139.770902 
L 232.452708 141.796635 
L 230.249853 143.538485 
L 228.158468 144.911807 
L 226.135885 145.976174 
L 224.245716 146.719535 
L 222.6142 147.134362 
L 221.218851 147.271892 
L 220.140865 147.169822 
L 219.371753 146.889102 
L 218.886825 146.487407 
L 218.64962 146.016422 
L 218.624262 145.462795 
L 218.824746 144.854768 
L 219.273492 144.215532 
L 219.946623 143.640822 
L 220.714863 143.267079 
L 221.316764 143.197684 
L 221.57653 143.353327 
L 221.562888 143.57782 
L 221.32131 143.809413 
L 221.115673 143.821528 
L 221.117538 143.785869 
L 221.187565 143.742258 
L 221.180312 143.756 
" style="fill:none;stroke:#1f77b4;stroke-linecap:square;stroke-width:0.5;"/>
   </g>
   <g id="line2d_37">
    <path clip-path="url(#p6aef44927f)" d="M 85.442529 10.7 
L 104.179118 9.762785 
" style="fill:none;stroke:#1f77b4;stroke-linecap:square;stroke-width:0.5;"/>
   </g>
   <g id="line2d_38">
    <path clip-path="url(#p6aef44927f)" d="M 138.56966 10.7 
L 145.065661 10.109251 
" style="fill:none;stroke:#1f77b4;stroke-linecap:square;stroke-width:0.5;"/>
   </g>
   <g id="line2d_39">
    <path clip-path="url(#p6aef44927f)" d="M 181.876284 10.7 
L 184.474424 10.416877 
" style="fill:none;stroke:#1f77b4;stroke-linecap:square;stroke-width:0.5;"/>
   </g>
   <g id="line2d_40">
    <path clip-path="url(#p6aef44927f)" d="M 221.180312 10.7 
L 228.177176 10.805007 
L 234.853436 11.113931 
L 241.131805 11.616155 
L 246.910045 12.298327 
L 252.087463 13.144002 
L 256.589251 14.134067 
L 260.382835 15.247783 
L 262.769958 16.151543 
L 264.786313 17.104474 
L 266.461728 18.098609 
L 267.831669 19.126713 
L 268.93396 20.182365 
L 269.805742 21.260022 
L 270.669761 22.723019 
L 271.259997 24.207517 
L 271.638039 25.706307 
L 271.886764 27.591562 
L 271.951824 29.860867 
L 271.782824 32.883612 
L 271.33471 36.63883 
L 270.425475 42.195726 
L 268.818207 50.500125 
L 266.507737 61.239726 
L 264.026236 71.754034 
L 261.53717 81.365582 
L 259.045877 90.110379 
L 256.644194 97.761609 
L 254.256001 104.657677 
L 251.888046 110.837547 
L 249.548525 116.341175 
L 247.247069 121.209557 
L 244.89576 125.661796 
L 242.602739 129.530324 
L 240.28134 133.003251 
L 238.047783 135.951598 
L 235.818806 138.533894 
L 233.616221 140.752606 
L 231.466423 142.614161 
L 229.308259 144.190569 
L 227.278308 145.407539 
L 225.337256 146.321535 
L 223.548441 146.925333 
L 221.975583 147.226823 
L 220.716545 147.253795 
L 219.773429 147.067562 
L 219.130326 146.728059 
L 218.756876 146.290669 
L 218.611582 145.784735 
L 218.67971 145.214226 
L 218.986297 144.580202 
L 219.544629 143.948989 
L 220.288414 143.441713 
L 221.0126 143.199332 
L 221.472326 143.248802 
L 221.597276 143.445575 
L 221.485672 143.686687 
L 221.181259 143.84871 
L 221.112344 143.806485 
L 221.181006 143.740894 
L 221.181006 143.740894 
L 221.19139 143.747954 
L 221.180492 143.758461 
L 221.180492 143.758461 
L 221.178506 143.757376 
L 221.180392 143.755603 
L 221.180392 143.755603 
L 221.180606 143.755803 
L 221.180331 143.756064 
L 221.180331 143.756064 
L 221.180265 143.756039 
L 221.180312 143.756 
" style="fill:none;stroke:#1f77b4;stroke-linecap:square;stroke-width:0.5;"/>
   </g>
   <g id="patch_56">
    <path d="M 42.620313 276.812 
L 42.620313 10.7 
" style="fill:none;stroke:#000000;stroke-linecap:square;stroke-linejoin:miter;stroke-width:0.8;"/>
   </g>
   <g id="patch_57">
    <path d="M 399.740313 276.812 
L 399.740313 10.7 
" style="fill:none;stroke:#000000;stroke-linecap:square;stroke-linejoin:miter;stroke-width:0.8;"/>
   </g>
   <g id="patch_58">
    <path d="M 42.620313 276.812 
L 399.740313 276.812 
" style="fill:none;stroke:#000000;stroke-linecap:square;stroke-linejoin:miter;stroke-width:0.8;"/>
   </g>
   <g id="patch_59">
    <path d="M 42.620313 10.7 
L 399.740313 10.7 
" style="fill:none;stroke:#000000;stroke-linecap:square;stroke-linejoin:miter;stroke-width:0.8;"/>
   </g>
  </g>
 </g>
 <defs>
  <clipPath id="p6aef44927f">
   <rect height="266.112" width="357.12" x="42.620313" y="10.7"/>
  </clipPath>
 </defs>
</svg>
