<?xml version="1.0" encoding="utf-8" standalone="no"?>
<!DOCTYPE svg PUBLIC "-//W3C//DTD SVG 1.1//EN"
  "http://www.w3.org/Graphics/SVG/1.1/DTD/svg11.dtd">
<!-- Created with matplotlib (http://matplotlib.org/) -->
<svg height="314pt" version="1.1" viewBox="0 0 410 314" width="410pt" xmlns="http://www.w3.org/2000/svg" xmlns:xlink="http://www.w3.org/1999/xlink">
 <defs>
  <style type="text/css">
*{stroke-linecap:butt;stroke-linejoin:round;}
  </style>
 </defs>
 <g id="figure_1">
  <g id="patch_1">
   <path d="M 0 314.36825 
L 410.440313 314.36825 
L 410.440313 0 
L 0 0 
z
" style="fill:#ffffff;"/>
  </g>
  <g id="axes_1">
   <g id="patch_2">
    <path d="M 42.620313 276.812 
L 399.740313 276.812 
L 399.740313 10.7 
L 42.620313 10.7 
z
" style="fill:#ffffff;"/>
   </g>
   <g id="patch_3">
    <path clip-path="url(#pcb38319a3a)" d="M 236.283275 32.352304 
L 233.447888 26.78959 
L 236.983245 27.055667 
L 237.018792 27.058224 
L 237.018776 27.058342 
L 240.554134 27.324419 
z
" style="fill:#ff7f0e;stroke:#ff7f0e;stroke-linejoin:miter;"/>
   </g>
   <g id="patch_4">
    <path clip-path="url(#pcb38319a3a)" d="M 228.650395 88.654125 
L 225.815158 83.091368 
L 229.350508 83.357499 
L 229.386048 83.360113 
L 229.386039 83.360174 
L 232.92139 83.626304 
z
" style="fill:#ff7f0e;stroke:#ff7f0e;stroke-linejoin:miter;"/>
   </g>
   <g id="patch_5">
    <path clip-path="url(#pcb38319a3a)" d="M 237.059883 26.475677 
L 234.252249 20.905152 
L 237.786255 21.181014 
L 237.82179 21.183663 
L 237.821773 21.183787 
L 241.355779 21.45965 
z
" style="fill:#ff7f0e;stroke:#ff7f0e;stroke-linejoin:miter;"/>
   </g>
   <g id="patch_6">
    <path clip-path="url(#pcb38319a3a)" d="M 227.265602 98.868591 
L 224.430398 93.305825 
L 227.965747 93.571967 
L 228.001285 93.574591 
L 228.001278 93.574642 
L 231.536627 93.840784 
z
" style="fill:#ff7f0e;stroke:#ff7f0e;stroke-linejoin:miter;"/>
   </g>
   <g id="patch_7">
    <path clip-path="url(#pcb38319a3a)" d="M 236.494693 30.683613 
L 233.679565 25.115189 
L 237.21394 25.388411 
L 237.249478 25.391037 
L 237.249462 25.391157 
L 240.783838 25.664379 
z
" style="fill:#ff7f0e;stroke:#ff7f0e;stroke-linejoin:miter;"/>
   </g>
   <g id="patch_8">
    <path clip-path="url(#pcb38319a3a)" d="M 227.26173 98.897523 
L 224.426473 93.334772 
L 227.961824 93.600896 
L 227.997362 93.60352 
L 227.997356 93.60357 
L 231.532707 93.869694 
z
" style="fill:#ff7f0e;stroke:#ff7f0e;stroke-linejoin:miter;"/>
   </g>
   <g id="patch_9">
    <path clip-path="url(#pcb38319a3a)" d="M 259.626121 16.456488 
L 266.097627 12.970363 
L 266.67178 15.583384 
L 266.680246 15.609317 
L 266.677551 15.609645 
L 267.251704 18.222666 
z
" style="fill:#ff7f0e;stroke:#ff7f0e;stroke-linejoin:miter;"/>
   </g>
   <g id="patch_10">
    <path clip-path="url(#pcb38319a3a)" d="M 227.984903 93.563701 
L 225.149584 88.000968 
L 228.684938 88.26707 
L 228.720477 88.269688 
L 228.720469 88.269744 
L 232.255824 88.535845 
z
" style="fill:#ff7f0e;stroke:#ff7f0e;stroke-linejoin:miter;"/>
   </g>
   <g id="patch_11">
    <path clip-path="url(#pcb38319a3a)" d="M 270.257634 18.697137 
L 276.813268 15.299413 
L 277.323464 17.919792 
L 277.332331 17.945723 
L 277.328591 17.946128 
L 277.838787 20.566507 
z
" style="fill:#ff7f0e;stroke:#ff7f0e;stroke-linejoin:miter;"/>
   </g>
   <g id="patch_12">
    <path clip-path="url(#pcb38319a3a)" d="M 233.960776 49.482993 
L 231.125529 43.92024 
L 234.66088 44.186367 
L 234.696425 44.188941 
L 234.696411 44.189041 
L 238.231762 44.455168 
z
" style="fill:#ff7f0e;stroke:#ff7f0e;stroke-linejoin:miter;"/>
   </g>
   <g id="patch_13">
    <path clip-path="url(#pcb38319a3a)" d="M 319.591238 22.774353 
L 326.260926 19.502203 
L 326.681355 22.131418 
L 326.694073 22.157088 
L 326.68558 22.157842 
L 327.106009 24.787058 
z
" style="fill:#ff7f0e;stroke:#ff7f0e;stroke-linejoin:miter;"/>
   </g>
   <g id="patch_14">
    <path clip-path="url(#pcb38319a3a)" d="M 231.527804 67.428944 
L 228.692642 61.866167 
L 232.227988 62.132323 
L 232.263531 62.134916 
L 232.263519 62.134998 
L 235.798866 62.401155 
z
" style="fill:#ff7f0e;stroke:#ff7f0e;stroke-linejoin:miter;"/>
   </g>
   <g id="patch_15">
    <path clip-path="url(#pcb38319a3a)" d="M 362.4622 54.921756 
L 369.174788 51.698686 
L 369.560465 54.330857 
L 369.577328 54.356255 
L 369.564342 54.357311 
L 369.950019 56.989483 
z
" style="fill:#ff7f0e;stroke:#ff7f0e;stroke-linejoin:miter;"/>
   </g>
   <g id="patch_16">
    <path clip-path="url(#pcb38319a3a)" d="M 229.644081 81.322867 
L 226.809089 75.760041 
L 230.344428 76.026258 
L 230.379968 76.028865 
L 230.379959 76.028934 
L 233.915297 76.295151 
z
" style="fill:#ff7f0e;stroke:#ff7f0e;stroke-linejoin:miter;"/>
   </g>
   <g id="patch_17">
    <path clip-path="url(#pcb38319a3a)" d="M 361.760894 83.606224 
L 368.486731 80.398527 
L 368.861561 83.031568 
L 368.878614 83.056981 
L 368.865328 83.058031 
L 369.240157 85.691073 
z
" style="fill:#ff7f0e;stroke:#ff7f0e;stroke-linejoin:miter;"/>
   </g>
   <g id="patch_18">
    <path clip-path="url(#pcb38319a3a)" d="M 242.245415 93.690191 
L 248.85257 90.34834 
L 249.322671 92.97288 
L 249.329427 92.999055 
L 249.327395 92.999257 
L 249.797496 95.623797 
z
" style="fill:#ff7f0e;stroke:#ff7f0e;stroke-linejoin:miter;"/>
   </g>
   <g id="patch_19">
    <path clip-path="url(#pcb38319a3a)" d="M 361.160484 108.183967 
L 367.897165 104.98893 
L 368.263075 107.622669 
L 368.280296 107.648094 
L 368.266752 107.649138 
L 368.632662 110.282877 
z
" style="fill:#ff7f0e;stroke:#ff7f0e;stroke-linejoin:miter;"/>
   </g>
   <g id="patch_20">
    <path clip-path="url(#pcb38319a3a)" d="M 289.326935 113.780911 
L 296.053129 110.573628 
L 296.427666 113.206693 
L 296.438206 113.232621 
L 296.43143 113.233156 
L 296.805968 115.866221 
z
" style="fill:#ff7f0e;stroke:#ff7f0e;stroke-linejoin:miter;"/>
   </g>
   <g id="patch_21">
    <path clip-path="url(#pcb38319a3a)" d="M 360.61419 130.552249 
L 367.360358 127.368346 
L 367.718433 130.002682 
L 367.73581 130.028118 
L 367.722032 130.029158 
L 368.080107 132.663494 
z
" style="fill:#ff7f0e;stroke:#ff7f0e;stroke-linejoin:miter;"/>
   </g>
   <g id="patch_22">
    <path clip-path="url(#pcb38319a3a)" d="M 287.543279 136.073256 
L 294.288337 132.888047 
L 294.647331 135.522313 
L 294.657829 135.548267 
L 294.650939 135.548788 
L 295.009932 138.183055 
z
" style="fill:#ff7f0e;stroke:#ff7f0e;stroke-linejoin:miter;"/>
   </g>
   <g id="patch_23">
    <path clip-path="url(#pcb38319a3a)" d="M 360.089522 152.055161 
L 366.844484 148.881628 
L 367.19527 151.516508 
L 367.212798 151.541954 
L 367.198796 151.542989 
L 367.549582 154.17787 
z
" style="fill:#ff7f0e;stroke:#ff7f0e;stroke-linejoin:miter;"/>
   </g>
   <g id="patch_24">
    <path clip-path="url(#pcb38319a3a)" d="M 261.54138 159.247496 
L 268.311156 156.09154 
L 268.649606 158.727316 
L 268.657719 158.753471 
L 268.653008 158.753807 
L 268.991458 161.389583 
z
" style="fill:#ff7f0e;stroke:#ff7f0e;stroke-linejoin:miter;"/>
   </g>
   <g id="patch_25">
    <path clip-path="url(#pcb38319a3a)" d="M 345.327823 174.870104 
L 352.093058 171.708746 
L 352.435298 174.34425 
L 352.451626 174.369808 
L 352.438737 174.370738 
L 352.780976 177.006242 
z
" style="fill:#ff7f0e;stroke:#ff7f0e;stroke-linejoin:miter;"/>
   </g>
   <g id="patch_26">
    <path clip-path="url(#pcb38319a3a)" d="M 259.414843 180.892849 
L 266.209729 177.767 
L 266.527102 180.404232 
L 266.535078 180.430417 
L 266.530292 180.430737 
L 266.847665 183.067969 
z
" style="fill:#ff7f0e;stroke:#ff7f0e;stroke-linejoin:miter;"/>
   </g>
   <g id="patch_27">
    <path clip-path="url(#pcb38319a3a)" d="M 331.407695 199.065077 
L 338.185546 195.918758 
L 338.517242 198.555011 
L 338.532448 198.580677 
L 338.520575 198.581506 
L 338.852271 201.217759 
z
" style="fill:#ff7f0e;stroke:#ff7f0e;stroke-linejoin:miter;"/>
   </g>
   <g id="patch_28">
    <path clip-path="url(#pcb38319a3a)" d="M 218.459746 205.773937 
L 225.486463 202.946974 
L 225.598062 205.593483 
L 225.600394 205.620052 
L 225.599184 205.620081 
L 225.710783 208.266589 
z
" style="fill:#ff7f0e;stroke:#ff7f0e;stroke-linejoin:miter;"/>
   </g>
   <g id="patch_29">
    <path clip-path="url(#pcb38319a3a)" d="M 318.142042 226.20463 
L 324.935933 223.077579 
L 325.254146 225.714755 
L 325.268301 225.740525 
L 325.257344 225.741259 
L 325.575557 228.378435 
z
" style="fill:#ff7f0e;stroke:#ff7f0e;stroke-linejoin:miter;"/>
   </g>
   <g id="patch_30">
    <path clip-path="url(#pcb38319a3a)" d="M 209.380089 231.014694 
L 216.767955 228.756133 
L 216.504096 231.396637 
L 216.502118 231.423212 
L 216.501444 231.423175 
L 216.237585 234.063679 
z
" style="fill:#ff7f0e;stroke:#ff7f0e;stroke-linejoin:miter;"/>
   </g>
   <g id="patch_31">
    <path clip-path="url(#pcb38319a3a)" d="M 316.460233 257.968812 
L 323.269009 254.85979 
L 323.57463 257.497793 
L 323.588905 257.523584 
L 323.577702 257.524305 
L 323.883323 260.162308 
z
" style="fill:#ff7f0e;stroke:#ff7f0e;stroke-linejoin:miter;"/>
   </g>
   <g id="patch_32">
    <path clip-path="url(#pcb38319a3a)" d="M 208.883057 234.464523 
L 211.718323 240.027271 
L 208.182972 239.761151 
L 208.147427 239.758573 
L 208.147441 239.758476 
L 204.612089 239.492356 
z
" style="fill:#ff7f0e;stroke:#ff7f0e;stroke-linejoin:miter;"/>
   </g>
   <g id="patch_33">
    <path clip-path="url(#pcb38319a3a)" d="M 372.239818 277.286514 
L 379.036259 274.162543 
L 379.35232 276.799862 
L 379.372257 276.825253 
L 379.355496 276.826368 
L 379.671556 279.463688 
z
" style="fill:#ff7f0e;stroke:#ff7f0e;stroke-linejoin:miter;"/>
   </g>
   <g id="patch_34">
    <path clip-path="url(#pcb38319a3a)" d="M 326.965998 277.266793 
L 333.777733 274.161374 
L 334.080842 276.799537 
L 334.096338 276.825257 
L 334.083888 276.826051 
L 334.386996 279.464215 
z
" style="fill:#ff7f0e;stroke:#ff7f0e;stroke-linejoin:miter;"/>
   </g>
   <g id="patch_35">
    <path clip-path="url(#pcb38319a3a)" d="M 290.129018 277.236915 
L 296.963917 274.159886 
L 297.247252 276.79927 
L 297.259043 276.825263 
L 297.2501 276.825796 
L 297.533434 279.46518 
z
" style="fill:#ff7f0e;stroke:#ff7f0e;stroke-linejoin:miter;"/>
   </g>
   <g id="patch_36">
    <path clip-path="url(#pcb38319a3a)" d="M 258.06037 277.182087 
L 264.937388 274.157616 
L 265.184269 276.799032 
L 265.19264 276.825273 
L 265.186751 276.825579 
L 265.433632 279.466995 
z
" style="fill:#ff7f0e;stroke:#ff7f0e;stroke-linejoin:miter;"/>
   </g>
   <g id="patch_37">
    <path clip-path="url(#pcb38319a3a)" d="M 228.45594 277.034623 
L 235.442779 274.153303 
L 235.591348 276.798802 
L 235.595913 276.825294 
L 235.592841 276.82539 
L 235.741409 279.470889 
z
" style="fill:#ff7f0e;stroke:#ff7f0e;stroke-linejoin:miter;"/>
   </g>
   <g id="patch_38">
    <path clip-path="url(#pcb38319a3a)" d="M 207.188921 246.961367 
L 210.024139 252.524129 
L 206.48879 252.257991 
L 206.453244 252.255426 
L 206.453258 252.255317 
L 202.917909 251.989179 
z
" style="fill:#ff7f0e;stroke:#ff7f0e;stroke-linejoin:miter;"/>
   </g>
   <g id="patch_39">
    <path clip-path="url(#pcb38319a3a)" d="M 212.995094 204.132793 
L 215.830351 209.695544 
L 212.295 209.429421 
L 212.25946 209.426813 
L 212.259468 209.426746 
L 208.724117 209.160623 
z
" style="fill:#ff7f0e;stroke:#ff7f0e;stroke-linejoin:miter;"/>
   </g>
   <g id="patch_40">
    <path clip-path="url(#pcb38319a3a)" d="M 203.140754 271.919594 
L 197.572221 276.184547 
L 196.402394 273.684338 
L 196.389937 273.659392 
L 196.390637 273.65921 
L 195.220811 271.159002 
z
" style="fill:#ff7f0e;stroke:#ff7f0e;stroke-linejoin:miter;"/>
   </g>
   <g id="patch_41">
    <path clip-path="url(#pcb38319a3a)" d="M 211.977232 211.640686 
L 214.81252 217.203428 
L 211.277167 216.937316 
L 211.241626 216.934715 
L 211.241636 216.934641 
L 207.706283 216.668529 
z
" style="fill:#ff7f0e;stroke:#ff7f0e;stroke-linejoin:miter;"/>
   </g>
   <g id="patch_42">
    <path clip-path="url(#pcb38319a3a)" d="M 196.292944 270.538916 
L 190.096964 274.292723 
L 189.325008 271.708147 
L 189.31585 271.682404 
L 189.31725 271.682171 
L 188.545295 269.097596 
z
" style="fill:#ff7f0e;stroke:#ff7f0e;stroke-linejoin:miter;"/>
   </g>
   <g id="patch_43">
    <path clip-path="url(#pcb38319a3a)" d="M 212.771441 205.782792 
L 215.60666 211.345553 
L 212.07131 211.079416 
L 212.03577 211.07681 
L 212.035779 211.076742 
L 208.50043 210.810605 
z
" style="fill:#ff7f0e;stroke:#ff7f0e;stroke-linejoin:miter;"/>
   </g>
   <g id="patch_44">
    <path clip-path="url(#pcb38319a3a)" d="M 172.018728 270.648915 
L 165.466896 274.050709 
L 164.95377 271.430647 
L 164.94489 271.40472 
L 164.948613 271.404315 
L 164.435487 268.784254 
z
" style="fill:#ff7f0e;stroke:#ff7f0e;stroke-linejoin:miter;"/>
   </g>
   <g id="patch_45">
    <path clip-path="url(#pcb38319a3a)" d="M 211.519936 215.014347 
L 214.355152 220.577109 
L 210.819803 220.310971 
L 210.784261 220.308374 
L 210.784272 220.308297 
L 207.248923 220.042159 
z
" style="fill:#ff7f0e;stroke:#ff7f0e;stroke-linejoin:miter;"/>
   </g>
   <g id="patch_46">
    <path clip-path="url(#pcb38319a3a)" d="M 106.524823 273.081035 
L 99.847957 276.345047 
L 99.433304 273.715322 
L 99.419203 273.689763 
L 99.429136 273.688893 
L 99.014483 271.059169 
z
" style="fill:#ff7f0e;stroke:#ff7f0e;stroke-linejoin:miter;"/>
   </g>
   <g id="patch_47">
    <path clip-path="url(#pcb38319a3a)" d="M 208.943042 234.022113 
L 211.778323 239.584857 
L 208.242971 239.318742 
L 208.207426 239.316164 
L 208.207439 239.316068 
L 204.672087 239.049953 
z
" style="fill:#ff7f0e;stroke:#ff7f0e;stroke-linejoin:miter;"/>
   </g>
   <g id="patch_48">
    <path clip-path="url(#pcb38319a3a)" d="M 92.296899 248.306606 
L 85.596807 251.544082 
L 85.200949 248.91275 
L 85.185365 248.887274 
L 85.19697 248.886304 
L 84.801112 246.254972 
z
" style="fill:#ff7f0e;stroke:#ff7f0e;stroke-linejoin:miter;"/>
   </g>
   <g id="patch_49">
    <path clip-path="url(#pcb38319a3a)" d="M 212.518176 207.651116 
L 215.353384 213.213881 
L 211.818035 212.94774 
L 211.782494 212.945136 
L 211.782504 212.945066 
L 208.247155 212.678925 
z
" style="fill:#ff7f0e;stroke:#ff7f0e;stroke-linejoin:miter;"/>
   </g>
   <g id="patch_50">
    <path clip-path="url(#pcb38319a3a)" d="M 105.311046 215.559164 
L 98.597463 218.781083 
L 98.212598 216.148846 
L 98.197946 216.123266 
L 98.20873 216.122391 
L 97.823866 213.490153 
z
" style="fill:#ff7f0e;stroke:#ff7f0e;stroke-linejoin:miter;"/>
   </g>
   <g id="patch_51">
    <path clip-path="url(#pcb38319a3a)" d="M 184.870958 208.716086 
L 178.233978 212.024959 
L 177.787427 209.398136 
L 177.779645 209.372047 
L 177.782939 209.371736 
L 177.336387 206.744914 
z
" style="fill:#ff7f0e;stroke:#ff7f0e;stroke-linejoin:miter;"/>
   </g>
   <g id="patch_52">
    <path clip-path="url(#pcb38319a3a)" d="M 80.909144 191.240728 
L 74.177662 194.441844 
L 73.80747 191.808438 
L 73.790331 191.783019 
L 73.80375 191.781972 
L 73.433559 189.148566 
z
" style="fill:#ff7f0e;stroke:#ff7f0e;stroke-linejoin:miter;"/>
   </g>
   <g id="patch_53">
    <path clip-path="url(#pcb38319a3a)" d="M 179.891157 183.300406 
L 173.195345 186.542795 
L 172.796011 183.911755 
L 172.787903 183.885657 
L 172.791998 183.885312 
L 172.392664 181.254272 
z
" style="fill:#ff7f0e;stroke:#ff7f0e;stroke-linejoin:miter;"/>
   </g>
   <g id="patch_54">
    <path clip-path="url(#pcb38319a3a)" d="M 95.138928 166.916687 
L 88.397973 170.106715 
L 88.035589 167.472706 
L 88.019572 167.447179 
L 88.031947 167.446234 
L 87.669563 164.812225 
z
" style="fill:#ff7f0e;stroke:#ff7f0e;stroke-linejoin:miter;"/>
   </g>
   <g id="patch_55">
    <path clip-path="url(#pcb38319a3a)" d="M 160.773216 161.871752 
L 154.038519 165.069111 
L 153.670974 162.435499 
L 153.66109 162.40951 
L 153.66728 162.409031 
L 153.299735 159.775419 
z
" style="fill:#ff7f0e;stroke:#ff7f0e;stroke-linejoin:miter;"/>
   </g>
   <g id="patch_56">
    <path clip-path="url(#pcb38319a3a)" d="M 82.009384 146.17338 
L 75.258766 149.352041 
L 74.904376 146.717429 
L 74.886924 146.691988 
L 74.900815 146.69095 
L 74.546425 144.056337 
z
" style="fill:#ff7f0e;stroke:#ff7f0e;stroke-linejoin:miter;"/>
   </g>
   <g id="patch_57">
    <path clip-path="url(#pcb38319a3a)" d="M 162.622831 140.174934 
L 155.868263 143.348932 
L 155.51715 140.714076 
L 155.507329 140.688061 
L 155.513621 140.687595 
L 155.162508 138.052739 
z
" style="fill:#ff7f0e;stroke:#ff7f0e;stroke-linejoin:miter;"/>
   </g>
   <g id="patch_58">
    <path clip-path="url(#pcb38319a3a)" d="M 66.951391 125.812047 
L 60.193248 128.981816 
L 59.845105 126.346741 
L 59.826021 126.321401 
L 59.841606 126.320258 
L 59.493463 123.685182 
z
" style="fill:#ff7f0e;stroke:#ff7f0e;stroke-linejoin:miter;"/>
   </g>
   <g id="patch_59">
    <path clip-path="url(#pcb38319a3a)" d="M 198.344409 116.447099 
L 191.545387 119.567951 
L 191.231507 116.930487 
L 191.225158 116.904191 
L 191.228352 116.90398 
L 190.914472 114.266516 
z
" style="fill:#ff7f0e;stroke:#ff7f0e;stroke-linejoin:miter;"/>
   </g>
   <g id="patch_60">
    <path clip-path="url(#pcb38319a3a)" d="M 110.424671 100.353033 
L 103.652283 103.505876 
L 103.316015 100.869945 
L 103.300864 100.844287 
L 103.312635 100.843453 
L 102.976367 98.207522 
z
" style="fill:#ff7f0e;stroke:#ff7f0e;stroke-linejoin:miter;"/>
   </g>
   <g id="patch_61">
    <path clip-path="url(#pcb38319a3a)" d="M 184.055323 95.323752 
L 177.247726 98.434206 
L 176.941105 95.796268 
L 176.933199 95.770067 
L 176.938024 95.769756 
L 176.631403 93.131818 
z
" style="fill:#ff7f0e;stroke:#ff7f0e;stroke-linejoin:miter;"/>
   </g>
   <g id="patch_62">
    <path clip-path="url(#pcb38319a3a)" d="M 123.495198 74.968481 
L 116.707942 78.103521 
L 116.384142 75.466723 
L 116.370036 75.440962 
L 116.380887 75.440223 
L 116.057087 72.803425 
z
" style="fill:#ff7f0e;stroke:#ff7f0e;stroke-linejoin:miter;"/>
   </g>
   <g id="patch_63">
    <path clip-path="url(#pcb38319a3a)" d="M 195.810799 70.374928 
L 188.958075 73.429863 
L 188.690088 70.78959 
L 188.683369 70.763281 
L 188.687394 70.763055 
L 188.419407 68.122781 
z
" style="fill:#ff7f0e;stroke:#ff7f0e;stroke-linejoin:miter;"/>
   </g>
   <g id="patch_64">
    <path clip-path="url(#pcb38319a3a)" d="M 84.381308 49.033678 
L 77.593898 52.168534 
L 77.270227 49.531727 
L 77.252068 49.506243 
L 77.266974 49.505227 
L 76.943303 46.86842 
z
" style="fill:#ff7f0e;stroke:#ff7f0e;stroke-linejoin:miter;"/>
   </g>
   <g id="patch_65">
    <path clip-path="url(#pcb38319a3a)" d="M 218.298688 41.228248 
L 211.301814 44.096016 
L 211.162481 41.450238 
L 211.15882 41.423714 
L 211.161081 41.423647 
L 211.021747 38.777869 
z
" style="fill:#ff7f0e;stroke:#ff7f0e;stroke-linejoin:miter;"/>
   </g>
   <g id="patch_66">
    <path clip-path="url(#pcb38319a3a)" d="M 49.752116 15.471704 
L 42.961704 18.602947 
L 42.64056 15.965968 
L 42.618699 15.940726 
L 42.637332 15.939466 
L 42.316188 13.302488 
z
" style="fill:#ff7f0e;stroke:#ff7f0e;stroke-linejoin:miter;"/>
   </g>
   <g id="patch_67">
    <path clip-path="url(#pcb38319a3a)" d="M 100.539834 12.09464 
L 93.734808 15.208216 
L 93.426008 12.570419 
L 93.409065 12.544809 
L 93.422905 12.543909 
L 93.114105 9.906112 
z
" style="fill:#ff7f0e;stroke:#ff7f0e;stroke-linejoin:miter;"/>
   </g>
   <g id="patch_68">
    <path clip-path="url(#pcb38319a3a)" d="M 94.130792 10.234503 
L 87.327364 13.350018 
L 87.017211 10.71231 
L 86.999619 10.686745 
L 87.014093 10.6858 
L 86.70394 8.048091 
z
" style="fill:#ff7f0e;stroke:#ff7f0e;stroke-linejoin:miter;"/>
   </g>
   <g id="patch_69">
    <path clip-path="url(#pcb38319a3a)" d="M 134.593255 10.258333 
L 127.771332 13.35131 
L 127.476897 10.712602 
L 127.463316 10.68674 
L 127.473938 10.686082 
L 127.179502 8.047373 
z
" style="fill:#ff7f0e;stroke:#ff7f0e;stroke-linejoin:miter;"/>
   </g>
   <g id="patch_70">
    <path clip-path="url(#pcb38319a3a)" d="M 168.697596 10.297576 
L 161.845346 13.353102 
L 161.576949 10.712851 
L 161.566877 10.686732 
L 161.574252 10.686316 
L 161.305855 8.046066 
z
" style="fill:#ff7f0e;stroke:#ff7f0e;stroke-linejoin:miter;"/>
   </g>
   <g id="patch_71">
    <path clip-path="url(#pcb38319a3a)" d="M 199.295548 10.381288 
L 192.379671 13.356151 
L 192.167019 10.713082 
L 192.160419 10.686718 
L 192.164882 10.686519 
L 191.952229 8.04345 
z
" style="fill:#ff7f0e;stroke:#ff7f0e;stroke-linejoin:miter;"/>
   </g>
   <g id="patch_72">
    <path clip-path="url(#pcb38319a3a)" d="M 237.471784 23.93341 
L 234.570844 18.389495 
L 238.109205 18.63239 
L 238.144782 18.634705 
L 238.144767 18.634831 
L 241.683128 18.877726 
z
" style="fill:#ff7f0e;stroke:#ff7f0e;stroke-linejoin:miter;"/>
   </g>
   <g id="patch_73">
    <path clip-path="url(#pcb38319a3a)" d="M 229.942033 79.126575 
L 227.106795 73.563819 
L 230.642146 73.829949 
L 230.677686 73.832553 
L 230.677677 73.832623 
L 234.213027 74.098754 
z
" style="fill:#ff7f0e;stroke:#ff7f0e;stroke-linejoin:miter;"/>
   </g>
   <g id="matplotlib.axis_1">
    <g id="xtick_1">
     <g id="line2d_1">
      <defs>
       <path d="M 0 0 
L 0 3.5 
" id="ma6865a180a" style="stroke:#000000;stroke-width:0.8;"/>
      </defs>
      <g>
       <use style="stroke:#000000;stroke-width:0.8;" x="78.332313" xlink:href="#ma6865a180a" y="276.812"/>
      </g>
     </g>
     <g id="text_1">
      <!-- −4 -->
      <defs>
       <path d="M 10.59375 35.5 
L 73.1875 35.5 
L 73.1875 27.203125 
L 10.59375 27.203125 
z
" id="DejaVuSans-2212"/>
       <path d="M 37.796875 64.3125 
L 12.890625 25.390625 
L 37.796875 25.390625 
z
M 35.203125 72.90625 
L 47.609375 72.90625 
L 47.609375 25.390625 
L 58.015625 25.390625 
L 58.015625 17.1875 
L 47.609375 17.1875 
L 47.609375 0 
L 37.796875 0 
L 37.796875 17.1875 
L 4.890625 17.1875 
L 4.890625 26.703125 
z
" id="DejaVuSans-34"/>
      </defs>
      <g transform="translate(70.961219 291.410438)scale(0.1 -0.1)">
       <use xlink:href="#DejaVuSans-2212"/>
       <use x="83.789062" xlink:href="#DejaVuSans-34"/>
      </g>
     </g>
    </g>
    <g id="xtick_2">
     <g id="line2d_2">
      <g>
       <use style="stroke:#000000;stroke-width:0.8;" x="149.756313" xlink:href="#ma6865a180a" y="276.812"/>
      </g>
     </g>
     <g id="text_2">
      <!-- −2 -->
      <defs>
       <path d="M 19.1875 8.296875 
L 53.609375 8.296875 
L 53.609375 0 
L 7.328125 0 
L 7.328125 8.296875 
Q 12.9375 14.109375 22.625 23.890625 
Q 32.328125 33.6875 34.8125 36.53125 
Q 39.546875 41.84375 41.421875 45.53125 
Q 43.3125 49.21875 43.3125 52.78125 
Q 43.3125 58.59375 39.234375 62.25 
Q 35.15625 65.921875 28.609375 65.921875 
Q 23.96875 65.921875 18.8125 64.3125 
Q 13.671875 62.703125 7.8125 59.421875 
L 7.8125 69.390625 
Q 13.765625 71.78125 18.9375 73 
Q 24.125 74.21875 28.421875 74.21875 
Q 39.75 74.21875 46.484375 68.546875 
Q 53.21875 62.890625 53.21875 53.421875 
Q 53.21875 48.921875 51.53125 44.890625 
Q 49.859375 40.875 45.40625 35.40625 
Q 44.1875 33.984375 37.640625 27.21875 
Q 31.109375 20.453125 19.1875 8.296875 
" id="DejaVuSans-32"/>
      </defs>
      <g transform="translate(142.385219 291.410438)scale(0.1 -0.1)">
       <use xlink:href="#DejaVuSans-2212"/>
       <use x="83.789062" xlink:href="#DejaVuSans-32"/>
      </g>
     </g>
    </g>
    <g id="xtick_3">
     <g id="line2d_3">
      <g>
       <use style="stroke:#000000;stroke-width:0.8;" x="221.180313" xlink:href="#ma6865a180a" y="276.812"/>
      </g>
     </g>
     <g id="text_3">
      <!-- 0 -->
      <defs>
       <path d="M 31.78125 66.40625 
Q 24.171875 66.40625 20.328125 58.90625 
Q 16.5 51.421875 16.5 36.375 
Q 16.5 21.390625 20.328125 13.890625 
Q 24.171875 6.390625 31.78125 6.390625 
Q 39.453125 6.390625 43.28125 13.890625 
Q 47.125 21.390625 47.125 36.375 
Q 47.125 51.421875 43.28125 58.90625 
Q 39.453125 66.40625 31.78125 66.40625 
M 31.78125 74.21875 
Q 44.046875 74.21875 50.515625 64.515625 
Q 56.984375 54.828125 56.984375 36.375 
Q 56.984375 17.96875 50.515625 8.265625 
Q 44.046875 -1.421875 31.78125 -1.421875 
Q 19.53125 -1.421875 13.0625 8.265625 
Q 6.59375 17.96875 6.59375 36.375 
Q 6.59375 54.828125 13.0625 64.515625 
Q 19.53125 74.21875 31.78125 74.21875 
" id="DejaVuSans-30"/>
      </defs>
      <g transform="translate(217.999063 291.410438)scale(0.1 -0.1)">
       <use xlink:href="#DejaVuSans-30"/>
      </g>
     </g>
    </g>
    <g id="xtick_4">
     <g id="line2d_4">
      <g>
       <use style="stroke:#000000;stroke-width:0.8;" x="292.604312" xlink:href="#ma6865a180a" y="276.812"/>
      </g>
     </g>
     <g id="text_4">
      <!-- 2 -->
      <g transform="translate(289.423063 291.410438)scale(0.1 -0.1)">
       <use xlink:href="#DejaVuSans-32"/>
      </g>
     </g>
    </g>
    <g id="xtick_5">
     <g id="line2d_5">
      <g>
       <use style="stroke:#000000;stroke-width:0.8;" x="364.028313" xlink:href="#ma6865a180a" y="276.812"/>
      </g>
     </g>
     <g id="text_5">
      <!-- 4 -->
      <g transform="translate(360.847063 291.410438)scale(0.1 -0.1)">
       <use xlink:href="#DejaVuSans-34"/>
      </g>
     </g>
    </g>
    <g id="text_6">
     <!-- x1 -->
     <defs>
      <path d="M 54.890625 54.6875 
L 35.109375 28.078125 
L 55.90625 0 
L 45.3125 0 
L 29.390625 21.484375 
L 13.484375 0 
L 2.875 0 
L 24.125 28.609375 
L 4.6875 54.6875 
L 15.28125 54.6875 
L 29.78125 35.203125 
L 44.28125 54.6875 
z
" id="DejaVuSans-78"/>
      <path d="M 12.40625 8.296875 
L 28.515625 8.296875 
L 28.515625 63.921875 
L 10.984375 60.40625 
L 10.984375 69.390625 
L 28.421875 72.90625 
L 38.28125 72.90625 
L 38.28125 8.296875 
L 54.390625 8.296875 
L 54.390625 0 
L 12.40625 0 
z
" id="DejaVuSans-31"/>
     </defs>
     <g transform="translate(215.039688 305.088562)scale(0.1 -0.1)">
      <use xlink:href="#DejaVuSans-78"/>
      <use x="59.179688" xlink:href="#DejaVuSans-31"/>
     </g>
    </g>
   </g>
   <g id="matplotlib.axis_2">
    <g id="ytick_1">
     <g id="line2d_6">
      <defs>
       <path d="M 0 0 
L -3.5 0 
" id="m428de66d49" style="stroke:#000000;stroke-width:0.8;"/>
      </defs>
      <g>
       <use style="stroke:#000000;stroke-width:0.8;" x="42.620313" xlink:href="#m428de66d49" y="250.2008"/>
      </g>
     </g>
     <g id="text_7">
      <!-- −4 -->
      <g transform="translate(20.878125 254.000019)scale(0.1 -0.1)">
       <use xlink:href="#DejaVuSans-2212"/>
       <use x="83.789062" xlink:href="#DejaVuSans-34"/>
      </g>
     </g>
    </g>
    <g id="ytick_2">
     <g id="line2d_7">
      <g>
       <use style="stroke:#000000;stroke-width:0.8;" x="42.620313" xlink:href="#m428de66d49" y="196.9784"/>
      </g>
     </g>
     <g id="text_8">
      <!-- −2 -->
      <g transform="translate(20.878125 200.777619)scale(0.1 -0.1)">
       <use xlink:href="#DejaVuSans-2212"/>
       <use x="83.789062" xlink:href="#DejaVuSans-32"/>
      </g>
     </g>
    </g>
    <g id="ytick_3">
     <g id="line2d_8">
      <g>
       <use style="stroke:#000000;stroke-width:0.8;" x="42.620313" xlink:href="#m428de66d49" y="143.756"/>
      </g>
     </g>
     <g id="text_9">
      <!-- 0 -->
      <g transform="translate(29.257813 147.555219)scale(0.1 -0.1)">
       <use xlink:href="#DejaVuSans-30"/>
      </g>
     </g>
    </g>
    <g id="ytick_4">
     <g id="line2d_9">
      <g>
       <use style="stroke:#000000;stroke-width:0.8;" x="42.620313" xlink:href="#m428de66d49" y="90.5336"/>
      </g>
     </g>
     <g id="text_10">
      <!-- 2 -->
      <g transform="translate(29.257813 94.332819)scale(0.1 -0.1)">
       <use xlink:href="#DejaVuSans-32"/>
      </g>
     </g>
    </g>
    <g id="ytick_5">
     <g id="line2d_10">
      <g>
       <use style="stroke:#000000;stroke-width:0.8;" x="42.620313" xlink:href="#m428de66d49" y="37.3112"/>
      </g>
     </g>
     <g id="text_11">
      <!-- 4 -->
      <g transform="translate(29.257813 41.110419)scale(0.1 -0.1)">
       <use xlink:href="#DejaVuSans-34"/>
      </g>
     </g>
    </g>
    <g id="text_12">
     <!-- x2 -->
     <g transform="translate(14.798438 149.896625)rotate(-90)scale(0.1 -0.1)">
      <use xlink:href="#DejaVuSans-78"/>
      <use x="59.179688" xlink:href="#DejaVuSans-32"/>
     </g>
    </g>
   </g>
   <g id="line2d_11">
    <path clip-path="url(#pcb38319a3a)" d="M 221.180313 10.7 
L 227.065523 10.793552 
L 231.002694 11.031582 
L 233.628938 11.366139 
L 235.372944 11.764962 
L 236.523258 12.206337 
L 237.415793 12.796117 
L 237.925215 13.411426 
L 238.237232 14.16798 
L 238.378272 15.190091 
L 238.330826 16.72719 
L 237.950236 20.01539 
L 234.080744 48.598105 
L 221.18106 143.75049 
L 221.18106 143.75049 
" style="fill:none;stroke:#ff7f0e;stroke-linecap:square;stroke-width:0.5;"/>
   </g>
   <g id="line2d_12">
    <path clip-path="url(#pcb38319a3a)" d="M 250.199137 10.7 
L 245.777863 11.692187 
L 243.047948 12.553733 
L 241.34911 13.334357 
L 240.278871 14.064373 
L 239.486508 14.899045 
L 238.940594 15.838419 
L 238.534216 17.014646 
L 238.14161 18.930597 
L 237.399987 24.118771 
L 221.181047 143.75058 
L 221.181047 143.75058 
" style="fill:none;stroke:#ff7f0e;stroke-linecap:square;stroke-width:0.5;"/>
   </g>
   <g id="line2d_13">
    <path clip-path="url(#pcb38319a3a)" d="M 280.7924 10.7 
L 264.305947 12.58881 
L 254.221531 13.992432 
L 248.040065 15.099007 
L 244.238045 16.023234 
L 241.886685 16.835046 
L 240.419766 17.577082 
L 239.492188 18.275336 
L 238.801012 19.077303 
L 238.319258 19.982768 
L 237.922646 21.243725 
L 237.511239 23.459578 
L 236.436667 31.220228 
L 221.181034 143.750676 
L 221.181034 143.750676 
" style="fill:none;stroke:#ff7f0e;stroke-linecap:square;stroke-width:0.5;"/>
   </g>
   <g id="line2d_14">
    <path clip-path="url(#pcb38319a3a)" d="M 314.89583 10.7 
L 284.959948 13.588302 
L 266.677361 15.596186 
L 255.499074 17.0661 
L 248.651549 18.206843 
L 244.444398 19.145677 
L 241.84684 19.960212 
L 240.2307 20.69775 
L 239.212965 21.38714 
L 238.459857 22.175091 
L 237.941287 23.06168 
L 237.523766 24.29355 
L 237.126261 26.336596 
L 236.238296 32.684607 
L 221.18102 143.750781 
L 221.18102 143.750781 
" style="fill:none;stroke:#ff7f0e;stroke-linecap:square;stroke-width:0.5;"/>
   </g>
   <g id="line2d_15">
    <path clip-path="url(#pcb38319a3a)" d="M 355.359448 10.7 
L 309.465841 14.774199 
L 281.456249 17.499029 
L 264.349295 19.40004 
L 253.88837 20.797672 
L 247.479203 21.887226 
L 243.540191 22.787778 
L 241.107007 23.571932 
L 239.591998 24.283942 
L 238.636873 24.950792 
L 237.928677 25.71409 
L 237.439431 26.573816 
L 237.043069 27.769172 
L 236.6614 29.752462 
L 235.755895 36.242069 
L 221.181003 143.750908 
L 221.181003 143.750908 
" style="fill:none;stroke:#ff7f0e;stroke-linecap:square;stroke-width:0.5;"/>
   </g>
   <g id="line2d_16">
    <path clip-path="url(#pcb38319a3a)" d="M 399.740313 15.953977 
L 336.066823 21.323281 
L 297.220868 24.820751 
L 273.510412 27.175983 
L 259.026183 28.833823 
L 250.16663 30.065398 
L 244.736022 31.036008 
L 241.395853 31.846426 
L 239.33017 32.55809 
L 238.041574 33.208455 
L 237.103003 33.939465 
L 236.475465 34.752079 
L 236.070492 35.650677 
L 235.707844 37.073781 
L 235.228591 40.158305 
L 230.480845 75.152145 
L 221.180955 143.751264 
L 221.180955 143.751264 
" style="fill:none;stroke:#ff7f0e;stroke-linecap:square;stroke-width:0.5;"/>
   </g>
   <g id="line2d_17">
    <path clip-path="url(#pcb38319a3a)" d="M 399.740313 51.914074 
L 324.516273 58.050449 
L 282.952462 61.650133 
L 259.974889 63.847864 
L 247.259634 65.270254 
L 240.210668 66.263294 
L 236.290565 67.01801 
L 234.098253 67.639886 
L 232.860114 68.187175 
L 232.063284 68.773457 
L 231.584891 69.406415 
L 231.255646 70.244162 
L 230.961067 71.721504 
L 230.070106 78.181948 
L 221.180753 143.752753 
L 221.180753 143.752753 
" style="fill:none;stroke:#ff7f0e;stroke-linecap:square;stroke-width:0.5;"/>
   </g>
   <g id="line2d_18">
    <path clip-path="url(#pcb38319a3a)" d="M 399.740313 80.620143 
L 305.731909 88.096767 
L 263.118842 91.701308 
L 243.78725 93.550105 
L 235.001379 94.601888 
L 230.992757 95.290914 
L 229.148359 95.813908 
L 228.284529 96.259995 
L 227.829965 96.719242 
L 227.547204 97.347676 
L 227.313786 98.555884 
L 225.959653 108.501981 
L 221.180591 143.753942 
L 221.180591 143.753942 
" style="fill:none;stroke:#ff7f0e;stroke-linecap:square;stroke-width:0.5;"/>
   </g>
   <g id="line2d_19">
    <path clip-path="url(#pcb38319a3a)" d="M 399.740313 105.21586 
L 283.524282 114.241564 
L 244.382586 117.462311 
L 231.183359 118.727167 
L 226.501172 119.372133 
L 225.046346 119.770629 
L 224.554703 120.116774 
L 224.354442 120.553235 
L 224.158741 121.787113 
L 221.180453 143.754961 
L 221.180453 143.754961 
" style="fill:none;stroke:#ff7f0e;stroke-linecap:square;stroke-width:0.5;"/>
   </g>
   <g id="line2d_20">
    <path clip-path="url(#pcb38319a3a)" d="M 399.740313 127.600077 
L 222.569102 141.075833 
L 221.518497 141.294121 
L 221.415819 142.018821 
L 221.180328 143.755888 
L 221.180328 143.755888 
" style="fill:none;stroke:#ff7f0e;stroke-linecap:square;stroke-width:0.5;"/>
   </g>
   <g id="line2d_21">
    <path clip-path="url(#pcb38319a3a)" d="M 399.740313 149.117973 
L 268.656019 158.740226 
L 232.483082 161.221077 
L 222.161211 161.740856 
L 219.605574 161.679631 
L 218.991949 161.47578 
L 218.858753 161.20434 
L 218.90235 160.567331 
L 221.180207 143.756779 
L 221.180207 143.756779 
" style="fill:none;stroke:#ff7f0e;stroke-linecap:square;stroke-width:0.5;"/>
   </g>
   <g id="line2d_22">
    <path clip-path="url(#pcb38319a3a)" d="M 399.740313 170.919577 
L 291.210795 178.721806 
L 246.712616 181.707301 
L 228.484606 182.718565 
L 221.034658 182.921759 
L 218.006507 182.795331 
L 216.792292 182.535565 
L 216.322049 182.222973 
L 216.14068 181.815578 
L 216.132808 181.137197 
L 216.463165 178.551371 
L 221.180085 143.757682 
L 221.180085 143.757682 
" style="fill:none;stroke:#ff7f0e;stroke-linecap:square;stroke-width:0.5;"/>
   </g>
   <g id="line2d_23">
    <path clip-path="url(#pcb38319a3a)" d="M 399.740313 194.217485 
L 306.166097 200.81114 
L 259.399143 203.884477 
L 236.040936 205.198836 
L 224.389187 205.6351 
L 218.591765 205.633778 
L 215.72198 205.415157 
L 214.316112 205.089401 
L 213.642153 204.71159 
L 213.30777 204.250692 
L 213.181603 203.658102 
L 213.225341 202.586262 
L 213.749102 198.571258 
L 221.179954 143.758646 
L 221.179954 143.758646 
" style="fill:none;stroke:#ff7f0e;stroke-linecap:square;stroke-width:0.5;"/>
   </g>
   <g id="line2d_24">
    <path clip-path="url(#pcb38319a3a)" d="M 399.740313 220.575917 
L 325.266702 225.727273 
L 279.891247 228.69051 
L 252.254435 230.320722 
L 232.958072 231.236049 
L 222.33608 231.501646 
L 216.503444 231.409943 
L 213.315073 231.122396 
L 211.586561 230.728144 
L 210.663938 230.276397 
L 210.18601 229.794323 
L 209.930006 229.213158 
L 209.833814 228.369964 
L 209.935944 226.852977 
L 210.673298 221.259519 
L 221.179806 143.759738 
L 221.179806 143.759738 
" style="fill:none;stroke:#ff7f0e;stroke-linecap:square;stroke-width:0.5;"/>
   </g>
   <g id="line2d_25">
    <path clip-path="url(#pcb38319a3a)" d="M 399.740313 252.392861 
L 323.587369 257.510328 
L 277.19665 260.390496 
L 248.949345 261.907972 
L 231.761875 262.59597 
L 221.316298 262.779514 
L 214.980436 262.656729 
L 211.149748 262.348385 
L 208.846101 261.928097 
L 207.473121 261.440743 
L 206.66731 260.913671 
L 206.207095 260.363544 
L 205.924825 259.686956 
L 205.79654 258.77272 
L 205.847252 257.28341 
L 206.266209 253.787286 
L 213.084828 203.471002 
L 221.179627 143.761056 
L 221.179627 143.761056 
" style="fill:none;stroke:#ff7f0e;stroke-linecap:square;stroke-width:0.5;"/>
   </g>
   <g id="line2d_26">
    <path clip-path="url(#pcb38319a3a)" d="M 379.370669 276.812 
L 362.609759 277.927334 
" style="fill:none;stroke:#ff7f0e;stroke-linecap:square;stroke-width:0.5;"/>
   </g>
   <g id="line2d_27">
    <path clip-path="url(#pcb38319a3a)" d="M 334.094815 276.812 
L 321.644718 277.606272 
" style="fill:none;stroke:#ff7f0e;stroke-linecap:square;stroke-width:0.5;"/>
   </g>
   <g id="line2d_28">
    <path clip-path="url(#pcb38319a3a)" d="M 297.257619 276.812 
L 288.314872 277.345051 
" style="fill:none;stroke:#ff7f0e;stroke-linecap:square;stroke-width:0.5;"/>
   </g>
   <g id="line2d_29">
    <path clip-path="url(#pcb38319a3a)" d="M 265.1914 276.812 
L 259.301747 277.117662 
" style="fill:none;stroke:#ff7f0e;stroke-linecap:square;stroke-width:0.5;"/>
   </g>
   <g id="line2d_30">
    <path clip-path="url(#pcb38319a3a)" d="M 235.595166 276.812 
L 232.523474 276.907785 
" style="fill:none;stroke:#ff7f0e;stroke-linecap:square;stroke-width:0.5;"/>
   </g>
   <g id="line2d_31">
    <path clip-path="url(#pcb38319a3a)" d="M 206.765459 276.812 
L 205.641413 276.36442 
L 204.770318 275.767766 
L 204.274177 275.146224 
L 203.971795 274.382699 
L 203.837849 273.351785 
L 203.890417 271.802023 
L 204.292505 268.361451 
L 208.691636 235.876711 
L 221.179572 143.761465 
L 221.179572 143.761465 
" style="fill:none;stroke:#ff7f0e;stroke-linecap:square;stroke-width:0.5;"/>
   </g>
   <g id="line2d_32">
    <path clip-path="url(#pcb38319a3a)" d="M 177.169225 276.812 
L 187.503017 275.380425 
L 193.837044 274.253232 
L 197.732749 273.312864 
L 200.141589 272.487682 
L 201.643992 271.733978 
L 202.593697 271.025107 
L 203.300927 270.21125 
L 203.793395 269.292596 
L 204.198097 268.013494 
L 204.597398 265.889487 
L 205.581042 258.820945 
L 221.179584 143.761373 
L 221.179584 143.761373 
" style="fill:none;stroke:#ff7f0e;stroke-linecap:square;stroke-width:0.5;"/>
   </g>
   <g id="line2d_33">
    <path clip-path="url(#pcb38319a3a)" d="M 145.103006 276.812 
L 168.082877 274.440633 
L 182.125386 272.745272 
L 190.719307 271.463278 
L 195.991703 270.434516 
L 199.23897 269.561383 
L 201.251767 268.784344 
L 202.511804 268.067122 
L 203.312794 267.387591 
L 203.914853 266.603305 
L 204.38663 265.589446 
L 204.780057 264.107057 
L 205.248204 261.218574 
L 207.87688 241.886496 
L 221.179598 143.761273 
L 221.179598 143.761273 
" style="fill:none;stroke:#ff7f0e;stroke-linecap:square;stroke-width:0.5;"/>
   </g>
   <g id="line2d_34">
    <path clip-path="url(#pcb38319a3a)" d="M 108.26581 276.812 
L 145.773243 273.361019 
L 168.671033 271.012963 
L 182.66229 269.338507 
L 191.224271 268.075878 
L 196.476268 267.065527 
L 199.710348 266.210177 
L 201.714171 265.450519 
L 202.967811 264.7504 
L 203.885537 263.958445 
L 204.435928 263.198509 
L 204.871108 262.214494 
L 205.240075 260.774173 
L 205.706224 257.850705 
L 208.770078 235.29809 
L 221.179613 143.761158 
L 221.179613 143.761158 
" style="fill:none;stroke:#ff7f0e;stroke-linecap:square;stroke-width:0.5;"/>
   </g>
   <g id="line2d_35">
    <path clip-path="url(#pcb38319a3a)" d="M 62.989956 276.812 
L 118.352916 272.034088 
L 152.134563 268.883818 
L 172.759646 266.726989 
L 185.364784 265.176918 
L 193.080619 263.997926 
L 197.815782 263.046323 
L 200.733766 262.234509 
L 202.543835 261.509079 
L 203.678339 260.837471 
L 204.511391 260.075212 
L 205.076805 259.221849 
L 205.486513 258.156939 
L 205.863976 256.425834 
L 206.495427 252.070182 
L 221.179632 143.761017 
L 221.179632 143.761017 
" style="fill:none;stroke:#ff7f0e;stroke-linecap:square;stroke-width:0.5;"/>
   </g>
   <g id="line2d_36">
    <path clip-path="url(#pcb38319a3a)" d="M 42.620313 252.392861 
L 107.304684 247.044021 
L 146.76261 243.596558 
L 170.841211 241.309202 
L 185.544686 239.729965 
L 194.532683 238.58335 
L 200.036596 237.701374 
L 203.416422 236.981647 
L 205.811608 236.246073 
L 207.167632 235.592079 
L 207.949776 234.98462 
L 208.47257 234.309442 
L 208.84074 233.470819 
L 209.161972 232.1114 
L 209.687767 228.523736 
L 221.179778 143.759942 
L 221.179778 143.759942 
" style="fill:none;stroke:#ff7f0e;stroke-linecap:square;stroke-width:0.5;"/>
   </g>
   <g id="line2d_37">
    <path clip-path="url(#pcb38319a3a)" d="M 42.620313 220.575917 
L 127.602457 213.732157 
L 170.133152 210.087143 
L 191.432755 208.043457 
L 202.11472 206.802134 
L 207.48644 205.963628 
L 210.202226 205.328111 
L 211.58953 204.795635 
L 212.383168 204.250392 
L 212.812426 203.676559 
L 213.097205 202.881568 
L 213.384682 201.227919 
L 215.687292 184.274391 
L 221.179957 143.758625 
L 221.179957 143.758625 
" style="fill:none;stroke:#ff7f0e;stroke-linecap:square;stroke-width:0.5;"/>
   </g>
   <g id="line2d_38">
    <path clip-path="url(#pcb38319a3a)" d="M 42.620313 194.217485 
L 144.976187 186.17743 
L 186.997516 182.682186 
L 204.264434 181.053373 
L 211.374939 180.192078 
L 214.318199 179.64743 
L 215.634311 179.192798 
L 216.153509 178.801729 
L 216.41708 178.32959 
L 216.609617 177.428127 
L 217.612725 170.07174 
L 221.180105 143.757533 
L 221.180105 143.757533 
" style="fill:none;stroke:#ff7f0e;stroke-linecap:square;stroke-width:0.5;"/>
   </g>
   <g id="line2d_39">
    <path clip-path="url(#pcb38319a3a)" d="M 42.620313 170.919577 
L 183.078558 160.126349 
L 211.922069 157.738623 
L 218.009151 157.054195 
L 219.16513 156.744815 
L 219.416308 156.481862 
L 219.531682 155.913523 
L 221.180235 143.756568 
L 221.180235 143.756568 
" style="fill:none;stroke:#ff7f0e;stroke-linecap:square;stroke-width:0.5;"/>
   </g>
   <g id="line2d_40">
    <path clip-path="url(#pcb38319a3a)" d="M 42.620313 149.117973 
L 203.824873 137.168606 
L 220.344762 136.106342 
L 222.035526 136.163809 
L 222.170327 136.333978 
L 222.10293 136.950442 
L 221.180358 143.755665 
L 221.180358 143.755665 
" style="fill:none;stroke:#ff7f0e;stroke-linecap:square;stroke-width:0.5;"/>
   </g>
   <g id="line2d_41">
    <path clip-path="url(#pcb38319a3a)" d="M 42.620313 127.600077 
L 157.331711 119.262484 
L 199.934584 116.349984 
L 215.741553 115.451628 
L 221.590982 115.299911 
L 223.740276 115.423827 
L 224.514784 115.64836 
L 224.791684 115.935352 
L 224.859853 116.37192 
L 224.720595 117.639362 
L 221.180479 143.754774 
L 221.180479 143.754774 
" style="fill:none;stroke:#ff7f0e;stroke-linecap:square;stroke-width:0.5;"/>
   </g>
   <g id="line2d_42">
    <path clip-path="url(#pcb38319a3a)" d="M 42.620313 105.21586 
L 135.389802 98.598778 
L 181.759978 95.471897 
L 204.925377 94.089228 
L 216.486292 93.577561 
L 222.243835 93.500225 
L 225.099204 93.638845 
L 226.50333 93.884219 
L 227.243537 94.226695 
L 227.549432 94.598659 
L 227.67352 95.127245 
L 227.622906 96.141555 
L 226.95074 101.191384 
L 221.180604 143.753847 
L 221.180604 143.753847 
" style="fill:none;stroke:#ff7f0e;stroke-linecap:square;stroke-width:0.5;"/>
   </g>
   <g id="line2d_43">
    <path clip-path="url(#pcb38319a3a)" d="M 42.620313 80.620143 
L 127.222724 74.714312 
L 173.907835 71.659969 
L 199.656864 70.178843 
L 213.846585 69.5651 
L 221.653908 69.429055 
L 225.937385 69.555545 
L 228.275312 69.825776 
L 229.539212 70.174159 
L 230.210236 70.564492 
L 230.591021 71.046781 
L 230.767714 71.685134 
L 230.769216 72.687 
L 230.470083 75.221899 
L 221.747988 139.568631 
L 221.180742 143.752829 
L 221.180742 143.752829 
" style="fill:none;stroke:#ff7f0e;stroke-linecap:square;stroke-width:0.5;"/>
   </g>
   <g id="line2d_44">
    <path clip-path="url(#pcb38319a3a)" d="M 42.620313 51.914074 
L 117.886802 46.778719 
L 163.741598 43.854703 
L 191.666643 42.277717 
L 208.662083 41.52083 
L 218.994999 41.262841 
L 225.266546 41.30796 
L 229.062381 41.536836 
L 231.349173 41.876714 
L 232.71618 42.283251 
L 233.522626 42.729419 
L 234.05229 43.294426 
L 234.333753 43.974313 
L 234.433998 44.860893 
L 234.342172 46.43743 
L 233.736545 51.135159 
L 221.180904 143.75164 
L 221.180904 143.75164 
" style="fill:none;stroke:#ff7f0e;stroke-linecap:square;stroke-width:0.5;"/>
   </g>
   <g id="line2d_45">
    <path clip-path="url(#pcb38319a3a)" d="M 42.620313 15.953977 
L 61.253561 14.693943 
L 78.128417 13.56613 
L 93.410616 12.558064 
L 107.250674 11.658413 
L 119.784815 10.856923 
L 131.13585 10.144351 
" style="fill:none;stroke:#ff7f0e;stroke-linecap:square;stroke-width:0.5;"/>
   </g>
   <g id="line2d_46">
    <path clip-path="url(#pcb38319a3a)" d="M 87.001177 10.7 
L 101.475926 9.754935 
" style="fill:none;stroke:#ff7f0e;stroke-linecap:square;stroke-width:0.5;"/>
   </g>
   <g id="line2d_47">
    <path clip-path="url(#pcb38319a3a)" d="M 127.464795 10.7 
L 138.086915 10.041872 
" style="fill:none;stroke:#ff7f0e;stroke-linecap:square;stroke-width:0.5;"/>
   </g>
   <g id="line2d_48">
    <path clip-path="url(#pcb38319a3a)" d="M 161.568225 10.7 
L 168.943283 10.283708 
" style="fill:none;stroke:#ff7f0e;stroke-linecap:square;stroke-width:0.5;"/>
   </g>
   <g id="line2d_49">
    <path clip-path="url(#pcb38319a3a)" d="M 192.161488 10.7 
L 196.623695 10.500652 
" style="fill:none;stroke:#ff7f0e;stroke-linecap:square;stroke-width:0.5;"/>
   </g>
   <g id="line2d_50">
    <path clip-path="url(#pcb38319a3a)" d="M 221.180312 10.7 
L 227.065523 10.793552 
L 231.002694 11.031582 
L 233.628938 11.366139 
L 235.372944 11.764962 
L 236.523258 12.206337 
L 237.415793 12.796117 
L 237.925215 13.411426 
L 238.237232 14.16798 
L 238.378272 15.190091 
L 238.330826 16.72719 
L 237.950236 20.01539 
L 234.080745 48.598105 
L 221.18106 143.75049 
L 221.18106 143.75049 
" style="fill:none;stroke:#ff7f0e;stroke-linecap:square;stroke-width:0.5;"/>
   </g>
   <g id="line2d_51">
    <path clip-path="url(#pcb38319a3a)" d="M 221.180313 143.756 
" style="fill:none;stroke:#ff7f0e;stroke-linecap:square;stroke-width:1.5;"/>
   </g>
   <g id="patch_74">
    <path d="M 42.620313 276.812 
L 42.620313 10.7 
" style="fill:none;stroke:#000000;stroke-linecap:square;stroke-linejoin:miter;stroke-width:0.8;"/>
   </g>
   <g id="patch_75">
    <path d="M 399.740313 276.812 
L 399.740313 10.7 
" style="fill:none;stroke:#000000;stroke-linecap:square;stroke-linejoin:miter;stroke-width:0.8;"/>
   </g>
   <g id="patch_76">
    <path d="M 42.620313 276.812 
L 399.740313 276.812 
" style="fill:none;stroke:#000000;stroke-linecap:square;stroke-linejoin:miter;stroke-width:0.8;"/>
   </g>
   <g id="patch_77">
    <path d="M 42.620313 10.7 
L 399.740313 10.7 
" style="fill:none;stroke:#000000;stroke-linecap:square;stroke-linejoin:miter;stroke-width:0.8;"/>
   </g>
   <g id="legend_1">
    <g id="patch_78">
     <path d="M 306.312813 273.812 
L 395.540313 273.812 
Q 396.740313 273.812 396.740313 272.612 
L 396.740313 264.405125 
Q 396.740313 263.205125 395.540313 263.205125 
L 306.312813 263.205125 
Q 305.112813 263.205125 305.112813 264.405125 
L 305.112813 272.612 
Q 305.112813 273.812 306.312813 273.812 
z
" style="fill:#ffffff;opacity:0.8;stroke:#cccccc;stroke-linejoin:miter;"/>
    </g>
    <g id="line2d_52">
     <path d="M 307.512812 268.064187 
L 319.512812 268.064187 
" style="fill:none;stroke:#ff7f0e;stroke-linecap:square;stroke-width:1.5;"/>
    </g>
    <g id="line2d_53"/>
    <g id="text_13">
     <!-- system zlinearyzowany -->
     <defs>
      <path d="M 44.28125 53.078125 
L 44.28125 44.578125 
Q 40.484375 46.53125 36.375 47.5 
Q 32.28125 48.484375 27.875 48.484375 
Q 21.1875 48.484375 17.84375 46.4375 
Q 14.5 44.390625 14.5 40.28125 
Q 14.5 37.15625 16.890625 35.375 
Q 19.28125 33.59375 26.515625 31.984375 
L 29.59375 31.296875 
Q 39.15625 29.25 43.1875 25.515625 
Q 47.21875 21.78125 47.21875 15.09375 
Q 47.21875 7.46875 41.1875 3.015625 
Q 35.15625 -1.421875 24.609375 -1.421875 
Q 20.21875 -1.421875 15.453125 -0.5625 
Q 10.6875 0.296875 5.421875 2 
L 5.421875 11.28125 
Q 10.40625 8.6875 15.234375 7.390625 
Q 20.0625 6.109375 24.8125 6.109375 
Q 31.15625 6.109375 34.5625 8.28125 
Q 37.984375 10.453125 37.984375 14.40625 
Q 37.984375 18.0625 35.515625 20.015625 
Q 33.0625 21.96875 24.703125 23.78125 
L 21.578125 24.515625 
Q 13.234375 26.265625 9.515625 29.90625 
Q 5.8125 33.546875 5.8125 39.890625 
Q 5.8125 47.609375 11.28125 51.796875 
Q 16.75 56 26.8125 56 
Q 31.78125 56 36.171875 55.265625 
Q 40.578125 54.546875 44.28125 53.078125 
" id="DejaVuSans-73"/>
      <path d="M 32.171875 -5.078125 
Q 28.375 -14.84375 24.75 -17.8125 
Q 21.140625 -20.796875 15.09375 -20.796875 
L 7.90625 -20.796875 
L 7.90625 -13.28125 
L 13.1875 -13.28125 
Q 16.890625 -13.28125 18.9375 -11.515625 
Q 21 -9.765625 23.484375 -3.21875 
L 25.09375 0.875 
L 2.984375 54.6875 
L 12.5 54.6875 
L 29.59375 11.921875 
L 46.6875 54.6875 
L 56.203125 54.6875 
z
" id="DejaVuSans-79"/>
      <path d="M 18.3125 70.21875 
L 18.3125 54.6875 
L 36.8125 54.6875 
L 36.8125 47.703125 
L 18.3125 47.703125 
L 18.3125 18.015625 
Q 18.3125 11.328125 20.140625 9.421875 
Q 21.96875 7.515625 27.59375 7.515625 
L 36.8125 7.515625 
L 36.8125 0 
L 27.59375 0 
Q 17.1875 0 13.234375 3.875 
Q 9.28125 7.765625 9.28125 18.015625 
L 9.28125 47.703125 
L 2.6875 47.703125 
L 2.6875 54.6875 
L 9.28125 54.6875 
L 9.28125 70.21875 
z
" id="DejaVuSans-74"/>
      <path d="M 56.203125 29.59375 
L 56.203125 25.203125 
L 14.890625 25.203125 
Q 15.484375 15.921875 20.484375 11.0625 
Q 25.484375 6.203125 34.421875 6.203125 
Q 39.59375 6.203125 44.453125 7.46875 
Q 49.3125 8.734375 54.109375 11.28125 
L 54.109375 2.78125 
Q 49.265625 0.734375 44.1875 -0.34375 
Q 39.109375 -1.421875 33.890625 -1.421875 
Q 20.796875 -1.421875 13.15625 6.1875 
Q 5.515625 13.8125 5.515625 26.8125 
Q 5.515625 40.234375 12.765625 48.109375 
Q 20.015625 56 32.328125 56 
Q 43.359375 56 49.78125 48.890625 
Q 56.203125 41.796875 56.203125 29.59375 
M 47.21875 32.234375 
Q 47.125 39.59375 43.09375 43.984375 
Q 39.0625 48.390625 32.421875 48.390625 
Q 24.90625 48.390625 20.390625 44.140625 
Q 15.875 39.890625 15.1875 32.171875 
z
" id="DejaVuSans-65"/>
      <path d="M 52 44.1875 
Q 55.375 50.25 60.0625 53.125 
Q 64.75 56 71.09375 56 
Q 79.640625 56 84.28125 50.015625 
Q 88.921875 44.046875 88.921875 33.015625 
L 88.921875 0 
L 79.890625 0 
L 79.890625 32.71875 
Q 79.890625 40.578125 77.09375 44.375 
Q 74.3125 48.1875 68.609375 48.1875 
Q 61.625 48.1875 57.5625 43.546875 
Q 53.515625 38.921875 53.515625 30.90625 
L 53.515625 0 
L 44.484375 0 
L 44.484375 32.71875 
Q 44.484375 40.625 41.703125 44.40625 
Q 38.921875 48.1875 33.109375 48.1875 
Q 26.21875 48.1875 22.15625 43.53125 
Q 18.109375 38.875 18.109375 30.90625 
L 18.109375 0 
L 9.078125 0 
L 9.078125 54.6875 
L 18.109375 54.6875 
L 18.109375 46.1875 
Q 21.1875 51.21875 25.484375 53.609375 
Q 29.78125 56 35.6875 56 
Q 41.65625 56 45.828125 52.96875 
Q 50 49.953125 52 44.1875 
" id="DejaVuSans-6d"/>
      <path id="DejaVuSans-20"/>
      <path d="M 5.515625 54.6875 
L 48.1875 54.6875 
L 48.1875 46.484375 
L 14.40625 7.171875 
L 48.1875 7.171875 
L 48.1875 0 
L 4.296875 0 
L 4.296875 8.203125 
L 38.09375 47.515625 
L 5.515625 47.515625 
z
" id="DejaVuSans-7a"/>
      <path d="M 9.421875 75.984375 
L 18.40625 75.984375 
L 18.40625 0 
L 9.421875 0 
z
" id="DejaVuSans-6c"/>
      <path d="M 9.421875 54.6875 
L 18.40625 54.6875 
L 18.40625 0 
L 9.421875 0 
z
M 9.421875 75.984375 
L 18.40625 75.984375 
L 18.40625 64.59375 
L 9.421875 64.59375 
z
" id="DejaVuSans-69"/>
      <path d="M 54.890625 33.015625 
L 54.890625 0 
L 45.90625 0 
L 45.90625 32.71875 
Q 45.90625 40.484375 42.875 44.328125 
Q 39.84375 48.1875 33.796875 48.1875 
Q 26.515625 48.1875 22.3125 43.546875 
Q 18.109375 38.921875 18.109375 30.90625 
L 18.109375 0 
L 9.078125 0 
L 9.078125 54.6875 
L 18.109375 54.6875 
L 18.109375 46.1875 
Q 21.34375 51.125 25.703125 53.5625 
Q 30.078125 56 35.796875 56 
Q 45.21875 56 50.046875 50.171875 
Q 54.890625 44.34375 54.890625 33.015625 
" id="DejaVuSans-6e"/>
      <path d="M 34.28125 27.484375 
Q 23.390625 27.484375 19.1875 25 
Q 14.984375 22.515625 14.984375 16.5 
Q 14.984375 11.71875 18.140625 8.90625 
Q 21.296875 6.109375 26.703125 6.109375 
Q 34.1875 6.109375 38.703125 11.40625 
Q 43.21875 16.703125 43.21875 25.484375 
L 43.21875 27.484375 
z
M 52.203125 31.203125 
L 52.203125 0 
L 43.21875 0 
L 43.21875 8.296875 
Q 40.140625 3.328125 35.546875 0.953125 
Q 30.953125 -1.421875 24.3125 -1.421875 
Q 15.921875 -1.421875 10.953125 3.296875 
Q 6 8.015625 6 15.921875 
Q 6 25.140625 12.171875 29.828125 
Q 18.359375 34.515625 30.609375 34.515625 
L 43.21875 34.515625 
L 43.21875 35.40625 
Q 43.21875 41.609375 39.140625 45 
Q 35.0625 48.390625 27.6875 48.390625 
Q 23 48.390625 18.546875 47.265625 
Q 14.109375 46.140625 10.015625 43.890625 
L 10.015625 52.203125 
Q 14.9375 54.109375 19.578125 55.046875 
Q 24.21875 56 28.609375 56 
Q 40.484375 56 46.34375 49.84375 
Q 52.203125 43.703125 52.203125 31.203125 
" id="DejaVuSans-61"/>
      <path d="M 41.109375 46.296875 
Q 39.59375 47.171875 37.8125 47.578125 
Q 36.03125 48 33.890625 48 
Q 26.265625 48 22.1875 43.046875 
Q 18.109375 38.09375 18.109375 28.8125 
L 18.109375 0 
L 9.078125 0 
L 9.078125 54.6875 
L 18.109375 54.6875 
L 18.109375 46.1875 
Q 20.953125 51.171875 25.484375 53.578125 
Q 30.03125 56 36.53125 56 
Q 37.453125 56 38.578125 55.875 
Q 39.703125 55.765625 41.0625 55.515625 
z
" id="DejaVuSans-72"/>
      <path d="M 30.609375 48.390625 
Q 23.390625 48.390625 19.1875 42.75 
Q 14.984375 37.109375 14.984375 27.296875 
Q 14.984375 17.484375 19.15625 11.84375 
Q 23.34375 6.203125 30.609375 6.203125 
Q 37.796875 6.203125 41.984375 11.859375 
Q 46.1875 17.53125 46.1875 27.296875 
Q 46.1875 37.015625 41.984375 42.703125 
Q 37.796875 48.390625 30.609375 48.390625 
M 30.609375 56 
Q 42.328125 56 49.015625 48.375 
Q 55.71875 40.765625 55.71875 27.296875 
Q 55.71875 13.875 49.015625 6.21875 
Q 42.328125 -1.421875 30.609375 -1.421875 
Q 18.84375 -1.421875 12.171875 6.21875 
Q 5.515625 13.875 5.515625 27.296875 
Q 5.515625 40.765625 12.171875 48.375 
Q 18.84375 56 30.609375 56 
" id="DejaVuSans-6f"/>
      <path d="M 4.203125 54.6875 
L 13.1875 54.6875 
L 24.421875 12.015625 
L 35.59375 54.6875 
L 46.1875 54.6875 
L 57.421875 12.015625 
L 68.609375 54.6875 
L 77.59375 54.6875 
L 63.28125 0 
L 52.6875 0 
L 40.921875 44.828125 
L 29.109375 0 
L 18.5 0 
z
" id="DejaVuSans-77"/>
     </defs>
     <g transform="translate(324.312813 270.164187)scale(0.06 -0.06)">
      <use xlink:href="#DejaVuSans-73"/>
      <use x="52.099609" xlink:href="#DejaVuSans-79"/>
      <use x="111.279297" xlink:href="#DejaVuSans-73"/>
      <use x="163.378906" xlink:href="#DejaVuSans-74"/>
      <use x="202.587891" xlink:href="#DejaVuSans-65"/>
      <use x="264.111328" xlink:href="#DejaVuSans-6d"/>
      <use x="361.523438" xlink:href="#DejaVuSans-20"/>
      <use x="393.310547" xlink:href="#DejaVuSans-7a"/>
      <use x="445.800781" xlink:href="#DejaVuSans-6c"/>
      <use x="473.583984" xlink:href="#DejaVuSans-69"/>
      <use x="501.367188" xlink:href="#DejaVuSans-6e"/>
      <use x="564.746094" xlink:href="#DejaVuSans-65"/>
      <use x="626.269531" xlink:href="#DejaVuSans-61"/>
      <use x="687.548828" xlink:href="#DejaVuSans-72"/>
      <use x="728.662109" xlink:href="#DejaVuSans-79"/>
      <use x="787.841797" xlink:href="#DejaVuSans-7a"/>
      <use x="840.332031" xlink:href="#DejaVuSans-6f"/>
      <use x="901.513672" xlink:href="#DejaVuSans-77"/>
      <use x="983.300781" xlink:href="#DejaVuSans-61"/>
      <use x="1044.580078" xlink:href="#DejaVuSans-6e"/>
      <use x="1107.958984" xlink:href="#DejaVuSans-79"/>
     </g>
    </g>
   </g>
  </g>
 </g>
 <defs>
  <clipPath id="pcb38319a3a">
   <rect height="266.112" width="357.12" x="42.620313" y="10.7"/>
  </clipPath>
 </defs>
</svg>
