<?xml version="1.0" encoding="utf-8" standalone="no"?>
<!DOCTYPE svg PUBLIC "-//W3C//DTD SVG 1.1//EN"
  "http://www.w3.org/Graphics/SVG/1.1/DTD/svg11.dtd">
<!-- Created with matplotlib (http://matplotlib.org/) -->
<svg height="314pt" version="1.1" viewBox="0 0 410 314" width="410pt" xmlns="http://www.w3.org/2000/svg" xmlns:xlink="http://www.w3.org/1999/xlink">
 <defs>
  <style type="text/css">
*{stroke-linecap:butt;stroke-linejoin:round;}
  </style>
 </defs>
 <g id="figure_1">
  <g id="patch_1">
   <path d="M 0 314.36825 
L 410.440313 314.36825 
L 410.440313 0 
L 0 0 
z
" style="fill:#ffffff;"/>
  </g>
  <g id="axes_1">
   <g id="patch_2">
    <path d="M 42.620313 276.812 
L 399.740313 276.812 
L 399.740313 10.7 
L 42.620313 10.7 
z
" style="fill:#ffffff;"/>
   </g>
   <g id="patch_3">
    <path clip-path="url(#p590d851f66)" d="M 306.83772 26.917447 
L 298.852281 26.909391 
L 300.445686 24.542719 
L 300.460104 24.518337 
L 300.4617 24.518933 
L 302.055105 22.152262 
z
" style="fill:#ff7f0e;stroke:#ff7f0e;stroke-linejoin:miter;"/>
   </g>
   <g id="patch_4">
    <path clip-path="url(#p590d851f66)" d="M 380.410707 83.365832 
L 373.826179 79.999275 
L 376.93462 78.716418 
L 376.964996 78.702361 
L 376.965861 78.703525 
L 380.074302 77.420669 
z
" style="fill:#ff7f0e;stroke:#ff7f0e;stroke-linejoin:miter;"/>
   </g>
   <g id="patch_5">
    <path clip-path="url(#p590d851f66)" d="M 283.347183 17.080372 
L 275.448514 17.955222 
L 276.553081 15.438585 
L 276.562463 15.412874 
L 276.564182 15.413293 
L 277.668749 12.896656 
z
" style="fill:#ff7f0e;stroke:#ff7f0e;stroke-linejoin:miter;"/>
   </g>
   <g id="patch_6">
    <path clip-path="url(#p590d851f66)" d="M 363.034835 59.975196 
L 355.687423 57.644509 
L 358.394407 55.929263 
L 358.420441 55.910998 
L 358.421613 55.912025 
L 361.128597 54.196779 
z
" style="fill:#ff7f0e;stroke:#ff7f0e;stroke-linejoin:miter;"/>
   </g>
   <g id="patch_7">
    <path clip-path="url(#p590d851f66)" d="M 304.8229 18.005225 
L 296.842755 18.222019 
L 298.315011 15.812172 
L 298.328095 15.787371 
L 298.329808 15.787952 
L 299.802064 13.378105 
z
" style="fill:#ff7f0e;stroke:#ff7f0e;stroke-linejoin:miter;"/>
   </g>
   <g id="patch_8">
    <path clip-path="url(#p590d851f66)" d="M 360.187832 49.053524 
L 352.642536 47.105265 
L 355.18464 45.255228 
L 355.208874 45.235631 
L 355.210189 45.236635 
L 357.752292 43.386598 
z
" style="fill:#ff7f0e;stroke:#ff7f0e;stroke-linejoin:miter;"/>
   </g>
   <g id="patch_9">
    <path clip-path="url(#p590d851f66)" d="M 349.405416 27.689556 
L 341.570791 26.538528 
L 343.74466 24.444035 
L 343.764913 24.422065 
L 343.766508 24.422985 
L 345.940377 22.328492 
z
" style="fill:#ff7f0e;stroke:#ff7f0e;stroke-linejoin:miter;"/>
   </g>
   <g id="patch_10">
    <path clip-path="url(#p590d851f66)" d="M 379.058186 50.157467 
L 371.717722 47.814658 
L 374.429798 46.103884 
L 374.455752 46.085544 
L 374.457055 46.086691 
L 377.169132 44.375917 
z
" style="fill:#ff7f0e;stroke:#ff7f0e;stroke-linejoin:miter;"/>
   </g>
   <g id="patch_11">
    <path clip-path="url(#p590d851f66)" d="M 371.245816 20.403003 
L 363.50035 18.955182 
L 365.814997 16.946193 
L 365.836565 16.924918 
L 365.83826 16.926002 
L 368.152907 14.917013 
z
" style="fill:#ff7f0e;stroke:#ff7f0e;stroke-linejoin:miter;"/>
   </g>
   <g id="patch_12">
    <path clip-path="url(#p590d851f66)" d="M 391.439179 35.939849 
L 384.010936 33.756062 
L 386.655544 31.987611 
L 386.680631 31.968599 
L 386.682123 31.969837 
L 389.326731 30.201386 
z
" style="fill:#ff7f0e;stroke:#ff7f0e;stroke-linejoin:miter;"/>
   </g>
   <g id="patch_13">
    <path clip-path="url(#p590d851f66)" d="M 404.663402 19.812477 
L 397.153879 17.788926 
L 399.729078 15.964482 
L 399.753253 15.944809 
L 399.754959 15.946146 
L 402.330158 14.121702 
z
" style="fill:#ff7f0e;stroke:#ff7f0e;stroke-linejoin:miter;"/>
   </g>
   <g id="patch_14">
    <path clip-path="url(#p590d851f66)" d="M 403.768854 56.310888 
L 396.792189 53.415911 
L 399.726789 51.922912 
L 399.755059 51.906572 
L 399.756283 51.907907 
L 402.690883 50.414909 
z
" style="fill:#ff7f0e;stroke:#ff7f0e;stroke-linejoin:miter;"/>
   </g>
   <g id="patch_15">
    <path clip-path="url(#p590d851f66)" d="M 402.770099 85.441429 
L 396.506983 81.750004 
L 399.72498 80.627119 
L 399.756483 80.6145 
L 399.757321 80.615834 
L 402.975318 79.492949 
z
" style="fill:#ff7f0e;stroke:#ff7f0e;stroke-linejoin:miter;"/>
   </g>
   <g id="patch_16">
    <path clip-path="url(#p590d851f66)" d="M 401.692949 110.336785 
L 396.305596 105.944517 
L 399.723644 105.220829 
L 399.757489 105.212223 
L 399.757997 105.213555 
L 403.176045 104.489867 
z
" style="fill:#ff7f0e;stroke:#ff7f0e;stroke-linejoin:miter;"/>
   </g>
   <g id="patch_17">
    <path clip-path="url(#p590d851f66)" d="M 400.565323 132.888041 
L 396.193212 127.908714 
L 399.722784 127.602944 
L 399.758049 127.59854 
L 399.758257 127.599871 
L 403.287828 127.294102 
z
" style="fill:#ff7f0e;stroke:#ff7f0e;stroke-linejoin:miter;"/>
   </g>
   <g id="patch_18">
    <path clip-path="url(#p590d851f66)" d="M 376.3354 209.990039 
L 376.508105 204.040985 
L 379.651201 205.276067 
L 379.683624 205.287302 
L 379.68279 205.28848 
L 382.825886 206.523561 
z
" style="fill:#ff7f0e;stroke:#ff7f0e;stroke-linejoin:miter;"/>
   </g>
   <g id="patch_19">
    <path clip-path="url(#p590d851f66)" d="M 323.697079 252.926768 
L 327.253865 247.599171 
L 329.391601 249.714213 
L 329.414513 249.734669 
L 329.413086 249.73547 
L 331.550822 251.850512 
z
" style="fill:#ff7f0e;stroke:#ff7f0e;stroke-linejoin:miter;"/>
   </g>
   <g id="patch_20">
    <path clip-path="url(#p590d851f66)" d="M 389.795266 195.487272 
L 388.940281 189.571031 
L 392.270362 190.494797 
L 392.304465 190.502808 
L 392.30383 190.504081 
L 395.63391 191.427846 
z
" style="fill:#ff7f0e;stroke:#ff7f0e;stroke-linejoin:miter;"/>
   </g>
   <g id="patch_21">
    <path clip-path="url(#p590d851f66)" d="M 344.165001 244.07748 
L 346.773289 238.453403 
L 349.258129 240.346145 
L 349.284405 240.364218 
L 349.283103 240.365168 
L 351.767943 242.25791 
z
" style="fill:#ff7f0e;stroke:#ff7f0e;stroke-linejoin:miter;"/>
   </g>
   <g id="patch_22">
    <path clip-path="url(#p590d851f66)" d="M 388.868016 212.001172 
L 388.898638 206.05077 
L 392.070729 207.243982 
L 392.103469 207.254704 
L 392.102609 207.255974 
L 395.274699 208.449186 
z
" style="fill:#ff7f0e;stroke:#ff7f0e;stroke-linejoin:miter;"/>
   </g>
   <g id="patch_23">
    <path clip-path="url(#p590d851f66)" d="M 329.208016 261.191629 
L 332.851856 255.896799 
L 334.954767 258.031139 
L 334.977441 258.051747 
L 334.975902 258.052589 
L 337.078813 260.186929 
z
" style="fill:#ff7f0e;stroke:#ff7f0e;stroke-linejoin:miter;"/>
   </g>
   <g id="patch_24">
    <path clip-path="url(#p590d851f66)" d="M 381.799097 240.194485 
L 383.267533 234.345513 
L 386.099324 235.944958 
L 386.12903 235.959809 
L 386.127784 235.961033 
L 388.959575 237.560479 
z
" style="fill:#ff7f0e;stroke:#ff7f0e;stroke-linejoin:miter;"/>
   </g>
   <g id="patch_25">
    <path clip-path="url(#p590d851f66)" d="M 354.466646 261.063009 
L 357.391133 255.525969 
L 359.766563 257.495167 
L 359.79197 257.513931 
L 359.790437 257.514958 
L 362.165867 259.484157 
z
" style="fill:#ff7f0e;stroke:#ff7f0e;stroke-linejoin:miter;"/>
   </g>
   <g id="patch_26">
    <path clip-path="url(#p590d851f66)" d="M 390.577264 260.338519 
L 392.599732 254.582083 
L 395.271845 256.327426 
L 395.30022 256.343675 
L 395.298701 256.344967 
L 397.970814 258.090309 
z
" style="fill:#ff7f0e;stroke:#ff7f0e;stroke-linejoin:miter;"/>
   </g>
   <g id="patch_27">
    <path clip-path="url(#p590d851f66)" d="M 372.378478 273.49109 
L 375.236684 267.934864 
L 377.635551 269.888223 
L 377.661361 269.906695 
L 377.65966 269.907855 
L 380.058527 271.861214 
z
" style="fill:#ff7f0e;stroke:#ff7f0e;stroke-linejoin:miter;"/>
   </g>
   <g id="patch_28">
    <path clip-path="url(#p590d851f66)" d="M 373.99863 280.32211 
L 377.014393 274.812322 
L 379.357103 276.803168 
L 379.382441 276.822004 
L 379.380647 276.823176 
L 381.723357 278.814021 
z
" style="fill:#ff7f0e;stroke:#ff7f0e;stroke-linejoin:miter;"/>
   </g>
   <g id="patch_29">
    <path clip-path="url(#p590d851f66)" d="M 328.03695 279.634414 
L 332.199756 274.556459 
L 334.083557 276.801553 
L 334.104281 276.823282 
L 334.10249 276.824116 
L 335.986291 279.06921 
z
" style="fill:#ff7f0e;stroke:#ff7f0e;stroke-linejoin:miter;"/>
   </g>
   <g id="patch_30">
    <path clip-path="url(#p590d851f66)" d="M 290.670777 278.873704 
L 295.87281 274.359097 
L 297.248914 276.800293 
L 297.264534 276.824267 
L 297.262744 276.824827 
L 298.638848 279.266023 
z
" style="fill:#ff7f0e;stroke:#ff7f0e;stroke-linejoin:miter;"/>
   </g>
   <g id="patch_31">
    <path clip-path="url(#p590d851f66)" d="M 258.24613 278.059646 
L 264.352662 274.225314 
L 265.185427 276.799386 
L 265.195584 276.824935 
L 265.193797 276.825256 
L 266.026562 279.399328 
z
" style="fill:#ff7f0e;stroke:#ff7f0e;stroke-linejoin:miter;"/>
   </g>
   <g id="patch_32">
    <path clip-path="url(#p590d851f66)" d="M 228.471309 277.213371 
L 235.324129 274.158555 
L 235.592033 276.798833 
L 235.596512 276.825268 
L 235.594726 276.825368 
L 235.86263 279.465646 
z
" style="fill:#ff7f0e;stroke:#ff7f0e;stroke-linejoin:miter;"/>
   </g>
   <g id="patch_33">
    <path clip-path="url(#p590d851f66)" d="M 149.661373 266.23199 
L 157.615853 265.708465 
L 156.312533 268.17174 
L 156.301101 268.196986 
L 156.299434 268.196497 
L 154.996114 270.659772 
z
" style="fill:#ff7f0e;stroke:#ff7f0e;stroke-linejoin:miter;"/>
   </g>
   <g id="patch_34">
    <path clip-path="url(#p590d851f66)" d="M 68.402146 213.613074 
L 75.324482 216.579584 
L 72.362487 218.042235 
L 72.333708 218.058047 
L 72.332718 218.056935 
L 69.370723 219.519585 
z
" style="fill:#ff7f0e;stroke:#ff7f0e;stroke-linejoin:miter;"/>
   </g>
   <g id="patch_35">
    <path clip-path="url(#p590d851f66)" d="M 144.390245 268.360338 
L 152.357777 267.961984 
L 150.985004 270.40422 
L 150.972904 270.429295 
L 150.971207 270.428765 
L 149.598434 272.871002 
z
" style="fill:#ff7f0e;stroke:#ff7f0e;stroke-linejoin:miter;"/>
   </g>
   <g id="patch_36">
    <path clip-path="url(#p590d851f66)" d="M 73.621803 225.673338 
L 80.870234 228.170194 
L 78.094194 229.823017 
L 78.067442 229.840699 
L 78.066294 229.839628 
L 75.290254 231.492452 
z
" style="fill:#ff7f0e;stroke:#ff7f0e;stroke-linejoin:miter;"/>
   </g>
   <g id="patch_37">
    <path clip-path="url(#p590d851f66)" d="M 118.102187 266.387597 
L 126.071227 266.768828 
L 124.281768 269.056375 
L 124.26546 269.080094 
L 124.263784 269.079365 
L 122.474324 271.366912 
z
" style="fill:#ff7f0e;stroke:#ff7f0e;stroke-linejoin:miter;"/>
   </g>
   <g id="patch_38">
    <path clip-path="url(#p590d851f66)" d="M 77.940393 241.457166 
L 85.484235 243.40855 
L 82.940752 245.257533 
L 82.916545 245.277151 
L 82.915189 245.276116 
L 80.371706 247.125099 
z
" style="fill:#ff7f0e;stroke:#ff7f0e;stroke-linejoin:miter;"/>
   </g>
   <g id="patch_39">
    <path clip-path="url(#p590d851f66)" d="M 87.025249 265.451697 
L 94.859005 266.606004 
L 92.683558 268.699586 
L 92.663365 268.721591 
L 92.661694 268.720627 
L 90.486247 270.81421 
z
" style="fill:#ff7f0e;stroke:#ff7f0e;stroke-linejoin:miter;"/>
   </g>
   <g id="patch_40">
    <path clip-path="url(#p590d851f66)" d="M 65.548238 250.311383 
L 73.089181 252.268976 
L 70.542958 254.115864 
L 70.518841 254.135554 
L 70.517368 254.134426 
L 67.971145 255.981314 
z
" style="fill:#ff7f0e;stroke:#ff7f0e;stroke-linejoin:miter;"/>
   </g>
   <g id="patch_41">
    <path clip-path="url(#p590d851f66)" d="M 52.526478 269.548477 
L 60.163864 271.286108 
L 57.715934 273.205371 
L 57.69306 273.225884 
L 57.691331 273.22466 
L 55.243401 275.143923 
z
" style="fill:#ff7f0e;stroke:#ff7f0e;stroke-linejoin:miter;"/>
   </g>
   <g id="patch_42">
    <path clip-path="url(#p590d851f66)" d="M 47.538783 265.722243 
L 55.102789 267.629792 
L 52.578706 269.493478 
L 52.555018 269.513472 
L 52.553339 269.512209 
L 50.029256 271.375896 
z
" style="fill:#ff7f0e;stroke:#ff7f0e;stroke-linejoin:miter;"/>
   </g>
   <g id="patch_43">
    <path clip-path="url(#p590d851f66)" d="M 38.129957 248.251781 
L 45.396614 250.719046 
L 42.632752 252.383163 
L 42.606424 252.401224 
L 42.604975 252.399888 
L 39.841113 254.064005 
z
" style="fill:#ff7f0e;stroke:#ff7f0e;stroke-linejoin:miter;"/>
   </g>
   <g id="patch_44">
    <path clip-path="url(#p590d851f66)" d="M 39.07968 215.951878 
L 45.721106 219.255792 
L 42.6348 220.567989 
L 42.604803 220.582511 
L 42.603782 220.581177 
L 39.517475 221.893374 
z
" style="fill:#ff7f0e;stroke:#ff7f0e;stroke-linejoin:miter;"/>
   </g>
   <g id="patch_45">
    <path clip-path="url(#p590d851f66)" d="M 40.121004 189.230211 
L 45.965189 193.285206 
L 42.636372 194.211497 
L 42.603585 194.222139 
L 42.602917 194.220806 
L 39.2741 195.147097 
z
" style="fill:#ff7f0e;stroke:#ff7f0e;stroke-linejoin:miter;"/>
   </g>
   <g id="patch_46">
    <path clip-path="url(#p590d851f66)" d="M 41.22699 165.698204 
L 46.122582 170.399252 
L 42.63747 170.91565 
L 42.602799 170.922172 
L 42.602444 170.92084 
L 39.117332 171.437238 
z
" style="fill:#ff7f0e;stroke:#ff7f0e;stroke-linejoin:miter;"/>
   </g>
   <g id="patch_47">
    <path clip-path="url(#p590d851f66)" d="M 42.368901 143.797699 
L 46.189238 149.022995 
L 42.638095 149.116174 
L 42.602468 149.118442 
L 42.602405 149.117111 
L 39.051262 149.21029 
z
" style="fill:#ff7f0e;stroke:#ff7f0e;stroke-linejoin:miter;"/>
   </g>
   <g id="patch_48">
    <path clip-path="url(#p590d851f66)" d="M 63.280998 79.396037 
L 63.263643 85.346468 
L 60.088897 84.157185 
L 60.056182 84.14643 
L 60.05699 84.145233 
L 56.882243 82.95595 
z
" style="fill:#ff7f0e;stroke:#ff7f0e;stroke-linejoin:miter;"/>
   </g>
   <g id="patch_49">
    <path clip-path="url(#p590d851f66)" d="M 112.222806 37.012274 
L 108.950745 42.44025 
L 106.702736 40.389674 
L 106.67875 40.369913 
L 106.680143 40.369065 
L 104.432133 38.318489 
z
" style="fill:#ff7f0e;stroke:#ff7f0e;stroke-linejoin:miter;"/>
   </g>
   <g id="patch_50">
    <path clip-path="url(#p590d851f66)" d="M 64.621364 68.920841 
L 64.03665 74.855313 
L 60.983332 73.500942 
L 60.951695 73.488521 
L 60.952646 73.48733 
L 57.899328 72.132959 
z
" style="fill:#ff7f0e;stroke:#ff7f0e;stroke-linejoin:miter;"/>
   </g>
   <g id="patch_51">
    <path clip-path="url(#p590d851f66)" d="M 102.7205 36.899239 
L 99.734161 42.417918 
L 97.380847 40.43403 
L 97.355802 40.415008 
L 97.357195 40.414091 
L 95.003881 38.430203 
z
" style="fill:#ff7f0e;stroke:#ff7f0e;stroke-linejoin:miter;"/>
   </g>
   <g id="patch_52">
    <path clip-path="url(#p590d851f66)" d="M 60.153784 58.241426 
L 59.163038 64.145896 
L 56.206545 62.677076 
L 56.175735 62.66354 
L 56.176831 62.662314 
L 53.220338 61.193495 
z
" style="fill:#ff7f0e;stroke:#ff7f0e;stroke-linejoin:miter;"/>
   </g>
   <g id="patch_53">
    <path clip-path="url(#p590d851f66)" d="M 93.551752 31.213631 
L 90.631376 36.751877 
L 88.254484 34.783658 
L 88.229127 34.764862 
L 88.230596 34.763877 
L 85.853704 32.795658 
z
" style="fill:#ff7f0e;stroke:#ff7f0e;stroke-linejoin:miter;"/>
   </g>
   <g id="patch_54">
    <path clip-path="url(#p590d851f66)" d="M 57.584149 37.465953 
L 55.798664 43.26575 
L 53.056232 41.582062 
L 53.02729 41.566388 
L 53.02867 41.56514 
L 50.286237 39.881452 
z
" style="fill:#ff7f0e;stroke:#ff7f0e;stroke-linejoin:miter;"/>
   </g>
   <g id="patch_55">
    <path clip-path="url(#p590d851f66)" d="M 74.231613 24.725682 
L 71.602478 30.344365 
L 69.124666 28.446514 
L 69.098209 28.428567 
L 69.099764 28.42744 
L 66.621952 26.529588 
z
" style="fill:#ff7f0e;stroke:#ff7f0e;stroke-linejoin:miter;"/>
   </g>
   <g id="patch_56">
    <path clip-path="url(#p590d851f66)" d="M 47.595954 12.133091 
L 45.184947 17.805838 
L 42.634851 15.961919 
L 42.607498 15.944711 
L 42.609222 15.943387 
L 40.059127 14.099468 
z
" style="fill:#ff7f0e;stroke:#ff7f0e;stroke-linejoin:miter;"/>
   </g>
   <g id="patch_57">
    <path clip-path="url(#p590d851f66)" d="M 52.972004 8.312243 
L 50.334484 13.928745 
L 47.859506 12.02884 
L 47.832856 12.011031 
L 47.834632 12.009746 
L 45.359655 10.109841 
z
" style="fill:#ff7f0e;stroke:#ff7f0e;stroke-linejoin:miter;"/>
   </g>
   <g id="patch_58">
    <path clip-path="url(#p590d851f66)" d="M 92.734715 7.523451 
L 89.133754 12.834544 
L 87.013624 10.709685 
L 86.990523 10.689322 
L 86.992316 10.688329 
L 84.872185 8.563469 
z
" style="fill:#ff7f0e;stroke:#ff7f0e;stroke-linejoin:miter;"/>
   </g>
   <g id="patch_59">
    <path clip-path="url(#p590d851f66)" d="M 133.807711 8.250004 
L 129.110058 13.061889 
L 127.474803 10.711121 
L 127.456578 10.688187 
L 127.458368 10.687496 
L 125.823113 8.336728 
z
" style="fill:#ff7f0e;stroke:#ff7f0e;stroke-linejoin:miter;"/>
   </g>
   <g id="patch_60">
    <path clip-path="url(#p590d851f66)" d="M 168.356287 9.039946 
L 162.683609 13.227996 
L 161.575582 10.712205 
L 161.562657 10.687358 
L 161.564446 10.68692 
L 160.456419 8.171129 
z
" style="fill:#ff7f0e;stroke:#ff7f0e;stroke-linejoin:miter;"/>
   </g>
   <g id="patch_61">
    <path clip-path="url(#p590d851f66)" d="M 199.218931 9.872829 
L 192.718163 13.328591 
L 192.16605 10.712935 
L 192.158714 10.686856 
L 192.160501 10.686647 
L 191.608387 8.07099 
z
" style="fill:#ff7f0e;stroke:#ff7f0e;stroke-linejoin:miter;"/>
   </g>
   <g id="patch_62">
    <path clip-path="url(#p590d851f66)" d="M 290.756239 21.128876 
L 282.809623 21.714979 
L 284.077955 19.241583 
L 284.089034 19.21625 
L 284.090702 19.216725 
L 285.359034 16.743329 
z
" style="fill:#ff7f0e;stroke:#ff7f0e;stroke-linejoin:miter;"/>
   </g>
   <g id="patch_63">
    <path clip-path="url(#p590d851f66)" d="M 364.404305 64.162404 
L 357.150318 61.674522 
L 359.92267 60.018265 
L 359.949416 60.000582 
L 359.950533 60.00162 
L 362.722885 58.345363 
z
" style="fill:#ff7f0e;stroke:#ff7f0e;stroke-linejoin:miter;"/>
   </g>
   <g id="matplotlib.axis_1">
    <g id="xtick_1">
     <g id="line2d_1">
      <defs>
       <path d="M 0 0 
L 0 3.5 
" id="m161e31fffe" style="stroke:#000000;stroke-width:0.8;"/>
      </defs>
      <g>
       <use style="stroke:#000000;stroke-width:0.8;" x="78.332313" xlink:href="#m161e31fffe" y="276.812"/>
      </g>
     </g>
     <g id="text_1">
      <!-- −4 -->
      <defs>
       <path d="M 10.59375 35.5 
L 73.1875 35.5 
L 73.1875 27.203125 
L 10.59375 27.203125 
z
" id="DejaVuSans-2212"/>
       <path d="M 37.796875 64.3125 
L 12.890625 25.390625 
L 37.796875 25.390625 
z
M 35.203125 72.90625 
L 47.609375 72.90625 
L 47.609375 25.390625 
L 58.015625 25.390625 
L 58.015625 17.1875 
L 47.609375 17.1875 
L 47.609375 0 
L 37.796875 0 
L 37.796875 17.1875 
L 4.890625 17.1875 
L 4.890625 26.703125 
z
" id="DejaVuSans-34"/>
      </defs>
      <g transform="translate(70.961219 291.410438)scale(0.1 -0.1)">
       <use xlink:href="#DejaVuSans-2212"/>
       <use x="83.789062" xlink:href="#DejaVuSans-34"/>
      </g>
     </g>
    </g>
    <g id="xtick_2">
     <g id="line2d_2">
      <g>
       <use style="stroke:#000000;stroke-width:0.8;" x="149.756313" xlink:href="#m161e31fffe" y="276.812"/>
      </g>
     </g>
     <g id="text_2">
      <!-- −2 -->
      <defs>
       <path d="M 19.1875 8.296875 
L 53.609375 8.296875 
L 53.609375 0 
L 7.328125 0 
L 7.328125 8.296875 
Q 12.9375 14.109375 22.625 23.890625 
Q 32.328125 33.6875 34.8125 36.53125 
Q 39.546875 41.84375 41.421875 45.53125 
Q 43.3125 49.21875 43.3125 52.78125 
Q 43.3125 58.59375 39.234375 62.25 
Q 35.15625 65.921875 28.609375 65.921875 
Q 23.96875 65.921875 18.8125 64.3125 
Q 13.671875 62.703125 7.8125 59.421875 
L 7.8125 69.390625 
Q 13.765625 71.78125 18.9375 73 
Q 24.125 74.21875 28.421875 74.21875 
Q 39.75 74.21875 46.484375 68.546875 
Q 53.21875 62.890625 53.21875 53.421875 
Q 53.21875 48.921875 51.53125 44.890625 
Q 49.859375 40.875 45.40625 35.40625 
Q 44.1875 33.984375 37.640625 27.21875 
Q 31.109375 20.453125 19.1875 8.296875 
" id="DejaVuSans-32"/>
      </defs>
      <g transform="translate(142.385219 291.410438)scale(0.1 -0.1)">
       <use xlink:href="#DejaVuSans-2212"/>
       <use x="83.789062" xlink:href="#DejaVuSans-32"/>
      </g>
     </g>
    </g>
    <g id="xtick_3">
     <g id="line2d_3">
      <g>
       <use style="stroke:#000000;stroke-width:0.8;" x="221.180313" xlink:href="#m161e31fffe" y="276.812"/>
      </g>
     </g>
     <g id="text_3">
      <!-- 0 -->
      <defs>
       <path d="M 31.78125 66.40625 
Q 24.171875 66.40625 20.328125 58.90625 
Q 16.5 51.421875 16.5 36.375 
Q 16.5 21.390625 20.328125 13.890625 
Q 24.171875 6.390625 31.78125 6.390625 
Q 39.453125 6.390625 43.28125 13.890625 
Q 47.125 21.390625 47.125 36.375 
Q 47.125 51.421875 43.28125 58.90625 
Q 39.453125 66.40625 31.78125 66.40625 
M 31.78125 74.21875 
Q 44.046875 74.21875 50.515625 64.515625 
Q 56.984375 54.828125 56.984375 36.375 
Q 56.984375 17.96875 50.515625 8.265625 
Q 44.046875 -1.421875 31.78125 -1.421875 
Q 19.53125 -1.421875 13.0625 8.265625 
Q 6.59375 17.96875 6.59375 36.375 
Q 6.59375 54.828125 13.0625 64.515625 
Q 19.53125 74.21875 31.78125 74.21875 
" id="DejaVuSans-30"/>
      </defs>
      <g transform="translate(217.999063 291.410438)scale(0.1 -0.1)">
       <use xlink:href="#DejaVuSans-30"/>
      </g>
     </g>
    </g>
    <g id="xtick_4">
     <g id="line2d_4">
      <g>
       <use style="stroke:#000000;stroke-width:0.8;" x="292.604312" xlink:href="#m161e31fffe" y="276.812"/>
      </g>
     </g>
     <g id="text_4">
      <!-- 2 -->
      <g transform="translate(289.423063 291.410438)scale(0.1 -0.1)">
       <use xlink:href="#DejaVuSans-32"/>
      </g>
     </g>
    </g>
    <g id="xtick_5">
     <g id="line2d_5">
      <g>
       <use style="stroke:#000000;stroke-width:0.8;" x="364.028313" xlink:href="#m161e31fffe" y="276.812"/>
      </g>
     </g>
     <g id="text_5">
      <!-- 4 -->
      <g transform="translate(360.847063 291.410438)scale(0.1 -0.1)">
       <use xlink:href="#DejaVuSans-34"/>
      </g>
     </g>
    </g>
    <g id="text_6">
     <!-- x1 -->
     <defs>
      <path d="M 54.890625 54.6875 
L 35.109375 28.078125 
L 55.90625 0 
L 45.3125 0 
L 29.390625 21.484375 
L 13.484375 0 
L 2.875 0 
L 24.125 28.609375 
L 4.6875 54.6875 
L 15.28125 54.6875 
L 29.78125 35.203125 
L 44.28125 54.6875 
z
" id="DejaVuSans-78"/>
      <path d="M 12.40625 8.296875 
L 28.515625 8.296875 
L 28.515625 63.921875 
L 10.984375 60.40625 
L 10.984375 69.390625 
L 28.421875 72.90625 
L 38.28125 72.90625 
L 38.28125 8.296875 
L 54.390625 8.296875 
L 54.390625 0 
L 12.40625 0 
z
" id="DejaVuSans-31"/>
     </defs>
     <g transform="translate(215.039688 305.088562)scale(0.1 -0.1)">
      <use xlink:href="#DejaVuSans-78"/>
      <use x="59.179688" xlink:href="#DejaVuSans-31"/>
     </g>
    </g>
   </g>
   <g id="matplotlib.axis_2">
    <g id="ytick_1">
     <g id="line2d_6">
      <defs>
       <path d="M 0 0 
L -3.5 0 
" id="m757772f90c" style="stroke:#000000;stroke-width:0.8;"/>
      </defs>
      <g>
       <use style="stroke:#000000;stroke-width:0.8;" x="42.620313" xlink:href="#m757772f90c" y="250.2008"/>
      </g>
     </g>
     <g id="text_7">
      <!-- −4 -->
      <g transform="translate(20.878125 254.000019)scale(0.1 -0.1)">
       <use xlink:href="#DejaVuSans-2212"/>
       <use x="83.789062" xlink:href="#DejaVuSans-34"/>
      </g>
     </g>
    </g>
    <g id="ytick_2">
     <g id="line2d_7">
      <g>
       <use style="stroke:#000000;stroke-width:0.8;" x="42.620313" xlink:href="#m757772f90c" y="196.9784"/>
      </g>
     </g>
     <g id="text_8">
      <!-- −2 -->
      <g transform="translate(20.878125 200.777619)scale(0.1 -0.1)">
       <use xlink:href="#DejaVuSans-2212"/>
       <use x="83.789062" xlink:href="#DejaVuSans-32"/>
      </g>
     </g>
    </g>
    <g id="ytick_3">
     <g id="line2d_8">
      <g>
       <use style="stroke:#000000;stroke-width:0.8;" x="42.620313" xlink:href="#m757772f90c" y="143.756"/>
      </g>
     </g>
     <g id="text_9">
      <!-- 0 -->
      <g transform="translate(29.257813 147.555219)scale(0.1 -0.1)">
       <use xlink:href="#DejaVuSans-30"/>
      </g>
     </g>
    </g>
    <g id="ytick_4">
     <g id="line2d_9">
      <g>
       <use style="stroke:#000000;stroke-width:0.8;" x="42.620313" xlink:href="#m757772f90c" y="90.5336"/>
      </g>
     </g>
     <g id="text_10">
      <!-- 2 -->
      <g transform="translate(29.257813 94.332819)scale(0.1 -0.1)">
       <use xlink:href="#DejaVuSans-32"/>
      </g>
     </g>
    </g>
    <g id="ytick_5">
     <g id="line2d_10">
      <g>
       <use style="stroke:#000000;stroke-width:0.8;" x="42.620313" xlink:href="#m757772f90c" y="37.3112"/>
      </g>
     </g>
     <g id="text_11">
      <!-- 4 -->
      <g transform="translate(29.257813 41.110419)scale(0.1 -0.1)">
       <use xlink:href="#DejaVuSans-34"/>
      </g>
     </g>
    </g>
    <g id="text_12">
     <!-- x2 -->
     <g transform="translate(14.798438 149.896625)rotate(-90)scale(0.1 -0.1)">
      <use xlink:href="#DejaVuSans-78"/>
      <use x="59.179688" xlink:href="#DejaVuSans-32"/>
     </g>
    </g>
   </g>
   <g id="line2d_11">
    <path clip-path="url(#p590d851f66)" d="M 221.180313 10.7 
L 228.3208 10.806516 
L 235.449867 11.125619 
L 242.556108 11.656883 
L 249.628159 12.399476 
L 256.654724 13.352129 
L 263.624552 14.513385 
L 270.526502 15.881358 
L 277.349515 17.453957 
L 284.082661 19.228679 
L 290.71518 21.20266 
L 297.236447 23.372737 
L 303.636035 25.735407 
L 309.903716 28.286891 
L 316.029452 31.02309 
L 322.003449 33.939634 
L 327.816157 37.03186 
L 333.458263 40.294821 
L 338.920752 43.723299 
L 344.194926 47.311838 
L 349.272368 51.054711 
L 354.1449 54.945901 
L 358.804657 58.979141 
L 363.244249 63.148018 
L 367.4565 67.445812 
L 371.434698 71.865667 
L 375.172509 76.400521 
L 378.663936 81.043112 
L 381.903444 85.786038 
L 384.885837 90.621708 
L 387.606353 95.542388 
L 390.060638 100.540208 
L 392.244756 105.607167 
L 394.155204 110.735154 
L 395.788925 115.915967 
L 397.143299 121.141314 
L 398.216163 126.402837 
L 399.005808 131.69212 
L 399.510964 137.000703 
L 399.730835 142.320096 
L 399.741174 143.650636 
L 399.741174 143.650636 
" style="fill:none;stroke:#ff7f0e;stroke-linecap:square;stroke-width:0.5;"/>
   </g>
   <g id="line2d_12">
    <path clip-path="url(#p590d851f66)" d="M 250.199137 10.7 
L 251.983225 10.92301 
L 253.764247 11.15918 
L 255.542 11.408606 
L 257.316325 11.671266 
L 259.087046 11.947135 
L 260.853983 12.236187 
L 262.616956 12.53839 
L 264.375786 12.853714 
L 266.1303 13.182125 
L 267.88032 13.523593 
L 269.625667 13.878086 
L 271.36618 14.245556 
L 273.101678 14.625973 
L 274.831981 15.019306 
L 276.556912 15.42552 
L 278.276317 15.844555 
L 279.990011 16.276383 
L 281.69782 16.720964 
L 283.399571 17.178254 
L 285.095104 17.648198 
L 286.784244 18.130756 
L 288.466821 18.62588 
L 290.142666 19.133519 
L 291.811615 19.653621 
L 293.4735 20.186134 
L 295.128154 20.731005 
L 296.775413 21.288179 
L 298.415113 21.8576 
L 300.047089 22.439211 
L 301.67118 23.032953 
L 303.287221 23.638768 
L 304.895052 24.256596 
L 306.494512 24.886374 
L 308.085441 25.528039 
L 309.66768 26.181526 
L 311.24107 26.846769 
L 312.805455 27.523703 
L 314.36068 28.212263 
L 315.906587 28.912377 
L 317.443022 29.623974 
L 318.96983 30.346984 
L 320.486858 31.081333 
L 321.993956 31.82695 
L 323.490976 32.583762 
L 324.977765 33.35169 
L 326.454173 34.130659 
L 327.920053 34.920589 
L 329.375258 35.721402 
L 330.819641 36.533018 
L 332.253065 37.355358 
L 333.675382 38.188338 
L 335.086449 39.031875 
L 336.486124 39.885884 
L 337.874267 40.750278 
L 339.250739 41.624973 
L 340.615408 42.509883 
L 341.968133 43.404917 
L 343.30878 44.309985 
L 344.637213 45.224998 
L 345.953299 46.149864 
L 347.256907 47.084488 
L 348.54791 48.028782 
L 349.826177 48.982649 
L 351.091579 49.945993 
L 352.34399 50.918717 
L 353.583283 51.900725 
L 354.809334 52.891917 
L 356.022026 53.892197 
L 357.221234 54.901465 
L 358.406838 55.919617 
L 359.578719 56.946553 
L 360.736759 57.982169 
L 361.880842 59.026361 
L 363.010857 60.079028 
L 364.12669 61.140063 
L 365.228229 62.20936 
L 366.315362 63.286811 
L 367.387981 64.372308 
L 368.445978 65.465743 
L 369.489251 66.567009 
L 370.517697 67.675997 
L 371.531211 68.792595 
L 372.52969 69.916691 
L 373.513036 71.048171 
L 374.481149 72.186923 
L 375.433931 73.332831 
L 376.371287 74.485782 
L 377.293123 75.645658 
L 378.199343 76.812342 
L 379.089861 77.98572 
L 379.964602 79.165689 
L 380.823466 80.35212 
L 381.666367 81.544892 
L 382.49322 82.743886 
L 383.303941 83.948981 
L 384.098449 85.160056 
L 384.876663 86.376989 
L 385.638503 87.599657 
L 386.383894 88.827936 
L 387.112758 90.061702 
L 387.825031 91.30084 
L 388.520641 92.545225 
L 389.199515 93.79473 
L 389.861584 95.049228 
L 390.506784 96.308596 
L 391.135049 97.572706 
L 391.746318 98.841432 
L 392.340529 100.114649 
L 392.91762 101.392227 
L 393.477537 102.67404 
L 394.020223 103.959961 
L 394.545625 105.249861 
L 395.053692 106.543612 
L 395.544372 107.841085 
L 396.017618 109.142152 
L 396.473378 110.446677 
L 396.911607 111.754532 
L 397.332264 113.065588 
L 397.735307 114.379713 
L 398.120696 115.696776 
L 398.488391 117.016646 
L 398.838358 118.339191 
L 399.17056 119.664279 
L 399.484963 120.991775 
L 399.781536 122.321549 
" style="fill:none;stroke:#ff7f0e;stroke-linecap:square;stroke-width:0.5;"/>
   </g>
   <g id="line2d_13">
    <path clip-path="url(#p590d851f66)" d="M 280.7924 10.7 
L 282.574926 11.150982 
L 284.351355 11.615094 
L 286.121457 12.092412 
L 287.885072 12.582897 
L 289.642027 13.086501 
L 291.392144 13.603175 
L 293.135244 14.132864 
L 294.871153 14.675515 
L 296.599691 15.231075 
L 298.320696 15.799481 
L 300.033988 16.380681 
L 301.739391 16.974622 
L 303.436745 17.581234 
L 305.125885 18.200455 
L 306.806629 18.832231 
L 308.478805 19.476506 
L 310.142246 20.133212 
L 311.796805 20.802269 
L 313.442299 21.483625 
L 315.078561 22.177213 
L 316.705423 22.882968 
L 318.322741 23.600804 
L 319.930341 24.330658 
L 321.528062 25.072458 
L 323.115745 25.82613 
L 324.693233 26.591596 
L 326.260369 27.36878 
L 327.816996 28.157603 
L 329.362959 28.957985 
L 330.898103 29.769848 
L 332.422274 30.593111 
L 333.935322 31.42769 
L 335.437095 32.2735 
L 336.927443 33.130459 
L 338.406217 33.99848 
L 339.873268 34.877477 
L 341.32845 35.767361 
L 342.771618 36.668044 
L 344.202629 37.579436 
L 345.621339 38.501445 
L 347.027606 39.43398 
L 348.421288 40.376947 
L 349.802245 41.330251 
L 351.170338 42.293797 
L 352.525436 43.267491 
L 353.867402 44.251234 
L 355.196099 45.244928 
L 356.511395 46.248473 
L 357.813156 47.261768 
L 359.101251 48.284713 
L 360.375554 49.317204 
L 361.635942 50.359141 
L 362.882284 51.410418 
L 364.114456 52.47093 
L 365.332334 53.54057 
L 366.535794 54.619231 
L 367.724717 55.706804 
L 368.898991 56.803186 
L 370.058496 57.908266 
L 371.203114 59.021931 
L 372.33273 60.144071 
L 373.447232 61.274572 
L 374.546508 62.413322 
L 375.630445 63.560206 
L 376.698936 64.715107 
L 377.751872 65.87791 
L 378.789147 67.048498 
L 379.810676 68.22677 
L 380.816343 69.412595 
L 381.806047 70.605855 
L 382.779688 71.806431 
L 383.737169 73.014201 
L 384.678393 74.229044 
L 385.603265 75.450839 
L 386.511691 76.679461 
L 387.40358 77.914786 
L 388.278844 79.156695 
L 389.137409 80.405074 
L 389.979178 81.659787 
L 390.804067 82.92071 
L 391.611991 84.187715 
L 392.402871 85.460676 
L 393.176628 86.739466 
L 393.933182 88.023955 
L 394.672458 89.314014 
L 395.394382 90.609515 
L 396.098885 91.910331 
L 396.785897 93.216335 
L 397.455347 94.527391 
L 398.107168 95.84337 
L 398.741296 97.164138 
L 399.357667 98.489566 
L 399.95622 99.819519 
" style="fill:none;stroke:#ff7f0e;stroke-linecap:square;stroke-width:0.5;"/>
   </g>
   <g id="line2d_14">
    <path clip-path="url(#p590d851f66)" d="M 314.89583 10.7 
L 316.676617 11.405103 
L 318.447929 12.123308 
L 320.209505 12.854667 
L 321.961186 13.599117 
L 323.7028 14.356586 
L 325.43417 15.126999 
L 327.155119 15.910276 
L 328.865476 16.706337 
L 330.565065 17.515103 
L 332.253715 18.336492 
L 333.931261 19.170421 
L 335.597528 20.016809 
L 337.252362 20.875565 
L 338.895591 21.746607 
L 340.527046 22.629852 
L 342.146561 23.525214 
L 343.753989 24.43259 
L 345.349159 25.351901 
L 346.931908 26.283055 
L 348.502077 27.225961 
L 350.059518 28.180516 
L 351.604069 29.146631 
L 353.135576 30.124209 
L 354.653884 31.113152 
L 356.158845 32.11336 
L 357.650307 33.124733 
L 359.128122 34.147169 
L 360.592141 35.180567 
L 362.042218 36.224822 
L 363.47821 37.279831 
L 364.899972 38.345488 
L 366.307363 39.421685 
L 367.700241 40.508317 
L 369.078468 41.605275 
L 370.441905 42.712448 
L 371.790417 43.829725 
L 373.123867 44.956994 
L 374.442124 46.094141 
L 375.745057 47.241058 
L 377.032534 48.397627 
L 378.304426 49.563732 
L 379.560607 50.739255 
L 380.800948 51.924078 
L 382.025327 53.118083 
L 383.233623 54.321154 
L 384.425715 55.533169 
L 385.601483 56.754007 
L 386.760809 57.983545 
L 387.903575 59.221659 
L 389.029667 60.468224 
L 390.138974 61.723119 
L 391.231388 62.986219 
L 392.306797 64.257397 
L 393.365093 65.536523 
L 394.40617 66.823471 
L 395.429922 68.118111 
L 396.436248 69.420313 
L 397.425052 70.729953 
L 398.396232 72.046895 
L 399.349689 73.371007 
L 400.28533 74.702158 
" style="fill:none;stroke:#ff7f0e;stroke-linecap:square;stroke-width:0.5;"/>
   </g>
   <g id="line2d_15">
    <path clip-path="url(#p590d851f66)" d="M 355.359448 10.7 
L 357.138172 11.706617 
L 358.903411 12.726302 
L 360.654872 13.759079 
L 362.392395 14.804859 
L 364.115807 15.863539 
L 365.824934 16.935013 
L 367.5196 18.01917 
L 369.199637 19.1159 
L 370.86488 20.225091 
L 372.515153 21.346635 
L 374.15029 22.480421 
L 375.77014 23.626328 
L 377.374528 24.784251 
L 378.963291 25.954073 
L 380.536285 27.135669 
L 382.093341 28.328929 
L 383.634298 29.533737 
L 385.15902 30.74996 
L 386.667342 31.977485 
L 388.159107 33.216194 
L 389.634196 34.465942 
L 391.092448 35.726615 
L 392.533713 36.998088 
L 393.957841 38.280238 
L 395.364683 39.572943 
L 396.754094 40.876074 
L 398.125987 42.18947 
L 399.480187 43.513022 
L 400.816554 44.8466 
" style="fill:none;stroke:#ff7f0e;stroke-linecap:square;stroke-width:0.5;"/>
   </g>
   <g id="line2d_16">
    <path clip-path="url(#p590d851f66)" d="M 399.740313 15.953977 
L 401.446267 17.291029 
" style="fill:none;stroke:#ff7f0e;stroke-linecap:square;stroke-width:0.5;"/>
   </g>
   <g id="line2d_17">
    <path clip-path="url(#p590d851f66)" d="M 399.740313 51.914074 
L 400.963694 53.249292 
" style="fill:none;stroke:#ff7f0e;stroke-linecap:square;stroke-width:0.5;"/>
   </g>
   <g id="line2d_18">
    <path clip-path="url(#p590d851f66)" d="M 399.740313 80.620143 
L 400.578468 81.953897 
" style="fill:none;stroke:#ff7f0e;stroke-linecap:square;stroke-width:0.5;"/>
   </g>
   <g id="line2d_19">
    <path clip-path="url(#p590d851f66)" d="M 399.740313 105.21586 
L 400.248402 106.54836 
" style="fill:none;stroke:#ff7f0e;stroke-linecap:square;stroke-width:0.5;"/>
   </g>
   <g id="line2d_20">
    <path clip-path="url(#p590d851f66)" d="M 399.740313 127.600077 
L 399.948026 128.931433 
" style="fill:none;stroke:#ff7f0e;stroke-linecap:square;stroke-width:0.5;"/>
   </g>
   <g id="line2d_21">
    <path clip-path="url(#p590d851f66)" d="M 399.740313 149.117973 
L 399.309606 154.434495 
L 398.594094 159.733944 
L 397.594751 165.00783 
L 396.313193 170.247718 
L 394.751453 175.445229 
L 392.912014 180.592043 
L 390.797828 185.679926 
L 388.412286 190.700743 
L 385.759205 195.646463 
L 382.842829 200.509177 
L 379.667829 205.281095 
L 376.239281 209.954589 
L 372.562671 214.522178 
L 368.643882 218.976552 
L 364.489183 223.310591 
L 360.10522 227.51736 
L 355.499008 231.590126 
L 350.677912 235.522379 
L 345.649646 239.307825 
L 340.422251 242.940408 
L 335.004061 246.41434 
L 329.403771 249.72404 
L 323.630317 252.864228 
L 317.692916 255.829893 
L 311.601162 258.616225 
L 305.364764 261.218791 
L 298.993727 263.633412 
L 292.498238 265.856229 
L 285.888655 267.883714 
L 279.175562 269.712614 
L 272.369676 271.340025 
L 265.481885 272.763337 
L 258.523216 273.980268 
L 251.504799 274.988872 
L 244.437878 275.787527 
L 237.333751 276.374957 
L 230.203788 276.750221 
L 226.632681 276.858089 
L 226.632681 276.858089 
" style="fill:none;stroke:#ff7f0e;stroke-linecap:square;stroke-width:0.5;"/>
   </g>
   <g id="line2d_22">
    <path clip-path="url(#p590d851f66)" d="M 399.740313 170.919577 
L 399.366686 172.248727 
L 398.975411 173.575044 
L 398.566364 174.89837 
L 398.13958 176.218588 
L 397.695097 177.535568 
L 397.232961 178.849174 
L 396.75322 180.159275 
L 396.255922 181.465736 
L 395.74112 182.768428 
L 395.208866 184.067221 
L 394.659207 185.361983 
L 394.092205 186.652585 
L 393.507927 187.938907 
L 392.906419 189.220811 
L 392.287731 190.498166 
L 391.651926 191.770842 
L 390.999092 193.038728 
L 390.329274 194.301685 
L 389.642534 195.559582 
L 388.938933 196.812292 
L 388.218566 198.059703 
L 387.481492 199.301681 
L 386.727783 200.538103 
L 385.957513 201.768842 
L 385.170763 202.993779 
L 384.367613 204.212793 
L 383.548143 205.425759 
L 382.712435 206.632558 
L 381.860574 207.833068 
L 380.992642 209.027171 
L 380.108729 210.214746 
L 379.208925 211.395676 
L 378.293318 212.569843 
L 377.362 213.737128 
L 376.415063 214.897415 
L 375.452604 216.050589 
L 374.474719 217.196533 
L 373.481505 218.335134 
L 372.47306 219.466277 
L 371.449487 220.589849 
L 370.410887 221.705737 
L 369.357364 222.813832 
L 368.289024 223.914023 
L 367.205972 225.006199 
L 366.108318 226.090251 
L 364.996172 227.166068 
L 363.869644 228.233544 
L 362.728848 229.29257 
L 361.573895 230.343048 
L 360.404901 231.384868 
L 359.221985 232.417926 
L 358.025265 233.442117 
L 356.81486 234.457339 
L 355.590892 235.463489 
L 354.353485 236.460464 
L 353.102755 237.448176 
L 351.838833 238.42652 
L 350.561845 239.395396 
L 349.271919 240.354707 
L 347.969184 241.304357 
L 346.653772 242.24425 
L 345.325815 243.174292 
L 343.985437 244.094397 
L 342.632779 245.004469 
L 341.267975 245.904415 
L 339.891163 246.794146 
L 338.502481 247.673572 
L 337.102069 248.542605 
L 335.690067 249.401156 
L 334.266608 250.249148 
L 332.83184 251.086491 
L 331.385908 251.9131 
L 329.928955 252.728893 
L 328.461129 253.533788 
L 326.982576 254.327703 
L 325.493446 255.110561 
L 323.993878 255.882286 
L 322.484029 256.642799 
L 320.964049 257.392023 
L 319.434092 258.129883 
L 317.894311 258.856305 
L 316.34486 259.571216 
L 314.785896 260.274544 
L 313.217564 260.966224 
L 311.640028 261.646183 
L 310.053447 262.314353 
L 308.457979 262.970666 
L 306.853784 263.615058 
L 305.241025 264.247462 
L 303.619861 264.867816 
L 301.990447 265.476062 
L 300.352952 266.072137 
L 298.707539 266.655979 
L 297.054375 267.227532 
L 295.393624 267.786736 
L 293.725455 268.333537 
L 292.050032 268.867879 
L 290.367512 269.389714 
L 288.678071 269.898986 
L 286.981879 270.395644 
L 285.279105 270.87964 
L 283.56992 271.350923 
L 281.854496 271.809446 
L 280.133005 272.255164 
L 278.405622 272.688031 
L 276.672519 273.108003 
L 274.933873 273.515038 
L 273.18985 273.909097 
L 271.440622 274.290143 
L 269.686369 274.658134 
L 267.927267 275.013035 
L 266.163493 275.354809 
L 264.395222 275.683423 
L 262.622633 275.998843 
L 260.845902 276.301038 
L 259.065204 276.589978 
L 257.28072 276.865634 
" style="fill:none;stroke:#ff7f0e;stroke-linecap:square;stroke-width:0.5;"/>
   </g>
   <g id="line2d_23">
    <path clip-path="url(#p590d851f66)" d="M 399.740313 194.217485 
L 399.054032 195.545446 
L 398.35014 196.868266 
L 397.628543 198.185767 
L 396.8893 199.497831 
L 396.132482 200.804328 
L 395.358166 202.105127 
L 394.566431 203.400094 
L 393.757358 204.6891 
L 392.931028 205.972012 
L 392.087529 207.248708 
L 391.226943 208.519057 
L 390.349349 209.782927 
L 389.454842 211.040196 
L 388.543522 212.290748 
L 387.615466 213.534446 
L 386.67076 214.771162 
L 385.709497 216.000771 
L 384.731796 217.223166 
L 383.737737 218.438213 
L 382.727416 219.645787 
L 381.700928 220.845764 
L 380.658396 222.038038 
L 379.599912 223.222481 
L 378.525582 224.398976 
L 377.435514 225.567403 
L 376.329819 226.727648 
L 375.208607 227.879595 
L 374.071992 229.023129 
L 372.920088 230.158136 
L 371.753009 231.284503 
L 370.570872 232.402116 
L 369.373796 233.510865 
L 368.161902 234.61064 
L 366.93531 235.701329 
L 365.694142 236.782824 
L 364.438524 237.855016 
L 363.16858 238.917799 
L 361.884438 239.971065 
L 360.586225 241.014712 
L 359.274071 242.048635 
L 357.948108 243.072728 
L 356.608468 244.08689 
L 355.255287 245.091018 
L 353.888698 246.085012 
L 352.508838 247.068775 
L 351.115843 248.042208 
L 349.709854 249.005214 
L 348.291012 249.957694 
L 346.859459 250.899553 
L 345.41534 251.830697 
L 343.958798 252.751031 
L 342.489974 253.66047 
L 341.009018 254.558919 
L 339.51608 255.446287 
L 338.011309 256.322486 
L 336.494856 257.187426 
L 334.966874 258.041022 
L 333.42751 258.883191 
L 331.876919 259.713848 
L 330.315259 260.532909 
L 328.742686 261.340293 
L 327.159358 262.135917 
L 325.565434 262.919702 
L 323.961072 263.69157 
L 322.346427 264.451447 
L 320.721666 265.199254 
L 319.086952 265.934916 
L 317.442447 266.658361 
L 315.788318 267.369514 
L 314.124731 268.068305 
L 312.451845 268.754667 
L 310.769831 269.428529 
L 309.078858 270.089824 
L 307.379096 270.738485 
L 305.670715 271.374448 
L 303.953887 271.997648 
L 302.228782 272.608023 
L 300.495568 273.205516 
L 298.754423 273.790063 
L 297.00552 274.361607 
L 295.249036 274.92009 
L 293.485147 275.465456 
L 291.714029 275.99765 
L 289.935848 276.516624 
L 288.150788 277.022323 
" style="fill:none;stroke:#ff7f0e;stroke-linecap:square;stroke-width:0.5;"/>
   </g>
   <g id="line2d_24">
    <path clip-path="url(#p590d851f66)" d="M 399.740313 220.575917 
L 398.700311 221.902535 
L 397.642736 223.221399 
L 396.567529 224.532311 
L 395.474781 225.835151 
L 394.364597 227.129792 
L 393.23709 228.416101 
L 392.092376 229.693947 
L 390.930572 230.963204 
L 389.751792 232.223741 
L 388.556158 233.475431 
L 387.343788 234.718151 
L 386.114799 235.951771 
L 384.869327 237.17618 
L 383.607488 238.391248 
L 382.329404 239.596851 
L 381.035199 240.792864 
L 379.725019 241.979183 
L 378.398983 243.155678 
L 377.057222 244.32223 
L 375.699866 245.478721 
L 374.327062 246.625044 
L 372.938942 247.761078 
L 371.535643 248.88671 
L 370.117305 250.001826 
L 368.684074 251.106318 
L 367.23609 252.200074 
L 365.773502 253.282986 
L 364.296454 254.354944 
L 362.805092 255.415842 
L 361.299568 256.465574 
L 359.780033 257.504036 
L 358.246639 258.531123 
L 356.699535 259.546732 
L 355.138878 260.550763 
L 353.564825 261.543115 
L 351.977534 262.523688 
L 350.377165 263.492385 
L 348.763878 264.449108 
L 347.137828 265.393764 
L 345.499181 266.326257 
L 343.848103 267.246493 
L 342.184759 268.15438 
L 340.509316 269.049827 
L 338.821943 269.932743 
L 337.122803 270.803044 
L 335.412066 271.660641 
L 333.689907 272.505447 
L 331.956497 273.337378 
L 330.212011 274.15635 
L 328.456624 274.962281 
L 326.690509 275.755092 
L 324.913839 276.534704 
L 323.126797 277.301039 
" style="fill:none;stroke:#ff7f0e;stroke-linecap:square;stroke-width:0.5;"/>
   </g>
   <g id="line2d_25">
    <path clip-path="url(#p590d851f66)" d="M 399.740313 252.392861 
L 398.273338 253.717856 
L 396.788838 255.031946 
L 395.286793 256.334905 
L 393.767333 257.626612 
L 392.230605 258.90694 
L 390.676767 260.175759 
L 389.105978 261.43294 
L 387.518396 262.678356 
L 385.914186 263.911886 
L 384.293501 265.133399 
L 382.656505 266.342773 
L 381.003368 267.539897 
L 379.334247 268.724639 
L 377.649306 269.896879 
L 375.948728 271.056514 
L 374.23267 272.203417 
L 372.501299 273.337468 
L 370.754807 274.458569 
L 368.993355 275.566599 
L 367.217114 276.661442 
L 365.426285 277.743009 
" style="fill:none;stroke:#ff7f0e;stroke-linecap:square;stroke-width:0.5;"/>
   </g>
   <g id="line2d_26">
    <path clip-path="url(#p590d851f66)" d="M 379.370669 276.812 
L 377.577036 277.983966 
" style="fill:none;stroke:#ff7f0e;stroke-linecap:square;stroke-width:0.5;"/>
   </g>
   <g id="line2d_27">
    <path clip-path="url(#p590d851f66)" d="M 334.094815 276.812 
L 332.303491 277.646594 
" style="fill:none;stroke:#ff7f0e;stroke-linecap:square;stroke-width:0.5;"/>
   </g>
   <g id="line2d_28">
    <path clip-path="url(#p590d851f66)" d="M 297.257619 276.812 
L 295.468173 277.372103 
" style="fill:none;stroke:#ff7f0e;stroke-linecap:square;stroke-width:0.5;"/>
   </g>
   <g id="line2d_29">
    <path clip-path="url(#p590d851f66)" d="M 265.1914 276.812 
L 263.403589 277.133162 
" style="fill:none;stroke:#ff7f0e;stroke-linecap:square;stroke-width:0.5;"/>
   </g>
   <g id="line2d_30">
    <path clip-path="url(#p590d851f66)" d="M 235.595166 276.812 
L 233.808868 276.912643 
" style="fill:none;stroke:#ff7f0e;stroke-linecap:square;stroke-width:0.5;"/>
   </g>
   <g id="line2d_31">
    <path clip-path="url(#p590d851f66)" d="M 206.765459 276.812 
L 199.636554 276.27592 
L 192.542058 275.527951 
L 185.493314 274.569237 
L 178.501645 273.401261 
L 171.578314 272.025811 
L 164.734355 270.445131 
L 157.98069 268.661784 
L 151.328121 266.678621 
L 144.78727 264.498812 
L 138.368634 262.125834 
L 132.08242 259.563479 
L 125.938776 256.815854 
L 119.947463 253.887343 
L 114.118148 250.78265 
L 108.460122 247.506734 
L 102.982452 244.064844 
L 97.693898 240.462484 
L 92.602898 236.705418 
L 87.7176 232.799654 
L 83.045807 228.751436 
L 78.594994 224.567241 
L 74.372283 220.253766 
L 70.384431 215.817911 
L 66.63782 211.266773 
L 63.138447 206.607635 
L 59.89191 201.847948 
L 56.903402 196.995326 
L 54.177705 192.057533 
L 51.719176 187.042467 
L 49.531749 181.958151 
L 47.618922 176.812719 
L 45.983756 171.614404 
L 44.628866 166.371521 
L 43.556421 161.09246 
L 42.768136 155.785664 
L 42.615623 154.455626 
L 42.615623 154.455626 
" style="fill:none;stroke:#ff7f0e;stroke-linecap:square;stroke-width:0.5;"/>
   </g>
   <g id="line2d_32">
    <path clip-path="url(#p590d851f66)" d="M 177.169225 276.812 
L 175.385903 276.477269 
L 173.607132 276.129395 
L 171.833129 275.76829 
L 170.064055 275.393985 
L 168.30008 275.006513 
L 166.541386 274.605916 
L 164.788152 274.192232 
L 163.040555 273.765507 
L 161.298771 273.32578 
L 159.562969 272.873102 
L 157.83333 272.407512 
L 156.110028 271.929055 
L 154.393218 271.437794 
L 152.683084 270.933768 
L 150.979802 270.417022 
L 149.28355 269.8876 
L 147.594474 269.345578 
L 145.912755 268.790999 
L 144.238566 268.223911 
L 142.572081 267.644368 
L 140.913456 267.052436 
L 139.262856 266.448176 
L 137.62045 265.831643 
L 135.986405 265.202899 
L 134.360882 264.562008 
L 132.74404 263.909035 
L 131.136044 263.244046 
L 129.537054 262.567107 
L 127.947228 261.878288 
L 126.366726 261.177654 
L 124.795706 260.465278 
L 123.234323 259.741232 
L 121.682735 259.005588 
L 120.141096 258.258419 
L 118.60956 257.499799 
L 117.088282 256.729806 
L 115.577412 255.948516 
L 114.077102 255.156007 
L 112.587502 254.352358 
L 111.108761 253.53765 
L 109.641027 252.711964 
L 108.184447 251.875382 
L 106.739163 251.027989 
L 105.305322 250.169868 
L 103.883067 249.301106 
L 102.472543 248.421789 
L 101.07389 247.532006 
L 99.68725 246.631846 
L 98.312757 245.721397 
L 96.950545 244.800751 
L 95.600755 243.869999 
L 94.263524 242.929236 
L 92.938985 241.978556 
L 91.627273 241.018054 
L 90.328519 240.047826 
L 89.042848 239.067969 
L 87.770386 238.078577 
L 86.511264 237.079753 
L 85.265611 236.071597 
L 84.03355 235.05421 
L 82.815205 234.027693 
L 81.610701 232.992151 
L 80.420152 231.947685 
L 79.243675 230.894396 
L 78.081392 229.832393 
L 76.93342 228.761783 
L 75.799873 227.682673 
L 74.680866 226.595172 
L 73.576512 225.499388 
L 72.486917 224.395429 
L 71.412188 223.283404 
L 70.352435 222.163425 
L 69.307767 221.035606 
L 68.278286 219.90006 
L 67.264096 218.7569 
L 66.265301 217.606243 
L 65.281995 216.448199 
L 64.314277 215.282883 
L 63.362245 214.110415 
L 62.425995 212.930911 
L 61.505622 211.74449 
L 60.601217 210.551272 
L 59.712871 209.351377 
L 58.840672 208.14492 
L 57.984703 206.932022 
L 57.145054 205.712806 
L 56.321809 204.487394 
L 55.51505 203.255911 
L 54.724859 202.018478 
L 53.951315 200.775221 
L 53.194493 199.526261 
L 52.454467 198.271721 
L 51.731313 197.011729 
L 51.025105 195.746412 
L 50.335913 194.475897 
L 49.663806 193.200311 
L 49.008853 191.919782 
L 48.371114 190.634434 
L 47.750653 189.344393 
L 47.147535 188.049792 
L 46.561819 186.75076 
L 45.993564 185.447428 
L 45.442828 184.139926 
L 44.909666 182.828387 
L 44.394132 181.512941 
L 43.896278 180.193721 
L 43.416155 178.870861 
L 42.95381 177.544494 
L 42.509285 176.214742 
" style="fill:none;stroke:#ff7f0e;stroke-linecap:square;stroke-width:0.5;"/>
   </g>
   <g id="line2d_33">
    <path clip-path="url(#p590d851f66)" d="M 145.103006 276.812 
L 143.321319 276.238328 
L 141.547361 275.651539 
L 139.781376 275.051569 
L 138.023523 274.43847 
L 136.273974 273.812299 
L 134.532908 273.173119 
L 132.800503 272.520997 
L 131.076931 271.855999 
L 129.362369 271.178191 
L 127.656988 270.487643 
L 125.960959 269.784422 
L 124.274453 269.068599 
L 122.59763 268.34025 
L 120.930666 267.599443 
L 119.27373 266.846249 
L 117.626984 266.080747 
L 115.990588 265.303017 
L 114.364713 264.51313 
L 112.749524 263.711163 
L 111.145178 262.8972 
L 109.551834 262.071324 
L 107.969655 261.233615 
L 106.3988 260.384155 
L 104.839423 259.523032 
L 103.29168 258.650331 
L 101.755728 257.766141 
L 100.231718 256.870549 
L 98.719803 255.963645 
L 97.220135 255.045521 
L 95.732862 254.116267 
L 94.258134 253.175978 
L 92.796097 252.224745 
L 91.346899 251.262664 
L 89.910683 250.289833 
L 88.487593 249.306348 
L 87.077773 248.312309 
L 85.681364 247.307816 
L 84.298501 246.292965 
L 82.929326 245.26786 
L 81.573975 244.232603 
L 80.232585 243.187299 
L 78.90529 242.132053 
L 77.592223 241.066971 
L 76.293515 239.992158 
L 75.009292 238.907718 
L 73.739686 237.813763 
L 72.484824 236.710403 
L 71.244834 235.597749 
L 70.019838 234.475911 
L 68.809961 233.345003 
L 67.615316 232.205133 
L 66.436027 231.056418 
L 65.272213 229.898973 
L 64.123991 228.732914 
L 62.991475 227.558359 
L 61.874781 226.375424 
L 60.774015 225.184227 
L 59.689288 223.984885 
L 58.620711 222.77752 
L 57.568389 221.562254 
L 56.53243 220.339208 
L 55.512937 219.108504 
L 54.510011 217.870266 
L 53.52375 216.624614 
L 52.554254 215.371675 
L 51.601621 214.111574 
L 50.665946 212.844438 
L 49.747323 211.570395 
L 48.845846 210.289572 
L 47.961597 209.00209 
L 47.094669 207.708082 
L 46.245149 206.407678 
L 45.413122 205.101008 
L 44.598671 203.788203 
L 43.801878 202.469395 
L 43.022824 201.144716 
L 42.261587 199.8143 
" style="fill:none;stroke:#ff7f0e;stroke-linecap:square;stroke-width:0.5;"/>
   </g>
   <g id="line2d_34">
    <path clip-path="url(#p590d851f66)" d="M 108.26581 276.812 
L 106.486002 275.963836 
L 104.717572 275.102586 
L 102.960794 274.228212 
L 101.215832 273.340788 
L 99.482854 272.440401 
L 97.762038 271.527142 
L 96.053559 270.601104 
L 94.357587 269.662383 
L 92.674296 268.711071 
L 91.003857 267.747264 
L 89.346431 266.771061 
L 87.702194 265.782554 
L 86.071294 264.781851 
L 84.453902 263.769048 
L 82.850185 262.744242 
L 81.260309 261.707532 
L 79.684413 260.659035 
L 78.122667 259.598847 
L 76.575231 258.527072 
L 75.042263 257.443815 
L 73.523903 256.349192 
L 72.02031 255.243308 
L 70.531637 254.126273 
L 69.058031 252.998199 
L 67.599638 251.859201 
L 66.156604 250.709391 
L 64.729073 249.548886 
L 63.317187 248.377802 
L 61.921089 247.196254 
L 60.540916 246.004362 
L 59.176807 244.802245 
L 57.828898 243.590025 
L 56.497324 242.367819 
L 55.182217 241.135751 
L 53.88371 239.893945 
L 52.601933 238.642526 
L 51.337012 237.381619 
L 50.089076 236.11135 
L 48.858247 234.831844 
L 47.64465 233.543228 
L 46.448405 232.245634 
L 45.269633 230.939192 
L 44.108453 229.624032 
L 42.964981 228.300288 
L 41.839329 226.968088 
" style="fill:none;stroke:#ff7f0e;stroke-linecap:square;stroke-width:0.5;"/>
   </g>
   <g id="line2d_35">
    <path clip-path="url(#p590d851f66)" d="M 62.989956 276.812 
L 61.212457 275.626464 
L 59.45082 274.42788 
L 57.705361 273.21624 
L 55.976241 271.991651 
L 54.26363 270.754231 
L 52.567702 269.504106 
L 50.888631 268.241406 
L 49.226584 266.966257 
L 47.581725 265.67879 
L 45.954226 264.379131 
L 44.344253 263.06741 
L 42.751951 261.743762 
L 41.177496 260.408315 
" style="fill:none;stroke:#ff7f0e;stroke-linecap:square;stroke-width:0.5;"/>
   </g>
   <g id="line2d_36">
    <path clip-path="url(#p590d851f66)" d="M 42.620313 252.392861 
L 41.171548 251.056787 
" style="fill:none;stroke:#ff7f0e;stroke-linecap:square;stroke-width:0.5;"/>
   </g>
   <g id="line2d_37">
    <path clip-path="url(#p590d851f66)" d="M 42.620313 220.575917 
L 41.598521 219.241465 
" style="fill:none;stroke:#ff7f0e;stroke-linecap:square;stroke-width:0.5;"/>
   </g>
   <g id="line2d_38">
    <path clip-path="url(#p590d851f66)" d="M 42.620313 194.217485 
L 41.952242 192.884377 
" style="fill:none;stroke:#ff7f0e;stroke-linecap:square;stroke-width:0.5;"/>
   </g>
   <g id="line2d_39">
    <path clip-path="url(#p590d851f66)" d="M 42.620313 170.919577 
L 42.26489 169.587658 
" style="fill:none;stroke:#ff7f0e;stroke-linecap:square;stroke-width:0.5;"/>
   </g>
   <g id="line2d_40">
    <path clip-path="url(#p590d851f66)" d="M 42.620313 149.117973 
L 42.557425 147.787167 
" style="fill:none;stroke:#ff7f0e;stroke-linecap:square;stroke-width:0.5;"/>
   </g>
   <g id="line2d_41">
    <path clip-path="url(#p590d851f66)" d="M 42.620313 127.600077 
L 43.630312 122.292233 
L 44.924186 117.018677 
L 46.500005 111.787877 
L 48.355271 106.608225 
L 50.487012 101.488001 
L 52.891806 96.435391 
L 55.565805 91.458472 
L 58.504753 86.565212 
L 61.703975 81.763445 
L 65.158378 77.060864 
L 68.862404 72.464987 
L 72.81011 67.983161 
L 76.995174 63.622555 
L 81.4109 59.390143 
L 86.050225 55.2927 
L 90.90573 51.336781 
L 95.969648 47.528712 
L 101.2339 43.874571 
L 106.690046 40.380217 
L 112.329383 37.051224 
L 118.142886 33.892919 
L 124.121204 30.910394 
L 130.254838 28.108375 
L 136.533895 25.4914 
L 142.948368 23.063633 
L 149.487978 20.828965 
L 156.142256 18.790971 
L 162.900571 16.952908 
L 169.752117 15.317698 
L 176.68593 13.887973 
L 183.690926 12.666003 
L 190.755904 11.653742 
L 197.86956 10.852814 
L 199.654247 10.685761 
L 199.654247 10.685761 
" style="fill:none;stroke:#ff7f0e;stroke-linecap:square;stroke-width:0.5;"/>
   </g>
   <g id="line2d_42">
    <path clip-path="url(#p590d851f66)" d="M 42.620313 105.21586 
L 43.146612 103.88729 
L 43.690541 102.562681 
L 44.252209 101.242199 
L 44.831569 99.925964 
L 45.428568 98.614103 
L 46.043144 97.306751 
L 46.675234 96.004041 
L 47.324774 94.706103 
L 47.991699 93.413071 
L 48.675936 92.125067 
L 49.377422 90.842226 
L 50.096093 89.56468 
L 50.831856 88.292543 
L 51.584647 87.025948 
L 52.354399 85.765027 
L 53.141043 84.509911 
L 53.944488 83.260717 
L 54.764646 82.017565 
L 55.601449 80.78059 
L 56.454819 79.549918 
L 57.324671 78.325671 
L 58.210901 77.107963 
L 59.113433 75.896922 
L 60.032175 74.692669 
L 60.967038 73.495326 
L 61.917923 72.305009 
L 62.884736 71.121838 
L 63.867379 69.945932 
L 64.865753 68.777407 
L 65.87976 67.61638 
L 66.909299 66.462968 
L 67.954264 65.317284 
L 69.014551 64.179444 
L 70.090053 63.049562 
L 71.180666 61.927749 
L 72.286278 60.814119 
L 73.406778 59.708784 
L 74.542055 58.611853 
L 75.691996 57.523435 
L 76.856485 56.443641 
L 78.035406 55.372577 
L 79.228641 54.310353 
L 80.436072 53.257071 
L 81.657578 52.212838 
L 82.893036 51.177758 
L 84.142322 50.151935 
L 85.405312 49.135473 
L 86.681879 48.128475 
L 87.971895 47.131041 
L 89.275235 46.143264 
L 90.591767 45.165247 
L 91.921358 44.197088 
L 93.263875 43.238886 
L 94.619183 42.290737 
L 95.987147 41.352736 
L 97.367628 40.424978 
L 98.760495 39.507548 
L 100.165606 38.600541 
L 101.582818 37.704051 
L 103.01199 36.818166 
L 104.452977 35.942976 
L 105.905636 35.078569 
L 107.36982 34.225032 
L 108.845389 33.382445 
L 110.332194 32.550894 
L 111.830084 31.730464 
L 113.338908 30.921237 
L 114.858516 30.123295 
L 116.388753 29.336717 
L 117.929467 28.561583 
L 119.48051 27.797965 
L 121.041726 27.045943 
L 122.612955 26.305591 
L 124.19404 25.576985 
L 125.784823 24.860198 
L 127.385143 24.155301 
L 128.99484 23.462366 
L 130.61376 22.781458 
L 132.241739 22.112647 
L 133.878612 21.455999 
L 135.524214 20.811582 
L 137.17838 20.17946 
L 138.840945 19.559697 
L 140.511741 18.952354 
L 142.190608 18.35749 
L 143.877377 17.775165 
L 145.571875 17.205438 
L 147.273934 16.648366 
L 148.983383 16.104005 
L 150.700049 15.57241 
L 152.42376 15.053635 
L 154.154352 14.547729 
L 155.891648 14.054742 
L 157.635474 13.574725 
L 159.385653 13.107727 
L 161.14201 12.653794 
L 162.90437 12.212972 
L 164.672553 11.785305 
L 166.446393 11.370834 
L 168.225708 10.969601 
L 170.010319 10.581646 
" style="fill:none;stroke:#ff7f0e;stroke-linecap:square;stroke-width:0.5;"/>
   </g>
   <g id="line2d_43">
    <path clip-path="url(#p590d851f66)" d="M 42.620313 80.620143 
L 43.476679 79.292828 
L 44.350638 77.97191 
L 45.242268 76.657577 
L 46.151492 75.349949 
L 47.078225 74.049153 
L 48.022371 72.755321 
L 48.983835 71.468587 
L 49.962518 70.189077 
L 50.958322 68.916924 
L 51.971146 67.652254 
L 53.00089 66.395194 
L 54.047452 65.145871 
L 55.110719 63.904404 
L 56.190592 62.670921 
L 57.286966 61.445548 
L 58.399733 60.228409 
L 59.528769 59.019616 
L 60.673972 57.819298 
L 61.835231 56.627577 
L 63.012427 55.444571 
L 64.205438 54.270394 
L 65.414149 53.105166 
L 66.638439 51.949006 
L 67.878186 50.802028 
L 69.133263 49.664345 
L 70.403546 48.536071 
L 71.688907 47.417321 
L 72.989218 46.308204 
L 74.304348 45.208832 
L 75.634166 44.119315 
L 76.978538 43.039762 
L 78.337332 41.970279 
L 79.710411 40.910975 
L 81.097639 39.861955 
L 82.498874 38.823325 
L 83.913977 37.795187 
L 85.342804 36.777645 
L 86.785216 35.7708 
L 88.241071 34.774753 
L 89.71022 33.789602 
L 91.192516 32.815449 
L 92.687809 31.852389 
L 94.19595 30.90052 
L 95.716786 29.959938 
L 97.250175 29.030732 
L 98.795956 28.112999 
L 100.353976 27.20683 
L 101.924077 26.312316 
L 103.506103 25.429548 
L 105.099893 24.558614 
L 106.705294 23.699598 
L 108.322144 22.852587 
L 109.95028 22.017666 
L 111.589538 21.194919 
L 113.239754 20.384429 
L 114.900762 19.586278 
L 116.572398 18.800543 
L 118.254499 18.027303 
L 119.946892 17.266635 
L 121.649407 16.518616 
L 123.361875 15.783321 
L 125.084124 15.060825 
L 126.815979 14.351199 
L 128.557277 13.654511 
L 130.307836 12.970834 
L 132.067483 12.300235 
L 133.83604 11.642781 
L 135.61333 10.99854 
L 137.399175 10.367575 
" style="fill:none;stroke:#ff7f0e;stroke-linecap:square;stroke-width:0.5;"/>
   </g>
   <g id="line2d_44">
    <path clip-path="url(#p590d851f66)" d="M 42.620313 51.914074 
L 43.861905 50.588223 
L 45.121047 49.271613 
L 46.397781 47.964456 
L 47.691996 46.666872 
L 49.003568 45.378989 
L 50.332362 44.100938 
L 51.678242 42.832849 
L 53.041071 41.574849 
L 54.42071 40.327062 
L 55.817026 39.089619 
L 57.229877 37.862644 
L 58.659117 36.646251 
L 60.104612 35.440572 
L 61.566217 34.245728 
L 63.043776 33.061829 
L 64.537151 31.889002 
L 66.046196 30.727365 
L 67.570746 29.577024 
L 69.11066 28.438104 
L 70.665786 27.310719 
L 72.235944 26.194964 
L 73.820991 25.090959 
L 75.420772 23.99882 
L 77.035132 22.918658 
L 78.663916 21.850586 
L 80.306954 20.794706 
L 81.964054 19.7511 
L 83.635076 18.719895 
L 85.319857 17.701195 
L 87.018234 16.695108 
L 88.73004 15.701738 
L 90.455091 14.72117 
L 92.193205 13.753496 
L 93.944222 12.798825 
L 95.707969 11.857254 
L 97.484269 10.928879 
L 99.272946 10.013794 
" style="fill:none;stroke:#ff7f0e;stroke-linecap:square;stroke-width:0.5;"/>
   </g>
   <g id="line2d_45">
    <path clip-path="url(#p590d851f66)" d="M 42.620313 15.953977 
L 44.344477 14.62996 
L 46.086138 13.318746 
L 47.845293 12.020578 
L 49.621785 10.735577 
L 51.415445 9.46387 
" style="fill:none;stroke:#ff7f0e;stroke-linecap:square;stroke-width:0.5;"/>
   </g>
   <g id="line2d_46">
    <path clip-path="url(#p590d851f66)" d="M 87.001177 10.7 
L 88.793585 9.706953 
" style="fill:none;stroke:#ff7f0e;stroke-linecap:square;stroke-width:0.5;"/>
   </g>
   <g id="line2d_47">
    <path clip-path="url(#p590d851f66)" d="M 127.464795 10.7 
L 129.25514 10.008467 
" style="fill:none;stroke:#ff7f0e;stroke-linecap:square;stroke-width:0.5;"/>
   </g>
   <g id="line2d_48">
    <path clip-path="url(#p590d851f66)" d="M 161.568225 10.7 
L 163.356831 10.262588 
" style="fill:none;stroke:#ff7f0e;stroke-linecap:square;stroke-width:0.5;"/>
   </g>
   <g id="line2d_49">
    <path clip-path="url(#p590d851f66)" d="M 192.161488 10.7 
L 193.948532 10.490548 
" style="fill:none;stroke:#ff7f0e;stroke-linecap:square;stroke-width:0.5;"/>
   </g>
   <g id="line2d_50">
    <path clip-path="url(#p590d851f66)" d="M 221.180312 10.7 
L 228.3208 10.806516 
L 235.449867 11.125619 
L 242.556108 11.656883 
L 249.628159 12.399476 
L 256.654724 13.352129 
L 263.624552 14.513385 
L 270.526502 15.881358 
L 277.349515 17.453957 
L 284.082661 19.228679 
L 290.71518 21.20266 
L 297.236447 23.372737 
L 303.636035 25.735407 
L 309.903716 28.286891 
L 316.029452 31.02309 
L 322.003449 33.939634 
L 327.816157 37.03186 
L 333.458263 40.294821 
L 338.920752 43.723299 
L 344.194926 47.311838 
L 349.272368 51.054711 
L 354.1449 54.945901 
L 358.804657 58.979141 
L 363.244249 63.148017 
L 367.4565 67.445812 
L 371.434698 71.865667 
L 375.17251 76.400521 
L 378.663936 81.043112 
L 381.903444 85.786038 
L 384.885837 90.621708 
L 387.606353 95.542388 
L 390.060638 100.540208 
L 392.244756 105.607167 
L 394.155204 110.735154 
L 395.788925 115.915967 
L 397.143299 121.141314 
L 398.216163 126.402837 
L 399.005808 131.69212 
L 399.510964 137.000703 
L 399.730835 142.320096 
L 399.741174 143.650636 
L 399.741174 143.650636 
" style="fill:none;stroke:#ff7f0e;stroke-linecap:square;stroke-width:0.5;"/>
   </g>
   <g id="line2d_51">
    <path clip-path="url(#p590d851f66)" d="M 221.180313 143.756 
" style="fill:none;stroke:#ff7f0e;stroke-linecap:square;stroke-width:1.5;"/>
   </g>
   <g id="patch_64">
    <path d="M 42.620313 276.812 
L 42.620313 10.7 
" style="fill:none;stroke:#000000;stroke-linecap:square;stroke-linejoin:miter;stroke-width:0.8;"/>
   </g>
   <g id="patch_65">
    <path d="M 399.740313 276.812 
L 399.740313 10.7 
" style="fill:none;stroke:#000000;stroke-linecap:square;stroke-linejoin:miter;stroke-width:0.8;"/>
   </g>
   <g id="patch_66">
    <path d="M 42.620313 276.812 
L 399.740313 276.812 
" style="fill:none;stroke:#000000;stroke-linecap:square;stroke-linejoin:miter;stroke-width:0.8;"/>
   </g>
   <g id="patch_67">
    <path d="M 42.620313 10.7 
L 399.740313 10.7 
" style="fill:none;stroke:#000000;stroke-linecap:square;stroke-linejoin:miter;stroke-width:0.8;"/>
   </g>
   <g id="legend_1">
    <g id="patch_68">
     <path d="M 306.312813 273.812 
L 395.540313 273.812 
Q 396.740313 273.812 396.740313 272.612 
L 396.740313 264.405125 
Q 396.740313 263.205125 395.540313 263.205125 
L 306.312813 263.205125 
Q 305.112813 263.205125 305.112813 264.405125 
L 305.112813 272.612 
Q 305.112813 273.812 306.312813 273.812 
z
" style="fill:#ffffff;opacity:0.8;stroke:#cccccc;stroke-linejoin:miter;"/>
    </g>
    <g id="line2d_52">
     <path d="M 307.512812 268.064187 
L 319.512812 268.064187 
" style="fill:none;stroke:#ff7f0e;stroke-linecap:square;stroke-width:1.5;"/>
    </g>
    <g id="line2d_53"/>
    <g id="text_13">
     <!-- system zlinearyzowany -->
     <defs>
      <path d="M 44.28125 53.078125 
L 44.28125 44.578125 
Q 40.484375 46.53125 36.375 47.5 
Q 32.28125 48.484375 27.875 48.484375 
Q 21.1875 48.484375 17.84375 46.4375 
Q 14.5 44.390625 14.5 40.28125 
Q 14.5 37.15625 16.890625 35.375 
Q 19.28125 33.59375 26.515625 31.984375 
L 29.59375 31.296875 
Q 39.15625 29.25 43.1875 25.515625 
Q 47.21875 21.78125 47.21875 15.09375 
Q 47.21875 7.46875 41.1875 3.015625 
Q 35.15625 -1.421875 24.609375 -1.421875 
Q 20.21875 -1.421875 15.453125 -0.5625 
Q 10.6875 0.296875 5.421875 2 
L 5.421875 11.28125 
Q 10.40625 8.6875 15.234375 7.390625 
Q 20.0625 6.109375 24.8125 6.109375 
Q 31.15625 6.109375 34.5625 8.28125 
Q 37.984375 10.453125 37.984375 14.40625 
Q 37.984375 18.0625 35.515625 20.015625 
Q 33.0625 21.96875 24.703125 23.78125 
L 21.578125 24.515625 
Q 13.234375 26.265625 9.515625 29.90625 
Q 5.8125 33.546875 5.8125 39.890625 
Q 5.8125 47.609375 11.28125 51.796875 
Q 16.75 56 26.8125 56 
Q 31.78125 56 36.171875 55.265625 
Q 40.578125 54.546875 44.28125 53.078125 
" id="DejaVuSans-73"/>
      <path d="M 32.171875 -5.078125 
Q 28.375 -14.84375 24.75 -17.8125 
Q 21.140625 -20.796875 15.09375 -20.796875 
L 7.90625 -20.796875 
L 7.90625 -13.28125 
L 13.1875 -13.28125 
Q 16.890625 -13.28125 18.9375 -11.515625 
Q 21 -9.765625 23.484375 -3.21875 
L 25.09375 0.875 
L 2.984375 54.6875 
L 12.5 54.6875 
L 29.59375 11.921875 
L 46.6875 54.6875 
L 56.203125 54.6875 
z
" id="DejaVuSans-79"/>
      <path d="M 18.3125 70.21875 
L 18.3125 54.6875 
L 36.8125 54.6875 
L 36.8125 47.703125 
L 18.3125 47.703125 
L 18.3125 18.015625 
Q 18.3125 11.328125 20.140625 9.421875 
Q 21.96875 7.515625 27.59375 7.515625 
L 36.8125 7.515625 
L 36.8125 0 
L 27.59375 0 
Q 17.1875 0 13.234375 3.875 
Q 9.28125 7.765625 9.28125 18.015625 
L 9.28125 47.703125 
L 2.6875 47.703125 
L 2.6875 54.6875 
L 9.28125 54.6875 
L 9.28125 70.21875 
z
" id="DejaVuSans-74"/>
      <path d="M 56.203125 29.59375 
L 56.203125 25.203125 
L 14.890625 25.203125 
Q 15.484375 15.921875 20.484375 11.0625 
Q 25.484375 6.203125 34.421875 6.203125 
Q 39.59375 6.203125 44.453125 7.46875 
Q 49.3125 8.734375 54.109375 11.28125 
L 54.109375 2.78125 
Q 49.265625 0.734375 44.1875 -0.34375 
Q 39.109375 -1.421875 33.890625 -1.421875 
Q 20.796875 -1.421875 13.15625 6.1875 
Q 5.515625 13.8125 5.515625 26.8125 
Q 5.515625 40.234375 12.765625 48.109375 
Q 20.015625 56 32.328125 56 
Q 43.359375 56 49.78125 48.890625 
Q 56.203125 41.796875 56.203125 29.59375 
M 47.21875 32.234375 
Q 47.125 39.59375 43.09375 43.984375 
Q 39.0625 48.390625 32.421875 48.390625 
Q 24.90625 48.390625 20.390625 44.140625 
Q 15.875 39.890625 15.1875 32.171875 
z
" id="DejaVuSans-65"/>
      <path d="M 52 44.1875 
Q 55.375 50.25 60.0625 53.125 
Q 64.75 56 71.09375 56 
Q 79.640625 56 84.28125 50.015625 
Q 88.921875 44.046875 88.921875 33.015625 
L 88.921875 0 
L 79.890625 0 
L 79.890625 32.71875 
Q 79.890625 40.578125 77.09375 44.375 
Q 74.3125 48.1875 68.609375 48.1875 
Q 61.625 48.1875 57.5625 43.546875 
Q 53.515625 38.921875 53.515625 30.90625 
L 53.515625 0 
L 44.484375 0 
L 44.484375 32.71875 
Q 44.484375 40.625 41.703125 44.40625 
Q 38.921875 48.1875 33.109375 48.1875 
Q 26.21875 48.1875 22.15625 43.53125 
Q 18.109375 38.875 18.109375 30.90625 
L 18.109375 0 
L 9.078125 0 
L 9.078125 54.6875 
L 18.109375 54.6875 
L 18.109375 46.1875 
Q 21.1875 51.21875 25.484375 53.609375 
Q 29.78125 56 35.6875 56 
Q 41.65625 56 45.828125 52.96875 
Q 50 49.953125 52 44.1875 
" id="DejaVuSans-6d"/>
      <path id="DejaVuSans-20"/>
      <path d="M 5.515625 54.6875 
L 48.1875 54.6875 
L 48.1875 46.484375 
L 14.40625 7.171875 
L 48.1875 7.171875 
L 48.1875 0 
L 4.296875 0 
L 4.296875 8.203125 
L 38.09375 47.515625 
L 5.515625 47.515625 
z
" id="DejaVuSans-7a"/>
      <path d="M 9.421875 75.984375 
L 18.40625 75.984375 
L 18.40625 0 
L 9.421875 0 
z
" id="DejaVuSans-6c"/>
      <path d="M 9.421875 54.6875 
L 18.40625 54.6875 
L 18.40625 0 
L 9.421875 0 
z
M 9.421875 75.984375 
L 18.40625 75.984375 
L 18.40625 64.59375 
L 9.421875 64.59375 
z
" id="DejaVuSans-69"/>
      <path d="M 54.890625 33.015625 
L 54.890625 0 
L 45.90625 0 
L 45.90625 32.71875 
Q 45.90625 40.484375 42.875 44.328125 
Q 39.84375 48.1875 33.796875 48.1875 
Q 26.515625 48.1875 22.3125 43.546875 
Q 18.109375 38.921875 18.109375 30.90625 
L 18.109375 0 
L 9.078125 0 
L 9.078125 54.6875 
L 18.109375 54.6875 
L 18.109375 46.1875 
Q 21.34375 51.125 25.703125 53.5625 
Q 30.078125 56 35.796875 56 
Q 45.21875 56 50.046875 50.171875 
Q 54.890625 44.34375 54.890625 33.015625 
" id="DejaVuSans-6e"/>
      <path d="M 34.28125 27.484375 
Q 23.390625 27.484375 19.1875 25 
Q 14.984375 22.515625 14.984375 16.5 
Q 14.984375 11.71875 18.140625 8.90625 
Q 21.296875 6.109375 26.703125 6.109375 
Q 34.1875 6.109375 38.703125 11.40625 
Q 43.21875 16.703125 43.21875 25.484375 
L 43.21875 27.484375 
z
M 52.203125 31.203125 
L 52.203125 0 
L 43.21875 0 
L 43.21875 8.296875 
Q 40.140625 3.328125 35.546875 0.953125 
Q 30.953125 -1.421875 24.3125 -1.421875 
Q 15.921875 -1.421875 10.953125 3.296875 
Q 6 8.015625 6 15.921875 
Q 6 25.140625 12.171875 29.828125 
Q 18.359375 34.515625 30.609375 34.515625 
L 43.21875 34.515625 
L 43.21875 35.40625 
Q 43.21875 41.609375 39.140625 45 
Q 35.0625 48.390625 27.6875 48.390625 
Q 23 48.390625 18.546875 47.265625 
Q 14.109375 46.140625 10.015625 43.890625 
L 10.015625 52.203125 
Q 14.9375 54.109375 19.578125 55.046875 
Q 24.21875 56 28.609375 56 
Q 40.484375 56 46.34375 49.84375 
Q 52.203125 43.703125 52.203125 31.203125 
" id="DejaVuSans-61"/>
      <path d="M 41.109375 46.296875 
Q 39.59375 47.171875 37.8125 47.578125 
Q 36.03125 48 33.890625 48 
Q 26.265625 48 22.1875 43.046875 
Q 18.109375 38.09375 18.109375 28.8125 
L 18.109375 0 
L 9.078125 0 
L 9.078125 54.6875 
L 18.109375 54.6875 
L 18.109375 46.1875 
Q 20.953125 51.171875 25.484375 53.578125 
Q 30.03125 56 36.53125 56 
Q 37.453125 56 38.578125 55.875 
Q 39.703125 55.765625 41.0625 55.515625 
z
" id="DejaVuSans-72"/>
      <path d="M 30.609375 48.390625 
Q 23.390625 48.390625 19.1875 42.75 
Q 14.984375 37.109375 14.984375 27.296875 
Q 14.984375 17.484375 19.15625 11.84375 
Q 23.34375 6.203125 30.609375 6.203125 
Q 37.796875 6.203125 41.984375 11.859375 
Q 46.1875 17.53125 46.1875 27.296875 
Q 46.1875 37.015625 41.984375 42.703125 
Q 37.796875 48.390625 30.609375 48.390625 
M 30.609375 56 
Q 42.328125 56 49.015625 48.375 
Q 55.71875 40.765625 55.71875 27.296875 
Q 55.71875 13.875 49.015625 6.21875 
Q 42.328125 -1.421875 30.609375 -1.421875 
Q 18.84375 -1.421875 12.171875 6.21875 
Q 5.515625 13.875 5.515625 27.296875 
Q 5.515625 40.765625 12.171875 48.375 
Q 18.84375 56 30.609375 56 
" id="DejaVuSans-6f"/>
      <path d="M 4.203125 54.6875 
L 13.1875 54.6875 
L 24.421875 12.015625 
L 35.59375 54.6875 
L 46.1875 54.6875 
L 57.421875 12.015625 
L 68.609375 54.6875 
L 77.59375 54.6875 
L 63.28125 0 
L 52.6875 0 
L 40.921875 44.828125 
L 29.109375 0 
L 18.5 0 
z
" id="DejaVuSans-77"/>
     </defs>
     <g transform="translate(324.312813 270.164187)scale(0.06 -0.06)">
      <use xlink:href="#DejaVuSans-73"/>
      <use x="52.099609" xlink:href="#DejaVuSans-79"/>
      <use x="111.279297" xlink:href="#DejaVuSans-73"/>
      <use x="163.378906" xlink:href="#DejaVuSans-74"/>
      <use x="202.587891" xlink:href="#DejaVuSans-65"/>
      <use x="264.111328" xlink:href="#DejaVuSans-6d"/>
      <use x="361.523438" xlink:href="#DejaVuSans-20"/>
      <use x="393.310547" xlink:href="#DejaVuSans-7a"/>
      <use x="445.800781" xlink:href="#DejaVuSans-6c"/>
      <use x="473.583984" xlink:href="#DejaVuSans-69"/>
      <use x="501.367188" xlink:href="#DejaVuSans-6e"/>
      <use x="564.746094" xlink:href="#DejaVuSans-65"/>
      <use x="626.269531" xlink:href="#DejaVuSans-61"/>
      <use x="687.548828" xlink:href="#DejaVuSans-72"/>
      <use x="728.662109" xlink:href="#DejaVuSans-79"/>
      <use x="787.841797" xlink:href="#DejaVuSans-7a"/>
      <use x="840.332031" xlink:href="#DejaVuSans-6f"/>
      <use x="901.513672" xlink:href="#DejaVuSans-77"/>
      <use x="983.300781" xlink:href="#DejaVuSans-61"/>
      <use x="1044.580078" xlink:href="#DejaVuSans-6e"/>
      <use x="1107.958984" xlink:href="#DejaVuSans-79"/>
     </g>
    </g>
   </g>
  </g>
 </g>
 <defs>
  <clipPath id="p590d851f66">
   <rect height="266.112" width="357.12" x="42.620313" y="10.7"/>
  </clipPath>
 </defs>
</svg>
