<?xml version="1.0" encoding="utf-8" standalone="no"?>
<!DOCTYPE svg PUBLIC "-//W3C//DTD SVG 1.1//EN"
  "http://www.w3.org/Graphics/SVG/1.1/DTD/svg11.dtd">
<!-- Created with matplotlib (http://matplotlib.org/) -->
<svg height="314pt" version="1.1" viewBox="0 0 410 314" width="410pt" xmlns="http://www.w3.org/2000/svg" xmlns:xlink="http://www.w3.org/1999/xlink">
 <defs>
  <style type="text/css">
*{stroke-linecap:butt;stroke-linejoin:round;}
  </style>
 </defs>
 <g id="figure_1">
  <g id="patch_1">
   <path d="M 0 314.36825 
L 410.440313 314.36825 
L 410.440313 0 
L 0 0 
z
" style="fill:#ffffff;"/>
  </g>
  <g id="axes_1">
   <g id="patch_2">
    <path d="M 42.620313 276.812 
L 399.740313 276.812 
L 399.740313 10.7 
L 42.620313 10.7 
z
" style="fill:#ffffff;"/>
   </g>
   <g id="patch_3">
    <path clip-path="url(#p661397c111)" d="M 277.898652 24.148758 
L 270.127094 22.780777 
L 272.40429 20.748162 
L 272.426559 20.727349 
L 272.427176 20.727733 
L 274.704373 18.695118 
z
" style="fill:#ff7f0e;stroke:#ff7f0e;stroke-linejoin:miter;"/>
   </g>
   <g id="patch_4">
    <path clip-path="url(#p661397c111)" d="M 266.310455 94.492806 
L 266.318411 88.542364 
L 269.495034 89.728861 
L 269.527201 89.740426 
L 269.526959 89.740786 
L 272.703582 90.927283 
z
" style="fill:#ff7f0e;stroke:#ff7f0e;stroke-linejoin:miter;"/>
   </g>
   <g id="patch_5">
    <path clip-path="url(#p661397c111)" d="M 283.755304 27.614134 
L 276.596243 24.97799 
L 279.428894 23.37939 
L 279.456919 23.362888 
L 279.457362 23.363323 
L 282.290013 21.764723 
z
" style="fill:#ff7f0e;stroke:#ff7f0e;stroke-linejoin:miter;"/>
   </g>
   <g id="patch_6">
    <path clip-path="url(#p661397c111)" d="M 260.168602 102.818742 
L 260.549896 96.875084 
L 263.648601 98.170954 
L 263.679982 98.183662 
L 263.679744 98.183978 
L 266.778449 99.479848 
z
" style="fill:#ff7f0e;stroke:#ff7f0e;stroke-linejoin:miter;"/>
   </g>
   <g id="patch_7">
    <path clip-path="url(#p661397c111)" d="M 289.486246 56.265825 
L 287.551412 50.492688 
L 291.019949 51.06772 
L 291.054964 51.072979 
L 291.054809 51.073499 
L 294.523346 51.648532 
z
" style="fill:#ff7f0e;stroke:#ff7f0e;stroke-linejoin:miter;"/>
   </g>
   <g id="patch_8">
    <path clip-path="url(#p661397c111)" d="M 258.514399 105.421536 
L 259.10427 99.487347 
L 262.15641 100.843191 
L 262.187329 100.856513 
L 262.187085 100.856818 
L 265.239226 102.212662 
z
" style="fill:#ff7f0e;stroke:#ff7f0e;stroke-linejoin:miter;"/>
   </g>
   <g id="patch_9">
    <path clip-path="url(#p661397c111)" d="M 308.858882 32.968353 
L 307.232549 27.142622 
L 310.667786 27.819614 
L 310.702547 27.825752 
L 310.702311 27.826418 
L 314.137547 28.50341 
z
" style="fill:#ff7f0e;stroke:#ff7f0e;stroke-linejoin:miter;"/>
   </g>
   <g id="patch_10">
    <path clip-path="url(#p661397c111)" d="M 272.510339 90.505953 
L 273.054519 84.56934 
L 276.117046 85.912116 
L 276.148148 85.925203 
L 276.147825 85.925611 
L 279.210353 87.268387 
z
" style="fill:#ff7f0e;stroke:#ff7f0e;stroke-linejoin:miter;"/>
   </g>
   <g id="patch_11">
    <path clip-path="url(#p661397c111)" d="M 335.878239 32.031644 
L 336.986178 26.13875 
L 339.913166 27.640022 
L 339.943398 27.654229 
L 339.942583 27.65511 
L 342.869572 29.156382 
z
" style="fill:#ff7f0e;stroke:#ff7f0e;stroke-linejoin:miter;"/>
   </g>
   <g id="patch_12">
    <path clip-path="url(#p661397c111)" d="M 262.646567 106.187191 
L 264.21226 100.352242 
L 267.017206 101.977741 
L 267.045752 101.993738 
L 267.045397 101.994078 
L 269.850343 103.619577 
z
" style="fill:#ff7f0e;stroke:#ff7f0e;stroke-linejoin:miter;"/>
   </g>
   <g id="patch_13">
    <path clip-path="url(#p661397c111)" d="M 362.584133 42.585279 
L 365.256637 36.977968 
L 367.719744 38.886419 
L 367.746015 38.904513 
L 367.744499 38.905599 
L 370.207606 40.81405 
z
" style="fill:#ff7f0e;stroke:#ff7f0e;stroke-linejoin:miter;"/>
   </g>
   <g id="patch_14">
    <path clip-path="url(#p661397c111)" d="M 275.301703 105.095065 
L 277.97936 99.489119 
L 280.440712 101.398826 
L 280.466063 101.41758 
L 280.465449 101.418019 
L 282.926802 103.327726 
z
" style="fill:#ff7f0e;stroke:#ff7f0e;stroke-linejoin:miter;"/>
   </g>
   <g id="patch_15">
    <path clip-path="url(#p661397c111)" d="M 345.479807 82.483145 
L 349.055774 77.162683 
L 351.185882 79.281994 
L 351.209015 79.302332 
L 351.20729 79.303294 
L 353.337399 81.422605 
z
" style="fill:#ff7f0e;stroke:#ff7f0e;stroke-linejoin:miter;"/>
   </g>
   <g id="patch_16">
    <path clip-path="url(#p661397c111)" d="M 300.873259 106.978582 
L 304.546771 101.695149 
L 306.63769 103.836021 
L 306.65987 103.856905 
L 306.658704 103.857537 
L 308.749623 105.998409 
z
" style="fill:#ff7f0e;stroke:#ff7f0e;stroke-linejoin:miter;"/>
   </g>
   <g id="patch_17">
    <path clip-path="url(#p661397c111)" d="M 350.178706 104.377729 
L 354.308089 99.284643 
L 356.206623 101.522835 
L 356.227823 101.544331 
L 356.225703 101.545329 
L 358.124237 103.783522 
z
" style="fill:#ff7f0e;stroke:#ff7f0e;stroke-linejoin:miter;"/>
   </g>
   <g id="patch_18">
    <path clip-path="url(#p661397c111)" d="M 261.353947 142.989286 
L 266.026185 138.163682 
L 267.673826 140.509642 
L 267.691265 140.532877 
L 267.690385 140.53322 
L 269.338026 142.879181 
z
" style="fill:#ff7f0e;stroke:#ff7f0e;stroke-linejoin:miter;"/>
   </g>
   <g id="patch_19">
    <path clip-path="url(#p661397c111)" d="M 357.259719 123.30482 
L 361.746572 118.382495 
L 363.482764 120.692723 
L 363.502731 120.71489 
L 363.500213 120.715941 
L 365.236404 123.026169 
z
" style="fill:#ff7f0e;stroke:#ff7f0e;stroke-linejoin:miter;"/>
   </g>
   <g id="patch_20">
    <path clip-path="url(#p661397c111)" d="M 261.358399 158.850909 
L 266.563038 154.33797 
L 267.937733 156.779607 
L 267.95265 156.803801 
L 267.951549 156.804146 
L 269.326243 159.245782 
z
" style="fill:#ff7f0e;stroke:#ff7f0e;stroke-linejoin:miter;"/>
   </g>
   <g id="patch_21">
    <path clip-path="url(#p661397c111)" d="M 350.923651 146.313378 
L 355.723626 141.557895 
L 357.308394 143.927785 
L 357.327026 143.950599 
L 357.324321 143.951603 
L 358.90909 146.321493 
z
" style="fill:#ff7f0e;stroke:#ff7f0e;stroke-linejoin:miter;"/>
   </g>
   <g id="patch_22">
    <path clip-path="url(#p661397c111)" d="M 264.8696 174.106577 
L 270.37866 169.798952 
L 271.583114 172.290014 
L 271.596599 172.31468 
L 271.595219 172.31505 
L 272.799673 174.806113 
z
" style="fill:#ff7f0e;stroke:#ff7f0e;stroke-linejoin:miter;"/>
   </g>
   <g id="patch_23">
    <path clip-path="url(#p661397c111)" d="M 353.275704 165.450394 
L 358.295644 160.822736 
L 359.768366 163.232425 
L 359.786178 163.255622 
L 359.783168 163.256643 
L 361.25589 165.666332 
z
" style="fill:#ff7f0e;stroke:#ff7f0e;stroke-linejoin:miter;"/>
   </g>
   <g id="patch_24">
    <path clip-path="url(#p661397c111)" d="M 251.099524 193.630518 
L 257.100257 189.704533 
L 258.003029 192.265466 
L 258.013478 192.290935 
L 258.012102 192.291204 
L 258.914874 194.852138 
z
" style="fill:#ff7f0e;stroke:#ff7f0e;stroke-linejoin:miter;"/>
   </g>
   <g id="patch_25">
    <path clip-path="url(#p661397c111)" d="M 353.357316 185.928079 
L 358.574716 181.423328 
L 359.942497 183.86712 
L 359.959532 183.890659 
L 359.956244 183.891681 
L 361.324025 186.335472 
z
" style="fill:#ff7f0e;stroke:#ff7f0e;stroke-linejoin:miter;"/>
   </g>
   <g id="patch_26">
    <path clip-path="url(#p661397c111)" d="M 212.243571 213.440502 
L 219.473494 210.914026 
L 219.384162 213.561003 
L 219.384156 213.587623 
L 219.383264 213.587606 
L 219.293932 216.234584 
z
" style="fill:#ff7f0e;stroke:#ff7f0e;stroke-linejoin:miter;"/>
   </g>
   <g id="patch_27">
    <path clip-path="url(#p661397c111)" d="M 326.555211 215.258606 
L 332.113498 210.986239 
L 333.289324 213.484885 
L 333.304294 213.509173 
L 333.301142 213.509997 
L 334.476967 216.008642 
z
" style="fill:#ff7f0e;stroke:#ff7f0e;stroke-linejoin:miter;"/>
   </g>
   <g id="patch_28">
    <path clip-path="url(#p661397c111)" d="M 223.698425 232.71991 
L 230.592305 229.716831 
L 230.824405 232.35899 
L 230.828107 232.385478 
L 230.826738 232.385545 
L 231.058839 235.027705 
z
" style="fill:#ff7f0e;stroke:#ff7f0e;stroke-linejoin:miter;"/>
   </g>
   <g id="patch_29">
    <path clip-path="url(#p661397c111)" d="M 354.459744 232.987589 
L 360.020301 228.716862 
L 361.194799 231.215855 
L 361.210545 231.239942 
L 361.206603 231.24097 
L 362.381101 233.739963 
z
" style="fill:#ff7f0e;stroke:#ff7f0e;stroke-linejoin:miter;"/>
   </g>
   <g id="patch_30">
    <path clip-path="url(#p661397c111)" d="M 178.958993 247.604393 
L 186.943669 247.687039 
L 185.310576 250.038641 
L 185.294863 250.062546 
L 185.294163 250.062276 
L 183.66107 252.413878 
z
" style="fill:#ff7f0e;stroke:#ff7f0e;stroke-linejoin:miter;"/>
   </g>
   <g id="patch_31">
    <path clip-path="url(#p661397c111)" d="M 373.497721 259.117346 
L 379.131801 254.900465 
L 380.262908 257.410547 
L 380.278944 257.434606 
L 380.274276 257.435774 
L 381.405383 259.945856 
z
" style="fill:#ff7f0e;stroke:#ff7f0e;stroke-linejoin:miter;"/>
   </g>
   <g id="patch_32">
    <path clip-path="url(#p661397c111)" d="M 338.179692 267.355152 
L 344.00223 263.282903 
L 345.018585 265.820095 
L 345.03288 265.844687 
L 345.028799 265.845595 
L 346.045154 268.382787 
z
" style="fill:#ff7f0e;stroke:#ff7f0e;stroke-linejoin:miter;"/>
   </g>
   <g id="patch_33">
    <path clip-path="url(#p661397c111)" d="M 372.557814 278.422732 
L 378.285745 274.276651 
L 379.360361 276.800478 
L 379.376069 276.824683 
L 379.371161 276.825843 
L 380.445777 279.34967 
z
" style="fill:#ff7f0e;stroke:#ff7f0e;stroke-linejoin:miter;"/>
   </g>
   <g id="patch_34">
    <path clip-path="url(#p661397c111)" d="M 327.206899 278.231708 
L 333.138742 274.248016 
L 334.086045 276.800002 
L 334.099575 276.824824 
L 334.095566 276.82565 
L 335.042869 279.377637 
z
" style="fill:#ff7f0e;stroke:#ff7f0e;stroke-linejoin:miter;"/>
   </g>
   <g id="patch_35">
    <path clip-path="url(#p661397c111)" d="M 290.289225 277.991002 
L 296.463608 274.217487 
L 297.250387 276.799579 
L 297.261572 276.824975 
L 297.258295 276.82553 
L 298.045074 279.407622 
z
" style="fill:#ff7f0e;stroke:#ff7f0e;stroke-linejoin:miter;"/>
   </g>
   <g id="patch_36">
    <path clip-path="url(#p661397c111)" d="M 258.137825 277.661348 
L 264.619063 274.185277 
L 265.18591 276.799183 
L 265.194248 276.825135 
L 265.191607 276.825453 
L 265.758454 279.439359 
z
" style="fill:#ff7f0e;stroke:#ff7f0e;stroke-linejoin:miter;"/>
   </g>
   <g id="patch_37">
    <path clip-path="url(#p661397c111)" d="M 228.465827 277.158168 
L 235.360902 274.156611 
L 235.591951 276.798822 
L 235.596327 276.825277 
L 235.594273 276.825377 
L 235.825322 279.467588 
z
" style="fill:#ff7f0e;stroke:#ff7f0e;stroke-linejoin:miter;"/>
   </g>
   <g id="patch_38">
    <path clip-path="url(#p661397c111)" d="M 158.324142 256.670089 
L 165.236029 259.650098 
L 162.268904 261.106963 
L 162.239473 261.122046 
L 162.239083 261.121605 
L 159.271958 262.578471 
z
" style="fill:#ff7f0e;stroke:#ff7f0e;stroke-linejoin:miter;"/>
   </g>
   <g id="patch_39">
    <path clip-path="url(#p661397c111)" d="M 172.749783 197.706671 
L 172.951024 203.655227 
L 169.733779 202.531147 
L 169.701204 202.520233 
L 169.701445 202.51985 
L 166.4842 201.395771 
z
" style="fill:#ff7f0e;stroke:#ff7f0e;stroke-linejoin:miter;"/>
   </g>
   <g id="patch_40">
    <path clip-path="url(#p661397c111)" d="M 152.317118 250.164299 
L 157.318273 254.803238 
L 153.845328 255.363303 
L 153.81057 255.369434 
L 153.810424 255.368931 
L 150.337479 255.928996 
z
" style="fill:#ff7f0e;stroke:#ff7f0e;stroke-linejoin:miter;"/>
   </g>
   <g id="patch_41">
    <path clip-path="url(#p661397c111)" d="M 170.605919 200.161525 
L 170.808402 206.110057 
L 167.590922 204.98635 
L 167.558335 204.975455 
L 167.558585 204.975057 
L 164.341106 203.85135 
z
" style="fill:#ff7f0e;stroke:#ff7f0e;stroke-linejoin:miter;"/>
   </g>
   <g id="patch_42">
    <path clip-path="url(#p661397c111)" d="M 147.014853 237.885028 
L 148.772045 243.689621 
L 145.322059 243.055645 
L 145.287198 243.049838 
L 145.287385 243.049273 
L 141.837398 242.415297 
z
" style="fill:#ff7f0e;stroke:#ff7f0e;stroke-linejoin:miter;"/>
   </g>
   <g id="patch_43">
    <path clip-path="url(#p661397c111)" d="M 184.451745 180.839683 
L 183.710324 186.764425 
L 180.693388 185.365515 
L 180.662816 185.351756 
L 180.663067 185.351456 
L 177.646131 183.952546 
z
" style="fill:#ff7f0e;stroke:#ff7f0e;stroke-linejoin:miter;"/>
   </g>
   <g id="patch_44">
    <path clip-path="url(#p661397c111)" d="M 121.078719 255.90515 
L 121.203984 261.854863 
L 118.001239 260.70802 
L 117.968556 260.697261 
L 117.969051 260.696494 
L 114.766307 259.549652 
z
" style="fill:#ff7f0e;stroke:#ff7f0e;stroke-linejoin:miter;"/>
   </g>
   <g id="patch_45">
    <path clip-path="url(#p661397c111)" d="M 169.645567 194.548707 
L 168.664304 200.454055 
L 165.705454 198.987874 
L 165.675349 198.97355 
L 165.675717 198.973138 
L 162.716867 197.506956 
z
" style="fill:#ff7f0e;stroke:#ff7f0e;stroke-linejoin:miter;"/>
   </g>
   <g id="patch_46">
    <path clip-path="url(#p661397c111)" d="M 89.501552 254.178788 
L 87.489913 259.93733 
L 84.814519 258.19478 
L 84.786444 258.178279 
L 84.787631 258.177267 
L 82.112237 256.434717 
z
" style="fill:#ff7f0e;stroke:#ff7f0e;stroke-linejoin:miter;"/>
   </g>
   <g id="patch_47">
    <path clip-path="url(#p661397c111)" d="M 171.403903 184.930661 
L 169.328913 190.676708 
L 166.6728 188.917856 
L 166.645623 188.900584 
L 166.646106 188.900179 
L 163.989993 187.141327 
z
" style="fill:#ff7f0e;stroke:#ff7f0e;stroke-linejoin:miter;"/>
   </g>
   <g id="patch_48">
    <path clip-path="url(#p661397c111)" d="M 68.042939 236.414637 
L 64.881096 241.878763 
L 62.591844 239.853681 
L 62.566965 239.834503 
L 62.568837 239.833328 
L 60.279585 237.808246 
z
" style="fill:#ff7f0e;stroke:#ff7f0e;stroke-linejoin:miter;"/>
   </g>
   <g id="patch_49">
    <path clip-path="url(#p661397c111)" d="M 155.702073 181.965674 
L 152.459846 187.403581 
L 150.200595 185.359876 
L 150.177032 185.339862 
L 150.177889 185.339336 
L 147.918638 183.295632 
z
" style="fill:#ff7f0e;stroke:#ff7f0e;stroke-linejoin:miter;"/>
   </g>
   <g id="patch_50">
    <path clip-path="url(#p661397c111)" d="M 100.877258 190.575228 
L 96.977196 195.767718 
L 94.979934 193.577754 
L 94.958018 193.556678 
L 94.959861 193.555745 
L 92.9626 191.365782 
z
" style="fill:#ff7f0e;stroke:#ff7f0e;stroke-linejoin:miter;"/>
   </g>
   <g id="patch_51">
    <path clip-path="url(#p661397c111)" d="M 143.060297 169.764619 
L 139.014429 174.894788 
L 137.079469 172.673984 
L 137.058737 172.652286 
L 137.060022 172.651664 
L 135.125063 170.43086 
z
" style="fill:#ff7f0e;stroke:#ff7f0e;stroke-linejoin:miter;"/>
   </g>
   <g id="patch_52">
    <path clip-path="url(#p661397c111)" d="M 105.74669 166.087685 
L 101.355605 171.057733 
L 99.574866 168.766411 
L 99.554887 168.744281 
L 99.556969 168.743382 
L 97.77623 166.45206 
z
" style="fill:#ff7f0e;stroke:#ff7f0e;stroke-linejoin:miter;"/>
   </g>
   <g id="patch_53">
    <path clip-path="url(#p661397c111)" d="M 186.398343 134.862831 
L 181.347071 139.471519 
L 179.890715 137.056313 
L 179.87517 137.032344 
L 179.876079 137.03204 
L 178.419724 134.616834 
z
" style="fill:#ff7f0e;stroke:#ff7f0e;stroke-linejoin:miter;"/>
   </g>
   <g id="patch_54">
    <path clip-path="url(#p661397c111)" d="M 86.926471 153.031907 
L 82.281111 157.871899 
L 80.620437 155.531047 
L 80.601113 155.508558 
L 80.603747 155.507521 
L 78.943073 153.166669 
z
" style="fill:#ff7f0e;stroke:#ff7f0e;stroke-linejoin:miter;"/>
   </g>
   <g id="patch_55">
    <path clip-path="url(#p661397c111)" d="M 195.962323 116.934876 
L 190.273593 121.110819 
L 189.175227 118.592676 
L 189.163218 118.567603 
L 189.164188 118.567368 
L 188.065822 116.049225 
z
" style="fill:#ff7f0e;stroke:#ff7f0e;stroke-linejoin:miter;"/>
   </g>
   <g id="patch_56">
    <path clip-path="url(#p661397c111)" d="M 78.510088 135.824158 
L 73.649162 140.545138 
L 72.094951 138.164038 
L 72.076297 138.141207 
L 72.079331 138.140107 
L 70.525121 135.759007 
z
" style="fill:#ff7f0e;stroke:#ff7f0e;stroke-linejoin:miter;"/>
   </g>
   <g id="patch_57">
    <path clip-path="url(#p661397c111)" d="M 189.132511 102.548396 
L 183.288852 106.603812 
L 182.285691 104.063706 
L 182.27431 104.038462 
L 182.275609 104.038177 
L 181.272449 101.498071 
z
" style="fill:#ff7f0e;stroke:#ff7f0e;stroke-linejoin:miter;"/>
   </g>
   <g id="patch_58">
    <path clip-path="url(#p661397c111)" d="M 77.661579 115.651866 
L 72.595822 120.251718 
L 71.147069 117.833975 
L 71.129186 117.810782 
L 71.132509 117.809676 
L 69.683756 115.391933 
z
" style="fill:#ff7f0e;stroke:#ff7f0e;stroke-linejoin:miter;"/>
   </g>
   <g id="patch_59">
    <path clip-path="url(#p661397c111)" d="M 197.510126 84.394554 
L 191.286314 88.122708 
L 190.533599 85.534983 
L 190.524652 85.509199 
L 190.526034 85.508976 
L 189.773319 82.921251 
z
" style="fill:#ff7f0e;stroke:#ff7f0e;stroke-linejoin:miter;"/>
   </g>
   <g id="patch_60">
    <path clip-path="url(#p661397c111)" d="M 116.408049 83.087847 
L 110.934601 87.420607 
L 109.709636 84.935104 
L 109.69433 84.910943 
L 109.697325 84.910124 
L 108.47236 82.424621 
z
" style="fill:#ff7f0e;stroke:#ff7f0e;stroke-linejoin:miter;"/>
   </g>
   <g id="patch_61">
    <path clip-path="url(#p661397c111)" d="M 239.911076 66.081425 
L 232.320652 67.929788 
L 232.843913 65.31084 
L 232.848361 65.284429 
L 232.849172 65.284519 
L 233.372432 62.665571 
z
" style="fill:#ff7f0e;stroke:#ff7f0e;stroke-linejoin:miter;"/>
   </g>
   <g id="patch_62">
    <path clip-path="url(#p661397c111)" d="M 90.150613 67.052996 
L 84.662326 71.375321 
L 83.445887 68.887494 
L 83.429932 68.863503 
L 83.433662 68.862491 
L 82.217223 66.374664 
z
" style="fill:#ff7f0e;stroke:#ff7f0e;stroke-linejoin:miter;"/>
   </g>
   <g id="patch_63">
    <path clip-path="url(#p661397c111)" d="M 270.623621 65.816746 
L 264.857886 61.699863 
L 268.204146 60.809155 
L 268.237609 60.799852 
L 268.237777 60.800203 
L 271.584037 59.909494 
z
" style="fill:#ff7f0e;stroke:#ff7f0e;stroke-linejoin:miter;"/>
   </g>
   <g id="patch_64">
    <path clip-path="url(#p661397c111)" d="M 138.070342 28.964757 
L 132.097207 32.914043 
L 131.176498 30.356657 
L 131.163951 30.331613 
L 131.167245 30.330955 
L 130.246536 27.77357 
z
" style="fill:#ff7f0e;stroke:#ff7f0e;stroke-linejoin:miter;"/>
   </g>
   <g id="patch_65">
    <path clip-path="url(#p661397c111)" d="M 262.141412 24.92146 
L 254.198971 25.538178 
L 255.45012 23.059928 
L 255.461771 23.034762 
L 255.462694 23.035021 
L 256.713843 20.556771 
z
" style="fill:#ff7f0e;stroke:#ff7f0e;stroke-linejoin:miter;"/>
   </g>
   <g id="patch_66">
    <path clip-path="url(#p661397c111)" d="M 54.648026 12.968726 
L 48.990402 17.168068 
L 47.873348 14.654494 
L 47.856965 14.630504 
L 47.862121 14.629232 
L 46.745067 12.115658 
z
" style="fill:#ff7f0e;stroke:#ff7f0e;stroke-linejoin:miter;"/>
   </g>
   <g id="patch_67">
    <path clip-path="url(#p661397c111)" d="M 59.813165 11.716992 
L 54.132648 15.899137 
L 53.029334 13.382195 
L 53.013175 13.358133 
L 53.018246 13.356899 
L 51.914932 10.839957 
z
" style="fill:#ff7f0e;stroke:#ff7f0e;stroke-linejoin:miter;"/>
   </g>
   <g id="patch_68">
    <path clip-path="url(#p661397c111)" d="M 93.850985 9.18015 
L 88.024762 13.249472 
L 87.010704 10.711769 
L 86.996081 10.687248 
L 87.000513 10.686265 
L 85.986455 8.148562 
z
" style="fill:#ff7f0e;stroke:#ff7f0e;stroke-linejoin:miter;"/>
   </g>
   <g id="patch_69">
    <path clip-path="url(#p661397c111)" d="M 134.392205 9.392598 
L 128.345224 13.278982 
L 127.472807 10.712214 
L 127.460411 10.687102 
L 127.464039 10.686417 
L 126.591622 8.119648 
z
" style="fill:#ff7f0e;stroke:#ff7f0e;stroke-linejoin:miter;"/>
   </g>
   <g id="patch_70">
    <path clip-path="url(#p661397c111)" d="M 168.578932 9.671018 
L 162.261328 13.310521 
L 161.574627 10.712622 
L 161.564775 10.686945 
L 161.567726 10.686512 
L 160.881025 8.088613 
z
" style="fill:#ff7f0e;stroke:#ff7f0e;stroke-linejoin:miter;"/>
   </g>
   <g id="patch_71">
    <path clip-path="url(#p661397c111)" d="M 199.256369 10.071997 
L 192.58508 13.342334 
L 192.165938 10.713005 
L 192.159382 10.686787 
L 192.161726 10.68658 
L 191.742584 8.057251 
z
" style="fill:#ff7f0e;stroke:#ff7f0e;stroke-linejoin:miter;"/>
   </g>
   <g id="patch_72">
    <path clip-path="url(#p661397c111)" d="M 274.310926 21.445641 
L 266.37799 20.76437 
L 268.32052 18.547239 
L 268.339315 18.524602 
L 268.340043 18.524956 
L 270.282573 16.307825 
z
" style="fill:#ff7f0e;stroke:#ff7f0e;stroke-linejoin:miter;"/>
   </g>
   <g id="patch_73">
    <path clip-path="url(#p661397c111)" d="M 276.341539 78.89158 
L 275.519083 72.972779 
L 278.844058 73.906702 
L 278.877691 73.915659 
L 278.877474 73.916088 
L 282.202449 74.85001 
z
" style="fill:#ff7f0e;stroke:#ff7f0e;stroke-linejoin:miter;"/>
   </g>
   <g id="matplotlib.axis_1">
    <g id="xtick_1">
     <g id="line2d_1">
      <defs>
       <path d="M 0 0 
L 0 3.5 
" id="m3958e4811b" style="stroke:#000000;stroke-width:0.8;"/>
      </defs>
      <g>
       <use style="stroke:#000000;stroke-width:0.8;" x="78.332313" xlink:href="#m3958e4811b" y="276.812"/>
      </g>
     </g>
     <g id="text_1">
      <!-- −4 -->
      <defs>
       <path d="M 10.59375 35.5 
L 73.1875 35.5 
L 73.1875 27.203125 
L 10.59375 27.203125 
z
" id="DejaVuSans-2212"/>
       <path d="M 37.796875 64.3125 
L 12.890625 25.390625 
L 37.796875 25.390625 
z
M 35.203125 72.90625 
L 47.609375 72.90625 
L 47.609375 25.390625 
L 58.015625 25.390625 
L 58.015625 17.1875 
L 47.609375 17.1875 
L 47.609375 0 
L 37.796875 0 
L 37.796875 17.1875 
L 4.890625 17.1875 
L 4.890625 26.703125 
z
" id="DejaVuSans-34"/>
      </defs>
      <g transform="translate(70.961219 291.410438)scale(0.1 -0.1)">
       <use xlink:href="#DejaVuSans-2212"/>
       <use x="83.789062" xlink:href="#DejaVuSans-34"/>
      </g>
     </g>
    </g>
    <g id="xtick_2">
     <g id="line2d_2">
      <g>
       <use style="stroke:#000000;stroke-width:0.8;" x="149.756313" xlink:href="#m3958e4811b" y="276.812"/>
      </g>
     </g>
     <g id="text_2">
      <!-- −2 -->
      <defs>
       <path d="M 19.1875 8.296875 
L 53.609375 8.296875 
L 53.609375 0 
L 7.328125 0 
L 7.328125 8.296875 
Q 12.9375 14.109375 22.625 23.890625 
Q 32.328125 33.6875 34.8125 36.53125 
Q 39.546875 41.84375 41.421875 45.53125 
Q 43.3125 49.21875 43.3125 52.78125 
Q 43.3125 58.59375 39.234375 62.25 
Q 35.15625 65.921875 28.609375 65.921875 
Q 23.96875 65.921875 18.8125 64.3125 
Q 13.671875 62.703125 7.8125 59.421875 
L 7.8125 69.390625 
Q 13.765625 71.78125 18.9375 73 
Q 24.125 74.21875 28.421875 74.21875 
Q 39.75 74.21875 46.484375 68.546875 
Q 53.21875 62.890625 53.21875 53.421875 
Q 53.21875 48.921875 51.53125 44.890625 
Q 49.859375 40.875 45.40625 35.40625 
Q 44.1875 33.984375 37.640625 27.21875 
Q 31.109375 20.453125 19.1875 8.296875 
" id="DejaVuSans-32"/>
      </defs>
      <g transform="translate(142.385219 291.410438)scale(0.1 -0.1)">
       <use xlink:href="#DejaVuSans-2212"/>
       <use x="83.789062" xlink:href="#DejaVuSans-32"/>
      </g>
     </g>
    </g>
    <g id="xtick_3">
     <g id="line2d_3">
      <g>
       <use style="stroke:#000000;stroke-width:0.8;" x="221.180313" xlink:href="#m3958e4811b" y="276.812"/>
      </g>
     </g>
     <g id="text_3">
      <!-- 0 -->
      <defs>
       <path d="M 31.78125 66.40625 
Q 24.171875 66.40625 20.328125 58.90625 
Q 16.5 51.421875 16.5 36.375 
Q 16.5 21.390625 20.328125 13.890625 
Q 24.171875 6.390625 31.78125 6.390625 
Q 39.453125 6.390625 43.28125 13.890625 
Q 47.125 21.390625 47.125 36.375 
Q 47.125 51.421875 43.28125 58.90625 
Q 39.453125 66.40625 31.78125 66.40625 
M 31.78125 74.21875 
Q 44.046875 74.21875 50.515625 64.515625 
Q 56.984375 54.828125 56.984375 36.375 
Q 56.984375 17.96875 50.515625 8.265625 
Q 44.046875 -1.421875 31.78125 -1.421875 
Q 19.53125 -1.421875 13.0625 8.265625 
Q 6.59375 17.96875 6.59375 36.375 
Q 6.59375 54.828125 13.0625 64.515625 
Q 19.53125 74.21875 31.78125 74.21875 
" id="DejaVuSans-30"/>
      </defs>
      <g transform="translate(217.999063 291.410438)scale(0.1 -0.1)">
       <use xlink:href="#DejaVuSans-30"/>
      </g>
     </g>
    </g>
    <g id="xtick_4">
     <g id="line2d_4">
      <g>
       <use style="stroke:#000000;stroke-width:0.8;" x="292.604312" xlink:href="#m3958e4811b" y="276.812"/>
      </g>
     </g>
     <g id="text_4">
      <!-- 2 -->
      <g transform="translate(289.423063 291.410438)scale(0.1 -0.1)">
       <use xlink:href="#DejaVuSans-32"/>
      </g>
     </g>
    </g>
    <g id="xtick_5">
     <g id="line2d_5">
      <g>
       <use style="stroke:#000000;stroke-width:0.8;" x="364.028313" xlink:href="#m3958e4811b" y="276.812"/>
      </g>
     </g>
     <g id="text_5">
      <!-- 4 -->
      <g transform="translate(360.847063 291.410438)scale(0.1 -0.1)">
       <use xlink:href="#DejaVuSans-34"/>
      </g>
     </g>
    </g>
    <g id="text_6">
     <!-- x1 -->
     <defs>
      <path d="M 54.890625 54.6875 
L 35.109375 28.078125 
L 55.90625 0 
L 45.3125 0 
L 29.390625 21.484375 
L 13.484375 0 
L 2.875 0 
L 24.125 28.609375 
L 4.6875 54.6875 
L 15.28125 54.6875 
L 29.78125 35.203125 
L 44.28125 54.6875 
z
" id="DejaVuSans-78"/>
      <path d="M 12.40625 8.296875 
L 28.515625 8.296875 
L 28.515625 63.921875 
L 10.984375 60.40625 
L 10.984375 69.390625 
L 28.421875 72.90625 
L 38.28125 72.90625 
L 38.28125 8.296875 
L 54.390625 8.296875 
L 54.390625 0 
L 12.40625 0 
z
" id="DejaVuSans-31"/>
     </defs>
     <g transform="translate(215.039688 305.088562)scale(0.1 -0.1)">
      <use xlink:href="#DejaVuSans-78"/>
      <use x="59.179688" xlink:href="#DejaVuSans-31"/>
     </g>
    </g>
   </g>
   <g id="matplotlib.axis_2">
    <g id="ytick_1">
     <g id="line2d_6">
      <defs>
       <path d="M 0 0 
L -3.5 0 
" id="m591af3b534" style="stroke:#000000;stroke-width:0.8;"/>
      </defs>
      <g>
       <use style="stroke:#000000;stroke-width:0.8;" x="42.620313" xlink:href="#m591af3b534" y="250.2008"/>
      </g>
     </g>
     <g id="text_7">
      <!-- −4 -->
      <g transform="translate(20.878125 254.000019)scale(0.1 -0.1)">
       <use xlink:href="#DejaVuSans-2212"/>
       <use x="83.789062" xlink:href="#DejaVuSans-34"/>
      </g>
     </g>
    </g>
    <g id="ytick_2">
     <g id="line2d_7">
      <g>
       <use style="stroke:#000000;stroke-width:0.8;" x="42.620313" xlink:href="#m591af3b534" y="196.9784"/>
      </g>
     </g>
     <g id="text_8">
      <!-- −2 -->
      <g transform="translate(20.878125 200.777619)scale(0.1 -0.1)">
       <use xlink:href="#DejaVuSans-2212"/>
       <use x="83.789062" xlink:href="#DejaVuSans-32"/>
      </g>
     </g>
    </g>
    <g id="ytick_3">
     <g id="line2d_8">
      <g>
       <use style="stroke:#000000;stroke-width:0.8;" x="42.620313" xlink:href="#m591af3b534" y="143.756"/>
      </g>
     </g>
     <g id="text_9">
      <!-- 0 -->
      <g transform="translate(29.257813 147.555219)scale(0.1 -0.1)">
       <use xlink:href="#DejaVuSans-30"/>
      </g>
     </g>
    </g>
    <g id="ytick_4">
     <g id="line2d_9">
      <g>
       <use style="stroke:#000000;stroke-width:0.8;" x="42.620313" xlink:href="#m591af3b534" y="90.5336"/>
      </g>
     </g>
     <g id="text_10">
      <!-- 2 -->
      <g transform="translate(29.257813 94.332819)scale(0.1 -0.1)">
       <use xlink:href="#DejaVuSans-32"/>
      </g>
     </g>
    </g>
    <g id="ytick_5">
     <g id="line2d_10">
      <g>
       <use style="stroke:#000000;stroke-width:0.8;" x="42.620313" xlink:href="#m591af3b534" y="37.3112"/>
      </g>
     </g>
     <g id="text_11">
      <!-- 4 -->
      <g transform="translate(29.257813 41.110419)scale(0.1 -0.1)">
       <use xlink:href="#DejaVuSans-34"/>
      </g>
     </g>
    </g>
    <g id="text_12">
     <!-- x2 -->
     <g transform="translate(14.798438 149.896625)rotate(-90)scale(0.1 -0.1)">
      <use xlink:href="#DejaVuSans-78"/>
      <use x="59.179688" xlink:href="#DejaVuSans-32"/>
     </g>
    </g>
   </g>
   <g id="line2d_11">
    <path clip-path="url(#p661397c111)" d="M 221.180313 10.7 
L 228.042639 10.803657 
L 234.366816 11.103753 
L 240.184514 11.584714 
L 245.525702 12.231909 
L 250.41881 13.031558 
L 254.890795 13.970694 
L 258.967129 15.037166 
L 262.671958 16.219549 
L 266.028147 17.507113 
L 269.057345 18.88979 
L 271.780038 20.35814 
L 274.215606 21.903316 
L 276.382413 23.517019 
L 278.297757 25.191517 
L 279.978089 26.919527 
L 281.438799 28.694332 
L 282.694581 30.509574 
L 283.997018 32.826599 
L 285.026064 35.187003 
L 285.805281 37.581048 
L 286.356634 39.999811 
L 286.7005 42.435185 
L 286.865814 45.369224 
L 286.789676 48.305146 
L 286.49964 51.232786 
L 285.924369 54.625966 
L 285.128328 57.983237 
L 283.989751 61.762549 
L 282.648254 65.467733 
L 280.943558 69.533924 
L 278.861382 73.91074 
L 276.40546 78.539057 
L 273.597825 83.352486 
L 270.236094 88.64593 
L 266.617931 93.926686 
L 262.588387 99.426162 
L 258.04325 105.255464 
L 252.972654 111.387726 
L 247.496397 117.652944 
L 241.72902 123.913644 
L 235.70121 130.132331 
L 229.566796 136.142216 
L 223.903145 141.387182 
L 221.180312 143.756 
L 221.180313 143.756 
" style="fill:none;stroke:#ff7f0e;stroke-linecap:square;stroke-width:0.5;"/>
   </g>
   <g id="line2d_12">
    <path clip-path="url(#p661397c111)" d="M 250.199137 10.7 
L 254.808465 11.634639 
L 259.011653 12.700588 
L 262.833429 13.886122 
L 266.297334 15.180179 
L 269.425567 16.57242 
L 272.239115 18.053159 
L 274.757793 19.613346 
L 277.00045 21.244446 
L 278.984919 22.938468 
L 280.727993 24.687972 
L 282.245517 26.486023 
L 283.552478 28.326134 
L 284.663053 30.202244 
L 285.795443 32.589426 
L 286.666387 35.013851 
L 287.298698 37.466205 
L 287.713588 39.937995 
L 287.930736 42.421504 
L 287.955948 45.407356 
L 287.751826 48.389118 
L 287.345012 51.357132 
L 286.646525 54.791134 
L 285.740078 58.18313 
L 284.489477 61.995502 
L 282.858059 66.187839 
L 281.038479 70.26419 
L 278.849963 74.644014 
L 276.299387 79.267367 
L 273.167232 84.455841 
L 269.733906 89.700402 
L 265.825581 95.255702 
L 261.544532 100.95499 
L 256.805321 106.896421 
L 251.619765 113.041759 
L 245.95677 119.402532 
L 240.042865 125.711795 
L 233.856791 131.985641 
L 227.784022 137.831723 
L 222.427807 142.691958 
L 221.180312 143.756 
L 221.180313 143.756 
" style="fill:none;stroke:#ff7f0e;stroke-linecap:square;stroke-width:0.5;"/>
   </g>
   <g id="line2d_13">
    <path clip-path="url(#p661397c111)" d="M 280.7924 10.7 
L 283.026383 12.510754 
L 284.993694 14.384026 
L 286.71141 16.312281 
L 288.196255 18.288253 
L 289.463897 20.305212 
L 290.529115 22.356891 
L 291.597057 24.961512 
L 292.395873 27.600834 
L 292.949336 30.265245 
L 293.279468 32.946026 
L 293.406702 35.63526 
L 293.318198 38.86342 
L 292.995052 42.082273 
L 292.46492 45.281939 
L 291.618339 48.979105 
L 290.560405 52.626458 
L 289.133937 56.720939 
L 287.303032 61.218036 
L 285.283936 65.585738 
L 282.875427 70.273665 
L 280.086769 75.217205 
L 276.945441 80.344713 
L 273.230197 85.968633 
L 269.011053 91.922102 
L 264.398862 98.026255 
L 259.302135 104.385962 
L 253.734086 110.960078 
L 247.843193 117.562649 
L 241.619843 124.199677 
L 235.231898 130.687801 
L 228.868007 136.836707 
L 223.16309 142.049828 
L 221.180312 143.756 
L 221.180312 143.756 
" style="fill:none;stroke:#ff7f0e;stroke-linecap:square;stroke-width:0.5;"/>
   </g>
   <g id="line2d_14">
    <path clip-path="url(#p661397c111)" d="M 314.89583 10.7 
L 314.232708 14.875973 
L 313.328901 19.016905 
L 312.214443 23.112748 
L 310.685285 27.82235 
L 308.946774 32.446582 
L 306.748612 37.614177 
L 304.369766 42.645073 
L 301.52815 48.129669 
L 298.223644 53.994525 
L 294.476647 60.156592 
L 290.327826 66.525395 
L 285.836181 73.005901 
L 280.740759 79.946771 
L 275.16852 87.136115 
L 269.282245 94.35846 
L 262.994236 101.720633 
L 256.347261 109.164004 
L 249.332049 116.688222 
L 242.087013 124.135357 
L 234.751988 131.357169 
L 227.766823 137.927908 
L 221.967457 143.094673 
L 221.180312 143.756 
L 221.180312 143.756 
" style="fill:none;stroke:#ff7f0e;stroke-linecap:square;stroke-width:0.5;"/>
   </g>
   <g id="line2d_15">
    <path clip-path="url(#p661397c111)" d="M 355.359448 10.7 
L 342.399186 24.964478 
L 328.926836 39.453421 
L 315.345696 53.728842 
L 301.455003 68.00131 
L 287.3639 82.150251 
L 273.471987 95.777478 
L 260.08366 108.603212 
L 247.074616 120.759337 
L 235.171589 131.581857 
L 225.260324 140.305593 
L 221.180312 143.756 
L 221.180312 143.756 
" style="fill:none;stroke:#ff7f0e;stroke-linecap:square;stroke-width:0.5;"/>
   </g>
   <g id="line2d_16">
    <path clip-path="url(#p661397c111)" d="M 399.740313 15.953977 
L 235.997453 133.196228 
L 221.180312 143.756 
L 221.180312 143.756 
" style="fill:none;stroke:#ff7f0e;stroke-linecap:square;stroke-width:0.5;"/>
   </g>
   <g id="line2d_17">
    <path clip-path="url(#p661397c111)" d="M 399.740313 51.914074 
L 363.891854 72.183652 
L 333.367614 89.20136 
L 306.649363 103.846146 
L 285.028168 115.453402 
L 267.182651 124.790941 
L 253.005524 131.967705 
L 242.176044 137.21532 
L 234.018842 140.934015 
L 228.262803 143.327387 
L 224.487195 144.67486 
L 222.22046 145.271418 
L 221.015487 145.383784 
L 220.514671 145.240841 
L 220.376119 144.998497 
L 220.454715 144.649707 
L 220.833293 144.103398 
L 221.180313 143.756 
L 221.180313 143.756 
" style="fill:none;stroke:#ff7f0e;stroke-linecap:square;stroke-width:0.5;"/>
   </g>
   <g id="line2d_18">
    <path clip-path="url(#p661397c111)" d="M 399.740313 80.620143 
L 371.893661 94.087032 
L 347.911295 105.433147 
L 327.289986 114.954391 
L 308.111493 123.561255 
L 291.913527 130.589909 
L 278.267308 136.287188 
L 265.935637 141.201044 
L 255.762219 145.027828 
L 246.827659 148.152837 
L 239.63733 150.439629 
L 233.887971 152.053887 
L 229.03955 153.191917 
L 225.295285 153.851901 
L 222.441626 154.144945 
L 220.303109 154.160469 
L 218.735878 153.970099 
L 217.622273 153.630893 
L 216.866334 153.188004 
L 216.366584 152.641119 
L 216.099402 152.011932 
L 216.036117 151.285627 
L 216.186587 150.414024 
L 216.604942 149.341094 
L 217.368344 148.026073 
L 218.539313 146.470259 
L 220.129544 144.736369 
L 221.180313 143.756 
L 221.180313 143.756 
" style="fill:none;stroke:#ff7f0e;stroke-linecap:square;stroke-width:0.5;"/>
   </g>
   <g id="line2d_19">
    <path clip-path="url(#p661397c111)" d="M 399.740313 105.21586 
L 376.644796 115.158991 
L 356.04547 123.800803 
L 337.694557 131.2829 
L 319.459443 138.471888 
L 303.500106 144.515812 
L 289.559942 149.558489 
L 277.409589 153.727505 
L 266.844217 157.135898 
L 257.680946 159.883747 
L 248.946361 162.269347 
L 241.543657 164.054846 
L 235.298413 165.332872 
L 230.057399 166.183827 
L 225.686024 166.677428 
L 222.066244 166.873979 
L 219.094596 166.825547 
L 216.680505 166.576978 
L 214.74477 166.166799 
L 213.218206 165.628021 
L 212.040463 164.988838 
L 211.158978 164.273236 
L 210.477142 163.42198 
L 210.04609 162.525445 
L 209.809353 161.51761 
L 209.772625 160.412681 
L 209.948507 159.14554 
L 210.382318 157.665874 
L 211.125432 155.954181 
L 212.244632 153.970997 
L 213.747363 151.776016 
L 215.69709 149.331879 
L 218.065686 146.726614 
L 220.608663 144.256155 
L 221.180313 143.756 
L 221.180313 143.756 
" style="fill:none;stroke:#ff7f0e;stroke-linecap:square;stroke-width:0.5;"/>
   </g>
   <g id="line2d_20">
    <path clip-path="url(#p661397c111)" d="M 399.740313 127.600077 
L 377.429327 136.322167 
L 357.319063 143.93869 
L 339.213781 150.559355 
L 322.934326 156.283989 
L 308.316559 161.203493 
L 295.210216 165.400561 
L 283.47775 168.950386 
L 271.590546 172.302162 
L 261.162938 174.98963 
L 252.040809 177.095095 
L 244.08505 178.692167 
L 237.170201 179.846595 
L 231.183233 180.617002 
L 226.022353 181.055607 
L 221.595919 181.208881 
L 217.821501 181.118106 
L 214.625011 180.819901 
L 211.939898 180.346695 
L 209.706419 179.727162 
L 207.870995 178.986604 
L 206.385618 178.147294 
L 205.207318 177.228789 
L 204.297656 176.24823 
L 203.622289 175.220587 
L 203.104524 174.024374 
L 202.805952 172.80099 
L 202.690204 171.4262 
L 202.779128 169.912858 
L 203.115853 168.144842 
L 203.738732 166.158529 
L 204.655125 164.005223 
L 205.906891 161.634034 
L 207.587824 158.944367 
L 209.667092 156.046286 
L 212.184471 152.922217 
L 215.154962 149.597511 
L 218.40533 146.296808 
L 221.180313 143.756 
L 221.180312 143.756 
" style="fill:none;stroke:#ff7f0e;stroke-linecap:square;stroke-width:0.5;"/>
   </g>
   <g id="line2d_21">
    <path clip-path="url(#p661397c111)" d="M 399.740313 149.117973 
L 378.845507 156.627136 
L 359.778777 163.243513 
L 342.398038 169.04564 
L 326.571529 174.105949 
L 312.17727 178.491103 
L 299.102197 182.262529 
L 287.241376 185.4769 
L 276.497676 188.186337 
L 266.781242 190.438726 
L 258.008942 192.278066 
L 248.865433 193.95573 
L 240.789894 195.18479 
L 233.679714 196.018233 
L 227.441302 196.503918 
L 221.989276 196.685059 
L 217.245808 196.600622 
L 213.140019 196.285685 
L 209.607368 195.771799 
L 206.589123 195.087306 
L 204.031885 194.257616 
L 201.887116 193.305492 
L 200.110732 192.251279 
L 198.66272 191.113138 
L 197.50679 189.90724 
L 196.610073 188.647946 
L 195.942805 187.347985 
L 195.426754 185.826893 
L 195.139237 184.282019 
L 195.049134 182.531285 
L 195.191884 180.587961 
L 195.589212 178.47249 
L 196.248215 176.212075 
L 197.238712 173.661 
L 198.571159 170.884283 
L 200.221254 167.961145 
L 202.325676 164.697193 
L 204.880903 161.162484 
L 207.870372 157.418536 
L 211.318745 153.468294 
L 215.091444 149.490752 
L 218.933544 145.759864 
L 221.180313 143.756 
L 221.180312 143.756 
" style="fill:none;stroke:#ff7f0e;stroke-linecap:square;stroke-width:0.5;"/>
   </g>
   <g id="line2d_22">
    <path clip-path="url(#p661397c111)" d="M 399.740313 170.919577 
L 380.805344 177.215156 
L 363.292841 182.831902 
L 347.108888 187.821177 
L 332.165484 192.230863 
L 318.380225 196.105566 
L 303.257747 200.107684 
L 289.566871 203.466186 
L 277.192255 206.242396 
L 266.026927 208.492805 
L 255.972083 210.269187 
L 246.936269 211.619111 
L 238.834877 212.586233 
L 231.589712 213.210567 
L 225.128528 213.528754 
L 219.384605 213.574322 
L 214.296294 213.377956 
L 209.806712 212.967682 
L 205.863382 212.369079 
L 202.417897 211.605481 
L 199.425623 210.698147 
L 196.845477 209.666396 
L 194.639647 208.527775 
L 192.773293 207.298224 
L 191.214335 205.992208 
L 189.933282 204.622815 
L 188.903055 203.201853 
L 188.098789 201.739971 
L 187.415741 199.995445 
L 186.976268 198.221771 
L 186.750601 196.430835 
L 186.72 194.376317 
L 186.932781 192.071049 
L 187.364166 189.787644 
L 188.052416 187.292245 
L 189.010376 184.614823 
L 190.345144 181.56161 
L 192.071097 178.210021 
L 194.165395 174.654138 
L 196.696255 170.816401 
L 199.686953 166.706803 
L 203.078183 162.434061 
L 206.896855 157.983745 
L 211.130087 153.397382 
L 215.583473 148.903384 
L 219.809077 144.947545 
L 221.180313 143.756 
L 221.180313 143.756 
" style="fill:none;stroke:#ff7f0e;stroke-linecap:square;stroke-width:0.5;"/>
   </g>
   <g id="line2d_23">
    <path clip-path="url(#p661397c111)" d="M 399.740313 194.217485 
L 379.318194 200.484961 
L 360.463639 206.020905 
L 343.072069 210.881915 
L 327.045622 215.120661 
L 312.292515 218.786274 
L 298.726529 221.924655 
L 286.267045 224.578465 
L 274.838433 226.787484 
L 264.36976 228.588796 
L 254.794567 230.016921 
L 246.050611 231.10397 
L 238.0796 231.879806 
L 230.826941 232.372201 
L 224.241528 232.606952 
L 218.275536 232.608016 
L 212.884191 232.397638 
L 208.025632 231.996441 
L 203.660716 231.423537 
L 199.752847 230.69663 
L 196.267814 229.832111 
L 193.173644 228.845145 
L 190.440534 227.749715 
L 188.040651 226.558732 
L 185.947998 225.284119 
L 184.138308 223.93687 
L 182.588944 222.527111 
L 181.278805 221.064151 
L 180.188246 219.556529 
L 179.143748 217.699415 
L 178.359936 215.801524 
L 177.810011 213.873893 
L 177.469352 211.926444 
L 177.306481 209.641123 
L 177.365395 207.353239 
L 177.666934 204.749146 
L 178.18113 202.169531 
L 178.971002 199.311134 
L 180.061091 196.205207 
L 181.460302 192.890849 
L 183.16139 189.41403 
L 185.298064 185.558137 
L 187.847223 181.431295 
L 190.748168 177.155032 
L 194.217523 172.452384 
L 198.075666 167.607408 
L 202.333974 162.617364 
L 207.013208 157.478309 
L 212.00641 152.329325 
L 216.98137 147.517648 
L 221.114611 143.809962 
L 221.180313 143.756 
L 221.180312 143.756 
" style="fill:none;stroke:#ff7f0e;stroke-linecap:square;stroke-width:0.5;"/>
   </g>
   <g id="line2d_24">
    <path clip-path="url(#p661397c111)" d="M 399.740313 220.575917 
L 381.914377 225.629742 
L 365.211864 230.169098 
L 349.572279 234.226475 
L 334.9377 237.832823 
L 321.253467 241.017213 
L 308.467582 243.807174 
L 296.530444 246.228853 
L 285.395101 248.30687 
L 272.535932 250.456319 
L 260.778343 252.147415 
L 250.045464 253.419757 
L 240.265292 254.31018 
L 231.370431 254.852907 
L 223.29779 255.079735 
L 215.988336 255.020181 
L 209.386818 254.701645 
L 203.441552 254.149539 
L 198.104234 253.387403 
L 193.329716 252.437028 
L 189.075804 251.318584 
L 185.303069 250.050728 
L 181.974696 248.650696 
L 179.05629 247.134407 
L 176.515784 245.51653 
L 174.32325 243.810585 
L 172.450826 242.028991 
L 170.872532 240.183165 
L 169.564118 238.28362 
L 168.503015 236.339984 
L 167.668181 234.361096 
L 167.040068 232.355017 
L 166.5337 229.922147 
L 166.269916 227.472165 
L 166.222186 225.01531 
L 166.407313 222.152388 
L 166.818602 219.305163 
L 167.52541 216.084408 
L 168.444868 212.912323 
L 169.687703 209.416208 
L 171.274118 205.6371 
L 173.207207 201.624481 
L 175.472514 197.435059 
L 178.239365 192.810205 
L 181.467659 187.882735 
L 185.076972 182.798971 
L 189.142259 177.470145 
L 193.65785 171.928569 
L 198.505444 166.330001 
L 203.816288 160.539045 
L 209.350478 154.833769 
L 214.922985 149.405345 
L 219.922719 144.833488 
L 221.180313 143.756 
L 221.180312 143.756 
" style="fill:none;stroke:#ff7f0e;stroke-linecap:square;stroke-width:0.5;"/>
   </g>
   <g id="line2d_25">
    <path clip-path="url(#p661397c111)" d="M 399.740313 252.392861 
L 394.752666 253.704661 
L 389.84611 254.979837 
L 385.019925 256.218796 
L 380.27326 257.421992 
L 375.604833 258.590111 
L 371.013608 259.723704 
L 366.498508 260.823343 
L 362.058446 261.889607 
L 357.692385 262.923045 
L 353.399254 263.924226 
L 349.178069 264.89367 
L 345.027772 265.831937 
L 340.947414 266.739529 
L 336.935972 267.616986 
L 332.992517 268.464797 
L 329.116059 269.283483 
L 325.305689 270.073521 
L 321.560444 270.835419 
L 317.879437 271.56964 
L 314.26173 272.276677 
L 310.706471 272.956973 
L 307.212749 273.611006 
L 303.779671 274.239242 
L 300.406412 274.84211 
L 297.092106 275.420061 
L 293.835895 275.973542 
L 290.636961 276.502977 
L 287.494495 277.008785 
" style="fill:none;stroke:#ff7f0e;stroke-linecap:square;stroke-width:0.5;"/>
   </g>
   <g id="line2d_26">
    <path clip-path="url(#p661397c111)" d="M 379.370669 276.812 
L 374.462925 277.972316 
" style="fill:none;stroke:#ff7f0e;stroke-linecap:square;stroke-width:0.5;"/>
   </g>
   <g id="line2d_27">
    <path clip-path="url(#p661397c111)" d="M 334.094815 276.812 
L 330.085751 277.638331 
" style="fill:none;stroke:#ff7f0e;stroke-linecap:square;stroke-width:0.5;"/>
   </g>
   <g id="line2d_28">
    <path clip-path="url(#p661397c111)" d="M 297.257619 276.812 
L 293.979736 277.366594 
" style="fill:none;stroke:#ff7f0e;stroke-linecap:square;stroke-width:0.5;"/>
   </g>
   <g id="line2d_29">
    <path clip-path="url(#p661397c111)" d="M 265.1914 276.812 
L 262.54997 277.130065 
" style="fill:none;stroke:#ff7f0e;stroke-linecap:square;stroke-width:0.5;"/>
   </g>
   <g id="line2d_30">
    <path clip-path="url(#p661397c111)" d="M 235.595166 276.812 
L 233.541207 276.911731 
" style="fill:none;stroke:#ff7f0e;stroke-linecap:square;stroke-width:0.5;"/>
   </g>
   <g id="line2d_31">
    <path clip-path="url(#p661397c111)" d="M 206.765459 276.812 
L 201.02226 276.295575 
L 195.751693 275.615035 
L 190.92545 274.784083 
L 186.516779 273.815569 
L 182.500389 272.721537 
L 178.85224 271.513351 
L 175.54962 270.20165 
L 172.571062 268.796397 
L 169.896247 267.306937 
L 167.505929 265.742037 
L 165.381902 264.109906 
L 163.506951 262.418229 
L 161.864821 260.674177 
L 160.440143 258.884453 
L 159.218389 257.055322 
L 157.955721 254.722355 
L 156.963597 252.347457 
L 156.218627 249.940271 
L 155.699032 247.509611 
L 155.384617 245.063484 
L 155.251831 242.117921 
L 155.357658 239.171853 
L 155.674804 236.235303 
L 156.278669 232.833165 
L 157.10029 229.468349 
L 158.264744 225.681961 
L 159.628917 221.971146 
L 161.355728 217.900121 
L 163.458766 213.51953 
L 165.933709 208.888695 
L 168.75809 204.074123 
L 172.134959 198.781013 
L 175.765065 193.502124 
L 180.037344 187.69866 
L 184.576099 181.908489 
L 189.630827 175.821178 
L 195.081508 169.605762 
L 200.957278 163.247471 
L 207.009764 157.024421 
L 213.135778 151.043024 
L 218.764688 145.850269 
L 221.180313 143.756 
L 221.180312 143.756 
" style="fill:none;stroke:#ff7f0e;stroke-linecap:square;stroke-width:0.5;"/>
   </g>
   <g id="line2d_32">
    <path clip-path="url(#p661397c111)" d="M 177.169225 276.812 
L 173.723861 275.448054 
L 170.616274 273.986521 
L 167.82558 272.437023 
L 165.331523 270.808788 
L 163.115094 269.110394 
L 161.1583 267.349874 
L 159.444202 265.534705 
L 157.956799 263.671865 
L 156.680963 261.767879 
L 155.602381 259.828839 
L 154.511029 257.364362 
L 153.682102 254.86419 
L 153.092608 252.337662 
L 152.721148 249.793305 
L 152.547849 247.23887 
L 152.575535 244.170135 
L 152.83282 241.107832 
L 153.292885 238.06161 
L 154.053307 234.539342 
L 155.021161 231.062316 
L 156.34101 227.156694 
L 158.048837 222.864369 
L 159.943023 218.693085 
L 162.212022 214.21354 
L 164.847894 209.487265 
L 168.076148 204.185925 
L 171.606964 198.829902 
L 175.618764 193.159284 
L 180.006301 187.344367 
L 184.856898 181.285098 
L 190.157988 175.02069 
L 195.941016 168.539546 
L 201.974196 162.113891 
L 208.279276 155.727305 
L 214.463308 149.779216 
L 219.879439 144.865915 
L 221.180313 143.756 
L 221.180312 143.756 
" style="fill:none;stroke:#ff7f0e;stroke-linecap:square;stroke-width:0.5;"/>
   </g>
   <g id="line2d_33">
    <path clip-path="url(#p661397c111)" d="M 145.103006 276.812 
L 144.14745 274.529709 
L 143.383587 272.221885 
L 142.678317 269.309357 
L 142.226946 266.375329 
L 142.00631 263.428858 
L 141.995006 260.478125 
L 142.229886 256.942002 
L 142.705888 253.421922 
L 143.394134 249.928007 
L 144.430405 245.896606 
L 145.682098 241.925027 
L 147.3331 237.472518 
L 149.176464 233.124398 
L 151.43139 228.370238 
L 154.105369 223.271568 
L 157.186685 217.899073 
L 160.644206 212.330872 
L 164.429095 206.649947 
L 168.764073 200.549566 
L 173.545106 194.214329 
L 178.891993 187.517817 
L 184.576616 180.764862 
L 190.751705 173.786426 
L 197.133114 166.910978 
L 203.831 160.022625 
L 210.520202 153.459927 
L 216.838818 147.565515 
L 221.180313 143.756 
L 221.180312 143.756 
" style="fill:none;stroke:#ff7f0e;stroke-linecap:square;stroke-width:0.5;"/>
   </g>
   <g id="line2d_34">
    <path clip-path="url(#p661397c111)" d="M 108.26581 276.812 
L 112.584534 269.383775 
L 116.996527 262.248363 
L 121.949826 254.669262 
L 127.397433 246.758944 
L 133.272166 238.636273 
L 139.48884 230.42305 
L 146.398989 221.681107 
L 153.393884 213.186314 
L 161.134749 204.144535 
L 169.285886 194.981117 
L 177.78918 185.770245 
L 186.401301 176.772355 
L 195.116828 167.984825 
L 203.826662 159.5169 
L 212.092105 151.786978 
L 219.122985 145.503461 
L 221.180313 143.756 
L 221.180313 143.756 
" style="fill:none;stroke:#ff7f0e;stroke-linecap:square;stroke-width:0.5;"/>
   </g>
   <g id="line2d_35">
    <path clip-path="url(#p661397c111)" d="M 62.989956 276.812 
L 110.655004 236.188515 
L 153.123292 200.281247 
L 188.094346 170.995802 
L 213.520319 149.975589 
L 221.180313 143.756 
L 221.180312 143.756 
" style="fill:none;stroke:#ff7f0e;stroke-linecap:square;stroke-width:0.5;"/>
   </g>
   <g id="line2d_36">
    <path clip-path="url(#p661397c111)" d="M 42.620313 252.392861 
L 94.681652 219.746003 
L 136.054974 194.052031 
L 168.20066 174.340546 
L 191.574118 160.258743 
L 207.026294 151.190754 
L 216.115863 146.088811 
L 220.280889 143.969936 
L 221.230265 143.669221 
L 221.230862 143.670719 
L 221.180312 143.756 
L 221.180312 143.756 
" style="fill:none;stroke:#ff7f0e;stroke-linecap:square;stroke-width:0.5;"/>
   </g>
   <g id="line2d_37">
    <path clip-path="url(#p661397c111)" d="M 42.620313 220.575917 
L 73.003188 204.791316 
L 98.631017 191.714134 
L 121.723412 180.171327 
L 142.10821 170.232143 
L 158.743841 162.355303 
L 173.08518 155.79773 
L 185.184419 150.502146 
L 195.164808 146.372364 
L 203.202488 143.284787 
L 209.508662 141.09944 
L 214.119329 139.721849 
L 217.58028 138.903639 
L 220.076508 138.531561 
L 221.727217 138.495676 
L 222.769001 138.677713 
L 223.377993 138.992997 
L 223.692906 139.400496 
L 223.785718 139.899864 
L 223.662998 140.529483 
L 223.255796 141.366139 
L 222.470419 142.437812 
L 221.299249 143.652233 
L 221.180312 143.756 
L 221.180312 143.756 
" style="fill:none;stroke:#ff7f0e;stroke-linecap:square;stroke-width:0.5;"/>
   </g>
   <g id="line2d_38">
    <path clip-path="url(#p661397c111)" d="M 42.620313 194.217485 
L 67.106071 183.080492 
L 88.699386 173.486948 
L 109.683653 164.415415 
L 127.873977 156.801087 
L 143.611929 150.448868 
L 157.199533 145.187496 
L 169.979626 140.481368 
L 180.79145 136.740141 
L 189.90637 133.813869 
L 197.560597 131.573362 
L 204.485387 129.781141 
L 210.146096 128.550028 
L 214.740062 127.776038 
L 218.436156 127.37153 
L 221.378696 127.262841 
L 223.690846 127.388239 
L 225.477545 127.696175 
L 226.828062 128.143764 
L 227.818196 128.695485 
L 228.512185 129.322062 
L 228.9926 130.057621 
L 229.258561 130.888496 
L 229.317108 131.857373 
L 229.154121 132.940088 
L 228.734291 134.215479 
L 228.000339 135.717663 
L 226.87524 137.490646 
L 225.326926 139.499674 
L 223.359085 141.681354 
L 221.246919 143.700059 
L 221.180312 143.756 
L 221.180312 143.756 
" style="fill:none;stroke:#ff7f0e;stroke-linecap:square;stroke-width:0.5;"/>
   </g>
   <g id="line2d_39">
    <path clip-path="url(#p661397c111)" d="M 42.620313 170.919577 
L 63.967149 162.171744 
L 83.243572 154.482685 
L 102.972063 146.859564 
L 120.482372 140.345188 
L 135.998915 134.81416 
L 149.724777 130.153773 
L 161.843563 126.262858 
L 172.521254 123.050644 
L 181.90781 120.435767 
L 191.092514 118.117586 
L 198.987049 116.37124 
L 205.745499 115.115446 
L 211.504991 114.27867 
L 216.387386 113.798105 
L 220.501005 113.61863 
L 223.94203 113.691967 
L 226.795754 113.975935 
L 229.137786 114.43373 
L 231.035068 115.033328 
L 232.546786 115.74694 
L 233.725278 116.550486 
L 234.61672 117.423189 
L 235.261786 118.347198 
L 235.732925 119.415546 
L 236.001792 120.621055 
L 236.052654 121.950347 
L 235.882376 123.384457 
L 235.465912 125.006378 
L 234.747862 126.876498 
L 233.672436 129.014707 
L 232.219207 131.383069 
L 230.331948 134.014087 
L 228.008056 136.85985 
L 225.294744 139.827279 
L 222.375361 142.693029 
L 221.180312 143.756 
L 221.180313 143.756 
" style="fill:none;stroke:#ff7f0e;stroke-linecap:square;stroke-width:0.5;"/>
   </g>
   <g id="line2d_40">
    <path clip-path="url(#p661397c111)" d="M 42.620313 149.117973 
L 62.701924 141.590259 
L 81.05013 134.921148 
L 97.798739 129.036152 
L 115.482145 123.069968 
L 131.338533 117.977722 
L 145.53404 113.66856 
L 158.220795 110.059857 
L 169.537903 107.076606 
L 179.612557 104.65074 
L 188.561023 102.720533 
L 196.489554 101.230036 
L 203.495133 100.128633 
L 209.666278 99.370549 
L 215.083838 98.914372 
L 219.821515 98.722735 
L 223.94646 98.761966 
L 227.519868 99.001723 
L 230.597466 99.41471 
L 233.229959 99.97641 
L 235.463457 100.664832 
L 237.339877 101.460274 
L 238.897289 102.34512 
L 240.170264 103.303639 
L 241.190146 104.321823 
L 242.082122 105.542621 
L 242.718661 106.808798 
L 243.133767 108.106163 
L 243.373658 109.587753 
L 243.402527 111.244014 
L 243.197359 113.058636 
L 242.748852 115.008876 
L 242.001359 117.221771 
L 240.939017 119.642639 
L 239.499867 122.339876 
L 237.640105 125.321161 
L 235.372466 128.51764 
L 232.653508 131.953407 
L 229.519636 135.548851 
L 226.030951 139.209425 
L 222.519158 142.577538 
L 221.180312 143.756 
L 221.180312 143.756 
" style="fill:none;stroke:#ff7f0e;stroke-linecap:square;stroke-width:0.5;"/>
   </g>
   <g id="line2d_41">
    <path clip-path="url(#p661397c111)" d="M 42.620313 127.600077 
L 64.333798 120.109486 
L 84.123578 113.546284 
L 102.140269 107.827743 
L 118.523553 102.87758 
L 133.402376 98.625808 
L 146.896391 95.007881 
L 159.116461 91.964372 
L 170.165197 89.440651 
L 180.137555 87.386518 
L 189.121425 85.755839 
L 197.198123 84.50626 
L 204.442841 83.598922 
L 210.925097 82.998197 
L 216.709108 82.671462 
L 221.854207 82.588847 
L 226.415217 82.723014 
L 230.442717 83.048994 
L 233.983376 83.543993 
L 237.080244 84.187215 
L 239.773006 84.959716 
L 242.098216 85.844264 
L 244.089539 86.825195 
L 245.777983 87.888281 
L 247.192079 89.020621 
L 248.358058 90.210542 
L 249.300019 91.4475 
L 250.145255 92.937437 
L 250.747668 94.465005 
L 251.13619 96.018329 
L 251.351856 97.81167 
L 251.344811 99.836234 
L 251.115481 101.852637 
L 250.64637 104.067083 
L 249.921901 106.453988 
L 248.851591 109.187978 
L 247.413882 112.202206 
L 245.623338 115.41333 
L 243.418297 118.892454 
L 240.7743 122.632075 
L 237.741382 126.534221 
L 234.208004 130.710257 
L 230.310394 134.968095 
L 226.16331 139.168812 
L 222.214685 142.860867 
L 221.180312 143.756 
L 221.180312 143.756 
" style="fill:none;stroke:#ff7f0e;stroke-linecap:square;stroke-width:0.5;"/>
   </g>
   <g id="line2d_42">
    <path clip-path="url(#p661397c111)" d="M 42.620313 105.21586 
L 62.281458 98.934009 
L 80.449289 93.356723 
L 97.222846 88.43013 
L 112.695071 84.103938 
L 126.952933 80.331338 
L 140.078121 77.068599 
L 152.147346 74.274879 
L 163.232227 71.912286 
L 173.400062 69.945416 
L 182.713999 68.341249 
L 191.233092 67.069119 
L 199.012702 66.100464 
L 206.104702 65.408704 
L 212.557667 64.969127 
L 218.417063 64.75878 
L 223.725417 64.756363 
L 228.52256 64.942081 
L 232.845731 65.29759 
L 236.729753 65.805885 
L 240.207181 66.451216 
L 243.308432 67.21901 
L 246.061921 68.095791 
L 248.494192 69.069101 
L 250.630034 70.127437 
L 252.492577 71.260188 
L 254.103397 72.45758 
L 255.732337 73.967161 
L 257.059886 75.542727 
L 258.115603 77.171485 
L 258.926644 78.841899 
L 259.517998 80.543546 
L 259.960594 82.555932 
L 260.168138 84.585125 
L 260.155522 86.910156 
L 259.914366 89.227449 
L 259.413596 91.809592 
L 258.623483 94.630525 
L 257.529916 97.656249 
L 256.135165 100.845589 
L 254.322945 104.399045 
L 252.105004 108.219386 
L 249.531384 112.195067 
L 246.544929 116.39697 
L 243.144316 120.801939 
L 239.183604 125.557251 
L 234.874853 130.376853 
L 230.231303 135.234146 
L 225.522627 139.839711 
L 221.437739 143.540535 
L 221.180312 143.756 
L 221.180312 143.756 
" style="fill:none;stroke:#ff7f0e;stroke-linecap:square;stroke-width:0.5;"/>
   </g>
   <g id="line2d_43">
    <path clip-path="url(#p661397c111)" d="M 42.620313 80.620143 
L 63.851407 74.367984 
L 83.436045 68.876005 
L 101.484538 64.084794 
L 118.100166 59.939047 
L 133.379754 56.387206 
L 147.414248 53.381114 
L 160.288673 50.876034 
L 172.082758 48.830271 
L 182.871269 47.204977 
L 192.724262 45.963988 
L 201.707359 45.073666 
L 209.881855 44.50283 
L 217.305279 44.222422 
L 224.031503 44.205436 
L 230.110866 44.426851 
L 235.590454 44.863459 
L 240.514319 45.493738 
L 244.923637 46.297758 
L 248.856883 47.257072 
L 252.349997 48.354627 
L 255.436552 49.574658 
L 258.147894 50.902609 
L 260.513286 52.325048 
L 262.560026 53.829598 
L 264.31357 55.404867 
L 265.797643 57.04038 
L 267.03436 58.726514 
L 268.044304 60.45445 
L 268.846672 62.216087 
L 269.560534 64.36418 
L 270.029604 66.53861 
L 270.279974 68.729024 
L 270.327398 71.292449 
L 270.143996 73.852184 
L 269.691361 76.758761 
L 269.018896 79.63161 
L 268.044857 82.808395 
L 266.745376 86.25341 
L 265.11324 89.922639 
L 263.158455 93.764817 
L 260.730425 98.018482 
L 257.85893 102.563275 
L 254.613576 107.264939 
L 250.925587 112.206112 
L 246.798064 117.357698 
L 242.199709 122.732428 
L 237.198947 128.226121 
L 231.952482 133.655771 
L 226.663959 138.809854 
L 221.989242 143.067854 
L 221.180312 143.756 
L 221.180313 143.756 
" style="fill:none;stroke:#ff7f0e;stroke-linecap:square;stroke-width:0.5;"/>
   </g>
   <g id="line2d_44">
    <path clip-path="url(#p661397c111)" d="M 42.620313 51.914074 
L 61.221144 46.871875 
L 78.637678 42.366388 
L 94.934027 38.363342 
L 110.171562 34.830099 
L 124.408268 31.735965 
L 137.699121 29.051985 
L 150.096508 26.750692 
L 161.650122 24.806168 
L 172.407013 23.194009 
L 182.41186 21.891158 
L 191.707096 20.875843 
L 200.332994 20.127514 
L 208.327754 19.626794 
L 215.727607 19.355415 
L 222.566914 19.296165 
L 228.878252 19.432825 
L 234.692525 19.750117 
L 240.039017 20.233659 
L 244.945465 20.869932 
L 249.43815 21.646218 
L 253.541972 22.550562 
L 257.280522 23.571727 
L 260.676132 24.699162 
L 263.74995 25.922963 
L 266.521992 27.233838 
L 269.011205 28.623074 
L 271.235552 30.082482 
L 273.211907 31.604466 
L 274.956305 33.18187 
L 276.483864 34.808027 
L 278.110168 36.899779 
L 279.446299 39.046639 
L 280.516706 41.238247 
L 281.344125 43.465136 
L 281.949699 45.718657 
L 282.353092 47.990922 
L 282.595921 50.732311 
L 282.602997 53.479189 
L 282.400946 56.221625 
L 281.933276 59.403825 
L 281.249047 62.555823 
L 280.24204 66.107784 
L 278.871711 70.024052 
L 277.299737 73.841395 
L 275.370959 77.95238 
L 273.088094 82.301669 
L 270.471241 86.826988 
L 267.330989 91.805848 
L 263.720347 97.092772 
L 259.731952 102.529784 
L 255.284882 108.211072 
L 250.388178 114.100982 
L 245.010298 120.211585 
L 239.36529 126.286966 
L 233.432272 132.342929 
L 227.580819 138.000819 
L 222.394188 142.71938 
L 221.180312 143.756 
L 221.180312 143.756 
" style="fill:none;stroke:#ff7f0e;stroke-linecap:square;stroke-width:0.5;"/>
   </g>
   <g id="line2d_45">
    <path clip-path="url(#p661397c111)" d="M 42.620313 15.953977 
L 47.862578 14.643136 
L 53.018719 13.370781 
L 58.089318 12.136581 
L 63.075676 10.939843 
L 67.978936 9.779959 
" style="fill:none;stroke:#ff7f0e;stroke-linecap:square;stroke-width:0.5;"/>
   </g>
   <g id="line2d_46">
    <path clip-path="url(#p661397c111)" d="M 87.001177 10.7 
L 91.432319 9.716809 
" style="fill:none;stroke:#ff7f0e;stroke-linecap:square;stroke-width:0.5;"/>
   </g>
   <g id="line2d_47">
    <path clip-path="url(#p661397c111)" d="M 127.464795 10.7 
L 131.092775 10.015296 
" style="fill:none;stroke:#ff7f0e;stroke-linecap:square;stroke-width:0.5;"/>
   </g>
   <g id="line2d_48">
    <path clip-path="url(#p661397c111)" d="M 161.568225 10.7 
L 164.519295 10.266863 
" style="fill:none;stroke:#ff7f0e;stroke-linecap:square;stroke-width:0.5;"/>
   </g>
   <g id="line2d_49">
    <path clip-path="url(#p661397c111)" d="M 192.161488 10.7 
L 194.505326 10.492535 
" style="fill:none;stroke:#ff7f0e;stroke-linecap:square;stroke-width:0.5;"/>
   </g>
   <g id="line2d_50">
    <path clip-path="url(#p661397c111)" d="M 221.180312 10.7 
L 228.042647 10.803653 
L 234.366834 11.103743 
L 240.18453 11.584705 
L 245.525743 12.231887 
L 250.418902 13.031509 
L 254.890891 13.970645 
L 258.967193 15.037137 
L 262.671983 16.219542 
L 266.028149 17.50712 
L 269.057335 18.889804 
L 271.780016 20.35816 
L 274.215568 21.903346 
L 276.382314 23.517083 
L 278.297596 25.191617 
L 279.977792 26.919705 
L 281.438413 28.69456 
L 282.694094 30.50986 
L 283.996494 32.826906 
L 285.025555 35.1873 
L 285.80483 37.581309 
L 286.356232 40.000043 
L 286.70011 42.43541 
L 286.865396 45.369466 
L 286.789231 48.305404 
L 286.499192 51.233044 
L 285.923955 54.626204 
L 285.127967 57.983442 
L 283.989435 61.762727 
L 282.647919 65.467922 
L 280.943163 69.534148 
L 278.860983 73.910966 
L 276.405138 78.539237 
L 273.597556 83.352633 
L 270.235802 88.646091 
L 266.617578 93.926881 
L 262.588031 99.426356 
L 258.042946 105.255625 
L 252.972384 111.387867 
L 247.496191 117.653046 
L 241.728895 123.913701 
L 235.701151 130.132353 
L 229.566775 136.14222 
L 223.903144 141.387178 
L 221.180312 143.756 
L 221.180313 143.756 
" style="fill:none;stroke:#ff7f0e;stroke-linecap:square;stroke-width:0.5;"/>
   </g>
   <g id="line2d_51">
    <path clip-path="url(#p661397c111)" d="M 221.180313 143.756 
" style="fill:none;stroke:#ff7f0e;stroke-linecap:square;stroke-width:1.5;"/>
   </g>
   <g id="patch_74">
    <path d="M 42.620313 276.812 
L 42.620313 10.7 
" style="fill:none;stroke:#000000;stroke-linecap:square;stroke-linejoin:miter;stroke-width:0.8;"/>
   </g>
   <g id="patch_75">
    <path d="M 399.740313 276.812 
L 399.740313 10.7 
" style="fill:none;stroke:#000000;stroke-linecap:square;stroke-linejoin:miter;stroke-width:0.8;"/>
   </g>
   <g id="patch_76">
    <path d="M 42.620313 276.812 
L 399.740313 276.812 
" style="fill:none;stroke:#000000;stroke-linecap:square;stroke-linejoin:miter;stroke-width:0.8;"/>
   </g>
   <g id="patch_77">
    <path d="M 42.620313 10.7 
L 399.740313 10.7 
" style="fill:none;stroke:#000000;stroke-linecap:square;stroke-linejoin:miter;stroke-width:0.8;"/>
   </g>
   <g id="legend_1">
    <g id="patch_78">
     <path d="M 306.312813 273.812 
L 395.540313 273.812 
Q 396.740313 273.812 396.740313 272.612 
L 396.740313 264.405125 
Q 396.740313 263.205125 395.540313 263.205125 
L 306.312813 263.205125 
Q 305.112813 263.205125 305.112813 264.405125 
L 305.112813 272.612 
Q 305.112813 273.812 306.312813 273.812 
z
" style="fill:#ffffff;opacity:0.8;stroke:#cccccc;stroke-linejoin:miter;"/>
    </g>
    <g id="line2d_52">
     <path d="M 307.512812 268.064187 
L 319.512812 268.064187 
" style="fill:none;stroke:#ff7f0e;stroke-linecap:square;stroke-width:1.5;"/>
    </g>
    <g id="line2d_53"/>
    <g id="text_13">
     <!-- system zlinearyzowany -->
     <defs>
      <path d="M 44.28125 53.078125 
L 44.28125 44.578125 
Q 40.484375 46.53125 36.375 47.5 
Q 32.28125 48.484375 27.875 48.484375 
Q 21.1875 48.484375 17.84375 46.4375 
Q 14.5 44.390625 14.5 40.28125 
Q 14.5 37.15625 16.890625 35.375 
Q 19.28125 33.59375 26.515625 31.984375 
L 29.59375 31.296875 
Q 39.15625 29.25 43.1875 25.515625 
Q 47.21875 21.78125 47.21875 15.09375 
Q 47.21875 7.46875 41.1875 3.015625 
Q 35.15625 -1.421875 24.609375 -1.421875 
Q 20.21875 -1.421875 15.453125 -0.5625 
Q 10.6875 0.296875 5.421875 2 
L 5.421875 11.28125 
Q 10.40625 8.6875 15.234375 7.390625 
Q 20.0625 6.109375 24.8125 6.109375 
Q 31.15625 6.109375 34.5625 8.28125 
Q 37.984375 10.453125 37.984375 14.40625 
Q 37.984375 18.0625 35.515625 20.015625 
Q 33.0625 21.96875 24.703125 23.78125 
L 21.578125 24.515625 
Q 13.234375 26.265625 9.515625 29.90625 
Q 5.8125 33.546875 5.8125 39.890625 
Q 5.8125 47.609375 11.28125 51.796875 
Q 16.75 56 26.8125 56 
Q 31.78125 56 36.171875 55.265625 
Q 40.578125 54.546875 44.28125 53.078125 
" id="DejaVuSans-73"/>
      <path d="M 32.171875 -5.078125 
Q 28.375 -14.84375 24.75 -17.8125 
Q 21.140625 -20.796875 15.09375 -20.796875 
L 7.90625 -20.796875 
L 7.90625 -13.28125 
L 13.1875 -13.28125 
Q 16.890625 -13.28125 18.9375 -11.515625 
Q 21 -9.765625 23.484375 -3.21875 
L 25.09375 0.875 
L 2.984375 54.6875 
L 12.5 54.6875 
L 29.59375 11.921875 
L 46.6875 54.6875 
L 56.203125 54.6875 
z
" id="DejaVuSans-79"/>
      <path d="M 18.3125 70.21875 
L 18.3125 54.6875 
L 36.8125 54.6875 
L 36.8125 47.703125 
L 18.3125 47.703125 
L 18.3125 18.015625 
Q 18.3125 11.328125 20.140625 9.421875 
Q 21.96875 7.515625 27.59375 7.515625 
L 36.8125 7.515625 
L 36.8125 0 
L 27.59375 0 
Q 17.1875 0 13.234375 3.875 
Q 9.28125 7.765625 9.28125 18.015625 
L 9.28125 47.703125 
L 2.6875 47.703125 
L 2.6875 54.6875 
L 9.28125 54.6875 
L 9.28125 70.21875 
z
" id="DejaVuSans-74"/>
      <path d="M 56.203125 29.59375 
L 56.203125 25.203125 
L 14.890625 25.203125 
Q 15.484375 15.921875 20.484375 11.0625 
Q 25.484375 6.203125 34.421875 6.203125 
Q 39.59375 6.203125 44.453125 7.46875 
Q 49.3125 8.734375 54.109375 11.28125 
L 54.109375 2.78125 
Q 49.265625 0.734375 44.1875 -0.34375 
Q 39.109375 -1.421875 33.890625 -1.421875 
Q 20.796875 -1.421875 13.15625 6.1875 
Q 5.515625 13.8125 5.515625 26.8125 
Q 5.515625 40.234375 12.765625 48.109375 
Q 20.015625 56 32.328125 56 
Q 43.359375 56 49.78125 48.890625 
Q 56.203125 41.796875 56.203125 29.59375 
M 47.21875 32.234375 
Q 47.125 39.59375 43.09375 43.984375 
Q 39.0625 48.390625 32.421875 48.390625 
Q 24.90625 48.390625 20.390625 44.140625 
Q 15.875 39.890625 15.1875 32.171875 
z
" id="DejaVuSans-65"/>
      <path d="M 52 44.1875 
Q 55.375 50.25 60.0625 53.125 
Q 64.75 56 71.09375 56 
Q 79.640625 56 84.28125 50.015625 
Q 88.921875 44.046875 88.921875 33.015625 
L 88.921875 0 
L 79.890625 0 
L 79.890625 32.71875 
Q 79.890625 40.578125 77.09375 44.375 
Q 74.3125 48.1875 68.609375 48.1875 
Q 61.625 48.1875 57.5625 43.546875 
Q 53.515625 38.921875 53.515625 30.90625 
L 53.515625 0 
L 44.484375 0 
L 44.484375 32.71875 
Q 44.484375 40.625 41.703125 44.40625 
Q 38.921875 48.1875 33.109375 48.1875 
Q 26.21875 48.1875 22.15625 43.53125 
Q 18.109375 38.875 18.109375 30.90625 
L 18.109375 0 
L 9.078125 0 
L 9.078125 54.6875 
L 18.109375 54.6875 
L 18.109375 46.1875 
Q 21.1875 51.21875 25.484375 53.609375 
Q 29.78125 56 35.6875 56 
Q 41.65625 56 45.828125 52.96875 
Q 50 49.953125 52 44.1875 
" id="DejaVuSans-6d"/>
      <path id="DejaVuSans-20"/>
      <path d="M 5.515625 54.6875 
L 48.1875 54.6875 
L 48.1875 46.484375 
L 14.40625 7.171875 
L 48.1875 7.171875 
L 48.1875 0 
L 4.296875 0 
L 4.296875 8.203125 
L 38.09375 47.515625 
L 5.515625 47.515625 
z
" id="DejaVuSans-7a"/>
      <path d="M 9.421875 75.984375 
L 18.40625 75.984375 
L 18.40625 0 
L 9.421875 0 
z
" id="DejaVuSans-6c"/>
      <path d="M 9.421875 54.6875 
L 18.40625 54.6875 
L 18.40625 0 
L 9.421875 0 
z
M 9.421875 75.984375 
L 18.40625 75.984375 
L 18.40625 64.59375 
L 9.421875 64.59375 
z
" id="DejaVuSans-69"/>
      <path d="M 54.890625 33.015625 
L 54.890625 0 
L 45.90625 0 
L 45.90625 32.71875 
Q 45.90625 40.484375 42.875 44.328125 
Q 39.84375 48.1875 33.796875 48.1875 
Q 26.515625 48.1875 22.3125 43.546875 
Q 18.109375 38.921875 18.109375 30.90625 
L 18.109375 0 
L 9.078125 0 
L 9.078125 54.6875 
L 18.109375 54.6875 
L 18.109375 46.1875 
Q 21.34375 51.125 25.703125 53.5625 
Q 30.078125 56 35.796875 56 
Q 45.21875 56 50.046875 50.171875 
Q 54.890625 44.34375 54.890625 33.015625 
" id="DejaVuSans-6e"/>
      <path d="M 34.28125 27.484375 
Q 23.390625 27.484375 19.1875 25 
Q 14.984375 22.515625 14.984375 16.5 
Q 14.984375 11.71875 18.140625 8.90625 
Q 21.296875 6.109375 26.703125 6.109375 
Q 34.1875 6.109375 38.703125 11.40625 
Q 43.21875 16.703125 43.21875 25.484375 
L 43.21875 27.484375 
z
M 52.203125 31.203125 
L 52.203125 0 
L 43.21875 0 
L 43.21875 8.296875 
Q 40.140625 3.328125 35.546875 0.953125 
Q 30.953125 -1.421875 24.3125 -1.421875 
Q 15.921875 -1.421875 10.953125 3.296875 
Q 6 8.015625 6 15.921875 
Q 6 25.140625 12.171875 29.828125 
Q 18.359375 34.515625 30.609375 34.515625 
L 43.21875 34.515625 
L 43.21875 35.40625 
Q 43.21875 41.609375 39.140625 45 
Q 35.0625 48.390625 27.6875 48.390625 
Q 23 48.390625 18.546875 47.265625 
Q 14.109375 46.140625 10.015625 43.890625 
L 10.015625 52.203125 
Q 14.9375 54.109375 19.578125 55.046875 
Q 24.21875 56 28.609375 56 
Q 40.484375 56 46.34375 49.84375 
Q 52.203125 43.703125 52.203125 31.203125 
" id="DejaVuSans-61"/>
      <path d="M 41.109375 46.296875 
Q 39.59375 47.171875 37.8125 47.578125 
Q 36.03125 48 33.890625 48 
Q 26.265625 48 22.1875 43.046875 
Q 18.109375 38.09375 18.109375 28.8125 
L 18.109375 0 
L 9.078125 0 
L 9.078125 54.6875 
L 18.109375 54.6875 
L 18.109375 46.1875 
Q 20.953125 51.171875 25.484375 53.578125 
Q 30.03125 56 36.53125 56 
Q 37.453125 56 38.578125 55.875 
Q 39.703125 55.765625 41.0625 55.515625 
z
" id="DejaVuSans-72"/>
      <path d="M 30.609375 48.390625 
Q 23.390625 48.390625 19.1875 42.75 
Q 14.984375 37.109375 14.984375 27.296875 
Q 14.984375 17.484375 19.15625 11.84375 
Q 23.34375 6.203125 30.609375 6.203125 
Q 37.796875 6.203125 41.984375 11.859375 
Q 46.1875 17.53125 46.1875 27.296875 
Q 46.1875 37.015625 41.984375 42.703125 
Q 37.796875 48.390625 30.609375 48.390625 
M 30.609375 56 
Q 42.328125 56 49.015625 48.375 
Q 55.71875 40.765625 55.71875 27.296875 
Q 55.71875 13.875 49.015625 6.21875 
Q 42.328125 -1.421875 30.609375 -1.421875 
Q 18.84375 -1.421875 12.171875 6.21875 
Q 5.515625 13.875 5.515625 27.296875 
Q 5.515625 40.765625 12.171875 48.375 
Q 18.84375 56 30.609375 56 
" id="DejaVuSans-6f"/>
      <path d="M 4.203125 54.6875 
L 13.1875 54.6875 
L 24.421875 12.015625 
L 35.59375 54.6875 
L 46.1875 54.6875 
L 57.421875 12.015625 
L 68.609375 54.6875 
L 77.59375 54.6875 
L 63.28125 0 
L 52.6875 0 
L 40.921875 44.828125 
L 29.109375 0 
L 18.5 0 
z
" id="DejaVuSans-77"/>
     </defs>
     <g transform="translate(324.312813 270.164187)scale(0.06 -0.06)">
      <use xlink:href="#DejaVuSans-73"/>
      <use x="52.099609" xlink:href="#DejaVuSans-79"/>
      <use x="111.279297" xlink:href="#DejaVuSans-73"/>
      <use x="163.378906" xlink:href="#DejaVuSans-74"/>
      <use x="202.587891" xlink:href="#DejaVuSans-65"/>
      <use x="264.111328" xlink:href="#DejaVuSans-6d"/>
      <use x="361.523438" xlink:href="#DejaVuSans-20"/>
      <use x="393.310547" xlink:href="#DejaVuSans-7a"/>
      <use x="445.800781" xlink:href="#DejaVuSans-6c"/>
      <use x="473.583984" xlink:href="#DejaVuSans-69"/>
      <use x="501.367188" xlink:href="#DejaVuSans-6e"/>
      <use x="564.746094" xlink:href="#DejaVuSans-65"/>
      <use x="626.269531" xlink:href="#DejaVuSans-61"/>
      <use x="687.548828" xlink:href="#DejaVuSans-72"/>
      <use x="728.662109" xlink:href="#DejaVuSans-79"/>
      <use x="787.841797" xlink:href="#DejaVuSans-7a"/>
      <use x="840.332031" xlink:href="#DejaVuSans-6f"/>
      <use x="901.513672" xlink:href="#DejaVuSans-77"/>
      <use x="983.300781" xlink:href="#DejaVuSans-61"/>
      <use x="1044.580078" xlink:href="#DejaVuSans-6e"/>
      <use x="1107.958984" xlink:href="#DejaVuSans-79"/>
     </g>
    </g>
   </g>
  </g>
 </g>
 <defs>
  <clipPath id="p661397c111">
   <rect height="266.112" width="357.12" x="42.620313" y="10.7"/>
  </clipPath>
 </defs>
</svg>
