<?xml version="1.0" encoding="utf-8" standalone="no"?>
<!DOCTYPE svg PUBLIC "-//W3C//DTD SVG 1.1//EN"
  "http://www.w3.org/Graphics/SVG/1.1/DTD/svg11.dtd">
<!-- Created with matplotlib (http://matplotlib.org/) -->
<svg height="314pt" version="1.1" viewBox="0 0 419 314" width="419pt" xmlns="http://www.w3.org/2000/svg" xmlns:xlink="http://www.w3.org/1999/xlink">
 <defs>
  <style type="text/css">
*{stroke-linecap:butt;stroke-linejoin:round;}
  </style>
 </defs>
 <g id="figure_1">
  <g id="patch_1">
   <path d="M 0 314.36825 
L 419.980937 314.36825 
L 419.980937 0 
L 0 0 
z
" style="fill:#ffffff;"/>
  </g>
  <g id="axes_1">
   <g id="patch_2">
    <path d="M 52.160938 276.812 
L 409.280938 276.812 
L 409.280938 10.7 
L 52.160938 10.7 
z
" style="fill:#ffffff;"/>
   </g>
   <g id="patch_3">
    <path clip-path="url(#p9c2e536e8e)" d="M 294.627422 34.826772 
L 288.368501 31.131399 
L 291.442176 30.061236 
L 291.765436 29.948132 
L 291.765721 29.948587 
L 294.839397 28.878424 
z
" style="fill:#1f77b4;stroke:#1f77b4;stroke-linejoin:miter;"/>
   </g>
   <g id="patch_4">
    <path clip-path="url(#p9c2e536e8e)" d="M 286.406339 76.300145 
L 285.418995 70.395359 
L 288.617775 71.237691 
L 288.954694 71.325926 
L 288.954489 71.326358 
L 292.15327 72.168689 
z
" style="fill:#1f77b4;stroke:#1f77b4;stroke-linejoin:miter;"/>
   </g>
   <g id="patch_5">
    <path clip-path="url(#p9c2e536e8e)" d="M 302.599728 40.104309 
L 299.12637 34.746235 
L 302.518694 34.780748 
L 302.875791 34.783845 
L 302.875781 34.784381 
L 306.268105 34.818895 
z
" style="fill:#1f77b4;stroke:#1f77b4;stroke-linejoin:miter;"/>
   </g>
   <g id="patch_6">
    <path clip-path="url(#p9c2e536e8e)" d="M 265.433905 107.809096 
L 266.015973 101.87448 
L 268.931777 103.166876 
L 269.238932 103.302632 
L 269.238704 103.302918 
L 272.154509 104.595314 
z
" style="fill:#1f77b4;stroke:#1f77b4;stroke-linejoin:miter;"/>
   </g>
   <g id="patch_7">
    <path clip-path="url(#p9c2e536e8e)" d="M 332.389623 44.771972 
L 333.976416 38.94019 
L 336.648882 40.497547 
L 336.931021 40.660692 
L 336.930194 40.661479 
L 339.60266 42.218836 
z
" style="fill:#1f77b4;stroke:#1f77b4;stroke-linejoin:miter;"/>
   </g>
   <g id="patch_8">
    <path clip-path="url(#p9c2e536e8e)" d="M 275.510089 101.425189 
L 276.908628 95.566712 
L 279.630475 97.075834 
L 279.917349 97.234325 
L 279.916985 97.234689 
L 282.638832 98.743812 
z
" style="fill:#1f77b4;stroke:#1f77b4;stroke-linejoin:miter;"/>
   </g>
   <g id="patch_9">
    <path clip-path="url(#p9c2e536e8e)" d="M 384.702989 68.540762 
L 388.753014 63.412415 
L 390.598744 65.533611 
L 390.79548 65.755712 
L 390.793032 65.756895 
L 392.638762 67.878091 
z
" style="fill:#1f77b4;stroke:#1f77b4;stroke-linejoin:miter;"/>
   </g>
   <g id="patch_10">
    <path clip-path="url(#p9c2e536e8e)" d="M 304.247815 109.644757 
L 308.032783 104.405189 
L 309.985592 106.472464 
L 310.192271 106.689484 
L 310.191151 106.690072 
L 312.14396 108.757346 
z
" style="fill:#1f77b4;stroke:#1f77b4;stroke-linejoin:miter;"/>
   </g>
   <g id="patch_11">
    <path clip-path="url(#p9c2e536e8e)" d="M 354.499095 130.713232 
L 359.257234 125.934461 
L 360.790154 128.189748 
L 360.954059 128.426186 
L 360.951514 128.427147 
L 362.484434 130.682434 
z
" style="fill:#1f77b4;stroke:#1f77b4;stroke-linejoin:miter;"/>
   </g>
   <g id="patch_12">
    <path clip-path="url(#p9c2e536e8e)" d="M 276.810743 158.178748 
L 281.979188 153.64277 
L 283.310336 155.968109 
L 283.451677 156.212493 
L 283.450456 156.212881 
L 284.781604 158.538221 
z
" style="fill:#1f77b4;stroke:#1f77b4;stroke-linejoin:miter;"/>
   </g>
   <g id="patch_13">
    <path clip-path="url(#p9c2e536e8e)" d="M 372.188302 166.565014 
L 377.374202 162.040112 
L 378.696385 164.368289 
L 378.83902 164.61227 
L 378.835562 164.613361 
L 380.157745 166.941538 
z
" style="fill:#1f77b4;stroke:#1f77b4;stroke-linejoin:miter;"/>
   </g>
   <g id="patch_14">
    <path clip-path="url(#p9c2e536e8e)" d="M 260.241978 196.487292 
L 266.288233 192.600281 
L 267.121652 195.050878 
L 267.21079 195.308569 
L 267.20938 195.308836 
L 268.0428 197.759433 
z
" style="fill:#1f77b4;stroke:#1f77b4;stroke-linejoin:miter;"/>
   </g>
   <g id="patch_15">
    <path clip-path="url(#p9c2e536e8e)" d="M 341.265859 220.167186 
L 346.899455 215.949946 
L 347.979682 218.346438 
L 348.096831 218.597839 
L 348.09339 218.5987 
L 349.173616 220.995192 
z
" style="fill:#1f77b4;stroke:#1f77b4;stroke-linejoin:miter;"/>
   </g>
   <g id="patch_16">
    <path clip-path="url(#p9c2e536e8e)" d="M 215.965957 237.471976 
L 223.353827 235.21342 
L 223.101897 237.734505 
L 223.076477 237.999943 
L 223.075378 237.999882 
L 222.823449 240.520966 
z
" style="fill:#1f77b4;stroke:#1f77b4;stroke-linejoin:miter;"/>
   </g>
   <g id="patch_17">
    <path clip-path="url(#p9c2e536e8e)" d="M 396.86345 269.137254 
L 402.619598 265.012929 
L 403.629157 267.42647 
L 403.740888 267.679258 
L 403.735426 267.680526 
L 404.744985 270.094067 
z
" style="fill:#1f77b4;stroke:#1f77b4;stroke-linejoin:miter;"/>
   </g>
   <g id="patch_18">
    <path clip-path="url(#p9c2e536e8e)" d="M 370.748402 275.014947 
L 376.581595 270.951172 
L 377.545637 273.375024 
L 377.651989 273.62909 
L 377.647115 273.630166 
L 378.611158 276.054018 
z
" style="fill:#1f77b4;stroke:#1f77b4;stroke-linejoin:miter;"/>
   </g>
   <g id="patch_19">
    <path clip-path="url(#p9c2e536e8e)" d="M 320.423994 278.115743 
L 326.474693 274.232574 
L 327.305309 276.683699 
L 327.396494 276.941007 
L 327.392742 276.941713 
L 328.223357 279.392838 
z
" style="fill:#1f77b4;stroke:#1f77b4;stroke-linejoin:miter;"/>
   </g>
   <g id="patch_20">
    <path clip-path="url(#p9c2e536e8e)" d="M 253.424438 277.452459 
L 260.085368 274.170418 
L 260.49349 276.680123 
L 260.538812 276.94409 
L 260.536451 276.944303 
L 260.944573 279.454008 
z
" style="fill:#1f77b4;stroke:#1f77b4;stroke-linejoin:miter;"/>
   </g>
   <g id="patch_21">
    <path clip-path="url(#p9c2e536e8e)" d="M 167.574302 258.711007 
L 174.503234 261.668954 
L 171.678312 263.068949 
L 171.381347 263.21676 
L 171.380952 263.216317 
L 168.556029 264.616313 
z
" style="fill:#1f77b4;stroke:#1f77b4;stroke-linejoin:miter;"/>
   </g>
   <g id="patch_22">
    <path clip-path="url(#p9c2e536e8e)" d="M 194.311522 182.225558 
L 193.91178 188.168543 
L 190.957066 186.926184 
L 190.645819 186.795706 
L 190.646044 186.79541 
L 187.69133 185.553051 
z
" style="fill:#1f77b4;stroke:#1f77b4;stroke-linejoin:miter;"/>
   </g>
   <g id="patch_23">
    <path clip-path="url(#p9c2e536e8e)" d="M 153.829011 234.890479 
L 154.252844 240.832537 
L 151.142123 239.823559 
L 150.814333 239.717943 
L 150.814679 239.71735 
L 147.703958 238.708372 
z
" style="fill:#1f77b4;stroke:#1f77b4;stroke-linejoin:miter;"/>
   </g>
   <g id="patch_24">
    <path clip-path="url(#p9c2e536e8e)" d="M 182.446384 194.671482 
L 181.915554 200.608765 
L 178.988654 199.330371 
L 178.680256 199.196189 
L 178.68056 199.195803 
L 175.75366 197.917409 
z
" style="fill:#1f77b4;stroke:#1f77b4;stroke-linejoin:miter;"/>
   </g>
   <g id="patch_25">
    <path clip-path="url(#p9c2e536e8e)" d="M 77.363857 251.627677 
L 74.000706 257.024649 
L 71.887483 255.04691 
L 71.663054 254.839904 
L 71.665038 254.838727 
L 69.551814 252.860988 
z
" style="fill:#1f77b4;stroke:#1f77b4;stroke-linejoin:miter;"/>
   </g>
   <g id="patch_26">
    <path clip-path="url(#p9c2e536e8e)" d="M 159.332118 197.249055 
L 156.648753 202.853485 
L 154.300575 201.028818 
L 154.052605 200.837316 
L 154.053399 200.836748 
L 151.705221 199.012081 
z
" style="fill:#1f77b4;stroke:#1f77b4;stroke-linejoin:miter;"/>
   </g>
   <g id="patch_27">
    <path clip-path="url(#p9c2e536e8e)" d="M 95.186705 184.042783 
L 90.757539 188.994033 
L 89.074157 186.799127 
L 88.894501 186.569131 
L 88.896959 186.568084 
L 87.213578 184.373178 
z
" style="fill:#1f77b4;stroke:#1f77b4;stroke-linejoin:miter;"/>
   </g>
   <g id="patch_28">
    <path clip-path="url(#p9c2e536e8e)" d="M 157.284478 157.562928 
L 152.814836 162.49394 
L 151.149465 160.291418 
L 150.972762 160.060162 
L 150.974163 160.059574 
L 149.308793 157.857052 
z
" style="fill:#1f77b4;stroke:#1f77b4;stroke-linejoin:miter;"/>
   </g>
   <g id="patch_29">
    <path clip-path="url(#p9c2e536e8e)" d="M 105.411531 136.499976 
L 100.397519 141.131202 
L 98.988457 138.831495 
L 98.837279 138.590392 
L 98.840135 138.58942 
L 97.431072 136.289713 
z
" style="fill:#1f77b4;stroke:#1f77b4;stroke-linejoin:miter;"/>
   </g>
   <g id="patch_30">
    <path clip-path="url(#p9c2e536e8e)" d="M 180.1706 113.217557 
L 174.704898 117.555743 
L 173.531094 115.183812 
L 173.406004 114.934556 
L 173.407536 114.934135 
L 172.233733 112.562204 
z
" style="fill:#1f77b4;stroke:#1f77b4;stroke-linejoin:miter;"/>
   </g>
   <g id="patch_31">
    <path clip-path="url(#p9c2e536e8e)" d="M 142.820397 84.507893 
L 137.231984 88.758382 
L 136.126217 86.368367 
L 136.007114 86.117482 
L 136.00982 86.116787 
L 134.904053 83.726771 
z
" style="fill:#1f77b4;stroke:#1f77b4;stroke-linejoin:miter;"/>
   </g>
   <g id="patch_32">
    <path clip-path="url(#p9c2e536e8e)" d="M 239.941394 70.247437 
L 232.704514 72.762831 
L 232.796779 70.235702 
L 232.805554 69.969669 
L 232.806491 69.969688 
L 232.898756 67.442559 
z
" style="fill:#1f77b4;stroke:#1f77b4;stroke-linejoin:miter;"/>
   </g>
   <g id="patch_33">
    <path clip-path="url(#p9c2e536e8e)" d="M 142.917985 35.484109 
L 136.986363 39.467984 
L 136.081767 37.031442 
L 135.983185 36.775657 
L 135.986547 36.774964 
L 135.081951 34.338422 
z
" style="fill:#1f77b4;stroke:#1f77b4;stroke-linejoin:miter;"/>
   </g>
   <g id="patch_34">
    <path clip-path="url(#p9c2e536e8e)" d="M 288.372678 46.932303 
L 282.136931 43.21524 
L 285.217264 42.155759 
L 285.541257 42.043827 
L 285.54151 42.044235 
L 288.621843 40.984755 
z
" style="fill:#1f77b4;stroke:#1f77b4;stroke-linejoin:miter;"/>
   </g>
   <g id="patch_35">
    <path clip-path="url(#p9c2e536e8e)" d="M 98.608193 9.220697 
L 92.738758 13.255391 
L 91.796431 10.826803 
L 91.692515 10.57218 
L 91.697239 10.571162 
L 90.754912 8.142573 
z
" style="fill:#1f77b4;stroke:#1f77b4;stroke-linejoin:miter;"/>
   </g>
   <g id="patch_36">
    <path clip-path="url(#p9c2e536e8e)" d="M 176.428962 9.659693 
L 170.121956 13.309388 
L 169.4591 10.830046 
L 169.386325 10.569508 
L 169.389326 10.569063 
L 168.726471 8.089721 
z
" style="fill:#1f77b4;stroke:#1f77b4;stroke-linejoin:miter;"/>
   </g>
   <g id="patch_37">
    <path clip-path="url(#p9c2e536e8e)" d="M 294.953985 35.815329 
L 288.87516 31.956628 
L 291.997907 30.968493 
L 292.326355 30.86402 
L 292.326617 30.864479 
L 295.449364 29.876344 
z
" style="fill:#1f77b4;stroke:#1f77b4;stroke-linejoin:miter;"/>
   </g>
   <g id="patch_38">
    <path clip-path="url(#p9c2e536e8e)" d="M 284.080487 80.489519 
L 283.348453 74.564129 
L 286.509232 75.48267 
L 286.842163 75.578942 
L 286.841945 75.579358 
L 290.002724 76.497898 
z
" style="fill:#1f77b4;stroke:#1f77b4;stroke-linejoin:miter;"/>
   </g>
   <g id="patch_39">
    <path clip-path="url(#p9c2e536e8e)" d="M 274.203606 16.647007 
L 266.258947 17.247658 
L 267.462126 14.883915 
L 267.587793 14.634822 
L 267.588776 14.6351 
L 268.791955 12.271356 
z
" style="fill:#ff7f0e;stroke:#ff7f0e;stroke-linejoin:miter;"/>
   </g>
   <g id="patch_40">
    <path clip-path="url(#p9c2e536e8e)" d="M 273.823133 97.279731 
L 273.952261 91.330064 
L 276.961799 92.497064 
L 277.278834 92.619562 
L 277.278593 92.619907 
L 280.288131 93.786908 
z
" style="fill:#ff7f0e;stroke:#ff7f0e;stroke-linejoin:miter;"/>
   </g>
   <g id="patch_41">
    <path clip-path="url(#p9c2e536e8e)" d="M 302.99358 43.494828 
L 299.817211 38.035382 
L 303.204802 38.173252 
L 303.56143 38.187223 
L 303.561391 38.187764 
L 306.948982 38.325634 
z
" style="fill:#ff7f0e;stroke:#ff7f0e;stroke-linejoin:miter;"/>
   </g>
   <g id="patch_42">
    <path clip-path="url(#p9c2e536e8e)" d="M 280.695924 89.179261 
L 280.723982 83.228853 
L 283.753102 84.367375 
L 284.072224 84.486824 
L 284.071956 84.48722 
L 287.101076 85.625742 
z
" style="fill:#ff7f0e;stroke:#ff7f0e;stroke-linejoin:miter;"/>
   </g>
   <g id="patch_43">
    <path clip-path="url(#p9c2e536e8e)" d="M 351.249208 29.73189 
L 352.561772 23.862378 
L 355.305582 25.349252 
L 355.595308 25.504839 
L 355.594404 25.505765 
L 358.338214 26.99264 
z
" style="fill:#ff7f0e;stroke:#ff7f0e;stroke-linejoin:miter;"/>
   </g>
   <g id="patch_44">
    <path clip-path="url(#p9c2e536e8e)" d="M 289.50145 90.552526 
L 291.083183 84.71998 
L 293.756999 86.276049 
L 294.038945 86.439377 
L 294.038454 86.439846 
L 296.712271 87.995915 
z
" style="fill:#ff7f0e;stroke:#ff7f0e;stroke-linejoin:miter;"/>
   </g>
   <g id="patch_45">
    <path clip-path="url(#p9c2e536e8e)" d="M 380.93086 72.427156 
L 384.569003 67.130152 
L 386.578999 69.166764 
L 386.792684 69.37999 
L 386.790578 69.381144 
L 388.800573 71.417757 
z
" style="fill:#ff7f0e;stroke:#ff7f0e;stroke-linejoin:miter;"/>
   </g>
   <g id="patch_46">
    <path clip-path="url(#p9c2e536e8e)" d="M 278.616329 126.321491 
L 282.56259 121.14842 
L 284.450842 123.248732 
L 284.650403 123.469419 
L 284.649606 123.469817 
L 286.537859 125.570129 
z
" style="fill:#ff7f0e;stroke:#ff7f0e;stroke-linejoin:miter;"/>
   </g>
   <g id="patch_47">
    <path clip-path="url(#p9c2e536e8e)" d="M 339.674879 138.475019 
L 344.351586 133.651818 
L 345.922635 135.892489 
L 346.090194 136.127498 
L 346.088009 136.128349 
L 347.659058 138.369019 
z
" style="fill:#ff7f0e;stroke:#ff7f0e;stroke-linejoin:miter;"/>
   </g>
   <g id="patch_48">
    <path clip-path="url(#p9c2e536e8e)" d="M 274.477461 161.182539 
L 279.714827 156.690671 
L 281.010385 159.027145 
L 281.147964 159.272719 
L 281.14676 159.27309 
L 282.442318 161.609564 
z
" style="fill:#ff7f0e;stroke:#ff7f0e;stroke-linejoin:miter;"/>
   </g>
   <g id="patch_49">
    <path clip-path="url(#p9c2e536e8e)" d="M 355.874323 173.012169 
L 360.985338 168.4402 
L 362.345751 170.756116 
L 362.491927 170.998926 
L 362.488952 170.999896 
L 363.849366 173.315812 
z
" style="fill:#ff7f0e;stroke:#ff7f0e;stroke-linejoin:miter;"/>
   </g>
   <g id="patch_50">
    <path clip-path="url(#p9c2e536e8e)" d="M 250.054435 199.674767 
L 256.332246 195.997229 
L 257.014847 198.473594 
L 257.087951 198.734072 
L 257.0867 198.734264 
L 257.769301 201.210629 
z
" style="fill:#ff7f0e;stroke:#ff7f0e;stroke-linejoin:miter;"/>
   </g>
   <g id="patch_51">
    <path clip-path="url(#p9c2e536e8e)" d="M 334.4746 222.989345 
L 340.098491 218.764918 
L 341.184227 221.160028 
L 341.301739 221.411333 
L 341.298515 221.412144 
L 342.38425 223.807254 
z
" style="fill:#ff7f0e;stroke:#ff7f0e;stroke-linejoin:miter;"/>
   </g>
   <g id="patch_52">
    <path clip-path="url(#p9c2e536e8e)" d="M 200.100683 235.420337 
L 207.986739 234.484437 
L 206.965657 236.895284 
L 206.858941 237.149238 
L 206.858175 237.149057 
L 205.837092 239.559904 
z
" style="fill:#ff7f0e;stroke:#ff7f0e;stroke-linejoin:miter;"/>
   </g>
   <g id="patch_53">
    <path clip-path="url(#p9c2e536e8e)" d="M 392.237617 270.5025 
L 397.893893 266.30215 
L 398.961197 268.701855 
L 399.078548 268.95322 
L 399.073545 268.954456 
L 400.140849 271.354161 
z
" style="fill:#ff7f0e;stroke:#ff7f0e;stroke-linejoin:miter;"/>
   </g>
   <g id="patch_54">
    <path clip-path="url(#p9c2e536e8e)" d="M 372.683219 275.140585 
L 378.432569 271.010998 
L 379.446103 273.423613 
L 379.557469 273.676481 
L 379.552791 273.677573 
L 380.566325 276.090188 
z
" style="fill:#ff7f0e;stroke:#ff7f0e;stroke-linejoin:miter;"/>
   </g>
   <g id="patch_55">
    <path clip-path="url(#p9c2e536e8e)" d="M 320.431702 278.138088 
L 326.459766 274.235421 
L 327.304625 276.683842 
L 327.397243 276.940864 
L 327.393558 276.94157 
L 328.238417 279.389992 
z
" style="fill:#ff7f0e;stroke:#ff7f0e;stroke-linejoin:miter;"/>
   </g>
   <g id="patch_56">
    <path clip-path="url(#p9c2e536e8e)" d="M 253.424521 277.452957 
L 260.085036 274.170448 
L 260.493475 276.680125 
L 260.538828 276.944088 
L 260.536469 276.944301 
L 260.944909 279.453978 
z
" style="fill:#ff7f0e;stroke:#ff7f0e;stroke-linejoin:miter;"/>
   </g>
   <g id="patch_57">
    <path clip-path="url(#p9c2e536e8e)" d="M 165.303155 254.682453 
L 171.616898 258.325674 
L 168.559402 259.42127 
L 168.237861 259.537061 
L 168.23756 259.536596 
L 165.180064 260.632192 
z
" style="fill:#ff7f0e;stroke:#ff7f0e;stroke-linejoin:miter;"/>
   </g>
   <g id="patch_58">
    <path clip-path="url(#p9c2e536e8e)" d="M 180.848528 199.6029 
L 181.101495 205.550359 
L 178.020485 204.491972 
L 177.695925 204.380956 
L 177.696168 204.380563 
L 174.615158 203.322176 
z
" style="fill:#ff7f0e;stroke:#ff7f0e;stroke-linejoin:miter;"/>
   </g>
   <g id="patch_59">
    <path clip-path="url(#p9c2e536e8e)" d="M 150.313027 237.426607 
L 150.908741 243.360472 
L 147.769541 242.401721 
L 147.438759 242.301418 
L 147.439099 242.300799 
L 144.299899 241.342048 
z
" style="fill:#ff7f0e;stroke:#ff7f0e;stroke-linejoin:miter;"/>
   </g>
   <g id="patch_60">
    <path clip-path="url(#p9c2e536e8e)" d="M 178.346248 197.901375 
L 177.767637 203.836179 
L 174.85108 202.544726 
L 174.543742 202.409199 
L 174.544074 202.408783 
L 171.627517 201.11733 
z
" style="fill:#ff7f0e;stroke:#ff7f0e;stroke-linejoin:miter;"/>
   </g>
   <g id="patch_61">
    <path clip-path="url(#p9c2e536e8e)" d="M 80.791223 246.487378 
L 77.975691 252.055689 
L 75.671045 250.200461 
L 75.426783 250.006323 
L 75.42845 250.005173 
L 73.123804 248.149945 
z
" style="fill:#ff7f0e;stroke:#ff7f0e;stroke-linejoin:miter;"/>
   </g>
   <g id="patch_62">
    <path clip-path="url(#p9c2e536e8e)" d="M 174.845693 181.775726 
L 172.009695 187.338267 
L 169.711879 185.478339 
L 169.469344 185.283011 
L 169.470004 185.282558 
L 167.172189 183.42263 
z
" style="fill:#ff7f0e;stroke:#ff7f0e;stroke-linejoin:miter;"/>
   </g>
   <g id="patch_63">
    <path clip-path="url(#p9c2e536e8e)" d="M 96.048989 181.543679 
L 91.856755 186.608174 
L 90.070607 184.458841 
L 89.880336 184.233636 
L 89.882591 184.232596 
L 88.096442 182.083264 
z
" style="fill:#ff7f0e;stroke:#ff7f0e;stroke-linejoin:miter;"/>
   </g>
   <g id="patch_64">
    <path clip-path="url(#p9c2e536e8e)" d="M 180.040061 145.538064 
L 175.377508 150.368867 
L 173.799892 148.13076 
L 173.632752 147.89559 
L 173.633827 147.89517 
L 172.056212 145.657062 
z
" style="fill:#ff7f0e;stroke:#ff7f0e;stroke-linejoin:miter;"/>
   </g>
   <g id="patch_65">
    <path clip-path="url(#p9c2e536e8e)" d="M 101.846896 136.161342 
L 96.983756 140.881057 
L 95.500903 138.607258 
L 95.342057 138.368909 
L 95.344813 138.367911 
L 93.86196 136.094112 
z
" style="fill:#ff7f0e;stroke:#ff7f0e;stroke-linejoin:miter;"/>
   </g>
   <g id="patch_66">
    <path clip-path="url(#p9c2e536e8e)" d="M 181.910113 110.776716 
L 176.405536 115.087523 
L 175.253081 112.709787 
L 175.130253 112.459907 
L 175.131769 112.459499 
L 173.979314 110.081762 
z
" style="fill:#ff7f0e;stroke:#ff7f0e;stroke-linejoin:miter;"/>
   </g>
   <g id="patch_67">
    <path clip-path="url(#p9c2e536e8e)" d="M 115.735215 90.384008 
L 110.366248 94.788758 
L 109.14012 92.431572 
L 109.007955 92.184342 
L 109.011053 92.183447 
L 107.784925 89.826261 
z
" style="fill:#ff7f0e;stroke:#ff7f0e;stroke-linejoin:miter;"/>
   </g>
   <g id="patch_68">
    <path clip-path="url(#p9c2e536e8e)" d="M 240.03605 68.841427 
L 232.797142 71.353577 
L 232.891447 68.82649 
L 232.900419 68.560461 
L 232.901374 68.560481 
L 232.995678 66.033394 
z
" style="fill:#ff7f0e;stroke:#ff7f0e;stroke-linejoin:miter;"/>
   </g>
   <g id="patch_69">
    <path clip-path="url(#p9c2e536e8e)" d="M 152.903104 32.481229 
L 146.911909 36.415295 
L 146.044033 33.971348 
L 145.949535 33.71471 
L 145.952677 33.714091 
L 145.084801 31.270144 
z
" style="fill:#ff7f0e;stroke:#ff7f0e;stroke-linejoin:miter;"/>
   </g>
   <g id="patch_70">
    <path clip-path="url(#p9c2e536e8e)" d="M 283.167347 36.732114 
L 275.454676 35.190143 
L 277.706422 33.299187 
L 277.942914 33.099786 
L 277.943448 33.100139 
L 280.195194 31.209184 
z
" style="fill:#ff7f0e;stroke:#ff7f0e;stroke-linejoin:miter;"/>
   </g>
   <g id="patch_71">
    <path clip-path="url(#p9c2e536e8e)" d="M 98.584052 9.160329 
L 92.779066 13.24647 
L 91.798259 10.826356 
L 91.69049 10.572626 
L 91.695016 10.571607 
L 90.714208 8.151493 
z
" style="fill:#ff7f0e;stroke:#ff7f0e;stroke-linejoin:miter;"/>
   </g>
   <g id="patch_72">
    <path clip-path="url(#p9c2e536e8e)" d="M 176.427418 9.653996 
L 170.125762 13.308819 
L 169.459275 10.830018 
L 169.386134 10.569537 
L 169.389118 10.569091 
L 168.722632 8.09029 
z
" style="fill:#ff7f0e;stroke:#ff7f0e;stroke-linejoin:miter;"/>
   </g>
   <g id="patch_73">
    <path clip-path="url(#p9c2e536e8e)" d="M 281.019256 19.742525 
L 273.040034 19.507638 
L 274.675868 17.29286 
L 274.847254 17.059394 
L 274.848061 17.059725 
L 276.483895 14.844947 
z
" style="fill:#ff7f0e;stroke:#ff7f0e;stroke-linejoin:miter;"/>
   </g>
   <g id="patch_74">
    <path clip-path="url(#p9c2e536e8e)" d="M 283.197222 83.452034 
L 282.649429 77.515606 
L 285.780831 78.488414 
L 286.110682 78.590404 
L 286.110452 78.590815 
L 289.241854 79.563622 
z
" style="fill:#ff7f0e;stroke:#ff7f0e;stroke-linejoin:miter;"/>
   </g>
   <g id="matplotlib.axis_1">
    <g id="xtick_1">
     <g id="line2d_1">
      <defs>
       <path d="M 0 0 
L 0 3.5 
" id="mb6fad99a4e" style="stroke:#000000;stroke-width:0.8;"/>
      </defs>
      <g>
       <use style="stroke:#000000;stroke-width:0.8;" x="87.872938" xlink:href="#mb6fad99a4e" y="276.812"/>
      </g>
     </g>
     <g id="text_1">
      <!-- −0.4 -->
      <defs>
       <path d="M 10.59375 35.5 
L 73.1875 35.5 
L 73.1875 27.203125 
L 10.59375 27.203125 
z
" id="DejaVuSans-2212"/>
       <path d="M 31.78125 66.40625 
Q 24.171875 66.40625 20.328125 58.90625 
Q 16.5 51.421875 16.5 36.375 
Q 16.5 21.390625 20.328125 13.890625 
Q 24.171875 6.390625 31.78125 6.390625 
Q 39.453125 6.390625 43.28125 13.890625 
Q 47.125 21.390625 47.125 36.375 
Q 47.125 51.421875 43.28125 58.90625 
Q 39.453125 66.40625 31.78125 66.40625 
M 31.78125 74.21875 
Q 44.046875 74.21875 50.515625 64.515625 
Q 56.984375 54.828125 56.984375 36.375 
Q 56.984375 17.96875 50.515625 8.265625 
Q 44.046875 -1.421875 31.78125 -1.421875 
Q 19.53125 -1.421875 13.0625 8.265625 
Q 6.59375 17.96875 6.59375 36.375 
Q 6.59375 54.828125 13.0625 64.515625 
Q 19.53125 74.21875 31.78125 74.21875 
" id="DejaVuSans-30"/>
       <path d="M 10.6875 12.40625 
L 21 12.40625 
L 21 0 
L 10.6875 0 
z
" id="DejaVuSans-2e"/>
       <path d="M 37.796875 64.3125 
L 12.890625 25.390625 
L 37.796875 25.390625 
z
M 35.203125 72.90625 
L 47.609375 72.90625 
L 47.609375 25.390625 
L 58.015625 25.390625 
L 58.015625 17.1875 
L 47.609375 17.1875 
L 47.609375 0 
L 37.796875 0 
L 37.796875 17.1875 
L 4.890625 17.1875 
L 4.890625 26.703125 
z
" id="DejaVuSans-34"/>
      </defs>
      <g transform="translate(75.731531 291.410438)scale(0.1 -0.1)">
       <use xlink:href="#DejaVuSans-2212"/>
       <use x="83.789062" xlink:href="#DejaVuSans-30"/>
       <use x="147.412109" xlink:href="#DejaVuSans-2e"/>
       <use x="179.199219" xlink:href="#DejaVuSans-34"/>
      </g>
     </g>
    </g>
    <g id="xtick_2">
     <g id="line2d_2">
      <g>
       <use style="stroke:#000000;stroke-width:0.8;" x="159.296938" xlink:href="#mb6fad99a4e" y="276.812"/>
      </g>
     </g>
     <g id="text_2">
      <!-- −0.2 -->
      <defs>
       <path d="M 19.1875 8.296875 
L 53.609375 8.296875 
L 53.609375 0 
L 7.328125 0 
L 7.328125 8.296875 
Q 12.9375 14.109375 22.625 23.890625 
Q 32.328125 33.6875 34.8125 36.53125 
Q 39.546875 41.84375 41.421875 45.53125 
Q 43.3125 49.21875 43.3125 52.78125 
Q 43.3125 58.59375 39.234375 62.25 
Q 35.15625 65.921875 28.609375 65.921875 
Q 23.96875 65.921875 18.8125 64.3125 
Q 13.671875 62.703125 7.8125 59.421875 
L 7.8125 69.390625 
Q 13.765625 71.78125 18.9375 73 
Q 24.125 74.21875 28.421875 74.21875 
Q 39.75 74.21875 46.484375 68.546875 
Q 53.21875 62.890625 53.21875 53.421875 
Q 53.21875 48.921875 51.53125 44.890625 
Q 49.859375 40.875 45.40625 35.40625 
Q 44.1875 33.984375 37.640625 27.21875 
Q 31.109375 20.453125 19.1875 8.296875 
" id="DejaVuSans-32"/>
      </defs>
      <g transform="translate(147.155531 291.410438)scale(0.1 -0.1)">
       <use xlink:href="#DejaVuSans-2212"/>
       <use x="83.789062" xlink:href="#DejaVuSans-30"/>
       <use x="147.412109" xlink:href="#DejaVuSans-2e"/>
       <use x="179.199219" xlink:href="#DejaVuSans-32"/>
      </g>
     </g>
    </g>
    <g id="xtick_3">
     <g id="line2d_3">
      <g>
       <use style="stroke:#000000;stroke-width:0.8;" x="230.720938" xlink:href="#mb6fad99a4e" y="276.812"/>
      </g>
     </g>
     <g id="text_3">
      <!-- 0.0 -->
      <g transform="translate(222.769375 291.410438)scale(0.1 -0.1)">
       <use xlink:href="#DejaVuSans-30"/>
       <use x="63.623047" xlink:href="#DejaVuSans-2e"/>
       <use x="95.410156" xlink:href="#DejaVuSans-30"/>
      </g>
     </g>
    </g>
    <g id="xtick_4">
     <g id="line2d_4">
      <g>
       <use style="stroke:#000000;stroke-width:0.8;" x="302.144938" xlink:href="#mb6fad99a4e" y="276.812"/>
      </g>
     </g>
     <g id="text_4">
      <!-- 0.2 -->
      <g transform="translate(294.193375 291.410438)scale(0.1 -0.1)">
       <use xlink:href="#DejaVuSans-30"/>
       <use x="63.623047" xlink:href="#DejaVuSans-2e"/>
       <use x="95.410156" xlink:href="#DejaVuSans-32"/>
      </g>
     </g>
    </g>
    <g id="xtick_5">
     <g id="line2d_5">
      <g>
       <use style="stroke:#000000;stroke-width:0.8;" x="373.568938" xlink:href="#mb6fad99a4e" y="276.812"/>
      </g>
     </g>
     <g id="text_5">
      <!-- 0.4 -->
      <g transform="translate(365.617375 291.410438)scale(0.1 -0.1)">
       <use xlink:href="#DejaVuSans-30"/>
       <use x="63.623047" xlink:href="#DejaVuSans-2e"/>
       <use x="95.410156" xlink:href="#DejaVuSans-34"/>
      </g>
     </g>
    </g>
    <g id="text_6">
     <!-- x1 -->
     <defs>
      <path d="M 54.890625 54.6875 
L 35.109375 28.078125 
L 55.90625 0 
L 45.3125 0 
L 29.390625 21.484375 
L 13.484375 0 
L 2.875 0 
L 24.125 28.609375 
L 4.6875 54.6875 
L 15.28125 54.6875 
L 29.78125 35.203125 
L 44.28125 54.6875 
z
" id="DejaVuSans-78"/>
      <path d="M 12.40625 8.296875 
L 28.515625 8.296875 
L 28.515625 63.921875 
L 10.984375 60.40625 
L 10.984375 69.390625 
L 28.421875 72.90625 
L 38.28125 72.90625 
L 38.28125 8.296875 
L 54.390625 8.296875 
L 54.390625 0 
L 12.40625 0 
z
" id="DejaVuSans-31"/>
     </defs>
     <g transform="translate(224.580313 305.088562)scale(0.1 -0.1)">
      <use xlink:href="#DejaVuSans-78"/>
      <use x="59.179688" xlink:href="#DejaVuSans-31"/>
     </g>
    </g>
   </g>
   <g id="matplotlib.axis_2">
    <g id="ytick_1">
     <g id="line2d_6">
      <defs>
       <path d="M 0 0 
L -3.5 0 
" id="m5b74fe9e86" style="stroke:#000000;stroke-width:0.8;"/>
      </defs>
      <g>
       <use style="stroke:#000000;stroke-width:0.8;" x="52.160938" xlink:href="#m5b74fe9e86" y="250.2008"/>
      </g>
     </g>
     <g id="text_7">
      <!-- −0.4 -->
      <g transform="translate(20.878125 254.000019)scale(0.1 -0.1)">
       <use xlink:href="#DejaVuSans-2212"/>
       <use x="83.789062" xlink:href="#DejaVuSans-30"/>
       <use x="147.412109" xlink:href="#DejaVuSans-2e"/>
       <use x="179.199219" xlink:href="#DejaVuSans-34"/>
      </g>
     </g>
    </g>
    <g id="ytick_2">
     <g id="line2d_7">
      <g>
       <use style="stroke:#000000;stroke-width:0.8;" x="52.160938" xlink:href="#m5b74fe9e86" y="196.9784"/>
      </g>
     </g>
     <g id="text_8">
      <!-- −0.2 -->
      <g transform="translate(20.878125 200.777619)scale(0.1 -0.1)">
       <use xlink:href="#DejaVuSans-2212"/>
       <use x="83.789062" xlink:href="#DejaVuSans-30"/>
       <use x="147.412109" xlink:href="#DejaVuSans-2e"/>
       <use x="179.199219" xlink:href="#DejaVuSans-32"/>
      </g>
     </g>
    </g>
    <g id="ytick_3">
     <g id="line2d_8">
      <g>
       <use style="stroke:#000000;stroke-width:0.8;" x="52.160938" xlink:href="#m5b74fe9e86" y="143.756"/>
      </g>
     </g>
     <g id="text_9">
      <!-- 0.0 -->
      <g transform="translate(29.257812 147.555219)scale(0.1 -0.1)">
       <use xlink:href="#DejaVuSans-30"/>
       <use x="63.623047" xlink:href="#DejaVuSans-2e"/>
       <use x="95.410156" xlink:href="#DejaVuSans-30"/>
      </g>
     </g>
    </g>
    <g id="ytick_4">
     <g id="line2d_9">
      <g>
       <use style="stroke:#000000;stroke-width:0.8;" x="52.160938" xlink:href="#m5b74fe9e86" y="90.5336"/>
      </g>
     </g>
     <g id="text_10">
      <!-- 0.2 -->
      <g transform="translate(29.257812 94.332819)scale(0.1 -0.1)">
       <use xlink:href="#DejaVuSans-30"/>
       <use x="63.623047" xlink:href="#DejaVuSans-2e"/>
       <use x="95.410156" xlink:href="#DejaVuSans-32"/>
      </g>
     </g>
    </g>
    <g id="ytick_5">
     <g id="line2d_10">
      <g>
       <use style="stroke:#000000;stroke-width:0.8;" x="52.160938" xlink:href="#m5b74fe9e86" y="37.3112"/>
      </g>
     </g>
     <g id="text_11">
      <!-- 0.4 -->
      <g transform="translate(29.257812 41.110419)scale(0.1 -0.1)">
       <use xlink:href="#DejaVuSans-30"/>
       <use x="63.623047" xlink:href="#DejaVuSans-2e"/>
       <use x="95.410156" xlink:href="#DejaVuSans-34"/>
      </g>
     </g>
    </g>
    <g id="text_12">
     <!-- x2 -->
     <g transform="translate(14.798438 149.896625)rotate(-90)scale(0.1 -0.1)">
      <use xlink:href="#DejaVuSans-78"/>
      <use x="59.179688" xlink:href="#DejaVuSans-32"/>
     </g>
    </g>
   </g>
   <g id="line2d_11">
    <path clip-path="url(#p9c2e536e8e)" d="M 230.720938 10.7 
L 237.583241 10.803654 
L 243.907086 11.103742 
L 249.723496 11.584678 
L 255.061695 12.231777 
L 259.949339 13.031198 
L 264.412639 13.969922 
L 268.476585 15.03568 
L 272.165024 16.216924 
L 275.500717 17.502797 
L 278.505372 18.883108 
L 281.199695 20.3483 
L 283.603423 21.889415 
L 285.735335 23.498079 
L 287.613288 25.16646 
L 289.254258 26.887244 
L 290.674344 28.653608 
L 291.888805 30.459202 
L 293.139638 32.762391 
L 294.118141 35.107032 
L 294.848919 37.483442 
L 295.354799 39.882819 
L 295.656936 42.297185 
L 295.777993 45.20409 
L 295.664727 48.11106 
L 295.34525 51.008258 
L 294.745726 54.364506 
L 293.936347 57.683862 
L 292.795499 61.419366 
L 291.286877 65.532982 
L 289.391248 69.976756 
L 287.108082 74.693461 
L 284.455576 79.617978 
L 281.469239 84.679329 
L 277.965477 90.156074 
L 274.016343 95.890056 
L 269.729528 101.714302 
L 265.032716 107.719747 
L 259.944055 113.865816 
L 254.438905 120.160865 
L 248.732198 126.348364 
L 242.892869 132.354917 
L 237.1085 137.987557 
L 232.027356 142.635949 
L 230.720937 143.756 
L 230.720937 143.756 
" style="fill:none;stroke:#1f77b4;stroke-linecap:square;stroke-width:0.5;"/>
   </g>
   <g id="line2d_12">
    <path clip-path="url(#p9c2e536e8e)" d="M 292.020663 10.7 
L 294.050504 12.558021 
L 295.820151 14.472604 
L 297.34723 16.436333 
L 298.648692 18.442237 
L 299.740775 20.483722 
L 300.63857 22.554793 
L 301.509158 25.176835 
L 302.124386 27.826479 
L 302.508461 30.49463 
L 302.683695 33.173106 
L 302.647156 36.390571 
L 302.371797 39.601035 
L 301.887134 42.794448 
L 301.092615 46.486848 
L 300.087155 50.132132 
L 298.722354 54.227614 
L 296.963665 58.730307 
L 295.019742 63.108556 
L 292.697413 67.814218 
L 290.005056 72.784741 
L 286.71179 78.368869 
L 283.110965 84.022341 
L 279.015641 90.023837 
L 274.526103 96.198639 
L 269.542914 102.659451 
L 264.273102 109.123896 
L 258.583248 115.745935 
L 252.573935 122.388495 
L 246.483451 128.787389 
L 240.412815 134.846075 
L 234.678185 140.26096 
L 230.720937 143.756 
L 230.720938 143.756 
" style="fill:none;stroke:#1f77b4;stroke-linecap:square;stroke-width:0.5;"/>
   </g>
   <g id="line2d_13">
    <path clip-path="url(#p9c2e536e8e)" d="M 369.699764 10.7 
L 359.453107 19.670603 
L 349.287397 28.877198 
L 338.467671 38.985477 
L 326.642354 50.352201 
L 313.17723 63.615361 
L 293.366404 83.487845 
L 268.749542 108.130151 
L 255.891541 120.679567 
L 245.335519 130.677858 
L 236.65942 138.599216 
L 230.720937 143.756 
L 230.720937 143.756 
" style="fill:none;stroke:#1f77b4;stroke-linecap:square;stroke-width:0.5;"/>
   </g>
   <g id="line2d_14">
    <path clip-path="url(#p9c2e536e8e)" d="M 409.280938 56.826177 
L 393.195069 64.442707 
L 374.499234 73.55676 
L 354.645423 83.509159 
L 333.338887 94.44571 
L 302.579262 110.521478 
L 270.665927 127.14557 
L 256.332027 134.365263 
L 246.532845 139.06995 
L 239.667497 142.137292 
L 235.078209 143.960689 
L 232.305587 144.842965 
L 230.837542 145.100725 
L 230.229458 145.016994 
L 230.061038 144.806961 
L 230.119716 144.498885 
L 230.471721 144.001242 
L 230.720938 143.756 
L 230.720937 143.756 
" style="fill:none;stroke:#1f77b4;stroke-linecap:square;stroke-width:0.5;"/>
   </g>
   <g id="line2d_15">
    <path clip-path="url(#p9c2e536e8e)" d="M 409.280938 110.061645 
L 371.551028 124.271038 
L 333.214197 138.664167 
L 312.513266 146.19031 
L 296.749059 151.681584 
L 283.381616 156.090107 
L 273.08735 159.268107 
L 263.301469 162.050461 
L 255.015287 164.160894 
L 248.021 165.703188 
L 242.142203 166.766856 
L 237.227196 167.429244 
L 233.144663 167.75716 
L 229.780285 167.808281 
L 227.034299 167.632321 
L 224.819546 167.272034 
L 223.059854 166.764106 
L 221.688699 166.139918 
L 220.648088 165.426211 
L 219.887521 164.645685 
L 219.322115 163.732749 
L 218.992179 162.783436 
L 218.850476 161.726799 
L 218.912362 160.4898 
L 219.20825 159.097524 
L 219.776199 157.50552 
L 220.695951 155.628007 
L 221.982828 153.529463 
L 223.690791 151.182217 
L 225.831895 148.624497 
L 228.353224 145.962346 
L 230.720938 143.756 
L 230.720937 143.756 
" style="fill:none;stroke:#1f77b4;stroke-linecap:square;stroke-width:0.5;"/>
   </g>
   <g id="line2d_16">
    <path clip-path="url(#p9c2e536e8e)" d="M 409.280938 154.781334 
L 365.355935 168.699877 
L 341.526054 175.997204 
L 323.441394 181.295176 
L 307.522606 185.707748 
L 295.372563 188.865128 
L 284.441936 191.507048 
L 274.605442 193.685146 
L 265.756667 195.445903 
L 257.803625 196.831376 
L 250.66558 197.879772 
L 244.270751 198.625895 
L 238.554647 199.101507 
L 233.458839 199.335628 
L 228.930059 199.35478 
L 224.919501 199.183211 
L 221.382303 198.843075 
L 218.277147 198.354597 
L 215.565923 197.73623 
L 213.213454 197.004788 
L 211.187264 196.175577 
L 209.457384 195.262508 
L 207.776949 194.108045 
L 206.422135 192.874585 
L 205.35647 191.578144 
L 204.546876 190.23293 
L 203.963405 188.851509 
L 203.538853 187.242556 
L 203.338138 185.615137 
L 203.339983 183.77754 
L 203.577816 181.744674 
L 204.071288 179.538555 
L 204.825522 177.187817 
L 205.915277 174.541527 
L 207.347087 171.667854 
L 209.192749 168.487981 
L 211.396901 165.139227 
L 214.046932 161.520052 
L 217.125252 157.693049 
L 220.658482 153.66033 
L 224.511914 149.603181 
L 228.411777 145.816278 
L 230.720938 143.756 
L 230.720937 143.756 
" style="fill:none;stroke:#1f77b4;stroke-linecap:square;stroke-width:0.5;"/>
   </g>
   <g id="line2d_17">
    <path clip-path="url(#p9c2e536e8e)" d="M 409.280938 202.119773 
L 378.236574 210.602737 
L 355.131906 216.670798 
L 337.915421 220.980057 
L 322.294886 224.67824 
L 308.083877 227.821237 
L 295.132883 230.458664 
L 283.319228 232.635095 
L 272.539992 234.390948 
L 262.70762 235.76307 
L 253.74593 236.785284 
L 245.587486 237.488772 
L 238.172119 237.902309 
L 231.445211 238.052552 
L 225.356779 237.964207 
L 219.860716 237.660191 
L 214.914206 237.161768 
L 210.477333 236.488662 
L 206.512771 235.659155 
L 202.985526 234.690187 
L 199.862762 233.597434 
L 197.113668 232.395389 
L 194.709351 231.097428 
L 192.622729 229.715888 
L 190.828433 228.262125 
L 189.30273 226.74658 
L 188.023422 225.178843 
L 186.969808 223.567697 
L 186.122556 221.921194 
L 185.353019 219.90902 
L 184.826093 217.867974 
L 184.515548 215.808297 
L 184.394839 213.393936 
L 184.501636 210.979359 
L 184.862791 208.233668 
L 185.439901 205.516132 
L 186.302634 202.507145 
L 187.47445 199.239667 
L 188.962877 195.754604 
L 190.759174 192.099811 
L 193.003217 188.046873 
L 195.669917 183.708257 
L 198.69691 179.21009 
L 202.151695 174.470861 
L 206.036616 169.515151 
L 210.388688 164.326454 
L 215.153218 159.00026 
L 220.115025 153.787756 
L 225.151051 148.817842 
L 229.681068 144.648288 
L 230.720938 143.756 
L 230.720938 143.756 
" style="fill:none;stroke:#1f77b4;stroke-linecap:square;stroke-width:0.5;"/>
   </g>
   <g id="line2d_18">
    <path clip-path="url(#p9c2e536e8e)" d="M 409.280938 266.242677 
L 403.687753 267.55223 
L 398.226277 268.820721 
L 392.891426 270.049034 
L 387.678693 271.238012 
L 382.583421 272.38855 
L 377.60125 273.501519 
L 372.727946 274.577771 
L 367.959668 275.618112 
L 363.292887 276.623305 
L 358.724284 277.594093 
" style="fill:none;stroke:#1f77b4;stroke-linecap:square;stroke-width:0.5;"/>
   </g>
   <g id="line2d_19">
    <path clip-path="url(#p9c2e536e8e)" d="M 327.352777 276.812 
L 323.600847 277.517976 
" style="fill:none;stroke:#1f77b4;stroke-linecap:square;stroke-width:0.5;"/>
   </g>
   <g id="line2d_20">
    <path clip-path="url(#p9c2e536e8e)" d="M 260.517332 276.812 
L 258.156226 277.025198 
" style="fill:none;stroke:#1f77b4;stroke-linecap:square;stroke-width:0.5;"/>
   </g>
   <g id="line2d_21">
    <path clip-path="url(#p9c2e536e8e)" d="M 200.924543 276.812 
L 196.385634 275.855236 
L 192.25314 274.769263 
L 188.502858 273.565821 
L 185.111558 272.255998 
L 182.057143 270.850179 
L 179.318561 269.358079 
L 176.875814 267.788759 
L 174.709604 266.150849 
L 172.801758 264.452303 
L 171.135043 262.700529 
L 169.693068 260.902458 
L 168.460279 259.06456 
L 167.191118 256.72031 
L 166.198881 254.334053 
L 165.458523 251.91561 
L 164.946767 249.473942 
L 164.64216 247.01708 
L 164.522091 244.059104 
L 164.640084 241.101189 
L 164.967512 238.153341 
L 165.579802 234.738546 
L 166.405128 231.361391 
L 167.567409 227.560939 
L 169.10338 223.375903 
L 170.830705 219.300593 
L 172.92018 214.914758 
L 175.366366 210.276359 
L 178.382286 205.05936 
L 181.700922 199.772044 
L 185.494347 194.154117 
L 189.669576 188.369464 
L 194.318492 182.312981 
L 199.441968 176.0163 
L 204.918211 169.650108 
L 210.634599 163.350029 
L 216.562509 157.151549 
L 222.430272 151.336585 
L 227.866203 146.254765 
L 230.720938 143.756 
L 230.720937 143.756 
" style="fill:none;stroke:#1f77b4;stroke-linecap:square;stroke-width:0.5;"/>
   </g>
   <g id="line2d_22">
    <path clip-path="url(#p9c2e536e8e)" d="M 134.089098 276.812 
L 135.724719 271.813422 
L 137.556846 266.905338 
L 139.846147 261.418827 
L 142.616384 255.416191 
L 145.539978 249.604825 
L 148.912702 243.382547 
L 152.714356 236.832316 
L 156.907612 230.044396 
L 161.439745 223.113902 
L 166.584064 215.658773 
L 172.227553 207.894071 
L 178.22458 200.041294 
L 184.40563 192.316504 
L 190.845292 184.619495 
L 197.496144 177.00953 
L 204.361603 169.488722 
L 211.312092 162.204586 
L 218.125952 155.382929 
L 224.550756 149.258578 
L 229.910887 144.44016 
L 230.720938 143.756 
L 230.720938 143.756 
" style="fill:none;stroke:#1f77b4;stroke-linecap:square;stroke-width:0.5;"/>
   </g>
   <g id="line2d_23">
    <path clip-path="url(#p9c2e536e8e)" d="M 52.160938 266.242677 
L 65.60243 258.565556 
L 77.621525 251.456725 
L 90.14521 243.803927 
L 102.814117 235.809284 
L 116.630304 226.805476 
L 129.728416 218.003977 
L 143.868225 208.227697 
L 158.804147 197.615716 
L 174.457977 186.216467 
L 192.257449 172.972659 
L 214.842753 155.870645 
L 230.720938 143.756 
L 230.720937 143.756 
" style="fill:none;stroke:#1f77b4;stroke-linecap:square;stroke-width:0.5;"/>
   </g>
   <g id="line2d_24">
    <path clip-path="url(#p9c2e536e8e)" d="M 52.160938 202.119773 
L 75.954635 192.204235 
L 105.270619 179.725413 
L 153.841195 159.009709 
L 171.049529 151.919563 
L 184.912207 146.443446 
L 196.094305 142.268731 
L 205.101022 139.14323 
L 212.329718 136.861505 
L 218.100385 135.25535 
L 222.961576 134.127861 
L 226.712531 133.479463 
L 229.568909 133.198512 
L 231.707295 133.195218 
L 233.272305 133.397681 
L 234.382164 133.748642 
L 235.133293 134.202803 
L 235.627151 134.76107 
L 235.8876 135.401549 
L 235.943173 136.139449 
L 235.783532 137.023635 
L 235.353998 138.110689 
L 234.577034 139.441574 
L 233.390117 141.014662 
L 231.782023 142.766313 
L 230.720937 143.756 
L 230.720938 143.756 
" style="fill:none;stroke:#1f77b4;stroke-linecap:square;stroke-width:0.5;"/>
   </g>
   <g id="line2d_25">
    <path clip-path="url(#p9c2e536e8e)" d="M 52.160938 154.781334 
L 115.25253 133.190526 
L 136.591875 126.181713 
L 152.88797 121.067489 
L 167.072438 116.860123 
L 179.441093 113.442923 
L 190.230584 110.714907 
L 199.63481 108.587919 
L 207.817234 106.984378 
L 214.918037 105.835731 
L 221.059336 105.081218 
L 226.348736 104.666906 
L 230.881704 104.544917 
L 234.743479 104.672744 
L 238.010381 105.012692 
L 240.75088 105.53138 
L 243.026458 106.19929 
L 244.892304 106.99038 
L 246.397917 107.881733 
L 247.587664 108.853225 
L 248.501276 109.887227 
L 249.17428 110.968351 
L 249.683138 112.224349 
L 249.967439 113.50673 
L 250.062397 114.945767 
L 249.946099 116.527803 
L 249.572796 118.373901 
L 248.904238 120.4457 
L 247.934 122.689571 
L 246.618683 125.158534 
L 244.931957 127.851665 
L 242.76171 130.882036 
L 240.193514 134.079693 
L 237.164275 137.487784 
L 233.863042 140.86374 
L 230.813802 143.67862 
L 230.720937 143.756 
L 230.720937 143.756 
" style="fill:none;stroke:#1f77b4;stroke-linecap:square;stroke-width:0.5;"/>
   </g>
   <g id="line2d_26">
    <path clip-path="url(#p9c2e536e8e)" d="M 52.160938 110.061645 
L 84.869444 100.42089 
L 109.260844 93.464387 
L 127.636187 88.452639 
L 144.035791 84.217155 
L 158.718014 80.675675 
L 171.887096 77.756133 
L 183.70829 75.394692 
L 194.318689 73.53424 
L 203.834624 72.12331 
L 212.356755 71.115268 
L 219.973696 70.467703 
L 226.764544 70.141943 
L 232.800698 70.102676 
L 238.147159 70.317636 
L 242.863477 70.757333 
L 247.004424 71.394837 
L 250.620522 72.205572 
L 253.758451 73.167126 
L 256.46137 74.259097 
L 258.769163 75.462936 
L 260.718662 76.761815 
L 262.343853 78.140485 
L 263.676059 79.585162 
L 264.744112 81.083406 
L 265.574553 82.623997 
L 266.1917 84.196879 
L 266.67186 86.060691 
L 266.924273 87.943467 
L 266.970954 90.104252 
L 266.796619 92.261045 
L 266.378674 94.667641 
L 265.688378 97.300342 
L 264.711908 100.127907 
L 263.450911 103.112288 
L 261.798983 106.441978 
L 259.76505 110.027159 
L 257.26141 113.962528 
L 254.371762 118.075687 
L 250.987163 122.489586 
L 247.242349 127.002766 
L 243.044367 131.706093 
L 238.572938 136.375435 
L 234.112906 140.713612 
L 230.720937 143.756 
L 230.720938 143.756 
" style="fill:none;stroke:#1f77b4;stroke-linecap:square;stroke-width:0.5;"/>
   </g>
   <g id="line2d_27">
    <path clip-path="url(#p9c2e536e8e)" d="M 52.160938 56.826177 
L 81.190313 49.506586 
L 102.605533 44.341482 
L 121.910995 39.933921 
L 139.392544 36.210875 
L 152.214395 33.682244 
L 164.101869 31.521651 
L 175.131498 29.702418 
L 185.368624 28.199974 
L 194.869851 26.991562 
L 203.684909 26.056003 
L 211.858067 25.373517 
L 219.42922 24.925577 
L 226.434729 24.69479 
L 232.908074 24.664794 
L 238.880307 24.820201 
L 244.380466 25.146512 
L 249.435857 25.630065 
L 254.072257 26.257997 
L 258.314106 27.018183 
L 262.184622 27.899211 
L 265.705887 28.890346 
L 268.89893 29.981496 
L 271.783788 31.163178 
L 274.379551 32.42649 
L 276.704397 33.763087 
L 278.775621 35.165153 
L 280.609651 36.625383 
L 282.592342 38.522098 
L 284.257504 40.48669 
L 285.632012 42.50783 
L 286.740944 44.575158 
L 287.607654 46.679219 
L 288.253868 48.811396 
L 288.699737 50.963857 
L 288.996559 53.563627 
L 289.061374 56.171383 
L 288.921193 58.777372 
L 288.531109 61.804021 
L 287.930303 64.80468 
L 287.025504 68.189221 
L 285.778136 71.924683 
L 284.166048 75.968592 
L 282.185217 80.269474 
L 279.849939 84.768089 
L 277.191579 89.399322 
L 274.045449 94.41814 
L 270.474595 99.679813 
L 266.577134 105.030597 
L 262.100716 110.787867 
L 257.288395 116.608524 
L 252.136346 122.491312 
L 246.630571 128.435749 
L 241.055868 134.128501 
L 235.588545 139.397266 
L 231.038974 143.490052 
L 230.720937 143.756 
L 230.720938 143.756 
" style="fill:none;stroke:#1f77b4;stroke-linecap:square;stroke-width:0.5;"/>
   </g>
   <g id="line2d_28">
    <path clip-path="url(#p9c2e536e8e)" d="M 91.742111 10.7 
L 96.466484 9.68213 
" style="fill:none;stroke:#1f77b4;stroke-linecap:square;stroke-width:0.5;"/>
   </g>
   <g id="line2d_29">
    <path clip-path="url(#p9c2e536e8e)" d="M 169.421212 10.7 
L 172.422401 10.254471 
" style="fill:none;stroke:#1f77b4;stroke-linecap:square;stroke-width:0.5;"/>
   </g>
   <g id="line2d_30">
    <path clip-path="url(#p9c2e536e8e)" d="M 230.720937 10.7 
L 237.583241 10.803654 
L 243.907086 11.103742 
L 249.723496 11.584678 
L 255.061695 12.231777 
L 259.949339 13.031198 
L 264.412639 13.969922 
L 268.476585 15.03568 
L 272.165024 16.216924 
L 275.500717 17.502797 
L 278.505372 18.883108 
L 281.199695 20.3483 
L 283.603423 21.889415 
L 285.735335 23.498079 
L 287.613288 25.16646 
L 289.254258 26.887244 
L 290.674344 28.653608 
L 291.888805 30.459202 
L 293.139638 32.762391 
L 294.118141 35.107032 
L 294.848919 37.483442 
L 295.354799 39.882819 
L 295.656936 42.297185 
L 295.777993 45.20409 
L 295.664727 48.11106 
L 295.34525 51.008258 
L 294.745726 54.364506 
L 293.936347 57.683862 
L 292.795499 61.419366 
L 291.286877 65.532982 
L 289.391248 69.976756 
L 287.108082 74.693461 
L 284.455576 79.617978 
L 281.469239 84.679329 
L 277.965477 90.156074 
L 274.016343 95.890056 
L 269.729528 101.714302 
L 265.032716 107.719747 
L 259.944055 113.865816 
L 254.438905 120.160865 
L 248.732198 126.348364 
L 242.892869 132.354917 
L 237.1085 137.987557 
L 232.027356 142.635949 
L 230.720937 143.756 
L 230.720937 143.756 
" style="fill:none;stroke:#1f77b4;stroke-linecap:square;stroke-width:0.5;"/>
   </g>
   <g id="line2d_31">
    <path clip-path="url(#p9c2e536e8e)" d="M 230.720938 143.756 
" style="fill:none;stroke:#1f77b4;stroke-linecap:square;stroke-width:1.5;"/>
   </g>
   <g id="line2d_32">
    <path clip-path="url(#p9c2e536e8e)" d="M 230.720938 10.7 
L 237.58327 10.803654 
L 243.907457 11.103745 
L 249.725152 11.584708 
L 255.066359 12.231893 
L 259.959508 13.031521 
L 264.43149 13.970662 
L 268.507792 15.037154 
L 272.212575 16.219564 
L 275.568716 17.507156 
L 278.597838 18.889877 
L 281.320475 20.358258 
L 283.755998 21.90346 
L 285.922744 23.517199 
L 287.838051 25.191719 
L 289.518292 26.919782 
L 290.978952 28.694617 
L 292.234663 30.509901 
L 293.53708 32.826938 
L 294.56614 35.187334 
L 295.345414 37.581345 
L 295.89682 40.000078 
L 296.240728 42.435429 
L 296.406068 45.369454 
L 296.329935 48.305375 
L 296.039904 51.233012 
L 295.464642 54.626189 
L 294.668617 57.983451 
L 293.53007 61.762746 
L 292.188599 65.467916 
L 290.483925 69.534095 
L 288.40177 73.910899 
L 285.945872 78.539204 
L 283.138262 83.352618 
L 279.776546 88.646054 
L 276.158398 93.926802 
L 272.128879 99.426263 
L 267.583754 105.255557 
L 262.513173 111.38781 
L 257.036943 117.653011 
L 251.26961 123.913685 
L 245.241826 130.132357 
L 239.107417 136.142235 
L 233.443762 141.38719 
L 230.720937 143.756 
L 230.720938 143.756 
" style="fill:none;stroke:#ff7f0e;stroke-linecap:square;stroke-width:0.5;"/>
   </g>
   <g id="line2d_33">
    <path clip-path="url(#p9c2e536e8e)" d="M 292.020663 10.7 
L 294.123563 12.559107 
L 295.96741 14.47697 
L 297.569055 16.446199 
L 298.944663 18.459821 
L 300.109708 20.511222 
L 301.078561 22.594356 
L 302.03427 25.234391 
L 302.729404 27.905106 
L 303.187216 30.597171 
L 303.429145 33.302183 
L 303.475074 36.012521 
L 303.297383 39.262266 
L 302.893607 42.498933 
L 302.172703 46.245845 
L 301.219441 49.948913 
L 299.889763 54.11306 
L 298.347717 58.191457 
L 296.40945 62.662944 
L 294.061619 67.471412 
L 291.310047 72.551506 
L 288.180159 77.830156 
L 284.715767 83.228831 
L 280.710544 89.039924 
L 276.256989 95.089035 
L 271.484359 101.195205 
L 266.097193 107.713216 
L 260.404402 114.246161 
L 254.248953 120.963211 
L 247.874377 127.585883 
L 241.382275 134.007136 
L 235.229609 139.783525 
L 230.720937 143.756 
L 230.720937 143.756 
" style="fill:none;stroke:#ff7f0e;stroke-linecap:square;stroke-width:0.5;"/>
   </g>
   <g id="line2d_34">
    <path clip-path="url(#p9c2e536e8e)" d="M 369.699764 10.7 
L 352.756323 28.184789 
L 336.048585 45.100141 
L 319.353727 61.684549 
L 302.814222 77.800997 
L 286.445585 93.436985 
L 270.914191 107.968698 
L 256.185241 121.446918 
L 243.124738 133.102298 
L 232.970911 141.882647 
L 230.720937 143.756 
L 230.720937 143.756 
" style="fill:none;stroke:#ff7f0e;stroke-linecap:square;stroke-width:0.5;"/>
   </g>
   <g id="line2d_35">
    <path clip-path="url(#p9c2e536e8e)" d="M 409.280938 56.826177 
L 376.416454 74.890421 
L 347.610588 90.485417 
L 322.825039 103.66566 
L 301.893822 114.561054 
L 283.753457 123.757023 
L 269.249366 130.867733 
L 257.452924 136.407166 
L 248.56413 140.348485 
L 241.818591 143.111031 
L 236.943043 144.882055 
L 233.611691 145.870906 
L 231.488838 146.283709 
L 230.286047 146.308669 
L 229.698741 146.119899 
L 229.475949 145.835575 
L 229.47193 145.458826 
L 229.712673 144.91445 
L 230.31595 144.14772 
L 230.720938 143.756 
L 230.720938 143.756 
" style="fill:none;stroke:#ff7f0e;stroke-linecap:square;stroke-width:0.5;"/>
   </g>
   <g id="line2d_36">
    <path clip-path="url(#p9c2e536e8e)" d="M 409.280938 110.061645 
L 385.705213 119.990059 
L 364.699437 128.590822 
L 346.007508 136.009568 
L 329.397742 142.377247 
L 314.660534 147.811581 
L 300.083906 152.94098 
L 287.394652 157.157373 
L 276.37587 160.579923 
L 266.83395 163.314082 
L 258.596336 165.452968 
L 251.509308 167.078725 
L 245.435704 168.263916 
L 240.253589 169.072325 
L 235.854522 169.560017 
L 231.768151 169.785415 
L 228.41303 169.734236 
L 225.686991 169.457076 
L 223.500686 168.99741 
L 221.776083 168.392479 
L 220.445106 167.674095 
L 219.448448 166.869334 
L 218.734535 166.001139 
L 218.25858 165.088872 
L 217.963695 164.053785 
L 217.864935 162.90707 
L 217.981159 161.570058 
L 218.342344 160.070626 
L 218.989258 158.361612 
L 219.961742 156.432179 
L 221.31354 154.252072 
L 223.1163 151.782932 
L 225.363913 149.096045 
L 227.984429 146.316545 
L 230.589272 143.867003 
L 230.720938 143.756 
L 230.720938 143.756 
" style="fill:none;stroke:#ff7f0e;stroke-linecap:square;stroke-width:0.5;"/>
   </g>
   <g id="line2d_37">
    <path clip-path="url(#p9c2e536e8e)" d="M 409.280938 154.781334 
L 387.956635 162.280732 
L 368.510616 168.869167 
L 350.796212 174.627437 
L 334.677725 179.62987 
L 320.029292 183.945004 
L 306.73436 187.635924 
L 294.685004 190.760675 
L 283.781259 193.372671 
L 273.930569 195.521027 
L 265.047251 197.250894 
L 257.052025 198.603737 
L 249.871584 199.6176 
L 243.438202 200.327342 
L 237.689194 200.76496 
L 232.566636 200.959763 
L 228.01707 200.938541 
L 223.991143 200.725788 
L 220.443288 200.343888 
L 217.331472 199.813267 
L 214.616943 199.15254 
L 212.263988 198.378656 
L 210.239705 197.507033 
L 208.513792 196.55168 
L 207.05836 195.525307 
L 205.668107 194.253407 
L 204.573984 192.916868 
L 203.742306 191.530243 
L 203.142588 190.106413 
L 202.705997 188.448139 
L 202.499557 186.770872 
L 202.50171 184.877012 
L 202.747252 182.781929 
L 203.256863 180.508346 
L 204.036215 178.085856 
L 205.162929 175.359096 
L 206.644045 172.39861 
L 208.451037 169.289264 
L 210.731073 165.825066 
L 213.377862 162.210449 
L 216.491623 158.335549 
L 220.044572 154.272573 
L 223.93158 150.165544 
L 227.933579 146.256358 
L 230.720938 143.756 
L 230.720938 143.756 
" style="fill:none;stroke:#ff7f0e;stroke-linecap:square;stroke-width:0.5;"/>
   </g>
   <g id="line2d_38">
    <path clip-path="url(#p9c2e536e8e)" d="M 409.280938 202.119773 
L 388.354444 208.377698 
L 369.044698 213.886231 
L 351.243549 218.703724 
L 334.84976 222.884487 
L 319.768403 226.479165 
L 305.910311 229.535067 
L 293.192117 232.096147 
L 281.535638 234.203379 
L 270.867545 235.894951 
L 261.119147 237.2064 
L 252.226118 238.170775 
L 244.128225 238.818803 
L 236.769069 239.179044 
L 230.095862 239.278021 
L 224.059184 239.140373 
L 218.612805 238.788952 
L 213.713489 238.244948 
L 209.320857 237.527964 
L 205.397169 236.656151 
L 201.907121 235.646321 
L 198.817728 234.514025 
L 196.098207 233.273609 
L 193.719836 231.938311 
L 191.655813 230.520332 
L 189.881134 229.030912 
L 188.372483 227.480394 
L 187.108129 225.878282 
L 186.067824 224.233302 
L 185.232723 222.553444 
L 184.476866 220.501827 
L 183.963313 218.421932 
L 183.666407 216.324009 
L 183.562605 213.865803 
L 183.687905 211.408299 
L 184.072651 208.614803 
L 184.676252 205.850957 
L 185.572338 202.791872 
L 186.785386 199.471504 
L 188.323524 195.931985 
L 190.177957 192.222609 
L 192.492819 188.112727 
L 195.241226 183.718153 
L 198.357097 179.168515 
L 201.906844 174.383698 
L 205.888053 169.391639 
L 210.331455 164.179767 
L 215.17148 158.848843 
L 220.333936 153.498649 
L 225.514499 148.44986 
L 230.063688 144.313267 
L 230.720938 143.756 
L 230.720938 143.756 
" style="fill:none;stroke:#ff7f0e;stroke-linecap:square;stroke-width:0.5;"/>
   </g>
   <g id="line2d_39">
    <path clip-path="url(#p9c2e536e8e)" d="M 409.280938 266.242677 
L 404.109291 267.553784 
L 399.022374 268.82692 
L 394.019611 270.062414 
L 389.099725 271.260948 
L 384.261592 272.423118 
L 379.504125 273.549502 
L 374.826179 274.640706 
L 370.226619 275.697332 
L 365.704339 276.719964 
L 361.258246 277.709181 
" style="fill:none;stroke:#ff7f0e;stroke-linecap:square;stroke-width:0.5;"/>
   </g>
   <g id="line2d_40">
    <path clip-path="url(#p9c2e536e8e)" d="M 327.352777 276.812 
L 323.666913 277.518217 
" style="fill:none;stroke:#ff7f0e;stroke-linecap:square;stroke-width:0.5;"/>
   </g>
   <g id="line2d_41">
    <path clip-path="url(#p9c2e536e8e)" d="M 260.517332 276.812 
L 258.158059 277.025201 
" style="fill:none;stroke:#ff7f0e;stroke-linecap:square;stroke-width:0.5;"/>
   </g>
   <g id="line2d_42">
    <path clip-path="url(#p9c2e536e8e)" d="M 200.924543 276.812 
L 196.375588 275.855093 
L 192.22924 274.768618 
L 188.460972 273.56419 
L 185.047321 272.252825 
L 181.966347 270.844723 
L 179.197325 269.349422 
L 176.720327 267.776036 
L 174.51672 266.132981 
L 172.568948 264.428098 
L 170.860337 262.668762 
L 169.37511 260.861875 
L 168.098364 259.013876 
L 166.774251 256.655169 
L 165.728275 254.252367 
L 164.936466 251.815377 
L 164.376513 249.353251 
L 164.027669 246.874247 
L 163.860658 243.887702 
L 163.939264 240.8993 
L 164.235462 237.919377 
L 164.822009 234.465652 
L 165.633134 231.048525 
L 166.792883 227.201885 
L 168.159037 223.430741 
L 169.894823 219.292208 
L 172.014758 214.837568 
L 174.515011 210.127006 
L 177.373122 205.228106 
L 180.549261 200.213683 
L 184.23345 194.811838 
L 188.341638 189.184313 
L 192.980482 183.21725 
L 197.954247 177.181312 
L 203.398 170.924738 
L 209.213188 164.580788 
L 215.273659 158.295646 
L 221.422847 152.234511 
L 227.25538 146.79144 
L 230.720938 143.756 
L 230.720938 143.756 
" style="fill:none;stroke:#ff7f0e;stroke-linecap:square;stroke-width:0.5;"/>
   </g>
   <g id="line2d_43">
    <path clip-path="url(#p9c2e536e8e)" d="M 134.089098 276.812 
L 135.086863 272.51323 
L 136.296141 268.263823 
L 137.937584 263.380181 
L 139.788639 258.587796 
L 142.114957 253.235275 
L 144.621048 248.02703 
L 147.60398 242.351878 
L 151.062212 236.286316 
L 154.973414 229.916542 
L 159.294731 223.33621 
L 163.964525 216.643585 
L 169.253514 209.478821 
L 174.697245 202.477171 
L 180.812553 194.983058 
L 187.342577 187.345029 
L 194.243246 179.623767 
L 201.523992 171.819723 
L 209.041277 164.096679 
L 216.540468 156.713728 
L 223.667931 150.003376 
L 229.661929 144.649663 
L 230.720938 143.756 
L 230.720938 143.756 
" style="fill:none;stroke:#ff7f0e;stroke-linecap:square;stroke-width:0.5;"/>
   </g>
   <g id="line2d_44">
    <path clip-path="url(#p9c2e536e8e)" d="M 52.160938 266.242677 
L 151.400561 197.869897 
L 209.945112 157.778055 
L 230.720954 143.755969 
L 230.720938 143.756 
" style="fill:none;stroke:#ff7f0e;stroke-linecap:square;stroke-width:0.5;"/>
   </g>
   <g id="line2d_45">
    <path clip-path="url(#p9c2e536e8e)" d="M 52.160938 202.119773 
L 78.22335 189.807037 
L 100.941864 179.309545 
L 122.547231 169.580074 
L 141.059812 161.491708 
L 156.889441 154.808161 
L 171.51765 148.879242 
L 183.781617 144.149893 
L 194.029008 140.424618 
L 203.200728 137.329359 
L 210.68156 135.038265 
L 216.747476 133.401259 
L 221.632248 132.292933 
L 225.798096 131.571035 
L 229.030599 131.233398 
L 231.502523 131.191944 
L 233.357424 131.375047 
L 234.714331 131.724742 
L 235.671699 132.194379 
L 236.310759 132.746652 
L 236.717928 133.396564 
L 236.909061 134.125116 
L 236.896701 135.002945 
L 236.645801 136.04282 
L 236.093873 137.308928 
L 235.17888 138.812571 
L 233.844842 140.555886 
L 232.095086 142.466665 
L 230.720937 143.756 
L 230.720938 143.756 
" style="fill:none;stroke:#ff7f0e;stroke-linecap:square;stroke-width:0.5;"/>
   </g>
   <g id="line2d_46">
    <path clip-path="url(#p9c2e536e8e)" d="M 52.160938 154.781334 
L 74.921207 146.071292 
L 95.420102 138.488582 
L 113.859346 131.920592 
L 130.423835 126.26472 
L 145.282697 121.427703 
L 158.590802 117.324699 
L 170.489989 113.878526 
L 181.110021 111.019076 
L 190.569396 108.68281 
L 198.976459 106.812086 
L 206.430278 105.354625 
L 213.02138 104.263063 
L 219.603252 103.408891 
L 225.277654 102.919519 
L 230.145232 102.743895 
L 234.296519 102.836659 
L 237.812886 103.157581 
L 240.76743 103.671024 
L 243.225738 104.3455 
L 245.246649 105.153212 
L 246.882903 106.069677 
L 248.181711 107.073394 
L 249.185263 108.145544 
L 249.931263 109.269681 
L 250.453395 110.431468 
L 250.810461 111.768054 
L 250.965159 113.272257 
L 250.892733 114.930227 
L 250.581963 116.721679 
L 249.985613 118.764412 
L 249.083341 121.009392 
L 247.817022 123.521386 
L 246.216748 126.194023 
L 244.140652 129.210034 
L 241.61586 132.465808 
L 238.67316 135.88723 
L 235.366725 139.385422 
L 231.999593 142.628675 
L 230.720937 143.756 
L 230.720938 143.756 
" style="fill:none;stroke:#ff7f0e;stroke-linecap:square;stroke-width:0.5;"/>
   </g>
   <g id="line2d_47">
    <path clip-path="url(#p9c2e536e8e)" d="M 52.160938 110.061645 
L 71.512771 103.773942 
L 89.401356 98.179908 
L 105.923839 93.226576 
L 121.170871 88.864784 
L 135.227402 85.048708 
L 148.173607 81.735307 
L 160.084181 78.884727 
L 171.029318 76.459722 
L 181.074879 74.425549 
L 190.282563 72.749862 
L 200.306941 71.169975 
L 209.300904 70.014912 
L 217.350484 69.240542 
L 224.535169 68.806445 
L 230.928389 68.675618 
L 236.597959 68.814213 
L 241.606485 69.19129 
L 246.011733 69.778604 
L 249.866976 70.550393 
L 253.221331 71.48318 
L 256.120064 72.555595 
L 258.604869 73.748211 
L 260.714127 75.043389 
L 262.483161 76.425134 
L 263.944439 77.878974 
L 265.127803 79.391827 
L 266.060664 80.951892 
L 266.768187 82.548538 
L 267.339514 84.444837 
L 267.668834 86.364488 
L 267.786255 88.295667 
L 267.695681 90.503652 
L 267.350183 92.973087 
L 266.790255 95.411925 
L 265.964451 98.070099 
L 264.753395 101.168964 
L 263.243758 104.39398 
L 261.33452 107.923777 
L 259.054553 111.658229 
L 256.332364 115.677878 
L 253.146138 119.971086 
L 249.561044 124.423473 
L 245.550016 129.049466 
L 241.128493 133.80499 
L 236.500809 138.45255 
L 232.143843 142.520789 
L 230.720937 143.756 
L 230.720937 143.756 
" style="fill:none;stroke:#ff7f0e;stroke-linecap:square;stroke-width:0.5;"/>
   </g>
   <g id="line2d_48">
    <path clip-path="url(#p9c2e536e8e)" d="M 52.160938 56.826177 
L 70.508418 51.780154 
L 87.691467 47.26359 
L 103.773039 43.242787 
L 118.81339 39.685649 
L 132.869454 36.561992 
L 145.995213 33.843339 
L 158.242112 31.502673 
L 169.658954 29.514498 
L 180.291943 27.854803 
L 190.18496 26.500907 
L 199.379682 25.431383 
L 207.915666 24.626009 
L 215.830436 24.065713 
L 223.159583 23.732514 
L 229.936863 23.609466 
L 236.194286 23.680599 
L 241.962201 23.930876 
L 247.269383 24.346133 
L 252.143096 24.913047 
L 256.609166 25.61909 
L 260.692062 26.452484 
L 264.414957 27.402163 
L 267.799808 28.457723 
L 270.867408 29.609397 
L 273.637438 30.848023 
L 276.128519 32.165008 
L 278.358265 33.552306 
L 280.343338 35.002378 
L 282.09949 36.508174 
L 283.995388 38.458764 
L 285.584119 40.474206 
L 286.891172 42.543513 
L 287.940206 44.65666 
L 288.753335 46.804414 
L 289.351036 48.978397 
L 289.752428 51.170918 
L 289.999804 53.816653 
L 290.01818 56.46822 
L 289.833383 59.115972 
L 289.392351 62.188859 
L 288.740773 65.233108 
L 287.777261 68.664204 
L 286.462286 72.447814 
L 284.951007 76.136387 
L 283.094311 80.109244 
L 280.894589 84.312966 
L 278.15689 89.041663 
L 275.123026 93.832504 
L 271.638523 98.918438 
L 267.583325 104.422891 
L 263.114826 110.095692 
L 258.259906 115.893348 
L 253.007706 121.817605 
L 247.338687 127.870272 
L 241.551707 133.724101 
L 235.835403 139.193955 
L 231.063871 143.469539 
L 230.720937 143.756 
L 230.720938 143.756 
" style="fill:none;stroke:#ff7f0e;stroke-linecap:square;stroke-width:0.5;"/>
   </g>
   <g id="line2d_49">
    <path clip-path="url(#p9c2e536e8e)" d="M 91.742111 10.7 
L 96.26852 9.681403 
" style="fill:none;stroke:#ff7f0e;stroke-linecap:square;stroke-width:0.5;"/>
   </g>
   <g id="line2d_50">
    <path clip-path="url(#p9c2e536e8e)" d="M 169.421212 10.7 
L 172.405779 10.254414 
" style="fill:none;stroke:#ff7f0e;stroke-linecap:square;stroke-width:0.5;"/>
   </g>
   <g id="line2d_51">
    <path clip-path="url(#p9c2e536e8e)" d="M 230.720937 10.7 
L 237.58327 10.803654 
L 243.907457 11.103745 
L 249.725152 11.584708 
L 255.066359 12.231893 
L 259.959508 13.031521 
L 264.43149 13.970662 
L 268.507792 15.037154 
L 272.212575 16.219564 
L 275.568716 17.507156 
L 278.597838 18.889877 
L 281.320475 20.358258 
L 283.755998 21.90346 
L 285.922744 23.517199 
L 287.838051 25.191719 
L 289.518292 26.919782 
L 290.978952 28.694617 
L 292.234663 30.509901 
L 293.53708 32.826938 
L 294.56614 35.187334 
L 295.345414 37.581345 
L 295.89682 40.000078 
L 296.240728 42.435429 
L 296.406068 45.369454 
L 296.329935 48.305375 
L 296.039904 51.233012 
L 295.464642 54.626189 
L 294.668617 57.983451 
L 293.53007 61.762746 
L 292.188599 65.467916 
L 290.483925 69.534095 
L 288.40177 73.910899 
L 285.945872 78.539204 
L 283.138262 83.352618 
L 279.776546 88.646054 
L 276.158398 93.926802 
L 272.128879 99.426263 
L 267.583754 105.255557 
L 262.513173 111.38781 
L 257.036943 117.653011 
L 251.26961 123.913685 
L 245.241826 130.132357 
L 239.107417 136.142235 
L 233.443762 141.38719 
L 230.720937 143.756 
L 230.720938 143.756 
" style="fill:none;stroke:#ff7f0e;stroke-linecap:square;stroke-width:0.5;"/>
   </g>
   <g id="line2d_52">
    <path clip-path="url(#p9c2e536e8e)" d="M 230.720938 143.756 
" style="fill:none;stroke:#ff7f0e;stroke-linecap:square;stroke-width:1.5;"/>
   </g>
   <g id="line2d_53">
    <defs>
     <path d="M 0 3 
C 0.795609 3 1.55874 2.683901 2.12132 2.12132 
C 2.683901 1.55874 3 0.795609 3 0 
C 3 -0.795609 2.683901 -1.55874 2.12132 -2.12132 
C 1.55874 -2.683901 0.795609 -3 0 -3 
C -0.795609 -3 -1.55874 -2.683901 -2.12132 -2.12132 
C -2.683901 -1.55874 -3 -0.795609 -3 0 
C -3 0.795609 -2.683901 1.55874 -2.12132 2.12132 
C -1.55874 2.683901 -0.795609 3 0 3 
z
" id="m33729df0e2" style="stroke:#ff0000;"/>
    </defs>
    <g clip-path="url(#p9c2e536e8e)">
     <use style="fill:#ff0000;stroke:#ff0000;" x="230.720938" xlink:href="#m33729df0e2" y="143.756"/>
    </g>
   </g>
   <g id="patch_75">
    <path d="M 52.160938 276.812 
L 52.160938 10.7 
" style="fill:none;stroke:#000000;stroke-linecap:square;stroke-linejoin:miter;stroke-width:0.8;"/>
   </g>
   <g id="patch_76">
    <path d="M 409.280938 276.812 
L 409.280938 10.7 
" style="fill:none;stroke:#000000;stroke-linecap:square;stroke-linejoin:miter;stroke-width:0.8;"/>
   </g>
   <g id="patch_77">
    <path d="M 52.160938 276.812 
L 409.280938 276.812 
" style="fill:none;stroke:#000000;stroke-linecap:square;stroke-linejoin:miter;stroke-width:0.8;"/>
   </g>
   <g id="patch_78">
    <path d="M 52.160938 10.7 
L 409.280938 10.7 
" style="fill:none;stroke:#000000;stroke-linecap:square;stroke-linejoin:miter;stroke-width:0.8;"/>
   </g>
   <g id="legend_1">
    <g id="patch_79">
     <path d="M 259.340938 273.812 
L 405.080938 273.812 
Q 406.280938 273.812 406.280938 272.612 
L 406.280938 246.551375 
Q 406.280938 245.351375 405.080938 245.351375 
L 259.340938 245.351375 
Q 258.140938 245.351375 258.140938 246.551375 
L 258.140938 272.612 
Q 258.140938 273.812 259.340938 273.812 
z
" style="fill:#ffffff;opacity:0.8;stroke:#cccccc;stroke-linejoin:miter;"/>
    </g>
    <g id="line2d_54">
     <path d="M 260.540938 250.210437 
L 272.540938 250.210437 
" style="fill:none;stroke:#1f77b4;stroke-linecap:square;stroke-width:1.5;"/>
    </g>
    <g id="line2d_55"/>
    <g id="text_13">
     <!-- system nieliniowy -->
     <defs>
      <path d="M 44.28125 53.078125 
L 44.28125 44.578125 
Q 40.484375 46.53125 36.375 47.5 
Q 32.28125 48.484375 27.875 48.484375 
Q 21.1875 48.484375 17.84375 46.4375 
Q 14.5 44.390625 14.5 40.28125 
Q 14.5 37.15625 16.890625 35.375 
Q 19.28125 33.59375 26.515625 31.984375 
L 29.59375 31.296875 
Q 39.15625 29.25 43.1875 25.515625 
Q 47.21875 21.78125 47.21875 15.09375 
Q 47.21875 7.46875 41.1875 3.015625 
Q 35.15625 -1.421875 24.609375 -1.421875 
Q 20.21875 -1.421875 15.453125 -0.5625 
Q 10.6875 0.296875 5.421875 2 
L 5.421875 11.28125 
Q 10.40625 8.6875 15.234375 7.390625 
Q 20.0625 6.109375 24.8125 6.109375 
Q 31.15625 6.109375 34.5625 8.28125 
Q 37.984375 10.453125 37.984375 14.40625 
Q 37.984375 18.0625 35.515625 20.015625 
Q 33.0625 21.96875 24.703125 23.78125 
L 21.578125 24.515625 
Q 13.234375 26.265625 9.515625 29.90625 
Q 5.8125 33.546875 5.8125 39.890625 
Q 5.8125 47.609375 11.28125 51.796875 
Q 16.75 56 26.8125 56 
Q 31.78125 56 36.171875 55.265625 
Q 40.578125 54.546875 44.28125 53.078125 
" id="DejaVuSans-73"/>
      <path d="M 32.171875 -5.078125 
Q 28.375 -14.84375 24.75 -17.8125 
Q 21.140625 -20.796875 15.09375 -20.796875 
L 7.90625 -20.796875 
L 7.90625 -13.28125 
L 13.1875 -13.28125 
Q 16.890625 -13.28125 18.9375 -11.515625 
Q 21 -9.765625 23.484375 -3.21875 
L 25.09375 0.875 
L 2.984375 54.6875 
L 12.5 54.6875 
L 29.59375 11.921875 
L 46.6875 54.6875 
L 56.203125 54.6875 
z
" id="DejaVuSans-79"/>
      <path d="M 18.3125 70.21875 
L 18.3125 54.6875 
L 36.8125 54.6875 
L 36.8125 47.703125 
L 18.3125 47.703125 
L 18.3125 18.015625 
Q 18.3125 11.328125 20.140625 9.421875 
Q 21.96875 7.515625 27.59375 7.515625 
L 36.8125 7.515625 
L 36.8125 0 
L 27.59375 0 
Q 17.1875 0 13.234375 3.875 
Q 9.28125 7.765625 9.28125 18.015625 
L 9.28125 47.703125 
L 2.6875 47.703125 
L 2.6875 54.6875 
L 9.28125 54.6875 
L 9.28125 70.21875 
z
" id="DejaVuSans-74"/>
      <path d="M 56.203125 29.59375 
L 56.203125 25.203125 
L 14.890625 25.203125 
Q 15.484375 15.921875 20.484375 11.0625 
Q 25.484375 6.203125 34.421875 6.203125 
Q 39.59375 6.203125 44.453125 7.46875 
Q 49.3125 8.734375 54.109375 11.28125 
L 54.109375 2.78125 
Q 49.265625 0.734375 44.1875 -0.34375 
Q 39.109375 -1.421875 33.890625 -1.421875 
Q 20.796875 -1.421875 13.15625 6.1875 
Q 5.515625 13.8125 5.515625 26.8125 
Q 5.515625 40.234375 12.765625 48.109375 
Q 20.015625 56 32.328125 56 
Q 43.359375 56 49.78125 48.890625 
Q 56.203125 41.796875 56.203125 29.59375 
M 47.21875 32.234375 
Q 47.125 39.59375 43.09375 43.984375 
Q 39.0625 48.390625 32.421875 48.390625 
Q 24.90625 48.390625 20.390625 44.140625 
Q 15.875 39.890625 15.1875 32.171875 
z
" id="DejaVuSans-65"/>
      <path d="M 52 44.1875 
Q 55.375 50.25 60.0625 53.125 
Q 64.75 56 71.09375 56 
Q 79.640625 56 84.28125 50.015625 
Q 88.921875 44.046875 88.921875 33.015625 
L 88.921875 0 
L 79.890625 0 
L 79.890625 32.71875 
Q 79.890625 40.578125 77.09375 44.375 
Q 74.3125 48.1875 68.609375 48.1875 
Q 61.625 48.1875 57.5625 43.546875 
Q 53.515625 38.921875 53.515625 30.90625 
L 53.515625 0 
L 44.484375 0 
L 44.484375 32.71875 
Q 44.484375 40.625 41.703125 44.40625 
Q 38.921875 48.1875 33.109375 48.1875 
Q 26.21875 48.1875 22.15625 43.53125 
Q 18.109375 38.875 18.109375 30.90625 
L 18.109375 0 
L 9.078125 0 
L 9.078125 54.6875 
L 18.109375 54.6875 
L 18.109375 46.1875 
Q 21.1875 51.21875 25.484375 53.609375 
Q 29.78125 56 35.6875 56 
Q 41.65625 56 45.828125 52.96875 
Q 50 49.953125 52 44.1875 
" id="DejaVuSans-6d"/>
      <path id="DejaVuSans-20"/>
      <path d="M 54.890625 33.015625 
L 54.890625 0 
L 45.90625 0 
L 45.90625 32.71875 
Q 45.90625 40.484375 42.875 44.328125 
Q 39.84375 48.1875 33.796875 48.1875 
Q 26.515625 48.1875 22.3125 43.546875 
Q 18.109375 38.921875 18.109375 30.90625 
L 18.109375 0 
L 9.078125 0 
L 9.078125 54.6875 
L 18.109375 54.6875 
L 18.109375 46.1875 
Q 21.34375 51.125 25.703125 53.5625 
Q 30.078125 56 35.796875 56 
Q 45.21875 56 50.046875 50.171875 
Q 54.890625 44.34375 54.890625 33.015625 
" id="DejaVuSans-6e"/>
      <path d="M 9.421875 54.6875 
L 18.40625 54.6875 
L 18.40625 0 
L 9.421875 0 
z
M 9.421875 75.984375 
L 18.40625 75.984375 
L 18.40625 64.59375 
L 9.421875 64.59375 
z
" id="DejaVuSans-69"/>
      <path d="M 9.421875 75.984375 
L 18.40625 75.984375 
L 18.40625 0 
L 9.421875 0 
z
" id="DejaVuSans-6c"/>
      <path d="M 30.609375 48.390625 
Q 23.390625 48.390625 19.1875 42.75 
Q 14.984375 37.109375 14.984375 27.296875 
Q 14.984375 17.484375 19.15625 11.84375 
Q 23.34375 6.203125 30.609375 6.203125 
Q 37.796875 6.203125 41.984375 11.859375 
Q 46.1875 17.53125 46.1875 27.296875 
Q 46.1875 37.015625 41.984375 42.703125 
Q 37.796875 48.390625 30.609375 48.390625 
M 30.609375 56 
Q 42.328125 56 49.015625 48.375 
Q 55.71875 40.765625 55.71875 27.296875 
Q 55.71875 13.875 49.015625 6.21875 
Q 42.328125 -1.421875 30.609375 -1.421875 
Q 18.84375 -1.421875 12.171875 6.21875 
Q 5.515625 13.875 5.515625 27.296875 
Q 5.515625 40.765625 12.171875 48.375 
Q 18.84375 56 30.609375 56 
" id="DejaVuSans-6f"/>
      <path d="M 4.203125 54.6875 
L 13.1875 54.6875 
L 24.421875 12.015625 
L 35.59375 54.6875 
L 46.1875 54.6875 
L 57.421875 12.015625 
L 68.609375 54.6875 
L 77.59375 54.6875 
L 63.28125 0 
L 52.6875 0 
L 40.921875 44.828125 
L 29.109375 0 
L 18.5 0 
z
" id="DejaVuSans-77"/>
     </defs>
     <g transform="translate(277.340938 252.310437)scale(0.06 -0.06)">
      <use xlink:href="#DejaVuSans-73"/>
      <use x="52.099609" xlink:href="#DejaVuSans-79"/>
      <use x="111.279297" xlink:href="#DejaVuSans-73"/>
      <use x="163.378906" xlink:href="#DejaVuSans-74"/>
      <use x="202.587891" xlink:href="#DejaVuSans-65"/>
      <use x="264.111328" xlink:href="#DejaVuSans-6d"/>
      <use x="361.523438" xlink:href="#DejaVuSans-20"/>
      <use x="393.310547" xlink:href="#DejaVuSans-6e"/>
      <use x="456.689453" xlink:href="#DejaVuSans-69"/>
      <use x="484.472656" xlink:href="#DejaVuSans-65"/>
      <use x="545.996094" xlink:href="#DejaVuSans-6c"/>
      <use x="573.779297" xlink:href="#DejaVuSans-69"/>
      <use x="601.5625" xlink:href="#DejaVuSans-6e"/>
      <use x="664.941406" xlink:href="#DejaVuSans-69"/>
      <use x="692.724609" xlink:href="#DejaVuSans-6f"/>
      <use x="753.90625" xlink:href="#DejaVuSans-77"/>
      <use x="835.693359" xlink:href="#DejaVuSans-79"/>
     </g>
    </g>
    <g id="line2d_56">
     <path d="M 260.540938 259.017312 
L 272.540938 259.017312 
" style="fill:none;stroke:#ff7f0e;stroke-linecap:square;stroke-width:1.5;"/>
    </g>
    <g id="line2d_57"/>
    <g id="text_14">
     <!-- system zlinearyzowany -->
     <defs>
      <path d="M 5.515625 54.6875 
L 48.1875 54.6875 
L 48.1875 46.484375 
L 14.40625 7.171875 
L 48.1875 7.171875 
L 48.1875 0 
L 4.296875 0 
L 4.296875 8.203125 
L 38.09375 47.515625 
L 5.515625 47.515625 
z
" id="DejaVuSans-7a"/>
      <path d="M 34.28125 27.484375 
Q 23.390625 27.484375 19.1875 25 
Q 14.984375 22.515625 14.984375 16.5 
Q 14.984375 11.71875 18.140625 8.90625 
Q 21.296875 6.109375 26.703125 6.109375 
Q 34.1875 6.109375 38.703125 11.40625 
Q 43.21875 16.703125 43.21875 25.484375 
L 43.21875 27.484375 
z
M 52.203125 31.203125 
L 52.203125 0 
L 43.21875 0 
L 43.21875 8.296875 
Q 40.140625 3.328125 35.546875 0.953125 
Q 30.953125 -1.421875 24.3125 -1.421875 
Q 15.921875 -1.421875 10.953125 3.296875 
Q 6 8.015625 6 15.921875 
Q 6 25.140625 12.171875 29.828125 
Q 18.359375 34.515625 30.609375 34.515625 
L 43.21875 34.515625 
L 43.21875 35.40625 
Q 43.21875 41.609375 39.140625 45 
Q 35.0625 48.390625 27.6875 48.390625 
Q 23 48.390625 18.546875 47.265625 
Q 14.109375 46.140625 10.015625 43.890625 
L 10.015625 52.203125 
Q 14.9375 54.109375 19.578125 55.046875 
Q 24.21875 56 28.609375 56 
Q 40.484375 56 46.34375 49.84375 
Q 52.203125 43.703125 52.203125 31.203125 
" id="DejaVuSans-61"/>
      <path d="M 41.109375 46.296875 
Q 39.59375 47.171875 37.8125 47.578125 
Q 36.03125 48 33.890625 48 
Q 26.265625 48 22.1875 43.046875 
Q 18.109375 38.09375 18.109375 28.8125 
L 18.109375 0 
L 9.078125 0 
L 9.078125 54.6875 
L 18.109375 54.6875 
L 18.109375 46.1875 
Q 20.953125 51.171875 25.484375 53.578125 
Q 30.03125 56 36.53125 56 
Q 37.453125 56 38.578125 55.875 
Q 39.703125 55.765625 41.0625 55.515625 
z
" id="DejaVuSans-72"/>
     </defs>
     <g transform="translate(277.340938 261.117312)scale(0.06 -0.06)">
      <use xlink:href="#DejaVuSans-73"/>
      <use x="52.099609" xlink:href="#DejaVuSans-79"/>
      <use x="111.279297" xlink:href="#DejaVuSans-73"/>
      <use x="163.378906" xlink:href="#DejaVuSans-74"/>
      <use x="202.587891" xlink:href="#DejaVuSans-65"/>
      <use x="264.111328" xlink:href="#DejaVuSans-6d"/>
      <use x="361.523438" xlink:href="#DejaVuSans-20"/>
      <use x="393.310547" xlink:href="#DejaVuSans-7a"/>
      <use x="445.800781" xlink:href="#DejaVuSans-6c"/>
      <use x="473.583984" xlink:href="#DejaVuSans-69"/>
      <use x="501.367188" xlink:href="#DejaVuSans-6e"/>
      <use x="564.746094" xlink:href="#DejaVuSans-65"/>
      <use x="626.269531" xlink:href="#DejaVuSans-61"/>
      <use x="687.548828" xlink:href="#DejaVuSans-72"/>
      <use x="728.662109" xlink:href="#DejaVuSans-79"/>
      <use x="787.841797" xlink:href="#DejaVuSans-7a"/>
      <use x="840.332031" xlink:href="#DejaVuSans-6f"/>
      <use x="901.513672" xlink:href="#DejaVuSans-77"/>
      <use x="983.300781" xlink:href="#DejaVuSans-61"/>
      <use x="1044.580078" xlink:href="#DejaVuSans-6e"/>
      <use x="1107.958984" xlink:href="#DejaVuSans-79"/>
     </g>
    </g>
    <g id="line2d_58"/>
    <g id="line2d_59">
     <g>
      <use style="fill:#ff0000;stroke:#ff0000;" x="266.540938" xlink:href="#m33729df0e2" y="268.064187"/>
     </g>
    </g>
    <g id="text_15">
     <!-- Punkt równowagi asymptotycznie stabilny -->
     <defs>
      <path d="M 19.671875 64.796875 
L 19.671875 37.40625 
L 32.078125 37.40625 
Q 38.96875 37.40625 42.71875 40.96875 
Q 46.484375 44.53125 46.484375 51.125 
Q 46.484375 57.671875 42.71875 61.234375 
Q 38.96875 64.796875 32.078125 64.796875 
z
M 9.8125 72.90625 
L 32.078125 72.90625 
Q 44.34375 72.90625 50.609375 67.359375 
Q 56.890625 61.8125 56.890625 51.125 
Q 56.890625 40.328125 50.609375 34.8125 
Q 44.34375 29.296875 32.078125 29.296875 
L 19.671875 29.296875 
L 19.671875 0 
L 9.8125 0 
z
" id="DejaVuSans-50"/>
      <path d="M 8.5 21.578125 
L 8.5 54.6875 
L 17.484375 54.6875 
L 17.484375 21.921875 
Q 17.484375 14.15625 20.5 10.265625 
Q 23.53125 6.390625 29.59375 6.390625 
Q 36.859375 6.390625 41.078125 11.03125 
Q 45.3125 15.671875 45.3125 23.6875 
L 45.3125 54.6875 
L 54.296875 54.6875 
L 54.296875 0 
L 45.3125 0 
L 45.3125 8.40625 
Q 42.046875 3.421875 37.71875 1 
Q 33.40625 -1.421875 27.6875 -1.421875 
Q 18.265625 -1.421875 13.375 4.4375 
Q 8.5 10.296875 8.5 21.578125 
M 31.109375 56 
z
" id="DejaVuSans-75"/>
      <path d="M 9.078125 75.984375 
L 18.109375 75.984375 
L 18.109375 31.109375 
L 44.921875 54.6875 
L 56.390625 54.6875 
L 27.390625 29.109375 
L 57.625 0 
L 45.90625 0 
L 18.109375 26.703125 
L 18.109375 0 
L 9.078125 0 
z
" id="DejaVuSans-6b"/>
      <path d="M 30.609375 48.390625 
Q 23.390625 48.390625 19.1875 42.75 
Q 14.984375 37.109375 14.984375 27.296875 
Q 14.984375 17.484375 19.15625 11.84375 
Q 23.34375 6.203125 30.609375 6.203125 
Q 37.796875 6.203125 41.984375 11.859375 
Q 46.1875 17.53125 46.1875 27.296875 
Q 46.1875 37.015625 41.984375 42.703125 
Q 37.796875 48.390625 30.609375 48.390625 
M 30.609375 56 
Q 42.328125 56 49.015625 48.375 
Q 55.71875 40.765625 55.71875 27.296875 
Q 55.71875 13.875 49.015625 6.21875 
Q 42.328125 -1.421875 30.609375 -1.421875 
Q 18.84375 -1.421875 12.171875 6.21875 
Q 5.515625 13.875 5.515625 27.296875 
Q 5.515625 40.765625 12.171875 48.375 
Q 18.84375 56 30.609375 56 
M 37.40625 79.984375 
L 47.125 79.984375 
L 31.21875 61.625 
L 23.734375 61.625 
z
" id="DejaVuSans-f3"/>
      <path d="M 45.40625 27.984375 
Q 45.40625 37.75 41.375 43.109375 
Q 37.359375 48.484375 30.078125 48.484375 
Q 22.859375 48.484375 18.828125 43.109375 
Q 14.796875 37.75 14.796875 27.984375 
Q 14.796875 18.265625 18.828125 12.890625 
Q 22.859375 7.515625 30.078125 7.515625 
Q 37.359375 7.515625 41.375 12.890625 
Q 45.40625 18.265625 45.40625 27.984375 
M 54.390625 6.78125 
Q 54.390625 -7.171875 48.1875 -13.984375 
Q 42 -20.796875 29.203125 -20.796875 
Q 24.46875 -20.796875 20.265625 -20.09375 
Q 16.0625 -19.390625 12.109375 -17.921875 
L 12.109375 -9.1875 
Q 16.0625 -11.328125 19.921875 -12.34375 
Q 23.78125 -13.375 27.78125 -13.375 
Q 36.625 -13.375 41.015625 -8.765625 
Q 45.40625 -4.15625 45.40625 5.171875 
L 45.40625 9.625 
Q 42.625 4.78125 38.28125 2.390625 
Q 33.9375 0 27.875 0 
Q 17.828125 0 11.671875 7.65625 
Q 5.515625 15.328125 5.515625 27.984375 
Q 5.515625 40.671875 11.671875 48.328125 
Q 17.828125 56 27.875 56 
Q 33.9375 56 38.28125 53.609375 
Q 42.625 51.21875 45.40625 46.390625 
L 45.40625 54.6875 
L 54.390625 54.6875 
z
" id="DejaVuSans-67"/>
      <path d="M 18.109375 8.203125 
L 18.109375 -20.796875 
L 9.078125 -20.796875 
L 9.078125 54.6875 
L 18.109375 54.6875 
L 18.109375 46.390625 
Q 20.953125 51.265625 25.265625 53.625 
Q 29.59375 56 35.59375 56 
Q 45.5625 56 51.78125 48.09375 
Q 58.015625 40.1875 58.015625 27.296875 
Q 58.015625 14.40625 51.78125 6.484375 
Q 45.5625 -1.421875 35.59375 -1.421875 
Q 29.59375 -1.421875 25.265625 0.953125 
Q 20.953125 3.328125 18.109375 8.203125 
M 48.6875 27.296875 
Q 48.6875 37.203125 44.609375 42.84375 
Q 40.53125 48.484375 33.40625 48.484375 
Q 26.265625 48.484375 22.1875 42.84375 
Q 18.109375 37.203125 18.109375 27.296875 
Q 18.109375 17.390625 22.1875 11.75 
Q 26.265625 6.109375 33.40625 6.109375 
Q 40.53125 6.109375 44.609375 11.75 
Q 48.6875 17.390625 48.6875 27.296875 
" id="DejaVuSans-70"/>
      <path d="M 48.78125 52.59375 
L 48.78125 44.1875 
Q 44.96875 46.296875 41.140625 47.34375 
Q 37.3125 48.390625 33.40625 48.390625 
Q 24.65625 48.390625 19.8125 42.84375 
Q 14.984375 37.3125 14.984375 27.296875 
Q 14.984375 17.28125 19.8125 11.734375 
Q 24.65625 6.203125 33.40625 6.203125 
Q 37.3125 6.203125 41.140625 7.25 
Q 44.96875 8.296875 48.78125 10.40625 
L 48.78125 2.09375 
Q 45.015625 0.34375 40.984375 -0.53125 
Q 36.96875 -1.421875 32.421875 -1.421875 
Q 20.0625 -1.421875 12.78125 6.34375 
Q 5.515625 14.109375 5.515625 27.296875 
Q 5.515625 40.671875 12.859375 48.328125 
Q 20.21875 56 33.015625 56 
Q 37.15625 56 41.109375 55.140625 
Q 45.0625 54.296875 48.78125 52.59375 
" id="DejaVuSans-63"/>
      <path d="M 48.6875 27.296875 
Q 48.6875 37.203125 44.609375 42.84375 
Q 40.53125 48.484375 33.40625 48.484375 
Q 26.265625 48.484375 22.1875 42.84375 
Q 18.109375 37.203125 18.109375 27.296875 
Q 18.109375 17.390625 22.1875 11.75 
Q 26.265625 6.109375 33.40625 6.109375 
Q 40.53125 6.109375 44.609375 11.75 
Q 48.6875 17.390625 48.6875 27.296875 
M 18.109375 46.390625 
Q 20.953125 51.265625 25.265625 53.625 
Q 29.59375 56 35.59375 56 
Q 45.5625 56 51.78125 48.09375 
Q 58.015625 40.1875 58.015625 27.296875 
Q 58.015625 14.40625 51.78125 6.484375 
Q 45.5625 -1.421875 35.59375 -1.421875 
Q 29.59375 -1.421875 25.265625 0.953125 
Q 20.953125 3.328125 18.109375 8.203125 
L 18.109375 0 
L 9.078125 0 
L 9.078125 75.984375 
L 18.109375 75.984375 
z
" id="DejaVuSans-62"/>
     </defs>
     <g transform="translate(277.340938 270.164187)scale(0.06 -0.06)">
      <use xlink:href="#DejaVuSans-50"/>
      <use x="60.287109" xlink:href="#DejaVuSans-75"/>
      <use x="123.666016" xlink:href="#DejaVuSans-6e"/>
      <use x="187.044922" xlink:href="#DejaVuSans-6b"/>
      <use x="244.955078" xlink:href="#DejaVuSans-74"/>
      <use x="284.164062" xlink:href="#DejaVuSans-20"/>
      <use x="315.951172" xlink:href="#DejaVuSans-72"/>
      <use x="357.033203" xlink:href="#DejaVuSans-f3"/>
      <use x="418.214844" xlink:href="#DejaVuSans-77"/>
      <use x="500.001953" xlink:href="#DejaVuSans-6e"/>
      <use x="563.380859" xlink:href="#DejaVuSans-6f"/>
      <use x="624.5625" xlink:href="#DejaVuSans-77"/>
      <use x="706.349609" xlink:href="#DejaVuSans-61"/>
      <use x="767.628906" xlink:href="#DejaVuSans-67"/>
      <use x="831.105469" xlink:href="#DejaVuSans-69"/>
      <use x="858.888672" xlink:href="#DejaVuSans-20"/>
      <use x="890.675781" xlink:href="#DejaVuSans-61"/>
      <use x="951.955078" xlink:href="#DejaVuSans-73"/>
      <use x="1004.054688" xlink:href="#DejaVuSans-79"/>
      <use x="1063.234375" xlink:href="#DejaVuSans-6d"/>
      <use x="1160.646484" xlink:href="#DejaVuSans-70"/>
      <use x="1224.123047" xlink:href="#DejaVuSans-74"/>
      <use x="1263.332031" xlink:href="#DejaVuSans-6f"/>
      <use x="1324.513672" xlink:href="#DejaVuSans-74"/>
      <use x="1363.722656" xlink:href="#DejaVuSans-79"/>
      <use x="1422.902344" xlink:href="#DejaVuSans-63"/>
      <use x="1477.882812" xlink:href="#DejaVuSans-7a"/>
      <use x="1530.373047" xlink:href="#DejaVuSans-6e"/>
      <use x="1593.751953" xlink:href="#DejaVuSans-69"/>
      <use x="1621.535156" xlink:href="#DejaVuSans-65"/>
      <use x="1683.058594" xlink:href="#DejaVuSans-20"/>
      <use x="1714.845703" xlink:href="#DejaVuSans-73"/>
      <use x="1766.945312" xlink:href="#DejaVuSans-74"/>
      <use x="1806.154297" xlink:href="#DejaVuSans-61"/>
      <use x="1867.433594" xlink:href="#DejaVuSans-62"/>
      <use x="1930.910156" xlink:href="#DejaVuSans-69"/>
      <use x="1958.693359" xlink:href="#DejaVuSans-6c"/>
      <use x="1986.476562" xlink:href="#DejaVuSans-6e"/>
      <use x="2049.855469" xlink:href="#DejaVuSans-79"/>
     </g>
    </g>
   </g>
  </g>
 </g>
 <defs>
  <clipPath id="p9c2e536e8e">
   <rect height="266.112" width="357.12" x="52.160938" y="10.7"/>
  </clipPath>
 </defs>
</svg>
