<?xml version="1.0" encoding="utf-8" standalone="no"?>
<!DOCTYPE svg PUBLIC "-//W3C//DTD SVG 1.1//EN"
  "http://www.w3.org/Graphics/SVG/1.1/DTD/svg11.dtd">
<!-- Created with matplotlib (http://matplotlib.org/) -->
<svg height="314pt" version="1.1" viewBox="0 0 410 314" width="410pt" xmlns="http://www.w3.org/2000/svg" xmlns:xlink="http://www.w3.org/1999/xlink">
 <defs>
  <style type="text/css">
*{stroke-linecap:butt;stroke-linejoin:round;}
  </style>
 </defs>
 <g id="figure_1">
  <g id="patch_1">
   <path d="M 0 314.36825 
L 410.440313 314.36825 
L 410.440313 0 
L 0 0 
z
" style="fill:#ffffff;"/>
  </g>
  <g id="axes_1">
   <g id="patch_2">
    <path d="M 42.620313 276.812 
L 399.740313 276.812 
L 399.740313 10.7 
L 42.620313 10.7 
z
" style="fill:#ffffff;"/>
   </g>
   <g id="patch_3">
    <path clip-path="url(#pbba46bdc19)" d="M 266.569446 22.997417 
L 259.545525 20.1666 
L 262.45526 18.646819 
L 262.484213 18.631236 
L 262.484503 18.631545 
L 265.394238 17.111764 
z
" style="fill:#1f77b4;stroke:#000000;stroke-linejoin:miter;"/>
   </g>
   <g id="patch_4">
    <path clip-path="url(#pbba46bdc19)" d="M 260.215834 56.082659 
L 257.887636 50.390737 
L 261.391075 50.832946 
L 261.426353 50.837091 
L 261.426285 50.83739 
L 264.929724 51.279599 
z
" style="fill:#1f77b4;stroke:#000000;stroke-linejoin:miter;"/>
   </g>
   <g id="patch_5">
    <path clip-path="url(#pbba46bdc19)" d="M 263.331874 42.298237 
L 260.850544 36.642352 
L 264.365207 37.031975 
L 264.400595 37.035569 
L 264.40053 37.035891 
L 267.915194 37.425513 
z
" style="fill:#1f77b4;stroke:#000000;stroke-linejoin:miter;"/>
   </g>
   <g id="patch_6">
    <path clip-path="url(#pbba46bdc19)" d="M 256.699732 70.031494 
L 254.531782 64.304536 
L 258.022044 64.801243 
L 258.057193 64.805961 
L 258.057122 64.806235 
L 261.547384 65.302942 
z
" style="fill:#1f77b4;stroke:#000000;stroke-linejoin:miter;"/>
   </g>
   <g id="patch_7">
    <path clip-path="url(#pbba46bdc19)" d="M 266.011887 30.038551 
L 265.569219 24.097255 
L 268.83063 25.148289 
L 268.863614 25.158498 
L 268.863408 25.158852 
L 272.12482 26.209886 
z
" style="fill:#1f77b4;stroke:#000000;stroke-linejoin:miter;"/>
   </g>
   <g id="patch_8">
    <path clip-path="url(#pbba46bdc19)" d="M 259.038709 60.937957 
L 256.774828 55.231646 
L 260.273153 55.695794 
L 260.308381 55.700167 
L 260.308312 55.700458 
L 263.806636 56.164606 
z
" style="fill:#1f77b4;stroke:#000000;stroke-linejoin:miter;"/>
   </g>
   <g id="patch_9">
    <path clip-path="url(#pbba46bdc19)" d="M 300.188163 15.581438 
L 306.565791 12.000535 
L 307.209248 14.604575 
L 307.22026 14.630122 
L 307.215715 14.630746 
L 307.859172 17.234785 
z
" style="fill:#1f77b4;stroke:#000000;stroke-linejoin:miter;"/>
   </g>
   <g id="patch_10">
    <path clip-path="url(#pbba46bdc19)" d="M 263.976032 39.417017 
L 262.404334 33.582965 
L 265.833142 34.277816 
L 265.867724 34.284467 
L 265.867603 34.284799 
L 269.296411 34.979651 
z
" style="fill:#1f77b4;stroke:#000000;stroke-linejoin:miter;"/>
   </g>
   <g id="patch_11">
    <path clip-path="url(#pbba46bdc19)" d="M 338.523345 33.384089 
L 345.331472 30.27428 
L 345.637643 32.912247 
L 345.654284 32.937885 
L 345.64072 32.938759 
L 345.946891 35.576726 
z
" style="fill:#1f77b4;stroke:#000000;stroke-linejoin:miter;"/>
   </g>
   <g id="patch_12">
    <path clip-path="url(#pbba46bdc19)" d="M 285.645784 39.664999 
L 291.65373 35.745144 
L 292.551793 38.306997 
L 292.563499 38.332222 
L 292.560819 38.332744 
L 293.458881 40.894597 
z
" style="fill:#1f77b4;stroke:#000000;stroke-linejoin:miter;"/>
   </g>
   <g id="patch_13">
    <path clip-path="url(#pbba46bdc19)" d="M 358.126074 74.75134 
L 365.020237 71.748621 
L 365.252088 74.390793 
L 365.274785 74.416355 
L 365.254419 74.417347 
L 365.48627 77.059519 
z
" style="fill:#1f77b4;stroke:#000000;stroke-linejoin:miter;"/>
   </g>
   <g id="patch_14">
    <path clip-path="url(#pbba46bdc19)" d="M 305.927493 78.491454 
L 312.507301 75.119777 
L 312.998774 77.742142 
L 313.010054 77.767837 
L 313.003714 77.768497 
L 313.495187 80.390862 
z
" style="fill:#1f77b4;stroke:#000000;stroke-linejoin:miter;"/>
   </g>
   <g id="patch_15">
    <path clip-path="url(#pbba46bdc19)" d="M 357.782179 108.343598 
L 364.680411 105.346072 
L 364.908679 107.988417 
L 364.931587 108.013984 
L 364.910973 108.014973 
L 365.139242 110.657318 
z
" style="fill:#1f77b4;stroke:#000000;stroke-linejoin:miter;"/>
   </g>
   <g id="patch_16">
    <path clip-path="url(#pbba46bdc19)" d="M 323.14973 110.381499 
L 329.90189 107.204657 
L 330.255001 109.839365 
L 330.26893 109.865072 
L 330.25855 109.865844 
L 330.611661 112.500552 
z
" style="fill:#1f77b4;stroke:#000000;stroke-linejoin:miter;"/>
   </g>
   <g id="patch_17">
    <path clip-path="url(#pbba46bdc19)" d="M 357.477669 138.066449 
L 364.379421 135.073426 
L 364.604584 137.71592 
L 364.62768 137.741492 
L 364.606847 137.742477 
L 364.832009 140.38497 
z
" style="fill:#1f77b4;stroke:#000000;stroke-linejoin:miter;"/>
   </g>
   <g id="patch_18">
    <path clip-path="url(#pbba46bdc19)" d="M 311.885291 140.937785 
L 318.580336 137.694516 
L 318.980292 140.325504 
L 318.992568 140.351249 
L 318.984312 140.351946 
L 319.384269 142.982934 
z
" style="fill:#1f77b4;stroke:#000000;stroke-linejoin:miter;"/>
   </g>
   <g id="patch_19">
    <path clip-path="url(#pbba46bdc19)" d="M 357.180178 167.088285 
L 364.085314 164.099598 
L 364.307487 166.742232 
L 364.33077 166.767808 
L 364.30972 166.768791 
L 364.531893 169.411424 
z
" style="fill:#1f77b4;stroke:#000000;stroke-linejoin:miter;"/>
   </g>
   <g id="patch_20">
    <path clip-path="url(#pbba46bdc19)" d="M 295.7252 171.394306 
L 302.318744 168.037561 
L 302.799508 170.661028 
L 302.810101 170.686809 
L 302.80434 170.687395 
L 303.285104 173.310862 
z
" style="fill:#1f77b4;stroke:#000000;stroke-linejoin:miter;"/>
   </g>
   <g id="patch_21">
    <path clip-path="url(#pbba46bdc19)" d="M 335.591853 199.347094 
L 342.435847 196.28131 
L 342.711366 198.921153 
L 342.728772 198.946836 
L 342.714135 198.947684 
L 342.989654 201.587527 
z
" style="fill:#1f77b4;stroke:#000000;stroke-linejoin:miter;"/>
   </g>
   <g id="patch_22">
    <path clip-path="url(#pbba46bdc19)" d="M 278.85784 204.27666 
L 285.359839 200.822184 
L 285.91102 203.43795 
L 285.920553 203.463772 
L 285.91656 203.464239 
L 286.467741 206.080005 
z
" style="fill:#1f77b4;stroke:#000000;stroke-linejoin:miter;"/>
   </g>
   <g id="patch_23">
    <path clip-path="url(#pbba46bdc19)" d="M 334.930631 236.531904 
L 341.782051 233.475344 
L 342.051165 236.115554 
L 342.068754 236.141246 
L 342.05387 236.142089 
L 342.322985 238.782298 
z
" style="fill:#1f77b4;stroke:#000000;stroke-linejoin:miter;"/>
   </g>
   <g id="patch_24">
    <path clip-path="url(#pbba46bdc19)" d="M 253.249781 243.953244 
L 259.782084 240.530661 
L 260.310201 243.149068 
L 260.318028 243.175101 
L 260.315508 243.175383 
L 260.843624 245.79379 
z
" style="fill:#1f77b4;stroke:#000000;stroke-linejoin:miter;"/>
   </g>
   <g id="patch_25">
    <path clip-path="url(#pbba46bdc19)" d="M 383.154367 277.061883 
L 390.122048 274.154917 
L 390.288127 276.799837 
L 390.322163 276.825291 
L 390.289796 276.82642 
L 390.455875 279.47134 
z
" style="fill:#1f77b4;stroke:#000000;stroke-linejoin:miter;"/>
   </g>
   <g id="patch_26">
    <path clip-path="url(#pbba46bdc19)" d="M 321.487327 277.261167 
L 328.303449 274.161096 
L 328.602828 276.799496 
L 328.617804 276.825258 
L 328.605836 276.826012 
L 328.905215 279.464412 
z
" style="fill:#1f77b4;stroke:#000000;stroke-linejoin:miter;"/>
   </g>
   <g id="patch_27">
    <path clip-path="url(#pbba46bdc19)" d="M 274.256465 277.495992 
L 280.881045 274.173351 
L 281.337418 276.799236 
L 281.346475 276.825195 
L 281.342005 276.825627 
L 281.798378 279.451512 
z
" style="fill:#1f77b4;stroke:#000000;stroke-linejoin:miter;"/>
   </g>
   <g id="patch_28">
    <path clip-path="url(#pbba46bdc19)" d="M 233.479873 277.25341 
L 240.301589 274.160179 
L 240.596201 276.798877 
L 240.601363 276.82526 
L 240.599162 276.825396 
L 240.893774 279.464094 
z
" style="fill:#1f77b4;stroke:#000000;stroke-linejoin:miter;"/>
   </g>
   <g id="patch_29">
    <path clip-path="url(#pbba46bdc19)" d="M 177.33697 253.246323 
L 180.43338 258.731216 
L 176.887644 258.558037 
L 176.851979 258.556627 
L 176.852008 258.556297 
L 173.306273 258.383118 
z
" style="fill:#1f77b4;stroke:#000000;stroke-linejoin:miter;"/>
   </g>
   <g id="patch_30">
    <path clip-path="url(#pbba46bdc19)" d="M 184.071939 223.580681 
L 186.312031 229.292202 
L 182.815657 228.819962 
L 182.780449 228.815502 
L 182.780518 228.815216 
L 179.284145 228.342977 
z
" style="fill:#1f77b4;stroke:#000000;stroke-linejoin:miter;"/>
   </g>
   <g id="patch_31">
    <path clip-path="url(#pbba46bdc19)" d="M 178.609694 247.167995 
L 180.958782 252.85515 
L 177.453733 252.420085 
L 177.418433 252.416038 
L 177.418506 252.415712 
L 173.913457 251.980647 
z
" style="fill:#1f77b4;stroke:#000000;stroke-linejoin:miter;"/>
   </g>
   <g id="patch_32">
    <path clip-path="url(#pbba46bdc19)" d="M 185.225794 219.117997 
L 187.412765 224.840938 
L 183.920863 224.350671 
L 183.885698 224.346022 
L 183.885768 224.345744 
L 180.393867 223.855478 
z
" style="fill:#1f77b4;stroke:#000000;stroke-linejoin:miter;"/>
   </g>
   <g id="patch_33">
    <path clip-path="url(#pbba46bdc19)" d="M 164.156315 268.28804 
L 158.936984 272.791548 
L 157.570251 270.347431 
L 157.555006 270.323335 
L 157.556514 270.322867 
L 156.189781 267.87875 
z
" style="fill:#1f77b4;stroke:#000000;stroke-linejoin:miter;"/>
   </g>
   <g id="patch_34">
    <path clip-path="url(#pbba46bdc19)" d="M 181.024644 236.2132 
L 183.323081 241.911834 
L 179.821979 241.459463 
L 179.786721 241.455225 
L 179.786793 241.454916 
L 176.285691 241.002545 
z
" style="fill:#1f77b4;stroke:#000000;stroke-linejoin:miter;"/>
   </g>
   <g id="patch_35">
    <path clip-path="url(#pbba46bdc19)" d="M 106.850422 274.215419 
L 100.065787 277.353607 
L 99.739783 274.71696 
L 99.724038 274.691317 
L 99.736507 274.690461 
L 99.410504 272.053814 
z
" style="fill:#1f77b4;stroke:#000000;stroke-linejoin:miter;"/>
   </g>
   <g id="patch_36">
    <path clip-path="url(#pbba46bdc19)" d="M 170.868451 261.780932 
L 166.805125 266.903434 
L 164.877734 264.678978 
L 164.857498 264.657038 
L 164.858364 264.656622 
L 162.930973 262.432167 
z
" style="fill:#1f77b4;stroke:#000000;stroke-linejoin:miter;"/>
   </g>
   <g id="patch_37">
    <path clip-path="url(#pbba46bdc19)" d="M 84.033318 232.429036 
L 77.141579 235.434843 
L 76.907596 232.792775 
L 76.885023 232.767216 
L 76.905244 232.766222 
L 76.671261 230.124154 
z
" style="fill:#1f77b4;stroke:#000000;stroke-linejoin:miter;"/>
   </g>
   <g id="patch_38">
    <path clip-path="url(#pbba46bdc19)" d="M 147.045932 227.167165 
L 140.663484 230.743295 
L 140.023535 228.138775 
L 140.012791 228.113188 
L 140.017103 228.112599 
L 139.377155 225.50808 
z
" style="fill:#1f77b4;stroke:#000000;stroke-linejoin:miter;"/>
   </g>
   <g id="patch_39">
    <path clip-path="url(#pbba46bdc19)" d="M 84.413917 195.236725 
L 77.51762 198.236722 
L 77.287647 195.594459 
L 77.264841 195.568894 
L 77.285336 195.567904 
L 77.055363 192.925641 
z
" style="fill:#1f77b4;stroke:#000000;stroke-linejoin:miter;"/>
   </g>
   <g id="patch_40">
    <path clip-path="url(#pbba46bdc19)" d="M 129.090555 192.321723 
L 122.420054 195.592952 
L 122.000279 192.963679 
L 121.988072 192.937962 
L 121.99606 192.937254 
L 121.576286 190.307981 
z
" style="fill:#1f77b4;stroke:#000000;stroke-linejoin:miter;"/>
   </g>
   <g id="patch_41">
    <path clip-path="url(#pbba46bdc19)" d="M 84.733384 164.042015 
L 77.833349 167.037236 
L 77.606671 164.394815 
L 77.583667 164.369245 
L 77.604393 164.368258 
L 77.377714 161.725837 
z
" style="fill:#1f77b4;stroke:#000000;stroke-linejoin:miter;"/>
   </g>
   <g id="patch_42">
    <path clip-path="url(#pbba46bdc19)" d="M 119.576287 162.012315 
L 112.818786 165.182845 
L 112.470109 162.547809 
L 112.456133 162.522095 
L 112.466604 162.521326 
L 112.117927 159.88629 
z
" style="fill:#1f77b4;stroke:#000000;stroke-linejoin:miter;"/>
   </g>
   <g id="patch_43">
    <path clip-path="url(#pbba46bdc19)" d="M 85.030807 135.020204 
L 78.127368 138.011066 
L 77.903695 135.368503 
L 77.880506 135.342928 
L 77.901447 135.341944 
L 77.677775 132.699381 
z
" style="fill:#1f77b4;stroke:#000000;stroke-linejoin:miter;"/>
   </g>
   <g id="patch_44">
    <path clip-path="url(#pbba46bdc19)" d="M 139.242676 131.393513 
L 132.602954 134.699329 
L 132.15858 132.072302 
L 132.147329 132.046537 
L 132.154114 132.0459 
L 131.709741 129.418872 
z
" style="fill:#1f77b4;stroke:#000000;stroke-linejoin:miter;"/>
   </g>
   <g id="patch_45">
    <path clip-path="url(#pbba46bdc19)" d="M 85.335584 105.297247 
L 78.428713 108.283706 
L 78.208075 105.641001 
L 78.184694 105.615422 
L 78.205857 105.614441 
L 77.985219 102.971736 
z
" style="fill:#1f77b4;stroke:#000000;stroke-linejoin:miter;"/>
   </g>
   <g id="patch_46">
    <path clip-path="url(#pbba46bdc19)" d="M 153.120533 100.382751 
L 146.561722 103.777069 
L 146.053977 101.156426 
L 146.043848 101.130629 
L 146.048874 101.130088 
L 145.54113 98.509445 
z
" style="fill:#1f77b4;stroke:#000000;stroke-linejoin:miter;"/>
   </g>
   <g id="patch_47">
    <path clip-path="url(#pbba46bdc19)" d="M 107.080117 70.644551 
L 100.232599 73.705961 
L 99.960117 71.065943 
L 99.942626 71.040256 
L 99.957379 71.03941 
L 99.684897 68.399392 
z
" style="fill:#1f77b4;stroke:#000000;stroke-linejoin:miter;"/>
   </g>
   <g id="patch_48">
    <path clip-path="url(#pbba46bdc19)" d="M 175.755606 64.420419 
L 169.284112 67.906556 
L 168.70995 65.293537 
L 168.701071 65.267655 
L 168.704179 65.267275 
L 168.130017 62.654256 
z
" style="fill:#1f77b4;stroke:#000000;stroke-linejoin:miter;"/>
   </g>
   <g id="patch_49">
    <path clip-path="url(#pbba46bdc19)" d="M 122.861367 27.276738 
L 116.05948 30.394121 
L 115.748022 27.756498 
L 115.733578 27.730731 
L 115.744892 27.729989 
L 115.433435 25.092366 
z
" style="fill:#1f77b4;stroke:#000000;stroke-linejoin:miter;"/>
   </g>
   <g id="patch_50">
    <path clip-path="url(#pbba46bdc19)" d="M 201.769502 20.176366 
L 195.064185 23.40783 
L 194.672577 20.776145 
L 194.666354 20.749885 
L 194.668641 20.749696 
L 194.277034 18.118011 
z
" style="fill:#1f77b4;stroke:#000000;stroke-linejoin:miter;"/>
   </g>
   <g id="patch_51">
    <path clip-path="url(#pbba46bdc19)" d="M 92.590448 10.36288 
L 85.687892 13.354873 
L 85.463439 10.712346 
L 85.441402 10.686721 
L 85.461184 10.685788 
L 85.236731 8.043261 
z
" style="fill:#1f77b4;stroke:#000000;stroke-linejoin:miter;"/>
   </g>
   <g id="patch_52">
    <path clip-path="url(#pbba46bdc19)" d="M 145.677097 10.121789 
L 138.964469 13.344813 
L 138.578824 10.712639 
L 138.567722 10.686773 
L 138.574948 10.686185 
L 138.189304 8.054011 
z
" style="fill:#1f77b4;stroke:#000000;stroke-linejoin:miter;"/>
   </g>
   <g id="patch_53">
    <path clip-path="url(#pbba46bdc19)" d="M 188.964406 10.027224 
L 182.330493 13.339509 
L 181.881509 10.712917 
L 181.874028 10.686801 
L 181.876996 10.686519 
L 181.428012 8.059927 
z
" style="fill:#1f77b4;stroke:#000000;stroke-linejoin:miter;"/>
   </g>
   <g id="patch_54">
    <path clip-path="url(#pbba46bdc19)" d="M 266.569049 22.997598 
L 259.545266 20.16659 
L 262.455076 18.646888 
L 262.48403 18.631306 
L 262.48432 18.631615 
L 265.39413 17.111913 
z
" style="fill:#1f77b4;stroke:#000000;stroke-linejoin:miter;"/>
   </g>
   <g id="patch_55">
    <path clip-path="url(#pbba46bdc19)" d="M 260.215887 56.082679 
L 257.887718 50.39075 
L 261.391154 50.832969 
L 261.426432 50.837114 
L 261.426364 50.837413 
L 264.929801 51.279632 
z
" style="fill:#1f77b4;stroke:#000000;stroke-linejoin:miter;"/>
   </g>
   <g id="matplotlib.axis_1">
    <g id="xtick_1">
     <g id="line2d_1">
      <defs>
       <path d="M 0 0 
L 0 3.5 
" id="ma574263241" style="stroke:#000000;stroke-width:0.8;"/>
      </defs>
      <g>
       <use style="stroke:#000000;stroke-width:0.8;" x="78.332313" xlink:href="#ma574263241" y="276.812"/>
      </g>
     </g>
     <g id="text_1">
      <!-- −4 -->
      <defs>
       <path d="M 10.59375 35.5 
L 73.1875 35.5 
L 73.1875 27.203125 
L 10.59375 27.203125 
z
" id="DejaVuSans-2212"/>
       <path d="M 37.796875 64.3125 
L 12.890625 25.390625 
L 37.796875 25.390625 
z
M 35.203125 72.90625 
L 47.609375 72.90625 
L 47.609375 25.390625 
L 58.015625 25.390625 
L 58.015625 17.1875 
L 47.609375 17.1875 
L 47.609375 0 
L 37.796875 0 
L 37.796875 17.1875 
L 4.890625 17.1875 
L 4.890625 26.703125 
z
" id="DejaVuSans-34"/>
      </defs>
      <g transform="translate(70.961219 291.410438)scale(0.1 -0.1)">
       <use xlink:href="#DejaVuSans-2212"/>
       <use x="83.789062" xlink:href="#DejaVuSans-34"/>
      </g>
     </g>
    </g>
    <g id="xtick_2">
     <g id="line2d_2">
      <g>
       <use style="stroke:#000000;stroke-width:0.8;" x="149.756313" xlink:href="#ma574263241" y="276.812"/>
      </g>
     </g>
     <g id="text_2">
      <!-- −2 -->
      <defs>
       <path d="M 19.1875 8.296875 
L 53.609375 8.296875 
L 53.609375 0 
L 7.328125 0 
L 7.328125 8.296875 
Q 12.9375 14.109375 22.625 23.890625 
Q 32.328125 33.6875 34.8125 36.53125 
Q 39.546875 41.84375 41.421875 45.53125 
Q 43.3125 49.21875 43.3125 52.78125 
Q 43.3125 58.59375 39.234375 62.25 
Q 35.15625 65.921875 28.609375 65.921875 
Q 23.96875 65.921875 18.8125 64.3125 
Q 13.671875 62.703125 7.8125 59.421875 
L 7.8125 69.390625 
Q 13.765625 71.78125 18.9375 73 
Q 24.125 74.21875 28.421875 74.21875 
Q 39.75 74.21875 46.484375 68.546875 
Q 53.21875 62.890625 53.21875 53.421875 
Q 53.21875 48.921875 51.53125 44.890625 
Q 49.859375 40.875 45.40625 35.40625 
Q 44.1875 33.984375 37.640625 27.21875 
Q 31.109375 20.453125 19.1875 8.296875 
" id="DejaVuSans-32"/>
      </defs>
      <g transform="translate(142.385219 291.410438)scale(0.1 -0.1)">
       <use xlink:href="#DejaVuSans-2212"/>
       <use x="83.789062" xlink:href="#DejaVuSans-32"/>
      </g>
     </g>
    </g>
    <g id="xtick_3">
     <g id="line2d_3">
      <g>
       <use style="stroke:#000000;stroke-width:0.8;" x="221.180313" xlink:href="#ma574263241" y="276.812"/>
      </g>
     </g>
     <g id="text_3">
      <!-- 0 -->
      <defs>
       <path d="M 31.78125 66.40625 
Q 24.171875 66.40625 20.328125 58.90625 
Q 16.5 51.421875 16.5 36.375 
Q 16.5 21.390625 20.328125 13.890625 
Q 24.171875 6.390625 31.78125 6.390625 
Q 39.453125 6.390625 43.28125 13.890625 
Q 47.125 21.390625 47.125 36.375 
Q 47.125 51.421875 43.28125 58.90625 
Q 39.453125 66.40625 31.78125 66.40625 
M 31.78125 74.21875 
Q 44.046875 74.21875 50.515625 64.515625 
Q 56.984375 54.828125 56.984375 36.375 
Q 56.984375 17.96875 50.515625 8.265625 
Q 44.046875 -1.421875 31.78125 -1.421875 
Q 19.53125 -1.421875 13.0625 8.265625 
Q 6.59375 17.96875 6.59375 36.375 
Q 6.59375 54.828125 13.0625 64.515625 
Q 19.53125 74.21875 31.78125 74.21875 
" id="DejaVuSans-30"/>
      </defs>
      <g transform="translate(217.999063 291.410438)scale(0.1 -0.1)">
       <use xlink:href="#DejaVuSans-30"/>
      </g>
     </g>
    </g>
    <g id="xtick_4">
     <g id="line2d_4">
      <g>
       <use style="stroke:#000000;stroke-width:0.8;" x="292.604312" xlink:href="#ma574263241" y="276.812"/>
      </g>
     </g>
     <g id="text_4">
      <!-- 2 -->
      <g transform="translate(289.423063 291.410438)scale(0.1 -0.1)">
       <use xlink:href="#DejaVuSans-32"/>
      </g>
     </g>
    </g>
    <g id="xtick_5">
     <g id="line2d_5">
      <g>
       <use style="stroke:#000000;stroke-width:0.8;" x="364.028313" xlink:href="#ma574263241" y="276.812"/>
      </g>
     </g>
     <g id="text_5">
      <!-- 4 -->
      <g transform="translate(360.847063 291.410438)scale(0.1 -0.1)">
       <use xlink:href="#DejaVuSans-34"/>
      </g>
     </g>
    </g>
    <g id="text_6">
     <!-- x1 -->
     <defs>
      <path d="M 54.890625 54.6875 
L 35.109375 28.078125 
L 55.90625 0 
L 45.3125 0 
L 29.390625 21.484375 
L 13.484375 0 
L 2.875 0 
L 24.125 28.609375 
L 4.6875 54.6875 
L 15.28125 54.6875 
L 29.78125 35.203125 
L 44.28125 54.6875 
z
" id="DejaVuSans-78"/>
      <path d="M 12.40625 8.296875 
L 28.515625 8.296875 
L 28.515625 63.921875 
L 10.984375 60.40625 
L 10.984375 69.390625 
L 28.421875 72.90625 
L 38.28125 72.90625 
L 38.28125 8.296875 
L 54.390625 8.296875 
L 54.390625 0 
L 12.40625 0 
z
" id="DejaVuSans-31"/>
     </defs>
     <g transform="translate(215.039688 305.088562)scale(0.1 -0.1)">
      <use xlink:href="#DejaVuSans-78"/>
      <use x="59.179688" xlink:href="#DejaVuSans-31"/>
     </g>
    </g>
   </g>
   <g id="matplotlib.axis_2">
    <g id="ytick_1">
     <g id="line2d_6">
      <defs>
       <path d="M 0 0 
L -3.5 0 
" id="m123caf2b32" style="stroke:#000000;stroke-width:0.8;"/>
      </defs>
      <g>
       <use style="stroke:#000000;stroke-width:0.8;" x="42.620313" xlink:href="#m123caf2b32" y="250.2008"/>
      </g>
     </g>
     <g id="text_7">
      <!-- −4 -->
      <g transform="translate(20.878125 254.000019)scale(0.1 -0.1)">
       <use xlink:href="#DejaVuSans-2212"/>
       <use x="83.789062" xlink:href="#DejaVuSans-34"/>
      </g>
     </g>
    </g>
    <g id="ytick_2">
     <g id="line2d_7">
      <g>
       <use style="stroke:#000000;stroke-width:0.8;" x="42.620313" xlink:href="#m123caf2b32" y="196.9784"/>
      </g>
     </g>
     <g id="text_8">
      <!-- −2 -->
      <g transform="translate(20.878125 200.777619)scale(0.1 -0.1)">
       <use xlink:href="#DejaVuSans-2212"/>
       <use x="83.789062" xlink:href="#DejaVuSans-32"/>
      </g>
     </g>
    </g>
    <g id="ytick_3">
     <g id="line2d_8">
      <g>
       <use style="stroke:#000000;stroke-width:0.8;" x="42.620313" xlink:href="#m123caf2b32" y="143.756"/>
      </g>
     </g>
     <g id="text_9">
      <!-- 0 -->
      <g transform="translate(29.257813 147.555219)scale(0.1 -0.1)">
       <use xlink:href="#DejaVuSans-30"/>
      </g>
     </g>
    </g>
    <g id="ytick_4">
     <g id="line2d_9">
      <g>
       <use style="stroke:#000000;stroke-width:0.8;" x="42.620313" xlink:href="#m123caf2b32" y="90.5336"/>
      </g>
     </g>
     <g id="text_10">
      <!-- 2 -->
      <g transform="translate(29.257813 94.332819)scale(0.1 -0.1)">
       <use xlink:href="#DejaVuSans-32"/>
      </g>
     </g>
    </g>
    <g id="ytick_5">
     <g id="line2d_10">
      <g>
       <use style="stroke:#000000;stroke-width:0.8;" x="42.620313" xlink:href="#m123caf2b32" y="37.3112"/>
      </g>
     </g>
     <g id="text_11">
      <!-- 4 -->
      <g transform="translate(29.257813 41.110419)scale(0.1 -0.1)">
       <use xlink:href="#DejaVuSans-34"/>
      </g>
     </g>
    </g>
    <g id="text_12">
     <!-- x2 -->
     <g transform="translate(14.798438 149.896625)rotate(-90)scale(0.1 -0.1)">
      <use xlink:href="#DejaVuSans-78"/>
      <use x="59.179688" xlink:href="#DejaVuSans-32"/>
     </g>
    </g>
   </g>
   <g id="line2d_11">
    <path clip-path="url(#pbba46bdc19)" d="M 221.180313 10.7 
L 228.040096 10.803631 
L 234.330486 11.103284 
L 240.021685 11.5816 
L 245.073861 12.220123 
L 249.458646 12.999329 
L 253.172373 13.899201 
L 256.24043 14.900045 
L 258.713747 15.983322 
L 260.66054 17.132285 
L 262.156915 18.332355 
L 263.278571 19.571271 
L 264.095588 20.838927 
L 264.669485 22.127163 
L 265.122321 23.756717 
L 265.355215 25.398831 
L 265.428474 27.376214 
L 265.293651 30.011007 
L 264.854584 33.610361 
L 263.963849 38.766286 
L 262.353367 46.588689 
L 259.966557 57.017446 
L 257.378697 67.355602 
L 254.746466 76.973871 
L 252.152803 85.630986 
L 249.538895 93.589295 
L 246.919873 100.845333 
L 244.315704 107.4003 
L 241.751046 113.26137 
L 239.186829 118.577378 
L 236.601019 123.431154 
L 233.998183 127.844471 
L 231.419767 131.78731 
L 228.817749 135.36785 
L 226.205522 138.589045 
L 223.631555 141.414839 
L 221.318026 143.63885 
L 221.180312 143.756 
L 221.180313 143.756 
" style="fill:none;stroke:#1f77b4;stroke-linecap:square;stroke-width:0.5;"/>
   </g>
   <g id="line2d_12">
    <path clip-path="url(#pbba46bdc19)" d="M 260.484341 10.7 
L 261.910344 11.595081 
L 263.405986 12.832458 
L 264.514007 14.108488 
L 265.310543 15.412676 
L 265.860936 16.736764 
L 266.284435 18.410116 
L 266.511564 20.432707 
L 266.516246 22.79832 
L 266.270481 25.831693 
L 265.705918 29.839774 
L 264.574211 36.065682 
L 262.59757 45.547573 
L 260.064217 56.618988 
L 257.405567 67.254171 
L 254.773483 76.879854 
L 252.180045 85.544247 
L 249.566225 93.509906 
L 246.94714 100.773315 
L 244.342656 107.335604 
L 241.777451 113.20387 
L 239.212321 118.527066 
L 236.625126 123.388078 
L 234.020416 127.808649 
L 231.439466 131.758683 
L 228.834124 135.346467 
L 226.217612 138.574934 
L 223.638263 141.407928 
L 221.323287 143.634283 
L 221.180312 143.756 
L 221.180312 143.756 
" style="fill:none;stroke:#1f77b4;stroke-linecap:square;stroke-width:0.5;"/>
   </g>
   <g id="line2d_13">
    <path clip-path="url(#pbba46bdc19)" d="M 303.790965 10.7 
L 299.854464 11.300506 
L 296.513308 11.873978 
L 291.147433 12.954813 
L 287.033778 13.965627 
L 282.41741 15.383327 
L 279.04016 16.71268 
L 276.486796 17.976326 
L 274.507044 19.189668 
L 272.940258 20.363607 
L 271.311226 21.881002 
L 270.056263 23.355741 
L 268.847225 25.153216 
L 267.747323 27.258659 
L 266.767363 29.660996 
L 265.786171 32.684066 
L 264.649595 36.948214 
L 262.658746 45.489536 
L 259.175098 60.294369 
L 256.497575 70.674913 
L 253.852176 80.048334 
L 251.249916 88.464291 
L 248.632249 96.179768 
L 246.015863 103.192789 
L 243.422338 109.506479 
L 240.8779 115.13039 
L 238.278889 120.337491 
L 235.681236 125.042763 
L 233.097309 129.268699 
L 230.476307 133.130087 
L 227.879778 136.566208 
L 225.271151 139.654442 
L 222.745777 142.306332 
L 221.180312 143.756 
L 221.180312 143.756 
" style="fill:none;stroke:#1f77b4;stroke-linecap:square;stroke-width:0.5;"/>
   </g>
   <g id="line2d_14">
    <path clip-path="url(#pbba46bdc19)" d="M 356.918096 10.7 
L 340.113872 11.64471 
L 328.358617 12.484837 
L 312.730997 13.956075 
L 302.671581 15.240698 
L 295.603188 16.399703 
L 290.356756 17.467949 
L 286.31407 18.467541 
L 281.752003 19.869838 
L 278.395073 21.184584 
L 275.844101 22.433851 
L 273.856605 23.632755 
L 271.821397 25.17105 
L 270.277312 26.656464 
L 269.074249 28.101229 
L 267.902287 29.862877 
L 266.823147 31.926604 
L 265.850494 34.280975 
L 264.866885 37.242514 
L 263.638766 41.733805 
L 261.493456 50.672534 
L 258.123293 64.488736 
L 255.427895 74.568844 
L 252.769054 83.645384 
L 250.1585 91.769563 
L 247.539056 99.191876 
L 244.929335 105.912336 
L 242.35284 111.936597 
L 239.768959 117.416009 
L 237.218771 122.315615 
L 234.629599 126.815219 
L 232.035795 130.882182 
L 229.423592 134.568214 
L 226.793712 137.895114 
L 224.205683 140.81435 
L 221.779109 143.225829 
L 221.180312 143.756 
L 221.180312 143.756 
" style="fill:none;stroke:#1f77b4;stroke-linecap:square;stroke-width:0.5;"/>
   </g>
   <g id="line2d_15">
    <path clip-path="url(#pbba46bdc19)" d="M 399.740313 30.737215 
L 365.707089 31.927866 
L 345.652745 32.924629 
L 332.08941 33.79873 
L 322.161945 34.586458 
L 308.405685 35.981226 
L 299.202433 37.208523 
L 292.558986 38.319349 
L 287.521819 39.343977 
L 281.895815 40.760652 
L 277.774002 42.069644 
L 274.637551 43.298226 
L 272.183084 44.464755 
L 269.65105 45.945466 
L 267.712119 47.360091 
L 266.188207 48.723462 
L 264.693457 50.371335 
L 263.312821 52.284556 
L 262.075164 54.448568 
L 260.969679 56.852192 
L 259.762268 60.062308 
L 258.332096 64.57446 
L 255.142757 75.693194 
L 252.163789 85.613875 
L 249.545405 93.574401 
L 246.925302 100.832018 
L 244.320808 107.388391 
L 241.755946 113.250808 
L 239.191531 118.568154 
L 236.605431 123.423271 
L 234.002236 127.837904 
L 231.423359 131.782019 
L 228.820774 135.363817 
L 226.207801 138.586348 
L 223.632854 141.413496 
L 221.319292 143.637753 
L 221.180312 143.756 
L 221.180312 143.756 
" style="fill:none;stroke:#1f77b4;stroke-linecap:square;stroke-width:0.5;"/>
   </g>
   <g id="line2d_16">
    <path clip-path="url(#pbba46bdc19)" d="M 399.740313 73.214173 
L 365.27362 74.403078 
L 344.907498 75.395411 
L 331.074036 76.262936 
L 313.007585 77.75466 
L 301.430302 79.031411 
L 293.227362 80.163135 
L 287.045113 81.188813 
L 280.120492 82.579617 
L 274.985851 83.837206 
L 269.871913 85.360808 
L 266.036169 86.752436 
L 263.047068 88.043149 
L 260.122756 89.546212 
L 257.826295 90.952736 
L 255.643422 92.540419 
L 253.641875 94.283752 
L 251.840281 96.163078 
L 250.225318 98.163145 
L 248.634413 100.4764 
L 246.878522 103.443513 
L 244.770865 107.478208 
L 237.072107 122.645753 
L 234.351214 127.295488 
L 231.724759 131.351009 
L 229.112808 134.984305 
L 226.48887 138.25812 
L 223.902436 141.133951 
L 221.525487 143.455774 
L 221.180312 143.756 
L 221.180312 143.756 
" style="fill:none;stroke:#1f77b4;stroke-linecap:square;stroke-width:0.5;"/>
   </g>
   <g id="line2d_17">
    <path clip-path="url(#pbba46bdc19)" d="M 399.740313 106.813183 
L 364.93044 108.000706 
L 344.316472 108.989528 
L 330.267156 109.851832 
L 311.805268 111.328547 
L 299.852891 112.58457 
L 291.285775 113.690056 
L 282.004698 115.147398 
L 275.25468 116.42809 
L 268.565052 117.935026 
L 262.432875 119.580325 
L 257.020505 121.297614 
L 252.322611 123.038655 
L 248.267282 124.768771 
L 244.427761 126.637394 
L 240.70218 128.699868 
L 237.135462 130.934837 
L 233.562508 133.449344 
L 229.886793 136.318932 
L 225.280822 140.224055 
L 221.180312 143.756 
L 221.180313 143.756 
" style="fill:none;stroke:#1f77b4;stroke-linecap:square;stroke-width:0.5;"/>
   </g>
   <g id="line2d_18">
    <path clip-path="url(#pbba46bdc19)" d="M 399.740313 136.541913 
L 364.626549 137.728213 
L 343.79285 138.713922 
L 329.550903 139.571596 
L 310.734096 141.034957 
L 298.441023 142.272469 
L 285.903163 143.849981 
L 277.129038 145.193727 
L 268.591885 146.727347 
L 259.48792 148.631386 
L 250.101565 150.865424 
L 231.616786 155.39205 
L 227.030984 156.230957 
L 223.510021 156.649605 
L 220.815937 156.745713 
L 218.786675 156.596658 
L 217.296738 156.265022 
L 216.242254 155.801493 
L 215.535492 155.246794 
L 215.102685 154.633237 
L 214.873646 153.939142 
L 214.836228 153.088273 
L 215.031914 152.061386 
L 215.510066 150.82522 
L 216.339779 149.334575 
L 217.565341 147.605468 
L 219.203018 145.68781 
L 221.027131 143.887883 
L 221.180313 143.756 
L 221.180312 143.756 
" style="fill:none;stroke:#1f77b4;stroke-linecap:square;stroke-width:0.5;"/>
   </g>
   <g id="line2d_19">
    <path clip-path="url(#pbba46bdc19)" d="M 399.740313 165.569424 
L 364.329653 166.754529 
L 343.279645 167.737198 
L 328.848185 168.590332 
L 309.679262 170.040574 
L 297.04678 171.259828 
L 284.003046 172.800511 
L 272.148577 174.485351 
L 260.022692 176.475547 
L 237.804508 180.228387 
L 231.539931 181.027061 
L 226.256414 181.482892 
L 221.750405 181.647655 
L 217.909696 181.564055 
L 214.663642 181.269519 
L 211.958061 180.797837 
L 209.742975 180.179735 
L 207.967714 179.442951 
L 206.580297 178.612159 
L 205.528831 177.708929 
L 204.763415 176.751789 
L 204.237909 175.756389 
L 203.882368 174.606979 
L 203.721185 173.310647 
L 203.76275 171.879907 
L 204.028998 170.203943 
L 204.578307 168.189844 
L 205.476899 165.780353 
L 206.770429 162.973565 
L 208.461573 159.839696 
L 210.546833 156.449248 
L 212.885055 153.073274 
L 215.35924 149.887387 
L 217.906516 146.968391 
L 220.343269 144.507456 
L 221.180313 143.756 
L 221.180312 143.756 
" style="fill:none;stroke:#1f77b4;stroke-linecap:square;stroke-width:0.5;"/>
   </g>
   <g id="line2d_20">
    <path clip-path="url(#pbba46bdc19)" d="M 399.740313 196.770356 
L 364.010287 197.954176 
L 342.727387 198.933571 
L 328.090572 199.781814 
L 308.538036 201.217882 
L 295.531512 202.417339 
L 281.924371 203.917868 
L 266.728017 205.878234 
L 243.106996 209.03741 
L 235.375647 209.840371 
L 228.675986 210.322001 
L 222.762655 210.522286 
L 217.518586 210.473436 
L 212.890883 210.204029 
L 208.854907 209.741015 
L 205.392574 209.11045 
L 202.479989 208.337483 
L 200.082328 207.445954 
L 198.153909 206.457903 
L 196.641508 205.393143 
L 195.488761 204.269017 
L 194.640213 203.100355 
L 194.044357 201.899586 
L 193.607827 200.471675 
L 193.391465 199.026991 
L 193.357452 197.160911 
L 193.552063 195.093672 
L 194.048161 192.439573 
L 194.887803 189.25291 
L 196.192431 185.238583 
L 198.017262 180.393147 
L 200.242609 175.134857 
L 202.658842 169.990356 
L 205.196521 165.1078 
L 207.77799 160.623636 
L 210.365313 156.571286 
L 212.970588 152.899546 
L 215.592224 149.586821 
L 218.191325 146.659122 
L 220.613353 144.257007 
L 221.180313 143.756 
L 221.180312 143.756 
" style="fill:none;stroke:#1f77b4;stroke-linecap:square;stroke-width:0.5;"/>
   </g>
   <g id="line2d_21">
    <path clip-path="url(#pbba46bdc19)" d="M 399.740313 233.970206 
L 363.62921 235.152494 
L 342.067401 236.127979 
L 327.183539 236.970373 
L 307.166155 238.389435 
L 293.701752 239.565037 
L 275.563684 241.436184 
L 244.815068 244.779423 
L 235.821837 245.488622 
L 227.868398 245.883249 
L 220.703197 245.996721 
L 214.226998 245.85622 
L 208.420053 245.486883 
L 203.296693 244.913878 
L 198.873535 244.162988 
L 195.839104 243.451775 
L 193.239421 242.656647 
L 191.050365 241.790222 
L 189.238897 240.864267 
L 187.766125 239.889469 
L 186.59055 238.875313 
L 185.670916 237.830038 
L 184.8223 236.490288 
L 184.244965 235.124158 
L 183.829684 233.462521 
L 183.642289 231.787673 
L 183.643695 229.548774 
L 183.874905 227.038074 
L 184.410761 223.724739 
L 185.403108 219.127745 
L 187.002714 212.870347 
L 189.190123 205.226507 
L 191.714846 197.211779 
L 194.258711 189.858569 
L 196.799347 183.168839 
L 199.386081 176.976299 
L 201.988203 171.327809 
L 204.565882 166.261009 
L 207.133024 161.695693 
L 209.731512 157.52314 
L 212.337384 153.755286 
L 214.957338 150.355079 
L 217.56428 147.33341 
L 220.058561 144.776045 
L 221.180313 143.756 
L 221.180312 143.756 
" style="fill:none;stroke:#1f77b4;stroke-linecap:square;stroke-width:0.5;"/>
   </g>
   <g id="line2d_22">
    <path clip-path="url(#pbba46bdc19)" d="M 390.321329 276.812 
L 357.953744 277.940529 
" style="fill:none;stroke:#1f77b4;stroke-linecap:square;stroke-width:0.5;"/>
   </g>
   <g id="line2d_23">
    <path clip-path="url(#pbba46bdc19)" d="M 328.6163 276.812 
L 316.648422 277.566046 
" style="fill:none;stroke:#1f77b4;stroke-linecap:square;stroke-width:0.5;"/>
   </g>
   <g id="line2d_24">
    <path clip-path="url(#pbba46bdc19)" d="M 281.344181 276.812 
L 276.873963 277.243394 
" style="fill:none;stroke:#1f77b4;stroke-linecap:square;stroke-width:0.5;"/>
   </g>
   <g id="line2d_25">
    <path clip-path="url(#pbba46bdc19)" d="M 240.599883 276.812 
L 238.398718 276.948463 
" style="fill:none;stroke:#1f77b4;stroke-linecap:square;stroke-width:0.5;"/>
   </g>
   <g id="line2d_26">
    <path clip-path="url(#pbba46bdc19)" d="M 201.760742 276.812 
L 196.732369 276.156638 
L 192.379985 275.361374 
L 188.7051 274.446508 
L 185.679357 273.431884 
L 183.248706 272.3361 
L 181.342422 271.175875 
L 179.882931 269.965685 
L 178.793559 268.717693 
L 178.004057 267.441871 
L 177.45323 266.146215 
L 177.023308 264.508243 
L 176.785082 262.527725 
L 176.767365 260.210571 
L 176.999878 257.2386 
L 177.554065 253.311322 
L 178.618731 247.52922 
L 180.463291 238.839274 
L 182.937072 228.246892 
L 185.535695 218.060015 
L 188.175984 208.595588 
L 190.775158 200.089986 
L 193.391698 192.284282 
L 196.009363 185.181037 
L 198.607189 178.777864 
L 201.159549 173.066109 
L 203.704041 167.899176 
L 206.260788 163.195471 
L 208.823066 158.932905 
L 211.450275 154.993261 
L 214.047735 151.493273 
L 216.673985 148.325769 
L 219.22478 145.592894 
L 221.180313 143.756 
L 221.180312 143.756 
" style="fill:none;stroke:#1f77b4;stroke-linecap:square;stroke-width:0.5;"/>
   </g>
   <g id="line2d_27">
    <path clip-path="url(#pbba46bdc19)" d="M 161.016444 276.812 
L 163.947694 275.501351 
L 166.180529 274.247976 
L 167.921455 273.038706 
L 169.703938 271.479107 
L 171.055627 269.965807 
L 172.336926 268.123271 
L 173.313631 266.322411 
L 174.225415 264.203532 
L 175.170069 261.433741 
L 176.194834 257.705891 
L 177.653468 251.442766 
L 182.64556 229.432878 
L 185.312585 218.897861 
L 187.950243 209.371529 
L 190.54728 200.805058 
L 193.162893 192.938058 
L 195.781165 185.77349 
L 198.381665 179.30942 
L 200.93915 173.5378 
L 203.491755 168.311154 
L 206.060405 163.5474 
L 208.639121 159.224604 
L 211.237426 155.296989 
L 213.831167 151.770739 
L 216.459207 148.571244 
L 219.025523 145.79398 
L 221.180313 143.756 
L 221.180313 143.756 
" style="fill:none;stroke:#1f77b4;stroke-linecap:square;stroke-width:0.5;"/>
   </g>
   <g id="line2d_28">
    <path clip-path="url(#pbba46bdc19)" d="M 113.744325 276.812 
L 122.562314 276.045745 
L 129.434496 275.337476 
L 139.517392 274.050146 
L 146.592521 272.888647 
L 151.838033 271.817939 
L 155.875907 270.815838 
L 160.42625 269.409602 
L 163.769736 268.090631 
L 166.306956 266.836827 
L 168.280683 265.633092 
L 169.847664 264.468691 
L 171.481792 262.964107 
L 172.745294 261.502364 
L 173.965822 259.721542 
L 175.079752 257.636642 
L 176.07423 255.259023 
L 177.070529 252.268739 
L 178.222837 248.053449 
L 180.161119 239.922573 
L 183.733438 225.013497 
L 186.420636 214.789514 
L 189.073315 205.570868 
L 191.680129 197.307119 
L 194.299125 189.744637 
L 196.912542 182.884414 
L 199.497753 176.722041 
L 202.096794 171.103943 
L 204.669736 166.067251 
L 207.230055 161.53193 
L 209.819221 157.389725 
L 212.412671 153.652305 
L 215.016431 150.282681 
L 217.627228 147.264802 
L 220.114738 144.722532 
L 221.180313 143.756 
L 221.180313 143.756 
" style="fill:none;stroke:#1f77b4;stroke-linecap:square;stroke-width:0.5;"/>
   </g>
   <g id="line2d_29">
    <path clip-path="url(#pbba46bdc19)" d="M 52.039296 276.812 
L 81.630734 275.67235 
L 99.725677 274.704566 
L 112.194275 273.848538 
L 121.41646 273.072343 
L 134.292176 271.688562 
L 142.936353 270.461873 
L 149.169377 269.344552 
L 153.877493 268.307974 
L 157.552336 267.333396 
L 161.747138 265.960339 
L 164.867184 264.668216 
L 167.258084 263.437197 
L 169.133461 262.253549 
L 171.066848 260.732388 
L 172.543674 259.261631 
L 173.701544 257.829868 
L 174.836443 256.082946 
L 175.88896 254.035471 
L 176.844538 251.698942 
L 177.914586 248.436678 
L 179.200713 243.674881 
L 181.896431 232.478781 
L 184.921717 220.375648 
L 187.555581 210.741091 
L 190.149003 202.06825 
L 192.762769 194.094126 
L 195.381877 186.822272 
L 197.98661 180.251579 
L 200.552488 174.375 
L 203.118654 169.043494 
L 205.7074 164.174086 
L 208.314342 159.74505 
L 210.898223 155.78665 
L 213.507436 152.190421 
L 216.128946 148.953469 
L 218.69674 146.130518 
L 221.018526 143.894093 
L 221.180313 143.756 
L 221.180312 143.756 
" style="fill:none;stroke:#1f77b4;stroke-linecap:square;stroke-width:0.5;"/>
   </g>
   <g id="line2d_30">
    <path clip-path="url(#pbba46bdc19)" d="M 42.620313 233.970206 
L 76.886199 232.780493 
L 97.10771 231.786107 
L 110.815685 230.915534 
L 120.877263 230.132367 
L 134.885567 228.749611 
L 144.328004 227.537979 
L 151.201262 226.44631 
L 158.656834 224.970268 
L 164.014684 223.635463 
L 168.057953 222.4047 
L 171.216528 221.253831 
L 174.4841 219.815522 
L 177.003007 218.462747 
L 179.434253 216.864134 
L 181.314725 215.345197 
L 183.075657 213.603856 
L 184.464394 211.932396 
L 185.929664 209.789131 
L 187.235875 207.470458 
L 188.639056 204.5001 
L 190.270625 200.484305 
L 193.415055 191.969557 
L 196.684629 183.405643 
L 199.359116 177.021994 
L 201.96664 171.366935 
L 204.546935 166.294436 
L 207.115907 161.723761 
L 209.716337 157.545906 
L 212.324477 153.772803 
L 214.94727 150.367353 
L 217.557758 147.340503 
L 220.04746 144.786657 
L 221.180313 143.756 
L 221.180313 143.756 
" style="fill:none;stroke:#1f77b4;stroke-linecap:square;stroke-width:0.5;"/>
   </g>
   <g id="line2d_31">
    <path clip-path="url(#pbba46bdc19)" d="M 42.620313 196.770356 
L 77.265996 195.582172 
L 97.761275 194.59167 
L 111.707099 193.726867 
L 129.979011 192.242961 
L 141.750626 190.976995 
L 150.142025 189.858907 
L 159.164275 188.37781 
L 165.661179 187.067633 
L 172.021252 185.512699 
L 176.752554 184.121121 
L 181.235039 182.553302 
L 184.677429 181.131754 
L 187.901293 179.57482 
L 190.822888 177.918353 
L 193.423534 176.189362 
L 195.721699 174.407956 
L 197.935062 172.41552 
L 200.14454 170.110459 
L 202.373943 167.444393 
L 204.991905 163.934862 
L 214.193304 151.23983 
L 216.980493 147.960453 
L 219.588382 145.228801 
L 221.180313 143.756 
L 221.180312 143.756 
" style="fill:none;stroke:#1f77b4;stroke-linecap:square;stroke-width:0.5;"/>
   </g>
   <g id="line2d_32">
    <path clip-path="url(#pbba46bdc19)" d="M 42.620313 165.569424 
L 77.584806 164.382524 
L 98.310738 163.395285 
L 112.457885 162.535337 
L 131.099923 161.065411 
L 143.22443 159.818792 
L 151.960277 158.725247 
L 161.490951 157.290495 
L 170.44328 155.652674 
L 178.34668 153.9179 
L 185.173833 152.163502 
L 191.765156 150.224252 
L 198.720277 147.924302 
L 208.588542 144.373381 
L 215.055942 142.147853 
L 218.408937 141.21589 
L 220.501643 140.850941 
L 221.694811 140.845851 
L 222.314934 141.038536 
L 222.583287 141.337208 
L 222.621443 141.723443 
L 222.429328 142.260401 
L 221.90025 143.019538 
L 221.180312 143.756 
L 221.180312 143.756 
" style="fill:none;stroke:#1f77b4;stroke-linecap:square;stroke-width:0.5;"/>
   </g>
   <g id="line2d_33">
    <path clip-path="url(#pbba46bdc19)" d="M 42.620313 136.541913 
L 77.88163 135.356208 
L 98.822506 134.372009 
L 113.15848 133.516589 
L 132.149562 132.059738 
L 144.610533 130.831276 
L 157.397534 129.271998 
L 166.420953 127.952055 
L 177.138377 126.123872 
L 188.70156 123.866617 
L 205.930869 120.438966 
L 211.727657 119.526338 
L 216.451063 119.003725 
L 220.336704 118.800794 
L 223.523398 118.860673 
L 226.107317 119.13503 
L 228.166303 119.581921 
L 229.770124 120.164863 
L 230.983738 120.85239 
L 231.867545 121.617703 
L 232.476611 122.438311 
L 232.887416 123.382743 
L 233.089277 124.440298 
L 233.085361 125.595357 
L 232.849251 127.002795 
L 232.34572 128.621508 
L 231.506978 130.545724 
L 230.276396 132.790683 
L 228.629652 135.316293 
L 226.614463 137.991822 
L 224.343895 140.634302 
L 222.035723 142.984688 
L 221.180312 143.756 
L 221.180312 143.756 
" style="fill:none;stroke:#1f77b4;stroke-linecap:square;stroke-width:0.5;"/>
   </g>
   <g id="line2d_34">
    <path clip-path="url(#pbba46bdc19)" d="M 42.620313 106.813183 
L 78.185803 105.628702 
L 99.348621 104.64762 
L 113.879448 103.796855 
L 133.233675 102.353476 
L 146.0464 101.143798 
L 159.360762 99.622509 
L 171.582843 97.973022 
L 189.236245 95.288512 
L 201.094412 93.563983 
L 208.390044 92.712052 
L 214.609403 92.211101 
L 220.001343 92.012242 
L 224.689702 92.075908 
L 228.739655 92.367263 
L 232.19268 92.854143 
L 235.085628 93.506363 
L 237.459801 94.295758 
L 239.118328 95.061912 
L 240.464818 95.895112 
L 241.534511 96.782194 
L 242.47938 97.869849 
L 243.148068 98.999366 
L 243.588542 100.157615 
L 243.866055 101.502774 
L 243.952442 103.028246 
L 243.81608 104.890785 
L 243.4146 107.065807 
L 242.6905 109.675509 
L 241.580211 112.800529 
L 240.038292 116.458852 
L 238.052034 120.586048 
L 235.775224 124.804851 
L 233.323916 128.884557 
L 230.785587 132.683613 
L 228.174962 136.189899 
L 225.562136 139.3262 
L 223.019669 142.035108 
L 221.180312 143.756 
L 221.180313 143.756 
" style="fill:none;stroke:#1f77b4;stroke-linecap:square;stroke-width:0.5;"/>
   </g>
   <g id="line2d_35">
    <path clip-path="url(#pbba46bdc19)" d="M 42.620313 73.214173 
L 78.529849 72.031075 
L 99.943995 71.053522 
L 114.696911 70.208032 
L 134.467452 68.779962 
L 147.688089 67.591711 
L 161.620824 66.114008 
L 179.907027 63.891364 
L 196.146686 61.943307 
L 205.60134 61.041425 
L 212.451743 60.591004 
L 218.609094 60.382444 
L 224.178196 60.392126 
L 229.202411 60.599081 
L 233.693994 60.983294 
L 237.654151 61.524953 
L 241.0866 62.204305 
L 244.005353 63.001909 
L 246.437482 63.899091 
L 248.421938 64.878412 
L 250.006012 65.924055 
L 251.241044 67.022053 
L 252.178399 68.160357 
L 252.866341 69.328802 
L 253.423628 70.75891 
L 253.74877 72.208524 
L 253.904262 73.9123 
L 253.865125 75.862872 
L 253.592258 78.289516 
L 253.003376 81.402438 
L 252.011912 85.372791 
L 250.483 90.527885 
L 248.436265 96.640276 
L 246.060759 103.050884 
L 243.545653 109.211364 
L 241.000688 114.868368 
L 238.464743 119.981177 
L 235.856196 124.740309 
L 233.256932 129.01996 
L 230.665135 132.865432 
L 228.031756 136.37524 
L 225.431569 139.474722 
L 222.891628 142.162563 
L 221.180312 143.756 
L 221.180313 143.756 
" style="fill:none;stroke:#1f77b4;stroke-linecap:square;stroke-width:0.5;"/>
   </g>
   <g id="line2d_36">
    <path clip-path="url(#pbba46bdc19)" d="M 42.620313 30.737215 
L 78.965191 29.555867 
L 100.698641 28.582783 
L 127.048917 27.002173 
L 143.47222 25.729476 
L 160.163754 24.191067 
L 196.955572 20.574123 
L 207.417893 19.870946 
L 214.909324 19.574012 
L 221.802485 19.491202 
L 228.160172 19.6058 
L 233.988782 19.902045 
L 239.26593 20.363876 
L 243.962071 20.974408 
L 248.056912 21.715984 
L 251.549629 22.570612 
L 254.462219 23.520625 
L 256.83729 24.549311 
L 258.731833 25.64147 
L 260.210011 26.783731 
L 261.336896 27.964655 
L 262.173697 29.1747 
L 262.77501 30.406039 
L 263.266158 31.965667 
L 263.536774 33.539334 
L 263.649992 35.436341 
L 263.556929 37.96642 
L 263.200343 41.112121 
L 262.46569 45.459075 
L 261.14493 51.818277 
L 259.036548 60.808529 
L 256.508813 70.625958 
L 253.865245 80.002802 
L 251.263431 88.422333 
L 248.645816 96.141475 
L 246.029394 103.158158 
L 243.435727 109.475471 
L 240.89096 115.102935 
L 238.291405 120.313658 
L 235.692987 125.022551 
L 233.108011 129.252101 
L 230.485576 133.117148 
L 227.88724 136.556841 
L 225.27628 139.648707 
L 222.748012 142.304133 
L 221.180312 143.756 
L 221.180312 143.756 
" style="fill:none;stroke:#1f77b4;stroke-linecap:square;stroke-width:0.5;"/>
   </g>
   <g id="line2d_37">
    <path clip-path="url(#pbba46bdc19)" d="M 85.442529 10.7 
L 105.224528 9.767013 
" style="fill:none;stroke:#1f77b4;stroke-linecap:square;stroke-width:0.5;"/>
   </g>
   <g id="line2d_38">
    <path clip-path="url(#pbba46bdc19)" d="M 138.56966 10.7 
L 145.796396 10.112084 
" style="fill:none;stroke:#1f77b4;stroke-linecap:square;stroke-width:0.5;"/>
   </g>
   <g id="line2d_39">
    <path clip-path="url(#pbba46bdc19)" d="M 181.876284 10.7 
L 184.844375 10.418281 
" style="fill:none;stroke:#1f77b4;stroke-linecap:square;stroke-width:0.5;"/>
   </g>
   <g id="line2d_40">
    <path clip-path="url(#pbba46bdc19)" d="M 221.180312 10.7 
L 228.04009 10.803633 
L 234.330496 11.103286 
L 240.021714 11.581601 
L 245.074038 12.220116 
L 249.458934 12.999326 
L 253.172783 13.899211 
L 256.240778 14.900071 
L 258.714004 15.983358 
L 260.660663 17.132333 
L 262.156765 18.332423 
L 263.278383 19.571339 
L 264.0955 20.838984 
L 264.669299 22.127221 
L 265.122166 23.756767 
L 265.355152 25.398873 
L 265.428409 27.376254 
L 265.293585 30.011054 
L 264.854587 33.610398 
L 263.963877 38.766317 
L 262.353316 46.588728 
L 259.966508 57.017483 
L 257.378706 67.355633 
L 254.746443 76.973905 
L 252.152865 85.631009 
L 249.538876 93.589333 
L 246.919856 100.845378 
L 244.315679 107.400374 
L 241.750993 113.261469 
L 239.186781 118.57748 
L 236.600945 123.431254 
L 233.998115 127.844534 
L 231.419716 131.787349 
L 228.817718 135.367856 
L 226.205525 138.589014 
L 223.631595 141.4148 
L 221.318019 143.638858 
L 221.180312 143.756 
L 221.180312 143.756 
" style="fill:none;stroke:#1f77b4;stroke-linecap:square;stroke-width:0.5;"/>
   </g>
   <g id="patch_56">
    <path d="M 42.620313 276.812 
L 42.620313 10.7 
" style="fill:none;stroke:#000000;stroke-linecap:square;stroke-linejoin:miter;stroke-width:0.8;"/>
   </g>
   <g id="patch_57">
    <path d="M 399.740313 276.812 
L 399.740313 10.7 
" style="fill:none;stroke:#000000;stroke-linecap:square;stroke-linejoin:miter;stroke-width:0.8;"/>
   </g>
   <g id="patch_58">
    <path d="M 42.620313 276.812 
L 399.740313 276.812 
" style="fill:none;stroke:#000000;stroke-linecap:square;stroke-linejoin:miter;stroke-width:0.8;"/>
   </g>
   <g id="patch_59">
    <path d="M 42.620313 10.7 
L 399.740313 10.7 
" style="fill:none;stroke:#000000;stroke-linecap:square;stroke-linejoin:miter;stroke-width:0.8;"/>
   </g>
  </g>
 </g>
 <defs>
  <clipPath id="pbba46bdc19">
   <rect height="266.112" width="357.12" x="42.620313" y="10.7"/>
  </clipPath>
 </defs>
</svg>
