<?xml version="1.0" encoding="utf-8" standalone="no"?>
<!DOCTYPE svg PUBLIC "-//W3C//DTD SVG 1.1//EN"
  "http://www.w3.org/Graphics/SVG/1.1/DTD/svg11.dtd">
<!-- Created with matplotlib (http://matplotlib.org/) -->
<svg height="314pt" version="1.1" viewBox="0 0 410 314" width="410pt" xmlns="http://www.w3.org/2000/svg" xmlns:xlink="http://www.w3.org/1999/xlink">
 <defs>
  <style type="text/css">
*{stroke-linecap:butt;stroke-linejoin:round;}
  </style>
 </defs>
 <g id="figure_1">
  <g id="patch_1">
   <path d="M 0 314.36825 
L 410.440313 314.36825 
L 410.440313 0 
L 0 0 
z
" style="fill:#ffffff;"/>
  </g>
  <g id="axes_1">
   <g id="patch_2">
    <path d="M 42.620313 276.812 
L 399.740313 276.812 
L 399.740313 10.7 
L 42.620313 10.7 
z
" style="fill:#ffffff;"/>
   </g>
   <g id="patch_3">
    <path clip-path="url(#p3586d4663f)" d="M 235.77366 34.252878 
L 232.898148 28.701613 
L 236.435375 28.953512 
L 236.47094 28.95593 
L 236.470925 28.956044 
L 240.008153 29.207943 
z
" style="fill:#1f77b4;stroke:#000000;stroke-linejoin:miter;"/>
   </g>
   <g id="patch_4">
    <path clip-path="url(#p3586d4663f)" d="M 232.030908 62.958673 
L 229.172128 57.402612 
L 232.708587 57.660427 
L 232.744141 57.662933 
L 232.744129 57.663019 
L 236.280589 57.920834 
z
" style="fill:#1f77b4;stroke:#000000;stroke-linejoin:miter;"/>
   </g>
   <g id="patch_5">
    <path clip-path="url(#p3586d4663f)" d="M 235.951724 32.869298 
L 233.075508 27.318235 
L 236.612767 27.569885 
L 236.648333 27.572299 
L 236.648318 27.572414 
L 240.185577 27.824064 
z
" style="fill:#1f77b4;stroke:#000000;stroke-linejoin:miter;"/>
   </g>
   <g id="patch_6">
    <path clip-path="url(#p3586d4663f)" d="M 232.168818 61.91192 
L 229.309476 56.356019 
L 232.845962 56.613636 
L 232.881516 56.616138 
L 232.881505 56.616225 
L 236.41799 56.873843 
z
" style="fill:#1f77b4;stroke:#000000;stroke-linejoin:miter;"/>
   </g>
   <g id="patch_7">
    <path clip-path="url(#p3586d4663f)" d="M 250.924969 15.177414 
L 257.399889 11.69481 
L 257.971482 14.308143 
L 257.979416 14.334141 
L 257.977227 14.334407 
L 258.54882 16.94774 
z
" style="fill:#1f77b4;stroke:#000000;stroke-linejoin:miter;"/>
   </g>
   <g id="patch_8">
    <path clip-path="url(#p3586d4663f)" d="M 234.460185 44.400163 
L 231.591095 38.847052 
L 235.12803 39.101224 
L 235.163591 39.103674 
L 235.163577 39.103778 
L 238.700512 39.357949 
z
" style="fill:#1f77b4;stroke:#000000;stroke-linejoin:miter;"/>
   </g>
   <g id="patch_9">
    <path clip-path="url(#p3586d4663f)" d="M 295.766131 13.453249 
L 302.597289 10.371611 
L 302.88383 13.010802 
L 302.896201 13.036754 
L 302.88671 13.037326 
L 303.173251 15.676518 
z
" style="fill:#1f77b4;stroke:#000000;stroke-linejoin:miter;"/>
   </g>
   <g id="patch_10">
    <path clip-path="url(#p3586d4663f)" d="M 236.790557 20.703093 
L 242.299755 16.395566 
L 243.504129 18.88665 
L 243.516845 18.911522 
L 243.516233 18.911686 
L 244.720608 21.40277 
z
" style="fill:#1f77b4;stroke:#000000;stroke-linejoin:miter;"/>
   </g>
   <g id="patch_11">
    <path clip-path="url(#p3586d4663f)" d="M 349.181426 32.148275 
L 356.141482 29.231183 
L 356.314486 31.875857 
L 356.3412 31.901529 
L 356.316225 31.902436 
L 356.489229 34.547111 
z
" style="fill:#1f77b4;stroke:#000000;stroke-linejoin:miter;"/>
   </g>
   <g id="patch_12">
    <path clip-path="url(#p3586d4663f)" d="M 277.751462 35.772461 
L 284.521831 32.61721 
L 284.859787 35.253022 
L 284.869508 35.279062 
L 284.863183 35.279512 
L 285.201138 37.915324 
z
" style="fill:#1f77b4;stroke:#000000;stroke-linejoin:miter;"/>
   </g>
   <g id="patch_13">
    <path clip-path="url(#p3586d4663f)" d="M 348.753397 74.619097 
L 355.716696 71.706305 
L 355.886758 74.351085 
L 355.913752 74.376763 
L 355.888467 74.377666 
L 356.05853 77.022446 
z
" style="fill:#1f77b4;stroke:#000000;stroke-linejoin:miter;"/>
   </g>
   <g id="patch_14">
    <path clip-path="url(#p3586d4663f)" d="M 293.741555 77.056462 
L 300.59328 74.000283 
L 300.862131 76.640507 
L 300.874663 76.666486 
L 300.864833 76.667042 
L 301.133683 79.307267 
z
" style="fill:#1f77b4;stroke:#000000;stroke-linejoin:miter;"/>
   </g>
   <g id="patch_15">
    <path clip-path="url(#p3586d4663f)" d="M 392.558088 106.99986 
L 399.571658 104.154829 
L 399.695524 106.801034 
L 399.740935 106.826481 
L 399.696769 106.827629 
L 399.820636 109.473834 
z
" style="fill:#1f77b4;stroke:#000000;stroke-linejoin:miter;"/>
   </g>
   <g id="patch_16">
    <path clip-path="url(#p3586d4663f)" d="M 322.894935 109.166726 
L 329.82053 106.204443 
L 330.02453 108.84789 
L 330.043919 108.873714 
L 330.02658 108.874457 
L 330.230579 111.517905 
z
" style="fill:#1f77b4;stroke:#000000;stroke-linejoin:miter;"/>
   </g>
   <g id="patch_17">
    <path clip-path="url(#p3586d4663f)" d="M 392.557721 136.727146 
L 399.572326 133.883532 
L 399.695229 136.529762 
L 399.74093 136.555211 
L 399.696465 136.556358 
L 399.819368 139.202588 
z
" style="fill:#1f77b4;stroke:#000000;stroke-linejoin:miter;"/>
   </g>
   <g id="patch_18">
    <path clip-path="url(#p3586d4663f)" d="M 322.375699 138.885925 
L 329.305216 135.928738 
L 329.505712 138.572334 
L 329.525262 138.598165 
L 329.507727 138.598903 
L 329.708224 141.242499 
z
" style="fill:#1f77b4;stroke:#000000;stroke-linejoin:miter;"/>
   </g>
   <g id="patch_19">
    <path clip-path="url(#p3586d4663f)" d="M 392.557364 165.753265 
L 399.572966 162.911018 
L 399.694941 165.557272 
L 399.740925 165.582722 
L 399.696167 165.583867 
L 399.818142 168.230121 
z
" style="fill:#1f77b4;stroke:#000000;stroke-linejoin:miter;"/>
   </g>
   <g id="patch_20">
    <path clip-path="url(#p3586d4663f)" d="M 304.150158 168.677514 
L 311.053776 165.686882 
L 311.27729 168.329453 
L 311.292741 168.355391 
L 311.279537 168.356011 
L 311.503051 170.998582 
z
" style="fill:#1f77b4;stroke:#000000;stroke-linejoin:miter;"/>
   </g>
   <g id="patch_21">
    <path clip-path="url(#p3586d4663f)" d="M 347.506139 198.157926 
L 354.478476 195.257164 
L 354.640314 197.90223 
L 354.668137 197.927924 
L 354.641941 197.928814 
L 354.803779 200.573881 
z
" style="fill:#1f77b4;stroke:#000000;stroke-linejoin:miter;"/>
   </g>
   <g id="patch_22">
    <path clip-path="url(#p3586d4663f)" d="M 290.00084 200.502128 
L 296.889789 197.492772 
L 297.126223 200.134718 
L 297.139168 200.160745 
L 297.128599 200.16127 
L 297.365033 202.803217 
z
" style="fill:#1f77b4;stroke:#000000;stroke-linejoin:miter;"/>
   </g>
   <g id="patch_23">
    <path clip-path="url(#p3586d4663f)" d="M 347.129973 235.35269 
L 354.104921 232.455416 
L 354.264376 235.100563 
L 354.292453 235.126261 
L 354.265979 235.127147 
L 354.425434 237.772295 
z
" style="fill:#1f77b4;stroke:#000000;stroke-linejoin:miter;"/>
   </g>
   <g id="patch_24">
    <path clip-path="url(#p3586d4663f)" d="M 269.200131 238.652654 
L 276.080913 235.63294 
L 276.324504 238.274525 
L 276.334421 238.300692 
L 276.326952 238.301074 
L 276.570544 240.942659 
z
" style="fill:#1f77b4;stroke:#000000;stroke-linejoin:miter;"/>
   </g>
   <g id="patch_25">
    <path clip-path="url(#p3586d4663f)" d="M 383.141896 277.000737 
L 390.153945 274.153625 
L 390.279226 276.799793 
L 390.321958 276.825297 
L 390.280485 276.826388 
L 390.405766 279.472556 
z
" style="fill:#1f77b4;stroke:#000000;stroke-linejoin:miter;"/>
   </g>
   <g id="patch_26">
    <path clip-path="url(#p3586d4663f)" d="M 321.464537 277.087287 
L 328.413198 274.15515 
L 328.596506 276.799439 
L 328.617221 276.825288 
L 328.598348 276.826014 
L 328.781656 279.470303 
z
" style="fill:#1f77b4;stroke:#000000;stroke-linejoin:miter;"/>
   </g>
   <g id="patch_27">
    <path clip-path="url(#p3586d4663f)" d="M 274.207585 277.15163 
L 281.107851 274.156705 
L 281.334325 276.799136 
L 281.34532 276.825279 
L 281.336601 276.825693 
L 281.563075 279.468124 
z
" style="fill:#1f77b4;stroke:#000000;stroke-linejoin:miter;"/>
   </g>
   <g id="patch_28">
    <path clip-path="url(#p3586d4663f)" d="M 233.46246 277.072716 
L 240.421442 274.154203 
L 240.595419 276.798841 
L 240.600757 276.82529 
L 240.597168 276.825421 
L 240.771145 279.47006 
z
" style="fill:#1f77b4;stroke:#000000;stroke-linejoin:miter;"/>
   </g>
   <g id="patch_29">
    <path clip-path="url(#p3586d4663f)" d="M 207.620321 245.26789 
L 210.490842 250.82059 
L 206.953842 250.566925 
L 206.91828 250.564481 
L 206.918294 250.564375 
L 203.381294 250.31071 
z
" style="fill:#1f77b4;stroke:#000000;stroke-linejoin:miter;"/>
   </g>
   <g id="patch_30">
    <path clip-path="url(#p3586d4663f)" d="M 211.116163 218.597508 
L 213.971943 224.154426 
L 210.435623 223.89555 
L 210.400071 223.893028 
L 210.400082 223.892948 
L 206.863762 223.634072 
z
" style="fill:#1f77b4;stroke:#000000;stroke-linejoin:miter;"/>
   </g>
   <g id="patch_31">
    <path clip-path="url(#p3586d4663f)" d="M 207.790685 267.0712 
L 204.989906 272.64364 
L 202.57095 270.704086 
L 202.54644 270.684731 
L 202.546639 270.684593 
L 200.127684 268.745038 
z
" style="fill:#1f77b4;stroke:#000000;stroke-linejoin:miter;"/>
   </g>
   <g id="patch_32">
    <path clip-path="url(#p3586d4663f)" d="M 209.09818 233.928695 
L 211.962104 239.483285 
L 208.425407 239.227288 
L 208.38985 239.22481 
L 208.389862 239.224715 
L 204.853165 238.968718 
z
" style="fill:#1f77b4;stroke:#000000;stroke-linejoin:miter;"/>
   </g>
   <g id="patch_33">
    <path clip-path="url(#p3586d4663f)" d="M 170.804461 273.350275 
L 164.090306 276.571534 
L 163.705908 273.939258 
L 163.697001 273.913212 
L 163.702045 273.912803 
L 163.317647 271.280528 
z
" style="fill:#1f77b4;stroke:#000000;stroke-linejoin:miter;"/>
   </g>
   <g id="patch_34">
    <path clip-path="url(#p3586d4663f)" d="M 206.548074 253.57881 
L 209.420761 259.130888 
L 205.883662 258.877989 
L 205.848099 258.875561 
L 205.848113 258.875447 
L 202.311014 258.622549 
z
" style="fill:#1f77b4;stroke:#000000;stroke-linejoin:miter;"/>
   </g>
   <g id="patch_35">
    <path clip-path="url(#p3586d4663f)" d="M 120.986103 274.497584 
L 114.080967 277.48627 
L 113.858794 274.843636 
L 113.840758 274.817815 
L 113.856561 274.817077 
L 113.634388 272.174443 
z
" style="fill:#1f77b4;stroke:#000000;stroke-linejoin:miter;"/>
   </g>
   <g id="patch_36">
    <path clip-path="url(#p3586d4663f)" d="M 183.909536 270.11509 
L 177.305927 273.460831 
L 176.833043 270.836568 
L 176.825109 270.810512 
L 176.828291 270.810194 
L 176.355407 268.185931 
z
" style="fill:#1f77b4;stroke:#000000;stroke-linejoin:miter;"/>
   </g>
   <g id="patch_37">
    <path clip-path="url(#p3586d4663f)" d="M 93.408946 232.562452 
L 86.447141 235.477225 
L 86.275723 232.832493 
L 86.248859 232.806818 
L 86.274 232.805913 
L 86.102583 230.161182 
z
" style="fill:#1f77b4;stroke:#000000;stroke-linejoin:miter;"/>
   </g>
   <g id="patch_38">
    <path clip-path="url(#p3586d4663f)" d="M 157.739205 229.508843 
L 150.925428 232.611775 
L 150.624055 229.973501 
L 150.613211 229.947482 
L 150.621026 229.946986 
L 150.319652 227.308712 
z
" style="fill:#1f77b4;stroke:#000000;stroke-linejoin:miter;"/>
   </g>
   <g id="patch_39">
    <path clip-path="url(#p3586d4663f)" d="M 93.783961 195.367938 
L 86.819345 198.278981 
L 86.650479 195.634158 
L 86.623369 195.608478 
L 86.648782 195.607577 
L 86.479916 192.962754 
z
" style="fill:#1f77b4;stroke:#000000;stroke-linejoin:miter;"/>
   </g>
   <g id="patch_40">
    <path clip-path="url(#p3586d4663f)" d="M 136.411631 193.619344 
L 129.523591 196.629856 
L 129.286359 193.98795 
L 129.271234 193.962033 
L 129.283974 193.961398 
L 129.046742 191.319491 
z
" style="fill:#1f77b4;stroke:#000000;stroke-linejoin:miter;"/>
   </g>
   <g id="patch_41">
    <path clip-path="url(#p3586d4663f)" d="M 49.802724 165.383484 
L 42.788626 168.227792 
L 42.665251 165.581574 
L 42.619693 165.556126 
L 42.664011 165.554979 
L 42.540636 162.908761 
z
" style="fill:#1f77b4;stroke:#000000;stroke-linejoin:miter;"/>
   </g>
   <g id="patch_42">
    <path clip-path="url(#p3586d4663f)" d="M 119.729822 163.220742 
L 112.802222 166.180422 
L 112.600012 163.536898 
L 112.580542 163.511071 
L 112.59798 163.51033 
L 112.39577 160.866806 
z
" style="fill:#1f77b4;stroke:#000000;stroke-linejoin:miter;"/>
   </g>
   <g id="patch_43">
    <path clip-path="url(#p3586d4663f)" d="M 49.803082 136.357374 
L 42.787979 139.200307 
L 42.665539 136.554065 
L 42.619697 136.528616 
L 42.664308 136.527469 
L 42.541867 133.881227 
z
" style="fill:#1f77b4;stroke:#000000;stroke-linejoin:miter;"/>
   </g>
   <g id="patch_44">
    <path clip-path="url(#p3586d4663f)" d="M 120.237263 134.202496 
L 113.30587 137.157241 
L 113.107051 134.513574 
L 113.087424 134.487741 
L 113.105053 134.487005 
L 112.906234 131.843338 
z
" style="fill:#1f77b4;stroke:#000000;stroke-linejoin:miter;"/>
   </g>
   <g id="patch_45">
    <path clip-path="url(#p3586d4663f)" d="M 94.692062 105.423396 
L 87.72087 108.325684 
L 87.557988 105.680653 
L 87.530274 105.654962 
L 87.556351 105.65407 
L 87.39347 103.009039 
z
" style="fill:#1f77b4;stroke:#000000;stroke-linejoin:miter;"/>
   </g>
   <g id="patch_46">
    <path clip-path="url(#p3586d4663f)" d="M 138.575858 103.713654 
L 131.6692 106.700388 
L 131.448373 104.057691 
L 131.432855 104.031749 
L 131.446154 104.031132 
L 131.225327 101.388435 
z
" style="fill:#1f77b4;stroke:#000000;stroke-linejoin:miter;"/>
   </g>
   <g id="patch_47">
    <path clip-path="url(#p3586d4663f)" d="M 95.031687 71.829008 
L 88.058114 74.728119 
L 87.897403 72.083014 
L 87.869461 72.057318 
L 87.895788 72.05643 
L 87.735078 69.411325 
z
" style="fill:#1f77b4;stroke:#000000;stroke-linejoin:miter;"/>
   </g>
   <g id="patch_48">
    <path clip-path="url(#p3586d4663f)" d="M 163.569551 68.959043 
L 156.689336 71.979474 
L 156.445249 69.337914 
L 156.434047 69.311814 
L 156.442796 69.311365 
L 156.198709 66.669805 
z
" style="fill:#1f77b4;stroke:#000000;stroke-linejoin:miter;"/>
   </g>
   <g id="patch_49">
    <path clip-path="url(#p3586d4663f)" d="M 95.461401 29.35782 
L 88.484876 32.252984 
L 88.326861 29.607789 
L 88.298629 29.582088 
L 88.325273 29.581204 
L 88.167258 26.936009 
z
" style="fill:#1f77b4;stroke:#000000;stroke-linejoin:miter;"/>
   </g>
   <g id="patch_50">
    <path clip-path="url(#p3586d4663f)" d="M 188.288467 25.40143 
L 181.393192 28.402731 
L 181.162319 25.760511 
L 181.154299 25.734233 
L 181.159999 25.733956 
L 180.929127 23.091737 
z
" style="fill:#1f77b4;stroke:#000000;stroke-linejoin:miter;"/>
   </g>
   <g id="patch_51">
    <path clip-path="url(#p3586d4663f)" d="M 92.606096 10.46864 
L 85.625033 13.357724 
L 85.471168 10.712393 
L 85.441756 10.686707 
L 85.469622 10.685807 
L 85.315757 8.040476 
z
" style="fill:#1f77b4;stroke:#000000;stroke-linejoin:miter;"/>
   </g>
   <g id="patch_52">
    <path clip-path="url(#p3586d4663f)" d="M 145.712446 10.385253 
L 138.793315 13.355913 
L 138.583555 10.712717 
L 138.568606 10.686718 
L 138.581447 10.686152 
L 138.371687 8.042955 
z
" style="fill:#1f77b4;stroke:#000000;stroke-linejoin:miter;"/>
   </g>
   <g id="patch_53">
    <path clip-path="url(#p3586d4663f)" d="M 189.010507 10.366926 
L 182.105394 13.355641 
L 181.883201 10.713009 
L 181.875168 10.68672 
L 181.880968 10.68645 
L 181.658775 8.043817 
z
" style="fill:#1f77b4;stroke:#000000;stroke-linejoin:miter;"/>
   </g>
   <g id="patch_54">
    <path clip-path="url(#p3586d4663f)" d="M 235.773659 34.252878 
L 232.898148 28.701613 
L 236.435375 28.953512 
L 236.47094 28.95593 
L 236.470925 28.956044 
L 240.008153 29.207943 
z
" style="fill:#1f77b4;stroke:#000000;stroke-linejoin:miter;"/>
   </g>
   <g id="patch_55">
    <path clip-path="url(#p3586d4663f)" d="M 232.030908 62.958674 
L 229.172128 57.402612 
L 232.708587 57.660428 
L 232.744141 57.662933 
L 232.744129 57.663019 
L 236.280589 57.920834 
z
" style="fill:#1f77b4;stroke:#000000;stroke-linejoin:miter;"/>
   </g>
   <g id="matplotlib.axis_1">
    <g id="xtick_1">
     <g id="line2d_1">
      <defs>
       <path d="M 0 0 
L 0 3.5 
" id="m8d4680f793" style="stroke:#000000;stroke-width:0.8;"/>
      </defs>
      <g>
       <use style="stroke:#000000;stroke-width:0.8;" x="78.332313" xlink:href="#m8d4680f793" y="276.812"/>
      </g>
     </g>
     <g id="text_1">
      <!-- −4 -->
      <defs>
       <path d="M 10.59375 35.5 
L 73.1875 35.5 
L 73.1875 27.203125 
L 10.59375 27.203125 
z
" id="DejaVuSans-2212"/>
       <path d="M 37.796875 64.3125 
L 12.890625 25.390625 
L 37.796875 25.390625 
z
M 35.203125 72.90625 
L 47.609375 72.90625 
L 47.609375 25.390625 
L 58.015625 25.390625 
L 58.015625 17.1875 
L 47.609375 17.1875 
L 47.609375 0 
L 37.796875 0 
L 37.796875 17.1875 
L 4.890625 17.1875 
L 4.890625 26.703125 
z
" id="DejaVuSans-34"/>
      </defs>
      <g transform="translate(70.961219 291.410438)scale(0.1 -0.1)">
       <use xlink:href="#DejaVuSans-2212"/>
       <use x="83.789062" xlink:href="#DejaVuSans-34"/>
      </g>
     </g>
    </g>
    <g id="xtick_2">
     <g id="line2d_2">
      <g>
       <use style="stroke:#000000;stroke-width:0.8;" x="149.756313" xlink:href="#m8d4680f793" y="276.812"/>
      </g>
     </g>
     <g id="text_2">
      <!-- −2 -->
      <defs>
       <path d="M 19.1875 8.296875 
L 53.609375 8.296875 
L 53.609375 0 
L 7.328125 0 
L 7.328125 8.296875 
Q 12.9375 14.109375 22.625 23.890625 
Q 32.328125 33.6875 34.8125 36.53125 
Q 39.546875 41.84375 41.421875 45.53125 
Q 43.3125 49.21875 43.3125 52.78125 
Q 43.3125 58.59375 39.234375 62.25 
Q 35.15625 65.921875 28.609375 65.921875 
Q 23.96875 65.921875 18.8125 64.3125 
Q 13.671875 62.703125 7.8125 59.421875 
L 7.8125 69.390625 
Q 13.765625 71.78125 18.9375 73 
Q 24.125 74.21875 28.421875 74.21875 
Q 39.75 74.21875 46.484375 68.546875 
Q 53.21875 62.890625 53.21875 53.421875 
Q 53.21875 48.921875 51.53125 44.890625 
Q 49.859375 40.875 45.40625 35.40625 
Q 44.1875 33.984375 37.640625 27.21875 
Q 31.109375 20.453125 19.1875 8.296875 
" id="DejaVuSans-32"/>
      </defs>
      <g transform="translate(142.385219 291.410438)scale(0.1 -0.1)">
       <use xlink:href="#DejaVuSans-2212"/>
       <use x="83.789062" xlink:href="#DejaVuSans-32"/>
      </g>
     </g>
    </g>
    <g id="xtick_3">
     <g id="line2d_3">
      <g>
       <use style="stroke:#000000;stroke-width:0.8;" x="221.180313" xlink:href="#m8d4680f793" y="276.812"/>
      </g>
     </g>
     <g id="text_3">
      <!-- 0 -->
      <defs>
       <path d="M 31.78125 66.40625 
Q 24.171875 66.40625 20.328125 58.90625 
Q 16.5 51.421875 16.5 36.375 
Q 16.5 21.390625 20.328125 13.890625 
Q 24.171875 6.390625 31.78125 6.390625 
Q 39.453125 6.390625 43.28125 13.890625 
Q 47.125 21.390625 47.125 36.375 
Q 47.125 51.421875 43.28125 58.90625 
Q 39.453125 66.40625 31.78125 66.40625 
M 31.78125 74.21875 
Q 44.046875 74.21875 50.515625 64.515625 
Q 56.984375 54.828125 56.984375 36.375 
Q 56.984375 17.96875 50.515625 8.265625 
Q 44.046875 -1.421875 31.78125 -1.421875 
Q 19.53125 -1.421875 13.0625 8.265625 
Q 6.59375 17.96875 6.59375 36.375 
Q 6.59375 54.828125 13.0625 64.515625 
Q 19.53125 74.21875 31.78125 74.21875 
" id="DejaVuSans-30"/>
      </defs>
      <g transform="translate(217.999063 291.410438)scale(0.1 -0.1)">
       <use xlink:href="#DejaVuSans-30"/>
      </g>
     </g>
    </g>
    <g id="xtick_4">
     <g id="line2d_4">
      <g>
       <use style="stroke:#000000;stroke-width:0.8;" x="292.604312" xlink:href="#m8d4680f793" y="276.812"/>
      </g>
     </g>
     <g id="text_4">
      <!-- 2 -->
      <g transform="translate(289.423063 291.410438)scale(0.1 -0.1)">
       <use xlink:href="#DejaVuSans-32"/>
      </g>
     </g>
    </g>
    <g id="xtick_5">
     <g id="line2d_5">
      <g>
       <use style="stroke:#000000;stroke-width:0.8;" x="364.028313" xlink:href="#m8d4680f793" y="276.812"/>
      </g>
     </g>
     <g id="text_5">
      <!-- 4 -->
      <g transform="translate(360.847063 291.410438)scale(0.1 -0.1)">
       <use xlink:href="#DejaVuSans-34"/>
      </g>
     </g>
    </g>
    <g id="text_6">
     <!-- x1 -->
     <defs>
      <path d="M 54.890625 54.6875 
L 35.109375 28.078125 
L 55.90625 0 
L 45.3125 0 
L 29.390625 21.484375 
L 13.484375 0 
L 2.875 0 
L 24.125 28.609375 
L 4.6875 54.6875 
L 15.28125 54.6875 
L 29.78125 35.203125 
L 44.28125 54.6875 
z
" id="DejaVuSans-78"/>
      <path d="M 12.40625 8.296875 
L 28.515625 8.296875 
L 28.515625 63.921875 
L 10.984375 60.40625 
L 10.984375 69.390625 
L 28.421875 72.90625 
L 38.28125 72.90625 
L 38.28125 8.296875 
L 54.390625 8.296875 
L 54.390625 0 
L 12.40625 0 
z
" id="DejaVuSans-31"/>
     </defs>
     <g transform="translate(215.039688 305.088562)scale(0.1 -0.1)">
      <use xlink:href="#DejaVuSans-78"/>
      <use x="59.179688" xlink:href="#DejaVuSans-31"/>
     </g>
    </g>
   </g>
   <g id="matplotlib.axis_2">
    <g id="ytick_1">
     <g id="line2d_6">
      <defs>
       <path d="M 0 0 
L -3.5 0 
" id="m01171ecee3" style="stroke:#000000;stroke-width:0.8;"/>
      </defs>
      <g>
       <use style="stroke:#000000;stroke-width:0.8;" x="42.620313" xlink:href="#m01171ecee3" y="250.2008"/>
      </g>
     </g>
     <g id="text_7">
      <!-- −4 -->
      <g transform="translate(20.878125 254.000019)scale(0.1 -0.1)">
       <use xlink:href="#DejaVuSans-2212"/>
       <use x="83.789062" xlink:href="#DejaVuSans-34"/>
      </g>
     </g>
    </g>
    <g id="ytick_2">
     <g id="line2d_7">
      <g>
       <use style="stroke:#000000;stroke-width:0.8;" x="42.620313" xlink:href="#m01171ecee3" y="196.9784"/>
      </g>
     </g>
     <g id="text_8">
      <!-- −2 -->
      <g transform="translate(20.878125 200.777619)scale(0.1 -0.1)">
       <use xlink:href="#DejaVuSans-2212"/>
       <use x="83.789062" xlink:href="#DejaVuSans-32"/>
      </g>
     </g>
    </g>
    <g id="ytick_3">
     <g id="line2d_8">
      <g>
       <use style="stroke:#000000;stroke-width:0.8;" x="42.620313" xlink:href="#m01171ecee3" y="143.756"/>
      </g>
     </g>
     <g id="text_9">
      <!-- 0 -->
      <g transform="translate(29.257813 147.555219)scale(0.1 -0.1)">
       <use xlink:href="#DejaVuSans-30"/>
      </g>
     </g>
    </g>
    <g id="ytick_4">
     <g id="line2d_9">
      <g>
       <use style="stroke:#000000;stroke-width:0.8;" x="42.620313" xlink:href="#m01171ecee3" y="90.5336"/>
      </g>
     </g>
     <g id="text_10">
      <!-- 2 -->
      <g transform="translate(29.257813 94.332819)scale(0.1 -0.1)">
       <use xlink:href="#DejaVuSans-32"/>
      </g>
     </g>
    </g>
    <g id="ytick_5">
     <g id="line2d_10">
      <g>
       <use style="stroke:#000000;stroke-width:0.8;" x="42.620313" xlink:href="#m01171ecee3" y="37.3112"/>
      </g>
     </g>
     <g id="text_11">
      <!-- 4 -->
      <g transform="translate(29.257813 41.110419)scale(0.1 -0.1)">
       <use xlink:href="#DejaVuSans-34"/>
      </g>
     </g>
    </g>
    <g id="text_12">
     <!-- x2 -->
     <g transform="translate(14.798438 149.896625)rotate(-90)scale(0.1 -0.1)">
      <use xlink:href="#DejaVuSans-78"/>
      <use x="59.179688" xlink:href="#DejaVuSans-32"/>
     </g>
    </g>
   </g>
   <g id="line2d_11">
    <path clip-path="url(#p3586d4663f)" d="M 221.180313 10.7 
L 227.063872 10.793541 
L 230.987016 11.031358 
L 233.580877 11.365008 
L 235.278851 11.761736 
L 236.377749 12.199548 
L 237.208906 12.782739 
L 237.667034 13.389347 
L 237.933907 14.133284 
L 238.039522 15.136135 
L 237.951916 16.892034 
L 237.396998 21.565098 
L 232.217596 61.531632 
L 224.777421 117.194467 
L 221.181069 143.750421 
L 221.181069 143.750421 
" style="fill:none;stroke:#1f77b4;stroke-linecap:square;stroke-width:0.5;"/>
   </g>
   <g id="line2d_12">
    <path clip-path="url(#p3586d4663f)" d="M 260.484341 10.7 
L 252.302718 11.739292 
L 247.275188 12.586208 
L 244.086523 13.312982 
L 242.024413 13.96282 
L 240.411231 14.70681 
L 239.437858 15.403701 
L 238.744052 16.203058 
L 238.281436 17.106008 
L 237.914849 18.365302 
L 237.522159 20.704596 
L 236.107685 31.645193 
L 229.977792 78.452669 
L 221.181053 143.750537 
L 221.181053 143.750537 
" style="fill:none;stroke:#1f77b4;stroke-linecap:square;stroke-width:0.5;"/>
   </g>
   <g id="line2d_13">
    <path clip-path="url(#p3586d4663f)" d="M 303.790965 10.7 
L 294.136653 11.278172 
L 286.433822 11.792102 
L 270.416888 13.056231 
L 260.470441 14.037731 
L 252.153893 15.074437 
L 247.040173 15.915537 
L 243.793971 16.634387 
L 241.292775 17.426218 
L 239.808704 18.145576 
L 238.909012 18.821513 
L 238.26402 19.598436 
L 237.83051 20.477195 
L 237.482704 21.70369 
L 237.08679 24.101487 
L 235.458689 36.682168 
L 229.199341 84.294295 
L 221.18104 143.750637 
L 221.18104 143.750637 
" style="fill:none;stroke:#1f77b4;stroke-linecap:square;stroke-width:0.5;"/>
   </g>
   <g id="line2d_14">
    <path clip-path="url(#p3586d4663f)" d="M 356.918096 10.7 
L 331.9657 11.611494 
L 302.894761 13.023492 
L 285.812338 14.104552 
L 269.976724 15.357103 
L 257.632621 16.610425 
L 250.337481 17.579323 
L 245.799979 18.375626 
L 242.899596 19.063083 
L 240.652825 19.826789 
L 239.31298 20.525239 
L 238.496396 21.184396 
L 237.906945 21.944243 
L 237.46428 22.926839 
L 237.108614 24.365429 
L 236.656267 27.404921 
L 221.717712 139.791866 
L 221.181028 143.750719 
L 221.181028 143.750719 
" style="fill:none;stroke:#1f77b4;stroke-linecap:square;stroke-width:0.5;"/>
   </g>
   <g id="line2d_15">
    <path clip-path="url(#p3586d4663f)" d="M 399.740313 30.737215 
L 356.34033 31.888239 
L 331.365817 32.795397 
L 302.141605 34.197398 
L 284.86781 35.265817 
L 268.74312 36.493996 
L 256.05535 37.705279 
L 248.480302 38.622829 
L 242.832005 39.525004 
L 239.556075 40.265296 
L 237.613044 40.910663 
L 236.440139 41.499266 
L 235.610462 42.161239 
L 235.070948 42.898458 
L 234.699226 43.816246 
L 234.375886 45.307396 
L 233.7906 49.53397 
L 226.271142 106.124825 
L 221.180906 143.75162 
L 221.180906 143.75162 
" style="fill:none;stroke:#1f77b4;stroke-linecap:square;stroke-width:0.5;"/>
   </g>
   <g id="line2d_16">
    <path clip-path="url(#p3586d4663f)" d="M 399.740313 73.214173 
L 355.912898 74.363473 
L 330.627924 75.266253 
L 300.873312 76.653219 
L 276.565302 78.13549 
L 258.728849 79.494314 
L 246.422773 80.641 
L 238.508105 81.573535 
L 233.833747 82.340948 
L 231.533289 82.934056 
L 230.375511 83.440518 
L 229.717736 83.966707 
L 229.333942 84.586708 
L 229.079242 85.481973 
L 228.719026 87.894045 
L 221.180663 143.753414 
L 221.180663 143.753414 
" style="fill:none;stroke:#1f77b4;stroke-linecap:square;stroke-width:0.5;"/>
   </g>
   <g id="line2d_17">
    <path clip-path="url(#p3586d4663f)" d="M 399.740313 106.813183 
L 355.574519 107.961118 
L 330.042894 108.860431 
L 299.864359 110.235453 
L 274.984177 111.688663 
L 253.224141 113.240709 
L 237.262821 114.605241 
L 229.451465 115.464074 
L 226.423347 115.99593 
L 225.385255 116.375831 
L 224.990984 116.731165 
L 224.798303 117.226939 
L 224.562167 118.787462 
L 221.180473 143.754818 
L 221.180473 143.754818 
" style="fill:none;stroke:#1f77b4;stroke-linecap:square;stroke-width:0.5;"/>
   </g>
   <g id="line2d_18">
    <path clip-path="url(#p3586d4663f)" d="M 399.740313 136.541913 
L 355.274914 137.688639 
L 329.524254 138.58488 
L 298.967368 139.949299 
L 273.572419 141.376616 
L 248.06329 143.07301 
L 221.020338 144.953518 
L 221.027344 144.884399 
L 221.180305 143.756055 
L 221.180305 143.756055 
" style="fill:none;stroke:#1f77b4;stroke-linecap:square;stroke-width:0.5;"/>
   </g>
   <g id="line2d_19">
    <path clip-path="url(#p3586d4663f)" d="M 399.740313 165.569424 
L 354.98218 166.714969 
L 329.016935 167.608207 
L 298.087733 168.96224 
L 272.182952 170.364113 
L 222.942295 173.193477 
L 219.330846 173.168124 
L 218.014926 172.973066 
L 217.551854 172.716893 
L 217.392973 172.383551 
L 217.398182 171.760913 
L 217.876812 168.145456 
L 221.180141 143.757262 
L 221.180141 143.757262 
" style="fill:none;stroke:#1f77b4;stroke-linecap:square;stroke-width:0.5;"/>
   </g>
   <g id="line2d_20">
    <path clip-path="url(#p3586d4663f)" d="M 399.740313 196.770356 
L 354.667324 197.914632 
L 328.470631 198.804637 
L 297.13798 200.147469 
L 264.484266 201.866993 
L 231.345425 203.628688 
L 222.16328 203.891629 
L 217.608124 203.810305 
L 215.363158 203.558509 
L 214.27466 203.223237 
L 213.762494 202.847954 
L 213.517954 202.397254 
L 213.437057 201.706948 
L 213.56054 200.273594 
L 215.058659 189.04961 
L 221.179965 143.758564 
L 221.179965 143.758564 
" style="fill:none;stroke:#1f77b4;stroke-linecap:square;stroke-width:0.5;"/>
   </g>
   <g id="line2d_21">
    <path clip-path="url(#p3586d4663f)" d="M 399.740313 233.970206 
L 354.291651 235.112969 
L 327.817936 235.999115 
L 295.999872 237.328543 
L 225.791329 240.584351 
L 218.861861 240.616344 
L 214.667726 240.445277 
L 212.148815 240.151691 
L 210.652846 239.784884 
L 209.777618 239.374869 
L 209.20747 238.850848 
L 208.905229 238.217246 
L 208.792552 237.389113 
L 208.868003 235.914843 
L 209.438707 231.341719 
L 216.216516 180.444354 
L 221.179753 143.76013 
L 221.179753 143.76013 
" style="fill:none;stroke:#1f77b4;stroke-linecap:square;stroke-width:0.5;"/>
   </g>
   <g id="line2d_22">
    <path clip-path="url(#p3586d4663f)" d="M 390.321329 276.812 
L 348.847797 277.902282 
" style="fill:none;stroke:#1f77b4;stroke-linecap:square;stroke-width:0.5;"/>
   </g>
   <g id="line2d_23">
    <path clip-path="url(#p3586d4663f)" d="M 328.6163 276.812 
L 309.743358 277.538461 
" style="fill:none;stroke:#1f77b4;stroke-linecap:square;stroke-width:0.5;"/>
   </g>
   <g id="line2d_24">
    <path clip-path="url(#p3586d4663f)" d="M 281.344181 276.812 
L 272.6259 277.226902 
" style="fill:none;stroke:#1f77b4;stroke-linecap:square;stroke-width:0.5;"/>
   </g>
   <g id="line2d_25">
    <path clip-path="url(#p3586d4663f)" d="M 240.599883 276.812 
L 237.010845 276.943101 
" style="fill:none;stroke:#1f77b4;stroke-linecap:square;stroke-width:0.5;"/>
   </g>
   <g id="line2d_26">
    <path clip-path="url(#p3586d4663f)" d="M 201.760742 276.812 
L 202.60569 276.105469 
L 203.213792 275.289811 
L 203.626855 274.364389 
L 203.99133 272.941978 
L 204.418877 270.161468 
L 207.355342 247.32398 
L 213.764082 198.706327 
L 221.179564 143.76152 
L 221.179564 143.76152 
" style="fill:none;stroke:#1f77b4;stroke-linecap:square;stroke-width:0.5;"/>
   </g>
   <g id="line2d_27">
    <path clip-path="url(#p3586d4663f)" d="M 161.016444 276.812 
L 174.958257 275.635653 
L 186.052902 274.438293 
L 192.67847 273.497986 
L 196.818131 272.714808 
L 199.470263 272.031046 
L 201.528121 271.263846 
L 202.757881 270.55647 
L 203.509943 269.885208 
L 204.056266 269.108453 
L 204.472033 268.101246 
L 204.815492 266.624018 
L 205.301948 263.263143 
L 216.342686 179.508181 
L 221.179579 143.761411 
L 221.179579 143.761411 
" style="fill:none;stroke:#1f77b4;stroke-linecap:square;stroke-width:0.5;"/>
   </g>
   <g id="line2d_28">
    <path clip-path="url(#p3586d4663f)" d="M 113.744325 276.812 
L 129.552207 276.073572 
L 141.257491 275.43638 
L 157.676777 274.376515 
L 173.02413 273.143066 
L 185.050412 271.903537 
L 192.176037 270.941496 
L 196.613055 270.148131 
L 199.450659 269.461229 
L 201.649543 268.696164 
L 202.961419 267.994976 
L 203.761571 267.332274 
L 204.340029 266.567565 
L 204.775846 265.57796 
L 205.128452 264.128421 
L 205.597139 260.948852 
L 218.635073 162.540471 
L 221.179591 143.76132 
L 221.179591 143.76132 
" style="fill:none;stroke:#1f77b4;stroke-linecap:square;stroke-width:0.5;"/>
   </g>
   <g id="line2d_29">
    <path clip-path="url(#p3586d4663f)" d="M 52.039296 276.812 
L 90.780208 275.710743 
L 113.841874 274.831094 
L 141.351446 273.456869 
L 157.780263 272.398473 
L 173.148606 271.167566 
L 185.203193 269.932177 
L 192.35257 268.975051 
L 196.808156 268.187239 
L 200.199911 267.348059 
L 202.191137 266.606677 
L 203.384665 265.923261 
L 204.116299 265.274938 
L 204.648839 264.524954 
L 205.054676 263.552745 
L 205.410765 262.009626 
L 205.921776 258.428963 
L 215.164422 188.262443 
L 221.179601 143.761245 
L 221.179601 143.761245 
" style="fill:none;stroke:#1f77b4;stroke-linecap:square;stroke-width:0.5;"/>
   </g>
   <g id="line2d_30">
    <path clip-path="url(#p3586d4663f)" d="M 42.620313 233.970206 
L 86.249721 232.820108 
L 111.390722 231.9153 
L 140.898921 230.521362 
L 158.430136 229.465018 
L 174.905664 228.261795 
L 187.993376 227.095065 
L 197.353714 226.049902 
L 203.448963 225.135482 
L 206.686759 224.422511 
L 208.448522 223.817796 
L 209.427145 223.272528 
L 210.052587 222.677484 
L 210.464292 221.94663 
L 210.753596 220.924202 
L 211.119754 218.560948 
L 221.17985 143.759413 
L 221.17985 143.759413 
" style="fill:none;stroke:#1f77b4;stroke-linecap:square;stroke-width:0.5;"/>
   </g>
   <g id="line2d_31">
    <path clip-path="url(#p3586d4663f)" d="M 42.620313 196.770356 
L 86.624217 195.621769 
L 112.037742 194.720796 
L 142.013017 193.340055 
L 166.618259 191.872918 
L 184.803257 190.543958 
L 199.222709 189.277668 
L 208.194541 188.27326 
L 212.135452 187.632188 
L 213.916164 187.152931 
L 214.805988 186.699766 
L 215.22645 186.242658 
L 215.465716 185.635902 
L 215.70607 184.221739 
L 220.089507 151.802928 
L 221.180061 143.757852 
L 221.180061 143.757852 
" style="fill:none;stroke:#1f77b4;stroke-linecap:square;stroke-width:0.5;"/>
   </g>
   <g id="line2d_32">
    <path clip-path="url(#p3586d4663f)" d="M 42.620313 165.569424 
L 86.938557 164.422105 
L 112.581558 163.524355 
L 142.95225 162.154724 
L 168.093334 160.71467 
L 190.230463 159.196598 
L 209.950176 157.624805 
L 217.50175 156.850966 
L 219.09822 156.512743 
L 219.433418 156.248047 
L 219.546604 155.79818 
L 220.863472 146.093138 
L 221.180238 143.756552 
L 221.180238 143.756552 
" style="fill:none;stroke:#1f77b4;stroke-linecap:square;stroke-width:0.5;"/>
   </g>
   <g id="line2d_33">
    <path clip-path="url(#p3586d4663f)" d="M 42.620313 136.541913 
L 87.23119 135.395774 
L 113.088423 134.501026 
L 143.829995 133.141765 
L 169.477458 131.727073 
L 202.793918 129.582632 
L 219.104594 128.614551 
L 222.29919 128.604138 
L 222.998708 128.778045 
L 223.138136 129.020177 
L 223.09799 129.60077 
L 221.180401 143.755346 
L 221.180401 143.755346 
" style="fill:none;stroke:#1f77b4;stroke-linecap:square;stroke-width:0.5;"/>
   </g>
   <g id="line2d_34">
    <path clip-path="url(#p3586d4663f)" d="M 42.620313 106.813183 
L 87.531093 105.668253 
L 113.608464 104.776583 
L 144.73288 103.427977 
L 177.008227 101.688116 
L 214.026853 99.624084 
L 221.239881 99.440997 
L 224.477761 99.553865 
L 225.915421 99.799094 
L 226.538006 100.102548 
L 226.810342 100.4726 
L 226.89716 101.023841 
L 226.789394 102.250165 
L 224.834445 116.772472 
L 221.180569 143.754108 
L 221.180569 143.754108 
" style="fill:none;stroke:#1f77b4;stroke-linecap:square;stroke-width:0.5;"/>
   </g>
   <g id="line2d_35">
    <path clip-path="url(#p3586d4663f)" d="M 42.620313 73.214173 
L 87.870269 72.07061 
L 114.197341 71.182423 
L 145.758108 69.8459 
L 178.828043 68.148643 
L 208.572703 66.645514 
L 218.957975 66.337274 
L 224.64789 66.377775 
L 227.755732 66.609305 
L 229.433738 66.94468 
L 230.32383 67.335717 
L 230.782065 67.75593 
L 231.027046 68.264121 
L 231.121931 69.002596 
L 231.0299 70.405614 
L 230.250986 76.39811 
L 221.558971 140.962854 
L 221.18076 143.752701 
L 221.18076 143.752701 
" style="fill:none;stroke:#1f77b4;stroke-linecap:square;stroke-width:0.5;"/>
   </g>
   <g id="line2d_36">
    <path clip-path="url(#p3586d4663f)" d="M 42.620313 30.737215 
L 88.299423 29.595381 
L 114.943539 28.711604 
L 147.061539 27.39042 
L 212.53673 24.435299 
L 222.246548 24.309186 
L 228.126696 24.467619 
L 231.660036 24.797884 
L 233.756027 25.230819 
L 234.979833 25.724237 
L 235.679002 26.252647 
L 236.064589 26.800764 
L 236.309056 27.584618 
L 236.37141 28.715605 
L 236.206337 30.74397 
L 235.16438 38.958884 
L 228.797712 87.301215 
L 221.181004 143.750899 
L 221.181004 143.750899 
" style="fill:none;stroke:#1f77b4;stroke-linecap:square;stroke-width:0.5;"/>
   </g>
   <g id="line2d_37">
    <path clip-path="url(#p3586d4663f)" d="M 85.442529 10.7 
L 113.308061 9.800032 
" style="fill:none;stroke:#1f77b4;stroke-linecap:square;stroke-width:0.5;"/>
   </g>
   <g id="line2d_38">
    <path clip-path="url(#p3586d4663f)" d="M 138.56966 10.7 
L 151.411182 10.134139 
" style="fill:none;stroke:#1f77b4;stroke-linecap:square;stroke-width:0.5;"/>
   </g>
   <g id="line2d_39">
    <path clip-path="url(#p3586d4663f)" d="M 181.876284 10.7 
L 187.676572 10.429203 
" style="fill:none;stroke:#1f77b4;stroke-linecap:square;stroke-width:0.5;"/>
   </g>
   <g id="line2d_40">
    <path clip-path="url(#p3586d4663f)" d="M 221.180312 10.7 
L 227.063872 10.793541 
L 230.987016 11.031358 
L 233.580877 11.365008 
L 235.278851 11.761736 
L 236.377749 12.199548 
L 237.208906 12.782739 
L 237.667034 13.389347 
L 237.933907 14.133284 
L 238.039522 15.136135 
L 237.951916 16.892034 
L 237.396998 21.565098 
L 232.217596 61.531632 
L 224.777421 117.194467 
L 221.181069 143.750421 
L 221.181069 143.750421 
" style="fill:none;stroke:#1f77b4;stroke-linecap:square;stroke-width:0.5;"/>
   </g>
   <g id="patch_56">
    <path d="M 42.620313 276.812 
L 42.620313 10.7 
" style="fill:none;stroke:#000000;stroke-linecap:square;stroke-linejoin:miter;stroke-width:0.8;"/>
   </g>
   <g id="patch_57">
    <path d="M 399.740313 276.812 
L 399.740313 10.7 
" style="fill:none;stroke:#000000;stroke-linecap:square;stroke-linejoin:miter;stroke-width:0.8;"/>
   </g>
   <g id="patch_58">
    <path d="M 42.620313 276.812 
L 399.740313 276.812 
" style="fill:none;stroke:#000000;stroke-linecap:square;stroke-linejoin:miter;stroke-width:0.8;"/>
   </g>
   <g id="patch_59">
    <path d="M 42.620313 10.7 
L 399.740313 10.7 
" style="fill:none;stroke:#000000;stroke-linecap:square;stroke-linejoin:miter;stroke-width:0.8;"/>
   </g>
  </g>
 </g>
 <defs>
  <clipPath id="p3586d4663f">
   <rect height="266.112" width="357.12" x="42.620313" y="10.7"/>
  </clipPath>
 </defs>
</svg>
