<?xml version="1.0" encoding="utf-8" standalone="no"?>
<!DOCTYPE svg PUBLIC "-//W3C//DTD SVG 1.1//EN"
  "http://www.w3.org/Graphics/SVG/1.1/DTD/svg11.dtd">
<!-- Created with matplotlib (http://matplotlib.org/) -->
<svg height="314pt" version="1.1" viewBox="0 0 410 314" width="410pt" xmlns="http://www.w3.org/2000/svg" xmlns:xlink="http://www.w3.org/1999/xlink">
 <defs>
  <style type="text/css">
*{stroke-linecap:butt;stroke-linejoin:round;}
  </style>
 </defs>
 <g id="figure_1">
  <g id="patch_1">
   <path d="M 0 314.36825 
L 410.440313 314.36825 
L 410.440313 0 
L 0 0 
z
" style="fill:#ffffff;"/>
  </g>
  <g id="axes_1">
   <g id="patch_2">
    <path d="M 42.620313 276.812 
L 399.740313 276.812 
L 399.740313 10.7 
L 42.620313 10.7 
z
" style="fill:#ffffff;"/>
   </g>
   <g id="patch_3">
    <path clip-path="url(#p839829e3c5)" d="M 263.549432 21.494226 
L 256.235783 19.105303 
L 258.967153 17.411659 
L 258.994288 17.394355 
L 258.994604 17.394638 
L 261.725974 15.700994 
z
" style="fill:#1f77b4;stroke:#1f77b4;stroke-linejoin:miter;"/>
   </g>
   <g id="patch_4">
    <path clip-path="url(#p839829e3c5)" d="M 248.251051 86.669039 
L 246.348313 80.889982 
L 249.813625 81.475711 
L 249.848517 81.481385 
L 249.848452 81.481598 
L 253.313764 82.067327 
z
" style="fill:#1f77b4;stroke:#1f77b4;stroke-linejoin:miter;"/>
   </g>
   <g id="patch_5">
    <path clip-path="url(#p839829e3c5)" d="M 262.184582 31.932739 
L 259.492594 26.330605 
L 263.020469 26.647055 
L 263.055976 26.649924 
L 263.055925 26.650236 
L 266.583801 26.966686 
z
" style="fill:#1f77b4;stroke:#1f77b4;stroke-linejoin:miter;"/>
   </g>
   <g id="patch_6">
    <path clip-path="url(#p839829e3c5)" d="M 239.650436 110.160423 
L 238.248989 104.302332 
L 241.656757 105.052459 
L 241.691066 105.059845 
L 241.691006 105.059998 
L 245.098774 105.810125 
z
" style="fill:#1f77b4;stroke:#1f77b4;stroke-linejoin:miter;"/>
   </g>
   <g id="patch_7">
    <path clip-path="url(#p839829e3c5)" d="M 262.348545 31.209036 
L 261.648935 25.281471 
L 264.954144 26.25357 
L 264.987535 26.263014 
L 264.987362 26.26334 
L 268.292571 27.235439 
z
" style="fill:#1f77b4;stroke:#1f77b4;stroke-linejoin:miter;"/>
   </g>
   <g id="patch_8">
    <path clip-path="url(#p839829e3c5)" d="M 249.444184 82.863058 
L 247.481354 77.09517 
L 250.952658 77.660855 
L 250.987611 77.666319 
L 250.987546 77.66654 
L 254.45885 78.232225 
z
" style="fill:#1f77b4;stroke:#1f77b4;stroke-linejoin:miter;"/>
   </g>
   <g id="patch_9">
    <path clip-path="url(#p839829e3c5)" d="M 286.857166 17.599263 
L 292.941262 13.745177 
L 293.789042 16.316526 
L 293.800458 16.341838 
L 293.797563 16.342369 
L 294.645343 18.913717 
z
" style="fill:#1f77b4;stroke:#1f77b4;stroke-linejoin:miter;"/>
   </g>
   <g id="patch_10">
    <path clip-path="url(#p839829e3c5)" d="M 249.951496 81.199916 
L 247.963925 75.436735 
L 251.437639 75.994146 
L 251.472616 75.999522 
L 251.472551 75.999748 
L 254.946265 76.557159 
z
" style="fill:#1f77b4;stroke:#1f77b4;stroke-linejoin:miter;"/>
   </g>
   <g id="patch_11">
    <path clip-path="url(#p839829e3c5)" d="M 392.570837 30.983173 
L 399.54144 28.080099 
L 399.704858 30.725112 
L 399.741134 30.750506 
L 399.706501 30.751695 
L 399.869919 33.396707 
z
" style="fill:#1f77b4;stroke:#1f77b4;stroke-linejoin:miter;"/>
   </g>
   <g id="patch_12">
    <path clip-path="url(#p839829e3c5)" d="M 254.480107 65.103096 
L 252.773414 59.290143 
L 256.217817 59.94076 
L 256.252523 59.947038 
L 256.252434 59.947298 
L 259.696837 60.597915 
z
" style="fill:#1f77b4;stroke:#1f77b4;stroke-linejoin:miter;"/>
   </g>
   <g id="patch_13">
    <path clip-path="url(#p839829e3c5)" d="M 392.570197 73.456759 
L 399.543269 70.556978 
L 399.704437 73.202068 
L 399.741122 73.227465 
L 399.706056 73.228652 
L 399.867224 75.873741 
z
" style="fill:#1f77b4;stroke:#1f77b4;stroke-linejoin:miter;"/>
   </g>
   <g id="patch_14">
    <path clip-path="url(#p839829e3c5)" d="M 248.927304 93.941268 
L 252.122514 88.48793 
L 254.399363 90.520761 
L 254.422642 90.540945 
L 254.422246 90.541191 
L 256.699096 92.574022 
z
" style="fill:#1f77b4;stroke:#1f77b4;stroke-linejoin:miter;"/>
   </g>
   <g id="patch_15">
    <path clip-path="url(#p839829e3c5)" d="M 357.182098 108.333787 
L 364.085842 105.343316 
L 364.309245 107.985892 
L 364.332432 108.011468 
L 364.31149 108.012451 
L 364.534893 110.655027 
z
" style="fill:#1f77b4;stroke:#1f77b4;stroke-linejoin:miter;"/>
   </g>
   <g id="patch_16">
    <path clip-path="url(#p839829e3c5)" d="M 291.079658 113.359202 
L 297.574421 109.897176 
L 298.131075 112.512298 
L 298.141369 112.538026 
L 298.136669 112.538581 
L 298.693323 115.153703 
z
" style="fill:#1f77b4;stroke:#1f77b4;stroke-linejoin:miter;"/>
   </g>
   <g id="patch_17">
    <path clip-path="url(#p839829e3c5)" d="M 392.569257 136.779618 
L 399.545896 133.884606 
L 399.703807 136.529805 
L 399.741106 136.555206 
L 399.705394 136.55639 
L 399.863305 139.201588 
z
" style="fill:#1f77b4;stroke:#1f77b4;stroke-linejoin:miter;"/>
   </g>
   <g id="patch_18">
    <path clip-path="url(#p839829e3c5)" d="M 267.924552 146.153403 
L 274.16713 142.442713 
L 274.906784 145.032528 
L 274.916683 145.058165 
L 274.914217 145.058556 
L 275.653871 147.648371 
z
" style="fill:#1f77b4;stroke:#1f77b4;stroke-linejoin:miter;"/>
   </g>
   <g id="patch_19">
    <path clip-path="url(#p839829e3c5)" d="M 356.580635 167.078762 
L 363.491051 164.09686 
L 363.70855 166.739709 
L 363.732114 166.765294 
L 363.710736 166.766271 
L 363.928235 169.40912 
z
" style="fill:#1f77b4;stroke:#1f77b4;stroke-linejoin:miter;"/>
   </g>
   <g id="patch_20">
    <path clip-path="url(#p839829e3c5)" d="M 271.480487 174.0669 
L 277.891218 170.518972 
L 278.510476 173.126267 
L 278.519849 173.152056 
L 278.516699 173.152471 
L 279.135957 175.759766 
z
" style="fill:#1f77b4;stroke:#1f77b4;stroke-linejoin:miter;"/>
   </g>
   <g id="patch_21">
    <path clip-path="url(#p839829e3c5)" d="M 356.260929 198.273833 
L 363.174787 195.296365 
L 363.389232 197.939353 
L 363.412998 197.964942 
L 363.391388 197.965916 
L 363.605833 200.608904 
z
" style="fill:#1f77b4;stroke:#1f77b4;stroke-linejoin:miter;"/>
   </g>
   <g id="patch_22">
    <path clip-path="url(#p839829e3c5)" d="M 207.097992 208.940132 
L 214.575233 206.851257 
L 214.202956 209.4845 
L 214.19991 209.51102 
L 214.199215 209.510965 
L 213.826938 212.144208 
z
" style="fill:#1f77b4;stroke:#1f77b4;stroke-linejoin:miter;"/>
   </g>
   <g id="patch_23">
    <path clip-path="url(#p839829e3c5)" d="M 318.902304 237.41732 
L 325.70752 234.303974 
L 326.016159 236.941781 
L 326.030608 236.967555 
L 326.019261 236.968292 
L 326.3279 239.606099 
z
" style="fill:#1f77b4;stroke:#1f77b4;stroke-linejoin:miter;"/>
   </g>
   <g id="patch_24">
    <path clip-path="url(#p839829e3c5)" d="M 185.430286 231.818446 
L 191.258708 235.88602 
L 187.92631 236.805132 
L 187.892942 236.814618 
L 187.892818 236.814369 
L 184.56042 237.733482 
z
" style="fill:#1f77b4;stroke:#1f77b4;stroke-linejoin:miter;"/>
   </g>
   <g id="patch_25">
    <path clip-path="url(#p839829e3c5)" d="M 383.153477 277.056958 
L 390.124768 274.1548 
L 390.287559 276.799834 
L 390.322147 276.825292 
L 390.289196 276.826418 
L 390.451987 279.471452 
z
" style="fill:#1f77b4;stroke:#1f77b4;stroke-linejoin:miter;"/>
   </g>
   <g id="patch_26">
    <path clip-path="url(#p839829e3c5)" d="M 321.484992 277.244183 
L 328.314398 274.16039 
L 328.602439 276.79949 
L 328.617747 276.825262 
L 328.605334 276.826014 
L 328.893375 279.465115 
z
" style="fill:#1f77b4;stroke:#1f77b4;stroke-linejoin:miter;"/>
   </g>
   <g id="patch_27">
    <path clip-path="url(#p839829e3c5)" d="M 274.249352 277.455422 
L 280.907991 274.170802 
L 281.337279 276.799222 
L 281.346339 276.825208 
L 281.341594 276.825638 
L 281.770881 279.454059 
z
" style="fill:#1f77b4;stroke:#1f77b4;stroke-linejoin:miter;"/>
   </g>
   <g id="patch_28">
    <path clip-path="url(#p839829e3c5)" d="M 233.477784 277.235118 
L 240.313773 274.159433 
L 240.596172 276.798873 
L 240.601302 276.825264 
L 240.599011 276.8254 
L 240.881411 279.464839 
z
" style="fill:#1f77b4;stroke:#1f77b4;stroke-linejoin:miter;"/>
   </g>
   <g id="patch_29">
    <path clip-path="url(#p839829e3c5)" d="M 179.741232 257.354347 
L 183.333807 262.668593 
L 179.780479 262.676523 
L 179.744768 262.676911 
L 179.744767 262.676603 
L 176.191439 262.684533 
z
" style="fill:#1f77b4;stroke:#1f77b4;stroke-linejoin:miter;"/>
   </g>
   <g id="patch_30">
    <path clip-path="url(#p839829e3c5)" d="M 193.697677 202.140423 
L 195.621424 207.915617 
L 192.153994 207.336887 
L 192.119081 207.331287 
L 192.119146 207.331071 
L 188.651716 206.752341 
z
" style="fill:#1f77b4;stroke:#1f77b4;stroke-linejoin:miter;"/>
   </g>
   <g id="patch_31">
    <path clip-path="url(#p839829e3c5)" d="M 180.326347 255.009699 
L 182.24356 260.7861 
L 178.776787 260.205192 
L 178.741849 260.19967 
L 178.741945 260.199354 
L 175.275171 259.618446 
z
" style="fill:#1f77b4;stroke:#1f77b4;stroke-linejoin:miter;"/>
   </g>
   <g id="patch_32">
    <path clip-path="url(#p839829e3c5)" d="M 192.774703 205.110673 
L 194.744591 210.877224 
L 191.272596 210.313899 
L 191.237636 210.30846 
L 191.237701 210.308237 
L 187.765706 209.744911 
z
" style="fill:#1f77b4;stroke:#1f77b4;stroke-linejoin:miter;"/>
   </g>
   <g id="patch_33">
    <path clip-path="url(#p839829e3c5)" d="M 170.330086 266.792605 
L 165.468647 271.513293 
L 163.914695 269.132099 
L 163.897912 269.108589 
L 163.899078 269.108167 
L 162.345125 266.726973 
z
" style="fill:#1f77b4;stroke:#1f77b4;stroke-linejoin:miter;"/>
   </g>
   <g id="patch_34">
    <path clip-path="url(#p839829e3c5)" d="M 191.426594 209.611173 
L 193.461184 215.365236 
L 189.982983 214.823584 
L 189.947961 214.818373 
L 189.948026 214.818141 
L 186.469825 214.276489 
z
" style="fill:#1f77b4;stroke:#1f77b4;stroke-linejoin:miter;"/>
   </g>
   <g id="patch_35">
    <path clip-path="url(#p839829e3c5)" d="M 89.360436 275.301819 
L 82.485123 278.328442 
L 82.236753 275.687103 
L 82.21583 275.661519 
L 82.234257 275.660557 
L 81.985887 273.019219 
z
" style="fill:#1f77b4;stroke:#1f77b4;stroke-linejoin:miter;"/>
   </g>
   <g id="patch_36">
    <path clip-path="url(#p839829e3c5)" d="M 189.141288 217.697564 
L 191.277321 223.431178 
L 187.789856 222.923681 
L 187.754741 222.918829 
L 187.754806 222.91858 
L 184.26734 222.411084 
z
" style="fill:#1f77b4;stroke:#1f77b4;stroke-linejoin:miter;"/>
   </g>
   <g id="patch_37">
    <path clip-path="url(#p839829e3c5)" d="M 49.790133 233.726069 
L 42.818197 236.627365 
L 42.655993 233.982311 
L 42.619497 233.956915 
L 42.654363 233.955728 
L 42.492159 231.310673 
z
" style="fill:#1f77b4;stroke:#1f77b4;stroke-linejoin:miter;"/>
   </g>
   <g id="patch_38">
    <path clip-path="url(#p839829e3c5)" d="M 179.269187 219.639235 
L 174.345623 224.324034 
L 172.823202 221.931557 
L 172.806892 221.907869 
L 172.807902 221.907512 
L 171.285481 219.515035 
z
" style="fill:#1f77b4;stroke:#1f77b4;stroke-linejoin:miter;"/>
   </g>
   <g id="patch_39">
    <path clip-path="url(#p839829e3c5)" d="M 49.79069 196.529139 
L 42.816617 199.427582 
L 42.656363 196.782462 
L 42.619507 196.757064 
L 42.654752 196.755878 
L 42.494498 194.110758 
z
" style="fill:#1f77b4;stroke:#1f77b4;stroke-linejoin:miter;"/>
   </g>
   <g id="patch_40">
    <path clip-path="url(#p839829e3c5)" d="M 176.67258 185.341022 
L 170.845929 189.410004 
L 169.832138 186.872242 
L 169.820253 186.847113 
L 169.821949 186.846737 
L 168.808159 184.308975 
z
" style="fill:#1f77b4;stroke:#1f77b4;stroke-linejoin:miter;"/>
   </g>
   <g id="patch_41">
    <path clip-path="url(#p839829e3c5)" d="M 49.791153 165.330611 
L 42.815324 168.226706 
L 42.656673 165.581532 
L 42.619515 165.556132 
L 42.655079 165.554947 
L 42.496428 162.909773 
z
" style="fill:#1f77b4;stroke:#1f77b4;stroke-linejoin:miter;"/>
   </g>
   <g id="patch_42">
    <path clip-path="url(#p839829e3c5)" d="M 156.774487 158.44977 
L 150.31943 161.952788 
L 149.73298 159.341284 
L 149.722943 159.315554 
L 149.727086 159.315038 
L 149.140637 156.703534 
z
" style="fill:#1f77b4;stroke:#1f77b4;stroke-linejoin:miter;"/>
   </g>
   <g id="patch_43">
    <path clip-path="url(#p839829e3c5)" d="M 85.630042 135.029799 
L 78.721265 138.01381 
L 78.502315 135.371027 
L 78.478845 135.345445 
L 78.500114 135.344466 
L 78.281163 132.701683 
z
" style="fill:#1f77b4;stroke:#1f77b4;stroke-linejoin:miter;"/>
   </g>
   <g id="patch_44">
    <path clip-path="url(#p839829e3c5)" d="M 197.18385 123.22022 
L 191.097246 127.072105 
L 190.25114 124.50045 
L 190.2414 124.47483 
L 190.242636 124.474604 
L 189.39653 121.902949 
z
" style="fill:#1f77b4;stroke:#1f77b4;stroke-linejoin:miter;"/>
   </g>
   <g id="patch_45">
    <path clip-path="url(#p839829e3c5)" d="M 107.411231 104.248304 
L 100.562655 107.3084 
L 100.291086 104.66833 
L 100.273598 104.64264 
L 100.288357 104.641797 
L 100.016788 102.001727 
z
" style="fill:#1f77b4;stroke:#1f77b4;stroke-linejoin:miter;"/>
   </g>
   <g id="patch_46">
    <path clip-path="url(#p839829e3c5)" d="M 183.432151 96.828422 
L 177.057738 100.412501 
L 176.411945 97.808783 
L 176.403096 97.78294 
L 176.405454 97.782615 
L 175.759661 95.178897 
z
" style="fill:#1f77b4;stroke:#1f77b4;stroke-linejoin:miter;"/>
   </g>
   <g id="patch_47">
    <path clip-path="url(#p839829e3c5)" d="M 108.007443 70.662709 
L 101.152297 73.714627 
L 100.886403 71.074236 
L 100.86875 71.048537 
L 100.883731 71.047699 
L 100.617837 68.407308 
z
" style="fill:#1f77b4;stroke:#1f77b4;stroke-linejoin:miter;"/>
   </g>
   <g id="patch_48">
    <path clip-path="url(#p839829e3c5)" d="M 252.345372 70.650027 
L 245.101064 68.146535 
L 247.879828 66.496255 
L 247.907542 66.479469 
L 247.907756 66.479669 
L 250.68652 64.829389 
z
" style="fill:#1f77b4;stroke:#1f77b4;stroke-linejoin:miter;"/>
   </g>
   <g id="patch_49">
    <path clip-path="url(#p839829e3c5)" d="M 124.017624 27.305772 
L 117.205537 30.410763 
L 116.902727 27.772581 
L 116.888191 27.746799 
L 116.899684 27.746066 
L 116.596875 25.107884 
z
" style="fill:#1f77b4;stroke:#1f77b4;stroke-linejoin:miter;"/>
   </g>
   <g id="patch_50">
    <path clip-path="url(#p839829e3c5)" d="M 258.966156 46.768818 
L 256.306716 41.158059 
L 259.832722 41.485879 
L 259.868207 41.488885 
L 259.868159 41.489173 
L 263.394164 41.816993 
z
" style="fill:#1f77b4;stroke:#1f77b4;stroke-linejoin:miter;"/>
   </g>
   <g id="patch_51">
    <path clip-path="url(#p839829e3c5)" d="M 92.591748 10.372194 
L 85.682163 13.355165 
L 85.463928 10.71235 
L 85.441433 10.68672 
L 85.461735 10.685789 
L 85.2435 8.042973 
z
" style="fill:#1f77b4;stroke:#1f77b4;stroke-linejoin:miter;"/>
   </g>
   <g id="patch_52">
    <path clip-path="url(#p839829e3c5)" d="M 145.681549 10.150415 
L 138.945625 13.346338 
L 138.579091 10.712648 
L 138.567818 10.686765 
L 138.575407 10.686179 
L 138.208873 8.052489 
z
" style="fill:#1f77b4;stroke:#1f77b4;stroke-linejoin:miter;"/>
   </g>
   <g id="patch_53">
    <path clip-path="url(#p839829e3c5)" d="M 188.971248 10.067394 
L 182.303724 13.341991 
L 181.881558 10.71293 
L 181.874163 10.686789 
L 181.877315 10.686508 
L 181.455149 8.057447 
z
" style="fill:#1f77b4;stroke:#1f77b4;stroke-linejoin:miter;"/>
   </g>
   <g id="patch_54">
    <path clip-path="url(#p839829e3c5)" d="M 262.260232 18.9743 
L 254.409491 17.885953 
L 256.553088 15.774207 
L 256.574161 15.752718 
L 256.574632 15.752984 
L 258.718229 13.641237 
z
" style="fill:#1f77b4;stroke:#1f77b4;stroke-linejoin:miter;"/>
   </g>
   <g id="patch_55">
    <path clip-path="url(#p839829e3c5)" d="M 249.06831 84.078406 
L 247.12401 78.307034 
L 250.593487 78.878908 
L 250.628422 78.884436 
L 250.628357 78.884655 
L 254.097834 79.456529 
z
" style="fill:#1f77b4;stroke:#1f77b4;stroke-linejoin:miter;"/>
   </g>
   <g id="matplotlib.axis_1">
    <g id="xtick_1">
     <g id="line2d_1">
      <defs>
       <path d="M 0 0 
L 0 3.5 
" id="m67c735882a" style="stroke:#000000;stroke-width:0.8;"/>
      </defs>
      <g>
       <use style="stroke:#000000;stroke-width:0.8;" x="78.332313" xlink:href="#m67c735882a" y="276.812"/>
      </g>
     </g>
     <g id="text_1">
      <!-- −4 -->
      <defs>
       <path d="M 10.59375 35.5 
L 73.1875 35.5 
L 73.1875 27.203125 
L 10.59375 27.203125 
z
" id="DejaVuSans-2212"/>
       <path d="M 37.796875 64.3125 
L 12.890625 25.390625 
L 37.796875 25.390625 
z
M 35.203125 72.90625 
L 47.609375 72.90625 
L 47.609375 25.390625 
L 58.015625 25.390625 
L 58.015625 17.1875 
L 47.609375 17.1875 
L 47.609375 0 
L 37.796875 0 
L 37.796875 17.1875 
L 4.890625 17.1875 
L 4.890625 26.703125 
z
" id="DejaVuSans-34"/>
      </defs>
      <g transform="translate(70.961219 291.410438)scale(0.1 -0.1)">
       <use xlink:href="#DejaVuSans-2212"/>
       <use x="83.789062" xlink:href="#DejaVuSans-34"/>
      </g>
     </g>
    </g>
    <g id="xtick_2">
     <g id="line2d_2">
      <g>
       <use style="stroke:#000000;stroke-width:0.8;" x="149.756313" xlink:href="#m67c735882a" y="276.812"/>
      </g>
     </g>
     <g id="text_2">
      <!-- −2 -->
      <defs>
       <path d="M 19.1875 8.296875 
L 53.609375 8.296875 
L 53.609375 0 
L 7.328125 0 
L 7.328125 8.296875 
Q 12.9375 14.109375 22.625 23.890625 
Q 32.328125 33.6875 34.8125 36.53125 
Q 39.546875 41.84375 41.421875 45.53125 
Q 43.3125 49.21875 43.3125 52.78125 
Q 43.3125 58.59375 39.234375 62.25 
Q 35.15625 65.921875 28.609375 65.921875 
Q 23.96875 65.921875 18.8125 64.3125 
Q 13.671875 62.703125 7.8125 59.421875 
L 7.8125 69.390625 
Q 13.765625 71.78125 18.9375 73 
Q 24.125 74.21875 28.421875 74.21875 
Q 39.75 74.21875 46.484375 68.546875 
Q 53.21875 62.890625 53.21875 53.421875 
Q 53.21875 48.921875 51.53125 44.890625 
Q 49.859375 40.875 45.40625 35.40625 
Q 44.1875 33.984375 37.640625 27.21875 
Q 31.109375 20.453125 19.1875 8.296875 
" id="DejaVuSans-32"/>
      </defs>
      <g transform="translate(142.385219 291.410438)scale(0.1 -0.1)">
       <use xlink:href="#DejaVuSans-2212"/>
       <use x="83.789062" xlink:href="#DejaVuSans-32"/>
      </g>
     </g>
    </g>
    <g id="xtick_3">
     <g id="line2d_3">
      <g>
       <use style="stroke:#000000;stroke-width:0.8;" x="221.180313" xlink:href="#m67c735882a" y="276.812"/>
      </g>
     </g>
     <g id="text_3">
      <!-- 0 -->
      <defs>
       <path d="M 31.78125 66.40625 
Q 24.171875 66.40625 20.328125 58.90625 
Q 16.5 51.421875 16.5 36.375 
Q 16.5 21.390625 20.328125 13.890625 
Q 24.171875 6.390625 31.78125 6.390625 
Q 39.453125 6.390625 43.28125 13.890625 
Q 47.125 21.390625 47.125 36.375 
Q 47.125 51.421875 43.28125 58.90625 
Q 39.453125 66.40625 31.78125 66.40625 
M 31.78125 74.21875 
Q 44.046875 74.21875 50.515625 64.515625 
Q 56.984375 54.828125 56.984375 36.375 
Q 56.984375 17.96875 50.515625 8.265625 
Q 44.046875 -1.421875 31.78125 -1.421875 
Q 19.53125 -1.421875 13.0625 8.265625 
Q 6.59375 17.96875 6.59375 36.375 
Q 6.59375 54.828125 13.0625 64.515625 
Q 19.53125 74.21875 31.78125 74.21875 
" id="DejaVuSans-30"/>
      </defs>
      <g transform="translate(217.999063 291.410438)scale(0.1 -0.1)">
       <use xlink:href="#DejaVuSans-30"/>
      </g>
     </g>
    </g>
    <g id="xtick_4">
     <g id="line2d_4">
      <g>
       <use style="stroke:#000000;stroke-width:0.8;" x="292.604312" xlink:href="#m67c735882a" y="276.812"/>
      </g>
     </g>
     <g id="text_4">
      <!-- 2 -->
      <g transform="translate(289.423063 291.410438)scale(0.1 -0.1)">
       <use xlink:href="#DejaVuSans-32"/>
      </g>
     </g>
    </g>
    <g id="xtick_5">
     <g id="line2d_5">
      <g>
       <use style="stroke:#000000;stroke-width:0.8;" x="364.028313" xlink:href="#m67c735882a" y="276.812"/>
      </g>
     </g>
     <g id="text_5">
      <!-- 4 -->
      <g transform="translate(360.847063 291.410438)scale(0.1 -0.1)">
       <use xlink:href="#DejaVuSans-34"/>
      </g>
     </g>
    </g>
    <g id="text_6">
     <!-- x1 -->
     <defs>
      <path d="M 54.890625 54.6875 
L 35.109375 28.078125 
L 55.90625 0 
L 45.3125 0 
L 29.390625 21.484375 
L 13.484375 0 
L 2.875 0 
L 24.125 28.609375 
L 4.6875 54.6875 
L 15.28125 54.6875 
L 29.78125 35.203125 
L 44.28125 54.6875 
z
" id="DejaVuSans-78"/>
      <path d="M 12.40625 8.296875 
L 28.515625 8.296875 
L 28.515625 63.921875 
L 10.984375 60.40625 
L 10.984375 69.390625 
L 28.421875 72.90625 
L 38.28125 72.90625 
L 38.28125 8.296875 
L 54.390625 8.296875 
L 54.390625 0 
L 12.40625 0 
z
" id="DejaVuSans-31"/>
     </defs>
     <g transform="translate(215.039688 305.088562)scale(0.1 -0.1)">
      <use xlink:href="#DejaVuSans-78"/>
      <use x="59.179688" xlink:href="#DejaVuSans-31"/>
     </g>
    </g>
   </g>
   <g id="matplotlib.axis_2">
    <g id="ytick_1">
     <g id="line2d_6">
      <defs>
       <path d="M 0 0 
L -3.5 0 
" id="m9917d91c9e" style="stroke:#000000;stroke-width:0.8;"/>
      </defs>
      <g>
       <use style="stroke:#000000;stroke-width:0.8;" x="42.620313" xlink:href="#m9917d91c9e" y="250.2008"/>
      </g>
     </g>
     <g id="text_7">
      <!-- −4 -->
      <g transform="translate(20.878125 254.000019)scale(0.1 -0.1)">
       <use xlink:href="#DejaVuSans-2212"/>
       <use x="83.789062" xlink:href="#DejaVuSans-34"/>
      </g>
     </g>
    </g>
    <g id="ytick_2">
     <g id="line2d_7">
      <g>
       <use style="stroke:#000000;stroke-width:0.8;" x="42.620313" xlink:href="#m9917d91c9e" y="196.9784"/>
      </g>
     </g>
     <g id="text_8">
      <!-- −2 -->
      <g transform="translate(20.878125 200.777619)scale(0.1 -0.1)">
       <use xlink:href="#DejaVuSans-2212"/>
       <use x="83.789062" xlink:href="#DejaVuSans-32"/>
      </g>
     </g>
    </g>
    <g id="ytick_3">
     <g id="line2d_8">
      <g>
       <use style="stroke:#000000;stroke-width:0.8;" x="42.620313" xlink:href="#m9917d91c9e" y="143.756"/>
      </g>
     </g>
     <g id="text_9">
      <!-- 0 -->
      <g transform="translate(29.257813 147.555219)scale(0.1 -0.1)">
       <use xlink:href="#DejaVuSans-30"/>
      </g>
     </g>
    </g>
    <g id="ytick_4">
     <g id="line2d_9">
      <g>
       <use style="stroke:#000000;stroke-width:0.8;" x="42.620313" xlink:href="#m9917d91c9e" y="90.5336"/>
      </g>
     </g>
     <g id="text_10">
      <!-- 2 -->
      <g transform="translate(29.257813 94.332819)scale(0.1 -0.1)">
       <use xlink:href="#DejaVuSans-32"/>
      </g>
     </g>
    </g>
    <g id="ytick_5">
     <g id="line2d_10">
      <g>
       <use style="stroke:#000000;stroke-width:0.8;" x="42.620313" xlink:href="#m9917d91c9e" y="37.3112"/>
      </g>
     </g>
     <g id="text_11">
      <!-- 4 -->
      <g transform="translate(29.257813 41.110419)scale(0.1 -0.1)">
       <use xlink:href="#DejaVuSans-34"/>
      </g>
     </g>
    </g>
    <g id="text_12">
     <!-- x2 -->
     <g transform="translate(14.798438 149.896625)rotate(-90)scale(0.1 -0.1)">
      <use xlink:href="#DejaVuSans-78"/>
      <use x="59.179688" xlink:href="#DejaVuSans-32"/>
     </g>
    </g>
   </g>
   <g id="line2d_11">
    <path clip-path="url(#p839829e3c5)" d="M 221.180313 10.7 
L 227.972895 10.802955 
L 234.079092 11.098116 
L 239.497585 11.565056 
L 244.220622 12.183148 
L 248.252597 12.931683 
L 251.619082 13.79041 
L 254.367764 14.740123 
L 256.563127 15.763327 
L 258.278839 16.844631 
L 259.590457 17.970862 
L 260.569168 19.13106 
L 261.278833 20.316274 
L 261.774262 21.519322 
L 262.160698 23.039674 
L 262.373262 24.877503 
L 262.384094 27.027364 
L 262.162967 29.784414 
L 261.590023 33.728388 
L 260.51844 39.375724 
L 258.585732 48.241728 
L 256.011132 59.008281 
L 253.280962 69.482347 
L 250.545871 79.100709 
L 247.825662 87.864853 
L 245.0806 95.961323 
L 242.343689 103.346441 
L 239.597901 110.126176 
L 236.794068 116.459287 
L 233.934783 122.366883 
L 231.010774 127.899782 
L 227.942547 133.230119 
L 224.568635 138.637923 
L 221.180312 143.756 
L 221.180313 143.756 
" style="fill:none;stroke:#1f77b4;stroke-linecap:square;stroke-width:0.5;"/>
   </g>
   <g id="line2d_12">
    <path clip-path="url(#p839829e3c5)" d="M 260.484341 10.7 
L 261.613169 11.889167 
L 262.431888 13.107237 
L 263.005219 14.345901 
L 263.457181 15.913452 
L 263.717175 17.810405 
L 263.757468 20.031197 
L 263.552982 22.880977 
L 263.038248 26.648334 
L 261.980304 32.501829 
L 260.060121 41.707032 
L 257.434304 53.185517 
L 254.712151 64.106417 
L 251.977 74.17293 
L 249.246308 83.383634 
L 246.541195 91.743104 
L 243.824509 99.432168 
L 241.072223 106.560725 
L 238.280999 113.171318 
L 235.476888 119.246067 
L 232.586912 124.977114 
L 229.596385 130.412469 
L 226.418919 135.723251 
L 222.734855 141.431645 
L 221.180312 143.756 
L 221.180313 143.756 
" style="fill:none;stroke:#1f77b4;stroke-linecap:square;stroke-width:0.5;"/>
   </g>
   <g id="line2d_13">
    <path clip-path="url(#p839829e3c5)" d="M 303.790965 10.7 
L 299.485154 11.299076 
L 295.844618 11.868642 
L 290.020547 12.935905 
L 285.570685 13.927297 
L 280.58677 15.307942 
L 276.944257 16.593255 
L 274.190797 17.807708 
L 272.055908 18.967913 
L 269.880873 20.450315 
L 268.241249 21.876372 
L 266.972412 23.259413 
L 265.747484 24.941685 
L 264.633344 26.908198 
L 263.645059 29.147849 
L 262.665067 31.961495 
L 261.548314 35.924124 
L 259.839929 42.98704 
L 255.723514 60.165552 
L 252.989523 70.548831 
L 250.254752 80.075955 
L 247.537415 88.749355 
L 244.798064 96.754296 
L 242.070518 104.048197 
L 239.338293 110.736533 
L 236.553771 116.976385 
L 233.72051 122.789013 
L 230.791103 128.296671 
L 227.690246 133.649429 
L 224.279179 139.084326 
L 221.180312 143.756 
L 221.180313 143.756 
" style="fill:none;stroke:#1f77b4;stroke-linecap:square;stroke-width:0.5;"/>
   </g>
   <g id="line2d_14">
    <path clip-path="url(#p839829e3c5)" d="M 356.918096 10.7 
L 339.590009 11.642593 
L 327.496107 12.477478 
L 311.431304 13.932331 
L 301.081561 15.195299 
L 293.796198 16.328917 
L 288.3762 17.368897 
L 284.189693 18.337873 
L 279.452501 19.690644 
L 275.955366 20.952361 
L 273.290155 22.145777 
L 271.209082 23.286506 
L 269.074092 24.744337 
L 267.452788 26.146662 
L 266.190283 27.50631 
L 264.963457 29.159435 
L 263.840624 31.090718 
L 262.839345 33.288686 
L 261.843215 36.047735 
L 260.707878 39.929799 
L 259.046854 46.558453 
L 254.64815 64.359569 
L 251.911159 74.405653 
L 249.180598 83.595727 
L 246.476321 91.934741 
L 243.761245 99.603254 
L 241.011466 106.710998 
L 238.223869 113.300489 
L 235.424719 119.354049 
L 232.541471 125.063282 
L 229.559852 130.476015 
L 226.370187 135.801515 
L 222.666946 141.533768 
L 221.180312 143.756 
L 221.180313 143.756 
" style="fill:none;stroke:#1f77b4;stroke-linecap:square;stroke-width:0.5;"/>
   </g>
   <g id="line2d_15">
    <path clip-path="url(#p839829e3c5)" d="M 399.740313 30.737215 
L 365.107319 31.925346 
L 344.725407 32.916328 
L 330.936337 33.782636 
L 320.834263 34.561098 
L 306.810315 35.933984 
L 297.401458 37.135915 
L 290.590341 38.218611 
L 285.4112 39.212816 
L 279.608427 40.580257 
L 275.3424 41.836448 
L 272.086657 43.009295 
L 269.532895 44.117651 
L 266.893582 45.517701 
L 264.870096 46.848827 
L 263.280114 48.126463 
L 261.723656 49.664767 
L 260.292674 51.443999 
L 259.021109 53.449482 
L 257.900256 55.670495 
L 256.798186 58.364099 
L 255.556441 62.012921 
L 253.706441 68.240251 
L 249.258815 83.358018 
L 246.485732 91.909405 
L 243.769774 99.580756 
L 241.019529 106.691268 
L 238.231386 113.283542 
L 235.431615 119.339857 
L 232.547477 125.051927 
L 229.564708 130.467584 
L 226.373461 135.796266 
L 222.675339 141.521147 
L 221.180312 143.756 
L 221.180313 143.756 
" style="fill:none;stroke:#1f77b4;stroke-linecap:square;stroke-width:0.5;"/>
   </g>
   <g id="line2d_16">
    <path clip-path="url(#p839829e3c5)" d="M 399.740313 73.214173 
L 364.674205 74.40056 
L 343.980423 75.387114 
L 329.920586 76.246845 
L 311.533104 77.718836 
L 299.720302 78.971787 
L 291.329003 80.076572 
L 282.35297 81.538216 
L 275.939102 82.830406 
L 271.091831 83.998019 
L 266.190687 85.409065 
L 262.470077 86.69285 
L 258.91267 88.16186 
L 256.179105 89.514672 
L 253.635894 91.02012 
L 251.36064 92.651049 
L 249.37064 94.388239 
L 247.64521 96.218501 
L 246.143984 98.132451 
L 244.604416 100.473183 
L 243.005799 103.335523 
L 241.031429 107.366374 
L 233.370428 123.485644 
L 230.33969 129.10659 
L 227.1922 134.469663 
L 223.686568 139.991406 
L 221.180312 143.756 
L 221.180313 143.756 
" style="fill:none;stroke:#1f77b4;stroke-linecap:square;stroke-width:0.5;"/>
   </g>
   <g id="line2d_17">
    <path clip-path="url(#p839829e3c5)" d="M 399.740313 106.813183 
L 364.331309 107.998189 
L 343.389615 108.981234 
L 329.113438 109.835745 
L 310.328766 111.29271 
L 298.138572 112.524884 
L 289.379868 113.603349 
L 279.865873 115.015381 
L 272.928199 116.246091 
L 266.038873 117.680582 
L 259.718246 119.228065 
L 254.148273 120.820217 
L 249.339927 122.408264 
L 244.796692 124.136316 
L 240.782138 125.898528 
L 237.375529 127.62321 
L 234.401704 129.366362 
L 231.8277 131.132798 
L 229.726752 132.836932 
L 227.864429 134.637076 
L 226.18534 136.575376 
L 224.355905 139.049804 
L 221.180312 143.756 
L 221.180313 143.756 
" style="fill:none;stroke:#1f77b4;stroke-linecap:square;stroke-width:0.5;"/>
   </g>
   <g id="line2d_18">
    <path clip-path="url(#p839829e3c5)" d="M 399.740313 136.541913 
L 364.02811 137.725695 
L 342.866487 138.705634 
L 328.397118 139.555517 
L 309.255561 140.999115 
L 296.723036 142.212734 
L 283.906323 143.748584 
L 274.912967 145.045151 
L 266.145908 146.509139 
L 256.794299 148.297904 
L 245.511191 150.718444 
L 231.320105 153.771979 
L 226.342162 154.610409 
L 222.863273 154.981373 
L 220.44489 155.025974 
L 218.797149 154.845586 
L 217.711475 154.514097 
L 217.033203 154.085262 
L 216.629681 153.564019 
L 216.451746 152.974057 
L 216.464094 152.232445 
L 216.720888 151.237504 
L 217.325813 149.871107 
L 218.486052 147.856384 
L 221.008121 144.012634 
L 221.180313 143.756 
L 221.180312 143.756 
" style="fill:none;stroke:#1f77b4;stroke-linecap:square;stroke-width:0.5;"/>
   </g>
   <g id="line2d_19">
    <path clip-path="url(#p839829e3c5)" d="M 399.740313 165.569424 
L 363.731021 166.752013 
L 342.353193 167.72891 
L 327.694064 168.574251 
L 308.199381 170.004717 
L 295.325113 171.200043 
L 281.999956 172.698955 
L 269.859584 174.319629 
L 255.761549 176.464121 
L 238.554824 179.094113 
L 231.765534 179.919955 
L 226.273183 180.381737 
L 221.77378 180.546809 
L 218.088837 180.468643 
L 215.095824 180.19196 
L 212.697511 179.755027 
L 210.808958 179.190717 
L 209.35295 178.527083 
L 208.259273 177.787784 
L 207.465111 176.992508 
L 206.861623 176.050936 
L 206.501729 175.077394 
L 206.321959 173.975652 
L 206.332988 172.645956 
L 206.587189 170.998562 
L 207.146623 168.969693 
L 208.091363 166.440952 
L 209.548442 163.216116 
L 211.620391 159.19483 
L 214.291024 154.505933 
L 217.513462 149.306508 
L 221.180313 143.756 
L 221.180312 143.756 
" style="fill:none;stroke:#1f77b4;stroke-linecap:square;stroke-width:0.5;"/>
   </g>
   <g id="line2d_20">
    <path clip-path="url(#p839829e3c5)" d="M 399.740313 196.770356 
L 363.411921 197.951661 
L 341.801164 198.925285 
L 326.936272 199.765737 
L 307.056487 201.182016 
L 293.806245 202.357505 
L 279.914374 203.81614 
L 264.371305 205.694748 
L 243.243253 208.293597 
L 235.054847 209.091249 
L 228.165002 209.553445 
L 222.259839 209.730418 
L 217.178274 209.662217 
L 212.82946 209.383464 
L 209.15124 208.925478 
L 206.088886 208.317011 
L 203.585539 207.584344 
L 201.579956 206.751114 
L 200.008084 205.838153 
L 198.80627 204.863422 
L 197.914347 203.842102 
L 197.277833 202.786806 
L 196.794911 201.526353 
L 196.508932 200.062952 
L 196.438167 198.404791 
L 196.603251 196.381982 
L 197.029512 194.020274 
L 197.805677 191.008185 
L 199.047802 187.106529 
L 200.900934 182.048771 
L 203.2764 176.217614 
L 205.977284 170.179356 
L 208.788908 164.433248 
L 211.732397 158.923018 
L 214.818781 153.617237 
L 218.258353 148.155964 
L 221.180313 143.756 
L 221.180313 143.756 
" style="fill:none;stroke:#1f77b4;stroke-linecap:square;stroke-width:0.5;"/>
   </g>
   <g id="line2d_21">
    <path clip-path="url(#p839829e3c5)" d="M 399.740313 233.970206 
L 363.031163 235.14998 
L 341.141462 236.119697 
L 314.68181 237.691523 
L 298.265111 238.954783 
L 281.695371 240.480418 
L 238.39325 244.728812 
L 229.899323 245.208176 
L 222.461655 245.391551 
L 215.902786 245.314529 
L 210.149242 245.008274 
L 205.170785 244.502158 
L 200.944553 243.824652 
L 197.43569 243.003183 
L 195.109682 242.259756 
L 193.173406 241.452899 
L 191.586718 240.593646 
L 190.307508 239.69179 
L 189.294009 238.755869 
L 188.340966 237.549112 
L 187.672348 236.312346 
L 187.228961 235.055032 
L 186.926 233.529502 
L 186.805965 231.738707 
L 186.904675 229.435455 
L 187.267477 226.63945 
L 187.996472 222.887838 
L 189.284136 217.551215 
L 191.309304 210.185292 
L 193.82549 201.86987 
L 196.517147 193.730922 
L 199.214901 186.262584 
L 201.93897 179.357159 
L 204.74523 172.849685 
L 207.589924 166.818367 
L 210.472576 161.222296 
L 213.49218 155.844118 
L 216.752693 150.497332 
L 220.743794 144.40674 
L 221.180313 143.756 
L 221.180312 143.756 
" style="fill:none;stroke:#1f77b4;stroke-linecap:square;stroke-width:0.5;"/>
   </g>
   <g id="line2d_22">
    <path clip-path="url(#p839829e3c5)" d="M 390.321329 276.812 
L 357.369991 277.938095 
" style="fill:none;stroke:#1f77b4;stroke-linecap:square;stroke-width:0.5;"/>
   </g>
   <g id="line2d_23">
    <path clip-path="url(#p839829e3c5)" d="M 328.6163 276.812 
L 316.203112 277.564285 
" style="fill:none;stroke:#1f77b4;stroke-linecap:square;stroke-width:0.5;"/>
   </g>
   <g id="line2d_24">
    <path clip-path="url(#p839829e3c5)" d="M 281.344181 276.812 
L 276.598991 277.242336 
" style="fill:none;stroke:#1f77b4;stroke-linecap:square;stroke-width:0.5;"/>
   </g>
   <g id="line2d_25">
    <path clip-path="url(#p839829e3c5)" d="M 240.599883 276.812 
L 238.30866 276.94812 
" style="fill:none;stroke:#1f77b4;stroke-linecap:square;stroke-width:0.5;"/>
   </g>
   <g id="line2d_26">
    <path clip-path="url(#p839829e3c5)" d="M 201.760742 276.812 
L 197.141896 276.162781 
L 193.218249 275.386248 
L 189.95964 274.502643 
L 187.313693 273.531179 
L 185.212341 272.489153 
L 183.579671 271.391676 
L 182.339442 270.251568 
L 181.420538 269.079449 
L 180.760058 267.883939 
L 180.21732 266.36702 
L 179.911399 264.834553 
L 179.76823 262.985482 
L 179.831252 260.517526 
L 180.154544 257.447158 
L 180.839377 253.20139 
L 182.133312 246.692096 
L 184.345702 236.795026 
L 186.994678 225.945336 
L 189.727797 215.673779 
L 192.461307 206.258128 
L 195.174696 197.69542 
L 197.906481 189.802001 
L 200.622154 182.619046 
L 203.39445 175.909003 
L 206.203413 169.690909 
L 209.085777 163.853835 
L 212.056128 158.345085 
L 215.192618 153.003009 
L 218.696986 147.485675 
L 221.180313 143.756 
L 221.180312 143.756 
" style="fill:none;stroke:#1f77b4;stroke-linecap:square;stroke-width:0.5;"/>
   </g>
   <g id="line2d_27">
    <path clip-path="url(#p839829e3c5)" d="M 161.016444 276.812 
L 164.702366 275.510291 
L 167.472598 274.280107 
L 169.609816 273.104362 
L 171.293338 271.971046 
L 173.033607 270.511236 
L 174.364934 269.096832 
L 175.635517 267.377375 
L 176.60883 265.699347 
L 177.650539 263.402912 
L 178.561831 260.836255 
L 179.633216 257.075092 
L 181.091552 250.994807 
L 186.178701 229.180744 
L 188.909998 218.65347 
L 191.645517 208.982073 
L 194.367372 200.165188 
L 197.115696 192.015502 
L 199.85775 184.57733 
L 202.611327 177.744288 
L 205.426045 171.35672 
L 208.251919 165.489673 
L 211.162619 159.952407 
L 214.216172 154.619368 
L 217.563013 149.228885 
L 221.180313 143.756 
L 221.180312 143.756 
" style="fill:none;stroke:#1f77b4;stroke-linecap:square;stroke-width:0.5;"/>
   </g>
   <g id="line2d_28">
    <path clip-path="url(#p839829e3c5)" d="M 113.744325 276.812 
L 123.012737 276.047524 
L 130.213847 275.343895 
L 140.755733 274.071849 
L 148.146285 272.93128 
L 153.6277 271.885562 
L 157.852079 270.911563 
L 162.620639 269.552052 
L 166.132257 268.284093 
L 168.80294 267.084647 
L 170.884301 265.937949 
L 173.015368 264.4721 
L 174.630181 263.061601 
L 175.885516 261.693564 
L 177.102939 260.029661 
L 178.215467 258.084995 
L 179.20663 255.870871 
L 180.192678 253.090356 
L 181.317934 249.176308 
L 183.036981 242.204855 
L 187.229421 225.018587 
L 189.965439 214.821095 
L 192.698305 205.479788 
L 195.408898 196.99088 
L 198.135416 189.17173 
L 200.903152 181.911248 
L 203.660084 175.297038 
L 206.447598 169.175961 
L 209.301017 163.438312 
L 212.27059 157.965273 
L 215.424698 152.624505 
L 218.97974 147.055973 
L 221.180313 143.756 
L 221.180312 143.756 
" style="fill:none;stroke:#1f77b4;stroke-linecap:square;stroke-width:0.5;"/>
   </g>
   <g id="line2d_29">
    <path clip-path="url(#p839829e3c5)" d="M 52.039296 276.812 
L 82.217079 275.674792 
L 100.643442 274.712703 
L 113.341843 273.864412 
L 130.035207 272.392161 
L 140.700793 271.118455 
L 148.174186 269.977724 
L 153.717764 268.932908 
L 157.991846 267.960646 
L 162.821833 266.604971 
L 166.383892 265.342088 
L 169.097155 264.148757 
L 171.215288 263.009059 
L 173.388302 261.553722 
L 175.038724 260.154883 
L 176.324135 258.799482 
L 177.572712 257.152527 
L 178.715172 255.229554 
L 179.732925 253.042223 
L 180.743332 250.297881 
L 181.891025 246.438355 
L 183.49377 240.132102 
L 188.163352 221.436453 
L 190.900676 211.531605 
L 193.628513 202.482406 
L 196.326155 194.282818 
L 199.029705 186.754166 
L 201.761813 179.787918 
L 204.524029 173.341685 
L 207.339332 167.328413 
L 210.213323 161.706063 
L 213.22041 156.309951 
L 216.451371 150.974474 
L 220.306774 145.059282 
L 221.180313 143.756 
L 221.180312 143.756 
" style="fill:none;stroke:#1f77b4;stroke-linecap:square;stroke-width:0.5;"/>
   </g>
   <g id="line2d_30">
    <path clip-path="url(#p839829e3c5)" d="M 42.620313 233.970206 
L 77.485778 232.783012 
L 98.034909 231.794406 
L 111.968966 230.931626 
L 130.12684 229.450879 
L 141.723254 228.185863 
L 149.905717 227.065846 
L 156.043366 226.05137 
L 162.870617 224.675807 
L 167.884222 223.430994 
L 171.7262 222.284298 
L 175.636328 220.871355 
L 178.605927 219.560016 
L 180.929009 218.326997 
L 183.197706 216.871416 
L 184.968309 215.490532 
L 186.63607 213.910345 
L 188.148584 212.149591 
L 189.496816 210.222288 
L 190.818336 207.912571 
L 192.176931 205.039659 
L 193.782061 201.050648 
L 196.727714 192.948873 
L 200.14733 183.805337 
L 203.009956 176.799204 
L 205.797149 170.555306 
L 208.631855 164.738962 
L 211.562718 159.227565 
L 214.66536 153.870891 
L 218.078858 148.431645 
L 221.180313 143.756 
L 221.180312 143.756 
" style="fill:none;stroke:#1f77b4;stroke-linecap:square;stroke-width:0.5;"/>
   </g>
   <g id="line2d_31">
    <path clip-path="url(#p839829e3c5)" d="M 42.620313 196.770356 
L 77.865263 195.58469 
L 98.688237 194.599966 
L 112.860692 193.742955 
L 131.45458 192.278791 
L 143.463017 191.036653 
L 152.044275 189.945549 
L 161.29748 188.509657 
L 167.980029 187.249319 
L 174.53818 185.766575 
L 179.4243 184.452416 
L 184.053634 182.987016 
L 188.215182 181.424654 
L 191.841202 179.804319 
L 194.943516 178.152225 
L 197.572633 176.484932 
L 199.7952 174.81228 
L 201.8306 172.99517 
L 203.64685 171.07544 
L 205.437843 168.849126 
L 207.339709 166.1015 
L 209.70449 162.251054 
L 217.10261 149.944758 
L 221.180313 143.756 
L 221.180313 143.756 
" style="fill:none;stroke:#1f77b4;stroke-linecap:square;stroke-width:0.5;"/>
   </g>
   <g id="line2d_32">
    <path clip-path="url(#p839829e3c5)" d="M 42.620313 165.569424 
L 78.183809 164.385041 
L 99.237494 163.403577 
L 113.611715 162.551422 
L 132.577324 161.101254 
L 144.940713 159.878505 
L 157.507395 158.32428 
L 166.253216 157.003776 
L 174.692358 155.499294 
L 182.298288 153.916575 
L 189.887195 152.098005 
L 197.365509 150.062863 
L 205.492242 147.604264 
L 220.367589 143.022351 
L 221.376094 142.934199 
L 221.53529 143.085366 
L 221.435344 143.362535 
L 221.180312 143.756 
L 221.180313 143.756 
" style="fill:none;stroke:#1f77b4;stroke-linecap:square;stroke-width:0.5;"/>
   </g>
   <g id="line2d_33">
    <path clip-path="url(#p839829e3c5)" d="M 42.620313 136.541913 
L 78.479945 135.358725 
L 99.748769 134.380296 
L 114.312362 133.532667 
L 133.628886 132.095585 
L 146.330237 130.891034 
L 159.397606 129.373478 
L 171.191521 127.718936 
L 183.091325 125.767993 
L 211.693373 120.855067 
L 216.571788 120.337389 
L 220.38857 120.141988 
L 223.366134 120.198599 
L 225.662783 120.450859 
L 227.403505 120.852842 
L 228.6923 121.367106 
L 229.616982 121.963339 
L 230.251291 122.617245 
L 230.68639 123.38026 
L 230.921698 124.242413 
L 230.966059 125.262788 
L 230.792787 126.493561 
L 230.34426 128.035198 
L 229.506574 130.058063 
L 228.164107 132.681604 
L 226.076475 136.241178 
L 222.909492 141.168327 
L 221.180312 143.756 
L 221.180312 143.756 
" style="fill:none;stroke:#1f77b4;stroke-linecap:square;stroke-width:0.5;"/>
   </g>
   <g id="line2d_34">
    <path clip-path="url(#p839829e3c5)" d="M 42.620313 106.813183 
L 78.784307 105.631217 
L 100.274963 104.655906 
L 115.033658 103.812934 
L 134.714376 102.389338 
L 147.769845 101.203607 
L 161.367528 99.724156 
L 176.406341 97.796024 
L 205.035199 93.960595 
L 212.054237 93.307381 
L 217.896979 92.988213 
L 222.80304 92.948624 
L 226.910382 93.143637 
L 230.313471 93.534166 
L 233.090661 94.085553 
L 235.31572 94.767086 
L 237.061117 95.551858 
L 238.397208 96.416698 
L 239.390152 97.342004 
L 240.099947 98.311473 
L 240.5792 99.311743 
L 240.901889 100.478842 
L 241.043134 101.807334 
L 240.981943 103.434419 
L 240.68199 105.339713 
L 240.059491 107.772803 
L 239.048359 110.787019 
L 237.524347 114.612541 
L 235.371356 119.389019 
L 232.745935 124.657192 
L 229.840968 129.981926 
L 226.711772 135.250772 
L 223.110441 140.865407 
L 221.180312 143.756 
L 221.180312 143.756 
" style="fill:none;stroke:#1f77b4;stroke-linecap:square;stroke-width:0.5;"/>
   </g>
   <g id="line2d_35">
    <path clip-path="url(#p839829e3c5)" d="M 42.620313 73.214173 
L 79.128065 72.03359 
L 100.870086 71.061805 
L 115.851301 70.224108 
L 135.949898 68.815834 
L 149.415269 67.651571 
L 163.634119 66.21582 
L 205.351137 61.731616 
L 212.471982 61.277569 
L 218.713385 61.071839 
L 224.219143 61.084635 
L 229.063379 61.290078 
L 233.287917 61.66436 
L 236.924061 62.184983 
L 240.004694 62.830622 
L 242.569646 63.581296 
L 244.666285 64.418658 
L 246.347427 65.326226 
L 247.667961 66.289539 
L 248.6816 67.29617 
L 249.438369 68.335633 
L 250.070107 69.614166 
L 250.462405 70.915358 
L 250.689052 72.449553 
L 250.724042 74.210658 
L 250.536483 76.406419 
L 250.051791 79.228356 
L 249.193173 82.833198 
L 247.788012 87.719352 
L 245.740074 94.011557 
L 243.18744 101.123996 
L 240.465997 108.044054 
L 237.713224 114.444456 
L 234.909596 120.411257 
L 232.007563 126.067102 
L 228.99588 131.449849 
L 225.751617 136.787529 
L 221.830459 142.78647 
L 221.180312 143.756 
L 221.180312 143.756 
" style="fill:none;stroke:#1f77b4;stroke-linecap:square;stroke-width:0.5;"/>
   </g>
   <g id="line2d_36">
    <path clip-path="url(#p839829e3c5)" d="M 42.620313 30.737215 
L 79.563041 29.55838 
L 101.624401 28.591062 
L 128.383238 27.027538 
L 145.087464 25.776919 
L 162.095993 24.278335 
L 197.233629 21.039472 
L 208.056708 20.35431 
L 215.644628 20.078232 
L 222.492649 20.016994 
L 228.68203 20.149938 
L 234.239258 20.457921 
L 239.167034 20.922169 
L 243.465332 21.523906 
L 247.144596 22.244489 
L 250.231768 23.065827 
L 252.770305 23.970887 
L 254.816426 24.944114 
L 256.43295 25.971766 
L 257.684049 27.041996 
L 258.630764 28.144837 
L 259.328253 29.272052 
L 259.921908 30.705264 
L 260.277689 32.155889 
L 260.474386 33.909088 
L 260.481975 35.959755 
L 260.266169 38.589359 
L 259.753115 42.062826 
L 258.757514 47.171698 
L 257.02096 54.83286 
L 254.571556 64.63583 
L 251.903577 74.430047 
L 249.173601 83.617869 
L 246.469519 91.954732 
L 243.754644 99.621121 
L 241.005116 106.726749 
L 238.217858 113.314093 
L 235.419254 119.365403 
L 232.536705 125.072327 
L 229.556032 130.482671 
L 226.36763 135.805626 
L 222.666158 141.534955 
L 221.180312 143.756 
L 221.180313 143.756 
" style="fill:none;stroke:#1f77b4;stroke-linecap:square;stroke-width:0.5;"/>
   </g>
   <g id="line2d_37">
    <path clip-path="url(#p839829e3c5)" d="M 85.442529 10.7 
L 105.744411 9.769118 
" style="fill:none;stroke:#1f77b4;stroke-linecap:square;stroke-width:0.5;"/>
   </g>
   <g id="line2d_38">
    <path clip-path="url(#p839829e3c5)" d="M 138.56966 10.7 
L 146.15932 10.113494 
" style="fill:none;stroke:#1f77b4;stroke-linecap:square;stroke-width:0.5;"/>
   </g>
   <g id="line2d_39">
    <path clip-path="url(#p839829e3c5)" d="M 181.876284 10.7 
L 185.028122 10.418974 
" style="fill:none;stroke:#1f77b4;stroke-linecap:square;stroke-width:0.5;"/>
   </g>
   <g id="line2d_40">
    <path clip-path="url(#p839829e3c5)" d="M 221.180312 10.7 
L 227.972896 10.802955 
L 234.079116 11.098116 
L 239.497636 11.565056 
L 244.22073 12.18315 
L 248.252816 12.931693 
L 251.619389 13.790408 
L 254.368023 14.740118 
L 256.563389 15.76333 
L 258.279102 16.844641 
L 259.590577 17.970882 
L 260.569202 19.131084 
L 261.27884 20.316297 
L 261.774247 21.519327 
L 262.160784 23.039603 
L 262.373385 24.87741 
L 262.384227 27.027268 
L 262.163146 29.784302 
L 261.590225 33.728275 
L 260.518557 39.375625 
L 258.585832 48.241639 
L 256.01108 59.008218 
L 253.280951 69.482282 
L 250.545958 79.100625 
L 247.825745 87.864772 
L 245.080604 95.961238 
L 242.343746 103.346336 
L 239.597925 110.12609 
L 236.794148 116.459224 
L 233.934828 122.366861 
L 231.010779 127.899798 
L 227.942518 133.230173 
L 224.568614 138.637957 
L 221.180312 143.756 
L 221.180313 143.756 
" style="fill:none;stroke:#1f77b4;stroke-linecap:square;stroke-width:0.5;"/>
   </g>
   <g id="line2d_41">
    <path clip-path="url(#p839829e3c5)" d="M 221.180313 143.756 
" style="fill:none;stroke:#1f77b4;stroke-linecap:square;stroke-width:1.5;"/>
   </g>
   <g id="line2d_42">
    <defs>
     <path d="M 0 3 
C 0.795609 3 1.55874 2.683901 2.12132 2.12132 
C 2.683901 1.55874 3 0.795609 3 0 
C 3 -0.795609 2.683901 -1.55874 2.12132 -2.12132 
C 1.55874 -2.683901 0.795609 -3 0 -3 
C -0.795609 -3 -1.55874 -2.683901 -2.12132 -2.12132 
C -2.683901 -1.55874 -3 -0.795609 -3 0 
C -3 0.795609 -2.683901 1.55874 -2.12132 2.12132 
C -1.55874 2.683901 -0.795609 3 0 3 
z
" id="m07a8f95bdc" style="stroke:#ff0000;"/>
    </defs>
    <g clip-path="url(#p839829e3c5)">
     <use style="fill:#ff0000;stroke:#ff0000;" x="221.180313" xlink:href="#m07a8f95bdc" y="143.756"/>
    </g>
   </g>
   <g id="patch_56">
    <path d="M 42.620313 276.812 
L 42.620313 10.7 
" style="fill:none;stroke:#000000;stroke-linecap:square;stroke-linejoin:miter;stroke-width:0.8;"/>
   </g>
   <g id="patch_57">
    <path d="M 399.740313 276.812 
L 399.740313 10.7 
" style="fill:none;stroke:#000000;stroke-linecap:square;stroke-linejoin:miter;stroke-width:0.8;"/>
   </g>
   <g id="patch_58">
    <path d="M 42.620313 276.812 
L 399.740313 276.812 
" style="fill:none;stroke:#000000;stroke-linecap:square;stroke-linejoin:miter;stroke-width:0.8;"/>
   </g>
   <g id="patch_59">
    <path d="M 42.620313 10.7 
L 399.740313 10.7 
" style="fill:none;stroke:#000000;stroke-linecap:square;stroke-linejoin:miter;stroke-width:0.8;"/>
   </g>
   <g id="legend_1">
    <g id="patch_60">
     <path d="M 249.800312 273.812 
L 395.540313 273.812 
Q 396.740313 273.812 396.740313 272.612 
L 396.740313 255.35825 
Q 396.740313 254.15825 395.540313 254.15825 
L 249.800312 254.15825 
Q 248.600313 254.15825 248.600313 255.35825 
L 248.600313 272.612 
Q 248.600313 273.812 249.800312 273.812 
z
" style="fill:#ffffff;opacity:0.8;stroke:#cccccc;stroke-linejoin:miter;"/>
    </g>
    <g id="line2d_43">
     <path d="M 251.000313 259.017312 
L 263.000313 259.017312 
" style="fill:none;stroke:#1f77b4;stroke-linecap:square;stroke-width:1.5;"/>
    </g>
    <g id="line2d_44"/>
    <g id="text_13">
     <!-- system nieliniowy -->
     <defs>
      <path d="M 44.28125 53.078125 
L 44.28125 44.578125 
Q 40.484375 46.53125 36.375 47.5 
Q 32.28125 48.484375 27.875 48.484375 
Q 21.1875 48.484375 17.84375 46.4375 
Q 14.5 44.390625 14.5 40.28125 
Q 14.5 37.15625 16.890625 35.375 
Q 19.28125 33.59375 26.515625 31.984375 
L 29.59375 31.296875 
Q 39.15625 29.25 43.1875 25.515625 
Q 47.21875 21.78125 47.21875 15.09375 
Q 47.21875 7.46875 41.1875 3.015625 
Q 35.15625 -1.421875 24.609375 -1.421875 
Q 20.21875 -1.421875 15.453125 -0.5625 
Q 10.6875 0.296875 5.421875 2 
L 5.421875 11.28125 
Q 10.40625 8.6875 15.234375 7.390625 
Q 20.0625 6.109375 24.8125 6.109375 
Q 31.15625 6.109375 34.5625 8.28125 
Q 37.984375 10.453125 37.984375 14.40625 
Q 37.984375 18.0625 35.515625 20.015625 
Q 33.0625 21.96875 24.703125 23.78125 
L 21.578125 24.515625 
Q 13.234375 26.265625 9.515625 29.90625 
Q 5.8125 33.546875 5.8125 39.890625 
Q 5.8125 47.609375 11.28125 51.796875 
Q 16.75 56 26.8125 56 
Q 31.78125 56 36.171875 55.265625 
Q 40.578125 54.546875 44.28125 53.078125 
" id="DejaVuSans-73"/>
      <path d="M 32.171875 -5.078125 
Q 28.375 -14.84375 24.75 -17.8125 
Q 21.140625 -20.796875 15.09375 -20.796875 
L 7.90625 -20.796875 
L 7.90625 -13.28125 
L 13.1875 -13.28125 
Q 16.890625 -13.28125 18.9375 -11.515625 
Q 21 -9.765625 23.484375 -3.21875 
L 25.09375 0.875 
L 2.984375 54.6875 
L 12.5 54.6875 
L 29.59375 11.921875 
L 46.6875 54.6875 
L 56.203125 54.6875 
z
" id="DejaVuSans-79"/>
      <path d="M 18.3125 70.21875 
L 18.3125 54.6875 
L 36.8125 54.6875 
L 36.8125 47.703125 
L 18.3125 47.703125 
L 18.3125 18.015625 
Q 18.3125 11.328125 20.140625 9.421875 
Q 21.96875 7.515625 27.59375 7.515625 
L 36.8125 7.515625 
L 36.8125 0 
L 27.59375 0 
Q 17.1875 0 13.234375 3.875 
Q 9.28125 7.765625 9.28125 18.015625 
L 9.28125 47.703125 
L 2.6875 47.703125 
L 2.6875 54.6875 
L 9.28125 54.6875 
L 9.28125 70.21875 
z
" id="DejaVuSans-74"/>
      <path d="M 56.203125 29.59375 
L 56.203125 25.203125 
L 14.890625 25.203125 
Q 15.484375 15.921875 20.484375 11.0625 
Q 25.484375 6.203125 34.421875 6.203125 
Q 39.59375 6.203125 44.453125 7.46875 
Q 49.3125 8.734375 54.109375 11.28125 
L 54.109375 2.78125 
Q 49.265625 0.734375 44.1875 -0.34375 
Q 39.109375 -1.421875 33.890625 -1.421875 
Q 20.796875 -1.421875 13.15625 6.1875 
Q 5.515625 13.8125 5.515625 26.8125 
Q 5.515625 40.234375 12.765625 48.109375 
Q 20.015625 56 32.328125 56 
Q 43.359375 56 49.78125 48.890625 
Q 56.203125 41.796875 56.203125 29.59375 
M 47.21875 32.234375 
Q 47.125 39.59375 43.09375 43.984375 
Q 39.0625 48.390625 32.421875 48.390625 
Q 24.90625 48.390625 20.390625 44.140625 
Q 15.875 39.890625 15.1875 32.171875 
z
" id="DejaVuSans-65"/>
      <path d="M 52 44.1875 
Q 55.375 50.25 60.0625 53.125 
Q 64.75 56 71.09375 56 
Q 79.640625 56 84.28125 50.015625 
Q 88.921875 44.046875 88.921875 33.015625 
L 88.921875 0 
L 79.890625 0 
L 79.890625 32.71875 
Q 79.890625 40.578125 77.09375 44.375 
Q 74.3125 48.1875 68.609375 48.1875 
Q 61.625 48.1875 57.5625 43.546875 
Q 53.515625 38.921875 53.515625 30.90625 
L 53.515625 0 
L 44.484375 0 
L 44.484375 32.71875 
Q 44.484375 40.625 41.703125 44.40625 
Q 38.921875 48.1875 33.109375 48.1875 
Q 26.21875 48.1875 22.15625 43.53125 
Q 18.109375 38.875 18.109375 30.90625 
L 18.109375 0 
L 9.078125 0 
L 9.078125 54.6875 
L 18.109375 54.6875 
L 18.109375 46.1875 
Q 21.1875 51.21875 25.484375 53.609375 
Q 29.78125 56 35.6875 56 
Q 41.65625 56 45.828125 52.96875 
Q 50 49.953125 52 44.1875 
" id="DejaVuSans-6d"/>
      <path id="DejaVuSans-20"/>
      <path d="M 54.890625 33.015625 
L 54.890625 0 
L 45.90625 0 
L 45.90625 32.71875 
Q 45.90625 40.484375 42.875 44.328125 
Q 39.84375 48.1875 33.796875 48.1875 
Q 26.515625 48.1875 22.3125 43.546875 
Q 18.109375 38.921875 18.109375 30.90625 
L 18.109375 0 
L 9.078125 0 
L 9.078125 54.6875 
L 18.109375 54.6875 
L 18.109375 46.1875 
Q 21.34375 51.125 25.703125 53.5625 
Q 30.078125 56 35.796875 56 
Q 45.21875 56 50.046875 50.171875 
Q 54.890625 44.34375 54.890625 33.015625 
" id="DejaVuSans-6e"/>
      <path d="M 9.421875 54.6875 
L 18.40625 54.6875 
L 18.40625 0 
L 9.421875 0 
z
M 9.421875 75.984375 
L 18.40625 75.984375 
L 18.40625 64.59375 
L 9.421875 64.59375 
z
" id="DejaVuSans-69"/>
      <path d="M 9.421875 75.984375 
L 18.40625 75.984375 
L 18.40625 0 
L 9.421875 0 
z
" id="DejaVuSans-6c"/>
      <path d="M 30.609375 48.390625 
Q 23.390625 48.390625 19.1875 42.75 
Q 14.984375 37.109375 14.984375 27.296875 
Q 14.984375 17.484375 19.15625 11.84375 
Q 23.34375 6.203125 30.609375 6.203125 
Q 37.796875 6.203125 41.984375 11.859375 
Q 46.1875 17.53125 46.1875 27.296875 
Q 46.1875 37.015625 41.984375 42.703125 
Q 37.796875 48.390625 30.609375 48.390625 
M 30.609375 56 
Q 42.328125 56 49.015625 48.375 
Q 55.71875 40.765625 55.71875 27.296875 
Q 55.71875 13.875 49.015625 6.21875 
Q 42.328125 -1.421875 30.609375 -1.421875 
Q 18.84375 -1.421875 12.171875 6.21875 
Q 5.515625 13.875 5.515625 27.296875 
Q 5.515625 40.765625 12.171875 48.375 
Q 18.84375 56 30.609375 56 
" id="DejaVuSans-6f"/>
      <path d="M 4.203125 54.6875 
L 13.1875 54.6875 
L 24.421875 12.015625 
L 35.59375 54.6875 
L 46.1875 54.6875 
L 57.421875 12.015625 
L 68.609375 54.6875 
L 77.59375 54.6875 
L 63.28125 0 
L 52.6875 0 
L 40.921875 44.828125 
L 29.109375 0 
L 18.5 0 
z
" id="DejaVuSans-77"/>
     </defs>
     <g transform="translate(267.800313 261.117312)scale(0.06 -0.06)">
      <use xlink:href="#DejaVuSans-73"/>
      <use x="52.099609" xlink:href="#DejaVuSans-79"/>
      <use x="111.279297" xlink:href="#DejaVuSans-73"/>
      <use x="163.378906" xlink:href="#DejaVuSans-74"/>
      <use x="202.587891" xlink:href="#DejaVuSans-65"/>
      <use x="264.111328" xlink:href="#DejaVuSans-6d"/>
      <use x="361.523438" xlink:href="#DejaVuSans-20"/>
      <use x="393.310547" xlink:href="#DejaVuSans-6e"/>
      <use x="456.689453" xlink:href="#DejaVuSans-69"/>
      <use x="484.472656" xlink:href="#DejaVuSans-65"/>
      <use x="545.996094" xlink:href="#DejaVuSans-6c"/>
      <use x="573.779297" xlink:href="#DejaVuSans-69"/>
      <use x="601.5625" xlink:href="#DejaVuSans-6e"/>
      <use x="664.941406" xlink:href="#DejaVuSans-69"/>
      <use x="692.724609" xlink:href="#DejaVuSans-6f"/>
      <use x="753.90625" xlink:href="#DejaVuSans-77"/>
      <use x="835.693359" xlink:href="#DejaVuSans-79"/>
     </g>
    </g>
    <g id="line2d_45"/>
    <g id="line2d_46">
     <g>
      <use style="fill:#ff0000;stroke:#ff0000;" x="257.000313" xlink:href="#m07a8f95bdc" y="268.064187"/>
     </g>
    </g>
    <g id="text_14">
     <!-- Punkt równowagi asymptotycznie stabilny -->
     <defs>
      <path d="M 19.671875 64.796875 
L 19.671875 37.40625 
L 32.078125 37.40625 
Q 38.96875 37.40625 42.71875 40.96875 
Q 46.484375 44.53125 46.484375 51.125 
Q 46.484375 57.671875 42.71875 61.234375 
Q 38.96875 64.796875 32.078125 64.796875 
z
M 9.8125 72.90625 
L 32.078125 72.90625 
Q 44.34375 72.90625 50.609375 67.359375 
Q 56.890625 61.8125 56.890625 51.125 
Q 56.890625 40.328125 50.609375 34.8125 
Q 44.34375 29.296875 32.078125 29.296875 
L 19.671875 29.296875 
L 19.671875 0 
L 9.8125 0 
z
" id="DejaVuSans-50"/>
      <path d="M 8.5 21.578125 
L 8.5 54.6875 
L 17.484375 54.6875 
L 17.484375 21.921875 
Q 17.484375 14.15625 20.5 10.265625 
Q 23.53125 6.390625 29.59375 6.390625 
Q 36.859375 6.390625 41.078125 11.03125 
Q 45.3125 15.671875 45.3125 23.6875 
L 45.3125 54.6875 
L 54.296875 54.6875 
L 54.296875 0 
L 45.3125 0 
L 45.3125 8.40625 
Q 42.046875 3.421875 37.71875 1 
Q 33.40625 -1.421875 27.6875 -1.421875 
Q 18.265625 -1.421875 13.375 4.4375 
Q 8.5 10.296875 8.5 21.578125 
M 31.109375 56 
z
" id="DejaVuSans-75"/>
      <path d="M 9.078125 75.984375 
L 18.109375 75.984375 
L 18.109375 31.109375 
L 44.921875 54.6875 
L 56.390625 54.6875 
L 27.390625 29.109375 
L 57.625 0 
L 45.90625 0 
L 18.109375 26.703125 
L 18.109375 0 
L 9.078125 0 
z
" id="DejaVuSans-6b"/>
      <path d="M 41.109375 46.296875 
Q 39.59375 47.171875 37.8125 47.578125 
Q 36.03125 48 33.890625 48 
Q 26.265625 48 22.1875 43.046875 
Q 18.109375 38.09375 18.109375 28.8125 
L 18.109375 0 
L 9.078125 0 
L 9.078125 54.6875 
L 18.109375 54.6875 
L 18.109375 46.1875 
Q 20.953125 51.171875 25.484375 53.578125 
Q 30.03125 56 36.53125 56 
Q 37.453125 56 38.578125 55.875 
Q 39.703125 55.765625 41.0625 55.515625 
z
" id="DejaVuSans-72"/>
      <path d="M 30.609375 48.390625 
Q 23.390625 48.390625 19.1875 42.75 
Q 14.984375 37.109375 14.984375 27.296875 
Q 14.984375 17.484375 19.15625 11.84375 
Q 23.34375 6.203125 30.609375 6.203125 
Q 37.796875 6.203125 41.984375 11.859375 
Q 46.1875 17.53125 46.1875 27.296875 
Q 46.1875 37.015625 41.984375 42.703125 
Q 37.796875 48.390625 30.609375 48.390625 
M 30.609375 56 
Q 42.328125 56 49.015625 48.375 
Q 55.71875 40.765625 55.71875 27.296875 
Q 55.71875 13.875 49.015625 6.21875 
Q 42.328125 -1.421875 30.609375 -1.421875 
Q 18.84375 -1.421875 12.171875 6.21875 
Q 5.515625 13.875 5.515625 27.296875 
Q 5.515625 40.765625 12.171875 48.375 
Q 18.84375 56 30.609375 56 
M 37.40625 79.984375 
L 47.125 79.984375 
L 31.21875 61.625 
L 23.734375 61.625 
z
" id="DejaVuSans-f3"/>
      <path d="M 34.28125 27.484375 
Q 23.390625 27.484375 19.1875 25 
Q 14.984375 22.515625 14.984375 16.5 
Q 14.984375 11.71875 18.140625 8.90625 
Q 21.296875 6.109375 26.703125 6.109375 
Q 34.1875 6.109375 38.703125 11.40625 
Q 43.21875 16.703125 43.21875 25.484375 
L 43.21875 27.484375 
z
M 52.203125 31.203125 
L 52.203125 0 
L 43.21875 0 
L 43.21875 8.296875 
Q 40.140625 3.328125 35.546875 0.953125 
Q 30.953125 -1.421875 24.3125 -1.421875 
Q 15.921875 -1.421875 10.953125 3.296875 
Q 6 8.015625 6 15.921875 
Q 6 25.140625 12.171875 29.828125 
Q 18.359375 34.515625 30.609375 34.515625 
L 43.21875 34.515625 
L 43.21875 35.40625 
Q 43.21875 41.609375 39.140625 45 
Q 35.0625 48.390625 27.6875 48.390625 
Q 23 48.390625 18.546875 47.265625 
Q 14.109375 46.140625 10.015625 43.890625 
L 10.015625 52.203125 
Q 14.9375 54.109375 19.578125 55.046875 
Q 24.21875 56 28.609375 56 
Q 40.484375 56 46.34375 49.84375 
Q 52.203125 43.703125 52.203125 31.203125 
" id="DejaVuSans-61"/>
      <path d="M 45.40625 27.984375 
Q 45.40625 37.75 41.375 43.109375 
Q 37.359375 48.484375 30.078125 48.484375 
Q 22.859375 48.484375 18.828125 43.109375 
Q 14.796875 37.75 14.796875 27.984375 
Q 14.796875 18.265625 18.828125 12.890625 
Q 22.859375 7.515625 30.078125 7.515625 
Q 37.359375 7.515625 41.375 12.890625 
Q 45.40625 18.265625 45.40625 27.984375 
M 54.390625 6.78125 
Q 54.390625 -7.171875 48.1875 -13.984375 
Q 42 -20.796875 29.203125 -20.796875 
Q 24.46875 -20.796875 20.265625 -20.09375 
Q 16.0625 -19.390625 12.109375 -17.921875 
L 12.109375 -9.1875 
Q 16.0625 -11.328125 19.921875 -12.34375 
Q 23.78125 -13.375 27.78125 -13.375 
Q 36.625 -13.375 41.015625 -8.765625 
Q 45.40625 -4.15625 45.40625 5.171875 
L 45.40625 9.625 
Q 42.625 4.78125 38.28125 2.390625 
Q 33.9375 0 27.875 0 
Q 17.828125 0 11.671875 7.65625 
Q 5.515625 15.328125 5.515625 27.984375 
Q 5.515625 40.671875 11.671875 48.328125 
Q 17.828125 56 27.875 56 
Q 33.9375 56 38.28125 53.609375 
Q 42.625 51.21875 45.40625 46.390625 
L 45.40625 54.6875 
L 54.390625 54.6875 
z
" id="DejaVuSans-67"/>
      <path d="M 18.109375 8.203125 
L 18.109375 -20.796875 
L 9.078125 -20.796875 
L 9.078125 54.6875 
L 18.109375 54.6875 
L 18.109375 46.390625 
Q 20.953125 51.265625 25.265625 53.625 
Q 29.59375 56 35.59375 56 
Q 45.5625 56 51.78125 48.09375 
Q 58.015625 40.1875 58.015625 27.296875 
Q 58.015625 14.40625 51.78125 6.484375 
Q 45.5625 -1.421875 35.59375 -1.421875 
Q 29.59375 -1.421875 25.265625 0.953125 
Q 20.953125 3.328125 18.109375 8.203125 
M 48.6875 27.296875 
Q 48.6875 37.203125 44.609375 42.84375 
Q 40.53125 48.484375 33.40625 48.484375 
Q 26.265625 48.484375 22.1875 42.84375 
Q 18.109375 37.203125 18.109375 27.296875 
Q 18.109375 17.390625 22.1875 11.75 
Q 26.265625 6.109375 33.40625 6.109375 
Q 40.53125 6.109375 44.609375 11.75 
Q 48.6875 17.390625 48.6875 27.296875 
" id="DejaVuSans-70"/>
      <path d="M 48.78125 52.59375 
L 48.78125 44.1875 
Q 44.96875 46.296875 41.140625 47.34375 
Q 37.3125 48.390625 33.40625 48.390625 
Q 24.65625 48.390625 19.8125 42.84375 
Q 14.984375 37.3125 14.984375 27.296875 
Q 14.984375 17.28125 19.8125 11.734375 
Q 24.65625 6.203125 33.40625 6.203125 
Q 37.3125 6.203125 41.140625 7.25 
Q 44.96875 8.296875 48.78125 10.40625 
L 48.78125 2.09375 
Q 45.015625 0.34375 40.984375 -0.53125 
Q 36.96875 -1.421875 32.421875 -1.421875 
Q 20.0625 -1.421875 12.78125 6.34375 
Q 5.515625 14.109375 5.515625 27.296875 
Q 5.515625 40.671875 12.859375 48.328125 
Q 20.21875 56 33.015625 56 
Q 37.15625 56 41.109375 55.140625 
Q 45.0625 54.296875 48.78125 52.59375 
" id="DejaVuSans-63"/>
      <path d="M 5.515625 54.6875 
L 48.1875 54.6875 
L 48.1875 46.484375 
L 14.40625 7.171875 
L 48.1875 7.171875 
L 48.1875 0 
L 4.296875 0 
L 4.296875 8.203125 
L 38.09375 47.515625 
L 5.515625 47.515625 
z
" id="DejaVuSans-7a"/>
      <path d="M 48.6875 27.296875 
Q 48.6875 37.203125 44.609375 42.84375 
Q 40.53125 48.484375 33.40625 48.484375 
Q 26.265625 48.484375 22.1875 42.84375 
Q 18.109375 37.203125 18.109375 27.296875 
Q 18.109375 17.390625 22.1875 11.75 
Q 26.265625 6.109375 33.40625 6.109375 
Q 40.53125 6.109375 44.609375 11.75 
Q 48.6875 17.390625 48.6875 27.296875 
M 18.109375 46.390625 
Q 20.953125 51.265625 25.265625 53.625 
Q 29.59375 56 35.59375 56 
Q 45.5625 56 51.78125 48.09375 
Q 58.015625 40.1875 58.015625 27.296875 
Q 58.015625 14.40625 51.78125 6.484375 
Q 45.5625 -1.421875 35.59375 -1.421875 
Q 29.59375 -1.421875 25.265625 0.953125 
Q 20.953125 3.328125 18.109375 8.203125 
L 18.109375 0 
L 9.078125 0 
L 9.078125 75.984375 
L 18.109375 75.984375 
z
" id="DejaVuSans-62"/>
     </defs>
     <g transform="translate(267.800313 270.164187)scale(0.06 -0.06)">
      <use xlink:href="#DejaVuSans-50"/>
      <use x="60.287109" xlink:href="#DejaVuSans-75"/>
      <use x="123.666016" xlink:href="#DejaVuSans-6e"/>
      <use x="187.044922" xlink:href="#DejaVuSans-6b"/>
      <use x="244.955078" xlink:href="#DejaVuSans-74"/>
      <use x="284.164062" xlink:href="#DejaVuSans-20"/>
      <use x="315.951172" xlink:href="#DejaVuSans-72"/>
      <use x="357.033203" xlink:href="#DejaVuSans-f3"/>
      <use x="418.214844" xlink:href="#DejaVuSans-77"/>
      <use x="500.001953" xlink:href="#DejaVuSans-6e"/>
      <use x="563.380859" xlink:href="#DejaVuSans-6f"/>
      <use x="624.5625" xlink:href="#DejaVuSans-77"/>
      <use x="706.349609" xlink:href="#DejaVuSans-61"/>
      <use x="767.628906" xlink:href="#DejaVuSans-67"/>
      <use x="831.105469" xlink:href="#DejaVuSans-69"/>
      <use x="858.888672" xlink:href="#DejaVuSans-20"/>
      <use x="890.675781" xlink:href="#DejaVuSans-61"/>
      <use x="951.955078" xlink:href="#DejaVuSans-73"/>
      <use x="1004.054688" xlink:href="#DejaVuSans-79"/>
      <use x="1063.234375" xlink:href="#DejaVuSans-6d"/>
      <use x="1160.646484" xlink:href="#DejaVuSans-70"/>
      <use x="1224.123047" xlink:href="#DejaVuSans-74"/>
      <use x="1263.332031" xlink:href="#DejaVuSans-6f"/>
      <use x="1324.513672" xlink:href="#DejaVuSans-74"/>
      <use x="1363.722656" xlink:href="#DejaVuSans-79"/>
      <use x="1422.902344" xlink:href="#DejaVuSans-63"/>
      <use x="1477.882812" xlink:href="#DejaVuSans-7a"/>
      <use x="1530.373047" xlink:href="#DejaVuSans-6e"/>
      <use x="1593.751953" xlink:href="#DejaVuSans-69"/>
      <use x="1621.535156" xlink:href="#DejaVuSans-65"/>
      <use x="1683.058594" xlink:href="#DejaVuSans-20"/>
      <use x="1714.845703" xlink:href="#DejaVuSans-73"/>
      <use x="1766.945312" xlink:href="#DejaVuSans-74"/>
      <use x="1806.154297" xlink:href="#DejaVuSans-61"/>
      <use x="1867.433594" xlink:href="#DejaVuSans-62"/>
      <use x="1930.910156" xlink:href="#DejaVuSans-69"/>
      <use x="1958.693359" xlink:href="#DejaVuSans-6c"/>
      <use x="1986.476562" xlink:href="#DejaVuSans-6e"/>
      <use x="2049.855469" xlink:href="#DejaVuSans-79"/>
     </g>
    </g>
   </g>
  </g>
 </g>
 <defs>
  <clipPath id="p839829e3c5">
   <rect height="266.112" width="357.12" x="42.620313" y="10.7"/>
  </clipPath>
 </defs>
</svg>
