<?xml version="1.0" encoding="utf-8" standalone="no"?>
<!DOCTYPE svg PUBLIC "-//W3C//DTD SVG 1.1//EN"
  "http://www.w3.org/Graphics/SVG/1.1/DTD/svg11.dtd">
<!-- Created with matplotlib (http://matplotlib.org/) -->
<svg height="314pt" version="1.1" viewBox="0 0 410 314" width="410pt" xmlns="http://www.w3.org/2000/svg" xmlns:xlink="http://www.w3.org/1999/xlink">
 <defs>
  <style type="text/css">
*{stroke-linecap:butt;stroke-linejoin:round;}
  </style>
 </defs>
 <g id="figure_1">
  <g id="patch_1">
   <path d="M 0 314.36825 
L 410.440313 314.36825 
L 410.440313 0 
L 0 0 
z
" style="fill:#ffffff;"/>
  </g>
  <g id="axes_1">
   <g id="patch_2">
    <path d="M 42.620313 276.812 
L 399.740313 276.812 
L 399.740313 10.7 
L 42.620313 10.7 
z
" style="fill:#ffffff;"/>
   </g>
   <g id="patch_3">
    <path clip-path="url(#p3c529949c1)" d="M 254.946535 14.073934 
L 247.14251 15.335116 
L 248.021898 12.769668 
L 248.029664 12.743681 
L 248.030736 12.743885 
L 248.910124 10.178437 
z
" style="fill:#ff7f0e;stroke:#ff7f0e;stroke-linejoin:miter;"/>
   </g>
   <g id="patch_4">
    <path clip-path="url(#p3c529949c1)" d="M 264.462275 76.44911 
L 263.7003 70.525817 
L 267.015638 71.47857 
L 267.049135 71.487804 
L 267.048958 71.488145 
L 270.364297 72.440898 
z
" style="fill:#ff7f0e;stroke:#ff7f0e;stroke-linejoin:miter;"/>
   </g>
   <g id="patch_5">
    <path clip-path="url(#p3c529949c1)" d="M 278.086864 44.156846 
L 274.831454 38.723314 
L 278.381398 38.839117 
L 278.417101 38.839854 
L 278.417076 38.84028 
L 281.96702 38.956083 
z
" style="fill:#ff7f0e;stroke:#ff7f0e;stroke-linejoin:miter;"/>
   </g>
   <g id="patch_6">
    <path clip-path="url(#p3c529949c1)" d="M 247.465216 104.303507 
L 247.32042 98.35404 
L 250.526919 99.495041 
L 250.559285 99.50629 
L 250.559145 99.506509 
L 253.765645 100.647509 
z
" style="fill:#ff7f0e;stroke:#ff7f0e;stroke-linejoin:miter;"/>
   </g>
   <g id="patch_7">
    <path clip-path="url(#p3c529949c1)" d="M 276.251741 55.750873 
L 275.024272 49.871146 
L 278.408975 50.677176 
L 278.443175 50.684851 
L 278.442992 50.685277 
L 281.827694 51.491307 
z
" style="fill:#ff7f0e;stroke:#ff7f0e;stroke-linejoin:miter;"/>
   </g>
   <g id="patch_8">
    <path clip-path="url(#p3c529949c1)" d="M 246.34269 106.088984 
L 246.250729 100.138933 
L 249.447026 101.29572 
L 249.479286 101.307136 
L 249.479149 101.307346 
L 252.675446 102.464133 
z
" style="fill:#ff7f0e;stroke:#ff7f0e;stroke-linejoin:miter;"/>
   </g>
   <g id="patch_9">
    <path clip-path="url(#p3c529949c1)" d="M 292.266496 40.290736 
L 292.598225 34.345427 
L 295.707675 35.626926 
L 295.739337 35.639252 
L 295.738926 35.639806 
L 298.848376 36.921304 
z
" style="fill:#ff7f0e;stroke:#ff7f0e;stroke-linejoin:miter;"/>
   </g>
   <g id="patch_10">
    <path clip-path="url(#p3c529949c1)" d="M 258.242229 88.718476 
L 258.302428 82.7682 
L 261.468566 83.970158 
L 261.500591 83.981938 
L 261.500386 83.982238 
L 264.666524 85.184197 
z
" style="fill:#ff7f0e;stroke:#ff7f0e;stroke-linejoin:miter;"/>
   </g>
   <g id="patch_11">
    <path clip-path="url(#p3c529949c1)" d="M 323.359251 32.249529 
L 326.096817 26.659673 
L 328.537654 28.583946 
L 328.563315 28.602489 
L 328.562185 28.603285 
L 331.003021 30.527558 
z
" style="fill:#ff7f0e;stroke:#ff7f0e;stroke-linejoin:miter;"/>
   </g>
   <g id="patch_12">
    <path clip-path="url(#p3c529949c1)" d="M 250.559619 101.266964 
L 251.073519 95.328853 
L 254.142872 96.662947 
L 254.173912 96.67611 
L 254.17372 96.676355 
L 257.243073 98.010449 
z
" style="fill:#ff7f0e;stroke:#ff7f0e;stroke-linejoin:miter;"/>
   </g>
   <g id="patch_13">
    <path clip-path="url(#p3c529949c1)" d="M 347.865536 41.970412 
L 351.68603 36.745181 
L 353.716613 38.918062 
L 353.738911 38.938919 
L 353.737021 38.9399 
L 355.767605 41.112781 
z
" style="fill:#ff7f0e;stroke:#ff7f0e;stroke-linejoin:miter;"/>
   </g>
   <g id="patch_14">
    <path clip-path="url(#p3c529949c1)" d="M 270.84655 88.130947 
L 273.541042 82.529481 
L 275.996651 84.44329 
L 276.021901 84.462117 
L 276.021331 84.462524 
L 278.47694 86.376332 
z
" style="fill:#ff7f0e;stroke:#ff7f0e;stroke-linejoin:miter;"/>
   </g>
   <g id="patch_15">
    <path clip-path="url(#p3c529949c1)" d="M 372.353687 63.260759 
L 376.847735 58.34208 
L 378.580548 60.653716 
L 378.600756 60.675786 
L 378.597963 60.676948 
L 380.330775 62.988584 
z
" style="fill:#ff7f0e;stroke:#ff7f0e;stroke-linejoin:miter;"/>
   </g>
   <g id="patch_16">
    <path clip-path="url(#p3c529949c1)" d="M 276.857871 105.019198 
L 281.010657 99.93669 
L 282.898884 102.179718 
L 282.918837 102.201805 
L 282.917861 102.202261 
L 284.806088 104.44529 
z
" style="fill:#ff7f0e;stroke:#ff7f0e;stroke-linejoin:miter;"/>
   </g>
   <g id="patch_17">
    <path clip-path="url(#p3c529949c1)" d="M 372.885491 90.492329 
L 377.712254 85.751925 
L 379.283637 88.126759 
L 379.302605 88.14946 
L 379.29943 88.150627 
L 380.870813 90.52546 
z
" style="fill:#ff7f0e;stroke:#ff7f0e;stroke-linejoin:miter;"/>
   </g>
   <g id="patch_18">
    <path clip-path="url(#p3c529949c1)" d="M 304.20188 115.634968 
L 309.047319 110.905156 
L 310.609329 113.283421 
L 310.626836 113.306664 
L 310.625027 113.307323 
L 312.187037 115.685588 
z
" style="fill:#ff7f0e;stroke:#ff7f0e;stroke-linejoin:miter;"/>
   </g>
   <g id="patch_19">
    <path clip-path="url(#p3c529949c1)" d="M 374.461554 113.691428 
L 379.518703 109.08632 
L 380.971976 111.502556 
L 380.990108 111.525663 
L 380.986582 111.52684 
L 382.439855 113.943077 
z
" style="fill:#ff7f0e;stroke:#ff7f0e;stroke-linejoin:miter;"/>
   </g>
   <g id="patch_20">
    <path clip-path="url(#p3c529949c1)" d="M 263.268316 148.766997 
L 268.646031 144.368176 
L 269.925331 146.838432 
L 269.939436 146.8629 
L 269.938189 146.863259 
L 271.217489 149.333516 
z
" style="fill:#ff7f0e;stroke:#ff7f0e;stroke-linejoin:miter;"/>
   </g>
   <g id="patch_21">
    <path clip-path="url(#p3c529949c1)" d="M 372.967166 135.90424 
L 378.204564 131.412394 
L 379.561473 133.859548 
L 379.578898 133.882977 
L 379.57511 133.884143 
L 380.932019 136.331298 
z
" style="fill:#ff7f0e;stroke:#ff7f0e;stroke-linejoin:miter;"/>
   </g>
   <g id="patch_22">
    <path clip-path="url(#p3c529949c1)" d="M 255.890503 168.293456 
L 261.6713 164.188318 
L 262.713527 166.719675 
L 262.725334 166.744812 
L 262.724002 166.745116 
L 263.766229 169.276474 
z
" style="fill:#ff7f0e;stroke:#ff7f0e;stroke-linejoin:miter;"/>
   </g>
   <g id="patch_23">
    <path clip-path="url(#p3c529949c1)" d="M 331.452083 168.337651 
L 336.957391 164.027363 
L 338.164014 166.517842 
L 338.179337 166.542012 
L 338.176141 166.542872 
L 339.382763 169.033352 
z
" style="fill:#ff7f0e;stroke:#ff7f0e;stroke-linejoin:miter;"/>
   </g>
   <g id="patch_24">
    <path clip-path="url(#p3c529949c1)" d="M 255.075164 186.146594 
L 261.100765 182.241815 
L 261.987262 184.805904 
L 261.997726 184.831375 
L 261.996172 184.831674 
L 262.882668 187.395762 
z
" style="fill:#ff7f0e;stroke:#ff7f0e;stroke-linejoin:miter;"/>
   </g>
   <g id="patch_25">
    <path clip-path="url(#p3c529949c1)" d="M 327.543919 189.75065 
L 333.212116 185.559233 
L 334.322834 188.074366 
L 334.337383 188.098813 
L 334.333997 188.099643 
L 335.444714 190.614777 
z
" style="fill:#ff7f0e;stroke:#ff7f0e;stroke-linejoin:miter;"/>
   </g>
   <g id="patch_26">
    <path clip-path="url(#p3c529949c1)" d="M 218.692324 207.94813 
L 225.673677 205.059435 
L 225.827276 207.704774 
L 225.829782 207.73133 
L 225.82882 207.731361 
L 225.982419 210.3767 
z
" style="fill:#ff7f0e;stroke:#ff7f0e;stroke-linejoin:miter;"/>
   </g>
   <g id="patch_27">
    <path clip-path="url(#p3c529949c1)" d="M 359.545185 204.294091 
L 365.223715 200.110447 
L 366.328224 202.627098 
L 366.343696 202.651325 
L 366.339325 202.652391 
L 367.443834 205.169041 
z
" style="fill:#ff7f0e;stroke:#ff7f0e;stroke-linejoin:miter;"/>
   </g>
   <g id="patch_28">
    <path clip-path="url(#p3c529949c1)" d="M 187.358765 219.082578 
L 195.133306 220.441118 
L 192.860559 222.476497 
L 192.83806 222.497165 
L 192.837717 222.496953 
L 190.564971 224.532331 
z
" style="fill:#ff7f0e;stroke:#ff7f0e;stroke-linejoin:miter;"/>
   </g>
   <g id="patch_29">
    <path clip-path="url(#p3c529949c1)" d="M 326.593938 236.988178 
L 332.528402 233.006653 
L 333.474026 235.558986 
L 333.487525 235.583815 
L 333.483529 235.584637 
L 334.429153 238.136969 
z
" style="fill:#ff7f0e;stroke:#ff7f0e;stroke-linejoin:miter;"/>
   </g>
   <g id="patch_30">
    <path clip-path="url(#p3c529949c1)" d="M 177.95182 215.723329 
L 180.268746 221.417804 
L 176.766186 220.971744 
L 176.730909 220.967592 
L 176.730985 220.967261 
L 173.228426 220.521201 
z
" style="fill:#ff7f0e;stroke:#ff7f0e;stroke-linejoin:miter;"/>
   </g>
   <g id="patch_31">
    <path clip-path="url(#p3c529949c1)" d="M 381.293307 256.464337 
L 387.143857 252.414441 
L 388.142698 254.955493 
L 388.158341 254.979808 
L 388.152736 254.981031 
L 389.151577 257.522082 
z
" style="fill:#ff7f0e;stroke:#ff7f0e;stroke-linejoin:miter;"/>
   </g>
   <g id="patch_32">
    <path clip-path="url(#p3c529949c1)" d="M 300.972404 271.869652 
L 307.173119 268.120189 
L 307.941812 270.705304 
L 307.953367 270.730653 
L 307.949538 270.731286 
L 308.718231 273.316401 
z
" style="fill:#ff7f0e;stroke:#ff7f0e;stroke-linejoin:miter;"/>
   </g>
   <g id="patch_33">
    <path clip-path="url(#p3c529949c1)" d="M 372.475842 278.217838 
L 378.422457 274.246393 
L 379.360279 276.800324 
L 379.375381 276.824834 
L 379.369705 276.825991 
L 380.307527 279.379922 
z
" style="fill:#ff7f0e;stroke:#ff7f0e;stroke-linejoin:miter;"/>
   </g>
   <g id="patch_34">
    <path clip-path="url(#p3c529949c1)" d="M 327.149458 278.06841 
L 333.247765 274.226817 
L 334.086046 276.799894 
L 334.099027 276.82493 
L 334.094471 276.825754 
L 334.932751 279.398832 
z
" style="fill:#ff7f0e;stroke:#ff7f0e;stroke-linejoin:miter;"/>
   </g>
   <g id="patch_35">
    <path clip-path="url(#p3c529949c1)" d="M 290.255247 277.874692 
L 296.541283 274.204963 
L 297.25041 276.799515 
L 297.261182 276.825038 
L 297.257537 276.825591 
L 297.966664 279.420143 
z
" style="fill:#ff7f0e;stroke:#ff7f0e;stroke-linejoin:miter;"/>
   </g>
   <g id="patch_36">
    <path clip-path="url(#p3c529949c1)" d="M 258.124423 277.598106 
L 264.661287 274.180361 
L 265.185911 276.799157 
L 265.194036 276.82516 
L 265.191184 276.825477 
L 265.715808 279.444274 
z
" style="fill:#ff7f0e;stroke:#ff7f0e;stroke-linejoin:miter;"/>
   </g>
   <g id="patch_37">
    <path clip-path="url(#p3c529949c1)" d="M 228.464765 277.14659 
L 235.368604 274.15624 
L 235.591924 276.79882 
L 235.596288 276.825279 
L 235.594168 276.825379 
L 235.817488 279.467959 
z
" style="fill:#ff7f0e;stroke:#ff7f0e;stroke-linejoin:miter;"/>
   </g>
   <g id="patch_38">
    <path clip-path="url(#p3c529949c1)" d="M 164.351424 246.73988 
L 168.45204 251.845856 
L 164.908852 252.045903 
L 164.873284 252.048333 
L 164.873242 252.047914 
L 161.330054 252.247961 
z
" style="fill:#ff7f0e;stroke:#ff7f0e;stroke-linejoin:miter;"/>
   </g>
   <g id="patch_39">
    <path clip-path="url(#p3c529949c1)" d="M 185.590302 197.906095 
L 185.968543 203.849861 
L 182.718633 202.779228 
L 182.685801 202.768754 
L 182.685971 202.768468 
L 179.43606 201.697836 
z
" style="fill:#ff7f0e;stroke:#ff7f0e;stroke-linejoin:miter;"/>
   </g>
   <g id="patch_40">
    <path clip-path="url(#p3c529949c1)" d="M 161.610186 252.195866 
L 165.750465 257.284038 
L 162.208893 257.499391 
L 162.173348 257.501995 
L 162.173299 257.501555 
L 158.631728 257.716909 
z
" style="fill:#ff7f0e;stroke:#ff7f0e;stroke-linejoin:miter;"/>
   </g>
   <g id="patch_41">
    <path clip-path="url(#p3c529949c1)" d="M 181.405139 204.597086 
L 181.86703 210.537569 
L 178.602227 209.492398 
L 178.569233 209.48221 
L 178.569415 209.481894 
L 175.304613 208.436722 
z
" style="fill:#ff7f0e;stroke:#ff7f0e;stroke-linejoin:miter;"/>
   </g>
   <g id="patch_42">
    <path clip-path="url(#p3c529949c1)" d="M 159.853745 239.755653 
L 160.662524 245.6755 
L 157.339712 244.737313 
L 157.306076 244.728359 
L 157.306317 244.727884 
L 153.983506 243.789698 
z
" style="fill:#ff7f0e;stroke:#ff7f0e;stroke-linejoin:miter;"/>
   </g>
   <g id="patch_43">
    <path clip-path="url(#p3c529949c1)" d="M 188.627849 192.546603 
L 188.731403 198.496548 
L 185.532856 197.343221 
L 185.500537 197.331895 
L 185.50071 197.33163 
L 182.302162 196.178302 
z
" style="fill:#ff7f0e;stroke:#ff7f0e;stroke-linejoin:miter;"/>
   </g>
   <g id="patch_44">
    <path clip-path="url(#p3c529949c1)" d="M 126.948813 260.951387 
L 125.034405 266.728304 
L 122.329848 265.010933 
L 122.301828 264.994407 
L 122.302667 264.993673 
L 119.59811 263.276303 
z
" style="fill:#ff7f0e;stroke:#ff7f0e;stroke-linejoin:miter;"/>
   </g>
   <g id="patch_45">
    <path clip-path="url(#p3c529949c1)" d="M 177.27522 206.81507 
L 176.724044 212.751324 
L 173.663101 211.406545 
L 173.632058 211.393383 
L 173.632337 211.39303 
L 170.571394 210.048251 
z
" style="fill:#ff7f0e;stroke:#ff7f0e;stroke-linejoin:miter;"/>
   </g>
   <g id="patch_46">
    <path clip-path="url(#p3c529949c1)" d="M 124.136079 241.028197 
L 121.000729 246.500793 
L 118.701681 244.481883 
L 118.677375 244.462352 
L 118.678575 244.461592 
L 116.379528 242.442682 
z
" style="fill:#ff7f0e;stroke:#ff7f0e;stroke-linejoin:miter;"/>
   </g>
   <g id="patch_47">
    <path clip-path="url(#p3c529949c1)" d="M 189.810843 187.218619 
L 188.720822 193.113368 
L 185.789277 191.61704 
L 185.759572 191.602265 
L 185.759814 191.602002 
L 182.828269 190.105675 
z
" style="fill:#ff7f0e;stroke:#ff7f0e;stroke-linejoin:miter;"/>
   </g>
   <g id="patch_48">
    <path clip-path="url(#p3c529949c1)" d="M 100.747024 225.96701 
L 96.591529 231.048289 
L 94.704497 228.804702 
L 94.68353 228.783088 
L 94.685532 228.782153 
L 92.798501 226.538566 
z
" style="fill:#ff7f0e;stroke:#ff7f0e;stroke-linejoin:miter;"/>
   </g>
   <g id="patch_49">
    <path clip-path="url(#p3c529949c1)" d="M 165.626819 193.092888 
L 162.019433 198.40156 
L 159.901874 196.275276 
L 159.879772 196.25436 
L 159.880592 196.253907 
L 157.763034 194.127623 
z
" style="fill:#ff7f0e;stroke:#ff7f0e;stroke-linejoin:miter;"/>
   </g>
   <g id="patch_50">
    <path clip-path="url(#p3c529949c1)" d="M 90.928324 201.763999 
L 86.264077 206.593894 
L 84.612554 204.249449 
L 84.593379 204.226895 
L 84.595956 204.225887 
L 82.944434 201.881443 
z
" style="fill:#ff7f0e;stroke:#ff7f0e;stroke-linejoin:miter;"/>
   </g>
   <g id="patch_51">
    <path clip-path="url(#p3c529949c1)" d="M 140.663733 182.099475 
L 136.052982 186.957808 
L 134.375625 184.62357 
L 134.357161 184.600751 
L 134.358767 184.60011 
L 132.68141 182.265872 
z
" style="fill:#ff7f0e;stroke:#ff7f0e;stroke-linejoin:miter;"/>
   </g>
   <g id="patch_52">
    <path clip-path="url(#p3c529949c1)" d="M 77.057078 182.173389 
L 72.099638 186.838309 
L 70.594576 184.439741 
L 70.576263 184.416745 
L 70.579449 184.415635 
L 69.074388 182.017067 
z
" style="fill:#ff7f0e;stroke:#ff7f0e;stroke-linejoin:miter;"/>
   </g>
   <g id="patch_53">
    <path clip-path="url(#p3c529949c1)" d="M 167.94246 151.381376 
L 162.83259 155.954055 
L 161.407129 153.528636 
L 161.391453 153.5047 
L 161.392803 153.50426 
L 159.967342 151.078841 
z
" style="fill:#ff7f0e;stroke:#ff7f0e;stroke-linejoin:miter;"/>
   </g>
   <g id="patch_54">
    <path clip-path="url(#p3c529949c1)" d="M 75.908357 160.225873 
L 70.744841 164.764967 
L 69.347994 162.330322 
L 69.330445 162.306971 
L 69.333955 162.305853 
L 67.937108 159.871207 
z
" style="fill:#ff7f0e;stroke:#ff7f0e;stroke-linejoin:miter;"/>
   </g>
   <g id="patch_55">
    <path clip-path="url(#p3c529949c1)" d="M 172.231313 131.561322 
L 166.733466 135.876894 
L 165.522536 133.387576 
L 165.508851 133.362967 
L 165.510366 133.362558 
L 164.299436 130.873239 
z
" style="fill:#ff7f0e;stroke:#ff7f0e;stroke-linejoin:miter;"/>
   </g>
   <g id="patch_56">
    <path clip-path="url(#p3c529949c1)" d="M 112.088136 128.836916 
L 106.660537 133.201583 
L 105.409405 130.723329 
L 105.393794 130.699273 
L 105.396831 130.698421 
L 104.145699 128.220167 
z
" style="fill:#ff7f0e;stroke:#ff7f0e;stroke-linejoin:miter;"/>
   </g>
   <g id="patch_57">
    <path clip-path="url(#p3c529949c1)" d="M 183.321309 111.064642 
L 177.452175 115.09958 
L 176.465022 112.555994 
L 176.453581 112.530758 
L 176.455101 112.53043 
L 175.467947 109.986844 
z
" style="fill:#ff7f0e;stroke:#ff7f0e;stroke-linejoin:miter;"/>
   </g>
   <g id="patch_58">
    <path clip-path="url(#p3c529949c1)" d="M 106.037216 110.317115 
L 100.474476 114.586263 
L 99.301256 112.086937 
L 99.286029 112.062714 
L 99.289465 112.061819 
L 98.116244 109.562493 
z
" style="fill:#ff7f0e;stroke:#ff7f0e;stroke-linejoin:miter;"/>
   </g>
   <g id="patch_59">
    <path clip-path="url(#p3c529949c1)" d="M 194.422343 91.122699 
L 188.201385 94.853496 
L 187.44669 92.266092 
L 187.437587 92.240333 
L 187.439105 92.240088 
L 186.68441 89.652683 
z
" style="fill:#ff7f0e;stroke:#ff7f0e;stroke-linejoin:miter;"/>
   </g>
   <g id="patch_60">
    <path clip-path="url(#p3c529949c1)" d="M 136.705741 82.159127 
L 130.859879 86.21278 
L 129.858098 83.672371 
L 129.844974 83.647509 
L 129.84803 83.646839 
L 128.84625 81.106431 
z
" style="fill:#ff7f0e;stroke:#ff7f0e;stroke-linejoin:miter;"/>
   </g>
   <g id="patch_61">
    <path clip-path="url(#p3c529949c1)" d="M 248.562707 75.235455 
L 240.577322 75.212245 
L 242.17881 72.848605 
L 242.194485 72.824691 
L 242.194906 72.82485 
L 243.796394 70.461209 
z
" style="fill:#ff7f0e;stroke:#ff7f0e;stroke-linejoin:miter;"/>
   </g>
   <g id="patch_62">
    <path clip-path="url(#p3c529949c1)" d="M 101.427069 66.662213 
L 95.618402 70.745448 
L 94.59342 68.210183 
L 94.578985 68.185631 
L 94.583118 68.184703 
L 93.558136 65.649439 
z
" style="fill:#ff7f0e;stroke:#ff7f0e;stroke-linejoin:miter;"/>
   </g>
   <g id="patch_63">
    <path clip-path="url(#p3c529949c1)" d="M 218.373225 48.644682 
L 211.462066 51.625627 
L 211.245226 48.982747 
L 211.241545 48.956254 
L 211.243047 48.956186 
L 211.026208 46.313306 
z
" style="fill:#ff7f0e;stroke:#ff7f0e;stroke-linejoin:miter;"/>
   </g>
   <g id="patch_64">
    <path clip-path="url(#p3c529949c1)" d="M 152.288151 29.714973 
L 146.0794 33.457045 
L 145.316254 30.871018 
L 145.305211 30.84558 
L 145.308584 30.845027 
L 144.545437 28.259 
z
" style="fill:#ff7f0e;stroke:#ff7f0e;stroke-linejoin:miter;"/>
   </g>
   <g id="patch_65">
    <path clip-path="url(#p3c529949c1)" d="M 270.85337 59.398606 
L 268.18724 53.78961 
L 271.713635 54.115095 
L 271.749138 54.11799 
L 271.749076 54.118367 
L 275.275471 54.443851 
z
" style="fill:#ff7f0e;stroke:#ff7f0e;stroke-linejoin:miter;"/>
   </g>
   <g id="patch_66">
    <path clip-path="url(#p3c529949c1)" d="M 49.491389 14.483713 
L 43.612087 18.510423 
L 42.631352 15.965458 
L 42.615384 15.941188 
L 42.621495 15.939881 
L 41.64076 13.394917 
z
" style="fill:#ff7f0e;stroke:#ff7f0e;stroke-linejoin:miter;"/>
   </g>
   <g id="patch_67">
    <path clip-path="url(#p3c529949c1)" d="M 61.5932 11.948531 
L 55.676952 15.94508 
L 54.719678 13.39516 
L 54.704211 13.370752 
L 54.710058 13.369533 
L 53.752784 10.819613 
z
" style="fill:#ff7f0e;stroke:#ff7f0e;stroke-linejoin:miter;"/>
   </g>
   <g id="patch_68">
    <path clip-path="url(#p3c529949c1)" d="M 93.920592 9.364808 
L 87.90151 13.275166 
L 87.010736 10.7119 
L 86.996701 10.687119 
L 87.001784 10.686138 
L 86.11101 8.122873 
z
" style="fill:#ff7f0e;stroke:#ff7f0e;stroke-linejoin:miter;"/>
   </g>
   <g id="patch_69">
    <path clip-path="url(#p3c529949c1)" d="M 134.437722 9.533175 
L 128.251353 13.295774 
L 127.472789 10.712299 
L 127.460883 10.687018 
L 127.464964 10.686335 
L 126.686401 8.10286 
z
" style="fill:#ff7f0e;stroke:#ff7f0e;stroke-linejoin:miter;"/>
   </g>
   <g id="patch_70">
    <path clip-path="url(#p3c529949c1)" d="M 168.602033 9.761442 
L 162.200942 13.319022 
L 161.574611 10.712665 
L 161.565078 10.686903 
L 161.568316 10.686471 
L 160.941985 8.080114 
z
" style="fill:#ff7f0e;stroke:#ff7f0e;stroke-linejoin:miter;"/>
   </g>
   <g id="patch_71">
    <path clip-path="url(#p3c529949c1)" d="M 199.262049 10.107801 
L 192.561193 13.3444 
L 192.165955 10.713016 
L 192.159502 10.686777 
L 192.161983 10.68657 
L 191.766745 8.055186 
z
" style="fill:#ff7f0e;stroke:#ff7f0e;stroke-linejoin:miter;"/>
   </g>
   <g id="patch_72">
    <path clip-path="url(#p3c529949c1)" d="M 264.002639 17.333618 
L 256.02241 17.548661 
L 257.495618 15.139137 
L 257.509618 15.114647 
L 257.510424 15.114921 
L 258.983633 12.705397 
z
" style="fill:#ff7f0e;stroke:#ff7f0e;stroke-linejoin:miter;"/>
   </g>
   <g id="patch_73">
    <path clip-path="url(#p3c529949c1)" d="M 253.571385 94.744209 
L 253.286786 88.797544 
L 256.51961 89.896526 
L 256.552261 89.907308 
L 256.5521 89.907571 
L 259.784924 91.006552 
z
" style="fill:#ff7f0e;stroke:#ff7f0e;stroke-linejoin:miter;"/>
   </g>
   <g id="matplotlib.axis_1">
    <g id="xtick_1">
     <g id="line2d_1">
      <defs>
       <path d="M 0 0 
L 0 3.5 
" id="m695354219f" style="stroke:#000000;stroke-width:0.8;"/>
      </defs>
      <g>
       <use style="stroke:#000000;stroke-width:0.8;" x="78.332313" xlink:href="#m695354219f" y="276.812"/>
      </g>
     </g>
     <g id="text_1">
      <!-- −4 -->
      <defs>
       <path d="M 10.59375 35.5 
L 73.1875 35.5 
L 73.1875 27.203125 
L 10.59375 27.203125 
z
" id="DejaVuSans-2212"/>
       <path d="M 37.796875 64.3125 
L 12.890625 25.390625 
L 37.796875 25.390625 
z
M 35.203125 72.90625 
L 47.609375 72.90625 
L 47.609375 25.390625 
L 58.015625 25.390625 
L 58.015625 17.1875 
L 47.609375 17.1875 
L 47.609375 0 
L 37.796875 0 
L 37.796875 17.1875 
L 4.890625 17.1875 
L 4.890625 26.703125 
z
" id="DejaVuSans-34"/>
      </defs>
      <g transform="translate(70.961219 291.410438)scale(0.1 -0.1)">
       <use xlink:href="#DejaVuSans-2212"/>
       <use x="83.789062" xlink:href="#DejaVuSans-34"/>
      </g>
     </g>
    </g>
    <g id="xtick_2">
     <g id="line2d_2">
      <g>
       <use style="stroke:#000000;stroke-width:0.8;" x="149.756313" xlink:href="#m695354219f" y="276.812"/>
      </g>
     </g>
     <g id="text_2">
      <!-- −2 -->
      <defs>
       <path d="M 19.1875 8.296875 
L 53.609375 8.296875 
L 53.609375 0 
L 7.328125 0 
L 7.328125 8.296875 
Q 12.9375 14.109375 22.625 23.890625 
Q 32.328125 33.6875 34.8125 36.53125 
Q 39.546875 41.84375 41.421875 45.53125 
Q 43.3125 49.21875 43.3125 52.78125 
Q 43.3125 58.59375 39.234375 62.25 
Q 35.15625 65.921875 28.609375 65.921875 
Q 23.96875 65.921875 18.8125 64.3125 
Q 13.671875 62.703125 7.8125 59.421875 
L 7.8125 69.390625 
Q 13.765625 71.78125 18.9375 73 
Q 24.125 74.21875 28.421875 74.21875 
Q 39.75 74.21875 46.484375 68.546875 
Q 53.21875 62.890625 53.21875 53.421875 
Q 53.21875 48.921875 51.53125 44.890625 
Q 49.859375 40.875 45.40625 35.40625 
Q 44.1875 33.984375 37.640625 27.21875 
Q 31.109375 20.453125 19.1875 8.296875 
" id="DejaVuSans-32"/>
      </defs>
      <g transform="translate(142.385219 291.410438)scale(0.1 -0.1)">
       <use xlink:href="#DejaVuSans-2212"/>
       <use x="83.789062" xlink:href="#DejaVuSans-32"/>
      </g>
     </g>
    </g>
    <g id="xtick_3">
     <g id="line2d_3">
      <g>
       <use style="stroke:#000000;stroke-width:0.8;" x="221.180313" xlink:href="#m695354219f" y="276.812"/>
      </g>
     </g>
     <g id="text_3">
      <!-- 0 -->
      <defs>
       <path d="M 31.78125 66.40625 
Q 24.171875 66.40625 20.328125 58.90625 
Q 16.5 51.421875 16.5 36.375 
Q 16.5 21.390625 20.328125 13.890625 
Q 24.171875 6.390625 31.78125 6.390625 
Q 39.453125 6.390625 43.28125 13.890625 
Q 47.125 21.390625 47.125 36.375 
Q 47.125 51.421875 43.28125 58.90625 
Q 39.453125 66.40625 31.78125 66.40625 
M 31.78125 74.21875 
Q 44.046875 74.21875 50.515625 64.515625 
Q 56.984375 54.828125 56.984375 36.375 
Q 56.984375 17.96875 50.515625 8.265625 
Q 44.046875 -1.421875 31.78125 -1.421875 
Q 19.53125 -1.421875 13.0625 8.265625 
Q 6.59375 17.96875 6.59375 36.375 
Q 6.59375 54.828125 13.0625 64.515625 
Q 19.53125 74.21875 31.78125 74.21875 
" id="DejaVuSans-30"/>
      </defs>
      <g transform="translate(217.999063 291.410438)scale(0.1 -0.1)">
       <use xlink:href="#DejaVuSans-30"/>
      </g>
     </g>
    </g>
    <g id="xtick_4">
     <g id="line2d_4">
      <g>
       <use style="stroke:#000000;stroke-width:0.8;" x="292.604312" xlink:href="#m695354219f" y="276.812"/>
      </g>
     </g>
     <g id="text_4">
      <!-- 2 -->
      <g transform="translate(289.423063 291.410438)scale(0.1 -0.1)">
       <use xlink:href="#DejaVuSans-32"/>
      </g>
     </g>
    </g>
    <g id="xtick_5">
     <g id="line2d_5">
      <g>
       <use style="stroke:#000000;stroke-width:0.8;" x="364.028313" xlink:href="#m695354219f" y="276.812"/>
      </g>
     </g>
     <g id="text_5">
      <!-- 4 -->
      <g transform="translate(360.847063 291.410438)scale(0.1 -0.1)">
       <use xlink:href="#DejaVuSans-34"/>
      </g>
     </g>
    </g>
    <g id="text_6">
     <!-- x1 -->
     <defs>
      <path d="M 54.890625 54.6875 
L 35.109375 28.078125 
L 55.90625 0 
L 45.3125 0 
L 29.390625 21.484375 
L 13.484375 0 
L 2.875 0 
L 24.125 28.609375 
L 4.6875 54.6875 
L 15.28125 54.6875 
L 29.78125 35.203125 
L 44.28125 54.6875 
z
" id="DejaVuSans-78"/>
      <path d="M 12.40625 8.296875 
L 28.515625 8.296875 
L 28.515625 63.921875 
L 10.984375 60.40625 
L 10.984375 69.390625 
L 28.421875 72.90625 
L 38.28125 72.90625 
L 38.28125 8.296875 
L 54.390625 8.296875 
L 54.390625 0 
L 12.40625 0 
z
" id="DejaVuSans-31"/>
     </defs>
     <g transform="translate(215.039688 305.088562)scale(0.1 -0.1)">
      <use xlink:href="#DejaVuSans-78"/>
      <use x="59.179688" xlink:href="#DejaVuSans-31"/>
     </g>
    </g>
   </g>
   <g id="matplotlib.axis_2">
    <g id="ytick_1">
     <g id="line2d_6">
      <defs>
       <path d="M 0 0 
L -3.5 0 
" id="mf020e97613" style="stroke:#000000;stroke-width:0.8;"/>
      </defs>
      <g>
       <use style="stroke:#000000;stroke-width:0.8;" x="42.620313" xlink:href="#mf020e97613" y="250.2008"/>
      </g>
     </g>
     <g id="text_7">
      <!-- −4 -->
      <g transform="translate(20.878125 254.000019)scale(0.1 -0.1)">
       <use xlink:href="#DejaVuSans-2212"/>
       <use x="83.789062" xlink:href="#DejaVuSans-34"/>
      </g>
     </g>
    </g>
    <g id="ytick_2">
     <g id="line2d_7">
      <g>
       <use style="stroke:#000000;stroke-width:0.8;" x="42.620313" xlink:href="#mf020e97613" y="196.9784"/>
      </g>
     </g>
     <g id="text_8">
      <!-- −2 -->
      <g transform="translate(20.878125 200.777619)scale(0.1 -0.1)">
       <use xlink:href="#DejaVuSans-2212"/>
       <use x="83.789062" xlink:href="#DejaVuSans-32"/>
      </g>
     </g>
    </g>
    <g id="ytick_3">
     <g id="line2d_8">
      <g>
       <use style="stroke:#000000;stroke-width:0.8;" x="42.620313" xlink:href="#mf020e97613" y="143.756"/>
      </g>
     </g>
     <g id="text_9">
      <!-- 0 -->
      <g transform="translate(29.257813 147.555219)scale(0.1 -0.1)">
       <use xlink:href="#DejaVuSans-30"/>
      </g>
     </g>
    </g>
    <g id="ytick_4">
     <g id="line2d_9">
      <g>
       <use style="stroke:#000000;stroke-width:0.8;" x="42.620313" xlink:href="#mf020e97613" y="90.5336"/>
      </g>
     </g>
     <g id="text_10">
      <!-- 2 -->
      <g transform="translate(29.257813 94.332819)scale(0.1 -0.1)">
       <use xlink:href="#DejaVuSans-32"/>
      </g>
     </g>
    </g>
    <g id="ytick_5">
     <g id="line2d_10">
      <g>
       <use style="stroke:#000000;stroke-width:0.8;" x="42.620313" xlink:href="#mf020e97613" y="37.3112"/>
      </g>
     </g>
     <g id="text_11">
      <!-- 4 -->
      <g transform="translate(29.257813 41.110419)scale(0.1 -0.1)">
       <use xlink:href="#DejaVuSans-34"/>
      </g>
     </g>
    </g>
    <g id="text_12">
     <!-- x2 -->
     <g transform="translate(14.798438 149.896625)rotate(-90)scale(0.1 -0.1)">
      <use xlink:href="#DejaVuSans-78"/>
      <use x="59.179688" xlink:href="#DejaVuSans-32"/>
     </g>
    </g>
   </g>
   <g id="line2d_11">
    <path clip-path="url(#p3c529949c1)" d="M 221.180313 10.7 
L 227.975382 10.802974 
L 234.11347 11.098556 
L 239.647787 11.567955 
L 244.627333 12.193925 
L 249.097302 12.960622 
L 253.099393 13.853483 
L 256.672046 14.859138 
L 259.850683 15.965325 
L 262.66799 17.160781 
L 265.154085 18.435185 
L 267.336657 19.779099 
L 269.241239 21.183873 
L 270.891368 22.641584 
L 272.308738 24.144977 
L 273.513384 25.687402 
L 274.747975 27.661127 
L 275.71165 29.675701 
L 276.43397 31.721595 
L 276.941584 33.790326 
L 277.300984 36.292386 
L 277.422769 38.805073 
L 277.339633 41.318507 
L 277.021897 44.240516 
L 276.416054 47.552504 
L 275.485189 51.226961 
L 274.211456 55.227451 
L 272.596437 59.509402 
L 270.659764 64.021512 
L 268.261734 69.05919 
L 265.263086 74.833873 
L 261.570923 81.442239 
L 257.021744 89.105992 
L 251.359296 98.190459 
L 243.879944 109.745163 
L 232.354742 127.092101 
L 221.180312 143.756 
L 221.180313 143.756 
" style="fill:none;stroke:#ff7f0e;stroke-linecap:square;stroke-width:0.5;"/>
   </g>
   <g id="line2d_12">
    <path clip-path="url(#p3c529949c1)" d="M 250.199137 10.7 
L 254.211181 11.625786 
L 257.791052 12.664664 
L 260.97435 13.804311 
L 263.794147 15.03334 
L 266.280724 16.341381 
L 268.462004 17.718924 
L 270.363771 19.157239 
L 272.009718 20.648356 
L 273.421651 22.184993 
L 274.619684 23.760481 
L 275.844529 25.775236 
L 276.797052 27.830441 
L 277.507093 29.916486 
L 278.001265 32.024922 
L 278.343235 34.573983 
L 278.446538 37.132865 
L 278.344147 39.691622 
L 278.003166 42.665375 
L 277.369927 46.034998 
L 276.525692 49.36036 
L 275.377163 53.034567 
L 273.758558 57.411963 
L 271.805048 62.027278 
L 269.375077 67.182831 
L 266.325946 73.095423 
L 262.738774 79.555506 
L 258.247286 87.167726 
L 252.709545 96.098665 
L 245.384263 107.461725 
L 234.55493 123.803295 
L 221.180312 143.756 
L 221.180312 143.756 
" style="fill:none;stroke:#ff7f0e;stroke-linecap:square;stroke-width:0.5;"/>
   </g>
   <g id="line2d_13">
    <path clip-path="url(#p3c529949c1)" d="M 280.7924 10.7 
L 281.870079 12.493357 
L 282.945197 14.775398 
L 283.748592 17.092431 
L 284.310575 19.434811 
L 284.658211 21.79405 
L 284.826521 24.636878 
L 284.758757 27.481792 
L 284.425318 30.790486 
L 283.861228 34.075588 
L 282.984532 37.787147 
L 281.762107 41.892247 
L 280.179937 46.348857 
L 278.243513 51.106691 
L 275.782248 56.516381 
L 272.817723 62.454577 
L 269.213982 69.138892 
L 264.893342 76.657038 
L 259.703319 85.228952 
L 253.088854 95.700783 
L 244.322667 109.132498 
L 230.084654 130.482768 
L 221.180312 143.756 
L 221.180312 143.756 
" style="fill:none;stroke:#ff7f0e;stroke-linecap:square;stroke-width:0.5;"/>
   </g>
   <g id="line2d_14">
    <path clip-path="url(#p3c529949c1)" d="M 314.89583 10.7 
L 306.525407 21.364034 
L 297.822872 32.816655 
L 288.733424 45.152829 
L 279.049713 58.672719 
L 267.935039 74.587791 
L 254.418341 94.354566 
L 233.674645 125.138122 
L 221.180312 143.756 
L 221.180312 143.756 
" style="fill:none;stroke:#ff7f0e;stroke-linecap:square;stroke-width:0.5;"/>
   </g>
   <g id="line2d_15">
    <path clip-path="url(#p3c529949c1)" d="M 355.359448 10.7 
L 343.593698 18.340654 
L 333.251556 25.323192 
L 324.134384 31.726629 
L 315.132162 38.322376 
L 307.262501 44.353512 
L 299.639785 50.477308 
L 292.39466 56.604125 
L 286.138694 62.178984 
L 280.241632 67.717362 
L 274.355605 73.563382 
L 268.998903 79.199508 
L 263.861559 84.922335 
L 258.79802 90.89438 
L 253.776386 97.158031 
L 248.53175 104.059052 
L 242.760752 112.03616 
L 235.828803 122.023667 
L 224.595991 138.665837 
L 221.180312 143.756 
L 221.180312 143.756 
" style="fill:none;stroke:#ff7f0e;stroke-linecap:square;stroke-width:0.5;"/>
   </g>
   <g id="line2d_16">
    <path clip-path="url(#p3c529949c1)" d="M 399.740313 15.953977 
L 379.294719 25.974194 
L 361.639035 34.860742 
L 344.610649 43.694105 
L 330.118318 51.473066 
L 317.756418 58.353569 
L 306.108514 65.103597 
L 296.286223 71.055887 
L 287.972788 76.334191 
L 280.261307 81.48366 
L 273.242909 86.443133 
L 266.954777 91.172078 
L 261.389768 95.647489 
L 256.50834 99.859874 
L 252.010361 104.040144 
L 247.959236 108.107842 
L 244.058671 112.34984 
L 240.352294 116.720126 
L 236.627657 121.467656 
L 232.633794 126.930677 
L 227.492319 134.373077 
L 221.180312 143.756 
L 221.180313 143.756 
" style="fill:none;stroke:#ff7f0e;stroke-linecap:square;stroke-width:0.5;"/>
   </g>
   <g id="line2d_17">
    <path clip-path="url(#p3c529949c1)" d="M 399.740313 51.914074 
L 365.153565 66.274595 
L 335.732313 78.73668 
L 312.823784 88.677833 
L 293.750222 97.199513 
L 279.111544 103.973161 
L 267.140116 109.748464 
L 257.529174 114.627404 
L 249.935079 118.726861 
L 244.011545 122.165988 
L 239.229625 125.192702 
L 235.471666 127.82601 
L 232.466877 130.191692 
L 229.986118 132.41963 
L 227.843378 134.645129 
L 225.901368 136.987433 
L 223.752601 139.950362 
L 221.180312 143.756 
L 221.180313 143.756 
" style="fill:none;stroke:#ff7f0e;stroke-linecap:square;stroke-width:0.5;"/>
   </g>
   <g id="line2d_18">
    <path clip-path="url(#p3c529949c1)" d="M 399.740313 80.620143 
L 308.810049 113.954414 
L 260.421792 131.478454 
L 236.982188 139.75831 
L 226.422157 143.282132 
L 222.32225 144.448447 
L 221.058027 144.6174 
L 220.818535 144.480257 
L 220.87483 144.240081 
L 221.180313 143.756 
L 221.180312 143.756 
" style="fill:none;stroke:#ff7f0e;stroke-linecap:square;stroke-width:0.5;"/>
   </g>
   <g id="line2d_19">
    <path clip-path="url(#p3c529949c1)" d="M 399.740313 105.21586 
L 360.872593 118.199453 
L 329.874021 128.331308 
L 305.179654 136.190201 
L 283.962791 142.713223 
L 267.46487 147.558539 
L 254.667771 151.100793 
L 244.056818 153.806807 
L 236.060536 155.617148 
L 230.068581 156.754279 
L 225.61117 157.388602 
L 222.326721 157.650498 
L 219.937093 157.639531 
L 218.228433 157.431569 
L 217.036415 157.084267 
L 216.234859 156.641294 
L 215.697806 156.094834 
L 215.396901 155.462981 
L 215.297045 154.721799 
L 215.405106 153.807004 
L 215.790424 152.597216 
L 216.555823 150.990131 
L 217.937042 148.658605 
L 221.025345 143.986952 
L 221.180313 143.756 
L 221.180313 143.756 
" style="fill:none;stroke:#ff7f0e;stroke-linecap:square;stroke-width:0.5;"/>
   </g>
   <g id="line2d_20">
    <path clip-path="url(#p3c529949c1)" d="M 399.740313 127.600077 
L 368.442852 137.285788 
L 341.964995 145.253253 
L 319.586462 151.767798 
L 300.693888 157.055034 
L 284.764986 161.30675 
L 269.836144 165.054232 
L 257.562567 167.892266 
L 247.498166 169.983542 
L 239.270904 171.463315 
L 232.570169 172.444102 
L 227.136966 173.019329 
L 222.755289 173.26654 
L 219.245032 173.250035 
L 216.456063 173.023067 
L 214.26327 172.629686 
L 212.562427 172.106274 
L 211.266743 171.482823 
L 210.303982 170.784007 
L 209.614042 170.030077 
L 209.106931 169.147785 
L 208.800102 168.143992 
L 208.696986 167.030784 
L 208.802958 165.732221 
L 209.158649 164.184691 
L 209.844893 162.267601 
L 210.933195 159.933526 
L 212.567067 156.983665 
L 215.0981 152.907748 
L 220.026533 145.475613 
L 221.180313 143.756 
L 221.180313 143.756 
" style="fill:none;stroke:#ff7f0e;stroke-linecap:square;stroke-width:0.5;"/>
   </g>
   <g id="line2d_21">
    <path clip-path="url(#p3c529949c1)" d="M 399.740313 149.117973 
L 370.222623 157.643068 
L 344.774166 164.73709 
L 322.855798 170.597989 
L 303.999385 175.397358 
L 287.798069 179.284057 
L 273.898276 182.387187 
L 261.993271 184.81849 
L 251.816218 186.674928 
L 243.135311 188.040495 
L 235.749437 188.987835 
L 229.48384 189.579845 
L 224.18683 189.870908 
L 219.72671 189.908032 
L 215.989161 189.731818 
L 212.874976 189.377307 
L 210.298071 188.874717 
L 208.183767 188.25008 
L 206.467305 187.525793 
L 205.092522 186.72111 
L 204.010736 185.852557 
L 203.079344 184.799778 
L 202.421726 183.699882 
L 201.992068 182.567789 
L 201.733071 181.271051 
L 201.670089 179.818261 
L 201.836699 178.079405 
L 202.276179 176.08243 
L 202.997735 173.869734 
L 204.095289 171.239783 
L 205.665164 168.080468 
L 207.846234 164.213124 
L 210.975347 159.148105 
L 216.015584 151.464519 
L 221.180313 143.756 
L 221.180313 143.756 
" style="fill:none;stroke:#ff7f0e;stroke-linecap:square;stroke-width:0.5;"/>
   </g>
   <g id="line2d_22">
    <path clip-path="url(#p3c529949c1)" d="M 399.740313 170.919577 
L 372.547387 178.282131 
L 348.636999 184.503512 
L 327.631089 189.722158 
L 309.195337 194.060283 
L 293.033365 197.626035 
L 278.88247 200.515081 
L 266.509819 202.812024 
L 255.70907 204.591664 
L 246.297366 205.920106 
L 238.112629 206.85578 
L 231.011316 207.450262 
L 224.866295 207.749075 
L 219.564867 207.792416 
L 215.00729 207.615707 
L 211.105175 207.250194 
L 207.780256 206.723399 
L 204.963259 206.059543 
L 202.592855 205.279935 
L 200.614747 204.403307 
L 198.980911 203.4461 
L 197.648876 202.422728 
L 196.581028 201.345838 
L 195.744119 200.22649 
L 195.020618 198.879733 
L 194.530814 197.501496 
L 194.212126 195.902167 
L 194.107567 194.088691 
L 194.24423 192.074957 
L 194.632711 189.881502 
L 195.328946 187.341777 
L 196.350861 184.507629 
L 197.762827 181.270334 
L 199.698361 177.421684 
L 202.230036 172.90393 
L 205.658122 167.264841 
L 210.566105 159.652014 
L 220.037262 145.459524 
L 221.180313 143.756 
L 221.180313 143.756 
" style="fill:none;stroke:#ff7f0e;stroke-linecap:square;stroke-width:0.5;"/>
   </g>
   <g id="line2d_23">
    <path clip-path="url(#p3c529949c1)" d="M 399.740313 194.217485 
L 375.371105 200.408498 
L 353.503971 205.738605 
L 333.895785 210.296628 
L 316.326547 214.162818 
L 300.597986 217.409369 
L 286.531014 220.101376 
L 273.963411 222.297683 
L 262.748512 224.051382 
L 252.753683 225.410374 
L 243.859113 226.41782 
L 235.956475 227.112639 
L 228.947687 227.529968 
L 222.74419 227.701432 
L 217.265957 227.655509 
L 212.440629 227.417855 
L 208.202831 227.011555 
L 204.493478 226.457382 
L 201.25919 225.774013 
L 198.451755 224.978232 
L 196.027624 224.085114 
L 193.947437 223.108199 
L 192.175648 222.059637 
L 190.680189 220.950308 
L 189.432115 219.789954 
L 188.224362 218.34239 
L 187.294977 216.847191 
L 186.60829 215.315992 
L 186.132794 213.758923 
L 185.80803 211.921327 
L 185.694345 210.072453 
L 185.78028 207.958548 
L 186.101797 205.594049 
L 186.679379 203.000386 
L 187.602237 199.955004 
L 188.89951 196.518055 
L 190.561396 192.767024 
L 192.766254 188.367137 
L 195.545786 183.333541 
L 199.139125 177.300516 
L 204.008189 169.589166 
L 211.221859 158.623518 
L 221.180313 143.756 
L 221.180313 143.756 
" style="fill:none;stroke:#ff7f0e;stroke-linecap:square;stroke-width:0.5;"/>
   </g>
   <g id="line2d_24">
    <path clip-path="url(#p3c529949c1)" d="M 399.740313 220.575917 
L 378.690578 225.580164 
L 359.404605 229.983468 
L 337.567607 234.719016 
L 318.022804 238.684494 
L 300.546943 241.96101 
L 284.938086 244.62178 
L 271.01341 246.73295 
L 258.607888 248.35408 
L 247.572154 249.538947 
L 237.771132 250.336048 
L 229.082781 250.789069 
L 221.396788 250.93737 
L 214.613422 250.816412 
L 208.64255 250.458121 
L 203.402733 249.891227 
L 198.820361 249.141578 
L 194.828935 248.232417 
L 191.368449 247.184603 
L 188.384665 246.016883 
L 185.828578 244.74609 
L 183.655921 243.387328 
L 181.826726 241.954133 
L 180.30492 240.458624 
L 179.057955 238.911637 
L 178.056463 237.322859 
L 177.273969 235.700925 
L 176.590588 233.721628 
L 176.151419 231.717364 
L 175.923906 229.698312 
L 175.887858 227.335742 
L 176.100889 224.640844 
L 176.536655 221.965516 
L 177.23998 218.993965 
L 178.226895 215.755299 
L 179.620069 211.975294 
L 181.437358 207.733013 
L 183.65641 203.125902 
L 186.504026 197.745579 
L 190.008104 191.614191 
L 194.458825 184.289722 
L 200.311421 175.108417 
L 208.914039 162.065676 
L 221.180313 143.756 
L 221.180312 143.756 
" style="fill:none;stroke:#ff7f0e;stroke-linecap:square;stroke-width:0.5;"/>
   </g>
   <g id="line2d_25">
    <path clip-path="url(#p3c529949c1)" d="M 399.740313 252.392861 
L 393.883324 253.701434 
L 388.153322 254.967038 
L 382.548275 256.190422 
L 377.065642 257.37251 
L 371.703109 258.514145 
L 366.458266 259.616203 
L 361.328656 260.679577 
L 356.311887 261.705139 
L 351.405647 262.693726 
L 346.607695 263.646155 
L 341.91582 264.563226 
L 337.327882 265.445717 
L 332.841734 266.294408 
L 328.455335 267.110037 
L 324.166609 267.893359 
L 319.9736 268.64508 
L 315.87434 269.365915 
L 311.86693 270.056551 
L 307.949504 270.717663 
L 304.120223 271.349916 
L 300.377299 271.953956 
L 296.718965 272.530422 
L 293.143499 273.079937 
L 289.649205 273.603112 
L 286.234425 274.100545 
L 282.897532 274.572823 
L 279.636932 275.020522 
L 276.451062 275.444203 
L 273.338389 275.844421 
L 270.297416 276.221711 
L 267.326675 276.576604 
L 264.424716 276.909621 
" style="fill:none;stroke:#ff7f0e;stroke-linecap:square;stroke-width:0.5;"/>
   </g>
   <g id="line2d_26">
    <path clip-path="url(#p3c529949c1)" d="M 379.370669 276.812 
L 373.693952 277.969468 
" style="fill:none;stroke:#ff7f0e;stroke-linecap:square;stroke-width:0.5;"/>
   </g>
   <g id="line2d_27">
    <path clip-path="url(#p3c529949c1)" d="M 334.094815 276.812 
L 329.538115 277.636304 
" style="fill:none;stroke:#ff7f0e;stroke-linecap:square;stroke-width:0.5;"/>
   </g>
   <g id="line2d_28">
    <path clip-path="url(#p3c529949c1)" d="M 297.257619 276.812 
L 293.612172 277.365239 
" style="fill:none;stroke:#ff7f0e;stroke-linecap:square;stroke-width:0.5;"/>
   </g>
   <g id="line2d_29">
    <path clip-path="url(#p3c529949c1)" d="M 265.1914 276.812 
L 262.339227 277.129266 
" style="fill:none;stroke:#ff7f0e;stroke-linecap:square;stroke-width:0.5;"/>
   </g>
   <g id="line2d_30">
    <path clip-path="url(#p3c529949c1)" d="M 235.595166 276.812 
L 233.475126 276.911482 
" style="fill:none;stroke:#ff7f0e;stroke-linecap:square;stroke-width:0.5;"/>
   </g>
   <g id="line2d_31">
    <path clip-path="url(#p3c529949c1)" d="M 206.765459 276.812 
L 201.352852 276.300295 
L 196.485601 275.635464 
L 192.119127 274.833127 
L 188.212439 273.907585 
L 184.727676 272.871989 
L 181.630015 271.738383 
L 178.887348 270.517813 
L 176.470057 269.220416 
L 174.350865 267.855478 
L 172.504625 266.431506 
L 170.908158 264.95629 
L 169.540069 263.436974 
L 168.121523 261.485604 
L 166.994424 259.486875 
L 166.127084 257.451083 
L 165.490976 255.38738 
L 165.060444 253.303888 
L 164.782783 250.78767 
L 164.732288 248.264236 
L 164.918692 245.323636 
L 165.327969 242.39875 
L 166.02063 239.088792 
L 167.029998 235.422153 
L 168.37125 231.435782 
L 170.041099 227.174396 
L 172.189396 222.323335 
L 174.800352 216.992445 
L 177.996044 210.985711 
L 181.847589 204.223649 
L 186.651863 196.249931 
L 192.705187 186.649183 
L 200.927335 174.051949 
L 214.895643 153.123209 
L 221.180313 143.756 
L 221.180313 143.756 
" style="fill:none;stroke:#ff7f0e;stroke-linecap:square;stroke-width:0.5;"/>
   </g>
   <g id="line2d_32">
    <path clip-path="url(#p3c529949c1)" d="M 177.169225 276.812 
L 174.595198 275.46105 
L 172.337041 274.038143 
L 170.368282 272.552252 
L 168.664232 271.011682 
L 167.202292 269.423984 
L 165.961689 267.796045 
L 164.693019 265.714126 
L 163.706082 263.590313 
L 162.970146 261.434497 
L 162.457461 259.255499 
L 162.142988 257.061167 
L 161.995631 254.41748 
L 162.066553 251.772222 
L 162.384586 248.696084 
L 162.915835 245.642234 
L 163.73725 242.192365 
L 164.879381 238.377131 
L 166.35509 234.235626 
L 168.159186 229.814589 
L 170.450317 224.788283 
L 173.208126 219.271388 
L 176.55909 213.061715 
L 180.753654 205.775993 
L 185.890573 197.32123 
L 192.38427 187.082798 
L 201.218275 173.597691 
L 217.051844 149.908917 
L 221.180313 143.756 
L 221.180313 143.756 
" style="fill:none;stroke:#ff7f0e;stroke-linecap:square;stroke-width:0.5;"/>
   </g>
   <g id="line2d_33">
    <path clip-path="url(#p3c529949c1)" d="M 145.103006 276.812 
L 146.025146 272.866963 
L 147.309295 268.42394 
L 148.985504 263.524794 
L 151.06329 258.221311 
L 153.531605 252.574105 
L 156.360641 246.650786 
L 159.748556 240.064917 
L 163.874712 232.54471 
L 168.849792 223.969197 
L 174.664837 214.401079 
L 181.915047 202.917332 
L 191.256979 188.5613 
L 205.15849 167.650558 
L 221.180313 143.756 
L 221.180313 143.756 
" style="fill:none;stroke:#ff7f0e;stroke-linecap:square;stroke-width:0.5;"/>
   </g>
   <g id="line2d_34">
    <path clip-path="url(#p3c529949c1)" d="M 108.26581 276.812 
L 117.03916 269.539593 
L 124.799165 262.820914 
L 132.412538 255.928797 
L 139.754163 248.960449 
L 146.73698 241.998897 
L 153.30858 235.113275 
L 159.444723 228.360354 
L 165.495571 221.369671 
L 171.626554 213.931729 
L 177.616388 206.313307 
L 183.93908 197.905452 
L 190.818021 188.373425 
L 198.821924 176.882943 
L 209.986024 160.426526 
L 221.180313 143.756 
L 221.180313 143.756 
" style="fill:none;stroke:#ff7f0e;stroke-linecap:square;stroke-width:0.5;"/>
   </g>
   <g id="line2d_35">
    <path clip-path="url(#p3c529949c1)" d="M 62.989956 276.812 
L 79.175473 267.875409 
L 93.249835 259.839346 
L 105.514734 252.586938 
L 116.227012 246.018198 
L 126.694261 239.339165 
L 135.737473 233.312989 
L 144.383399 227.276518 
L 151.795472 221.837053 
L 158.770437 216.443257 
L 165.225707 211.159304 
L 171.121586 206.032746 
L 176.453567 201.096777 
L 181.533974 196.076561 
L 186.2552 191.085717 
L 190.763652 185.985362 
L 195.103305 180.738034 
L 199.505651 175.066321 
L 204.310484 168.502171 
L 210.0944 160.199322 
L 220.103132 145.361341 
L 221.180313 143.756 
L 221.180313 143.756 
" style="fill:none;stroke:#ff7f0e;stroke-linecap:square;stroke-width:0.5;"/>
   </g>
   <g id="line2d_36">
    <path clip-path="url(#p3c529949c1)" d="M 42.620313 252.392861 
L 67.486866 241.27517 
L 90.574349 230.709915 
L 109.709942 221.712809 
L 125.598251 214.016659 
L 140.011385 206.792388 
L 151.816712 200.638963 
L 162.308914 194.922176 
L 170.813287 190.051282 
L 178.255784 185.54585 
L 184.6625 181.414795 
L 190.104723 177.649144 
L 194.934117 174.031409 
L 198.903365 170.788427 
L 202.466151 167.593835 
L 205.665606 164.420055 
L 208.593566 161.192098 
L 211.369212 157.795344 
L 214.325973 153.812459 
L 218.306614 148.033436 
L 221.180313 143.756 
L 221.180313 143.756 
" style="fill:none;stroke:#ff7f0e;stroke-linecap:square;stroke-width:0.5;"/>
   </g>
   <g id="line2d_37">
    <path clip-path="url(#p3c529949c1)" d="M 42.620313 220.575917 
L 96.993553 199.384775 
L 135.971868 183.971564 
L 163.351309 172.926408 
L 182.899713 164.814779 
L 196.283952 159.029499 
L 205.110697 154.983424 
L 210.898867 152.096946 
L 214.6115 150.008576 
L 216.971181 148.439645 
L 218.528632 147.146102 
L 219.647452 145.929284 
L 220.842086 144.259722 
L 221.180313 143.756 
L 221.180313 143.756 
" style="fill:none;stroke:#ff7f0e;stroke-linecap:square;stroke-width:0.5;"/>
   </g>
   <g id="line2d_38">
    <path clip-path="url(#p3c529949c1)" d="M 42.620313 194.217485 
L 91.586991 177.134358 
L 127.667949 164.768319 
L 155.713382 155.382325 
L 175.891102 148.845947 
L 191.124386 144.130566 
L 202.305108 140.896427 
L 209.925395 138.908658 
L 215.307522 137.722715 
L 218.822847 137.158051 
L 221.168681 136.995502 
L 222.591874 137.109007 
L 223.410802 137.386387 
L 223.837536 137.75446 
L 224.020619 138.208275 
L 224.000254 138.802376 
L 223.729001 139.626866 
L 223.052486 140.894943 
L 221.342405 143.514427 
L 221.180312 143.756 
L 221.180313 143.756 
" style="fill:none;stroke:#ff7f0e;stroke-linecap:square;stroke-width:0.5;"/>
   </g>
   <g id="line2d_39">
    <path clip-path="url(#p3c529949c1)" d="M 42.620313 170.919577 
L 76.286319 160.108408 
L 104.219185 151.357078 
L 127.371987 144.313843 
L 148.453598 138.136625 
L 165.514936 133.375476 
L 179.294403 129.759271 
L 190.396122 127.066722 
L 199.31422 125.117336 
L 206.453063 123.763887 
L 212.142981 122.886569 
L 217.049353 122.355566 
L 220.819771 122.178388 
L 223.687492 122.271842 
L 225.839235 122.569876 
L 227.424403 123.020153 
L 228.562463 123.581311 
L 229.348881 124.220763 
L 229.859898 124.912924 
L 230.174389 125.704761 
L 230.30061 126.651559 
L 230.21833 127.736013 
L 229.893359 129.061144 
L 229.238077 130.751059 
L 228.135335 132.934064 
L 226.365035 135.907078 
L 223.068491 140.940021 
L 221.180312 143.756 
L 221.180313 143.756 
" style="fill:none;stroke:#ff7f0e;stroke-linecap:square;stroke-width:0.5;"/>
   </g>
   <g id="line2d_40">
    <path clip-path="url(#p3c529949c1)" d="M 42.620313 149.117973 
L 71.214626 140.568066 
L 95.89213 133.405127 
L 117.170873 127.43863 
L 135.500813 122.503334 
L 151.273029 118.45585 
L 166.600166 114.758571 
L 179.465383 111.899612 
L 190.240353 109.743591 
L 199.241496 108.17559 
L 206.738235 107.098084 
L 212.959786 106.428418 
L 218.101211 106.096552 
L 222.328522 106.043169 
L 225.782878 106.21811 
L 228.584396 106.578961 
L 230.835167 107.089933 
L 232.621974 107.720851 
L 234.018553 108.446319 
L 235.087562 109.244984 
L 235.882195 110.098944 
L 236.504032 111.107225 
L 236.889473 112.149021 
L 237.094803 113.328558 
L 237.099283 114.753542 
L 236.857018 116.403572 
L 236.354682 118.244622 
L 235.518405 120.445913 
L 234.263139 123.103981 
L 232.419085 126.455811 
L 229.722821 130.858995 
L 225.237669 137.701287 
L 221.180312 143.756 
L 221.180312 143.756 
" style="fill:none;stroke:#ff7f0e;stroke-linecap:square;stroke-width:0.5;"/>
   </g>
   <g id="line2d_41">
    <path clip-path="url(#p3c529949c1)" d="M 42.620313 127.600077 
L 68.990507 120.218731 
L 92.195971 113.944281 
L 112.600069 108.643479 
L 130.525205 104.198275 
L 146.256482 100.504455 
L 160.046928 97.469696 
L 172.120735 95.012362 
L 182.676715 93.060216 
L 191.89102 91.549411 
L 199.919717 90.423528 
L 207.971657 89.530329 
L 214.790305 89.024168 
L 220.542993 88.845193 
L 225.374992 88.941685 
L 229.412396 89.268988 
L 232.764619 89.78858 
L 235.526604 90.467255 
L 237.780718 91.276416 
L 239.598367 92.191478 
L 241.041442 93.191334 
L 242.163597 94.257876 
L 243.011317 95.375603 
L 243.624846 96.531279 
L 244.08373 97.884121 
L 244.343777 99.430221 
L 244.38353 100.986103 
L 244.196638 102.88192 
L 243.76847 104.922374 
L 243.058255 107.243412 
L 241.998194 109.949466 
L 240.456184 113.237531 
L 238.415725 117.046508 
L 235.563627 121.869563 
L 231.500751 128.264077 
L 224.381231 138.984606 
L 221.180312 143.756 
L 221.180312 143.756 
" style="fill:none;stroke:#ff7f0e;stroke-linecap:square;stroke-width:0.5;"/>
   </g>
   <g id="line2d_42">
    <path clip-path="url(#p3c529949c1)" d="M 42.620313 105.21586 
L 66.237354 99.010747 
L 87.442844 93.640084 
L 106.470862 89.018236 
L 123.532474 85.068107 
L 138.818907 81.719955 
L 152.502716 78.910954 
L 167.026522 76.172364 
L 179.708334 74.041075 
L 190.76223 72.43966 
L 200.377984 71.299679 
L 208.723897 70.560625 
L 215.94895 70.169123 
L 222.185055 70.078096 
L 227.549168 70.245979 
L 232.144815 70.636149 
L 236.063673 71.216342 
L 239.386928 71.958146 
L 242.186438 72.836569 
L 244.525788 73.829651 
L 246.461243 74.918107 
L 248.042605 76.08501 
L 249.31393 77.315527 
L 250.314161 78.596682 
L 251.077708 79.917143 
L 251.709739 81.494244 
L 252.103119 83.097918 
L 252.307127 84.948591 
L 252.293699 86.804731 
L 252.067606 88.88488 
L 251.553144 91.39713 
L 250.768901 94.079455 
L 249.650187 97.109407 
L 248.110276 100.619906 
L 246.079344 104.676101 
L 243.448411 109.41998 
L 239.964554 115.223871 
L 235.171098 122.749635 
L 227.429446 134.436789 
L 221.180312 143.756 
L 221.180312 143.756 
" style="fill:none;stroke:#ff7f0e;stroke-linecap:square;stroke-width:0.5;"/>
   </g>
   <g id="line2d_43">
    <path clip-path="url(#p3c529949c1)" d="M 42.620313 80.620143 
L 67.788619 74.444332 
L 90.359086 69.157382 
L 110.584391 64.667101 
L 128.693267 60.890173 
L 144.89184 57.751656 
L 159.366241 55.18401 
L 172.285087 53.126179 
L 183.800822 51.523087 
L 194.051284 50.325058 
L 203.161027 49.487323 
L 211.242635 48.969535 
L 218.397949 48.735307 
L 224.719044 48.751854 
L 230.289075 48.989675 
L 235.183213 49.422211 
L 239.46938 50.025565 
L 243.208936 50.778249 
L 246.457315 51.660953 
L 249.264583 52.656329 
L 251.675988 53.748797 
L 253.732405 54.92437 
L 255.470727 56.170517 
L 256.924231 57.476024 
L 258.122953 58.830853 
L 259.094013 60.226027 
L 259.993067 61.942257 
L 260.637184 63.69285 
L 261.059715 65.46717 
L 261.311702 67.554952 
L 261.342908 69.649954 
L 261.153295 72.039601 
L 260.706021 74.706612 
L 259.980726 77.626201 
L 258.97397 80.766599 
L 257.5854 84.361871 
L 255.814269 88.333298 
L 253.443529 93.06994 
L 250.544413 98.350467 
L 246.796434 104.695547 
L 241.945225 112.450086 
L 235.11199 122.923548 
L 221.656778 143.045912 
L 221.180312 143.756 
L 221.180312 143.756 
" style="fill:none;stroke:#ff7f0e;stroke-linecap:square;stroke-width:0.5;"/>
   </g>
   <g id="line2d_44">
    <path clip-path="url(#p3c529949c1)" d="M 42.620313 51.914074 
L 64.437239 46.921443 
L 84.416208 42.551507 
L 102.701556 38.751713 
L 119.427253 35.473353 
L 134.716468 32.67172 
L 148.682307 30.30583 
L 161.429488 28.337801 
L 173.054615 26.732754 
L 183.646746 25.458599 
L 193.288033 24.485795 
L 202.054289 23.787143 
L 210.015444 23.337618 
L 217.235989 23.114196 
L 223.775393 23.095708 
L 229.688538 23.262673 
L 235.026022 23.597187 
L 239.834501 24.082797 
L 244.157001 24.704382 
L 248.033176 25.448062 
L 251.499595 26.301086 
L 254.58998 27.251748 
L 257.335415 28.289308 
L 259.764546 29.403917 
L 261.903756 30.586553 
L 263.777381 31.828941 
L 265.779933 33.454465 
L 267.442396 35.148144 
L 268.80083 36.897988 
L 269.887764 38.693288 
L 270.732541 40.524486 
L 271.361626 42.383063 
L 271.865247 44.638879 
L 272.129328 46.911728 
L 272.186359 49.191639 
L 272.029231 51.849053 
L 271.602822 54.868791 
L 270.961377 57.856471 
L 270.035632 61.165046 
L 268.680905 65.115527 
L 267.004099 69.289298 
L 264.881712 73.960223 
L 262.183721 79.326134 
L 258.978625 85.197797 
L 254.935705 92.125851 
L 249.787893 100.477107 
L 243.049034 110.954274 
L 232.97103 126.16674 
L 221.180312 143.756 
L 221.180312 143.756 
" style="fill:none;stroke:#ff7f0e;stroke-linecap:square;stroke-width:0.5;"/>
   </g>
   <g id="line2d_45">
    <path clip-path="url(#p3c529949c1)" d="M 42.620313 15.953977 
L 48.731297 14.646356 
L 54.709021 13.383565 
L 60.555628 12.164817 
L 66.273785 10.989141 
L 71.86592 9.855656 
" style="fill:none;stroke:#ff7f0e;stroke-linecap:square;stroke-width:0.5;"/>
   </g>
   <g id="line2d_46">
    <path clip-path="url(#p3c529949c1)" d="M 87.001177 10.7 
L 92.083911 9.71922 
" style="fill:none;stroke:#ff7f0e;stroke-linecap:square;stroke-width:0.5;"/>
   </g>
   <g id="line2d_47">
    <path clip-path="url(#p3c529949c1)" d="M 127.464795 10.7 
L 131.546562 10.016972 
" style="fill:none;stroke:#ff7f0e;stroke-linecap:square;stroke-width:0.5;"/>
   </g>
   <g id="line2d_48">
    <path clip-path="url(#p3c529949c1)" d="M 161.568225 10.7 
L 164.806375 10.267917 
" style="fill:none;stroke:#ff7f0e;stroke-linecap:square;stroke-width:0.5;"/>
   </g>
   <g id="line2d_49">
    <path clip-path="url(#p3c529949c1)" d="M 192.161488 10.7 
L 194.64279 10.493055 
" style="fill:none;stroke:#ff7f0e;stroke-linecap:square;stroke-width:0.5;"/>
   </g>
   <g id="line2d_50">
    <path clip-path="url(#p3c529949c1)" d="M 221.180312 10.7 
L 227.975381 10.802974 
L 234.113483 11.098551 
L 239.647793 11.567953 
L 244.627356 12.193917 
L 249.097326 12.960614 
L 253.099385 13.853486 
L 256.67197 14.859166 
L 259.850501 15.965392 
L 262.667749 17.16087 
L 265.153791 18.435293 
L 267.336305 19.779229 
L 269.240834 21.184022 
L 270.890951 22.641738 
L 272.30837 24.145113 
L 273.513078 25.687515 
L 274.747736 27.661215 
L 275.711474 29.675766 
L 276.433827 31.721648 
L 276.941464 33.790371 
L 277.300863 36.292432 
L 277.422626 38.805127 
L 277.339479 41.318565 
L 277.021746 44.240573 
L 276.415916 47.552556 
L 275.485058 51.22701 
L 274.211329 55.227499 
L 272.596349 59.509435 
L 270.659707 64.021533 
L 268.26168 69.05921 
L 265.263055 74.833885 
L 261.570903 81.442246 
L 257.021743 89.105993 
L 251.359297 98.190459 
L 243.879938 109.745165 
L 232.354753 127.092099 
L 221.180312 143.756 
L 221.180312 143.756 
" style="fill:none;stroke:#ff7f0e;stroke-linecap:square;stroke-width:0.5;"/>
   </g>
   <g id="line2d_51">
    <path clip-path="url(#p3c529949c1)" d="M 221.180313 143.756 
" style="fill:none;stroke:#ff7f0e;stroke-linecap:square;stroke-width:1.5;"/>
   </g>
   <g id="line2d_52">
    <defs>
     <path d="M 0 3 
C 0.795609 3 1.55874 2.683901 2.12132 2.12132 
C 2.683901 1.55874 3 0.795609 3 0 
C 3 -0.795609 2.683901 -1.55874 2.12132 -2.12132 
C 1.55874 -2.683901 0.795609 -3 0 -3 
C -0.795609 -3 -1.55874 -2.683901 -2.12132 -2.12132 
C -2.683901 -1.55874 -3 -0.795609 -3 0 
C -3 0.795609 -2.683901 1.55874 -2.12132 2.12132 
C -1.55874 2.683901 -0.795609 3 0 3 
z
" id="m22fc1e86e5" style="stroke:#ff0000;"/>
    </defs>
    <g clip-path="url(#p3c529949c1)">
     <use style="fill:#ff0000;stroke:#ff0000;" x="221.180313" xlink:href="#m22fc1e86e5" y="143.756"/>
    </g>
   </g>
   <g id="patch_74">
    <path d="M 42.620313 276.812 
L 42.620313 10.7 
" style="fill:none;stroke:#000000;stroke-linecap:square;stroke-linejoin:miter;stroke-width:0.8;"/>
   </g>
   <g id="patch_75">
    <path d="M 399.740313 276.812 
L 399.740313 10.7 
" style="fill:none;stroke:#000000;stroke-linecap:square;stroke-linejoin:miter;stroke-width:0.8;"/>
   </g>
   <g id="patch_76">
    <path d="M 42.620313 276.812 
L 399.740313 276.812 
" style="fill:none;stroke:#000000;stroke-linecap:square;stroke-linejoin:miter;stroke-width:0.8;"/>
   </g>
   <g id="patch_77">
    <path d="M 42.620313 10.7 
L 399.740313 10.7 
" style="fill:none;stroke:#000000;stroke-linecap:square;stroke-linejoin:miter;stroke-width:0.8;"/>
   </g>
   <g id="legend_1">
    <g id="patch_78">
     <path d="M 249.800312 273.812 
L 395.540313 273.812 
Q 396.740313 273.812 396.740313 272.612 
L 396.740313 255.35825 
Q 396.740313 254.15825 395.540313 254.15825 
L 249.800312 254.15825 
Q 248.600313 254.15825 248.600313 255.35825 
L 248.600313 272.612 
Q 248.600313 273.812 249.800312 273.812 
z
" style="fill:#ffffff;opacity:0.8;stroke:#cccccc;stroke-linejoin:miter;"/>
    </g>
    <g id="line2d_53">
     <path d="M 251.000313 259.017312 
L 263.000313 259.017312 
" style="fill:none;stroke:#ff7f0e;stroke-linecap:square;stroke-width:1.5;"/>
    </g>
    <g id="line2d_54"/>
    <g id="text_13">
     <!-- system zlinearyzowany -->
     <defs>
      <path d="M 44.28125 53.078125 
L 44.28125 44.578125 
Q 40.484375 46.53125 36.375 47.5 
Q 32.28125 48.484375 27.875 48.484375 
Q 21.1875 48.484375 17.84375 46.4375 
Q 14.5 44.390625 14.5 40.28125 
Q 14.5 37.15625 16.890625 35.375 
Q 19.28125 33.59375 26.515625 31.984375 
L 29.59375 31.296875 
Q 39.15625 29.25 43.1875 25.515625 
Q 47.21875 21.78125 47.21875 15.09375 
Q 47.21875 7.46875 41.1875 3.015625 
Q 35.15625 -1.421875 24.609375 -1.421875 
Q 20.21875 -1.421875 15.453125 -0.5625 
Q 10.6875 0.296875 5.421875 2 
L 5.421875 11.28125 
Q 10.40625 8.6875 15.234375 7.390625 
Q 20.0625 6.109375 24.8125 6.109375 
Q 31.15625 6.109375 34.5625 8.28125 
Q 37.984375 10.453125 37.984375 14.40625 
Q 37.984375 18.0625 35.515625 20.015625 
Q 33.0625 21.96875 24.703125 23.78125 
L 21.578125 24.515625 
Q 13.234375 26.265625 9.515625 29.90625 
Q 5.8125 33.546875 5.8125 39.890625 
Q 5.8125 47.609375 11.28125 51.796875 
Q 16.75 56 26.8125 56 
Q 31.78125 56 36.171875 55.265625 
Q 40.578125 54.546875 44.28125 53.078125 
" id="DejaVuSans-73"/>
      <path d="M 32.171875 -5.078125 
Q 28.375 -14.84375 24.75 -17.8125 
Q 21.140625 -20.796875 15.09375 -20.796875 
L 7.90625 -20.796875 
L 7.90625 -13.28125 
L 13.1875 -13.28125 
Q 16.890625 -13.28125 18.9375 -11.515625 
Q 21 -9.765625 23.484375 -3.21875 
L 25.09375 0.875 
L 2.984375 54.6875 
L 12.5 54.6875 
L 29.59375 11.921875 
L 46.6875 54.6875 
L 56.203125 54.6875 
z
" id="DejaVuSans-79"/>
      <path d="M 18.3125 70.21875 
L 18.3125 54.6875 
L 36.8125 54.6875 
L 36.8125 47.703125 
L 18.3125 47.703125 
L 18.3125 18.015625 
Q 18.3125 11.328125 20.140625 9.421875 
Q 21.96875 7.515625 27.59375 7.515625 
L 36.8125 7.515625 
L 36.8125 0 
L 27.59375 0 
Q 17.1875 0 13.234375 3.875 
Q 9.28125 7.765625 9.28125 18.015625 
L 9.28125 47.703125 
L 2.6875 47.703125 
L 2.6875 54.6875 
L 9.28125 54.6875 
L 9.28125 70.21875 
z
" id="DejaVuSans-74"/>
      <path d="M 56.203125 29.59375 
L 56.203125 25.203125 
L 14.890625 25.203125 
Q 15.484375 15.921875 20.484375 11.0625 
Q 25.484375 6.203125 34.421875 6.203125 
Q 39.59375 6.203125 44.453125 7.46875 
Q 49.3125 8.734375 54.109375 11.28125 
L 54.109375 2.78125 
Q 49.265625 0.734375 44.1875 -0.34375 
Q 39.109375 -1.421875 33.890625 -1.421875 
Q 20.796875 -1.421875 13.15625 6.1875 
Q 5.515625 13.8125 5.515625 26.8125 
Q 5.515625 40.234375 12.765625 48.109375 
Q 20.015625 56 32.328125 56 
Q 43.359375 56 49.78125 48.890625 
Q 56.203125 41.796875 56.203125 29.59375 
M 47.21875 32.234375 
Q 47.125 39.59375 43.09375 43.984375 
Q 39.0625 48.390625 32.421875 48.390625 
Q 24.90625 48.390625 20.390625 44.140625 
Q 15.875 39.890625 15.1875 32.171875 
z
" id="DejaVuSans-65"/>
      <path d="M 52 44.1875 
Q 55.375 50.25 60.0625 53.125 
Q 64.75 56 71.09375 56 
Q 79.640625 56 84.28125 50.015625 
Q 88.921875 44.046875 88.921875 33.015625 
L 88.921875 0 
L 79.890625 0 
L 79.890625 32.71875 
Q 79.890625 40.578125 77.09375 44.375 
Q 74.3125 48.1875 68.609375 48.1875 
Q 61.625 48.1875 57.5625 43.546875 
Q 53.515625 38.921875 53.515625 30.90625 
L 53.515625 0 
L 44.484375 0 
L 44.484375 32.71875 
Q 44.484375 40.625 41.703125 44.40625 
Q 38.921875 48.1875 33.109375 48.1875 
Q 26.21875 48.1875 22.15625 43.53125 
Q 18.109375 38.875 18.109375 30.90625 
L 18.109375 0 
L 9.078125 0 
L 9.078125 54.6875 
L 18.109375 54.6875 
L 18.109375 46.1875 
Q 21.1875 51.21875 25.484375 53.609375 
Q 29.78125 56 35.6875 56 
Q 41.65625 56 45.828125 52.96875 
Q 50 49.953125 52 44.1875 
" id="DejaVuSans-6d"/>
      <path id="DejaVuSans-20"/>
      <path d="M 5.515625 54.6875 
L 48.1875 54.6875 
L 48.1875 46.484375 
L 14.40625 7.171875 
L 48.1875 7.171875 
L 48.1875 0 
L 4.296875 0 
L 4.296875 8.203125 
L 38.09375 47.515625 
L 5.515625 47.515625 
z
" id="DejaVuSans-7a"/>
      <path d="M 9.421875 75.984375 
L 18.40625 75.984375 
L 18.40625 0 
L 9.421875 0 
z
" id="DejaVuSans-6c"/>
      <path d="M 9.421875 54.6875 
L 18.40625 54.6875 
L 18.40625 0 
L 9.421875 0 
z
M 9.421875 75.984375 
L 18.40625 75.984375 
L 18.40625 64.59375 
L 9.421875 64.59375 
z
" id="DejaVuSans-69"/>
      <path d="M 54.890625 33.015625 
L 54.890625 0 
L 45.90625 0 
L 45.90625 32.71875 
Q 45.90625 40.484375 42.875 44.328125 
Q 39.84375 48.1875 33.796875 48.1875 
Q 26.515625 48.1875 22.3125 43.546875 
Q 18.109375 38.921875 18.109375 30.90625 
L 18.109375 0 
L 9.078125 0 
L 9.078125 54.6875 
L 18.109375 54.6875 
L 18.109375 46.1875 
Q 21.34375 51.125 25.703125 53.5625 
Q 30.078125 56 35.796875 56 
Q 45.21875 56 50.046875 50.171875 
Q 54.890625 44.34375 54.890625 33.015625 
" id="DejaVuSans-6e"/>
      <path d="M 34.28125 27.484375 
Q 23.390625 27.484375 19.1875 25 
Q 14.984375 22.515625 14.984375 16.5 
Q 14.984375 11.71875 18.140625 8.90625 
Q 21.296875 6.109375 26.703125 6.109375 
Q 34.1875 6.109375 38.703125 11.40625 
Q 43.21875 16.703125 43.21875 25.484375 
L 43.21875 27.484375 
z
M 52.203125 31.203125 
L 52.203125 0 
L 43.21875 0 
L 43.21875 8.296875 
Q 40.140625 3.328125 35.546875 0.953125 
Q 30.953125 -1.421875 24.3125 -1.421875 
Q 15.921875 -1.421875 10.953125 3.296875 
Q 6 8.015625 6 15.921875 
Q 6 25.140625 12.171875 29.828125 
Q 18.359375 34.515625 30.609375 34.515625 
L 43.21875 34.515625 
L 43.21875 35.40625 
Q 43.21875 41.609375 39.140625 45 
Q 35.0625 48.390625 27.6875 48.390625 
Q 23 48.390625 18.546875 47.265625 
Q 14.109375 46.140625 10.015625 43.890625 
L 10.015625 52.203125 
Q 14.9375 54.109375 19.578125 55.046875 
Q 24.21875 56 28.609375 56 
Q 40.484375 56 46.34375 49.84375 
Q 52.203125 43.703125 52.203125 31.203125 
" id="DejaVuSans-61"/>
      <path d="M 41.109375 46.296875 
Q 39.59375 47.171875 37.8125 47.578125 
Q 36.03125 48 33.890625 48 
Q 26.265625 48 22.1875 43.046875 
Q 18.109375 38.09375 18.109375 28.8125 
L 18.109375 0 
L 9.078125 0 
L 9.078125 54.6875 
L 18.109375 54.6875 
L 18.109375 46.1875 
Q 20.953125 51.171875 25.484375 53.578125 
Q 30.03125 56 36.53125 56 
Q 37.453125 56 38.578125 55.875 
Q 39.703125 55.765625 41.0625 55.515625 
z
" id="DejaVuSans-72"/>
      <path d="M 30.609375 48.390625 
Q 23.390625 48.390625 19.1875 42.75 
Q 14.984375 37.109375 14.984375 27.296875 
Q 14.984375 17.484375 19.15625 11.84375 
Q 23.34375 6.203125 30.609375 6.203125 
Q 37.796875 6.203125 41.984375 11.859375 
Q 46.1875 17.53125 46.1875 27.296875 
Q 46.1875 37.015625 41.984375 42.703125 
Q 37.796875 48.390625 30.609375 48.390625 
M 30.609375 56 
Q 42.328125 56 49.015625 48.375 
Q 55.71875 40.765625 55.71875 27.296875 
Q 55.71875 13.875 49.015625 6.21875 
Q 42.328125 -1.421875 30.609375 -1.421875 
Q 18.84375 -1.421875 12.171875 6.21875 
Q 5.515625 13.875 5.515625 27.296875 
Q 5.515625 40.765625 12.171875 48.375 
Q 18.84375 56 30.609375 56 
" id="DejaVuSans-6f"/>
      <path d="M 4.203125 54.6875 
L 13.1875 54.6875 
L 24.421875 12.015625 
L 35.59375 54.6875 
L 46.1875 54.6875 
L 57.421875 12.015625 
L 68.609375 54.6875 
L 77.59375 54.6875 
L 63.28125 0 
L 52.6875 0 
L 40.921875 44.828125 
L 29.109375 0 
L 18.5 0 
z
" id="DejaVuSans-77"/>
     </defs>
     <g transform="translate(267.800313 261.117312)scale(0.06 -0.06)">
      <use xlink:href="#DejaVuSans-73"/>
      <use x="52.099609" xlink:href="#DejaVuSans-79"/>
      <use x="111.279297" xlink:href="#DejaVuSans-73"/>
      <use x="163.378906" xlink:href="#DejaVuSans-74"/>
      <use x="202.587891" xlink:href="#DejaVuSans-65"/>
      <use x="264.111328" xlink:href="#DejaVuSans-6d"/>
      <use x="361.523438" xlink:href="#DejaVuSans-20"/>
      <use x="393.310547" xlink:href="#DejaVuSans-7a"/>
      <use x="445.800781" xlink:href="#DejaVuSans-6c"/>
      <use x="473.583984" xlink:href="#DejaVuSans-69"/>
      <use x="501.367188" xlink:href="#DejaVuSans-6e"/>
      <use x="564.746094" xlink:href="#DejaVuSans-65"/>
      <use x="626.269531" xlink:href="#DejaVuSans-61"/>
      <use x="687.548828" xlink:href="#DejaVuSans-72"/>
      <use x="728.662109" xlink:href="#DejaVuSans-79"/>
      <use x="787.841797" xlink:href="#DejaVuSans-7a"/>
      <use x="840.332031" xlink:href="#DejaVuSans-6f"/>
      <use x="901.513672" xlink:href="#DejaVuSans-77"/>
      <use x="983.300781" xlink:href="#DejaVuSans-61"/>
      <use x="1044.580078" xlink:href="#DejaVuSans-6e"/>
      <use x="1107.958984" xlink:href="#DejaVuSans-79"/>
     </g>
    </g>
    <g id="line2d_55"/>
    <g id="line2d_56">
     <g>
      <use style="fill:#ff0000;stroke:#ff0000;" x="257.000313" xlink:href="#m22fc1e86e5" y="268.064187"/>
     </g>
    </g>
    <g id="text_14">
     <!-- Punkt równowagi asymptotycznie stabilny -->
     <defs>
      <path d="M 19.671875 64.796875 
L 19.671875 37.40625 
L 32.078125 37.40625 
Q 38.96875 37.40625 42.71875 40.96875 
Q 46.484375 44.53125 46.484375 51.125 
Q 46.484375 57.671875 42.71875 61.234375 
Q 38.96875 64.796875 32.078125 64.796875 
z
M 9.8125 72.90625 
L 32.078125 72.90625 
Q 44.34375 72.90625 50.609375 67.359375 
Q 56.890625 61.8125 56.890625 51.125 
Q 56.890625 40.328125 50.609375 34.8125 
Q 44.34375 29.296875 32.078125 29.296875 
L 19.671875 29.296875 
L 19.671875 0 
L 9.8125 0 
z
" id="DejaVuSans-50"/>
      <path d="M 8.5 21.578125 
L 8.5 54.6875 
L 17.484375 54.6875 
L 17.484375 21.921875 
Q 17.484375 14.15625 20.5 10.265625 
Q 23.53125 6.390625 29.59375 6.390625 
Q 36.859375 6.390625 41.078125 11.03125 
Q 45.3125 15.671875 45.3125 23.6875 
L 45.3125 54.6875 
L 54.296875 54.6875 
L 54.296875 0 
L 45.3125 0 
L 45.3125 8.40625 
Q 42.046875 3.421875 37.71875 1 
Q 33.40625 -1.421875 27.6875 -1.421875 
Q 18.265625 -1.421875 13.375 4.4375 
Q 8.5 10.296875 8.5 21.578125 
M 31.109375 56 
z
" id="DejaVuSans-75"/>
      <path d="M 9.078125 75.984375 
L 18.109375 75.984375 
L 18.109375 31.109375 
L 44.921875 54.6875 
L 56.390625 54.6875 
L 27.390625 29.109375 
L 57.625 0 
L 45.90625 0 
L 18.109375 26.703125 
L 18.109375 0 
L 9.078125 0 
z
" id="DejaVuSans-6b"/>
      <path d="M 30.609375 48.390625 
Q 23.390625 48.390625 19.1875 42.75 
Q 14.984375 37.109375 14.984375 27.296875 
Q 14.984375 17.484375 19.15625 11.84375 
Q 23.34375 6.203125 30.609375 6.203125 
Q 37.796875 6.203125 41.984375 11.859375 
Q 46.1875 17.53125 46.1875 27.296875 
Q 46.1875 37.015625 41.984375 42.703125 
Q 37.796875 48.390625 30.609375 48.390625 
M 30.609375 56 
Q 42.328125 56 49.015625 48.375 
Q 55.71875 40.765625 55.71875 27.296875 
Q 55.71875 13.875 49.015625 6.21875 
Q 42.328125 -1.421875 30.609375 -1.421875 
Q 18.84375 -1.421875 12.171875 6.21875 
Q 5.515625 13.875 5.515625 27.296875 
Q 5.515625 40.765625 12.171875 48.375 
Q 18.84375 56 30.609375 56 
M 37.40625 79.984375 
L 47.125 79.984375 
L 31.21875 61.625 
L 23.734375 61.625 
z
" id="DejaVuSans-f3"/>
      <path d="M 45.40625 27.984375 
Q 45.40625 37.75 41.375 43.109375 
Q 37.359375 48.484375 30.078125 48.484375 
Q 22.859375 48.484375 18.828125 43.109375 
Q 14.796875 37.75 14.796875 27.984375 
Q 14.796875 18.265625 18.828125 12.890625 
Q 22.859375 7.515625 30.078125 7.515625 
Q 37.359375 7.515625 41.375 12.890625 
Q 45.40625 18.265625 45.40625 27.984375 
M 54.390625 6.78125 
Q 54.390625 -7.171875 48.1875 -13.984375 
Q 42 -20.796875 29.203125 -20.796875 
Q 24.46875 -20.796875 20.265625 -20.09375 
Q 16.0625 -19.390625 12.109375 -17.921875 
L 12.109375 -9.1875 
Q 16.0625 -11.328125 19.921875 -12.34375 
Q 23.78125 -13.375 27.78125 -13.375 
Q 36.625 -13.375 41.015625 -8.765625 
Q 45.40625 -4.15625 45.40625 5.171875 
L 45.40625 9.625 
Q 42.625 4.78125 38.28125 2.390625 
Q 33.9375 0 27.875 0 
Q 17.828125 0 11.671875 7.65625 
Q 5.515625 15.328125 5.515625 27.984375 
Q 5.515625 40.671875 11.671875 48.328125 
Q 17.828125 56 27.875 56 
Q 33.9375 56 38.28125 53.609375 
Q 42.625 51.21875 45.40625 46.390625 
L 45.40625 54.6875 
L 54.390625 54.6875 
z
" id="DejaVuSans-67"/>
      <path d="M 18.109375 8.203125 
L 18.109375 -20.796875 
L 9.078125 -20.796875 
L 9.078125 54.6875 
L 18.109375 54.6875 
L 18.109375 46.390625 
Q 20.953125 51.265625 25.265625 53.625 
Q 29.59375 56 35.59375 56 
Q 45.5625 56 51.78125 48.09375 
Q 58.015625 40.1875 58.015625 27.296875 
Q 58.015625 14.40625 51.78125 6.484375 
Q 45.5625 -1.421875 35.59375 -1.421875 
Q 29.59375 -1.421875 25.265625 0.953125 
Q 20.953125 3.328125 18.109375 8.203125 
M 48.6875 27.296875 
Q 48.6875 37.203125 44.609375 42.84375 
Q 40.53125 48.484375 33.40625 48.484375 
Q 26.265625 48.484375 22.1875 42.84375 
Q 18.109375 37.203125 18.109375 27.296875 
Q 18.109375 17.390625 22.1875 11.75 
Q 26.265625 6.109375 33.40625 6.109375 
Q 40.53125 6.109375 44.609375 11.75 
Q 48.6875 17.390625 48.6875 27.296875 
" id="DejaVuSans-70"/>
      <path d="M 48.78125 52.59375 
L 48.78125 44.1875 
Q 44.96875 46.296875 41.140625 47.34375 
Q 37.3125 48.390625 33.40625 48.390625 
Q 24.65625 48.390625 19.8125 42.84375 
Q 14.984375 37.3125 14.984375 27.296875 
Q 14.984375 17.28125 19.8125 11.734375 
Q 24.65625 6.203125 33.40625 6.203125 
Q 37.3125 6.203125 41.140625 7.25 
Q 44.96875 8.296875 48.78125 10.40625 
L 48.78125 2.09375 
Q 45.015625 0.34375 40.984375 -0.53125 
Q 36.96875 -1.421875 32.421875 -1.421875 
Q 20.0625 -1.421875 12.78125 6.34375 
Q 5.515625 14.109375 5.515625 27.296875 
Q 5.515625 40.671875 12.859375 48.328125 
Q 20.21875 56 33.015625 56 
Q 37.15625 56 41.109375 55.140625 
Q 45.0625 54.296875 48.78125 52.59375 
" id="DejaVuSans-63"/>
      <path d="M 48.6875 27.296875 
Q 48.6875 37.203125 44.609375 42.84375 
Q 40.53125 48.484375 33.40625 48.484375 
Q 26.265625 48.484375 22.1875 42.84375 
Q 18.109375 37.203125 18.109375 27.296875 
Q 18.109375 17.390625 22.1875 11.75 
Q 26.265625 6.109375 33.40625 6.109375 
Q 40.53125 6.109375 44.609375 11.75 
Q 48.6875 17.390625 48.6875 27.296875 
M 18.109375 46.390625 
Q 20.953125 51.265625 25.265625 53.625 
Q 29.59375 56 35.59375 56 
Q 45.5625 56 51.78125 48.09375 
Q 58.015625 40.1875 58.015625 27.296875 
Q 58.015625 14.40625 51.78125 6.484375 
Q 45.5625 -1.421875 35.59375 -1.421875 
Q 29.59375 -1.421875 25.265625 0.953125 
Q 20.953125 3.328125 18.109375 8.203125 
L 18.109375 0 
L 9.078125 0 
L 9.078125 75.984375 
L 18.109375 75.984375 
z
" id="DejaVuSans-62"/>
     </defs>
     <g transform="translate(267.800313 270.164187)scale(0.06 -0.06)">
      <use xlink:href="#DejaVuSans-50"/>
      <use x="60.287109" xlink:href="#DejaVuSans-75"/>
      <use x="123.666016" xlink:href="#DejaVuSans-6e"/>
      <use x="187.044922" xlink:href="#DejaVuSans-6b"/>
      <use x="244.955078" xlink:href="#DejaVuSans-74"/>
      <use x="284.164062" xlink:href="#DejaVuSans-20"/>
      <use x="315.951172" xlink:href="#DejaVuSans-72"/>
      <use x="357.033203" xlink:href="#DejaVuSans-f3"/>
      <use x="418.214844" xlink:href="#DejaVuSans-77"/>
      <use x="500.001953" xlink:href="#DejaVuSans-6e"/>
      <use x="563.380859" xlink:href="#DejaVuSans-6f"/>
      <use x="624.5625" xlink:href="#DejaVuSans-77"/>
      <use x="706.349609" xlink:href="#DejaVuSans-61"/>
      <use x="767.628906" xlink:href="#DejaVuSans-67"/>
      <use x="831.105469" xlink:href="#DejaVuSans-69"/>
      <use x="858.888672" xlink:href="#DejaVuSans-20"/>
      <use x="890.675781" xlink:href="#DejaVuSans-61"/>
      <use x="951.955078" xlink:href="#DejaVuSans-73"/>
      <use x="1004.054688" xlink:href="#DejaVuSans-79"/>
      <use x="1063.234375" xlink:href="#DejaVuSans-6d"/>
      <use x="1160.646484" xlink:href="#DejaVuSans-70"/>
      <use x="1224.123047" xlink:href="#DejaVuSans-74"/>
      <use x="1263.332031" xlink:href="#DejaVuSans-6f"/>
      <use x="1324.513672" xlink:href="#DejaVuSans-74"/>
      <use x="1363.722656" xlink:href="#DejaVuSans-79"/>
      <use x="1422.902344" xlink:href="#DejaVuSans-63"/>
      <use x="1477.882812" xlink:href="#DejaVuSans-7a"/>
      <use x="1530.373047" xlink:href="#DejaVuSans-6e"/>
      <use x="1593.751953" xlink:href="#DejaVuSans-69"/>
      <use x="1621.535156" xlink:href="#DejaVuSans-65"/>
      <use x="1683.058594" xlink:href="#DejaVuSans-20"/>
      <use x="1714.845703" xlink:href="#DejaVuSans-73"/>
      <use x="1766.945312" xlink:href="#DejaVuSans-74"/>
      <use x="1806.154297" xlink:href="#DejaVuSans-61"/>
      <use x="1867.433594" xlink:href="#DejaVuSans-62"/>
      <use x="1930.910156" xlink:href="#DejaVuSans-69"/>
      <use x="1958.693359" xlink:href="#DejaVuSans-6c"/>
      <use x="1986.476562" xlink:href="#DejaVuSans-6e"/>
      <use x="2049.855469" xlink:href="#DejaVuSans-79"/>
     </g>
    </g>
   </g>
  </g>
 </g>
 <defs>
  <clipPath id="p3c529949c1">
   <rect height="266.112" width="357.12" x="42.620313" y="10.7"/>
  </clipPath>
 </defs>
</svg>
