<?xml version="1.0" encoding="utf-8" standalone="no"?>
<!DOCTYPE svg PUBLIC "-//W3C//DTD SVG 1.1//EN"
  "http://www.w3.org/Graphics/SVG/1.1/DTD/svg11.dtd">
<!-- Created with matplotlib (http://matplotlib.org/) -->
<svg height="314pt" version="1.1" viewBox="0 0 410 314" width="410pt" xmlns="http://www.w3.org/2000/svg" xmlns:xlink="http://www.w3.org/1999/xlink">
 <defs>
  <style type="text/css">
*{stroke-linecap:butt;stroke-linejoin:round;}
  </style>
 </defs>
 <g id="figure_1">
  <g id="patch_1">
   <path d="M 0 314.36825 
L 410.440313 314.36825 
L 410.440313 0 
L 0 0 
z
" style="fill:#ffffff;"/>
  </g>
  <g id="axes_1">
   <g id="patch_2">
    <path d="M 42.620313 276.812 
L 399.740313 276.812 
L 399.740313 10.7 
L 42.620313 10.7 
z
" style="fill:#ffffff;"/>
   </g>
   <g id="patch_3">
    <path clip-path="url(#p7ea7c889bf)" d="M 235.685887 34.933737 
L 232.810818 29.382344 
L 236.348026 29.634401 
L 236.38359 29.636821 
L 236.383575 29.636934 
L 239.920783 29.88899 
z
" style="fill:#1f77b4;stroke:#1f77b4;stroke-linejoin:miter;"/>
   </g>
   <g id="patch_4">
    <path clip-path="url(#p7ea7c889bf)" d="M 229.812419 79.703335 
L 226.961588 74.145006 
L 230.497677 74.405631 
L 230.533225 74.40818 
L 230.533216 74.40825 
L 234.069305 74.668875 
z
" style="fill:#1f77b4;stroke:#1f77b4;stroke-linejoin:miter;"/>
   </g>
   <g id="patch_5">
    <path clip-path="url(#p7ea7c889bf)" d="M 234.903382 40.98656 
L 232.032095 35.43408 
L 235.569131 35.687474 
L 235.604693 35.689913 
L 235.604679 35.690021 
L 239.141714 35.943414 
z
" style="fill:#1f77b4;stroke:#1f77b4;stroke-linejoin:miter;"/>
   </g>
   <g id="patch_6">
    <path clip-path="url(#p7ea7c889bf)" d="M 227.783467 94.88174 
L 224.938595 89.321716 
L 228.474403 89.584445 
L 228.509946 89.587031 
L 228.509939 89.587086 
L 232.045747 89.849815 
z
" style="fill:#1f77b4;stroke:#1f77b4;stroke-linejoin:miter;"/>
   </g>
   <g id="patch_7">
    <path clip-path="url(#p7ea7c889bf)" d="M 259.526504 14.111461 
L 266.134991 10.771072 
L 266.604045 13.395716 
L 266.612045 13.421769 
L 266.60876 13.422095 
L 267.077814 16.046739 
z
" style="fill:#1f77b4;stroke:#1f77b4;stroke-linejoin:miter;"/>
   </g>
   <g id="patch_8">
    <path clip-path="url(#p7ea7c889bf)" d="M 231.57255 66.432837 
L 228.715527 60.876273 
L 232.251905 61.13471 
L 232.287457 61.137225 
L 232.287446 61.137308 
L 235.823824 61.395744 
z
" style="fill:#1f77b4;stroke:#1f77b4;stroke-linejoin:miter;"/>
   </g>
   <g id="patch_9">
    <path clip-path="url(#p7ea7c889bf)" d="M 308.049032 12.749834 
L 314.919563 9.717189 
L 315.172102 12.358307 
L 315.186931 12.384199 
L 315.17464 12.384851 
L 315.427178 15.02597 
z
" style="fill:#1f77b4;stroke:#1f77b4;stroke-linejoin:miter;"/>
   </g>
   <g id="patch_10">
    <path clip-path="url(#p7ea7c889bf)" d="M 234.295424 45.668935 
L 231.426849 40.115677 
L 234.96376 40.37003 
L 234.99932 40.372483 
L 234.999307 40.372586 
L 238.536218 40.626939 
z
" style="fill:#1f77b4;stroke:#1f77b4;stroke-linejoin:miter;"/>
   </g>
   <g id="patch_11">
    <path clip-path="url(#p7ea7c889bf)" d="M 307.381482 33.923372 
L 314.256341 30.896176 
L 314.505107 33.537494 
L 314.519984 33.563392 
L 314.507607 33.56404 
L 314.756373 36.205357 
z
" style="fill:#1f77b4;stroke:#1f77b4;stroke-linejoin:miter;"/>
   </g>
   <g id="patch_12">
    <path clip-path="url(#p7ea7c889bf)" d="M 231.866013 64.209189 
L 229.007903 58.652936 
L 232.544332 58.910988 
L 232.579885 58.913497 
L 232.579874 58.913582 
L 236.116302 59.171634 
z
" style="fill:#1f77b4;stroke:#1f77b4;stroke-linejoin:miter;"/>
   </g>
   <g id="patch_13">
    <path clip-path="url(#p7ea7c889bf)" d="M 392.558504 73.402504 
L 399.570887 70.555849 
L 399.695857 73.202025 
L 399.74094 73.227471 
L 399.697113 73.22862 
L 399.822083 75.874796 
z
" style="fill:#1f77b4;stroke:#1f77b4;stroke-linejoin:miter;"/>
   </g>
   <g id="patch_14">
    <path clip-path="url(#p7ea7c889bf)" d="M 227.521898 89.929644 
L 225.801213 84.118982 
L 229.247177 84.764993 
L 229.28183 84.771426 
L 229.28181 84.771486 
L 232.727774 85.417497 
z
" style="fill:#1f77b4;stroke:#1f77b4;stroke-linejoin:miter;"/>
   </g>
   <g id="patch_15">
    <path clip-path="url(#p7ea7c889bf)" d="M 392.558088 106.99986 
L 399.571658 104.154829 
L 399.695524 106.801034 
L 399.740935 106.826481 
L 399.696769 106.827629 
L 399.820636 109.473834 
z
" style="fill:#1f77b4;stroke:#1f77b4;stroke-linejoin:miter;"/>
   </g>
   <g id="patch_16">
    <path clip-path="url(#p7ea7c889bf)" d="M 253.062361 113.245309 
L 259.812472 110.06605 
L 260.167282 112.700631 
L 260.174545 112.726833 
L 260.170848 112.727109 
L 260.525659 115.36169 
z
" style="fill:#1f77b4;stroke:#1f77b4;stroke-linejoin:miter;"/>
   </g>
   <g id="patch_17">
    <path clip-path="url(#p7ea7c889bf)" d="M 392.557721 136.727146 
L 399.572326 133.883532 
L 399.695229 136.529762 
L 399.74093 136.555211 
L 399.696465 136.556358 
L 399.819368 139.202588 
z
" style="fill:#1f77b4;stroke:#1f77b4;stroke-linejoin:miter;"/>
   </g>
   <g id="patch_18">
    <path clip-path="url(#p7ea7c889bf)" d="M 304.849579 139.666539 
L 311.747263 136.668313 
L 311.976014 139.310635 
L 311.991335 139.336565 
L 311.978313 139.337191 
L 312.207064 141.979513 
z
" style="fill:#1f77b4;stroke:#1f77b4;stroke-linejoin:miter;"/>
   </g>
   <g id="patch_19">
    <path clip-path="url(#p7ea7c889bf)" d="M 392.557364 165.753265 
L 399.572966 162.911018 
L 399.694941 165.557272 
L 399.740925 165.582722 
L 399.696167 165.583867 
L 399.818142 168.230121 
z
" style="fill:#1f77b4;stroke:#1f77b4;stroke-linejoin:miter;"/>
   </g>
   <g id="patch_20">
    <path clip-path="url(#p7ea7c889bf)" d="M 265.057074 170.786958 
L 271.893447 167.711748 
L 272.175517 170.351207 
L 272.184369 170.377377 
L 272.178352 170.377734 
L 272.460422 173.017193 
z
" style="fill:#1f77b4;stroke:#1f77b4;stroke-linejoin:miter;"/>
   </g>
   <g id="patch_21">
    <path clip-path="url(#p7ea7c889bf)" d="M 347.506139 198.157926 
L 354.478476 195.257164 
L 354.640314 197.90223 
L 354.668137 197.927924 
L 354.641941 197.928814 
L 354.803779 200.573881 
z
" style="fill:#1f77b4;stroke:#1f77b4;stroke-linejoin:miter;"/>
   </g>
   <g id="patch_22">
    <path clip-path="url(#p7ea7c889bf)" d="M 257.356841 202.268649 
L 264.209597 199.213753 
L 264.477557 201.854028 
L 264.485613 201.880261 
L 264.48025 201.880563 
L 264.748209 204.520838 
z
" style="fill:#1f77b4;stroke:#1f77b4;stroke-linejoin:miter;"/>
   </g>
   <g id="patch_23">
    <path clip-path="url(#p7ea7c889bf)" d="M 347.129973 235.35269 
L 354.104921 232.455416 
L 354.264376 235.100563 
L 354.292453 235.126261 
L 354.265979 235.127147 
L 354.425434 237.772295 
z
" style="fill:#1f77b4;stroke:#1f77b4;stroke-linejoin:miter;"/>
   </g>
   <g id="patch_24">
    <path clip-path="url(#p7ea7c889bf)" d="M 224.822199 240.641634 
L 231.806682 237.757143 
L 231.957413 240.402574 
L 231.961195 240.42909 
L 231.958928 240.429161 
L 232.109659 243.074592 
z
" style="fill:#1f77b4;stroke:#1f77b4;stroke-linejoin:miter;"/>
   </g>
   <g id="patch_25">
    <path clip-path="url(#p7ea7c889bf)" d="M 383.141896 277.000737 
L 390.153945 274.153625 
L 390.279226 276.799793 
L 390.321958 276.825297 
L 390.280485 276.826388 
L 390.405766 279.472556 
z
" style="fill:#1f77b4;stroke:#1f77b4;stroke-linejoin:miter;"/>
   </g>
   <g id="patch_26">
    <path clip-path="url(#p7ea7c889bf)" d="M 321.464537 277.087287 
L 328.413198 274.15515 
L 328.596506 276.799439 
L 328.617221 276.825288 
L 328.598348 276.826014 
L 328.781656 279.470303 
z
" style="fill:#1f77b4;stroke:#1f77b4;stroke-linejoin:miter;"/>
   </g>
   <g id="patch_27">
    <path clip-path="url(#p7ea7c889bf)" d="M 274.207585 277.15163 
L 281.107851 274.156705 
L 281.334325 276.799136 
L 281.34532 276.825279 
L 281.336601 276.825693 
L 281.563075 279.468124 
z
" style="fill:#1f77b4;stroke:#1f77b4;stroke-linejoin:miter;"/>
   </g>
   <g id="patch_28">
    <path clip-path="url(#p7ea7c889bf)" d="M 233.46246 277.072716 
L 240.421442 274.154203 
L 240.595419 276.798841 
L 240.600757 276.82529 
L 240.597168 276.825421 
L 240.771145 279.47006 
z
" style="fill:#1f77b4;stroke:#1f77b4;stroke-linejoin:miter;"/>
   </g>
   <g id="patch_29">
    <path clip-path="url(#p7ea7c889bf)" d="M 206.567842 253.407883 
L 209.443383 258.959141 
L 205.906154 258.707251 
L 205.870589 258.704834 
L 205.870604 258.70472 
L 202.333375 258.452831 
z
" style="fill:#1f77b4;stroke:#1f77b4;stroke-linejoin:miter;"/>
   </g>
   <g id="patch_30">
    <path clip-path="url(#p7ea7c889bf)" d="M 214.360505 194.24544 
L 217.206001 199.805287 
L 213.670163 199.542778 
L 213.63462 199.540196 
L 213.634627 199.54014 
L 210.09879 199.277631 
z
" style="fill:#1f77b4;stroke:#1f77b4;stroke-linejoin:miter;"/>
   </g>
   <g id="patch_31">
    <path clip-path="url(#p7ea7c889bf)" d="M 196.773599 272.90687 
L 190.463437 276.553534 
L 189.77143 273.956417 
L 189.762932 273.930543 
L 189.764475 273.930315 
L 189.072468 271.333197 
z
" style="fill:#1f77b4;stroke:#1f77b4;stroke-linejoin:miter;"/>
   </g>
   <g id="patch_32">
    <path clip-path="url(#p7ea7c889bf)" d="M 214.36622 194.203168 
L 217.211651 199.763033 
L 213.675816 199.500501 
L 213.640272 199.497919 
L 213.64028 199.497863 
L 210.104445 199.235331 
z
" style="fill:#1f77b4;stroke:#1f77b4;stroke-linejoin:miter;"/>
   </g>
   <g id="patch_33">
    <path clip-path="url(#p7ea7c889bf)" d="M 189.69428 271.369417 
L 183.180237 274.81127 
L 182.638194 272.194444 
L 182.630329 272.168423 
L 182.632746 272.168145 
L 182.090704 269.551319 
z
" style="fill:#1f77b4;stroke:#1f77b4;stroke-linejoin:miter;"/>
   </g>
   <g id="patch_34">
    <path clip-path="url(#p7ea7c889bf)" d="M 209.427459 231.415816 
L 212.28998 236.970809 
L 208.753347 236.714315 
L 208.717791 236.71183 
L 208.717803 236.711737 
L 205.181171 236.455243 
z
" style="fill:#1f77b4;stroke:#1f77b4;stroke-linejoin:miter;"/>
   </g>
   <g id="patch_35">
    <path clip-path="url(#p7ea7c889bf)" d="M 97.936331 275.437784 
L 90.985834 278.367503 
L 90.804183 275.723151 
L 90.779296 275.697454 
L 90.802357 275.696575 
L 90.620707 273.052222 
z
" style="fill:#1f77b4;stroke:#1f77b4;stroke-linejoin:miter;"/>
   </g>
   <g id="patch_36">
    <path clip-path="url(#p7ea7c889bf)" d="M 206.583496 253.359225 
L 209.446534 258.914069 
L 205.909878 258.657759 
L 205.874319 258.655297 
L 205.874333 258.655183 
L 202.337677 258.398872 
z
" style="fill:#1f77b4;stroke:#1f77b4;stroke-linejoin:miter;"/>
   </g>
   <g id="patch_37">
    <path clip-path="url(#p7ea7c889bf)" d="M 118.537581 231.599369 
L 111.619199 234.570998 
L 111.408773 231.927831 
L 111.389664 231.902017 
L 111.406658 231.901266 
L 111.196232 229.258099 
z
" style="fill:#1f77b4;stroke:#1f77b4;stroke-linejoin:miter;"/>
   </g>
   <g id="patch_38">
    <path clip-path="url(#p7ea7c889bf)" d="M 197.404804 226.09932 
L 190.84307 229.4905 
L 190.337583 226.869614 
L 190.33043 226.843495 
L 190.332503 226.843273 
L 189.827016 224.222388 
z
" style="fill:#1f77b4;stroke:#1f77b4;stroke-linejoin:miter;"/>
   </g>
   <g id="patch_39">
    <path clip-path="url(#p7ea7c889bf)" d="M 49.802339 196.582891 
L 42.789334 199.428696 
L 42.664941 196.782505 
L 42.619687 196.757058 
L 42.663691 196.75591 
L 42.539299 194.109718 
z
" style="fill:#1f77b4;stroke:#1f77b4;stroke-linejoin:miter;"/>
   </g>
   <g id="patch_40">
    <path clip-path="url(#p7ea7c889bf)" d="M 200.367523 189.191325 
L 193.706161 192.472879 
L 193.279053 189.844262 
L 193.272549 189.818043 
L 193.27476 189.817843 
L 192.847652 187.189226 
z
" style="fill:#1f77b4;stroke:#1f77b4;stroke-linejoin:miter;"/>
   </g>
   <g id="patch_41">
    <path clip-path="url(#p7ea7c889bf)" d="M 49.802724 165.383484 
L 42.788626 168.227792 
L 42.665251 165.581574 
L 42.619693 165.556126 
L 42.664011 165.554979 
L 42.540636 162.908761 
z
" style="fill:#1f77b4;stroke:#1f77b4;stroke-linejoin:miter;"/>
   </g>
   <g id="patch_42">
    <path clip-path="url(#p7ea7c889bf)" d="M 160.198384 161.19725 
L 153.354781 164.263518 
L 153.078926 161.623695 
L 153.06795 161.59764 
L 153.076153 161.597164 
L 152.800298 158.957341 
z
" style="fill:#1f77b4;stroke:#1f77b4;stroke-linejoin:miter;"/>
   </g>
   <g id="patch_43">
    <path clip-path="url(#p7ea7c889bf)" d="M 49.803082 136.357374 
L 42.787979 139.200307 
L 42.665539 136.554065 
L 42.619697 136.528616 
L 42.664308 136.527469 
L 42.541867 133.881227 
z
" style="fill:#1f77b4;stroke:#1f77b4;stroke-linejoin:miter;"/>
   </g>
   <g id="patch_44">
    <path clip-path="url(#p7ea7c889bf)" d="M 176.601922 131.291927 
L 169.775133 134.378936 
L 169.484853 131.739972 
L 169.476 131.713812 
L 169.481936 131.71345 
L 169.191657 129.074485 
z
" style="fill:#1f77b4;stroke:#1f77b4;stroke-linejoin:miter;"/>
   </g>
   <g id="patch_45">
    <path clip-path="url(#p7ea7c889bf)" d="M 49.803447 106.630061 
L 42.78733 109.471603 
L 42.665834 106.825336 
L 42.619702 106.799886 
L 42.664613 106.798741 
L 42.543117 104.152475 
z
" style="fill:#1f77b4;stroke:#1f77b4;stroke-linejoin:miter;"/>
   </g>
   <g id="patch_46">
    <path clip-path="url(#p7ea7c889bf)" d="M 170.880328 102.040884 
L 164.02551 105.09321 
L 163.759333 102.452835 
L 163.749502 102.426699 
L 163.756658 102.426299 
L 163.490481 99.785924 
z
" style="fill:#1f77b4;stroke:#1f77b4;stroke-linejoin:miter;"/>
   </g>
   <g id="patch_47">
    <path clip-path="url(#p7ea7c889bf)" d="M 121.347398 70.894695 
L 114.407967 73.838945 
L 114.216353 71.194983 
L 114.196378 71.169137 
L 114.214427 71.16841 
L 114.022813 68.524448 
z
" style="fill:#1f77b4;stroke:#1f77b4;stroke-linejoin:miter;"/>
   </g>
   <g id="patch_48">
    <path clip-path="url(#p7ea7c889bf)" d="M 231.057167 66.581992 
L 223.768724 69.013315 
L 223.920524 66.367917 
L 223.921323 66.341307 
L 223.92205 66.34133 
L 224.07385 63.695933 
z
" style="fill:#1f77b4;stroke:#1f77b4;stroke-linejoin:miter;"/>
   </g>
   <g id="patch_49">
    <path clip-path="url(#p7ea7c889bf)" d="M 140.421797 27.680166 
L 133.500392 30.647882 
L 133.292657 28.004596 
L 133.276785 27.978632 
L 133.290569 27.978031 
L 133.082834 25.334745 
z
" style="fill:#1f77b4;stroke:#1f77b4;stroke-linejoin:miter;"/>
   </g>
   <g id="patch_50">
    <path clip-path="url(#p7ea7c889bf)" d="M 231.576667 66.401683 
L 228.71962 60.845126 
L 232.255999 61.103555 
L 232.291552 61.106069 
L 232.291541 61.106152 
L 235.82792 61.36458 
z
" style="fill:#1f77b4;stroke:#1f77b4;stroke-linejoin:miter;"/>
   </g>
   <g id="patch_51">
    <path clip-path="url(#p7ea7c889bf)" d="M 92.606096 10.46864 
L 85.625033 13.357724 
L 85.471168 10.712393 
L 85.441756 10.686707 
L 85.469622 10.685807 
L 85.315757 8.040476 
z
" style="fill:#1f77b4;stroke:#1f77b4;stroke-linejoin:miter;"/>
   </g>
   <g id="patch_52">
    <path clip-path="url(#p7ea7c889bf)" d="M 145.712446 10.385253 
L 138.793315 13.355913 
L 138.583555 10.712717 
L 138.568606 10.686718 
L 138.581447 10.686152 
L 138.371687 8.042955 
z
" style="fill:#1f77b4;stroke:#1f77b4;stroke-linejoin:miter;"/>
   </g>
   <g id="patch_53">
    <path clip-path="url(#p7ea7c889bf)" d="M 189.010507 10.366926 
L 182.105394 13.355641 
L 181.883201 10.713009 
L 181.875168 10.68672 
L 181.880968 10.68645 
L 181.658775 8.043817 
z
" style="fill:#1f77b4;stroke:#1f77b4;stroke-linejoin:miter;"/>
   </g>
   <g id="patch_54">
    <path clip-path="url(#p7ea7c889bf)" d="M 234.248161 46.031237 
L 231.379936 40.477878 
L 234.916831 40.732355 
L 234.952391 40.73481 
L 234.952378 40.734913 
L 238.489273 40.989389 
z
" style="fill:#1f77b4;stroke:#1f77b4;stroke-linejoin:miter;"/>
   </g>
   <g id="patch_55">
    <path clip-path="url(#p7ea7c889bf)" d="M 227.870959 94.229604 
L 225.025845 88.669649 
L 228.561665 88.932292 
L 228.597208 88.934877 
L 228.5972 88.934932 
L 232.13302 89.197576 
z
" style="fill:#1f77b4;stroke:#1f77b4;stroke-linejoin:miter;"/>
   </g>
   <g id="matplotlib.axis_1">
    <g id="xtick_1">
     <g id="line2d_1">
      <defs>
       <path d="M 0 0 
L 0 3.5 
" id="mf765e1613c" style="stroke:#000000;stroke-width:0.8;"/>
      </defs>
      <g>
       <use style="stroke:#000000;stroke-width:0.8;" x="78.332313" xlink:href="#mf765e1613c" y="276.812"/>
      </g>
     </g>
     <g id="text_1">
      <!-- −4 -->
      <defs>
       <path d="M 10.59375 35.5 
L 73.1875 35.5 
L 73.1875 27.203125 
L 10.59375 27.203125 
z
" id="DejaVuSans-2212"/>
       <path d="M 37.796875 64.3125 
L 12.890625 25.390625 
L 37.796875 25.390625 
z
M 35.203125 72.90625 
L 47.609375 72.90625 
L 47.609375 25.390625 
L 58.015625 25.390625 
L 58.015625 17.1875 
L 47.609375 17.1875 
L 47.609375 0 
L 37.796875 0 
L 37.796875 17.1875 
L 4.890625 17.1875 
L 4.890625 26.703125 
z
" id="DejaVuSans-34"/>
      </defs>
      <g transform="translate(70.961219 291.410438)scale(0.1 -0.1)">
       <use xlink:href="#DejaVuSans-2212"/>
       <use x="83.789062" xlink:href="#DejaVuSans-34"/>
      </g>
     </g>
    </g>
    <g id="xtick_2">
     <g id="line2d_2">
      <g>
       <use style="stroke:#000000;stroke-width:0.8;" x="149.756313" xlink:href="#mf765e1613c" y="276.812"/>
      </g>
     </g>
     <g id="text_2">
      <!-- −2 -->
      <defs>
       <path d="M 19.1875 8.296875 
L 53.609375 8.296875 
L 53.609375 0 
L 7.328125 0 
L 7.328125 8.296875 
Q 12.9375 14.109375 22.625 23.890625 
Q 32.328125 33.6875 34.8125 36.53125 
Q 39.546875 41.84375 41.421875 45.53125 
Q 43.3125 49.21875 43.3125 52.78125 
Q 43.3125 58.59375 39.234375 62.25 
Q 35.15625 65.921875 28.609375 65.921875 
Q 23.96875 65.921875 18.8125 64.3125 
Q 13.671875 62.703125 7.8125 59.421875 
L 7.8125 69.390625 
Q 13.765625 71.78125 18.9375 73 
Q 24.125 74.21875 28.421875 74.21875 
Q 39.75 74.21875 46.484375 68.546875 
Q 53.21875 62.890625 53.21875 53.421875 
Q 53.21875 48.921875 51.53125 44.890625 
Q 49.859375 40.875 45.40625 35.40625 
Q 44.1875 33.984375 37.640625 27.21875 
Q 31.109375 20.453125 19.1875 8.296875 
" id="DejaVuSans-32"/>
      </defs>
      <g transform="translate(142.385219 291.410438)scale(0.1 -0.1)">
       <use xlink:href="#DejaVuSans-2212"/>
       <use x="83.789062" xlink:href="#DejaVuSans-32"/>
      </g>
     </g>
    </g>
    <g id="xtick_3">
     <g id="line2d_3">
      <g>
       <use style="stroke:#000000;stroke-width:0.8;" x="221.180313" xlink:href="#mf765e1613c" y="276.812"/>
      </g>
     </g>
     <g id="text_3">
      <!-- 0 -->
      <defs>
       <path d="M 31.78125 66.40625 
Q 24.171875 66.40625 20.328125 58.90625 
Q 16.5 51.421875 16.5 36.375 
Q 16.5 21.390625 20.328125 13.890625 
Q 24.171875 6.390625 31.78125 6.390625 
Q 39.453125 6.390625 43.28125 13.890625 
Q 47.125 21.390625 47.125 36.375 
Q 47.125 51.421875 43.28125 58.90625 
Q 39.453125 66.40625 31.78125 66.40625 
M 31.78125 74.21875 
Q 44.046875 74.21875 50.515625 64.515625 
Q 56.984375 54.828125 56.984375 36.375 
Q 56.984375 17.96875 50.515625 8.265625 
Q 44.046875 -1.421875 31.78125 -1.421875 
Q 19.53125 -1.421875 13.0625 8.265625 
Q 6.59375 17.96875 6.59375 36.375 
Q 6.59375 54.828125 13.0625 64.515625 
Q 19.53125 74.21875 31.78125 74.21875 
" id="DejaVuSans-30"/>
      </defs>
      <g transform="translate(217.999063 291.410438)scale(0.1 -0.1)">
       <use xlink:href="#DejaVuSans-30"/>
      </g>
     </g>
    </g>
    <g id="xtick_4">
     <g id="line2d_4">
      <g>
       <use style="stroke:#000000;stroke-width:0.8;" x="292.604312" xlink:href="#mf765e1613c" y="276.812"/>
      </g>
     </g>
     <g id="text_4">
      <!-- 2 -->
      <g transform="translate(289.423063 291.410438)scale(0.1 -0.1)">
       <use xlink:href="#DejaVuSans-32"/>
      </g>
     </g>
    </g>
    <g id="xtick_5">
     <g id="line2d_5">
      <g>
       <use style="stroke:#000000;stroke-width:0.8;" x="364.028313" xlink:href="#mf765e1613c" y="276.812"/>
      </g>
     </g>
     <g id="text_5">
      <!-- 4 -->
      <g transform="translate(360.847063 291.410438)scale(0.1 -0.1)">
       <use xlink:href="#DejaVuSans-34"/>
      </g>
     </g>
    </g>
    <g id="text_6">
     <!-- x1 -->
     <defs>
      <path d="M 54.890625 54.6875 
L 35.109375 28.078125 
L 55.90625 0 
L 45.3125 0 
L 29.390625 21.484375 
L 13.484375 0 
L 2.875 0 
L 24.125 28.609375 
L 4.6875 54.6875 
L 15.28125 54.6875 
L 29.78125 35.203125 
L 44.28125 54.6875 
z
" id="DejaVuSans-78"/>
      <path d="M 12.40625 8.296875 
L 28.515625 8.296875 
L 28.515625 63.921875 
L 10.984375 60.40625 
L 10.984375 69.390625 
L 28.421875 72.90625 
L 38.28125 72.90625 
L 38.28125 8.296875 
L 54.390625 8.296875 
L 54.390625 0 
L 12.40625 0 
z
" id="DejaVuSans-31"/>
     </defs>
     <g transform="translate(215.039688 305.088562)scale(0.1 -0.1)">
      <use xlink:href="#DejaVuSans-78"/>
      <use x="59.179688" xlink:href="#DejaVuSans-31"/>
     </g>
    </g>
   </g>
   <g id="matplotlib.axis_2">
    <g id="ytick_1">
     <g id="line2d_6">
      <defs>
       <path d="M 0 0 
L -3.5 0 
" id="m532f9b74a2" style="stroke:#000000;stroke-width:0.8;"/>
      </defs>
      <g>
       <use style="stroke:#000000;stroke-width:0.8;" x="42.620313" xlink:href="#m532f9b74a2" y="250.2008"/>
      </g>
     </g>
     <g id="text_7">
      <!-- −4 -->
      <g transform="translate(20.878125 254.000019)scale(0.1 -0.1)">
       <use xlink:href="#DejaVuSans-2212"/>
       <use x="83.789062" xlink:href="#DejaVuSans-34"/>
      </g>
     </g>
    </g>
    <g id="ytick_2">
     <g id="line2d_7">
      <g>
       <use style="stroke:#000000;stroke-width:0.8;" x="42.620313" xlink:href="#m532f9b74a2" y="196.9784"/>
      </g>
     </g>
     <g id="text_8">
      <!-- −2 -->
      <g transform="translate(20.878125 200.777619)scale(0.1 -0.1)">
       <use xlink:href="#DejaVuSans-2212"/>
       <use x="83.789062" xlink:href="#DejaVuSans-32"/>
      </g>
     </g>
    </g>
    <g id="ytick_3">
     <g id="line2d_8">
      <g>
       <use style="stroke:#000000;stroke-width:0.8;" x="42.620313" xlink:href="#m532f9b74a2" y="143.756"/>
      </g>
     </g>
     <g id="text_9">
      <!-- 0 -->
      <g transform="translate(29.257813 147.555219)scale(0.1 -0.1)">
       <use xlink:href="#DejaVuSans-30"/>
      </g>
     </g>
    </g>
    <g id="ytick_4">
     <g id="line2d_9">
      <g>
       <use style="stroke:#000000;stroke-width:0.8;" x="42.620313" xlink:href="#m532f9b74a2" y="90.5336"/>
      </g>
     </g>
     <g id="text_10">
      <!-- 2 -->
      <g transform="translate(29.257813 94.332819)scale(0.1 -0.1)">
       <use xlink:href="#DejaVuSans-32"/>
      </g>
     </g>
    </g>
    <g id="ytick_5">
     <g id="line2d_10">
      <g>
       <use style="stroke:#000000;stroke-width:0.8;" x="42.620313" xlink:href="#m532f9b74a2" y="37.3112"/>
      </g>
     </g>
     <g id="text_11">
      <!-- 4 -->
      <g transform="translate(29.257813 41.110419)scale(0.1 -0.1)">
       <use xlink:href="#DejaVuSans-34"/>
      </g>
     </g>
    </g>
    <g id="text_12">
     <!-- x2 -->
     <g transform="translate(14.798438 149.896625)rotate(-90)scale(0.1 -0.1)">
      <use xlink:href="#DejaVuSans-78"/>
      <use x="59.179688" xlink:href="#DejaVuSans-32"/>
     </g>
    </g>
   </g>
   <g id="line2d_11">
    <path clip-path="url(#p7ea7c889bf)" d="M 221.180313 10.7 
L 227.063872 10.793541 
L 230.987016 11.031358 
L 233.580877 11.365008 
L 235.278851 11.761736 
L 236.377749 12.199548 
L 237.208906 12.782739 
L 237.667034 13.389347 
L 237.933907 14.133284 
L 238.039522 15.136135 
L 237.951916 16.892034 
L 237.396998 21.565098 
L 232.217596 61.531632 
L 224.777421 117.194467 
L 221.181069 143.750421 
L 221.181069 143.750421 
" style="fill:none;stroke:#1f77b4;stroke-linecap:square;stroke-width:0.5;"/>
   </g>
   <g id="line2d_12">
    <path clip-path="url(#p7ea7c889bf)" d="M 260.484341 10.7 
L 252.302718 11.739292 
L 247.275188 12.586208 
L 244.086523 13.312982 
L 242.024413 13.96282 
L 240.411231 14.70681 
L 239.437858 15.403701 
L 238.744052 16.203058 
L 238.281436 17.106008 
L 237.914849 18.365302 
L 237.522159 20.704596 
L 236.107685 31.645193 
L 229.977792 78.452669 
L 221.181053 143.750537 
L 221.181053 143.750537 
" style="fill:none;stroke:#1f77b4;stroke-linecap:square;stroke-width:0.5;"/>
   </g>
   <g id="line2d_13">
    <path clip-path="url(#p7ea7c889bf)" d="M 303.790965 10.7 
L 294.136653 11.278172 
L 286.433822 11.792102 
L 270.416888 13.056231 
L 260.470441 14.037731 
L 252.153893 15.074437 
L 247.040173 15.915537 
L 243.793971 16.634387 
L 241.292775 17.426218 
L 239.808704 18.145576 
L 238.909012 18.821513 
L 238.26402 19.598436 
L 237.83051 20.477195 
L 237.482704 21.70369 
L 237.08679 24.101487 
L 235.458689 36.682168 
L 229.199341 84.294295 
L 221.18104 143.750637 
L 221.18104 143.750637 
" style="fill:none;stroke:#1f77b4;stroke-linecap:square;stroke-width:0.5;"/>
   </g>
   <g id="line2d_14">
    <path clip-path="url(#p7ea7c889bf)" d="M 356.918096 10.7 
L 331.9657 11.611494 
L 302.894761 13.023492 
L 285.812338 14.104552 
L 269.976724 15.357103 
L 257.632621 16.610425 
L 250.337481 17.579323 
L 245.799979 18.375626 
L 242.899596 19.063083 
L 240.652825 19.826789 
L 239.31298 20.525239 
L 238.496396 21.184396 
L 237.906945 21.944243 
L 237.46428 22.926839 
L 237.108614 24.365429 
L 236.656267 27.404921 
L 221.717712 139.791866 
L 221.181028 143.750719 
L 221.181028 143.750719 
" style="fill:none;stroke:#1f77b4;stroke-linecap:square;stroke-width:0.5;"/>
   </g>
   <g id="line2d_15">
    <path clip-path="url(#p7ea7c889bf)" d="M 399.740313 30.737215 
L 356.34033 31.888239 
L 331.365817 32.795397 
L 302.141605 34.197398 
L 284.86781 35.265817 
L 268.74312 36.493996 
L 256.05535 37.705279 
L 248.480302 38.622829 
L 242.832005 39.525004 
L 239.556075 40.265296 
L 237.613044 40.910663 
L 236.440139 41.499266 
L 235.610462 42.161239 
L 235.070948 42.898458 
L 234.699226 43.816246 
L 234.375886 45.307396 
L 233.7906 49.53397 
L 226.271142 106.124825 
L 221.180906 143.75162 
L 221.180906 143.75162 
" style="fill:none;stroke:#1f77b4;stroke-linecap:square;stroke-width:0.5;"/>
   </g>
   <g id="line2d_16">
    <path clip-path="url(#p7ea7c889bf)" d="M 399.740313 73.214173 
L 355.912898 74.363473 
L 330.627924 75.266253 
L 300.873312 76.653219 
L 276.565302 78.13549 
L 258.728849 79.494314 
L 246.422773 80.641 
L 238.508105 81.573535 
L 233.833747 82.340948 
L 231.533289 82.934056 
L 230.375511 83.440518 
L 229.717736 83.966707 
L 229.333942 84.586708 
L 229.079242 85.481973 
L 228.719026 87.894045 
L 221.180663 143.753414 
L 221.180663 143.753414 
" style="fill:none;stroke:#1f77b4;stroke-linecap:square;stroke-width:0.5;"/>
   </g>
   <g id="line2d_17">
    <path clip-path="url(#p7ea7c889bf)" d="M 399.740313 106.813183 
L 355.574519 107.961118 
L 330.042894 108.860431 
L 299.864359 110.235453 
L 274.984177 111.688663 
L 253.224141 113.240709 
L 237.262821 114.605241 
L 229.451465 115.464074 
L 226.423347 115.99593 
L 225.385255 116.375831 
L 224.990984 116.731165 
L 224.798303 117.226939 
L 224.562167 118.787462 
L 221.180473 143.754818 
L 221.180473 143.754818 
" style="fill:none;stroke:#1f77b4;stroke-linecap:square;stroke-width:0.5;"/>
   </g>
   <g id="line2d_18">
    <path clip-path="url(#p7ea7c889bf)" d="M 399.740313 136.541913 
L 355.274914 137.688639 
L 329.524254 138.58488 
L 298.967368 139.949299 
L 273.572419 141.376616 
L 248.06329 143.07301 
L 221.020338 144.953518 
L 221.027344 144.884399 
L 221.180305 143.756055 
L 221.180305 143.756055 
" style="fill:none;stroke:#1f77b4;stroke-linecap:square;stroke-width:0.5;"/>
   </g>
   <g id="line2d_19">
    <path clip-path="url(#p7ea7c889bf)" d="M 399.740313 165.569424 
L 354.98218 166.714969 
L 329.016935 167.608207 
L 298.087733 168.96224 
L 272.182952 170.364113 
L 222.942295 173.193477 
L 219.330846 173.168124 
L 218.014926 172.973066 
L 217.551854 172.716893 
L 217.392973 172.383551 
L 217.398182 171.760913 
L 217.876812 168.145456 
L 221.180141 143.757262 
L 221.180141 143.757262 
" style="fill:none;stroke:#1f77b4;stroke-linecap:square;stroke-width:0.5;"/>
   </g>
   <g id="line2d_20">
    <path clip-path="url(#p7ea7c889bf)" d="M 399.740313 196.770356 
L 354.667324 197.914632 
L 328.470631 198.804637 
L 297.13798 200.147469 
L 264.484266 201.866993 
L 231.345425 203.628688 
L 222.16328 203.891629 
L 217.608124 203.810305 
L 215.363158 203.558509 
L 214.27466 203.223237 
L 213.762494 202.847954 
L 213.517954 202.397254 
L 213.437057 201.706948 
L 213.56054 200.273594 
L 215.058659 189.04961 
L 221.179965 143.758564 
L 221.179965 143.758564 
" style="fill:none;stroke:#1f77b4;stroke-linecap:square;stroke-width:0.5;"/>
   </g>
   <g id="line2d_21">
    <path clip-path="url(#p7ea7c889bf)" d="M 399.740313 233.970206 
L 354.291651 235.112969 
L 327.817936 235.999115 
L 295.999872 237.328543 
L 225.791329 240.584351 
L 218.861861 240.616344 
L 214.667726 240.445277 
L 212.148815 240.151691 
L 210.652846 239.784884 
L 209.777618 239.374869 
L 209.20747 238.850848 
L 208.905229 238.217246 
L 208.792552 237.389113 
L 208.868003 235.914843 
L 209.438707 231.341719 
L 216.216516 180.444354 
L 221.179753 143.76013 
L 221.179753 143.76013 
" style="fill:none;stroke:#1f77b4;stroke-linecap:square;stroke-width:0.5;"/>
   </g>
   <g id="line2d_22">
    <path clip-path="url(#p7ea7c889bf)" d="M 390.321329 276.812 
L 348.847797 277.902282 
" style="fill:none;stroke:#1f77b4;stroke-linecap:square;stroke-width:0.5;"/>
   </g>
   <g id="line2d_23">
    <path clip-path="url(#p7ea7c889bf)" d="M 328.6163 276.812 
L 309.743358 277.538461 
" style="fill:none;stroke:#1f77b4;stroke-linecap:square;stroke-width:0.5;"/>
   </g>
   <g id="line2d_24">
    <path clip-path="url(#p7ea7c889bf)" d="M 281.344181 276.812 
L 272.6259 277.226902 
" style="fill:none;stroke:#1f77b4;stroke-linecap:square;stroke-width:0.5;"/>
   </g>
   <g id="line2d_25">
    <path clip-path="url(#p7ea7c889bf)" d="M 240.599883 276.812 
L 237.010845 276.943101 
" style="fill:none;stroke:#1f77b4;stroke-linecap:square;stroke-width:0.5;"/>
   </g>
   <g id="line2d_26">
    <path clip-path="url(#p7ea7c889bf)" d="M 201.760742 276.812 
L 202.60569 276.105469 
L 203.213792 275.289811 
L 203.626855 274.364389 
L 203.99133 272.941978 
L 204.418877 270.161468 
L 207.355342 247.32398 
L 213.764082 198.706327 
L 221.179564 143.76152 
L 221.179564 143.76152 
" style="fill:none;stroke:#1f77b4;stroke-linecap:square;stroke-width:0.5;"/>
   </g>
   <g id="line2d_27">
    <path clip-path="url(#p7ea7c889bf)" d="M 161.016444 276.812 
L 174.958257 275.635653 
L 186.052902 274.438293 
L 192.67847 273.497986 
L 196.818131 272.714808 
L 199.470263 272.031046 
L 201.528121 271.263846 
L 202.757881 270.55647 
L 203.509943 269.885208 
L 204.056266 269.108453 
L 204.472033 268.101246 
L 204.815492 266.624018 
L 205.301948 263.263143 
L 216.342686 179.508181 
L 221.179579 143.761411 
L 221.179579 143.761411 
" style="fill:none;stroke:#1f77b4;stroke-linecap:square;stroke-width:0.5;"/>
   </g>
   <g id="line2d_28">
    <path clip-path="url(#p7ea7c889bf)" d="M 113.744325 276.812 
L 129.552207 276.073572 
L 141.257491 275.43638 
L 157.676777 274.376515 
L 173.02413 273.143066 
L 185.050412 271.903537 
L 192.176037 270.941496 
L 196.613055 270.148131 
L 199.450659 269.461229 
L 201.649543 268.696164 
L 202.961419 267.994976 
L 203.761571 267.332274 
L 204.340029 266.567565 
L 204.775846 265.57796 
L 205.128452 264.128421 
L 205.597139 260.948852 
L 218.635073 162.540471 
L 221.179591 143.76132 
L 221.179591 143.76132 
" style="fill:none;stroke:#1f77b4;stroke-linecap:square;stroke-width:0.5;"/>
   </g>
   <g id="line2d_29">
    <path clip-path="url(#p7ea7c889bf)" d="M 52.039296 276.812 
L 90.780208 275.710743 
L 113.841874 274.831094 
L 141.351446 273.456869 
L 157.780263 272.398473 
L 173.148606 271.167566 
L 185.203193 269.932177 
L 192.35257 268.975051 
L 196.808156 268.187239 
L 200.199911 267.348059 
L 202.191137 266.606677 
L 203.384665 265.923261 
L 204.116299 265.274938 
L 204.648839 264.524954 
L 205.054676 263.552745 
L 205.410765 262.009626 
L 205.921776 258.428963 
L 215.164422 188.262443 
L 221.179601 143.761245 
L 221.179601 143.761245 
" style="fill:none;stroke:#1f77b4;stroke-linecap:square;stroke-width:0.5;"/>
   </g>
   <g id="line2d_30">
    <path clip-path="url(#p7ea7c889bf)" d="M 42.620313 233.970206 
L 86.249721 232.820108 
L 111.390722 231.9153 
L 140.898921 230.521362 
L 158.430136 229.465018 
L 174.905664 228.261795 
L 187.993376 227.095065 
L 197.353714 226.049902 
L 203.448963 225.135482 
L 206.686759 224.422511 
L 208.448522 223.817796 
L 209.427145 223.272528 
L 210.052587 222.677484 
L 210.464292 221.94663 
L 210.753596 220.924202 
L 211.119754 218.560948 
L 221.17985 143.759413 
L 221.17985 143.759413 
" style="fill:none;stroke:#1f77b4;stroke-linecap:square;stroke-width:0.5;"/>
   </g>
   <g id="line2d_31">
    <path clip-path="url(#p7ea7c889bf)" d="M 42.620313 196.770356 
L 86.624217 195.621769 
L 112.037742 194.720796 
L 142.013017 193.340055 
L 166.618259 191.872918 
L 184.803257 190.543958 
L 199.222709 189.277668 
L 208.194541 188.27326 
L 212.135452 187.632188 
L 213.916164 187.152931 
L 214.805988 186.699766 
L 215.22645 186.242658 
L 215.465716 185.635902 
L 215.70607 184.221739 
L 220.089507 151.802928 
L 221.180061 143.757852 
L 221.180061 143.757852 
" style="fill:none;stroke:#1f77b4;stroke-linecap:square;stroke-width:0.5;"/>
   </g>
   <g id="line2d_32">
    <path clip-path="url(#p7ea7c889bf)" d="M 42.620313 165.569424 
L 86.938557 164.422105 
L 112.581558 163.524355 
L 142.95225 162.154724 
L 168.093334 160.71467 
L 190.230463 159.196598 
L 209.950176 157.624805 
L 217.50175 156.850966 
L 219.09822 156.512743 
L 219.433418 156.248047 
L 219.546604 155.79818 
L 220.863472 146.093138 
L 221.180238 143.756552 
L 221.180238 143.756552 
" style="fill:none;stroke:#1f77b4;stroke-linecap:square;stroke-width:0.5;"/>
   </g>
   <g id="line2d_33">
    <path clip-path="url(#p7ea7c889bf)" d="M 42.620313 136.541913 
L 87.23119 135.395774 
L 113.088423 134.501026 
L 143.829995 133.141765 
L 169.477458 131.727073 
L 202.793918 129.582632 
L 219.104594 128.614551 
L 222.29919 128.604138 
L 222.998708 128.778045 
L 223.138136 129.020177 
L 223.09799 129.60077 
L 221.180401 143.755346 
L 221.180401 143.755346 
" style="fill:none;stroke:#1f77b4;stroke-linecap:square;stroke-width:0.5;"/>
   </g>
   <g id="line2d_34">
    <path clip-path="url(#p7ea7c889bf)" d="M 42.620313 106.813183 
L 87.531093 105.668253 
L 113.608464 104.776583 
L 144.73288 103.427977 
L 177.008227 101.688116 
L 214.026853 99.624084 
L 221.239881 99.440997 
L 224.477761 99.553865 
L 225.915421 99.799094 
L 226.538006 100.102548 
L 226.810342 100.4726 
L 226.89716 101.023841 
L 226.789394 102.250165 
L 224.834445 116.772472 
L 221.180569 143.754108 
L 221.180569 143.754108 
" style="fill:none;stroke:#1f77b4;stroke-linecap:square;stroke-width:0.5;"/>
   </g>
   <g id="line2d_35">
    <path clip-path="url(#p7ea7c889bf)" d="M 42.620313 73.214173 
L 87.870269 72.07061 
L 114.197341 71.182423 
L 145.758108 69.8459 
L 178.828043 68.148643 
L 208.572703 66.645514 
L 218.957975 66.337274 
L 224.64789 66.377775 
L 227.755732 66.609305 
L 229.433738 66.94468 
L 230.32383 67.335717 
L 230.782065 67.75593 
L 231.027046 68.264121 
L 231.121931 69.002596 
L 231.0299 70.405614 
L 230.250986 76.39811 
L 221.558971 140.962854 
L 221.18076 143.752701 
L 221.18076 143.752701 
" style="fill:none;stroke:#1f77b4;stroke-linecap:square;stroke-width:0.5;"/>
   </g>
   <g id="line2d_36">
    <path clip-path="url(#p7ea7c889bf)" d="M 42.620313 30.737215 
L 88.299423 29.595381 
L 114.943539 28.711604 
L 147.061539 27.39042 
L 212.53673 24.435299 
L 222.246548 24.309186 
L 228.126696 24.467619 
L 231.660036 24.797884 
L 233.756027 25.230819 
L 234.979833 25.724237 
L 235.679002 26.252647 
L 236.064589 26.800764 
L 236.309056 27.584618 
L 236.37141 28.715605 
L 236.206337 30.74397 
L 235.16438 38.958884 
L 228.797712 87.301215 
L 221.181004 143.750899 
L 221.181004 143.750899 
" style="fill:none;stroke:#1f77b4;stroke-linecap:square;stroke-width:0.5;"/>
   </g>
   <g id="line2d_37">
    <path clip-path="url(#p7ea7c889bf)" d="M 85.442529 10.7 
L 113.308061 9.800032 
" style="fill:none;stroke:#1f77b4;stroke-linecap:square;stroke-width:0.5;"/>
   </g>
   <g id="line2d_38">
    <path clip-path="url(#p7ea7c889bf)" d="M 138.56966 10.7 
L 151.411182 10.134139 
" style="fill:none;stroke:#1f77b4;stroke-linecap:square;stroke-width:0.5;"/>
   </g>
   <g id="line2d_39">
    <path clip-path="url(#p7ea7c889bf)" d="M 181.876284 10.7 
L 187.676572 10.429203 
" style="fill:none;stroke:#1f77b4;stroke-linecap:square;stroke-width:0.5;"/>
   </g>
   <g id="line2d_40">
    <path clip-path="url(#p7ea7c889bf)" d="M 221.180312 10.7 
L 227.063872 10.793541 
L 230.987016 11.031358 
L 233.580877 11.365008 
L 235.278851 11.761736 
L 236.377749 12.199548 
L 237.208906 12.782739 
L 237.667034 13.389347 
L 237.933907 14.133284 
L 238.039522 15.136135 
L 237.951916 16.892034 
L 237.396998 21.565098 
L 232.217596 61.531632 
L 224.777421 117.194467 
L 221.181069 143.750421 
L 221.181069 143.750421 
" style="fill:none;stroke:#1f77b4;stroke-linecap:square;stroke-width:0.5;"/>
   </g>
   <g id="line2d_41">
    <path clip-path="url(#p7ea7c889bf)" d="M 221.180313 143.756 
" style="fill:none;stroke:#1f77b4;stroke-linecap:square;stroke-width:1.5;"/>
   </g>
   <g id="patch_56">
    <path d="M 42.620313 276.812 
L 42.620313 10.7 
" style="fill:none;stroke:#000000;stroke-linecap:square;stroke-linejoin:miter;stroke-width:0.8;"/>
   </g>
   <g id="patch_57">
    <path d="M 399.740313 276.812 
L 399.740313 10.7 
" style="fill:none;stroke:#000000;stroke-linecap:square;stroke-linejoin:miter;stroke-width:0.8;"/>
   </g>
   <g id="patch_58">
    <path d="M 42.620313 276.812 
L 399.740313 276.812 
" style="fill:none;stroke:#000000;stroke-linecap:square;stroke-linejoin:miter;stroke-width:0.8;"/>
   </g>
   <g id="patch_59">
    <path d="M 42.620313 10.7 
L 399.740313 10.7 
" style="fill:none;stroke:#000000;stroke-linecap:square;stroke-linejoin:miter;stroke-width:0.8;"/>
   </g>
   <g id="legend_1">
    <g id="patch_60">
     <path d="M 322.64875 273.812 
L 395.540313 273.812 
Q 396.740313 273.812 396.740313 272.612 
L 396.740313 264.405125 
Q 396.740313 263.205125 395.540313 263.205125 
L 322.64875 263.205125 
Q 321.44875 263.205125 321.44875 264.405125 
L 321.44875 272.612 
Q 321.44875 273.812 322.64875 273.812 
z
" style="fill:#ffffff;opacity:0.8;stroke:#cccccc;stroke-linejoin:miter;"/>
    </g>
    <g id="line2d_42">
     <path d="M 323.84875 268.064187 
L 335.84875 268.064187 
" style="fill:none;stroke:#1f77b4;stroke-linecap:square;stroke-width:1.5;"/>
    </g>
    <g id="line2d_43"/>
    <g id="text_13">
     <!-- system nieliniowy -->
     <defs>
      <path d="M 44.28125 53.078125 
L 44.28125 44.578125 
Q 40.484375 46.53125 36.375 47.5 
Q 32.28125 48.484375 27.875 48.484375 
Q 21.1875 48.484375 17.84375 46.4375 
Q 14.5 44.390625 14.5 40.28125 
Q 14.5 37.15625 16.890625 35.375 
Q 19.28125 33.59375 26.515625 31.984375 
L 29.59375 31.296875 
Q 39.15625 29.25 43.1875 25.515625 
Q 47.21875 21.78125 47.21875 15.09375 
Q 47.21875 7.46875 41.1875 3.015625 
Q 35.15625 -1.421875 24.609375 -1.421875 
Q 20.21875 -1.421875 15.453125 -0.5625 
Q 10.6875 0.296875 5.421875 2 
L 5.421875 11.28125 
Q 10.40625 8.6875 15.234375 7.390625 
Q 20.0625 6.109375 24.8125 6.109375 
Q 31.15625 6.109375 34.5625 8.28125 
Q 37.984375 10.453125 37.984375 14.40625 
Q 37.984375 18.0625 35.515625 20.015625 
Q 33.0625 21.96875 24.703125 23.78125 
L 21.578125 24.515625 
Q 13.234375 26.265625 9.515625 29.90625 
Q 5.8125 33.546875 5.8125 39.890625 
Q 5.8125 47.609375 11.28125 51.796875 
Q 16.75 56 26.8125 56 
Q 31.78125 56 36.171875 55.265625 
Q 40.578125 54.546875 44.28125 53.078125 
" id="DejaVuSans-73"/>
      <path d="M 32.171875 -5.078125 
Q 28.375 -14.84375 24.75 -17.8125 
Q 21.140625 -20.796875 15.09375 -20.796875 
L 7.90625 -20.796875 
L 7.90625 -13.28125 
L 13.1875 -13.28125 
Q 16.890625 -13.28125 18.9375 -11.515625 
Q 21 -9.765625 23.484375 -3.21875 
L 25.09375 0.875 
L 2.984375 54.6875 
L 12.5 54.6875 
L 29.59375 11.921875 
L 46.6875 54.6875 
L 56.203125 54.6875 
z
" id="DejaVuSans-79"/>
      <path d="M 18.3125 70.21875 
L 18.3125 54.6875 
L 36.8125 54.6875 
L 36.8125 47.703125 
L 18.3125 47.703125 
L 18.3125 18.015625 
Q 18.3125 11.328125 20.140625 9.421875 
Q 21.96875 7.515625 27.59375 7.515625 
L 36.8125 7.515625 
L 36.8125 0 
L 27.59375 0 
Q 17.1875 0 13.234375 3.875 
Q 9.28125 7.765625 9.28125 18.015625 
L 9.28125 47.703125 
L 2.6875 47.703125 
L 2.6875 54.6875 
L 9.28125 54.6875 
L 9.28125 70.21875 
z
" id="DejaVuSans-74"/>
      <path d="M 56.203125 29.59375 
L 56.203125 25.203125 
L 14.890625 25.203125 
Q 15.484375 15.921875 20.484375 11.0625 
Q 25.484375 6.203125 34.421875 6.203125 
Q 39.59375 6.203125 44.453125 7.46875 
Q 49.3125 8.734375 54.109375 11.28125 
L 54.109375 2.78125 
Q 49.265625 0.734375 44.1875 -0.34375 
Q 39.109375 -1.421875 33.890625 -1.421875 
Q 20.796875 -1.421875 13.15625 6.1875 
Q 5.515625 13.8125 5.515625 26.8125 
Q 5.515625 40.234375 12.765625 48.109375 
Q 20.015625 56 32.328125 56 
Q 43.359375 56 49.78125 48.890625 
Q 56.203125 41.796875 56.203125 29.59375 
M 47.21875 32.234375 
Q 47.125 39.59375 43.09375 43.984375 
Q 39.0625 48.390625 32.421875 48.390625 
Q 24.90625 48.390625 20.390625 44.140625 
Q 15.875 39.890625 15.1875 32.171875 
z
" id="DejaVuSans-65"/>
      <path d="M 52 44.1875 
Q 55.375 50.25 60.0625 53.125 
Q 64.75 56 71.09375 56 
Q 79.640625 56 84.28125 50.015625 
Q 88.921875 44.046875 88.921875 33.015625 
L 88.921875 0 
L 79.890625 0 
L 79.890625 32.71875 
Q 79.890625 40.578125 77.09375 44.375 
Q 74.3125 48.1875 68.609375 48.1875 
Q 61.625 48.1875 57.5625 43.546875 
Q 53.515625 38.921875 53.515625 30.90625 
L 53.515625 0 
L 44.484375 0 
L 44.484375 32.71875 
Q 44.484375 40.625 41.703125 44.40625 
Q 38.921875 48.1875 33.109375 48.1875 
Q 26.21875 48.1875 22.15625 43.53125 
Q 18.109375 38.875 18.109375 30.90625 
L 18.109375 0 
L 9.078125 0 
L 9.078125 54.6875 
L 18.109375 54.6875 
L 18.109375 46.1875 
Q 21.1875 51.21875 25.484375 53.609375 
Q 29.78125 56 35.6875 56 
Q 41.65625 56 45.828125 52.96875 
Q 50 49.953125 52 44.1875 
" id="DejaVuSans-6d"/>
      <path id="DejaVuSans-20"/>
      <path d="M 54.890625 33.015625 
L 54.890625 0 
L 45.90625 0 
L 45.90625 32.71875 
Q 45.90625 40.484375 42.875 44.328125 
Q 39.84375 48.1875 33.796875 48.1875 
Q 26.515625 48.1875 22.3125 43.546875 
Q 18.109375 38.921875 18.109375 30.90625 
L 18.109375 0 
L 9.078125 0 
L 9.078125 54.6875 
L 18.109375 54.6875 
L 18.109375 46.1875 
Q 21.34375 51.125 25.703125 53.5625 
Q 30.078125 56 35.796875 56 
Q 45.21875 56 50.046875 50.171875 
Q 54.890625 44.34375 54.890625 33.015625 
" id="DejaVuSans-6e"/>
      <path d="M 9.421875 54.6875 
L 18.40625 54.6875 
L 18.40625 0 
L 9.421875 0 
z
M 9.421875 75.984375 
L 18.40625 75.984375 
L 18.40625 64.59375 
L 9.421875 64.59375 
z
" id="DejaVuSans-69"/>
      <path d="M 9.421875 75.984375 
L 18.40625 75.984375 
L 18.40625 0 
L 9.421875 0 
z
" id="DejaVuSans-6c"/>
      <path d="M 30.609375 48.390625 
Q 23.390625 48.390625 19.1875 42.75 
Q 14.984375 37.109375 14.984375 27.296875 
Q 14.984375 17.484375 19.15625 11.84375 
Q 23.34375 6.203125 30.609375 6.203125 
Q 37.796875 6.203125 41.984375 11.859375 
Q 46.1875 17.53125 46.1875 27.296875 
Q 46.1875 37.015625 41.984375 42.703125 
Q 37.796875 48.390625 30.609375 48.390625 
M 30.609375 56 
Q 42.328125 56 49.015625 48.375 
Q 55.71875 40.765625 55.71875 27.296875 
Q 55.71875 13.875 49.015625 6.21875 
Q 42.328125 -1.421875 30.609375 -1.421875 
Q 18.84375 -1.421875 12.171875 6.21875 
Q 5.515625 13.875 5.515625 27.296875 
Q 5.515625 40.765625 12.171875 48.375 
Q 18.84375 56 30.609375 56 
" id="DejaVuSans-6f"/>
      <path d="M 4.203125 54.6875 
L 13.1875 54.6875 
L 24.421875 12.015625 
L 35.59375 54.6875 
L 46.1875 54.6875 
L 57.421875 12.015625 
L 68.609375 54.6875 
L 77.59375 54.6875 
L 63.28125 0 
L 52.6875 0 
L 40.921875 44.828125 
L 29.109375 0 
L 18.5 0 
z
" id="DejaVuSans-77"/>
     </defs>
     <g transform="translate(340.64875 270.164187)scale(0.06 -0.06)">
      <use xlink:href="#DejaVuSans-73"/>
      <use x="52.099609" xlink:href="#DejaVuSans-79"/>
      <use x="111.279297" xlink:href="#DejaVuSans-73"/>
      <use x="163.378906" xlink:href="#DejaVuSans-74"/>
      <use x="202.587891" xlink:href="#DejaVuSans-65"/>
      <use x="264.111328" xlink:href="#DejaVuSans-6d"/>
      <use x="361.523438" xlink:href="#DejaVuSans-20"/>
      <use x="393.310547" xlink:href="#DejaVuSans-6e"/>
      <use x="456.689453" xlink:href="#DejaVuSans-69"/>
      <use x="484.472656" xlink:href="#DejaVuSans-65"/>
      <use x="545.996094" xlink:href="#DejaVuSans-6c"/>
      <use x="573.779297" xlink:href="#DejaVuSans-69"/>
      <use x="601.5625" xlink:href="#DejaVuSans-6e"/>
      <use x="664.941406" xlink:href="#DejaVuSans-69"/>
      <use x="692.724609" xlink:href="#DejaVuSans-6f"/>
      <use x="753.90625" xlink:href="#DejaVuSans-77"/>
      <use x="835.693359" xlink:href="#DejaVuSans-79"/>
     </g>
    </g>
   </g>
  </g>
 </g>
 <defs>
  <clipPath id="p7ea7c889bf">
   <rect height="266.112" width="357.12" x="42.620313" y="10.7"/>
  </clipPath>
 </defs>
</svg>
