<?xml version="1.0" encoding="utf-8" standalone="no"?>
<!DOCTYPE svg PUBLIC "-//W3C//DTD SVG 1.1//EN"
  "http://www.w3.org/Graphics/SVG/1.1/DTD/svg11.dtd">
<!-- Created with matplotlib (http://matplotlib.org/) -->
<svg height="314pt" version="1.1" viewBox="0 0 410 314" width="410pt" xmlns="http://www.w3.org/2000/svg" xmlns:xlink="http://www.w3.org/1999/xlink">
 <defs>
  <style type="text/css">
*{stroke-linecap:butt;stroke-linejoin:round;}
  </style>
 </defs>
 <g id="figure_1">
  <g id="patch_1">
   <path d="M 0 314.36825 
L 410.440313 314.36825 
L 410.440313 0 
L 0 0 
z
" style="fill:#ffffff;"/>
  </g>
  <g id="axes_1">
   <g id="patch_2">
    <path d="M 42.620313 276.812 
L 399.740313 276.812 
L 399.740313 10.7 
L 42.620313 10.7 
z
" style="fill:#ffffff;"/>
   </g>
   <g id="patch_3">
    <path clip-path="url(#p826ea24346)" d="M 272.270071 16.178708 
L 264.457879 17.411494 
L 265.354059 14.849275 
L 265.361338 14.823189 
L 265.363066 14.823524 
L 266.259245 12.261305 
z
" style="fill:#ff7f0e;stroke:#ff7f0e;stroke-linejoin:miter;"/>
   </g>
   <g id="patch_4">
    <path clip-path="url(#p826ea24346)" d="M 375.264492 76.359644 
L 368.420895 73.293368 
L 371.420508 71.873923 
L 371.449697 71.858534 
L 371.450654 71.859657 
L 374.450267 70.440212 
z
" style="fill:#ff7f0e;stroke:#ff7f0e;stroke-linejoin:miter;"/>
   </g>
   <g id="patch_5">
    <path clip-path="url(#p826ea24346)" d="M 306.460955 24.784024 
L 298.475736 24.828886 
L 300.040833 22.451748 
L 300.054939 22.427264 
L 300.056563 22.427858 
L 301.62166 20.05072 
z
" style="fill:#ff7f0e;stroke:#ff7f0e;stroke-linejoin:miter;"/>
   </g>
   <g id="patch_6">
    <path clip-path="url(#p826ea24346)" d="M 369.521473 66.46442 
L 362.374838 63.809621 
L 365.21498 62.218418 
L 365.242437 62.201349 
L 365.243524 62.202427 
L 368.083665 60.611224 
z
" style="fill:#ff7f0e;stroke:#ff7f0e;stroke-linejoin:miter;"/>
   </g>
   <g id="patch_7">
    <path clip-path="url(#p826ea24346)" d="M 319.652141 24.115896 
L 311.678143 23.79738 
L 313.435092 21.495883 
L 313.451114 21.472059 
L 313.45275 21.472752 
L 315.209699 19.171255 
z
" style="fill:#ff7f0e;stroke:#ff7f0e;stroke-linejoin:miter;"/>
   </g>
   <g id="patch_8">
    <path clip-path="url(#p826ea24346)" d="M 368.736419 56.530357 
L 361.392474 54.19361 
L 364.102005 52.480599 
L 364.128019 52.462313 
L 364.129237 52.463382 
L 366.838767 50.750371 
z
" style="fill:#ff7f0e;stroke:#ff7f0e;stroke-linejoin:miter;"/>
   </g>
   <g id="patch_9">
    <path clip-path="url(#p826ea24346)" d="M 339.834565 22.16904 
L 331.921423 21.370107 
L 333.922858 19.182261 
L 333.941307 19.159426 
L 333.942973 19.160272 
L 335.944409 16.972426 
z
" style="fill:#ff7f0e;stroke:#ff7f0e;stroke-linejoin:miter;"/>
   </g>
   <g id="patch_10">
    <path clip-path="url(#p826ea24346)" d="M 375.219409 46.670768 
L 367.787943 44.493079 
L 370.429935 42.722458 
L 370.45514 42.703546 
L 370.456488 42.704663 
L 373.098481 40.934042 
z
" style="fill:#ff7f0e;stroke:#ff7f0e;stroke-linejoin:miter;"/>
   </g>
   <g id="patch_11">
    <path clip-path="url(#p826ea24346)" d="M 366.212903 17.10435 
L 358.412645 15.830294 
L 360.645386 13.770476 
L 360.666088 13.748729 
L 360.667826 13.749774 
L 362.900566 11.689956 
z
" style="fill:#ff7f0e;stroke:#ff7f0e;stroke-linejoin:miter;"/>
   </g>
   <g id="patch_12">
    <path clip-path="url(#p826ea24346)" d="M 389.98379 34.67655 
L 382.526599 32.548249 
L 385.147332 30.760171 
L 385.172163 30.740973 
L 385.173671 30.7422 
L 387.794405 28.954122 
z
" style="fill:#ff7f0e;stroke:#ff7f0e;stroke-linejoin:miter;"/>
   </g>
   <g id="patch_13">
    <path clip-path="url(#p826ea24346)" d="M 404.663399 19.812479 
L 397.153878 17.788925 
L 399.729078 15.964482 
L 399.753253 15.944809 
L 399.754959 15.946146 
L 402.330159 14.121703 
z
" style="fill:#ff7f0e;stroke:#ff7f0e;stroke-linejoin:miter;"/>
   </g>
   <g id="patch_14">
    <path clip-path="url(#p826ea24346)" d="M 403.76885 56.31089 
L 396.792188 53.415909 
L 399.726789 51.922912 
L 399.755059 51.906572 
L 399.756283 51.907907 
L 402.690884 50.41491 
z
" style="fill:#ff7f0e;stroke:#ff7f0e;stroke-linejoin:miter;"/>
   </g>
   <g id="patch_15">
    <path clip-path="url(#p826ea24346)" d="M 402.770093 85.441431 
L 396.506982 81.750002 
L 399.72498 80.627119 
L 399.756483 80.6145 
L 399.757321 80.615834 
L 402.975319 79.492951 
z
" style="fill:#ff7f0e;stroke:#ff7f0e;stroke-linejoin:miter;"/>
   </g>
   <g id="patch_16">
    <path clip-path="url(#p826ea24346)" d="M 401.692943 110.336786 
L 396.305595 105.944515 
L 399.723644 105.220829 
L 399.757489 105.212223 
L 399.757997 105.213555 
L 403.176046 104.489869 
z
" style="fill:#ff7f0e;stroke:#ff7f0e;stroke-linejoin:miter;"/>
   </g>
   <g id="patch_17">
    <path clip-path="url(#p826ea24346)" d="M 400.565316 132.888042 
L 396.193212 127.908711 
L 399.722784 127.602944 
L 399.758049 127.59854 
L 399.758257 127.599871 
L 403.287829 127.294105 
z
" style="fill:#ff7f0e;stroke:#ff7f0e;stroke-linejoin:miter;"/>
   </g>
   <g id="patch_18">
    <path clip-path="url(#p826ea24346)" d="M 390.901431 185.700451 
L 389.484605 179.844415 
L 392.894336 180.589572 
L 392.929107 180.595783 
L 392.928604 180.597061 
L 396.338335 181.342218 
z
" style="fill:#ff7f0e;stroke:#ff7f0e;stroke-linejoin:miter;"/>
   </g>
   <g id="patch_19">
    <path clip-path="url(#p826ea24346)" d="M 303.839402 261.908648 
L 308.293014 256.969589 
L 310.044758 259.273288 
L 310.063918 259.295785 
L 310.062364 259.296441 
L 311.814108 261.60014 
z
" style="fill:#ff7f0e;stroke:#ff7f0e;stroke-linejoin:miter;"/>
   </g>
   <g id="patch_20">
    <path clip-path="url(#p826ea24346)" d="M 389.795234 195.487268 
L 388.940257 189.571027 
L 392.270336 190.494795 
L 392.30444 190.502807 
L 392.303804 190.504079 
L 395.633883 191.427847 
z
" style="fill:#ff7f0e;stroke:#ff7f0e;stroke-linejoin:miter;"/>
   </g>
   <g id="patch_21">
    <path clip-path="url(#p826ea24346)" d="M 331.566688 251.908242 
L 334.842792 246.481622 
L 337.089274 248.533127 
L 337.113263 248.552887 
L 337.111851 248.553745 
L 339.358333 250.605251 
z
" style="fill:#ff7f0e;stroke:#ff7f0e;stroke-linejoin:miter;"/>
   </g>
   <g id="patch_22">
    <path clip-path="url(#p826ea24346)" d="M 389.775418 210.748221 
L 389.72621 204.797889 
L 392.914149 205.967411 
L 392.947032 205.977888 
L 392.946189 205.979165 
L 396.134128 207.148687 
z
" style="fill:#ff7f0e;stroke:#ff7f0e;stroke-linejoin:miter;"/>
   </g>
   <g id="patch_23">
    <path clip-path="url(#p826ea24346)" d="M 327.626577 261.990706 
L 331.341293 256.723295 
L 333.415456 258.873198 
L 333.437852 258.893975 
L 333.436302 258.894805 
L 335.510464 261.044709 
z
" style="fill:#ff7f0e;stroke:#ff7f0e;stroke-linejoin:miter;"/>
   </g>
   <g id="patch_24">
    <path clip-path="url(#p826ea24346)" d="M 383.085177 238.992787 
L 384.475105 233.133173 
L 387.328203 234.711453 
L 387.358106 234.726081 
L 387.356877 234.727315 
L 390.209975 236.305595 
z
" style="fill:#ff7f0e;stroke:#ff7f0e;stroke-linejoin:miter;"/>
   </g>
   <g id="patch_25">
    <path clip-path="url(#p826ea24346)" d="M 360.655313 256.997438 
L 363.280316 251.377681 
L 365.759523 253.274521 
L 365.785917 253.292513 
L 365.78444 253.293585 
L 368.263647 255.190425 
z
" style="fill:#ff7f0e;stroke:#ff7f0e;stroke-linejoin:miter;"/>
   </g>
   <g id="patch_26">
    <path clip-path="url(#p826ea24346)" d="M 390.577256 260.338517 
L 392.599728 254.582082 
L 395.27184 256.327426 
L 395.300215 256.343675 
L 395.298696 256.344967 
L 397.970808 258.09031 
z
" style="fill:#ff7f0e;stroke:#ff7f0e;stroke-linejoin:miter;"/>
   </g>
   <g id="patch_27">
    <path clip-path="url(#p826ea24346)" d="M 379.219721 268.88177 
L 381.777518 263.244832 
L 384.279275 265.125159 
L 384.306056 265.142848 
L 384.304419 265.144057 
L 386.806177 267.024384 
z
" style="fill:#ff7f0e;stroke:#ff7f0e;stroke-linejoin:miter;"/>
   </g>
   <g id="patch_28">
    <path clip-path="url(#p826ea24346)" d="M 373.998628 280.322108 
L 377.014394 274.812322 
L 379.357103 276.803168 
L 379.382441 276.822004 
L 379.380647 276.823176 
L 381.723356 278.814022 
z
" style="fill:#ff7f0e;stroke:#ff7f0e;stroke-linejoin:miter;"/>
   </g>
   <g id="patch_29">
    <path clip-path="url(#p826ea24346)" d="M 328.036949 279.634413 
L 332.199757 274.556458 
L 334.083557 276.801553 
L 334.104281 276.823282 
L 334.10249 276.824116 
L 335.98629 279.069211 
z
" style="fill:#ff7f0e;stroke:#ff7f0e;stroke-linejoin:miter;"/>
   </g>
   <g id="patch_30">
    <path clip-path="url(#p826ea24346)" d="M 290.670777 278.873703 
L 295.872811 274.359097 
L 297.248914 276.800293 
L 297.264534 276.824267 
L 297.262744 276.824827 
L 298.638848 279.266023 
z
" style="fill:#ff7f0e;stroke:#ff7f0e;stroke-linejoin:miter;"/>
   </g>
   <g id="patch_31">
    <path clip-path="url(#p826ea24346)" d="M 258.24613 278.059646 
L 264.352662 274.225314 
L 265.185427 276.799386 
L 265.195584 276.824935 
L 265.193797 276.825256 
L 266.026562 279.399328 
z
" style="fill:#ff7f0e;stroke:#ff7f0e;stroke-linejoin:miter;"/>
   </g>
   <g id="patch_32">
    <path clip-path="url(#p826ea24346)" d="M 228.471309 277.213371 
L 235.324129 274.158555 
L 235.592033 276.798833 
L 235.596512 276.825268 
L 235.594726 276.825368 
L 235.86263 279.465646 
z
" style="fill:#ff7f0e;stroke:#ff7f0e;stroke-linejoin:miter;"/>
   </g>
   <g id="patch_33">
    <path clip-path="url(#p826ea24346)" d="M 148.021369 265.692945 
L 155.982477 265.22872 
L 154.646165 267.68216 
L 154.634395 267.70732 
L 154.632735 267.706818 
L 153.296423 270.160257 
z
" style="fill:#ff7f0e;stroke:#ff7f0e;stroke-linejoin:miter;"/>
   </g>
   <g id="patch_34">
    <path clip-path="url(#p826ea24346)" d="M 87.654103 232.865975 
L 95.177319 234.861084 
L 92.614586 236.695249 
L 92.590071 236.714645 
L 92.58883 236.713683 
L 90.026097 238.547848 
z
" style="fill:#ff7f0e;stroke:#ff7f0e;stroke-linejoin:miter;"/>
   </g>
   <g id="patch_35">
    <path clip-path="url(#p826ea24346)" d="M 131.272566 263.389114 
L 139.257336 263.46652 
L 137.627023 265.819193 
L 137.612272 265.843467 
L 137.610638 265.842838 
L 135.980325 268.195511 
z
" style="fill:#ff7f0e;stroke:#ff7f0e;stroke-linejoin:miter;"/>
   </g>
   <g id="patch_36">
    <path clip-path="url(#p826ea24346)" d="M 85.33404 236.241317 
L 92.880779 238.18647 
L 90.340047 240.037553 
L 90.315798 240.057137 
L 90.314512 240.056157 
L 87.773781 241.907239 
z
" style="fill:#ff7f0e;stroke:#ff7f0e;stroke-linejoin:miter;"/>
   </g>
   <g id="patch_37">
    <path clip-path="url(#p826ea24346)" d="M 123.084988 268.636329 
L 131.065786 268.839302 
L 129.369197 271.16581 
L 129.353851 271.189882 
L 129.352146 271.189192 
L 127.655556 273.515699 
z
" style="fill:#ff7f0e;stroke:#ff7f0e;stroke-linejoin:miter;"/>
   </g>
   <g id="patch_38">
    <path clip-path="url(#p826ea24346)" d="M 66.735775 231.468359 
L 74.013717 233.917084 
L 71.257512 235.588238 
L 71.231036 235.606155 
L 71.229811 235.605033 
L 68.473606 237.276187 
z
" style="fill:#ff7f0e;stroke:#ff7f0e;stroke-linejoin:miter;"/>
   </g>
   <g id="patch_39">
    <path clip-path="url(#p826ea24346)" d="M 85.398836 264.445967 
L 93.216713 265.658579 
L 91.013284 267.73585 
L 90.992796 267.757703 
L 90.991139 267.756727 
L 88.787709 269.833997 
z
" style="fill:#ff7f0e;stroke:#ff7f0e;stroke-linejoin:miter;"/>
   </g>
   <g id="patch_40">
    <path clip-path="url(#p826ea24346)" d="M 64.12611 249.146367 
L 71.640405 251.160056 
L 69.069523 252.987878 
L 69.045144 253.007387 
L 69.043685 253.006248 
L 66.472804 254.83407 
z
" style="fill:#ff7f0e;stroke:#ff7f0e;stroke-linejoin:miter;"/>
   </g>
   <g id="patch_41">
    <path clip-path="url(#p826ea24346)" d="M 54.222987 270.798885 
L 61.883305 272.479528 
L 59.461249 274.416933 
L 59.438653 274.437616 
L 59.436907 274.436404 
L 57.014851 276.373809 
z
" style="fill:#ff7f0e;stroke:#ff7f0e;stroke-linejoin:miter;"/>
   </g>
   <g id="patch_42">
    <path clip-path="url(#p826ea24346)" d="M 45.910722 264.422262 
L 53.448754 266.386074 
L 50.899789 268.230861 
L 50.875833 268.250676 
L 50.874171 268.249401 
L 48.325207 270.094188 
z
" style="fill:#ff7f0e;stroke:#ff7f0e;stroke-linejoin:miter;"/>
   </g>
   <g id="patch_43">
    <path clip-path="url(#p826ea24346)" d="M 38.12996 248.251779 
L 45.396616 250.719047 
L 42.632752 252.383163 
L 42.606424 252.401224 
L 42.604975 252.399888 
L 39.841112 254.064004 
z
" style="fill:#ff7f0e;stroke:#ff7f0e;stroke-linejoin:miter;"/>
   </g>
   <g id="patch_44">
    <path clip-path="url(#p826ea24346)" d="M 39.079684 215.951876 
L 45.721107 219.255794 
L 42.6348 220.567989 
L 42.604803 220.582511 
L 42.603782 220.581177 
L 39.517474 221.893372 
z
" style="fill:#ff7f0e;stroke:#ff7f0e;stroke-linejoin:miter;"/>
   </g>
   <g id="patch_45">
    <path clip-path="url(#p826ea24346)" d="M 40.12101 189.230209 
L 45.96519 193.285209 
L 42.636372 194.211497 
L 42.603585 194.222139 
L 42.602917 194.220806 
L 39.274099 195.147095 
z
" style="fill:#ff7f0e;stroke:#ff7f0e;stroke-linejoin:miter;"/>
   </g>
   <g id="patch_46">
    <path clip-path="url(#p826ea24346)" d="M 41.226996 165.698203 
L 46.122582 170.399255 
L 42.63747 170.91565 
L 42.602799 170.922172 
L 42.602444 170.92084 
L 39.117332 171.437235 
z
" style="fill:#ff7f0e;stroke:#ff7f0e;stroke-linejoin:miter;"/>
   </g>
   <g id="patch_47">
    <path clip-path="url(#p826ea24346)" d="M 42.368908 143.797699 
L 46.189238 149.022998 
L 42.638095 149.116174 
L 42.602468 149.118442 
L 42.602405 149.117111 
L 39.051261 149.210288 
z
" style="fill:#ff7f0e;stroke:#ff7f0e;stroke-linejoin:miter;"/>
   </g>
   <g id="patch_48">
    <path clip-path="url(#p826ea24346)" d="M 48.745536 105.337519 
L 50.393189 111.159923 
L 46.955488 110.489916 
L 46.920483 110.484479 
L 46.920938 110.483182 
L 43.483236 109.813175 
z
" style="fill:#ff7f0e;stroke:#ff7f0e;stroke-linejoin:miter;"/>
   </g>
   <g id="patch_49">
    <path clip-path="url(#p826ea24346)" d="M 127.068481 29.439905 
L 123.085545 34.597346 
L 121.123496 32.389779 
L 121.102277 32.368333 
L 121.103777 32.367593 
L 119.141727 30.160026 
z
" style="fill:#ff7f0e;stroke:#ff7f0e;stroke-linejoin:miter;"/>
   </g>
   <g id="patch_50">
    <path clip-path="url(#p826ea24346)" d="M 62.644278 71.268889 
L 62.218974 77.210888 
L 59.129913 75.902296 
L 59.097948 75.890349 
L 59.098867 75.889145 
L 56.009806 74.580553 
z
" style="fill:#ff7f0e;stroke:#ff7f0e;stroke-linejoin:miter;"/>
   </g>
   <g id="patch_51">
    <path clip-path="url(#p826ea24346)" d="M 114.559355 30.186775 
L 110.990703 35.509964 
L 108.857683 33.392279 
L 108.834759 33.371827 
L 108.836246 33.370996 
L 106.703226 31.253311 
z
" style="fill:#ff7f0e;stroke:#ff7f0e;stroke-linejoin:miter;"/>
   </g>
   <g id="patch_52">
    <path clip-path="url(#p826ea24346)" d="M 57.890989 60.658201 
L 57.058911 66.576254 
L 54.063588 65.151789 
L 54.032421 65.138714 
L 54.033484 65.137473 
L 51.038161 63.713007 
z
" style="fill:#ff7f0e;stroke:#ff7f0e;stroke-linejoin:miter;"/>
   </g>
   <g id="patch_53">
    <path clip-path="url(#p826ea24346)" d="M 102.837931 25.713326 
L 99.477144 31.111116 
L 97.262913 29.040233 
L 97.239114 29.020338 
L 97.24066 29.01942 
L 95.026429 26.948537 
z
" style="fill:#ff7f0e;stroke:#ff7f0e;stroke-linejoin:miter;"/>
   </g>
   <g id="patch_54">
    <path clip-path="url(#p826ea24346)" d="M 57.584166 37.465956 
L 55.798677 43.265752 
L 53.056245 41.582062 
L 53.027304 41.566389 
L 53.028683 41.565141 
L 50.286252 39.881452 
z
" style="fill:#ff7f0e;stroke:#ff7f0e;stroke-linejoin:miter;"/>
   </g>
   <g id="patch_55">
    <path clip-path="url(#p826ea24346)" d="M 72.641639 25.82662 
L 70.088058 31.464619 
L 67.584894 29.585331 
L 67.558197 29.567583 
L 67.559737 29.566444 
L 65.056573 27.687156 
z
" style="fill:#ff7f0e;stroke:#ff7f0e;stroke-linejoin:miter;"/>
   </g>
   <g id="patch_56">
    <path clip-path="url(#p826ea24346)" d="M 47.595956 12.133093 
L 45.184945 17.805839 
L 42.634851 15.961919 
L 42.607498 15.944711 
L 42.609222 15.943387 
L 40.059128 14.099467 
z
" style="fill:#ff7f0e;stroke:#ff7f0e;stroke-linejoin:miter;"/>
   </g>
   <g id="patch_57">
    <path clip-path="url(#p826ea24346)" d="M 52.972012 8.312245 
L 50.334488 13.928746 
L 47.859512 12.02884 
L 47.832861 12.011031 
L 47.834638 12.009746 
L 45.359662 10.109841 
z
" style="fill:#ff7f0e;stroke:#ff7f0e;stroke-linejoin:miter;"/>
   </g>
   <g id="patch_58">
    <path clip-path="url(#p826ea24346)" d="M 92.734717 7.523452 
L 89.133753 12.834545 
L 87.013624 10.709685 
L 86.990523 10.689322 
L 86.992316 10.688329 
L 84.872186 8.563469 
z
" style="fill:#ff7f0e;stroke:#ff7f0e;stroke-linejoin:miter;"/>
   </g>
   <g id="patch_59">
    <path clip-path="url(#p826ea24346)" d="M 133.807711 8.250005 
L 129.110057 13.061889 
L 127.474803 10.711121 
L 127.456578 10.688187 
L 127.458368 10.687496 
L 125.823113 8.336728 
z
" style="fill:#ff7f0e;stroke:#ff7f0e;stroke-linejoin:miter;"/>
   </g>
   <g id="patch_60">
    <path clip-path="url(#p826ea24346)" d="M 168.356287 9.039947 
L 162.683609 13.227997 
L 161.575582 10.712205 
L 161.562657 10.687358 
L 161.564446 10.68692 
L 160.456419 8.171129 
z
" style="fill:#ff7f0e;stroke:#ff7f0e;stroke-linejoin:miter;"/>
   </g>
   <g id="patch_61">
    <path clip-path="url(#p826ea24346)" d="M 199.218931 9.872829 
L 192.718163 13.328591 
L 192.16605 10.712935 
L 192.158714 10.686856 
L 192.160501 10.686647 
L 191.608387 8.07099 
z
" style="fill:#ff7f0e;stroke:#ff7f0e;stroke-linejoin:miter;"/>
   </g>
   <g id="patch_62">
    <path clip-path="url(#p826ea24346)" d="M 256.675329 13.273812 
L 249.043389 15.024676 
L 249.626986 12.412818 
L 249.63109 12.386349 
L 249.632852 12.386568 
L 250.216449 9.774709 
z
" style="fill:#ff7f0e;stroke:#ff7f0e;stroke-linejoin:miter;"/>
   </g>
   <g id="patch_63">
    <path clip-path="url(#p826ea24346)" d="M 370.551572 70.705371 
L 363.510859 67.897812 
L 366.411513 66.368422 
L 366.439634 66.351965 
L 366.440666 66.353052 
L 369.34132 64.823662 
z
" style="fill:#ff7f0e;stroke:#ff7f0e;stroke-linejoin:miter;"/>
   </g>
   <g id="matplotlib.axis_1">
    <g id="xtick_1">
     <g id="line2d_1">
      <defs>
       <path d="M 0 0 
L 0 3.5 
" id="m8b3a3da8d5" style="stroke:#000000;stroke-width:0.8;"/>
      </defs>
      <g>
       <use style="stroke:#000000;stroke-width:0.8;" x="78.332313" xlink:href="#m8b3a3da8d5" y="276.812"/>
      </g>
     </g>
     <g id="text_1">
      <!-- −4 -->
      <defs>
       <path d="M 10.59375 35.5 
L 73.1875 35.5 
L 73.1875 27.203125 
L 10.59375 27.203125 
z
" id="DejaVuSans-2212"/>
       <path d="M 37.796875 64.3125 
L 12.890625 25.390625 
L 37.796875 25.390625 
z
M 35.203125 72.90625 
L 47.609375 72.90625 
L 47.609375 25.390625 
L 58.015625 25.390625 
L 58.015625 17.1875 
L 47.609375 17.1875 
L 47.609375 0 
L 37.796875 0 
L 37.796875 17.1875 
L 4.890625 17.1875 
L 4.890625 26.703125 
z
" id="DejaVuSans-34"/>
      </defs>
      <g transform="translate(70.961219 291.410438)scale(0.1 -0.1)">
       <use xlink:href="#DejaVuSans-2212"/>
       <use x="83.789062" xlink:href="#DejaVuSans-34"/>
      </g>
     </g>
    </g>
    <g id="xtick_2">
     <g id="line2d_2">
      <g>
       <use style="stroke:#000000;stroke-width:0.8;" x="149.756313" xlink:href="#m8b3a3da8d5" y="276.812"/>
      </g>
     </g>
     <g id="text_2">
      <!-- −2 -->
      <defs>
       <path d="M 19.1875 8.296875 
L 53.609375 8.296875 
L 53.609375 0 
L 7.328125 0 
L 7.328125 8.296875 
Q 12.9375 14.109375 22.625 23.890625 
Q 32.328125 33.6875 34.8125 36.53125 
Q 39.546875 41.84375 41.421875 45.53125 
Q 43.3125 49.21875 43.3125 52.78125 
Q 43.3125 58.59375 39.234375 62.25 
Q 35.15625 65.921875 28.609375 65.921875 
Q 23.96875 65.921875 18.8125 64.3125 
Q 13.671875 62.703125 7.8125 59.421875 
L 7.8125 69.390625 
Q 13.765625 71.78125 18.9375 73 
Q 24.125 74.21875 28.421875 74.21875 
Q 39.75 74.21875 46.484375 68.546875 
Q 53.21875 62.890625 53.21875 53.421875 
Q 53.21875 48.921875 51.53125 44.890625 
Q 49.859375 40.875 45.40625 35.40625 
Q 44.1875 33.984375 37.640625 27.21875 
Q 31.109375 20.453125 19.1875 8.296875 
" id="DejaVuSans-32"/>
      </defs>
      <g transform="translate(142.385219 291.410438)scale(0.1 -0.1)">
       <use xlink:href="#DejaVuSans-2212"/>
       <use x="83.789062" xlink:href="#DejaVuSans-32"/>
      </g>
     </g>
    </g>
    <g id="xtick_3">
     <g id="line2d_3">
      <g>
       <use style="stroke:#000000;stroke-width:0.8;" x="221.180313" xlink:href="#m8b3a3da8d5" y="276.812"/>
      </g>
     </g>
     <g id="text_3">
      <!-- 0 -->
      <defs>
       <path d="M 31.78125 66.40625 
Q 24.171875 66.40625 20.328125 58.90625 
Q 16.5 51.421875 16.5 36.375 
Q 16.5 21.390625 20.328125 13.890625 
Q 24.171875 6.390625 31.78125 6.390625 
Q 39.453125 6.390625 43.28125 13.890625 
Q 47.125 21.390625 47.125 36.375 
Q 47.125 51.421875 43.28125 58.90625 
Q 39.453125 66.40625 31.78125 66.40625 
M 31.78125 74.21875 
Q 44.046875 74.21875 50.515625 64.515625 
Q 56.984375 54.828125 56.984375 36.375 
Q 56.984375 17.96875 50.515625 8.265625 
Q 44.046875 -1.421875 31.78125 -1.421875 
Q 19.53125 -1.421875 13.0625 8.265625 
Q 6.59375 17.96875 6.59375 36.375 
Q 6.59375 54.828125 13.0625 64.515625 
Q 19.53125 74.21875 31.78125 74.21875 
" id="DejaVuSans-30"/>
      </defs>
      <g transform="translate(217.999063 291.410438)scale(0.1 -0.1)">
       <use xlink:href="#DejaVuSans-30"/>
      </g>
     </g>
    </g>
    <g id="xtick_4">
     <g id="line2d_4">
      <g>
       <use style="stroke:#000000;stroke-width:0.8;" x="292.604312" xlink:href="#m8b3a3da8d5" y="276.812"/>
      </g>
     </g>
     <g id="text_4">
      <!-- 2 -->
      <g transform="translate(289.423063 291.410438)scale(0.1 -0.1)">
       <use xlink:href="#DejaVuSans-32"/>
      </g>
     </g>
    </g>
    <g id="xtick_5">
     <g id="line2d_5">
      <g>
       <use style="stroke:#000000;stroke-width:0.8;" x="364.028313" xlink:href="#m8b3a3da8d5" y="276.812"/>
      </g>
     </g>
     <g id="text_5">
      <!-- 4 -->
      <g transform="translate(360.847063 291.410438)scale(0.1 -0.1)">
       <use xlink:href="#DejaVuSans-34"/>
      </g>
     </g>
    </g>
    <g id="text_6">
     <!-- x1 -->
     <defs>
      <path d="M 54.890625 54.6875 
L 35.109375 28.078125 
L 55.90625 0 
L 45.3125 0 
L 29.390625 21.484375 
L 13.484375 0 
L 2.875 0 
L 24.125 28.609375 
L 4.6875 54.6875 
L 15.28125 54.6875 
L 29.78125 35.203125 
L 44.28125 54.6875 
z
" id="DejaVuSans-78"/>
      <path d="M 12.40625 8.296875 
L 28.515625 8.296875 
L 28.515625 63.921875 
L 10.984375 60.40625 
L 10.984375 69.390625 
L 28.421875 72.90625 
L 38.28125 72.90625 
L 38.28125 8.296875 
L 54.390625 8.296875 
L 54.390625 0 
L 12.40625 0 
z
" id="DejaVuSans-31"/>
     </defs>
     <g transform="translate(215.039688 305.088562)scale(0.1 -0.1)">
      <use xlink:href="#DejaVuSans-78"/>
      <use x="59.179688" xlink:href="#DejaVuSans-31"/>
     </g>
    </g>
   </g>
   <g id="matplotlib.axis_2">
    <g id="ytick_1">
     <g id="line2d_6">
      <defs>
       <path d="M 0 0 
L -3.5 0 
" id="me29e52e5ab" style="stroke:#000000;stroke-width:0.8;"/>
      </defs>
      <g>
       <use style="stroke:#000000;stroke-width:0.8;" x="42.620313" xlink:href="#me29e52e5ab" y="250.2008"/>
      </g>
     </g>
     <g id="text_7">
      <!-- −4 -->
      <g transform="translate(20.878125 254.000019)scale(0.1 -0.1)">
       <use xlink:href="#DejaVuSans-2212"/>
       <use x="83.789062" xlink:href="#DejaVuSans-34"/>
      </g>
     </g>
    </g>
    <g id="ytick_2">
     <g id="line2d_7">
      <g>
       <use style="stroke:#000000;stroke-width:0.8;" x="42.620313" xlink:href="#me29e52e5ab" y="196.9784"/>
      </g>
     </g>
     <g id="text_8">
      <!-- −2 -->
      <g transform="translate(20.878125 200.777619)scale(0.1 -0.1)">
       <use xlink:href="#DejaVuSans-2212"/>
       <use x="83.789062" xlink:href="#DejaVuSans-32"/>
      </g>
     </g>
    </g>
    <g id="ytick_3">
     <g id="line2d_8">
      <g>
       <use style="stroke:#000000;stroke-width:0.8;" x="42.620313" xlink:href="#me29e52e5ab" y="143.756"/>
      </g>
     </g>
     <g id="text_9">
      <!-- 0 -->
      <g transform="translate(29.257813 147.555219)scale(0.1 -0.1)">
       <use xlink:href="#DejaVuSans-30"/>
      </g>
     </g>
    </g>
    <g id="ytick_4">
     <g id="line2d_9">
      <g>
       <use style="stroke:#000000;stroke-width:0.8;" x="42.620313" xlink:href="#me29e52e5ab" y="90.5336"/>
      </g>
     </g>
     <g id="text_10">
      <!-- 2 -->
      <g transform="translate(29.257813 94.332819)scale(0.1 -0.1)">
       <use xlink:href="#DejaVuSans-32"/>
      </g>
     </g>
    </g>
    <g id="ytick_5">
     <g id="line2d_10">
      <g>
       <use style="stroke:#000000;stroke-width:0.8;" x="42.620313" xlink:href="#me29e52e5ab" y="37.3112"/>
      </g>
     </g>
     <g id="text_11">
      <!-- 4 -->
      <g transform="translate(29.257813 41.110419)scale(0.1 -0.1)">
       <use xlink:href="#DejaVuSans-34"/>
      </g>
     </g>
    </g>
    <g id="text_12">
     <!-- x2 -->
     <g transform="translate(14.798438 149.896625)rotate(-90)scale(0.1 -0.1)">
      <use xlink:href="#DejaVuSans-78"/>
      <use x="59.179688" xlink:href="#DejaVuSans-32"/>
     </g>
    </g>
   </g>
   <g id="line2d_11">
    <path clip-path="url(#p826ea24346)" d="M 221.180313 10.7 
L 228.3208 10.806514 
L 235.449866 11.125617 
L 242.556107 11.656881 
L 249.628158 12.399474 
L 256.654721 13.352127 
L 263.624547 14.513384 
L 270.526494 15.881363 
L 277.349504 17.453964 
L 284.082646 19.228688 
L 290.715161 21.202671 
L 297.236424 23.372748 
L 303.636008 25.735417 
L 309.903684 28.2869 
L 316.029417 31.023097 
L 322.003409 33.939639 
L 327.816112 37.031864 
L 333.458214 40.294824 
L 338.920696 43.723299 
L 344.194874 47.311841 
L 349.272317 51.054717 
L 354.144848 54.945907 
L 358.804602 58.979147 
L 363.24419 63.148023 
L 367.456434 67.445815 
L 371.434624 71.865667 
L 375.172428 76.400517 
L 378.663846 81.043105 
L 381.903349 85.786029 
L 384.885736 90.621695 
L 387.606246 95.542372 
L 390.060527 100.54019 
L 392.244639 105.607145 
L 394.155083 110.735129 
L 395.788798 115.915938 
L 397.143167 121.141281 
L 398.216025 126.4028 
L 399.005665 131.692079 
L 399.510816 137.000656 
L 399.730683 142.32004 
L 399.741022 143.650578 
L 399.741022 143.650578 
" style="fill:none;stroke:#ff7f0e;stroke-linecap:square;stroke-width:0.5;"/>
   </g>
   <g id="line2d_12">
    <path clip-path="url(#p826ea24346)" d="M 250.199137 10.7 
L 251.983225 10.92301 
L 253.764247 11.15918 
L 255.541999 11.408606 
L 257.316323 11.671266 
L 259.087045 11.947135 
L 260.853981 12.236186 
L 262.616954 12.538389 
L 264.375783 12.853714 
L 266.130297 13.182125 
L 267.880316 13.523593 
L 269.625663 13.878086 
L 271.366176 14.245555 
L 273.101673 14.625973 
L 274.831975 15.019306 
L 276.556906 15.42552 
L 278.27631 15.844555 
L 279.990004 16.276382 
L 281.697812 16.720963 
L 283.399562 17.178254 
L 285.095095 17.648198 
L 286.784234 18.130755 
L 288.46681 18.625879 
L 290.142655 19.133518 
L 291.811603 19.65362 
L 293.473487 20.186133 
L 295.128141 20.731004 
L 296.7754 21.288177 
L 298.415098 21.857599 
L 300.047074 22.439209 
L 301.671163 23.032951 
L 303.287204 23.638766 
L 304.895034 24.256594 
L 306.494493 24.886372 
L 308.085422 25.528037 
L 309.66766 26.181523 
L 311.241049 26.846766 
L 312.805433 27.523701 
L 314.360657 28.21226 
L 315.906564 28.912374 
L 317.442998 29.623971 
L 318.969805 30.346981 
L 320.486832 31.08133 
L 321.993929 31.826947 
L 323.490947 32.583758 
L 324.977735 33.351686 
L 326.454143 34.130654 
L 327.920022 34.920585 
L 329.375225 35.721397 
L 330.819608 36.533013 
L 332.253031 37.355353 
L 333.675347 38.188333 
L 335.086412 39.031869 
L 336.486086 39.885878 
L 337.874228 40.750272 
L 339.250699 41.624967 
L 340.615367 42.509876 
L 341.968091 43.404909 
L 343.308737 44.309978 
L 344.637169 45.22499 
L 345.953254 46.149855 
L 347.25686 47.08448 
L 348.547863 48.028773 
L 349.826128 48.98264 
L 351.091529 49.945983 
L 352.343939 50.918707 
L 353.583231 51.900715 
L 354.809281 52.891906 
L 356.021972 53.892186 
L 357.221178 54.901453 
L 358.406781 55.919605 
L 359.578661 56.94654 
L 360.7367 57.982156 
L 361.880781 59.026348 
L 363.010795 60.079014 
L 364.126627 61.140049 
L 365.228165 62.209345 
L 366.315297 63.286796 
L 367.387914 64.372292 
L 368.44591 65.465726 
L 369.489182 66.566992 
L 370.517627 67.67598 
L 371.531139 68.792577 
L 372.529618 69.916672 
L 373.512962 71.048152 
L 374.481073 72.186903 
L 375.433855 73.332812 
L 376.37121 74.485761 
L 377.293044 75.645637 
L 378.199263 76.81232 
L 379.08978 77.985698 
L 379.964519 79.165666 
L 380.823382 80.352096 
L 381.666282 81.544867 
L 382.493133 82.743861 
L 383.303853 83.948955 
L 384.09836 85.16003 
L 384.876572 86.376962 
L 385.638412 87.59963 
L 386.383801 88.827908 
L 387.112663 90.061673 
L 387.824936 91.300811 
L 388.520544 92.545195 
L 389.199417 93.794699 
L 389.861485 95.049197 
L 390.506683 96.308563 
L 391.134948 97.572672 
L 391.746215 98.841398 
L 392.340425 100.114614 
L 392.917515 101.392192 
L 393.477431 102.674004 
L 394.020116 103.959924 
L 394.545516 105.249823 
L 395.053581 106.543573 
L 395.54426 107.841046 
L 396.017505 109.142111 
L 396.473264 110.446636 
L 396.911492 111.75449 
L 397.332148 113.065545 
L 397.73519 114.379669 
L 398.120577 115.696732 
L 398.488272 117.016601 
L 398.838237 118.339145 
L 399.170438 119.664231 
L 399.48484 120.991727 
L 399.781412 122.3215 
" style="fill:none;stroke:#ff7f0e;stroke-linecap:square;stroke-width:0.5;"/>
   </g>
   <g id="line2d_13">
    <path clip-path="url(#p826ea24346)" d="M 280.7924 10.7 
L 282.574925 11.150982 
L 284.351354 11.615094 
L 286.121455 12.092412 
L 287.885069 12.582897 
L 289.642024 13.086501 
L 291.39214 13.603175 
L 293.13524 14.132864 
L 294.871148 14.675515 
L 296.599685 15.231074 
L 298.32069 15.799481 
L 300.033981 16.380681 
L 301.739383 16.974621 
L 303.436736 17.581233 
L 305.125875 18.200454 
L 306.806619 18.832231 
L 308.478793 19.476505 
L 310.142234 20.133211 
L 311.796792 20.802268 
L 313.442285 21.483624 
L 315.078546 22.177212 
L 316.705407 22.882966 
L 318.322724 23.600803 
L 319.930323 24.330657 
L 321.528043 25.072457 
L 323.115725 25.826129 
L 324.693212 26.591594 
L 326.260347 27.368778 
L 327.816973 28.157601 
L 329.362935 28.957983 
L 330.898078 29.769846 
L 332.422248 30.593108 
L 333.935295 31.427687 
L 335.437067 32.273497 
L 336.927414 33.130455 
L 338.406186 33.998477 
L 339.873237 34.877473 
L 341.328418 35.767357 
L 342.771584 36.668039 
L 344.202594 37.579431 
L 345.621303 38.50144 
L 347.027568 39.433975 
L 348.421249 40.376941 
L 349.802205 41.330245 
L 351.170298 42.293791 
L 352.525394 43.267484 
L 353.867358 44.251227 
L 355.196055 45.244921 
L 356.511349 46.248466 
L 357.813109 47.261761 
L 359.101203 48.284705 
L 360.375504 49.317195 
L 361.635891 50.359132 
L 362.882232 51.410409 
L 364.114403 52.470921 
L 365.332279 53.54056 
L 366.535738 54.61922 
L 367.724659 55.706793 
L 368.898932 56.803175 
L 370.058436 57.908254 
L 371.203052 59.021919 
L 372.332668 60.144058 
L 373.447169 61.27456 
L 374.546442 62.413309 
L 375.630379 63.560192 
L 376.698868 64.715093 
L 377.751803 65.877895 
L 378.789077 67.048483 
L 379.810604 68.226754 
L 380.816269 69.412578 
L 381.805972 70.605838 
L 382.779612 71.806413 
L 383.737092 73.014183 
L 384.678315 74.229025 
L 385.603185 75.450819 
L 386.51161 76.679441 
L 387.403497 77.914766 
L 388.27876 79.156674 
L 389.137324 80.405052 
L 389.979091 81.659765 
L 390.803978 82.920687 
L 391.611902 84.187691 
L 392.40278 85.460652 
L 393.176535 86.739441 
L 393.933088 88.023929 
L 394.672363 89.313988 
L 395.394286 90.609488 
L 396.098787 91.910303 
L 396.785797 93.216306 
L 397.455246 94.527362 
L 398.107066 95.843339 
L 398.741193 97.164107 
L 399.357562 98.489534 
L 399.956114 99.819486 
" style="fill:none;stroke:#ff7f0e;stroke-linecap:square;stroke-width:0.5;"/>
   </g>
   <g id="line2d_14">
    <path clip-path="url(#p826ea24346)" d="M 314.89583 10.7 
L 316.676616 11.405103 
L 318.447927 12.123308 
L 320.209502 12.854667 
L 321.961182 13.599117 
L 323.702795 14.356586 
L 325.434164 15.126999 
L 327.155112 15.910276 
L 328.865468 16.706337 
L 330.565056 17.515103 
L 332.253705 18.336491 
L 333.93125 19.17042 
L 335.597515 20.016809 
L 337.252349 20.875564 
L 338.895576 21.746606 
L 340.52703 22.629851 
L 342.146544 23.525213 
L 343.753971 24.432589 
L 345.34914 25.351899 
L 346.931888 26.283053 
L 348.502055 27.225959 
L 350.059495 28.180514 
L 351.604045 29.146629 
L 353.13555 30.124207 
L 354.653857 31.11315 
L 356.158817 32.113358 
L 357.650278 33.12473 
L 359.128091 34.147166 
L 360.592109 35.180563 
L 362.042185 36.224819 
L 363.478175 37.279828 
L 364.899936 38.345484 
L 366.307325 39.42168 
L 367.700202 40.508313 
L 369.078427 41.60527 
L 370.441863 42.712443 
L 371.790373 43.82972 
L 373.123823 44.956988 
L 374.442078 46.094135 
L 375.745009 47.241052 
L 377.032485 48.39762 
L 378.304376 49.563724 
L 379.560555 50.739247 
L 380.800895 51.92407 
L 382.025272 53.118075 
L 383.233567 54.321145 
L 384.425658 55.53316 
L 385.601424 56.753998 
L 386.760748 57.983535 
L 387.903512 59.221648 
L 389.029603 60.468213 
L 390.138908 61.723108 
L 391.231321 62.986207 
L 392.306729 64.257384 
L 393.365023 65.53651 
L 394.406098 66.823458 
L 395.429849 68.118097 
L 396.436174 69.420299 
L 397.424976 70.729938 
L 398.396154 72.046879 
L 399.34961 73.370991 
L 400.285249 74.702141 
" style="fill:none;stroke:#ff7f0e;stroke-linecap:square;stroke-width:0.5;"/>
   </g>
   <g id="line2d_15">
    <path clip-path="url(#p826ea24346)" d="M 355.359448 10.7 
L 357.13817 11.706617 
L 358.903408 12.726302 
L 360.654868 13.759079 
L 362.392389 14.804859 
L 364.1158 15.863539 
L 365.824925 16.935013 
L 367.519591 18.01917 
L 369.199626 19.1159 
L 370.864867 20.225091 
L 372.515138 21.346635 
L 374.150274 22.48042 
L 375.770123 23.626328 
L 377.37451 24.78425 
L 378.963271 25.954072 
L 380.536264 27.135668 
L 382.093318 28.328928 
L 383.634273 29.533736 
L 385.158994 30.749958 
L 386.667314 31.977483 
L 388.159078 33.216192 
L 389.634165 34.46594 
L 391.092415 35.726612 
L 392.533679 36.998085 
L 393.957805 38.280235 
L 395.364645 39.572939 
L 396.754054 40.87607 
L 398.125945 42.189466 
L 399.480144 43.513017 
L 400.816509 44.846596 
" style="fill:none;stroke:#ff7f0e;stroke-linecap:square;stroke-width:0.5;"/>
   </g>
   <g id="line2d_16">
    <path clip-path="url(#p826ea24346)" d="M 399.740313 15.953977 
L 401.446265 17.291029 
" style="fill:none;stroke:#ff7f0e;stroke-linecap:square;stroke-width:0.5;"/>
   </g>
   <g id="line2d_17">
    <path clip-path="url(#p826ea24346)" d="M 399.740313 51.914074 
L 400.963692 53.249292 
" style="fill:none;stroke:#ff7f0e;stroke-linecap:square;stroke-width:0.5;"/>
   </g>
   <g id="line2d_18">
    <path clip-path="url(#p826ea24346)" d="M 399.740313 80.620143 
L 400.578467 81.953897 
" style="fill:none;stroke:#ff7f0e;stroke-linecap:square;stroke-width:0.5;"/>
   </g>
   <g id="line2d_19">
    <path clip-path="url(#p826ea24346)" d="M 399.740313 105.21586 
L 400.2484 106.54836 
" style="fill:none;stroke:#ff7f0e;stroke-linecap:square;stroke-width:0.5;"/>
   </g>
   <g id="line2d_20">
    <path clip-path="url(#p826ea24346)" d="M 399.740313 127.600077 
L 399.948025 128.931433 
" style="fill:none;stroke:#ff7f0e;stroke-linecap:square;stroke-width:0.5;"/>
   </g>
   <g id="line2d_21">
    <path clip-path="url(#p826ea24346)" d="M 399.740313 149.117973 
L 399.309599 154.434495 
L 398.59408 159.733944 
L 397.59473 165.007829 
L 396.313166 170.247717 
L 394.751418 175.445226 
L 392.911973 180.592039 
L 390.79778 185.679921 
L 388.412231 190.700737 
L 385.759144 195.646455 
L 382.842763 200.509167 
L 379.667757 205.281083 
L 376.239203 209.954574 
L 372.562588 214.522161 
L 368.643794 218.976533 
L 364.489091 223.310569 
L 360.105123 227.517335 
L 355.498908 231.590099 
L 350.677808 235.522348 
L 345.649538 239.30779 
L 340.422141 242.940371 
L 335.003948 246.414299 
L 329.403655 249.723996 
L 323.6302 252.86418 
L 317.692798 255.829842 
L 311.601043 258.616171 
L 305.364644 261.218733 
L 298.993608 263.633351 
L 292.498119 265.856164 
L 285.888537 267.883645 
L 279.175445 269.712542 
L 272.369561 271.339949 
L 265.481772 272.763258 
L 258.523106 273.980185 
L 251.504693 274.988786 
L 244.437774 275.787438 
L 237.333652 276.374865 
L 230.203693 276.750126 
L 226.632589 276.857993 
L 226.632589 276.857993 
" style="fill:none;stroke:#ff7f0e;stroke-linecap:square;stroke-width:0.5;"/>
   </g>
   <g id="line2d_22">
    <path clip-path="url(#p826ea24346)" d="M 399.740313 170.919577 
L 399.366684 172.248727 
L 398.975407 173.575044 
L 398.566359 174.89837 
L 398.139573 176.218588 
L 397.695088 177.535567 
L 397.232951 178.849174 
L 396.753208 180.159274 
L 396.255908 181.465736 
L 395.741104 182.768427 
L 395.208848 184.067221 
L 394.659188 185.361982 
L 394.092185 186.652584 
L 393.507905 187.938906 
L 392.906394 189.22081 
L 392.287705 190.498165 
L 391.651898 191.770841 
L 390.999063 193.038726 
L 390.329244 194.301683 
L 389.642501 195.55958 
L 388.938898 196.81229 
L 388.218531 198.0597 
L 387.481455 199.301678 
L 386.727744 200.538099 
L 385.957472 201.768838 
L 385.170721 202.993775 
L 384.367569 204.212788 
L 383.548097 205.425754 
L 382.712388 206.632553 
L 381.860525 207.833063 
L 380.992592 209.027165 
L 380.108678 210.21474 
L 379.208872 211.39567 
L 378.293264 212.569836 
L 377.361944 213.737121 
L 376.415006 214.897407 
L 375.452546 216.050581 
L 374.474659 217.196524 
L 373.481443 218.335125 
L 372.472997 219.466267 
L 371.449423 220.589839 
L 370.410822 221.705726 
L 369.357297 222.813821 
L 368.288955 223.914012 
L 367.205903 225.006187 
L 366.108248 226.090238 
L 364.9961 227.166055 
L 363.869571 228.23353 
L 362.728774 229.292555 
L 361.573819 230.343033 
L 360.404825 231.384853 
L 359.221907 232.41791 
L 358.025185 233.442101 
L 356.814779 234.457322 
L 355.590811 235.463471 
L 354.353402 236.460446 
L 353.102672 237.448158 
L 351.838749 238.4265 
L 350.561759 239.395375 
L 349.271832 240.354686 
L 347.969096 241.304336 
L 346.653684 242.244228 
L 345.325726 243.174269 
L 343.985347 244.094374 
L 342.632688 245.004445 
L 341.267883 245.90439 
L 339.89107 246.794121 
L 338.502388 247.673546 
L 337.101975 248.542578 
L 335.689972 249.401129 
L 334.266512 250.24912 
L 332.831744 251.086462 
L 331.38581 251.91307 
L 329.928857 252.728862 
L 328.46103 253.533756 
L 326.982477 254.327672 
L 325.493346 255.110528 
L 323.993777 255.882253 
L 322.483928 256.642765 
L 320.963948 257.391988 
L 319.43399 258.129847 
L 317.894208 258.856269 
L 316.344757 259.571179 
L 314.785792 260.274506 
L 313.21746 260.966185 
L 311.639924 261.646143 
L 310.053342 262.314312 
L 308.457874 262.970625 
L 306.853679 263.615016 
L 305.240919 264.247419 
L 303.619755 264.867773 
L 301.990341 265.476018 
L 300.352845 266.072092 
L 298.707433 266.655934 
L 297.054268 267.227485 
L 295.393517 267.786689 
L 293.725348 268.333488 
L 292.049925 268.86783 
L 290.367405 269.389664 
L 288.677964 269.898935 
L 286.981772 270.395593 
L 285.278998 270.879587 
L 283.569813 271.35087 
L 281.854389 271.809392 
L 280.132899 272.255109 
L 278.405515 272.687975 
L 276.672413 273.107947 
L 274.933767 273.514981 
L 273.189744 273.909039 
L 271.440516 274.290084 
L 269.686264 274.658075 
L 267.927162 275.012975 
L 266.163388 275.354748 
L 264.395118 275.683361 
L 262.622529 275.998781 
L 260.845798 276.300975 
L 259.065102 276.589914 
L 257.280618 276.86557 
" style="fill:none;stroke:#ff7f0e;stroke-linecap:square;stroke-width:0.5;"/>
   </g>
   <g id="line2d_23">
    <path clip-path="url(#p826ea24346)" d="M 399.740313 194.217485 
L 399.05403 195.545446 
L 398.350137 196.868266 
L 397.628537 198.185767 
L 396.889293 199.497831 
L 396.132473 200.804328 
L 395.358156 202.105127 
L 394.566419 203.400093 
L 393.757345 204.689099 
L 392.931013 205.972011 
L 392.087512 207.248707 
L 391.226924 208.519056 
L 390.349329 209.782926 
L 389.45482 211.040195 
L 388.543498 212.290746 
L 387.615441 213.534445 
L 386.670733 214.77116 
L 385.709468 216.000769 
L 384.731766 217.223164 
L 383.737705 218.43821 
L 382.727382 219.645784 
L 381.700893 220.845761 
L 380.658359 222.038035 
L 379.599874 223.222478 
L 378.525543 224.398972 
L 377.435473 225.567399 
L 376.329776 226.727643 
L 375.208563 227.87959 
L 374.071946 229.023124 
L 372.920041 230.158131 
L 371.752961 231.284497 
L 370.570822 232.40211 
L 369.373745 233.510859 
L 368.161849 234.610633 
L 366.935256 235.701322 
L 365.694087 236.782816 
L 364.438467 237.855008 
L 363.168522 238.91779 
L 361.884379 239.971056 
L 360.586164 241.014703 
L 359.274009 242.048625 
L 357.948045 243.072718 
L 356.608404 244.086879 
L 355.255221 245.091007 
L 353.888632 246.085 
L 352.50877 247.068762 
L 351.115774 248.042196 
L 349.709784 249.005201 
L 348.290941 249.95768 
L 346.859387 250.899539 
L 345.415267 251.830682 
L 343.958723 252.751016 
L 342.489898 253.660454 
L 341.008942 254.558903 
L 339.516003 255.44627 
L 338.011231 256.322468 
L 336.494777 257.187408 
L 334.966794 258.041003 
L 333.427429 258.883171 
L 331.876838 259.713828 
L 330.315177 260.532889 
L 328.742603 261.340272 
L 327.159274 262.135895 
L 325.565349 262.919679 
L 323.960986 263.691547 
L 322.346341 264.451423 
L 320.72158 265.199229 
L 319.086864 265.934891 
L 317.442359 266.658335 
L 315.78823 267.369488 
L 314.124641 268.068278 
L 312.451755 268.754639 
L 310.769741 269.4285 
L 309.078767 270.089795 
L 307.379005 270.738455 
L 305.670623 271.374417 
L 303.953795 271.997617 
L 302.22869 272.607992 
L 300.495475 273.205483 
L 298.75433 273.79003 
L 297.005427 274.361573 
L 295.248942 274.920056 
L 293.485053 275.465421 
L 291.713935 275.997614 
L 289.935754 276.516587 
L 288.150693 277.022286 
" style="fill:none;stroke:#ff7f0e;stroke-linecap:square;stroke-width:0.5;"/>
   </g>
   <g id="line2d_24">
    <path clip-path="url(#p826ea24346)" d="M 399.740313 220.575917 
L 398.700309 221.902535 
L 397.642733 223.221399 
L 396.567524 224.532311 
L 395.474774 225.835151 
L 394.364588 227.129791 
L 393.23708 228.4161 
L 392.092364 229.693947 
L 390.930558 230.963204 
L 389.751777 232.22374 
L 388.556141 233.47543 
L 387.343769 234.71815 
L 386.114779 235.951771 
L 384.869305 237.176179 
L 383.607464 238.391247 
L 382.329379 239.596849 
L 381.035172 240.792863 
L 379.724991 241.979181 
L 378.398953 243.155676 
L 377.05719 244.322228 
L 375.699833 245.478718 
L 374.327028 246.625041 
L 372.938906 247.761075 
L 371.535605 248.886706 
L 370.117266 250.001822 
L 368.684033 251.106314 
L 367.236049 252.20007 
L 365.773459 253.282981 
L 364.296409 254.354939 
L 362.805047 255.415837 
L 361.299522 256.465569 
L 359.779985 257.50403 
L 358.246589 258.531116 
L 356.699484 259.546726 
L 355.138826 260.550756 
L 353.564772 261.543108 
L 351.97748 262.523681 
L 350.377109 263.492377 
L 348.763822 264.4491 
L 347.13777 265.393755 
L 345.499122 266.326247 
L 343.848043 267.246483 
L 342.184698 268.154369 
L 340.509254 269.049816 
L 338.82188 269.932732 
L 337.122739 270.803032 
L 335.412001 271.660628 
L 333.68984 272.505434 
L 331.95643 273.337365 
L 330.211943 274.156337 
L 328.456555 274.962267 
L 326.690439 275.755077 
L 324.913769 276.534689 
L 323.126725 277.301023 
" style="fill:none;stroke:#ff7f0e;stroke-linecap:square;stroke-width:0.5;"/>
   </g>
   <g id="line2d_25">
    <path clip-path="url(#p826ea24346)" d="M 399.740313 252.392861 
L 398.273336 253.717856 
L 396.788835 255.031946 
L 395.286787 256.334905 
L 393.767326 257.626612 
L 392.230597 258.90694 
L 390.676757 260.175759 
L 389.105966 261.43294 
L 387.518383 262.678356 
L 385.91417 263.911885 
L 384.293484 265.133399 
L 382.656486 266.342772 
L 381.003348 267.539896 
L 379.334226 268.724638 
L 377.649283 269.896878 
L 375.948703 271.056513 
L 374.232644 272.203415 
L 372.501271 273.337466 
L 370.754777 274.458567 
L 368.993324 275.566597 
L 367.217082 276.66144 
L 365.426252 277.743006 
" style="fill:none;stroke:#ff7f0e;stroke-linecap:square;stroke-width:0.5;"/>
   </g>
   <g id="line2d_26">
    <path clip-path="url(#p826ea24346)" d="M 379.370669 276.812 
L 377.577035 277.983966 
" style="fill:none;stroke:#ff7f0e;stroke-linecap:square;stroke-width:0.5;"/>
   </g>
   <g id="line2d_27">
    <path clip-path="url(#p826ea24346)" d="M 334.094815 276.812 
L 332.30349 277.646594 
" style="fill:none;stroke:#ff7f0e;stroke-linecap:square;stroke-width:0.5;"/>
   </g>
   <g id="line2d_28">
    <path clip-path="url(#p826ea24346)" d="M 297.257619 276.812 
L 295.468173 277.372103 
" style="fill:none;stroke:#ff7f0e;stroke-linecap:square;stroke-width:0.5;"/>
   </g>
   <g id="line2d_29">
    <path clip-path="url(#p826ea24346)" d="M 265.1914 276.812 
L 263.403589 277.133162 
" style="fill:none;stroke:#ff7f0e;stroke-linecap:square;stroke-width:0.5;"/>
   </g>
   <g id="line2d_30">
    <path clip-path="url(#p826ea24346)" d="M 235.595166 276.812 
L 233.808868 276.912643 
" style="fill:none;stroke:#ff7f0e;stroke-linecap:square;stroke-width:0.5;"/>
   </g>
   <g id="line2d_31">
    <path clip-path="url(#p826ea24346)" d="M 206.765459 276.812 
L 199.636555 276.27592 
L 192.542059 275.527952 
L 185.493317 274.569237 
L 178.50165 273.401261 
L 171.57832 272.025811 
L 164.734363 270.445132 
L 157.9807 268.661785 
L 151.328134 266.678623 
L 144.787286 264.498813 
L 138.368653 262.125836 
L 132.082443 259.563482 
L 125.938802 256.815857 
L 119.947493 253.887347 
L 114.118181 250.782655 
L 108.460159 247.50674 
L 102.982494 244.064851 
L 97.693944 240.462493 
L 92.602949 236.705429 
L 87.717655 232.799666 
L 83.045867 228.75145 
L 78.595058 224.567257 
L 74.372352 220.253784 
L 70.384505 215.81793 
L 66.637899 211.266795 
L 63.138532 206.607659 
L 59.891999 201.847975 
L 56.903497 196.995356 
L 54.177804 192.057566 
L 51.71928 187.042502 
L 49.531858 181.958189 
L 47.619035 176.812761 
L 45.983874 171.614449 
L 44.628988 166.37157 
L 43.556547 161.092512 
L 42.768267 155.785721 
L 42.615755 154.455683 
L 42.615755 154.455683 
" style="fill:none;stroke:#ff7f0e;stroke-linecap:square;stroke-width:0.5;"/>
   </g>
   <g id="line2d_32">
    <path clip-path="url(#p826ea24346)" d="M 177.169225 276.812 
L 175.385904 276.477269 
L 173.607133 276.129395 
L 171.833131 275.76829 
L 170.064057 275.393985 
L 168.300082 275.006514 
L 166.541389 274.605916 
L 164.788156 274.192233 
L 163.040559 273.765507 
L 161.298776 273.325781 
L 159.562974 272.873102 
L 157.833336 272.407512 
L 156.110035 271.929055 
L 154.393225 271.437795 
L 152.683092 270.933769 
L 150.97981 270.417023 
L 149.283559 269.887601 
L 147.594484 269.345579 
L 145.912765 268.790999 
L 144.238578 268.223912 
L 142.572093 267.644369 
L 140.913469 267.052437 
L 139.262869 266.448177 
L 137.620465 265.831644 
L 135.98642 265.2029 
L 134.360898 264.562009 
L 132.744057 263.909036 
L 131.136062 263.244047 
L 129.537072 262.567109 
L 127.947248 261.878289 
L 126.366747 261.177656 
L 124.795727 260.46528 
L 123.234346 259.741234 
L 121.682758 259.00559 
L 120.14112 258.258421 
L 118.609586 257.499802 
L 117.088308 256.729809 
L 115.577439 255.948519 
L 114.07713 255.15601 
L 112.587531 254.352362 
L 111.108791 253.537654 
L 109.641059 252.711968 
L 108.184479 251.875387 
L 106.739196 251.027993 
L 105.305356 250.169873 
L 103.883103 249.301111 
L 102.47258 248.421794 
L 101.073928 247.532012 
L 99.687289 246.631852 
L 98.312797 245.721404 
L 96.950586 244.800757 
L 95.600798 243.870006 
L 94.263568 242.929244 
L 92.93903 241.978564 
L 91.627318 241.018062 
L 90.328566 240.047835 
L 89.042896 239.067977 
L 87.770435 238.078586 
L 86.511315 237.079763 
L 85.265662 236.071607 
L 84.033603 235.05422 
L 82.81526 234.027704 
L 81.610756 232.992162 
L 80.420209 231.947696 
L 79.243733 230.894408 
L 78.081452 229.832406 
L 76.93348 228.761796 
L 75.799935 227.682686 
L 74.680929 226.595185 
L 73.576576 225.499402 
L 72.486982 224.395444 
L 71.412254 223.283419 
L 70.352504 222.163441 
L 69.307836 221.035622 
L 68.278356 219.900076 
L 67.264168 218.756917 
L 66.265374 217.60626 
L 65.28207 216.448217 
L 64.314353 215.282902 
L 63.362322 214.110434 
L 62.426074 212.930931 
L 61.505702 211.744511 
L 60.601298 210.551293 
L 59.712954 209.351398 
L 58.840755 208.144942 
L 57.984788 206.932045 
L 57.145141 205.712829 
L 56.321897 204.487419 
L 55.515139 203.255935 
L 54.724949 202.018504 
L 53.951407 200.775248 
L 53.194586 199.526288 
L 52.454561 198.271749 
L 51.731409 197.011757 
L 51.025202 195.746441 
L 50.336011 194.475926 
L 49.663906 193.200341 
L 49.008953 191.919814 
L 48.371216 190.634466 
L 47.750756 189.344426 
L 47.147639 188.049826 
L 46.561924 186.750795 
L 45.993671 185.447463 
L 45.442937 184.139962 
L 44.909776 182.828423 
L 44.394243 181.512978 
L 43.89639 180.19376 
L 43.416268 178.870901 
L 42.953925 177.544535 
L 42.5094 176.214783 
" style="fill:none;stroke:#ff7f0e;stroke-linecap:square;stroke-width:0.5;"/>
   </g>
   <g id="line2d_33">
    <path clip-path="url(#p826ea24346)" d="M 145.103006 276.812 
L 143.32132 276.238328 
L 141.547363 275.651539 
L 139.781378 275.051569 
L 138.023526 274.43847 
L 136.273978 273.812299 
L 134.532913 273.173119 
L 132.800509 272.520997 
L 131.076937 271.855999 
L 129.362377 271.178191 
L 127.656997 270.487643 
L 125.960968 269.784422 
L 124.274463 269.068599 
L 122.597642 268.34025 
L 120.930678 267.599444 
L 119.273743 266.84625 
L 117.626998 266.080748 
L 115.990603 265.303018 
L 114.364729 264.513131 
L 112.749541 263.711164 
L 111.145196 262.897201 
L 109.551853 262.071326 
L 107.969675 261.233616 
L 106.398821 260.384156 
L 104.839445 259.523033 
L 103.291704 258.650333 
L 101.755753 257.766143 
L 100.231744 256.870552 
L 98.719831 255.963648 
L 97.220163 255.045523 
L 95.732892 254.11627 
L 94.258165 253.175981 
L 92.796129 252.224748 
L 91.346932 251.262668 
L 89.910717 250.289837 
L 88.487629 249.306352 
L 87.07781 248.312314 
L 85.681402 247.307821 
L 84.298541 246.292971 
L 82.929367 245.267865 
L 81.574018 244.232608 
L 80.232629 243.187305 
L 78.905335 242.132059 
L 77.592269 241.066978 
L 76.293562 239.992165 
L 75.009341 238.907726 
L 73.739736 237.813771 
L 72.484876 236.710412 
L 71.244887 235.597757 
L 70.019892 234.47592 
L 68.810017 233.345013 
L 67.615373 232.205143 
L 66.436086 231.056428 
L 65.272273 229.898983 
L 64.124052 228.732925 
L 62.991538 227.55837 
L 61.874845 226.375436 
L 60.77408 225.184239 
L 59.689355 223.984898 
L 58.620779 222.777534 
L 57.568459 221.562268 
L 56.532502 220.339222 
L 55.51301 219.10852 
L 54.510085 217.870282 
L 53.523825 216.62463 
L 52.554331 215.371691 
L 51.601699 214.111591 
L 50.666026 212.844456 
L 49.747405 211.570414 
L 48.845928 210.289591 
L 47.961681 209.00211 
L 47.094755 207.708103 
L 46.245236 206.407699 
L 45.41321 205.10103 
L 44.598761 203.788226 
L 43.80197 202.469418 
L 43.022917 201.14474 
L 42.261681 199.814325 
" style="fill:none;stroke:#ff7f0e;stroke-linecap:square;stroke-width:0.5;"/>
   </g>
   <g id="line2d_34">
    <path clip-path="url(#p826ea24346)" d="M 108.26581 276.812 
L 106.486003 275.963836 
L 104.717574 275.102586 
L 102.960798 274.228212 
L 101.215836 273.340788 
L 99.48286 272.440401 
L 97.762045 271.527142 
L 96.053568 270.601105 
L 94.357596 269.662383 
L 92.674307 268.711071 
L 91.003869 267.747265 
L 89.346444 266.771061 
L 87.702208 265.782555 
L 86.07131 264.781852 
L 84.453919 263.769049 
L 82.850204 262.744243 
L 81.260329 261.707534 
L 79.684435 260.659037 
L 78.12269 259.598849 
L 76.575255 258.527074 
L 75.042288 257.443817 
L 73.52393 256.349194 
L 72.020339 255.24331 
L 70.531666 254.126276 
L 69.058063 252.998202 
L 67.599671 251.859204 
L 66.156638 250.709394 
L 64.729108 249.548889 
L 63.317225 248.377805 
L 61.921128 247.196258 
L 60.540957 246.004366 
L 59.176849 244.80225 
L 57.828941 243.59003 
L 56.497369 242.367824 
L 55.182264 241.135757 
L 53.883759 239.893951 
L 52.601982 238.642532 
L 51.337064 237.381625 
L 50.089129 236.111357 
L 48.858302 234.831851 
L 47.644706 233.543236 
L 46.448463 232.245643 
L 45.269693 230.939201 
L 44.108514 229.624042 
L 42.965043 228.300298 
L 41.839393 226.968098 
" style="fill:none;stroke:#ff7f0e;stroke-linecap:square;stroke-width:0.5;"/>
   </g>
   <g id="line2d_35">
    <path clip-path="url(#p826ea24346)" d="M 62.989956 276.812 
L 61.212458 275.626464 
L 59.450824 274.42788 
L 57.705366 273.21624 
L 55.976247 271.991651 
L 54.263638 270.754231 
L 52.567711 269.504106 
L 50.888642 268.241406 
L 49.226597 266.966258 
L 47.581739 265.678791 
L 45.954243 264.379132 
L 44.344271 263.06741 
L 42.751971 261.743763 
L 41.177518 260.408316 
" style="fill:none;stroke:#ff7f0e;stroke-linecap:square;stroke-width:0.5;"/>
   </g>
   <g id="line2d_36">
    <path clip-path="url(#p826ea24346)" d="M 42.620313 252.392861 
L 41.17155 251.056787 
" style="fill:none;stroke:#ff7f0e;stroke-linecap:square;stroke-width:0.5;"/>
   </g>
   <g id="line2d_37">
    <path clip-path="url(#p826ea24346)" d="M 42.620313 220.575917 
L 41.598523 219.241465 
" style="fill:none;stroke:#ff7f0e;stroke-linecap:square;stroke-width:0.5;"/>
   </g>
   <g id="line2d_38">
    <path clip-path="url(#p826ea24346)" d="M 42.620313 194.217485 
L 41.952244 192.884377 
" style="fill:none;stroke:#ff7f0e;stroke-linecap:square;stroke-width:0.5;"/>
   </g>
   <g id="line2d_39">
    <path clip-path="url(#p826ea24346)" d="M 42.620313 170.919577 
L 42.264892 169.587658 
" style="fill:none;stroke:#ff7f0e;stroke-linecap:square;stroke-width:0.5;"/>
   </g>
   <g id="line2d_40">
    <path clip-path="url(#p826ea24346)" d="M 42.620313 149.117973 
L 42.557427 147.787167 
" style="fill:none;stroke:#ff7f0e;stroke-linecap:square;stroke-width:0.5;"/>
   </g>
   <g id="line2d_41">
    <path clip-path="url(#p826ea24346)" d="M 42.620313 127.600077 
L 43.630319 122.292233 
L 44.9242 117.018677 
L 46.500026 111.787878 
L 48.355299 106.608226 
L 50.487047 101.488003 
L 52.891847 96.435395 
L 55.565852 91.458478 
L 58.504806 86.565219 
L 61.704035 81.763453 
L 65.158444 77.060874 
L 68.862475 72.464999 
L 72.810186 67.983175 
L 76.995255 63.622571 
L 81.410986 59.390162 
L 86.050315 55.292722 
L 90.905824 51.336805 
L 95.969746 47.528739 
L 101.234001 43.874601 
L 106.69015 40.380251 
L 112.32949 37.05126 
L 118.142994 33.892959 
L 124.121315 30.910437 
L 130.25495 28.108422 
L 136.534008 25.49145 
L 142.948481 23.063686 
L 149.488091 20.829021 
L 156.142369 18.79103 
L 162.900683 16.952971 
L 169.752227 15.317765 
L 176.686039 13.888043 
L 183.691033 12.666076 
L 190.756008 11.653818 
L 197.869661 10.852893 
L 199.654347 10.68584 
L 199.654347 10.68584 
" style="fill:none;stroke:#ff7f0e;stroke-linecap:square;stroke-width:0.5;"/>
   </g>
   <g id="line2d_42">
    <path clip-path="url(#p826ea24346)" d="M 42.620313 105.21586 
L 43.146614 103.88729 
L 43.690544 102.562681 
L 44.252214 101.242199 
L 44.831576 99.925964 
L 45.428576 98.614104 
L 46.043154 97.306751 
L 46.675246 96.004041 
L 47.324788 94.706103 
L 47.991715 93.413071 
L 48.675953 92.125067 
L 49.377441 90.842227 
L 50.096113 89.564681 
L 50.831879 88.292545 
L 51.584671 87.02595 
L 52.354425 85.765028 
L 53.14107 84.509912 
L 53.944517 83.260718 
L 54.764676 82.017567 
L 55.601481 80.780592 
L 56.454853 79.54992 
L 57.324706 78.325674 
L 58.210938 77.107966 
L 59.113471 75.896925 
L 60.032215 74.692673 
L 60.96708 73.49533 
L 61.917966 72.305013 
L 62.88478 71.121843 
L 63.867425 69.945937 
L 64.865801 68.777412 
L 65.879809 67.616386 
L 66.909349 66.462974 
L 67.954316 65.317291 
L 69.014604 64.179451 
L 70.090108 63.049569 
L 71.180722 61.927757 
L 72.286335 60.814127 
L 73.406837 59.708792 
L 74.542115 58.611861 
L 75.692057 57.523444 
L 76.856548 56.44365 
L 78.03547 55.372588 
L 79.228707 54.310364 
L 80.436139 53.257082 
L 81.657646 52.212849 
L 82.893105 51.17777 
L 84.142393 50.151948 
L 85.405384 49.135487 
L 86.681952 48.128489 
L 87.971969 47.131055 
L 89.27531 46.143279 
L 90.591843 45.165262 
L 91.921435 44.197104 
L 93.263953 43.238903 
L 94.619263 42.290754 
L 95.987227 41.352754 
L 97.367709 40.424996 
L 98.760577 39.507567 
L 100.165689 38.600561 
L 101.582902 37.704071 
L 103.012075 36.818187 
L 104.453063 35.942997 
L 105.905723 35.078591 
L 107.369907 34.225055 
L 108.845478 33.382469 
L 110.332284 32.550919 
L 111.830174 31.730489 
L 113.338999 30.921263 
L 114.858607 30.123321 
L 116.388845 29.336744 
L 117.929559 28.56161 
L 119.480604 27.797994 
L 121.04182 27.045972 
L 122.61305 26.305621 
L 124.194136 25.577016 
L 125.784919 24.860229 
L 127.38524 24.155333 
L 128.994937 23.462399 
L 130.613858 22.781491 
L 132.241837 22.112681 
L 133.87871 21.456034 
L 135.524312 20.811618 
L 137.178479 20.179497 
L 138.841044 19.559734 
L 140.51184 18.952392 
L 142.190708 18.357529 
L 143.877477 17.775204 
L 145.571976 17.205478 
L 147.274035 16.648406 
L 148.983483 16.104046 
L 150.70015 15.572452 
L 152.423861 15.053678 
L 154.154452 14.547772 
L 155.891749 14.054786 
L 157.635574 13.57477 
L 159.385754 13.107773 
L 161.142111 12.65384 
L 162.904471 12.213019 
L 164.672654 11.785353 
L 166.446493 11.370883 
L 168.225809 10.96965 
L 170.010419 10.581696 
" style="fill:none;stroke:#ff7f0e;stroke-linecap:square;stroke-width:0.5;"/>
   </g>
   <g id="line2d_43">
    <path clip-path="url(#p826ea24346)" d="M 42.620313 80.620143 
L 43.476681 79.292828 
L 44.350641 77.97191 
L 45.242273 76.657577 
L 46.151499 75.349949 
L 47.078233 74.049153 
L 48.022382 72.755322 
L 48.983847 71.468587 
L 49.962531 70.189077 
L 50.958337 68.916925 
L 51.971163 67.652255 
L 53.000909 66.395195 
L 54.047473 65.145872 
L 55.110741 63.904405 
L 56.190615 62.670922 
L 57.286992 61.44555 
L 58.39976 60.22841 
L 59.528797 59.019618 
L 60.674002 57.8193 
L 61.835262 56.62758 
L 63.012461 55.444574 
L 64.205473 54.270396 
L 65.414185 53.105169 
L 66.638477 51.949009 
L 67.878225 50.802031 
L 69.133304 49.664348 
L 70.403589 48.536076 
L 71.688951 47.417325 
L 72.989263 46.308209 
L 74.304395 45.208838 
L 75.634214 44.119321 
L 76.978587 43.039768 
L 78.337382 41.970286 
L 79.710463 40.910982 
L 81.097692 39.861962 
L 82.498928 38.823332 
L 83.914032 37.795195 
L 85.342861 36.777653 
L 86.785274 35.770809 
L 88.24113 34.774762 
L 89.710281 33.789612 
L 91.192578 32.815459 
L 92.687872 31.852399 
L 94.196014 30.900531 
L 95.716851 29.95995 
L 97.250241 29.030744 
L 98.796023 28.113011 
L 100.354044 27.206843 
L 101.924146 26.31233 
L 103.506173 25.429562 
L 105.099964 24.558629 
L 106.705366 23.699614 
L 108.322217 22.852603 
L 109.950354 22.017682 
L 111.589613 21.194936 
L 113.23983 20.384446 
L 114.900839 19.586295 
L 116.572476 18.800562 
L 118.254577 18.027322 
L 119.94697 17.266654 
L 121.649487 16.518636 
L 123.361956 15.783342 
L 125.084205 15.060846 
L 126.816061 14.351221 
L 128.557359 13.654534 
L 130.307919 12.970857 
L 132.067566 12.300258 
L 133.836124 11.642806 
L 135.613415 10.998565 
L 137.39926 10.367601 
" style="fill:none;stroke:#ff7f0e;stroke-linecap:square;stroke-width:0.5;"/>
   </g>
   <g id="line2d_44">
    <path clip-path="url(#p826ea24346)" d="M 42.620313 51.914074 
L 43.861906 50.588223 
L 45.12105 49.271613 
L 46.397787 47.964456 
L 47.692003 46.666873 
L 49.003576 45.378989 
L 50.332372 44.100938 
L 51.678254 42.832849 
L 53.041085 41.574849 
L 54.420725 40.327063 
L 55.817043 39.08962 
L 57.229896 37.862644 
L 58.659137 36.646252 
L 60.104633 35.440574 
L 61.56624 34.245729 
L 63.043801 33.06183 
L 64.537178 31.889003 
L 66.046224 30.727367 
L 67.570776 29.577026 
L 69.110691 28.438106 
L 70.665819 27.310722 
L 72.235978 26.194966 
L 73.821026 25.090962 
L 75.420809 23.998823 
L 77.03517 22.918661 
L 78.663956 21.85059 
L 80.306995 20.79471 
L 81.964096 19.751105 
L 83.63512 18.7199 
L 85.319902 17.7012 
L 87.01828 16.695113 
L 88.730088 15.701744 
L 90.455139 14.721176 
L 92.193255 13.753503 
L 93.944273 12.798832 
L 95.708021 11.857262 
L 97.484322 10.928887 
L 99.273 10.013802 
" style="fill:none;stroke:#ff7f0e;stroke-linecap:square;stroke-width:0.5;"/>
   </g>
   <g id="line2d_45">
    <path clip-path="url(#p826ea24346)" d="M 42.620313 15.953977 
L 44.344479 14.62996 
L 46.086142 13.318746 
L 47.845298 12.020578 
L 49.621792 10.735577 
L 51.415453 9.46387 
" style="fill:none;stroke:#ff7f0e;stroke-linecap:square;stroke-width:0.5;"/>
   </g>
   <g id="line2d_46">
    <path clip-path="url(#p826ea24346)" d="M 87.001177 10.7 
L 88.793587 9.706953 
" style="fill:none;stroke:#ff7f0e;stroke-linecap:square;stroke-width:0.5;"/>
   </g>
   <g id="line2d_47">
    <path clip-path="url(#p826ea24346)" d="M 127.464795 10.7 
L 129.255141 10.008467 
" style="fill:none;stroke:#ff7f0e;stroke-linecap:square;stroke-width:0.5;"/>
   </g>
   <g id="line2d_48">
    <path clip-path="url(#p826ea24346)" d="M 161.568225 10.7 
L 163.356832 10.262588 
" style="fill:none;stroke:#ff7f0e;stroke-linecap:square;stroke-width:0.5;"/>
   </g>
   <g id="line2d_49">
    <path clip-path="url(#p826ea24346)" d="M 192.161488 10.7 
L 193.948533 10.490548 
" style="fill:none;stroke:#ff7f0e;stroke-linecap:square;stroke-width:0.5;"/>
   </g>
   <g id="line2d_50">
    <path clip-path="url(#p826ea24346)" d="M 221.180312 10.7 
L 228.3208 10.806514 
L 235.449866 11.125617 
L 242.556107 11.656881 
L 249.628158 12.399474 
L 256.654721 13.352127 
L 263.624547 14.513384 
L 270.526494 15.881363 
L 277.349504 17.453964 
L 284.082646 19.228688 
L 290.715161 21.202671 
L 297.236424 23.372748 
L 303.636008 25.735417 
L 309.903684 28.2869 
L 316.029417 31.023097 
L 322.003409 33.939639 
L 327.816112 37.031864 
L 333.458214 40.294824 
L 338.920696 43.723299 
L 344.194874 47.311841 
L 349.272317 51.054717 
L 354.144848 54.945907 
L 358.804602 58.979147 
L 363.24419 63.148023 
L 367.456434 67.445815 
L 371.434624 71.865667 
L 375.172428 76.400517 
L 378.663846 81.043105 
L 381.903349 85.786029 
L 384.885736 90.621695 
L 387.606246 95.542372 
L 390.060527 100.54019 
L 392.244639 105.607145 
L 394.155083 110.735129 
L 395.788798 115.915938 
L 397.143167 121.141281 
L 398.216025 126.4028 
L 399.005665 131.692079 
L 399.510816 137.000656 
L 399.730683 142.32004 
L 399.741022 143.650578 
L 399.741022 143.650578 
" style="fill:none;stroke:#ff7f0e;stroke-linecap:square;stroke-width:0.5;"/>
   </g>
   <g id="line2d_51">
    <path clip-path="url(#p826ea24346)" d="M 221.180313 143.756 
" style="fill:none;stroke:#ff7f0e;stroke-linecap:square;stroke-width:1.5;"/>
   </g>
   <g id="patch_64">
    <path d="M 42.620313 276.812 
L 42.620313 10.7 
" style="fill:none;stroke:#000000;stroke-linecap:square;stroke-linejoin:miter;stroke-width:0.8;"/>
   </g>
   <g id="patch_65">
    <path d="M 399.740313 276.812 
L 399.740313 10.7 
" style="fill:none;stroke:#000000;stroke-linecap:square;stroke-linejoin:miter;stroke-width:0.8;"/>
   </g>
   <g id="patch_66">
    <path d="M 42.620313 276.812 
L 399.740313 276.812 
" style="fill:none;stroke:#000000;stroke-linecap:square;stroke-linejoin:miter;stroke-width:0.8;"/>
   </g>
   <g id="patch_67">
    <path d="M 42.620313 10.7 
L 399.740313 10.7 
" style="fill:none;stroke:#000000;stroke-linecap:square;stroke-linejoin:miter;stroke-width:0.8;"/>
   </g>
   <g id="legend_1">
    <g id="patch_68">
     <path d="M 306.312813 273.812 
L 395.540313 273.812 
Q 396.740313 273.812 396.740313 272.612 
L 396.740313 264.405125 
Q 396.740313 263.205125 395.540313 263.205125 
L 306.312813 263.205125 
Q 305.112813 263.205125 305.112813 264.405125 
L 305.112813 272.612 
Q 305.112813 273.812 306.312813 273.812 
z
" style="fill:#ffffff;opacity:0.8;stroke:#cccccc;stroke-linejoin:miter;"/>
    </g>
    <g id="line2d_52">
     <path d="M 307.512812 268.064187 
L 319.512812 268.064187 
" style="fill:none;stroke:#ff7f0e;stroke-linecap:square;stroke-width:1.5;"/>
    </g>
    <g id="line2d_53"/>
    <g id="text_13">
     <!-- system zlinearyzowany -->
     <defs>
      <path d="M 44.28125 53.078125 
L 44.28125 44.578125 
Q 40.484375 46.53125 36.375 47.5 
Q 32.28125 48.484375 27.875 48.484375 
Q 21.1875 48.484375 17.84375 46.4375 
Q 14.5 44.390625 14.5 40.28125 
Q 14.5 37.15625 16.890625 35.375 
Q 19.28125 33.59375 26.515625 31.984375 
L 29.59375 31.296875 
Q 39.15625 29.25 43.1875 25.515625 
Q 47.21875 21.78125 47.21875 15.09375 
Q 47.21875 7.46875 41.1875 3.015625 
Q 35.15625 -1.421875 24.609375 -1.421875 
Q 20.21875 -1.421875 15.453125 -0.5625 
Q 10.6875 0.296875 5.421875 2 
L 5.421875 11.28125 
Q 10.40625 8.6875 15.234375 7.390625 
Q 20.0625 6.109375 24.8125 6.109375 
Q 31.15625 6.109375 34.5625 8.28125 
Q 37.984375 10.453125 37.984375 14.40625 
Q 37.984375 18.0625 35.515625 20.015625 
Q 33.0625 21.96875 24.703125 23.78125 
L 21.578125 24.515625 
Q 13.234375 26.265625 9.515625 29.90625 
Q 5.8125 33.546875 5.8125 39.890625 
Q 5.8125 47.609375 11.28125 51.796875 
Q 16.75 56 26.8125 56 
Q 31.78125 56 36.171875 55.265625 
Q 40.578125 54.546875 44.28125 53.078125 
" id="DejaVuSans-73"/>
      <path d="M 32.171875 -5.078125 
Q 28.375 -14.84375 24.75 -17.8125 
Q 21.140625 -20.796875 15.09375 -20.796875 
L 7.90625 -20.796875 
L 7.90625 -13.28125 
L 13.1875 -13.28125 
Q 16.890625 -13.28125 18.9375 -11.515625 
Q 21 -9.765625 23.484375 -3.21875 
L 25.09375 0.875 
L 2.984375 54.6875 
L 12.5 54.6875 
L 29.59375 11.921875 
L 46.6875 54.6875 
L 56.203125 54.6875 
z
" id="DejaVuSans-79"/>
      <path d="M 18.3125 70.21875 
L 18.3125 54.6875 
L 36.8125 54.6875 
L 36.8125 47.703125 
L 18.3125 47.703125 
L 18.3125 18.015625 
Q 18.3125 11.328125 20.140625 9.421875 
Q 21.96875 7.515625 27.59375 7.515625 
L 36.8125 7.515625 
L 36.8125 0 
L 27.59375 0 
Q 17.1875 0 13.234375 3.875 
Q 9.28125 7.765625 9.28125 18.015625 
L 9.28125 47.703125 
L 2.6875 47.703125 
L 2.6875 54.6875 
L 9.28125 54.6875 
L 9.28125 70.21875 
z
" id="DejaVuSans-74"/>
      <path d="M 56.203125 29.59375 
L 56.203125 25.203125 
L 14.890625 25.203125 
Q 15.484375 15.921875 20.484375 11.0625 
Q 25.484375 6.203125 34.421875 6.203125 
Q 39.59375 6.203125 44.453125 7.46875 
Q 49.3125 8.734375 54.109375 11.28125 
L 54.109375 2.78125 
Q 49.265625 0.734375 44.1875 -0.34375 
Q 39.109375 -1.421875 33.890625 -1.421875 
Q 20.796875 -1.421875 13.15625 6.1875 
Q 5.515625 13.8125 5.515625 26.8125 
Q 5.515625 40.234375 12.765625 48.109375 
Q 20.015625 56 32.328125 56 
Q 43.359375 56 49.78125 48.890625 
Q 56.203125 41.796875 56.203125 29.59375 
M 47.21875 32.234375 
Q 47.125 39.59375 43.09375 43.984375 
Q 39.0625 48.390625 32.421875 48.390625 
Q 24.90625 48.390625 20.390625 44.140625 
Q 15.875 39.890625 15.1875 32.171875 
z
" id="DejaVuSans-65"/>
      <path d="M 52 44.1875 
Q 55.375 50.25 60.0625 53.125 
Q 64.75 56 71.09375 56 
Q 79.640625 56 84.28125 50.015625 
Q 88.921875 44.046875 88.921875 33.015625 
L 88.921875 0 
L 79.890625 0 
L 79.890625 32.71875 
Q 79.890625 40.578125 77.09375 44.375 
Q 74.3125 48.1875 68.609375 48.1875 
Q 61.625 48.1875 57.5625 43.546875 
Q 53.515625 38.921875 53.515625 30.90625 
L 53.515625 0 
L 44.484375 0 
L 44.484375 32.71875 
Q 44.484375 40.625 41.703125 44.40625 
Q 38.921875 48.1875 33.109375 48.1875 
Q 26.21875 48.1875 22.15625 43.53125 
Q 18.109375 38.875 18.109375 30.90625 
L 18.109375 0 
L 9.078125 0 
L 9.078125 54.6875 
L 18.109375 54.6875 
L 18.109375 46.1875 
Q 21.1875 51.21875 25.484375 53.609375 
Q 29.78125 56 35.6875 56 
Q 41.65625 56 45.828125 52.96875 
Q 50 49.953125 52 44.1875 
" id="DejaVuSans-6d"/>
      <path id="DejaVuSans-20"/>
      <path d="M 5.515625 54.6875 
L 48.1875 54.6875 
L 48.1875 46.484375 
L 14.40625 7.171875 
L 48.1875 7.171875 
L 48.1875 0 
L 4.296875 0 
L 4.296875 8.203125 
L 38.09375 47.515625 
L 5.515625 47.515625 
z
" id="DejaVuSans-7a"/>
      <path d="M 9.421875 75.984375 
L 18.40625 75.984375 
L 18.40625 0 
L 9.421875 0 
z
" id="DejaVuSans-6c"/>
      <path d="M 9.421875 54.6875 
L 18.40625 54.6875 
L 18.40625 0 
L 9.421875 0 
z
M 9.421875 75.984375 
L 18.40625 75.984375 
L 18.40625 64.59375 
L 9.421875 64.59375 
z
" id="DejaVuSans-69"/>
      <path d="M 54.890625 33.015625 
L 54.890625 0 
L 45.90625 0 
L 45.90625 32.71875 
Q 45.90625 40.484375 42.875 44.328125 
Q 39.84375 48.1875 33.796875 48.1875 
Q 26.515625 48.1875 22.3125 43.546875 
Q 18.109375 38.921875 18.109375 30.90625 
L 18.109375 0 
L 9.078125 0 
L 9.078125 54.6875 
L 18.109375 54.6875 
L 18.109375 46.1875 
Q 21.34375 51.125 25.703125 53.5625 
Q 30.078125 56 35.796875 56 
Q 45.21875 56 50.046875 50.171875 
Q 54.890625 44.34375 54.890625 33.015625 
" id="DejaVuSans-6e"/>
      <path d="M 34.28125 27.484375 
Q 23.390625 27.484375 19.1875 25 
Q 14.984375 22.515625 14.984375 16.5 
Q 14.984375 11.71875 18.140625 8.90625 
Q 21.296875 6.109375 26.703125 6.109375 
Q 34.1875 6.109375 38.703125 11.40625 
Q 43.21875 16.703125 43.21875 25.484375 
L 43.21875 27.484375 
z
M 52.203125 31.203125 
L 52.203125 0 
L 43.21875 0 
L 43.21875 8.296875 
Q 40.140625 3.328125 35.546875 0.953125 
Q 30.953125 -1.421875 24.3125 -1.421875 
Q 15.921875 -1.421875 10.953125 3.296875 
Q 6 8.015625 6 15.921875 
Q 6 25.140625 12.171875 29.828125 
Q 18.359375 34.515625 30.609375 34.515625 
L 43.21875 34.515625 
L 43.21875 35.40625 
Q 43.21875 41.609375 39.140625 45 
Q 35.0625 48.390625 27.6875 48.390625 
Q 23 48.390625 18.546875 47.265625 
Q 14.109375 46.140625 10.015625 43.890625 
L 10.015625 52.203125 
Q 14.9375 54.109375 19.578125 55.046875 
Q 24.21875 56 28.609375 56 
Q 40.484375 56 46.34375 49.84375 
Q 52.203125 43.703125 52.203125 31.203125 
" id="DejaVuSans-61"/>
      <path d="M 41.109375 46.296875 
Q 39.59375 47.171875 37.8125 47.578125 
Q 36.03125 48 33.890625 48 
Q 26.265625 48 22.1875 43.046875 
Q 18.109375 38.09375 18.109375 28.8125 
L 18.109375 0 
L 9.078125 0 
L 9.078125 54.6875 
L 18.109375 54.6875 
L 18.109375 46.1875 
Q 20.953125 51.171875 25.484375 53.578125 
Q 30.03125 56 36.53125 56 
Q 37.453125 56 38.578125 55.875 
Q 39.703125 55.765625 41.0625 55.515625 
z
" id="DejaVuSans-72"/>
      <path d="M 30.609375 48.390625 
Q 23.390625 48.390625 19.1875 42.75 
Q 14.984375 37.109375 14.984375 27.296875 
Q 14.984375 17.484375 19.15625 11.84375 
Q 23.34375 6.203125 30.609375 6.203125 
Q 37.796875 6.203125 41.984375 11.859375 
Q 46.1875 17.53125 46.1875 27.296875 
Q 46.1875 37.015625 41.984375 42.703125 
Q 37.796875 48.390625 30.609375 48.390625 
M 30.609375 56 
Q 42.328125 56 49.015625 48.375 
Q 55.71875 40.765625 55.71875 27.296875 
Q 55.71875 13.875 49.015625 6.21875 
Q 42.328125 -1.421875 30.609375 -1.421875 
Q 18.84375 -1.421875 12.171875 6.21875 
Q 5.515625 13.875 5.515625 27.296875 
Q 5.515625 40.765625 12.171875 48.375 
Q 18.84375 56 30.609375 56 
" id="DejaVuSans-6f"/>
      <path d="M 4.203125 54.6875 
L 13.1875 54.6875 
L 24.421875 12.015625 
L 35.59375 54.6875 
L 46.1875 54.6875 
L 57.421875 12.015625 
L 68.609375 54.6875 
L 77.59375 54.6875 
L 63.28125 0 
L 52.6875 0 
L 40.921875 44.828125 
L 29.109375 0 
L 18.5 0 
z
" id="DejaVuSans-77"/>
     </defs>
     <g transform="translate(324.312813 270.164187)scale(0.06 -0.06)">
      <use xlink:href="#DejaVuSans-73"/>
      <use x="52.099609" xlink:href="#DejaVuSans-79"/>
      <use x="111.279297" xlink:href="#DejaVuSans-73"/>
      <use x="163.378906" xlink:href="#DejaVuSans-74"/>
      <use x="202.587891" xlink:href="#DejaVuSans-65"/>
      <use x="264.111328" xlink:href="#DejaVuSans-6d"/>
      <use x="361.523438" xlink:href="#DejaVuSans-20"/>
      <use x="393.310547" xlink:href="#DejaVuSans-7a"/>
      <use x="445.800781" xlink:href="#DejaVuSans-6c"/>
      <use x="473.583984" xlink:href="#DejaVuSans-69"/>
      <use x="501.367188" xlink:href="#DejaVuSans-6e"/>
      <use x="564.746094" xlink:href="#DejaVuSans-65"/>
      <use x="626.269531" xlink:href="#DejaVuSans-61"/>
      <use x="687.548828" xlink:href="#DejaVuSans-72"/>
      <use x="728.662109" xlink:href="#DejaVuSans-79"/>
      <use x="787.841797" xlink:href="#DejaVuSans-7a"/>
      <use x="840.332031" xlink:href="#DejaVuSans-6f"/>
      <use x="901.513672" xlink:href="#DejaVuSans-77"/>
      <use x="983.300781" xlink:href="#DejaVuSans-61"/>
      <use x="1044.580078" xlink:href="#DejaVuSans-6e"/>
      <use x="1107.958984" xlink:href="#DejaVuSans-79"/>
     </g>
    </g>
   </g>
  </g>
 </g>
 <defs>
  <clipPath id="p826ea24346">
   <rect height="266.112" width="357.12" x="42.620313" y="10.7"/>
  </clipPath>
 </defs>
</svg>
