<?xml version="1.0" encoding="utf-8" standalone="no"?>
<!DOCTYPE svg PUBLIC "-//W3C//DTD SVG 1.1//EN"
  "http://www.w3.org/Graphics/SVG/1.1/DTD/svg11.dtd">
<!-- Created with matplotlib (http://matplotlib.org/) -->
<svg height="314pt" version="1.1" viewBox="0 0 410 314" width="410pt" xmlns="http://www.w3.org/2000/svg" xmlns:xlink="http://www.w3.org/1999/xlink">
 <defs>
  <style type="text/css">
*{stroke-linecap:butt;stroke-linejoin:round;}
  </style>
 </defs>
 <g id="figure_1">
  <g id="patch_1">
   <path d="M 0 314.36825 
L 410.440313 314.36825 
L 410.440313 0 
L 0 0 
z
" style="fill:#ffffff;"/>
  </g>
  <g id="axes_1">
   <g id="patch_2">
    <path d="M 42.620313 276.812 
L 399.740313 276.812 
L 399.740313 10.7 
L 42.620313 10.7 
z
" style="fill:#ffffff;"/>
   </g>
   <g id="patch_3">
    <path clip-path="url(#pb4fa00dae8)" d="M 277.387127 32.607168 
L 271.429684 28.644744 
L 274.731596 27.666443 
L 274.764568 27.65621 
L 274.764781 27.65661 
L 278.066693 26.678309 
z
" style="fill:#ff7f0e;stroke:#ff7f0e;stroke-linejoin:miter;"/>
   </g>
   <g id="patch_4">
    <path clip-path="url(#pb4fa00dae8)" d="M 260.746619 82.965521 
L 260.199013 77.029084 
L 263.478713 78.048029 
L 263.511851 78.057955 
L 263.511674 78.05827 
L 266.791374 79.077215 
z
" style="fill:#ff7f0e;stroke:#ff7f0e;stroke-linejoin:miter;"/>
   </g>
   <g id="patch_5">
    <path clip-path="url(#pb4fa00dae8)" d="M 276.443749 50.454699 
L 274.02167 44.784571 
L 277.532151 45.1946 
L 277.56752 45.198301 
L 277.567432 45.198721 
L 281.077912 45.60875 
z
" style="fill:#ff7f0e;stroke:#ff7f0e;stroke-linejoin:miter;"/>
   </g>
   <g id="patch_6">
    <path clip-path="url(#pb4fa00dae8)" d="M 254.795883 92.837552 
L 254.495495 86.891318 
L 257.73123 87.985531 
L 257.763916 87.996256 
L 257.76375 87.996528 
L 260.999486 89.090741 
z
" style="fill:#ff7f0e;stroke:#ff7f0e;stroke-linejoin:miter;"/>
   </g>
   <g id="patch_7">
    <path clip-path="url(#pb4fa00dae8)" d="M 280.057284 47.06113 
L 278.293963 41.25757 
L 281.744618 41.889523 
L 281.779447 41.895423 
L 281.779298 41.895874 
L 285.229953 42.527827 
z
" style="fill:#ff7f0e;stroke:#ff7f0e;stroke-linejoin:miter;"/>
   </g>
   <g id="patch_8">
    <path clip-path="url(#pb4fa00dae8)" d="M 245.793801 106.922271 
L 245.707277 100.972175 
L 248.902516 102.130583 
L 248.934764 102.142019 
L 248.934629 102.142226 
L 252.129868 103.300634 
z
" style="fill:#ff7f0e;stroke:#ff7f0e;stroke-linejoin:miter;"/>
   </g>
   <g id="patch_9">
    <path clip-path="url(#pb4fa00dae8)" d="M 286.433831 48.308695 
L 286.701788 42.361601 
L 289.824882 43.624542 
L 289.856642 43.636724 
L 289.85627 43.637235 
L 292.979365 44.900175 
z
" style="fill:#ff7f0e;stroke:#ff7f0e;stroke-linejoin:miter;"/>
   </g>
   <g id="patch_10">
    <path clip-path="url(#pb4fa00dae8)" d="M 258.653715 88.114201 
L 258.715732 82.163935 
L 261.881502 83.36643 
L 261.913526 83.378213 
L 261.913319 83.378516 
L 265.079089 84.581011 
z
" style="fill:#ff7f0e;stroke:#ff7f0e;stroke-linejoin:miter;"/>
   </g>
   <g id="patch_11">
    <path clip-path="url(#pb4fa00dae8)" d="M 303.982243 46.903175 
L 306.342356 41.218555 
L 308.90892 43.049743 
L 308.935551 43.067496 
L 308.934715 43.068147 
L 311.501279 44.899335 
z
" style="fill:#ff7f0e;stroke:#ff7f0e;stroke-linejoin:miter;"/>
   </g>
   <g id="patch_12">
    <path clip-path="url(#pb4fa00dae8)" d="M 268.682677 79.453819 
L 269.935866 73.577106 
L 272.825308 75.118235 
L 272.854716 75.13334 
L 272.854347 75.133724 
L 275.74379 76.674853 
z
" style="fill:#ff7f0e;stroke:#ff7f0e;stroke-linejoin:miter;"/>
   </g>
   <g id="patch_13">
    <path clip-path="url(#pb4fa00dae8)" d="M 357.810289 36.811975 
L 361.689767 31.610931 
L 363.695694 33.796492 
L 363.717923 33.817403 
L 363.715854 33.818457 
L 365.721781 36.004018 
z
" style="fill:#ff7f0e;stroke:#ff7f0e;stroke-linejoin:miter;"/>
   </g>
   <g id="patch_14">
    <path clip-path="url(#pb4fa00dae8)" d="M 270.84655 88.130947 
L 273.541042 82.529481 
L 275.996651 84.44329 
L 276.021901 84.462117 
L 276.021331 84.462524 
L 278.47694 86.376332 
z
" style="fill:#ff7f0e;stroke:#ff7f0e;stroke-linejoin:miter;"/>
   </g>
   <g id="patch_15">
    <path clip-path="url(#pb4fa00dae8)" d="M 344.443792 75.01275 
L 348.887471 70.068726 
L 350.643844 72.370467 
L 350.663753 72.392644 
L 350.661496 72.3936 
L 352.417869 74.695342 
z
" style="fill:#ff7f0e;stroke:#ff7f0e;stroke-linejoin:miter;"/>
   </g>
   <g id="patch_16">
    <path clip-path="url(#pb4fa00dae8)" d="M 285.327883 101.048844 
L 289.545958 95.996277 
L 291.405201 98.25271 
L 291.425021 98.274868 
L 291.423886 98.275388 
L 293.283129 100.53182 
z
" style="fill:#ff7f0e;stroke:#ff7f0e;stroke-linejoin:miter;"/>
   </g>
   <g id="patch_17">
    <path clip-path="url(#pb4fa00dae8)" d="M 366.599139 92.80073 
L 371.42699 88.060941 
L 372.997828 90.435975 
L 373.016665 90.458725 
L 373.013615 90.459845 
L 374.584454 92.834879 
z
" style="fill:#ff7f0e;stroke:#ff7f0e;stroke-linejoin:miter;"/>
   </g>
   <g id="patch_18">
    <path clip-path="url(#pb4fa00dae8)" d="M 269.408631 128.252355 
L 274.277816 123.536103 
L 275.827858 125.918712 
L 275.844552 125.942254 
L 275.843436 125.942657 
L 277.393478 128.325266 
z
" style="fill:#ff7f0e;stroke:#ff7f0e;stroke-linejoin:miter;"/>
   </g>
   <g id="patch_19">
    <path clip-path="url(#pb4fa00dae8)" d="M 364.090939 117.136673 
L 369.160812 112.53934 
L 370.607401 114.957803 
L 370.625255 114.981008 
L 370.621939 114.982109 
L 372.068528 117.400572 
z
" style="fill:#ff7f0e;stroke:#ff7f0e;stroke-linejoin:miter;"/>
   </g>
   <g id="patch_20">
    <path clip-path="url(#pb4fa00dae8)" d="M 271.35334 146.456053 
L 276.677083 142.020928 
L 277.986514 144.482403 
L 278.001089 144.506723 
L 277.999674 144.507141 
L 279.309105 146.968616 
z
" style="fill:#ff7f0e;stroke:#ff7f0e;stroke-linejoin:miter;"/>
   </g>
   <g id="patch_21">
    <path clip-path="url(#pb4fa00dae8)" d="M 344.746057 144.432508 
L 350.044178 139.980379 
L 351.36779 142.437639 
L 351.384296 142.461377 
L 351.381092 142.462335 
L 352.704704 144.919595 
z
" style="fill:#ff7f0e;stroke:#ff7f0e;stroke-linejoin:miter;"/>
   </g>
   <g id="patch_22">
    <path clip-path="url(#pb4fa00dae8)" d="M 250.707491 169.390019 
L 256.55654 165.338919 
L 257.556323 167.879765 
L 257.567591 167.905034 
L 257.566371 167.905301 
L 258.566153 170.446147 
z
" style="fill:#ff7f0e;stroke:#ff7f0e;stroke-linejoin:miter;"/>
   </g>
   <g id="patch_23">
    <path clip-path="url(#pb4fa00dae8)" d="M 325.117688 170.013131 
L 330.646716 165.719734 
L 331.839597 168.213887 
L 331.854648 168.238141 
L 331.851585 168.238954 
L 333.044466 170.733107 
z
" style="fill:#ff7f0e;stroke:#ff7f0e;stroke-linejoin:miter;"/>
   </g>
   <g id="patch_24">
    <path clip-path="url(#pb4fa00dae8)" d="M 247.608041 187.417933 
L 253.742002 183.607988 
L 254.556283 186.185342 
L 254.565855 186.211001 
L 254.564467 186.211245 
L 255.378748 188.788598 
z
" style="fill:#ff7f0e;stroke:#ff7f0e;stroke-linejoin:miter;"/>
   </g>
   <g id="patch_25">
    <path clip-path="url(#pb4fa00dae8)" d="M 341.871257 186.21809 
L 347.48346 181.98504 
L 348.627556 184.491851 
L 348.642748 184.516109 
L 348.639055 184.517045 
L 349.783152 187.023857 
z
" style="fill:#ff7f0e;stroke:#ff7f0e;stroke-linejoin:miter;"/>
   </g>
   <g id="patch_26">
    <path clip-path="url(#pb4fa00dae8)" d="M 225.012539 207.867022 
L 231.792579 204.723324 
L 232.12244 207.359705 
L 232.126869 207.386124 
L 232.125755 207.386201 
L 232.455616 210.022582 
z
" style="fill:#ff7f0e;stroke:#ff7f0e;stroke-linejoin:miter;"/>
   </g>
   <g id="patch_27">
    <path clip-path="url(#pb4fa00dae8)" d="M 338.580013 209.235294 
L 344.335251 205.110264 
L 345.393189 207.638 
L 345.407741 207.662494 
L 345.403821 207.663405 
L 346.461759 210.191141 
z
" style="fill:#ff7f0e;stroke:#ff7f0e;stroke-linejoin:miter;"/>
   </g>
   <g id="patch_28">
    <path clip-path="url(#pb4fa00dae8)" d="M 203.593898 226.593359 
L 211.134496 224.635027 
L 210.679887 227.261082 
L 210.676165 227.287556 
L 210.675318 227.287475 
L 210.220709 229.91353 
z
" style="fill:#ff7f0e;stroke:#ff7f0e;stroke-linejoin:miter;"/>
   </g>
   <g id="patch_29">
    <path clip-path="url(#pb4fa00dae8)" d="M 318.678077 238.564819 
L 324.651539 234.615808 
L 325.572036 237.173236 
L 325.585108 237.198175 
L 325.581287 237.198938 
L 326.501785 239.756366 
z
" style="fill:#ff7f0e;stroke:#ff7f0e;stroke-linejoin:miter;"/>
   </g>
   <g id="patch_30">
    <path clip-path="url(#pb4fa00dae8)" d="M 175.456529 232.741208 
L 181.527472 236.606793 
L 178.254697 237.638026 
L 178.221987 237.648711 
L 178.221805 237.648391 
L 174.94903 238.679624 
z
" style="fill:#ff7f0e;stroke:#ff7f0e;stroke-linejoin:miter;"/>
   </g>
   <g id="patch_31">
    <path clip-path="url(#pb4fa00dae8)" d="M 359.572049 261.043724 
L 365.495989 257.053506 
L 366.44835 259.604447 
L 366.463052 259.629022 
L 366.457922 259.630085 
L 367.410283 262.181026 
z
" style="fill:#ff7f0e;stroke:#ff7f0e;stroke-linejoin:miter;"/>
   </g>
   <g id="patch_32">
    <path clip-path="url(#pb4fa00dae8)" d="M 304.897027 271.232804 
L 311.074196 267.461821 
L 311.859069 270.044235 
L 311.870874 270.069528 
L 311.866957 270.070189 
L 312.65183 272.652604 
z
" style="fill:#ff7f0e;stroke:#ff7f0e;stroke-linejoin:miter;"/>
   </g>
   <g id="patch_33">
    <path clip-path="url(#pb4fa00dae8)" d="M 372.475842 278.217838 
L 378.422457 274.246393 
L 379.360279 276.800324 
L 379.375381 276.824834 
L 379.369705 276.825991 
L 380.307527 279.379922 
z
" style="fill:#ff7f0e;stroke:#ff7f0e;stroke-linejoin:miter;"/>
   </g>
   <g id="patch_34">
    <path clip-path="url(#pb4fa00dae8)" d="M 327.149458 278.06841 
L 333.247765 274.226817 
L 334.086046 276.799894 
L 334.099027 276.82493 
L 334.094471 276.825754 
L 334.932751 279.398832 
z
" style="fill:#ff7f0e;stroke:#ff7f0e;stroke-linejoin:miter;"/>
   </g>
   <g id="patch_35">
    <path clip-path="url(#pb4fa00dae8)" d="M 290.255247 277.874692 
L 296.541283 274.204963 
L 297.25041 276.799515 
L 297.261182 276.825038 
L 297.257537 276.825591 
L 297.966664 279.420143 
z
" style="fill:#ff7f0e;stroke:#ff7f0e;stroke-linejoin:miter;"/>
   </g>
   <g id="patch_36">
    <path clip-path="url(#pb4fa00dae8)" d="M 258.124423 277.598106 
L 264.661287 274.180361 
L 265.185911 276.799157 
L 265.194036 276.82516 
L 265.191184 276.825477 
L 265.715808 279.444274 
z
" style="fill:#ff7f0e;stroke:#ff7f0e;stroke-linejoin:miter;"/>
   </g>
   <g id="patch_37">
    <path clip-path="url(#pb4fa00dae8)" d="M 228.464765 277.14659 
L 235.368604 274.15624 
L 235.591924 276.79882 
L 235.596288 276.825279 
L 235.594168 276.825379 
L 235.817488 279.467959 
z
" style="fill:#ff7f0e;stroke:#ff7f0e;stroke-linejoin:miter;"/>
   </g>
   <g id="patch_38">
    <path clip-path="url(#pb4fa00dae8)" d="M 174.742688 268.758226 
L 182.711485 269.142273 
L 180.92057 271.429187 
L 180.903267 271.452474 
L 180.902571 271.452171 
L 179.111656 273.739085 
z
" style="fill:#ff7f0e;stroke:#ff7f0e;stroke-linejoin:miter;"/>
   </g>
   <g id="patch_39">
    <path clip-path="url(#pb4fa00dae8)" d="M 193.800014 184.910901 
L 193.970431 190.859991 
L 190.759034 189.726663 
L 190.726615 189.7155 
L 190.726759 189.715273 
L 187.515362 188.581946 
z
" style="fill:#ff7f0e;stroke:#ff7f0e;stroke-linejoin:miter;"/>
   </g>
   <g id="patch_40">
    <path clip-path="url(#pb4fa00dae8)" d="M 166.260769 234.039924 
L 168.082887 239.83339 
L 164.625922 239.220884 
L 164.591045 239.215149 
L 164.591179 239.214728 
L 161.134214 238.602221 
z
" style="fill:#ff7f0e;stroke:#ff7f0e;stroke-linejoin:miter;"/>
   </g>
   <g id="patch_41">
    <path clip-path="url(#pb4fa00dae8)" d="M 193.012469 186.076248 
L 193.171417 192.025514 
L 189.962209 190.88875 
L 189.929807 190.877557 
L 189.929955 190.877325 
L 186.720747 189.740561 
z
" style="fill:#ff7f0e;stroke:#ff7f0e;stroke-linejoin:miter;"/>
   </g>
   <g id="patch_42">
    <path clip-path="url(#pb4fa00dae8)" d="M 163.14162 233.76076 
L 163.792714 239.691393 
L 160.49552 238.704295 
L 160.462139 238.694826 
L 160.462383 238.694374 
L 157.16519 237.707276 
z
" style="fill:#ff7f0e;stroke:#ff7f0e;stroke-linejoin:miter;"/>
   </g>
   <g id="patch_43">
    <path clip-path="url(#pb4fa00dae8)" d="M 185.373677 197.534338 
L 185.510073 203.483915 
L 182.305186 202.3404 
L 182.272791 202.329197 
L 182.272976 202.328908 
L 179.06809 201.185393 
z
" style="fill:#ff7f0e;stroke:#ff7f0e;stroke-linejoin:miter;"/>
   </g>
   <g id="patch_44">
    <path clip-path="url(#pb4fa00dae8)" d="M 142.2225 246.593268 
L 140.672857 252.430596 
L 137.863447 250.809383 
L 137.834569 250.793708 
L 137.835211 250.79309 
L 135.025801 249.171878 
z
" style="fill:#ff7f0e;stroke:#ff7f0e;stroke-linejoin:miter;"/>
   </g>
   <g id="patch_45">
    <path clip-path="url(#pb4fa00dae8)" d="M 184.421976 197.299179 
L 184.05275 203.24326 
L 180.951418 201.950885 
L 180.920024 201.938195 
L 180.920249 201.937896 
L 177.818916 200.645521 
z
" style="fill:#ff7f0e;stroke:#ff7f0e;stroke-linejoin:miter;"/>
   </g>
   <g id="patch_46">
    <path clip-path="url(#pb4fa00dae8)" d="M 92.122635 260.509505 
L 88.633705 265.861958 
L 86.46919 263.762093 
L 86.445693 263.741987 
L 86.447436 263.740989 
L 84.28292 261.641124 
z
" style="fill:#ff7f0e;stroke:#ff7f0e;stroke-linejoin:miter;"/>
   </g>
   <g id="patch_47">
    <path clip-path="url(#pb4fa00dae8)" d="M 171.363068 205.906364 
L 169.375309 211.669509 
L 166.692705 209.933125 
L 166.665273 209.916078 
L 166.665744 209.915674 
L 163.98314 208.17929 
z
" style="fill:#ff7f0e;stroke:#ff7f0e;stroke-linejoin:miter;"/>
   </g>
   <g id="patch_48">
    <path clip-path="url(#pb4fa00dae8)" d="M 83.337747 234.057245 
L 79.117216 239.108673 
L 77.259071 236.851738 
L 77.238069 236.830119 
L 77.240396 236.829055 
L 75.382251 234.572121 
z
" style="fill:#ff7f0e;stroke:#ff7f0e;stroke-linejoin:miter;"/>
   </g>
   <g id="patch_49">
    <path clip-path="url(#pb4fa00dae8)" d="M 154.656023 199.147514 
L 150.889126 204.394309 
L 148.836359 202.233032 
L 148.814713 202.211846 
L 148.815728 202.211311 
L 146.762962 200.050034 
z
" style="fill:#ff7f0e;stroke:#ff7f0e;stroke-linejoin:miter;"/>
   </g>
   <g id="patch_50">
    <path clip-path="url(#pb4fa00dae8)" d="M 71.395504 209.394785 
L 66.718816 214.217996 
L 65.07334 211.871192 
L 65.053843 211.848759 
L 65.056802 211.847606 
L 63.411326 209.500802 
z
" style="fill:#ff7f0e;stroke:#ff7f0e;stroke-linejoin:miter;"/>
   </g>
   <g id="patch_51">
    <path clip-path="url(#pb4fa00dae8)" d="M 172.679826 169.09926 
L 168.147878 173.998591 
L 166.432941 171.679565 
L 166.414721 171.656663 
L 166.415705 171.656258 
L 164.700769 169.337232 
z
" style="fill:#ff7f0e;stroke:#ff7f0e;stroke-linejoin:miter;"/>
   </g>
   <g id="patch_52">
    <path clip-path="url(#pb4fa00dae8)" d="M 92.367431 176.862803 
L 87.396712 181.51987 
L 85.898487 179.118926 
L 85.880551 179.095794 
L 85.883429 179.094796 
L 84.385205 176.693853 
z
" style="fill:#ff7f0e;stroke:#ff7f0e;stroke-linejoin:miter;"/>
   </g>
   <g id="patch_53">
    <path clip-path="url(#pb4fa00dae8)" d="M 159.220984 154.222182 
L 154.139648 158.812483 
L 152.699097 156.39202 
L 152.683092 156.368198 
L 152.684619 156.367693 
L 151.244068 153.94723 
z
" style="fill:#ff7f0e;stroke:#ff7f0e;stroke-linejoin:miter;"/>
   </g>
   <g id="patch_54">
    <path clip-path="url(#pb4fa00dae8)" d="M 79.421448 159.112313 
L 74.252015 163.647665 
L 72.858344 161.212009 
L 72.840899 161.188623 
L 72.844337 161.187531 
L 71.450666 158.751875 
z
" style="fill:#ff7f0e;stroke:#ff7f0e;stroke-linejoin:miter;"/>
   </g>
   <g id="patch_55">
    <path clip-path="url(#pb4fa00dae8)" d="M 164.130328 133.735648 
L 158.687699 138.089912 
L 157.445116 135.60927 
L 157.430942 135.584808 
L 157.432627 135.584339 
L 156.190044 133.103697 
z
" style="fill:#ff7f0e;stroke:#ff7f0e;stroke-linejoin:miter;"/>
   </g>
   <g id="patch_56">
    <path clip-path="url(#pb4fa00dae8)" d="M 77.862123 138.6132 
L 72.529344 143.042293 
L 71.224933 140.579339 
L 71.208071 140.555689 
L 71.211823 140.554585 
L 69.907412 138.091631 
z
" style="fill:#ff7f0e;stroke:#ff7f0e;stroke-linejoin:miter;"/>
   </g>
   <g id="patch_57">
    <path clip-path="url(#pb4fa00dae8)" d="M 186.341417 110.455534 
L 180.435602 114.460642 
L 179.471681 111.912114 
L 179.460539 111.886806 
L 179.461993 111.8865 
L 178.498072 109.337971 
z
" style="fill:#ff7f0e;stroke:#ff7f0e;stroke-linejoin:miter;"/>
   </g>
   <g id="patch_58">
    <path clip-path="url(#pb4fa00dae8)" d="M 91.514383 114.120441 
L 86.00055 118.424675 
L 84.798858 115.932872 
L 84.783038 115.908831 
L 84.786781 115.907828 
L 83.585089 113.416025 
z
" style="fill:#ff7f0e;stroke:#ff7f0e;stroke-linejoin:miter;"/>
   </g>
   <g id="patch_59">
    <path clip-path="url(#pb4fa00dae8)" d="M 225.337795 88.713972 
L 218.314059 91.545044 
L 218.199671 88.898602 
L 218.197721 88.872024 
L 218.198522 88.872004 
L 218.084134 86.225562 
z
" style="fill:#ff7f0e;stroke:#ff7f0e;stroke-linejoin:miter;"/>
   </g>
   <g id="patch_60">
    <path clip-path="url(#pb4fa00dae8)" d="M 77.42504 96.147315 
L 71.824877 100.389209 
L 70.673661 97.884208 
L 70.657759 97.860138 
L 70.662091 97.859032 
L 69.510874 95.354032 
z
" style="fill:#ff7f0e;stroke:#ff7f0e;stroke-linejoin:miter;"/>
   </g>
   <g id="patch_61">
    <path clip-path="url(#pb4fa00dae8)" d="M 207.45669 70.582205 
L 200.860781 73.936369 
L 200.381865 71.312714 
L 200.375577 71.286495 
L 200.377052 71.286345 
L 199.898137 68.66269 
z
" style="fill:#ff7f0e;stroke:#ff7f0e;stroke-linejoin:miter;"/>
   </g>
   <g id="patch_62">
    <path clip-path="url(#pb4fa00dae8)" d="M 88.450282 69.589531 
L 82.691195 73.711576 
L 81.635617 71.183292 
L 81.620593 71.158906 
L 81.625008 71.157883 
L 80.56943 68.629599 
z
" style="fill:#ff7f0e;stroke:#ff7f0e;stroke-linejoin:miter;"/>
   </g>
   <g id="patch_63">
    <path clip-path="url(#pb4fa00dae8)" d="M 230.658915 48.860168 
L 223.431286 51.390288 
L 223.518215 48.743266 
L 223.517887 48.716641 
L 223.519089 48.716663 
L 223.606018 46.069641 
z
" style="fill:#ff7f0e;stroke:#ff7f0e;stroke-linejoin:miter;"/>
   </g>
   <g id="patch_64">
    <path clip-path="url(#pb4fa00dae8)" d="M 96.02214 40.110704 
L 90.110697 44.111199 
L 89.150359 41.561919 
L 89.136087 41.537265 
L 89.140708 41.536299 
L 88.18037 38.987019 
z
" style="fill:#ff7f0e;stroke:#ff7f0e;stroke-linejoin:miter;"/>
   </g>
   <g id="patch_65">
    <path clip-path="url(#pb4fa00dae8)" d="M 269.151623 35.989185 
L 261.630155 33.990422 
L 264.194491 32.157502 
L 264.219849 32.138759 
L 264.220264 32.139081 
L 266.784601 30.306162 
z
" style="fill:#ff7f0e;stroke:#ff7f0e;stroke-linejoin:miter;"/>
   </g>
   <g id="patch_66">
    <path clip-path="url(#pb4fa00dae8)" d="M 55.608878 13.193471 
L 49.711307 17.205319 
L 48.742145 14.657894 
L 48.726427 14.633555 
L 48.732405 14.632292 
L 47.763243 12.084867 
z
" style="fill:#ff7f0e;stroke:#ff7f0e;stroke-linejoin:miter;"/>
   </g>
   <g id="patch_67">
    <path clip-path="url(#pb4fa00dae8)" d="M 61.5932 11.948531 
L 55.676952 15.94508 
L 54.719678 13.39516 
L 54.704211 13.370752 
L 54.710058 13.369533 
L 53.752784 10.819613 
z
" style="fill:#ff7f0e;stroke:#ff7f0e;stroke-linejoin:miter;"/>
   </g>
   <g id="patch_68">
    <path clip-path="url(#pb4fa00dae8)" d="M 93.920592 9.364808 
L 87.90151 13.275166 
L 87.010736 10.7119 
L 86.996701 10.687119 
L 87.001784 10.686138 
L 86.11101 8.122873 
z
" style="fill:#ff7f0e;stroke:#ff7f0e;stroke-linejoin:miter;"/>
   </g>
   <g id="patch_69">
    <path clip-path="url(#pb4fa00dae8)" d="M 134.437722 9.533175 
L 128.251353 13.295774 
L 127.472789 10.712299 
L 127.460883 10.687018 
L 127.464964 10.686335 
L 126.686401 8.10286 
z
" style="fill:#ff7f0e;stroke:#ff7f0e;stroke-linejoin:miter;"/>
   </g>
   <g id="patch_70">
    <path clip-path="url(#pb4fa00dae8)" d="M 168.602033 9.761442 
L 162.200942 13.319022 
L 161.574611 10.712665 
L 161.565078 10.686903 
L 161.568316 10.686471 
L 160.941985 8.080114 
z
" style="fill:#ff7f0e;stroke:#ff7f0e;stroke-linejoin:miter;"/>
   </g>
   <g id="patch_71">
    <path clip-path="url(#pb4fa00dae8)" d="M 199.262049 10.107801 
L 192.561193 13.3444 
L 192.165955 10.713016 
L 192.159502 10.686777 
L 192.161983 10.68657 
L 191.766745 8.055186 
z
" style="fill:#ff7f0e;stroke:#ff7f0e;stroke-linejoin:miter;"/>
   </g>
   <g id="patch_72">
    <path clip-path="url(#pb4fa00dae8)" d="M 277.753046 34.776394 
L 272.289411 30.436762 
L 275.694526 29.679976 
L 275.728585 29.671963 
L 275.728748 29.67237 
L 279.133863 28.915584 
z
" style="fill:#ff7f0e;stroke:#ff7f0e;stroke-linejoin:miter;"/>
   </g>
   <g id="patch_73">
    <path clip-path="url(#pb4fa00dae8)" d="M 262.59532 79.771322 
L 261.950099 73.840332 
L 265.246314 74.829243 
L 265.279619 74.838854 
L 265.279442 74.839182 
L 268.575657 75.828093 
z
" style="fill:#ff7f0e;stroke:#ff7f0e;stroke-linejoin:miter;"/>
   </g>
   <g id="matplotlib.axis_1">
    <g id="xtick_1">
     <g id="line2d_1">
      <defs>
       <path d="M 0 0 
L 0 3.5 
" id="mec559fed91" style="stroke:#000000;stroke-width:0.8;"/>
      </defs>
      <g>
       <use style="stroke:#000000;stroke-width:0.8;" x="78.332313" xlink:href="#mec559fed91" y="276.812"/>
      </g>
     </g>
     <g id="text_1">
      <!-- −4 -->
      <defs>
       <path d="M 10.59375 35.5 
L 73.1875 35.5 
L 73.1875 27.203125 
L 10.59375 27.203125 
z
" id="DejaVuSans-2212"/>
       <path d="M 37.796875 64.3125 
L 12.890625 25.390625 
L 37.796875 25.390625 
z
M 35.203125 72.90625 
L 47.609375 72.90625 
L 47.609375 25.390625 
L 58.015625 25.390625 
L 58.015625 17.1875 
L 47.609375 17.1875 
L 47.609375 0 
L 37.796875 0 
L 37.796875 17.1875 
L 4.890625 17.1875 
L 4.890625 26.703125 
z
" id="DejaVuSans-34"/>
      </defs>
      <g transform="translate(70.961219 291.410438)scale(0.1 -0.1)">
       <use xlink:href="#DejaVuSans-2212"/>
       <use x="83.789062" xlink:href="#DejaVuSans-34"/>
      </g>
     </g>
    </g>
    <g id="xtick_2">
     <g id="line2d_2">
      <g>
       <use style="stroke:#000000;stroke-width:0.8;" x="149.756313" xlink:href="#mec559fed91" y="276.812"/>
      </g>
     </g>
     <g id="text_2">
      <!-- −2 -->
      <defs>
       <path d="M 19.1875 8.296875 
L 53.609375 8.296875 
L 53.609375 0 
L 7.328125 0 
L 7.328125 8.296875 
Q 12.9375 14.109375 22.625 23.890625 
Q 32.328125 33.6875 34.8125 36.53125 
Q 39.546875 41.84375 41.421875 45.53125 
Q 43.3125 49.21875 43.3125 52.78125 
Q 43.3125 58.59375 39.234375 62.25 
Q 35.15625 65.921875 28.609375 65.921875 
Q 23.96875 65.921875 18.8125 64.3125 
Q 13.671875 62.703125 7.8125 59.421875 
L 7.8125 69.390625 
Q 13.765625 71.78125 18.9375 73 
Q 24.125 74.21875 28.421875 74.21875 
Q 39.75 74.21875 46.484375 68.546875 
Q 53.21875 62.890625 53.21875 53.421875 
Q 53.21875 48.921875 51.53125 44.890625 
Q 49.859375 40.875 45.40625 35.40625 
Q 44.1875 33.984375 37.640625 27.21875 
Q 31.109375 20.453125 19.1875 8.296875 
" id="DejaVuSans-32"/>
      </defs>
      <g transform="translate(142.385219 291.410438)scale(0.1 -0.1)">
       <use xlink:href="#DejaVuSans-2212"/>
       <use x="83.789062" xlink:href="#DejaVuSans-32"/>
      </g>
     </g>
    </g>
    <g id="xtick_3">
     <g id="line2d_3">
      <g>
       <use style="stroke:#000000;stroke-width:0.8;" x="221.180313" xlink:href="#mec559fed91" y="276.812"/>
      </g>
     </g>
     <g id="text_3">
      <!-- 0 -->
      <defs>
       <path d="M 31.78125 66.40625 
Q 24.171875 66.40625 20.328125 58.90625 
Q 16.5 51.421875 16.5 36.375 
Q 16.5 21.390625 20.328125 13.890625 
Q 24.171875 6.390625 31.78125 6.390625 
Q 39.453125 6.390625 43.28125 13.890625 
Q 47.125 21.390625 47.125 36.375 
Q 47.125 51.421875 43.28125 58.90625 
Q 39.453125 66.40625 31.78125 66.40625 
M 31.78125 74.21875 
Q 44.046875 74.21875 50.515625 64.515625 
Q 56.984375 54.828125 56.984375 36.375 
Q 56.984375 17.96875 50.515625 8.265625 
Q 44.046875 -1.421875 31.78125 -1.421875 
Q 19.53125 -1.421875 13.0625 8.265625 
Q 6.59375 17.96875 6.59375 36.375 
Q 6.59375 54.828125 13.0625 64.515625 
Q 19.53125 74.21875 31.78125 74.21875 
" id="DejaVuSans-30"/>
      </defs>
      <g transform="translate(217.999063 291.410438)scale(0.1 -0.1)">
       <use xlink:href="#DejaVuSans-30"/>
      </g>
     </g>
    </g>
    <g id="xtick_4">
     <g id="line2d_4">
      <g>
       <use style="stroke:#000000;stroke-width:0.8;" x="292.604312" xlink:href="#mec559fed91" y="276.812"/>
      </g>
     </g>
     <g id="text_4">
      <!-- 2 -->
      <g transform="translate(289.423063 291.410438)scale(0.1 -0.1)">
       <use xlink:href="#DejaVuSans-32"/>
      </g>
     </g>
    </g>
    <g id="xtick_5">
     <g id="line2d_5">
      <g>
       <use style="stroke:#000000;stroke-width:0.8;" x="364.028313" xlink:href="#mec559fed91" y="276.812"/>
      </g>
     </g>
     <g id="text_5">
      <!-- 4 -->
      <g transform="translate(360.847063 291.410438)scale(0.1 -0.1)">
       <use xlink:href="#DejaVuSans-34"/>
      </g>
     </g>
    </g>
    <g id="text_6">
     <!-- x1 -->
     <defs>
      <path d="M 54.890625 54.6875 
L 35.109375 28.078125 
L 55.90625 0 
L 45.3125 0 
L 29.390625 21.484375 
L 13.484375 0 
L 2.875 0 
L 24.125 28.609375 
L 4.6875 54.6875 
L 15.28125 54.6875 
L 29.78125 35.203125 
L 44.28125 54.6875 
z
" id="DejaVuSans-78"/>
      <path d="M 12.40625 8.296875 
L 28.515625 8.296875 
L 28.515625 63.921875 
L 10.984375 60.40625 
L 10.984375 69.390625 
L 28.421875 72.90625 
L 38.28125 72.90625 
L 38.28125 8.296875 
L 54.390625 8.296875 
L 54.390625 0 
L 12.40625 0 
z
" id="DejaVuSans-31"/>
     </defs>
     <g transform="translate(215.039688 305.088562)scale(0.1 -0.1)">
      <use xlink:href="#DejaVuSans-78"/>
      <use x="59.179688" xlink:href="#DejaVuSans-31"/>
     </g>
    </g>
   </g>
   <g id="matplotlib.axis_2">
    <g id="ytick_1">
     <g id="line2d_6">
      <defs>
       <path d="M 0 0 
L -3.5 0 
" id="m3de400ebe6" style="stroke:#000000;stroke-width:0.8;"/>
      </defs>
      <g>
       <use style="stroke:#000000;stroke-width:0.8;" x="42.620313" xlink:href="#m3de400ebe6" y="250.2008"/>
      </g>
     </g>
     <g id="text_7">
      <!-- −4 -->
      <g transform="translate(20.878125 254.000019)scale(0.1 -0.1)">
       <use xlink:href="#DejaVuSans-2212"/>
       <use x="83.789062" xlink:href="#DejaVuSans-34"/>
      </g>
     </g>
    </g>
    <g id="ytick_2">
     <g id="line2d_7">
      <g>
       <use style="stroke:#000000;stroke-width:0.8;" x="42.620313" xlink:href="#m3de400ebe6" y="196.9784"/>
      </g>
     </g>
     <g id="text_8">
      <!-- −2 -->
      <g transform="translate(20.878125 200.777619)scale(0.1 -0.1)">
       <use xlink:href="#DejaVuSans-2212"/>
       <use x="83.789062" xlink:href="#DejaVuSans-32"/>
      </g>
     </g>
    </g>
    <g id="ytick_3">
     <g id="line2d_8">
      <g>
       <use style="stroke:#000000;stroke-width:0.8;" x="42.620313" xlink:href="#m3de400ebe6" y="143.756"/>
      </g>
     </g>
     <g id="text_9">
      <!-- 0 -->
      <g transform="translate(29.257813 147.555219)scale(0.1 -0.1)">
       <use xlink:href="#DejaVuSans-30"/>
      </g>
     </g>
    </g>
    <g id="ytick_4">
     <g id="line2d_9">
      <g>
       <use style="stroke:#000000;stroke-width:0.8;" x="42.620313" xlink:href="#m3de400ebe6" y="90.5336"/>
      </g>
     </g>
     <g id="text_10">
      <!-- 2 -->
      <g transform="translate(29.257813 94.332819)scale(0.1 -0.1)">
       <use xlink:href="#DejaVuSans-32"/>
      </g>
     </g>
    </g>
    <g id="ytick_5">
     <g id="line2d_10">
      <g>
       <use style="stroke:#000000;stroke-width:0.8;" x="42.620313" xlink:href="#m3de400ebe6" y="37.3112"/>
      </g>
     </g>
     <g id="text_11">
      <!-- 4 -->
      <g transform="translate(29.257813 41.110419)scale(0.1 -0.1)">
       <use xlink:href="#DejaVuSans-34"/>
      </g>
     </g>
    </g>
    <g id="text_12">
     <!-- x2 -->
     <g transform="translate(14.798438 149.896625)rotate(-90)scale(0.1 -0.1)">
      <use xlink:href="#DejaVuSans-78"/>
      <use x="59.179688" xlink:href="#DejaVuSans-32"/>
     </g>
    </g>
   </g>
   <g id="line2d_11">
    <path clip-path="url(#pb4fa00dae8)" d="M 221.180313 10.7 
L 227.975382 10.802974 
L 234.11347 11.098556 
L 239.647787 11.567955 
L 244.627333 12.193925 
L 249.097302 12.960622 
L 253.099393 13.853483 
L 256.672046 14.859138 
L 259.850683 15.965325 
L 262.66799 17.160781 
L 265.154085 18.435185 
L 267.336657 19.779099 
L 269.241239 21.183873 
L 270.891368 22.641584 
L 272.308738 24.144977 
L 273.513384 25.687402 
L 274.747975 27.661127 
L 275.71165 29.675701 
L 276.43397 31.721595 
L 276.941584 33.790326 
L 277.300984 36.292386 
L 277.422769 38.805073 
L 277.339633 41.318507 
L 277.021897 44.240516 
L 276.416054 47.552504 
L 275.485189 51.226961 
L 274.211456 55.227451 
L 272.596437 59.509402 
L 270.659764 64.021512 
L 268.261734 69.05919 
L 265.263086 74.833873 
L 261.570923 81.442239 
L 257.021744 89.105992 
L 251.359296 98.190459 
L 243.879944 109.745163 
L 232.354742 127.092101 
L 221.180312 143.756 
L 221.180313 143.756 
" style="fill:none;stroke:#ff7f0e;stroke-linecap:square;stroke-width:0.5;"/>
   </g>
   <g id="line2d_12">
    <path clip-path="url(#pb4fa00dae8)" d="M 250.199137 10.7 
L 254.211181 11.625786 
L 257.791052 12.664664 
L 260.97435 13.804311 
L 263.794147 15.03334 
L 266.280724 16.341381 
L 268.462004 17.718924 
L 270.363771 19.157239 
L 272.009718 20.648356 
L 273.421651 22.184993 
L 274.619684 23.760481 
L 275.844529 25.775236 
L 276.797052 27.830441 
L 277.507093 29.916486 
L 278.001265 32.024922 
L 278.343235 34.573983 
L 278.446538 37.132865 
L 278.344147 39.691622 
L 278.003166 42.665375 
L 277.369927 46.034998 
L 276.525692 49.36036 
L 275.377163 53.034567 
L 273.758558 57.411963 
L 271.805048 62.027278 
L 269.375077 67.182831 
L 266.325946 73.095423 
L 262.738774 79.555506 
L 258.247286 87.167726 
L 252.709545 96.098665 
L 245.384263 107.461725 
L 234.55493 123.803295 
L 221.180312 143.756 
L 221.180312 143.756 
" style="fill:none;stroke:#ff7f0e;stroke-linecap:square;stroke-width:0.5;"/>
   </g>
   <g id="line2d_13">
    <path clip-path="url(#pb4fa00dae8)" d="M 280.7924 10.7 
L 281.870079 12.493357 
L 282.945197 14.775398 
L 283.748592 17.092431 
L 284.310575 19.434811 
L 284.658211 21.79405 
L 284.826521 24.636878 
L 284.758757 27.481792 
L 284.425318 30.790486 
L 283.861228 34.075588 
L 282.984532 37.787147 
L 281.762107 41.892247 
L 280.179937 46.348857 
L 278.243513 51.106691 
L 275.782248 56.516381 
L 272.817723 62.454577 
L 269.213982 69.138892 
L 264.893342 76.657038 
L 259.703319 85.228952 
L 253.088854 95.700783 
L 244.322667 109.132498 
L 230.084654 130.482768 
L 221.180312 143.756 
L 221.180312 143.756 
" style="fill:none;stroke:#ff7f0e;stroke-linecap:square;stroke-width:0.5;"/>
   </g>
   <g id="line2d_14">
    <path clip-path="url(#pb4fa00dae8)" d="M 314.89583 10.7 
L 306.525407 21.364034 
L 297.822872 32.816655 
L 288.733424 45.152829 
L 279.049713 58.672719 
L 267.935039 74.587791 
L 254.418341 94.354566 
L 233.674645 125.138122 
L 221.180312 143.756 
L 221.180312 143.756 
" style="fill:none;stroke:#ff7f0e;stroke-linecap:square;stroke-width:0.5;"/>
   </g>
   <g id="line2d_15">
    <path clip-path="url(#pb4fa00dae8)" d="M 355.359448 10.7 
L 343.593698 18.340654 
L 333.251556 25.323192 
L 324.134384 31.726629 
L 315.132162 38.322376 
L 307.262501 44.353512 
L 299.639785 50.477308 
L 292.39466 56.604125 
L 286.138694 62.178984 
L 280.241632 67.717362 
L 274.355605 73.563382 
L 268.998903 79.199508 
L 263.861559 84.922335 
L 258.79802 90.89438 
L 253.776386 97.158031 
L 248.53175 104.059052 
L 242.760752 112.03616 
L 235.828803 122.023667 
L 224.595991 138.665837 
L 221.180312 143.756 
L 221.180312 143.756 
" style="fill:none;stroke:#ff7f0e;stroke-linecap:square;stroke-width:0.5;"/>
   </g>
   <g id="line2d_16">
    <path clip-path="url(#pb4fa00dae8)" d="M 399.740313 15.953977 
L 379.294719 25.974194 
L 361.639035 34.860742 
L 344.610649 43.694105 
L 330.118318 51.473066 
L 317.756418 58.353569 
L 306.108514 65.103597 
L 296.286223 71.055887 
L 287.972788 76.334191 
L 280.261307 81.48366 
L 273.242909 86.443133 
L 266.954777 91.172078 
L 261.389768 95.647489 
L 256.50834 99.859874 
L 252.010361 104.040144 
L 247.959236 108.107842 
L 244.058671 112.34984 
L 240.352294 116.720126 
L 236.627657 121.467656 
L 232.633794 126.930677 
L 227.492319 134.373077 
L 221.180312 143.756 
L 221.180313 143.756 
" style="fill:none;stroke:#ff7f0e;stroke-linecap:square;stroke-width:0.5;"/>
   </g>
   <g id="line2d_17">
    <path clip-path="url(#pb4fa00dae8)" d="M 399.740313 51.914074 
L 365.153565 66.274595 
L 335.732313 78.73668 
L 312.823784 88.677833 
L 293.750222 97.199513 
L 279.111544 103.973161 
L 267.140116 109.748464 
L 257.529174 114.627404 
L 249.935079 118.726861 
L 244.011545 122.165988 
L 239.229625 125.192702 
L 235.471666 127.82601 
L 232.466877 130.191692 
L 229.986118 132.41963 
L 227.843378 134.645129 
L 225.901368 136.987433 
L 223.752601 139.950362 
L 221.180312 143.756 
L 221.180313 143.756 
" style="fill:none;stroke:#ff7f0e;stroke-linecap:square;stroke-width:0.5;"/>
   </g>
   <g id="line2d_18">
    <path clip-path="url(#pb4fa00dae8)" d="M 399.740313 80.620143 
L 308.810049 113.954414 
L 260.421792 131.478454 
L 236.982188 139.75831 
L 226.422157 143.282132 
L 222.32225 144.448447 
L 221.058027 144.6174 
L 220.818535 144.480257 
L 220.87483 144.240081 
L 221.180313 143.756 
L 221.180312 143.756 
" style="fill:none;stroke:#ff7f0e;stroke-linecap:square;stroke-width:0.5;"/>
   </g>
   <g id="line2d_19">
    <path clip-path="url(#pb4fa00dae8)" d="M 399.740313 105.21586 
L 360.872593 118.199453 
L 329.874021 128.331308 
L 305.179654 136.190201 
L 283.962791 142.713223 
L 267.46487 147.558539 
L 254.667771 151.100793 
L 244.056818 153.806807 
L 236.060536 155.617148 
L 230.068581 156.754279 
L 225.61117 157.388602 
L 222.326721 157.650498 
L 219.937093 157.639531 
L 218.228433 157.431569 
L 217.036415 157.084267 
L 216.234859 156.641294 
L 215.697806 156.094834 
L 215.396901 155.462981 
L 215.297045 154.721799 
L 215.405106 153.807004 
L 215.790424 152.597216 
L 216.555823 150.990131 
L 217.937042 148.658605 
L 221.025345 143.986952 
L 221.180313 143.756 
L 221.180313 143.756 
" style="fill:none;stroke:#ff7f0e;stroke-linecap:square;stroke-width:0.5;"/>
   </g>
   <g id="line2d_20">
    <path clip-path="url(#pb4fa00dae8)" d="M 399.740313 127.600077 
L 368.442852 137.285788 
L 341.964995 145.253253 
L 319.586462 151.767798 
L 300.693888 157.055034 
L 284.764986 161.30675 
L 269.836144 165.054232 
L 257.562567 167.892266 
L 247.498166 169.983542 
L 239.270904 171.463315 
L 232.570169 172.444102 
L 227.136966 173.019329 
L 222.755289 173.26654 
L 219.245032 173.250035 
L 216.456063 173.023067 
L 214.26327 172.629686 
L 212.562427 172.106274 
L 211.266743 171.482823 
L 210.303982 170.784007 
L 209.614042 170.030077 
L 209.106931 169.147785 
L 208.800102 168.143992 
L 208.696986 167.030784 
L 208.802958 165.732221 
L 209.158649 164.184691 
L 209.844893 162.267601 
L 210.933195 159.933526 
L 212.567067 156.983665 
L 215.0981 152.907748 
L 220.026533 145.475613 
L 221.180313 143.756 
L 221.180313 143.756 
" style="fill:none;stroke:#ff7f0e;stroke-linecap:square;stroke-width:0.5;"/>
   </g>
   <g id="line2d_21">
    <path clip-path="url(#pb4fa00dae8)" d="M 399.740313 149.117973 
L 370.222623 157.643068 
L 344.774166 164.73709 
L 322.855798 170.597989 
L 303.999385 175.397358 
L 287.798069 179.284057 
L 273.898276 182.387187 
L 261.993271 184.81849 
L 251.816218 186.674928 
L 243.135311 188.040495 
L 235.749437 188.987835 
L 229.48384 189.579845 
L 224.18683 189.870908 
L 219.72671 189.908032 
L 215.989161 189.731818 
L 212.874976 189.377307 
L 210.298071 188.874717 
L 208.183767 188.25008 
L 206.467305 187.525793 
L 205.092522 186.72111 
L 204.010736 185.852557 
L 203.079344 184.799778 
L 202.421726 183.699882 
L 201.992068 182.567789 
L 201.733071 181.271051 
L 201.670089 179.818261 
L 201.836699 178.079405 
L 202.276179 176.08243 
L 202.997735 173.869734 
L 204.095289 171.239783 
L 205.665164 168.080468 
L 207.846234 164.213124 
L 210.975347 159.148105 
L 216.015584 151.464519 
L 221.180313 143.756 
L 221.180313 143.756 
" style="fill:none;stroke:#ff7f0e;stroke-linecap:square;stroke-width:0.5;"/>
   </g>
   <g id="line2d_22">
    <path clip-path="url(#pb4fa00dae8)" d="M 399.740313 170.919577 
L 372.547387 178.282131 
L 348.636999 184.503512 
L 327.631089 189.722158 
L 309.195337 194.060283 
L 293.033365 197.626035 
L 278.88247 200.515081 
L 266.509819 202.812024 
L 255.70907 204.591664 
L 246.297366 205.920106 
L 238.112629 206.85578 
L 231.011316 207.450262 
L 224.866295 207.749075 
L 219.564867 207.792416 
L 215.00729 207.615707 
L 211.105175 207.250194 
L 207.780256 206.723399 
L 204.963259 206.059543 
L 202.592855 205.279935 
L 200.614747 204.403307 
L 198.980911 203.4461 
L 197.648876 202.422728 
L 196.581028 201.345838 
L 195.744119 200.22649 
L 195.020618 198.879733 
L 194.530814 197.501496 
L 194.212126 195.902167 
L 194.107567 194.088691 
L 194.24423 192.074957 
L 194.632711 189.881502 
L 195.328946 187.341777 
L 196.350861 184.507629 
L 197.762827 181.270334 
L 199.698361 177.421684 
L 202.230036 172.90393 
L 205.658122 167.264841 
L 210.566105 159.652014 
L 220.037262 145.459524 
L 221.180313 143.756 
L 221.180313 143.756 
" style="fill:none;stroke:#ff7f0e;stroke-linecap:square;stroke-width:0.5;"/>
   </g>
   <g id="line2d_23">
    <path clip-path="url(#pb4fa00dae8)" d="M 399.740313 194.217485 
L 375.371105 200.408498 
L 353.503971 205.738605 
L 333.895785 210.296628 
L 316.326547 214.162818 
L 300.597986 217.409369 
L 286.531014 220.101376 
L 273.963411 222.297683 
L 262.748512 224.051382 
L 252.753683 225.410374 
L 243.859113 226.41782 
L 235.956475 227.112639 
L 228.947687 227.529968 
L 222.74419 227.701432 
L 217.265957 227.655509 
L 212.440629 227.417855 
L 208.202831 227.011555 
L 204.493478 226.457382 
L 201.25919 225.774013 
L 198.451755 224.978232 
L 196.027624 224.085114 
L 193.947437 223.108199 
L 192.175648 222.059637 
L 190.680189 220.950308 
L 189.432115 219.789954 
L 188.224362 218.34239 
L 187.294977 216.847191 
L 186.60829 215.315992 
L 186.132794 213.758923 
L 185.80803 211.921327 
L 185.694345 210.072453 
L 185.78028 207.958548 
L 186.101797 205.594049 
L 186.679379 203.000386 
L 187.602237 199.955004 
L 188.89951 196.518055 
L 190.561396 192.767024 
L 192.766254 188.367137 
L 195.545786 183.333541 
L 199.139125 177.300516 
L 204.008189 169.589166 
L 211.221859 158.623518 
L 221.180313 143.756 
L 221.180313 143.756 
" style="fill:none;stroke:#ff7f0e;stroke-linecap:square;stroke-width:0.5;"/>
   </g>
   <g id="line2d_24">
    <path clip-path="url(#pb4fa00dae8)" d="M 399.740313 220.575917 
L 378.690578 225.580164 
L 359.404605 229.983468 
L 337.567607 234.719016 
L 318.022804 238.684494 
L 300.546943 241.96101 
L 284.938086 244.62178 
L 271.01341 246.73295 
L 258.607888 248.35408 
L 247.572154 249.538947 
L 237.771132 250.336048 
L 229.082781 250.789069 
L 221.396788 250.93737 
L 214.613422 250.816412 
L 208.64255 250.458121 
L 203.402733 249.891227 
L 198.820361 249.141578 
L 194.828935 248.232417 
L 191.368449 247.184603 
L 188.384665 246.016883 
L 185.828578 244.74609 
L 183.655921 243.387328 
L 181.826726 241.954133 
L 180.30492 240.458624 
L 179.057955 238.911637 
L 178.056463 237.322859 
L 177.273969 235.700925 
L 176.590588 233.721628 
L 176.151419 231.717364 
L 175.923906 229.698312 
L 175.887858 227.335742 
L 176.100889 224.640844 
L 176.536655 221.965516 
L 177.23998 218.993965 
L 178.226895 215.755299 
L 179.620069 211.975294 
L 181.437358 207.733013 
L 183.65641 203.125902 
L 186.504026 197.745579 
L 190.008104 191.614191 
L 194.458825 184.289722 
L 200.311421 175.108417 
L 208.914039 162.065676 
L 221.180313 143.756 
L 221.180312 143.756 
" style="fill:none;stroke:#ff7f0e;stroke-linecap:square;stroke-width:0.5;"/>
   </g>
   <g id="line2d_25">
    <path clip-path="url(#pb4fa00dae8)" d="M 399.740313 252.392861 
L 393.883324 253.701434 
L 388.153322 254.967038 
L 382.548275 256.190422 
L 377.065642 257.37251 
L 371.703109 258.514145 
L 366.458266 259.616203 
L 361.328656 260.679577 
L 356.311887 261.705139 
L 351.405647 262.693726 
L 346.607695 263.646155 
L 341.91582 264.563226 
L 337.327882 265.445717 
L 332.841734 266.294408 
L 328.455335 267.110037 
L 324.166609 267.893359 
L 319.9736 268.64508 
L 315.87434 269.365915 
L 311.86693 270.056551 
L 307.949504 270.717663 
L 304.120223 271.349916 
L 300.377299 271.953956 
L 296.718965 272.530422 
L 293.143499 273.079937 
L 289.649205 273.603112 
L 286.234425 274.100545 
L 282.897532 274.572823 
L 279.636932 275.020522 
L 276.451062 275.444203 
L 273.338389 275.844421 
L 270.297416 276.221711 
L 267.326675 276.576604 
L 264.424716 276.909621 
" style="fill:none;stroke:#ff7f0e;stroke-linecap:square;stroke-width:0.5;"/>
   </g>
   <g id="line2d_26">
    <path clip-path="url(#pb4fa00dae8)" d="M 379.370669 276.812 
L 373.693952 277.969468 
" style="fill:none;stroke:#ff7f0e;stroke-linecap:square;stroke-width:0.5;"/>
   </g>
   <g id="line2d_27">
    <path clip-path="url(#pb4fa00dae8)" d="M 334.094815 276.812 
L 329.538115 277.636304 
" style="fill:none;stroke:#ff7f0e;stroke-linecap:square;stroke-width:0.5;"/>
   </g>
   <g id="line2d_28">
    <path clip-path="url(#pb4fa00dae8)" d="M 297.257619 276.812 
L 293.612172 277.365239 
" style="fill:none;stroke:#ff7f0e;stroke-linecap:square;stroke-width:0.5;"/>
   </g>
   <g id="line2d_29">
    <path clip-path="url(#pb4fa00dae8)" d="M 265.1914 276.812 
L 262.339227 277.129266 
" style="fill:none;stroke:#ff7f0e;stroke-linecap:square;stroke-width:0.5;"/>
   </g>
   <g id="line2d_30">
    <path clip-path="url(#pb4fa00dae8)" d="M 235.595166 276.812 
L 233.475126 276.911482 
" style="fill:none;stroke:#ff7f0e;stroke-linecap:square;stroke-width:0.5;"/>
   </g>
   <g id="line2d_31">
    <path clip-path="url(#pb4fa00dae8)" d="M 206.765459 276.812 
L 201.352852 276.300295 
L 196.485601 275.635464 
L 192.119127 274.833127 
L 188.212439 273.907585 
L 184.727676 272.871989 
L 181.630015 271.738383 
L 178.887348 270.517813 
L 176.470057 269.220416 
L 174.350865 267.855478 
L 172.504625 266.431506 
L 170.908158 264.95629 
L 169.540069 263.436974 
L 168.121523 261.485604 
L 166.994424 259.486875 
L 166.127084 257.451083 
L 165.490976 255.38738 
L 165.060444 253.303888 
L 164.782783 250.78767 
L 164.732288 248.264236 
L 164.918692 245.323636 
L 165.327969 242.39875 
L 166.02063 239.088792 
L 167.029998 235.422153 
L 168.37125 231.435782 
L 170.041099 227.174396 
L 172.189396 222.323335 
L 174.800352 216.992445 
L 177.996044 210.985711 
L 181.847589 204.223649 
L 186.651863 196.249931 
L 192.705187 186.649183 
L 200.927335 174.051949 
L 214.895643 153.123209 
L 221.180313 143.756 
L 221.180313 143.756 
" style="fill:none;stroke:#ff7f0e;stroke-linecap:square;stroke-width:0.5;"/>
   </g>
   <g id="line2d_32">
    <path clip-path="url(#pb4fa00dae8)" d="M 177.169225 276.812 
L 174.595198 275.46105 
L 172.337041 274.038143 
L 170.368282 272.552252 
L 168.664232 271.011682 
L 167.202292 269.423984 
L 165.961689 267.796045 
L 164.693019 265.714126 
L 163.706082 263.590313 
L 162.970146 261.434497 
L 162.457461 259.255499 
L 162.142988 257.061167 
L 161.995631 254.41748 
L 162.066553 251.772222 
L 162.384586 248.696084 
L 162.915835 245.642234 
L 163.73725 242.192365 
L 164.879381 238.377131 
L 166.35509 234.235626 
L 168.159186 229.814589 
L 170.450317 224.788283 
L 173.208126 219.271388 
L 176.55909 213.061715 
L 180.753654 205.775993 
L 185.890573 197.32123 
L 192.38427 187.082798 
L 201.218275 173.597691 
L 217.051844 149.908917 
L 221.180313 143.756 
L 221.180313 143.756 
" style="fill:none;stroke:#ff7f0e;stroke-linecap:square;stroke-width:0.5;"/>
   </g>
   <g id="line2d_33">
    <path clip-path="url(#pb4fa00dae8)" d="M 145.103006 276.812 
L 146.025146 272.866963 
L 147.309295 268.42394 
L 148.985504 263.524794 
L 151.06329 258.221311 
L 153.531605 252.574105 
L 156.360641 246.650786 
L 159.748556 240.064917 
L 163.874712 232.54471 
L 168.849792 223.969197 
L 174.664837 214.401079 
L 181.915047 202.917332 
L 191.256979 188.5613 
L 205.15849 167.650558 
L 221.180313 143.756 
L 221.180313 143.756 
" style="fill:none;stroke:#ff7f0e;stroke-linecap:square;stroke-width:0.5;"/>
   </g>
   <g id="line2d_34">
    <path clip-path="url(#pb4fa00dae8)" d="M 108.26581 276.812 
L 117.03916 269.539593 
L 124.799165 262.820914 
L 132.412538 255.928797 
L 139.754163 248.960449 
L 146.73698 241.998897 
L 153.30858 235.113275 
L 159.444723 228.360354 
L 165.495571 221.369671 
L 171.626554 213.931729 
L 177.616388 206.313307 
L 183.93908 197.905452 
L 190.818021 188.373425 
L 198.821924 176.882943 
L 209.986024 160.426526 
L 221.180313 143.756 
L 221.180313 143.756 
" style="fill:none;stroke:#ff7f0e;stroke-linecap:square;stroke-width:0.5;"/>
   </g>
   <g id="line2d_35">
    <path clip-path="url(#pb4fa00dae8)" d="M 62.989956 276.812 
L 79.175473 267.875409 
L 93.249835 259.839346 
L 105.514734 252.586938 
L 116.227012 246.018198 
L 126.694261 239.339165 
L 135.737473 233.312989 
L 144.383399 227.276518 
L 151.795472 221.837053 
L 158.770437 216.443257 
L 165.225707 211.159304 
L 171.121586 206.032746 
L 176.453567 201.096777 
L 181.533974 196.076561 
L 186.2552 191.085717 
L 190.763652 185.985362 
L 195.103305 180.738034 
L 199.505651 175.066321 
L 204.310484 168.502171 
L 210.0944 160.199322 
L 220.103132 145.361341 
L 221.180313 143.756 
L 221.180313 143.756 
" style="fill:none;stroke:#ff7f0e;stroke-linecap:square;stroke-width:0.5;"/>
   </g>
   <g id="line2d_36">
    <path clip-path="url(#pb4fa00dae8)" d="M 42.620313 252.392861 
L 67.486866 241.27517 
L 90.574349 230.709915 
L 109.709942 221.712809 
L 125.598251 214.016659 
L 140.011385 206.792388 
L 151.816712 200.638963 
L 162.308914 194.922176 
L 170.813287 190.051282 
L 178.255784 185.54585 
L 184.6625 181.414795 
L 190.104723 177.649144 
L 194.934117 174.031409 
L 198.903365 170.788427 
L 202.466151 167.593835 
L 205.665606 164.420055 
L 208.593566 161.192098 
L 211.369212 157.795344 
L 214.325973 153.812459 
L 218.306614 148.033436 
L 221.180313 143.756 
L 221.180313 143.756 
" style="fill:none;stroke:#ff7f0e;stroke-linecap:square;stroke-width:0.5;"/>
   </g>
   <g id="line2d_37">
    <path clip-path="url(#pb4fa00dae8)" d="M 42.620313 220.575917 
L 96.993553 199.384775 
L 135.971868 183.971564 
L 163.351309 172.926408 
L 182.899713 164.814779 
L 196.283952 159.029499 
L 205.110697 154.983424 
L 210.898867 152.096946 
L 214.6115 150.008576 
L 216.971181 148.439645 
L 218.528632 147.146102 
L 219.647452 145.929284 
L 220.842086 144.259722 
L 221.180313 143.756 
L 221.180313 143.756 
" style="fill:none;stroke:#ff7f0e;stroke-linecap:square;stroke-width:0.5;"/>
   </g>
   <g id="line2d_38">
    <path clip-path="url(#pb4fa00dae8)" d="M 42.620313 194.217485 
L 91.586991 177.134358 
L 127.667949 164.768319 
L 155.713382 155.382325 
L 175.891102 148.845947 
L 191.124386 144.130566 
L 202.305108 140.896427 
L 209.925395 138.908658 
L 215.307522 137.722715 
L 218.822847 137.158051 
L 221.168681 136.995502 
L 222.591874 137.109007 
L 223.410802 137.386387 
L 223.837536 137.75446 
L 224.020619 138.208275 
L 224.000254 138.802376 
L 223.729001 139.626866 
L 223.052486 140.894943 
L 221.342405 143.514427 
L 221.180312 143.756 
L 221.180313 143.756 
" style="fill:none;stroke:#ff7f0e;stroke-linecap:square;stroke-width:0.5;"/>
   </g>
   <g id="line2d_39">
    <path clip-path="url(#pb4fa00dae8)" d="M 42.620313 170.919577 
L 76.286319 160.108408 
L 104.219185 151.357078 
L 127.371987 144.313843 
L 148.453598 138.136625 
L 165.514936 133.375476 
L 179.294403 129.759271 
L 190.396122 127.066722 
L 199.31422 125.117336 
L 206.453063 123.763887 
L 212.142981 122.886569 
L 217.049353 122.355566 
L 220.819771 122.178388 
L 223.687492 122.271842 
L 225.839235 122.569876 
L 227.424403 123.020153 
L 228.562463 123.581311 
L 229.348881 124.220763 
L 229.859898 124.912924 
L 230.174389 125.704761 
L 230.30061 126.651559 
L 230.21833 127.736013 
L 229.893359 129.061144 
L 229.238077 130.751059 
L 228.135335 132.934064 
L 226.365035 135.907078 
L 223.068491 140.940021 
L 221.180312 143.756 
L 221.180313 143.756 
" style="fill:none;stroke:#ff7f0e;stroke-linecap:square;stroke-width:0.5;"/>
   </g>
   <g id="line2d_40">
    <path clip-path="url(#pb4fa00dae8)" d="M 42.620313 149.117973 
L 71.214626 140.568066 
L 95.89213 133.405127 
L 117.170873 127.43863 
L 135.500813 122.503334 
L 151.273029 118.45585 
L 166.600166 114.758571 
L 179.465383 111.899612 
L 190.240353 109.743591 
L 199.241496 108.17559 
L 206.738235 107.098084 
L 212.959786 106.428418 
L 218.101211 106.096552 
L 222.328522 106.043169 
L 225.782878 106.21811 
L 228.584396 106.578961 
L 230.835167 107.089933 
L 232.621974 107.720851 
L 234.018553 108.446319 
L 235.087562 109.244984 
L 235.882195 110.098944 
L 236.504032 111.107225 
L 236.889473 112.149021 
L 237.094803 113.328558 
L 237.099283 114.753542 
L 236.857018 116.403572 
L 236.354682 118.244622 
L 235.518405 120.445913 
L 234.263139 123.103981 
L 232.419085 126.455811 
L 229.722821 130.858995 
L 225.237669 137.701287 
L 221.180312 143.756 
L 221.180312 143.756 
" style="fill:none;stroke:#ff7f0e;stroke-linecap:square;stroke-width:0.5;"/>
   </g>
   <g id="line2d_41">
    <path clip-path="url(#pb4fa00dae8)" d="M 42.620313 127.600077 
L 68.990507 120.218731 
L 92.195971 113.944281 
L 112.600069 108.643479 
L 130.525205 104.198275 
L 146.256482 100.504455 
L 160.046928 97.469696 
L 172.120735 95.012362 
L 182.676715 93.060216 
L 191.89102 91.549411 
L 199.919717 90.423528 
L 207.971657 89.530329 
L 214.790305 89.024168 
L 220.542993 88.845193 
L 225.374992 88.941685 
L 229.412396 89.268988 
L 232.764619 89.78858 
L 235.526604 90.467255 
L 237.780718 91.276416 
L 239.598367 92.191478 
L 241.041442 93.191334 
L 242.163597 94.257876 
L 243.011317 95.375603 
L 243.624846 96.531279 
L 244.08373 97.884121 
L 244.343777 99.430221 
L 244.38353 100.986103 
L 244.196638 102.88192 
L 243.76847 104.922374 
L 243.058255 107.243412 
L 241.998194 109.949466 
L 240.456184 113.237531 
L 238.415725 117.046508 
L 235.563627 121.869563 
L 231.500751 128.264077 
L 224.381231 138.984606 
L 221.180312 143.756 
L 221.180312 143.756 
" style="fill:none;stroke:#ff7f0e;stroke-linecap:square;stroke-width:0.5;"/>
   </g>
   <g id="line2d_42">
    <path clip-path="url(#pb4fa00dae8)" d="M 42.620313 105.21586 
L 66.237354 99.010747 
L 87.442844 93.640084 
L 106.470862 89.018236 
L 123.532474 85.068107 
L 138.818907 81.719955 
L 152.502716 78.910954 
L 167.026522 76.172364 
L 179.708334 74.041075 
L 190.76223 72.43966 
L 200.377984 71.299679 
L 208.723897 70.560625 
L 215.94895 70.169123 
L 222.185055 70.078096 
L 227.549168 70.245979 
L 232.144815 70.636149 
L 236.063673 71.216342 
L 239.386928 71.958146 
L 242.186438 72.836569 
L 244.525788 73.829651 
L 246.461243 74.918107 
L 248.042605 76.08501 
L 249.31393 77.315527 
L 250.314161 78.596682 
L 251.077708 79.917143 
L 251.709739 81.494244 
L 252.103119 83.097918 
L 252.307127 84.948591 
L 252.293699 86.804731 
L 252.067606 88.88488 
L 251.553144 91.39713 
L 250.768901 94.079455 
L 249.650187 97.109407 
L 248.110276 100.619906 
L 246.079344 104.676101 
L 243.448411 109.41998 
L 239.964554 115.223871 
L 235.171098 122.749635 
L 227.429446 134.436789 
L 221.180312 143.756 
L 221.180312 143.756 
" style="fill:none;stroke:#ff7f0e;stroke-linecap:square;stroke-width:0.5;"/>
   </g>
   <g id="line2d_43">
    <path clip-path="url(#pb4fa00dae8)" d="M 42.620313 80.620143 
L 67.788619 74.444332 
L 90.359086 69.157382 
L 110.584391 64.667101 
L 128.693267 60.890173 
L 144.89184 57.751656 
L 159.366241 55.18401 
L 172.285087 53.126179 
L 183.800822 51.523087 
L 194.051284 50.325058 
L 203.161027 49.487323 
L 211.242635 48.969535 
L 218.397949 48.735307 
L 224.719044 48.751854 
L 230.289075 48.989675 
L 235.183213 49.422211 
L 239.46938 50.025565 
L 243.208936 50.778249 
L 246.457315 51.660953 
L 249.264583 52.656329 
L 251.675988 53.748797 
L 253.732405 54.92437 
L 255.470727 56.170517 
L 256.924231 57.476024 
L 258.122953 58.830853 
L 259.094013 60.226027 
L 259.993067 61.942257 
L 260.637184 63.69285 
L 261.059715 65.46717 
L 261.311702 67.554952 
L 261.342908 69.649954 
L 261.153295 72.039601 
L 260.706021 74.706612 
L 259.980726 77.626201 
L 258.97397 80.766599 
L 257.5854 84.361871 
L 255.814269 88.333298 
L 253.443529 93.06994 
L 250.544413 98.350467 
L 246.796434 104.695547 
L 241.945225 112.450086 
L 235.11199 122.923548 
L 221.656778 143.045912 
L 221.180312 143.756 
L 221.180312 143.756 
" style="fill:none;stroke:#ff7f0e;stroke-linecap:square;stroke-width:0.5;"/>
   </g>
   <g id="line2d_44">
    <path clip-path="url(#pb4fa00dae8)" d="M 42.620313 51.914074 
L 64.437239 46.921443 
L 84.416208 42.551507 
L 102.701556 38.751713 
L 119.427253 35.473353 
L 134.716468 32.67172 
L 148.682307 30.30583 
L 161.429488 28.337801 
L 173.054615 26.732754 
L 183.646746 25.458599 
L 193.288033 24.485795 
L 202.054289 23.787143 
L 210.015444 23.337618 
L 217.235989 23.114196 
L 223.775393 23.095708 
L 229.688538 23.262673 
L 235.026022 23.597187 
L 239.834501 24.082797 
L 244.157001 24.704382 
L 248.033176 25.448062 
L 251.499595 26.301086 
L 254.58998 27.251748 
L 257.335415 28.289308 
L 259.764546 29.403917 
L 261.903756 30.586553 
L 263.777381 31.828941 
L 265.779933 33.454465 
L 267.442396 35.148144 
L 268.80083 36.897988 
L 269.887764 38.693288 
L 270.732541 40.524486 
L 271.361626 42.383063 
L 271.865247 44.638879 
L 272.129328 46.911728 
L 272.186359 49.191639 
L 272.029231 51.849053 
L 271.602822 54.868791 
L 270.961377 57.856471 
L 270.035632 61.165046 
L 268.680905 65.115527 
L 267.004099 69.289298 
L 264.881712 73.960223 
L 262.183721 79.326134 
L 258.978625 85.197797 
L 254.935705 92.125851 
L 249.787893 100.477107 
L 243.049034 110.954274 
L 232.97103 126.16674 
L 221.180312 143.756 
L 221.180312 143.756 
" style="fill:none;stroke:#ff7f0e;stroke-linecap:square;stroke-width:0.5;"/>
   </g>
   <g id="line2d_45">
    <path clip-path="url(#pb4fa00dae8)" d="M 42.620313 15.953977 
L 48.731297 14.646356 
L 54.709021 13.383565 
L 60.555628 12.164817 
L 66.273785 10.989141 
L 71.86592 9.855656 
" style="fill:none;stroke:#ff7f0e;stroke-linecap:square;stroke-width:0.5;"/>
   </g>
   <g id="line2d_46">
    <path clip-path="url(#pb4fa00dae8)" d="M 87.001177 10.7 
L 92.083911 9.71922 
" style="fill:none;stroke:#ff7f0e;stroke-linecap:square;stroke-width:0.5;"/>
   </g>
   <g id="line2d_47">
    <path clip-path="url(#pb4fa00dae8)" d="M 127.464795 10.7 
L 131.546562 10.016972 
" style="fill:none;stroke:#ff7f0e;stroke-linecap:square;stroke-width:0.5;"/>
   </g>
   <g id="line2d_48">
    <path clip-path="url(#pb4fa00dae8)" d="M 161.568225 10.7 
L 164.806375 10.267917 
" style="fill:none;stroke:#ff7f0e;stroke-linecap:square;stroke-width:0.5;"/>
   </g>
   <g id="line2d_49">
    <path clip-path="url(#pb4fa00dae8)" d="M 192.161488 10.7 
L 194.64279 10.493055 
" style="fill:none;stroke:#ff7f0e;stroke-linecap:square;stroke-width:0.5;"/>
   </g>
   <g id="line2d_50">
    <path clip-path="url(#pb4fa00dae8)" d="M 221.180312 10.7 
L 227.975381 10.802974 
L 234.113483 11.098551 
L 239.647793 11.567953 
L 244.627356 12.193917 
L 249.097326 12.960614 
L 253.099385 13.853486 
L 256.67197 14.859166 
L 259.850501 15.965392 
L 262.667749 17.16087 
L 265.153791 18.435293 
L 267.336305 19.779229 
L 269.240834 21.184022 
L 270.890951 22.641738 
L 272.30837 24.145113 
L 273.513078 25.687515 
L 274.747736 27.661215 
L 275.711474 29.675766 
L 276.433827 31.721648 
L 276.941464 33.790371 
L 277.300863 36.292432 
L 277.422626 38.805127 
L 277.339479 41.318565 
L 277.021746 44.240573 
L 276.415916 47.552556 
L 275.485058 51.22701 
L 274.211329 55.227499 
L 272.596349 59.509435 
L 270.659707 64.021533 
L 268.26168 69.05921 
L 265.263055 74.833885 
L 261.570903 81.442246 
L 257.021743 89.105993 
L 251.359297 98.190459 
L 243.879938 109.745165 
L 232.354753 127.092099 
L 221.180312 143.756 
L 221.180312 143.756 
" style="fill:none;stroke:#ff7f0e;stroke-linecap:square;stroke-width:0.5;"/>
   </g>
   <g id="line2d_51">
    <path clip-path="url(#pb4fa00dae8)" d="M 221.180313 143.756 
" style="fill:none;stroke:#ff7f0e;stroke-linecap:square;stroke-width:1.5;"/>
   </g>
   <g id="line2d_52">
    <defs>
     <path d="M 0 3 
C 0.795609 3 1.55874 2.683901 2.12132 2.12132 
C 2.683901 1.55874 3 0.795609 3 0 
C 3 -0.795609 2.683901 -1.55874 2.12132 -2.12132 
C 1.55874 -2.683901 0.795609 -3 0 -3 
C -0.795609 -3 -1.55874 -2.683901 -2.12132 -2.12132 
C -2.683901 -1.55874 -3 -0.795609 -3 0 
C -3 0.795609 -2.683901 1.55874 -2.12132 2.12132 
C -1.55874 2.683901 -0.795609 3 0 3 
z
" id="mc5e8c8ba15" style="stroke:#ff0000;"/>
    </defs>
    <g clip-path="url(#pb4fa00dae8)">
     <use style="fill:#ff0000;stroke:#ff0000;" x="221.180313" xlink:href="#mc5e8c8ba15" y="143.756"/>
    </g>
   </g>
   <g id="patch_74">
    <path d="M 42.620313 276.812 
L 42.620313 10.7 
" style="fill:none;stroke:#000000;stroke-linecap:square;stroke-linejoin:miter;stroke-width:0.8;"/>
   </g>
   <g id="patch_75">
    <path d="M 399.740313 276.812 
L 399.740313 10.7 
" style="fill:none;stroke:#000000;stroke-linecap:square;stroke-linejoin:miter;stroke-width:0.8;"/>
   </g>
   <g id="patch_76">
    <path d="M 42.620313 276.812 
L 399.740313 276.812 
" style="fill:none;stroke:#000000;stroke-linecap:square;stroke-linejoin:miter;stroke-width:0.8;"/>
   </g>
   <g id="patch_77">
    <path d="M 42.620313 10.7 
L 399.740313 10.7 
" style="fill:none;stroke:#000000;stroke-linecap:square;stroke-linejoin:miter;stroke-width:0.8;"/>
   </g>
   <g id="legend_1">
    <g id="patch_78">
     <path d="M 249.800312 273.812 
L 395.540313 273.812 
Q 396.740313 273.812 396.740313 272.612 
L 396.740313 255.35825 
Q 396.740313 254.15825 395.540313 254.15825 
L 249.800312 254.15825 
Q 248.600313 254.15825 248.600313 255.35825 
L 248.600313 272.612 
Q 248.600313 273.812 249.800312 273.812 
z
" style="fill:#ffffff;opacity:0.8;stroke:#cccccc;stroke-linejoin:miter;"/>
    </g>
    <g id="line2d_53">
     <path d="M 251.000313 259.017312 
L 263.000313 259.017312 
" style="fill:none;stroke:#ff7f0e;stroke-linecap:square;stroke-width:1.5;"/>
    </g>
    <g id="line2d_54"/>
    <g id="text_13">
     <!-- system zlinearyzowany -->
     <defs>
      <path d="M 44.28125 53.078125 
L 44.28125 44.578125 
Q 40.484375 46.53125 36.375 47.5 
Q 32.28125 48.484375 27.875 48.484375 
Q 21.1875 48.484375 17.84375 46.4375 
Q 14.5 44.390625 14.5 40.28125 
Q 14.5 37.15625 16.890625 35.375 
Q 19.28125 33.59375 26.515625 31.984375 
L 29.59375 31.296875 
Q 39.15625 29.25 43.1875 25.515625 
Q 47.21875 21.78125 47.21875 15.09375 
Q 47.21875 7.46875 41.1875 3.015625 
Q 35.15625 -1.421875 24.609375 -1.421875 
Q 20.21875 -1.421875 15.453125 -0.5625 
Q 10.6875 0.296875 5.421875 2 
L 5.421875 11.28125 
Q 10.40625 8.6875 15.234375 7.390625 
Q 20.0625 6.109375 24.8125 6.109375 
Q 31.15625 6.109375 34.5625 8.28125 
Q 37.984375 10.453125 37.984375 14.40625 
Q 37.984375 18.0625 35.515625 20.015625 
Q 33.0625 21.96875 24.703125 23.78125 
L 21.578125 24.515625 
Q 13.234375 26.265625 9.515625 29.90625 
Q 5.8125 33.546875 5.8125 39.890625 
Q 5.8125 47.609375 11.28125 51.796875 
Q 16.75 56 26.8125 56 
Q 31.78125 56 36.171875 55.265625 
Q 40.578125 54.546875 44.28125 53.078125 
" id="DejaVuSans-73"/>
      <path d="M 32.171875 -5.078125 
Q 28.375 -14.84375 24.75 -17.8125 
Q 21.140625 -20.796875 15.09375 -20.796875 
L 7.90625 -20.796875 
L 7.90625 -13.28125 
L 13.1875 -13.28125 
Q 16.890625 -13.28125 18.9375 -11.515625 
Q 21 -9.765625 23.484375 -3.21875 
L 25.09375 0.875 
L 2.984375 54.6875 
L 12.5 54.6875 
L 29.59375 11.921875 
L 46.6875 54.6875 
L 56.203125 54.6875 
z
" id="DejaVuSans-79"/>
      <path d="M 18.3125 70.21875 
L 18.3125 54.6875 
L 36.8125 54.6875 
L 36.8125 47.703125 
L 18.3125 47.703125 
L 18.3125 18.015625 
Q 18.3125 11.328125 20.140625 9.421875 
Q 21.96875 7.515625 27.59375 7.515625 
L 36.8125 7.515625 
L 36.8125 0 
L 27.59375 0 
Q 17.1875 0 13.234375 3.875 
Q 9.28125 7.765625 9.28125 18.015625 
L 9.28125 47.703125 
L 2.6875 47.703125 
L 2.6875 54.6875 
L 9.28125 54.6875 
L 9.28125 70.21875 
z
" id="DejaVuSans-74"/>
      <path d="M 56.203125 29.59375 
L 56.203125 25.203125 
L 14.890625 25.203125 
Q 15.484375 15.921875 20.484375 11.0625 
Q 25.484375 6.203125 34.421875 6.203125 
Q 39.59375 6.203125 44.453125 7.46875 
Q 49.3125 8.734375 54.109375 11.28125 
L 54.109375 2.78125 
Q 49.265625 0.734375 44.1875 -0.34375 
Q 39.109375 -1.421875 33.890625 -1.421875 
Q 20.796875 -1.421875 13.15625 6.1875 
Q 5.515625 13.8125 5.515625 26.8125 
Q 5.515625 40.234375 12.765625 48.109375 
Q 20.015625 56 32.328125 56 
Q 43.359375 56 49.78125 48.890625 
Q 56.203125 41.796875 56.203125 29.59375 
M 47.21875 32.234375 
Q 47.125 39.59375 43.09375 43.984375 
Q 39.0625 48.390625 32.421875 48.390625 
Q 24.90625 48.390625 20.390625 44.140625 
Q 15.875 39.890625 15.1875 32.171875 
z
" id="DejaVuSans-65"/>
      <path d="M 52 44.1875 
Q 55.375 50.25 60.0625 53.125 
Q 64.75 56 71.09375 56 
Q 79.640625 56 84.28125 50.015625 
Q 88.921875 44.046875 88.921875 33.015625 
L 88.921875 0 
L 79.890625 0 
L 79.890625 32.71875 
Q 79.890625 40.578125 77.09375 44.375 
Q 74.3125 48.1875 68.609375 48.1875 
Q 61.625 48.1875 57.5625 43.546875 
Q 53.515625 38.921875 53.515625 30.90625 
L 53.515625 0 
L 44.484375 0 
L 44.484375 32.71875 
Q 44.484375 40.625 41.703125 44.40625 
Q 38.921875 48.1875 33.109375 48.1875 
Q 26.21875 48.1875 22.15625 43.53125 
Q 18.109375 38.875 18.109375 30.90625 
L 18.109375 0 
L 9.078125 0 
L 9.078125 54.6875 
L 18.109375 54.6875 
L 18.109375 46.1875 
Q 21.1875 51.21875 25.484375 53.609375 
Q 29.78125 56 35.6875 56 
Q 41.65625 56 45.828125 52.96875 
Q 50 49.953125 52 44.1875 
" id="DejaVuSans-6d"/>
      <path id="DejaVuSans-20"/>
      <path d="M 5.515625 54.6875 
L 48.1875 54.6875 
L 48.1875 46.484375 
L 14.40625 7.171875 
L 48.1875 7.171875 
L 48.1875 0 
L 4.296875 0 
L 4.296875 8.203125 
L 38.09375 47.515625 
L 5.515625 47.515625 
z
" id="DejaVuSans-7a"/>
      <path d="M 9.421875 75.984375 
L 18.40625 75.984375 
L 18.40625 0 
L 9.421875 0 
z
" id="DejaVuSans-6c"/>
      <path d="M 9.421875 54.6875 
L 18.40625 54.6875 
L 18.40625 0 
L 9.421875 0 
z
M 9.421875 75.984375 
L 18.40625 75.984375 
L 18.40625 64.59375 
L 9.421875 64.59375 
z
" id="DejaVuSans-69"/>
      <path d="M 54.890625 33.015625 
L 54.890625 0 
L 45.90625 0 
L 45.90625 32.71875 
Q 45.90625 40.484375 42.875 44.328125 
Q 39.84375 48.1875 33.796875 48.1875 
Q 26.515625 48.1875 22.3125 43.546875 
Q 18.109375 38.921875 18.109375 30.90625 
L 18.109375 0 
L 9.078125 0 
L 9.078125 54.6875 
L 18.109375 54.6875 
L 18.109375 46.1875 
Q 21.34375 51.125 25.703125 53.5625 
Q 30.078125 56 35.796875 56 
Q 45.21875 56 50.046875 50.171875 
Q 54.890625 44.34375 54.890625 33.015625 
" id="DejaVuSans-6e"/>
      <path d="M 34.28125 27.484375 
Q 23.390625 27.484375 19.1875 25 
Q 14.984375 22.515625 14.984375 16.5 
Q 14.984375 11.71875 18.140625 8.90625 
Q 21.296875 6.109375 26.703125 6.109375 
Q 34.1875 6.109375 38.703125 11.40625 
Q 43.21875 16.703125 43.21875 25.484375 
L 43.21875 27.484375 
z
M 52.203125 31.203125 
L 52.203125 0 
L 43.21875 0 
L 43.21875 8.296875 
Q 40.140625 3.328125 35.546875 0.953125 
Q 30.953125 -1.421875 24.3125 -1.421875 
Q 15.921875 -1.421875 10.953125 3.296875 
Q 6 8.015625 6 15.921875 
Q 6 25.140625 12.171875 29.828125 
Q 18.359375 34.515625 30.609375 34.515625 
L 43.21875 34.515625 
L 43.21875 35.40625 
Q 43.21875 41.609375 39.140625 45 
Q 35.0625 48.390625 27.6875 48.390625 
Q 23 48.390625 18.546875 47.265625 
Q 14.109375 46.140625 10.015625 43.890625 
L 10.015625 52.203125 
Q 14.9375 54.109375 19.578125 55.046875 
Q 24.21875 56 28.609375 56 
Q 40.484375 56 46.34375 49.84375 
Q 52.203125 43.703125 52.203125 31.203125 
" id="DejaVuSans-61"/>
      <path d="M 41.109375 46.296875 
Q 39.59375 47.171875 37.8125 47.578125 
Q 36.03125 48 33.890625 48 
Q 26.265625 48 22.1875 43.046875 
Q 18.109375 38.09375 18.109375 28.8125 
L 18.109375 0 
L 9.078125 0 
L 9.078125 54.6875 
L 18.109375 54.6875 
L 18.109375 46.1875 
Q 20.953125 51.171875 25.484375 53.578125 
Q 30.03125 56 36.53125 56 
Q 37.453125 56 38.578125 55.875 
Q 39.703125 55.765625 41.0625 55.515625 
z
" id="DejaVuSans-72"/>
      <path d="M 30.609375 48.390625 
Q 23.390625 48.390625 19.1875 42.75 
Q 14.984375 37.109375 14.984375 27.296875 
Q 14.984375 17.484375 19.15625 11.84375 
Q 23.34375 6.203125 30.609375 6.203125 
Q 37.796875 6.203125 41.984375 11.859375 
Q 46.1875 17.53125 46.1875 27.296875 
Q 46.1875 37.015625 41.984375 42.703125 
Q 37.796875 48.390625 30.609375 48.390625 
M 30.609375 56 
Q 42.328125 56 49.015625 48.375 
Q 55.71875 40.765625 55.71875 27.296875 
Q 55.71875 13.875 49.015625 6.21875 
Q 42.328125 -1.421875 30.609375 -1.421875 
Q 18.84375 -1.421875 12.171875 6.21875 
Q 5.515625 13.875 5.515625 27.296875 
Q 5.515625 40.765625 12.171875 48.375 
Q 18.84375 56 30.609375 56 
" id="DejaVuSans-6f"/>
      <path d="M 4.203125 54.6875 
L 13.1875 54.6875 
L 24.421875 12.015625 
L 35.59375 54.6875 
L 46.1875 54.6875 
L 57.421875 12.015625 
L 68.609375 54.6875 
L 77.59375 54.6875 
L 63.28125 0 
L 52.6875 0 
L 40.921875 44.828125 
L 29.109375 0 
L 18.5 0 
z
" id="DejaVuSans-77"/>
     </defs>
     <g transform="translate(267.800313 261.117312)scale(0.06 -0.06)">
      <use xlink:href="#DejaVuSans-73"/>
      <use x="52.099609" xlink:href="#DejaVuSans-79"/>
      <use x="111.279297" xlink:href="#DejaVuSans-73"/>
      <use x="163.378906" xlink:href="#DejaVuSans-74"/>
      <use x="202.587891" xlink:href="#DejaVuSans-65"/>
      <use x="264.111328" xlink:href="#DejaVuSans-6d"/>
      <use x="361.523438" xlink:href="#DejaVuSans-20"/>
      <use x="393.310547" xlink:href="#DejaVuSans-7a"/>
      <use x="445.800781" xlink:href="#DejaVuSans-6c"/>
      <use x="473.583984" xlink:href="#DejaVuSans-69"/>
      <use x="501.367188" xlink:href="#DejaVuSans-6e"/>
      <use x="564.746094" xlink:href="#DejaVuSans-65"/>
      <use x="626.269531" xlink:href="#DejaVuSans-61"/>
      <use x="687.548828" xlink:href="#DejaVuSans-72"/>
      <use x="728.662109" xlink:href="#DejaVuSans-79"/>
      <use x="787.841797" xlink:href="#DejaVuSans-7a"/>
      <use x="840.332031" xlink:href="#DejaVuSans-6f"/>
      <use x="901.513672" xlink:href="#DejaVuSans-77"/>
      <use x="983.300781" xlink:href="#DejaVuSans-61"/>
      <use x="1044.580078" xlink:href="#DejaVuSans-6e"/>
      <use x="1107.958984" xlink:href="#DejaVuSans-79"/>
     </g>
    </g>
    <g id="line2d_55"/>
    <g id="line2d_56">
     <g>
      <use style="fill:#ff0000;stroke:#ff0000;" x="257.000313" xlink:href="#mc5e8c8ba15" y="268.064187"/>
     </g>
    </g>
    <g id="text_14">
     <!-- Punkt równowagi asymptotycznie stabilny -->
     <defs>
      <path d="M 19.671875 64.796875 
L 19.671875 37.40625 
L 32.078125 37.40625 
Q 38.96875 37.40625 42.71875 40.96875 
Q 46.484375 44.53125 46.484375 51.125 
Q 46.484375 57.671875 42.71875 61.234375 
Q 38.96875 64.796875 32.078125 64.796875 
z
M 9.8125 72.90625 
L 32.078125 72.90625 
Q 44.34375 72.90625 50.609375 67.359375 
Q 56.890625 61.8125 56.890625 51.125 
Q 56.890625 40.328125 50.609375 34.8125 
Q 44.34375 29.296875 32.078125 29.296875 
L 19.671875 29.296875 
L 19.671875 0 
L 9.8125 0 
z
" id="DejaVuSans-50"/>
      <path d="M 8.5 21.578125 
L 8.5 54.6875 
L 17.484375 54.6875 
L 17.484375 21.921875 
Q 17.484375 14.15625 20.5 10.265625 
Q 23.53125 6.390625 29.59375 6.390625 
Q 36.859375 6.390625 41.078125 11.03125 
Q 45.3125 15.671875 45.3125 23.6875 
L 45.3125 54.6875 
L 54.296875 54.6875 
L 54.296875 0 
L 45.3125 0 
L 45.3125 8.40625 
Q 42.046875 3.421875 37.71875 1 
Q 33.40625 -1.421875 27.6875 -1.421875 
Q 18.265625 -1.421875 13.375 4.4375 
Q 8.5 10.296875 8.5 21.578125 
M 31.109375 56 
z
" id="DejaVuSans-75"/>
      <path d="M 9.078125 75.984375 
L 18.109375 75.984375 
L 18.109375 31.109375 
L 44.921875 54.6875 
L 56.390625 54.6875 
L 27.390625 29.109375 
L 57.625 0 
L 45.90625 0 
L 18.109375 26.703125 
L 18.109375 0 
L 9.078125 0 
z
" id="DejaVuSans-6b"/>
      <path d="M 30.609375 48.390625 
Q 23.390625 48.390625 19.1875 42.75 
Q 14.984375 37.109375 14.984375 27.296875 
Q 14.984375 17.484375 19.15625 11.84375 
Q 23.34375 6.203125 30.609375 6.203125 
Q 37.796875 6.203125 41.984375 11.859375 
Q 46.1875 17.53125 46.1875 27.296875 
Q 46.1875 37.015625 41.984375 42.703125 
Q 37.796875 48.390625 30.609375 48.390625 
M 30.609375 56 
Q 42.328125 56 49.015625 48.375 
Q 55.71875 40.765625 55.71875 27.296875 
Q 55.71875 13.875 49.015625 6.21875 
Q 42.328125 -1.421875 30.609375 -1.421875 
Q 18.84375 -1.421875 12.171875 6.21875 
Q 5.515625 13.875 5.515625 27.296875 
Q 5.515625 40.765625 12.171875 48.375 
Q 18.84375 56 30.609375 56 
M 37.40625 79.984375 
L 47.125 79.984375 
L 31.21875 61.625 
L 23.734375 61.625 
z
" id="DejaVuSans-f3"/>
      <path d="M 45.40625 27.984375 
Q 45.40625 37.75 41.375 43.109375 
Q 37.359375 48.484375 30.078125 48.484375 
Q 22.859375 48.484375 18.828125 43.109375 
Q 14.796875 37.75 14.796875 27.984375 
Q 14.796875 18.265625 18.828125 12.890625 
Q 22.859375 7.515625 30.078125 7.515625 
Q 37.359375 7.515625 41.375 12.890625 
Q 45.40625 18.265625 45.40625 27.984375 
M 54.390625 6.78125 
Q 54.390625 -7.171875 48.1875 -13.984375 
Q 42 -20.796875 29.203125 -20.796875 
Q 24.46875 -20.796875 20.265625 -20.09375 
Q 16.0625 -19.390625 12.109375 -17.921875 
L 12.109375 -9.1875 
Q 16.0625 -11.328125 19.921875 -12.34375 
Q 23.78125 -13.375 27.78125 -13.375 
Q 36.625 -13.375 41.015625 -8.765625 
Q 45.40625 -4.15625 45.40625 5.171875 
L 45.40625 9.625 
Q 42.625 4.78125 38.28125 2.390625 
Q 33.9375 0 27.875 0 
Q 17.828125 0 11.671875 7.65625 
Q 5.515625 15.328125 5.515625 27.984375 
Q 5.515625 40.671875 11.671875 48.328125 
Q 17.828125 56 27.875 56 
Q 33.9375 56 38.28125 53.609375 
Q 42.625 51.21875 45.40625 46.390625 
L 45.40625 54.6875 
L 54.390625 54.6875 
z
" id="DejaVuSans-67"/>
      <path d="M 18.109375 8.203125 
L 18.109375 -20.796875 
L 9.078125 -20.796875 
L 9.078125 54.6875 
L 18.109375 54.6875 
L 18.109375 46.390625 
Q 20.953125 51.265625 25.265625 53.625 
Q 29.59375 56 35.59375 56 
Q 45.5625 56 51.78125 48.09375 
Q 58.015625 40.1875 58.015625 27.296875 
Q 58.015625 14.40625 51.78125 6.484375 
Q 45.5625 -1.421875 35.59375 -1.421875 
Q 29.59375 -1.421875 25.265625 0.953125 
Q 20.953125 3.328125 18.109375 8.203125 
M 48.6875 27.296875 
Q 48.6875 37.203125 44.609375 42.84375 
Q 40.53125 48.484375 33.40625 48.484375 
Q 26.265625 48.484375 22.1875 42.84375 
Q 18.109375 37.203125 18.109375 27.296875 
Q 18.109375 17.390625 22.1875 11.75 
Q 26.265625 6.109375 33.40625 6.109375 
Q 40.53125 6.109375 44.609375 11.75 
Q 48.6875 17.390625 48.6875 27.296875 
" id="DejaVuSans-70"/>
      <path d="M 48.78125 52.59375 
L 48.78125 44.1875 
Q 44.96875 46.296875 41.140625 47.34375 
Q 37.3125 48.390625 33.40625 48.390625 
Q 24.65625 48.390625 19.8125 42.84375 
Q 14.984375 37.3125 14.984375 27.296875 
Q 14.984375 17.28125 19.8125 11.734375 
Q 24.65625 6.203125 33.40625 6.203125 
Q 37.3125 6.203125 41.140625 7.25 
Q 44.96875 8.296875 48.78125 10.40625 
L 48.78125 2.09375 
Q 45.015625 0.34375 40.984375 -0.53125 
Q 36.96875 -1.421875 32.421875 -1.421875 
Q 20.0625 -1.421875 12.78125 6.34375 
Q 5.515625 14.109375 5.515625 27.296875 
Q 5.515625 40.671875 12.859375 48.328125 
Q 20.21875 56 33.015625 56 
Q 37.15625 56 41.109375 55.140625 
Q 45.0625 54.296875 48.78125 52.59375 
" id="DejaVuSans-63"/>
      <path d="M 48.6875 27.296875 
Q 48.6875 37.203125 44.609375 42.84375 
Q 40.53125 48.484375 33.40625 48.484375 
Q 26.265625 48.484375 22.1875 42.84375 
Q 18.109375 37.203125 18.109375 27.296875 
Q 18.109375 17.390625 22.1875 11.75 
Q 26.265625 6.109375 33.40625 6.109375 
Q 40.53125 6.109375 44.609375 11.75 
Q 48.6875 17.390625 48.6875 27.296875 
M 18.109375 46.390625 
Q 20.953125 51.265625 25.265625 53.625 
Q 29.59375 56 35.59375 56 
Q 45.5625 56 51.78125 48.09375 
Q 58.015625 40.1875 58.015625 27.296875 
Q 58.015625 14.40625 51.78125 6.484375 
Q 45.5625 -1.421875 35.59375 -1.421875 
Q 29.59375 -1.421875 25.265625 0.953125 
Q 20.953125 3.328125 18.109375 8.203125 
L 18.109375 0 
L 9.078125 0 
L 9.078125 75.984375 
L 18.109375 75.984375 
z
" id="DejaVuSans-62"/>
     </defs>
     <g transform="translate(267.800313 270.164187)scale(0.06 -0.06)">
      <use xlink:href="#DejaVuSans-50"/>
      <use x="60.287109" xlink:href="#DejaVuSans-75"/>
      <use x="123.666016" xlink:href="#DejaVuSans-6e"/>
      <use x="187.044922" xlink:href="#DejaVuSans-6b"/>
      <use x="244.955078" xlink:href="#DejaVuSans-74"/>
      <use x="284.164062" xlink:href="#DejaVuSans-20"/>
      <use x="315.951172" xlink:href="#DejaVuSans-72"/>
      <use x="357.033203" xlink:href="#DejaVuSans-f3"/>
      <use x="418.214844" xlink:href="#DejaVuSans-77"/>
      <use x="500.001953" xlink:href="#DejaVuSans-6e"/>
      <use x="563.380859" xlink:href="#DejaVuSans-6f"/>
      <use x="624.5625" xlink:href="#DejaVuSans-77"/>
      <use x="706.349609" xlink:href="#DejaVuSans-61"/>
      <use x="767.628906" xlink:href="#DejaVuSans-67"/>
      <use x="831.105469" xlink:href="#DejaVuSans-69"/>
      <use x="858.888672" xlink:href="#DejaVuSans-20"/>
      <use x="890.675781" xlink:href="#DejaVuSans-61"/>
      <use x="951.955078" xlink:href="#DejaVuSans-73"/>
      <use x="1004.054688" xlink:href="#DejaVuSans-79"/>
      <use x="1063.234375" xlink:href="#DejaVuSans-6d"/>
      <use x="1160.646484" xlink:href="#DejaVuSans-70"/>
      <use x="1224.123047" xlink:href="#DejaVuSans-74"/>
      <use x="1263.332031" xlink:href="#DejaVuSans-6f"/>
      <use x="1324.513672" xlink:href="#DejaVuSans-74"/>
      <use x="1363.722656" xlink:href="#DejaVuSans-79"/>
      <use x="1422.902344" xlink:href="#DejaVuSans-63"/>
      <use x="1477.882812" xlink:href="#DejaVuSans-7a"/>
      <use x="1530.373047" xlink:href="#DejaVuSans-6e"/>
      <use x="1593.751953" xlink:href="#DejaVuSans-69"/>
      <use x="1621.535156" xlink:href="#DejaVuSans-65"/>
      <use x="1683.058594" xlink:href="#DejaVuSans-20"/>
      <use x="1714.845703" xlink:href="#DejaVuSans-73"/>
      <use x="1766.945312" xlink:href="#DejaVuSans-74"/>
      <use x="1806.154297" xlink:href="#DejaVuSans-61"/>
      <use x="1867.433594" xlink:href="#DejaVuSans-62"/>
      <use x="1930.910156" xlink:href="#DejaVuSans-69"/>
      <use x="1958.693359" xlink:href="#DejaVuSans-6c"/>
      <use x="1986.476562" xlink:href="#DejaVuSans-6e"/>
      <use x="2049.855469" xlink:href="#DejaVuSans-79"/>
     </g>
    </g>
   </g>
  </g>
 </g>
 <defs>
  <clipPath id="pb4fa00dae8">
   <rect height="266.112" width="357.12" x="42.620313" y="10.7"/>
  </clipPath>
 </defs>
</svg>
