<?xml version="1.0" encoding="utf-8" standalone="no"?>
<!DOCTYPE svg PUBLIC "-//W3C//DTD SVG 1.1//EN"
  "http://www.w3.org/Graphics/SVG/1.1/DTD/svg11.dtd">
<!-- Created with matplotlib (http://matplotlib.org/) -->
<svg height="314pt" version="1.1" viewBox="0 0 422 314" width="422pt" xmlns="http://www.w3.org/2000/svg" xmlns:xlink="http://www.w3.org/1999/xlink">
 <defs>
  <style type="text/css">
*{stroke-linecap:butt;stroke-linejoin:round;}
  </style>
 </defs>
 <g id="figure_1">
  <g id="patch_1">
   <path d="M 0 314.667469 
L 422.415312 314.667469 
L 422.415312 0 
L 0 0 
z
" style="fill:#ffffff;"/>
  </g>
  <g id="axes_1">
   <g id="patch_2">
    <path d="M 50.14375 277.111219 
L 407.26375 277.111219 
L 407.26375 10.999219 
L 50.14375 10.999219 
z
" style="fill:#ffffff;"/>
   </g>
   <g id="matplotlib.axis_1">
    <g id="xtick_1">
     <g id="line2d_1">
      <path clip-path="url(#pe812741f9e)" d="M 50.14375 277.111219 
L 50.14375 10.999219 
" style="fill:none;stroke:#b0b0b0;stroke-linecap:square;stroke-width:0.8;"/>
     </g>
     <g id="line2d_2">
      <defs>
       <path d="M 0 0 
L 0 3.5 
" id="m840749e085" style="stroke:#000000;stroke-width:0.8;"/>
      </defs>
      <g>
       <use style="stroke:#000000;stroke-width:0.8;" x="50.14375" xlink:href="#m840749e085" y="277.111219"/>
      </g>
     </g>
     <g id="text_1">
      <!-- 0.0 -->
      <defs>
       <path d="M 31.78125 66.40625 
Q 24.171875 66.40625 20.328125 58.90625 
Q 16.5 51.421875 16.5 36.375 
Q 16.5 21.390625 20.328125 13.890625 
Q 24.171875 6.390625 31.78125 6.390625 
Q 39.453125 6.390625 43.28125 13.890625 
Q 47.125 21.390625 47.125 36.375 
Q 47.125 51.421875 43.28125 58.90625 
Q 39.453125 66.40625 31.78125 66.40625 
M 31.78125 74.21875 
Q 44.046875 74.21875 50.515625 64.515625 
Q 56.984375 54.828125 56.984375 36.375 
Q 56.984375 17.96875 50.515625 8.265625 
Q 44.046875 -1.421875 31.78125 -1.421875 
Q 19.53125 -1.421875 13.0625 8.265625 
Q 6.59375 17.96875 6.59375 36.375 
Q 6.59375 54.828125 13.0625 64.515625 
Q 19.53125 74.21875 31.78125 74.21875 
" id="DejaVuSans-30"/>
       <path d="M 10.6875 12.40625 
L 21 12.40625 
L 21 0 
L 10.6875 0 
z
" id="DejaVuSans-2e"/>
      </defs>
      <g transform="translate(42.192188 291.709656)scale(0.1 -0.1)">
       <use xlink:href="#DejaVuSans-30"/>
       <use x="63.623047" xlink:href="#DejaVuSans-2e"/>
       <use x="95.410156" xlink:href="#DejaVuSans-30"/>
      </g>
     </g>
    </g>
    <g id="xtick_2">
     <g id="line2d_3">
      <path clip-path="url(#pe812741f9e)" d="M 121.56775 277.111219 
L 121.56775 10.999219 
" style="fill:none;stroke:#b0b0b0;stroke-linecap:square;stroke-width:0.8;"/>
     </g>
     <g id="line2d_4">
      <g>
       <use style="stroke:#000000;stroke-width:0.8;" x="121.56775" xlink:href="#m840749e085" y="277.111219"/>
      </g>
     </g>
     <g id="text_2">
      <!-- 0.2 -->
      <defs>
       <path d="M 19.1875 8.296875 
L 53.609375 8.296875 
L 53.609375 0 
L 7.328125 0 
L 7.328125 8.296875 
Q 12.9375 14.109375 22.625 23.890625 
Q 32.328125 33.6875 34.8125 36.53125 
Q 39.546875 41.84375 41.421875 45.53125 
Q 43.3125 49.21875 43.3125 52.78125 
Q 43.3125 58.59375 39.234375 62.25 
Q 35.15625 65.921875 28.609375 65.921875 
Q 23.96875 65.921875 18.8125 64.3125 
Q 13.671875 62.703125 7.8125 59.421875 
L 7.8125 69.390625 
Q 13.765625 71.78125 18.9375 73 
Q 24.125 74.21875 28.421875 74.21875 
Q 39.75 74.21875 46.484375 68.546875 
Q 53.21875 62.890625 53.21875 53.421875 
Q 53.21875 48.921875 51.53125 44.890625 
Q 49.859375 40.875 45.40625 35.40625 
Q 44.1875 33.984375 37.640625 27.21875 
Q 31.109375 20.453125 19.1875 8.296875 
" id="DejaVuSans-32"/>
      </defs>
      <g transform="translate(113.616188 291.709656)scale(0.1 -0.1)">
       <use xlink:href="#DejaVuSans-30"/>
       <use x="63.623047" xlink:href="#DejaVuSans-2e"/>
       <use x="95.410156" xlink:href="#DejaVuSans-32"/>
      </g>
     </g>
    </g>
    <g id="xtick_3">
     <g id="line2d_5">
      <path clip-path="url(#pe812741f9e)" d="M 192.99175 277.111219 
L 192.99175 10.999219 
" style="fill:none;stroke:#b0b0b0;stroke-linecap:square;stroke-width:0.8;"/>
     </g>
     <g id="line2d_6">
      <g>
       <use style="stroke:#000000;stroke-width:0.8;" x="192.99175" xlink:href="#m840749e085" y="277.111219"/>
      </g>
     </g>
     <g id="text_3">
      <!-- 0.4 -->
      <defs>
       <path d="M 37.796875 64.3125 
L 12.890625 25.390625 
L 37.796875 25.390625 
z
M 35.203125 72.90625 
L 47.609375 72.90625 
L 47.609375 25.390625 
L 58.015625 25.390625 
L 58.015625 17.1875 
L 47.609375 17.1875 
L 47.609375 0 
L 37.796875 0 
L 37.796875 17.1875 
L 4.890625 17.1875 
L 4.890625 26.703125 
z
" id="DejaVuSans-34"/>
      </defs>
      <g transform="translate(185.040188 291.709656)scale(0.1 -0.1)">
       <use xlink:href="#DejaVuSans-30"/>
       <use x="63.623047" xlink:href="#DejaVuSans-2e"/>
       <use x="95.410156" xlink:href="#DejaVuSans-34"/>
      </g>
     </g>
    </g>
    <g id="xtick_4">
     <g id="line2d_7">
      <path clip-path="url(#pe812741f9e)" d="M 264.41575 277.111219 
L 264.41575 10.999219 
" style="fill:none;stroke:#b0b0b0;stroke-linecap:square;stroke-width:0.8;"/>
     </g>
     <g id="line2d_8">
      <g>
       <use style="stroke:#000000;stroke-width:0.8;" x="264.41575" xlink:href="#m840749e085" y="277.111219"/>
      </g>
     </g>
     <g id="text_4">
      <!-- 0.6 -->
      <defs>
       <path d="M 33.015625 40.375 
Q 26.375 40.375 22.484375 35.828125 
Q 18.609375 31.296875 18.609375 23.390625 
Q 18.609375 15.53125 22.484375 10.953125 
Q 26.375 6.390625 33.015625 6.390625 
Q 39.65625 6.390625 43.53125 10.953125 
Q 47.40625 15.53125 47.40625 23.390625 
Q 47.40625 31.296875 43.53125 35.828125 
Q 39.65625 40.375 33.015625 40.375 
M 52.59375 71.296875 
L 52.59375 62.3125 
Q 48.875 64.0625 45.09375 64.984375 
Q 41.3125 65.921875 37.59375 65.921875 
Q 27.828125 65.921875 22.671875 59.328125 
Q 17.53125 52.734375 16.796875 39.40625 
Q 19.671875 43.65625 24.015625 45.921875 
Q 28.375 48.1875 33.59375 48.1875 
Q 44.578125 48.1875 50.953125 41.515625 
Q 57.328125 34.859375 57.328125 23.390625 
Q 57.328125 12.15625 50.6875 5.359375 
Q 44.046875 -1.421875 33.015625 -1.421875 
Q 20.359375 -1.421875 13.671875 8.265625 
Q 6.984375 17.96875 6.984375 36.375 
Q 6.984375 53.65625 15.1875 63.9375 
Q 23.390625 74.21875 37.203125 74.21875 
Q 40.921875 74.21875 44.703125 73.484375 
Q 48.484375 72.75 52.59375 71.296875 
" id="DejaVuSans-36"/>
      </defs>
      <g transform="translate(256.464188 291.709656)scale(0.1 -0.1)">
       <use xlink:href="#DejaVuSans-30"/>
       <use x="63.623047" xlink:href="#DejaVuSans-2e"/>
       <use x="95.410156" xlink:href="#DejaVuSans-36"/>
      </g>
     </g>
    </g>
    <g id="xtick_5">
     <g id="line2d_9">
      <path clip-path="url(#pe812741f9e)" d="M 335.83975 277.111219 
L 335.83975 10.999219 
" style="fill:none;stroke:#b0b0b0;stroke-linecap:square;stroke-width:0.8;"/>
     </g>
     <g id="line2d_10">
      <g>
       <use style="stroke:#000000;stroke-width:0.8;" x="335.83975" xlink:href="#m840749e085" y="277.111219"/>
      </g>
     </g>
     <g id="text_5">
      <!-- 0.8 -->
      <defs>
       <path d="M 31.78125 34.625 
Q 24.75 34.625 20.71875 30.859375 
Q 16.703125 27.09375 16.703125 20.515625 
Q 16.703125 13.921875 20.71875 10.15625 
Q 24.75 6.390625 31.78125 6.390625 
Q 38.8125 6.390625 42.859375 10.171875 
Q 46.921875 13.96875 46.921875 20.515625 
Q 46.921875 27.09375 42.890625 30.859375 
Q 38.875 34.625 31.78125 34.625 
M 21.921875 38.8125 
Q 15.578125 40.375 12.03125 44.71875 
Q 8.5 49.078125 8.5 55.328125 
Q 8.5 64.0625 14.71875 69.140625 
Q 20.953125 74.21875 31.78125 74.21875 
Q 42.671875 74.21875 48.875 69.140625 
Q 55.078125 64.0625 55.078125 55.328125 
Q 55.078125 49.078125 51.53125 44.71875 
Q 48 40.375 41.703125 38.8125 
Q 48.828125 37.15625 52.796875 32.3125 
Q 56.78125 27.484375 56.78125 20.515625 
Q 56.78125 9.90625 50.3125 4.234375 
Q 43.84375 -1.421875 31.78125 -1.421875 
Q 19.734375 -1.421875 13.25 4.234375 
Q 6.78125 9.90625 6.78125 20.515625 
Q 6.78125 27.484375 10.78125 32.3125 
Q 14.796875 37.15625 21.921875 38.8125 
M 18.3125 54.390625 
Q 18.3125 48.734375 21.84375 45.5625 
Q 25.390625 42.390625 31.78125 42.390625 
Q 38.140625 42.390625 41.71875 45.5625 
Q 45.3125 48.734375 45.3125 54.390625 
Q 45.3125 60.0625 41.71875 63.234375 
Q 38.140625 66.40625 31.78125 66.40625 
Q 25.390625 66.40625 21.84375 63.234375 
Q 18.3125 60.0625 18.3125 54.390625 
" id="DejaVuSans-38"/>
      </defs>
      <g transform="translate(327.888188 291.709656)scale(0.1 -0.1)">
       <use xlink:href="#DejaVuSans-30"/>
       <use x="63.623047" xlink:href="#DejaVuSans-2e"/>
       <use x="95.410156" xlink:href="#DejaVuSans-38"/>
      </g>
     </g>
    </g>
    <g id="xtick_6">
     <g id="line2d_11">
      <path clip-path="url(#pe812741f9e)" d="M 407.26375 277.111219 
L 407.26375 10.999219 
" style="fill:none;stroke:#b0b0b0;stroke-linecap:square;stroke-width:0.8;"/>
     </g>
     <g id="line2d_12">
      <g>
       <use style="stroke:#000000;stroke-width:0.8;" x="407.26375" xlink:href="#m840749e085" y="277.111219"/>
      </g>
     </g>
     <g id="text_6">
      <!-- 1.0 -->
      <defs>
       <path d="M 12.40625 8.296875 
L 28.515625 8.296875 
L 28.515625 63.921875 
L 10.984375 60.40625 
L 10.984375 69.390625 
L 28.421875 72.90625 
L 38.28125 72.90625 
L 38.28125 8.296875 
L 54.390625 8.296875 
L 54.390625 0 
L 12.40625 0 
z
" id="DejaVuSans-31"/>
      </defs>
      <g transform="translate(399.312187 291.709656)scale(0.1 -0.1)">
       <use xlink:href="#DejaVuSans-31"/>
       <use x="63.623047" xlink:href="#DejaVuSans-2e"/>
       <use x="95.410156" xlink:href="#DejaVuSans-30"/>
      </g>
     </g>
    </g>
    <g id="text_7">
     <!-- $\eta$ -->
     <defs>
      <path d="M 57.859375 33.015625 
L 47.40625 -20.796875 
L 38.421875 -20.796875 
L 48.828125 32.71875 
Q 50.34375 40.484375 48.046875 44.34375 
Q 45.796875 48.1875 39.75 48.1875 
Q 32.46875 48.1875 27.34375 43.5625 
Q 22.265625 38.921875 20.703125 30.90625 
L 14.703125 0 
L 5.671875 0 
L 16.3125 54.6875 
L 25.34375 54.6875 
L 23.6875 46.1875 
Q 27.828125 51.125 32.71875 53.5625 
Q 37.546875 56 43.265625 56 
Q 52.6875 56 56.390625 50.203125 
Q 60.0625 44.34375 57.859375 33.015625 
" id="DejaVuSans-Oblique-3b7"/>
     </defs>
     <g transform="translate(225.50375 305.367469)scale(0.1 -0.1)">
      <use xlink:href="#DejaVuSans-Oblique-3b7"/>
     </g>
    </g>
   </g>
   <g id="matplotlib.axis_2">
    <g id="ytick_1">
     <g id="line2d_13">
      <path clip-path="url(#pe812741f9e)" d="M 50.14375 277.111219 
L 407.26375 277.111219 
" style="fill:none;stroke:#b0b0b0;stroke-linecap:square;stroke-width:0.8;"/>
     </g>
     <g id="line2d_14">
      <defs>
       <path d="M 0 0 
L -3.5 0 
" id="m395e8f46b1" style="stroke:#000000;stroke-width:0.8;"/>
      </defs>
      <g>
       <use style="stroke:#000000;stroke-width:0.8;" x="50.14375" xlink:href="#m395e8f46b1" y="277.111219"/>
      </g>
     </g>
     <g id="text_8">
      <!-- 0.00 -->
      <g transform="translate(20.878125 280.910438)scale(0.1 -0.1)">
       <use xlink:href="#DejaVuSans-30"/>
       <use x="63.623047" xlink:href="#DejaVuSans-2e"/>
       <use x="95.410156" xlink:href="#DejaVuSans-30"/>
       <use x="159.033203" xlink:href="#DejaVuSans-30"/>
      </g>
     </g>
    </g>
    <g id="ytick_2">
     <g id="line2d_15">
      <path clip-path="url(#pe812741f9e)" d="M 50.14375 223.888819 
L 407.26375 223.888819 
" style="fill:none;stroke:#b0b0b0;stroke-linecap:square;stroke-width:0.8;"/>
     </g>
     <g id="line2d_16">
      <g>
       <use style="stroke:#000000;stroke-width:0.8;" x="50.14375" xlink:href="#m395e8f46b1" y="223.888819"/>
      </g>
     </g>
     <g id="text_9">
      <!-- 0.02 -->
      <g transform="translate(20.878125 227.688038)scale(0.1 -0.1)">
       <use xlink:href="#DejaVuSans-30"/>
       <use x="63.623047" xlink:href="#DejaVuSans-2e"/>
       <use x="95.410156" xlink:href="#DejaVuSans-30"/>
       <use x="159.033203" xlink:href="#DejaVuSans-32"/>
      </g>
     </g>
    </g>
    <g id="ytick_3">
     <g id="line2d_17">
      <path clip-path="url(#pe812741f9e)" d="M 50.14375 170.666419 
L 407.26375 170.666419 
" style="fill:none;stroke:#b0b0b0;stroke-linecap:square;stroke-width:0.8;"/>
     </g>
     <g id="line2d_18">
      <g>
       <use style="stroke:#000000;stroke-width:0.8;" x="50.14375" xlink:href="#m395e8f46b1" y="170.666419"/>
      </g>
     </g>
     <g id="text_10">
      <!-- 0.04 -->
      <g transform="translate(20.878125 174.465637)scale(0.1 -0.1)">
       <use xlink:href="#DejaVuSans-30"/>
       <use x="63.623047" xlink:href="#DejaVuSans-2e"/>
       <use x="95.410156" xlink:href="#DejaVuSans-30"/>
       <use x="159.033203" xlink:href="#DejaVuSans-34"/>
      </g>
     </g>
    </g>
    <g id="ytick_4">
     <g id="line2d_19">
      <path clip-path="url(#pe812741f9e)" d="M 50.14375 117.444019 
L 407.26375 117.444019 
" style="fill:none;stroke:#b0b0b0;stroke-linecap:square;stroke-width:0.8;"/>
     </g>
     <g id="line2d_20">
      <g>
       <use style="stroke:#000000;stroke-width:0.8;" x="50.14375" xlink:href="#m395e8f46b1" y="117.444019"/>
      </g>
     </g>
     <g id="text_11">
      <!-- 0.06 -->
      <g transform="translate(20.878125 121.243238)scale(0.1 -0.1)">
       <use xlink:href="#DejaVuSans-30"/>
       <use x="63.623047" xlink:href="#DejaVuSans-2e"/>
       <use x="95.410156" xlink:href="#DejaVuSans-30"/>
       <use x="159.033203" xlink:href="#DejaVuSans-36"/>
      </g>
     </g>
    </g>
    <g id="ytick_5">
     <g id="line2d_21">
      <path clip-path="url(#pe812741f9e)" d="M 50.14375 64.221619 
L 407.26375 64.221619 
" style="fill:none;stroke:#b0b0b0;stroke-linecap:square;stroke-width:0.8;"/>
     </g>
     <g id="line2d_22">
      <g>
       <use style="stroke:#000000;stroke-width:0.8;" x="50.14375" xlink:href="#m395e8f46b1" y="64.221619"/>
      </g>
     </g>
     <g id="text_12">
      <!-- 0.08 -->
      <g transform="translate(20.878125 68.020837)scale(0.1 -0.1)">
       <use xlink:href="#DejaVuSans-30"/>
       <use x="63.623047" xlink:href="#DejaVuSans-2e"/>
       <use x="95.410156" xlink:href="#DejaVuSans-30"/>
       <use x="159.033203" xlink:href="#DejaVuSans-38"/>
      </g>
     </g>
    </g>
    <g id="ytick_6">
     <g id="line2d_23">
      <path clip-path="url(#pe812741f9e)" d="M 50.14375 10.999219 
L 407.26375 10.999219 
" style="fill:none;stroke:#b0b0b0;stroke-linecap:square;stroke-width:0.8;"/>
     </g>
     <g id="line2d_24">
      <g>
       <use style="stroke:#000000;stroke-width:0.8;" x="50.14375" xlink:href="#m395e8f46b1" y="10.999219"/>
      </g>
     </g>
     <g id="text_13">
      <!-- 0.10 -->
      <g transform="translate(20.878125 14.798437)scale(0.1 -0.1)">
       <use xlink:href="#DejaVuSans-30"/>
       <use x="63.623047" xlink:href="#DejaVuSans-2e"/>
       <use x="95.410156" xlink:href="#DejaVuSans-31"/>
       <use x="159.033203" xlink:href="#DejaVuSans-30"/>
      </g>
     </g>
    </g>
    <g id="text_14">
     <!-- $\mu$ -->
     <defs>
      <path d="M -1.3125 -20.796875 
L 13.375 54.6875 
L 22.40625 54.6875 
L 15.765625 20.65625 
Q 15.578125 19.625 15.421875 18.359375 
Q 15.28125 17.09375 15.28125 15.828125 
Q 15.28125 11.28125 18.140625 8.828125 
Q 21 6.390625 26.3125 6.390625 
Q 33.546875 6.390625 37.984375 10.484375 
Q 42.4375 14.59375 44 22.796875 
L 50.203125 54.6875 
L 59.1875 54.6875 
L 51.03125 12.640625 
Q 50.828125 11.71875 50.75 11.03125 
Q 50.6875 10.359375 50.6875 9.8125 
Q 50.6875 8.296875 51.296875 7.59375 
Q 51.90625 6.890625 53.21875 6.890625 
Q 53.71875 6.890625 54.5625 7.125 
Q 55.421875 7.375 56.984375 8.015625 
L 55.609375 0.78125 
Q 53.46875 -0.296875 51.515625 -0.859375 
Q 49.5625 -1.421875 47.703125 -1.421875 
Q 44.484375 -1.421875 42.65625 0.625 
Q 40.828125 2.6875 40.828125 6.296875 
Q 38.09375 2.390625 34.296875 0.484375 
Q 30.515625 -1.421875 25.390625 -1.421875 
Q 20.84375 -1.421875 17.453125 0.671875 
Q 14.0625 2.78125 12.984375 6.203125 
L 7.71875 -20.796875 
z
" id="DejaVuSans-Oblique-3bc"/>
     </defs>
     <g transform="translate(14.778125 147.255219)rotate(-90)scale(0.1 -0.1)">
      <use transform="translate(0 0.3125)" xlink:href="#DejaVuSans-Oblique-3bc"/>
     </g>
    </g>
   </g>
   <g id="line2d_25">
    <path clip-path="url(#pe812741f9e)" d="M 50.14375 277.111219 
L 53.751023 268.241724 
L 57.358295 259.553239 
L 60.965568 251.045764 
L 64.572841 242.7193 
L 68.180114 234.573845 
L 71.787386 226.609401 
L 75.394659 218.825966 
L 79.001932 211.223542 
L 82.609205 203.802128 
L 86.216477 196.561724 
L 89.82375 189.50233 
L 93.431023 182.623946 
L 97.038295 175.926572 
L 100.645568 169.410209 
L 104.252841 163.074855 
L 107.860114 156.920512 
L 111.467386 150.947178 
L 115.074659 145.154855 
L 118.681932 139.543542 
L 122.289205 134.113239 
L 125.896477 128.863946 
L 129.50375 123.795663 
L 133.111023 118.90839 
L 136.718295 114.202128 
L 140.325568 109.676875 
L 143.932841 105.332633 
L 147.540114 101.169401 
L 151.147386 97.187178 
L 154.754659 93.385966 
L 158.361932 89.765764 
L 161.969205 86.326572 
L 165.576477 83.06839 
L 169.18375 79.991219 
L 172.791023 77.095057 
L 176.398295 74.379906 
L 180.005568 71.845764 
L 183.612841 69.492633 
L 187.220114 67.320512 
L 190.827386 65.329401 
L 194.434659 63.5193 
L 198.041932 61.890209 
L 201.649205 60.442128 
L 205.256477 59.175057 
L 208.86375 58.088997 
L 212.471023 57.183946 
L 216.078295 56.459906 
L 219.685568 55.916875 
L 223.292841 55.554855 
L 226.900114 55.373845 
L 230.507386 55.373845 
L 234.114659 55.554855 
L 237.721932 55.916875 
L 241.329205 56.459906 
L 244.936477 57.183946 
L 248.54375 58.088997 
L 252.151023 59.175057 
L 255.758295 60.442128 
L 259.365568 61.890209 
L 262.972841 63.5193 
L 266.580114 65.329401 
L 270.187386 67.320512 
L 273.794659 69.492633 
L 277.401932 71.845764 
L 281.009205 74.379906 
L 284.616477 77.095057 
L 288.22375 79.991219 
L 291.831023 83.06839 
L 295.438295 86.326572 
L 299.045568 89.765764 
L 302.652841 93.385966 
L 306.260114 97.187178 
L 309.867386 101.169401 
L 313.474659 105.332633 
L 317.081932 109.676875 
L 320.689205 114.202128 
L 324.296477 118.90839 
L 327.90375 123.795663 
L 331.511023 128.863946 
L 335.118295 134.113239 
L 338.725568 139.543542 
L 342.332841 145.154855 
L 345.940114 150.947178 
L 349.547386 156.920512 
L 353.154659 163.074855 
L 356.761932 169.410209 
L 360.369205 175.926572 
L 363.976477 182.623946 
L 367.58375 189.50233 
L 371.191023 196.561724 
L 374.798295 203.802128 
L 378.405568 211.223542 
L 382.012841 218.825966 
L 385.620114 226.609401 
L 389.227386 234.573845 
L 392.834659 242.7193 
L 396.441932 251.045764 
L 400.049205 259.553239 
L 403.656477 268.241724 
L 407.26375 277.111219 
" style="fill:none;stroke:#1f77b4;stroke-linecap:square;stroke-width:1.5;"/>
   </g>
   <g id="line2d_26">
    <path clip-path="url(#pe812741f9e)" d="M 50.14375 277.111219 
L 53.751023 269.508795 
L 57.358295 262.061522 
L 60.965568 254.769401 
L 64.572841 247.632431 
L 68.180114 240.650613 
L 71.787386 233.823946 
L 75.394659 227.152431 
L 79.001932 220.636067 
L 82.609205 214.274855 
L 86.216477 208.068795 
L 89.82375 202.017885 
L 93.431023 196.122128 
L 97.038295 190.381522 
L 100.645568 184.796067 
L 104.252841 179.365764 
L 107.860114 174.090613 
L 111.467386 168.970613 
L 115.074659 164.005764 
L 118.681932 159.196067 
L 122.289205 154.541522 
L 125.896477 150.042128 
L 129.50375 145.697885 
L 133.111023 141.508795 
L 136.718295 137.474855 
L 140.325568 133.596067 
L 143.932841 129.872431 
L 147.540114 126.303946 
L 151.147386 122.890613 
L 154.754659 119.632431 
L 158.361932 116.529401 
L 161.969205 113.581522 
L 165.576477 110.788795 
L 169.18375 108.151219 
L 172.791023 105.668795 
L 176.398295 103.341522 
L 180.005568 101.169401 
L 183.612841 99.152431 
L 187.220114 97.290613 
L 190.827386 95.583946 
L 194.434659 94.032431 
L 198.041932 92.636067 
L 201.649205 91.394855 
L 205.256477 90.308795 
L 208.86375 89.377885 
L 212.471023 88.602128 
L 216.078295 87.981522 
L 219.685568 87.516067 
L 223.292841 87.205764 
L 226.900114 87.050613 
L 230.507386 87.050613 
L 234.114659 87.205764 
L 237.721932 87.516067 
L 241.329205 87.981522 
L 244.936477 88.602128 
L 248.54375 89.377885 
L 252.151023 90.308795 
L 255.758295 91.394855 
L 259.365568 92.636067 
L 262.972841 94.032431 
L 266.580114 95.583946 
L 270.187386 97.290613 
L 273.794659 99.152431 
L 277.401932 101.169401 
L 281.009205 103.341522 
L 284.616477 105.668795 
L 288.22375 108.151219 
L 291.831023 110.788795 
L 295.438295 113.581522 
L 299.045568 116.529401 
L 302.652841 119.632431 
L 306.260114 122.890613 
L 309.867386 126.303946 
L 313.474659 129.872431 
L 317.081932 133.596067 
L 320.689205 137.474855 
L 324.296477 141.508795 
L 327.90375 145.697885 
L 331.511023 150.042128 
L 335.118295 154.541522 
L 338.725568 159.196067 
L 342.332841 164.005764 
L 345.940114 168.970613 
L 349.547386 174.090613 
L 353.154659 179.365764 
L 356.761932 184.796067 
L 360.369205 190.381522 
L 363.976477 196.122128 
L 367.58375 202.017885 
L 371.191023 208.068795 
L 374.798295 214.274855 
L 378.405568 220.636067 
L 382.012841 227.152431 
L 385.620114 233.823946 
L 389.227386 240.650613 
L 392.834659 247.632431 
L 396.441932 254.769401 
L 400.049205 262.061522 
L 403.656477 269.508795 
L 407.26375 277.111219 
" style="fill:none;stroke:#ff7f0e;stroke-linecap:square;stroke-width:1.5;"/>
   </g>
   <g id="line2d_27">
    <path clip-path="url(#pe812741f9e)" d="M 50.14375 277.111219 
L 53.751023 270.459098 
L 57.358295 263.942734 
L 60.965568 257.562128 
L 64.572841 251.317279 
L 68.180114 245.208188 
L 71.787386 239.234855 
L 75.394659 233.397279 
L 79.001932 227.695461 
L 82.609205 222.129401 
L 86.216477 216.699098 
L 89.82375 211.404552 
L 93.431023 206.245764 
L 97.038295 201.222734 
L 100.645568 196.335461 
L 104.252841 191.583946 
L 107.860114 186.968188 
L 111.467386 182.488188 
L 115.074659 178.143946 
L 118.681932 173.935461 
L 122.289205 169.862734 
L 125.896477 165.925764 
L 129.50375 162.124552 
L 133.111023 158.459098 
L 136.718295 154.929401 
L 140.325568 151.535461 
L 143.932841 148.277279 
L 147.540114 145.154855 
L 151.147386 142.168188 
L 154.754659 139.317279 
L 158.361932 136.602128 
L 161.969205 134.022734 
L 165.576477 131.579098 
L 169.18375 129.271219 
L 172.791023 127.099098 
L 176.398295 125.062734 
L 180.005568 123.162128 
L 183.612841 121.397279 
L 187.220114 119.768188 
L 190.827386 118.274855 
L 194.434659 116.917279 
L 198.041932 115.695461 
L 201.649205 114.609401 
L 205.256477 113.659098 
L 208.86375 112.844552 
L 212.471023 112.165764 
L 216.078295 111.622734 
L 219.685568 111.215461 
L 223.292841 110.943946 
L 226.900114 110.808188 
L 230.507386 110.808188 
L 234.114659 110.943946 
L 237.721932 111.215461 
L 241.329205 111.622734 
L 244.936477 112.165764 
L 248.54375 112.844552 
L 252.151023 113.659098 
L 255.758295 114.609401 
L 259.365568 115.695461 
L 262.972841 116.917279 
L 266.580114 118.274855 
L 270.187386 119.768188 
L 273.794659 121.397279 
L 277.401932 123.162128 
L 281.009205 125.062734 
L 284.616477 127.099098 
L 288.22375 129.271219 
L 291.831023 131.579098 
L 295.438295 134.022734 
L 299.045568 136.602128 
L 302.652841 139.317279 
L 306.260114 142.168188 
L 309.867386 145.154855 
L 313.474659 148.277279 
L 317.081932 151.535461 
L 320.689205 154.929401 
L 324.296477 158.459098 
L 327.90375 162.124552 
L 331.511023 165.925764 
L 335.118295 169.862734 
L 338.725568 173.935461 
L 342.332841 178.143946 
L 345.940114 182.488188 
L 349.547386 186.968188 
L 353.154659 191.583946 
L 356.761932 196.335461 
L 360.369205 201.222734 
L 363.976477 206.245764 
L 367.58375 211.404552 
L 371.191023 216.699098 
L 374.798295 222.129401 
L 378.405568 227.695461 
L 382.012841 233.397279 
L 385.620114 239.234855 
L 389.227386 245.208188 
L 392.834659 251.317279 
L 396.441932 257.562128 
L 400.049205 263.942734 
L 403.656477 270.459098 
L 407.26375 277.111219 
" style="fill:none;stroke:#2ca02c;stroke-linecap:square;stroke-width:1.5;"/>
   </g>
   <g id="line2d_28">
    <path clip-path="url(#pe812741f9e)" d="M 50.14375 277.111219 
L 53.751023 271.198222 
L 57.358295 265.405899 
L 60.965568 259.734249 
L 64.572841 254.183273 
L 68.180114 248.75297 
L 71.787386 243.44334 
L 75.394659 238.254384 
L 79.001932 233.186101 
L 82.609205 228.238491 
L 86.216477 223.411555 
L 89.82375 218.705293 
L 93.431023 214.119704 
L 97.038295 209.654788 
L 100.645568 205.310545 
L 104.252841 201.086976 
L 107.860114 196.984081 
L 111.467386 193.001858 
L 115.074659 189.14031 
L 118.681932 185.399434 
L 122.289205 181.779232 
L 125.896477 178.279704 
L 129.50375 174.900848 
L 133.111023 171.642667 
L 136.718295 168.505158 
L 140.325568 165.488323 
L 143.932841 162.592162 
L 147.540114 159.816673 
L 151.147386 157.161858 
L 154.754659 154.627717 
L 158.361932 152.214249 
L 161.969205 149.921454 
L 165.576477 147.749333 
L 169.18375 145.697885 
L 172.791023 143.767111 
L 176.398295 141.95701 
L 180.005568 140.267582 
L 183.612841 138.698828 
L 187.220114 137.250747 
L 190.827386 135.92334 
L 194.434659 134.716606 
L 198.041932 133.630545 
L 201.649205 132.665158 
L 205.256477 131.820444 
L 208.86375 131.096404 
L 212.471023 130.493037 
L 216.078295 130.010343 
L 219.685568 129.648323 
L 223.292841 129.406976 
L 226.900114 129.286303 
L 230.507386 129.286303 
L 234.114659 129.406976 
L 237.721932 129.648323 
L 241.329205 130.010343 
L 244.936477 130.493037 
L 248.54375 131.096404 
L 252.151023 131.820444 
L 255.758295 132.665158 
L 259.365568 133.630545 
L 262.972841 134.716606 
L 266.580114 135.92334 
L 270.187386 137.250747 
L 273.794659 138.698828 
L 277.401932 140.267582 
L 281.009205 141.95701 
L 284.616477 143.767111 
L 288.22375 145.697885 
L 291.831023 147.749333 
L 295.438295 149.921454 
L 299.045568 152.214249 
L 302.652841 154.627717 
L 306.260114 157.161858 
L 309.867386 159.816673 
L 313.474659 162.592162 
L 317.081932 165.488323 
L 320.689205 168.505158 
L 324.296477 171.642667 
L 327.90375 174.900848 
L 331.511023 178.279704 
L 335.118295 181.779232 
L 338.725568 185.399434 
L 342.332841 189.14031 
L 345.940114 193.001858 
L 349.547386 196.984081 
L 353.154659 201.086976 
L 356.761932 205.310545 
L 360.369205 209.654788 
L 363.976477 214.119704 
L 367.58375 218.705293 
L 371.191023 223.411555 
L 374.798295 228.238491 
L 378.405568 233.186101 
L 382.012841 238.254384 
L 385.620114 243.44334 
L 389.227386 248.75297 
L 392.834659 254.183273 
L 396.441932 259.734249 
L 400.049205 265.405899 
L 403.656477 271.198222 
L 407.26375 277.111219 
" style="fill:none;stroke:#d62728;stroke-linecap:square;stroke-width:1.5;"/>
   </g>
   <g id="line2d_29">
    <path clip-path="url(#pe812741f9e)" d="M 50.14375 277.111219 
L 53.751023 271.789522 
L 57.358295 266.576431 
L 60.965568 261.471946 
L 64.572841 256.476067 
L 68.180114 251.588795 
L 71.787386 246.810128 
L 75.394659 242.140067 
L 79.001932 237.578613 
L 82.609205 233.125764 
L 86.216477 228.781522 
L 89.82375 224.545885 
L 93.431023 220.418855 
L 97.038295 216.400431 
L 100.645568 212.490613 
L 104.252841 208.689401 
L 107.860114 204.996795 
L 111.467386 201.412795 
L 115.074659 197.937401 
L 118.681932 194.570613 
L 122.289205 191.312431 
L 125.896477 188.162855 
L 129.50375 185.121885 
L 133.111023 182.189522 
L 136.718295 179.365764 
L 140.325568 176.650613 
L 143.932841 174.044067 
L 147.540114 171.546128 
L 151.147386 169.156795 
L 154.754659 166.876067 
L 158.361932 164.703946 
L 161.969205 162.640431 
L 165.576477 160.685522 
L 169.18375 158.839219 
L 172.791023 157.101522 
L 176.398295 155.472431 
L 180.005568 153.951946 
L 183.612841 152.540067 
L 187.220114 151.236795 
L 190.827386 150.042128 
L 194.434659 148.956067 
L 198.041932 147.978613 
L 201.649205 147.109764 
L 205.256477 146.349522 
L 208.86375 145.697885 
L 212.471023 145.154855 
L 216.078295 144.720431 
L 219.685568 144.394613 
L 223.292841 144.177401 
L 226.900114 144.068795 
L 230.507386 144.068795 
L 234.114659 144.177401 
L 237.721932 144.394613 
L 241.329205 144.720431 
L 244.936477 145.154855 
L 248.54375 145.697885 
L 252.151023 146.349522 
L 255.758295 147.109764 
L 259.365568 147.978613 
L 262.972841 148.956067 
L 266.580114 150.042128 
L 270.187386 151.236795 
L 273.794659 152.540067 
L 277.401932 153.951946 
L 281.009205 155.472431 
L 284.616477 157.101522 
L 288.22375 158.839219 
L 291.831023 160.685522 
L 295.438295 162.640431 
L 299.045568 164.703946 
L 302.652841 166.876067 
L 306.260114 169.156795 
L 309.867386 171.546128 
L 313.474659 174.044067 
L 317.081932 176.650613 
L 320.689205 179.365764 
L 324.296477 182.189522 
L 327.90375 185.121885 
L 331.511023 188.162855 
L 335.118295 191.312431 
L 338.725568 194.570613 
L 342.332841 197.937401 
L 345.940114 201.412795 
L 349.547386 204.996795 
L 353.154659 208.689401 
L 356.761932 212.490613 
L 360.369205 216.400431 
L 363.976477 220.418855 
L 367.58375 224.545885 
L 371.191023 228.781522 
L 374.798295 233.125764 
L 378.405568 237.578613 
L 382.012841 242.140067 
L 385.620114 246.810128 
L 389.227386 251.588795 
L 392.834659 256.476067 
L 396.441932 261.471946 
L 400.049205 266.576431 
L 403.656477 271.789522 
L 407.26375 277.111219 
" style="fill:none;stroke:#9467bd;stroke-linecap:square;stroke-width:1.5;"/>
   </g>
   <g id="line2d_30">
    <path clip-path="url(#pe812741f9e)" d="M 228.70375 55.351219 
L 230.507386 55.373845 
L 232.311023 55.441724 
L 234.114659 55.554855 
L 235.918295 55.713239 
L 237.721932 55.916875 
L 239.525568 56.165764 
L 241.329205 56.459906 
L 243.132841 56.7993 
L 244.936477 57.183946 
L 246.740114 57.613845 
L 248.54375 58.088997 
L 250.347386 58.609401 
L 252.151023 59.175057 
L 253.954659 59.785966 
L 255.758295 60.442128 
L 257.561932 61.143542 
L 259.365568 61.890209 
L 261.169205 62.682128 
L 262.972841 63.5193 
L 264.776477 64.401724 
L 266.580114 65.329401 
L 268.38375 66.30233 
L 270.187386 67.320512 
L 271.991023 68.383946 
L 273.794659 69.492633 
L 275.598295 70.646572 
L 277.401932 71.845764 
L 279.205568 73.090209 
L 281.009205 74.379906 
L 282.812841 75.714855 
L 284.616477 77.095057 
L 286.420114 78.520512 
L 288.22375 79.991219 
L 290.027386 81.507178 
L 291.831023 83.06839 
L 293.634659 84.674855 
L 295.438295 86.326572 
L 297.241932 88.023542 
L 299.045568 89.765764 
L 300.849205 91.553239 
L 302.652841 93.385966 
L 304.456477 95.263946 
L 306.260114 97.187178 
L 308.06375 99.155663 
L 309.867386 101.169401 
L 311.671023 103.22839 
L 313.474659 105.332633 
L 315.278295 107.482128 
L 317.081932 109.676875 
L 318.885568 111.916875 
L 320.689205 114.202128 
L 322.492841 116.532633 
L 324.296477 118.90839 
L 326.100114 121.329401 
L 327.90375 123.795663 
L 329.707386 126.307178 
L 331.511023 128.863946 
L 333.314659 131.465966 
L 335.118295 134.113239 
L 336.921932 136.805764 
L 338.725568 139.543542 
L 340.529205 142.326572 
L 342.332841 145.154855 
L 344.136477 148.02839 
L 345.940114 150.947178 
L 347.74375 153.911219 
L 349.547386 156.920512 
L 351.351023 159.975057 
L 353.154659 163.074855 
L 354.958295 166.219906 
L 356.761932 169.410209 
L 358.565568 172.645764 
L 360.369205 175.926572 
L 362.172841 179.252633 
L 363.976477 182.623946 
L 365.780114 186.040512 
L 367.58375 189.50233 
L 369.387386 193.009401 
L 371.191023 196.561724 
L 372.994659 200.1593 
L 374.798295 203.802128 
L 376.601932 207.490209 
L 378.405568 211.223542 
L 380.209205 215.002128 
L 382.012841 218.825966 
L 383.816477 222.695057 
L 385.620114 226.609401 
L 387.42375 230.568997 
L 389.227386 234.573845 
L 391.031023 238.623946 
L 392.834659 242.7193 
L 394.638295 246.859906 
L 396.441932 251.045764 
L 398.245568 255.276875 
L 400.049205 259.553239 
L 401.852841 263.874855 
L 403.656477 268.241724 
L 405.460114 272.653845 
L 407.26375 277.111219 
" style="fill:none;stroke:#ff0000;stroke-linecap:square;stroke-width:5;"/>
   </g>
   <g id="patch_3">
    <path d="M 50.14375 277.111219 
L 50.14375 10.999219 
" style="fill:none;stroke:#000000;stroke-linecap:square;stroke-linejoin:miter;stroke-width:0.8;"/>
   </g>
   <g id="patch_4">
    <path d="M 407.26375 277.111219 
L 407.26375 10.999219 
" style="fill:none;stroke:#000000;stroke-linecap:square;stroke-linejoin:miter;stroke-width:0.8;"/>
   </g>
   <g id="patch_5">
    <path d="M 50.14375 277.111219 
L 407.26375 277.111219 
" style="fill:none;stroke:#000000;stroke-linecap:square;stroke-linejoin:miter;stroke-width:0.8;"/>
   </g>
   <g id="patch_6">
    <path d="M 50.14375 10.999219 
L 407.26375 10.999219 
" style="fill:none;stroke:#000000;stroke-linecap:square;stroke-linejoin:miter;stroke-width:0.8;"/>
   </g>
   <g id="legend_1">
    <g id="patch_7">
     <path d="M 281.362188 274.111219 
L 403.06375 274.111219 
Q 404.26375 274.111219 404.26375 272.911219 
L 404.26375 220.429969 
Q 404.26375 219.229969 403.06375 219.229969 
L 281.362188 219.229969 
Q 280.162188 219.229969 280.162188 220.429969 
L 280.162188 272.911219 
Q 280.162188 274.111219 281.362188 274.111219 
z
" style="fill:#ffffff;opacity:0.8;stroke:#cccccc;stroke-linejoin:miter;"/>
    </g>
    <g id="line2d_31">
     <path d="M 282.562187 224.089031 
L 294.562187 224.089031 
" style="fill:none;stroke:#1f77b4;stroke-linecap:square;stroke-width:1.5;"/>
    </g>
    <g id="line2d_32"/>
    <g id="text_15">
     <!-- $R_i=3.00$ -->
     <defs>
      <path d="M 25.203125 64.796875 
L 20.21875 38.921875 
L 32.90625 38.921875 
Q 40.375 38.921875 44.984375 43.046875 
Q 49.609375 47.171875 49.609375 53.8125 
Q 49.609375 59.125 46.5 61.953125 
Q 43.40625 64.796875 37.59375 64.796875 
z
M 43.3125 35.015625 
Q 46.4375 34.28125 48.515625 31.390625 
Q 50.59375 28.515625 53.328125 19.921875 
L 59.515625 0 
L 49.125 0 
L 43.40625 18.703125 
Q 41.21875 25.921875 38.328125 28.359375 
Q 35.453125 30.8125 29.5 30.8125 
L 18.609375 30.8125 
L 12.59375 0 
L 2.6875 0 
L 16.890625 72.90625 
L 39.109375 72.90625 
Q 49.21875 72.90625 54.609375 68.328125 
Q 60.015625 63.765625 60.015625 55.171875 
Q 60.015625 47.5625 55.421875 41.984375 
Q 50.828125 36.421875 43.3125 35.015625 
" id="DejaVuSans-Oblique-52"/>
      <path d="M 18.3125 75.984375 
L 27.296875 75.984375 
L 25.09375 64.59375 
L 16.109375 64.59375 
z
M 14.203125 54.6875 
L 23.1875 54.6875 
L 12.5 0 
L 3.515625 0 
z
" id="DejaVuSans-Oblique-69"/>
      <path d="M 10.59375 45.40625 
L 73.1875 45.40625 
L 73.1875 37.203125 
L 10.59375 37.203125 
z
M 10.59375 25.484375 
L 73.1875 25.484375 
L 73.1875 17.1875 
L 10.59375 17.1875 
z
" id="DejaVuSans-3d"/>
      <path d="M 40.578125 39.3125 
Q 47.65625 37.796875 51.625 33 
Q 55.609375 28.21875 55.609375 21.1875 
Q 55.609375 10.40625 48.1875 4.484375 
Q 40.765625 -1.421875 27.09375 -1.421875 
Q 22.515625 -1.421875 17.65625 -0.515625 
Q 12.796875 0.390625 7.625 2.203125 
L 7.625 11.71875 
Q 11.71875 9.328125 16.59375 8.109375 
Q 21.484375 6.890625 26.8125 6.890625 
Q 36.078125 6.890625 40.9375 10.546875 
Q 45.796875 14.203125 45.796875 21.1875 
Q 45.796875 27.640625 41.28125 31.265625 
Q 36.765625 34.90625 28.71875 34.90625 
L 20.21875 34.90625 
L 20.21875 43.015625 
L 29.109375 43.015625 
Q 36.375 43.015625 40.234375 45.921875 
Q 44.09375 48.828125 44.09375 54.296875 
Q 44.09375 59.90625 40.109375 62.90625 
Q 36.140625 65.921875 28.71875 65.921875 
Q 24.65625 65.921875 20.015625 65.03125 
Q 15.375 64.15625 9.8125 62.3125 
L 9.8125 71.09375 
Q 15.4375 72.65625 20.34375 73.4375 
Q 25.25 74.21875 29.59375 74.21875 
Q 40.828125 74.21875 47.359375 69.109375 
Q 53.90625 64.015625 53.90625 55.328125 
Q 53.90625 49.265625 50.4375 45.09375 
Q 46.96875 40.921875 40.578125 39.3125 
" id="DejaVuSans-33"/>
     </defs>
     <g transform="translate(299.362188 226.189031)scale(0.06 -0.06)">
      <use transform="translate(0 0.78125)" xlink:href="#DejaVuSans-Oblique-52"/>
      <use transform="translate(69.482422 -15.625)scale(0.7)" xlink:href="#DejaVuSans-Oblique-69"/>
      <use transform="translate(111.147461 0.78125)" xlink:href="#DejaVuSans-3d"/>
      <use transform="translate(214.418945 0.78125)" xlink:href="#DejaVuSans-33"/>
      <use transform="translate(278.041992 0.78125)" xlink:href="#DejaVuSans-2e"/>
      <use transform="translate(309.829102 0.78125)" xlink:href="#DejaVuSans-30"/>
      <use transform="translate(373.452148 0.78125)" xlink:href="#DejaVuSans-30"/>
     </g>
    </g>
    <g id="line2d_33">
     <path d="M 282.562187 232.895906 
L 294.562187 232.895906 
" style="fill:none;stroke:#ff7f0e;stroke-linecap:square;stroke-width:1.5;"/>
    </g>
    <g id="line2d_34"/>
    <g id="text_16">
     <!-- $R_i=3.50$ -->
     <defs>
      <path d="M 10.796875 72.90625 
L 49.515625 72.90625 
L 49.515625 64.59375 
L 19.828125 64.59375 
L 19.828125 46.734375 
Q 21.96875 47.46875 24.109375 47.828125 
Q 26.265625 48.1875 28.421875 48.1875 
Q 40.625 48.1875 47.75 41.5 
Q 54.890625 34.8125 54.890625 23.390625 
Q 54.890625 11.625 47.5625 5.09375 
Q 40.234375 -1.421875 26.90625 -1.421875 
Q 22.3125 -1.421875 17.546875 -0.640625 
Q 12.796875 0.140625 7.71875 1.703125 
L 7.71875 11.625 
Q 12.109375 9.234375 16.796875 8.0625 
Q 21.484375 6.890625 26.703125 6.890625 
Q 35.15625 6.890625 40.078125 11.328125 
Q 45.015625 15.765625 45.015625 23.390625 
Q 45.015625 31 40.078125 35.4375 
Q 35.15625 39.890625 26.703125 39.890625 
Q 22.75 39.890625 18.8125 39.015625 
Q 14.890625 38.140625 10.796875 36.28125 
z
" id="DejaVuSans-35"/>
     </defs>
     <g transform="translate(299.362188 234.995906)scale(0.06 -0.06)">
      <use transform="translate(0 0.78125)" xlink:href="#DejaVuSans-Oblique-52"/>
      <use transform="translate(69.482422 -15.625)scale(0.7)" xlink:href="#DejaVuSans-Oblique-69"/>
      <use transform="translate(111.147461 0.78125)" xlink:href="#DejaVuSans-3d"/>
      <use transform="translate(214.418945 0.78125)" xlink:href="#DejaVuSans-33"/>
      <use transform="translate(278.041992 0.78125)" xlink:href="#DejaVuSans-2e"/>
      <use transform="translate(309.829102 0.78125)" xlink:href="#DejaVuSans-35"/>
      <use transform="translate(373.452148 0.78125)" xlink:href="#DejaVuSans-30"/>
     </g>
    </g>
    <g id="line2d_35">
     <path d="M 282.562187 241.702781 
L 294.562187 241.702781 
" style="fill:none;stroke:#2ca02c;stroke-linecap:square;stroke-width:1.5;"/>
    </g>
    <g id="line2d_36"/>
    <g id="text_17">
     <!-- $R_i=4.00$ -->
     <g transform="translate(299.362188 243.802781)scale(0.06 -0.06)">
      <use transform="translate(0 0.78125)" xlink:href="#DejaVuSans-Oblique-52"/>
      <use transform="translate(69.482422 -15.625)scale(0.7)" xlink:href="#DejaVuSans-Oblique-69"/>
      <use transform="translate(111.147461 0.78125)" xlink:href="#DejaVuSans-3d"/>
      <use transform="translate(214.418945 0.78125)" xlink:href="#DejaVuSans-34"/>
      <use transform="translate(278.041992 0.78125)" xlink:href="#DejaVuSans-2e"/>
      <use transform="translate(309.829102 0.78125)" xlink:href="#DejaVuSans-30"/>
      <use transform="translate(373.452148 0.78125)" xlink:href="#DejaVuSans-30"/>
     </g>
    </g>
    <g id="line2d_37">
     <path d="M 282.562187 250.509656 
L 294.562187 250.509656 
" style="fill:none;stroke:#d62728;stroke-linecap:square;stroke-width:1.5;"/>
    </g>
    <g id="line2d_38"/>
    <g id="text_18">
     <!-- $R_i=4.50$ -->
     <g transform="translate(299.362188 252.609656)scale(0.06 -0.06)">
      <use transform="translate(0 0.78125)" xlink:href="#DejaVuSans-Oblique-52"/>
      <use transform="translate(69.482422 -15.625)scale(0.7)" xlink:href="#DejaVuSans-Oblique-69"/>
      <use transform="translate(111.147461 0.78125)" xlink:href="#DejaVuSans-3d"/>
      <use transform="translate(214.418945 0.78125)" xlink:href="#DejaVuSans-34"/>
      <use transform="translate(278.041992 0.78125)" xlink:href="#DejaVuSans-2e"/>
      <use transform="translate(309.829102 0.78125)" xlink:href="#DejaVuSans-35"/>
      <use transform="translate(373.452148 0.78125)" xlink:href="#DejaVuSans-30"/>
     </g>
    </g>
    <g id="line2d_39">
     <path d="M 282.562187 259.316531 
L 294.562187 259.316531 
" style="fill:none;stroke:#9467bd;stroke-linecap:square;stroke-width:1.5;"/>
    </g>
    <g id="line2d_40"/>
    <g id="text_19">
     <!-- $R_i=5.00$ -->
     <g transform="translate(299.362188 261.416531)scale(0.06 -0.06)">
      <use transform="translate(0 0.78125)" xlink:href="#DejaVuSans-Oblique-52"/>
      <use transform="translate(69.482422 -15.625)scale(0.7)" xlink:href="#DejaVuSans-Oblique-69"/>
      <use transform="translate(111.147461 0.78125)" xlink:href="#DejaVuSans-3d"/>
      <use transform="translate(214.418945 0.78125)" xlink:href="#DejaVuSans-35"/>
      <use transform="translate(278.041992 0.78125)" xlink:href="#DejaVuSans-2e"/>
      <use transform="translate(309.829102 0.78125)" xlink:href="#DejaVuSans-30"/>
      <use transform="translate(373.452148 0.78125)" xlink:href="#DejaVuSans-30"/>
     </g>
    </g>
    <g id="line2d_41">
     <path d="M 282.562187 268.363406 
L 294.562187 268.363406 
" style="fill:none;stroke:#ff0000;stroke-linecap:square;stroke-width:5;"/>
    </g>
    <g id="line2d_42"/>
    <g id="text_20">
     <!-- Zbiór rozwiązań kompromisowych -->
     <defs>
      <path d="M 5.609375 72.90625 
L 62.890625 72.90625 
L 62.890625 65.375 
L 16.796875 8.296875 
L 64.015625 8.296875 
L 64.015625 0 
L 4.5 0 
L 4.5 7.515625 
L 50.59375 64.59375 
L 5.609375 64.59375 
z
" id="DejaVuSans-5a"/>
      <path d="M 48.6875 27.296875 
Q 48.6875 37.203125 44.609375 42.84375 
Q 40.53125 48.484375 33.40625 48.484375 
Q 26.265625 48.484375 22.1875 42.84375 
Q 18.109375 37.203125 18.109375 27.296875 
Q 18.109375 17.390625 22.1875 11.75 
Q 26.265625 6.109375 33.40625 6.109375 
Q 40.53125 6.109375 44.609375 11.75 
Q 48.6875 17.390625 48.6875 27.296875 
M 18.109375 46.390625 
Q 20.953125 51.265625 25.265625 53.625 
Q 29.59375 56 35.59375 56 
Q 45.5625 56 51.78125 48.09375 
Q 58.015625 40.1875 58.015625 27.296875 
Q 58.015625 14.40625 51.78125 6.484375 
Q 45.5625 -1.421875 35.59375 -1.421875 
Q 29.59375 -1.421875 25.265625 0.953125 
Q 20.953125 3.328125 18.109375 8.203125 
L 18.109375 0 
L 9.078125 0 
L 9.078125 75.984375 
L 18.109375 75.984375 
z
" id="DejaVuSans-62"/>
      <path d="M 9.421875 54.6875 
L 18.40625 54.6875 
L 18.40625 0 
L 9.421875 0 
z
M 9.421875 75.984375 
L 18.40625 75.984375 
L 18.40625 64.59375 
L 9.421875 64.59375 
z
" id="DejaVuSans-69"/>
      <path d="M 30.609375 48.390625 
Q 23.390625 48.390625 19.1875 42.75 
Q 14.984375 37.109375 14.984375 27.296875 
Q 14.984375 17.484375 19.15625 11.84375 
Q 23.34375 6.203125 30.609375 6.203125 
Q 37.796875 6.203125 41.984375 11.859375 
Q 46.1875 17.53125 46.1875 27.296875 
Q 46.1875 37.015625 41.984375 42.703125 
Q 37.796875 48.390625 30.609375 48.390625 
M 30.609375 56 
Q 42.328125 56 49.015625 48.375 
Q 55.71875 40.765625 55.71875 27.296875 
Q 55.71875 13.875 49.015625 6.21875 
Q 42.328125 -1.421875 30.609375 -1.421875 
Q 18.84375 -1.421875 12.171875 6.21875 
Q 5.515625 13.875 5.515625 27.296875 
Q 5.515625 40.765625 12.171875 48.375 
Q 18.84375 56 30.609375 56 
M 37.40625 79.984375 
L 47.125 79.984375 
L 31.21875 61.625 
L 23.734375 61.625 
z
" id="DejaVuSans-f3"/>
      <path d="M 41.109375 46.296875 
Q 39.59375 47.171875 37.8125 47.578125 
Q 36.03125 48 33.890625 48 
Q 26.265625 48 22.1875 43.046875 
Q 18.109375 38.09375 18.109375 28.8125 
L 18.109375 0 
L 9.078125 0 
L 9.078125 54.6875 
L 18.109375 54.6875 
L 18.109375 46.1875 
Q 20.953125 51.171875 25.484375 53.578125 
Q 30.03125 56 36.53125 56 
Q 37.453125 56 38.578125 55.875 
Q 39.703125 55.765625 41.0625 55.515625 
z
" id="DejaVuSans-72"/>
      <path id="DejaVuSans-20"/>
      <path d="M 30.609375 48.390625 
Q 23.390625 48.390625 19.1875 42.75 
Q 14.984375 37.109375 14.984375 27.296875 
Q 14.984375 17.484375 19.15625 11.84375 
Q 23.34375 6.203125 30.609375 6.203125 
Q 37.796875 6.203125 41.984375 11.859375 
Q 46.1875 17.53125 46.1875 27.296875 
Q 46.1875 37.015625 41.984375 42.703125 
Q 37.796875 48.390625 30.609375 48.390625 
M 30.609375 56 
Q 42.328125 56 49.015625 48.375 
Q 55.71875 40.765625 55.71875 27.296875 
Q 55.71875 13.875 49.015625 6.21875 
Q 42.328125 -1.421875 30.609375 -1.421875 
Q 18.84375 -1.421875 12.171875 6.21875 
Q 5.515625 13.875 5.515625 27.296875 
Q 5.515625 40.765625 12.171875 48.375 
Q 18.84375 56 30.609375 56 
" id="DejaVuSans-6f"/>
      <path d="M 5.515625 54.6875 
L 48.1875 54.6875 
L 48.1875 46.484375 
L 14.40625 7.171875 
L 48.1875 7.171875 
L 48.1875 0 
L 4.296875 0 
L 4.296875 8.203125 
L 38.09375 47.515625 
L 5.515625 47.515625 
z
" id="DejaVuSans-7a"/>
      <path d="M 4.203125 54.6875 
L 13.1875 54.6875 
L 24.421875 12.015625 
L 35.59375 54.6875 
L 46.1875 54.6875 
L 57.421875 12.015625 
L 68.609375 54.6875 
L 77.59375 54.6875 
L 63.28125 0 
L 52.6875 0 
L 40.921875 44.828125 
L 29.109375 0 
L 18.5 0 
z
" id="DejaVuSans-77"/>
      <path d="M 34.28125 27.484375 
Q 23.390625 27.484375 19.1875 25 
Q 14.984375 22.515625 14.984375 16.5 
Q 14.984375 11.71875 18.140625 8.90625 
Q 21.296875 6.109375 26.703125 6.109375 
Q 34.1875 6.109375 38.703125 11.40625 
Q 43.21875 16.703125 43.21875 25.484375 
L 43.21875 27.484375 
z
M 52.203125 31.203125 
L 52.203125 0 
L 43.21875 0 
L 43.21875 8.296875 
Q 40.140625 3.328125 35.546875 0.953125 
Q 30.953125 -1.421875 24.3125 -1.421875 
Q 15.921875 -1.421875 10.953125 3.296875 
Q 6 8.015625 6 15.921875 
Q 6 25.140625 12.171875 29.828125 
Q 18.359375 34.515625 30.609375 34.515625 
L 43.21875 34.515625 
L 43.21875 35.40625 
Q 43.21875 41.609375 39.140625 45 
Q 35.0625 48.390625 27.6875 48.390625 
Q 23 48.390625 18.546875 47.265625 
Q 14.109375 46.140625 10.015625 43.890625 
L 10.015625 52.203125 
Q 14.9375 54.109375 19.578125 55.046875 
Q 24.21875 56 28.609375 56 
Q 40.484375 56 46.34375 49.84375 
Q 52.203125 43.703125 52.203125 31.203125 
M 43.359375 0 
L 49.171875 0 
Q 46.96875 -2.984375 45.921875 -5.125 
Q 44.875 -7.28125 44.875 -8.796875 
Q 44.875 -11.03125 46.21875 -12.15625 
Q 47.5625 -13.28125 50.203125 -13.28125 
Q 51.765625 -13.28125 53.265625 -12.90625 
Q 54.78125 -12.546875 56.296875 -11.8125 
L 56.296875 -18.3125 
Q 54.4375 -18.796875 52.78125 -19.03125 
Q 51.125 -19.28125 49.65625 -19.28125 
Q 43.703125 -19.28125 40.890625 -17.15625 
Q 38.09375 -15.046875 38.09375 -10.5 
Q 38.09375 -8.15625 39.375 -5.59375 
Q 40.671875 -3.03125 43.359375 0 
" id="DejaVuSans-105"/>
      <path d="M 34.28125 27.484375 
Q 23.390625 27.484375 19.1875 25 
Q 14.984375 22.515625 14.984375 16.5 
Q 14.984375 11.71875 18.140625 8.90625 
Q 21.296875 6.109375 26.703125 6.109375 
Q 34.1875 6.109375 38.703125 11.40625 
Q 43.21875 16.703125 43.21875 25.484375 
L 43.21875 27.484375 
z
M 52.203125 31.203125 
L 52.203125 0 
L 43.21875 0 
L 43.21875 8.296875 
Q 40.140625 3.328125 35.546875 0.953125 
Q 30.953125 -1.421875 24.3125 -1.421875 
Q 15.921875 -1.421875 10.953125 3.296875 
Q 6 8.015625 6 15.921875 
Q 6 25.140625 12.171875 29.828125 
Q 18.359375 34.515625 30.609375 34.515625 
L 43.21875 34.515625 
L 43.21875 35.40625 
Q 43.21875 41.609375 39.140625 45 
Q 35.0625 48.390625 27.6875 48.390625 
Q 23 48.390625 18.546875 47.265625 
Q 14.109375 46.140625 10.015625 43.890625 
L 10.015625 52.203125 
Q 14.9375 54.109375 19.578125 55.046875 
Q 24.21875 56 28.609375 56 
Q 40.484375 56 46.34375 49.84375 
Q 52.203125 43.703125 52.203125 31.203125 
" id="DejaVuSans-61"/>
      <path d="M 35.03125 79.984375 
L 44.75 79.984375 
L 28.84375 61.625 
L 21.359375 61.625 
z
M 54.890625 33.015625 
L 54.890625 0 
L 45.90625 0 
L 45.90625 32.71875 
Q 45.90625 40.484375 42.875 44.328125 
Q 39.84375 48.1875 33.796875 48.1875 
Q 26.515625 48.1875 22.3125 43.546875 
Q 18.109375 38.921875 18.109375 30.90625 
L 18.109375 0 
L 9.078125 0 
L 9.078125 54.6875 
L 18.109375 54.6875 
L 18.109375 46.1875 
Q 21.34375 51.125 25.703125 53.5625 
Q 30.078125 56 35.796875 56 
Q 45.21875 56 50.046875 50.171875 
Q 54.890625 44.34375 54.890625 33.015625 
" id="DejaVuSans-144"/>
      <path d="M 9.078125 75.984375 
L 18.109375 75.984375 
L 18.109375 31.109375 
L 44.921875 54.6875 
L 56.390625 54.6875 
L 27.390625 29.109375 
L 57.625 0 
L 45.90625 0 
L 18.109375 26.703125 
L 18.109375 0 
L 9.078125 0 
z
" id="DejaVuSans-6b"/>
      <path d="M 52 44.1875 
Q 55.375 50.25 60.0625 53.125 
Q 64.75 56 71.09375 56 
Q 79.640625 56 84.28125 50.015625 
Q 88.921875 44.046875 88.921875 33.015625 
L 88.921875 0 
L 79.890625 0 
L 79.890625 32.71875 
Q 79.890625 40.578125 77.09375 44.375 
Q 74.3125 48.1875 68.609375 48.1875 
Q 61.625 48.1875 57.5625 43.546875 
Q 53.515625 38.921875 53.515625 30.90625 
L 53.515625 0 
L 44.484375 0 
L 44.484375 32.71875 
Q 44.484375 40.625 41.703125 44.40625 
Q 38.921875 48.1875 33.109375 48.1875 
Q 26.21875 48.1875 22.15625 43.53125 
Q 18.109375 38.875 18.109375 30.90625 
L 18.109375 0 
L 9.078125 0 
L 9.078125 54.6875 
L 18.109375 54.6875 
L 18.109375 46.1875 
Q 21.1875 51.21875 25.484375 53.609375 
Q 29.78125 56 35.6875 56 
Q 41.65625 56 45.828125 52.96875 
Q 50 49.953125 52 44.1875 
" id="DejaVuSans-6d"/>
      <path d="M 18.109375 8.203125 
L 18.109375 -20.796875 
L 9.078125 -20.796875 
L 9.078125 54.6875 
L 18.109375 54.6875 
L 18.109375 46.390625 
Q 20.953125 51.265625 25.265625 53.625 
Q 29.59375 56 35.59375 56 
Q 45.5625 56 51.78125 48.09375 
Q 58.015625 40.1875 58.015625 27.296875 
Q 58.015625 14.40625 51.78125 6.484375 
Q 45.5625 -1.421875 35.59375 -1.421875 
Q 29.59375 -1.421875 25.265625 0.953125 
Q 20.953125 3.328125 18.109375 8.203125 
M 48.6875 27.296875 
Q 48.6875 37.203125 44.609375 42.84375 
Q 40.53125 48.484375 33.40625 48.484375 
Q 26.265625 48.484375 22.1875 42.84375 
Q 18.109375 37.203125 18.109375 27.296875 
Q 18.109375 17.390625 22.1875 11.75 
Q 26.265625 6.109375 33.40625 6.109375 
Q 40.53125 6.109375 44.609375 11.75 
Q 48.6875 17.390625 48.6875 27.296875 
" id="DejaVuSans-70"/>
      <path d="M 44.28125 53.078125 
L 44.28125 44.578125 
Q 40.484375 46.53125 36.375 47.5 
Q 32.28125 48.484375 27.875 48.484375 
Q 21.1875 48.484375 17.84375 46.4375 
Q 14.5 44.390625 14.5 40.28125 
Q 14.5 37.15625 16.890625 35.375 
Q 19.28125 33.59375 26.515625 31.984375 
L 29.59375 31.296875 
Q 39.15625 29.25 43.1875 25.515625 
Q 47.21875 21.78125 47.21875 15.09375 
Q 47.21875 7.46875 41.1875 3.015625 
Q 35.15625 -1.421875 24.609375 -1.421875 
Q 20.21875 -1.421875 15.453125 -0.5625 
Q 10.6875 0.296875 5.421875 2 
L 5.421875 11.28125 
Q 10.40625 8.6875 15.234375 7.390625 
Q 20.0625 6.109375 24.8125 6.109375 
Q 31.15625 6.109375 34.5625 8.28125 
Q 37.984375 10.453125 37.984375 14.40625 
Q 37.984375 18.0625 35.515625 20.015625 
Q 33.0625 21.96875 24.703125 23.78125 
L 21.578125 24.515625 
Q 13.234375 26.265625 9.515625 29.90625 
Q 5.8125 33.546875 5.8125 39.890625 
Q 5.8125 47.609375 11.28125 51.796875 
Q 16.75 56 26.8125 56 
Q 31.78125 56 36.171875 55.265625 
Q 40.578125 54.546875 44.28125 53.078125 
" id="DejaVuSans-73"/>
      <path d="M 32.171875 -5.078125 
Q 28.375 -14.84375 24.75 -17.8125 
Q 21.140625 -20.796875 15.09375 -20.796875 
L 7.90625 -20.796875 
L 7.90625 -13.28125 
L 13.1875 -13.28125 
Q 16.890625 -13.28125 18.9375 -11.515625 
Q 21 -9.765625 23.484375 -3.21875 
L 25.09375 0.875 
L 2.984375 54.6875 
L 12.5 54.6875 
L 29.59375 11.921875 
L 46.6875 54.6875 
L 56.203125 54.6875 
z
" id="DejaVuSans-79"/>
      <path d="M 48.78125 52.59375 
L 48.78125 44.1875 
Q 44.96875 46.296875 41.140625 47.34375 
Q 37.3125 48.390625 33.40625 48.390625 
Q 24.65625 48.390625 19.8125 42.84375 
Q 14.984375 37.3125 14.984375 27.296875 
Q 14.984375 17.28125 19.8125 11.734375 
Q 24.65625 6.203125 33.40625 6.203125 
Q 37.3125 6.203125 41.140625 7.25 
Q 44.96875 8.296875 48.78125 10.40625 
L 48.78125 2.09375 
Q 45.015625 0.34375 40.984375 -0.53125 
Q 36.96875 -1.421875 32.421875 -1.421875 
Q 20.0625 -1.421875 12.78125 6.34375 
Q 5.515625 14.109375 5.515625 27.296875 
Q 5.515625 40.671875 12.859375 48.328125 
Q 20.21875 56 33.015625 56 
Q 37.15625 56 41.109375 55.140625 
Q 45.0625 54.296875 48.78125 52.59375 
" id="DejaVuSans-63"/>
      <path d="M 54.890625 33.015625 
L 54.890625 0 
L 45.90625 0 
L 45.90625 32.71875 
Q 45.90625 40.484375 42.875 44.328125 
Q 39.84375 48.1875 33.796875 48.1875 
Q 26.515625 48.1875 22.3125 43.546875 
Q 18.109375 38.921875 18.109375 30.90625 
L 18.109375 0 
L 9.078125 0 
L 9.078125 75.984375 
L 18.109375 75.984375 
L 18.109375 46.1875 
Q 21.34375 51.125 25.703125 53.5625 
Q 30.078125 56 35.796875 56 
Q 45.21875 56 50.046875 50.171875 
Q 54.890625 44.34375 54.890625 33.015625 
" id="DejaVuSans-68"/>
     </defs>
     <g transform="translate(299.362188 270.463406)scale(0.06 -0.06)">
      <use xlink:href="#DejaVuSans-5a"/>
      <use x="68.505859" xlink:href="#DejaVuSans-62"/>
      <use x="131.982422" xlink:href="#DejaVuSans-69"/>
      <use x="159.765625" xlink:href="#DejaVuSans-f3"/>
      <use x="220.947266" xlink:href="#DejaVuSans-72"/>
      <use x="262.060547" xlink:href="#DejaVuSans-20"/>
      <use x="293.847656" xlink:href="#DejaVuSans-72"/>
      <use x="334.929688" xlink:href="#DejaVuSans-6f"/>
      <use x="396.111328" xlink:href="#DejaVuSans-7a"/>
      <use x="448.601562" xlink:href="#DejaVuSans-77"/>
      <use x="530.388672" xlink:href="#DejaVuSans-69"/>
      <use x="558.171875" xlink:href="#DejaVuSans-105"/>
      <use x="619.451172" xlink:href="#DejaVuSans-7a"/>
      <use x="671.941406" xlink:href="#DejaVuSans-61"/>
      <use x="733.220703" xlink:href="#DejaVuSans-144"/>
      <use x="796.599609" xlink:href="#DejaVuSans-20"/>
      <use x="828.386719" xlink:href="#DejaVuSans-6b"/>
      <use x="886.25" xlink:href="#DejaVuSans-6f"/>
      <use x="947.431641" xlink:href="#DejaVuSans-6d"/>
      <use x="1044.84375" xlink:href="#DejaVuSans-70"/>
      <use x="1108.320312" xlink:href="#DejaVuSans-72"/>
      <use x="1149.402344" xlink:href="#DejaVuSans-6f"/>
      <use x="1210.583984" xlink:href="#DejaVuSans-6d"/>
      <use x="1307.996094" xlink:href="#DejaVuSans-69"/>
      <use x="1335.779297" xlink:href="#DejaVuSans-73"/>
      <use x="1387.878906" xlink:href="#DejaVuSans-6f"/>
      <use x="1449.060547" xlink:href="#DejaVuSans-77"/>
      <use x="1530.847656" xlink:href="#DejaVuSans-79"/>
      <use x="1590.027344" xlink:href="#DejaVuSans-63"/>
      <use x="1645.007812" xlink:href="#DejaVuSans-68"/>
     </g>
    </g>
   </g>
  </g>
 </g>
 <defs>
  <clipPath id="pe812741f9e">
   <rect height="266.112" width="357.12" x="50.14375" y="10.999219"/>
  </clipPath>
 </defs>
</svg>
