<?xml version="1.0" encoding="utf-8" standalone="no"?>
<!DOCTYPE svg PUBLIC "-//W3C//DTD SVG 1.1//EN"
  "http://www.w3.org/Graphics/SVG/1.1/DTD/svg11.dtd">
<!-- Created with matplotlib (http://matplotlib.org/) -->
<svg height="314pt" version="1.1" viewBox="0 0 433 314" width="433pt" xmlns="http://www.w3.org/2000/svg" xmlns:xlink="http://www.w3.org/1999/xlink">
 <defs>
  <style type="text/css">
*{stroke-linecap:butt;stroke-linejoin:round;}
  </style>
 </defs>
 <g id="figure_1">
  <g id="patch_1">
   <path d="M 0 314.667469 
L 433.97625 314.667469 
L 433.97625 0 
L 0 0 
z
" style="fill:#ffffff;"/>
  </g>
  <g id="axes_1">
   <g id="patch_2">
    <path d="M 58.523438 277.111219 
L 415.643438 277.111219 
L 415.643438 10.999219 
L 58.523438 10.999219 
z
" style="fill:#ffffff;"/>
   </g>
   <g id="matplotlib.axis_1">
    <g id="xtick_1">
     <g id="line2d_1">
      <defs>
       <path d="M 0 0 
L 0 3.5 
" id="m6b5498c87a" style="stroke:#000000;stroke-width:0.8;"/>
      </defs>
      <g>
       <use style="stroke:#000000;stroke-width:0.8;" x="58.523438" xlink:href="#m6b5498c87a" y="277.111219"/>
      </g>
     </g>
     <g id="text_1">
      <!-- −1.00 -->
      <defs>
       <path d="M 10.59375 35.5 
L 73.1875 35.5 
L 73.1875 27.203125 
L 10.59375 27.203125 
z
" id="DejaVuSans-2212"/>
       <path d="M 12.40625 8.296875 
L 28.515625 8.296875 
L 28.515625 63.921875 
L 10.984375 60.40625 
L 10.984375 69.390625 
L 28.421875 72.90625 
L 38.28125 72.90625 
L 38.28125 8.296875 
L 54.390625 8.296875 
L 54.390625 0 
L 12.40625 0 
z
" id="DejaVuSans-31"/>
       <path d="M 10.6875 12.40625 
L 21 12.40625 
L 21 0 
L 10.6875 0 
z
" id="DejaVuSans-2e"/>
       <path d="M 31.78125 66.40625 
Q 24.171875 66.40625 20.328125 58.90625 
Q 16.5 51.421875 16.5 36.375 
Q 16.5 21.390625 20.328125 13.890625 
Q 24.171875 6.390625 31.78125 6.390625 
Q 39.453125 6.390625 43.28125 13.890625 
Q 47.125 21.390625 47.125 36.375 
Q 47.125 51.421875 43.28125 58.90625 
Q 39.453125 66.40625 31.78125 66.40625 
M 31.78125 74.21875 
Q 44.046875 74.21875 50.515625 64.515625 
Q 56.984375 54.828125 56.984375 36.375 
Q 56.984375 17.96875 50.515625 8.265625 
Q 44.046875 -1.421875 31.78125 -1.421875 
Q 19.53125 -1.421875 13.0625 8.265625 
Q 6.59375 17.96875 6.59375 36.375 
Q 6.59375 54.828125 13.0625 64.515625 
Q 19.53125 74.21875 31.78125 74.21875 
" id="DejaVuSans-30"/>
      </defs>
      <g transform="translate(43.200781 291.709656)scale(0.1 -0.1)">
       <use xlink:href="#DejaVuSans-2212"/>
       <use x="83.789062" xlink:href="#DejaVuSans-31"/>
       <use x="147.412109" xlink:href="#DejaVuSans-2e"/>
       <use x="179.199219" xlink:href="#DejaVuSans-30"/>
       <use x="242.822266" xlink:href="#DejaVuSans-30"/>
      </g>
     </g>
    </g>
    <g id="xtick_2">
     <g id="line2d_2">
      <g>
       <use style="stroke:#000000;stroke-width:0.8;" x="103.163437" xlink:href="#m6b5498c87a" y="277.111219"/>
      </g>
     </g>
     <g id="text_2">
      <!-- −0.75 -->
      <defs>
       <path d="M 8.203125 72.90625 
L 55.078125 72.90625 
L 55.078125 68.703125 
L 28.609375 0 
L 18.3125 0 
L 43.21875 64.59375 
L 8.203125 64.59375 
z
" id="DejaVuSans-37"/>
       <path d="M 10.796875 72.90625 
L 49.515625 72.90625 
L 49.515625 64.59375 
L 19.828125 64.59375 
L 19.828125 46.734375 
Q 21.96875 47.46875 24.109375 47.828125 
Q 26.265625 48.1875 28.421875 48.1875 
Q 40.625 48.1875 47.75 41.5 
Q 54.890625 34.8125 54.890625 23.390625 
Q 54.890625 11.625 47.5625 5.09375 
Q 40.234375 -1.421875 26.90625 -1.421875 
Q 22.3125 -1.421875 17.546875 -0.640625 
Q 12.796875 0.140625 7.71875 1.703125 
L 7.71875 11.625 
Q 12.109375 9.234375 16.796875 8.0625 
Q 21.484375 6.890625 26.703125 6.890625 
Q 35.15625 6.890625 40.078125 11.328125 
Q 45.015625 15.765625 45.015625 23.390625 
Q 45.015625 31 40.078125 35.4375 
Q 35.15625 39.890625 26.703125 39.890625 
Q 22.75 39.890625 18.8125 39.015625 
Q 14.890625 38.140625 10.796875 36.28125 
z
" id="DejaVuSans-35"/>
      </defs>
      <g transform="translate(87.840781 291.709656)scale(0.1 -0.1)">
       <use xlink:href="#DejaVuSans-2212"/>
       <use x="83.789062" xlink:href="#DejaVuSans-30"/>
       <use x="147.412109" xlink:href="#DejaVuSans-2e"/>
       <use x="179.199219" xlink:href="#DejaVuSans-37"/>
       <use x="242.822266" xlink:href="#DejaVuSans-35"/>
      </g>
     </g>
    </g>
    <g id="xtick_3">
     <g id="line2d_3">
      <g>
       <use style="stroke:#000000;stroke-width:0.8;" x="147.803438" xlink:href="#m6b5498c87a" y="277.111219"/>
      </g>
     </g>
     <g id="text_3">
      <!-- −0.50 -->
      <g transform="translate(132.480781 291.709656)scale(0.1 -0.1)">
       <use xlink:href="#DejaVuSans-2212"/>
       <use x="83.789062" xlink:href="#DejaVuSans-30"/>
       <use x="147.412109" xlink:href="#DejaVuSans-2e"/>
       <use x="179.199219" xlink:href="#DejaVuSans-35"/>
       <use x="242.822266" xlink:href="#DejaVuSans-30"/>
      </g>
     </g>
    </g>
    <g id="xtick_4">
     <g id="line2d_4">
      <g>
       <use style="stroke:#000000;stroke-width:0.8;" x="192.443438" xlink:href="#m6b5498c87a" y="277.111219"/>
      </g>
     </g>
     <g id="text_4">
      <!-- −0.25 -->
      <defs>
       <path d="M 19.1875 8.296875 
L 53.609375 8.296875 
L 53.609375 0 
L 7.328125 0 
L 7.328125 8.296875 
Q 12.9375 14.109375 22.625 23.890625 
Q 32.328125 33.6875 34.8125 36.53125 
Q 39.546875 41.84375 41.421875 45.53125 
Q 43.3125 49.21875 43.3125 52.78125 
Q 43.3125 58.59375 39.234375 62.25 
Q 35.15625 65.921875 28.609375 65.921875 
Q 23.96875 65.921875 18.8125 64.3125 
Q 13.671875 62.703125 7.8125 59.421875 
L 7.8125 69.390625 
Q 13.765625 71.78125 18.9375 73 
Q 24.125 74.21875 28.421875 74.21875 
Q 39.75 74.21875 46.484375 68.546875 
Q 53.21875 62.890625 53.21875 53.421875 
Q 53.21875 48.921875 51.53125 44.890625 
Q 49.859375 40.875 45.40625 35.40625 
Q 44.1875 33.984375 37.640625 27.21875 
Q 31.109375 20.453125 19.1875 8.296875 
" id="DejaVuSans-32"/>
      </defs>
      <g transform="translate(177.120781 291.709656)scale(0.1 -0.1)">
       <use xlink:href="#DejaVuSans-2212"/>
       <use x="83.789062" xlink:href="#DejaVuSans-30"/>
       <use x="147.412109" xlink:href="#DejaVuSans-2e"/>
       <use x="179.199219" xlink:href="#DejaVuSans-32"/>
       <use x="242.822266" xlink:href="#DejaVuSans-35"/>
      </g>
     </g>
    </g>
    <g id="xtick_5">
     <g id="line2d_5">
      <g>
       <use style="stroke:#000000;stroke-width:0.8;" x="237.083438" xlink:href="#m6b5498c87a" y="277.111219"/>
      </g>
     </g>
     <g id="text_5">
      <!-- 0.00 -->
      <g transform="translate(225.950625 291.709656)scale(0.1 -0.1)">
       <use xlink:href="#DejaVuSans-30"/>
       <use x="63.623047" xlink:href="#DejaVuSans-2e"/>
       <use x="95.410156" xlink:href="#DejaVuSans-30"/>
       <use x="159.033203" xlink:href="#DejaVuSans-30"/>
      </g>
     </g>
    </g>
    <g id="xtick_6">
     <g id="line2d_6">
      <g>
       <use style="stroke:#000000;stroke-width:0.8;" x="281.723437" xlink:href="#m6b5498c87a" y="277.111219"/>
      </g>
     </g>
     <g id="text_6">
      <!-- 0.25 -->
      <g transform="translate(270.590625 291.709656)scale(0.1 -0.1)">
       <use xlink:href="#DejaVuSans-30"/>
       <use x="63.623047" xlink:href="#DejaVuSans-2e"/>
       <use x="95.410156" xlink:href="#DejaVuSans-32"/>
       <use x="159.033203" xlink:href="#DejaVuSans-35"/>
      </g>
     </g>
    </g>
    <g id="xtick_7">
     <g id="line2d_7">
      <g>
       <use style="stroke:#000000;stroke-width:0.8;" x="326.363438" xlink:href="#m6b5498c87a" y="277.111219"/>
      </g>
     </g>
     <g id="text_7">
      <!-- 0.50 -->
      <g transform="translate(315.230625 291.709656)scale(0.1 -0.1)">
       <use xlink:href="#DejaVuSans-30"/>
       <use x="63.623047" xlink:href="#DejaVuSans-2e"/>
       <use x="95.410156" xlink:href="#DejaVuSans-35"/>
       <use x="159.033203" xlink:href="#DejaVuSans-30"/>
      </g>
     </g>
    </g>
    <g id="xtick_8">
     <g id="line2d_8">
      <g>
       <use style="stroke:#000000;stroke-width:0.8;" x="371.003438" xlink:href="#m6b5498c87a" y="277.111219"/>
      </g>
     </g>
     <g id="text_8">
      <!-- 0.75 -->
      <g transform="translate(359.870625 291.709656)scale(0.1 -0.1)">
       <use xlink:href="#DejaVuSans-30"/>
       <use x="63.623047" xlink:href="#DejaVuSans-2e"/>
       <use x="95.410156" xlink:href="#DejaVuSans-37"/>
       <use x="159.033203" xlink:href="#DejaVuSans-35"/>
      </g>
     </g>
    </g>
    <g id="xtick_9">
     <g id="line2d_9">
      <g>
       <use style="stroke:#000000;stroke-width:0.8;" x="415.643438" xlink:href="#m6b5498c87a" y="277.111219"/>
      </g>
     </g>
     <g id="text_9">
      <!-- 1.00 -->
      <g transform="translate(404.510625 291.709656)scale(0.1 -0.1)">
       <use xlink:href="#DejaVuSans-31"/>
       <use x="63.623047" xlink:href="#DejaVuSans-2e"/>
       <use x="95.410156" xlink:href="#DejaVuSans-30"/>
       <use x="159.033203" xlink:href="#DejaVuSans-30"/>
      </g>
     </g>
    </g>
    <g id="text_10">
     <!-- $x_1$ -->
     <defs>
      <path d="M 60.015625 54.6875 
L 34.90625 27.875 
L 50.296875 0 
L 39.984375 0 
L 28.421875 21.6875 
L 8.296875 0 
L -2.59375 0 
L 24.3125 28.8125 
L 10.015625 54.6875 
L 20.3125 54.6875 
L 30.8125 34.90625 
L 49.125 54.6875 
z
" id="DejaVuSans-Oblique-78"/>
     </defs>
     <g transform="translate(231.733438 305.387781)scale(0.1 -0.1)">
      <use transform="translate(0 0.3125)" xlink:href="#DejaVuSans-Oblique-78"/>
      <use transform="translate(59.179688 -16.09375)scale(0.7)" xlink:href="#DejaVuSans-31"/>
     </g>
    </g>
   </g>
   <g id="matplotlib.axis_2">
    <g id="ytick_1">
     <g id="line2d_10">
      <defs>
       <path d="M 0 0 
L -3.5 0 
" id="m7c018d1bdf" style="stroke:#000000;stroke-width:0.8;"/>
      </defs>
      <g>
       <use style="stroke:#000000;stroke-width:0.8;" x="58.523438" xlink:href="#m7c018d1bdf" y="277.111219"/>
      </g>
     </g>
     <g id="text_11">
      <!-- −0.50 -->
      <g transform="translate(20.878125 280.910437)scale(0.1 -0.1)">
       <use xlink:href="#DejaVuSans-2212"/>
       <use x="83.789062" xlink:href="#DejaVuSans-30"/>
       <use x="147.412109" xlink:href="#DejaVuSans-2e"/>
       <use x="179.199219" xlink:href="#DejaVuSans-35"/>
       <use x="242.822266" xlink:href="#DejaVuSans-30"/>
      </g>
     </g>
    </g>
    <g id="ytick_2">
     <g id="line2d_11">
      <g>
       <use style="stroke:#000000;stroke-width:0.8;" x="58.523438" xlink:href="#m7c018d1bdf" y="243.847219"/>
      </g>
     </g>
     <g id="text_12">
      <!-- −0.25 -->
      <g transform="translate(20.878125 247.646437)scale(0.1 -0.1)">
       <use xlink:href="#DejaVuSans-2212"/>
       <use x="83.789062" xlink:href="#DejaVuSans-30"/>
       <use x="147.412109" xlink:href="#DejaVuSans-2e"/>
       <use x="179.199219" xlink:href="#DejaVuSans-32"/>
       <use x="242.822266" xlink:href="#DejaVuSans-35"/>
      </g>
     </g>
    </g>
    <g id="ytick_3">
     <g id="line2d_12">
      <g>
       <use style="stroke:#000000;stroke-width:0.8;" x="58.523438" xlink:href="#m7c018d1bdf" y="210.583219"/>
      </g>
     </g>
     <g id="text_13">
      <!-- 0.00 -->
      <g transform="translate(29.257813 214.382437)scale(0.1 -0.1)">
       <use xlink:href="#DejaVuSans-30"/>
       <use x="63.623047" xlink:href="#DejaVuSans-2e"/>
       <use x="95.410156" xlink:href="#DejaVuSans-30"/>
       <use x="159.033203" xlink:href="#DejaVuSans-30"/>
      </g>
     </g>
    </g>
    <g id="ytick_4">
     <g id="line2d_13">
      <g>
       <use style="stroke:#000000;stroke-width:0.8;" x="58.523438" xlink:href="#m7c018d1bdf" y="177.319219"/>
      </g>
     </g>
     <g id="text_14">
      <!-- 0.25 -->
      <g transform="translate(29.257813 181.118437)scale(0.1 -0.1)">
       <use xlink:href="#DejaVuSans-30"/>
       <use x="63.623047" xlink:href="#DejaVuSans-2e"/>
       <use x="95.410156" xlink:href="#DejaVuSans-32"/>
       <use x="159.033203" xlink:href="#DejaVuSans-35"/>
      </g>
     </g>
    </g>
    <g id="ytick_5">
     <g id="line2d_14">
      <g>
       <use style="stroke:#000000;stroke-width:0.8;" x="58.523438" xlink:href="#m7c018d1bdf" y="144.055219"/>
      </g>
     </g>
     <g id="text_15">
      <!-- 0.50 -->
      <g transform="translate(29.257813 147.854437)scale(0.1 -0.1)">
       <use xlink:href="#DejaVuSans-30"/>
       <use x="63.623047" xlink:href="#DejaVuSans-2e"/>
       <use x="95.410156" xlink:href="#DejaVuSans-35"/>
       <use x="159.033203" xlink:href="#DejaVuSans-30"/>
      </g>
     </g>
    </g>
    <g id="ytick_6">
     <g id="line2d_15">
      <g>
       <use style="stroke:#000000;stroke-width:0.8;" x="58.523438" xlink:href="#m7c018d1bdf" y="110.791219"/>
      </g>
     </g>
     <g id="text_16">
      <!-- 0.75 -->
      <g transform="translate(29.257813 114.590437)scale(0.1 -0.1)">
       <use xlink:href="#DejaVuSans-30"/>
       <use x="63.623047" xlink:href="#DejaVuSans-2e"/>
       <use x="95.410156" xlink:href="#DejaVuSans-37"/>
       <use x="159.033203" xlink:href="#DejaVuSans-35"/>
      </g>
     </g>
    </g>
    <g id="ytick_7">
     <g id="line2d_16">
      <g>
       <use style="stroke:#000000;stroke-width:0.8;" x="58.523438" xlink:href="#m7c018d1bdf" y="77.527219"/>
      </g>
     </g>
     <g id="text_17">
      <!-- 1.00 -->
      <g transform="translate(29.257813 81.326437)scale(0.1 -0.1)">
       <use xlink:href="#DejaVuSans-31"/>
       <use x="63.623047" xlink:href="#DejaVuSans-2e"/>
       <use x="95.410156" xlink:href="#DejaVuSans-30"/>
       <use x="159.033203" xlink:href="#DejaVuSans-30"/>
      </g>
     </g>
    </g>
    <g id="ytick_8">
     <g id="line2d_17">
      <g>
       <use style="stroke:#000000;stroke-width:0.8;" x="58.523438" xlink:href="#m7c018d1bdf" y="44.263219"/>
      </g>
     </g>
     <g id="text_18">
      <!-- 1.25 -->
      <g transform="translate(29.257813 48.062437)scale(0.1 -0.1)">
       <use xlink:href="#DejaVuSans-31"/>
       <use x="63.623047" xlink:href="#DejaVuSans-2e"/>
       <use x="95.410156" xlink:href="#DejaVuSans-32"/>
       <use x="159.033203" xlink:href="#DejaVuSans-35"/>
      </g>
     </g>
    </g>
    <g id="ytick_9">
     <g id="line2d_18">
      <g>
       <use style="stroke:#000000;stroke-width:0.8;" x="58.523438" xlink:href="#m7c018d1bdf" y="10.999219"/>
      </g>
     </g>
     <g id="text_19">
      <!-- 1.50 -->
      <g transform="translate(29.257813 14.798437)scale(0.1 -0.1)">
       <use xlink:href="#DejaVuSans-31"/>
       <use x="63.623047" xlink:href="#DejaVuSans-2e"/>
       <use x="95.410156" xlink:href="#DejaVuSans-35"/>
       <use x="159.033203" xlink:href="#DejaVuSans-30"/>
      </g>
     </g>
    </g>
    <g id="text_20">
     <!-- $x_2$ -->
     <g transform="translate(14.798438 149.405219)rotate(-90)scale(0.1 -0.1)">
      <use transform="translate(0 0.3125)" xlink:href="#DejaVuSans-Oblique-78"/>
      <use transform="translate(59.179688 -16.09375)scale(0.7)" xlink:href="#DejaVuSans-32"/>
     </g>
    </g>
   </g>
   <g id="LineCollection_1">
    <path clip-path="url(#p5db7a20323)" d="M 224.457983 269.333385 
L 222.321801 269.047219 
L 220.85071 268.840875 
L 217.243438 268.208405 
L 213.636165 267.44944 
L 209.298983 266.359219 
L 206.421619 265.512167 
L 201.058056 263.671219 
L 199.207074 262.95471 
L 194.662286 260.983219 
L 189.392864 258.295219 
L 188.385256 257.729375 
L 184.777983 255.544154 
L 180.974847 252.919219 
L 177.53824 250.231219 
L 173.956165 247.009423 
L 170.348892 243.235562 
L 169.424528 242.167219 
L 166.741619 238.723629 
L 165.412565 236.791219 
L 163.134347 233.001546 
L 162.298018 231.415219 
L 161.05265 228.727219 
L 159.527074 224.692019 
L 159.097685 223.351219 
L 158.400826 220.663219 
L 157.867933 217.975219 
L 157.499008 215.287219 
L 157.294049 212.599219 
L 157.253057 209.911219 
L 157.376033 207.223219 
L 157.662975 204.535219 
L 158.113884 201.847219 
L 158.72876 199.159219 
L 159.527074 196.415706 
L 160.494381 193.783219 
L 161.653862 191.095219 
L 163.134347 188.140339 
L 164.555837 185.719219 
L 166.741619 182.438921 
L 168.332854 180.343219 
L 170.575599 177.655219 
L 173.956165 174.162041 
L 177.563438 170.936358 
L 181.17071 168.120285 
L 184.777983 165.640461 
L 188.385256 163.440053 
L 191.992528 161.474355 
L 197.692429 158.839219 
L 199.207074 158.210601 
L 204.870993 156.151219 
L 206.421619 155.650052 
L 210.028892 154.613715 
L 214.767195 153.463219 
L 217.243438 152.954198 
L 220.85071 152.336267 
L 224.457983 151.841922 
L 228.065256 151.471164 
L 231.672528 151.223991 
L 235.279801 151.100405 
L 238.887074 151.100405 
L 242.494347 151.223991 
L 246.101619 151.471164 
L 249.708892 151.841922 
L 253.316165 152.336267 
L 259.39968 153.463219 
L 260.53071 153.70692 
L 264.137983 154.613715 
L 269.295882 156.151219 
L 271.352528 156.849588 
L 276.474446 158.839219 
L 278.567074 159.754035 
L 282.276668 161.527219 
L 287.100528 164.215219 
L 291.281207 166.903219 
L 294.939301 169.591219 
L 298.167031 172.279219 
L 301.036124 174.967219 
L 303.817983 177.91401 
L 305.834021 180.343219 
L 307.852492 183.031219 
L 309.611038 185.719219 
L 311.181758 188.407219 
L 312.513013 191.095219 
L 313.672494 193.783219 
L 314.659272 196.471219 
L 315.438115 199.159219 
L 316.052991 201.847219 
L 316.5039 204.535219 
L 316.790842 207.223219 
L 316.913818 209.911219 
L 316.872826 212.599219 
L 316.667867 215.287219 
L 316.298942 217.975219 
L 315.766049 220.663219 
L 314.639801 224.692019 
L 314.187818 226.039219 
L 313.114225 228.727219 
L 311.032528 233.001546 
L 310.422674 234.103219 
L 307.425256 238.723629 
L 306.878232 239.479219 
L 303.817983 243.235562 
L 302.338751 244.855219 
L 299.652379 247.543219 
L 296.603438 250.25215 
L 292.996165 253.062923 
L 289.290658 255.607219 
L 284.774011 258.295219 
L 279.504589 260.983219 
L 278.567074 261.41871 
L 273.108819 263.671219 
L 271.352528 264.3175 
L 264.867892 266.359219 
L 264.137983 266.563981 
L 260.53071 267.44944 
L 256.923438 268.208405 
L 251.845074 269.047219 
L 249.708892 269.333385 
L 246.101619 269.695812 
L 242.494347 269.93743 
L 238.887074 270.058239 
L 235.279801 270.058239 
L 231.672528 269.93743 
L 228.065256 269.695812 
L 224.457983 269.333385 
L 224.457983 269.333385 
" style="fill:none;stroke:#440154;stroke-width:1.5;"/>
   </g>
   <g id="LineCollection_2">
    <path clip-path="url(#p5db7a20323)" d="M 167.948394 277.111219 
L 163.134347 274.179709 
L 159.503504 271.735219 
L 155.858046 269.047219 
L 152.312528 266.179189 
L 148.705256 262.958201 
L 145.097983 259.384227 
L 141.678878 255.607219 
L 139.500865 252.919219 
L 137.478425 250.231219 
L 134.276165 245.391551 
L 132.42355 242.167219 
L 130.668892 238.730185 
L 128.667607 234.103219 
L 127.061619 229.522033 
L 126.084892 226.039219 
L 125.473983 223.351219 
L 124.979437 220.663219 
L 124.601256 217.975219 
L 124.339438 215.287219 
L 124.193983 212.599219 
L 124.164892 209.911219 
L 124.252165 207.223219 
L 124.455801 204.535219 
L 124.775801 201.847219 
L 125.212165 199.159219 
L 125.764892 196.471219 
L 127.061619 191.635308 
L 127.224698 191.095219 
L 128.156577 188.407219 
L 129.208698 185.719219 
L 130.668892 182.43267 
L 131.708315 180.343219 
L 134.276165 175.780207 
L 136.544399 172.279219 
L 138.465444 169.591219 
L 141.49071 165.796926 
L 145.097983 161.770464 
L 148.035205 158.839219 
L 150.975771 156.151219 
L 154.172038 153.463219 
L 157.658876 150.775219 
L 161.477792 148.087219 
L 165.678601 145.399219 
L 170.348892 142.696213 
L 175.570154 140.023219 
L 181.496868 137.335219 
L 188.414738 134.647219 
L 195.599801 132.319761 
L 199.207074 131.31376 
L 206.421619 129.597054 
L 210.028892 128.887141 
L 217.243438 127.75075 
L 224.457983 126.964019 
L 231.672528 126.528718 
L 238.887074 126.444057 
L 246.101619 126.701775 
L 253.316165 127.313677 
L 260.53071 128.275238 
L 267.745256 129.597054 
L 274.959801 131.31376 
L 278.567074 132.319761 
L 285.781619 134.657511 
L 292.996165 137.471503 
L 298.596721 140.023219 
L 303.845275 142.711219 
L 308.488274 145.399219 
L 312.689083 148.087219 
L 316.507999 150.775219 
L 319.994837 153.463219 
L 323.191104 156.151219 
L 326.13167 158.839219 
L 329.068892 161.770464 
L 332.676165 165.796926 
L 335.701431 169.591219 
L 337.622476 172.279219 
L 339.89071 175.780207 
L 342.45856 180.343219 
L 343.785813 183.031219 
L 346.010298 188.407219 
L 347.105256 191.635308 
L 347.732892 193.783219 
L 348.401983 196.471219 
L 348.95471 199.159219 
L 349.391074 201.847219 
L 349.711074 204.535219 
L 349.91471 207.223219 
L 350.001983 209.911219 
L 349.972892 212.599219 
L 349.827437 215.287219 
L 349.565619 217.975219 
L 349.187437 220.663219 
L 348.692892 223.351219 
L 348.081983 226.039219 
L 347.105256 229.522033 
L 346.491268 231.415219 
L 345.499268 234.103219 
L 343.497983 238.730185 
L 343.142698 239.479219 
L 340.219563 244.855219 
L 338.524295 247.543219 
L 336.283437 250.785343 
L 332.676165 255.382874 
L 330.09471 258.295219 
L 327.502434 260.983219 
L 324.694134 263.671219 
L 321.641635 266.359219 
L 318.247074 269.094787 
L 314.639801 271.751838 
L 310.652638 274.423219 
L 306.218481 277.111219 
L 306.218481 277.111219 
" style="fill:none;stroke:#481a6c;stroke-width:1.5;"/>
   </g>
   <g id="LineCollection_3">
    <path clip-path="url(#p5db7a20323)" d="M 131.456428 277.111219 
L 128.514298 274.423219 
L 125.761983 271.735219 
L 123.181687 269.047219 
L 119.847074 265.253322 
L 116.239801 260.713498 
L 112.632528 255.552425 
L 109.420123 250.231219 
L 107.981276 247.543219 
L 105.417983 242.147805 
L 103.329786 236.791219 
L 101.628567 231.415219 
L 100.347036 226.039219 
L 99.445217 220.663219 
L 98.923112 215.287219 
L 98.78072 209.911219 
L 99.01804 204.535219 
L 99.635074 199.159219 
L 100.63182 193.783219 
L 102.013619 188.407219 
L 103.817256 183.031219 
L 106.027336 177.655219 
L 108.68269 172.279219 
L 110.19311 169.591219 
L 112.632528 165.632437 
L 115.4527 161.527219 
L 117.478435 158.839219 
L 119.847074 155.90266 
L 124.452892 150.775219 
L 127.10145 148.087219 
L 130.668892 144.756407 
L 134.276165 141.64972 
L 137.883438 138.775308 
L 141.49071 136.108062 
L 145.097983 133.626363 
L 148.705256 131.311501 
L 152.312528 129.147199 
L 156.957917 126.583219 
L 163.134347 123.491506 
L 170.348892 120.31769 
L 177.563438 117.558597 
L 184.777983 115.179426 
L 192.016953 113.143219 
L 199.207074 111.466876 
L 206.421619 110.087176 
L 213.636165 109.019097 
L 220.85071 108.235839 
L 228.065256 107.738171 
L 235.279801 107.530068 
L 242.494347 107.599436 
L 249.708892 107.951017 
L 256.923438 108.591865 
L 264.137983 109.517534 
L 271.352528 110.735447 
L 278.567074 112.271447 
L 285.781619 114.126782 
L 292.996165 116.320957 
L 300.21071 118.88409 
L 307.425256 121.849979 
L 311.877446 123.895219 
L 318.247074 127.136663 
L 322.067589 129.271219 
L 326.496005 131.959219 
L 330.583773 134.647219 
L 334.368744 137.335219 
L 337.88336 140.023219 
L 341.155588 142.711219 
L 344.209668 145.399219 
L 347.105256 148.126357 
L 350.712528 151.835743 
L 354.529542 156.151219 
L 358.714175 161.527219 
L 362.350492 166.903219 
L 365.484185 172.279219 
L 368.139539 177.655219 
L 369.30156 180.343219 
L 371.300184 185.719219 
L 372.894289 191.095219 
L 374.080892 196.471219 
L 374.887782 201.847219 
L 375.314959 207.223219 
L 375.362423 212.599219 
L 375.030174 217.975219 
L 374.318213 223.351219 
L 373.226538 228.727219 
L 371.738907 234.103219 
L 369.837777 239.479219 
L 368.740751 242.167219 
L 366.185599 247.543219 
L 364.746752 250.231219 
L 361.499202 255.607219 
L 357.726898 260.983219 
L 353.380642 266.359219 
L 350.712528 269.339425 
L 347.105256 273.02647 
L 342.710447 277.111219 
L 342.710447 277.111219 
" style="fill:none;stroke:#472f7d;stroke-width:1.5;"/>
   </g>
   <g id="LineCollection_4">
    <path clip-path="url(#p5db7a20323)" d="M 104.66789 277.111219 
L 102.303664 274.423219 
L 100.08361 271.735219 
L 97.977405 269.047219 
L 94.150328 263.671219 
L 90.773885 258.295219 
L 87.82648 252.919219 
L 86.506104 250.231219 
L 84.144199 244.855219 
L 83.107945 242.167219 
L 81.304309 236.791219 
L 79.843752 231.415219 
L 78.736975 226.039219 
L 77.958132 220.663219 
L 77.507223 215.287219 
L 77.384247 209.911219 
L 77.589206 204.535219 
L 78.122099 199.159219 
L 78.982925 193.783219 
L 80.171793 188.407219 
L 81.723759 183.031219 
L 83.774347 177.245431 
L 85.88342 172.279219 
L 88.530338 166.903219 
L 91.580147 161.527219 
L 95.063838 156.151219 
L 99.015667 150.775219 
L 103.47359 145.399219 
L 105.899579 142.711219 
L 109.025256 139.476198 
L 114.123844 134.647219 
L 117.202424 131.959219 
L 120.473415 129.271219 
L 123.955438 126.583219 
L 127.669595 123.895219 
L 134.276165 119.519254 
L 137.883438 117.324606 
L 141.49071 115.252735 
L 148.705256 111.465047 
L 152.312528 109.72937 
L 159.527074 106.557185 
L 166.741619 103.747475 
L 173.956165 101.273555 
L 181.17071 99.111295 
L 189.372053 97.015219 
L 195.599801 95.666896 
L 202.937094 94.327219 
L 210.028892 93.301555 
L 217.243438 92.502835 
L 224.457983 91.949875 
L 231.875438 91.639219 
L 238.887074 91.58253 
L 246.101619 91.765555 
L 253.316165 92.195635 
L 260.53071 92.871475 
L 267.745256 93.793075 
L 274.959801 94.975247 
L 282.174347 96.421422 
L 289.388892 98.145547 
L 296.603438 100.152181 
L 303.817983 102.462645 
L 311.032528 105.100463 
L 318.247074 108.091648 
L 325.461619 111.465047 
L 329.068892 113.297826 
L 336.283437 117.324606 
L 339.89071 119.519254 
L 343.497983 121.847927 
L 347.105256 124.323288 
L 350.712528 126.959648 
L 354.319801 129.773242 
L 360.043031 134.647219 
L 362.945692 137.335219 
L 365.687094 140.023219 
L 368.748892 143.233207 
L 372.991591 148.087219 
L 377.183782 153.463219 
L 380.895819 158.839219 
L 384.162834 164.215219 
L 387.016615 169.591219 
L 389.464407 174.967219 
L 391.541298 180.343219 
L 393.261044 185.719219 
L 394.630561 191.095219 
L 395.655355 196.471219 
L 396.352214 201.847219 
L 396.72114 207.223219 
L 396.762132 212.599219 
L 396.47519 217.975219 
L 395.860314 223.351219 
L 394.917504 228.727219 
L 393.63855 234.103219 
L 392.002693 239.479219 
L 390.022676 244.855219 
L 387.660771 250.231219 
L 386.340395 252.919219 
L 383.177983 258.655153 
L 380.016547 263.671219 
L 378.154971 266.359219 
L 375.963438 269.342446 
L 371.863211 274.423219 
L 369.498985 277.111219 
L 369.498985 277.111219 
" style="fill:none;stroke:#414487;stroke-width:1.5;"/>
   </g>
   <g id="LineCollection_5">
    <path clip-path="url(#p5db7a20323)" d="M 82.4557 277.111219 
L 80.421366 274.423219 
L 78.509471 271.735219 
L 74.979114 266.359219 
L 71.837509 260.983219 
L 69.05984 255.607219 
L 66.6422 250.231219 
L 64.556695 244.855219 
L 62.790634 239.479219 
L 61.341619 234.103219 
L 60.200543 228.727219 
L 59.353938 223.351219 
L 58.801805 217.975219 
L 58.544143 212.599219 
L 58.580951 207.223219 
L 58.912232 201.847219 
L 59.537983 196.471219 
L 60.458206 191.095219 
L 61.672899 185.719219 
L 63.203968 180.343219 
L 65.04518 174.967219 
L 67.217828 169.591219 
L 69.720196 164.215219 
L 72.952528 158.196991 
L 75.820811 153.463219 
L 77.587157 150.775219 
L 81.428046 145.399219 
L 85.709498 140.023219 
L 88.02224 137.335219 
L 93.043347 131.959219 
L 95.755232 129.271219 
L 98.609849 126.583219 
L 101.81071 123.733631 
L 108.17667 118.519219 
L 112.632528 115.175666 
L 116.239801 112.633504 
L 119.847074 110.226027 
L 127.061619 105.792406 
L 133.160553 102.391219 
L 138.388623 99.703219 
L 145.097983 96.545605 
L 152.312528 93.484339 
L 159.527074 90.74009 
L 166.741619 88.292071 
L 173.956165 86.121272 
L 181.17071 84.22386 
L 188.385256 82.577774 
L 197.249718 80.887219 
L 202.814347 80.006726 
L 210.028892 79.069373 
L 217.243438 78.352573 
L 224.457983 77.863219 
L 231.672528 77.593068 
L 238.887074 77.539038 
L 246.101619 77.701128 
L 254.916892 78.199219 
L 260.53071 78.683403 
L 267.745256 79.51048 
L 274.959801 80.558111 
L 282.174347 81.845962 
L 290.283195 83.575219 
L 296.603438 85.143818 
L 303.817983 87.175743 
L 311.032528 89.478682 
L 318.247074 92.071219 
L 325.461619 94.973675 
L 332.676165 98.208321 
L 339.89071 101.799611 
L 345.869013 105.079219 
L 350.712528 107.947457 
L 357.927074 112.633504 
L 362.432944 115.831219 
L 365.990205 118.519219 
L 369.355182 121.207219 
L 372.543055 123.895219 
L 378.411643 129.271219 
L 381.123528 131.959219 
L 383.703127 134.647219 
L 388.457377 140.023219 
L 392.738829 145.399219 
L 394.714595 148.087219 
L 398.346064 153.463219 
L 401.584386 158.839219 
L 404.821619 164.982502 
L 406.949047 169.591219 
L 409.121695 174.967219 
L 410.962907 180.343219 
L 412.493976 185.719219 
L 413.708669 191.095219 
L 414.628892 196.471219 
L 415.254643 201.847219 
L 415.585924 207.223219 
L 415.622732 212.599219 
L 415.36507 217.975219 
L 414.812937 223.351219 
L 413.966332 228.727219 
L 412.825256 234.103219 
L 411.376241 239.479219 
L 409.61018 244.855219 
L 407.524675 250.231219 
L 404.821619 256.186697 
L 402.329366 260.983219 
L 399.187761 266.359219 
L 395.657404 271.735219 
L 391.711175 277.111219 
L 391.711175 277.111219 
" style="fill:none;stroke:#39568c;stroke-width:1.5;"/>
   </g>
   <g id="LineCollection_6">
    <path clip-path="url(#p5db7a20323)" d="M 63.051786 277.111219 
L 62.13071 275.75267 
L 61.247757 274.423219 
L 59.536143 271.735219 
L 58.523438 270.07334 
" style="fill:none;stroke:#31688e;stroke-width:1.5;"/>
    <path clip-path="url(#p5db7a20323)" d="M 415.643438 270.07334 
L 414.630732 271.735219 
L 412.919118 274.423219 
L 412.036165 275.75267 
L 411.115089 277.111219 
" style="fill:none;stroke:#31688e;stroke-width:1.5;"/>
    <path clip-path="url(#p5db7a20323)" d="M 58.523438 151.084957 
L 60.382747 148.087219 
L 63.99118 142.711219 
L 67.983414 137.335219 
L 72.384481 131.959219 
L 76.559801 127.304936 
L 80.167074 123.567426 
L 85.449689 118.519219 
L 90.988892 113.67001 
L 94.943596 110.455219 
L 101.81071 105.305097 
L 106.019821 102.391219 
L 112.632528 98.142328 
L 119.109906 94.327219 
L 124.036892 91.639219 
L 130.668892 88.290602 
L 137.883438 84.969888 
L 145.097983 81.957141 
L 152.312528 79.23341 
L 159.527074 76.781265 
L 166.741619 74.584653 
L 173.956165 72.628761 
L 181.17071 70.914674 
L 188.385256 69.422134 
L 195.599801 68.148201 
L 202.814347 67.084964 
L 210.028892 66.234806 
L 217.243438 65.584685 
L 224.457983 65.134601 
L 231.672528 64.884555 
L 238.887074 64.834545 
L 246.101619 64.984573 
L 253.316165 65.334638 
L 260.53071 65.884741 
L 267.745256 66.63488 
L 274.959801 67.58767 
L 282.174347 68.759689 
L 289.388892 70.135543 
L 296.603438 71.745746 
L 303.817983 73.578308 
L 311.032528 75.646632 
L 318.912655 78.199219 
L 326.326463 80.887219 
L 333.042737 83.575219 
L 339.89071 86.586734 
L 347.105256 90.077851 
L 354.319801 93.912883 
L 359.676999 97.015219 
L 365.141619 100.412735 
L 372.0387 105.079219 
L 375.963438 107.945677 
L 382.546147 113.143219 
L 386.785256 116.779271 
L 391.587438 121.207219 
L 396.930198 126.583219 
L 401.214347 131.304725 
L 404.821619 135.616473 
L 408.428892 140.284842 
L 412.036165 145.399926 
L 415.643438 151.084957 
L 415.643438 151.084957 
" style="fill:none;stroke:#31688e;stroke-width:1.5;"/>
   </g>
   <g id="LineCollection_7">
    <path clip-path="url(#p5db7a20323)" d="M 58.523438 126.433474 
L 63.162634 121.207219 
L 68.365248 115.831219 
L 72.952528 111.459562 
L 77.091157 107.767219 
L 83.604994 102.391219 
L 87.381619 99.492766 
L 94.617554 94.327219 
L 101.81071 89.65588 
L 107.470246 86.263219 
L 112.632528 83.363064 
L 119.847074 79.618 
L 127.061619 76.185583 
L 134.276165 73.047329 
L 141.62685 70.135219 
L 149.115771 67.447219 
L 157.474413 64.759219 
L 163.134347 63.113586 
L 170.348892 61.214494 
L 178.235574 59.383219 
L 184.777983 58.056093 
L 192.512953 56.695219 
L 199.207074 55.705255 
L 206.421619 54.820891 
L 215.127922 54.007219 
L 220.85071 53.617459 
L 228.065256 53.297186 
L 235.279801 53.159927 
L 242.494347 53.20568 
L 249.708892 53.434446 
L 259.038953 54.007219 
L 264.137983 54.448528 
L 271.352528 55.239801 
L 278.567074 56.217255 
L 285.781619 57.392974 
L 292.996165 58.766577 
L 300.21071 60.34662 
L 307.425256 62.131668 
L 316.692462 64.759219 
L 321.854347 66.383583 
L 329.068892 68.86033 
L 336.283437 71.588622 
L 343.497983 74.583329 
L 350.712528 77.860517 
L 356.836011 80.887219 
L 361.922773 83.575219 
L 368.748892 87.466576 
L 375.490576 91.639219 
L 379.57071 94.341759 
L 386.785256 99.492766 
L 390.561881 102.391219 
L 397.075718 107.767219 
L 401.214347 111.459562 
L 405.801627 115.831219 
L 411.004241 121.207219 
L 415.643438 126.433474 
L 415.643438 126.433474 
" style="fill:none;stroke:#2a788e;stroke-width:1.5;"/>
   </g>
   <g id="LineCollection_8">
    <path clip-path="url(#p5db7a20323)" d="M 58.523438 107.521397 
L 64.081362 102.391219 
L 69.345256 97.881576 
L 73.770678 94.327219 
L 80.167074 89.534244 
L 84.844182 86.263219 
L 90.988892 82.235793 
L 98.203438 77.859166 
L 105.417983 73.840488 
L 112.632528 70.132989 
L 119.847074 66.732398 
L 127.061619 63.603317 
L 134.276165 60.731136 
L 141.49071 58.102274 
L 148.705256 55.704091 
L 155.919801 53.524809 
L 164.073365 51.319219 
L 170.348892 49.798924 
L 177.563438 48.231061 
L 184.777983 46.859406 
L 191.992528 45.66925 
L 199.207074 44.668051 
L 206.421619 43.840974 
L 213.636165 43.18909 
L 220.85071 42.717886 
L 228.065256 42.41803 
L 235.279801 42.28952 
L 242.494347 42.332357 
L 249.708892 42.54654 
L 256.923438 42.93207 
L 264.137983 43.492731 
L 271.352528 44.232747 
L 278.567074 45.146885 
L 285.781619 46.23995 
L 292.996165 47.52311 
L 300.21071 48.98915 
L 310.09351 51.319219 
L 314.639801 52.518238 
L 321.854347 54.587001 
L 329.068892 56.870768 
L 336.289074 59.383219 
L 343.497983 62.130441 
L 350.712528 65.132101 
L 357.927074 68.40044 
L 365.141619 71.950917 
L 372.356165 75.806021 
L 379.57071 80.002591 
L 385.271411 83.575219 
L 390.392528 86.995074 
L 396.872809 91.639219 
L 401.214347 94.968959 
L 406.993178 99.703219 
L 412.036165 104.146449 
L 415.643438 107.521397 
L 415.643438 107.521397 
" style="fill:none;stroke:#23888e;stroke-width:1.5;"/>
   </g>
   <g id="LineCollection_9">
    <path clip-path="url(#p5db7a20323)" d="M 58.523438 91.575022 
L 65.737983 85.828036 
L 72.952528 80.552597 
L 80.454922 75.511219 
L 87.381619 71.22243 
L 94.596165 67.081213 
L 101.81071 63.258419 
L 109.739625 59.383219 
L 116.239801 56.447655 
L 123.454347 53.432158 
L 130.668892 50.652561 
L 137.883438 48.097214 
L 145.097983 45.755222 
L 153.634868 43.255219 
L 159.527074 41.688736 
L 166.741619 39.942391 
L 176.487887 37.879219 
L 181.17071 37.004581 
L 188.385256 35.800689 
L 195.599801 34.769366 
L 202.814347 33.910842 
L 210.028892 33.215845 
L 217.243438 32.684378 
L 224.457983 32.319237 
L 231.672528 32.117888 
L 238.887074 32.077619 
L 246.101619 32.198428 
L 253.726492 32.503219 
L 260.53071 32.92967 
L 267.745256 33.542902 
L 274.959801 34.319663 
L 282.174347 35.261013 
L 289.388892 36.381878 
L 297.678988 37.879219 
L 303.817983 39.141261 
L 311.032528 40.789166 
L 320.532007 43.255219 
L 325.461619 44.666963 
L 332.676165 46.902547 
L 339.89071 49.347925 
L 347.105256 52.013809 
L 354.319801 54.911655 
L 361.534347 58.053724 
L 368.748892 61.45316 
L 375.963438 65.13085 
L 383.177983 69.112569 
L 390.392528 73.415439 
L 397.792949 78.199219 
L 405.421712 83.575219 
L 412.42772 88.951219 
L 415.643438 91.575022 
L 415.643438 91.575022 
" style="fill:none;stroke:#1f988b;stroke-width:1.5;"/>
   </g>
   <g id="LineCollection_10">
    <path clip-path="url(#p5db7a20323)" d="M 58.523438 77.532284 
L 65.737983 72.363856 
L 73.165458 67.447219 
L 80.167074 63.159 
L 87.381619 59.047219 
L 94.596165 55.23631 
L 102.605895 51.319219 
L 109.025256 48.405836 
L 116.239801 45.36236 
L 123.454347 42.544398 
L 130.668892 39.941336 
L 137.883438 37.543219 
L 145.625547 35.191219 
L 155.513003 32.503219 
L 159.527074 31.512837 
L 166.961141 29.815219 
L 173.956165 28.393108 
L 181.17071 27.084455 
L 188.385256 25.950608 
L 195.599801 24.973153 
L 202.814347 24.156208 
L 210.028892 23.501068 
L 217.243438 23.000079 
L 224.457983 22.65324 
L 231.672528 22.460552 
L 238.887074 22.422014 
L 246.101619 22.537627 
L 253.316165 22.807391 
L 260.53071 23.231305 
L 267.745256 23.809369 
L 274.959801 24.543073 
L 282.174347 25.442331 
L 289.388892 26.497982 
L 296.603438 27.718628 
L 303.817983 29.107263 
L 311.032528 30.667174 
L 318.653872 32.503219 
L 328.541328 35.191219 
L 332.676165 36.422354 
L 339.89071 38.71856 
L 347.105256 41.216462 
L 354.319801 43.925858 
L 361.534347 46.857194 
L 368.748892 50.021612 
L 377.128286 54.007219 
L 383.177983 57.105228 
L 390.392528 61.066232 
L 397.607074 65.329637 
L 405.135817 70.135219 
L 412.889671 75.511219 
L 415.643438 77.532284 
L 415.643438 77.532284 
" style="fill:none;stroke:#22a884;stroke-width:1.5;"/>
   </g>
   <g id="LineCollection_11">
    <path clip-path="url(#p5db7a20323)" d="M 58.523438 64.828294 
L 62.666634 62.071219 
L 69.345256 57.861894 
L 76.559801 53.612883 
L 83.774347 49.660588 
L 91.045819 45.943219 
L 98.203438 42.543327 
L 105.417983 39.349976 
L 112.632528 36.379803 
L 119.847074 33.622623 
L 127.061619 31.068864 
L 134.276165 28.709518 
L 141.49071 26.536103 
L 149.100741 24.439219 
L 155.919801 22.729352 
L 163.134347 21.081831 
L 173.180852 19.063219 
L 181.17071 17.681989 
L 190.0172 16.375219 
L 199.207074 15.262378 
L 210.028892 14.264769 
L 219.141765 13.687219 
L 228.065256 13.345752 
L 238.887074 13.236409 
L 249.708892 13.455094 
L 256.923438 13.784439 
L 267.745256 14.560357 
L 278.567074 15.668811 
L 285.781619 16.59555 
L 292.996165 17.681989 
L 300.986023 19.063219 
L 307.425256 20.321972 
L 314.639801 21.881524 
L 325.066134 24.439219 
L 329.068892 25.51955 
L 336.283437 27.598611 
L 343.497983 29.860774 
L 351.233187 32.503219 
L 358.496678 35.191219 
L 365.25372 37.879219 
L 372.356165 40.915534 
L 379.57071 44.229483 
L 386.785256 47.785273 
L 393.999801 51.599743 
L 401.214347 55.700601 
L 408.428892 60.100722 
L 415.643438 64.828294 
L 415.643438 64.828294 
" style="fill:none;stroke:#35b779;stroke-width:1.5;"/>
   </g>
   <g id="LineCollection_12">
    <path clip-path="url(#p5db7a20323)" d="M 58.523438 53.154208 
L 61.475972 51.319219 
L 62.13071 50.919112 
L 65.737983 48.759714 
L 65.957202 48.631219 
L 69.345256 46.677994 
L 70.647501 45.943219 
L 72.952528 44.663698 
L 75.546258 43.255219 
L 76.559801 42.713603 
L 80.167074 40.82879 
L 80.679328 40.567219 
L 83.774347 39.011605 
L 86.080961 37.879219 
L 87.381619 37.250548 
L 90.988892 35.548494 
L 91.765019 35.191219 
L 94.596165 33.907775 
L 97.773918 32.503219 
L 98.203438 32.316217 
L 101.81071 30.785969 
L 104.160922 29.815219 
L 105.417983 29.303656 
L 109.025256 27.875346 
L 110.968674 27.127219 
L 112.632528 26.496027 
L 116.239801 25.166689 
L 118.273674 24.439219 
L 119.847074 23.884518 
L 123.454347 22.651313 
L 126.172165 21.751219 
L 127.061619 21.46081 
L 130.668892 20.321022 
L 134.276165 19.219227 
L 134.805178 19.063219 
L 137.883438 18.168077 
L 141.49071 17.156565 
L 144.384333 16.375219 
L 145.097983 16.185165 
L 148.705256 15.261454 
L 152.312528 14.374691 
L 155.230694 13.687219 
L 155.919801 13.527078 
L 159.527074 12.725234 
L 163.134347 11.959837 
L 166.741619 11.230888 
L 167.948394 10.999219 
" style="fill:none;stroke:#54c568;stroke-width:1.5;"/>
    <path clip-path="url(#p5db7a20323)" d="M 306.218481 10.999219 
L 307.425256 11.230888 
L 311.032528 11.959837 
L 314.639801 12.725234 
L 318.247074 13.527078 
L 318.936181 13.687219 
L 321.854347 14.374691 
L 325.461619 15.261454 
L 329.068892 16.185165 
L 329.782542 16.375219 
L 332.676165 17.156565 
L 336.283437 18.168077 
L 339.361697 19.063219 
L 339.89071 19.219227 
L 343.497983 20.321022 
L 347.105256 21.46081 
L 347.99471 21.751219 
L 350.712528 22.651313 
L 354.319801 23.884518 
L 355.893201 24.439219 
L 357.927074 25.166689 
L 361.534347 26.496027 
L 363.198201 27.127219 
L 365.141619 27.875346 
L 368.748892 29.303656 
L 370.005953 29.815219 
L 372.356165 30.785969 
L 375.963438 32.316217 
L 376.392957 32.503219 
L 379.57071 33.907775 
L 382.401856 35.191219 
L 383.177983 35.548494 
L 386.785256 37.250548 
L 388.085914 37.879219 
L 390.392528 39.011605 
L 393.487547 40.567219 
L 393.999801 40.82879 
L 397.607074 42.713603 
L 398.620617 43.255219 
L 401.214347 44.663698 
L 403.519374 45.943219 
L 404.821619 46.677994 
L 408.209673 48.631219 
L 408.428892 48.759714 
L 412.036165 50.919112 
L 412.690903 51.319219 
L 415.643438 53.154208 
" style="fill:none;stroke:#54c568;stroke-width:1.5;"/>
   </g>
   <g id="LineCollection_13">
    <path clip-path="url(#p5db7a20323)" d="M 58.523438 42.284165 
L 61.474131 40.567219 
L 62.13071 40.191162 
L 65.737983 38.167256 
L 66.262285 37.879219 
L 69.345256 36.211673 
L 71.272892 35.191219 
L 72.952528 34.315575 
L 76.506193 32.503219 
L 76.559801 32.476288 
L 80.167074 30.704423 
L 82.019471 29.815219 
L 83.774347 28.985262 
L 87.381619 27.3189 
L 87.806684 27.127219 
L 90.988892 25.713086 
L 93.927128 24.439219 
L 94.596165 24.153318 
L 98.203437 22.65035 
L 100.418232 21.751219 
L 101.81071 21.19391 
L 105.417983 19.788171 
L 107.329963 19.063219 
L 109.025256 18.429385 
L 112.632528 17.118165 
L 114.73655 16.375219 
L 116.239801 15.851705 
L 119.847074 14.632406 
L 122.730778 13.687219 
L 123.454347 13.453272 
L 127.061619 12.3234 
L 130.668892 11.229977 
L 131.456428 10.999219 
" style="fill:none;stroke:#7ad151;stroke-width:1.5;"/>
    <path clip-path="url(#p5db7a20323)" d="M 342.710447 10.999219 
L 343.497983 11.229977 
L 347.105256 12.3234 
L 350.712528 13.453272 
L 351.436097 13.687219 
L 354.319801 14.632406 
L 357.927074 15.851705 
L 359.430325 16.375219 
L 361.534347 17.118165 
L 365.141619 18.429385 
L 366.836912 19.063219 
L 368.748892 19.788171 
L 372.356165 21.19391 
L 373.748643 21.751219 
L 375.963438 22.65035 
L 379.57071 24.153318 
L 380.239747 24.439219 
L 383.177983 25.713086 
L 386.360191 27.127219 
L 386.785256 27.3189 
L 390.392528 28.985262 
L 392.147404 29.815219 
L 393.999801 30.704423 
L 397.607074 32.476288 
L 397.660682 32.503219 
L 401.214347 34.315575 
L 402.893983 35.191219 
L 404.821619 36.211673 
L 407.90459 37.879219 
L 408.428892 38.167256 
L 412.036165 40.191162 
L 412.692744 40.567219 
L 415.643438 42.284165 
" style="fill:none;stroke:#7ad151;stroke-width:1.5;"/>
   </g>
   <g id="LineCollection_14">
    <path clip-path="url(#p5db7a20323)" d="M 58.523438 32.072585 
L 62.13071 30.099372 
L 62.660998 29.815219 
L 65.737983 28.190764 
L 67.795376 27.127219 
L 69.345256 26.33768 
L 72.952528 24.539163 
L 73.157442 24.439219 
L 76.559801 22.803537 
L 78.798462 21.751219 
L 80.167074 21.116974 
L 83.774347 19.483278 
L 84.72394 19.063219 
L 87.381619 17.90396 
L 90.971845 16.375219 
L 90.988892 16.36806 
L 94.596165 14.890122 
L 97.607428 13.687219 
L 98.203438 13.45236 
L 101.81071 12.067357 
L 104.66789 10.999219 
" style="fill:none;stroke:#a5db36;stroke-width:1.5;"/>
    <path clip-path="url(#p5db7a20323)" d="M 369.498985 10.999219 
L 372.356165 12.067357 
L 375.963438 13.45236 
L 376.559447 13.687219 
L 379.57071 14.890122 
L 383.177983 16.36806 
L 383.19503 16.375219 
L 386.785256 17.90396 
L 389.442935 19.063219 
L 390.392528 19.483278 
L 393.999801 21.116974 
L 395.368413 21.751219 
L 397.607074 22.803537 
L 401.009433 24.439219 
L 401.214347 24.539163 
L 404.821619 26.33768 
L 406.371499 27.127219 
L 408.428892 28.190764 
L 411.505877 29.815219 
L 412.036165 30.099372 
L 415.643438 32.072585 
" style="fill:none;stroke:#a5db36;stroke-width:1.5;"/>
   </g>
   <g id="LineCollection_15">
    <path clip-path="url(#p5db7a20323)" d="M 58.523438 22.417197 
L 59.795645 21.751219 
L 62.13071 20.54613 
L 65.063968 19.063219 
L 65.737983 18.727219 
L 69.345256 16.966438 
L 70.582805 16.375219 
L 72.952528 15.258683 
L 76.361902 13.687219 
L 76.559801 13.597239 
L 80.167074 11.993551 
L 82.4557 10.999219 
" style="fill:none;stroke:#d2e21b;stroke-width:1.5;"/>
    <path clip-path="url(#p5db7a20323)" d="M 391.711175 10.999219 
L 393.999801 11.993551 
L 397.607074 13.597239 
L 397.804973 13.687219 
L 401.214347 15.258683 
L 403.58407 16.375219 
L 404.821619 16.966438 
L 408.428892 18.727219 
L 409.102907 19.063219 
L 412.036165 20.54613 
L 414.37123 21.751219 
L 415.643438 22.417197 
" style="fill:none;stroke:#d2e21b;stroke-width:1.5;"/>
   </g>
   <g id="LineCollection_16">
    <path clip-path="url(#p5db7a20323)" d="M 58.523438 13.231853 
L 62.13071 11.445928 
L 63.051786 10.999219 
" style="fill:none;stroke:#fde725;stroke-width:1.5;"/>
    <path clip-path="url(#p5db7a20323)" d="M 411.115089 10.999219 
L 412.036165 11.445928 
L 415.643438 13.231853 
" style="fill:none;stroke:#fde725;stroke-width:1.5;"/>
   </g>
   <g id="line2d_19">
    <path clip-path="url(#p5db7a20323)" d="M -1 77.527219 
L 434.97625 77.527219 
" style="fill:none;stroke:#ff0000;stroke-linecap:square;stroke-width:2;"/>
   </g>
   <g id="line2d_20">
    <defs>
     <path d="M 0 -3 
L -0.673542 -0.927051 
L -2.85317 -0.927051 
L -1.089814 0.354102 
L -1.763356 2.427051 
L -0 1.145898 
L 1.763356 2.427051 
L 1.089814 0.354102 
L 2.85317 -0.927051 
L 0.673542 -0.927051 
z
" id="m46960c4336" style="stroke:#0000ff;stroke-linejoin:bevel;"/>
    </defs>
    <g clip-path="url(#p5db7a20323)">
     <use style="fill:#0000ff;stroke:#0000ff;stroke-linejoin:bevel;" x="237.083437" xlink:href="#m46960c4336" y="144.055219"/>
     <use style="fill:#0000ff;stroke:#0000ff;stroke-linejoin:bevel;" x="237.083436" xlink:href="#m46960c4336" y="121.87922"/>
     <use style="fill:#0000ff;stroke:#0000ff;stroke-linejoin:bevel;" x="237.083435" xlink:href="#m46960c4336" y="104.13842"/>
     <use style="fill:#0000ff;stroke:#0000ff;stroke-linejoin:bevel;" x="237.083435" xlink:href="#m46960c4336" y="92.31122"/>
     <use style="fill:#0000ff;stroke:#0000ff;stroke-linejoin:bevel;" x="237.083435" xlink:href="#m46960c4336" y="85.354043"/>
     <use style="fill:#0000ff;stroke:#0000ff;stroke-linejoin:bevel;" x="237.083435" xlink:href="#m46960c4336" y="81.55922"/>
     <use style="fill:#0000ff;stroke:#0000ff;stroke-linejoin:bevel;" x="237.083435" xlink:href="#m46960c4336" y="79.574235"/>
     <use style="fill:#0000ff;stroke:#0000ff;stroke-linejoin:bevel;" x="237.083435" xlink:href="#m46960c4336" y="78.558662"/>
     <use style="fill:#0000ff;stroke:#0000ff;stroke-linejoin:bevel;" x="237.083435" xlink:href="#m46960c4336" y="78.044947"/>
     <use style="fill:#0000ff;stroke:#0000ff;stroke-linejoin:bevel;" x="237.083435" xlink:href="#m46960c4336" y="77.786588"/>
    </g>
   </g>
   <g id="line2d_21">
    <defs>
     <path d="M 0 3 
C 0.795609 3 1.55874 2.683901 2.12132 2.12132 
C 2.683901 1.55874 3 0.795609 3 0 
C 3 -0.795609 2.683901 -1.55874 2.12132 -2.12132 
C 1.55874 -2.683901 0.795609 -3 0 -3 
C -0.795609 -3 -1.55874 -2.683901 -2.12132 -2.12132 
C -2.683901 -1.55874 -3 -0.795609 -3 0 
C -3 0.795609 -2.683901 1.55874 -2.12132 2.12132 
C -1.55874 2.683901 -0.795609 3 0 3 
z
" id="m75905b3f76" style="stroke:#ff0000;"/>
    </defs>
    <g clip-path="url(#p5db7a20323)">
     <use style="fill:#ff0000;stroke:#ff0000;" x="237.083438" xlink:href="#m75905b3f76" y="77.527219"/>
    </g>
   </g>
   <g id="line2d_22">
    <defs>
     <path d="M 0 3 
C 0.795609 3 1.55874 2.683901 2.12132 2.12132 
C 2.683901 1.55874 3 0.795609 3 0 
C 3 -0.795609 2.683901 -1.55874 2.12132 -2.12132 
C 1.55874 -2.683901 0.795609 -3 0 -3 
C -0.795609 -3 -1.55874 -2.683901 -2.12132 -2.12132 
C -2.683901 -1.55874 -3 -0.795609 -3 0 
C -3 0.795609 -2.683901 1.55874 -2.12132 2.12132 
C -1.55874 2.683901 -0.795609 3 0 3 
z
" id="m45adfb8059" style="stroke:#0000ff;"/>
    </defs>
    <g clip-path="url(#p5db7a20323)">
     <use style="fill:#0000ff;stroke:#0000ff;" x="237.083438" xlink:href="#m45adfb8059" y="210.583219"/>
    </g>
   </g>
   <g id="patch_3">
    <path d="M 58.523438 277.111219 
L 58.523438 10.999219 
" style="fill:none;stroke:#000000;stroke-linecap:square;stroke-linejoin:miter;stroke-width:0.8;"/>
   </g>
   <g id="patch_4">
    <path d="M 415.643438 277.111219 
L 415.643438 10.999219 
" style="fill:none;stroke:#000000;stroke-linecap:square;stroke-linejoin:miter;stroke-width:0.8;"/>
   </g>
   <g id="patch_5">
    <path d="M 58.523438 277.111219 
L 415.643438 277.111219 
" style="fill:none;stroke:#000000;stroke-linecap:square;stroke-linejoin:miter;stroke-width:0.8;"/>
   </g>
   <g id="patch_6">
    <path d="M 58.523438 10.999219 
L 415.643438 10.999219 
" style="fill:none;stroke:#000000;stroke-linecap:square;stroke-linejoin:miter;stroke-width:0.8;"/>
   </g>
   <g id="legend_1">
    <g id="patch_7">
     <path d="M 294.928125 274.111219 
L 411.443438 274.111219 
Q 412.643438 274.111219 412.643438 272.911219 
L 412.643438 238.043719 
Q 412.643438 236.843719 411.443438 236.843719 
L 294.928125 236.843719 
Q 293.728125 236.843719 293.728125 238.043719 
L 293.728125 272.911219 
Q 293.728125 274.111219 294.928125 274.111219 
z
" style="fill:#ffffff;opacity:0.8;stroke:#cccccc;stroke-linejoin:miter;"/>
    </g>
    <g id="line2d_23">
     <path d="M 296.128125 241.942781 
L 308.128125 241.942781 
" style="fill:none;stroke:#ff0000;stroke-linecap:square;stroke-width:2;"/>
    </g>
    <g id="line2d_24"/>
    <g id="text_21">
     <!-- Zbiór rozwiązań dopuszczalnych -->
     <defs>
      <path d="M 5.609375 72.90625 
L 62.890625 72.90625 
L 62.890625 65.375 
L 16.796875 8.296875 
L 64.015625 8.296875 
L 64.015625 0 
L 4.5 0 
L 4.5 7.515625 
L 50.59375 64.59375 
L 5.609375 64.59375 
z
" id="DejaVuSans-5a"/>
      <path d="M 48.6875 27.296875 
Q 48.6875 37.203125 44.609375 42.84375 
Q 40.53125 48.484375 33.40625 48.484375 
Q 26.265625 48.484375 22.1875 42.84375 
Q 18.109375 37.203125 18.109375 27.296875 
Q 18.109375 17.390625 22.1875 11.75 
Q 26.265625 6.109375 33.40625 6.109375 
Q 40.53125 6.109375 44.609375 11.75 
Q 48.6875 17.390625 48.6875 27.296875 
M 18.109375 46.390625 
Q 20.953125 51.265625 25.265625 53.625 
Q 29.59375 56 35.59375 56 
Q 45.5625 56 51.78125 48.09375 
Q 58.015625 40.1875 58.015625 27.296875 
Q 58.015625 14.40625 51.78125 6.484375 
Q 45.5625 -1.421875 35.59375 -1.421875 
Q 29.59375 -1.421875 25.265625 0.953125 
Q 20.953125 3.328125 18.109375 8.203125 
L 18.109375 0 
L 9.078125 0 
L 9.078125 75.984375 
L 18.109375 75.984375 
z
" id="DejaVuSans-62"/>
      <path d="M 9.421875 54.6875 
L 18.40625 54.6875 
L 18.40625 0 
L 9.421875 0 
z
M 9.421875 75.984375 
L 18.40625 75.984375 
L 18.40625 64.59375 
L 9.421875 64.59375 
z
" id="DejaVuSans-69"/>
      <path d="M 30.609375 48.390625 
Q 23.390625 48.390625 19.1875 42.75 
Q 14.984375 37.109375 14.984375 27.296875 
Q 14.984375 17.484375 19.15625 11.84375 
Q 23.34375 6.203125 30.609375 6.203125 
Q 37.796875 6.203125 41.984375 11.859375 
Q 46.1875 17.53125 46.1875 27.296875 
Q 46.1875 37.015625 41.984375 42.703125 
Q 37.796875 48.390625 30.609375 48.390625 
M 30.609375 56 
Q 42.328125 56 49.015625 48.375 
Q 55.71875 40.765625 55.71875 27.296875 
Q 55.71875 13.875 49.015625 6.21875 
Q 42.328125 -1.421875 30.609375 -1.421875 
Q 18.84375 -1.421875 12.171875 6.21875 
Q 5.515625 13.875 5.515625 27.296875 
Q 5.515625 40.765625 12.171875 48.375 
Q 18.84375 56 30.609375 56 
M 37.40625 79.984375 
L 47.125 79.984375 
L 31.21875 61.625 
L 23.734375 61.625 
z
" id="DejaVuSans-f3"/>
      <path d="M 41.109375 46.296875 
Q 39.59375 47.171875 37.8125 47.578125 
Q 36.03125 48 33.890625 48 
Q 26.265625 48 22.1875 43.046875 
Q 18.109375 38.09375 18.109375 28.8125 
L 18.109375 0 
L 9.078125 0 
L 9.078125 54.6875 
L 18.109375 54.6875 
L 18.109375 46.1875 
Q 20.953125 51.171875 25.484375 53.578125 
Q 30.03125 56 36.53125 56 
Q 37.453125 56 38.578125 55.875 
Q 39.703125 55.765625 41.0625 55.515625 
z
" id="DejaVuSans-72"/>
      <path id="DejaVuSans-20"/>
      <path d="M 30.609375 48.390625 
Q 23.390625 48.390625 19.1875 42.75 
Q 14.984375 37.109375 14.984375 27.296875 
Q 14.984375 17.484375 19.15625 11.84375 
Q 23.34375 6.203125 30.609375 6.203125 
Q 37.796875 6.203125 41.984375 11.859375 
Q 46.1875 17.53125 46.1875 27.296875 
Q 46.1875 37.015625 41.984375 42.703125 
Q 37.796875 48.390625 30.609375 48.390625 
M 30.609375 56 
Q 42.328125 56 49.015625 48.375 
Q 55.71875 40.765625 55.71875 27.296875 
Q 55.71875 13.875 49.015625 6.21875 
Q 42.328125 -1.421875 30.609375 -1.421875 
Q 18.84375 -1.421875 12.171875 6.21875 
Q 5.515625 13.875 5.515625 27.296875 
Q 5.515625 40.765625 12.171875 48.375 
Q 18.84375 56 30.609375 56 
" id="DejaVuSans-6f"/>
      <path d="M 5.515625 54.6875 
L 48.1875 54.6875 
L 48.1875 46.484375 
L 14.40625 7.171875 
L 48.1875 7.171875 
L 48.1875 0 
L 4.296875 0 
L 4.296875 8.203125 
L 38.09375 47.515625 
L 5.515625 47.515625 
z
" id="DejaVuSans-7a"/>
      <path d="M 4.203125 54.6875 
L 13.1875 54.6875 
L 24.421875 12.015625 
L 35.59375 54.6875 
L 46.1875 54.6875 
L 57.421875 12.015625 
L 68.609375 54.6875 
L 77.59375 54.6875 
L 63.28125 0 
L 52.6875 0 
L 40.921875 44.828125 
L 29.109375 0 
L 18.5 0 
z
" id="DejaVuSans-77"/>
      <path d="M 34.28125 27.484375 
Q 23.390625 27.484375 19.1875 25 
Q 14.984375 22.515625 14.984375 16.5 
Q 14.984375 11.71875 18.140625 8.90625 
Q 21.296875 6.109375 26.703125 6.109375 
Q 34.1875 6.109375 38.703125 11.40625 
Q 43.21875 16.703125 43.21875 25.484375 
L 43.21875 27.484375 
z
M 52.203125 31.203125 
L 52.203125 0 
L 43.21875 0 
L 43.21875 8.296875 
Q 40.140625 3.328125 35.546875 0.953125 
Q 30.953125 -1.421875 24.3125 -1.421875 
Q 15.921875 -1.421875 10.953125 3.296875 
Q 6 8.015625 6 15.921875 
Q 6 25.140625 12.171875 29.828125 
Q 18.359375 34.515625 30.609375 34.515625 
L 43.21875 34.515625 
L 43.21875 35.40625 
Q 43.21875 41.609375 39.140625 45 
Q 35.0625 48.390625 27.6875 48.390625 
Q 23 48.390625 18.546875 47.265625 
Q 14.109375 46.140625 10.015625 43.890625 
L 10.015625 52.203125 
Q 14.9375 54.109375 19.578125 55.046875 
Q 24.21875 56 28.609375 56 
Q 40.484375 56 46.34375 49.84375 
Q 52.203125 43.703125 52.203125 31.203125 
M 43.359375 0 
L 49.171875 0 
Q 46.96875 -2.984375 45.921875 -5.125 
Q 44.875 -7.28125 44.875 -8.796875 
Q 44.875 -11.03125 46.21875 -12.15625 
Q 47.5625 -13.28125 50.203125 -13.28125 
Q 51.765625 -13.28125 53.265625 -12.90625 
Q 54.78125 -12.546875 56.296875 -11.8125 
L 56.296875 -18.3125 
Q 54.4375 -18.796875 52.78125 -19.03125 
Q 51.125 -19.28125 49.65625 -19.28125 
Q 43.703125 -19.28125 40.890625 -17.15625 
Q 38.09375 -15.046875 38.09375 -10.5 
Q 38.09375 -8.15625 39.375 -5.59375 
Q 40.671875 -3.03125 43.359375 0 
" id="DejaVuSans-105"/>
      <path d="M 34.28125 27.484375 
Q 23.390625 27.484375 19.1875 25 
Q 14.984375 22.515625 14.984375 16.5 
Q 14.984375 11.71875 18.140625 8.90625 
Q 21.296875 6.109375 26.703125 6.109375 
Q 34.1875 6.109375 38.703125 11.40625 
Q 43.21875 16.703125 43.21875 25.484375 
L 43.21875 27.484375 
z
M 52.203125 31.203125 
L 52.203125 0 
L 43.21875 0 
L 43.21875 8.296875 
Q 40.140625 3.328125 35.546875 0.953125 
Q 30.953125 -1.421875 24.3125 -1.421875 
Q 15.921875 -1.421875 10.953125 3.296875 
Q 6 8.015625 6 15.921875 
Q 6 25.140625 12.171875 29.828125 
Q 18.359375 34.515625 30.609375 34.515625 
L 43.21875 34.515625 
L 43.21875 35.40625 
Q 43.21875 41.609375 39.140625 45 
Q 35.0625 48.390625 27.6875 48.390625 
Q 23 48.390625 18.546875 47.265625 
Q 14.109375 46.140625 10.015625 43.890625 
L 10.015625 52.203125 
Q 14.9375 54.109375 19.578125 55.046875 
Q 24.21875 56 28.609375 56 
Q 40.484375 56 46.34375 49.84375 
Q 52.203125 43.703125 52.203125 31.203125 
" id="DejaVuSans-61"/>
      <path d="M 35.03125 79.984375 
L 44.75 79.984375 
L 28.84375 61.625 
L 21.359375 61.625 
z
M 54.890625 33.015625 
L 54.890625 0 
L 45.90625 0 
L 45.90625 32.71875 
Q 45.90625 40.484375 42.875 44.328125 
Q 39.84375 48.1875 33.796875 48.1875 
Q 26.515625 48.1875 22.3125 43.546875 
Q 18.109375 38.921875 18.109375 30.90625 
L 18.109375 0 
L 9.078125 0 
L 9.078125 54.6875 
L 18.109375 54.6875 
L 18.109375 46.1875 
Q 21.34375 51.125 25.703125 53.5625 
Q 30.078125 56 35.796875 56 
Q 45.21875 56 50.046875 50.171875 
Q 54.890625 44.34375 54.890625 33.015625 
" id="DejaVuSans-144"/>
      <path d="M 45.40625 46.390625 
L 45.40625 75.984375 
L 54.390625 75.984375 
L 54.390625 0 
L 45.40625 0 
L 45.40625 8.203125 
Q 42.578125 3.328125 38.25 0.953125 
Q 33.9375 -1.421875 27.875 -1.421875 
Q 17.96875 -1.421875 11.734375 6.484375 
Q 5.515625 14.40625 5.515625 27.296875 
Q 5.515625 40.1875 11.734375 48.09375 
Q 17.96875 56 27.875 56 
Q 33.9375 56 38.25 53.625 
Q 42.578125 51.265625 45.40625 46.390625 
M 14.796875 27.296875 
Q 14.796875 17.390625 18.875 11.75 
Q 22.953125 6.109375 30.078125 6.109375 
Q 37.203125 6.109375 41.296875 11.75 
Q 45.40625 17.390625 45.40625 27.296875 
Q 45.40625 37.203125 41.296875 42.84375 
Q 37.203125 48.484375 30.078125 48.484375 
Q 22.953125 48.484375 18.875 42.84375 
Q 14.796875 37.203125 14.796875 27.296875 
" id="DejaVuSans-64"/>
      <path d="M 18.109375 8.203125 
L 18.109375 -20.796875 
L 9.078125 -20.796875 
L 9.078125 54.6875 
L 18.109375 54.6875 
L 18.109375 46.390625 
Q 20.953125 51.265625 25.265625 53.625 
Q 29.59375 56 35.59375 56 
Q 45.5625 56 51.78125 48.09375 
Q 58.015625 40.1875 58.015625 27.296875 
Q 58.015625 14.40625 51.78125 6.484375 
Q 45.5625 -1.421875 35.59375 -1.421875 
Q 29.59375 -1.421875 25.265625 0.953125 
Q 20.953125 3.328125 18.109375 8.203125 
M 48.6875 27.296875 
Q 48.6875 37.203125 44.609375 42.84375 
Q 40.53125 48.484375 33.40625 48.484375 
Q 26.265625 48.484375 22.1875 42.84375 
Q 18.109375 37.203125 18.109375 27.296875 
Q 18.109375 17.390625 22.1875 11.75 
Q 26.265625 6.109375 33.40625 6.109375 
Q 40.53125 6.109375 44.609375 11.75 
Q 48.6875 17.390625 48.6875 27.296875 
" id="DejaVuSans-70"/>
      <path d="M 8.5 21.578125 
L 8.5 54.6875 
L 17.484375 54.6875 
L 17.484375 21.921875 
Q 17.484375 14.15625 20.5 10.265625 
Q 23.53125 6.390625 29.59375 6.390625 
Q 36.859375 6.390625 41.078125 11.03125 
Q 45.3125 15.671875 45.3125 23.6875 
L 45.3125 54.6875 
L 54.296875 54.6875 
L 54.296875 0 
L 45.3125 0 
L 45.3125 8.40625 
Q 42.046875 3.421875 37.71875 1 
Q 33.40625 -1.421875 27.6875 -1.421875 
Q 18.265625 -1.421875 13.375 4.4375 
Q 8.5 10.296875 8.5 21.578125 
M 31.109375 56 
z
" id="DejaVuSans-75"/>
      <path d="M 44.28125 53.078125 
L 44.28125 44.578125 
Q 40.484375 46.53125 36.375 47.5 
Q 32.28125 48.484375 27.875 48.484375 
Q 21.1875 48.484375 17.84375 46.4375 
Q 14.5 44.390625 14.5 40.28125 
Q 14.5 37.15625 16.890625 35.375 
Q 19.28125 33.59375 26.515625 31.984375 
L 29.59375 31.296875 
Q 39.15625 29.25 43.1875 25.515625 
Q 47.21875 21.78125 47.21875 15.09375 
Q 47.21875 7.46875 41.1875 3.015625 
Q 35.15625 -1.421875 24.609375 -1.421875 
Q 20.21875 -1.421875 15.453125 -0.5625 
Q 10.6875 0.296875 5.421875 2 
L 5.421875 11.28125 
Q 10.40625 8.6875 15.234375 7.390625 
Q 20.0625 6.109375 24.8125 6.109375 
Q 31.15625 6.109375 34.5625 8.28125 
Q 37.984375 10.453125 37.984375 14.40625 
Q 37.984375 18.0625 35.515625 20.015625 
Q 33.0625 21.96875 24.703125 23.78125 
L 21.578125 24.515625 
Q 13.234375 26.265625 9.515625 29.90625 
Q 5.8125 33.546875 5.8125 39.890625 
Q 5.8125 47.609375 11.28125 51.796875 
Q 16.75 56 26.8125 56 
Q 31.78125 56 36.171875 55.265625 
Q 40.578125 54.546875 44.28125 53.078125 
" id="DejaVuSans-73"/>
      <path d="M 48.78125 52.59375 
L 48.78125 44.1875 
Q 44.96875 46.296875 41.140625 47.34375 
Q 37.3125 48.390625 33.40625 48.390625 
Q 24.65625 48.390625 19.8125 42.84375 
Q 14.984375 37.3125 14.984375 27.296875 
Q 14.984375 17.28125 19.8125 11.734375 
Q 24.65625 6.203125 33.40625 6.203125 
Q 37.3125 6.203125 41.140625 7.25 
Q 44.96875 8.296875 48.78125 10.40625 
L 48.78125 2.09375 
Q 45.015625 0.34375 40.984375 -0.53125 
Q 36.96875 -1.421875 32.421875 -1.421875 
Q 20.0625 -1.421875 12.78125 6.34375 
Q 5.515625 14.109375 5.515625 27.296875 
Q 5.515625 40.671875 12.859375 48.328125 
Q 20.21875 56 33.015625 56 
Q 37.15625 56 41.109375 55.140625 
Q 45.0625 54.296875 48.78125 52.59375 
" id="DejaVuSans-63"/>
      <path d="M 9.421875 75.984375 
L 18.40625 75.984375 
L 18.40625 0 
L 9.421875 0 
z
" id="DejaVuSans-6c"/>
      <path d="M 54.890625 33.015625 
L 54.890625 0 
L 45.90625 0 
L 45.90625 32.71875 
Q 45.90625 40.484375 42.875 44.328125 
Q 39.84375 48.1875 33.796875 48.1875 
Q 26.515625 48.1875 22.3125 43.546875 
Q 18.109375 38.921875 18.109375 30.90625 
L 18.109375 0 
L 9.078125 0 
L 9.078125 54.6875 
L 18.109375 54.6875 
L 18.109375 46.1875 
Q 21.34375 51.125 25.703125 53.5625 
Q 30.078125 56 35.796875 56 
Q 45.21875 56 50.046875 50.171875 
Q 54.890625 44.34375 54.890625 33.015625 
" id="DejaVuSans-6e"/>
      <path d="M 32.171875 -5.078125 
Q 28.375 -14.84375 24.75 -17.8125 
Q 21.140625 -20.796875 15.09375 -20.796875 
L 7.90625 -20.796875 
L 7.90625 -13.28125 
L 13.1875 -13.28125 
Q 16.890625 -13.28125 18.9375 -11.515625 
Q 21 -9.765625 23.484375 -3.21875 
L 25.09375 0.875 
L 2.984375 54.6875 
L 12.5 54.6875 
L 29.59375 11.921875 
L 46.6875 54.6875 
L 56.203125 54.6875 
z
" id="DejaVuSans-79"/>
      <path d="M 54.890625 33.015625 
L 54.890625 0 
L 45.90625 0 
L 45.90625 32.71875 
Q 45.90625 40.484375 42.875 44.328125 
Q 39.84375 48.1875 33.796875 48.1875 
Q 26.515625 48.1875 22.3125 43.546875 
Q 18.109375 38.921875 18.109375 30.90625 
L 18.109375 0 
L 9.078125 0 
L 9.078125 75.984375 
L 18.109375 75.984375 
L 18.109375 46.1875 
Q 21.34375 51.125 25.703125 53.5625 
Q 30.078125 56 35.796875 56 
Q 45.21875 56 50.046875 50.171875 
Q 54.890625 44.34375 54.890625 33.015625 
" id="DejaVuSans-68"/>
     </defs>
     <g transform="translate(312.928125 244.042781)scale(0.06 -0.06)">
      <use xlink:href="#DejaVuSans-5a"/>
      <use x="68.505859" xlink:href="#DejaVuSans-62"/>
      <use x="131.982422" xlink:href="#DejaVuSans-69"/>
      <use x="159.765625" xlink:href="#DejaVuSans-f3"/>
      <use x="220.947266" xlink:href="#DejaVuSans-72"/>
      <use x="262.060547" xlink:href="#DejaVuSans-20"/>
      <use x="293.847656" xlink:href="#DejaVuSans-72"/>
      <use x="334.929688" xlink:href="#DejaVuSans-6f"/>
      <use x="396.111328" xlink:href="#DejaVuSans-7a"/>
      <use x="448.601562" xlink:href="#DejaVuSans-77"/>
      <use x="530.388672" xlink:href="#DejaVuSans-69"/>
      <use x="558.171875" xlink:href="#DejaVuSans-105"/>
      <use x="619.451172" xlink:href="#DejaVuSans-7a"/>
      <use x="671.941406" xlink:href="#DejaVuSans-61"/>
      <use x="733.220703" xlink:href="#DejaVuSans-144"/>
      <use x="796.599609" xlink:href="#DejaVuSans-20"/>
      <use x="828.386719" xlink:href="#DejaVuSans-64"/>
      <use x="891.863281" xlink:href="#DejaVuSans-6f"/>
      <use x="953.044922" xlink:href="#DejaVuSans-70"/>
      <use x="1016.521484" xlink:href="#DejaVuSans-75"/>
      <use x="1079.900391" xlink:href="#DejaVuSans-73"/>
      <use x="1132" xlink:href="#DejaVuSans-7a"/>
      <use x="1184.490234" xlink:href="#DejaVuSans-63"/>
      <use x="1239.470703" xlink:href="#DejaVuSans-7a"/>
      <use x="1291.960938" xlink:href="#DejaVuSans-61"/>
      <use x="1353.240234" xlink:href="#DejaVuSans-6c"/>
      <use x="1381.023438" xlink:href="#DejaVuSans-6e"/>
      <use x="1444.402344" xlink:href="#DejaVuSans-79"/>
      <use x="1503.582031" xlink:href="#DejaVuSans-63"/>
      <use x="1558.5625" xlink:href="#DejaVuSans-68"/>
     </g>
    </g>
    <g id="line2d_25"/>
    <g id="line2d_26">
     <g>
      <use style="fill:#0000ff;stroke:#0000ff;stroke-linejoin:bevel;" x="302.128125" xlink:href="#m46960c4336" y="250.749656"/>
     </g>
    </g>
    <g id="text_22">
     <!-- Uzyskane punkty -->
     <defs>
      <path d="M 8.6875 72.90625 
L 18.609375 72.90625 
L 18.609375 28.609375 
Q 18.609375 16.890625 22.84375 11.734375 
Q 27.09375 6.59375 36.625 6.59375 
Q 46.09375 6.59375 50.34375 11.734375 
Q 54.59375 16.890625 54.59375 28.609375 
L 54.59375 72.90625 
L 64.5 72.90625 
L 64.5 27.390625 
Q 64.5 13.140625 57.4375 5.859375 
Q 50.390625 -1.421875 36.625 -1.421875 
Q 22.796875 -1.421875 15.734375 5.859375 
Q 8.6875 13.140625 8.6875 27.390625 
z
" id="DejaVuSans-55"/>
      <path d="M 9.078125 75.984375 
L 18.109375 75.984375 
L 18.109375 31.109375 
L 44.921875 54.6875 
L 56.390625 54.6875 
L 27.390625 29.109375 
L 57.625 0 
L 45.90625 0 
L 18.109375 26.703125 
L 18.109375 0 
L 9.078125 0 
z
" id="DejaVuSans-6b"/>
      <path d="M 56.203125 29.59375 
L 56.203125 25.203125 
L 14.890625 25.203125 
Q 15.484375 15.921875 20.484375 11.0625 
Q 25.484375 6.203125 34.421875 6.203125 
Q 39.59375 6.203125 44.453125 7.46875 
Q 49.3125 8.734375 54.109375 11.28125 
L 54.109375 2.78125 
Q 49.265625 0.734375 44.1875 -0.34375 
Q 39.109375 -1.421875 33.890625 -1.421875 
Q 20.796875 -1.421875 13.15625 6.1875 
Q 5.515625 13.8125 5.515625 26.8125 
Q 5.515625 40.234375 12.765625 48.109375 
Q 20.015625 56 32.328125 56 
Q 43.359375 56 49.78125 48.890625 
Q 56.203125 41.796875 56.203125 29.59375 
M 47.21875 32.234375 
Q 47.125 39.59375 43.09375 43.984375 
Q 39.0625 48.390625 32.421875 48.390625 
Q 24.90625 48.390625 20.390625 44.140625 
Q 15.875 39.890625 15.1875 32.171875 
z
" id="DejaVuSans-65"/>
      <path d="M 18.3125 70.21875 
L 18.3125 54.6875 
L 36.8125 54.6875 
L 36.8125 47.703125 
L 18.3125 47.703125 
L 18.3125 18.015625 
Q 18.3125 11.328125 20.140625 9.421875 
Q 21.96875 7.515625 27.59375 7.515625 
L 36.8125 7.515625 
L 36.8125 0 
L 27.59375 0 
Q 17.1875 0 13.234375 3.875 
Q 9.28125 7.765625 9.28125 18.015625 
L 9.28125 47.703125 
L 2.6875 47.703125 
L 2.6875 54.6875 
L 9.28125 54.6875 
L 9.28125 70.21875 
z
" id="DejaVuSans-74"/>
     </defs>
     <g transform="translate(312.928125 252.849656)scale(0.06 -0.06)">
      <use xlink:href="#DejaVuSans-55"/>
      <use x="73.193359" xlink:href="#DejaVuSans-7a"/>
      <use x="125.683594" xlink:href="#DejaVuSans-79"/>
      <use x="184.863281" xlink:href="#DejaVuSans-73"/>
      <use x="236.962891" xlink:href="#DejaVuSans-6b"/>
      <use x="294.857422" xlink:href="#DejaVuSans-61"/>
      <use x="356.136719" xlink:href="#DejaVuSans-6e"/>
      <use x="419.515625" xlink:href="#DejaVuSans-65"/>
      <use x="481.039062" xlink:href="#DejaVuSans-20"/>
      <use x="512.826172" xlink:href="#DejaVuSans-70"/>
      <use x="576.302734" xlink:href="#DejaVuSans-75"/>
      <use x="639.681641" xlink:href="#DejaVuSans-6e"/>
      <use x="703.060547" xlink:href="#DejaVuSans-6b"/>
      <use x="760.970703" xlink:href="#DejaVuSans-74"/>
      <use x="800.179688" xlink:href="#DejaVuSans-79"/>
     </g>
    </g>
    <g id="line2d_27"/>
    <g id="line2d_28">
     <g>
      <use style="fill:#ff0000;stroke:#ff0000;" x="302.128125" xlink:href="#m75905b3f76" y="259.556531"/>
     </g>
    </g>
    <g id="text_23">
     <!-- Rozwiązanie analityczne -->
     <defs>
      <path d="M 44.390625 34.1875 
Q 47.5625 33.109375 50.5625 29.59375 
Q 53.5625 26.078125 56.59375 19.921875 
L 66.609375 0 
L 56 0 
L 46.6875 18.703125 
Q 43.0625 26.03125 39.671875 28.421875 
Q 36.28125 30.8125 30.421875 30.8125 
L 19.671875 30.8125 
L 19.671875 0 
L 9.8125 0 
L 9.8125 72.90625 
L 32.078125 72.90625 
Q 44.578125 72.90625 50.734375 67.671875 
Q 56.890625 62.453125 56.890625 51.90625 
Q 56.890625 45.015625 53.6875 40.46875 
Q 50.484375 35.9375 44.390625 34.1875 
M 19.671875 64.796875 
L 19.671875 38.921875 
L 32.078125 38.921875 
Q 39.203125 38.921875 42.84375 42.21875 
Q 46.484375 45.515625 46.484375 51.90625 
Q 46.484375 58.296875 42.84375 61.546875 
Q 39.203125 64.796875 32.078125 64.796875 
z
" id="DejaVuSans-52"/>
     </defs>
     <g transform="translate(312.928125 261.656531)scale(0.06 -0.06)">
      <use xlink:href="#DejaVuSans-52"/>
      <use x="69.419922" xlink:href="#DejaVuSans-6f"/>
      <use x="130.601562" xlink:href="#DejaVuSans-7a"/>
      <use x="183.091797" xlink:href="#DejaVuSans-77"/>
      <use x="264.878906" xlink:href="#DejaVuSans-69"/>
      <use x="292.662109" xlink:href="#DejaVuSans-105"/>
      <use x="353.941406" xlink:href="#DejaVuSans-7a"/>
      <use x="406.431641" xlink:href="#DejaVuSans-61"/>
      <use x="467.710938" xlink:href="#DejaVuSans-6e"/>
      <use x="531.089844" xlink:href="#DejaVuSans-69"/>
      <use x="558.873047" xlink:href="#DejaVuSans-65"/>
      <use x="620.396484" xlink:href="#DejaVuSans-20"/>
      <use x="652.183594" xlink:href="#DejaVuSans-61"/>
      <use x="713.462891" xlink:href="#DejaVuSans-6e"/>
      <use x="776.841797" xlink:href="#DejaVuSans-61"/>
      <use x="838.121094" xlink:href="#DejaVuSans-6c"/>
      <use x="865.904297" xlink:href="#DejaVuSans-69"/>
      <use x="893.6875" xlink:href="#DejaVuSans-74"/>
      <use x="932.896484" xlink:href="#DejaVuSans-79"/>
      <use x="992.076172" xlink:href="#DejaVuSans-63"/>
      <use x="1047.056641" xlink:href="#DejaVuSans-7a"/>
      <use x="1099.546875" xlink:href="#DejaVuSans-6e"/>
      <use x="1162.925781" xlink:href="#DejaVuSans-65"/>
     </g>
    </g>
    <g id="line2d_29"/>
    <g id="line2d_30">
     <g>
      <use style="fill:#0000ff;stroke:#0000ff;" x="302.128125" xlink:href="#m45adfb8059" y="268.363406"/>
     </g>
    </g>
    <g id="text_24">
     <!-- Minimum funkcji bez kary -->
     <defs>
      <path d="M 9.8125 72.90625 
L 24.515625 72.90625 
L 43.109375 23.296875 
L 61.8125 72.90625 
L 76.515625 72.90625 
L 76.515625 0 
L 66.890625 0 
L 66.890625 64.015625 
L 48.09375 14.015625 
L 38.1875 14.015625 
L 19.390625 64.015625 
L 19.390625 0 
L 9.8125 0 
z
" id="DejaVuSans-4d"/>
      <path d="M 52 44.1875 
Q 55.375 50.25 60.0625 53.125 
Q 64.75 56 71.09375 56 
Q 79.640625 56 84.28125 50.015625 
Q 88.921875 44.046875 88.921875 33.015625 
L 88.921875 0 
L 79.890625 0 
L 79.890625 32.71875 
Q 79.890625 40.578125 77.09375 44.375 
Q 74.3125 48.1875 68.609375 48.1875 
Q 61.625 48.1875 57.5625 43.546875 
Q 53.515625 38.921875 53.515625 30.90625 
L 53.515625 0 
L 44.484375 0 
L 44.484375 32.71875 
Q 44.484375 40.625 41.703125 44.40625 
Q 38.921875 48.1875 33.109375 48.1875 
Q 26.21875 48.1875 22.15625 43.53125 
Q 18.109375 38.875 18.109375 30.90625 
L 18.109375 0 
L 9.078125 0 
L 9.078125 54.6875 
L 18.109375 54.6875 
L 18.109375 46.1875 
Q 21.1875 51.21875 25.484375 53.609375 
Q 29.78125 56 35.6875 56 
Q 41.65625 56 45.828125 52.96875 
Q 50 49.953125 52 44.1875 
" id="DejaVuSans-6d"/>
      <path d="M 37.109375 75.984375 
L 37.109375 68.5 
L 28.515625 68.5 
Q 23.6875 68.5 21.796875 66.546875 
Q 19.921875 64.59375 19.921875 59.515625 
L 19.921875 54.6875 
L 34.71875 54.6875 
L 34.71875 47.703125 
L 19.921875 47.703125 
L 19.921875 0 
L 10.890625 0 
L 10.890625 47.703125 
L 2.296875 47.703125 
L 2.296875 54.6875 
L 10.890625 54.6875 
L 10.890625 58.5 
Q 10.890625 67.625 15.140625 71.796875 
Q 19.390625 75.984375 28.609375 75.984375 
z
" id="DejaVuSans-66"/>
      <path d="M 9.421875 54.6875 
L 18.40625 54.6875 
L 18.40625 -0.984375 
Q 18.40625 -11.421875 14.421875 -16.109375 
Q 10.453125 -20.796875 1.609375 -20.796875 
L -1.8125 -20.796875 
L -1.8125 -13.1875 
L 0.59375 -13.1875 
Q 5.71875 -13.1875 7.5625 -10.8125 
Q 9.421875 -8.453125 9.421875 -0.984375 
z
M 9.421875 75.984375 
L 18.40625 75.984375 
L 18.40625 64.59375 
L 9.421875 64.59375 
z
" id="DejaVuSans-6a"/>
     </defs>
     <g transform="translate(312.928125 270.463406)scale(0.06 -0.06)">
      <use xlink:href="#DejaVuSans-4d"/>
      <use x="86.279297" xlink:href="#DejaVuSans-69"/>
      <use x="114.0625" xlink:href="#DejaVuSans-6e"/>
      <use x="177.441406" xlink:href="#DejaVuSans-69"/>
      <use x="205.224609" xlink:href="#DejaVuSans-6d"/>
      <use x="302.636719" xlink:href="#DejaVuSans-75"/>
      <use x="366.015625" xlink:href="#DejaVuSans-6d"/>
      <use x="463.427734" xlink:href="#DejaVuSans-20"/>
      <use x="495.214844" xlink:href="#DejaVuSans-66"/>
      <use x="530.419922" xlink:href="#DejaVuSans-75"/>
      <use x="593.798828" xlink:href="#DejaVuSans-6e"/>
      <use x="657.177734" xlink:href="#DejaVuSans-6b"/>
      <use x="715.087891" xlink:href="#DejaVuSans-63"/>
      <use x="770.068359" xlink:href="#DejaVuSans-6a"/>
      <use x="797.851562" xlink:href="#DejaVuSans-69"/>
      <use x="825.634766" xlink:href="#DejaVuSans-20"/>
      <use x="857.421875" xlink:href="#DejaVuSans-62"/>
      <use x="920.898438" xlink:href="#DejaVuSans-65"/>
      <use x="982.421875" xlink:href="#DejaVuSans-7a"/>
      <use x="1034.912109" xlink:href="#DejaVuSans-20"/>
      <use x="1066.699219" xlink:href="#DejaVuSans-6b"/>
      <use x="1124.59375" xlink:href="#DejaVuSans-61"/>
      <use x="1185.873047" xlink:href="#DejaVuSans-72"/>
      <use x="1226.986328" xlink:href="#DejaVuSans-79"/>
     </g>
    </g>
   </g>
  </g>
 </g>
 <defs>
  <clipPath id="p5db7a20323">
   <rect height="266.112" width="357.12" x="58.523438" y="10.999219"/>
  </clipPath>
 </defs>
</svg>
